# https://github.com/mikedh/trimesh
v 0.06099254 -0.99649546 0.20358420
v 0.07175667 -0.99251061 0.18995323
v 0.07175667 -0.99450300 0.20358420
v 0.06099254 -0.99507230 0.22801273
v 0.03659808 -0.99251061 0.25244122
v 0.03659808 -0.98863250 0.17923227
v 0.06099254 -0.99286641 0.17923227
v 0.07175667 -0.98930855 0.17900252
v 0.07175667 -0.99066052 0.22824244
v 0.03659808 -0.98610643 0.27679314
v 0.07175667 -0.83557308 0.74032231
v 0.01220363 -0.98361592 0.27679314
v -0.00577906 -0.97770986 0.27679314
v -0.00219101 -0.97710507 0.18589460
v 0.00172612 -0.97536166 0.16965997
v 0.01797847 -0.97806567 0.16008767
v 0.03782948 -0.98048506 0.15311902
v 0.04678898 -0.97614440 0.14247464
v 0.04906070 -0.97614440 0.14247464
v 0.05871020 -0.98130335 0.15541639
v 0.07175667 -0.98301113 0.16682656
v 0.01220363 -0.97927533 0.29264487
v 0.07175667 -0.83151710 0.74981803
v -0.03667021 -0.80604278 0.77753941
v -0.03667021 -0.81081030 0.76559319
v -0.00364533 -0.97756755 0.29080701
v -0.01798689 -0.97329815 0.27679314
v -0.01107620 -0.97052303 0.17838991
v -0.03667021 -0.96369185 0.25228808
v -0.03667021 -0.95828391 0.20396709
v -0.02759394 -0.95490392 0.16207871
v -0.01325238 -0.96091673 0.15426771
v 0.01080238 -0.97322696 0.15311902
v 0.03051540 -0.97543285 0.14385304
v 0.01220363 -0.96080998 0.13535285
v 0.03782948 -0.96589774 0.13726729
v 0.03659808 -0.93939163 0.12777156
v 0.05450647 -0.96379860 0.13971780
v 0.07175667 -0.95166631 0.14362329
v 0.06670370 -0.96379860 0.14683959
v 0.07175667 -0.97130576 0.15503350
v 0.07175667 -0.98002250 0.16138950
v -0.01219083 -0.78661676 0.80809421
v -0.03667021 -0.78768418 0.80748158
v -0.03667021 -0.80074152 0.78833698
v 0.07175667 -0.71250637 0.85695125
v 0.01220363 -0.76320602 0.83152722
v -0.03667021 -0.81892225 0.74024572
v -0.03667021 -0.96212646 0.27794186
v -0.03659590 -0.96372748 0.25244122
v -0.03667021 -0.95775024 0.20029132
v -0.03112891 -0.95743006 0.17923227
v -0.03006735 -0.93939163 0.15993449
v -0.02021615 -0.93939163 0.14768195
v -0.00582152 -0.95629152 0.13803308
v -0.03667021 -0.95405007 0.18528195
v -0.03667021 -0.94547556 0.17295285
v 0.01220363 -0.93939163 0.12769498
v 0.03659808 -0.91498466 0.12646973
v 0.06099254 -0.91498466 0.13114100
v 0.06296703 -0.94095710 0.13611860
v 0.07175667 -0.94949598 0.14270435
v -0.01219083 -0.77533832 0.82034674
v -0.03667021 -0.71609986 0.88398340
v 0.07175667 -0.67614497 0.87900581
v -0.01219083 -0.71435645 0.88122660
v -0.03667021 -0.63305923 0.14852432
v -0.03667021 -0.93960513 0.17065548
v -0.00800832 -0.93939163 0.13588889
v 0.03659808 -0.89057769 0.12823102
v 0.06099254 -0.84179931 0.13336180
v 0.06099254 -0.86617073 0.13167708
v 0.06099254 -0.89057769 0.13052839
v 0.07175667 -0.89057769 0.13412759
v 0.07175667 -0.91498466 0.13565914
v 0.07175667 -0.93597608 0.13925834
v -0.03667021 -0.69767007 0.89615940
v 0.07175667 -0.66931387 0.88306447
v -0.01461116 -0.69308042 0.89294310
v 0.07175667 -0.63305923 0.18168279
v 0.07175667 -0.63458906 0.18091700
v 0.07175667 -0.68012983 0.16560130
v 0.07175667 -0.77768652 0.14209174
v 0.07175667 -0.81739235 0.13688439
v 0.06099254 -0.81739235 0.13581232
v -0.03667021 -0.63305923 0.90626774
v 0.07175667 -0.84179931 0.13565914
v 0.07175667 -0.86521012 0.13466363
v 0.07175667 -0.64661468 0.89286653
v 0.07175667 -0.63305923 0.89830359
v -0.02435622 -0.68336744 0.89891620
v -0.03667021 -0.68546658 0.89983514
v -0.03667021 -0.64668587 0.90573167
v -0.02301866 -0.63305923 0.90864165
v -0.01219083 -0.63305923 0.90879483
v -0.01219083 -0.64661468 0.90596142
v -0.03667021 -0.67109284 0.90220908
f 1 2 3
f 1 3 4
f 1 4 5
f 1 5 6
f 1 6 7
f 1 7 2
f 2 7 8
f 2 8 21
f 2 21 42
f 2 42 41
f 2 41 39
f 2 39 62
f 2 62 76
f 2 76 75
f 2 75 74
f 2 74 88
f 2 88 87
f 2 87 84
f 2 84 83
f 2 83 82
f 2 82 81
f 2 81 80
f 2 80 90
f 2 90 89
f 2 89 78
f 2 78 65
f 2 65 46
f 2 46 23
f 2 23 11
f 2 11 9
f 2 9 3
f 3 9 4
f 4 10 5
f 4 9 11
f 4 11 10
f 5 10 12
f 5 12 13
f 5 13 14
f 5 14 6
f 6 14 15
f 6 15 16
f 6 16 17
f 6 17 7
f 7 17 18
f 7 18 19
f 7 19 20
f 7 20 8
f 8 20 21
f 10 22 12
f 10 11 22
f 11 23 24
f 11 24 25
f 11 25 26
f 11 26 22
f 12 22 26
f 12 26 13
f 13 27 14
f 13 26 27
f 14 28 15
f 14 27 29
f 14 29 30
f 14 30 28
f 15 28 31
f 15 31 32
f 15 32 33
f 15 33 16
f 16 33 34
f 16 34 17
f 17 34 18
f 18 35 36
f 18 36 19
f 18 34 35
f 19 36 37
f 19 37 38
f 19 38 39
f 19 39 40
f 19 40 41
f 19 41 42
f 19 42 20
f 20 42 21
f 23 43 44
f 23 44 45
f 23 45 24
f 23 46 47
f 23 47 43
f 24 45 44
f 24 44 64
f 24 64 77
f 24 77 92
f 24 92 97
f 24 97 93
f 24 93 86
f 24 86 67
f 24 67 68
f 24 68 57
f 24 57 56
f 24 56 51
f 24 51 30
f 24 30 29
f 24 29 49
f 24 49 48
f 24 48 25
f 25 48 26
f 26 49 27
f 26 48 49
f 27 49 50
f 27 50 29
f 28 30 51
f 28 51 52
f 28 52 31
f 29 50 49
f 31 53 54
f 31 54 55
f 31 55 32
f 31 52 56
f 31 56 57
f 31 57 53
f 32 55 33
f 33 55 34
f 34 55 35
f 35 58 37
f 35 37 36
f 35 55 58
f 37 58 59
f 37 59 60
f 37 60 61
f 37 61 38
f 38 62 39
f 38 61 62
f 39 41 40
f 43 63 44
f 43 47 63
f 44 63 64
f 46 65 66
f 46 66 47
f 47 66 64
f 47 64 63
f 51 56 52
f 53 67 54
f 53 57 68
f 53 68 67
f 54 67 69
f 54 69 55
f 55 69 58
f 58 69 67
f 58 67 59
f 59 67 70
f 59 70 71
f 59 71 72
f 59 72 73
f 59 73 60
f 60 73 74
f 60 74 75
f 60 75 61
f 61 75 76
f 61 76 62
f 64 66 77
f 65 78 66
f 66 78 79
f 66 79 77
f 67 80 81
f 67 81 82
f 67 82 83
f 67 83 84
f 67 84 85
f 67 85 71
f 67 71 70
f 67 86 94
f 67 94 95
f 67 95 90
f 67 90 80
f 71 85 84
f 71 84 72
f 72 84 87
f 72 87 73
f 73 87 88
f 73 88 74
f 77 79 78
f 77 78 89
f 77 89 90
f 77 90 91
f 77 91 92
f 86 93 94
f 90 95 96
f 90 96 91
f 91 96 92
f 92 96 95
f 92 95 97
f 93 97 94
f 94 97 95

