# https://github.com/mikedh/trimesh
v -0.03661861 0.31022549 0.46040079
v 0.01628803 0.42585914 0.50110605
v 0.01628803 0.31022549 0.46581099
v -0.03668083 0.31022549 0.46374995
v -0.03668083 0.31320237 0.46503811
v -0.03668083 0.42585914 0.55890070
v 0.01628803 0.42585914 1.22839098
v 0.01628803 0.31022549 1.26566120
v -0.03668083 0.31022549 1.33771128
v -0.03668083 0.42585914 1.25595721
v -0.03659787 0.34825692 1.31813153
v -0.02295642 0.34271067 1.31461062
v 0.00004895 0.31734506 1.31375186
v 0.01628803 0.39862593 1.24608145
v 0.01628803 0.37819534 1.25329505
v 0.01429185 0.31022549 1.27459232
v -0.03080634 0.31022549 1.33470561
v -0.03668083 0.32595873 1.33084121
v -0.03668083 0.34826823 1.31813153
v -0.03668083 0.34666095 1.31916205
v -0.03668083 0.32933178 1.32920957
v -0.03668083 0.32838099 1.32972481
v -0.01377397 0.32704535 1.31753041
v -0.02527925 0.31022549 1.33161409
v -0.00701287 0.31022549 1.32036429
v 0.00083705 0.31022549 1.31461062
v 0.00796629 0.31022549 1.30026930
v 0.01628803 0.38236069 1.25243629
f 1 2 3
f 1 3 8
f 1 8 16
f 1 16 27
f 1 27 26
f 1 26 25
f 1 25 24
f 1 24 17
f 1 17 9
f 1 9 4
f 1 4 5
f 1 5 6
f 1 6 2
f 2 6 10
f 2 10 7
f 2 7 14
f 2 14 28
f 2 28 15
f 2 15 8
f 2 8 3
f 4 9 18
f 4 18 22
f 4 22 21
f 4 21 20
f 4 20 19
f 4 19 10
f 4 10 6
f 4 6 5
f 7 10 11
f 7 11 12
f 7 12 13
f 7 13 14
f 8 15 16
f 9 17 18
f 10 19 11
f 11 19 20
f 11 20 12
f 12 20 21
f 12 21 22
f 12 22 23
f 12 23 13
f 13 23 24
f 13 24 25
f 13 25 26
f 13 26 27
f 13 27 14
f 14 27 28
f 15 28 27
f 15 27 16
f 17 24 18
f 18 24 23
f 18 23 22

