# https://github.com/mikedh/trimesh
v -0.60532837 0.20881253 1.03737034
v -0.60532837 0.35483551 0.95521336
v -0.64660006 0.37315953 0.95302979
v -0.65925396 0.36234721 0.96103623
v -0.65925396 0.35346976 0.96549437
v -0.65925396 0.33264185 0.97422864
v -0.65925396 0.30498513 0.98469159
v -0.65925396 0.27095480 0.99742911
v -0.65925396 0.09044626 1.03737034
v -0.60532837 -0.42069111 1.03737034
v -0.60532837 0.36462349 0.94939049
v -0.62220553 0.36917606 0.95030033
v -0.65925396 0.38727244 0.94502335
v -0.65925396 0.37611867 0.95330274
v -0.65925396 -0.27170897 1.03737034
v -0.61042795 -0.41545569 1.03737034
v -0.63569881 -0.46735475 0.99815698
v -0.62220553 -0.47247636 1.00206923
v -0.62220553 -0.48465443 0.99506357
v -0.60801539 -0.48784121 0.99642830
v -0.60532837 -0.48488204 0.99861190
v -0.60684347 0.36667213 0.94838971
v -0.60532837 0.41925408 0.90162485
v -0.65925396 0.41549822 0.92191385
v -0.65925396 -0.31666538 1.02690734
v -0.65925396 -0.32520142 1.02435986
v -0.65925396 -0.47509409 0.95885266
v -0.63868147 -0.50013309 0.97723108
v -0.63528701 -0.51299405 0.97277294
v -0.65925396 -0.37710048 1.00307000
v -0.62220553 -0.50013309 0.98469159
v -0.62220553 -0.51481504 0.97395569
v -0.60532837 -0.51606702 0.97504747
v -0.60532837 -0.49080035 0.99433573
v -0.62220553 0.42289611 0.90553706
v -0.60532837 0.44167539 0.88169972
v -0.64767170 0.42847298 0.90753869
v -0.65925396 0.42687959 0.91190582
v -0.65925396 -0.58742821 0.90107892
v -0.60537588 -0.61406064 0.89634787
v -0.60532837 -0.54213036 0.95257487
v -0.62220553 0.43507418 0.89461919
v -0.60532837 0.44304114 0.87988007
v -0.65925396 0.47718526 0.86232051
v -0.65925396 0.46614533 0.87633178
v -0.65925396 0.44042344 0.89998713
v -0.65925396 -0.61007709 0.87469408
v -0.64575014 -0.61406064 0.87787848
v -0.62138200 -0.61406064 0.88943321
v -0.60532837 -0.61406064 0.87924321
v -0.60532837 -0.59778525 0.89616589
v -0.60532837 0.49926512 0.76469658
v -0.65925396 0.48572130 0.84403308
v -0.65925396 -0.61406064 0.86923516
v -0.60532837 -0.61406064 0.34372179
v -0.60532837 0.54866029 0.59392294
v -0.65925396 0.49300536 0.82192439
v -0.65925396 0.49061527 0.82983986
v -0.65925396 -0.61406064 0.31642713
v -0.64699070 -0.61406064 0.31924759
v -0.60532837 -0.56432402 0.26020013
v -0.60532837 0.54592876 0.56963069
v -0.65925396 0.51485761 0.56963069
v -0.65925396 0.51975158 0.65542692
v -0.65925396 0.51986539 0.66716362
v -0.65925396 0.51872728 0.67981016
v -0.65925396 0.51360567 0.73430850
v -0.65925396 -0.49000366 0.14019454
v -0.60532837 -0.55499132 0.24800849
v -0.65925396 0.51292277 0.55261700
v -0.60532837 0.54149000 0.55907675
v -0.65925396 0.50313479 0.52077323
v -0.65925396 0.51087413 0.54188111
v -0.65925396 -0.46564755 0.11681216
v -0.65737457 -0.46553371 0.11690313
v -0.65756996 -0.48932080 0.14064946
v -0.60532837 -0.54269941 0.23363330
v -0.60532837 0.37088325 0.19196343
v -0.65925396 0.43211505 0.37374594
v -0.65925396 -0.46348507 0.11572038
v -0.65925396 -0.45130700 0.11199011
v -0.65384289 -0.45130700 0.11362778
v -0.60532837 -0.44732353 0.13701016
v -0.60532837 0.36837936 0.18741436
v -0.65925396 0.42141653 0.35600439
v -0.61023787 0.36633069 0.19096262
v -0.65925396 -0.44368150 0.10980647
v -0.60532837 -0.42934095 0.13291601
v -0.60532837 0.32638209 0.13255205
v -0.65925396 0.34550281 0.23608984
v -0.65925396 -0.42695086 0.10789588
v -0.60532837 0.29918062 0.11781290
v -0.61269791 0.32069142 0.13792000
v -0.60532837 0.30521273 0.11808589
v -0.65925396 0.33969830 0.23226860
v -0.65925396 0.13415074 0.13164221
v -0.60786232 0.30498513 0.12154318
v -0.65925396 0.15156423 0.13910276
f 1 2 3
f 1 3 4
f 1 4 5
f 1 5 6
f 1 6 7
f 1 7 8
f 1 8 9
f 1 9 15
f 1 15 16
f 1 16 10
f 1 10 21
f 1 21 34
f 1 34 33
f 1 33 41
f 1 41 51
f 1 51 50
f 1 50 55
f 1 55 61
f 1 61 69
f 1 69 77
f 1 77 83
f 1 83 88
f 1 88 92
f 1 92 94
f 1 94 89
f 1 89 84
f 1 84 78
f 1 78 71
f 1 71 62
f 1 62 56
f 1 56 52
f 1 52 43
f 1 43 36
f 1 36 23
f 1 23 11
f 1 11 2
f 2 11 12
f 2 12 3
f 3 12 13
f 3 13 14
f 3 14 4
f 4 14 13
f 4 13 24
f 4 24 38
f 4 38 46
f 4 46 45
f 4 45 44
f 4 44 53
f 4 53 58
f 4 58 57
f 4 57 67
f 4 67 66
f 4 66 65
f 4 65 64
f 4 64 63
f 4 63 70
f 4 70 73
f 4 73 72
f 4 72 79
f 4 79 85
f 4 85 90
f 4 90 95
f 4 95 98
f 4 98 96
f 4 96 91
f 4 91 87
f 4 87 81
f 4 81 80
f 4 80 74
f 4 74 68
f 4 68 59
f 4 59 54
f 4 54 47
f 4 47 39
f 4 39 27
f 4 27 30
f 4 30 26
f 4 26 25
f 4 25 15
f 4 15 9
f 4 9 8
f 4 8 7
f 4 7 6
f 4 6 5
f 10 16 17
f 10 17 18
f 10 18 19
f 10 19 20
f 10 20 21
f 11 22 12
f 11 23 22
f 12 22 24
f 12 24 13
f 15 25 16
f 16 25 26
f 16 26 17
f 17 27 28
f 17 28 29
f 17 29 18
f 17 26 30
f 17 30 27
f 18 29 19
f 19 29 31
f 19 31 20
f 20 31 29
f 20 29 32
f 20 32 33
f 20 33 34
f 20 34 21
f 22 23 35
f 22 35 24
f 23 36 35
f 24 35 37
f 24 37 38
f 27 39 28
f 28 39 29
f 29 39 40
f 29 40 32
f 32 40 33
f 33 40 41
f 35 36 42
f 35 42 37
f 36 43 44
f 36 44 45
f 36 45 42
f 37 42 46
f 37 46 38
f 39 47 48
f 39 48 49
f 39 49 40
f 40 49 48
f 40 48 54
f 40 54 59
f 40 59 60
f 40 60 55
f 40 55 50
f 40 50 51
f 40 51 41
f 42 45 46
f 43 52 44
f 44 52 53
f 47 54 48
f 52 56 57
f 52 57 58
f 52 58 53
f 55 60 61
f 56 62 63
f 56 63 64
f 56 64 65
f 56 65 66
f 56 66 67
f 56 67 57
f 59 68 60
f 60 68 61
f 61 68 69
f 62 70 63
f 62 71 72
f 62 72 73
f 62 73 70
f 68 74 75
f 68 75 76
f 68 76 77
f 68 77 69
f 71 78 72
f 72 78 79
f 74 80 75
f 75 80 81
f 75 81 82
f 75 82 83
f 75 83 76
f 76 83 77
f 78 84 79
f 79 84 86
f 79 86 85
f 81 87 82
f 82 87 88
f 82 88 83
f 84 89 86
f 85 86 90
f 86 89 90
f 87 91 88
f 88 91 92
f 89 93 90
f 89 94 93
f 90 93 95
f 91 96 92
f 92 96 94
f 93 94 97
f 93 97 98
f 93 98 95
f 94 96 97
f 96 98 97

