# https://github.com/mikedh/trimesh
v -0.84886864 -0.63585515 0.71511411
v -0.84886864 -0.63579370 0.72610891
v -0.85997909 -0.63554806 0.71594997
v -0.85567770 -0.63493403 0.70296195
v -0.84886864 -0.62099463 0.47091366
v -0.84886864 -0.63573233 0.73195995
v -0.86029840 -0.63536394 0.73093120
v -0.87217903 -0.63161811 0.71594997
v -0.90701312 -0.61350296 0.74031858
v -0.84886864 -0.61995070 0.46159060
v -0.84886864 -0.63278479 0.73948271
v -0.86753948 -0.63100393 0.73954701
v -0.89060568 -0.62302106 0.74031858
v -0.90587669 -0.61252047 0.75600707
v -0.91921305 -0.59950219 0.74031858
v -0.93001351 -0.58912435 0.71594997
v -0.94481498 -0.57567623 0.66721276
v -0.94242011 -0.57788689 0.66721276
v -0.93022019 -0.58765058 0.66721276
v -0.85641026 -0.61233628 0.45291047
v -0.84886864 -0.61620486 0.44873117
v -0.94481498 -0.57543059 0.66393360
v -0.84886864 -0.63112683 0.74334054
v -0.86649701 -0.61737162 0.76635890
v -0.89060568 -0.61552939 0.76018639
v -0.92721484 -0.58562416 0.75259932
v -0.87482748 -0.60773071 0.77555339
v -0.89126313 -0.59882671 0.77227424
v -0.94481498 -0.49240825 0.80397272
v -0.92837003 -0.58728216 0.74031858
v -0.94481498 -0.57193040 0.68945956
v -0.88252878 -0.54399019 0.38070481
v -0.85332034 -0.60926589 0.43664330
v -0.84886864 -0.61374860 0.44101553
v -0.94481498 -0.56959692 0.64856659
v -0.84886864 -0.61927522 0.76520156
v -0.85856095 -0.61129235 0.77844676
v -0.94481498 -0.54730615 0.73864685
v -0.94481498 -0.56032444 0.71594997
v -0.94481498 -0.57156194 0.69055261
v -0.84886864 -0.54896415 0.81869675
v -0.85518933 -0.34245220 0.92414401
v -0.88058467 -0.29670395 0.92491558
v -0.88586282 -0.28061531 0.92761606
v -0.90213878 -0.25623672 0.92272947
v -0.94481498 -0.06716438 0.94092558
v -0.93843794 -0.40981577 0.36636655
v -0.93299072 -0.42105324 0.36636655
v -0.88350553 -0.52268194 0.36636655
v -0.86925816 -0.55013087 0.36636655
v -0.86487221 -0.55713129 0.36636655
v -0.85845762 -0.56628096 0.36636655
v -0.86108731 -0.56898286 0.37440371
v -0.84886864 -0.61073969 0.43297837
v -0.84965755 -0.58120285 0.37440371
v -0.84886864 -0.58200115 0.37440371
v -0.94481498 -0.44696703 0.45117444
v -0.94159360 -0.40256971 0.36636655
v -0.84886864 -0.61116953 0.77831817
v -0.84886864 -0.60312520 0.78513366
v -0.84886864 -0.34404879 0.92568715
v -0.84886864 -0.33631152 0.92877340
v -0.85599700 -0.02602165 1.02200422
v -0.87671522 -0.00852063 1.00502976
v -0.94481498 -0.06268166 0.94118275
v -0.85299166 -0.57211459 0.36636655
v -0.84886864 -0.58150990 0.37369642
v -0.94481498 -0.39120942 0.36636655
v -0.84886864 -0.02596024 1.02200422
v -0.84886864 -0.01908264 1.02309728
v -0.84886864 -0.00852063 1.02309728
v -0.85388383 -0.00852063 1.02232570
v -0.85595003 -0.01220505 1.02187562
v -0.94481498 -0.00852063 0.94021829
v -0.94481498 -0.03793461 0.94176144
v -0.85558376 -0.00852063 1.02161842
v -0.84932887 -0.57561482 0.36636655
v -0.84886864 -0.57604469 0.36636655
v -0.94481498 -0.02903058 0.36636655
v -0.84886864 -0.00852063 0.36636655
v -0.94481498 -0.00852063 0.36803830
v -0.94208196 -0.00852063 0.36636655
f 1 2 3
f 1 3 4
f 1 4 5
f 1 5 10
f 1 10 21
f 1 21 34
f 1 34 54
f 1 54 56
f 1 56 67
f 1 67 78
f 1 78 80
f 1 80 71
f 1 71 70
f 1 70 69
f 1 69 62
f 1 62 61
f 1 61 41
f 1 41 60
f 1 60 59
f 1 59 36
f 1 36 23
f 1 23 11
f 1 11 6
f 1 6 2
f 2 6 3
f 3 6 7
f 3 7 8
f 3 8 5
f 3 5 4
f 5 8 9
f 5 9 10
f 6 11 7
f 7 11 12
f 7 12 13
f 7 13 8
f 8 13 9
f 9 13 14
f 9 14 15
f 9 15 16
f 9 16 17
f 9 17 18
f 9 18 19
f 9 19 10
f 10 20 21
f 10 19 18
f 10 18 22
f 10 22 20
f 11 23 12
f 12 14 13
f 12 23 24
f 12 24 25
f 12 25 14
f 14 26 15
f 14 25 27
f 14 27 28
f 14 28 29
f 14 29 26
f 15 26 30
f 15 30 16
f 16 30 31
f 16 31 17
f 17 31 40
f 17 40 39
f 17 39 38
f 17 38 29
f 17 29 46
f 17 46 65
f 17 65 75
f 17 75 74
f 17 74 81
f 17 81 79
f 17 79 68
f 17 68 57
f 17 57 35
f 17 35 22
f 17 22 18
f 20 32 33
f 20 33 34
f 20 34 21
f 20 22 35
f 20 35 32
f 23 36 24
f 24 36 37
f 24 37 25
f 25 37 27
f 26 38 39
f 26 39 40
f 26 40 31
f 26 31 30
f 26 29 38
f 27 29 28
f 27 37 41
f 27 41 29
f 29 41 42
f 29 42 43
f 29 43 44
f 29 44 45
f 29 45 46
f 32 47 48
f 32 48 49
f 32 49 50
f 32 50 51
f 32 51 52
f 32 52 53
f 32 53 33
f 32 35 47
f 33 54 34
f 33 53 55
f 33 55 56
f 33 56 54
f 35 57 58
f 35 58 47
f 36 59 37
f 37 59 60
f 37 60 41
f 41 61 42
f 42 61 62
f 42 62 63
f 42 63 44
f 42 44 43
f 44 63 45
f 45 63 46
f 46 63 64
f 46 64 65
f 47 58 68
f 47 68 79
f 47 79 82
f 47 82 80
f 47 80 78
f 47 78 77
f 47 77 66
f 47 66 52
f 47 52 51
f 47 51 50
f 47 50 49
f 47 49 48
f 52 66 55
f 52 55 53
f 55 66 67
f 55 67 56
f 57 68 58
f 62 69 63
f 63 69 70
f 63 70 71
f 63 71 72
f 63 72 73
f 63 73 64
f 64 74 75
f 64 75 65
f 64 73 76
f 64 76 72
f 64 72 71
f 64 71 80
f 64 80 82
f 64 82 81
f 64 81 74
f 66 77 67
f 67 77 78
f 72 76 73
f 79 81 82

