# https://github.com/mikedh/trimesh
v -0.18300693 0.15863542 1.46593757
v -0.20740267 0.17682798 1.46375793
v -0.23179840 0.17400667 1.46176779
v -0.20856394 0.15698155 1.46375793
v -0.18300693 0.13976186 1.46243120
v -0.17590825 0.13985915 1.46233637
v -0.17590825 0.15844085 1.46498991
v -0.19144153 0.32937308 1.46214687
v -0.20674781 0.32849748 1.46186254
v -0.22279626 0.27362794 1.46129396
v -0.24400501 0.17089352 1.46015673
v -0.23179840 0.16573733 1.46176779
v -0.20120331 0.14248588 1.46138871
v -0.18300693 0.12760106 1.45826134
v -0.17590825 0.12769835 1.45835617
v -0.17590825 0.16476447 1.46432651
v -0.17590825 0.32596804 1.44442520
v -0.17883330 0.32869208 1.44717349
v -0.19459360 0.34202029 1.46044106
v -0.19817349 0.34202029 1.46044106
v -0.21444025 0.33618309 1.45958815
v -0.22027287 0.31983899 1.46034623
v -0.26510898 0.25611639 1.45466015
v -0.24400501 0.17079622 1.46015673
v -0.26510898 0.11758056 1.43741238
v -0.21747007 0.14773935 1.45968290
v -0.20856394 0.13431383 1.45721894
v -0.21815113 0.07428811 1.43542224
v -0.20188437 0.07156409 1.43693848
v -0.18300693 0.08547604 1.44319322
v -0.17590825 0.09257796 1.44575194
v -0.17590825 0.58640376 1.26569229
v -0.24273021 0.39085808 1.43618040
v -0.24538458 0.39085808 1.43618040
v -0.23179840 0.35379197 1.45124852
v -0.22975525 0.32849748 1.45627121
v -0.26510898 0.29600383 1.45058512
v -0.26510898 0.28053529 1.45276483
v -0.26510898 0.27168224 1.45361774
v -0.26510898 0.14919865 1.44641534
v -0.26510898 0.12906035 1.44110833
v -0.26510898 0.06105716 1.41684767
v -0.25838574 0.05881957 1.41789008
v -0.25170616 0.04461576 1.41419413
v -0.19670662 -0.02552774 1.38737475
v -0.18300693 0.07078581 1.43750713
v -0.17590825 0.07117495 1.43722280
v -0.17590825 0.59545137 1.25270905
v -0.18300693 0.59866182 1.25270905
v -0.18300693 0.58747391 1.26654523
v -0.20740267 0.58805761 1.26720860
v -0.26165131 0.38297788 1.43295827
v -0.25458754 0.37616783 1.43826529
v -0.22210648 0.58650102 1.26597662
v -0.26510898 0.56470887 1.26711385
v -0.26510898 0.39523597 1.42044887
v -0.25619416 0.35379197 1.44347754
v -0.26510898 0.32042269 1.44613101
v -0.26510898 0.05210681 1.41305689
v -0.22239461 -0.05344893 1.36510422
v -0.20740267 -0.05607568 1.36785244
v -0.18300693 -0.03827226 1.38112001
v -0.18300693 -0.02611146 1.38775382
v -0.17590825 -0.02591688 1.38765900
v -0.17590825 0.60625016 1.22958562
v -0.18057086 0.60916876 1.22996470
v -0.20740267 0.59798081 1.25270905
v -0.20740267 0.60761217 1.23565079
v -0.26510898 0.38200499 1.43125239
v -0.26510898 0.37509768 1.43437976
v -0.26510898 0.36916319 1.43655947
v -0.23086414 0.59126806 1.25327767
v -0.23837321 0.58309601 1.26171205
v -0.26510898 0.57044877 1.26076436
v -0.26510898 0.34386873 1.44167691
v -0.26510898 0.04588048 1.40812896
v -0.26510898 -0.30162656 1.09747869
v -0.20740267 -0.06833376 1.35657502
v -0.18300693 -0.05627023 1.36889492
v -0.17590825 -0.05043306 1.37202230
v -0.17590825 -0.03729939 1.38093050
v -0.17590825 -0.03350523 1.38348922
v -0.17590825 0.68524675 0.97968177
v -0.18707580 0.61237917 1.22295184
v -0.20740267 0.61276836 1.22352046
v -0.22349478 0.61130906 1.21906635
v -0.25080682 0.58854406 1.24550666
v -0.23169364 0.60430446 1.22769024
v -0.25784439 0.58017741 1.25327767
v -0.26510898 0.58397160 1.24218978
v -0.26510898 -0.30804746 1.08980246
v -0.18255289 -0.30804746 1.08174716
v -0.17590825 -0.22467301 1.18040090
v -0.18300693 -0.06843105 1.35562736
v -0.17590825 -0.06434501 1.35884948
v -0.17590825 -0.05568653 1.36823152
v -0.17590825 0.68563586 0.95352574
v -0.17591697 0.68524675 0.97968177
v -0.24713962 0.61053076 1.19395275
v -0.26510898 0.60265056 1.20324004
v -0.26510898 0.58543087 1.23991536
v -0.26510898 0.59136536 1.22740595
v -0.26510898 -0.30804746 0.49778531
v -0.18001203 -0.30804746 1.08136812
v -0.17590825 -0.30804746 1.08060996
v -0.17590825 0.68583045 0.93561455
v -0.17620512 0.68544127 0.96006475
v -0.26510898 0.64409456 0.96006475
v -0.26510898 0.64292715 0.96868866
v -0.20740267 0.66909724 0.98432542
v -0.26510898 0.60780676 1.17973753
v -0.17590825 -0.30804746 0.49778531
v -0.26510898 0.37655698 0.49778531
v -0.17590825 0.68456575 0.91476553
v -0.26510898 0.64302445 0.94452276
v -0.17590825 0.32684363 0.49778531
v -0.26510898 0.46411476 0.55748931
v -0.20740267 0.43103737 0.53853565
v -0.20740267 0.41887657 0.53095418
v -0.19376412 0.41731998 0.53218616
v -0.25500667 0.37130349 0.49778531
v -0.17590825 0.67902044 0.90453057
v -0.26510898 0.46537947 0.55947944
v -0.26510898 0.47111937 0.57037779
v -0.25186335 0.63699266 0.89154732
v -0.26510898 0.63572796 0.90235090
v -0.26510898 0.63816007 0.91173295
v -0.26510898 0.63903574 0.91647136
v -0.26510898 0.64234338 0.93551978
v -0.23281999 0.35885087 0.49778531
v -0.17590825 0.42004398 0.54611709
v -0.22157385 0.51285522 0.62998700
v -0.20740267 0.51304981 0.62970267
v -0.19457614 0.51275792 0.63008175
v -0.20740267 0.44475476 0.55076074
v -0.18968651 0.44203072 0.55256134
v -0.18359194 0.42704862 0.54507465
v -0.17590825 0.42432458 0.54867585
v -0.17590825 0.49116037 0.62752303
v -0.17590825 0.43755557 0.55919512
v -0.17590825 0.43434508 0.55663636
f 1 2 3
f 1 3 4
f 1 4 5
f 1 5 6
f 1 6 7
f 1 7 8
f 1 8 9
f 1 9 10
f 1 10 2
f 2 10 3
f 3 11 24
f 3 24 12
f 3 12 4
f 3 10 11
f 4 13 5
f 4 12 13
f 5 13 14
f 5 14 15
f 5 15 6
f 6 15 31
f 6 31 47
f 6 47 64
f 6 64 82
f 6 82 81
f 6 81 80
f 6 80 96
f 6 96 95
f 6 95 93
f 6 93 105
f 6 105 112
f 6 112 116
f 6 116 131
f 6 131 138
f 6 138 141
f 6 141 140
f 6 140 139
f 6 139 122
f 6 122 114
f 6 114 106
f 6 106 97
f 6 97 83
f 6 83 65
f 6 65 48
f 6 48 32
f 6 32 17
f 6 17 16
f 6 16 7
f 7 16 8
f 8 17 18
f 8 18 19
f 8 19 20
f 8 20 9
f 8 16 17
f 9 20 21
f 9 21 22
f 9 22 10
f 10 22 23
f 10 23 11
f 11 23 24
f 12 24 25
f 12 25 26
f 12 26 13
f 13 26 27
f 13 27 28
f 13 28 29
f 13 29 14
f 14 29 30
f 14 30 15
f 15 30 31
f 17 32 18
f 18 32 19
f 19 32 33
f 19 33 34
f 19 34 20
f 20 34 35
f 20 35 21
f 21 35 36
f 21 36 22
f 22 36 37
f 22 37 38
f 22 38 39
f 22 39 23
f 23 39 38
f 23 38 37
f 23 37 58
f 23 58 75
f 23 75 71
f 23 71 70
f 23 70 69
f 23 69 56
f 23 56 55
f 23 55 74
f 23 74 90
f 23 90 101
f 23 101 102
f 23 102 100
f 23 100 111
f 23 111 109
f 23 109 108
f 23 108 115
f 23 115 129
f 23 129 128
f 23 128 127
f 23 127 126
f 23 126 124
f 23 124 123
f 23 123 117
f 23 117 113
f 23 113 103
f 23 103 91
f 23 91 77
f 23 77 76
f 23 76 59
f 23 59 42
f 23 42 25
f 23 25 41
f 23 41 40
f 23 40 24
f 24 40 41
f 24 41 25
f 25 42 28
f 25 28 26
f 26 28 27
f 28 42 43
f 28 43 44
f 28 44 29
f 29 44 45
f 29 45 46
f 29 46 30
f 30 46 31
f 31 46 47
f 32 48 49
f 32 49 50
f 32 50 33
f 33 50 51
f 33 51 34
f 34 52 53
f 34 53 35
f 34 51 54
f 34 54 55
f 34 55 56
f 34 56 52
f 35 57 36
f 35 53 57
f 36 57 37
f 37 57 58
f 42 59 44
f 42 44 43
f 44 59 60
f 44 60 61
f 44 61 45
f 45 61 62
f 45 62 63
f 45 63 46
f 46 63 64
f 46 64 47
f 48 65 66
f 48 66 49
f 49 67 51
f 49 51 50
f 49 66 68
f 49 68 67
f 51 67 54
f 52 69 70
f 52 70 71
f 52 71 53
f 52 56 69
f 53 71 57
f 54 67 68
f 54 68 72
f 54 72 73
f 54 73 55
f 55 73 74
f 57 71 75
f 57 75 58
f 59 76 60
f 60 77 78
f 60 78 61
f 60 76 77
f 61 78 79
f 61 79 62
f 62 80 81
f 62 81 82
f 62 82 64
f 62 64 63
f 62 79 80
f 65 83 66
f 66 83 84
f 66 84 68
f 68 84 85
f 68 85 86
f 68 86 72
f 72 87 73
f 72 86 88
f 72 88 87
f 73 87 89
f 73 89 74
f 74 89 90
f 77 91 92
f 77 92 93
f 77 93 94
f 77 94 78
f 78 94 79
f 79 94 95
f 79 95 96
f 79 96 80
f 83 97 98
f 83 98 85
f 83 85 84
f 85 98 86
f 86 98 99
f 86 99 100
f 86 100 88
f 87 101 90
f 87 90 89
f 87 88 100
f 87 100 102
f 87 102 101
f 91 103 112
f 91 112 105
f 91 105 104
f 91 104 92
f 92 104 93
f 93 104 105
f 93 95 94
f 97 106 107
f 97 107 98
f 98 107 108
f 98 108 109
f 98 109 110
f 98 110 111
f 98 111 100
f 98 100 99
f 103 113 121
f 103 121 130
f 103 130 116
f 103 116 112
f 106 114 108
f 106 108 107
f 108 114 115
f 109 111 110
f 113 117 118
f 113 118 119
f 113 119 120
f 113 120 121
f 114 122 123
f 114 123 124
f 114 124 125
f 114 125 126
f 114 126 127
f 114 127 128
f 114 128 129
f 114 129 115
f 116 130 120
f 116 120 131
f 117 123 132
f 117 132 133
f 117 133 134
f 117 134 135
f 117 135 118
f 118 135 136
f 118 136 120
f 118 120 119
f 120 136 137
f 120 137 138
f 120 138 131
f 120 130 121
f 122 139 134
f 122 134 133
f 122 133 132
f 122 132 123
f 124 126 125
f 134 139 140
f 134 140 136
f 134 136 135
f 136 140 137
f 137 140 141
f 137 141 138

