# https://github.com/mikedh/trimesh
v -0.46280891 0.37308736 1.03737031
v -0.46280891 0.58642754 0.68017162
v -0.47580442 0.58684777 0.68051797
v -0.48927320 0.58642754 0.68022935
v -0.51802804 0.58950931 0.65904448
v -0.54401904 0.58936926 0.63635879
v -0.55950388 0.59245096 0.61777153
v -0.55950388 0.42491654 0.86211898
v -0.55950388 0.30318794 1.03737031
v -0.46280891 -0.50576787 1.03737031
v -0.46280891 0.59161049 0.66729907
v -0.47580442 0.59259102 0.66718363
v -0.49853002 0.59020973 0.66718363
v -0.52553382 0.59245096 0.64380524
v -0.55950388 0.59945491 0.59398906
v -0.55950388 -0.46934736 1.03737031
v -0.47085421 -0.50814923 1.03737031
v -0.52459677 -0.69529467 1.03633128
v -0.50020533 -0.69529467 1.03511908
v -0.48025300 -0.69529467 1.02674901
v -0.47073117 -0.71966841 1.01491550
v -0.46280891 -0.71966841 1.00619912
v -0.46280891 0.59469219 0.65419563
v -0.46280891 0.59623308 0.64282392
v -0.50020533 0.59511243 0.64282392
v -0.54899766 0.59987515 0.59398906
v -0.55950388 0.59945491 0.56957164
v -0.55950388 -0.69529467 1.01503096
v -0.55796106 -0.69529467 1.01699359
v -0.54576063 -0.69529467 1.02796122
v -0.54878944 -0.47761201 1.03737031
v -0.47580442 -0.50955003 1.03737031
v -0.48341433 -0.50955003 1.03737031
v -0.50020533 -0.50856947 1.03737031
v -0.50430369 -0.50688852 1.03737031
v -0.52577044 -0.49414133 1.03737031
v -0.54316720 -0.71364498 1.02582543
v -0.52495643 -0.72092912 1.02859619
v -0.50020533 -0.71966841 1.03027020
v -0.48293160 -0.71966841 1.02444003
v -0.46280891 -0.73871914 1.00106165
v -0.50020533 0.59567279 0.56957164
v -0.54899766 0.59973509 0.56957164
v -0.46280891 0.58782837 0.52079450
v -0.51320086 0.58572719 0.45943345
v -0.55950388 0.58642754 0.48229233
v -0.55950388 -0.69851650 1.01462688
v -0.55950388 -0.71770728 1.00510235
v -0.55950388 -0.73171519 0.98963221
v -0.51706260 -0.73409655 1.02334328
v -0.50020533 -0.73437673 1.02311236
v -0.48682175 -0.73311602 1.02149609
v -0.46280891 -0.74278144 0.99886812
v -0.47583283 0.58740813 0.49689661
v -0.48398223 0.58670772 0.48067603
v -0.51160125 0.58572719 0.45943345
v -0.46280891 0.58642754 0.50416987
v -0.50311109 0.57227958 0.44765767
v -0.52035642 0.57129905 0.44765767
v -0.55950388 0.58390612 0.47905976
v -0.55950388 -0.77598012 0.90212200
v -0.48962340 -0.75706952 0.99817543
v -0.48397277 -0.75706952 0.99817543
v -0.46770234 -0.75440798 0.99546239
v -0.46280891 -0.75118615 0.99222981
v -0.46280891 0.58334583 0.49152822
v -0.49534030 0.58362601 0.46445548
v -0.50278928 0.57283994 0.44823492
v -0.47580442 0.56639628 0.45452688
v -0.48042338 0.54888644 0.44765767
v -0.53389144 0.55518997 0.44765767
v -0.55950388 0.56303440 0.45874076
v -0.54899766 0.56625623 0.45648951
v -0.55950388 -0.78424478 0.88399653
v -0.48551556 -0.82808948 0.84687973
v -0.46924515 -0.83075102 0.85167086
v -0.46280891 -0.76211235 0.98160852
v -0.46280891 -0.83075102 0.85167086
v -0.46280891 -0.78130313 0.94951374
v -0.46280891 0.57298000 0.47172876
v -0.47583283 0.57914348 0.47236373
v -0.46280891 0.56219393 0.45902937
v -0.47580442 0.54888644 0.45002438
v -0.46280891 0.44816966 0.44765767
v -0.55950388 0.55953238 0.45822124
v -0.55950388 0.47940726 0.44765767
v -0.55950388 -0.82668872 0.76854770
v -0.55950388 -0.82907008 0.76035083
v -0.55950388 -0.83019073 0.75602150
v -0.54763472 -0.83075102 0.76335250
v -0.52330953 -0.83117126 0.76346795
v -0.46280891 -0.83075102 0.84174226
v -0.46280891 -0.70229862 0.44765767
v -0.55950388 -0.67414276 0.44765767
v -0.55950388 -0.83019073 0.75411660
v -0.54899766 -0.83061097 0.75128810
v -0.53057868 -0.83061097 0.75151900
v -0.51024775 -0.83047084 0.77074123
v -0.46280891 -0.83019073 0.83493078
v -0.46280891 -0.82850972 0.82684936
v -0.46365130 -0.82949032 0.82575260
v -0.51431772 -0.82878990 0.75446294
v -0.55950388 -0.83005061 0.75180762
v -0.52459677 -0.68464865 0.44765767
v -0.54978328 -0.67722447 0.44765767
f 1 2 3
f 1 3 4
f 1 4 5
f 1 5 6
f 1 6 7
f 1 7 8
f 1 8 9
f 1 9 16
f 1 16 31
f 1 31 36
f 1 36 35
f 1 35 34
f 1 34 33
f 1 33 32
f 1 32 17
f 1 17 10
f 1 10 22
f 1 22 41
f 1 41 53
f 1 53 65
f 1 65 77
f 1 77 79
f 1 79 78
f 1 78 92
f 1 92 99
f 1 99 100
f 1 100 93
f 1 93 84
f 1 84 82
f 1 82 80
f 1 80 66
f 1 66 57
f 1 57 44
f 1 44 24
f 1 24 23
f 1 23 11
f 1 11 2
f 2 11 12
f 2 12 3
f 3 12 4
f 4 12 13
f 4 13 5
f 5 13 14
f 5 14 7
f 5 7 6
f 7 14 15
f 7 15 27
f 7 27 46
f 7 46 60
f 7 60 72
f 7 72 85
f 7 85 86
f 7 86 94
f 7 94 103
f 7 103 95
f 7 95 89
f 7 89 88
f 7 88 87
f 7 87 74
f 7 74 61
f 7 61 49
f 7 49 48
f 7 48 47
f 7 47 28
f 7 28 16
f 7 16 9
f 7 9 8
f 10 17 18
f 10 18 19
f 10 19 20
f 10 20 21
f 10 21 22
f 11 23 12
f 12 14 13
f 12 23 24
f 12 24 25
f 12 25 15
f 12 15 14
f 15 25 26
f 15 26 27
f 16 28 29
f 16 29 30
f 16 30 18
f 16 18 31
f 17 32 18
f 18 32 33
f 18 33 34
f 18 34 35
f 18 35 36
f 18 36 31
f 18 30 37
f 18 37 38
f 18 38 39
f 18 39 19
f 19 39 40
f 19 40 20
f 20 40 21
f 21 40 41
f 21 41 22
f 24 42 43
f 24 43 26
f 24 26 25
f 24 44 42
f 26 43 27
f 27 43 45
f 27 45 46
f 28 47 29
f 29 47 37
f 29 37 30
f 37 48 49
f 37 49 50
f 37 50 38
f 37 47 48
f 38 50 39
f 39 50 51
f 39 51 52
f 39 52 40
f 40 52 41
f 41 52 53
f 42 44 54
f 42 54 55
f 42 55 43
f 43 55 56
f 43 56 45
f 44 57 54
f 45 56 58
f 45 58 59
f 45 59 60
f 45 60 46
f 49 61 50
f 50 62 51
f 50 61 62
f 51 62 63
f 51 63 52
f 52 63 64
f 52 64 53
f 53 64 65
f 54 57 55
f 55 57 66
f 55 66 67
f 55 67 56
f 56 67 68
f 56 68 58
f 58 68 69
f 58 69 70
f 58 70 84
f 58 84 93
f 58 93 104
f 58 104 105
f 58 105 94
f 58 94 86
f 58 86 71
f 58 71 59
f 59 71 72
f 59 72 73
f 59 73 60
f 60 73 72
f 61 74 75
f 61 75 62
f 62 75 76
f 62 76 78
f 62 78 63
f 63 77 64
f 63 78 79
f 63 79 77
f 64 77 65
f 66 80 81
f 66 81 67
f 67 81 80
f 67 80 69
f 67 69 68
f 69 82 70
f 69 80 82
f 70 82 83
f 70 83 84
f 71 85 72
f 71 86 85
f 74 87 75
f 75 87 88
f 75 88 89
f 75 89 76
f 76 89 90
f 76 90 91
f 76 91 78
f 78 91 92
f 82 84 83
f 89 95 90
f 90 95 96
f 90 96 91
f 91 96 97
f 91 97 98
f 91 98 92
f 92 98 99
f 93 100 101
f 93 101 102
f 93 102 97
f 93 97 96
f 93 96 103
f 93 103 104
f 94 105 103
f 95 103 96
f 97 102 98
f 98 102 101
f 98 101 99
f 99 101 100
f 103 105 104

