# https://github.com/mikedh/trimesh
v -0.65925927 -0.00556095 0.20229957
v -0.81772487 -0.00556095 0.25283928
v -0.68275625 0.09770826 0.14272839
v -0.66649765 0.09638713 0.14145121
v -0.65925927 0.09638713 0.14145121
v -0.65925927 -0.00556095 1.06357293
v -0.84099920 -0.00556095 0.27810915
v -0.78570881 0.14103070 0.16361935
v -0.70996525 0.11873644 0.14135999
v -0.69541422 0.11356196 0.13816706
v -0.67317925 0.10745169 0.13561271
v -0.65925927 0.09858902 0.14026526
v -0.65925927 0.06049612 1.05061871
v -0.67100775 0.06104660 1.05362922
v -0.69541422 0.03660549 1.06247824
v -0.71980214 0.01221940 1.06202208
v -0.71980214 -0.00556095 1.06129228
v -0.84445140 -0.00556095 0.28330908
v -0.81477385 0.18303198 0.18314190
v -0.81056074 0.15864591 0.18496646
v -0.79953607 0.15864591 0.17283326
v -0.78734212 0.15864591 0.16316323
v -0.70996525 0.12490176 0.14135999
v -0.67100775 0.13420479 0.13260219
v -0.65925927 0.13420479 0.13159873
v -0.65925927 0.10827740 0.13597760
v -0.71980214 0.32934839 1.01175604
v -0.65925927 0.27105303 0.99743342
v -0.74420859 0.32934839 1.01686475
v -0.79298435 0.03660549 1.05828177
v -0.79298435 0.01221940 1.05581864
v -0.79298435 -0.00159752 1.04806435
v -0.79298435 -0.00556095 1.04395915
v -0.84885010 0.03660549 0.28905636
v -0.82732049 0.18193103 0.20375919
v -0.84885010 -0.00556095 0.30137202
v -0.79283586 0.18440816 0.17046139
v -0.83036430 0.19712416 0.21187841
v -0.81197131 0.20741804 0.18633487
v -0.78459521 0.17719693 0.16526146
v -0.76998847 0.18440816 0.16325445
v -0.76276863 0.20235367 0.16544391
v -0.65925927 0.15165487 0.13917053
v -0.71931958 0.35384455 1.00391053
v -0.70539951 0.34580761 0.99934920
v -0.65925927 0.30496233 0.98466164
v -0.72713332 0.36870739 0.99953165
v -0.74606457 0.35588130 1.00537015
v -0.76859644 0.32934839 1.01029642
v -0.81211980 0.07706543 1.04961524
v -0.81399432 0.06104660 1.05153099
v -0.81098759 0.03660549 1.05098364
v -0.80527110 -0.00005620 1.04541877
v -0.84885010 -0.00556095 1.02325064
v -0.80358215 -0.00556095 1.04094867
v -0.84885010 0.20697766 0.28832657
v -0.83036430 0.18930741 0.21187841
v -0.79298435 0.20741804 0.17675605
v -0.77904576 0.19349102 0.16745088
v -0.82277324 0.20615195 0.20375919
v -0.84885010 0.21991385 0.29407385
v -0.84885010 0.23180412 0.29936501
v -0.84885010 0.23626297 0.30164569
v -0.84885010 0.24875876 0.30885263
v -0.84885010 0.26086922 0.31615080
v -0.84885010 0.39942393 0.40327249
v -0.80734988 0.22129003 0.18980150
v -0.76998847 0.20923462 0.16936666
v -0.74420859 0.21435404 0.17027894
v -0.65925927 0.33975237 0.23231321
v -0.65925927 0.36237692 0.96103388
v -0.65925927 0.37619386 0.95327959
v -0.69521002 0.52553788 0.88878215
v -0.70042540 0.54238242 0.88212259
v -0.65925927 0.33270628 0.97417055
v -0.65925927 0.34173407 0.97043024
v -0.65925927 0.35345922 0.96550402
v -0.73917879 0.36870739 0.99953165
v -0.71980214 0.52829024 0.89525927
v -0.76859644 0.34806455 1.00117373
v -0.83509713 0.51667523 0.87710511
v -0.84885010 0.52465712 0.86779997
v -0.78188546 0.34266991 0.99743342
v -0.78569026 0.32934839 1.00035271
v -0.82234638 0.28057625 0.99205103
v -0.81015243 0.28057625 0.99907553
v -0.82618827 0.06104660 1.04213462
v -0.84885010 0.27006218 0.97681613
v -0.81076492 -0.00556095 1.03857677
v -0.84885010 0.00043923 1.02334186
v -0.79298435 0.22519841 0.18642609
v -0.84885010 0.41026829 0.41294253
v -0.84885010 0.45727893 0.45518061
v -0.81061644 0.41973646 0.38110436
v -0.80126217 0.41098394 0.36486595
v -0.78498497 0.41692905 0.36039581
v -0.76859644 0.22872145 0.18177350
v -0.65925927 0.34558742 0.23605352
v -0.65925927 0.38731345 0.94506918
v -0.68090027 0.51865696 0.87911210
v -0.68466792 0.53434552 0.86232636
v -0.69688042 0.54623577 0.86232636
v -0.71980214 0.55443786 0.86232636
v -0.71980214 0.54408889 0.88312610
v -0.84885010 0.54276775 0.85621415
v -0.84885010 0.28745720 0.97134252
v -0.84885010 0.28332863 0.97289337
v -0.84885010 0.08548771 1.01540512
v -0.84885010 0.06104660 1.02042261
v -0.84885010 0.46278366 0.46120158
v -0.79881224 0.43603053 0.39132178
v -0.79190792 0.42645230 0.37526582
v -0.78255366 0.43988388 0.38575691
v -0.65925927 0.42138791 0.35601693
v -0.65925927 0.41428677 0.92299227
v -0.65925927 0.46614155 0.87637530
v -0.65925927 0.47720613 0.86232636
v -0.67819045 0.52212494 0.86232636
v -0.65925927 0.44043435 0.90000308
v -0.65925927 0.51359254 0.73433498
v -0.65925927 0.51871201 0.67978128
v -0.65925927 0.51986801 0.66710074
v -0.69765995 0.54673120 0.83796877
v -0.71980214 0.55680489 0.83796877
v -0.84885010 0.55240111 0.82063565
v -0.84885010 0.55047445 0.83796877
v -0.84885010 0.54364851 0.57441419
v -0.76859644 0.46570117 0.43137038
v -0.77975105 0.43988388 0.38575691
v -0.65925927 0.43212217 0.37380619
v -0.65925927 0.48568345 0.84408097
v -0.65925927 0.49069279 0.82984957
v -0.65925927 0.49300478 0.82191283
v -0.65925927 0.51975791 0.65542370
v -0.84885010 0.55614432 0.62239955
v -0.84885010 0.55647461 0.63188715
v -0.84885010 0.55647461 0.63535377
v -0.65925927 0.51485866 0.56957917
v -0.65925927 0.51298702 0.55261095
v -0.84885010 0.55537366 0.61501017
v -0.84885010 0.54518984 0.57733345
v -0.65925927 0.50318860 0.52077276
v -0.65925927 0.51089522 0.54184618
v -0.84885010 0.55234606 0.59402798
v -0.84885010 0.55366719 0.60169104
f 1 2 3
f 1 3 4
f 1 4 5
f 1 5 12
f 1 12 26
f 1 26 25
f 1 25 43
f 1 43 70
f 1 70 98
f 1 98 114
f 1 114 130
f 1 130 142
f 1 142 143
f 1 143 139
f 1 139 138
f 1 138 134
f 1 134 122
f 1 122 121
f 1 121 120
f 1 120 133
f 1 133 132
f 1 132 131
f 1 131 117
f 1 117 116
f 1 116 119
f 1 119 115
f 1 115 99
f 1 99 72
f 1 72 71
f 1 71 77
f 1 77 76
f 1 76 75
f 1 75 46
f 1 46 28
f 1 28 13
f 1 13 6
f 1 6 17
f 1 17 33
f 1 33 55
f 1 55 89
f 1 89 54
f 1 54 36
f 1 36 18
f 1 18 7
f 1 7 2
f 2 7 8
f 2 8 9
f 2 9 10
f 2 10 3
f 3 10 11
f 3 11 4
f 4 11 12
f 4 12 5
f 6 13 14
f 6 14 15
f 6 15 16
f 6 16 17
f 7 18 19
f 7 19 20
f 7 20 8
f 8 20 21
f 8 21 22
f 8 22 9
f 9 22 23
f 9 23 24
f 9 24 10
f 10 24 11
f 11 24 25
f 11 25 26
f 11 26 12
f 13 27 14
f 13 28 27
f 14 27 29
f 14 29 15
f 15 29 30
f 15 30 16
f 16 30 17
f 17 30 31
f 17 31 32
f 17 32 33
f 18 34 35
f 18 35 19
f 18 36 34
f 19 37 22
f 19 22 21
f 19 21 20
f 19 35 38
f 19 38 39
f 19 39 37
f 22 37 40
f 22 40 24
f 22 24 23
f 24 40 41
f 24 41 42
f 24 42 25
f 25 42 43
f 27 44 29
f 27 28 45
f 27 45 44
f 28 46 45
f 29 44 47
f 29 47 48
f 29 48 49
f 29 49 50
f 29 50 30
f 30 50 51
f 30 51 52
f 30 52 31
f 31 53 32
f 31 52 54
f 31 54 53
f 32 53 55
f 32 55 33
f 34 56 57
f 34 57 35
f 34 36 54
f 34 54 90
f 34 90 109
f 34 109 108
f 34 108 88
f 34 88 107
f 34 107 106
f 34 106 82
f 34 82 105
f 34 105 126
f 34 126 125
f 34 125 137
f 34 137 136
f 34 136 135
f 34 135 140
f 34 140 145
f 34 145 144
f 34 144 141
f 34 141 127
f 34 127 110
f 34 110 93
f 34 93 92
f 34 92 66
f 34 66 65
f 34 65 64
f 34 64 63
f 34 63 62
f 34 62 61
f 34 61 56
f 35 57 38
f 37 39 58
f 37 58 59
f 37 59 40
f 38 60 39
f 38 57 56
f 38 56 61
f 38 61 62
f 38 62 63
f 38 63 64
f 38 64 65
f 38 65 66
f 38 66 60
f 39 60 66
f 39 66 67
f 39 67 58
f 40 59 41
f 41 59 42
f 42 59 68
f 42 68 69
f 42 69 43
f 43 69 70
f 44 45 71
f 44 71 72
f 44 72 73
f 44 73 74
f 44 74 47
f 45 46 75
f 45 75 76
f 45 76 77
f 45 77 71
f 47 78 48
f 47 74 79
f 47 79 78
f 48 80 49
f 48 78 81
f 48 81 82
f 48 82 80
f 49 80 83
f 49 83 84
f 49 84 85
f 49 85 86
f 49 86 50
f 50 87 51
f 50 86 85
f 50 85 88
f 50 88 87
f 51 87 54
f 51 54 52
f 53 89 55
f 53 54 89
f 54 87 90
f 58 68 59
f 58 67 91
f 58 91 68
f 66 92 67
f 67 92 93
f 67 93 94
f 67 94 95
f 67 95 96
f 67 96 91
f 68 91 97
f 68 97 98
f 68 98 70
f 68 70 69
f 72 99 100
f 72 100 73
f 73 100 74
f 74 100 101
f 74 101 102
f 74 102 103
f 74 103 104
f 74 104 79
f 78 79 81
f 79 104 105
f 79 105 81
f 80 82 83
f 81 105 82
f 82 106 83
f 83 106 84
f 84 106 107
f 84 107 85
f 85 107 88
f 87 108 109
f 87 109 90
f 87 88 108
f 91 96 98
f 91 98 97
f 93 110 94
f 94 110 111
f 94 111 112
f 94 112 95
f 95 112 96
f 96 112 113
f 96 113 98
f 98 113 114
f 99 115 100
f 100 116 117
f 100 117 118
f 100 118 101
f 100 115 119
f 100 119 116
f 101 118 120
f 101 120 121
f 101 121 122
f 101 122 102
f 102 122 123
f 102 123 124
f 102 124 103
f 103 124 125
f 103 125 126
f 103 126 105
f 103 105 104
f 110 127 113
f 110 113 111
f 111 113 112
f 113 127 128
f 113 128 129
f 113 129 114
f 114 129 130
f 117 131 118
f 118 131 132
f 118 132 133
f 118 133 120
f 122 134 123
f 123 134 124
f 124 135 136
f 124 136 137
f 124 137 125
f 124 134 138
f 124 138 139
f 124 139 140
f 124 140 135
f 127 141 130
f 127 130 128
f 128 130 129
f 130 141 142
f 139 143 144
f 139 144 145
f 139 145 140
f 141 144 142
f 142 144 143

