# https://github.com/mikedh/trimesh
v 0.07176729 0.31027654 0.44939230
v 0.01628803 0.31027654 0.46576949
v 0.07176729 0.43855093 0.36130951
v 0.07176729 0.31027654 1.23027499
v 0.01628803 0.58091917 0.40911325
v 0.01628803 0.31027654 1.26568516
v 0.01628803 0.59777052 0.40601482
v 0.07176729 0.44789577 0.36130951
v 0.07176729 0.32942580 1.22664543
v 0.03206399 0.37824359 1.24541278
v 0.01628803 0.37824359 1.25329160
v 0.01628803 0.62330283 0.40805092
v 0.07176729 0.46673863 0.36600133
v 0.01628803 0.63126891 0.40929025
v 0.01922058 0.63596691 0.41026408
v 0.07176729 0.34877929 1.22097978
v 0.02876760 0.39509490 1.24364232
v 0.01628803 0.38237985 1.25249483
v 0.02614461 0.63596691 0.41026408
v 0.07176729 0.80693131 0.46028094
v 0.01628803 0.63949037 0.41336244
v 0.07176729 0.45141923 1.18698607
v 0.01628803 0.39866945 1.24603248
v 0.07176729 0.47490898 1.17857612
v 0.07176729 0.56233165 1.14413971
v 0.02640529 0.56222952 1.16786451
v 0.05014254 0.79804608 0.48666150
v 0.04571659 0.80785046 0.50295016
v 0.06743909 0.81055687 0.47205481
v 0.07176729 0.81438677 0.47205481
v 0.01628803 0.66190771 0.43177574
v 0.01628803 0.56376146 1.16857278
v 0.07176729 0.68223143 1.04454867
v 0.01628803 0.57571058 1.15856937
v 0.07176729 0.70873398 1.02215171
v 0.07176729 0.82439541 0.49613371
v 0.07176729 0.81934001 0.48214671
v 0.01628803 0.68805285 0.45461528
v 0.01628803 0.70755952 0.47417940
v 0.01628803 0.71649580 0.48347457
v 0.03289489 0.79299067 0.52083229
v 0.04315333 0.81004625 0.52083229
v 0.01628803 0.58898738 1.14617580
v 0.07176729 0.70888720 1.02170909
v 0.03660401 0.79564603 0.76480834
v 0.02333699 0.78145001 0.80252017
v 0.01628803 0.78645437 0.78543476
v 0.07139801 0.70868294 1.02206319
v 0.07176729 0.82577414 0.50312722
v 0.01628803 0.73380676 0.50250752
v 0.01628803 0.73569611 0.50534035
v 0.01628803 0.74264094 0.52056673
v 0.01628803 0.79370556 0.74037533
v 0.07027386 0.83154451 0.55225883
v 0.01628803 0.66701417 1.02206319
v 0.07176729 0.71297233 1.00869586
v 0.07176729 0.83179982 0.56208514
v 0.01628803 0.79314389 0.76657885
v 0.07176729 0.79191831 0.75374267
v 0.07176729 0.79957803 0.72311287
v 0.05408518 0.70337222 1.00869586
v 0.07176729 0.83185087 0.55137356
v 0.07027386 0.83154451 0.56128842
v 0.07176729 0.83185087 0.55942938
f 1 2 3
f 1 3 8
f 1 8 13
f 1 13 20
f 1 20 30
f 1 30 37
f 1 37 36
f 1 36 49
f 1 49 62
f 1 62 64
f 1 64 57
f 1 57 60
f 1 60 59
f 1 59 56
f 1 56 44
f 1 44 35
f 1 35 33
f 1 33 25
f 1 25 24
f 1 24 22
f 1 22 16
f 1 16 9
f 1 9 4
f 1 4 6
f 1 6 2
f 2 5 3
f 2 6 11
f 2 11 18
f 2 18 23
f 2 23 32
f 2 32 34
f 2 34 43
f 2 43 55
f 2 55 47
f 2 47 58
f 2 58 53
f 2 53 52
f 2 52 51
f 2 51 50
f 2 50 40
f 2 40 39
f 2 39 38
f 2 38 31
f 2 31 21
f 2 21 14
f 2 14 12
f 2 12 7
f 2 7 5
f 3 5 7
f 3 7 8
f 4 9 10
f 4 10 6
f 6 10 11
f 7 12 8
f 8 12 14
f 8 14 15
f 8 15 13
f 9 16 17
f 9 17 10
f 10 17 18
f 10 18 11
f 13 15 19
f 13 19 20
f 14 21 20
f 14 20 15
f 15 20 19
f 16 22 17
f 17 23 18
f 17 22 24
f 17 24 25
f 17 25 26
f 17 26 23
f 20 21 27
f 20 27 28
f 20 28 29
f 20 29 30
f 21 31 27
f 23 26 32
f 25 33 26
f 26 34 32
f 26 33 35
f 26 35 34
f 27 31 28
f 28 36 37
f 28 37 30
f 28 30 29
f 28 31 38
f 28 38 39
f 28 39 40
f 28 40 41
f 28 41 42
f 28 42 36
f 34 35 43
f 35 44 45
f 35 45 46
f 35 46 47
f 35 47 48
f 35 48 43
f 36 42 49
f 40 50 41
f 41 50 51
f 41 51 52
f 41 52 53
f 41 53 42
f 42 54 49
f 42 53 54
f 43 48 55
f 44 56 45
f 45 57 58
f 45 58 46
f 45 56 59
f 45 59 60
f 45 60 57
f 46 58 47
f 47 55 61
f 47 61 48
f 48 61 55
f 49 54 62
f 53 58 63
f 53 63 54
f 54 63 64
f 54 64 62
f 57 64 63
f 57 63 58

