# https://github.com/mikedh/trimesh
v 0.11425574 -0.28683985 0.26815922
v 0.11425574 0.15848692 0.25617804
v 0.17185651 0.32939039 0.22265180
v 0.13420400 -0.28683985 0.27593645
v 0.11425574 -0.28683985 1.08529582
v 0.11425574 0.18193907 0.25785960
v 0.12191819 0.36618714 0.26458588
v 0.17185651 0.35376740 0.22412317
v 0.17185651 0.33546813 0.22296710
v 0.17185651 -0.28683985 0.29632544
v 0.13460997 -0.28683985 1.08361426
v 0.13420400 -0.28016757 1.10631541
v 0.13420400 -0.27316492 1.13006756
v 0.11830403 -0.27171155 1.12638913
v 0.11425574 -0.27276854 1.11577424
v 0.11425574 0.37774806 0.29737643
v 0.11890734 0.38805379 0.29043996
v 0.12544774 0.38250456 0.27267841
v 0.13779560 0.38805379 0.25922589
v 0.15215632 0.38805379 0.24598352
v 0.16435759 0.38805379 0.23473806
v 0.17185651 0.38805379 0.22790670
v 0.17185651 0.36136458 0.22475374
v 0.11425574 0.38805379 0.30231604
v 0.17185651 -0.28683985 1.05565819
v 0.13562485 -0.28683985 1.08287857
v 0.15340803 -0.27144729 1.12607383
v 0.13420400 -0.26794601 1.14225890
v 0.11761052 -0.25182675 1.14646282
v 0.11425574 -0.25407289 1.14015696
v 0.11425574 -0.26470895 1.12891146
v 0.12721253 0.38805379 0.27467528
v 0.17185651 0.38805379 1.14593733
v 0.11425574 0.38805379 1.17851769
v 0.17185651 -0.27072063 1.11188559
v 0.17185651 -0.26305738 1.13174912
v 0.17185651 -0.25711176 1.14089264
v 0.17185651 -0.25083583 1.14982598
v 0.15859525 -0.25248739 1.15108716
v 0.11425574 -0.08607616 1.28235450
v 0.11425574 -0.09895833 1.27215998
v 0.11425574 -0.15590414 1.22549649
v 0.16680459 0.38805379 1.14909029
v 0.17185651 0.23214649 1.24924864
v 0.11425574 0.27000028 1.24189179
v 0.12291615 0.26914144 1.24105099
v 0.11610509 0.38805379 1.17767693
v 0.17185651 -0.14705177 1.21677335
v 0.11425574 -0.07497767 1.28929097
v 0.14078953 0.38805379 1.16443456
v 0.11425574 0.26055334 1.24588548
v 0.17185651 0.20776948 1.25881254
v 0.17185651 -0.13469810 1.22265886
v 0.12525041 -0.05363952 1.29170821
v 0.11425574 -0.05965119 1.29486114
v 0.11425574 0.23842243 1.25208626
v 0.11425574 0.23188224 1.25387294
v 0.11425574 0.20909073 1.25923292
v 0.11425574 -0.01215231 1.29359996
v 0.17185651 0.06097878 1.27646902
v 0.17185651 -0.10926407 1.23432471
v 0.15602419 -0.03659541 1.27310586
v 0.14064858 -0.03659541 1.28529724
v 0.12844732 -0.03659541 1.29265409
v 0.11425574 -0.05674445 1.29528152
v 0.11425574 -0.03190498 1.29591213
v 0.11425574 -0.03659541 1.29633251
v 0.17185651 0.03567687 1.27310586
v 0.17185651 -0.03685966 1.26017883
v 0.17185651 -0.03058373 1.26238589
f 1 2 3
f 1 3 4
f 1 4 10
f 1 10 25
f 1 25 26
f 1 26 11
f 1 11 5
f 1 5 15
f 1 15 31
f 1 31 30
f 1 30 42
f 1 42 41
f 1 41 40
f 1 40 49
f 1 49 55
f 1 55 65
f 1 65 67
f 1 67 66
f 1 66 59
f 1 59 58
f 1 58 57
f 1 57 56
f 1 56 51
f 1 51 45
f 1 45 34
f 1 34 24
f 1 24 16
f 1 16 6
f 1 6 2
f 2 6 7
f 2 7 8
f 2 8 9
f 2 9 3
f 3 9 8
f 3 8 23
f 3 23 22
f 3 22 33
f 3 33 44
f 3 44 52
f 3 52 60
f 3 60 68
f 3 68 70
f 3 70 69
f 3 69 61
f 3 61 53
f 3 53 48
f 3 48 38
f 3 38 37
f 3 37 36
f 3 36 35
f 3 35 25
f 3 25 10
f 3 10 4
f 5 11 12
f 5 12 13
f 5 13 14
f 5 14 15
f 6 16 7
f 7 17 18
f 7 18 19
f 7 19 20
f 7 20 21
f 7 21 22
f 7 22 23
f 7 23 8
f 7 16 24
f 7 24 17
f 11 26 27
f 11 27 13
f 11 13 12
f 13 27 28
f 13 28 14
f 14 28 29
f 14 29 30
f 14 30 31
f 14 31 15
f 17 32 18
f 17 24 34
f 17 34 47
f 17 47 50
f 17 50 43
f 17 43 33
f 17 33 22
f 17 22 21
f 17 21 20
f 17 20 19
f 17 19 32
f 18 32 19
f 25 35 27
f 25 27 26
f 27 35 36
f 27 36 28
f 28 36 37
f 28 37 38
f 28 38 39
f 28 39 40
f 28 40 41
f 28 41 42
f 28 42 29
f 29 42 30
f 33 43 44
f 34 45 46
f 34 46 44
f 34 44 47
f 38 48 40
f 38 40 39
f 40 48 49
f 43 50 44
f 44 46 51
f 44 51 52
f 44 50 47
f 45 51 46
f 48 53 49
f 49 54 55
f 49 53 54
f 51 56 52
f 52 56 57
f 52 57 58
f 52 58 59
f 52 59 60
f 53 61 54
f 54 62 63
f 54 63 64
f 54 64 65
f 54 65 55
f 54 61 62
f 59 66 60
f 60 66 67
f 60 67 64
f 60 64 63
f 60 63 68
f 61 69 62
f 62 69 70
f 62 70 63
f 63 70 68
f 64 67 65

