# https://github.com/mikedh/trimesh
v -0.34794612 -0.38953942 0.46429352
v -0.34794612 -0.38953942 0.14405781
v -0.40828307 -0.38953942 0.46429352
v -0.34794612 -0.83541216 0.46429352
v -0.37045437 -0.45142110 0.14324857
v -0.38265050 -0.45142110 0.13923470
v -0.40259548 -0.42702176 0.13366707
v -0.40828307 -0.42267670 0.13564165
v -0.40828307 -0.38953942 0.14810404
v -0.34794612 -0.77620439 0.20633754
v -0.40828307 -0.72072100 0.46429352
v -0.34828870 -0.83512565 0.46429352
v -0.39361816 -0.85637361 0.36533865
v -0.34794612 -0.87723960 0.34416871
v -0.40342824 -0.45371301 0.13735724
v -0.40828307 -0.42654430 0.13434684
v -0.40828307 -0.45280579 0.13729252
v -0.34794612 -0.79229550 0.20973640
v -0.40828307 -0.83641486 0.36912593
v -0.38278042 -0.79181804 0.46429352
v -0.36049073 -0.82457329 0.46429352
v -0.39361816 -0.85637361 0.35656639
v -0.34794612 -0.87728730 0.32555600
v -0.36443603 -0.82070573 0.46429352
v -0.37246836 -0.81234981 0.46429352
v -0.40828307 -0.83961400 0.34944500
v -0.34794612 -0.79277304 0.20986588
v -0.36904281 -0.76197542 0.21371792
v -0.40828307 -0.76312138 0.26088091
v -0.38003997 -0.79859831 0.46429352
v -0.34794612 -0.87556840 0.31788432
v -0.40828307 -0.83818154 0.34326236
v -0.40828307 -0.82739045 0.31853172
v -0.39007448 -0.82925260 0.28965774
v -0.34794612 -0.80318214 0.21756992
v -0.40828307 -0.80695423 0.28761844
v -0.36457187 -0.77820979 0.21769939
v -0.34794612 -0.86979083 0.30736410
v -0.40828307 -0.82443011 0.31299649
v -0.36526287 -0.82887069 0.26525084
v -0.34794612 -0.84648975 0.27217800
v -0.40828307 -0.81731556 0.30017799
v -0.40828307 -0.81287498 0.29451325
v -0.34794612 -0.83674907 0.25952134
f 1 2 9
f 1 9 3
f 1 3 11
f 1 11 20
f 1 20 30
f 1 30 25
f 1 25 24
f 1 24 21
f 1 21 12
f 1 12 4
f 1 4 14
f 1 14 23
f 1 23 31
f 1 31 38
f 1 38 41
f 1 41 44
f 1 44 35
f 1 35 27
f 1 27 18
f 1 18 10
f 1 10 2
f 2 5 6
f 2 6 7
f 2 7 8
f 2 8 9
f 2 10 5
f 3 9 8
f 3 8 16
f 3 16 17
f 3 17 29
f 3 29 36
f 3 36 43
f 3 43 42
f 3 42 39
f 3 39 33
f 3 33 32
f 3 32 26
f 3 26 19
f 3 19 11
f 4 12 13
f 4 13 14
f 5 10 6
f 6 15 7
f 6 10 15
f 7 16 8
f 7 15 17
f 7 17 16
f 10 18 15
f 11 19 20
f 12 21 13
f 13 22 23
f 13 23 14
f 13 21 24
f 13 24 25
f 13 25 19
f 13 19 26
f 13 26 22
f 15 18 17
f 17 18 27
f 17 27 28
f 17 28 29
f 19 25 30
f 19 30 20
f 22 31 23
f 22 26 32
f 22 32 33
f 22 33 34
f 22 34 31
f 27 35 36
f 27 36 37
f 27 37 28
f 28 37 29
f 29 37 36
f 31 34 38
f 33 39 34
f 34 40 41
f 34 41 38
f 34 39 42
f 34 42 43
f 34 43 36
f 34 36 35
f 34 35 40
f 35 44 40
f 40 44 41

