# https://github.com/mikedh/trimesh
v -0.40830440 0.50215528 1.04197243
v -0.40828307 0.48892030 1.04197243
v -0.40828307 0.52303115 1.04129564
v -0.46280891 0.37376193 1.04197243
v -0.40828307 -0.46864065 1.04197243
v -0.40828307 0.52998980 1.03996920
v -0.40828307 0.54772747 1.03452792
v -0.41756463 0.54022307 1.02851820
v -0.46280891 0.49342290 0.76541607
v -0.46280891 -0.50138710 1.04197243
v -0.40995899 -0.47041442 1.04197243
v -0.46280891 -0.71969684 1.00618470
v -0.46082342 -0.73811667 1.00022909
v -0.43686429 -0.76854358 0.95350471
v -0.42827124 -0.76854358 0.93555671
v -0.42023327 -0.76854358 0.91116581
v -0.40828307 -0.70755328 0.89711602
v -0.40828307 0.55686917 1.00978512
v -0.41375915 0.55918872 0.98436554
v -0.41807700 0.54431635 1.00875644
v -0.40828307 0.56300916 0.98436554
v -0.40828307 0.55618693 0.95994759
v -0.45534738 0.49301358 0.76541607
v -0.46280891 -0.76649694 0.76541607
v -0.44111277 -0.49674800 1.04197243
v -0.41453303 -0.47505348 1.04197243
v -0.46280891 -0.73879891 1.00109537
v -0.43364591 -0.49279114 1.04197243
v -0.46280891 -0.74275577 0.99887555
v -0.45595045 -0.76226716 0.97922207
v -0.43890314 -0.78109640 0.94822589
v -0.43367794 -0.79064743 0.93458214
v -0.42721981 -0.79296698 0.91116581
v -0.40828307 -0.72133415 0.81357521
v -0.40828307 -0.71983326 0.85983938
v -0.40828307 -0.71724087 0.88284964
v -0.40828307 -0.71519416 0.88712685
v -0.40828307 0.48823806 0.76541607
v -0.42700097 0.49028470 0.76541607
v -0.40828307 -0.71573998 0.76541607
v -0.46280891 -0.80947666 0.79603326
v -0.46280891 -0.75121524 0.99224317
v -0.46280891 -0.76213075 0.98160430
v -0.43636791 -0.80743002 0.92581117
v -0.43613842 -0.80756644 0.91116581
v -0.45592378 -0.81970993 0.83555678
v -0.44425113 -0.79446787 0.81357521
v -0.43901524 -0.78123289 0.80109552
v -0.45645217 -0.81370643 0.81357521
v -0.45959053 -0.80852159 0.79763044
v -0.46280891 -0.82844231 0.82686702
v -0.46280891 -0.78136931 0.94949822
v -0.44374406 -0.80743002 0.92581117
v -0.46215241 -0.83062544 0.85171811
v -0.46215241 -0.83062544 0.84208087
v -0.46280891 -0.83021611 0.83496122
v -0.46280891 -0.83062544 0.85171811
v -0.46280891 -0.83062544 0.84178309
f 1 2 3
f 1 3 4
f 1 4 10
f 1 10 25
f 1 25 28
f 1 28 26
f 1 26 11
f 1 11 5
f 1 5 2
f 2 5 17
f 2 17 37
f 2 37 36
f 2 36 35
f 2 35 34
f 2 34 40
f 2 40 38
f 2 38 22
f 2 22 21
f 2 21 18
f 2 18 7
f 2 7 6
f 2 6 3
f 3 6 4
f 4 6 7
f 4 7 8
f 4 8 9
f 4 9 24
f 4 24 41
f 4 41 51
f 4 51 56
f 4 56 58
f 4 58 57
f 4 57 52
f 4 52 43
f 4 43 42
f 4 42 29
f 4 29 27
f 4 27 12
f 4 12 10
f 5 11 12
f 5 12 13
f 5 13 14
f 5 14 15
f 5 15 16
f 5 16 17
f 7 18 8
f 8 18 19
f 8 19 20
f 8 20 9
f 9 20 19
f 9 19 21
f 9 21 22
f 9 22 23
f 9 23 39
f 9 39 38
f 9 38 40
f 9 40 24
f 10 12 25
f 11 26 12
f 12 27 13
f 12 26 28
f 12 28 25
f 13 27 29
f 13 29 30
f 13 30 31
f 13 31 14
f 14 31 32
f 14 32 15
f 15 32 16
f 16 32 33
f 16 33 34
f 16 34 35
f 16 35 36
f 16 36 37
f 16 37 17
f 18 21 19
f 22 38 39
f 22 39 23
f 24 40 41
f 29 42 30
f 30 42 43
f 30 43 44
f 30 44 31
f 31 44 32
f 32 44 33
f 33 44 45
f 33 45 46
f 33 46 47
f 33 47 40
f 33 40 34
f 40 47 48
f 40 48 49
f 40 49 50
f 40 50 41
f 41 50 51
f 43 52 53
f 43 53 44
f 44 53 57
f 44 57 54
f 44 54 45
f 45 54 55
f 45 55 56
f 45 56 51
f 45 51 46
f 46 51 47
f 47 51 49
f 47 49 48
f 49 51 50
f 52 57 53
f 54 57 58
f 54 58 55
f 55 58 56

