# https://github.com/mikedh/trimesh
v -0.03668083 0.60689942 0.61834606
v -0.03668083 0.65644421 0.60789471
v -0.10104703 0.54339694 0.61834606
v -0.03668083 0.42783525 0.61834606
v -0.03668083 0.67468676 0.59897445
v -0.05155732 0.66350001 0.58476193
v -0.09866192 0.59299300 0.56212842
v -0.10230068 0.52371757 0.61834606
v -0.10235853 0.42783525 0.61834606
v -0.03668083 0.42783525 0.55835063
v -0.03668083 0.68358987 0.58286471
v -0.04580987 0.67915111 0.56956753
v -0.05334454 0.66693810 0.56956753
v -0.09866192 0.59299300 0.55478919
v -0.10235853 0.52274261 0.61691482
v -0.10235853 0.51607163 0.61834606
v -0.10235853 0.42783525 0.60185356
v -0.03668083 0.50988816 0.48006533
v -0.06107210 0.42783525 0.57416080
v -0.04894718 0.51227431 0.48395964
v -0.03668083 0.68995296 0.56826943
v -0.03668083 0.68733593 0.54507009
v -0.05211020 0.66496251 0.54982979
v -0.08086671 0.61990778 0.54516995
v -0.09216871 0.59979229 0.54605199
v -0.03668083 0.57339063 0.44832851
v -0.09387238 0.57110712 0.54605199
v -0.09866192 0.57772675 0.55478919
v -0.10235853 0.42839972 0.60098816
v -0.03668083 0.52410243 0.46791648
v -0.05066369 0.52461560 0.48131351
v -0.03668083 0.54868239 0.45117434
v -0.03668083 0.64546275 0.48991756
v -0.05493249 0.64102399 0.52077236
v -0.07547928 0.61598219 0.53127365
v -0.07209124 0.54901595 0.51043750
v -0.07894446 0.54901595 0.52263629
f 1 2 3
f 1 3 8
f 1 8 16
f 1 16 9
f 1 9 4
f 1 4 10
f 1 10 18
f 1 18 30
f 1 30 32
f 1 32 26
f 1 26 33
f 1 33 22
f 1 22 21
f 1 21 11
f 1 11 5
f 1 5 2
f 2 5 3
f 3 5 6
f 3 6 7
f 3 7 8
f 4 9 17
f 4 17 19
f 4 19 10
f 5 11 6
f 6 11 12
f 6 12 13
f 6 13 7
f 7 13 14
f 7 14 15
f 7 15 8
f 8 15 16
f 9 16 15
f 9 15 29
f 9 29 17
f 10 19 20
f 10 20 18
f 11 21 12
f 12 21 22
f 12 22 23
f 12 23 24
f 12 24 14
f 12 14 13
f 14 24 25
f 14 25 26
f 14 26 27
f 14 27 28
f 14 28 29
f 14 29 15
f 17 29 19
f 18 20 30
f 19 29 20
f 20 31 32
f 20 32 30
f 20 29 31
f 22 33 34
f 22 34 24
f 22 24 23
f 24 34 33
f 24 33 35
f 24 35 25
f 25 35 33
f 25 33 26
f 26 32 36
f 26 36 27
f 27 36 37
f 27 37 29
f 27 29 28
f 29 37 36
f 29 36 31
f 31 36 32

