# https://github.com/mikedh/trimesh
v -0.03668083 0.23062975 1.34472640
v -0.03668083 0.22867524 1.34462845
v -0.03668083 0.25611858 1.34462845
v -0.17590825 0.32598523 1.44432798
v -0.17590825 0.30808683 1.44432798
v -0.03668083 0.20925074 1.34325735
v -0.03668083 0.28017497 1.34413877
v -0.17590825 0.33274565 1.43610128
v -0.03668083 0.29046956 1.34276767
v -0.03668083 0.30499445 1.33992746
v -0.03668083 0.32594509 1.33081935
v -0.03668083 0.32836812 1.32974204
v -0.03668083 0.32931861 1.32925236
v -0.03668083 0.34318751 1.32112361
v -0.17590825 0.20643948 1.41465319
v -0.16884875 0.20643948 1.41249857
v -0.13495501 0.20643948 1.39800389
v -0.03834349 0.20643948 1.34384491
v -0.03668083 0.20740333 1.34306145
v -0.17590825 0.34206301 1.42395713
v -0.17590825 0.34318751 1.42239021
v -0.03668083 0.34318751 0.52352707
v -0.17590825 0.20643948 0.44400244
v -0.03668083 0.20643948 1.34286555
v -0.17590825 0.34318751 0.51627973
v -0.03668083 0.32210302 0.47720298
v -0.04609803 0.34318751 0.51921785
v -0.17590825 0.33336146 0.44400244
v -0.03668083 0.20643948 0.44400244
v -0.16793565 0.34318751 0.51569213
v -0.03668083 0.29970658 0.44400244
v -0.06100747 0.34318751 0.51461482
v -0.14266866 0.34318751 0.51471277
v -0.09078545 0.34318751 0.51373337
v -0.06760360 0.34318751 0.51441896
f 1 2 6
f 1 6 19
f 1 19 24
f 1 24 29
f 1 29 31
f 1 31 26
f 1 26 22
f 1 22 14
f 1 14 13
f 1 13 12
f 1 12 11
f 1 11 10
f 1 10 9
f 1 9 7
f 1 7 3
f 1 3 4
f 1 4 5
f 1 5 2
f 2 5 6
f 3 7 4
f 4 8 20
f 4 20 21
f 4 21 25
f 4 25 28
f 4 28 23
f 4 23 15
f 4 15 5
f 4 7 9
f 4 9 10
f 4 10 11
f 4 11 12
f 4 12 13
f 4 13 14
f 4 14 8
f 5 15 16
f 5 16 17
f 5 17 18
f 5 18 19
f 5 19 6
f 8 14 20
f 14 21 20
f 14 22 27
f 14 27 32
f 14 32 35
f 14 35 34
f 14 34 33
f 14 33 30
f 14 30 25
f 14 25 21
f 15 23 29
f 15 29 24
f 15 24 18
f 15 18 17
f 15 17 16
f 18 24 19
f 22 26 27
f 23 28 31
f 23 31 29
f 25 30 28
f 26 31 28
f 26 28 27
f 27 28 32
f 28 30 33
f 28 33 34
f 28 34 35
f 28 35 32

