# https://github.com/mikedh/trimesh
v 0.62219766 -0.50509338 0.41407616
v 0.64659329 -0.49524704 0.40293123
v 0.64659329 -0.50509338 0.41476204
v 0.61842639 -0.50509338 0.41510497
v 0.63252503 -0.34238476 0.23952921
v 0.65449247 -0.49451466 0.40335990
v 0.63584103 -0.34238476 0.23952921
v 0.64863448 -0.50509338 0.41561931
v 0.60324267 -0.49337543 0.40704629
v 0.59664107 -0.50509338 0.42127754
v 0.61625620 -0.33412523 0.24553035
v 0.60976839 -0.31785031 0.24004362
v 0.62351036 -0.32733045 0.23747170
v 0.64502259 -0.32895794 0.23618572
v 0.58025843 -0.50509338 0.43019348
v 0.65449247 -0.50509338 0.41810552
v 0.65449247 -0.32427889 0.23712876
v 0.60879714 -0.34307645 0.26181911
v 0.57697278 -0.25869094 0.26053314
v 0.58549418 -0.14651597 0.24012935
v 0.57697278 -0.50509338 0.43422282
v 0.57697278 -0.49890888 0.42925046
v 0.57697278 -0.32000672 0.28668090
v 0.57697278 -0.31093344 0.28085123
v 0.57697278 -0.30588822 0.27870798
v 0.64659329 -0.30499310 0.23267080
v 0.58505408 -0.13422841 0.23987215
v 0.65449247 -0.30495241 0.23327091
v 0.65449247 -0.50509338 0.73376460
v 0.57697278 -0.13959914 0.24810226
v 0.57697278 -0.13459460 0.24775933
v 0.57697278 -0.50509338 0.89142270
v 0.58497820 -0.12072021 0.23987215
v 0.60434293 -0.08943165 0.23867191
v 0.60818250 -0.08943165 0.23867191
v 0.62043724 -0.08943165 0.23875764
v 0.62808599 -0.08943165 0.24012935
v 0.63668325 -0.08943165 0.24201539
v 0.64602420 -0.08943165 0.24535888
v 0.64968161 -0.08943165 0.24690202
v 0.65449247 -0.08943165 0.24895957
v 0.65449247 -0.46477221 0.87873460
v 0.58069095 -0.50509338 0.88687899
v 0.57697278 -0.11376269 0.24947394
v 0.61072448 -0.43958676 0.99764259
v 0.60308332 -0.43580286 1.01393135
v 0.58681450 -0.43962745 1.02241864
v 0.57697278 -0.43511117 1.03793583
v 0.57883944 -0.08943165 0.25701822
v 0.59290771 -0.08943165 0.24493025
v 0.65449247 -0.08943165 1.02284731
v 0.65449247 -0.44861936 0.92074246
v 0.65449247 -0.44373687 0.93223033
v 0.65449247 -0.43885439 0.94346101
v 0.57697278 -0.09899318 0.25504640
v 0.62142367 -0.42660753 1.00758728
v 0.65449247 -0.43791858 0.94526134
v 0.61585406 -0.41956864 1.02653370
v 0.59690663 -0.42766539 1.03262057
v 0.57697278 -0.42343391 1.05525337
v 0.57697278 -0.08943165 0.25881856
v 0.57697278 -0.08943165 1.08757370
v 0.65449247 -0.09207634 1.02636223
v 0.65449247 -0.43686072 0.94689022
v 0.63732069 -0.41741219 1.00132898
v 0.59073751 -0.41948723 1.04882360
v 0.65449247 -0.40793206 0.99044121
v 0.65449247 -0.39641754 1.00372943
v 0.65449247 -0.39161642 1.00887326
v 0.65449247 -0.37957295 1.01778921
v 0.57697278 -0.40557219 1.06725561
v 0.57697278 -0.13516421 1.09940447
v 0.65449247 -0.16645277 1.09194596
v 0.65449247 -0.13898882 1.07625730
v 0.65449247 -0.12678263 1.06494090
v 0.65449247 -0.11534948 1.05276719
v 0.65449247 -0.41737151 0.97681010
v 0.65449247 -0.41342483 0.98263976
v 0.65449247 -0.40907129 0.98906954
v 0.65449247 -0.37208652 1.02190427
v 0.57697278 -0.40256131 1.06854155
v 0.63889139 -0.29636740 1.07317101
v 0.57697278 -0.13679171 1.09966167
v 0.65449247 -0.17393922 1.09263180
v 0.65449247 -0.28062140 1.06082584
v 0.65432552 -0.28062140 1.06116874
v 0.64212391 -0.28062140 1.07642877
v 0.62152991 -0.28045865 1.08860247
v 0.61296295 -0.27219912 1.09563235
v 0.57697278 -0.28058071 1.10840616
v 0.57697278 -0.27789536 1.10849189
v 0.65449247 -0.17524123 1.09263180
v 0.65449247 -0.28013315 1.06099731
f 1 2 3
f 1 3 8
f 1 8 16
f 1 16 29
f 1 29 43
f 1 43 32
f 1 32 21
f 1 21 15
f 1 15 10
f 1 10 4
f 1 4 5
f 1 5 2
f 2 6 3
f 2 5 7
f 2 7 6
f 3 6 8
f 4 9 5
f 4 10 9
f 5 11 12
f 5 12 13
f 5 13 14
f 5 14 7
f 5 9 10
f 5 10 15
f 5 15 11
f 6 16 8
f 6 7 17
f 6 17 28
f 6 28 41
f 6 41 51
f 6 51 63
f 6 63 76
f 6 76 75
f 6 75 74
f 6 74 73
f 6 73 84
f 6 84 92
f 6 92 93
f 6 93 85
f 6 85 80
f 6 80 70
f 6 70 69
f 6 69 68
f 6 68 67
f 6 67 79
f 6 79 78
f 6 78 77
f 6 77 64
f 6 64 57
f 6 57 54
f 6 54 53
f 6 53 52
f 6 52 42
f 6 42 29
f 6 29 16
f 7 14 17
f 11 15 18
f 11 18 12
f 12 19 20
f 12 20 13
f 12 18 21
f 12 21 22
f 12 22 23
f 12 23 24
f 12 24 25
f 12 25 19
f 13 26 14
f 13 20 27
f 13 27 26
f 14 26 28
f 14 28 17
f 15 21 18
f 19 30 20
f 19 25 24
f 19 24 23
f 19 23 22
f 19 22 21
f 19 21 32
f 19 32 48
f 19 48 60
f 19 60 71
f 19 71 81
f 19 81 90
f 19 90 91
f 19 91 83
f 19 83 72
f 19 72 62
f 19 62 61
f 19 61 55
f 19 55 44
f 19 44 31
f 19 31 30
f 20 30 31
f 20 31 27
f 26 27 33
f 26 33 34
f 26 34 35
f 26 35 36
f 26 36 28
f 27 31 33
f 28 36 37
f 28 37 38
f 28 38 39
f 28 39 40
f 28 40 41
f 29 42 43
f 31 44 33
f 32 43 45
f 32 45 46
f 32 46 47
f 32 47 48
f 33 44 49
f 33 49 50
f 33 50 34
f 34 50 49
f 34 49 61
f 34 61 62
f 34 62 51
f 34 51 41
f 34 41 40
f 34 40 39
f 34 39 38
f 34 38 37
f 34 37 36
f 34 36 35
f 42 52 43
f 43 52 53
f 43 53 54
f 43 54 45
f 44 55 49
f 45 56 46
f 45 54 57
f 45 57 56
f 46 56 58
f 46 58 59
f 46 59 47
f 47 59 48
f 48 59 60
f 49 55 61
f 51 62 63
f 56 57 58
f 57 64 65
f 57 65 58
f 58 66 59
f 58 65 67
f 58 67 68
f 58 68 69
f 58 69 70
f 58 70 66
f 59 66 60
f 60 66 71
f 62 72 73
f 62 73 74
f 62 74 75
f 62 75 76
f 62 76 63
f 64 77 65
f 65 77 78
f 65 78 79
f 65 79 67
f 66 70 80
f 66 80 71
f 71 80 82
f 71 82 81
f 72 83 73
f 73 83 84
f 80 85 86
f 80 86 87
f 80 87 82
f 81 82 88
f 81 88 89
f 81 89 90
f 82 87 88
f 83 91 84
f 84 91 92
f 85 93 86
f 86 93 92
f 86 92 87
f 87 92 89
f 87 89 88
f 89 92 90
f 90 92 91

