# https://github.com/mikedh/trimesh
v 0.17185651 0.38805386 0.22794481
v 0.16435177 0.38805386 0.23469407
v 0.17111192 0.46474093 0.19241185
v 0.17185651 0.46434593 0.19201481
v 0.17185651 0.38805386 1.14594569
v 0.13778149 0.38805386 0.25920982
v 0.16946596 0.48098694 0.19032750
v 0.09355648 0.55476065 0.26030160
v 0.17185651 0.47950554 0.18913646
v 0.17185651 0.39412757 1.14515165
v 0.16680110 0.38805386 1.14912182
v 0.12721020 0.38805386 0.27469345
v 0.11920580 0.72818313 0.21275892
v 0.08716864 0.57342627 0.27677780
v 0.09302742 0.57342627 0.25980534
v 0.09573148 0.38805386 0.33434517
v 0.07211998 0.43694001 0.36025045
v 0.13419568 0.74418226 0.20551336
v 0.17185651 0.48745576 0.18913646
v 0.15592609 0.42701463 1.14971734
v 0.13616494 0.42701463 1.16192558
v 0.17185651 0.62241124 1.10495374
v 0.15188961 0.61525109 1.12103293
v 0.14946967 0.38805386 1.15934498
v 0.10892845 0.74418226 0.22804403
v 0.11952912 0.74418226 0.21315592
v 0.07312911 0.80482090 0.31330328
v 0.07177708 0.43856954 0.36134227
v 0.09362505 0.76857592 0.25692699
v 0.09290987 0.38805386 0.34079668
v 0.08789365 0.38805386 0.35985345
v 0.07177708 0.38805386 0.44183731
v 0.07177708 0.43634743 0.36352584
v 0.17185651 0.76897100 0.20253575
v 0.15859097 0.74418226 0.19916111
v 0.12149838 0.75692226 0.21533952
v 0.13419568 0.76092210 0.21216339
v 0.17185651 0.74418226 0.19806932
v 0.14077947 0.38805386 1.16440693
v 0.12223317 0.43945837 1.16748384
v 0.07177708 0.38805386 1.20311602
v 0.15945312 0.62290499 1.11348960
v 0.17185651 0.63559568 1.09889926
v 0.15859097 0.64206443 1.10128135
v 0.13419568 0.65598958 1.09224923
v 0.13419568 0.64379279 1.10098361
v 0.13969196 0.61525109 1.12103293
v 0.07177708 0.56231580 1.14405986
v 0.07177708 0.47491320 1.17860026
v 0.07177708 0.45140836 1.18693760
v 0.07177708 0.42775533 1.19418316
v 0.07312911 0.80531465 0.31330328
v 0.07220817 0.80314192 0.32561079
v 0.07177708 0.44790235 0.36134227
v 0.07194364 0.80279629 0.34069742
v 0.09531020 0.78358748 0.26179043
v 0.15871832 0.76946483 0.20759770
v 0.17185651 0.78452568 0.21216339
v 0.16668353 0.80773426 0.23767167
v 0.16692846 0.78304427 0.21335444
v 0.10557776 0.79983348 0.27012776
v 0.12183149 0.80526528 0.26447029
v 0.17185651 0.63742271 1.09770822
v 0.12256628 0.70798674 1.04579832
v 0.12535852 0.68393870 1.07041334
v 0.12074398 0.68393870 1.07041334
v 0.08979431 0.68872854 1.04986775
v 0.07352100 0.68290167 1.04510354
v 0.07177708 0.68225972 1.04450802
v 0.09523181 0.80768489 0.28640544
v 0.07220817 0.80793176 0.32561079
v 0.09745581 0.85410212 0.33762055
v 0.07177708 0.46671616 0.36600722
v 0.07194364 0.80867247 0.34069742
v 0.17185651 0.80531465 0.23241124
v 0.17185651 0.80887004 0.23628215
v 0.10980040 0.85657111 0.33374965
v 0.17185651 0.78432818 0.86614846
v 0.12074398 0.70798674 1.04579832
v 0.17185651 0.87444664 0.72223006
v 0.17185651 0.88165610 0.71002181
v 0.15859097 0.88224867 0.71091510
v 0.13945683 0.88224867 0.71151062
v 0.10448046 0.70497455 1.04272146
v 0.07177708 0.70872744 1.02217587
v 0.07177708 0.83188112 0.55141380
v 0.14551156 0.87874266 0.36124301
v 0.16790819 0.87987844 0.33523843
v 0.09114635 0.86378056 0.64282680
v 0.11154432 0.87503922 0.61999837
v 0.07177708 0.80689481 0.46029857
v 0.07177708 0.81435121 0.47201056
v 0.07177708 0.81933855 0.48213446
v 0.07177708 0.82442472 0.49612929
v 0.07177708 0.82580737 0.50317633
v 0.17185651 0.87810078 0.33097052
v 0.11148554 0.71302345 1.03398708
v 0.08540513 0.71154212 1.02594752
v 0.17185651 0.88575468 0.70039416
v 0.17185651 0.88906312 0.67835976
v 0.17185651 0.89247031 0.55151306
v 0.12084195 0.87849578 0.63121407
v 0.11154432 0.87538485 0.64074247
v 0.09210647 0.86165720 0.66724330
v 0.09451661 0.85795369 0.68510904
v 0.07177708 0.70887556 1.02177883
v 0.07177708 0.83188112 0.55945339
v 0.15929637 0.88076727 0.35191311
v 0.12084195 0.87849578 0.62922899
v 0.17185651 0.88032282 0.33414665
v 0.07177708 0.83178230 0.56203400
v 0.17185651 0.88121172 0.34099516
v 0.07177708 0.79958661 0.72302409
v 0.07177708 0.79193270 0.75359435
v 0.07177708 0.71297408 1.00867732
f 1 2 3
f 1 3 4
f 1 4 9
f 1 9 19
f 1 19 38
f 1 38 34
f 1 34 58
f 1 58 75
f 1 75 76
f 1 76 96
f 1 96 110
f 1 110 112
f 1 112 101
f 1 101 100
f 1 100 99
f 1 99 81
f 1 81 80
f 1 80 78
f 1 78 63
f 1 63 43
f 1 43 22
f 1 22 10
f 1 10 5
f 1 5 11
f 1 11 24
f 1 24 39
f 1 39 41
f 1 41 32
f 1 32 31
f 1 31 30
f 1 30 16
f 1 16 12
f 1 12 6
f 1 6 2
f 2 6 3
f 3 7 4
f 3 6 8
f 3 8 7
f 4 7 9
f 5 10 11
f 6 12 8
f 7 13 9
f 7 8 13
f 8 14 15
f 8 15 13
f 8 12 16
f 8 16 17
f 8 17 14
f 9 13 18
f 9 18 19
f 10 20 21
f 10 21 11
f 10 22 23
f 10 23 20
f 11 21 24
f 13 25 26
f 13 26 18
f 13 15 25
f 14 27 15
f 14 17 28
f 14 28 27
f 15 27 29
f 15 29 25
f 16 30 17
f 17 30 31
f 17 31 32
f 17 32 33
f 17 33 28
f 18 34 35
f 18 35 19
f 18 26 36
f 18 36 37
f 18 37 34
f 19 35 38
f 20 23 21
f 21 39 24
f 21 23 40
f 21 40 41
f 21 41 39
f 22 42 23
f 22 43 42
f 23 42 44
f 23 44 45
f 23 45 46
f 23 46 47
f 23 47 48
f 23 48 49
f 23 49 50
f 23 50 51
f 23 51 41
f 23 41 40
f 25 29 26
f 26 29 36
f 27 52 29
f 27 28 53
f 27 53 71
f 27 71 52
f 28 33 32
f 28 32 41
f 28 41 51
f 28 51 50
f 28 50 49
f 28 49 48
f 28 48 69
f 28 69 85
f 28 85 106
f 28 106 115
f 28 115 114
f 28 114 113
f 28 113 111
f 28 111 107
f 28 107 86
f 28 86 95
f 28 95 94
f 28 94 93
f 28 93 92
f 28 92 91
f 28 91 73
f 28 73 54
f 28 54 74
f 28 74 55
f 28 55 53
f 29 52 56
f 29 56 36
f 34 38 35
f 34 37 57
f 34 57 58
f 36 59 60
f 36 60 37
f 36 56 61
f 36 61 62
f 36 62 59
f 37 60 58
f 37 58 57
f 42 43 63
f 42 63 44
f 44 63 64
f 44 64 65
f 44 65 45
f 45 65 66
f 45 66 46
f 46 66 48
f 46 48 47
f 48 66 67
f 48 67 68
f 48 68 69
f 52 70 56
f 52 71 72
f 52 72 70
f 53 55 74
f 53 74 71
f 54 73 74
f 56 70 61
f 58 60 75
f 59 76 75
f 59 75 60
f 59 62 72
f 59 72 77
f 59 77 76
f 61 70 62
f 62 70 72
f 63 78 64
f 64 79 66
f 64 66 65
f 64 78 80
f 64 80 81
f 64 81 82
f 64 82 83
f 64 83 79
f 66 79 84
f 66 84 67
f 67 84 85
f 67 85 68
f 68 85 69
f 71 74 86
f 71 86 72
f 72 87 88
f 72 88 77
f 72 86 89
f 72 89 90
f 72 90 87
f 73 91 74
f 74 91 92
f 74 92 93
f 74 93 94
f 74 94 95
f 74 95 86
f 76 77 88
f 76 88 96
f 79 83 97
f 79 97 98
f 79 98 84
f 81 99 82
f 82 99 83
f 83 99 100
f 83 100 101
f 83 101 102
f 83 102 103
f 83 103 104
f 83 104 105
f 83 105 85
f 83 85 98
f 83 98 97
f 84 98 85
f 85 105 106
f 86 107 89
f 87 108 88
f 87 90 109
f 87 109 101
f 87 101 108
f 88 110 96
f 88 108 110
f 89 107 111
f 89 111 104
f 89 104 103
f 89 103 90
f 90 103 109
f 101 112 108
f 101 109 102
f 102 109 103
f 104 111 113
f 104 113 114
f 104 114 115
f 104 115 106
f 104 106 105
f 108 112 110

