# https://github.com/mikedh/trimesh
v -0.55950388 0.30313613 1.03737031
v -0.55950388 0.42496486 0.86211972
v -0.58603144 0.43871970 0.87357027
v -0.60229607 0.44288083 0.87941004
v -0.60532833 0.44160936 0.88170014
v -0.56615148 0.30024646 1.03737031
v -0.55950388 -0.46933176 1.03737031
v -0.55950388 0.59245038 0.61776508
v -0.60532833 0.44311200 0.87986806
v -0.60532833 0.41930110 0.90162410
v -0.58203033 0.28903452 1.03737031
v -0.57227875 0.29701003 1.03737031
v -0.56505254 -0.46632648 1.03737031
v -0.55950388 -0.58121994 0.94536518
v -0.55950388 0.59938561 0.59400520
v -0.57340464 0.59892327 0.59400520
v -0.57340464 0.59106336 0.61358563
v -0.58836845 0.58840488 0.60871915
v -0.60532833 0.49917167 0.76473283
v -0.60532833 0.36462844 0.94943014
v -0.58879905 0.27920963 1.03737031
v -0.60532833 -0.48493603 0.99866747
v -0.60532833 -0.49083096 0.99431626
v -0.60532833 -0.51614451 0.97502211
v -0.57686298 -0.45580808 1.03737031
v -0.60532833 -0.54215156 0.95257903
v -0.57265553 -0.58121994 0.93534595
v -0.55950388 -0.58121994 0.45247645
v -0.55950388 0.59938561 0.56961555
v -0.57340464 0.59880765 0.56961555
v -0.59155766 0.59129453 0.59400520
v -0.59991875 0.57337856 0.59400520
v -0.60532833 0.54864291 0.59400520
v -0.60532833 0.35480355 0.95521265
v -0.60016096 0.23598010 1.03737031
v -0.59338779 0.26279628 1.03737031
v -0.59012676 0.27562643 1.03737031
v -0.58980382 -0.44424939 1.03737031
v -0.60137655 -0.42691131 1.03737031
v -0.60532833 -0.42066965 1.03737031
v -0.60532833 -0.57867707 0.90660508
v -0.60152905 -0.58121994 0.90797916
v -0.55950388 0.48160250 0.45247645
v -0.60532833 -0.58121994 0.45247645
v -0.55950388 0.59580245 0.54522588
v -0.56516467 0.58643990 0.48224788
v -0.59127955 0.59094774 0.56961555
v -0.57340464 0.59522449 0.54522588
v -0.58785259 0.58782692 0.52077896
v -0.59978418 0.57337856 0.56961555
v -0.60532833 0.54586880 0.56961555
v -0.60532833 0.20881715 1.03737031
v -0.60515787 0.21124448 1.03737031
v -0.60532833 -0.58121994 0.90299817
v -0.56320446 0.48090892 0.45247645
v -0.55950388 0.54898970 0.45740021
v -0.60532833 0.46992818 0.45247645
v -0.55950388 0.58643990 0.48224788
v -0.58143376 0.58227870 0.49049229
v -0.58592830 0.58586194 0.50675204
v -0.57340464 0.59117891 0.52077896
v -0.55950388 0.58389696 0.47909899
v -0.55950388 0.56898619 0.46449953
v -0.55950388 0.56297571 0.45877424
v -0.56213691 0.56216658 0.45934679
v -0.57178533 0.57222264 0.47388898
v -0.59419518 0.57337856 0.52077896
v -0.60532833 0.54147651 0.55908104
v -0.60532833 0.52402288 0.52249655
v -0.60532833 0.53500369 0.54522588
v -0.57340464 0.47894394 0.45247645
v -0.55950388 0.55950810 0.45825900
v -0.60532833 0.52367616 0.52203854
v -0.59959129 0.54898970 0.52077896
v -0.59538385 0.54898970 0.49638929
v -0.58710800 0.56598099 0.48184710
v -0.58900539 0.57384090 0.49770610
f 1 2 3
f 1 3 4
f 1 4 5
f 1 5 6
f 1 6 12
f 1 12 11
f 1 11 21
f 1 21 37
f 1 37 36
f 1 36 35
f 1 35 53
f 1 53 52
f 1 52 40
f 1 40 39
f 1 39 38
f 1 38 25
f 1 25 13
f 1 13 7
f 1 7 14
f 1 14 28
f 1 28 43
f 1 43 56
f 1 56 72
f 1 72 64
f 1 64 63
f 1 63 62
f 1 62 58
f 1 58 45
f 1 45 29
f 1 29 15
f 1 15 8
f 1 8 2
f 2 8 3
f 3 8 4
f 4 9 5
f 4 8 9
f 5 9 19
f 5 19 33
f 5 33 51
f 5 51 68
f 5 68 70
f 5 70 69
f 5 69 73
f 5 73 57
f 5 57 44
f 5 44 54
f 5 54 41
f 5 41 26
f 5 26 24
f 5 24 23
f 5 23 22
f 5 22 40
f 5 40 52
f 5 52 34
f 5 34 20
f 5 20 10
f 5 10 11
f 5 11 12
f 5 12 6
f 7 13 14
f 8 15 16
f 8 16 17
f 8 17 9
f 9 17 18
f 9 18 19
f 10 20 11
f 11 20 21
f 13 22 23
f 13 23 24
f 13 24 14
f 13 25 22
f 14 26 27
f 14 27 42
f 14 42 54
f 14 54 44
f 14 44 28
f 14 24 26
f 15 29 16
f 16 29 30
f 16 30 31
f 16 31 18
f 16 18 17
f 18 31 19
f 19 31 32
f 19 32 33
f 20 34 35
f 20 35 36
f 20 36 37
f 20 37 21
f 22 25 38
f 22 38 39
f 22 39 40
f 26 41 42
f 26 42 27
f 28 44 57
f 28 57 71
f 28 71 55
f 28 55 43
f 29 45 46
f 29 46 30
f 30 47 31
f 30 46 48
f 30 48 49
f 30 49 47
f 31 47 50
f 31 50 32
f 32 50 33
f 33 50 51
f 34 52 53
f 34 53 35
f 41 54 42
f 43 55 56
f 45 58 46
f 46 59 60
f 46 60 61
f 46 61 48
f 46 58 62
f 46 62 63
f 46 63 64
f 46 64 65
f 46 65 66
f 46 66 59
f 47 49 50
f 48 61 49
f 49 60 67
f 49 67 50
f 49 61 60
f 50 68 51
f 50 67 69
f 50 69 70
f 50 70 68
f 55 71 56
f 56 71 57
f 56 57 72
f 57 73 74
f 57 74 67
f 57 67 75
f 57 75 76
f 57 76 65
f 57 65 64
f 57 64 72
f 59 66 76
f 59 76 60
f 60 76 77
f 60 77 67
f 65 76 66
f 67 77 75
f 67 74 69
f 69 74 73
f 75 77 76

