# https://github.com/mikedh/trimesh
v -0.84886864 -0.00852059 0.30212701
v -0.95800926 -0.00852059 0.37630601
v -0.95468642 0.02116188 0.35980582
v -0.84886864 0.03661989 0.28902251
v -0.84886864 -0.00852059 0.77685332
v -0.95800926 0.01784668 0.36406238
v -0.95800926 -0.00852059 0.77685332
v -0.95800926 0.02509384 0.36186238
v -0.95553044 0.03661989 0.35889710
v -0.88634937 0.18302774 0.30930101
v -0.84886864 0.20692790 0.28825731
v -0.84886864 0.38529259 0.77685332
v -0.95800926 0.29801841 0.77685332
v -0.95800926 0.03661989 0.36076234
v -0.89855083 0.18302774 0.31733584
v -0.84886864 0.23179180 0.29930523
v -0.90245067 0.36582552 0.38687563
v -0.90999382 0.38529259 0.77685332
v -0.84886864 0.38529259 0.39902360
v -0.95800926 0.38529259 0.74653130
v -0.95800926 0.05755182 0.36449280
v -0.93332836 0.28059441 0.38056254
v -0.84886864 0.23622490 0.30160093
v -0.88617841 0.36705910 0.38553650
v -0.84886864 0.26081894 0.31614018
v -0.84886864 0.24867612 0.30882274
v -0.95800926 0.38529259 0.46947209
v -0.91606249 0.38529259 0.43078042
v -0.91117977 0.38529259 0.42700213
v -0.86307884 0.38529259 0.40270624
v -0.85264022 0.38529259 0.39998013
v -0.87606033 0.36705910 0.38553650
v -0.95800926 0.08542251 0.37190593
v -0.94595731 0.27828149 0.40108013
v -0.95800926 0.30796397 0.43537176
v -0.95800926 0.27855133 0.42437166
v -0.95800926 0.28356267 0.42609342
v -0.95800926 0.30222022 0.43288478
f 1 2 3
f 1 3 4
f 1 4 11
f 1 11 16
f 1 16 23
f 1 23 26
f 1 26 25
f 1 25 19
f 1 19 12
f 1 12 5
f 1 5 7
f 1 7 2
f 2 6 3
f 2 7 13
f 2 13 20
f 2 20 27
f 2 27 35
f 2 35 38
f 2 38 37
f 2 37 36
f 2 36 33
f 2 33 21
f 2 21 14
f 2 14 8
f 2 8 6
f 3 6 8
f 3 8 9
f 3 9 4
f 4 10 11
f 4 9 10
f 5 12 18
f 5 18 13
f 5 13 7
f 8 14 9
f 9 14 15
f 9 15 10
f 10 15 11
f 11 15 17
f 11 17 16
f 12 19 31
f 12 31 30
f 12 30 29
f 12 29 28
f 12 28 27
f 12 27 20
f 12 20 18
f 13 18 20
f 14 21 15
f 15 21 22
f 15 22 17
f 16 17 23
f 17 19 24
f 17 24 25
f 17 25 26
f 17 26 23
f 17 22 27
f 17 27 28
f 17 28 29
f 17 29 30
f 17 30 31
f 17 31 19
f 19 25 32
f 19 32 24
f 21 33 34
f 21 34 22
f 22 34 27
f 24 32 25
f 27 34 35
f 33 36 34
f 34 36 37
f 34 37 38
f 34 38 35

