# https://github.com/mikedh/trimesh
v -1.08579614 -0.08542388 0.95624726
v -1.08579614 -0.06102083 0.95431660
v -1.09948293 -0.03689258 0.95356581
v -1.09948293 -0.06102083 0.95528193
v -1.09948293 -0.08542388 0.95555008
v -1.08579614 -0.10812312 0.95174241
v -1.06140612 -0.10317655 0.95007992
v -1.05944740 -0.08652312 0.95115251
v -1.06668193 -0.06102083 0.95002629
v -1.08470457 -0.03727732 0.95077710
v -1.09210890 -0.02001930 0.95002629
v -1.09948293 -0.02677961 0.95227871
v -1.09948293 -0.10724373 0.95120614
v -1.09948293 -0.11400404 0.94868558
v -1.09948293 -0.11939030 0.94654043
v -1.08579614 -0.12026968 0.94680857
v -1.04905945 -0.09779030 0.94788114
v -1.06140612 -0.11532312 0.94251825
v -1.04905945 -0.09542694 0.94788114
v -1.05001155 -0.07915823 0.94739848
v -1.05448085 -0.06102083 0.94568236
v -1.07584487 -0.02952770 0.94654043
v -1.04733728 -0.02249258 0.92578605
v -1.08470457 -0.01199487 0.94048035
v -1.09948293 -0.00622388 0.94353720
v -1.09948293 -0.01710632 0.95034807
v -1.09948293 -0.20793382 0.89157081
v -1.09948293 -0.22552159 0.87998698
v -1.08579614 -0.22315823 0.87762731
v -1.03753152 -0.11972007 0.92331912
v -1.03753152 -0.10784831 0.93082717
v -1.03753152 -0.10570480 0.93163159
v -1.03753152 -0.08641319 0.93795979
v -1.03753152 -0.08487427 0.93806705
v -1.03753152 -0.22601626 0.85580035
v -1.07180001 -0.22041016 0.87505313
v -1.03753152 -0.06294449 0.93452755
v -1.03753152 -0.06080098 0.93393763
v -1.03753152 -0.05541472 0.93206062
v -1.04335307 -0.03661777 0.92948643
v -1.06270383 -0.03727732 0.94219649
v -1.06377111 -0.01347884 0.92905740
v -1.03753152 -0.03661777 0.92348001
v -1.03753152 -0.01408342 0.90706957
v -1.03753152 0.16795018 0.75106314
v -1.07347377 0.00004177 0.92342638
v -1.09948293 -0.00155212 0.93930052
v -1.09948293 -0.23772312 0.86931483
v -1.08579614 -0.23535977 0.86754508
v -1.06210952 -0.23140253 0.86228944
v -1.05240687 -0.24239488 0.84866771
v -1.03753152 -0.22645594 0.85542495
v -1.06867097 -0.24624221 0.85231446
v -1.03753152 0.16795018 0.50297594
v -1.06101191 0.16795018 0.73583254
v -1.09948293 0.00498834 0.93189973
v -1.09948293 -0.25047427 0.85714106
v -1.08579614 -0.24921015 0.85531769
v -1.03753152 -0.23821778 0.84502095
v -1.03753152 -0.37815063 0.71711606
v -1.05285561 0.16795018 0.51493516
v -1.03753152 0.11062499 0.44741641
v -1.08424368 0.16795018 0.71716969
v -1.09681469 0.16795018 0.70193908
v -1.09948293 0.16795018 0.69738063
v -1.09948293 -0.26196131 0.83794194
v -1.03753152 -0.37908498 0.71588259
v -1.07885872 0.16795018 0.54325122
v -1.03753152 0.08539751 0.42403422
v -1.09948293 0.16795018 0.63962232
v -1.09948293 -0.26762238 0.81729481
v -1.03753152 -0.39046207 0.69153508
v -1.03753152 -0.37985444 0.71427373
v -1.09007136 0.16795018 0.55708747
v -1.05230985 0.10117154 0.45465630
v -1.04746461 0.08539751 0.43803136
v -1.03753152 0.06154407 0.41781327
v -1.09609915 0.03659139 0.48753080
v -1.09830650 0.16795018 0.59409140
v -1.09948293 0.05016696 0.50453117
v -1.09948293 -0.26877656 0.81026942
v -1.03753152 -0.39353992 0.67625085
v -1.09379473 0.16795018 0.56341567
v -1.09948293 0.03659139 0.49289370
v -1.03753152 0.03659139 0.41287941
v -1.03753152 0.02532422 0.41148505
v -1.03753152 0.01218834 0.41014432
v -1.03753152 -0.00089258 0.40912540
v -1.03753152 -0.01221472 0.40837459
v -1.04460228 -0.01221472 0.41802779
v -1.09948293 0.01136391 0.49637957
v -1.09656004 0.16795018 0.56915397
v -1.09948293 -0.26916130 0.80726621
v -1.04950819 -0.31785748 0.58009426
v -1.04790730 -0.31406510 0.56379108
v -1.03753152 -0.38914300 0.66718757
v -1.09948293 -0.26949108 0.78913965
v -1.09948293 -0.26877656 0.77680500
v -1.09948293 -0.26866664 0.77610783
v -1.09948293 -0.26855673 0.77557154
v -1.09948293 -0.25981779 0.74033737
v -1.09948293 -0.25179335 0.71588259
v -1.03753152 -0.29191551 0.51337993
v -1.05069675 -0.02622999 0.43197128
v -1.04880479 -0.28905749 0.53434882
v -1.09791230 -0.14610175 0.58213216
v -1.09948293 -0.00413532 0.50528198
v -1.05113342 -0.29779641 0.55065201
v -1.04535427 -0.30554604 0.54357299
v -1.03793779 -0.30499641 0.52078072
v -1.03753152 -0.32500254 0.55086652
v -1.03753152 -0.33363155 0.56454189
v -1.03753152 -0.33753383 0.57124549
v -1.09948293 -0.24470329 0.70467416
v -1.03753152 -0.30499641 0.51992265
v -1.09841565 -0.17154908 0.60444177
v -1.09637199 -0.15857808 0.58685150
v -1.09948293 -0.14236434 0.58588618
v -1.09948293 -0.13357045 0.57971886
v -1.09948293 -0.24398878 0.70370884
v -1.03753152 -0.30543609 0.52029806
v -1.09948293 -0.15775366 0.59881074
f 1 2 3
f 1 3 4
f 1 4 5
f 1 5 6
f 1 6 7
f 1 7 8
f 1 8 2
f 2 8 9
f 2 9 10
f 2 10 11
f 2 11 12
f 2 12 3
f 3 12 26
f 3 26 25
f 3 25 47
f 3 47 56
f 3 56 65
f 3 65 70
f 3 70 80
f 3 80 84
f 3 84 91
f 3 91 107
f 3 107 119
f 3 119 118
f 3 118 122
f 3 122 120
f 3 120 114
f 3 114 102
f 3 102 101
f 3 101 100
f 3 100 99
f 3 99 98
f 3 98 97
f 3 97 93
f 3 93 81
f 3 81 71
f 3 71 66
f 3 66 57
f 3 57 48
f 3 48 28
f 3 28 27
f 3 27 15
f 3 15 14
f 3 14 13
f 3 13 5
f 3 5 4
f 5 13 6
f 6 13 14
f 6 14 15
f 6 15 16
f 6 16 7
f 7 17 8
f 7 16 18
f 7 18 17
f 8 17 19
f 8 19 20
f 8 20 9
f 9 20 21
f 9 21 22
f 9 22 11
f 9 11 10
f 11 22 23
f 11 23 24
f 11 24 25
f 11 25 26
f 11 26 12
f 15 27 16
f 16 27 28
f 16 28 29
f 16 29 18
f 17 30 31
f 17 31 32
f 17 32 33
f 17 33 34
f 17 34 19
f 17 18 35
f 17 35 30
f 18 29 36
f 18 36 35
f 19 34 20
f 20 34 37
f 20 37 21
f 21 37 38
f 21 38 39
f 21 39 40
f 21 40 41
f 21 41 22
f 22 41 23
f 23 42 24
f 23 41 40
f 23 40 43
f 23 43 44
f 23 44 45
f 23 45 42
f 24 42 46
f 24 46 25
f 25 46 47
f 28 48 49
f 28 49 29
f 29 49 36
f 30 35 52
f 30 52 59
f 30 59 60
f 30 60 67
f 30 67 73
f 30 73 72
f 30 72 82
f 30 82 96
f 30 96 113
f 30 113 112
f 30 112 111
f 30 111 121
f 30 121 115
f 30 115 103
f 30 103 89
f 30 89 88
f 30 88 87
f 30 87 86
f 30 86 85
f 30 85 77
f 30 77 69
f 30 69 62
f 30 62 54
f 30 54 45
f 30 45 44
f 30 44 43
f 30 43 39
f 30 39 38
f 30 38 37
f 30 37 34
f 30 34 33
f 30 33 32
f 30 32 31
f 35 36 50
f 35 50 51
f 35 51 52
f 36 49 53
f 36 53 50
f 39 43 40
f 42 45 46
f 45 54 61
f 45 61 68
f 45 68 74
f 45 74 83
f 45 83 92
f 45 92 79
f 45 79 70
f 45 70 65
f 45 65 64
f 45 64 63
f 45 63 55
f 45 55 56
f 45 56 47
f 45 47 46
f 48 57 58
f 48 58 49
f 49 58 53
f 50 53 51
f 51 59 52
f 51 53 60
f 51 60 59
f 53 58 60
f 54 62 61
f 55 63 56
f 56 63 64
f 56 64 65
f 57 66 67
f 57 67 60
f 57 60 58
f 61 62 69
f 61 69 68
f 66 71 72
f 66 72 73
f 66 73 67
f 68 69 75
f 68 75 74
f 69 76 75
f 69 77 78
f 69 78 76
f 70 79 80
f 71 81 82
f 71 82 72
f 74 75 84
f 74 84 83
f 75 76 84
f 76 78 84
f 77 85 78
f 78 85 86
f 78 86 87
f 78 87 88
f 78 88 89
f 78 89 90
f 78 90 91
f 78 91 84
f 79 92 80
f 80 92 84
f 81 93 82
f 82 94 95
f 82 95 96
f 82 93 97
f 82 97 98
f 82 98 99
f 82 99 100
f 82 100 101
f 82 101 102
f 82 102 94
f 83 84 92
f 89 103 90
f 90 103 104
f 90 104 91
f 91 104 103
f 91 103 105
f 91 105 106
f 91 106 107
f 94 102 95
f 95 102 108
f 95 108 109
f 95 109 110
f 95 110 111
f 95 111 112
f 95 112 113
f 95 113 96
f 102 114 108
f 103 115 105
f 105 115 110
f 105 110 108
f 105 108 116
f 105 116 117
f 105 117 106
f 106 117 116
f 106 116 118
f 106 118 119
f 106 119 107
f 108 110 109
f 108 114 120
f 108 120 116
f 110 115 121
f 110 121 111
f 116 122 118
f 116 120 122

