# https://github.com/mikedh/trimesh
v -0.40828307 -0.03762211 0.45810106
v -0.40828307 -0.03762211 0.10352104
v -0.46280891 -0.03762211 0.45810106
v -0.40828307 -0.72280581 0.45810106
v -0.46280891 -0.03762211 0.12782195
v -0.40828307 -0.20579712 0.00631754
v -0.46280891 -0.69281383 0.45810106
v -0.44163049 -0.70835942 0.45810106
v -0.40828307 -0.83641428 0.36910132
v -0.40894491 -0.20571862 0.00698269
v -0.41812504 -0.21270628 0.01416655
v -0.46280891 -0.14675529 0.10933024
v -0.40828307 -0.22660309 0.00525325
v -0.46280891 -0.69438410 0.45672639
v -0.46118635 -0.69422703 0.45810106
v -0.41669999 -0.83217455 0.36453381
v -0.40828307 -0.83963327 0.34941227
v -0.40828307 -0.23288413 0.00507589
v -0.41837587 -0.23186347 0.01394483
v -0.46280891 -0.18208617 0.10480705
v -0.46280891 -0.69972296 0.45087288
v -0.46280891 -0.71299169 0.43499750
v -0.46280891 -0.72626034 0.41464329
v -0.46280891 -0.73685967 0.39721584
v -0.43954895 -0.80563709 0.33930168
v -0.43954895 -0.80563709 0.33681841
v -0.41661459 -0.83186048 0.34994439
v -0.40828307 -0.83814147 0.34324836
v -0.41531763 -0.83005468 0.33668533
v -0.46280891 -0.45240671 0.13128080
v -0.40828307 -0.76308298 0.26081161
v -0.46280891 -0.19527638 0.10511748
v -0.44037091 -0.32113286 0.06813399
v -0.46280891 -0.74337620 0.37295928
v -0.43998128 -0.78278977 0.31030026
v -0.43614911 -0.79904203 0.32054389
v -0.41988634 -0.81042643 0.30626490
v -0.42573603 -0.81615789 0.32861461
v -0.46280891 -0.73897947 0.35531012
v -0.40828307 -0.82738521 0.31850402
v -0.41040199 -0.82667861 0.32041086
v -0.46280891 -0.46300601 0.13757776
v -0.41595275 -0.75829372 0.26333928
v -0.42033468 -0.78750057 0.28511248
v -0.40828307 -0.80697183 0.28755144
v -0.42824455 -0.79331057 0.30014534
v -0.46280891 -0.70545442 0.31535556
v -0.46280891 -0.67491277 0.28910352
v -0.46280891 -0.65143739 0.27021270
v -0.46280891 -0.64421419 0.26506872
v -0.46280891 -0.46638204 0.13975067
v -0.41384986 -0.80375283 0.28999042
v -0.40828307 -0.81286029 0.29446922
v -0.40828307 -0.81725702 0.30018970
v -0.40828307 -0.82440175 0.31300528
f 1 2 5
f 1 5 3
f 1 3 7
f 1 7 15
f 1 15 8
f 1 8 4
f 1 4 9
f 1 9 17
f 1 17 28
f 1 28 40
f 1 40 55
f 1 55 54
f 1 54 53
f 1 53 45
f 1 45 31
f 1 31 18
f 1 18 13
f 1 13 6
f 1 6 2
f 2 6 5
f 3 5 12
f 3 12 20
f 3 20 32
f 3 32 30
f 3 30 42
f 3 42 51
f 3 51 50
f 3 50 49
f 3 49 48
f 3 48 47
f 3 47 39
f 3 39 34
f 3 34 24
f 3 24 23
f 3 23 22
f 3 22 21
f 3 21 14
f 3 14 7
f 4 8 9
f 5 6 10
f 5 10 11
f 5 11 12
f 6 13 11
f 6 11 10
f 7 14 15
f 8 15 9
f 9 16 17
f 9 15 14
f 9 14 16
f 11 13 18
f 11 18 19
f 11 19 20
f 11 20 12
f 14 21 16
f 16 22 23
f 16 23 24
f 16 24 25
f 16 25 26
f 16 26 27
f 16 27 17
f 16 21 22
f 17 27 29
f 17 29 28
f 18 30 19
f 18 31 30
f 19 32 20
f 19 30 33
f 19 33 32
f 24 34 25
f 25 34 26
f 26 35 36
f 26 36 37
f 26 37 38
f 26 38 29
f 26 29 27
f 26 34 39
f 26 39 35
f 28 29 41
f 28 41 40
f 29 38 41
f 30 32 33
f 30 31 43
f 30 43 44
f 30 44 42
f 31 45 43
f 35 46 36
f 35 39 47
f 35 47 48
f 35 48 49
f 35 49 50
f 35 50 51
f 35 51 42
f 35 42 46
f 36 46 37
f 37 46 52
f 37 52 53
f 37 53 54
f 37 54 41
f 37 41 38
f 40 41 55
f 41 54 55
f 42 44 46
f 43 45 52
f 43 52 44
f 44 52 46
f 45 53 52

