# https://github.com/mikedh/trimesh
v -0.34794612 -0.38949172 0.14404847
v -0.34794612 -0.38949172 0.46427959
v -0.40828307 -0.38949172 0.14812430
v -0.40828307 -0.34689576 0.07475923
v -0.40108349 -0.34982320 0.07934451
v -0.40821219 -0.34282285 0.06841388
v -0.39194674 -0.34112580 0.06975705
v -0.34794612 -0.27553479 0.01255636
v -0.34794612 0.04389253 0.46427959
v -0.40828307 -0.38949172 0.46427959
v -0.40828307 -0.34282285 0.06841388
v -0.35380499 -0.27625604 0.01223218
v -0.34794612 -0.25601871 0.00111626
v -0.40828307 0.04389253 0.46427959
v -0.34794612 0.04389253 0.16734558
v -0.40828307 -0.25092756 0.01524277
v -0.40344003 -0.23332066 0.00088466
v -0.40153828 -0.25504291 0.01278796
v -0.39269682 -0.27010424 0.01783646
v -0.37819727 -0.27366804 0.01473323
v -0.37819727 -0.25618843 0.00408046
v -0.35380499 -0.25618843 0.00134787
v -0.39586840 -0.22623548 -0.00564597
v -0.34794612 -0.23968460 -0.00300588
v -0.40828307 0.04389253 0.13404415
v -0.34794612 0.03651035 0.15687809
v -0.35679351 0.04389253 0.15984232
v -0.40828307 -0.23281154 0.00509945
v -0.39598061 -0.20739822 -0.00606279
v -0.37819727 -0.20739822 -0.00884177
v -0.34794612 -0.21405914 -0.00759124
v -0.37819727 -0.22610821 -0.00559958
v -0.35380499 -0.17167530 -0.00291324
v -0.37819727 -0.18779729 -0.00703546
v -0.39237195 -0.19327028 -0.00499748
v -0.40828307 -0.20574360 0.00634997
v -0.40705457 0.04389253 0.13455361
v -0.34794612 0.00150869 0.11699970
v -0.35990601 0.04389253 0.15738755
v -0.40828307 -0.22649003 0.00523841
v -0.35380499 -0.18380921 -0.00786910
v -0.35380499 -0.20739822 -0.00856384
v -0.34794612 -0.20739822 -0.00833231
v -0.34794612 -0.17553610 -0.00388591
v -0.39068283 0.04389253 0.14247369
v -0.34794612 -0.18482744 -0.00763757
v -0.34794612 -0.18945191 -0.00782278
f 1 2 10
f 1 10 3
f 1 3 4
f 1 4 5
f 1 5 6
f 1 6 7
f 1 7 8
f 1 8 13
f 1 13 24
f 1 24 31
f 1 31 43
f 1 43 47
f 1 47 46
f 1 46 44
f 1 44 38
f 1 38 26
f 1 26 15
f 1 15 9
f 1 9 2
f 2 9 14
f 2 14 10
f 3 10 14
f 3 14 25
f 3 25 36
f 3 36 40
f 3 40 28
f 3 28 16
f 3 16 11
f 3 11 4
f 4 11 6
f 4 6 5
f 6 11 12
f 6 12 8
f 6 8 7
f 8 12 13
f 9 15 27
f 9 27 39
f 9 39 45
f 9 45 37
f 9 37 25
f 9 25 14
f 11 16 17
f 11 17 18
f 11 18 19
f 11 19 20
f 11 20 12
f 12 20 21
f 12 21 22
f 12 22 13
f 13 22 23
f 13 23 24
f 15 26 27
f 16 28 17
f 17 21 19
f 17 19 18
f 17 28 29
f 17 29 23
f 17 23 21
f 19 21 20
f 21 23 22
f 23 29 30
f 23 30 31
f 23 31 32
f 23 32 24
f 24 32 31
f 25 33 34
f 25 34 35
f 25 35 36
f 25 37 38
f 25 38 33
f 26 39 27
f 26 38 39
f 28 40 29
f 29 34 30
f 29 40 36
f 29 36 35
f 29 35 34
f 30 41 42
f 30 42 31
f 30 34 41
f 31 42 43
f 33 44 41
f 33 41 34
f 33 38 44
f 37 45 38
f 38 45 39
f 41 44 46
f 41 46 47
f 41 47 42
f 42 47 43

