# https://github.com/mikedh/trimesh
v 0.41682659 -0.49283179 0.29287568
v 0.41682659 -0.48923845 0.28826749
v 0.42047135 -0.49283179 0.29287568
v 0.41682659 -0.49283179 0.93894488
v 0.45140520 -0.47577338 0.28587122
v 0.46630033 -0.48900153 0.28817535
v 0.41682659 -0.08943165 0.22983554
v 0.42700773 -0.08943165 0.22872958
v 0.42700773 -0.49283179 0.29296789
v 0.42688683 -0.49283179 0.93866839
v 0.45140520 -0.49251591 1.05663821
v 0.43679832 -0.48998871 1.05230649
v 0.43047582 -0.47150878 1.08189117
v 0.41925332 -0.45137034 1.08189117
v 0.41682659 -0.45113343 1.05755983
v 0.43273519 -0.08943165 0.22937473
v 0.45140520 -0.08943165 0.23407513
v 0.46915475 -0.47577338 0.28725373
v 0.48135351 -0.47577338 0.29296789
v 0.49075362 -0.49283179 0.30752975
v 0.47120028 -0.49283179 0.29508761
v 0.45140520 -0.49283179 0.29342870
v 0.41682659 -0.08943165 1.15396336
v 0.51180390 -0.49283179 0.91922180
v 0.47579342 -0.49184461 1.05350466
v 0.45140520 -0.48769847 1.06880388
v 0.43389739 -0.46633593 1.09737466
v 0.43043861 -0.45014625 1.10585377
v 0.42519466 -0.42696730 1.10631458
v 0.41682659 -0.43178474 1.08272059
v 0.45524520 -0.08943165 0.23508889
v 0.46416181 -0.09879009 0.23960495
v 0.51180390 -0.24343131 0.27610189
v 0.49108834 -0.49283179 0.30789843
v 0.51180390 -0.25737026 0.27803727
v 0.41682659 -0.14360795 1.16917038
v 0.42297247 -0.08943165 1.15451631
v 0.51180390 -0.47897180 1.05719122
v 0.49226917 -0.48908050 1.04825131
v 0.51180390 -0.49283179 0.40153698
v 0.50032105 -0.48355232 1.05682255
v 0.47579342 -0.48615849 1.06576246
v 0.45140520 -0.47834003 1.08189117
v 0.45140520 -0.46645439 1.09774334
v 0.45140520 -0.45488471 1.10990901
v 0.45140520 -0.44268319 1.12087652
v 0.43734691 -0.44122215 1.11977055
v 0.41682659 -0.42850731 1.08391876
v 0.41682659 -0.20698472 1.16105995
v 0.46409674 -0.08943165 0.23969708
v 0.51180390 -0.12267978 0.27038773
v 0.51180390 -0.13322283 0.27047986
v 0.51180390 -0.23182211 0.27518019
v 0.49804310 -0.47577338 0.32559392
v 0.50035826 -0.49283179 0.34264426
v 0.41682659 -0.15861304 1.16990773
v 0.42700773 -0.15861304 1.17027634
v 0.42700773 -0.14305513 1.16944685
v 0.42700773 -0.08943165 1.15470064
v 0.51180390 -0.47565493 1.06502518
v 0.51180390 -0.46898159 1.07700643
v 0.50020019 -0.47091646 1.07949491
v 0.49490974 -0.44220933 1.12207461
v 0.47579342 -0.44343342 1.12262763
v 0.50663429 -0.41634528 1.14428616
v 0.49037240 -0.41275197 1.14235071
v 0.48487737 -0.39648327 1.14437829
v 0.41682659 -0.18471402 1.16714279
v 0.41682659 -0.18941297 1.16603683
v 0.41682659 -0.19490168 1.16456218
v 0.51180390 -0.09701318 0.27536453
v 0.51180390 -0.11071520 0.27158583
v 0.51180390 -0.08943165 0.27766866
v 0.41682659 -0.16868224 1.16944685
v 0.44975949 -0.15711253 1.16843309
v 0.46445937 -0.14795152 1.16769573
v 0.46445937 -0.14562178 1.16769573
v 0.45140520 -0.14431871 1.16843309
v 0.51180390 -0.40319610 1.14806486
v 0.45140520 -0.08943165 1.15396336
v 0.51180390 -0.46471698 1.08281280
v 0.51180390 -0.44367034 1.11092277
v 0.51180390 -0.43798421 1.11829591
v 0.51180390 -0.42226835 1.13783465
v 0.51180390 -0.41630579 1.14428616
v 0.51180390 -0.44769802 1.10557729
v 0.51180390 -0.41239656 1.14576073
v 0.49917743 -0.40378838 1.14677456
v 0.41682659 -0.17808017 1.16824875
v 0.51180390 -0.08943165 1.14161335
v 0.47579342 -0.08943165 1.15110628
v 0.47176747 -0.08943165 1.15165923
v 0.51180390 -0.39107355 1.14788052
v 0.51162724 -0.08943165 1.14170556
v 0.49926113 -0.08943165 1.14603728
v 0.49572795 -0.08943165 1.14686669
f 1 2 3
f 1 3 9
f 1 9 22
f 1 22 21
f 1 21 20
f 1 20 34
f 1 34 55
f 1 55 40
f 1 40 24
f 1 24 10
f 1 10 4
f 1 4 15
f 1 15 30
f 1 30 48
f 1 48 49
f 1 49 70
f 1 70 69
f 1 69 68
f 1 68 89
f 1 89 74
f 1 74 56
f 1 56 36
f 1 36 23
f 1 23 7
f 1 7 2
f 2 5 6
f 2 6 3
f 2 7 8
f 2 8 5
f 3 6 9
f 4 10 11
f 4 11 12
f 4 12 13
f 4 13 14
f 4 14 15
f 5 8 6
f 6 8 16
f 6 16 17
f 6 17 18
f 6 18 19
f 6 19 20
f 6 20 21
f 6 21 22
f 6 22 9
f 7 23 37
f 7 37 59
f 7 59 80
f 7 80 92
f 7 92 91
f 7 91 96
f 7 96 95
f 7 95 94
f 7 94 90
f 7 90 73
f 7 73 50
f 7 50 31
f 7 31 17
f 7 17 16
f 7 16 8
f 10 24 11
f 11 25 26
f 11 26 12
f 11 24 25
f 12 26 27
f 12 27 13
f 13 27 14
f 14 27 28
f 14 28 29
f 14 29 30
f 14 30 15
f 17 31 18
f 18 31 32
f 18 32 33
f 18 33 19
f 19 34 20
f 19 33 35
f 19 35 34
f 23 36 37
f 24 38 39
f 24 39 25
f 24 40 35
f 24 35 33
f 24 33 53
f 24 53 52
f 24 52 51
f 24 51 72
f 24 72 71
f 24 71 73
f 24 73 90
f 24 90 93
f 24 93 79
f 24 79 87
f 24 87 85
f 24 85 84
f 24 84 83
f 24 83 82
f 24 82 86
f 24 86 81
f 24 81 61
f 24 61 60
f 24 60 38
f 25 39 41
f 25 41 42
f 25 42 26
f 26 42 43
f 26 43 27
f 27 43 44
f 27 44 45
f 27 45 46
f 27 46 47
f 27 47 28
f 28 47 29
f 29 48 30
f 29 47 49
f 29 49 48
f 31 50 32
f 32 50 51
f 32 51 52
f 32 52 53
f 32 53 33
f 34 35 54
f 34 54 55
f 35 40 55
f 35 55 54
f 36 56 57
f 36 57 58
f 36 58 59
f 36 59 37
f 38 60 41
f 38 41 39
f 41 60 42
f 42 60 61
f 42 61 62
f 42 62 63
f 42 63 43
f 43 63 44
f 44 63 64
f 44 64 45
f 45 64 46
f 46 64 65
f 46 65 47
f 47 65 66
f 47 66 67
f 47 67 68
f 47 68 69
f 47 69 70
f 47 70 49
f 50 71 72
f 50 72 51
f 50 73 71
f 56 74 57
f 57 75 76
f 57 76 77
f 57 77 78
f 57 78 58
f 57 74 79
f 57 79 75
f 58 78 80
f 58 80 59
f 61 81 63
f 61 63 62
f 63 82 83
f 63 83 84
f 63 84 85
f 63 85 64
f 63 81 86
f 63 86 82
f 64 85 65
f 65 85 87
f 65 87 88
f 65 88 66
f 66 88 67
f 67 88 68
f 68 88 89
f 74 89 79
f 75 79 76
f 76 79 77
f 77 91 92
f 77 92 80
f 77 80 78
f 77 79 93
f 77 93 90
f 77 90 94
f 77 94 95
f 77 95 96
f 77 96 91
f 79 88 87
f 79 89 88

