# https://github.com/mikedh/trimesh
v -0.55950388 -0.83016761 0.75182682
v -0.56229391 -0.83002145 0.75193696
v -0.60532833 -0.78247178 0.60215165
v -0.60365520 -0.78247178 0.60215165
v -0.58738611 -0.77998709 0.60749326
v -0.55950388 -0.76239958 0.62296740
v -0.55950388 -0.83016761 0.75601200
v -0.56229391 -0.83002145 0.75424982
v -0.60532833 -0.80882875 0.76862260
v -0.59954196 -0.81153261 0.76460263
v -0.60532833 -0.78198457 0.60138069
v -0.60532833 -0.76946382 0.58216191
v -0.55950388 -0.67180664 0.45247645
v -0.55950388 -0.82914454 0.76036238
v -0.57161938 -0.82446749 0.76333606
v -0.60532833 -0.80753764 0.78183895
v -0.60532833 -0.76020722 0.56861517
v -0.60532833 -0.67285413 0.45247645
v -0.55950388 -0.58133556 0.45247645
v -0.55950388 -0.82675729 0.76856753
v -0.60532833 -0.78644238 0.85425354
v -0.59779706 -0.80936460 0.78470249
v -0.60532833 -0.58133556 0.45247645
v -0.55950388 -0.58133556 0.94533624
v -0.60532833 -0.78451798 0.86031104
v -0.55950388 -0.78434746 0.88399033
v -0.60532833 -0.58133556 0.90298883
v -0.57265553 -0.58133556 0.93536890
v -0.55950388 -0.62822757 0.97766122
v -0.57340464 -0.78334868 0.87941968
v -0.55950388 -0.77599212 0.90210775
v -0.60259215 -0.75523791 0.92077583
v -0.60532833 -0.75589557 0.91774711
v -0.60532833 -0.69972260 0.95502824
v -0.58964231 -0.69984440 0.97722066
v -0.56388628 -0.67589904 1.00106516
v -0.60152905 -0.58133556 0.90794498
v -0.60138103 -0.58133556 0.90811016
v -0.55950388 -0.64661897 0.98988634
v -0.55950388 -0.77170490 0.91064331
v -0.58731880 -0.73287583 0.97336589
v -0.59638863 -0.73709004 0.95970900
v -0.60532833 -0.73606698 0.95519341
v -0.60532833 -0.71979479 0.96070025
v -0.56760031 -0.69541102 1.00475474
v -0.55950388 -0.69541102 1.01505248
v -0.55950388 -0.67241565 1.00508514
v -0.55950388 -0.66191666 0.99924794
v -0.55950388 -0.65368320 0.99434688
v -0.55950388 -0.73182841 0.98961099
v -0.57340464 -0.73436182 0.97755109
v -0.55950388 -0.71772430 1.00514022
v -0.56704861 -0.71458188 1.00299258
v -0.60532833 -0.72439877 0.96042491
v -0.55950388 -0.69867517 1.01461192
f 1 2 3
f 1 3 4
f 1 4 5
f 1 5 6
f 1 6 13
f 1 13 19
f 1 19 24
f 1 24 29
f 1 29 39
f 1 39 49
f 1 49 48
f 1 48 47
f 1 47 46
f 1 46 55
f 1 55 52
f 1 52 50
f 1 50 40
f 1 40 31
f 1 31 26
f 1 26 20
f 1 20 14
f 1 14 7
f 1 7 8
f 1 8 2
f 2 8 9
f 2 9 10
f 2 10 3
f 3 11 4
f 3 10 9
f 3 9 16
f 3 16 21
f 3 21 25
f 3 25 33
f 3 33 43
f 3 43 54
f 3 54 44
f 3 44 34
f 3 34 27
f 3 27 23
f 3 23 18
f 3 18 17
f 3 17 12
f 3 12 11
f 4 11 12
f 4 12 13
f 4 13 5
f 5 13 6
f 7 14 8
f 8 14 15
f 8 15 16
f 8 16 9
f 12 17 13
f 13 17 18
f 13 18 23
f 13 23 19
f 14 20 15
f 15 20 21
f 15 21 22
f 15 22 16
f 16 22 21
f 19 23 27
f 19 27 37
f 19 37 38
f 19 38 28
f 19 28 24
f 20 25 21
f 20 26 25
f 24 28 29
f 25 26 30
f 25 30 31
f 25 31 32
f 25 32 33
f 26 31 30
f 27 34 35
f 27 35 36
f 27 36 37
f 28 38 39
f 28 39 29
f 31 40 41
f 31 41 32
f 32 41 42
f 32 42 33
f 33 42 43
f 34 44 35
f 35 44 45
f 35 45 36
f 36 45 46
f 36 46 47
f 36 47 37
f 37 47 38
f 38 47 48
f 38 48 49
f 38 49 39
f 40 50 51
f 40 51 41
f 41 51 50
f 41 50 52
f 41 52 53
f 41 53 43
f 41 43 42
f 43 53 54
f 44 54 46
f 44 46 45
f 46 54 55
f 52 55 53
f 53 55 54

