# https://github.com/mikedh/trimesh
v 0.01628803 0.42585914 0.50103657
v -0.03668083 0.42585914 0.55890321
v -0.03659787 0.50986983 0.48005468
v -0.02947900 0.53103475 0.45366084
v -0.02758652 0.55641825 0.43292874
v -0.01219776 0.55194731 0.42851590
v -0.00399007 0.58010709 0.40886619
v 0.01219715 0.56781199 0.41436147
v 0.01628803 0.56543226 0.41685929
v 0.01628803 0.42585914 1.22840796
v -0.03668083 0.50990590 0.48013794
v -0.03668083 0.42585914 1.25596746
v -0.03668083 0.52411199 0.46798180
v -0.03382394 0.54859408 0.44633385
v -0.03668083 0.54866618 0.45124625
v -0.03639047 0.57340067 0.44758274
v -0.02754505 0.57340067 0.43192960
v -0.00452931 0.59781066 0.40795035
v 0.01219715 0.59781066 0.40536924
v 0.01219715 0.57999893 0.40878293
v 0.01628803 0.58097247 0.40911598
v 0.01628803 0.56896576 0.41477778
v 0.01628803 0.43112332 1.22624316
v -0.03668083 0.44853841 1.24963960
v -0.03668083 0.43296221 1.25413570
v -0.03668083 0.42701295 1.25580094
v -0.03668083 0.57343674 0.44833209
v -0.02540368 0.58858031 0.43326178
v -0.03668083 0.64544071 0.48996279
v -0.01725822 0.59716165 0.42435281
v -0.00205092 0.61655979 0.40911598
v 0.01628803 0.59781066 0.40603533
v 0.01628803 0.59402475 0.40670143
v 0.01152830 0.62366285 0.40786709
v 0.01628803 0.62330232 0.40803361
v 0.01628803 0.49955781 1.19693516
v -0.03668083 0.47294840 1.23565170
v 0.01628803 0.56377372 1.16854300
v -0.00337307 0.64659453 0.42868242
v -0.00702842 0.62366285 0.42135542
v -0.03000269 0.64659453 0.47755686
v -0.02549183 0.65989925 0.48205296
v -0.03668083 0.68733789 0.54508183
v -0.02843166 0.68942918 0.52718062
v 0.00295249 0.63282114 0.41203014
v -0.00129912 0.66022371 0.43351157
v 0.01628803 0.63130679 0.40936577
v -0.03668083 0.47640980 1.23365342
v 0.01628803 0.57574432 1.15855167
v -0.01973140 0.61230522 1.14506330
v -0.03668083 0.54091414 1.19526992
v -0.03668083 0.52443650 1.20509478
v 0.00082151 0.73071342 0.51211031
v -0.03123151 0.69667644 0.54633074
v -0.03668083 0.74982312 0.74041302
v -0.03092560 0.76312784 0.74041302
v 0.01628803 0.63945547 0.41336233
v 0.01152830 0.64511625 0.41835800
v 0.01628803 0.68805903 0.45465999
v 0.01219715 0.66199046 0.43167981
v 0.01628803 0.73381425 0.50245199
v 0.01628803 0.71650729 0.48346841
v 0.01628803 0.70756541 0.47414313
v 0.01628803 0.58904901 1.14622896
v 0.01219715 0.59041916 1.14739462
v -0.03668083 0.66281981 1.05614016
v -0.03668083 0.63887852 1.10018542
v -0.03659787 0.62204038 1.13074234
v -0.03659787 0.61313449 1.14589591
v -0.00346641 0.60783425 1.13823587
v 0.01628803 0.66703838 1.02208626
v -0.03668083 0.61313449 1.14589591
v 0.01628803 0.74264799 0.52060298
v 0.01628803 0.73572519 0.50528289
v -0.02322084 0.70569046 0.53900374
v -0.02817759 0.76172163 0.72542596
v -0.01870480 0.77535089 0.74041302
v -0.00650994 0.78681672 0.74041302
v -0.03668083 0.71167578 0.90502076
v -0.00420266 0.78706905 0.76056227
v 0.01628803 0.66188233 0.43176307
v 0.01628803 0.78645612 0.78545742
v 0.00984322 0.79233323 0.76713992
v -0.03668083 0.62204038 1.13074234
v 0.01219715 0.79420819 0.74041302
v 0.01628803 0.79373945 0.74041302
v 0.01628803 0.79312651 0.76655709
f 1 2 3
f 1 3 4
f 1 4 5
f 1 5 6
f 1 6 7
f 1 7 8
f 1 8 9
f 1 9 22
f 1 22 21
f 1 21 33
f 1 33 32
f 1 32 35
f 1 35 47
f 1 47 57
f 1 57 81
f 1 81 59
f 1 59 63
f 1 63 62
f 1 62 61
f 1 61 74
f 1 74 73
f 1 73 86
f 1 86 87
f 1 87 82
f 1 82 71
f 1 71 64
f 1 64 49
f 1 49 38
f 1 38 36
f 1 36 23
f 1 23 10
f 1 10 12
f 1 12 2
f 2 11 3
f 2 12 26
f 2 26 25
f 2 25 24
f 2 24 37
f 2 37 48
f 2 48 52
f 2 52 51
f 2 51 72
f 2 72 84
f 2 84 67
f 2 67 66
f 2 66 79
f 2 79 55
f 2 55 43
f 2 43 29
f 2 29 27
f 2 27 15
f 2 15 13
f 2 13 11
f 3 11 13
f 3 13 4
f 4 14 5
f 4 13 14
f 5 14 15
f 5 15 16
f 5 16 17
f 5 17 18
f 5 18 7
f 5 7 6
f 7 18 19
f 7 19 20
f 7 20 8
f 8 20 21
f 8 21 22
f 8 22 9
f 10 23 24
f 10 24 25
f 10 25 26
f 10 26 12
f 13 15 14
f 15 27 16
f 16 28 17
f 16 27 29
f 16 29 28
f 17 28 30
f 17 30 31
f 17 31 18
f 18 31 19
f 19 32 33
f 19 33 21
f 19 21 20
f 19 31 34
f 19 34 35
f 19 35 32
f 23 36 24
f 24 36 38
f 24 38 37
f 28 39 40
f 28 40 31
f 28 31 30
f 28 29 41
f 28 41 39
f 29 42 41
f 29 43 44
f 29 44 42
f 31 45 34
f 31 40 39
f 31 39 46
f 31 46 45
f 34 45 47
f 34 47 35
f 37 38 48
f 38 49 50
f 38 50 51
f 38 51 52
f 38 52 48
f 39 41 46
f 41 42 46
f 42 44 53
f 42 53 46
f 43 54 53
f 43 53 44
f 43 55 56
f 43 56 54
f 45 57 47
f 45 46 58
f 45 58 57
f 46 59 60
f 46 60 58
f 46 53 61
f 46 61 62
f 46 62 63
f 46 63 59
f 49 64 65
f 49 65 50
f 50 66 67
f 50 67 68
f 50 68 69
f 50 69 51
f 50 65 64
f 50 64 70
f 50 70 71
f 50 71 66
f 51 69 72
f 53 73 74
f 53 74 61
f 53 54 75
f 53 75 56
f 53 56 76
f 53 76 77
f 53 77 78
f 53 78 73
f 54 56 75
f 55 79 56
f 56 79 80
f 56 80 77
f 56 77 76
f 57 58 60
f 57 60 81
f 59 81 60
f 64 71 70
f 66 82 83
f 66 83 80
f 66 80 79
f 66 71 82
f 67 84 68
f 68 84 72
f 68 72 69
f 73 78 85
f 73 85 86
f 77 80 78
f 78 80 85
f 80 83 85
f 82 87 83
f 83 87 85
f 85 87 86

