# https://github.com/mikedh/trimesh
v 0.17185651 -0.98437168 0.52078434
v 0.16387171 -0.98082894 0.52078434
v 0.16751629 -0.97823430 0.50631370
v 0.17185651 -0.98132793 0.51036985
v 0.17185651 -0.98167719 0.54227107
v 0.16484164 -0.98018030 0.53931117
v 0.15167406 -0.97194720 0.52078434
v 0.07177708 -0.88652274 0.40014073
v 0.17185651 -0.97918232 0.50477892
v 0.17185651 -0.97544005 0.55312406
v 0.08540513 -0.84321171 0.74036558
v 0.14074027 -0.95712763 0.54517616
v 0.11473824 -0.93372576 0.54517616
v 0.13795784 -0.95972234 0.52078434
v 0.07253147 -0.83048786 0.75319184
v 0.07177708 -0.83153572 0.74979343
v 0.07177708 -0.83557744 0.74036558
v 0.07177708 -0.47466902 0.40014073
v 0.17185651 -0.90169158 0.40014073
v 0.17185651 -0.90718031 0.40507389
v 0.12576020 -0.94794651 0.52078434
v 0.11329804 -0.93577153 0.52078434
v 0.10110040 -0.92334705 0.52078434
v 0.08923587 -0.91117207 0.52078434
v 0.07703823 -0.89839834 0.52078434
v 0.07177708 -0.89285972 0.52078434
v 0.17185651 -0.97419258 0.55487809
v 0.08540513 -0.83338195 0.75571324
v 0.10253080 -0.92234915 0.54517616
v 0.07771425 -0.89839834 0.54517616
v 0.07177708 -0.71253029 0.85695301
v 0.11872574 -0.71073395 0.90140642
v 0.07177708 -0.89261023 0.54517616
v 0.17185651 -0.47466902 0.40014073
v 0.07177708 -0.47466902 0.93155362
v 0.17185651 -0.73413589 0.85607601
v 0.14783353 -0.73248927 0.87531541
v 0.10980040 -0.83283308 0.75538436
v 0.13419568 -0.73278864 0.87602797
v 0.07177708 -0.67615501 0.87898787
v 0.09823958 -0.60899301 0.94717538
v 0.12934603 -0.71073395 0.90140642
v 0.11629601 -0.66492805 0.92678490
v 0.17185651 -0.47466902 0.88298924
v 0.07177708 -0.54971485 0.92875817
v 0.09493791 -0.59272643 0.95040932
v 0.09493791 -0.57910444 0.95040932
v 0.10802709 -0.57191920 0.95572622
v 0.13419568 -0.57341613 0.96011124
v 0.13419568 -0.55380642 0.95353367
v 0.15859097 -0.55635121 0.95106708
v 0.17183691 -0.55999372 0.94849088
v 0.14600142 -0.47466902 0.89883021
v 0.17185651 -0.72455555 0.86698381
v 0.16409704 -0.72710030 0.87021779
v 0.14560954 -0.70709145 0.89866576
v 0.07177708 -0.66931904 0.88309887
v 0.11450311 -0.61602859 0.95183447
v 0.10774297 -0.59966220 0.95572622
v 0.07177708 -0.59726714 0.92294798
v 0.13616494 -0.69756099 0.90666849
v 0.12819973 -0.66492805 0.92678490
v 0.17185651 -0.55999372 0.94843605
v 0.07177708 -0.57316664 0.92766191
v 0.13506764 -0.59771621 0.95545214
v 0.17183691 -0.56293766 0.94849088
v 0.17185651 -0.71362804 0.87537022
v 0.15948251 -0.69756099 0.89373259
v 0.15193859 -0.69082486 0.90250268
v 0.12750412 -0.61602859 0.95183447
v 0.17185651 -0.71168204 0.87685017
v 0.17185651 -0.56298758 0.94843605
v 0.16820211 -0.67909898 0.89685695
v 0.17185651 -0.66632525 0.89998130
f 1 2 3
f 1 3 4
f 1 4 9
f 1 9 20
f 1 20 19
f 1 19 34
f 1 34 44
f 1 44 63
f 1 63 72
f 1 72 74
f 1 74 71
f 1 71 67
f 1 67 54
f 1 54 36
f 1 36 27
f 1 27 10
f 1 10 5
f 1 5 6
f 1 6 2
f 2 6 7
f 2 7 8
f 2 8 3
f 3 9 4
f 3 8 9
f 5 10 11
f 5 11 6
f 6 12 13
f 6 13 14
f 6 14 7
f 6 11 15
f 6 15 16
f 6 16 17
f 6 17 12
f 7 14 8
f 8 18 34
f 8 34 19
f 8 19 20
f 8 20 9
f 8 14 21
f 8 21 22
f 8 22 23
f 8 23 24
f 8 24 25
f 8 25 26
f 8 26 33
f 8 33 17
f 8 17 16
f 8 16 31
f 8 31 40
f 8 40 57
f 8 57 60
f 8 60 64
f 8 64 45
f 8 45 35
f 8 35 18
f 10 27 28
f 10 28 11
f 11 28 15
f 12 17 13
f 13 29 14
f 13 17 29
f 14 29 30
f 14 30 21
f 15 31 16
f 15 28 32
f 15 32 31
f 17 33 30
f 17 30 29
f 18 35 53
f 18 53 44
f 18 44 34
f 21 30 33
f 21 33 22
f 22 33 23
f 23 33 24
f 24 33 25
f 25 33 26
f 27 36 37
f 27 37 38
f 27 38 28
f 28 38 39
f 28 39 32
f 31 32 41
f 31 41 40
f 32 42 62
f 32 62 43
f 32 43 41
f 32 39 42
f 35 45 46
f 35 46 47
f 35 47 48
f 35 48 49
f 35 49 50
f 35 50 51
f 35 51 52
f 35 52 53
f 36 54 55
f 36 55 37
f 37 55 56
f 37 56 42
f 37 42 39
f 37 39 38
f 40 41 57
f 41 43 58
f 41 58 59
f 41 59 46
f 41 46 60
f 41 60 57
f 42 56 61
f 42 61 62
f 43 62 70
f 43 70 58
f 44 53 52
f 44 52 63
f 45 64 46
f 46 59 47
f 46 64 60
f 47 59 48
f 48 59 49
f 49 59 65
f 49 65 66
f 49 66 52
f 49 52 51
f 49 51 50
f 52 66 72
f 52 72 63
f 54 67 56
f 54 56 55
f 56 68 69
f 56 69 70
f 56 70 62
f 56 62 61
f 56 67 71
f 56 71 68
f 58 70 59
f 59 70 65
f 65 70 66
f 66 70 69
f 66 69 73
f 66 73 74
f 66 74 72
f 68 73 69
f 68 71 73
f 71 74 73

