# https://github.com/mikedh/trimesh
v 0.83977616 0.03719591 1.00389837
v 0.76573688 0.02714822 0.97406424
v 0.76573688 0.01240938 0.97447397
v 0.76573688 -0.00545688 0.97303988
v 0.84334508 0.01377347 1.00159360
v 0.86570605 0.01284190 1.00154237
v 0.86812566 0.03669685 1.00384716
v 0.86122984 0.05635972 1.00120947
v 0.84657120 0.05635972 1.00120947
v 0.76573688 0.25045985 0.96653527
v 0.76864035 -0.01869854 0.96968514
v 0.76573688 -0.08943163 0.94343622
v 0.85249913 -0.00063266 0.99739375
v 0.83685247 -0.08943163 0.96520362
v 0.84257885 -0.08943163 0.96635602
v 0.85153133 -0.07502551 0.97280940
v 0.85723749 -0.00063266 0.99739375
v 0.85489860 -0.07502551 0.97280940
v 0.97172418 0.04498121 0.99585722
v 0.97172418 0.06098432 0.99903272
v 0.97172418 0.07366038 0.99744498
v 0.89058743 0.25045985 0.96932661
v 0.76573688 0.25045985 0.74230546
v 0.76573688 -0.08943163 0.74230546
v 0.86008054 -0.08943163 0.95939044
v 0.97172418 -0.02681655 0.96853275
v 0.97172418 0.07778593 0.99616453
v 0.89101087 0.25045985 0.96912174
v 0.95865840 0.25045985 0.74230546
v 0.80866432 0.14339536 0.74227986
v 0.80866432 -0.08943163 0.74227986
v 0.86391152 -0.08943163 0.95749540
v 0.97172418 -0.07336199 0.90681578
v 0.97172418 0.13437905 0.96543410
v 0.91008523 0.25045985 0.95890387
v 0.97172418 0.25045985 0.80445778
v 0.96763104 0.23003175 0.74230546
v 0.97172418 0.14339536 0.74227986
v 0.97144188 -0.08943163 0.74227986
v 0.94807275 -0.08943163 0.89513821
v 0.97172418 -0.08254465 0.89206516
v 0.97172418 -0.07605689 0.90284643
v 0.97172418 0.15424155 0.95360288
v 0.91934015 0.25045985 0.94778970
v 0.97172418 0.25045985 0.88348625
v 0.97172418 0.22018369 0.74230546
v 0.97172418 -0.04498224 0.74227986
v 0.96031179 -0.08943163 0.88371673
v 0.97172418 -0.07076688 0.81360010
v 0.97172418 -0.07821947 0.83710888
v 0.97172418 -0.08567207 0.86248711
v 0.95879954 -0.08943163 0.88561177
v 0.97172418 -0.08397528 0.88604711
v 0.93286966 0.25045985 0.93122086
v 0.97172418 -0.08533935 0.87137333
f 1 2 3
f 1 3 4
f 1 4 5
f 1 5 6
f 1 6 7
f 1 7 8
f 1 8 9
f 1 9 10
f 1 10 2
f 2 10 23
f 2 23 24
f 2 24 12
f 2 12 4
f 2 4 3
f 4 11 5
f 4 12 11
f 5 13 6
f 5 11 14
f 5 14 15
f 5 15 16
f 5 16 13
f 6 13 17
f 6 17 18
f 6 18 19
f 6 19 20
f 6 20 7
f 7 20 21
f 7 21 8
f 8 21 22
f 8 22 9
f 9 22 10
f 10 22 28
f 10 28 35
f 10 35 44
f 10 44 54
f 10 54 45
f 10 45 36
f 10 36 29
f 10 29 23
f 11 12 14
f 12 24 31
f 12 31 39
f 12 39 48
f 12 48 52
f 12 52 40
f 12 40 32
f 12 32 25
f 12 25 15
f 12 15 14
f 13 16 18
f 13 18 17
f 15 25 26
f 15 26 18
f 15 18 16
f 18 26 19
f 19 26 33
f 19 33 42
f 19 42 41
f 19 41 53
f 19 53 55
f 19 55 51
f 19 51 50
f 19 50 49
f 19 49 47
f 19 47 38
f 19 38 46
f 19 46 36
f 19 36 45
f 19 45 43
f 19 43 34
f 19 34 27
f 19 27 21
f 19 21 20
f 21 27 22
f 22 27 28
f 23 29 38
f 23 38 30
f 23 30 31
f 23 31 24
f 25 32 26
f 26 32 33
f 27 34 35
f 27 35 28
f 29 36 37
f 29 37 38
f 30 38 47
f 30 47 39
f 30 39 31
f 32 40 41
f 32 41 42
f 32 42 33
f 34 43 35
f 35 43 44
f 36 46 37
f 37 46 38
f 39 47 49
f 39 49 50
f 39 50 51
f 39 51 48
f 40 52 41
f 41 52 48
f 41 48 53
f 43 45 54
f 43 54 44
f 48 51 55
f 48 55 53

