# https://github.com/mikedh/trimesh
v 0.86266834 -0.15265009 0.92540504
v 0.86266834 -0.15162278 0.92472806
v 0.86258683 -0.15162278 0.92599740
v 0.86266834 -0.15876314 0.92278175
v 0.86266834 -0.15162278 0.42376407
v 0.85946883 -0.15162278 0.93014389
v 0.86266834 -0.16565938 0.91795828
v 0.85887778 -0.15860040 0.92785908
v 0.86266834 -0.17324729 0.39490785
v 0.73429834 -0.16884305 0.28616820
v 0.72172421 -0.15162278 0.30089252
v 0.73831307 -0.15162278 1.05149227
v 0.73888370 -0.15860040 1.05174612
v 0.75877402 -0.17753966 1.02483623
v 0.85472038 -0.17181312 0.92405108
v 0.86266834 -0.25552423 0.83291287
v 0.75535033 -0.19380381 1.02018200
v 0.86266834 -0.18514791 0.37984511
v 0.73768130 -0.19138300 0.26112000
v 0.71980860 -0.17426443 0.26882066
v 0.68881144 -0.15162278 0.27719825
v 0.71247196 -0.15162278 1.07247859
v 0.71247196 -0.15335193 1.07247859
v 0.72029771 -0.16032954 1.06477794
v 0.73586759 -0.17443735 1.04819197
v 0.75624700 -0.21945623 0.99623392
v 0.73680499 -0.25552423 0.97854785
v 0.86266834 -0.25552423 0.38086057
v 0.65449247 -0.25552423 1.06266243
v 0.86266834 -0.18690757 0.37798339
v 0.75394410 -0.19702816 0.26932838
v 0.76062853 -0.21329233 0.26010458
v 0.74434537 -0.20702670 0.25248856
v 0.73476707 -0.21703542 0.23835660
v 0.71980860 -0.18646003 0.25765050
v 0.66392817 -0.15162278 0.26882066
v 0.70438132 -0.15162278 1.07527110
v 0.65997458 -0.16981951 1.09439578
v 0.65997458 -0.17184364 1.09439578
v 0.70672501 -0.16961608 1.06909373
v 0.65449247 -0.25499531 1.06291629
v 0.81141408 -0.25552423 0.30376966
v 0.86266834 -0.25193370 0.37595245
v 0.65449247 -0.25552423 0.24707269
v 0.86266834 -0.20159514 0.36579779
v 0.86266834 -0.21378056 0.35784331
v 0.80181541 -0.25552423 0.29243028
v 0.73433912 -0.23179420 0.23861046
v 0.71980860 -0.23179420 0.23260230
v 0.71980860 -0.21427896 0.23649496
v 0.71980860 -0.20208337 0.24546490
v 0.74654640 -0.23179420 0.24758048
v 0.65449247 -0.15162278 0.26602809
v 0.67970189 -0.15162278 1.08356412
v 0.66926761 -0.16045160 1.08889534
v 0.66996047 -0.15162278 1.08432569
v 0.65789587 -0.16981951 1.09439578
v 0.65789587 -0.17184364 1.09439578
v 0.65449247 -0.17523072 1.09261871
v 0.86266834 -0.22957682 0.35733556
v 0.86266834 -0.23299445 0.35885878
v 0.86266834 -0.24915688 0.37265220
v 0.66922682 -0.25552423 0.23818739
v 0.78995458 -0.25552423 0.28405270
v 0.73238266 -0.24466111 0.23987982
v 0.71964556 -0.25415106 0.23564874
v 0.70342349 -0.25552423 0.23184073
v 0.69539399 -0.25552423 0.23006366
v 0.69500677 -0.23194678 0.23429474
v 0.70287330 -0.21506215 0.23708731
v 0.65449247 -0.15162278 1.08322562
v 0.67267096 -0.25552423 0.23615645
v 0.66107502 -0.15162278 1.08373333
v 0.65449247 -0.16643243 1.09194171
v 0.65449247 -0.17393895 1.09261871
v 0.65746793 -0.15162278 1.08347947
v 0.74369325 -0.25552423 0.25240392
v 0.72125554 -0.25552423 0.23717188
v 0.71903416 -0.25552423 0.23581795
v 0.69476222 -0.25552423 0.23023287
f 1 2 3
f 1 3 4
f 1 4 7
f 1 7 16
f 1 16 28
f 1 28 43
f 1 43 62
f 1 62 61
f 1 61 60
f 1 60 46
f 1 46 45
f 1 45 30
f 1 30 18
f 1 18 9
f 1 9 5
f 1 5 2
f 2 5 11
f 2 11 21
f 2 21 36
f 2 36 53
f 2 53 71
f 2 71 76
f 2 76 73
f 2 73 56
f 2 56 54
f 2 54 37
f 2 37 22
f 2 22 12
f 2 12 6
f 2 6 3
f 3 6 4
f 4 6 8
f 4 8 7
f 5 9 10
f 5 10 11
f 6 12 13
f 6 13 14
f 6 14 8
f 7 8 15
f 7 15 16
f 8 14 17
f 8 17 15
f 9 18 10
f 10 19 20
f 10 20 21
f 10 21 11
f 10 18 19
f 12 22 13
f 13 22 23
f 13 23 24
f 13 24 25
f 13 25 14
f 14 25 17
f 15 17 26
f 15 26 16
f 16 26 27
f 16 27 29
f 16 29 44
f 16 44 63
f 16 63 72
f 16 72 80
f 16 80 68
f 16 68 67
f 16 67 79
f 16 79 78
f 16 78 77
f 16 77 64
f 16 64 47
f 16 47 42
f 16 42 28
f 17 25 29
f 17 29 26
f 18 30 31
f 18 31 19
f 19 31 32
f 19 32 33
f 19 33 34
f 19 34 35
f 19 35 20
f 20 35 21
f 21 35 36
f 22 37 38
f 22 38 39
f 22 39 23
f 23 39 40
f 23 40 24
f 24 41 25
f 24 40 41
f 25 41 29
f 26 29 27
f 28 42 43
f 29 41 59
f 29 59 75
f 29 75 74
f 29 74 71
f 29 71 53
f 29 53 44
f 30 45 32
f 30 32 31
f 32 34 33
f 32 45 46
f 32 46 47
f 32 47 34
f 34 48 49
f 34 49 50
f 34 50 51
f 34 51 35
f 34 47 52
f 34 52 48
f 35 51 53
f 35 53 36
f 37 54 38
f 38 54 55
f 38 55 56
f 38 56 57
f 38 57 58
f 38 58 39
f 39 58 41
f 39 41 40
f 41 58 59
f 42 47 60
f 42 60 61
f 42 61 62
f 42 62 43
f 44 53 63
f 46 60 47
f 47 64 65
f 47 65 48
f 47 48 52
f 48 65 66
f 48 66 49
f 49 66 67
f 49 67 68
f 49 68 69
f 49 69 70
f 49 70 50
f 50 70 53
f 50 53 51
f 53 70 69
f 53 69 72
f 53 72 63
f 54 56 55
f 56 73 57
f 57 74 75
f 57 75 59
f 57 59 58
f 57 73 76
f 57 76 71
f 57 71 74
f 64 77 65
f 65 77 78
f 65 78 66
f 66 79 67
f 66 78 79
f 68 80 69
f 69 80 72

