# https://github.com/mikedh/trimesh
v 1.01823681 0.25047626 0.84128672
v 1.01714488 0.25047626 0.83657395
v 0.97627091 0.41690865 0.70332759
v 1.00327754 0.32940264 0.82141313
v 1.00109377 0.34238718 0.82465870
v 1.00109377 0.34238718 0.83372853
v 1.00298638 0.33172012 0.84030859
v 1.00036578 0.34136815 0.85000086
v 1.01223127 0.25047626 0.85724781
v 0.93379541 0.25047626 0.55438688
v 0.97481503 0.41837147 0.70177150
v 0.97601612 0.41837147 0.70461693
v 0.97685325 0.41837147 0.71270863
v 0.97710804 0.41837147 0.71599867
v 0.97710804 0.41837147 0.72569093
v 0.97714440 0.41810849 0.73049260
v 1.01132136 0.25047626 0.85924851
v 0.97739921 0.36766597 0.87729924
v 0.95730803 0.37818509 0.90793212
v 0.97951027 0.35379386 0.87970008
v 0.64644000 0.25047626 0.55438688
v 0.89605158 0.35265976 0.55438688
v 0.88105596 0.41837147 0.57799510
v 0.97678046 0.41837147 0.73075936
v 0.95406868 0.39320773 0.90401964
v 0.94886384 0.37818509 0.92011414
v 0.92720755 0.36608810 0.94776821
v 0.88229347 0.30501138 1.00116456
v 0.90336742 0.26582762 0.97266577
v 0.91086527 0.25710005 0.96150633
v 0.91010093 0.25047626 0.95892765
v 0.64644000 0.41837147 0.55438688
v 0.64644000 0.25047626 1.00547718
v 0.88447732 0.37478281 0.55438688
v 0.86223865 0.41837147 0.55714339
v 0.92364062 0.41837147 0.82248017
v 0.94023777 0.39785916 0.91175568
v 0.93266713 0.39328990 0.92740556
v 0.93481455 0.37580188 0.93554173
v 0.87923613 0.34238718 0.99751886
v 0.88171114 0.32940264 1.00045320
v 0.86616955 0.30501138 1.00770018
v 0.88000047 0.28926556 0.99849697
v 0.89059202 0.26212949 0.97657824
v 0.89059202 0.25047626 0.96933126
v 0.89102884 0.25047626 0.96910896
v 0.64644000 0.41837147 0.95794952
v 0.85845340 0.41837147 0.55438688
v 0.68967984 0.25047626 1.00850045
v 0.69543057 0.28060372 1.00770018
v 0.64644000 0.28060372 1.00112011
v 0.81164662 0.41837147 0.92842814
v 0.78369364 0.41837147 0.94967998
v 0.78194660 0.41837147 0.95056919
v 0.86616955 0.34309393 0.99827467
v 0.86616955 0.32940264 1.00481028
v 0.76862524 0.41837147 0.95448165
v 0.76178256 0.41837147 0.95519301
v 0.69543057 0.25047626 1.00832262
v 0.86616955 0.28594547 1.00120903
v 0.86616955 0.27374985 0.99213921
v 0.64644000 0.41092591 0.96066158
v 0.69033502 0.33850824 0.99511801
v 0.70660452 0.34200916 0.99671857
v 0.69543057 0.30501138 1.00378771
v 0.64644000 0.30019561 0.99823020
v 0.64644000 0.31248985 0.99525140
v 0.67894270 0.32225289 0.99840805
f 1 2 3
f 1 3 4
f 1 4 5
f 1 5 6
f 1 6 7
f 1 7 8
f 1 8 9
f 1 9 17
f 1 17 31
f 1 31 46
f 1 46 45
f 1 45 59
f 1 59 49
f 1 49 33
f 1 33 21
f 1 21 10
f 1 10 2
f 2 10 3
f 3 11 12
f 3 12 13
f 3 13 4
f 3 10 11
f 4 13 5
f 5 13 14
f 5 14 15
f 5 15 6
f 6 8 7
f 6 15 16
f 6 16 8
f 8 17 9
f 8 16 18
f 8 18 19
f 8 19 20
f 8 20 17
f 10 21 32
f 10 32 48
f 10 48 34
f 10 34 22
f 10 22 11
f 11 22 23
f 11 23 35
f 11 35 48
f 11 48 32
f 11 32 47
f 11 47 58
f 11 58 57
f 11 57 54
f 11 54 53
f 11 53 52
f 11 52 36
f 11 36 24
f 11 24 15
f 11 15 14
f 11 14 13
f 11 13 12
f 15 24 16
f 16 24 25
f 16 25 18
f 17 20 19
f 17 19 26
f 17 26 27
f 17 27 28
f 17 28 29
f 17 29 30
f 17 30 31
f 18 25 19
f 19 25 26
f 21 33 51
f 21 51 66
f 21 66 67
f 21 67 62
f 21 62 47
f 21 47 32
f 22 34 23
f 23 34 35
f 24 36 37
f 24 37 25
f 25 37 38
f 25 38 26
f 26 38 39
f 26 39 27
f 27 39 38
f 27 38 40
f 27 40 41
f 27 41 28
f 28 41 42
f 28 42 43
f 28 43 29
f 29 43 44
f 29 44 45
f 29 45 46
f 29 46 31
f 29 31 30
f 33 49 50
f 33 50 51
f 34 48 35
f 36 52 37
f 37 52 53
f 37 53 38
f 38 53 54
f 38 54 40
f 40 55 56
f 40 56 41
f 40 54 57
f 40 57 58
f 40 58 55
f 41 56 42
f 42 56 50
f 42 50 49
f 42 49 59
f 42 59 60
f 42 60 43
f 43 60 45
f 43 45 44
f 45 60 61
f 45 61 59
f 47 62 63
f 47 63 64
f 47 64 55
f 47 55 58
f 50 56 65
f 50 65 66
f 50 66 51
f 55 64 56
f 56 64 65
f 59 61 60
f 62 67 63
f 63 67 68
f 63 68 64
f 64 68 65
f 65 68 66
f 66 68 67

