# https://github.com/mikedh/trimesh
v 0.97837719 -0.31280574 0.61837444
v 0.97837719 -0.31090348 0.59398976
v 1.02733103 -0.29487634 0.61837444
v 1.02703879 -0.29457021 0.63744341
v 0.97837719 -0.31064108 0.62402763
v 0.97837719 -0.30878256 0.58082711
v 1.02594772 -0.29378308 0.60251174
v 1.05071204 -0.27073724 0.64844042
v 1.05071204 -0.27073724 0.65791865
v 1.03699522 -0.27585368 0.66140620
v 1.01260105 -0.28956313 0.65088732
v 0.97837719 -0.30351307 0.64036844
v 0.97837719 -0.30375359 0.55711745
v 1.04691261 -0.26452755 0.59398976
v 1.02196316 -0.29120300 0.58625530
v 1.03229954 -0.27563503 0.56957697
v 1.04450630 -0.26253783 0.56957697
v 1.06977724 -0.23538135 0.66714376
v 1.05204669 -0.25033709 0.56957697
v 1.07438520 -0.22276518 0.68067205
v 1.05501800 -0.24858787 0.68331583
v 1.03699522 -0.26284394 0.67361259
v 0.97837719 -0.17549278 0.75821360
v 0.97837719 -0.28070775 0.49639486
v 1.02812016 -0.27148065 0.55497993
v 1.05084838 -0.24699171 0.55396742
v 1.07427809 -0.22119087 0.65128108
v 1.07470669 -0.22318061 0.66714376
v 1.05973317 -0.23179546 0.56957697
v 1.07645054 -0.20076885 0.59398976
v 1.07438520 -0.21646802 0.68067205
v 0.97837719 -0.15861291 0.76847934
v 1.06245122 -0.23127069 0.68570648
v 1.07688895 -0.20872777 0.64301223
v 1.07584655 -0.20796249 0.66773439
v 1.03699522 -0.25064320 0.68427210
v 0.97837719 -0.27180863 0.48117904
v 0.97854277 -0.27174304 0.48126343
v 1.05365411 -0.23083340 0.54555795
v 1.06941676 -0.20643192 0.56946447
v 1.07465804 -0.19768588 0.57750833
v 1.05043926 -0.22204362 0.53197341
v 1.07754167 -0.20361131 0.61837444
v 1.07465804 -0.18880863 0.57750833
v 1.07600245 -0.18161501 0.59438352
v 1.07790212 -0.18301437 0.61837444
v 0.97837719 -0.13421143 0.76319179
v 0.97837719 -0.14341664 0.76546994
v 1.07587578 -0.19031732 0.65999993
v 1.07037147 -0.20022223 0.67625637
v 0.97837719 -0.27161185 0.48115094
v 1.05106275 -0.20739398 0.53149527
v 1.05985985 -0.20739398 0.54519232
v 1.07330389 -0.17254099 0.58648031
v 1.07065407 -0.18161501 0.56946447
v 1.07381044 -0.17044193 0.60276487
v 1.07395661 -0.17013581 0.61837444
v 1.07385917 -0.17028888 0.63179022
v 1.07663567 -0.18251147 0.64107158
v 0.97837719 -0.12454704 0.75604795
v 0.98065681 -0.13421143 0.75984487
v 1.04756531 -0.12424092 0.65102795
v 1.05225124 -0.14050858 0.65901554
v 1.07211532 -0.17404968 0.64804666
v 0.97837719 -0.26695458 0.48146031
v 1.05043926 -0.19202280 0.53200151
v 1.05693717 -0.18353914 0.54406731
v 1.04994238 -0.12082997 0.60473365
v 1.05826209 -0.15695115 0.56836758
v 1.05365411 -0.16399173 0.55143614
v 1.05063407 -0.11969299 0.61837444
v 1.05037106 -0.12013028 0.63477151
v 0.97837719 -0.08943165 0.72693823
v 1.05431657 -0.13311817 0.64284347
v 1.03724850 -0.10930705 0.64371536
v 1.02381418 -0.09850568 0.65265922
v 0.99915699 -0.08943165 0.68739401
v 0.97837719 -0.25619694 0.48255719
v 0.97837719 -0.08943165 0.52235453
v 1.04776994 -0.14772407 0.55942372
v 0.98400809 -0.08943165 0.52963899
v 1.02651274 -0.09642849 0.60433989
v 1.03986910 -0.10749225 0.61837444
v 0.98220585 -0.08943165 0.52654521
v 1.02693167 -0.09612238 0.63637465
v 1.00478789 -0.08943165 0.67215007
v 0.99068139 -0.08943165 0.54530482
v 1.01781309 -0.08943165 0.61311499
v 1.01869959 -0.08943165 0.61837444
v 1.02768175 -0.09561948 0.61837444
v 1.01414033 -0.08943165 0.64422162
f 1 2 3
f 1 3 4
f 1 4 5
f 1 5 12
f 1 12 23
f 1 23 32
f 1 32 48
f 1 48 47
f 1 47 60
f 1 60 73
f 1 73 79
f 1 79 78
f 1 78 65
f 1 65 51
f 1 51 37
f 1 37 24
f 1 24 13
f 1 13 6
f 1 6 2
f 2 6 7
f 2 7 3
f 3 7 8
f 3 8 9
f 3 9 4
f 4 9 10
f 4 10 11
f 4 11 12
f 4 12 5
f 6 13 7
f 7 14 8
f 7 13 15
f 7 15 16
f 7 16 17
f 7 17 14
f 8 18 9
f 8 14 19
f 8 19 18
f 9 18 20
f 9 20 21
f 9 21 10
f 10 21 22
f 10 22 11
f 11 22 23
f 11 23 12
f 13 24 15
f 14 17 19
f 15 24 16
f 16 25 26
f 16 26 17
f 16 24 25
f 17 26 19
f 18 27 28
f 18 28 20
f 18 19 27
f 19 26 29
f 19 29 30
f 19 30 27
f 20 31 32
f 20 32 33
f 20 33 21
f 20 28 34
f 20 34 35
f 20 35 31
f 21 33 32
f 21 32 23
f 21 23 36
f 21 36 22
f 22 36 23
f 24 37 38
f 24 38 25
f 25 38 26
f 26 39 40
f 26 40 41
f 26 41 29
f 26 38 42
f 26 42 39
f 27 43 28
f 27 30 43
f 28 43 34
f 29 41 30
f 30 41 44
f 30 44 45
f 30 45 46
f 30 46 43
f 31 47 48
f 31 48 32
f 31 35 49
f 31 49 50
f 31 50 47
f 34 43 46
f 34 46 35
f 35 46 49
f 37 51 38
f 38 51 52
f 38 52 42
f 39 53 40
f 39 42 53
f 40 53 41
f 41 53 44
f 42 52 53
f 44 54 45
f 44 53 55
f 44 55 54
f 45 54 46
f 46 54 56
f 46 56 57
f 46 57 58
f 46 58 59
f 46 59 49
f 47 50 61
f 47 61 60
f 49 62 63
f 49 63 50
f 49 59 64
f 49 64 62
f 50 63 61
f 51 65 66
f 51 66 52
f 52 66 53
f 53 66 67
f 53 67 55
f 54 68 56
f 54 55 69
f 54 69 68
f 55 67 70
f 55 70 69
f 56 68 71
f 56 71 57
f 57 71 58
f 58 71 72
f 58 72 64
f 58 64 59
f 60 61 63
f 60 63 73
f 62 64 74
f 62 74 72
f 62 72 75
f 62 75 76
f 62 76 77
f 62 77 73
f 62 73 63
f 64 72 74
f 65 78 66
f 66 78 79
f 66 79 70
f 66 70 67
f 68 69 80
f 68 80 81
f 68 81 82
f 68 82 83
f 68 83 71
f 69 70 80
f 70 79 84
f 70 84 80
f 71 83 72
f 72 83 85
f 72 85 75
f 73 77 86
f 73 86 91
f 73 91 89
f 73 89 88
f 73 88 87
f 73 87 81
f 73 81 84
f 73 84 79
f 75 85 76
f 76 85 77
f 77 85 86
f 80 84 81
f 81 87 82
f 82 88 89
f 82 89 90
f 82 90 83
f 82 87 88
f 83 90 85
f 85 90 89
f 85 89 91
f 85 91 86

