# https://github.com/mikedh/trimesh
v 0.41681732 -0.57306723 0.94877493
v 0.41681732 -0.55186693 0.94874050
v 0.40434986 -0.57111083 0.94860274
v 0.41307570 -0.58492240 0.94787949
v 0.41681732 -0.58040674 0.94825833
v 0.41681732 -0.54928305 0.94870605
v 0.40472265 -0.55109794 0.94856829
v 0.39037750 -0.56062145 0.94777615
v 0.39037750 -0.56145200 0.94777615
v 0.39737747 -0.57771826 0.94729400
v 0.41545045 -0.58492240 0.94787949
v 0.40020786 -0.58492240 0.94612301
v 0.41633407 -0.58492240 0.94770727
v 0.41681732 -0.58492240 0.94760396
v 0.41681732 -0.54306940 0.94825833
v 0.41426308 -0.53676343 0.94777615
v 0.39799877 -0.54436134 0.94753508
v 0.37819997 -0.52207213 0.93424101
v 0.36360633 -0.52207213 0.92507981
v 0.38061616 -0.55109794 0.94006146
v 0.36076211 -0.58492240 0.92735290
v 0.36981932 -0.58492240 0.93399993
v 0.39050176 -0.58492240 0.94384992
v 0.37935974 -0.58492240 0.93906268
v 0.41681732 -0.58492240 0.66391686
v 0.41484297 -0.53676343 0.94777615
v 0.41681732 -0.53479474 0.94677738
v 0.40432223 -0.52207213 0.94298891
v 0.33751165 -0.52207213 0.90234902
v 0.27578191 -0.57341791 0.86343116
v 0.27578191 -0.58492240 0.86274235
v 0.41641690 -0.58492240 0.66395130
v 0.27578191 -0.53168177 0.60095947
v 0.37702641 -0.52207213 0.60498902
v 0.40302441 -0.52207213 0.61029288
v 0.41016248 -0.52207213 0.61229044
v 0.41681732 -0.52207213 0.61418466
v 0.41681732 -0.52207213 0.94240342
v 0.40882324 -0.52207213 0.94285115
v 0.32674244 -0.52207213 0.89270567
v 0.27578191 -0.55892960 0.85726630
v 0.27578191 -0.58492240 0.68454677
v 0.41112894 -0.58492240 0.66460568
v 0.27578191 -0.54353079 0.61931631
v 0.27578191 -0.52330255 0.59692993
v 0.40374239 -0.58492240 0.66553558
v 0.27597520 -0.52291496 0.59692993
v 0.27609947 -0.52227515 0.59692993
v 0.27612707 -0.52209674 0.59692993
v 0.27578191 -0.52207213 0.59692993
v 0.31390221 -0.52207213 0.87910164
v 0.27578191 -0.55437700 0.85475214
v 0.27578191 -0.52207213 0.83260684
v 0.27578191 -0.52439149 0.83570650
f 1 2 3
f 1 3 4
f 1 4 5
f 1 5 14
f 1 14 25
f 1 25 37
f 1 37 38
f 1 38 27
f 1 27 15
f 1 15 6
f 1 6 2
f 2 6 7
f 2 7 3
f 3 7 8
f 3 8 9
f 3 9 10
f 3 10 4
f 4 11 5
f 4 10 12
f 4 12 23
f 4 23 24
f 4 24 22
f 4 22 21
f 4 21 31
f 4 31 42
f 4 42 46
f 4 46 43
f 4 43 32
f 4 32 25
f 4 25 14
f 4 14 13
f 4 13 11
f 5 11 13
f 5 13 14
f 6 15 16
f 6 16 7
f 7 16 17
f 7 17 8
f 8 17 18
f 8 18 19
f 8 19 20
f 8 20 21
f 8 21 22
f 8 22 9
f 9 23 10
f 9 22 24
f 9 24 23
f 10 23 12
f 15 26 16
f 15 27 26
f 16 26 28
f 16 28 17
f 17 28 18
f 18 28 39
f 18 39 38
f 18 38 37
f 18 37 36
f 18 36 35
f 18 35 34
f 18 34 50
f 18 50 53
f 18 53 51
f 18 51 40
f 18 40 29
f 18 29 19
f 19 29 30
f 19 30 20
f 20 30 21
f 21 30 31
f 25 32 33
f 25 33 34
f 25 34 35
f 25 35 36
f 25 36 37
f 26 27 38
f 26 38 39
f 26 39 28
f 29 40 30
f 30 40 41
f 30 41 52
f 30 52 54
f 30 54 53
f 30 53 50
f 30 50 45
f 30 45 33
f 30 33 44
f 30 44 42
f 30 42 31
f 32 43 33
f 33 45 34
f 33 43 46
f 33 46 44
f 34 45 47
f 34 47 48
f 34 48 49
f 34 49 50
f 40 51 41
f 41 51 52
f 42 44 46
f 45 50 49
f 45 49 48
f 45 48 47
f 51 53 54
f 51 54 52

