# https://github.com/mikedh/trimesh
v 0.41680408 0.22414191 0.22628237
v 0.38549275 0.22414191 0.23180554
v 0.31511823 0.33969085 0.16624326
v 0.41680408 0.36250050 0.13985469
v 0.41680408 0.22414191 1.14210896
v 0.37819073 0.22414191 0.23364660
v 0.28167714 0.31620587 0.19007477
v 0.28585728 0.31568066 0.18946111
v 0.28167714 0.32761069 0.18352880
v 0.28167714 0.35289642 0.17698279
v 0.28167714 0.35379681 0.17688051
v 0.28167714 0.50431053 0.16583411
v 0.41680408 0.37825715 0.13494519
v 0.41680408 0.23607198 1.14579109
v 0.40299375 0.22414191 1.15110970
v 0.34949859 0.22414191 0.24223824
v 0.33047628 0.22414191 0.24919336
v 0.28671712 0.22414191 0.27363861
v 0.28167714 0.22414191 0.27670704
v 0.28167714 0.51556530 0.16603870
v 0.41680408 0.39296340 0.13463833
v 0.41680408 0.24485068 1.14783671
v 0.39749080 0.22414191 1.15448500
v 0.28167714 0.22414191 1.17954392
v 0.38574406 0.56448599 0.16562956
v 0.41680408 0.42019989 0.13872957
v 0.41680408 0.40264249 0.13596800
v 0.28167714 0.54902944 0.17207329
v 0.41680408 0.25685575 1.14885952
v 0.37678852 0.22414191 1.16481542
v 0.35381099 0.22414191 1.17217965
v 0.41680408 0.29422160 1.14395002
v 0.32940478 0.51729100 1.07225084
v 0.28167714 0.37908250 1.12482341
v 0.40259691 0.56576153 0.16522045
v 0.28167714 0.79310775 0.22024778
v 0.41680408 0.43723212 0.14179804
v 0.41680408 0.27013640 1.14834814
v 0.36979074 0.22414191 1.16716788
v 0.41680408 0.53162209 1.04381666
v 0.35330833 0.50078404 1.07542155
v 0.33808255 0.78485429 0.94920646
v 0.30501186 0.51729100 1.07214857
v 0.34486868 0.51428976 1.07112575
v 0.34923399 0.78485429 0.94920646
v 0.28167714 0.37960770 1.12461886
v 0.41680408 0.56501123 0.16552728
v 0.28167714 0.79813487 0.22260024
v 0.41680408 0.57724140 0.17064133
v 0.41680408 0.83122390 0.90502094
v 0.36549157 0.77975213 0.94756996
v 0.40259691 0.83422517 0.90307760
v 0.32940478 0.80601325 0.92598862
v 0.31686436 0.80548801 0.92394298
v 0.28167714 0.71252367 0.97487908
v 0.28167714 0.71192338 0.97528819
v 0.28167714 0.51541521 1.07153486
v 0.41680408 0.83415013 0.90297532
v 0.41680408 0.59885052 0.18301738
v 0.41680408 0.58759578 0.17647136
v 0.28167714 0.97798603 0.40875217
v 0.30501186 0.97978682 0.40701338
v 0.32283034 0.97866129 0.40834303
v 0.33910114 0.97243367 0.41253658
v 0.36828273 0.97701060 0.43411793
v 0.41680408 0.75866821 0.28795796
v 0.39468641 0.85613444 0.87709817
v 0.38312488 0.85613444 0.87709817
v 0.28167714 0.73976015 0.95339999
v 0.28167714 0.73908490 0.95401368
v 0.28167714 0.72497890 0.96567374
v 0.28167714 0.72415355 0.96628744
v 0.36686731 0.85358335 0.87392744
v 0.32880952 0.86206195 0.83904952
v 0.32029050 0.85245790 0.84784571
v 0.28167714 0.83009845 0.85040275
v 0.41680408 0.91916112 0.75190587
v 0.28167714 0.98533910 0.42317384
v 0.30501186 0.98789019 0.42317384
v 0.33034401 0.98391355 0.42163960
v 0.35379775 0.98038703 0.42941298
v 0.35379775 0.98638958 0.44761906
v 0.37184117 0.97948664 0.44761906
v 0.38405086 0.96845696 0.44761906
v 0.39091633 0.95292541 0.43473161
v 0.41680408 0.83580082 0.35669099
v 0.41680408 0.92403823 0.74167774
v 0.33517233 0.88149517 0.80887654
v 0.32798937 0.87489240 0.81562711
v 0.31219479 0.85740998 0.83158299
v 0.28167714 0.88614714 0.75159903
v 0.28167714 0.98954088 0.44649397
v 0.30501186 0.99066640 0.44761906
v 0.32940478 0.99036622 0.44761906
v 0.35379775 0.98969097 0.47206428
v 0.37370633 0.98263800 0.47206428
v 0.39266246 0.95622686 0.44761906
v 0.41680408 0.94347145 0.61761055
v 0.41680408 0.84938158 0.37387425
v 0.30501186 0.99059136 0.52085245
v 0.28167714 0.98158760 0.54703646
v 0.40443564 0.92328792 0.73850703
v 0.41680408 0.92756467 0.72981311
v 0.28167714 0.92861508 0.66333028
v 0.30286886 0.88802297 0.76683894
v 0.30958881 0.88277071 0.78371535
v 0.28167714 0.92591398 0.66895575
v 0.28167714 0.98961592 0.44761906
v 0.32940478 0.99044127 0.49640724
v 0.32940478 0.98999115 0.52085245
v 0.35603336 0.98503900 0.49865741
v 0.37076968 0.98113733 0.49200914
v 0.41680408 0.87834388 0.42726508
v 0.41680408 0.94129545 0.60656417
v 0.41680408 0.93851930 0.59500639
v 0.28167714 0.98879058 0.52085245
v 0.28167714 0.98173761 0.54652506
f 1 2 3
f 1 3 4
f 1 4 13
f 1 13 21
f 1 21 27
f 1 27 26
f 1 26 37
f 1 37 47
f 1 47 49
f 1 49 60
f 1 60 59
f 1 59 66
f 1 66 86
f 1 86 99
f 1 99 113
f 1 113 115
f 1 115 114
f 1 114 98
f 1 98 103
f 1 103 87
f 1 87 77
f 1 77 58
f 1 58 50
f 1 50 40
f 1 40 32
f 1 32 38
f 1 38 29
f 1 29 22
f 1 22 14
f 1 14 5
f 1 5 15
f 1 15 23
f 1 23 30
f 1 30 39
f 1 39 31
f 1 31 24
f 1 24 19
f 1 19 18
f 1 18 17
f 1 17 16
f 1 16 6
f 1 6 2
f 2 6 7
f 2 7 8
f 2 8 3
f 3 9 10
f 3 10 11
f 3 11 12
f 3 12 13
f 3 13 4
f 3 8 7
f 3 7 9
f 5 14 15
f 6 16 7
f 7 16 17
f 7 17 18
f 7 18 19
f 7 19 24
f 7 24 34
f 7 34 46
f 7 46 57
f 7 57 56
f 7 56 55
f 7 55 72
f 7 72 71
f 7 71 70
f 7 70 69
f 7 69 76
f 7 76 91
f 7 91 107
f 7 107 104
f 7 104 101
f 7 101 117
f 7 117 116
f 7 116 108
f 7 108 92
f 7 92 78
f 7 78 61
f 7 61 48
f 7 48 36
f 7 36 28
f 7 28 20
f 7 20 12
f 7 12 11
f 7 11 10
f 7 10 9
f 12 20 21
f 12 21 13
f 14 22 23
f 14 23 15
f 20 25 26
f 20 26 27
f 20 27 21
f 20 28 25
f 22 29 30
f 22 30 23
f 24 31 32
f 24 32 33
f 24 33 34
f 25 35 26
f 25 28 36
f 25 36 35
f 26 35 37
f 29 38 30
f 30 38 39
f 31 39 38
f 31 38 32
f 32 40 41
f 32 41 33
f 33 42 43
f 33 43 34
f 33 41 44
f 33 44 45
f 33 45 42
f 34 43 46
f 35 47 37
f 35 36 47
f 36 48 49
f 36 49 47
f 40 50 51
f 40 51 41
f 41 51 45
f 41 45 44
f 42 45 52
f 42 52 53
f 42 53 54
f 42 54 55
f 42 55 56
f 42 56 57
f 42 57 43
f 43 57 46
f 45 51 50
f 45 50 58
f 45 58 52
f 48 59 60
f 48 60 49
f 48 61 62
f 48 62 63
f 48 63 64
f 48 64 65
f 48 65 66
f 48 66 59
f 52 58 67
f 52 67 68
f 52 68 53
f 53 68 54
f 54 69 70
f 54 70 71
f 54 71 72
f 54 72 55
f 54 68 73
f 54 73 74
f 54 74 75
f 54 75 76
f 54 76 69
f 58 77 67
f 61 78 62
f 62 78 79
f 62 79 63
f 63 79 80
f 63 80 81
f 63 81 65
f 63 65 64
f 65 81 82
f 65 82 83
f 65 83 84
f 65 84 85
f 65 85 66
f 66 85 86
f 67 77 68
f 68 77 87
f 68 87 88
f 68 88 73
f 73 88 74
f 74 88 89
f 74 89 90
f 74 90 75
f 75 90 76
f 76 90 91
f 78 92 79
f 79 92 93
f 79 93 94
f 79 94 80
f 80 94 82
f 80 82 81
f 82 94 95
f 82 95 96
f 82 96 83
f 83 96 84
f 84 97 85
f 84 96 98
f 84 98 97
f 85 97 99
f 85 99 86
f 87 100 101
f 87 101 102
f 87 102 88
f 87 103 100
f 88 102 101
f 88 101 104
f 88 104 105
f 88 105 106
f 88 106 89
f 89 106 91
f 89 91 90
f 91 106 105
f 91 105 107
f 92 108 93
f 93 108 100
f 93 100 109
f 93 109 94
f 94 109 95
f 95 109 110
f 95 110 111
f 95 111 112
f 95 112 96
f 96 112 98
f 97 113 99
f 97 98 114
f 97 114 115
f 97 115 113
f 98 112 103
f 100 108 116
f 100 116 117
f 100 117 101
f 100 103 110
f 100 110 109
f 103 112 111
f 103 111 110
f 104 107 105

