# https://github.com/mikedh/trimesh
v -0.03668552 -0.86765671 0.42186314
v -0.03668552 -0.86748095 0.41945676
v -0.03668552 -0.85394739 0.61842760
v -0.04283743 -0.85757978 0.61842760
v -0.06099755 -0.86285254 0.61842760
v -0.08461979 -0.86560615 0.64283487
v -0.03668552 -0.86484457 0.39037430
v -0.03668552 -0.84720995 0.64304113
v -0.05029388 -0.85300998 0.65115397
v -0.06655351 -0.85781408 0.66291071
v -0.05945840 -0.85927876 0.64290363
v -0.08308063 -0.86250103 0.66951099
v -0.08461979 -0.86466874 0.65177275
v -0.08461979 -0.84217141 0.39037430
v -0.03668552 -0.26913374 0.39037430
v -0.03668552 -0.81891244 0.74025770
v -0.08461979 -0.86168084 0.67487371
v -0.08461979 -0.83437935 0.76404620
v -0.08461979 -0.86273540 0.66937348
v -0.08461979 -0.26913374 0.39037430
v -0.03668552 -0.26913374 1.09275371
v -0.03668552 -0.81076893 0.76555876
v -0.07645946 -0.82770052 0.77202153
v -0.08461979 -0.83420366 0.76452747
v -0.08461979 -0.26913374 1.06325872
v -0.07854294 -0.26913374 1.06752139
v -0.08461979 -0.26925093 1.06903396
v -0.08461979 -0.37956990 1.06064612
v -0.08461979 -0.40265312 1.05645219
v -0.08461979 -0.42403728 1.04909564
v -0.08461979 -0.42608785 1.04833934
v -0.08461979 -0.43675066 1.04435168
v -0.08461979 -0.44870236 1.03953900
v -0.08461979 -0.45051853 1.03878270
v -0.05122768 -0.51021852 0.99574340
v -0.03668552 -0.50137190 0.99141196
v -0.03668552 -0.80596476 0.77759051
v -0.08461979 -0.82980962 0.77649047
v -0.08461979 -0.45192463 1.03816391
v -0.03668552 -0.69763778 0.89618923
v -0.08461979 -0.47389468 1.02743847
v -0.03668552 -0.80110205 0.78749093
v -0.03668552 -0.80069200 0.78831596
v -0.03668552 -0.78762710 0.80749802
v -0.03668552 -0.71603405 0.88395123
v -0.07220802 -0.75657606 0.85039981
v -0.08461979 -0.81861953 0.78804095
v -0.07136336 -0.70835913 0.89969563
v -0.08461979 -0.47606240 1.02633843
v -0.08461979 -0.75716195 0.85101859
v -0.08461979 -0.69535285 0.90691468
v -0.08461979 -0.70830052 0.89962687
f 1 2 7
f 1 7 15
f 1 15 21
f 1 21 36
f 1 36 40
f 1 40 45
f 1 45 44
f 1 44 43
f 1 43 42
f 1 42 37
f 1 37 22
f 1 22 16
f 1 16 8
f 1 8 3
f 1 3 4
f 1 4 5
f 1 5 6
f 1 6 2
f 2 6 7
f 3 8 4
f 4 8 9
f 4 9 10
f 4 10 11
f 4 11 5
f 5 11 12
f 5 12 6
f 6 12 13
f 6 13 19
f 6 19 17
f 6 17 18
f 6 18 24
f 6 24 38
f 6 38 47
f 6 47 50
f 6 50 52
f 6 52 51
f 6 51 49
f 6 49 41
f 6 41 39
f 6 39 34
f 6 34 33
f 6 33 32
f 6 32 31
f 6 31 30
f 6 30 29
f 6 29 28
f 6 28 27
f 6 27 25
f 6 25 20
f 6 20 14
f 6 14 7
f 7 14 20
f 7 20 15
f 8 16 9
f 9 16 10
f 10 17 12
f 10 12 11
f 10 16 18
f 10 18 17
f 12 17 19
f 12 19 13
f 15 20 25
f 15 25 26
f 15 26 21
f 16 22 18
f 18 22 23
f 18 23 24
f 21 26 27
f 21 27 28
f 21 28 29
f 21 29 30
f 21 30 31
f 21 31 32
f 21 32 33
f 21 33 34
f 21 34 35
f 21 35 36
f 22 37 23
f 23 37 38
f 23 38 24
f 25 27 26
f 34 39 35
f 35 40 36
f 35 39 41
f 35 41 40
f 37 42 38
f 38 42 43
f 38 43 44
f 38 44 45
f 38 45 46
f 38 46 47
f 40 48 45
f 40 41 49
f 40 49 48
f 45 48 46
f 46 48 50
f 46 50 47
f 48 51 52
f 48 52 50
f 48 49 51

