# https://github.com/mikedh/trimesh
v -0.23179840 -0.30804746 0.06991157
v -0.21514749 -0.29936151 0.06724349
v -0.20718438 -0.30804746 0.07430888
v -0.23543070 -0.30804746 0.07065264
v -0.22260417 -0.15001814 -0.00563339
v -0.20740267 -0.16268657 -0.00074196
v -0.18300693 -0.18297668 0.00790439
v -0.17590825 -0.18946539 0.01274644
v -0.20600564 -0.30804746 0.07485238
v -0.24594340 -0.29585966 0.06793525
v -0.26510898 -0.30804746 0.08251057
v -0.22462115 -0.13419118 -0.00696740
v -0.20740267 -0.15049879 -0.00538637
v -0.26510898 -0.29500138 0.07672987
v -0.26510898 -0.23179651 0.05607725
v -0.19472458 -0.14819855 -0.00405229
v -0.18515489 -0.15722782 0.00078969
v -0.17590825 -0.18229005 0.01027600
v -0.17590825 -0.19719005 0.01778607
v -0.18367927 -0.30804746 0.08799494
v -0.26510898 -0.30804746 0.49773595
v -0.22383530 -0.10981559 -0.00652273
v -0.21072063 -0.10981559 -0.00652273
v -0.20502771 -0.13237159 -0.00647336
v -0.24518377 -0.14936584 0.01842838
v -0.23799775 -0.13302390 0.00953486
v -0.26510898 -0.20755825 0.05385390
v -0.19472458 -0.13923795 -0.00405229
v -0.17590825 -0.15770847 0.00503873
v -0.17590825 -0.16560479 0.00617516
v -0.17590825 -0.30804746 0.09338041
v -0.18085900 -0.30804746 0.08987236
v -0.18170594 -0.30804746 0.08927950
v -0.17590825 -0.30804746 0.49773595
v -0.26510898 0.04268630 0.49773595
v -0.24518377 -0.14040523 0.01842838
v -0.23426067 -0.10981559 0.00839851
v -0.22154766 -0.09405730 -0.00508990
v -0.21578488 -0.09405730 -0.00508990
v -0.17590825 -0.06003447 0.01373460
v -0.19852276 -0.10981559 -0.00252071
v -0.19530959 -0.12299901 -0.00375590
v -0.26510898 -0.18270203 0.05316221
v -0.26510898 -0.15856677 0.05301401
v -0.17590825 -0.14146952 0.00573049
v -0.17590825 0.04268630 0.49773595
v -0.26510898 0.04268630 0.16946880
v -0.26510898 -0.13419118 0.05331048
v -0.26510898 -0.13086099 0.05380453
v -0.22680400 -0.08571467 0.00770681
v -0.26510898 -0.11046790 0.05953585
v -0.22344240 -0.07002502 0.01536508
v -0.20740267 -0.06597387 0.01284527
v -0.17590825 -0.04784668 0.01837894
v -0.17590825 -0.08571467 0.00973251
v -0.17590825 0.04268630 0.20469674
v -0.17590825 -0.04698838 0.01946592
v -0.26510898 -0.06655751 0.09031710
v -0.26340634 0.04268630 0.16981464
v -0.26510898 -0.10734370 0.06126515
v -0.17768074 0.04268630 0.20385681
v -0.25628146 0.04268630 0.17164276
v -0.23296843 0.04268630 0.17885632
v -0.18300693 0.04268630 0.20133700
f 1 2 3
f 1 3 9
f 1 9 20
f 1 20 33
f 1 33 32
f 1 32 31
f 1 31 34
f 1 34 21
f 1 21 11
f 1 11 4
f 1 4 5
f 1 5 6
f 1 6 7
f 1 7 2
f 2 7 8
f 2 8 3
f 3 8 9
f 4 10 5
f 4 11 10
f 5 12 13
f 5 13 6
f 5 10 14
f 5 14 15
f 5 15 12
f 6 13 7
f 7 13 16
f 7 16 17
f 7 17 18
f 7 18 8
f 8 18 30
f 8 30 29
f 8 29 45
f 8 45 55
f 8 55 40
f 8 40 54
f 8 54 57
f 8 57 56
f 8 56 46
f 8 46 34
f 8 34 31
f 8 31 19
f 8 19 9
f 9 19 20
f 10 11 14
f 11 21 35
f 11 35 47
f 11 47 58
f 11 58 60
f 11 60 51
f 11 51 49
f 11 49 48
f 11 48 44
f 11 44 43
f 11 43 27
f 11 27 15
f 11 15 14
f 12 22 23
f 12 23 24
f 12 24 13
f 12 15 25
f 12 25 26
f 12 26 22
f 13 24 16
f 15 27 25
f 16 24 28
f 16 28 29
f 16 29 17
f 17 29 30
f 17 30 18
f 19 31 32
f 19 32 33
f 19 33 20
f 21 34 46
f 21 46 35
f 22 26 36
f 22 36 37
f 22 37 38
f 22 38 39
f 22 39 23
f 23 39 40
f 23 40 41
f 23 41 42
f 23 42 24
f 24 42 28
f 25 36 26
f 25 27 43
f 25 43 44
f 25 44 36
f 28 42 29
f 29 42 45
f 35 46 56
f 35 56 61
f 35 61 64
f 35 64 63
f 35 63 62
f 35 62 59
f 35 59 47
f 36 44 48
f 36 48 49
f 36 49 37
f 37 50 38
f 37 49 51
f 37 51 50
f 38 50 52
f 38 52 53
f 38 53 54
f 38 54 39
f 39 54 40
f 40 55 42
f 40 42 41
f 42 55 45
f 47 57 54
f 47 54 52
f 47 52 50
f 47 50 58
f 47 59 57
f 50 51 60
f 50 60 58
f 52 54 53
f 56 57 61
f 57 59 62
f 57 62 63
f 57 63 64
f 57 64 61

