# https://github.com/mikedh/trimesh
v -0.17590825 -0.02121259 0.16960161
v -0.17590825 0.17800246 0.11140378
v -0.15858659 0.16581199 0.11551350
v -0.09454688 0.12032614 0.14136439
v -0.10884304 -0.02121259 0.19492228
v -0.17590825 -0.02121259 1.38897119
v -0.17590825 0.18323968 0.11087353
v -0.15655597 0.18390826 0.11365745
v -0.14449486 0.16846402 0.11750204
v -0.09218917 0.13418807 0.13964105
v -0.07997816 0.13418807 0.14746256
v -0.06944343 0.11829812 0.16204515
v -0.08898651 -0.02121259 0.20672091
v -0.17210593 -0.02121259 1.38910368
v -0.17590825 0.07114081 1.43722622
v -0.17590825 0.20109080 0.11180155
v -0.17590825 0.20643946 0.11233181
v -0.16610945 0.20643946 0.11418771
v -0.16402430 0.20643946 0.11458547
v -0.16322024 0.20643946 0.11485060
v -0.14705698 0.19266667 0.11869515
v -0.14449486 0.17639787 0.11750204
v -0.09342936 0.15286378 0.13990618
v -0.06844855 0.15228435 0.16217772
v -0.06679953 0.13418807 0.15965892
v -0.03668083 -0.02121259 0.24914300
v -0.16820822 -0.02121259 1.38910368
v -0.16808557 0.07160882 1.43682860
v -0.15858659 0.10978484 1.45194138
v -0.17590825 0.09251315 1.44571063
v -0.16144854 -0.02121259 1.38897119
v -0.17590825 0.20643946 1.41468955
v -0.14490370 0.20643946 0.13128920
v -0.12139476 0.19571987 0.14202728
v -0.09858087 0.16913261 0.14361813
v -0.04928706 0.19451643 0.21626591
v -0.03668083 0.18705059 0.22475032
v -0.03668083 0.18437627 0.22289435
v -0.03668083 0.16812974 0.21626591
v -0.03668083 0.15859130 0.21281909
v -0.03668083 -0.02121259 1.33422014
v -0.13419182 0.10978484 1.44902496
v -0.15068214 -0.02121259 1.38804317
v -0.14565326 -0.02121259 1.38724778
v -0.15858659 0.12781425 1.45856989
v -0.17590825 0.12759140 1.45830476
v -0.17590825 0.18495571 1.44743404
v -0.16884875 0.20643946 1.41243588
v -0.12758206 0.20643946 0.14825802
v -0.09712264 0.19569758 0.16641992
v -0.10397772 0.18299453 0.14905341
v -0.06639068 0.20643946 0.20897461
v -0.05417966 0.20643946 0.22117094
v -0.04255465 0.20643946 0.23336729
v -0.04169607 0.20643946 0.23429528
v -0.03668083 0.20247255 0.23668151
v -0.03668083 -0.00706096 1.34376507
v -0.05390709 0.00419351 1.36033627
v -0.13419182 -0.01913999 1.38419866
v -0.13419182 -0.02121259 1.38274045
v -0.12054982 0.09612349 1.43735886
v -0.11666572 0.10978484 1.44093817
v -0.13465517 0.13447779 1.45697897
v -0.13997024 -0.02121259 1.38525924
v -0.14310477 0.14281277 1.46082355
v -0.15858659 0.14002702 1.46201670
v -0.17590825 0.13978187 1.46228183
v -0.17590825 0.17439211 1.46294458
v -0.16606855 0.17312181 1.46214920
v -0.13495501 0.20643946 1.39798586
v -0.03668083 0.20643946 0.24118885
v -0.03668083 -0.00193516 1.34694676
v -0.03691251 0.01228334 1.35582894
v -0.04525306 0.02046232 1.36404822
v -0.12109495 -0.00142258 1.38751291
v -0.11369475 0.13418807 1.44478275
v -0.14310477 0.14920886 1.46082355
v -0.15819137 0.15783358 1.46281209
v -0.17590825 0.15836844 1.46493312
v -0.17590825 0.16467539 1.46427037
v -0.13465517 0.15783358 1.45366479
v -0.12106769 0.17158407 1.43709373
v -0.03834349 0.20643946 1.34389771
v -0.03668083 0.20643946 1.34283712
v -0.03668083 0.01228334 1.35556381
v -0.03668083 0.01255078 1.35569630
v -0.11725174 0.15859130 1.44173356
v -0.03668083 0.03782316 1.35861286
f 1 2 3
f 1 3 4
f 1 4 5
f 1 5 13
f 1 13 26
f 1 26 41
f 1 41 60
f 1 60 64
f 1 64 44
f 1 44 43
f 1 43 31
f 1 31 27
f 1 27 14
f 1 14 6
f 1 6 15
f 1 15 30
f 1 30 46
f 1 46 67
f 1 67 79
f 1 79 80
f 1 80 68
f 1 68 47
f 1 47 32
f 1 32 17
f 1 17 16
f 1 16 7
f 1 7 2
f 2 7 8
f 2 8 3
f 3 8 9
f 3 9 4
f 4 9 10
f 4 10 11
f 4 11 12
f 4 12 13
f 4 13 5
f 6 14 15
f 7 16 8
f 8 16 17
f 8 17 18
f 8 18 19
f 8 19 20
f 8 20 21
f 8 21 22
f 8 22 9
f 9 22 10
f 10 23 11
f 10 22 23
f 11 24 25
f 11 25 12
f 11 23 24
f 12 25 26
f 12 26 13
f 14 27 15
f 15 28 29
f 15 29 30
f 15 27 31
f 15 31 28
f 17 32 48
f 17 48 70
f 17 70 83
f 17 83 84
f 17 84 71
f 17 71 55
f 17 55 54
f 17 54 53
f 17 53 52
f 17 52 49
f 17 49 33
f 17 33 20
f 17 20 19
f 17 19 18
f 20 33 34
f 20 34 21
f 21 23 22
f 21 34 35
f 21 35 23
f 23 35 24
f 24 35 36
f 24 36 37
f 24 37 38
f 24 38 39
f 24 39 40
f 24 40 25
f 25 40 26
f 26 40 39
f 26 39 38
f 26 38 37
f 26 37 56
f 26 56 71
f 26 71 84
f 26 84 88
f 26 88 86
f 26 86 85
f 26 85 72
f 26 72 57
f 26 57 41
f 28 42 29
f 28 31 43
f 28 43 44
f 28 44 42
f 29 42 45
f 29 45 30
f 30 45 46
f 32 47 48
f 33 49 34
f 34 50 51
f 34 51 35
f 34 49 52
f 34 52 53
f 34 53 50
f 35 51 50
f 35 50 36
f 36 54 55
f 36 55 56
f 36 56 37
f 36 50 54
f 41 57 58
f 41 58 59
f 41 59 60
f 42 61 62
f 42 62 63
f 42 63 45
f 42 44 64
f 42 64 61
f 45 63 65
f 45 65 66
f 45 66 67
f 45 67 46
f 47 68 69
f 47 69 48
f 48 69 70
f 50 53 54
f 55 71 56
f 57 72 58
f 58 72 73
f 58 73 74
f 58 74 61
f 58 61 75
f 58 75 59
f 59 75 61
f 59 61 64
f 59 64 60
f 61 74 62
f 62 76 63
f 62 74 73
f 62 73 76
f 63 77 65
f 63 76 77
f 65 77 78
f 65 78 79
f 65 79 66
f 66 79 67
f 68 80 69
f 69 80 78
f 69 78 77
f 69 77 81
f 69 81 82
f 69 82 83
f 69 83 70
f 72 85 73
f 73 85 86
f 73 86 76
f 76 87 81
f 76 81 77
f 76 86 88
f 76 88 84
f 76 84 87
f 78 80 79
f 81 87 82
f 82 87 84
f 82 84 83

