# https://github.com/mikedh/trimesh
v 0.40259691 -0.52207213 0.34709313
v 0.41680408 -0.52207213 0.34955687
v 0.39954120 -0.52207213 0.34801700
v 0.37819073 -0.51418342 0.33426121
v 0.40259691 -0.51557124 0.33046295
v 0.41680408 -0.51849300 0.34072851
v 0.41680408 -0.52207213 0.94239106
v 0.38206663 -0.52207213 0.35417634
v 0.37819073 -0.51995386 0.35007012
v 0.30470759 -0.52207213 0.38969508
v 0.28167714 -0.52207213 0.40191107
v 0.31813431 -0.51221124 0.36238878
v 0.36574292 -0.51243038 0.33764884
v 0.37819073 -0.50636776 0.32204522
v 0.40259691 -0.51023906 0.31824703
v 0.41680408 -0.51009297 0.32204522
v 0.41680408 -0.45107369 1.05757030
v 0.40882743 -0.52207213 0.94280168
v 0.28167714 -0.42565449 0.32984703
v 0.28167714 -0.52207213 0.83573223
v 0.36434070 -0.49000595 0.31177974
v 0.37819073 -0.49416943 0.30654428
v 0.40177676 -0.49679902 0.29915311
v 0.41680408 -0.49825988 0.30038495
v 0.41680408 -0.43179015 1.08272081
v 0.28167714 -0.39468398 1.05058969
v 0.36361315 -0.52207213 0.92504233
v 0.37819073 -0.52207213 0.93417863
v 0.40432983 -0.52207213 0.94300700
v 0.28167714 -0.40469096 0.31793900
v 0.31390122 -0.52207213 0.87905276
v 0.28167714 -0.52192604 0.83686144
v 0.28167714 -0.40447182 0.31783639
v 0.28167714 -0.25612015 0.25008393
v 0.40936979 -0.48927553 0.28827163
v 0.41680408 -0.49343902 0.29371237
v 0.41680408 -0.20688874 1.16104679
v 0.34611211 -0.29388372 1.14349274
v 0.34080757 -0.29388372 1.14349274
v 0.28167714 -0.44464584 0.97955226
v 0.28167714 -0.20257916 1.14975468
v 0.33751375 -0.52207213 0.90235550
v 0.32674591 -0.52207213 0.89270591
v 0.28167714 -0.46933459 0.93561581
v 0.28167714 -0.23289228 0.24710687
v 0.31056770 -0.24677058 0.23858653
v 0.41680408 -0.48920249 0.28827163
v 0.32940478 -0.25195666 0.23560947
v 0.35168124 -0.25845755 0.23242720
v 0.37819073 -0.25619319 0.22945021
v 0.41680408 -0.19483654 1.16453710
v 0.39414404 -0.19739306 1.16792472
v 0.40239849 -0.20630438 1.16371582
v 0.37819073 -0.20126437 1.16936184
v 0.28167714 0.01187702 1.23670374
v 0.28167714 -0.01237348 1.22859397
v 0.28167714 -0.08622062 1.20221156
v 0.28167714 -0.23172358 0.24700426
v 0.31432455 -0.06102056 0.21353863
v 0.35379775 -0.01222739 0.19875629
v 0.39542718 -0.25619319 0.23591743
v 0.41680408 -0.01222739 0.21035629
v 0.41680408 -0.18935826 1.16597422
v 0.41680408 -0.18461042 1.16710345
v 0.30064650 0.13415209 1.24491619
v 0.28167714 0.13415209 1.24748254
v 0.41680408 -0.17803650 1.16823268
v 0.41680408 -0.16861387 1.16946452
v 0.28167714 0.13364080 0.25542199
v 0.31368958 -0.04107963 0.21302532
v 0.33234149 -0.01222739 0.20625006
v 0.31067355 0.13415209 0.23602011
v 0.37819073 0.22414187 0.23365904
v 0.38549275 0.22414187 0.23181128
v 0.41680408 0.22414187 0.22626787
v 0.41680408 0.08506677 0.20594210
v 0.31285621 0.13415209 1.23670374
v 0.29895326 0.15073302 1.24368428
v 0.41680408 -0.15853383 1.16987516
v 0.41680408 0.06096236 1.17038840
v 0.41680408 0.08535893 1.17018312
v 0.28167714 0.13510168 1.24737986
v 0.29847706 0.13415209 0.24371924
v 0.28167714 0.22414187 0.27667163
v 0.33047628 0.22414187 0.24915998
v 0.34949859 0.22414187 0.24217944
v 0.28671712 0.22414187 0.27369464
v 0.41680408 0.22414187 1.14215822
v 0.39807284 0.15854869 1.17521322
v 0.28167714 0.19455919 1.22931257
v 0.28167714 0.15796433 1.24460816
v 0.32645488 0.15854869 1.22346119
v 0.37628585 0.18199568 1.18434954
v 0.36260780 0.18951920 1.19061148
v 0.39749080 0.22414187 1.15447689
v 0.41680408 0.09427027 1.16884860
v 0.28167714 0.22414187 1.17952472
v 0.40299375 0.22414187 1.15119187
v 0.41680408 0.10179375 1.16730873
v 0.35381099 0.22414187 1.17213355
v 0.28167714 0.20778010 1.20950005
v 0.37678852 0.22414187 1.16484506
v 0.36979074 0.22414187 1.16720613
v 0.35214423 0.22414187 1.17233891
f 1 2 7
f 1 7 18
f 1 18 29
f 1 29 28
f 1 28 27
f 1 27 42
f 1 42 43
f 1 43 31
f 1 31 20
f 1 20 11
f 1 11 10
f 1 10 8
f 1 8 3
f 1 3 4
f 1 4 5
f 1 5 2
f 2 5 6
f 2 6 16
f 2 16 24
f 2 24 36
f 2 36 47
f 2 47 62
f 2 62 76
f 2 76 75
f 2 75 88
f 2 88 99
f 2 99 96
f 2 96 81
f 2 81 80
f 2 80 79
f 2 79 68
f 2 68 67
f 2 67 64
f 2 64 63
f 2 63 51
f 2 51 37
f 2 37 25
f 2 25 17
f 2 17 7
f 3 8 4
f 4 8 9
f 4 9 10
f 4 10 11
f 4 11 12
f 4 12 13
f 4 13 14
f 4 14 15
f 4 15 5
f 5 15 6
f 6 15 16
f 7 17 18
f 8 10 9
f 11 19 12
f 11 20 32
f 11 32 44
f 11 44 40
f 11 40 26
f 11 26 41
f 11 41 57
f 11 57 56
f 11 56 55
f 11 55 66
f 11 66 82
f 11 82 91
f 11 91 90
f 11 90 101
f 11 101 97
f 11 97 84
f 11 84 69
f 11 69 58
f 11 58 45
f 11 45 34
f 11 34 33
f 11 33 30
f 11 30 19
f 12 19 21
f 12 21 22
f 12 22 14
f 12 14 13
f 14 22 23
f 14 23 15
f 15 23 24
f 15 24 16
f 17 25 26
f 17 26 27
f 17 27 28
f 17 28 29
f 17 29 18
f 19 30 21
f 20 31 32
f 21 30 33
f 21 33 34
f 21 34 35
f 21 35 22
f 22 35 23
f 23 35 24
f 24 35 36
f 25 37 38
f 25 38 39
f 25 39 26
f 26 40 27
f 26 39 41
f 27 40 42
f 31 43 40
f 31 40 44
f 31 44 32
f 34 45 46
f 34 46 35
f 35 47 36
f 35 46 48
f 35 48 49
f 35 49 50
f 35 50 47
f 37 51 52
f 37 52 53
f 37 53 38
f 38 53 54
f 38 54 55
f 38 55 39
f 39 55 56
f 39 56 57
f 39 57 41
f 40 43 42
f 45 58 59
f 45 59 46
f 46 59 60
f 46 60 48
f 47 50 61
f 47 61 62
f 48 60 49
f 49 60 50
f 50 60 62
f 50 62 61
f 51 63 52
f 52 54 53
f 52 63 64
f 52 64 55
f 52 55 54
f 55 65 66
f 55 64 67
f 55 67 68
f 55 68 65
f 58 69 70
f 58 70 59
f 59 70 60
f 60 70 71
f 60 71 72
f 60 72 73
f 60 73 74
f 60 74 75
f 60 75 76
f 60 76 62
f 65 77 78
f 65 78 66
f 65 68 79
f 65 79 80
f 65 80 81
f 65 81 77
f 66 78 82
f 69 83 70
f 69 84 83
f 70 72 71
f 70 83 72
f 72 85 86
f 72 86 73
f 72 83 84
f 72 84 87
f 72 87 85
f 73 86 85
f 73 85 87
f 73 87 84
f 73 84 97
f 73 97 104
f 73 104 100
f 73 100 103
f 73 103 102
f 73 102 95
f 73 95 98
f 73 98 88
f 73 88 75
f 73 75 74
f 77 89 78
f 77 81 89
f 78 90 91
f 78 91 82
f 78 89 92
f 78 92 93
f 78 93 94
f 78 94 95
f 78 95 90
f 81 96 89
f 88 98 94
f 88 94 93
f 88 93 89
f 88 89 99
f 89 93 92
f 89 96 99
f 90 100 101
f 90 95 102
f 90 102 103
f 90 103 100
f 94 98 95
f 97 101 104
f 100 104 101

