# https://github.com/mikedh/trimesh
v 0.76571674 -0.08943163 0.27803094
v 0.76571674 -0.08187923 0.26796467
v 0.76894577 -0.08943163 0.27825971
v 0.76571674 -0.08943163 0.74222268
v 0.77279341 -0.08943163 0.28003272
v 0.76571674 -0.05945491 0.24491523
v 0.89210637 -0.08943163 0.74222268
v 0.76571674 0.25045985 0.74222268
v 0.81498095 -0.08943163 0.30634227
v 0.76571674 -0.03380335 0.22123664
v 0.83544386 -0.07758734 0.30937358
v 0.89210637 0.25045985 0.74222268
v 0.89210637 -0.08943163 0.43834751
v 0.76571674 0.25045985 0.18594754
v 0.82075859 -0.08943163 0.31046027
v 0.76571674 -0.01510533 0.20567970
v 0.87576327 -0.02215867 0.29089972
v 0.85171263 -0.07119940 0.31492147
v 0.83607476 -0.08943163 0.32144167
v 0.89210637 0.25045985 0.33391010
v 0.85260341 -0.08943163 0.34998180
v 0.86002643 -0.07921760 0.33116475
v 0.88212236 -0.05426471 0.33190829
v 0.88645248 -0.03779581 0.32453017
v 0.89193315 -0.01217752 0.32561686
v 0.89210637 -0.01071362 0.36708300
v 0.76885917 0.25045985 0.18434611
v 0.76571674 0.24952828 0.18560438
v 0.76571674 -0.00914991 0.20179047
v 0.82925797 0.00029892 0.24039684
v 0.88171413 -0.00588939 0.28489426
v 0.88256777 -0.03047630 0.30714300
v 0.87614678 -0.04674558 0.31566501
v 0.84320087 -0.08653711 0.32418701
v 0.84156785 -0.08943163 0.32596005
v 0.89210637 0.13348075 0.33391010
v 0.88731848 0.01220976 0.30119477
v 0.88251824 0.01220976 0.28140541
v 0.85945735 0.15859999 0.25589662
v 0.81700991 0.23179509 0.20362066
v 0.80805284 0.23179509 0.18892165
v 0.80590011 0.24523637 0.19075189
v 0.80452683 0.25045985 0.19452673
v 0.88574727 -0.01327545 0.29987927
v 0.89210637 0.10979215 0.33619787
v 0.89210637 0.01220976 0.35827500
v 0.76861170 0.23179509 0.17776872
v 0.76571674 0.23488926 0.18034249
v 0.79252630 0.25045985 0.18526119
v 0.78300006 0.20072045 0.16581502
v 0.77800189 0.20072045 0.16581502
v 0.76571674 0.01220976 0.19080911
v 0.77918959 0.02605029 0.19229615
v 0.83574076 0.01656820 0.23576407
v 0.84304010 0.00994736 0.24525838
v 0.87315285 0.01220976 0.26916575
v 0.86095431 0.01220976 0.25852755
v 0.86299564 0.03663031 0.25583939
v 0.80932707 0.20737455 0.18709142
v 0.85093324 0.15859999 0.24365692
v 0.79300878 0.23179509 0.17937018
v 0.79831623 0.25045985 0.18834973
v 0.76571674 0.23179509 0.17954172
v 0.76936637 0.20827284 0.17210641
v 0.76571674 0.21352960 0.17548095
v 0.79605225 0.10979215 0.17462303
v 0.78380418 0.12476388 0.16507148
v 0.76571674 0.10992524 0.15797936
v 0.76571674 0.12975445 0.16106786
v 0.78621673 0.04231957 0.18857850
v 0.76571674 0.02239053 0.18691984
v 0.80611048 0.07016698 0.19035154
v 0.80799096 0.08537160 0.18760619
v 0.80821362 0.10979215 0.18680546
v 0.78385371 0.10979215 0.16524310
v 0.78187425 0.09611797 0.16655856
v 0.76571674 0.08690205 0.16467114
v 0.79381297 0.06161646 0.18548996
v 0.77287994 0.07988196 0.16913233
v 0.79120247 0.08693532 0.17496618
f 1 2 3
f 1 3 5
f 1 5 9
f 1 9 15
f 1 15 19
f 1 19 35
f 1 35 21
f 1 21 13
f 1 13 7
f 1 7 4
f 1 4 8
f 1 8 14
f 1 14 28
f 1 28 48
f 1 48 63
f 1 63 65
f 1 65 69
f 1 69 68
f 1 68 77
f 1 77 71
f 1 71 52
f 1 52 29
f 1 29 16
f 1 16 10
f 1 10 6
f 1 6 2
f 2 5 3
f 2 6 5
f 4 7 12
f 4 12 8
f 5 6 9
f 6 10 11
f 6 11 9
f 7 13 26
f 7 26 46
f 7 46 45
f 7 45 36
f 7 36 20
f 7 20 12
f 8 12 20
f 8 20 43
f 8 43 62
f 8 62 49
f 8 49 27
f 8 27 14
f 9 11 15
f 10 16 17
f 10 17 18
f 10 18 11
f 11 18 19
f 11 19 15
f 13 21 22
f 13 22 23
f 13 23 24
f 13 24 25
f 13 25 26
f 14 27 28
f 16 29 30
f 16 30 17
f 17 30 31
f 17 31 32
f 17 32 33
f 17 33 22
f 17 22 18
f 18 22 34
f 18 34 19
f 19 34 35
f 20 36 25
f 20 25 37
f 20 37 38
f 20 38 39
f 20 39 40
f 20 40 41
f 20 41 42
f 20 42 43
f 21 35 22
f 22 35 34
f 22 33 23
f 23 33 32
f 23 32 24
f 24 32 44
f 24 44 25
f 25 36 45
f 25 45 46
f 25 46 26
f 25 44 37
f 27 47 48
f 27 48 28
f 27 49 50
f 27 50 51
f 27 51 47
f 29 52 53
f 29 53 54
f 29 54 30
f 30 54 55
f 30 55 31
f 31 56 38
f 31 38 44
f 31 44 32
f 31 55 54
f 31 54 57
f 31 57 56
f 37 44 38
f 38 56 58
f 38 58 59
f 38 59 60
f 38 60 39
f 39 60 59
f 39 59 41
f 39 41 40
f 41 59 50
f 41 50 61
f 41 61 42
f 42 61 62
f 42 62 43
f 47 63 48
f 47 51 64
f 47 64 65
f 47 65 63
f 49 61 50
f 49 62 61
f 50 59 66
f 50 66 67
f 50 67 68
f 50 68 51
f 51 68 69
f 51 69 64
f 52 70 53
f 52 71 70
f 53 70 54
f 54 70 72
f 54 72 57
f 56 57 72
f 56 72 73
f 56 73 58
f 58 73 74
f 58 74 59
f 59 74 66
f 64 69 65
f 66 75 67
f 66 74 73
f 66 73 75
f 67 75 68
f 68 75 76
f 68 76 77
f 70 71 76
f 70 76 78
f 70 78 72
f 71 77 79
f 71 79 76
f 72 78 80
f 72 80 73
f 73 80 75
f 75 80 76
f 76 80 78
f 76 79 77

