# https://github.com/mikedh/trimesh
v 0.07176729 -0.28683983 0.24310790
v 0.07176729 -0.03661793 0.26221633
v 0.07758991 -0.03661793 0.26320468
v 0.09015845 -0.06102259 0.26770725
v 0.11425158 -0.27993641 0.26803669
v 0.11168132 -0.28683983 0.26649922
v 0.07176729 -0.28683983 1.08190092
v 0.07176729 -0.02353920 0.26375377
v 0.07459126 -0.02367403 0.26397341
v 0.10473993 -0.06102259 0.27989710
v 0.11425158 -0.07895529 0.29109857
v 0.11425158 -0.28683983 0.26814650
v 0.10745160 -0.28683983 1.08596424
v 0.07176729 -0.26359473 1.25266859
v 0.07176729 -0.02246054 0.26660906
v 0.10163316 -0.04381798 0.28275236
v 0.11425158 -0.01135035 0.33875975
v 0.11425158 -0.06045629 0.29680913
v 0.11425158 -0.28683983 1.08530531
v 0.10996781 -0.28683983 1.08596424
v 0.07177977 -0.26359473 1.25266859
v 0.07176729 -0.24706429 1.28813992
v 0.07176729 -0.02049198 0.27682216
v 0.11425158 -0.05778662 0.29812695
v 0.07176729 -0.01135035 0.33919904
v 0.11425158 -0.01135035 1.29308174
v 0.11425158 -0.27276334 1.11572501
v 0.07355983 -0.24455640 1.29000684
v 0.07587639 -0.22317199 1.31888907
v 0.07176729 -0.22754056 1.31548472
v 0.07176729 -0.01135035 1.30900543
v 0.11242162 -0.01135035 1.29385048
v 0.11425158 -0.01221328 1.29352103
v 0.11425158 -0.26472732 1.12890320
v 0.08069668 -0.20861009 1.32657635
v 0.07881267 -0.20130218 1.34359825
v 0.07176729 -0.20777413 1.34030371
v 0.07176729 -0.22416975 1.32009706
v 0.07176729 -0.16551767 1.36501282
v 0.11425158 -0.03195274 1.29593704
v 0.07493230 -0.16745925 1.36402444
v 0.11425158 -0.25407556 1.14010471
v 0.08806645 -0.18299196 1.32591745
v 0.08139955 -0.18242565 1.35117573
v 0.07493230 -0.17393122 1.36402444
v 0.07176729 -0.17759865 1.36303606
v 0.07176729 -0.20294713 1.34502585
v 0.07176729 -0.17482110 1.36479314
v 0.11425158 -0.03661793 1.29626648
v 0.11425158 -0.15591761 1.22543359
v 0.11425158 -0.09899138 1.27221623
v 0.11425158 -0.08610141 1.28231956
v 0.11425158 -0.07501819 1.28923810
v 0.11425158 -0.10233523 1.26947077
v 0.11425158 -0.05967427 1.29483885
v 0.11425158 -0.05676189 1.29527811
f 1 2 3
f 1 3 4
f 1 4 5
f 1 5 6
f 1 6 12
f 1 12 19
f 1 19 20
f 1 20 13
f 1 13 7
f 1 7 14
f 1 14 22
f 1 22 30
f 1 30 38
f 1 38 37
f 1 37 47
f 1 47 46
f 1 46 48
f 1 48 39
f 1 39 31
f 1 31 25
f 1 25 23
f 1 23 15
f 1 15 8
f 1 8 2
f 2 8 9
f 2 9 3
f 3 9 10
f 3 10 4
f 4 10 5
f 5 10 11
f 5 11 18
f 5 18 24
f 5 24 17
f 5 17 26
f 5 26 33
f 5 33 40
f 5 40 49
f 5 49 56
f 5 56 55
f 5 55 53
f 5 53 52
f 5 52 51
f 5 51 54
f 5 54 50
f 5 50 42
f 5 42 34
f 5 34 27
f 5 27 19
f 5 19 12
f 5 12 6
f 7 13 14
f 8 15 9
f 9 16 10
f 9 15 17
f 9 17 16
f 10 16 18
f 10 18 11
f 13 20 21
f 13 21 14
f 14 21 22
f 15 23 17
f 16 24 18
f 16 17 24
f 17 23 25
f 17 25 31
f 17 31 32
f 17 32 26
f 19 27 28
f 19 28 21
f 19 21 20
f 21 28 22
f 22 28 29
f 22 29 30
f 26 32 33
f 27 34 29
f 27 29 28
f 29 35 36
f 29 36 37
f 29 37 38
f 29 38 30
f 29 34 35
f 31 39 33
f 31 33 32
f 33 39 41
f 33 41 40
f 34 42 43
f 34 43 36
f 34 36 35
f 36 43 44
f 36 44 45
f 36 45 46
f 36 46 47
f 36 47 37
f 39 48 45
f 39 45 41
f 40 41 49
f 41 45 49
f 42 50 43
f 43 51 52
f 43 52 53
f 43 53 44
f 43 50 54
f 43 54 51
f 44 53 55
f 44 55 56
f 44 56 45
f 45 56 49
f 45 48 46

