# https://github.com/mikedh/trimesh
v -0.03668552 -0.26917778 0.39037427
v -0.03668552 -0.26917778 0.18197449
v -0.08461979 -0.26917778 0.39037427
v -0.03668552 -0.71897345 0.39037427
v -0.03668552 -0.28062743 0.17405041
v -0.08461979 -0.26917778 0.16080085
v -0.08461979 -0.71897345 0.39037427
v -0.03668552 -0.71897345 0.18466930
v -0.03668552 -0.28186049 0.17321630
v -0.03668552 -0.29216517 0.16657547
v -0.03668552 -0.35381722 0.13102946
v -0.06723862 -0.36315308 0.11588712
v -0.07834586 -0.36315308 0.11588712
v -0.08461979 -0.37455870 0.11222986
v -0.08461979 -0.71897345 0.15980632
v -0.08188872 -0.71897345 0.16121792
v -0.04383224 -0.61372461 0.08983710
v -0.03668552 -0.59368768 0.08444748
v -0.03668552 -0.37821379 0.12329785
v -0.06265871 -0.37821379 0.11274310
v -0.08461979 -0.40256636 0.10093723
v -0.06099755 -0.59919230 0.07610632
v -0.04818693 -0.58642155 0.06898435
v -0.08461979 -0.59597760 0.07697253
v -0.08450245 -0.59597760 0.07694047
v -0.07576966 -0.58664170 0.06872766
v -0.03787742 -0.59439224 0.08354920
v -0.03668552 -0.57748200 0.08409458
v -0.03668552 -0.42771156 0.11309607
v -0.04818693 -0.58325087 0.06898435
v -0.06771256 -0.54898993 0.06593660
v -0.08461979 -0.54898993 0.06266431
v -0.06099755 -0.58699402 0.06859931
v -0.08450245 -0.57426726 0.06494212
v -0.05954286 -0.57444341 0.06644985
v -0.08461979 -0.58466007 0.06988256
v -0.08461979 -0.54973856 0.06266431
v -0.08461979 -0.57439938 0.06503832
v -0.08461979 -0.57422322 0.06497411
v -0.08461979 -0.57100852 0.06465336
f 1 2 6
f 1 6 3
f 1 3 7
f 1 7 4
f 1 4 8
f 1 8 18
f 1 18 28
f 1 28 29
f 1 29 19
f 1 19 11
f 1 11 10
f 1 10 9
f 1 9 5
f 1 5 2
f 2 5 6
f 3 6 14
f 3 14 21
f 3 21 32
f 3 32 37
f 3 37 40
f 3 40 39
f 3 39 38
f 3 38 36
f 3 36 24
f 3 24 15
f 3 15 7
f 4 7 15
f 4 15 16
f 4 16 8
f 5 9 6
f 6 9 10
f 6 10 11
f 6 11 12
f 6 12 13
f 6 13 14
f 8 16 17
f 8 17 18
f 11 19 20
f 11 20 12
f 12 20 21
f 12 21 13
f 13 21 14
f 15 22 23
f 15 23 17
f 15 17 16
f 15 24 25
f 15 25 26
f 15 26 22
f 17 23 27
f 17 27 18
f 18 27 23
f 18 23 28
f 19 29 30
f 19 30 31
f 19 31 20
f 20 31 21
f 21 31 32
f 22 26 33
f 22 33 23
f 23 34 35
f 23 35 30
f 23 30 28
f 23 33 34
f 24 36 25
f 25 36 26
f 26 36 34
f 26 34 33
f 28 30 29
f 30 35 31
f 31 35 32
f 32 35 37
f 34 38 39
f 34 39 40
f 34 40 37
f 34 37 35
f 34 36 38

