# https://github.com/mikedh/trimesh
v -0.84886864 -0.24305798 0.36630227
v -0.84886864 -0.24305798 0.24815804
v -0.95653192 -0.24305798 0.36630227
v -0.84886864 -0.57607967 0.36630227
v -0.87220832 -0.28931462 0.21262413
v -0.89798689 -0.31314381 0.18934196
v -0.89060714 -0.28716315 0.20951200
v -0.91499564 -0.28791291 0.20896047
v -0.86532146 -0.24305798 0.25243235
v -0.84886864 -0.35604281 0.18317674
v -0.95672150 -0.25039254 0.36630227
v -0.95276624 -0.24305798 0.36062945
v -0.95194482 -0.29241143 0.23958971
v -0.97766020 -0.35940041 0.30957414
v -0.97795085 -0.35949821 0.32556832
v -0.97693992 -0.36393156 0.33890337
v -0.85298817 -0.57213532 0.36630227
v -0.91078768 -0.49654043 0.30116339
v -0.90563192 -0.49227008 0.28615406
v -0.88845892 -0.49530169 0.27752665
v -0.84886864 -0.56786497 0.35507484
v -0.84886864 -0.37827469 0.17177202
v -0.84886864 -0.40203869 0.16507494
v -0.90839935 -0.31314381 0.18934196
v -0.93018476 -0.29032516 0.21189536
v -0.91590548 -0.30499428 0.19688602
v -0.95823781 -0.33801610 0.36630227
v -0.93182747 -0.30502688 0.20827107
v -0.95208384 -0.30502688 0.23937305
v -0.97766020 -0.37221145 0.30957414
v -0.97795085 -0.37296121 0.32556832
v -0.97693992 -0.36908204 0.33890337
v -0.85845980 -0.56630023 0.36630227
v -0.93161266 -0.47121173 0.30616651
v -0.92333577 -0.47792692 0.29929214
v -0.88102861 -0.46599605 0.23718665
v -0.90388815 -0.44053697 0.23890031
v -0.88858530 -0.44888209 0.22991837
v -0.87985343 -0.44099334 0.21370752
v -0.84886864 -0.44056958 0.18682073
v -0.84886864 -0.42482471 0.17409630
v -0.87884250 -0.41566468 0.19095717
v -0.90292778 -0.36621340 0.19127233
v -0.90507593 -0.35382616 0.18991320
v -0.90917023 -0.32941021 0.18845561
v -0.95606434 -0.35940041 0.36630227
v -0.92245117 -0.33165948 0.20234218
v -0.93038693 -0.32500948 0.20964987
v -0.95189427 -0.31819649 0.23970791
v -0.92796070 -0.39199848 0.23929426
v -0.92639378 -0.46175832 0.28989654
v -0.97383131 -0.38518549 0.32556832
v -0.95334753 -0.41817471 0.33986855
v -0.93843641 -0.40986220 0.36630227
v -0.94158290 -0.40262545 0.36630227
v -0.95083282 -0.37706856 0.36630227
v -0.86487919 -0.55717278 0.36630227
v -0.92365167 -0.48157793 0.32556832
v -0.93055120 -0.46938626 0.32556832
v -0.94876044 -0.43515829 0.32556832
v -0.87143752 -0.43193108 0.19745726
v -0.85516163 -0.43978721 0.19070109
v -0.84886864 -0.42681321 0.17494327
v -0.86925140 -0.55016421 0.36630227
v -0.88350539 -0.52271666 0.36630227
v -0.93299008 -0.42107593 0.36630227
f 1 2 9
f 1 9 12
f 1 12 3
f 1 3 11
f 1 11 27
f 1 27 46
f 1 46 56
f 1 56 55
f 1 55 54
f 1 54 66
f 1 66 65
f 1 65 64
f 1 64 57
f 1 57 33
f 1 33 17
f 1 17 4
f 1 4 21
f 1 21 40
f 1 40 63
f 1 63 41
f 1 41 23
f 1 23 22
f 1 22 10
f 1 10 2
f 2 5 6
f 2 6 7
f 2 7 8
f 2 8 9
f 2 10 5
f 3 12 13
f 3 13 14
f 3 14 15
f 3 15 16
f 3 16 11
f 4 17 18
f 4 18 19
f 4 19 20
f 4 20 21
f 5 10 6
f 6 10 22
f 6 22 23
f 6 23 24
f 6 24 7
f 7 24 8
f 8 25 9
f 8 24 26
f 8 26 25
f 9 25 12
f 11 16 27
f 12 25 13
f 13 25 28
f 13 28 29
f 13 29 14
f 14 29 30
f 14 30 31
f 14 31 15
f 15 31 32
f 15 32 16
f 16 32 27
f 17 33 18
f 18 34 35
f 18 35 19
f 18 33 34
f 19 36 20
f 19 35 37
f 19 37 38
f 19 38 39
f 19 39 36
f 20 36 40
f 20 40 21
f 23 41 42
f 23 42 43
f 23 43 44
f 23 44 45
f 23 45 24
f 24 45 28
f 24 28 26
f 25 26 28
f 27 32 46
f 28 45 47
f 28 47 48
f 28 48 49
f 28 49 29
f 29 49 30
f 30 49 50
f 30 50 51
f 30 51 34
f 30 34 52
f 30 52 31
f 31 52 32
f 32 52 53
f 32 53 54
f 32 54 55
f 32 55 56
f 32 56 46
f 33 57 58
f 33 58 34
f 34 51 35
f 34 58 59
f 34 59 60
f 34 60 52
f 35 51 37
f 36 39 61
f 36 61 62
f 36 62 40
f 37 50 42
f 37 42 39
f 37 39 38
f 37 51 50
f 39 42 61
f 40 62 63
f 41 63 42
f 42 63 61
f 42 50 43
f 43 48 47
f 43 47 44
f 43 50 48
f 44 47 45
f 48 50 49
f 52 60 53
f 53 60 59
f 53 59 64
f 53 64 65
f 53 65 66
f 53 66 54
f 57 64 58
f 58 64 59
f 61 63 62

