# https://github.com/mikedh/trimesh
v 0.41681732 -0.52207213 0.54498402
v 0.40218222 -0.52207213 0.55647866
v 0.41681732 -0.56853310 0.51497574
v 0.41681732 -0.52207213 0.34950208
v 0.39128871 -0.52207213 0.56256836
v 0.38891397 -0.56102747 0.53287800
v 0.40259642 -0.57162760 0.51844857
v 0.41681732 -0.57520815 0.49741587
v 0.41681732 -0.52927012 0.36092334
v 0.40259642 -0.52207213 0.34708087
v 0.27578191 -0.52207213 0.59690548
v 0.27612707 -0.52209674 0.59690548
v 0.27609947 -0.52227515 0.59690548
v 0.27597520 -0.52291496 0.59690548
v 0.27578191 -0.52330255 0.59690548
v 0.27578191 -0.58492240 0.54310087
v 0.34615466 -0.58492240 0.51301920
v 0.40259642 -0.57974846 0.49636422
v 0.41681732 -0.57314718 0.47198096
v 0.41681732 -0.53858446 0.38249410
v 0.27578191 -0.58492240 0.43749708
v 0.39954512 -0.52207213 0.34801024
v 0.27578191 -0.52207213 0.40103224
v 0.34731439 -0.58492240 0.50702733
v 0.34731439 -0.58492240 0.50269850
v 0.41681732 -0.56089214 0.43622534
v 0.27578191 -0.52540045 0.40208389
v 0.38206585 -0.52207213 0.35409995
v 0.27578191 -0.52420694 0.40169256
f 1 2 3
f 1 3 8
f 1 8 19
f 1 19 26
f 1 26 20
f 1 20 9
f 1 9 4
f 1 4 10
f 1 10 22
f 1 22 28
f 1 28 23
f 1 23 11
f 1 11 5
f 1 5 2
f 2 5 3
f 3 6 7
f 3 7 8
f 3 5 6
f 4 9 10
f 5 11 12
f 5 12 13
f 5 13 14
f 5 14 15
f 5 15 6
f 6 15 16
f 6 16 7
f 7 17 18
f 7 18 8
f 7 16 17
f 8 18 19
f 9 20 21
f 9 21 10
f 10 21 22
f 11 15 14
f 11 14 13
f 11 13 12
f 11 23 29
f 11 29 27
f 11 27 21
f 11 21 16
f 11 16 15
f 16 21 25
f 16 25 24
f 16 24 17
f 17 24 18
f 18 24 25
f 18 25 21
f 18 21 19
f 19 21 26
f 20 26 21
f 21 27 28
f 21 28 22
f 23 28 29
f 27 29 28

