# https://github.com/mikedh/trimesh
v -0.30546533 0.03818111 0.15512548
v -0.30857091 0.03818111 0.15519246
v -0.34794612 0.23102977 0.11306349
v -0.33528052 0.23609632 0.11473796
v -0.28139098 0.03818111 0.16189023
v -0.32658815 0.03818111 0.15693386
v -0.34794612 0.25508449 0.11373330
v -0.33528052 0.25061132 0.11473796
v -0.34794612 0.03818111 0.15934507
v -0.26511707 0.24056949 0.14856166
v -0.26511707 0.19182100 0.15090589
v -0.26511707 0.16895303 0.15244638
v -0.26511707 0.03818111 0.16724843
v -0.34794612 0.26626744 0.11915847
v -0.34794612 0.26663259 0.11935939
v -0.30500312 0.27325107 0.13884992
v -0.29170508 0.26969077 0.14199787
v -0.26511707 0.26393955 0.15237941
v -0.26511707 0.25668205 0.15077191
v -0.34794612 0.03818111 0.79730719
v -0.26511707 0.03818111 0.79730719
v -0.34794612 0.31967166 0.16436838
v -0.33665900 0.31839361 0.16577492
v -0.30500312 0.30187026 0.15921109
v -0.28060444 0.29735144 0.16296187
v -0.26740370 0.29392809 0.16617679
v -0.26511707 0.27891099 0.15967997
v -0.34794612 0.46153525 0.79730719
v -0.26511707 0.49928337 0.79730719
v -0.34794612 0.39096861 0.23938338
v -0.34042138 0.39087731 0.23958429
v -0.31974453 0.36586406 0.21594119
v -0.32039322 0.31620267 0.16785123
v -0.30500312 0.31405739 0.17012849
v -0.28060444 0.30953856 0.17508482
v -0.26511707 0.29023087 0.16544002
v -0.26782534 0.31761768 0.19075759
v -0.26511707 0.31268804 0.18794455
v -0.26511707 0.29634726 0.17079826
v -0.26511707 0.29278697 0.16718146
v -0.34794612 0.46801679 0.78143350
v -0.34794612 0.50444124 0.59396304
v -0.34794612 0.49298442 0.66716961
v -0.34794612 0.48120808 0.73428122
v -0.34794612 0.47710007 0.75584802
v -0.34794612 0.47477220 0.76288067
v -0.26511707 0.49695549 0.64272278
v -0.34794612 0.50293496 0.56824362
v -0.28172343 0.39539613 0.27695785
v -0.29060232 0.39156198 0.26322740
v -0.26511707 0.39338778 0.28392348
v -0.26511707 0.31684171 0.19269992
v -0.26511707 0.39904773 0.30033303
f 1 2 3
f 1 3 4
f 1 4 5
f 1 5 13
f 1 13 21
f 1 21 20
f 1 20 9
f 1 9 6
f 1 6 2
f 2 6 3
f 3 7 8
f 3 8 4
f 3 6 9
f 3 9 20
f 3 20 28
f 3 28 41
f 3 41 46
f 3 46 45
f 3 45 44
f 3 44 43
f 3 43 42
f 3 42 48
f 3 48 30
f 3 30 22
f 3 22 15
f 3 15 14
f 3 14 7
f 4 8 10
f 4 10 11
f 4 11 12
f 4 12 13
f 4 13 5
f 7 14 8
f 8 14 15
f 8 15 16
f 8 16 17
f 8 17 18
f 8 18 19
f 8 19 10
f 10 19 18
f 10 18 27
f 10 27 36
f 10 36 40
f 10 40 39
f 10 39 38
f 10 38 52
f 10 52 51
f 10 51 53
f 10 53 47
f 10 47 29
f 10 29 21
f 10 21 13
f 10 13 12
f 10 12 11
f 15 22 23
f 15 23 24
f 15 24 25
f 15 25 16
f 16 25 17
f 17 25 26
f 17 26 27
f 17 27 18
f 20 21 29
f 20 29 28
f 22 30 31
f 22 31 32
f 22 32 23
f 23 33 24
f 23 32 33
f 24 33 34
f 24 34 25
f 25 34 32
f 25 32 35
f 25 35 26
f 26 36 27
f 26 35 37
f 26 37 38
f 26 38 39
f 26 39 40
f 26 40 36
f 28 29 41
f 29 42 43
f 29 43 44
f 29 44 45
f 29 45 46
f 29 46 41
f 29 47 42
f 30 48 31
f 31 49 50
f 31 50 32
f 31 48 49
f 32 50 37
f 32 37 35
f 32 34 33
f 37 50 51
f 37 51 52
f 37 52 38
f 42 47 48
f 47 53 48
f 48 53 49
f 49 53 51
f 49 51 50

