# https://github.com/mikedh/trimesh
v -0.17590825 -0.26913374 0.08164770
v -0.17590825 -0.19718581 0.01789602
v -0.16785389 -0.19684610 0.01830644
v -0.16308396 -0.26913374 0.08807762
v -0.17590825 -0.26913374 1.09100434
v -0.17590825 -0.18949357 0.01283414
v -0.17590825 -0.18228665 0.01023485
v -0.15926802 -0.18068510 0.01584393
v -0.14629380 -0.17100306 0.02049531
v -0.03668083 -0.26913374 0.18206350
v -0.17169707 -0.26913374 1.09360367
v -0.03668083 -0.26816311 1.27706087
v -0.03668083 -0.26095620 1.30018113
v -0.05593771 -0.24693059 1.31782914
v -0.07662558 -0.22327149 1.34204384
v -0.17590825 -0.22521274 1.17951800
v -0.17590825 -0.16561608 0.00613066
v -0.17590825 -0.15770545 0.00503618
v -0.15858659 -0.15857901 0.01310778
v -0.14070618 -0.06100644 0.01734875
v -0.11297244 -0.08541778 0.03773290
v -0.11361297 -0.10980485 0.03910094
v -0.11736077 -0.13421619 0.04115303
v -0.10221965 -0.08541778 0.05729621
v -0.03668083 -0.08541778 0.21941160
v -0.03668083 -0.26913374 1.09155157
v -0.16969372 -0.26913374 1.09374045
v -0.03669446 -0.26913374 1.09264601
v -0.03668083 -0.25219627 1.31304089
v -0.03668083 -0.24828947 1.31864997
v -0.06100747 -0.22567379 1.34395915
v -0.07759319 -0.19968518 1.36653218
v -0.17590825 -0.06435511 1.35873423
v -0.17590825 -0.22467891 1.18033883
v -0.17590825 -0.14149592 0.00572024
v -0.15858659 -0.06100644 0.01297099
v -0.14294123 -0.04647125 0.01858000
v -0.12850878 -0.06100644 0.02583076
v -0.11515297 -0.06100644 0.03800654
v -0.03668083 -0.06100644 0.22844085
v -0.03668083 -0.23673899 1.33096254
v -0.06100747 -0.21315268 1.35613486
v -0.06100747 -0.20094701 1.36776344
v -0.06100747 -0.18633902 1.37993914
v -0.06100747 -0.17413334 1.38965241
v -0.07433601 -0.17209503 1.38760032
v -0.17590825 -0.03353761 1.38349613
v -0.17590825 -0.03739586 1.38089684
v -0.17590825 -0.05045084 1.37200441
v -0.17590825 -0.05571651 1.36817386
v -0.17590825 -0.08570897 0.00982443
v -0.17590825 -0.06001154 0.01379183
v -0.15858659 -0.04581608 0.01762238
v -0.15858659 -0.03705615 0.03280787
v -0.13455978 -0.04246741 0.03308151
v -0.11864184 -0.04625286 0.04128988
v -0.03668083 -0.02123488 0.24909857
v -0.03668083 -0.04334097 0.23747006
v -0.03668083 -0.17374510 1.38965241
v -0.03668083 -0.15862754 1.40004966
v -0.06100747 -0.15857901 1.39662953
v -0.17590825 -0.02295775 1.38869479
v -0.17590825 -0.02594244 1.38760032
v -0.17590825 -0.04783014 0.01844322
v -0.17548578 -0.04717496 0.01871686
v -0.17590825 -0.04186076 0.03362871
v -0.17590825 -0.03606125 0.05018224
v -0.15858659 -0.02926684 0.05729621
v -0.13419182 -0.03506635 0.05729621
v -0.08898651 -0.02123488 0.20668862
v -0.03668083 -0.02123488 1.33424589
v -0.03668083 -0.13428899 1.40264903
v -0.17590825 -0.02123488 1.38896836
v -0.17590825 -0.04700510 0.01953769
v -0.17590825 -0.03380454 0.05729621
v -0.17590825 -0.03038306 0.07453380
v -0.17590825 -0.02123488 0.16961412
v -0.10884304 -0.02123488 0.19492330
v -0.13419182 -0.02123488 1.38267529
v -0.03668083 -0.11693899 1.39225171
v -0.17210593 -0.02123488 1.38910521
v -0.13997024 -0.02123488 1.38527459
v -0.14565326 -0.02123488 1.38732668
v -0.15068214 -0.02123488 1.38801074
v -0.16144854 -0.02123488 1.38896836
v -0.16820822 -0.02123488 1.38910521
f 1 2 3
f 1 3 4
f 1 4 10
f 1 10 26
f 1 26 28
f 1 28 27
f 1 27 11
f 1 11 5
f 1 5 16
f 1 16 34
f 1 34 33
f 1 33 50
f 1 50 49
f 1 49 48
f 1 48 47
f 1 47 63
f 1 63 62
f 1 62 73
f 1 73 77
f 1 77 76
f 1 76 75
f 1 75 67
f 1 67 66
f 1 66 74
f 1 74 64
f 1 64 52
f 1 52 51
f 1 51 35
f 1 35 18
f 1 18 17
f 1 17 7
f 1 7 6
f 1 6 2
f 2 6 3
f 3 6 7
f 3 7 8
f 3 8 9
f 3 9 10
f 3 10 4
f 5 11 12
f 5 12 13
f 5 13 14
f 5 14 15
f 5 15 16
f 7 17 8
f 8 17 18
f 8 18 19
f 8 19 9
f 9 19 20
f 9 20 21
f 9 21 22
f 9 22 23
f 9 23 10
f 10 23 22
f 10 22 21
f 10 21 24
f 10 24 25
f 10 25 40
f 10 40 58
f 10 58 57
f 10 57 71
f 10 71 80
f 10 80 72
f 10 72 60
f 10 60 59
f 10 59 41
f 10 41 30
f 10 30 29
f 10 29 13
f 10 13 12
f 10 12 26
f 11 27 12
f 12 27 28
f 12 28 26
f 13 29 14
f 14 29 30
f 14 30 31
f 14 31 15
f 15 31 32
f 15 32 33
f 15 33 34
f 15 34 16
f 18 35 36
f 18 36 20
f 18 20 19
f 20 36 37
f 20 37 38
f 20 38 21
f 21 38 39
f 21 39 24
f 24 39 40
f 24 40 25
f 30 41 31
f 31 42 32
f 31 41 42
f 32 42 43
f 32 43 44
f 32 44 45
f 32 45 46
f 32 46 47
f 32 47 48
f 32 48 49
f 32 49 50
f 32 50 33
f 35 51 36
f 36 51 52
f 36 52 53
f 36 53 37
f 37 54 55
f 37 55 56
f 37 56 39
f 37 39 38
f 37 53 54
f 39 56 57
f 39 57 58
f 39 58 40
f 41 59 43
f 41 43 42
f 43 59 44
f 44 59 45
f 45 59 60
f 45 60 61
f 45 61 46
f 46 61 62
f 46 62 63
f 46 63 47
f 52 64 53
f 53 64 65
f 53 65 54
f 54 65 66
f 54 66 67
f 54 67 68
f 54 68 55
f 55 68 69
f 55 69 56
f 56 69 57
f 57 69 68
f 57 68 70
f 57 70 78
f 57 78 77
f 57 77 73
f 57 73 81
f 57 81 86
f 57 86 85
f 57 85 84
f 57 84 83
f 57 83 82
f 57 82 79
f 57 79 71
f 60 72 61
f 61 72 73
f 61 73 62
f 64 74 65
f 65 74 66
f 67 75 68
f 68 75 76
f 68 76 77
f 68 77 78
f 68 78 70
f 71 79 80
f 72 81 73
f 72 80 79
f 72 79 82
f 72 82 83
f 72 83 84
f 72 84 85
f 72 85 86
f 72 86 81

