# https://github.com/mikedh/trimesh
v 0.94916757 0.25047626 0.47745009
v 0.93903321 0.28060372 0.47194484
v 0.94869345 0.25047626 0.49266197
v 0.94549316 0.25047626 0.44756965
v 0.94436704 0.25621249 0.44756965
v 0.93873688 0.28060372 0.44756965
v 0.90317763 0.34255153 0.53587088
v 0.94821934 0.25047626 0.49863805
v 0.93082498 0.29960391 0.44756965
v 0.93076570 0.29883141 0.47194484
v 0.94211497 0.25047626 0.42348420
v 0.94069262 0.25621249 0.42315824
v 0.93313630 0.28300340 0.42076779
v 0.92928408 0.29689194 0.42732338
v 0.90406660 0.34472109 0.38331763
v 0.88447944 0.37478281 0.55430622
v 0.89606576 0.35265976 0.55430622
v 0.93378822 0.25047626 0.55430622
v 0.90516305 0.34646334 0.39874680
v 0.89861424 0.35865897 0.39874680
v 0.93423267 0.25047626 0.39740672
v 0.93008412 0.27646182 0.40378123
v 0.90652614 0.32889311 0.37484245
v 0.90406660 0.32041208 0.35963060
v 0.90074777 0.33666739 0.36705544
v 0.88510168 0.35504301 0.34876498
v 0.89677695 0.35323503 0.37484245
v 0.88456830 0.37401033 0.37433539
v 0.85846191 0.41837147 0.55430622
v 0.64644000 0.25047626 0.55430622
v 0.88643518 0.37668940 0.39874680
v 0.92866177 0.25047626 0.38447664
v 0.92679488 0.26656725 0.38751900
v 0.91295642 0.30501138 0.37433539
v 0.93233619 0.25754381 0.39689966
v 0.87739725 0.36400070 0.33981896
v 0.90578536 0.30501138 0.35684177
v 0.89882163 0.30501138 0.34463607
v 0.88415344 0.32940264 0.32938796
v 0.88089387 0.34774535 0.33373423
v 0.88098273 0.36926027 0.35608118
v 0.85505414 0.41592249 0.38440421
v 0.64644000 0.41837147 0.55430622
v 0.86714427 0.40259275 0.39874680
v 0.85606165 0.41728667 0.39874680
v 0.85517267 0.41837147 0.40204273
v 0.64644000 0.25047626 0.18741058
v 0.92842471 0.25047626 0.38396958
v 0.86755911 0.37977939 0.34702648
v 0.87224112 0.35504301 0.32558501
v 0.85546900 0.36771527 0.31164081
v 0.86044732 0.37330355 0.32558501
v 0.85386885 0.39028208 0.33800803
v 0.92448356 0.25047626 0.37679827
v 0.90750404 0.28060372 0.35448753
v 0.91215637 0.25047626 0.35698662
v 0.89965133 0.28060372 0.34228183
v 0.80450080 0.25047626 0.19450946
v 0.88664257 0.30501138 0.32674402
v 0.87585629 0.32940264 0.31718226
v 0.85923236 0.35379386 0.30682370
v 0.85111300 0.41837147 0.38241219
v 0.85327620 0.41837147 0.38697573
v 0.64644000 0.41837147 0.21899333
v 0.85508381 0.41837147 0.39874680
v 0.64644000 0.40259275 0.20439714
v 0.72680383 0.34375137 0.18998210
v 0.76888229 0.25047626 0.18436822
v 0.84705331 0.35379386 0.29465421
v 0.73418243 0.34375137 0.18998210
v 0.72475922 0.41837147 0.23409651
v 0.72887818 0.41837147 0.23768218
v 0.73181175 0.41837147 0.24036237
v 0.82856250 0.41837147 0.34916340
v 0.84486050 0.41837147 0.37266932
v 0.79830757 0.25047626 0.18835227
v 0.65444084 0.41837147 0.21142360
v 0.64644000 0.41832217 0.20925047
v 0.64644000 0.40272426 0.20443339
v 0.79252914 0.25047626 0.18527370
v 0.79244027 0.25451957 0.18654135
v 0.64644000 0.41330912 0.20769307
v 0.69097793 0.41837147 0.21392269
v 0.69237069 0.41837147 0.21421243
v 0.70046038 0.41837147 0.21754458
v 0.72066987 0.41837147 0.23061951
f 1 2 3
f 1 3 8
f 1 8 18
f 1 18 30
f 1 30 47
f 1 47 68
f 1 68 80
f 1 80 76
f 1 76 58
f 1 58 56
f 1 56 54
f 1 54 48
f 1 48 32
f 1 32 21
f 1 21 11
f 1 11 4
f 1 4 5
f 1 5 6
f 1 6 2
f 2 7 8
f 2 8 3
f 2 6 9
f 2 9 10
f 2 10 7
f 4 11 5
f 5 11 6
f 6 11 12
f 6 12 13
f 6 13 14
f 6 14 15
f 6 15 9
f 7 16 17
f 7 17 8
f 7 10 16
f 8 17 18
f 9 15 19
f 9 19 20
f 9 20 10
f 10 20 16
f 11 21 12
f 12 21 22
f 12 22 13
f 13 22 23
f 13 23 15
f 13 15 14
f 15 23 24
f 15 24 25
f 15 25 26
f 15 26 27
f 15 27 28
f 15 28 20
f 15 20 19
f 16 29 43
f 16 43 30
f 16 30 18
f 16 18 17
f 16 20 29
f 20 28 31
f 20 31 29
f 21 32 33
f 21 33 24
f 21 24 34
f 21 34 35
f 21 35 22
f 22 35 34
f 22 34 23
f 23 34 24
f 24 36 26
f 24 26 25
f 24 33 32
f 24 32 37
f 24 37 38
f 24 38 39
f 24 39 40
f 24 40 36
f 26 36 27
f 27 36 41
f 27 41 28
f 28 41 42
f 28 42 31
f 29 31 44
f 29 44 45
f 29 45 46
f 29 46 65
f 29 65 63
f 29 63 62
f 29 62 75
f 29 75 74
f 29 74 73
f 29 73 72
f 29 72 71
f 29 71 86
f 29 86 85
f 29 85 84
f 29 84 83
f 29 83 77
f 29 77 64
f 29 64 43
f 30 43 64
f 30 64 78
f 30 78 82
f 30 82 79
f 30 79 66
f 30 66 47
f 31 42 44
f 32 48 37
f 36 49 41
f 36 40 50
f 36 50 51
f 36 51 52
f 36 52 53
f 36 53 49
f 37 48 54
f 37 54 38
f 38 54 55
f 38 55 56
f 38 56 57
f 38 57 58
f 38 58 59
f 38 59 60
f 38 60 39
f 39 60 40
f 40 60 61
f 40 61 50
f 41 49 42
f 42 62 63
f 42 63 45
f 42 45 44
f 42 49 53
f 42 53 62
f 45 65 46
f 45 63 65
f 47 66 67
f 47 67 68
f 50 61 51
f 51 53 52
f 51 61 69
f 51 69 70
f 51 70 71
f 51 71 72
f 51 72 73
f 51 73 53
f 53 73 74
f 53 74 75
f 53 75 62
f 54 56 55
f 56 58 57
f 58 76 69
f 58 69 61
f 58 61 60
f 58 60 59
f 64 77 78
f 66 79 70
f 66 70 67
f 67 70 68
f 68 70 80
f 69 76 70
f 70 76 81
f 70 81 80
f 70 79 82
f 70 82 78
f 70 78 83
f 70 83 84
f 70 84 85
f 70 85 86
f 70 86 71
f 76 80 81
f 77 83 78

