# https://github.com/mikedh/trimesh
v -0.60532837 -0.80885260 0.76857957
v -0.60532837 -0.80753692 0.78182499
v -0.61113004 -0.80612597 0.77961741
v -0.61113004 -0.80612597 0.77261626
v -0.65925396 -0.76856328 0.54517349
v -0.61345810 -0.78246342 0.60219188
v -0.60532837 -0.78246342 0.60219188
v -0.62220553 -0.78930855 0.83796033
v -0.63704496 -0.78223457 0.85259337
v -0.60532837 -0.78644849 0.85423327
v -0.63909320 -0.78423664 0.83796033
v -0.65925396 -0.76923068 0.55696823
v -0.65925396 -0.76625617 0.53318954
v -0.64660006 -0.76982173 0.54517349
v -0.64660006 -0.76314814 0.52467464
v -0.62929005 -0.76112702 0.52833291
v -0.60532837 -0.66087098 0.38307479
v -0.60532837 -0.78452264 0.86028832
v -0.62220553 -0.78370274 0.85555782
v -0.60532837 -0.75590262 0.91774821
v -0.60532837 -0.73607258 0.95521383
v -0.61284051 -0.73521451 0.95142942
v -0.63369805 -0.75599795 0.89844774
v -0.64135268 -0.76066941 0.88217481
v -0.64733386 -0.76701883 0.86079291
v -0.65905864 -0.75710384 0.85271952
v -0.65925396 -0.76789595 0.59399233
v -0.65925396 -0.76305288 0.52335011
v -0.65925396 -0.66050870 0.35998994
v -0.60532837 -0.65814436 0.37929041
v -0.60532837 -0.72440335 0.96038584
v -0.63910381 -0.73973348 0.90664729
v -0.65762276 -0.75128832 0.86899245
v -0.60532837 -0.71978905 0.96070122
v -0.61309384 -0.71978905 0.95206017
v -0.65913252 -0.73502384 0.87536287
v -0.65925396 -0.75660806 0.70500155
v -0.65925396 -0.65005975 0.34693373
v -0.60532837 -0.65110849 0.37083858
v -0.60532837 -0.69971111 0.95502462
v -0.61128841 -0.70468769 0.94978952
v -0.65925396 -0.61406064 0.86924474
v -0.65913252 -0.73044772 0.87536287
v -0.65925396 -0.62058167 0.86230668
v -0.65925396 -0.74062965 0.73105088
v -0.65925396 -0.75172681 0.71786853
v -0.65925396 -0.75649367 0.70531692
v -0.65925396 -0.63858126 0.33406677
v -0.65185799 -0.63717025 0.33551745
v -0.60532837 -0.64733313 0.36661267
v -0.60532837 -0.68592543 0.94543744
v -0.60537588 -0.61406064 0.89630326
v -0.62138200 -0.61406064 0.88942825
v -0.64575014 -0.61406064 0.87788581
v -0.65925396 -0.61406064 0.31634314
v -0.65925396 -0.63267033 0.32933626
v -0.64699070 -0.61406064 0.31924450
v -0.63558791 -0.63305174 0.33835573
v -0.60532837 -0.63890537 0.35816080
v -0.60532837 -0.61549070 0.89636632
v -0.60532837 -0.61406064 0.87927342
v -0.60532837 -0.61406064 0.34371699
v -0.60532837 -0.62153507 0.34573534
f 1 2 3
f 1 3 4
f 1 4 5
f 1 5 6
f 1 6 7
f 1 7 17
f 1 17 30
f 1 30 39
f 1 39 50
f 1 50 59
f 1 59 63
f 1 63 62
f 1 62 61
f 1 61 60
f 1 60 51
f 1 51 40
f 1 40 34
f 1 34 31
f 1 31 21
f 1 21 20
f 1 20 18
f 1 18 10
f 1 10 2
f 2 8 9
f 2 9 3
f 2 10 8
f 3 9 11
f 3 11 12
f 3 12 4
f 4 12 5
f 5 13 14
f 5 14 6
f 5 12 27
f 5 27 37
f 5 37 47
f 5 47 46
f 5 46 45
f 5 45 44
f 5 44 42
f 5 42 55
f 5 55 56
f 5 56 48
f 5 48 38
f 5 38 29
f 5 29 28
f 5 28 13
f 6 14 7
f 7 14 15
f 7 15 16
f 7 16 17
f 8 10 18
f 8 18 19
f 8 19 9
f 9 19 20
f 9 20 21
f 9 21 22
f 9 22 23
f 9 23 24
f 9 24 25
f 9 25 26
f 9 26 11
f 11 26 27
f 11 27 12
f 13 28 15
f 13 15 14
f 15 28 29
f 15 29 16
f 16 29 17
f 17 29 30
f 18 20 19
f 21 31 22
f 22 32 33
f 22 33 23
f 22 31 34
f 22 34 35
f 22 35 36
f 22 36 32
f 23 33 24
f 24 33 25
f 25 33 26
f 26 33 36
f 26 36 37
f 26 37 27
f 29 38 30
f 30 38 39
f 32 36 33
f 34 40 35
f 35 40 41
f 35 41 42
f 35 42 43
f 35 43 36
f 36 43 42
f 36 42 44
f 36 44 45
f 36 45 46
f 36 46 47
f 36 47 37
f 38 48 49
f 38 49 39
f 39 49 50
f 40 51 52
f 40 52 53
f 40 53 54
f 40 54 42
f 40 42 41
f 42 54 53
f 42 53 52
f 42 52 61
f 42 61 62
f 42 62 57
f 42 57 55
f 48 56 49
f 49 56 57
f 49 57 58
f 49 58 50
f 50 58 59
f 51 60 52
f 52 60 61
f 55 57 56
f 57 62 63
f 57 63 58
f 58 63 59

