# https://github.com/mikedh/trimesh
v -0.40828307 0.43665670 0.46429125
v -0.40442045 0.43584943 0.46429125
v -0.40259548 0.43542657 0.44755648
v -0.40828307 0.43661824 0.45282290
v -0.40828307 0.04393494 0.46429125
v -0.40243008 0.43542657 0.46429125
v -0.37819727 0.43012160 0.44755648
v -0.37819727 0.42720002 0.42316460
v -0.40259548 0.43242810 0.42316460
v -0.40828307 0.43365826 0.42902003
v -0.40828307 0.04393494 0.13403070
v -0.34794612 0.04393494 0.46429125
v -0.39591563 0.43400422 0.46429125
v -0.37819727 0.43004470 0.46429125
v -0.34794612 0.42227947 0.46429125
v -0.34794612 0.42001140 0.42316460
v -0.34794612 0.41951165 0.41931871
v -0.34794612 0.41689759 0.40092088
v -0.34794612 0.39098781 0.23939392
v -0.40828307 0.43273562 0.42316460
v -0.40259548 0.18301749 0.11036639
v -0.37750628 0.18244085 0.11331146
v -0.36293586 0.19020612 0.11611793
v -0.40705457 0.04393494 0.13455041
v -0.40828307 0.18290218 0.11126722
v -0.34794612 0.04393494 0.16736165
v -0.35380499 0.39106467 0.23922071
v -0.34794612 0.31967821 0.16438197
v -0.35380499 0.32033172 0.16368901
v -0.40259548 0.33774587 0.17113825
v -0.37819727 0.37030609 0.21119079
v -0.40828307 0.42720002 0.39873807
v -0.40828307 0.18916819 0.11092079
v -0.37819727 0.25617230 0.11244525
v -0.35179100 0.22949366 0.11258385
v -0.34794612 0.23103133 0.11306895
v -0.35990601 0.04393494 0.15738315
v -0.35679351 0.04393494 0.15984312
v -0.36705835 0.39075714 0.23953252
v -0.34794612 0.26659003 0.11934012
v -0.34844813 0.26682069 0.11930551
v -0.40259548 0.30080328 0.13534732
v -0.40828307 0.30507031 0.13763404
v -0.40828307 0.31387348 0.14574159
v -0.40828307 0.32555980 0.15755640
v -0.40828307 0.33824562 0.17089570
v -0.40259548 0.34816362 0.18333417
v -0.40828307 0.34785606 0.18309166
v -0.40259548 0.36034966 0.19999965
v -0.40259548 0.36892220 0.21219561
v -0.40828307 0.42212567 0.38200329
v -0.40828307 0.25813284 0.11521710
v -0.40828307 0.27170280 0.11677617
v -0.35547053 0.25767153 0.11310356
v -0.34794612 0.25501905 0.11369257
v -0.40828307 0.36769204 0.21358150
v -0.34794612 0.26620561 0.11913222
v -0.36471360 0.26858901 0.11795419
v -0.40828307 0.30207184 0.13513942
v -0.40828307 0.27454749 0.11791958
v -0.37819727 0.27001136 0.11736518
v -0.40828307 0.28388887 0.12242379
f 1 2 3
f 1 3 4
f 1 4 10
f 1 10 20
f 1 20 32
f 1 32 51
f 1 51 56
f 1 56 48
f 1 48 46
f 1 46 45
f 1 45 44
f 1 44 43
f 1 43 59
f 1 59 62
f 1 62 60
f 1 60 53
f 1 53 52
f 1 52 33
f 1 33 25
f 1 25 11
f 1 11 5
f 1 5 12
f 1 12 15
f 1 15 14
f 1 14 13
f 1 13 6
f 1 6 2
f 2 6 3
f 3 6 7
f 3 7 8
f 3 8 9
f 3 9 4
f 4 9 10
f 5 11 24
f 5 24 37
f 5 37 38
f 5 38 26
f 5 26 12
f 6 13 7
f 7 13 14
f 7 14 15
f 7 15 16
f 7 16 8
f 8 16 17
f 8 17 18
f 8 18 19
f 8 19 9
f 9 20 10
f 9 19 20
f 11 21 22
f 11 22 23
f 11 23 24
f 11 25 21
f 12 26 36
f 12 36 55
f 12 55 57
f 12 57 40
f 12 40 28
f 12 28 19
f 12 19 18
f 12 18 17
f 12 17 16
f 12 16 15
f 19 27 20
f 19 28 29
f 19 29 30
f 19 30 31
f 19 31 27
f 20 27 32
f 21 25 33
f 21 33 34
f 21 34 35
f 21 35 22
f 22 35 36
f 22 36 23
f 23 36 37
f 23 37 24
f 26 38 36
f 27 31 39
f 27 39 32
f 28 40 41
f 28 41 42
f 28 42 43
f 28 43 29
f 29 43 44
f 29 44 45
f 29 45 30
f 30 45 46
f 30 46 31
f 31 46 47
f 31 47 48
f 31 48 49
f 31 49 50
f 31 50 39
f 32 39 51
f 33 52 34
f 34 52 53
f 34 53 54
f 34 54 35
f 35 54 55
f 35 55 36
f 36 38 37
f 39 50 56
f 39 56 51
f 40 57 41
f 41 57 55
f 41 55 54
f 41 54 58
f 41 58 59
f 41 59 42
f 42 59 43
f 46 48 47
f 48 56 50
f 48 50 49
f 53 60 54
f 54 60 61
f 54 61 58
f 58 61 62
f 58 62 59
f 60 62 61

