# https://github.com/mikedh/trimesh
v 0.65449247 -0.50509338 0.63729088
v 0.51180390 -0.50509338 0.63729088
v 0.65449247 -0.59642456 0.63729088
v 0.65449247 -0.50509338 0.41807884
v 0.51180390 -0.54582809 0.63729088
v 0.51180390 -0.50509338 0.51438436
v 0.52461179 -0.55264101 0.63729088
v 0.58036873 -0.54092848 0.47823154
v 0.59779975 -0.55022700 0.49637353
v 0.62816437 -0.56168026 0.50787075
v 0.63710334 -0.56168026 0.50787075
v 0.65449247 -0.56000833 0.51639530
v 0.65449247 -0.51174541 0.42507333
v 0.64658704 -0.50509338 0.41477829
v 0.51180390 -0.51105696 0.53213292
v 0.55708548 -0.50509338 0.45799120
v 0.58346942 -0.51415051 0.43322630
v 0.58856744 -0.53532253 0.46196931
v 0.60482522 -0.53904193 0.45726990
v 0.61330327 -0.53904193 0.45726990
v 0.65449247 -0.51627845 0.43095307
v 0.64658704 -0.50748957 0.41766351
v 0.62218639 -0.50799918 0.41705148
v 0.62218639 -0.50509338 0.41401326
v 0.58027096 -0.50509338 0.43016619
v 0.59662648 -0.50509338 0.42124820
v 0.61841525 -0.50509338 0.41506243
v 0.59779975 -0.51562577 0.43062522
v 0.64658704 -0.51685961 0.42986020
f 1 2 5
f 1 5 7
f 1 7 3
f 1 3 12
f 1 12 21
f 1 21 13
f 1 13 4
f 1 4 14
f 1 14 24
f 1 24 27
f 1 27 26
f 1 26 25
f 1 25 16
f 1 16 6
f 1 6 2
f 2 6 15
f 2 15 5
f 3 7 8
f 3 8 9
f 3 9 10
f 3 10 11
f 3 11 12
f 4 13 14
f 5 15 8
f 5 8 7
f 6 16 17
f 6 17 8
f 6 8 15
f 8 17 18
f 8 18 19
f 8 19 10
f 8 10 9
f 10 19 20
f 10 20 11
f 11 20 21
f 11 21 12
f 13 22 14
f 13 21 22
f 14 23 24
f 14 22 23
f 16 25 17
f 17 25 26
f 17 26 27
f 17 27 24
f 17 24 28
f 17 28 19
f 17 19 18
f 19 28 23
f 19 23 20
f 20 23 29
f 20 29 21
f 21 29 22
f 22 29 23
f 23 28 24

