# https://github.com/mikedh/trimesh
v -0.40828307 0.23178436 1.35049655
v -0.40828307 0.22471065 1.34983212
v -0.40828307 0.25497038 1.34747658
v -0.45139775 0.37817073 1.32905450
v -0.46280891 0.36677426 1.32736330
v -0.41844528 0.20732113 1.34110433
v -0.40828307 0.20800883 1.34802015
v -0.40828307 0.30497756 1.33479250
v -0.41237678 0.39339891 1.31573625
v -0.42689956 0.40194629 1.32168565
v -0.46280891 0.37807249 1.32573246
v -0.45343661 0.40469713 1.32401109
v -0.46280891 0.39369363 1.32313528
v -0.46280891 0.32934254 1.32213868
v -0.43373132 0.23178436 1.33246710
v -0.41667330 0.19356670 1.33992652
v -0.40828307 0.20152462 1.34693294
v -0.40828307 0.37483037 1.31697445
v -0.40828307 0.37817073 1.31585703
v -0.40828307 0.39703399 1.30770302
v -0.40828307 0.40322343 1.30235761
v -0.41869613 0.40970767 1.30888082
v -0.43496420 0.41835337 1.31830326
v -0.46280891 0.40047259 1.32126287
v -0.44665823 0.41835337 1.31830326
v -0.46280891 0.41432524 1.31298803
v -0.46280891 0.30704075 1.31800126
v -0.44714395 0.25614933 1.32398087
v -0.46280891 -0.05401300 1.24322583
v -0.42700097 -0.06098846 1.25421867
v -0.40828307 -0.06177443 1.25983590
v -0.40828307 0.40931470 1.29625718
v -0.41239277 0.41815681 1.29260297
v -0.41953943 0.43446565 1.28381474
v -0.43579682 0.44124461 1.29202919
v -0.44293279 0.44124461 1.29202919
v -0.46280891 0.46560962 1.24449424
v -0.46280891 -0.30139621 1.14721974
v -0.43962901 -0.34197179 1.14320314
v -0.40828307 -0.08397801 1.25222544
v -0.40828307 0.42169373 1.28296914
v -0.40828307 0.42709723 1.27677814
v -0.41325207 0.44104813 1.26753692
v -0.42740661 0.44635339 1.27626472
v -0.43578083 0.46531489 1.24814845
v -0.45139775 0.46629731 1.24839006
v -0.45139775 0.45902714 1.26059089
v -0.45139775 0.47032544 1.22836739
v -0.46280891 0.46649387 1.24005483
v -0.46280891 -0.48403535 1.05308606
v -0.46280891 -0.49287746 1.04822382
v -0.46280891 -0.49857576 1.04490182
v -0.40828307 -0.37881400 1.12559648
v -0.43672553 -0.34197179 1.14320314
v -0.40828307 0.43151833 1.27158373
v -0.40828307 0.44399552 1.25276905
v -0.40890217 0.44458497 1.25276905
v -0.42739059 0.45804465 1.25488306
v -0.40828307 0.48771493 1.10638922
v -0.40830440 0.50225534 1.04197243
v -0.46280891 0.46845877 1.22836739
v -0.46280891 -0.50142492 1.04197243
v -0.43552999 -0.49081431 1.04761983
v -0.45139775 -0.49238625 1.04819365
v -0.40828307 -0.38480696 1.12106645
v -0.40828307 0.44478145 1.25080603
v -0.40828307 0.44969375 1.23570602
v -0.40828307 0.50215710 1.04203282
v -0.46280891 0.46236750 1.18010763
v -0.46280891 0.46639555 1.18660066
v -0.46280891 0.46924470 1.20393551
v -0.40828307 0.48899214 1.04197243
v -0.46280891 0.37374971 1.04197243
v -0.44111277 -0.49680734 1.04197243
v -0.43364591 -0.49277922 1.04197243
v -0.41131466 -0.46753003 1.04912985
v -0.40828307 -0.46134052 1.05067005
v -0.40828307 -0.46861076 1.04197243
v -0.41453303 -0.47509500 1.04197243
v -0.40995899 -0.47037918 1.04197243
v -0.40921174 -0.46959318 1.04197243
v -0.40828307 -0.46595809 1.04626085
f 1 2 7
f 1 7 17
f 1 17 31
f 1 31 40
f 1 40 53
f 1 53 65
f 1 65 77
f 1 77 82
f 1 82 78
f 1 78 72
f 1 72 68
f 1 68 59
f 1 59 67
f 1 67 66
f 1 66 56
f 1 56 55
f 1 55 42
f 1 42 41
f 1 41 32
f 1 32 21
f 1 21 20
f 1 20 19
f 1 19 18
f 1 18 8
f 1 8 3
f 1 3 4
f 1 4 5
f 1 5 2
f 2 5 6
f 2 6 7
f 3 8 9
f 3 9 10
f 3 10 4
f 4 11 5
f 4 10 12
f 4 12 13
f 4 13 11
f 5 11 13
f 5 13 24
f 5 24 26
f 5 26 37
f 5 37 49
f 5 49 61
f 5 61 71
f 5 71 70
f 5 70 69
f 5 69 73
f 5 73 62
f 5 62 52
f 5 52 51
f 5 51 50
f 5 50 38
f 5 38 29
f 5 29 27
f 5 27 14
f 5 14 15
f 5 15 6
f 6 15 16
f 6 16 17
f 6 17 7
f 8 18 9
f 9 18 19
f 9 19 20
f 9 20 21
f 9 21 22
f 9 22 23
f 9 23 10
f 10 23 12
f 12 24 13
f 12 23 25
f 12 25 26
f 12 26 24
f 14 27 28
f 14 28 15
f 15 28 29
f 15 29 16
f 16 29 17
f 17 29 30
f 17 30 31
f 21 32 33
f 21 33 22
f 22 33 34
f 22 34 23
f 23 34 35
f 23 35 36
f 23 36 25
f 25 36 26
f 26 36 37
f 27 29 28
f 29 38 39
f 29 39 30
f 30 39 40
f 30 40 31
f 32 41 33
f 33 41 34
f 34 42 43
f 34 43 44
f 34 44 35
f 34 41 42
f 35 44 45
f 35 45 46
f 35 46 36
f 36 46 47
f 36 47 37
f 37 47 46
f 37 46 48
f 37 48 49
f 38 50 39
f 39 50 51
f 39 51 52
f 39 52 53
f 39 53 54
f 39 54 40
f 40 54 53
f 42 55 43
f 43 56 57
f 43 57 58
f 43 58 44
f 43 55 56
f 44 58 45
f 45 58 59
f 45 59 60
f 45 60 48
f 45 48 46
f 48 60 61
f 48 61 49
f 52 62 63
f 52 63 64
f 52 64 53
f 53 64 63
f 53 63 65
f 56 66 57
f 57 66 58
f 58 67 59
f 58 66 67
f 59 68 60
f 60 69 70
f 60 70 71
f 60 71 61
f 60 68 72
f 60 72 78
f 60 78 81
f 60 81 80
f 60 80 79
f 60 79 75
f 60 75 74
f 60 74 62
f 60 62 73
f 60 73 69
f 62 74 63
f 63 74 75
f 63 75 76
f 63 76 65
f 65 76 77
f 75 79 76
f 76 79 80
f 76 80 81
f 76 81 78
f 76 78 82
f 76 82 77

