# https://github.com/mikedh/trimesh
v -0.17590827 -0.93764335 0.42324477
v -0.18301475 -0.93615119 0.42324477
v -0.28058596 -0.91200157 0.32564162
v -0.17590827 -0.93689727 0.40587321
v -0.17590827 -0.93662240 0.44760079
v -0.22191526 -0.92782646 0.48529890
v -0.22191526 -0.92782646 0.48189622
v -0.29756073 -0.90587583 0.32564162
v -0.29717342 -0.90548315 0.30782237
v -0.27972712 -0.90740726 0.30030063
v -0.25620159 -0.91608539 0.32564162
v -0.18301475 -0.93363806 0.37444320
v -0.17590827 -0.93552291 0.38151718
v -0.17590827 -0.93658313 0.39879923
v -0.25620159 -0.91785250 0.47204635
v -0.17590827 -0.86409514 0.74094750
v -0.18301475 -0.86601925 0.74032070
v -0.21624016 -0.92782646 0.48529890
v -0.20741597 -0.87175232 0.71596466
v -0.23180036 -0.87026015 0.71596466
v -0.30498718 -0.86664754 0.69151912
v -0.34259101 -0.85451379 0.70450301
v -0.34459497 -0.88015558 0.34086413
v -0.34425818 -0.88011631 0.32564162
v -0.34792930 -0.87355863 0.54511439
v -0.34213632 -0.87889901 0.31274725
v -0.30517242 -0.89621601 0.30030063
v -0.28728829 -0.90128152 0.29152531
v -0.25620159 -0.91133402 0.30119608
v -0.27102081 -0.90336270 0.28812263
v -0.17590827 -0.93218516 0.36101158
v -0.17590827 -0.93473756 0.37444320
v -0.17590827 -0.85561328 0.75437912
v -0.18301475 -0.85683057 0.75581182
v -0.20076415 -0.85753739 0.75670727
v -0.20829166 -0.86385954 0.74157431
v -0.30278114 -0.85899036 0.71659147
v -0.32938843 -0.85690911 0.70817433
v -0.33472671 -0.82863647 0.75070782
v -0.34792930 -0.83220981 0.73620166
v -0.34792930 -0.84823098 0.70987567
v -0.34792930 -0.87724978 0.34426681
v -0.34792930 -0.87724978 0.32564162
v -0.34792930 -0.87560054 0.31794082
v -0.34792930 -0.86978894 0.30746416
v -0.34792930 -0.84650320 0.27218379
v -0.33816208 -0.85145092 0.26842290
v -0.31854341 -0.87952729 0.28767491
v -0.30259590 -0.88306137 0.27845183
v -0.24505347 -0.80601828 0.11754101
v -0.18301475 -0.91718496 0.30119608
v -0.17590827 -0.83413392 0.13643478
v -0.18301475 -0.83354491 0.13706161
v -0.17590827 -0.91608539 0.30119608
v -0.20741597 -0.83621510 0.78500323
v -0.17590827 -0.66657903 0.93033341
v -0.23180036 -0.82718357 0.79664397
v -0.34203527 -0.80558634 0.77739198
v -0.34792930 -0.82604481 0.74506653
v -0.29422640 -0.80558634 0.80174799
v -0.34792930 -0.83676485 0.25955803
v -0.34306251 -0.80668583 0.21398003
v -0.32189457 -0.85698764 0.25973713
v -0.26947154 -0.75775838 0.09282674
v -0.25620159 -0.76211715 0.09112543
v -0.23180036 -0.77676395 0.09596087
v -0.23180036 -0.79298145 0.10688525
v -0.23180036 -0.80747118 0.11691419
v -0.17590827 -0.82109709 0.12425678
v -0.17590827 -0.65106827 0.94260096
v -0.20741597 -0.65067560 0.94089962
v -0.23180036 -0.81497136 0.80658337
v -0.25620159 -0.81163354 0.80694154
v -0.34792930 -0.79298145 0.78070511
v -0.34792930 -0.80837433 0.76834801
v -0.31049390 -0.80091350 0.79780804
v -0.34792930 -0.56412979 0.95012266
v -0.22144373 -0.63673561 0.94904815
v -0.34792930 -0.80315175 0.21756181
v -0.34772721 -0.79298145 0.20977149
v -0.27351314 -0.74417180 0.08826007
v -0.26982518 -0.71118698 0.06829164
v -0.25620159 -0.72803283 0.07097798
v -0.25620159 -0.74417180 0.08046967
v -0.24160127 -0.73125277 0.06981391
v -0.17590827 -0.81245816 0.11843642
v -0.22533378 -0.73329469 0.06847082
v -0.20741597 -0.73470832 0.06721716
v -0.17590827 -0.64753419 0.94483958
v -0.20741597 -0.63846339 0.94994360
v -0.34792930 -0.54268967 0.96498700
v -0.20741597 -0.62220662 0.95719668
v -0.34792930 -0.53648539 0.96928512
v -0.34792930 -0.79278511 0.20995056
v -0.27630859 -0.71951177 0.08020105
v -0.34792930 -0.53648539 0.19016131
v -0.26982518 -0.70498270 0.06829164
v -0.23180036 -0.69540142 0.05790457
v -0.25620159 -0.71585989 0.06596351
v -0.34792930 -0.77621420 0.20636881
v -0.23281076 -0.72182856 0.06381448
v -0.20741597 -0.71982591 0.05906864
v -0.18301475 -0.73482612 0.06703806
v -0.17590827 -0.73462978 0.06730675
v -0.17590827 -0.63889533 0.95021221
v -0.17590827 -0.62220662 0.95782347
v -0.17590827 -0.61513838 0.95916664
v -0.17590827 -0.59782139 0.96149480
v -0.17590827 -0.53648539 0.96221114
v -0.34792930 -0.79231390 0.20977149
v -0.18375571 -0.53648539 0.11154151
v -0.18301475 -0.55706159 0.08834958
v -0.19586371 -0.56047791 0.09282674
v -0.18301475 -0.57343624 0.07832065
v -0.24847200 -0.67871271 0.06650075
v -0.25645419 -0.69626531 0.06488903
v -0.20741597 -0.69540142 0.05450189
v -0.17590827 -0.57331843 0.07635065
v -0.18301475 -0.71982591 0.05888953
v -0.17590827 -0.72398828 0.06148628
v -0.17590827 -0.53648539 0.10867614
v -0.17590827 -0.55627624 0.08611097
v -0.18301475 -0.69540142 0.05647181
v -0.17590827 -0.69540142 0.05880002
v -0.17590827 -0.71982591 0.05987457
v -0.17590827 -0.70250885 0.05817319
f 1 2 3
f 1 3 4
f 1 4 14
f 1 14 13
f 1 13 32
f 1 32 31
f 1 31 54
f 1 54 52
f 1 52 69
f 1 69 86
f 1 86 104
f 1 104 120
f 1 120 125
f 1 125 126
f 1 126 124
f 1 124 118
f 1 118 122
f 1 122 121
f 1 121 109
f 1 109 108
f 1 108 107
f 1 107 106
f 1 106 105
f 1 105 89
f 1 89 70
f 1 70 56
f 1 56 33
f 1 33 16
f 1 16 5
f 1 5 6
f 1 6 2
f 2 6 7
f 2 7 3
f 3 8 9
f 3 9 10
f 3 10 11
f 3 11 12
f 3 12 13
f 3 13 14
f 3 14 4
f 3 7 6
f 3 6 15
f 3 15 8
f 5 16 17
f 5 17 18
f 5 18 6
f 6 18 17
f 6 17 19
f 6 19 20
f 6 20 21
f 6 21 22
f 6 22 15
f 8 23 24
f 8 24 9
f 8 15 25
f 8 25 23
f 9 26 27
f 9 27 28
f 9 28 10
f 9 24 26
f 10 29 11
f 10 28 30
f 10 30 29
f 11 29 31
f 11 31 32
f 11 32 12
f 12 32 13
f 15 22 25
f 16 33 34
f 16 34 17
f 17 34 35
f 17 35 36
f 17 36 20
f 17 20 19
f 20 36 37
f 20 37 21
f 21 37 38
f 21 38 22
f 22 38 39
f 22 39 40
f 22 40 41
f 22 41 25
f 23 42 43
f 23 43 24
f 23 25 42
f 24 43 44
f 24 44 26
f 25 41 40
f 25 40 59
f 25 59 75
f 25 75 74
f 25 74 77
f 25 77 91
f 25 91 93
f 25 93 96
f 25 96 100
f 25 100 110
f 25 110 94
f 25 94 79
f 25 79 61
f 25 61 46
f 25 46 45
f 25 45 44
f 25 44 43
f 25 43 42
f 26 44 45
f 26 45 46
f 26 46 47
f 26 47 48
f 26 48 27
f 27 48 28
f 28 48 49
f 28 49 50
f 28 50 30
f 29 51 31
f 29 30 52
f 29 52 51
f 30 50 53
f 30 53 52
f 31 51 54
f 33 55 34
f 33 56 55
f 34 55 35
f 35 55 57
f 35 57 37
f 35 37 36
f 37 39 38
f 37 57 39
f 39 58 59
f 39 59 40
f 39 57 60
f 39 60 58
f 46 61 62
f 46 62 47
f 47 63 48
f 47 62 63
f 48 63 50
f 48 50 49
f 50 64 65
f 50 65 66
f 50 66 67
f 50 67 68
f 50 68 52
f 50 52 53
f 50 63 62
f 50 62 64
f 51 52 54
f 52 68 69
f 55 56 57
f 56 70 71
f 56 71 72
f 56 72 57
f 57 72 73
f 57 73 60
f 58 74 75
f 58 75 59
f 58 60 76
f 58 76 77
f 58 77 74
f 60 73 78
f 60 78 77
f 60 77 76
f 61 79 62
f 62 79 80
f 62 80 64
f 64 81 82
f 64 82 83
f 64 83 84
f 64 84 65
f 64 80 81
f 65 84 85
f 65 85 66
f 66 86 67
f 66 85 87
f 66 87 88
f 66 88 86
f 67 86 69
f 67 69 68
f 70 89 90
f 70 90 71
f 71 90 78
f 71 78 73
f 71 73 72
f 77 78 91
f 78 90 92
f 78 92 93
f 78 93 91
f 79 94 80
f 80 94 95
f 80 95 81
f 81 95 82
f 82 96 97
f 82 97 98
f 82 98 99
f 82 99 83
f 82 95 100
f 82 100 96
f 83 99 101
f 83 101 85
f 83 85 84
f 85 101 102
f 85 102 87
f 86 88 103
f 86 103 104
f 87 102 88
f 88 102 103
f 89 105 90
f 90 105 106
f 90 106 92
f 92 106 107
f 92 107 93
f 93 107 108
f 93 108 109
f 93 109 121
f 93 121 111
f 93 111 96
f 94 110 95
f 95 110 100
f 96 111 112
f 96 112 113
f 96 113 114
f 96 114 115
f 96 115 97
f 97 115 116
f 97 116 98
f 98 117 102
f 98 102 99
f 98 116 115
f 98 115 118
f 98 118 117
f 99 102 101
f 102 117 119
f 102 119 103
f 103 119 120
f 103 120 104
f 111 121 122
f 111 122 112
f 112 122 114
f 112 114 113
f 114 122 118
f 114 118 115
f 117 123 119
f 117 118 123
f 118 124 123
f 119 125 120
f 119 123 125
f 123 124 126
f 123 126 125

