# https://github.com/mikedh/trimesh
v -0.46282814 -0.04825760 1.24395141
v -0.46282814 -0.03664564 1.24372896
v -0.46638560 -0.03664564 1.24251570
v -0.46669330 -0.05219735 1.24267747
v -0.46282814 -0.05406356 1.24322343
v -0.46282814 -0.02368589 1.24116086
v -0.46423192 -0.02384139 1.24103954
v -0.65789391 -0.05344150 1.11819498
v -0.65924000 -0.17858097 1.14173257
v -0.65924000 -0.19345878 1.14294586
v -0.65902846 -0.19366613 1.14306719
v -0.65902846 -0.19548049 1.14306719
v -0.46853934 -0.29905493 1.14692949
v -0.46282814 -0.30143953 1.14717211
v -0.46282814 0.01985893 1.20213371
v -0.65924000 0.01985893 1.05560994
v -0.65924000 -0.05442644 1.11728499
v -0.65924000 -0.19573970 1.14268299
v -0.58664795 -0.41574463 1.07031084
v -0.52567071 -0.44985476 1.06580151
v -0.50021060 -0.47577426 1.05573127
v -0.47580814 -0.49355504 1.04824938
v -0.46282814 -0.48406851 1.05306206
v -0.46282814 0.01985893 1.03737031
v -0.65924000 0.01985893 1.03737031
v -0.65924000 -0.21958567 1.11890270
v -0.61039661 -0.41538177 1.04624747
v -0.59535902 -0.42372787 1.05530664
v -0.58780176 -0.44166416 1.04810784
v -0.56259166 -0.46468070 1.04646991
v -0.54901551 -0.46908703 1.04950311
v -0.54901551 -0.45135805 1.06003841
v -0.52301697 -0.47707023 1.05146456
v -0.50021060 -0.50413023 1.04121238
v -0.47580814 -0.50573722 1.04117191
v -0.46282814 -0.49863528 1.04491288
v -0.46282814 -0.49293298 1.04820895
v -0.46282814 -0.50578907 1.03737031
v -0.65924000 -0.27173575 1.03737031
v -0.61041580 -0.41548546 1.03737031
v -0.58980165 -0.44425611 1.03737031
v -0.56503382 -0.46639142 1.03737031
v -0.52578607 -0.49417714 1.03737031
v -0.50430654 -0.50692954 1.03737031
v -0.50021060 -0.50858837 1.03737031
v -0.48342310 -0.50967699 1.03737031
v -0.47580814 -0.50962515 1.03737031
v -0.47086614 -0.50817366 1.03737031
v -0.46282814 -0.50578907 1.03739052
f 1 2 3
f 1 3 4
f 1 4 5
f 1 5 14
f 1 14 23
f 1 23 37
f 1 37 36
f 1 36 49
f 1 49 38
f 1 38 24
f 1 24 15
f 1 15 6
f 1 6 2
f 2 6 7
f 2 7 3
f 3 7 8
f 3 8 9
f 3 9 10
f 3 10 11
f 3 11 4
f 4 11 12
f 4 12 5
f 5 12 13
f 5 13 14
f 6 15 7
f 7 15 16
f 7 16 8
f 8 17 9
f 8 16 17
f 9 17 16
f 9 16 25
f 9 25 39
f 9 39 26
f 9 26 18
f 9 18 10
f 10 18 12
f 10 12 11
f 12 18 19
f 12 19 13
f 13 19 14
f 14 19 20
f 14 20 21
f 14 21 22
f 14 22 23
f 15 24 25
f 15 25 16
f 18 26 27
f 18 27 19
f 19 27 28
f 19 28 29
f 19 29 30
f 19 30 31
f 19 31 32
f 19 32 20
f 20 32 33
f 20 33 34
f 20 34 21
f 21 34 22
f 22 34 35
f 22 35 36
f 22 36 37
f 22 37 23
f 24 38 48
f 24 48 47
f 24 47 46
f 24 46 45
f 24 45 44
f 24 44 43
f 24 43 42
f 24 42 41
f 24 41 40
f 24 40 39
f 24 39 25
f 26 39 27
f 27 40 41
f 27 41 29
f 27 29 28
f 27 39 40
f 29 41 42
f 29 42 30
f 30 42 43
f 30 43 44
f 30 44 31
f 31 44 34
f 31 34 33
f 31 33 32
f 34 44 45
f 34 45 46
f 34 46 35
f 35 46 47
f 35 47 36
f 36 47 48
f 36 48 49
f 38 49 48

