# https://github.com/mikedh/trimesh
v -0.84888711 0.38531779 0.39898440
v -0.86308851 0.38531779 0.40272020
v -0.97712470 0.43838644 0.41041366
v -0.96379118 0.45142040 0.40382980
v -0.96379118 0.47582442 0.40112972
v -0.93935884 0.52327105 0.40830536
v -0.94744758 0.54041439 0.40989584
v -0.93119628 0.53053177 0.41207814
v -0.87605261 0.53988493 0.43393802
v -0.84888711 0.39946102 0.40323803
v -0.84888711 0.38531779 0.77685332
v -1.03751304 0.38531779 0.47092597
v -0.98068889 0.45142040 0.40749165
v -0.98231398 0.47582442 0.40549431
v -0.96467768 0.50103518 0.40542028
v -0.95725378 0.52458200 0.40789850
v -0.95359725 0.54041439 0.40989584
v -0.93935884 0.54873392 0.41474128
v -0.89060495 0.55654925 0.43837657
v -0.87232220 0.56514612 0.45468827
v -0.86606179 0.54883477 0.44773453
v -0.85226666 0.54149843 0.45701851
v -0.92026360 0.56499487 0.43086803
v -0.84888711 0.41030163 0.41292886
v -0.85145403 0.52458200 0.45524307
v -0.84888711 0.53975891 0.77685332
v -0.91001419 0.38531779 0.77685332
v -1.03751304 0.45202544 0.47569742
v -1.00438257 0.45142040 0.42986934
v -0.99289586 0.45142040 0.41766333
v -1.03751304 0.38531779 0.76649669
v -0.97928536 0.49344672 0.40775056
v -1.00360688 0.47148816 0.43105297
v -0.99562903 0.47809339 0.42302655
v -0.95845414 0.56721341 0.42879670
v -0.93941425 0.56857479 0.42705825
v -0.86925665 0.56640668 0.47199861
v -0.85704966 0.55536435 0.47199861
v -0.89060495 0.56784369 0.45058259
v -0.95080868 0.63465217 0.58148296
v -0.92593303 0.63555976 0.60334284
v -0.92366155 0.63775314 0.61835995
v -0.85197114 0.54316236 0.47199861
v -0.84888711 0.55236427 0.59394790
v -0.84888711 0.54522961 0.57734031
v -0.84888711 0.54369178 0.57441826
v -0.84888711 0.45731973 0.45516912
v -0.84888711 0.46279043 0.46112415
v -0.96379118 0.61433230 0.70879549
v -0.85208196 0.53953200 0.77685332
v -0.84888711 0.55647362 0.63533742
v -0.90094666 0.61264321 0.66714705
v -0.92163018 0.63929098 0.64273501
v -0.91197174 0.62482001 0.66714705
v -0.92417865 0.63687071 0.66714705
v -0.92713345 0.63442529 0.67942706
v -0.93941425 0.63533288 0.68098055
v -0.93941425 0.62499650 0.69318657
v -0.91596068 0.40319220 0.77685332
v -1.03751304 0.47716057 0.49448729
v -1.02502908 0.46400056 0.45938573
v -0.91915552 0.42757103 0.77685332
v -0.91910011 0.44035287 0.77685332
v -0.91712409 0.45142040 0.77685332
v -0.91380002 0.46430310 0.77685332
v -0.90933086 0.47453866 0.77685332
v -0.89631134 0.49354758 0.77685332
v -0.86415964 0.53333016 0.77685332
v -1.00379159 0.56623019 0.73150609
v -1.03751304 0.40208293 0.76191018
v -1.00030122 0.48777430 0.43556548
v -0.93941425 0.57754983 0.44758657
v -1.03751304 0.50106037 0.52041586
v -1.03751304 0.51885919 0.54508681
v -0.97729085 0.61153390 0.57930067
v -0.95197209 0.63465217 0.58148296
v -0.84888711 0.55614589 0.62246561
v -0.84888711 0.55536435 0.61503103
v -0.84888711 0.55367523 0.60175236
v -0.93941425 0.64067756 0.61835995
v -0.94137181 0.63626570 0.59472465
v -0.93941425 0.64284571 0.64273501
v -0.95415122 0.63561023 0.68146140
v -0.97799266 0.61211375 0.70635428
v -0.96379118 0.59779408 0.71944802
v -0.85747442 0.53910340 0.77685332
v -0.84888711 0.55647362 0.63189754
v -0.93941425 0.63964395 0.66714705
v -1.03751304 0.51298506 0.72773332
v -1.03751304 0.50032927 0.73217188
v -1.03751304 0.47579919 0.73968043
v -1.03751304 0.40261238 0.76176224
v -1.00656170 0.57091940 0.71593417
v -1.03021844 0.54099424 0.71127368
v -1.03751304 0.52548959 0.71926308
v -1.03751304 0.52506103 0.71959597
v -1.03751304 0.51890959 0.54523477
v -1.03751304 0.52639718 0.56957284
v -1.03751304 0.53612856 0.61835995
v -0.97917454 0.61423151 0.69155910
v -0.96811258 0.62537463 0.66714705
v -0.95553627 0.63792956 0.64273501
v -0.95477913 0.63732455 0.61835995
v -0.95352336 0.63583710 0.59394790
v -0.95590568 0.63717329 0.66714705
v -1.03751304 0.53610332 0.70036224
v -1.03751304 0.53698572 0.69155910
f 1 2 3
f 1 3 4
f 1 4 5
f 1 5 6
f 1 6 7
f 1 7 8
f 1 8 9
f 1 9 10
f 1 10 24
f 1 24 47
f 1 47 48
f 1 48 46
f 1 46 45
f 1 45 44
f 1 44 79
f 1 79 78
f 1 78 77
f 1 77 87
f 1 87 51
f 1 51 26
f 1 26 11
f 1 11 27
f 1 27 31
f 1 31 12
f 1 12 2
f 2 12 3
f 3 13 4
f 3 12 13
f 4 13 5
f 5 13 14
f 5 14 15
f 5 15 16
f 5 16 17
f 5 17 7
f 5 7 6
f 7 17 18
f 7 18 8
f 8 18 9
f 9 19 20
f 9 20 21
f 9 21 22
f 9 22 10
f 9 18 23
f 9 23 19
f 10 22 25
f 10 25 24
f 11 26 50
f 11 50 86
f 11 86 68
f 11 68 67
f 11 67 66
f 11 66 65
f 11 65 64
f 11 64 63
f 11 63 62
f 11 62 59
f 11 59 27
f 12 28 29
f 12 29 30
f 12 30 13
f 12 31 70
f 12 70 92
f 12 92 91
f 12 91 90
f 12 90 89
f 12 89 96
f 12 96 95
f 12 95 106
f 12 106 107
f 12 107 99
f 12 99 98
f 12 98 97
f 12 97 74
f 12 74 73
f 12 73 60
f 12 60 28
f 13 30 14
f 14 32 15
f 14 30 29
f 14 29 33
f 14 33 34
f 14 34 32
f 15 32 17
f 15 17 16
f 17 32 35
f 17 35 36
f 17 36 18
f 18 36 23
f 19 23 20
f 20 37 38
f 20 38 22
f 20 22 21
f 20 23 36
f 20 36 39
f 20 39 40
f 20 40 41
f 20 41 42
f 20 42 37
f 22 38 43
f 22 43 44
f 22 44 45
f 22 45 46
f 22 46 25
f 24 25 47
f 25 46 48
f 25 48 47
f 26 49 50
f 26 51 52
f 26 52 53
f 26 53 54
f 26 54 55
f 26 55 56
f 26 56 57
f 26 57 58
f 26 58 49
f 27 59 31
f 28 60 61
f 28 61 29
f 29 61 33
f 31 59 62
f 31 62 63
f 31 63 64
f 31 64 65
f 31 65 66
f 31 66 67
f 31 67 68
f 31 68 69
f 31 69 70
f 32 34 71
f 32 71 35
f 33 61 71
f 33 71 34
f 35 72 36
f 35 71 61
f 35 61 60
f 35 60 73
f 35 73 74
f 35 74 75
f 35 75 76
f 35 76 72
f 36 72 39
f 37 42 38
f 38 42 53
f 38 53 77
f 38 77 78
f 38 78 79
f 38 79 43
f 39 72 40
f 40 76 80
f 40 80 81
f 40 81 41
f 40 72 76
f 41 81 80
f 41 80 42
f 42 80 82
f 42 82 53
f 43 79 44
f 49 58 57
f 49 57 83
f 49 83 84
f 49 84 69
f 49 69 85
f 49 85 86
f 49 86 50
f 51 87 53
f 51 53 52
f 53 82 55
f 53 55 54
f 53 87 77
f 55 82 88
f 55 88 56
f 56 88 57
f 57 88 83
f 68 86 69
f 69 89 90
f 69 90 91
f 69 91 92
f 69 92 70
f 69 86 85
f 69 84 93
f 69 93 94
f 69 94 95
f 69 95 96
f 69 96 89
f 74 97 75
f 75 97 98
f 75 98 99
f 75 99 100
f 75 100 101
f 75 101 102
f 75 102 103
f 75 103 104
f 75 104 76
f 76 104 80
f 80 104 82
f 82 104 103
f 82 103 102
f 82 102 105
f 82 105 83
f 82 83 88
f 83 105 100
f 83 100 84
f 84 100 106
f 84 106 93
f 93 106 94
f 94 106 95
f 99 107 100
f 100 107 106
f 100 105 101
f 101 105 102

