# https://github.com/mikedh/trimesh
v 0.86268871 -0.38769447 0.48896154
v 0.86268871 -0.23301588 0.35887274
v 0.86621057 -0.38769447 0.48966727
v 0.86268871 -0.38769447 0.78513115
v 0.86268871 -0.22959998 0.35734370
v 0.86474975 -0.22939563 0.35834346
v 0.87841806 -0.21964428 0.36216612
v 0.95545693 -0.29730473 0.47778756
v 0.88804369 -0.38769447 0.50072363
v 0.87562096 -0.38769447 0.77231047
v 0.90367116 -0.36667360 0.77754460
v 0.86268871 -0.38319833 0.78948312
v 0.86268871 -0.21380514 0.35787298
v 0.86621057 -0.21465182 0.35857870
v 0.87841806 -0.21958588 0.36216612
v 0.97837719 -0.27178772 0.48119857
v 0.96188911 -0.27917422 0.47137720
v 0.90025125 -0.38769447 0.51413243
v 0.88326484 -0.38769447 0.76448867
v 0.90788378 -0.36979751 0.76472391
v 0.92497207 -0.36413357 0.74637503
v 0.93198176 -0.34787160 0.75837237
v 0.95882019 -0.08943165 0.88563826
v 0.94809615 -0.08943165 0.89516557
v 0.86268871 -0.15877133 0.92280649
v 0.86268871 -0.37505275 0.79471725
v 0.86268871 -0.08943165 0.43485590
v 0.87990156 -0.08943165 0.43614973
v 0.90404486 -0.09623424 0.43450304
v 0.92973959 -0.08943165 0.45726270
v 0.88644697 -0.20983453 0.37428111
v 0.97801483 -0.25619723 0.48190429
v 0.97837719 -0.26697043 0.48149262
v 0.97837719 -0.27161255 0.48119857
v 0.97837719 -0.28069239 0.49637166
v 0.90556226 -0.38769447 0.52630619
v 0.89347935 -0.38769447 0.74031756
v 0.91223229 -0.38769447 0.69185772
v 0.92773519 -0.36649842 0.73014334
v 0.93420133 -0.35511210 0.73908254
v 0.95254655 -0.34287913 0.70667796
v 0.96033767 -0.08943165 0.88375633
v 0.86390040 -0.08943165 0.95744586
v 0.86268871 -0.09424894 0.95626965
v 0.86268871 -0.10572283 0.95050623
v 0.86268871 -0.08943165 0.95803397
v 0.89691060 -0.08943165 0.43861977
v 0.91088469 -0.08943165 0.44303055
v 0.94498201 -0.08943165 0.47637609
v 0.97837719 -0.25619723 0.48255121
v 0.97837719 -0.08943165 0.52236591
v 0.97837719 -0.30375697 0.55712290
v 0.91975160 -0.38769447 0.60540631
v 0.91908346 -0.38769447 0.66715732
v 0.95466424 -0.34501041 0.69156367
v 0.97837719 -0.17550043 0.75819594
v 0.97837719 -0.30352340 0.64039855
v 0.97837719 -0.15862534 0.76842897
v 0.97837719 -0.14344362 0.76542964
v 0.97837719 -0.13421778 0.76319484
v 0.97837719 -0.12455402 0.75601996
v 0.97837719 -0.08943165 0.72690877
v 0.86268871 -0.09057028 0.95762229
v 0.97837719 -0.30877860 0.58082353
v 0.97837719 -0.31090988 0.59399706
v 0.92097456 -0.38769447 0.61840342
v 0.92143886 -0.38769447 0.64280978
v 0.95572867 -0.34647018 0.66715732
v 0.97837719 -0.31277840 0.61840342
v 0.97837719 -0.31064712 0.62404923
f 1 2 3
f 1 3 9
f 1 9 18
f 1 18 36
f 1 36 53
f 1 53 66
f 1 66 67
f 1 67 54
f 1 54 38
f 1 38 37
f 1 37 19
f 1 19 10
f 1 10 4
f 1 4 12
f 1 12 26
f 1 26 25
f 1 25 45
f 1 45 44
f 1 44 63
f 1 63 46
f 1 46 27
f 1 27 13
f 1 13 5
f 1 5 2
f 2 5 6
f 2 6 7
f 2 7 8
f 2 8 9
f 2 9 3
f 4 10 11
f 4 11 12
f 5 13 14
f 5 14 15
f 5 15 7
f 5 7 6
f 7 15 34
f 7 34 16
f 7 16 17
f 7 17 8
f 8 17 16
f 8 16 18
f 8 18 9
f 10 19 11
f 11 19 20
f 11 20 21
f 11 21 22
f 11 22 23
f 11 23 24
f 11 24 25
f 11 25 26
f 11 26 12
f 13 27 28
f 13 28 29
f 13 29 14
f 14 29 15
f 15 29 30
f 15 30 31
f 15 31 32
f 15 32 33
f 15 33 34
f 16 34 33
f 16 33 50
f 16 50 51
f 16 51 62
f 16 62 61
f 16 61 60
f 16 60 59
f 16 59 58
f 16 58 56
f 16 56 57
f 16 57 70
f 16 70 69
f 16 69 65
f 16 65 64
f 16 64 52
f 16 52 35
f 16 35 18
f 18 35 36
f 19 21 20
f 19 37 21
f 21 37 38
f 21 38 39
f 21 39 40
f 21 40 22
f 22 40 41
f 22 41 42
f 22 42 23
f 23 42 62
f 23 62 51
f 23 51 49
f 23 49 30
f 23 30 48
f 23 48 47
f 23 47 28
f 23 28 27
f 23 27 46
f 23 46 43
f 23 43 24
f 24 43 44
f 24 44 45
f 24 45 25
f 28 47 29
f 29 47 48
f 29 48 30
f 30 49 31
f 31 49 32
f 32 50 33
f 32 49 51
f 32 51 50
f 35 52 36
f 36 52 53
f 38 54 39
f 39 55 41
f 39 41 40
f 39 54 55
f 41 56 42
f 41 55 57
f 41 57 56
f 42 56 58
f 42 58 59
f 42 59 60
f 42 60 61
f 42 61 62
f 43 46 63
f 43 63 44
f 52 64 53
f 53 65 66
f 53 64 65
f 54 67 68
f 54 68 55
f 55 68 69
f 55 69 70
f 55 70 57
f 65 69 68
f 65 68 66
f 66 68 67

