# https://github.com/mikedh/trimesh
v -0.65925919 -0.25622795 0.16562421
v -0.67387915 -0.25622795 0.16932031
v -0.74774108 -0.13418237 0.16163623
v -0.65925919 -0.12117791 0.15054787
v -0.65925919 -0.25622795 1.04452496
v -0.69540200 -0.25622795 0.17593442
v -0.74774108 -0.14367808 0.16406791
v -0.74774108 -0.12218391 0.16465154
v -0.67100369 -0.06101391 0.15871828
v -0.65925919 -0.07279152 0.15366040
v -0.65925919 -0.08628672 0.15161776
v -0.65925919 -0.09840785 0.14996424
v -0.65925919 -0.10981741 0.14928338
v -0.65925919 -0.21974186 1.11854482
v -0.74774108 -0.25622795 0.99277914
v -0.71979165 -0.25622795 0.18429935
v -0.74774108 -0.15670707 0.16747226
v -0.74774108 -0.11212387 0.16834763
v -0.68458430 -0.04749418 0.16591595
v -0.67100369 -0.04388728 0.16387339
v -0.65925919 -0.03998595 0.16280342
v -0.65925919 -0.06101391 0.15667564
v -0.65925919 -0.21957012 1.11883664
v -0.74774108 -0.25406871 0.99365451
v -0.74774108 -0.25622795 0.19752765
v -0.68727791 -0.20052963 1.12272725
v -0.69152186 -0.18298588 1.12476989
v -0.71188412 -0.15859638 1.10191225
v -0.73442894 -0.25622795 0.18984357
v -0.74774108 -0.25495205 0.19704131
v -0.74774108 -0.08020161 0.18478569
v -0.74774108 -0.07234986 0.19071894
v -0.74774108 -0.00556095 0.24509099
v -0.71979165 -0.00556095 0.22972283
v -0.65925919 -0.02884628 0.17457271
v -0.65925919 -0.19572043 1.14266696
v -0.66725342 -0.20609946 1.12885510
v -0.74774108 -0.23500369 1.00124133
v -0.74774108 -0.25573722 0.19733306
v -0.69200681 -0.15859638 1.12272725
v -0.70420171 -0.15859638 1.11416780
v -0.65925919 -0.19343851 1.14295870
v -0.66870849 -0.18450716 1.13780360
v -0.71431784 -0.13418237 1.10259310
v -0.74774108 -0.21137484 1.00795271
v -0.74774108 -0.23164217 1.00250579
v -0.74774108 -0.00556095 1.04695664
v -0.70119628 -0.00556095 0.22126067
v -0.66144181 -0.00556095 0.20326631
v -0.65925919 -0.00556095 0.20229371
v -0.65925919 -0.17854474 1.14169428
v -0.65925919 -0.05441353 1.11718311
v -0.69580041 -0.13283285 1.11523777
v -0.74182556 -0.00556095 1.05279260
v -0.74774108 -0.20739991 1.00882812
v -0.65925919 -0.00556095 1.06349192
v -0.65925919 -0.04199796 1.10473297
v -0.71979165 -0.00556095 1.06125476
f 1 2 3
f 1 3 4
f 1 4 13
f 1 13 12
f 1 12 11
f 1 11 10
f 1 10 22
f 1 22 21
f 1 21 35
f 1 35 50
f 1 50 56
f 1 56 57
f 1 57 52
f 1 52 51
f 1 51 42
f 1 42 36
f 1 36 23
f 1 23 14
f 1 14 5
f 1 5 15
f 1 15 25
f 1 25 29
f 1 29 16
f 1 16 6
f 1 6 2
f 2 6 3
f 3 7 17
f 3 17 30
f 3 30 39
f 3 39 25
f 3 25 15
f 3 15 24
f 3 24 38
f 3 38 46
f 3 46 45
f 3 45 55
f 3 55 47
f 3 47 33
f 3 33 32
f 3 32 31
f 3 31 18
f 3 18 8
f 3 8 9
f 3 9 10
f 3 10 11
f 3 11 12
f 3 12 13
f 3 13 4
f 3 6 7
f 5 14 15
f 6 16 17
f 6 17 7
f 8 18 19
f 8 19 9
f 9 19 20
f 9 20 21
f 9 21 22
f 9 22 10
f 14 23 15
f 15 23 26
f 15 26 27
f 15 27 28
f 15 28 24
f 16 29 17
f 17 29 30
f 18 31 19
f 19 21 20
f 19 31 32
f 19 32 33
f 19 33 34
f 19 34 35
f 19 35 21
f 23 36 37
f 23 37 26
f 24 28 38
f 25 39 29
f 26 37 36
f 26 36 27
f 27 40 41
f 27 41 28
f 27 36 42
f 27 42 43
f 27 43 40
f 28 41 44
f 28 44 45
f 28 45 46
f 28 46 38
f 29 39 30
f 33 47 54
f 33 54 58
f 33 58 56
f 33 56 50
f 33 50 49
f 33 49 48
f 33 48 34
f 34 48 35
f 35 48 49
f 35 49 50
f 40 43 51
f 40 51 52
f 40 52 53
f 40 53 44
f 40 44 41
f 42 51 43
f 44 53 54
f 44 54 47
f 44 47 55
f 44 55 45
f 52 57 58
f 52 58 54
f 52 54 53
f 56 58 57

