# https://github.com/mikedh/trimesh
v 0.51180390 -0.62222269 0.94148431
v 0.50018301 -0.62222269 0.94348459
v 0.51180390 -0.64660479 0.93799128
v 0.51180390 -0.61060924 0.94034982
v 0.45138909 -0.64660479 0.94220083
v 0.47578603 -0.64660479 0.94106633
v 0.50018301 -0.64660479 0.93951388
v 0.50018301 -0.59780976 0.94100663
v 0.41821295 -0.57579964 0.94861962
v 0.47578603 -0.67098689 0.93258755
v 0.51180390 -0.66940041 0.92834817
v 0.51180390 -0.59780976 0.93900634
v 0.41516332 -0.58584206 0.94781355
v 0.41363850 -0.58584206 0.94781355
v 0.42699216 -0.64660479 0.94196199
v 0.45138909 -0.67098689 0.93509537
v 0.51180390 -0.58621172 0.93754346
v 0.50018301 -0.57579964 0.93805100
v 0.41791259 -0.57579964 0.94861962
v 0.47578603 -0.68524959 0.92521340
v 0.49091862 -0.68386338 0.92410878
v 0.51180390 -0.67727108 0.92267573
v 0.41306094 -0.58494872 0.94787325
v 0.41680364 -0.64660479 0.94115592
v 0.40259519 -0.64662020 0.93996171
v 0.43454687 -0.68600433 0.92581050
v 0.45138909 -0.68685142 0.92649715
v 0.51180390 -0.57579964 0.93614028
v 0.41680364 -0.57579964 0.94858977
v 0.43967581 -0.70781419 0.89935909
v 0.51180390 -0.68581948 0.90771844
v 0.50718328 -0.68116795 0.92067547
v 0.51180390 -0.68050564 0.91930214
v 0.40019248 -0.58494872 0.94611181
v 0.37822135 -0.64662020 0.93524464
v 0.37822135 -0.66328565 0.92793020
v 0.41419301 -0.70792203 0.89944864
v 0.42699216 -0.70801445 0.89962778
v 0.51180390 -0.57579964 0.64362226
v 0.36077848 -0.58494872 0.92736295
v 0.36983493 -0.58494872 0.93399073
v 0.37937650 -0.58494872 0.93903619
v 0.39051224 -0.58494872 0.94384283
v 0.41680364 -0.57579964 0.66108736
v 0.27580500 -0.58494872 0.86272716
v 0.42699216 -0.71046344 0.88676033
v 0.39584907 -0.73278159 0.75551832
v 0.45138909 -0.71395978 0.83791776
v 0.49105726 -0.70830707 0.82902101
v 0.51180390 -0.69895775 0.84962087
v 0.51180390 -0.69124117 0.88676033
v 0.37822135 -0.62222269 0.93715535
v 0.35913815 -0.62222269 0.92846759
v 0.36082466 -0.64662020 0.92721368
v 0.36359705 -0.66043620 0.92497455
v 0.33786011 -0.66259258 0.90261326
v 0.34153352 -0.68321648 0.87463925
v 0.40975720 -0.70993973 0.88673046
v 0.38891812 -0.73278159 0.75551832
v 0.51180390 -0.58501031 0.64487617
v 0.50253952 -0.57579964 0.64505530
v 0.35976192 -0.59780976 0.92790035
v 0.27580500 -0.58494872 0.68455329
v 0.27580500 -0.59756332 0.86204049
v 0.34693964 -0.62222269 0.91861546
v 0.39709664 -0.73313587 0.74041175
v 0.42699216 -0.72816089 0.74038190
v 0.45138909 -0.72378656 0.74038190
v 0.42699216 -0.72625096 0.76477333
v 0.50018301 -0.71590047 0.71599047
v 0.51180390 -0.71303561 0.71599047
v 0.50503466 -0.70570406 0.81352633
v 0.51180390 -0.70362470 0.81352633
v 0.51180390 -0.70259276 0.82200512
v 0.34862618 -0.64662020 0.91754070
v 0.33501841 -0.64662020 0.90533005
v 0.27580500 -0.60249212 0.85983124
v 0.27580500 -0.61521459 0.85368114
v 0.27580500 -0.64680505 0.83075259
v 0.27580500 -0.66810661 0.81337706
v 0.38817883 -0.73313587 0.74041175
v 0.51180390 -0.60942321 0.64872744
v 0.51180390 -0.63346645 0.65254887
v 0.51180390 -0.65287356 0.65625087
v 0.51180390 -0.66034378 0.65768391
v 0.51180390 -0.67098689 0.65980360
v 0.46337966 -0.70764475 0.67935855
v 0.38658471 -0.71400595 0.70070477
v 0.27580500 -0.66767540 0.78919461
v 0.39386219 -0.73270458 0.72431998
v 0.50018301 -0.71656278 0.69159904
v 0.51180390 -0.71428323 0.69210657
v 0.38891812 -0.73270458 0.72431998
v 0.51180390 -0.69433705 0.66646124
v 0.50018301 -0.69538440 0.66867050
v 0.47578603 -0.70949309 0.67786580
v 0.40259519 -0.71630092 0.69813726
v 0.50018301 -0.71168022 0.67571624
v 0.51180390 -0.71115651 0.67586552
v 0.40222557 -0.72860752 0.71610989
f 1 2 3
f 1 3 11
f 1 11 22
f 1 22 33
f 1 33 31
f 1 31 51
f 1 51 50
f 1 50 74
f 1 74 73
f 1 73 71
f 1 71 92
f 1 92 99
f 1 99 94
f 1 94 86
f 1 86 85
f 1 85 84
f 1 84 83
f 1 83 82
f 1 82 60
f 1 60 39
f 1 39 28
f 1 28 17
f 1 17 12
f 1 12 4
f 1 4 2
f 2 5 6
f 2 6 7
f 2 7 3
f 2 4 8
f 2 8 9
f 2 9 5
f 3 7 10
f 3 10 11
f 4 12 8
f 5 9 13
f 5 13 14
f 5 14 15
f 5 15 16
f 5 16 6
f 6 16 7
f 7 16 10
f 8 12 17
f 8 17 18
f 8 18 9
f 9 19 14
f 9 14 13
f 9 18 28
f 9 28 39
f 9 39 61
f 9 61 44
f 9 44 29
f 9 29 19
f 10 20 21
f 10 21 11
f 10 16 20
f 11 21 22
f 14 19 23
f 14 23 15
f 15 23 24
f 15 24 16
f 16 24 25
f 16 25 26
f 16 26 27
f 16 27 20
f 17 28 18
f 19 29 23
f 20 27 30
f 20 30 21
f 21 30 31
f 21 31 32
f 21 32 22
f 22 32 33
f 23 29 34
f 23 34 25
f 23 25 24
f 25 35 36
f 25 36 26
f 25 34 35
f 26 36 37
f 26 37 27
f 27 37 38
f 27 38 30
f 29 40 41
f 29 41 42
f 29 42 43
f 29 43 34
f 29 44 63
f 29 63 45
f 29 45 40
f 30 38 46
f 30 46 47
f 30 47 48
f 30 48 49
f 30 49 50
f 30 50 51
f 30 51 31
f 31 33 32
f 34 43 35
f 35 43 52
f 35 52 53
f 35 53 54
f 35 54 55
f 35 55 36
f 36 55 37
f 37 46 38
f 37 55 56
f 37 56 57
f 37 57 58
f 37 58 59
f 37 59 46
f 39 60 61
f 40 62 41
f 40 45 62
f 41 62 53
f 41 53 42
f 42 53 52
f 42 52 43
f 44 61 63
f 45 53 62
f 45 63 89
f 45 89 80
f 45 80 79
f 45 79 78
f 45 78 77
f 45 77 64
f 45 64 65
f 45 65 53
f 46 59 47
f 47 59 81
f 47 81 66
f 47 66 67
f 47 67 68
f 47 68 69
f 47 69 49
f 47 49 48
f 49 69 68
f 49 68 70
f 49 70 71
f 49 71 72
f 49 72 73
f 49 73 74
f 49 74 50
f 53 65 75
f 53 75 54
f 54 75 55
f 55 75 56
f 56 75 76
f 56 76 64
f 56 64 77
f 56 77 78
f 56 78 79
f 56 79 80
f 56 80 57
f 57 80 59
f 57 59 58
f 59 80 81
f 60 82 63
f 60 63 61
f 63 82 83
f 63 83 84
f 63 84 85
f 63 85 86
f 63 86 87
f 63 87 88
f 63 88 89
f 64 76 75
f 64 75 65
f 66 81 93
f 66 93 90
f 66 90 91
f 66 91 67
f 67 91 70
f 67 70 68
f 70 91 92
f 70 92 71
f 71 73 72
f 80 89 81
f 81 89 93
f 86 94 95
f 86 95 87
f 87 95 96
f 87 96 97
f 87 97 88
f 88 97 93
f 88 93 89
f 90 93 98
f 90 98 99
f 90 99 91
f 91 99 92
f 93 100 98
f 93 97 100
f 94 99 98
f 94 98 96
f 94 96 95
f 96 98 97
f 97 98 100

