# https://github.com/mikedh/trimesh
v -0.03667021 -0.28882344 0.16883019
v -0.03667021 -0.08541736 0.21931911
v -0.03650036 -0.28882344 0.16883019
v -0.03667021 -0.28882344 1.05854665
v -0.03659590 -0.08541736 0.21931911
v -0.03667021 -0.06099783 0.22837813
v -0.03147922 -0.28882344 0.17088352
v 0.07175667 -0.02353114 0.26376867
v -0.03659590 -0.28882344 1.05878821
v -0.01219083 -0.27869365 1.27717100
v -0.03117137 -0.27194047 1.27717100
v -0.03667021 -0.26815867 1.27717100
v -0.03659590 -0.06102485 0.22837813
v -0.03667021 -0.01286109 0.25301867
v -0.01294452 -0.28882344 0.18151281
v 0.07175667 -0.02245062 0.26666757
v 0.07175667 -0.03660531 0.26219848
v -0.02882535 -0.28882344 1.07461130
v 0.03659808 -0.28739178 1.25265124
v 0.01220363 -0.28469050 1.25265124
v 0.01445411 -0.27839653 1.27946590
v -0.01219083 -0.27115710 1.29226937
v -0.02888903 -0.26999556 1.29142381
v -0.03667021 -0.26110836 1.29963735
v 0.04863609 -0.01286109 0.28925470
v 0.06099254 -0.01772339 0.27681365
v -0.03667021 -0.01286109 1.33949705
v -0.00627799 -0.28882344 0.18549876
v 0.07175667 -0.02047869 0.27681365
v 0.07175667 -0.28882344 0.24166467
v 0.01547321 -0.28882344 0.19963079
v -0.00088530 -0.28882344 0.18876000
v -0.01634149 -0.28882344 1.08729395
v 0.05957006 -0.27718094 1.25265124
v 0.05562109 -0.27364228 1.27113165
v 0.03659808 -0.27809938 1.27560073
v -0.00374088 -0.28882344 1.09562820
v 0.00459231 -0.28882344 1.09538663
v 0.01761755 -0.28882344 1.09309174
v 0.07175667 -0.28882344 1.08113382
v 0.00781943 -0.27048179 1.29106146
v -0.03659590 -0.23668882 1.33104194
v -0.03659590 -0.24827729 1.31872167
v -0.03667021 -0.24827729 1.31872167
v -0.03667021 -0.26094628 1.30012049
v -0.03667021 -0.25219416 1.31304468
v 0.05851913 -0.01286109 0.30459465
v -0.03667021 -0.13428345 1.40254780
v -0.03659590 -0.13420241 1.40254780
v -0.01758351 -0.11815683 1.39107302
v 0.05412431 -0.01286109 1.31570200
v 0.07175667 -0.01934416 0.28538954
v 0.07175667 -0.26359353 1.25265124
v 0.07175667 -0.24706172 1.28816257
v 0.07175667 -0.22755851 1.31546043
v 0.07175667 -0.22418192 1.32005030
v 0.07175667 -0.20778517 1.34034254
v 0.06099254 -0.21767183 1.33539024
v 0.03659808 -0.26694312 1.28780022
v -0.03667021 -0.23674284 1.33092116
v 0.00636509 -0.17231742 1.38829492
v -0.03667021 -0.22453307 1.34239594
v 0.07175667 -0.01286109 0.33660316
v -0.03667021 -0.15864896 1.40013205
v -0.03659590 -0.15859493 1.40013205
v -0.01219083 -0.15859493 1.39735402
v -0.01054543 -0.13239255 1.39638767
v 0.06692661 -0.01286109 1.31062892
v 0.07175667 -0.20294987 1.34493241
v 0.06099254 -0.20548909 1.34722738
v 0.06099254 -0.17785503 1.36715726
v 0.07175667 -0.17482959 1.36474151
v 0.01068561 -0.15859493 1.39119381
v -0.03667021 -0.17374910 1.38974440
v 0.06099254 -0.19003779 1.35942686
v 0.07175667 -0.01286109 1.30857559
v 0.00789373 -0.13933483 1.39119381
v 0.07175667 -0.17758490 1.36305046
v 0.07175667 -0.16553722 1.36498308
v 0.02288283 -0.15859493 1.38648316
f 1 2 5
f 1 5 3
f 1 3 7
f 1 7 15
f 1 15 28
f 1 28 32
f 1 32 31
f 1 31 30
f 1 30 40
f 1 40 39
f 1 39 38
f 1 38 37
f 1 37 33
f 1 33 18
f 1 18 9
f 1 9 4
f 1 4 12
f 1 12 24
f 1 24 45
f 1 45 46
f 1 46 44
f 1 44 60
f 1 60 62
f 1 62 74
f 1 74 64
f 1 64 48
f 1 48 27
f 1 27 14
f 1 14 6
f 1 6 2
f 2 6 5
f 3 5 8
f 3 8 7
f 4 9 10
f 4 10 11
f 4 11 12
f 5 6 13
f 5 13 8
f 6 14 8
f 6 8 13
f 7 8 15
f 8 16 29
f 8 29 52
f 8 52 63
f 8 63 76
f 8 76 79
f 8 79 72
f 8 72 78
f 8 78 69
f 8 69 57
f 8 57 56
f 8 56 55
f 8 55 54
f 8 54 53
f 8 53 40
f 8 40 30
f 8 30 17
f 8 17 15
f 8 14 16
f 9 18 19
f 9 19 20
f 9 20 10
f 10 20 19
f 10 19 21
f 10 21 22
f 10 22 23
f 10 23 11
f 11 23 12
f 12 23 24
f 14 25 26
f 14 26 16
f 14 27 51
f 14 51 68
f 14 68 76
f 14 76 63
f 14 63 47
f 14 47 25
f 15 17 28
f 16 26 29
f 17 30 31
f 17 31 32
f 17 32 28
f 18 33 19
f 19 34 35
f 19 35 36
f 19 36 21
f 19 33 37
f 19 37 38
f 19 38 39
f 19 39 40
f 19 40 34
f 21 36 41
f 21 41 22
f 22 41 42
f 22 42 43
f 22 43 44
f 22 44 23
f 23 45 24
f 23 44 46
f 23 46 45
f 25 47 26
f 26 47 29
f 27 48 49
f 27 49 50
f 27 50 51
f 29 47 52
f 34 53 35
f 34 40 53
f 35 53 54
f 35 54 55
f 35 55 56
f 35 56 57
f 35 57 58
f 35 58 36
f 36 58 59
f 36 59 41
f 41 59 58
f 41 58 42
f 42 60 44
f 42 44 43
f 42 58 61
f 42 61 62
f 42 62 60
f 47 63 52
f 48 64 65
f 48 65 49
f 49 65 66
f 49 66 67
f 49 67 50
f 50 67 51
f 51 67 68
f 57 69 70
f 57 70 58
f 58 70 61
f 61 71 72
f 61 72 73
f 61 73 66
f 61 66 64
f 61 64 74
f 61 74 62
f 61 70 75
f 61 75 71
f 64 66 65
f 66 73 67
f 67 73 77
f 67 77 76
f 67 76 68
f 69 78 75
f 69 75 70
f 71 75 78
f 71 78 72
f 72 79 80
f 72 80 73
f 73 80 77
f 76 77 79
f 77 80 79

