# https://github.com/mikedh/trimesh
v -0.46280891 0.45778072 0.45810108
v -0.40828307 0.43664121 0.45810108
v -0.40828307 0.43659271 0.45282077
v -0.40828307 0.43363514 0.42902323
v -0.40828307 0.43276238 0.42316428
v -0.40828307 0.42718660 0.39875193
v -0.40828307 0.42209564 0.38200682
v -0.40828307 0.36769531 0.21357957
v -0.46280891 0.33108900 0.15520689
v -0.46280891 -0.03749512 0.45810108
v -0.40828307 -0.03749512 0.45810108
v -0.40828307 0.34786490 0.18309126
v -0.46280891 0.32027682 0.13632799
v -0.46280891 -0.03749512 0.12779272
v -0.40828307 -0.03749512 0.10348890
v -0.40828307 0.33826482 0.17090315
v -0.40828307 0.32556173 0.15755771
v -0.42292328 0.31605861 0.14359747
v -0.46280891 0.31247072 0.12855222
v -0.46280891 0.04371751 0.09093913
v -0.46038043 0.04425084 0.09111991
v -0.45833625 0.06102671 0.09014345
v -0.45664434 0.23179141 0.08989025
v -0.40828307 0.18917297 0.11093912
v -0.40828307 0.31387679 0.14576744
v -0.46280891 0.30815554 0.12442923
v -0.46280891 0.06112368 0.08996261
v -0.46280891 0.23179141 0.08866060
v -0.45828288 0.24735515 0.09133690
v -0.40828307 0.27169471 0.11676191
v -0.40828307 0.25811886 0.11520677
v -0.40828307 0.30510096 0.13763000
v -0.43923939 0.29278575 0.11820860
v -0.46280891 0.30238579 0.12016161
v -0.46280891 0.24759759 0.09115612
v -0.40828307 0.27450685 0.11791929
v -0.46280891 0.29297969 0.11412183
v -0.40828307 0.30209489 0.13513451
v -0.40828307 0.28386447 0.12244008
v -0.46280891 0.29748880 0.11672577
f 1 2 3
f 1 3 4
f 1 4 5
f 1 5 6
f 1 6 7
f 1 7 8
f 1 8 9
f 1 9 13
f 1 13 19
f 1 19 26
f 1 26 34
f 1 34 40
f 1 40 37
f 1 37 35
f 1 35 28
f 1 28 27
f 1 27 20
f 1 20 14
f 1 14 10
f 1 10 11
f 1 11 2
f 2 11 15
f 2 15 24
f 2 24 31
f 2 31 30
f 2 30 36
f 2 36 39
f 2 39 38
f 2 38 32
f 2 32 25
f 2 25 17
f 2 17 16
f 2 16 12
f 2 12 8
f 2 8 7
f 2 7 6
f 2 6 5
f 2 5 4
f 2 4 3
f 8 12 13
f 8 13 9
f 10 14 15
f 10 15 11
f 12 16 13
f 13 16 17
f 13 17 18
f 13 18 19
f 14 20 15
f 15 20 21
f 15 21 22
f 15 22 23
f 15 23 24
f 17 25 18
f 18 25 19
f 19 25 26
f 20 27 22
f 20 22 21
f 22 27 28
f 22 28 23
f 23 28 29
f 23 29 30
f 23 30 31
f 23 31 24
f 25 32 26
f 26 32 33
f 26 33 34
f 28 35 29
f 29 36 30
f 29 35 37
f 29 37 33
f 29 33 36
f 32 38 33
f 33 39 36
f 33 37 40
f 33 40 34
f 33 38 39

