# https://github.com/mikedh/trimesh
v 0.41681732 -0.78611835 0.47661766
v 0.41802319 -0.78504853 0.47756693
v 0.41681732 -0.78545204 0.49636279
v 0.41681732 -0.78251461 0.40410682
v 0.41752213 -0.78444788 0.49636279
v 0.43766404 -0.75470758 0.44756950
v 0.41681732 -0.78352822 0.50109462
v 0.41681732 -0.77755010 0.39051014
v 0.42287972 -0.77069922 0.39714050
v 0.44494329 -0.74112784 0.42318017
v 0.44272703 -0.74250737 0.44756950
v 0.41681732 -0.77876070 0.50873272
v 0.41681732 -0.77373053 0.38310569
v 0.43562946 -0.75001518 0.39877621
v 0.44257007 -0.73782442 0.39877621
v 0.44257007 -0.72558668 0.39877621
v 0.44387234 -0.71804135 0.42493270
v 0.44209931 -0.72156060 0.44523281
v 0.43995460 -0.73086090 0.46104936
v 0.43995460 -0.73989840 0.46104936
v 0.42299534 -0.76859702 0.49636279
v 0.41681732 -0.76859702 0.51231080
v 0.41681732 -0.76792133 0.37437226
v 0.43998765 -0.73370452 0.38542779
v 0.43371327 -0.71338647 0.39877621
v 0.43820913 -0.70874105 0.41798100
v 0.43998765 -0.73044801 0.38542779
v 0.43932966 -0.70747409 0.43425029
v 0.43932966 -0.70747409 0.43556470
v 0.41725781 -0.73002566 0.48723504
v 0.41681732 -0.75309339 0.51068970
v 0.41681732 -0.76010381 0.36628144
v 0.41681732 -0.74966795 0.36312687
v 0.42151415 -0.70182443 0.39877621
v 0.41681732 -0.70634791 0.38545702
v 0.41681732 -0.70606634 0.38586591
v 0.41681732 -0.69025301 0.42373513
v 0.42884849 -0.69980673 0.42493270
v 0.41681732 -0.69454190 0.40984636
v 0.41681732 -0.73671700 0.36575569
v 0.42564659 -0.72130725 0.38038929
v 0.41681732 -0.70661071 0.38517953
v 0.41681732 -0.69421343 0.43788679
v 0.41681732 -0.69695380 0.44634273
v 0.41681732 -0.70128014 0.45203846
v 0.41681732 -0.72987550 0.48748332
v 0.41681732 -0.73042917 0.48815512
v 0.41681732 -0.69843658 0.39832347
v 0.41681732 -0.72116647 0.37540918
f 1 2 3
f 1 3 7
f 1 7 12
f 1 12 22
f 1 22 31
f 1 31 47
f 1 47 46
f 1 46 45
f 1 45 44
f 1 44 43
f 1 43 37
f 1 37 39
f 1 39 48
f 1 48 36
f 1 36 35
f 1 35 42
f 1 42 49
f 1 49 40
f 1 40 33
f 1 33 32
f 1 32 23
f 1 23 13
f 1 13 8
f 1 8 4
f 1 4 2
f 2 5 3
f 2 4 6
f 2 6 5
f 3 5 7
f 4 8 9
f 4 9 10
f 4 10 6
f 5 6 11
f 5 11 7
f 6 10 11
f 7 11 12
f 8 13 14
f 8 14 9
f 9 14 10
f 10 14 15
f 10 15 16
f 10 16 17
f 10 17 11
f 11 18 19
f 11 19 20
f 11 20 21
f 11 21 12
f 11 17 18
f 12 21 22
f 13 23 24
f 13 24 15
f 13 15 14
f 15 24 27
f 15 27 16
f 16 25 26
f 16 26 17
f 16 27 25
f 17 28 29
f 17 29 18
f 17 26 28
f 18 29 19
f 19 29 30
f 19 30 31
f 19 31 22
f 19 22 20
f 20 22 21
f 23 32 24
f 24 32 33
f 24 33 27
f 25 34 26
f 25 27 35
f 25 35 36
f 25 36 34
f 26 37 38
f 26 38 28
f 26 34 39
f 26 39 37
f 27 33 40
f 27 40 41
f 27 41 42
f 27 42 35
f 28 38 37
f 28 37 29
f 29 43 44
f 29 44 45
f 29 45 30
f 29 37 43
f 30 46 47
f 30 47 31
f 30 45 46
f 34 36 48
f 34 48 39
f 40 49 41
f 41 49 42

