# https://github.com/mikedh/trimesh
v 0.97712507 0.41837147 0.72556626
v 0.97707024 0.41837147 0.71593108
v 0.97701533 0.41888504 0.71593108
v 0.97383429 0.43108198 0.71593108
v 0.96769154 0.45141880 0.71593108
v 0.97679595 0.41837147 0.73069903
v 0.97685077 0.41837147 0.71259929
v 0.93730673 0.54902006 0.64272168
v 0.93906186 0.54902006 0.66712481
v 0.95227976 0.48906242 0.72979854
v 0.93708742 0.54902006 0.69152794
v 0.88224126 0.61696352 0.83344433
v 0.88569658 0.59999048 0.84010791
v 0.88246065 0.59331427 0.85559625
v 0.88416087 0.57213007 0.86316031
v 0.87999261 0.54902006 0.87801832
v 0.92365006 0.41837147 0.82245841
v 0.97597329 0.41837147 0.70458497
v 0.93330304 0.54902006 0.61831854
v 0.92787321 0.56314285 0.60409089
v 0.92907990 0.56494029 0.61831854
v 0.93132854 0.56699453 0.66712481
v 0.93045099 0.56653234 0.69152794
v 0.93045099 0.56571063 0.64272168
v 0.92853139 0.56355371 0.70710633
v 0.86167401 0.64156282 0.83794675
v 0.87461768 0.62392216 0.84010791
v 0.87807301 0.60956831 0.84974309
v 0.86167401 0.68069578 0.65902045
v 0.87587912 0.57942257 0.87189501
v 0.87916988 0.56316852 0.87522681
v 0.86271612 0.52460051 0.90854474
v 0.85119837 0.52460051 0.92079134
v 0.83682869 0.50498266 0.92961607
v 0.81159951 0.41837147 0.92844546
v 0.85322770 0.41837147 0.38707408
v 0.92902499 0.54902006 0.60093919
v 0.92430823 0.54902006 0.58887269
v 0.92184019 0.57210440 0.59517609
v 0.90269885 0.60990212 0.58229916
v 0.90906100 0.60017024 0.59184429
v 0.92293707 0.57713727 0.61831854
v 0.86600689 0.68069578 0.61831854
v 0.84176485 0.65275837 0.83794675
v 0.82481740 0.65545452 0.86234989
v 0.85695725 0.63794228 0.85307489
v 0.85750567 0.68069578 0.68180271
v 0.85668302 0.68069578 0.68486436
v 0.85964468 0.59262097 0.87963919
v 0.77945973 0.55908575 0.97148863
v 0.83496399 0.54403857 0.92763502
v 0.85969950 0.54447509 0.90449258
v 0.80891208 0.54278037 0.95176799
v 0.81258672 0.52460051 0.95536995
v 0.81132528 0.50698552 0.95392916
v 0.78368289 0.41837147 0.94969688
v 0.85108870 0.41837147 0.38248163
v 0.91010312 0.57338831 0.57320427
v 0.90686719 0.59364808 0.57707635
v 0.86200305 0.68069578 0.59310497
v 0.83600603 0.68069578 0.49801381
v 0.84505560 0.68069578 0.52088611
v 0.80770547 0.65974269 0.87621734
v 0.83222166 0.63819905 0.87684769
v 0.84181974 0.68069578 0.70503521
v 0.78494432 0.61377943 0.92664450
v 0.77024552 0.57325992 0.96545535
v 0.76317038 0.56506867 0.97391991
v 0.77024552 0.55014991 0.97509056
v 0.78307954 0.54283171 0.97319953
v 0.80562130 0.63496362 0.89926976
v 0.79602322 0.52460051 0.96761652
v 0.78247621 0.51186430 0.97247916
v 0.78192777 0.41837147 0.95050732
v 0.84483621 0.41837147 0.37275637
v 0.80814425 0.62217607 0.40544399
v 0.80622457 0.63735167 0.40940609
v 0.80627948 0.68069578 0.43380924
v 0.79295185 0.63742868 0.90233141
v 0.81478062 0.64472117 0.88468189
v 0.68704404 0.68069578 0.88144016
v 0.67075476 0.68069578 0.89872946
v 0.64662246 0.68069578 0.91313722
v 0.59780942 0.68069578 0.93618961
v 0.66554432 0.66264427 0.92772505
v 0.62753602 0.65779116 0.94672527
v 0.60614604 0.63321752 0.97148863
v 0.59797394 0.62392216 0.97896263
v 0.59753520 0.59724295 0.99274005
v 0.61733459 0.56779053 0.99940365
v 0.44188199 0.51635792 1.04640893
v 0.44533727 0.50020659 1.04775967
v 0.78379254 0.52460051 0.97319953
v 0.41687215 0.47581268 1.05460335
v 0.47583170 0.41837147 1.03848467
v 0.76860014 0.41837147 0.95446945
v 0.82854695 0.41837147 0.34916369
v 0.79947856 0.62217607 0.39319738
v 0.80276931 0.65360575 0.41417870
v 0.79284212 0.64621050 0.39896048
v 0.77858217 0.65506934 0.38851487
v 0.78521854 0.67098957 0.40625443
v 0.78187294 0.68069578 0.40985636
v 0.57345775 0.68069578 0.94456414
v 0.57340292 0.67954030 0.94546460
v 0.58991160 0.63529747 0.97283936
v 0.42701871 0.53137944 1.04370747
v 0.58919860 0.58874359 0.99706239
v 0.42701871 0.51918250 1.04694923
v 0.41687215 0.51127372 1.04938054
v 0.41687215 0.49003819 1.05379291
v 0.41687215 0.46561860 1.05451332
v 0.45142520 0.41837147 1.04361745
v 0.78368289 0.46952161 0.31053292
v 0.73174362 0.41837147 0.24038513
v 0.78724788 0.62217607 0.38032046
v 0.78033722 0.54902006 0.33997872
v 0.77457841 0.57338831 0.34439112
v 0.58837590 0.61439571 0.18806700
v 0.53703994 0.65892098 0.16690557
v 0.76887443 0.68069578 0.39796996
v 0.54850279 0.68069578 0.93916121
v 0.41687215 0.56399023 1.02353662
v 0.41687215 0.54981610 1.03299174
v 0.41687215 0.53158486 1.04379757
v 0.41687215 0.52647499 1.04523833
v 0.41687215 0.45049437 1.05307249
v 0.41703668 0.41837147 1.04929052
v 0.73914780 0.45141880 0.25695408
v 0.73607643 0.46929052 0.26055601
v 0.72883672 0.41837147 0.23768367
v 0.72993367 0.43182665 0.24227616
v 0.76596754 0.54717128 0.32431031
v 0.72587508 0.45141880 0.24479750
v 0.72099376 0.42502202 0.23228075
v 0.59062458 0.59778219 0.18590583
v 0.55513915 0.62217607 0.16969713
v 0.53972743 0.64659569 0.16591508
v 0.52464472 0.62217607 0.15889128
v 0.52464472 0.64659569 0.16312359
v 0.52464472 0.65899806 0.16672552
v 0.52464472 0.68069578 0.24587808
v 0.54905127 0.68069578 0.25164118
v 0.56797316 0.68069578 0.25938540
v 0.63576293 0.68069578 0.28829090
v 0.76278651 0.68069578 0.39265709
v 0.41687215 0.68069578 0.90800444
v 0.41687215 0.41837147 1.04929052
v 0.72060980 0.41837147 0.23065994
v 0.70042650 0.41837147 0.21760290
v 0.56901522 0.41837147 0.16249320
v 0.54296333 0.62217607 0.16474440
v 0.54905127 0.41837147 0.15519933
v 0.53325556 0.41837147 0.15123716
v 0.50160940 0.41837147 0.14439348
v 0.47616079 0.41837147 0.13944082
v 0.45142520 0.41837147 0.13466821
v 0.50023824 0.62217607 0.15880125
v 0.50243205 0.64597941 0.16366389
v 0.51203013 0.65894672 0.16681554
v 0.41687215 0.68069578 0.24452735
v 0.41687215 0.41837147 0.13845026
v 0.55744270 0.41837147 0.15817086
v 0.42701871 0.41837147 0.13565877
v 0.41687215 0.56499167 0.16555484
v 0.48619761 0.63745442 0.16501455
v 0.41687215 0.61570528 0.19419027
v 0.41687215 0.42019458 0.13872041
v 0.41791422 0.41837147 0.13800006
v 0.41687215 0.57718861 0.17068762
v 0.41687215 0.43721896 0.14178204
v 0.41687215 0.58756244 0.17645071
v 0.41687215 0.59878362 0.18302425
f 1 2 3
f 1 3 4
f 1 4 5
f 1 5 6
f 1 6 17
f 1 17 35
f 1 35 56
f 1 56 74
f 1 74 96
f 1 96 95
f 1 95 113
f 1 113 128
f 1 128 148
f 1 148 162
f 1 162 169
f 1 169 164
f 1 164 157
f 1 157 156
f 1 156 155
f 1 155 154
f 1 154 153
f 1 153 163
f 1 163 151
f 1 151 150
f 1 150 149
f 1 149 131
f 1 131 115
f 1 115 97
f 1 97 75
f 1 75 57
f 1 57 36
f 1 36 18
f 1 18 7
f 1 7 2
f 2 7 3
f 3 7 8
f 3 8 4
f 4 8 9
f 4 9 5
f 5 10 6
f 5 9 11
f 5 11 10
f 6 10 12
f 6 12 13
f 6 13 14
f 6 14 15
f 6 15 16
f 6 16 17
f 7 18 8
f 8 19 20
f 8 20 21
f 8 21 9
f 8 18 19
f 9 22 23
f 9 23 11
f 9 21 24
f 9 24 22
f 10 11 25
f 10 25 12
f 11 23 25
f 12 26 27
f 12 27 28
f 12 28 14
f 12 14 13
f 12 25 23
f 12 23 29
f 12 29 26
f 14 28 30
f 14 30 31
f 14 31 15
f 15 31 16
f 16 32 17
f 16 31 32
f 17 32 33
f 17 33 34
f 17 34 35
f 18 36 37
f 18 37 20
f 18 20 19
f 20 37 38
f 20 38 39
f 20 39 40
f 20 40 41
f 20 41 21
f 21 41 42
f 21 42 24
f 22 24 42
f 22 42 41
f 22 41 43
f 22 43 23
f 23 43 29
f 26 44 45
f 26 45 46
f 26 46 27
f 26 29 47
f 26 47 48
f 26 48 44
f 27 46 28
f 28 46 30
f 29 43 60
f 29 60 62
f 29 62 61
f 29 61 78
f 29 78 103
f 29 103 121
f 29 121 146
f 29 146 145
f 29 145 144
f 29 144 143
f 29 143 142
f 29 142 161
f 29 161 147
f 29 147 122
f 29 122 104
f 29 104 84
f 29 84 83
f 29 83 82
f 29 82 81
f 29 81 65
f 29 65 48
f 29 48 47
f 30 46 49
f 30 49 50
f 30 50 51
f 30 51 52
f 30 52 31
f 31 52 32
f 32 52 33
f 33 51 53
f 33 53 54
f 33 54 55
f 33 55 34
f 33 52 51
f 34 55 35
f 35 55 56
f 36 57 38
f 36 38 37
f 38 57 39
f 39 57 58
f 39 58 59
f 39 59 40
f 40 60 43
f 40 43 41
f 40 59 61
f 40 61 62
f 40 62 60
f 44 48 45
f 45 63 46
f 45 48 63
f 46 63 64
f 46 64 49
f 48 65 63
f 49 64 50
f 50 66 67
f 50 67 68
f 50 68 69
f 50 69 70
f 50 70 54
f 50 54 53
f 50 53 51
f 50 64 71
f 50 71 66
f 54 72 55
f 54 70 72
f 55 72 56
f 56 72 73
f 56 73 74
f 57 75 76
f 57 76 77
f 57 77 59
f 57 59 58
f 59 77 78
f 59 78 61
f 63 79 71
f 63 71 80
f 63 80 64
f 63 65 81
f 63 81 82
f 63 82 83
f 63 83 84
f 63 84 85
f 63 85 86
f 63 86 79
f 64 80 71
f 66 86 67
f 66 71 79
f 66 79 86
f 67 86 68
f 68 87 88
f 68 88 89
f 68 89 90
f 68 90 91
f 68 91 69
f 68 86 87
f 69 91 92
f 69 92 70
f 70 93 72
f 70 92 94
f 70 94 93
f 72 93 73
f 73 93 95
f 73 95 96
f 73 96 74
f 75 97 76
f 76 97 98
f 76 98 77
f 77 98 99
f 77 99 78
f 78 99 100
f 78 100 101
f 78 101 102
f 78 102 103
f 84 104 86
f 84 86 85
f 86 104 105
f 86 105 87
f 87 106 88
f 87 105 106
f 88 106 107
f 88 107 89
f 89 107 108
f 89 108 90
f 90 108 91
f 91 107 109
f 91 109 110
f 91 110 111
f 91 111 92
f 91 108 107
f 92 111 94
f 93 94 112
f 93 112 95
f 94 111 110
f 94 110 126
f 94 126 125
f 94 125 124
f 94 124 123
f 94 123 147
f 94 147 161
f 94 161 167
f 94 167 173
f 94 173 172
f 94 172 170
f 94 170 165
f 94 165 171
f 94 171 168
f 94 168 162
f 94 162 148
f 94 148 127
f 94 127 112
f 95 112 113
f 97 114 98
f 97 115 114
f 98 116 101
f 98 101 100
f 98 100 99
f 98 114 117
f 98 117 118
f 98 118 116
f 101 103 102
f 101 116 119
f 101 119 120
f 101 120 103
f 103 120 121
f 104 122 123
f 104 123 105
f 105 123 124
f 105 124 106
f 106 124 107
f 107 124 125
f 107 125 126
f 107 126 110
f 107 110 109
f 112 127 113
f 113 127 128
f 114 115 129
f 114 129 130
f 114 130 117
f 115 131 132
f 115 132 129
f 116 118 119
f 117 130 133
f 117 133 118
f 118 133 130
f 118 130 119
f 119 130 134
f 119 134 135
f 119 135 136
f 119 136 137
f 119 137 120
f 120 137 138
f 120 138 139
f 120 139 140
f 120 140 141
f 120 141 142
f 120 142 143
f 120 143 144
f 120 144 145
f 120 145 146
f 120 146 121
f 122 147 123
f 127 148 128
f 129 132 134
f 129 134 130
f 131 149 135
f 131 135 132
f 132 135 134
f 135 149 150
f 135 150 136
f 136 150 137
f 137 151 152
f 137 152 138
f 137 150 151
f 138 152 139
f 139 153 154
f 139 154 155
f 139 155 156
f 139 156 157
f 139 157 158
f 139 158 140
f 139 152 153
f 140 159 160
f 140 160 141
f 140 158 159
f 141 160 161
f 141 161 142
f 151 163 152
f 152 163 153
f 157 164 158
f 158 164 165
f 158 165 166
f 158 166 159
f 159 166 160
f 160 166 161
f 161 166 167
f 162 168 169
f 164 169 165
f 165 170 166
f 165 169 171
f 166 170 172
f 166 172 173
f 166 173 167
f 168 171 169

