# https://github.com/mikedh/trimesh
v -0.94481498 -0.57568038 0.66713058
v -0.95530640 -0.56574285 0.66713058
v -0.95503415 -0.56474356 0.64983577
v -0.94481498 -0.57540274 0.66386315
v -0.94481498 -0.57190520 0.68938286
v -0.97679746 -0.53792891 0.65625795
v -0.97715138 -0.53826203 0.64279390
v -0.95311921 -0.56368872 0.68296068
v -0.94481498 -0.56957351 0.64854007
v -0.97673392 -0.53759579 0.62966788
v -0.94481498 -0.44699237 0.45114261
v -0.94481498 -0.57157212 0.69045322
v -1.02396348 -0.43605556 0.67529914
v -1.02534294 -0.44049690 0.65901836
v -0.98477496 -0.52454936 0.64279390
v -0.99927779 -0.43766556 0.77506822
v -1.00196420 -0.44132966 0.75878745
v -0.94481498 -0.56030218 0.71591659
v -1.00053929 -0.48840794 0.63034390
v -0.97605327 -0.41484813 0.45970552
v -0.94481498 -0.39119797 0.36630227
v -1.03753152 -0.37909531 0.71586026
v -1.00574872 -0.42850528 0.76605464
v -1.02489827 -0.39064281 0.75275961
v -1.03753152 -0.39047625 0.69152359
v -1.03753152 -0.39352970 0.67620050
v -1.02534294 -0.44049690 0.65237084
v -0.94481498 -0.54731124 0.73867588
v -0.95343683 -0.49035103 0.80312300
v -1.03753152 -0.10784016 0.93083418
v -1.03753152 -0.11977628 0.92334164
v -1.03753152 -0.22609097 0.85579611
v -1.03753152 -0.22653512 0.85545810
v -1.00082973 -0.41556985 0.53215219
v -1.00106570 -0.39153109 0.50657615
v -1.03753152 -0.30548002 0.52032185
v -0.95084117 -0.37704121 0.36630227
v -0.94481498 -0.02906180 0.36630227
v -1.03753152 -0.37815154 0.71709962
v -1.03753152 -0.23830468 0.84497983
v -1.03753152 -0.38914384 0.66713058
v -1.02749386 -0.42745047 0.64369527
v -1.02645922 -0.41956707 0.62820317
v -0.94481498 -0.49240516 0.80396802
v -1.03753152 -0.10567500 0.93162288
v -1.03753152 -0.32496643 0.55085536
v -1.03753152 -0.30498037 0.51992750
v -0.95607779 -0.35938685 0.36630227
v -0.94481498 -0.00852057 0.36804866
v -0.96326573 -0.11122669 0.36630227
v -1.01086732 -0.00852057 0.38641384
v -1.03753152 -0.33756874 0.57124860
v -1.03753152 -0.33362704 0.56454476
v -0.94481498 -0.06720185 0.94091813
v -1.03753152 -0.08646619 0.93798871
v -1.03753152 -0.10467570 0.93196089
v -1.03753152 -0.29193393 0.51339267
v -1.03753152 -0.01224021 0.40838444
v -1.03239474 -0.01224021 0.40139892
v -0.95824690 -0.33795734 0.36630227
v -0.94481498 -0.00852057 0.94024211
v -0.96507174 -0.11949869 0.36630227
v -0.96802132 -0.13421065 0.36630227
v -0.96879277 -0.14042853 0.36630227
v -0.97075311 -0.15863803 0.36630227
v -0.97117967 -0.16291285 0.36630227
v -0.97161532 -0.18300992 0.36630227
v -1.03222224 -0.00852057 0.40145524
v -0.94481498 -0.06264947 0.94119980
v -1.03753152 -0.08485620 0.93804505
v -1.03753152 -0.00852057 0.40860976
v -1.03406463 -0.00852057 0.40387765
v -1.03753152 -0.00852057 0.89962465
v -1.03753152 -0.01412778 0.90706088
v -1.03753152 -0.01501605 0.90773688
v -1.03753152 -0.03661210 0.92351066
v -1.03753152 -0.05543229 0.93207357
v -1.03753152 -0.06081742 0.93393261
v -1.03753152 -0.06292707 0.93449596
v -0.94481498 -0.03794450 0.94181950
f 1 2 3
f 1 3 4
f 1 4 9
f 1 9 11
f 1 11 21
f 1 21 38
f 1 38 49
f 1 49 61
f 1 61 80
f 1 80 69
f 1 69 54
f 1 54 44
f 1 44 28
f 1 28 18
f 1 18 12
f 1 12 5
f 1 5 2
f 2 6 7
f 2 7 3
f 2 5 8
f 2 8 6
f 3 9 4
f 3 7 10
f 3 10 11
f 3 11 9
f 5 12 8
f 6 13 14
f 6 14 15
f 6 15 7
f 6 8 16
f 6 16 17
f 6 17 13
f 7 15 10
f 8 12 18
f 8 18 16
f 10 19 20
f 10 20 21
f 10 21 11
f 10 15 19
f 13 22 14
f 13 17 23
f 13 23 24
f 13 24 22
f 14 22 25
f 14 25 26
f 14 26 27
f 14 27 15
f 15 27 19
f 16 24 23
f 16 23 17
f 16 18 28
f 16 28 29
f 16 29 30
f 16 30 31
f 16 31 32
f 16 32 33
f 16 33 24
f 19 34 20
f 19 27 34
f 20 34 35
f 20 35 36
f 20 36 37
f 20 37 21
f 21 37 48
f 21 48 60
f 21 60 67
f 21 67 66
f 21 66 65
f 21 65 64
f 21 64 63
f 21 63 62
f 21 62 50
f 21 50 38
f 22 24 39
f 22 39 40
f 22 40 33
f 22 33 32
f 22 32 31
f 22 31 30
f 22 30 45
f 22 45 56
f 22 56 55
f 22 55 70
f 22 70 79
f 22 79 78
f 22 78 77
f 22 77 76
f 22 76 75
f 22 75 74
f 22 74 73
f 22 73 71
f 22 71 58
f 22 58 57
f 22 57 47
f 22 47 36
f 22 36 46
f 22 46 53
f 22 53 52
f 22 52 41
f 22 41 26
f 22 26 25
f 24 33 40
f 24 40 39
f 26 41 42
f 26 42 27
f 27 42 43
f 27 43 34
f 28 44 29
f 29 44 30
f 30 44 45
f 34 43 36
f 34 36 35
f 36 43 42
f 36 42 46
f 36 47 37
f 37 47 48
f 38 50 51
f 38 51 49
f 41 52 42
f 42 52 53
f 42 53 46
f 44 54 55
f 44 55 56
f 44 56 45
f 47 57 48
f 48 58 59
f 48 59 60
f 48 57 58
f 49 51 68
f 49 68 72
f 49 72 71
f 49 71 73
f 49 73 61
f 50 62 51
f 51 62 63
f 51 63 64
f 51 64 65
f 51 65 66
f 51 66 67
f 51 67 59
f 51 59 68
f 54 69 55
f 55 69 70
f 58 71 72
f 58 72 59
f 59 72 68
f 59 67 60
f 61 73 74
f 61 74 75
f 61 75 76
f 61 76 77
f 61 77 78
f 61 78 79
f 61 79 70
f 61 70 80
f 69 80 70

