# https://github.com/mikedh/trimesh
v -0.34794612 0.28058579 1.41740003
v -0.34794612 0.28557161 1.41689479
v -0.34828278 0.28058579 1.41713410
v -0.37504932 0.23175202 1.39309727
v -0.37304716 0.20736930 1.39147530
v -0.35380499 0.20736930 1.40046248
v -0.34794612 0.20736930 1.40298855
v -0.34794612 0.30264634 1.41508674
v -0.36048485 0.28058579 1.40591333
v -0.38724547 0.23175202 1.37921757
v -0.37295265 0.25613475 1.39437354
v -0.40828307 0.20156388 1.34693796
v -0.40828307 -0.06186521 1.25985746
v -0.40828307 -0.08399408 1.25225290
v -0.36885382 0.19227523 1.38953424
v -0.34794612 0.18353297 1.39437354
v -0.37028309 0.28058579 1.39370882
v -0.34794612 0.30496851 1.41423587
v -0.40828307 0.37818498 1.31585485
v -0.40828307 0.37483837 1.31697161
v -0.40828307 0.25504197 1.34746974
v -0.40828307 0.23175202 1.35047437
v -0.40828307 0.22464894 1.34983620
v -0.40828307 0.20798398 1.34802814
v -0.40828307 -0.09096056 1.24693501
v -0.39733902 -0.10277628 1.24520670
v -0.40301480 -0.08542834 1.25414076
v -0.39242511 -0.07429563 1.26538808
v -0.34794612 -0.07941804 1.26929673
v -0.40828307 0.30496851 1.33478654
v -0.34794612 0.31596466 1.40886479
v -0.40828307 0.39710380 1.30771850
v -0.40828307 -0.10434716 1.23430500
v -0.37819727 -0.10496184 1.24642981
v -0.40828307 -0.10926468 1.22818944
v -0.40369991 -0.11104046 1.22970503
v -0.40828307 -0.15406882 1.16979898
v -0.37365548 -0.15161005 1.19697341
v -0.37819727 -0.11718736 1.23491656
v -0.34794612 -0.08877499 1.26198463
v -0.34794612 0.32661926 1.39817580
v -0.40828307 0.40932932 1.29625845
v -0.40828307 0.40318242 1.30234743
v -0.34794612 -0.10557655 1.24797200
v -0.34794612 -0.10106881 1.25190723
v -0.40828307 -0.16554302 1.15094707
v -0.40828307 -0.16793350 1.14578873
v -0.38034711 -0.15652755 1.18173767
v -0.35903784 -0.15161005 1.19697341
v -0.34794612 -0.11500180 1.23863909
v -0.34794612 0.46301229 1.24023444
v -0.40828307 0.43159479 1.27161002
v -0.40828307 0.42708705 1.27679497
v -0.40828307 0.42169144 1.28296373
v -0.39550813 -0.16779690 1.14578873
v -0.40828307 0.45795819 1.14578873
v -0.37819727 -0.16342577 1.15517480
v -0.37819727 -0.16547473 1.14578873
v -0.35554143 -0.15461518 1.17958392
v -0.34794612 -0.14853660 1.17958392
v -0.34794612 -0.14682912 1.18468910
v -0.34794612 -0.13747217 1.20872597
v -0.34794612 -0.12661261 1.22366924
v -0.34794612 0.52980870 1.14578873
v -0.40828307 0.44402519 1.25278468
v -0.40828307 0.45734351 1.16043949
v -0.36354419 0.51532929 1.14578873
v -0.35465551 -0.15584458 1.14578873
v -0.34794612 -0.14737552 1.14578873
v -0.40828307 0.44969401 1.23574085
v -0.40828307 0.44477651 1.25084366
v -0.40828307 0.45331386 1.21125197
v -0.40828307 0.45099169 1.22858827
f 1 2 3
f 1 3 4
f 1 4 5
f 1 5 6
f 1 6 7
f 1 7 16
f 1 16 29
f 1 29 40
f 1 40 45
f 1 45 44
f 1 44 50
f 1 50 63
f 1 63 62
f 1 62 61
f 1 61 60
f 1 60 69
f 1 69 64
f 1 64 51
f 1 51 41
f 1 41 31
f 1 31 18
f 1 18 8
f 1 8 2
f 2 8 3
f 3 8 9
f 3 9 4
f 4 10 5
f 4 9 11
f 4 11 10
f 5 10 12
f 5 12 13
f 5 13 14
f 5 14 15
f 5 15 6
f 6 15 7
f 7 15 16
f 8 17 9
f 8 18 19
f 8 19 20
f 8 20 17
f 9 17 11
f 10 11 21
f 10 21 22
f 10 22 23
f 10 23 24
f 10 24 12
f 11 17 21
f 12 24 23
f 12 23 22
f 12 22 21
f 12 21 30
f 12 30 20
f 12 20 19
f 12 19 32
f 12 32 43
f 12 43 42
f 12 42 54
f 12 54 53
f 12 53 52
f 12 52 65
f 12 65 71
f 12 71 70
f 12 70 73
f 12 73 72
f 12 72 66
f 12 66 56
f 12 56 47
f 12 47 46
f 12 46 37
f 12 37 35
f 12 35 33
f 12 33 25
f 12 25 14
f 12 14 13
f 14 25 26
f 14 26 27
f 14 27 28
f 14 28 15
f 15 28 16
f 16 28 29
f 17 20 30
f 17 30 21
f 18 31 32
f 18 32 19
f 25 33 26
f 26 34 29
f 26 29 28
f 26 28 27
f 26 33 35
f 26 35 36
f 26 36 37
f 26 37 38
f 26 38 39
f 26 39 34
f 29 34 40
f 31 41 42
f 31 42 43
f 31 43 32
f 34 44 45
f 34 45 40
f 34 39 44
f 35 37 36
f 37 46 38
f 38 46 47
f 38 47 48
f 38 48 49
f 38 49 50
f 38 50 39
f 39 50 44
f 41 51 52
f 41 52 53
f 41 53 54
f 41 54 42
f 47 55 49
f 47 49 48
f 47 56 67
f 47 67 64
f 47 64 69
f 47 69 68
f 47 68 58
f 47 58 55
f 49 55 57
f 49 57 58
f 49 58 59
f 49 59 60
f 49 60 61
f 49 61 62
f 49 62 63
f 49 63 50
f 51 64 52
f 52 64 65
f 55 58 57
f 56 66 67
f 58 68 59
f 59 68 60
f 60 68 69
f 64 67 70
f 64 70 71
f 64 71 65
f 66 72 67
f 67 72 73
f 67 73 70

