# https://github.com/mikedh/trimesh
v 0.11425158 -0.01135035 0.33879473
v 0.07176729 -0.01135035 0.33921016
v 0.10979728 0.13991186 0.25996721
v 0.11425158 0.14049830 0.26038265
v 0.11425158 -0.01135035 1.29313741
v 0.07176729 0.14190575 0.28416592
v 0.09283684 0.14198394 0.26131736
v 0.07176729 -0.01135035 1.30902753
v 0.10979728 0.15863882 0.25570908
v 0.11425158 0.15852153 0.25612452
v 0.11425158 0.20911167 1.25928004
v 0.07646282 0.02727646 1.31577828
v 0.07646282 0.01730699 1.31577828
v 0.07250761 0.00104308 1.31338958
v 0.11242162 -0.01135035 1.29386444
v 0.07176729 0.15863882 0.27918076
v 0.08104605 0.15863882 0.27087218
v 0.09324442 0.15863882 0.26173280
v 0.07176729 -0.00063805 1.31307798
v 0.10914016 0.18174451 0.25934409
v 0.11425158 0.18201818 0.25789003
v 0.11425158 0.23190462 1.25387945
v 0.08188617 0.23178732 1.26945798
v 0.09753237 0.21919843 1.26488832
v 0.07176729 0.02825386 1.31629756
v 0.07176729 0.02137296 1.31671299
v 0.07176729 0.23178732 1.27413154
v 0.07176729 0.01488304 1.31671299
v 0.07176729 0.00174680 1.31380494
v 0.07176729 0.00049573 1.31349342
v 0.07176729 0.17177506 0.28167330
v 0.11425158 0.37777158 0.29745959
v 0.11425158 0.23847273 1.25211386
v 0.07176729 0.24949777 1.26883486
v 0.11425158 0.26060104 1.24588246
v 0.07176729 0.17709210 0.28354280
v 0.10923582 0.38805379 0.30961086
v 0.11425158 0.38805379 0.30223707
v 0.07176729 0.38805379 1.20309333
v 0.11425158 0.26998406 1.24183201
v 0.07176729 0.27960167 0.32633186
v 0.09957444 0.38805379 0.32716273
v 0.11425158 0.38805379 1.17847919
v 0.07176729 0.38805379 0.44182097
v 0.07176729 0.29355892 0.33339413
v 0.09572320 0.38805379 0.33443276
v 0.08789178 0.38805379 0.35987770
v 0.07176729 0.29543551 0.33443276
v 0.09290755 0.38805379 0.34076799
f 1 2 3
f 1 3 4
f 1 4 10
f 1 10 21
f 1 21 32
f 1 32 38
f 1 38 43
f 1 43 40
f 1 40 35
f 1 35 33
f 1 33 22
f 1 22 11
f 1 11 5
f 1 5 15
f 1 15 8
f 1 8 2
f 2 6 7
f 2 7 3
f 2 8 19
f 2 19 30
f 2 30 29
f 2 29 28
f 2 28 26
f 2 26 25
f 2 25 27
f 2 27 34
f 2 34 39
f 2 39 44
f 2 44 48
f 2 48 45
f 2 45 41
f 2 41 36
f 2 36 31
f 2 31 16
f 2 16 6
f 3 7 9
f 3 9 10
f 3 10 4
f 5 11 12
f 5 12 13
f 5 13 14
f 5 14 15
f 6 16 7
f 7 16 17
f 7 17 18
f 7 18 9
f 8 15 19
f 9 18 20
f 9 20 21
f 9 21 10
f 11 22 23
f 11 23 24
f 11 24 12
f 12 25 26
f 12 26 28
f 12 28 13
f 12 24 23
f 12 23 27
f 12 27 25
f 13 28 29
f 13 29 14
f 14 29 30
f 14 30 15
f 15 30 19
f 16 31 17
f 17 31 32
f 17 32 18
f 18 32 20
f 20 32 21
f 22 33 23
f 23 34 27
f 23 33 35
f 23 35 34
f 31 36 32
f 32 36 37
f 32 37 38
f 34 35 40
f 34 40 39
f 36 41 37
f 37 41 42
f 37 42 46
f 37 46 49
f 37 49 47
f 37 47 44
f 37 44 39
f 37 39 43
f 37 43 38
f 39 40 43
f 41 45 46
f 41 46 42
f 44 47 48
f 45 48 46
f 46 48 49
f 47 49 48

