# https://github.com/mikedh/trimesh
v -0.10235853 0.34324067 0.61834608
v -0.10235853 0.51607370 0.61834608
v -0.03668083 0.34324067 0.61834608
v -0.10235853 0.34324067 1.33573093
v -0.10230068 0.52371626 0.61834608
v -0.10235853 0.61232209 0.68954285
v -0.03668083 0.60690859 0.61834608
v -0.03668083 0.34324067 1.32116793
v -0.07540856 0.34324067 1.33706762
v -0.10235853 0.34351929 1.33566057
v -0.10104703 0.54341971 0.61834608
v -0.10235853 0.62637319 0.70410583
v -0.03668083 0.74984814 0.74040774
v -0.03668083 0.72684091 0.71669893
v -0.03668083 0.34829590 1.31821312
v -0.10235853 0.45736143 1.29570034
v -0.10235853 0.45346053 1.29781090
v -0.04305829 0.34324067 1.32426345
v -0.07158979 0.34324067 1.33678621
v -0.10235853 0.64149905 0.71986479
v -0.10235853 0.66526261 0.74561382
v -0.10235853 0.69678814 0.83798670
v -0.10235853 0.70228123 0.86204727
v -0.10235853 0.70514718 0.88681136
v -0.10235853 0.70514718 0.89764566
v -0.10235853 0.70172392 0.92775655
v -0.10235853 0.70021140 0.93563602
v -0.08096957 0.70964514 0.90475127
v -0.06100138 0.71107811 0.90658043
v -0.03668083 0.71167520 0.90510302
v -0.09776829 0.46297393 1.28908717
v -0.03668083 0.54162849 1.19481478
v -0.10235853 0.47734349 1.28015242
v -0.03668083 0.61311813 1.14591976
v -0.04480696 0.34324067 1.32510767
v -0.10235853 0.69503673 0.95997802
v -0.08539907 0.69706679 0.95997802
v -0.10235853 0.67290517 1.05755699
v -0.08539907 0.67262652 1.05755699
v -0.06100138 0.66872565 1.05755699
v -0.03857735 0.66307337 1.05713487
v -0.03668083 0.66283450 1.05614994
v -0.10235853 0.60662997 1.16540742
v -0.08539907 0.60535621 1.16554813
v -0.03668083 0.62203449 1.13072362
v -0.06100138 0.66100347 1.07219031
v -0.08539907 0.66382964 1.07472299
v -0.08539907 0.61602393 1.15337715
v -0.10235853 0.66406852 1.07500441
v -0.04802142 0.65913266 1.07022042
v -0.03668083 0.63887198 1.10019062
v -0.10235853 0.60989397 1.16167874
v -0.10235853 0.61709863 1.15316608
f 1 2 5
f 1 5 11
f 1 11 7
f 1 7 3
f 1 3 8
f 1 8 18
f 1 18 35
f 1 35 19
f 1 19 9
f 1 9 4
f 1 4 10
f 1 10 17
f 1 17 16
f 1 16 33
f 1 33 43
f 1 43 52
f 1 52 53
f 1 53 49
f 1 49 38
f 1 38 36
f 1 36 27
f 1 27 26
f 1 26 25
f 1 25 24
f 1 24 23
f 1 23 22
f 1 22 21
f 1 21 20
f 1 20 12
f 1 12 6
f 1 6 2
f 2 6 5
f 3 7 14
f 3 14 13
f 3 13 30
f 3 30 42
f 3 42 51
f 3 51 45
f 3 45 34
f 3 34 32
f 3 32 15
f 3 15 8
f 4 9 10
f 5 6 11
f 6 12 13
f 6 13 14
f 6 14 11
f 7 11 14
f 8 15 16
f 8 16 17
f 8 17 18
f 9 17 10
f 9 19 17
f 12 20 13
f 13 20 21
f 13 21 22
f 13 22 23
f 13 23 24
f 13 24 25
f 13 25 26
f 13 26 27
f 13 27 28
f 13 28 29
f 13 29 30
f 15 31 16
f 15 32 31
f 16 31 34
f 16 34 33
f 17 19 35
f 17 35 18
f 27 36 28
f 28 36 37
f 28 37 29
f 29 37 38
f 29 38 30
f 30 38 39
f 30 39 40
f 30 40 41
f 30 41 42
f 31 32 34
f 33 34 44
f 33 44 43
f 34 45 46
f 34 46 47
f 34 47 48
f 34 48 44
f 36 38 37
f 38 49 39
f 39 49 47
f 39 47 40
f 40 47 46
f 40 46 50
f 40 50 41
f 41 50 51
f 41 51 42
f 43 44 48
f 43 48 52
f 45 51 50
f 45 50 46
f 47 49 53
f 47 53 48
f 48 53 52

