# https://github.com/mikedh/trimesh
v -0.15859955 -0.94122637 0.42322950
v -0.17589933 -0.93760801 0.42322950
v -0.17589933 -0.93688440 0.40594582
v -0.15859955 -0.94017378 0.39884711
v -0.13419579 -0.93517386 0.37446480
v -0.13283754 -0.93431863 0.39946441
v -0.13667995 -0.93477915 0.42322950
v -0.15859955 -0.94010798 0.44761188
v -0.17589933 -0.93662116 0.44761188
v -0.17589933 -0.93655542 0.39884711
v -0.17589933 -0.93550276 0.38156342
v -0.17589933 -0.93471334 0.37446480
v -0.15859955 -0.93741066 0.37446480
v -0.15859955 -0.93142388 0.35244864
v -0.13419579 -0.93017394 0.35666667
v -0.12055970 -0.92833193 0.36088469
v -0.11891552 -0.92964768 0.37446480
v -0.11933550 -0.92931870 0.39174848
v -0.13844925 -0.93385811 0.44761188
v -0.14243462 -0.93116079 0.46510134
v -0.11562713 -0.85859638 0.74030319
v -0.11924614 -0.85576744 0.75542643
v -0.13419579 -0.86820144 0.71592083
v -0.17589933 -0.86412256 0.74092047
v -0.17589933 -0.93221338 0.36098759
v -0.17589933 -0.91602947 0.30121480
v -0.15859955 -0.91333215 0.30121480
v -0.15859955 -0.90662176 0.28331381
v -0.12115841 -0.87872755 0.23969301
v -0.08461979 -0.86905667 0.25245006
v -0.08461979 -0.86925403 0.25337597
v -0.08461979 -0.87280658 0.27703816
v -0.08461979 -0.86556993 0.64277372
v -0.08461979 -0.86471470 0.65172420
v -0.08461979 -0.86274099 0.66931655
v -0.08461979 -0.86168841 0.67476914
v -0.08461979 -0.83438625 0.76406828
v -0.08461979 -0.82978112 0.77641378
v -0.09273352 -0.83188629 0.78094048
v -0.10980096 -0.83425471 0.78258655
v -0.12912024 -0.85576744 0.75542643
v -0.17589933 -0.85563589 0.75439764
v -0.17589933 -0.83412309 0.13640231
v -0.15859955 -0.83557046 0.13496199
v -0.14088871 -0.83326786 0.13784263
v -0.08461979 -0.85984632 0.23454907
v -0.08461979 -0.81859713 0.78803914
v -0.08461979 -0.75715089 0.85100120
v -0.08461979 -0.70827020 0.89966305
v -0.10980096 -0.73373027 0.87661812
v -0.12390170 -0.73359872 0.87651524
v -0.17589933 -0.66656049 0.93032105
v -0.17589933 -0.82109702 0.12426256
v -0.15859955 -0.82307073 0.12271939
v -0.13419579 -0.81043937 0.11459187
v -0.11899594 -0.80839993 0.11562068
v -0.08461979 -0.76715067 0.16047605
v -0.08540615 -0.70827020 0.89966305
v -0.08461979 -0.69530994 0.90686461
v -0.09740697 -0.63498210 0.94791343
v -0.10980096 -0.65307390 0.94369536
v -0.13419579 -0.65616593 0.94595870
v -0.17589933 -0.65103446 0.94256369
v -0.17589933 -0.81241300 0.11850132
v -0.17589933 -0.73458550 0.06726748
v -0.15859955 -0.73412498 0.06788471
v -0.14313161 -0.73340136 0.06850208
v -0.12148902 -0.75734825 0.09309012
v -0.11964826 -0.74419064 0.08918075
v -0.08461979 -0.57432536 0.06500415
v -0.08461979 -0.58471992 0.06994233
v -0.08461979 -0.76636124 0.15985875
v -0.08461979 -0.47603775 1.02630736
v -0.08568314 -0.47505093 1.02754193
v -0.10881802 -0.47682721 1.04071045
v -0.12483103 -0.48564285 1.04431121
v -0.10980096 -0.64083726 0.95069113
v -0.16887576 -0.51373442 1.04606018
v -0.17589933 -0.51465547 1.04708895
v -0.17589933 -0.72392785 0.06150621
v -0.17589933 -0.71978316 0.05986017
v -0.15859955 -0.71978316 0.06222640
v -0.14058490 -0.71978316 0.06675308
v -0.12839643 -0.71978316 0.07488059
v -0.08461979 -0.54978637 0.06263791
v -0.08461979 -0.47386672 1.02743903
v -0.10003409 -0.46057749 1.04410546
v -0.11629731 -0.46939313 1.04780911
v -0.16907235 -0.41636782 1.09503068
v -0.17589933 -0.48051134 1.06632737
v -0.14108531 -0.49189272 1.04729471
v -0.15260361 -0.50814240 1.04287093
v -0.17589933 -0.49893204 1.05675961
v -0.17589933 -0.70248085 0.05811123
v -0.08461979 -0.54906268 0.06274081
v -0.08540615 -0.54906268 0.06253502
v -0.08461979 -0.45189347 1.03813846
v -0.08461979 -0.45051191 1.03875572
v -0.08461979 -0.43676215 1.04431121
v -0.09437772 -0.44432781 1.04719185
v -0.11462631 -0.40261807 1.07435195
v -0.11966613 -0.41748622 1.07095694
v -0.13659059 -0.40024972 1.08597729
v -0.14632171 -0.39051304 1.09410477
v -0.16000246 -0.40024972 1.09636810
v -0.17589933 -0.40189438 1.10110054
v -0.17589933 -0.41873620 1.09575080
v -0.17589933 -0.42472294 1.09307596
v -0.17589933 -0.26913374 0.08167053
v -0.16308533 -0.26913374 0.08815201
v -0.08461979 -0.40255229 0.10101184
v -0.08461979 -0.42603869 1.04832352
v -0.08461979 -0.42327557 1.04935229
v -0.10774572 -0.37972377 1.07784985
v -0.13171163 -0.37821066 1.09060686
v -0.08540615 -0.40261807 1.05696536
v -0.09823799 -0.38886831 1.06931087
v -0.15859955 -0.37821066 1.10079189
v -0.17589933 -0.37821066 1.10727329
v -0.17589933 -0.26913374 1.09101837
v -0.08461979 -0.37459230 0.11222571
v -0.08646951 -0.26913374 0.15965300
v -0.08461979 -0.26919952 0.16088756
v -0.08461979 -0.40261807 1.05645096
v -0.09561087 -0.37261863 1.07177996
v -0.09530704 -0.26913374 1.07815846
v -0.17589933 -0.35354005 1.10912512
v -0.17169948 -0.26913374 1.09359036
v -0.08461979 -0.26913374 0.16284225
v -0.08461979 -0.37959219 1.06066902
v -0.08461979 -0.26926533 1.06900222
v -0.11473354 -0.26913374 1.08474273
v -0.08461979 -0.26913374 1.06324097
v -0.16969784 -0.26913374 1.09379612
f 1 2 3
f 1 3 4
f 1 4 5
f 1 5 6
f 1 6 7
f 1 7 8
f 1 8 9
f 1 9 2
f 2 9 24
f 2 24 42
f 2 42 52
f 2 52 63
f 2 63 79
f 2 79 93
f 2 93 90
f 2 90 108
f 2 108 107
f 2 107 106
f 2 106 119
f 2 119 127
f 2 127 120
f 2 120 109
f 2 109 94
f 2 94 81
f 2 81 80
f 2 80 65
f 2 65 64
f 2 64 53
f 2 53 43
f 2 43 26
f 2 26 25
f 2 25 12
f 2 12 11
f 2 11 10
f 2 10 3
f 3 10 4
f 4 10 11
f 4 11 12
f 4 12 13
f 4 13 5
f 5 13 14
f 5 14 15
f 5 15 16
f 5 16 17
f 5 17 6
f 6 17 18
f 6 18 7
f 7 18 19
f 7 19 8
f 8 19 20
f 8 20 21
f 8 21 22
f 8 22 23
f 8 23 24
f 8 24 9
f 12 25 13
f 13 25 26
f 13 26 14
f 14 26 15
f 15 26 27
f 15 27 28
f 15 28 16
f 16 28 29
f 16 29 30
f 16 30 17
f 17 30 31
f 17 31 32
f 17 32 33
f 17 33 18
f 18 33 34
f 18 34 35
f 18 35 19
f 19 35 36
f 19 36 21
f 19 21 20
f 21 36 37
f 21 37 22
f 22 37 38
f 22 38 39
f 22 39 40
f 22 40 41
f 22 41 24
f 22 24 23
f 24 41 42
f 26 28 27
f 26 43 44
f 26 44 28
f 28 44 29
f 29 44 45
f 29 45 46
f 29 46 30
f 30 46 57
f 30 57 72
f 30 72 71
f 30 71 70
f 30 70 85
f 30 85 95
f 30 95 111
f 30 111 121
f 30 121 123
f 30 123 129
f 30 129 133
f 30 133 131
f 30 131 130
f 30 130 124
f 30 124 113
f 30 113 112
f 30 112 99
f 30 99 98
f 30 98 97
f 30 97 86
f 30 86 73
f 30 73 59
f 30 59 49
f 30 49 48
f 30 48 47
f 30 47 38
f 30 38 37
f 30 37 36
f 30 36 35
f 30 35 34
f 30 34 33
f 30 33 32
f 30 32 31
f 38 47 39
f 39 47 48
f 39 48 49
f 39 49 40
f 40 42 41
f 40 49 50
f 40 50 51
f 40 51 42
f 42 51 52
f 43 53 54
f 43 54 44
f 44 54 55
f 44 55 56
f 44 56 45
f 45 56 46
f 46 56 57
f 49 58 50
f 49 59 60
f 49 60 61
f 49 61 62
f 49 62 58
f 50 58 62
f 50 62 51
f 51 62 52
f 52 62 63
f 53 64 54
f 54 64 65
f 54 65 55
f 55 65 66
f 55 66 67
f 55 67 56
f 56 67 68
f 56 68 69
f 56 69 70
f 56 70 71
f 56 71 72
f 56 72 57
f 59 73 74
f 59 74 60
f 60 74 75
f 60 75 76
f 60 76 77
f 60 77 61
f 61 77 78
f 61 78 79
f 61 79 62
f 62 79 63
f 65 80 66
f 66 80 67
f 67 80 81
f 67 81 82
f 67 82 83
f 67 83 70
f 67 70 84
f 67 84 69
f 67 69 68
f 69 84 70
f 70 83 82
f 70 82 85
f 73 86 74
f 74 86 87
f 74 87 75
f 75 87 76
f 76 87 88
f 76 88 89
f 76 89 90
f 76 90 91
f 76 91 92
f 76 92 77
f 77 92 78
f 78 92 91
f 78 91 93
f 78 93 79
f 81 94 82
f 82 94 85
f 85 94 96
f 85 96 95
f 86 97 87
f 87 97 98
f 87 98 99
f 87 99 100
f 87 100 101
f 87 101 102
f 87 102 89
f 87 89 88
f 89 103 104
f 89 104 105
f 89 105 106
f 89 106 107
f 89 107 108
f 89 108 90
f 89 102 103
f 90 93 91
f 94 109 96
f 95 96 109
f 95 109 110
f 95 110 111
f 99 112 100
f 100 112 113
f 100 113 101
f 101 114 115
f 101 115 104
f 101 104 103
f 101 103 102
f 101 113 116
f 101 116 117
f 101 117 114
f 104 115 118
f 104 118 119
f 104 119 105
f 105 119 106
f 109 120 128
f 109 128 134
f 109 134 132
f 109 132 126
f 109 126 133
f 109 133 129
f 109 129 122
f 109 122 110
f 110 121 111
f 110 122 123
f 110 123 121
f 113 124 116
f 114 117 125
f 114 125 126
f 114 126 115
f 115 127 118
f 115 126 127
f 116 124 117
f 117 124 125
f 118 127 119
f 120 127 128
f 122 129 123
f 124 130 125
f 125 130 131
f 125 131 126
f 126 132 127
f 126 131 133
f 127 134 128
f 127 132 134

