# https://github.com/mikedh/trimesh
v 0.86266834 -0.26013000 0.83318951
v 0.86266834 -0.27516346 0.82895045
v 0.86266834 -0.25552423 0.83294496
v 0.83501351 -0.30664059 0.91348721
v 0.84347094 -0.30501044 0.88674848
v 0.86266834 -0.35328052 0.80661382
v 0.73680499 -0.25552423 0.97854058
v 0.83022432 -0.29212461 0.92384032
v 0.86266834 -0.25552423 0.38083225
v 0.83427979 -0.32195865 0.90688404
v 0.86266834 -0.37505446 0.79471184
v 0.83022432 -0.29960253 0.92384032
v 0.82944988 -0.31586505 0.92318815
v 0.65449247 -0.25552423 1.06266970
v 0.86266834 -0.38769447 0.48892844
v 0.84004717 -0.32939778 0.32564286
v 0.83591020 -0.30501044 0.30118673
v 0.83116180 -0.30501044 0.28692061
v 0.83105985 -0.28988641 0.28708364
v 0.81141408 -0.25552423 0.30371382
v 0.86266834 -0.38320513 0.78949452
v 0.65449247 -0.28013150 1.06103930
v 0.68824084 -0.34697993 1.02321379
v 0.71347060 -0.34721281 1.00226305
v 0.69661681 -0.35523408 1.01049663
v 0.68872992 -0.37100499 1.00250760
v 0.67909047 -0.38728045 0.99248056
v 0.78636776 -0.34681174 0.92979130
v 0.83065226 -0.36730486 0.85177619
v 0.85955029 -0.38769447 0.78949452
v 0.86250531 -0.38769447 0.78533698
v 0.86266834 -0.38769447 0.78509242
v 0.65449247 -0.25552423 0.24705713
v 0.83342391 -0.38769447 0.38083225
v 0.83735713 -0.37870285 0.37512580
v 0.83843720 -0.35520823 0.34871317
v 0.84522359 -0.35379802 0.37439215
v 0.83419828 -0.34726455 0.32564286
v 0.83315899 -0.32750890 0.30281713
v 0.83020396 -0.31812915 0.28814343
v 0.81738529 -0.30501044 0.27615992
v 0.71903416 -0.25552423 0.23580726
v 0.81683503 -0.28129587 0.28243698
v 0.80833680 -0.26608127 0.28683909
v 0.80181541 -0.25552423 0.29246402
v 0.65449247 -0.28061018 1.06087627
v 0.66270542 -0.36811992 1.02199100
v 0.67898859 -0.36324245 1.01881171
v 0.65911862 -0.38769447 1.00894770
v 0.67796960 -0.38769447 0.99296970
v 0.67880519 -0.38769447 0.99223601
v 0.81767056 -0.38769447 0.83799922
v 0.83574716 -0.38769447 0.81712997
v 0.66922682 -0.25552423 0.23817139
v 0.65769206 -0.26688342 0.23939421
v 0.65449247 -0.26376547 0.24289957
v 0.82474229 -0.38769447 0.36909328
v 0.83423907 -0.37091442 0.35605002
v 0.83083566 -0.34272348 0.31194742
v 0.81738529 -0.32347237 0.28276305
v 0.78424834 -0.31860781 0.26425792
v 0.69598504 -0.28084306 0.23368776
v 0.69541435 -0.25620992 0.22985627
v 0.70342349 -0.25552423 0.23181274
v 0.72125554 -0.25552423 0.23719312
v 0.74369325 -0.25552423 0.25235592
v 0.78995458 -0.25552423 0.28406738
v 0.65449247 -0.37211764 1.02190949
v 0.65449247 -0.37958263 1.01775192
v 0.65449247 -0.38769447 1.01163789
v 0.67267096 -0.25552423 0.23613333
v 0.65449247 -0.27226544 0.23866049
v 0.82358062 -0.38769447 0.36787046
v 0.82398820 -0.38717697 0.36746288
v 0.75958919 -0.38769447 0.31031702
v 0.73737568 -0.38769447 0.29173030
v 0.80391448 -0.34091222 0.28993687
v 0.81738529 -0.33567248 0.29474656
v 0.81754832 -0.37875459 0.34977292
v 0.79859547 -0.38660770 0.34357737
v 0.78765168 -0.34525922 0.28406738
v 0.79409163 -0.32976002 0.27469255
v 0.65449247 -0.32427449 0.23711160
v 0.67053108 -0.30490695 0.23433989
v 0.71891185 -0.38769447 0.28300767
v 0.67102018 -0.28061018 0.23050847
v 0.69539399 -0.25552423 0.23001930
v 0.65449247 -0.38769447 0.30192038
v 0.67161124 -0.25772361 0.23580726
v 0.65449247 -0.28209800 0.23548120
v 0.80053150 -0.38769447 0.34708276
v 0.72926460 -0.38769447 0.28724668
v 0.65449247 -0.30497163 0.23319859
v 0.69790073 -0.38769447 0.28414890
f 1 2 6
f 1 6 11
f 1 11 21
f 1 21 32
f 1 32 15
f 1 15 9
f 1 9 3
f 1 3 4
f 1 4 5
f 1 5 2
f 2 5 6
f 3 7 8
f 3 8 4
f 3 9 20
f 3 20 45
f 3 45 67
f 3 67 66
f 3 66 65
f 3 65 42
f 3 42 64
f 3 64 87
f 3 87 71
f 3 71 54
f 3 54 33
f 3 33 14
f 3 14 7
f 4 10 11
f 4 11 6
f 4 6 5
f 4 8 12
f 4 12 13
f 4 13 10
f 7 14 8
f 8 14 12
f 9 15 16
f 9 16 17
f 9 17 18
f 9 18 19
f 9 19 20
f 10 21 11
f 10 13 21
f 12 14 22
f 12 22 13
f 13 22 23
f 13 23 24
f 13 24 25
f 13 25 26
f 13 26 27
f 13 27 28
f 13 28 29
f 13 29 30
f 13 30 31
f 13 31 32
f 13 32 21
f 14 33 56
f 14 56 72
f 14 72 90
f 14 90 93
f 14 93 83
f 14 83 88
f 14 88 70
f 14 70 69
f 14 69 68
f 14 68 46
f 14 46 22
f 15 34 35
f 15 35 36
f 15 36 37
f 15 37 16
f 15 32 31
f 15 31 30
f 15 30 53
f 15 53 52
f 15 52 51
f 15 51 50
f 15 50 49
f 15 49 70
f 15 70 88
f 15 88 94
f 15 94 85
f 15 85 92
f 15 92 76
f 15 76 75
f 15 75 91
f 15 91 73
f 15 73 57
f 15 57 34
f 16 38 39
f 16 39 40
f 16 40 17
f 16 37 36
f 16 36 38
f 17 40 18
f 18 40 41
f 18 41 19
f 19 41 42
f 19 42 43
f 19 43 44
f 19 44 20
f 20 44 45
f 22 46 23
f 23 46 47
f 23 47 48
f 23 48 25
f 23 25 24
f 25 48 26
f 26 48 49
f 26 49 50
f 26 50 27
f 27 51 28
f 27 50 51
f 28 51 52
f 28 52 29
f 29 52 53
f 29 53 30
f 33 54 55
f 33 55 56
f 34 57 58
f 34 58 35
f 35 58 38
f 35 38 36
f 38 59 39
f 38 58 59
f 39 59 40
f 40 60 41
f 40 59 60
f 41 61 42
f 41 60 61
f 42 62 63
f 42 63 64
f 42 65 43
f 42 61 62
f 43 65 44
f 44 65 66
f 44 66 67
f 44 67 45
f 46 68 47
f 47 68 69
f 47 69 48
f 48 69 70
f 48 70 49
f 54 71 55
f 55 72 56
f 55 71 72
f 57 73 74
f 57 74 58
f 58 74 59
f 59 75 76
f 59 76 77
f 59 77 78
f 59 78 60
f 59 74 79
f 59 79 80
f 59 80 75
f 60 78 77
f 60 77 81
f 60 81 82
f 60 82 61
f 61 83 84
f 61 84 62
f 61 82 85
f 61 85 83
f 62 84 86
f 62 86 63
f 63 86 87
f 63 87 64
f 71 87 89
f 71 89 72
f 72 89 90
f 73 91 80
f 73 80 74
f 74 80 79
f 75 80 91
f 76 92 81
f 76 81 77
f 81 92 82
f 82 92 85
f 83 93 84
f 83 85 94
f 83 94 88
f 84 93 86
f 86 93 90
f 86 90 89
f 86 89 87

