# https://github.com/mikedh/trimesh
v 0.94042269 -0.45139543 0.61843223
v 0.93602808 -0.46664440 0.63184309
v 0.93686782 -0.46664440 0.61943091
v 0.93348091 -0.46664440 0.59375051
v 0.93474053 -0.44940914 0.59182450
v 0.90554568 -0.38770221 0.52633950
v 0.91973719 -0.38770221 0.60544936
v 0.92096882 -0.38770221 0.61843223
v 0.92141668 -0.38770221 0.64282859
v 0.91906544 -0.38770221 0.66715363
v 0.92880640 -0.45726164 0.69155000
v 0.92743480 -0.46260224 0.70410486
v 0.92743480 -0.46441081 0.70410486
v 0.92821855 -0.46664440 0.69697141
v 0.92978606 -0.46664440 0.57898429
v 0.92978606 -0.45622596 0.57898429
v 0.90022732 -0.38770221 0.51414132
v 0.91220757 -0.38770221 0.69183534
v 0.89345345 -0.38770221 0.74034274
v 0.88323669 -0.38770221 0.76445377
v 0.92452369 -0.46664440 0.70567421
v 0.92687494 -0.46664440 0.70239283
v 0.85482560 -0.46467357 0.80283169
v 0.90509781 -0.46664440 0.55530127
v 0.82358746 -0.38770221 0.36783443
v 0.82473508 -0.38770221 0.36911844
v 0.83341235 -0.38770221 0.38081727
v 0.85482560 -0.45913201 0.80283169
v 0.81765325 -0.38770221 0.83807088
v 0.85331409 -0.46664440 0.80133366
v 0.83442000 -0.46664440 0.82059395
v 0.84858359 -0.46664440 0.80668374
v 0.67881684 -0.38770221 0.99222454
v 0.83066921 -0.46484362 0.82630071
v 0.86660993 -0.46664440 0.52113207
v 0.75778012 -0.39113380 0.31240758
v 0.80052264 -0.38770221 0.34700477
v 0.82932561 -0.46664440 0.82487402
v 0.67797716 -0.38770221 0.99300924
v 0.65913906 -0.38770221 1.00898815
v 0.65449247 -0.39162071 1.00891682
v 0.65449247 -0.39645124 1.00370939
v 0.65449247 -0.40796718 0.99051255
v 0.71355394 -0.46664440 0.39173147
v 0.70941128 -0.46477403 0.38452667
v 0.73242003 -0.43955488 0.36184231
v 0.73169227 -0.39014451 0.28936658
v 0.75959951 -0.38770221 0.31033891
v 0.65449247 -0.40909558 0.98908583
v 0.65449247 -0.41345464 0.98266576
v 0.65449247 -0.41740408 0.97681631
v 0.65449247 -0.43687298 0.94692721
v 0.65449247 -0.43791637 0.94521518
v 0.65449247 -0.43885930 0.94343182
v 0.65449247 -0.44374393 0.93223231
v 0.65449247 -0.44862852 0.92074747
v 0.65449247 -0.46477403 0.87873150
v 0.65454846 -0.46664440 0.86232458
v 0.65449247 -0.38770221 1.01169885
v 0.69871865 -0.46664440 0.38295735
v 0.71005505 -0.41641480 0.30998223
v 0.71542940 -0.39563971 0.28508652
v 0.72925703 -0.38770221 0.28722653
v 0.73737451 -0.38770221 0.29172060
v 0.65449247 -0.46664440 0.86218191
v 0.65449247 -0.38770221 0.30192143
v 0.69541566 -0.46664440 0.38181597
v 0.69541566 -0.41691717 0.30905486
v 0.69950240 -0.39563971 0.28508652
v 0.71890029 -0.38770221 0.28294648
v 0.65449247 -0.46664440 0.38666672
v 0.69790690 -0.38770221 0.28415915
v 0.65449247 -0.39619618 0.30848421
v 0.67103532 -0.46664440 0.38281468
v 0.68150404 -0.41602059 0.31105223
f 1 2 3
f 1 3 4
f 1 4 5
f 1 5 6
f 1 6 7
f 1 7 8
f 1 8 9
f 1 9 10
f 1 10 11
f 1 11 12
f 1 12 13
f 1 13 14
f 1 14 2
f 2 14 22
f 2 22 21
f 2 21 30
f 2 30 32
f 2 32 31
f 2 31 38
f 2 38 58
f 2 58 65
f 2 65 71
f 2 71 74
f 2 74 67
f 2 67 60
f 2 60 44
f 2 44 35
f 2 35 24
f 2 24 15
f 2 15 4
f 2 4 3
f 4 15 5
f 5 15 16
f 5 16 6
f 6 17 27
f 6 27 26
f 6 26 25
f 6 25 37
f 6 37 48
f 6 48 64
f 6 64 63
f 6 63 70
f 6 70 72
f 6 72 66
f 6 66 59
f 6 59 40
f 6 40 39
f 6 39 33
f 6 33 29
f 6 29 20
f 6 20 19
f 6 19 18
f 6 18 10
f 6 10 9
f 6 9 8
f 6 8 7
f 6 16 17
f 10 18 12
f 10 12 11
f 12 18 19
f 12 19 20
f 12 20 13
f 13 21 22
f 13 22 14
f 13 20 23
f 13 23 21
f 15 17 16
f 15 24 25
f 15 25 26
f 15 26 27
f 15 27 17
f 20 28 23
f 20 29 28
f 21 23 30
f 23 31 32
f 23 32 30
f 23 28 33
f 23 33 34
f 23 34 31
f 24 35 36
f 24 36 25
f 25 36 37
f 28 29 33
f 31 34 38
f 33 39 34
f 34 39 40
f 34 40 41
f 34 41 42
f 34 42 43
f 34 43 38
f 35 44 45
f 35 45 46
f 35 46 36
f 36 46 47
f 36 47 48
f 36 48 37
f 38 43 49
f 38 49 50
f 38 50 51
f 38 51 52
f 38 52 53
f 38 53 54
f 38 54 55
f 38 55 56
f 38 56 57
f 38 57 58
f 40 59 41
f 41 59 66
f 41 66 73
f 41 73 71
f 41 71 65
f 41 65 57
f 41 57 56
f 41 56 55
f 41 55 54
f 41 54 53
f 41 53 52
f 41 52 51
f 41 51 50
f 41 50 49
f 41 49 43
f 41 43 42
f 44 60 45
f 45 60 61
f 45 61 46
f 46 61 47
f 47 62 63
f 47 63 64
f 47 64 48
f 47 61 62
f 57 65 58
f 60 67 61
f 61 68 62
f 61 67 68
f 62 69 70
f 62 70 63
f 62 68 69
f 66 72 69
f 66 69 73
f 67 74 68
f 68 75 69
f 68 74 75
f 69 72 70
f 69 75 73
f 71 73 75
f 71 75 74

