# https://github.com/mikedh/trimesh
v 0.51180390 -0.57576110 0.93615094
v 0.51180390 -0.57339864 0.93581100
v 0.41682659 -0.54306024 0.94827491
v 0.41867686 -0.54899480 0.94872814
v 0.50234799 -0.57576110 0.93769948
v 0.51180390 -0.57576110 0.64362715
v 0.51180390 -0.56178937 0.93411139
v 0.41682659 -0.53478762 0.94676412
v 0.41682659 -0.54927894 0.94872814
v 0.42688683 -0.49283179 0.93868148
v 0.41892792 -0.57339864 0.94880367
v 0.50020019 -0.57576110 0.93803940
v 0.50256185 -0.57576110 0.64506239
v 0.41682659 -0.50992914 0.56295177
v 0.51180390 -0.51380972 0.56295177
v 0.51180390 -0.54899480 0.93207184
v 0.41682659 -0.49283179 0.93898364
v 0.41682659 -0.57306581 0.94876590
v 0.51180390 -0.49283179 0.91926801
v 0.41792375 -0.57576110 0.94861482
v 0.41822128 -0.57576110 0.94861482
v 0.50132526 -0.57576110 0.64528900
v 0.41682659 -0.49283179 0.56295177
v 0.41682659 -0.57576110 0.66107660
v 0.51180390 -0.49283179 0.56295177
v 0.41682659 -0.57576110 0.94857705
f 1 2 3
f 1 3 4
f 1 4 5
f 1 5 12
f 1 12 21
f 1 21 20
f 1 20 26
f 1 26 24
f 1 24 22
f 1 22 13
f 1 13 6
f 1 6 15
f 1 15 25
f 1 25 19
f 1 19 16
f 1 16 7
f 1 7 2
f 2 7 3
f 3 8 17
f 3 17 23
f 3 23 14
f 3 14 24
f 3 24 26
f 3 26 18
f 3 18 9
f 3 9 4
f 3 7 10
f 3 10 8
f 4 9 11
f 4 11 12
f 4 12 5
f 6 13 14
f 6 14 15
f 7 16 10
f 8 10 17
f 9 18 11
f 10 16 19
f 10 19 25
f 10 25 23
f 10 23 17
f 11 18 20
f 11 20 21
f 11 21 12
f 13 22 14
f 14 23 25
f 14 25 15
f 14 22 24
f 18 26 20

