# https://github.com/mikedh/trimesh
v -0.03667021 -0.01286108 0.25308957
v -0.03667021 0.15858100 0.21281945
v 0.04863609 -0.01286108 0.28920933
v -0.03667021 -0.01286108 1.33948614
v -0.03667021 0.16813190 0.21629681
v 0.07175667 0.17705031 0.28348855
v 0.07175667 0.17176884 0.28169373
v 0.07175667 0.15858100 0.27911378
v 0.05851913 -0.01286108 0.30457705
v 0.05412431 -0.01286108 1.31570549
v -0.03659590 -0.00697873 1.34386091
v -0.03667021 -0.00707361 1.34374871
v -0.03667021 0.18435580 0.22291507
v 0.07175667 0.27961196 0.32633862
v 0.07175667 0.14191433 0.28416155
v 0.07175667 -0.01286108 0.33665857
v 0.06566336 -0.01286108 1.31110639
v 0.07175667 0.00048489 1.31357421
v 0.05442153 -0.01219695 1.31581762
v -0.03667021 0.01228122 1.35563907
v -0.03667021 0.18704399 0.22470982
v 0.07175667 0.29545634 0.33441509
v 0.07175667 0.29359044 0.33340555
v 0.07175667 -0.01286108 1.30852636
v 0.07175667 0.01487452 1.31660283
v -0.03667021 0.03780304 1.35855556
v -0.03667021 0.20247725 0.23660018
v -0.03667021 0.21218628 0.24703226
v -0.03667021 0.27113631 0.31130744
v -0.03667021 0.28198386 0.32409521
v -0.03667021 0.28305914 0.32566562
v 0.07175667 0.29972580 0.35000714
v 0.07175667 0.02135776 1.31660283
v -0.03667021 0.03811930 1.35855556
v -0.03667021 0.31022549 0.46375070
v -0.03661713 0.31022549 0.46049767
v 0.07175667 0.31022549 0.44939255
v 0.07175667 0.02825212 1.31626636
v -0.02271081 0.27562713 1.33892527
v -0.03427111 0.28248987 1.34307571
v -0.03667021 0.28014959 1.34408525
v -0.03667021 0.31022549 1.33769140
v 0.07175667 0.31022549 1.23022954
v 0.00449676 0.28059234 1.31806111
v -0.01362393 0.28248987 1.33174621
v -0.02460037 0.29188267 1.33802793
v 0.07175667 0.23179414 1.27420143
v -0.03667021 0.29045951 1.34273917
v -0.03667021 0.28233174 1.34386091
v -0.03667021 0.30497564 1.33993488
v -0.03079982 0.31022549 1.33466270
v 0.07175667 0.25541841 1.26612496
v 0.00084503 0.31022549 1.31458375
v -0.02885718 0.30497564 1.33589665
v -0.00701046 0.31022549 1.32041672
v 0.07175667 0.24947281 1.26881712
v -0.02527975 0.31022549 1.33152188
f 1 2 3
f 1 3 9
f 1 9 16
f 1 16 24
f 1 24 17
f 1 17 10
f 1 10 4
f 1 4 12
f 1 12 20
f 1 20 26
f 1 26 34
f 1 34 41
f 1 41 49
f 1 49 48
f 1 48 50
f 1 50 42
f 1 42 35
f 1 35 31
f 1 31 30
f 1 30 29
f 1 29 28
f 1 28 27
f 1 27 21
f 1 21 13
f 1 13 5
f 1 5 2
f 2 5 6
f 2 6 7
f 2 7 8
f 2 8 3
f 3 8 9
f 4 10 11
f 4 11 12
f 5 13 6
f 6 13 14
f 6 14 23
f 6 23 22
f 6 22 32
f 6 32 37
f 6 37 43
f 6 43 52
f 6 52 56
f 6 56 47
f 6 47 38
f 6 38 33
f 6 33 25
f 6 25 18
f 6 18 24
f 6 24 16
f 6 16 15
f 6 15 8
f 6 8 7
f 8 15 9
f 9 15 16
f 10 17 18
f 10 18 19
f 10 19 20
f 10 20 11
f 11 20 12
f 13 21 22
f 13 22 23
f 13 23 14
f 17 24 18
f 18 25 20
f 18 20 19
f 20 25 26
f 21 27 22
f 22 27 28
f 22 28 29
f 22 29 30
f 22 30 31
f 22 31 32
f 25 33 34
f 25 34 26
f 31 35 36
f 31 36 32
f 32 36 37
f 33 38 34
f 34 39 40
f 34 40 41
f 34 38 39
f 35 42 51
f 35 51 57
f 35 57 55
f 35 55 53
f 35 53 43
f 35 43 37
f 35 37 36
f 38 44 45
f 38 45 46
f 38 46 39
f 38 47 44
f 39 46 40
f 40 48 49
f 40 49 41
f 40 46 48
f 42 50 51
f 43 53 52
f 44 47 53
f 44 53 45
f 45 53 46
f 46 54 50
f 46 50 48
f 46 53 55
f 46 55 54
f 47 56 53
f 50 54 51
f 51 54 57
f 52 53 56
f 54 55 57

