# https://github.com/mikedh/trimesh
v 0.19086226 0.27010001 0.24928971
v 0.20740631 0.27010001 0.24989225
v 0.18300412 0.27010001 0.24959098
v 0.28167710 0.31617289 0.19014367
v 0.28167710 0.27010001 0.26867036
v 0.17186725 0.27010001 0.25400938
v 0.19000226 0.31186898 0.21233603
v 0.20740631 0.30925842 0.20892178
v 0.24391284 0.31723122 0.19134868
v 0.28167710 0.32760291 0.18351611
v 0.28167710 0.27010001 1.14983561
v 0.17186725 0.29070228 0.23744043
v 0.17186725 0.27010001 1.19030396
v 0.17186725 0.30474287 0.22990913
v 0.17482347 0.32943736 0.21976690
v 0.18702454 0.32943736 0.20952432
v 0.21710267 0.33825682 0.18974205
v 0.23418421 0.32986069 0.18713120
v 0.22763755 0.32202899 0.19385919
v 0.25415745 0.32725012 0.18572535
v 0.25619993 0.35384964 0.17518143
v 0.28167710 0.35286184 0.17698897
v 0.28167710 0.37924968 1.12473121
v 0.17917716 0.27010001 1.19080600
v 0.17186725 0.62245516 1.10504929
v 0.17186725 0.32943736 0.22267903
v 0.17186725 0.46546877 0.19175037
v 0.18075739 0.47407654 0.18492196
v 0.21782292 0.46278763 0.16664597
v 0.23179774 0.35384964 0.18040321
v 0.22234860 0.46278763 0.16664597
v 0.25619993 0.48317822 0.16554139
v 0.27026075 0.48621211 0.16604343
v 0.28167710 0.35384964 0.17688855
v 0.28167710 0.37960247 1.12463078
v 0.28167710 0.51535162 1.07150978
v 0.17711317 0.62224355 1.10143427
v 0.17317873 0.63684854 1.09731714
v 0.17186725 0.63550798 1.09882342
v 0.17186725 0.47950932 0.18913952
v 0.21782292 0.46497487 0.16664597
v 0.25520019 0.50088770 0.16493885
v 0.27926915 0.50258104 0.16554139
v 0.28167710 0.50427439 0.16584258
v 0.28167710 0.71199035 0.97530966
v 0.17186725 0.63734243 1.09761841
v 0.28167710 0.72497265 0.96566956
v 0.28167710 0.73908373 0.95402111
v 0.17186725 0.48748212 0.18913952
v 0.17186725 0.74416379 0.19807667
v 0.21669418 0.78261662 0.19054537
v 0.26266060 0.51655106 0.16564181
v 0.28059138 0.51584552 0.16594301
v 0.28167710 0.51556330 0.16604343
v 0.28167710 0.83010063 0.85039004
v 0.21301773 0.88301744 0.73551220
v 0.17186725 0.78431000 0.86615562
v 0.28167710 0.73978931 0.95341859
v 0.18300412 0.76857607 0.19817709
v 0.17186725 0.76899936 0.20249507
v 0.22284310 0.78261662 0.19054537
v 0.17186725 0.78452161 0.21213518
v 0.18300412 0.78790829 0.20922305
v 0.20728807 0.79348217 0.20319803
v 0.21414646 0.80702890 0.21323976
v 0.23179774 0.80985115 0.21093017
v 0.25619993 0.81069780 0.21093017
v 0.28167710 0.54900672 0.17206853
v 0.25619993 0.79298828 0.20309761
v 0.27502294 0.79298828 0.21103060
v 0.28167710 0.88612183 0.75157903
v 0.25619993 0.90143247 0.72587210
v 0.24004290 0.90559520 0.70980527
v 0.17186725 0.88167682 0.71010652
v 0.17186725 0.87448017 0.72225706
v 0.27157223 0.80815777 0.21323976
v 0.18300412 0.80011446 0.22087148
v 0.17186725 0.80533560 0.23241956
v 0.19788191 0.80427726 0.21685478
v 0.21647917 0.83130003 0.23854501
v 0.23179774 0.82205725 0.22378361
v 0.23179774 0.83313455 0.23593416
v 0.25619993 0.82290390 0.22458700
v 0.28167710 0.79312942 0.22026902
v 0.28167710 0.92591529 0.66903569
v 0.26864828 0.92725584 0.67957954
v 0.26815379 0.92725584 0.67957954
v 0.25619993 0.90785301 0.71362114
v 0.23718341 0.98073709 0.54019978
v 0.17186725 0.88576908 0.70036601
v 0.28167710 0.79813887 0.22257861
v 0.28167710 0.97798538 0.40875301
v 0.17186725 0.80886335 0.23623543
v 0.18300412 0.81133277 0.23302203
v 0.17186725 0.87807846 0.33102971
v 0.17186725 0.88033627 0.33414268
v 0.26800328 0.97615093 0.41086179
v 0.28059138 0.97791477 0.40885343
v 0.28167710 0.92859639 0.66341230
v 0.28167710 0.98158367 0.54702819
v 0.28113961 0.98158367 0.54712861
v 0.25599569 0.98221871 0.54702819
v 0.25619993 0.99089706 0.52081917
v 0.23014227 0.98482928 0.52091959
v 0.17186725 0.88901462 0.67827411
v 0.21855391 0.97883203 0.51288618
v 0.21668345 0.98059595 0.49641767
v 0.28167710 0.98497042 0.42251025
v 0.17186725 0.88118292 0.34097109
v 0.21612445 0.97989037 0.47201617
v 0.21781216 0.97791477 0.45604975
v 0.24003213 0.97784423 0.43235118
v 0.25840366 0.97996090 0.42381568
v 0.28059138 0.98518203 0.42321316
v 0.28167710 0.98172482 0.54652609
v 0.28167710 0.98878040 0.52081917
v 0.28167710 0.98962712 0.44761466
v 0.28059138 0.98962712 0.44761466
v 0.23179774 0.98962712 0.49641767
v 0.17186725 0.89247184 0.55154698
v 0.28167710 0.98532318 0.42321316
v 0.23179774 0.98631090 0.47201617
v 0.23185150 0.98045480 0.44781550
v 0.25619993 0.98659319 0.44761466
v 0.28167710 0.98955651 0.44651008
f 1 2 5
f 1 5 11
f 1 11 24
f 1 24 13
f 1 13 6
f 1 6 3
f 1 3 4
f 1 4 2
f 2 4 5
f 3 6 7
f 3 7 8
f 3 8 9
f 3 9 4
f 4 9 10
f 4 10 22
f 4 22 34
f 4 34 44
f 4 44 54
f 4 54 68
f 4 68 84
f 4 84 91
f 4 91 92
f 4 92 108
f 4 108 121
f 4 121 125
f 4 125 117
f 4 117 116
f 4 116 115
f 4 115 100
f 4 100 99
f 4 99 85
f 4 85 71
f 4 71 55
f 4 55 58
f 4 58 48
f 4 48 47
f 4 47 45
f 4 45 36
f 4 36 35
f 4 35 23
f 4 23 11
f 4 11 5
f 6 12 7
f 6 13 25
f 6 25 39
f 6 39 46
f 6 46 57
f 6 57 75
f 6 75 74
f 6 74 90
f 6 90 105
f 6 105 120
f 6 120 109
f 6 109 96
f 6 96 95
f 6 95 93
f 6 93 78
f 6 78 62
f 6 62 60
f 6 60 50
f 6 50 49
f 6 49 40
f 6 40 27
f 6 27 26
f 6 26 14
f 6 14 12
f 7 12 14
f 7 14 15
f 7 15 16
f 7 16 17
f 7 17 18
f 7 18 19
f 7 19 9
f 7 9 8
f 9 19 18
f 9 18 20
f 9 20 10
f 10 20 21
f 10 21 22
f 11 23 24
f 13 24 25
f 14 26 15
f 15 26 27
f 15 27 16
f 16 27 17
f 17 27 28
f 17 28 29
f 17 29 30
f 17 30 18
f 18 30 21
f 18 21 20
f 21 29 31
f 21 31 32
f 21 32 33
f 21 33 34
f 21 34 22
f 21 30 29
f 23 35 25
f 23 25 24
f 25 35 36
f 25 36 37
f 25 37 38
f 25 38 39
f 27 40 28
f 28 40 29
f 29 41 42
f 29 42 32
f 29 32 31
f 29 40 49
f 29 49 41
f 32 42 43
f 32 43 33
f 33 43 34
f 34 43 44
f 36 45 37
f 37 45 38
f 38 46 39
f 38 45 47
f 38 47 48
f 38 48 46
f 41 49 50
f 41 50 51
f 41 51 42
f 42 52 53
f 42 53 43
f 42 51 52
f 43 53 54
f 43 54 44
f 46 55 56
f 46 56 57
f 46 48 58
f 46 58 55
f 50 59 51
f 50 60 59
f 51 61 52
f 51 59 60
f 51 60 62
f 51 62 63
f 51 63 64
f 51 64 65
f 51 65 66
f 51 66 67
f 51 67 61
f 52 61 53
f 53 61 54
f 54 61 69
f 54 69 70
f 54 70 68
f 55 71 72
f 55 72 56
f 56 72 73
f 56 73 74
f 56 74 75
f 56 75 57
f 61 67 76
f 61 76 69
f 62 77 63
f 62 78 77
f 63 77 79
f 63 79 64
f 64 79 65
f 65 79 80
f 65 80 81
f 65 81 66
f 66 81 67
f 67 81 82
f 67 82 83
f 67 83 76
f 68 70 84
f 69 76 70
f 70 76 84
f 71 85 86
f 71 86 72
f 72 86 87
f 72 87 88
f 72 88 73
f 73 88 87
f 73 87 89
f 73 89 74
f 74 89 90
f 76 91 84
f 76 83 92
f 76 92 91
f 77 78 79
f 78 93 79
f 79 93 94
f 79 94 80
f 80 82 81
f 80 94 93
f 80 93 95
f 80 95 96
f 80 96 97
f 80 97 98
f 80 98 82
f 82 98 92
f 82 92 83
f 85 99 86
f 86 99 100
f 86 100 101
f 86 101 102
f 86 102 87
f 87 102 89
f 89 102 103
f 89 103 104
f 89 104 90
f 90 104 106
f 90 106 107
f 90 107 105
f 92 98 108
f 96 109 110
f 96 110 111
f 96 111 112
f 96 112 97
f 97 112 113
f 97 113 114
f 97 114 98
f 98 114 108
f 100 115 103
f 100 103 101
f 101 103 102
f 103 116 117
f 103 117 118
f 103 118 119
f 103 119 104
f 103 115 116
f 104 119 107
f 104 107 106
f 105 107 120
f 107 119 110
f 107 110 120
f 108 114 121
f 109 120 110
f 110 119 122
f 110 122 111
f 111 122 123
f 111 123 112
f 112 123 113
f 113 123 124
f 113 124 114
f 114 124 121
f 117 125 118
f 118 125 121
f 118 121 124
f 118 124 119
f 119 124 122
f 122 124 123

