# https://github.com/mikedh/trimesh
v 0.42700103 -0.08943163 0.22882280
v 0.42340070 -0.08943163 0.22912553
v 0.42700103 -0.08537264 0.22690524
v 0.59196335 -0.08943163 0.24577788
v 0.41681732 -0.08943163 0.22983205
v 0.41681732 -0.08537264 0.22801542
v 0.57339609 0.13417943 0.14969903
v 0.59196335 0.11561449 0.15383689
v 0.59196335 -0.08943163 1.05255765
v 0.41681732 -0.08943163 1.15398539
v 0.41681732 -0.02299043 0.21287690
v 0.56004068 0.16791571 0.14223071
v 0.56436106 0.16791571 0.14223071
v 0.57286464 0.15929866 0.14445100
v 0.59196335 0.14006831 0.15020362
v 0.59196335 -0.07429355 1.11906599
v 0.58964887 -0.07562438 1.12158908
v 0.57211027 -0.08943163 1.10574411
v 0.42297210 -0.08943163 1.15448998
v 0.41681732 0.06101759 1.17033495
v 0.41681732 -0.01217752 0.21035389
v 0.43579605 0.09209225 0.18946275
v 0.43553889 0.10979215 0.18905909
v 0.56004068 0.17220762 0.14223071
v 0.56436106 0.17220762 0.14223071
v 0.59196335 0.15876633 0.14929531
v 0.59196335 -0.07149883 1.12249739
v 0.54630814 -0.08943163 1.12835088
v 0.56084647 -0.08943163 1.11765308
v 0.54167917 -0.07472608 1.14449864
v 0.54371934 -0.08943163 1.13016751
v 0.42700103 -0.08943163 1.15469185
v 0.50823067 0.01220976 1.16983036
v 0.52458629 0.03663031 1.17326169
v 0.41681732 0.08537160 1.17013309
v 0.41681732 0.08507216 0.20591324
v 0.52906099 0.25045985 0.15918579
v 0.41681732 0.25045985 0.21247324
v 0.54865687 0.25045985 0.15585531
v 0.57171595 0.25045985 0.15353409
v 0.57913945 0.25045985 0.15383689
v 0.59196335 0.18262129 0.15030455
v 0.59196335 -0.06098535 1.12713984
v 0.54558804 -0.06098535 1.14803090
v 0.52458629 -0.03659807 1.15983895
v 0.52458629 -0.06098535 1.15196697
v 0.47581082 -0.08943163 1.15105865
v 0.49573245 -0.08943163 1.14692080
v 0.49928134 -0.08943163 1.14601248
v 0.51162525 -0.08943163 1.14167276
v 0.45141447 -0.08943163 1.15398539
v 0.52678077 0.00984755 1.17023402
v 0.53924467 0.01640184 1.16892205
v 0.54308500 0.03663031 1.17013309
v 0.54274209 0.05306594 1.16952757
v 0.41681732 0.25045985 1.14833370
v 0.59196335 0.25045985 0.15787381
v 0.59196335 -0.04242041 1.13299339
v 0.59196335 -0.00718695 1.14207649
v 0.53636442 0.00013257 1.16730728
v 0.47178191 -0.08943163 1.15166417
v 0.59196335 0.03609798 1.15015033
v 0.59196335 0.05519525 1.15277435
v 0.57339609 0.06101759 1.15953615
v 0.59196335 0.06101759 1.15337987
v 0.59196335 0.07958253 1.15186604
v 0.42156629 0.25045985 1.14702173
v 0.59196335 0.25045985 1.03398773
v 0.59196335 -0.00089882 1.14359033
v 0.59196335 0.00781805 1.14520509
v 0.59196335 0.09645068 1.14611341
v 0.45035157 0.25045985 1.13561741
v 0.48918335 0.25045985 1.11946965
v 0.59196335 0.09971119 1.14470043
v 0.47006747 0.25045985 1.12774536
v 0.47558795 0.25045985 1.12552507
f 1 2 3
f 1 3 4
f 1 4 9
f 1 9 18
f 1 18 29
f 1 29 28
f 1 28 31
f 1 31 50
f 1 50 49
f 1 49 48
f 1 48 47
f 1 47 61
f 1 61 51
f 1 51 32
f 1 32 19
f 1 19 10
f 1 10 5
f 1 5 2
f 2 5 3
f 3 5 6
f 3 6 7
f 3 7 8
f 3 8 4
f 4 8 15
f 4 15 26
f 4 26 42
f 4 42 57
f 4 57 68
f 4 68 74
f 4 74 71
f 4 71 66
f 4 66 65
f 4 65 63
f 4 63 62
f 4 62 70
f 4 70 69
f 4 69 59
f 4 59 58
f 4 58 43
f 4 43 27
f 4 27 16
f 4 16 9
f 5 10 20
f 5 20 35
f 5 35 56
f 5 56 38
f 5 38 36
f 5 36 21
f 5 21 11
f 5 11 6
f 6 11 12
f 6 12 7
f 7 12 13
f 7 13 8
f 8 13 14
f 8 14 15
f 9 16 17
f 9 17 18
f 10 19 20
f 11 21 12
f 12 21 22
f 12 22 23
f 12 23 24
f 12 24 25
f 12 25 13
f 13 25 26
f 13 26 14
f 14 26 15
f 16 27 17
f 17 28 29
f 17 29 18
f 17 27 30
f 17 30 31
f 17 31 28
f 19 32 33
f 19 33 20
f 20 33 34
f 20 34 35
f 21 36 22
f 22 36 23
f 23 37 24
f 23 36 38
f 23 38 37
f 24 37 39
f 24 39 40
f 24 40 25
f 25 40 41
f 25 41 42
f 25 42 26
f 27 43 30
f 30 44 45
f 30 45 46
f 30 46 47
f 30 47 48
f 30 48 49
f 30 49 50
f 30 50 31
f 30 43 44
f 32 51 52
f 32 52 33
f 33 52 34
f 34 52 53
f 34 53 54
f 34 54 55
f 34 55 56
f 34 56 35
f 37 38 56
f 37 56 67
f 37 67 72
f 37 72 75
f 37 75 76
f 37 76 73
f 37 73 68
f 37 68 57
f 37 57 41
f 37 41 40
f 37 40 39
f 41 57 42
f 43 58 44
f 44 58 59
f 44 59 60
f 44 60 45
f 45 60 51
f 45 51 61
f 45 61 47
f 45 47 46
f 51 60 52
f 52 60 53
f 53 60 62
f 53 62 63
f 53 63 54
f 54 64 55
f 54 63 65
f 54 65 64
f 55 64 66
f 55 66 56
f 56 66 67
f 59 69 60
f 60 69 70
f 60 70 62
f 64 65 66
f 66 71 67
f 67 71 72
f 68 73 74
f 71 74 72
f 72 74 75
f 73 76 74
f 74 76 75

