# https://github.com/mikedh/trimesh
v -0.65925927 -0.76924792 0.55698328
v -0.67100775 -0.76738991 0.54521001
v -0.65925927 -0.76854488 0.54521001
v -0.65925927 -0.76789202 0.59389154
v -0.69541422 -0.76221750 0.54521001
v -0.69541422 -0.76020882 0.52427977
v -0.67100775 -0.76292053 0.52213067
v -0.65925927 -0.76623486 0.53324986
v -0.70823921 -0.75664340 0.60874829
v -0.65925927 -0.75659315 0.70499007
v -0.70933427 -0.75699491 0.59389154
v -0.72336567 -0.75458447 0.54521001
v -0.71013234 -0.75699491 0.52941887
v -0.71889266 -0.75332907 0.52110284
v -0.69541422 -0.75518708 0.51203931
v -0.65925927 -0.76302096 0.52334538
v -0.68984622 -0.68473221 0.38393493
v -0.68028777 -0.68473221 0.38393493
v -0.74420859 -0.74534452 0.61827902
v -0.74420859 -0.74870902 0.54521001
v -0.71980214 -0.74685101 0.66714743
v -0.74420859 -0.74388820 0.64275995
v -0.65925927 -0.75649272 0.70527039
v -0.71267506 -0.73625517 0.71078327
v -0.72041456 -0.73992102 0.69200210
v -0.74613882 -0.73836427 0.66864245
v -0.74420859 -0.74524402 0.52082253
v -0.74420859 -0.73685778 0.50465764
v -0.74467254 -0.66600114 0.37272230
v -0.71980214 -0.68839805 0.40159482
v -0.65925927 -0.66047722 0.36001462
v -0.71980214 -0.68151830 0.38944781
v -0.69695466 -0.67800306 0.37524513
v -0.69541422 -0.66479592 0.35487552
v -0.69541422 -0.51831207 0.15818719
v -0.67100775 -0.66333960 0.35683773
v -0.77073085 -0.73705863 0.61799870
v -0.76859644 -0.73891671 0.56950405
v -0.78227522 -0.73324211 0.56950405
v -0.78168134 -0.73284035 0.55520795
v -0.76945021 -0.73756082 0.54633126
v -0.76458750 -0.73670711 0.64275995
v -0.65925927 -0.75172208 0.71788460
v -0.75553023 -0.73088191 0.67789287
v -0.73929018 -0.73580323 0.68424669
v -0.69561833 -0.73896689 0.71769773
v -0.78223814 -0.58670802 0.85094123
v -0.77910146 -0.60960711 0.82496528
v -0.84885010 -0.61116385 0.77824596
v -0.75970618 -0.73404557 0.66163455
v -0.76100544 -0.73570273 0.52082253
v -0.75703352 -0.73273992 0.50792799
v -0.76158078 -0.66323918 0.37973021
v -0.75311739 -0.65781575 0.36347184
v -0.73684025 -0.66002528 0.36038839
v -0.71980214 -0.67252938 0.37440419
v -0.67778214 -0.51650424 0.16033629
v -0.65925927 -0.49003972 0.14024697
v -0.71980214 -0.66193353 0.35786553
v -0.71980214 -0.65319570 0.34562510
v -0.71980214 -0.51645403 0.16211162
v -0.69541422 -0.50731447 0.14604017
v -0.67100775 -0.49415754 0.13716348
v -0.78028930 -0.73113301 0.62594099
v -0.78106884 -0.73223774 0.60968267
v -0.78181121 -0.73279017 0.59389154
v -0.84885010 -0.63577029 0.73190040
v -0.84885010 -0.63582054 0.72610720
v -0.84885010 -0.63582054 0.71508144
v -0.84885010 -0.63546902 0.70844730
v -0.84885010 -0.62100641 0.47092630
v -0.84885010 -0.62000211 0.46167586
v -0.84885010 -0.61618559 0.44878134
v -0.84885010 -0.61372490 0.44102593
v -0.84885010 -0.61076209 0.43299022
v -0.82917646 -0.60970754 0.38757903
v -0.65925927 -0.74062405 0.73105946
v -0.68763757 -0.73349321 0.72881692
v -0.84885010 -0.61924883 0.76516455
v -0.84885010 -0.63110014 0.74329992
v -0.84885010 -0.63275730 0.73946893
v -0.66148647 -0.58731063 0.90093088
v -0.70760817 -0.56119763 0.89896867
v -0.80816650 -0.56431111 0.85262311
v -0.84885010 -0.60312909 0.78516043
v -0.83223889 -0.58776257 0.35898683
v -0.78138436 -0.48878429 0.16659666
v -0.76985853 -0.50550663 0.17790274
v -0.75302460 -0.50992576 0.16883921
v -0.73676600 -0.51394316 0.16547539
v -0.65925927 -0.46573456 0.11688728
v -0.69541422 -0.49511167 0.13772414
v -0.67100775 -0.46678911 0.11642014
v -0.67100775 -0.47899190 0.12501646
v -0.84885010 -0.58198758 0.37440419
v -0.83743567 -0.59313583 0.37440419
v -0.65925927 -0.58746130 0.90102433
v -0.65925927 -0.47517539 0.95886286
v -0.68450089 -0.36705755 0.99717269
v -0.84885010 -0.34405799 0.92569213
v -0.84885010 -0.54899484 0.81870489
v -0.84885010 -0.56782632 0.35515585
v -0.84885010 -0.44062590 0.18687287
v -0.80612488 -0.46452934 0.16631634
v -0.81551630 -0.44946412 0.16248535
v -0.79185222 -0.44971521 0.15089899
v -0.78296197 -0.44042502 0.14192886
v -0.68554025 -0.46588519 0.11716768
v -0.65925927 -0.46362542 0.11576605
v -0.67100775 -0.45142262 0.10857128
v -0.65925927 -0.37720145 1.00305933
v -0.66562534 -0.32271564 1.02352238
v -0.68995756 -0.35380016 0.99978896
v -0.84885010 -0.33632454 0.92877562
v -0.84885010 -0.42681612 0.17500614
v -0.83027151 -0.44007350 0.16631634
v -0.83498574 -0.42701700 0.16248535
v -0.81503367 -0.42470701 0.14996460
v -0.79922055 -0.43128549 0.14473202
v -0.72900791 -0.38784750 0.09520955
v -0.71274931 -0.39342160 0.09212603
v -0.65925927 -0.45142262 0.11202850
v -0.69541422 -0.41014398 0.09633086
v -0.69541422 -0.39794119 0.09221955
v -0.67100775 -0.42701700 0.10146996
v -0.65925927 -0.44373934 0.10978596
v -0.65925927 -0.32527676 1.02436333
v -0.65925927 -0.31679002 1.02688616
v -0.65925927 -0.25622795 1.04454605
v -0.84885010 -0.32944479 0.93064439
v -0.84885010 -0.42485765 0.17416520
v -0.83806672 -0.40030139 0.15407588
v -0.82969618 -0.39060947 0.14258295
v -0.82160393 -0.40687987 0.14538611
v -0.73489141 -0.37157710 0.09165889
v -0.72045172 -0.37910971 0.09035070
v -0.68249643 -0.39743900 0.09334078
v -0.69595248 -0.37996338 0.09137856
v -0.65925927 -0.42701700 0.10791719
v -0.84885010 -0.25622795 0.94793051
v -0.84885010 -0.26486532 0.94718301
v -0.65925927 -0.25622795 0.16556884
v -0.84885010 -0.40205901 0.16510166
v -0.82969618 -0.38910294 0.14258295
v -0.75814720 -0.34350563 0.09240643
v -0.74350330 -0.35249452 0.09025733
v -0.71963503 -0.35385038 0.08997700
v -0.68249643 -0.38925357 0.09334078
v -0.70443440 -0.36198560 0.09193915
v -0.65925927 -0.41777702 0.10894505
v -0.84885010 -0.25622795 0.24788829
v -0.65925927 -0.40622705 0.11184162
v -0.72767157 -0.33602327 0.09156545
v -0.74420859 -0.31950173 0.09530299
v -0.67388454 -0.25622795 0.16930638
v -0.84885010 -0.37825600 0.17182925
v -0.82902797 -0.37283253 0.14361078
v -0.75814720 -0.33401455 0.09240643
v -0.74420859 -0.33170456 0.09100480
v -0.73444595 -0.25622795 0.18986287
v -0.76859644 -0.31427915 0.11137441
v -0.78225668 -0.31628783 0.11698080
v -0.80634761 -0.31618741 0.14099447
v -0.80979974 -0.32944479 0.13678975
v -0.84885010 -0.28053314 0.23125619
v -0.76720447 -0.32728544 0.10118964
v -0.69541422 -0.25622795 0.17594053
v -0.84885010 -0.35605998 0.18322873
v -0.79808841 -0.32944479 0.12464273
v -0.78587583 -0.32944479 0.11501858
v -0.71980214 -0.25622795 0.18435000
v -0.84885010 -0.35118887 0.18612533
f 1 2 3
f 1 3 8
f 1 8 16
f 1 16 31
f 1 31 58
f 1 58 91
f 1 91 109
f 1 109 122
f 1 122 126
f 1 126 139
f 1 139 150
f 1 150 152
f 1 152 142
f 1 142 129
f 1 129 128
f 1 128 127
f 1 127 111
f 1 111 98
f 1 98 97
f 1 97 77
f 1 77 43
f 1 43 23
f 1 23 10
f 1 10 4
f 1 4 2
f 2 4 5
f 2 5 6
f 2 6 7
f 2 7 8
f 2 8 3
f 4 9 5
f 4 10 9
f 5 9 11
f 5 11 12
f 5 12 13
f 5 13 6
f 6 13 14
f 6 14 15
f 6 15 7
f 7 16 8
f 7 15 17
f 7 17 18
f 7 18 16
f 9 19 20
f 9 20 11
f 9 10 21
f 9 21 22
f 9 22 19
f 10 23 24
f 10 24 25
f 10 25 26
f 10 26 21
f 11 20 12
f 12 20 13
f 13 20 14
f 14 20 27
f 14 27 28
f 14 28 29
f 14 29 15
f 15 30 17
f 15 29 30
f 16 18 31
f 17 30 32
f 17 32 33
f 17 33 34
f 17 34 18
f 18 34 35
f 18 35 36
f 18 36 31
f 19 37 20
f 19 22 37
f 20 37 38
f 20 38 39
f 20 39 40
f 20 40 41
f 20 41 27
f 21 26 22
f 22 26 42
f 22 42 37
f 23 43 24
f 24 44 45
f 24 45 25
f 24 43 46
f 24 46 47
f 24 47 48
f 24 48 49
f 24 49 44
f 25 45 26
f 26 50 42
f 26 45 44
f 26 44 50
f 27 51 52
f 27 52 28
f 27 41 51
f 28 52 53
f 28 53 54
f 28 54 29
f 29 54 55
f 29 55 56
f 29 56 32
f 29 32 30
f 31 36 57
f 31 57 58
f 32 56 33
f 33 56 55
f 33 55 59
f 33 59 34
f 34 59 60
f 34 60 35
f 35 61 62
f 35 62 63
f 35 63 57
f 35 57 36
f 35 60 61
f 37 64 65
f 37 65 66
f 37 66 39
f 37 39 38
f 37 42 64
f 39 66 67
f 39 67 68
f 39 68 69
f 39 69 70
f 39 70 71
f 39 71 40
f 40 71 72
f 40 72 73
f 40 73 74
f 40 74 75
f 40 75 76
f 40 76 51
f 40 51 41
f 42 50 64
f 43 77 78
f 43 78 46
f 44 49 79
f 44 79 80
f 44 80 81
f 44 81 67
f 44 67 50
f 46 78 47
f 47 82 83
f 47 83 84
f 47 84 49
f 47 49 48
f 47 78 82
f 49 85 101
f 49 101 100
f 49 100 114
f 49 114 130
f 49 130 141
f 49 141 140
f 49 140 151
f 49 151 165
f 49 165 172
f 49 172 168
f 49 168 156
f 49 156 143
f 49 143 131
f 49 131 115
f 49 115 103
f 49 103 102
f 49 102 95
f 49 95 75
f 49 75 74
f 49 74 73
f 49 73 72
f 49 72 71
f 49 71 70
f 49 70 69
f 49 69 68
f 49 68 67
f 49 67 81
f 49 81 80
f 49 80 79
f 49 84 85
f 50 67 64
f 51 76 52
f 52 76 53
f 53 76 86
f 53 86 87
f 53 87 54
f 54 87 88
f 54 88 89
f 54 89 90
f 54 90 61
f 54 61 55
f 55 60 59
f 55 61 60
f 57 63 58
f 58 63 91
f 61 90 62
f 62 92 93
f 62 93 94
f 62 94 63
f 62 90 92
f 63 94 91
f 64 67 65
f 65 67 66
f 75 95 76
f 76 95 96
f 76 96 86
f 77 97 82
f 77 82 78
f 82 97 98
f 82 98 83
f 83 98 99
f 83 99 84
f 84 99 100
f 84 100 101
f 84 101 85
f 86 96 95
f 86 95 102
f 86 102 103
f 86 103 87
f 87 103 104
f 87 104 105
f 87 105 106
f 87 106 107
f 87 107 108
f 87 108 92
f 87 92 89
f 87 89 88
f 89 92 90
f 91 94 93
f 91 93 109
f 92 108 93
f 93 108 110
f 93 110 109
f 98 111 99
f 99 111 112
f 99 112 113
f 99 113 100
f 100 113 114
f 103 115 116
f 103 116 104
f 104 116 105
f 105 117 118
f 105 118 119
f 105 119 106
f 105 116 117
f 106 119 107
f 107 119 120
f 107 120 108
f 108 120 121
f 108 121 110
f 109 110 122
f 110 121 123
f 110 123 124
f 110 124 125
f 110 125 126
f 110 126 122
f 111 127 112
f 112 127 128
f 112 128 129
f 112 129 130
f 112 130 114
f 112 114 113
f 115 131 117
f 115 117 116
f 117 132 133
f 117 133 134
f 117 134 118
f 117 131 132
f 118 134 119
f 119 134 133
f 119 133 120
f 120 135 121
f 120 133 135
f 121 135 136
f 121 136 124
f 121 124 123
f 124 137 125
f 124 136 138
f 124 138 137
f 125 139 126
f 125 137 139
f 129 140 141
f 129 141 130
f 129 142 155
f 129 155 167
f 129 167 171
f 129 171 160
f 129 160 151
f 129 151 140
f 131 143 132
f 132 143 133
f 133 143 144
f 133 144 158
f 133 158 145
f 133 145 135
f 135 146 136
f 135 145 146
f 136 146 147
f 136 147 138
f 137 138 148
f 137 148 139
f 138 147 149
f 138 149 148
f 139 148 150
f 142 152 148
f 142 148 149
f 142 149 153
f 142 153 154
f 142 154 155
f 143 156 157
f 143 157 144
f 144 157 158
f 145 158 146
f 146 158 159
f 146 159 147
f 147 159 153
f 147 153 149
f 148 152 150
f 151 160 161
f 151 161 162
f 151 162 163
f 151 163 164
f 151 164 165
f 153 159 154
f 154 159 158
f 154 158 166
f 154 166 161
f 154 161 167
f 154 167 155
f 156 168 157
f 157 164 169
f 157 169 158
f 157 168 164
f 158 169 170
f 158 170 166
f 160 171 161
f 161 171 167
f 161 166 162
f 162 166 170
f 162 170 169
f 162 169 163
f 163 169 164
f 164 168 172
f 164 172 165

