# https://github.com/mikedh/trimesh
v -0.03668552 -0.71901744 0.39037430
v -0.03668552 -0.71901744 0.18465651
v -0.08461979 -0.71901744 0.39037430
v -0.03668552 -0.86483905 0.39037430
v -0.08461979 -0.71901744 0.15980741
v -0.03668552 -0.93959415 0.17062515
v -0.08461979 -0.84222806 0.39037430
v -0.03668552 -0.96062426 0.28047709
v -0.08461979 -0.74577217 0.15917375
v -0.08461979 -0.76567653 0.15964900
v -0.03668552 -0.94546247 0.17295615
v -0.07492031 -0.93298331 0.21312658
v -0.08461979 -0.76641905 0.15983006
v -0.08461979 -0.87276724 0.27730871
v -0.07512209 -0.93324677 0.22797266
v -0.07403811 -0.92946232 0.24243403
v -0.05235390 -0.95528292 0.27067777
v -0.03792435 -0.96141470 0.27798768
v -0.03668552 -0.96215722 0.27789714
v -0.03668552 -0.95406134 0.18526755
v -0.05397751 -0.95281583 0.21222135
v -0.06764688 -0.94543847 0.22797266
v -0.08461979 -0.87279116 0.27699188
v -0.08461979 -0.86924625 0.25329700
v -0.08461979 -0.86905464 0.25239174
v -0.08461979 -0.85990486 0.23453572
v -0.08461979 -0.76720950 0.16044111
v -0.05423560 -0.95583376 0.25239174
v -0.03668552 -0.96371410 0.25227859
v -0.03668552 -0.95775002 0.20029467
v -0.03668552 -0.95830085 0.20391568
v -0.05545097 -0.95396550 0.22797266
f 1 2 5
f 1 5 3
f 1 3 7
f 1 7 4
f 1 4 8
f 1 8 19
f 1 19 29
f 1 29 31
f 1 31 30
f 1 30 20
f 1 20 11
f 1 11 6
f 1 6 2
f 2 6 5
f 3 5 9
f 3 9 10
f 3 10 13
f 3 13 27
f 3 27 26
f 3 26 25
f 3 25 24
f 3 24 23
f 3 23 14
f 3 14 7
f 4 7 8
f 5 6 9
f 6 10 9
f 6 11 12
f 6 12 13
f 6 13 10
f 7 14 15
f 7 15 16
f 7 16 17
f 7 17 8
f 8 17 18
f 8 18 19
f 11 20 12
f 12 20 21
f 12 21 22
f 12 22 15
f 12 15 23
f 12 23 24
f 12 24 25
f 12 25 26
f 12 26 27
f 12 27 13
f 14 23 15
f 15 22 17
f 15 17 16
f 17 22 28
f 17 28 19
f 17 19 18
f 19 28 29
f 20 30 21
f 21 30 31
f 21 31 29
f 21 29 32
f 21 32 22
f 22 32 28
f 28 32 29

