# https://github.com/mikedh/trimesh
v 0.93688468 -0.46666745 0.61943542
v 0.93602779 -0.46666745 0.63180801
v 0.93268312 -0.47818572 0.64196953
v 0.93417580 -0.47818572 0.62018813
v 0.93273839 -0.47677660 0.59492545
v 0.93348469 -0.46666745 0.59374935
v 0.92820510 -0.46666745 0.69696407
v 0.92881323 -0.46836763 0.69155401
v 0.93083108 -0.47668468 0.66530341
v 0.92737582 -0.48814168 0.65594163
v 0.92781810 -0.48847866 0.61327264
v 0.92781810 -0.48847866 0.60367564
v 0.92546851 -0.48555315 0.58739840
v 0.92980830 -0.46928664 0.57897750
v 0.92980830 -0.46666745 0.57897750
v 0.92685058 -0.46666745 0.70237414
v 0.92334006 -0.48055984 0.69155401
v 0.92577255 -0.48539997 0.67221889
v 0.91114990 -0.49405399 0.69155401
v 0.76083178 -0.58865096 0.75859183
v 0.73440589 -0.61090636 0.56961573
v 0.73470999 -0.61092170 0.55592589
v 0.82822343 -0.53614475 0.51175149
v 0.85871273 -0.51581928 0.52078397
v 0.90421167 -0.48941301 0.55597294
v 0.88030123 -0.49206280 0.53108662
v 0.90540032 -0.47581163 0.55498502
v 0.90509621 -0.46666745 0.55531434
v 0.92452863 -0.46666745 0.70571428
v 0.90719703 -0.49102127 0.70830170
v 0.82841692 -0.53550145 0.77378707
v 0.84583144 -0.53133527 0.74033872
v 0.83131931 -0.53781431 0.75750981
v 0.78501871 -0.56440437 0.78051438
v 0.76862690 -0.56820296 0.78234910
v 0.74421884 -0.59085660 0.76042655
v 0.65452010 -0.62312926 0.69268306
v 0.70883689 -0.61082979 0.68369764
v 0.72088889 -0.61306608 0.59257324
v 0.69540287 -0.61701785 0.61840045
v 0.72978969 -0.61092170 0.55592589
v 0.74421884 -0.56899944 0.49763827
v 0.76425948 -0.56625773 0.50154294
v 0.80511453 -0.53669616 0.48427776
v 0.85451109 -0.51293969 0.50817614
v 0.88030123 -0.48270422 0.53108662
v 0.85475986 -0.50021140 0.50798798
v 0.86661837 -0.46666745 0.52116032
v 0.85329481 -0.46666745 0.80135491
v 0.85683305 -0.51603372 0.75694529
v 0.84856801 -0.46666745 0.80667088
v 0.83441526 -0.46666745 0.82059594
v 0.82932910 -0.46666745 0.82492399
v 0.78490810 -0.53980550 0.80408346
v 0.81213565 -0.54104614 0.78169048
v 0.74421884 -0.57901667 0.77265801
v 0.65454773 -0.46666745 0.86237109
v 0.65452010 -0.46666745 0.86237109
v 0.72796527 -0.58955466 0.75699233
v 0.65452010 -0.62300673 0.69310646
v 0.65452010 -0.61977487 0.66638542
v 0.69520929 -0.61407700 0.59398457
v 0.69540287 -0.61661957 0.64276928
v 0.70319791 -0.61203981 0.57822479
v 0.65452010 -0.51627878 0.43097681
v 0.65452010 -0.51174498 0.42509628
v 0.65452010 -0.49455946 0.40331489
v 0.74421884 -0.55921196 0.48545386
v 0.78888860 -0.54181200 0.47933812
v 0.69871989 -0.46666745 0.38299182
v 0.71353604 -0.46666745 0.39169500
v 0.85448345 -0.48665595 0.50822319
v 0.65452010 -0.46666745 0.38666126
v 0.65452010 -0.56000844 0.51640888
v 0.68100127 -0.61196324 0.60212319
v 0.67693789 -0.61470499 0.61840045
v 0.65452010 -0.47617922 0.39094230
v 0.67102245 -0.46666745 0.38280366
v 0.67102245 -0.47999312 0.39197725
v 0.69540287 -0.46666745 0.38176867
v 0.67102245 -0.49304311 0.40420874
v 0.65482414 -0.46666745 0.38656720
v 0.65452010 -0.46698908 0.38675536
f 1 2 3
f 1 3 4
f 1 4 5
f 1 5 6
f 1 6 15
f 1 15 28
f 1 28 48
f 1 48 71
f 1 71 70
f 1 70 80
f 1 80 78
f 1 78 82
f 1 82 73
f 1 73 58
f 1 58 57
f 1 57 53
f 1 53 52
f 1 52 51
f 1 51 49
f 1 49 29
f 1 29 16
f 1 16 7
f 1 7 2
f 2 7 8
f 2 8 9
f 2 9 3
f 3 9 10
f 3 10 4
f 4 11 12
f 4 12 5
f 4 10 11
f 5 13 14
f 5 14 6
f 5 12 13
f 6 14 15
f 7 16 8
f 8 16 17
f 8 17 18
f 8 18 9
f 9 18 10
f 10 18 19
f 10 19 20
f 10 20 21
f 10 21 22
f 10 22 11
f 11 22 12
f 12 22 23
f 12 23 13
f 13 23 24
f 13 24 25
f 13 25 14
f 14 25 26
f 14 26 27
f 14 27 15
f 15 27 28
f 16 29 30
f 16 30 17
f 17 19 18
f 17 30 19
f 19 30 31
f 19 31 32
f 19 32 20
f 20 32 33
f 20 33 31
f 20 31 34
f 20 34 35
f 20 35 36
f 20 36 37
f 20 37 38
f 20 38 21
f 21 39 22
f 21 38 39
f 22 39 40
f 22 40 41
f 22 41 42
f 22 42 43
f 22 43 44
f 22 44 23
f 23 44 45
f 23 45 24
f 24 45 25
f 25 45 26
f 26 46 27
f 26 45 47
f 26 47 46
f 27 46 28
f 28 46 48
f 29 49 50
f 29 50 30
f 30 50 31
f 31 50 49
f 31 49 51
f 31 51 52
f 31 52 53
f 31 53 54
f 31 54 55
f 31 55 34
f 31 33 32
f 34 55 54
f 34 54 35
f 35 56 36
f 35 54 57
f 35 57 58
f 35 58 56
f 36 56 58
f 36 58 59
f 36 59 60
f 36 60 37
f 37 60 58
f 37 58 73
f 37 73 83
f 37 83 77
f 37 77 67
f 37 67 66
f 37 66 65
f 37 65 74
f 37 74 61
f 37 61 62
f 37 62 40
f 37 40 39
f 37 39 63
f 37 63 38
f 38 63 39
f 40 62 41
f 41 62 64
f 41 64 65
f 41 65 42
f 42 65 66
f 42 66 67
f 42 67 68
f 42 68 69
f 42 69 43
f 43 69 44
f 44 69 70
f 44 70 71
f 44 71 45
f 45 71 47
f 46 47 72
f 46 72 48
f 47 71 72
f 48 72 71
f 53 57 54
f 58 60 59
f 61 74 75
f 61 75 76
f 61 76 62
f 62 76 75
f 62 75 64
f 64 75 74
f 64 74 65
f 67 77 78
f 67 78 79
f 67 79 80
f 67 80 81
f 67 81 68
f 68 81 80
f 68 80 69
f 69 80 70
f 73 82 83
f 77 83 78
f 78 83 82
f 78 80 79

