# https://github.com/mikedh/trimesh
v 0.27575795 -0.52207209 0.63004443
v 0.27575795 -0.52207209 0.40099258
v 0.17185651 -0.52207209 0.63004443
v 0.27575795 -0.75627108 0.63004443
v 0.17390098 -0.52207209 0.28556057
v 0.27575795 -0.68895201 0.30848388
v 0.20121133 -0.64660319 0.20782069
v 0.19243339 -0.64660319 0.19563415
v 0.17629126 -0.62954478 0.18612057
v 0.17185651 -0.52207209 0.28356723
v 0.17185651 -0.83602953 0.63004443
v 0.27486288 -0.76285661 0.63004443
v 0.27575795 -0.84179190 0.61926232
v 0.17261938 -0.52207209 0.28429208
v 0.27575795 -0.69576625 0.30513145
v 0.27575795 -0.71497412 0.29715813
v 0.18023780 -0.64660319 0.18335708
v 0.27575795 -0.73939556 0.29339801
v 0.27575795 -0.83694417 0.27881044
v 0.27575795 -0.84179190 0.27822150
v 0.19643076 -0.77511311 0.18924645
v 0.17185651 -0.64660319 0.17597267
v 0.17185651 -0.62721243 0.18399132
v 0.17185651 -0.91496474 0.59905718
v 0.18057346 -0.94181008 0.59103856
v 0.20740575 -0.93938618 0.59955551
v 0.23179693 -0.92136739 0.60544490
v 0.17228372 -0.83593805 0.63004443
v 0.25278063 -0.78970195 0.63004443
v 0.22279518 -0.80817807 0.63004443
v 0.20761937 -0.81750760 0.63004443
v 0.17658625 -0.83497767 0.63004443
v 0.27575795 -0.89392758 0.60956747
v 0.27575795 -0.86136561 0.27677180
v 0.19643076 -0.78663785 0.18924645
v 0.17185651 -0.78078400 0.16727450
v 0.17185651 -0.77968640 0.16731981
v 0.17185651 -0.93883745 0.58899992
v 0.17185651 -0.95054507 0.58274811
v 0.18708319 -0.95589586 0.58569281
v 0.20740575 -0.95923433 0.58863750
v 0.23179693 -0.93938618 0.59910248
v 0.27575795 -0.90490352 0.60693991
v 0.27575795 -0.86616760 0.27677180
v 0.17185651 -0.80067789 0.16872420
v 0.17185651 -0.78576887 0.16727450
v 0.17185651 -0.95310612 0.58057358
v 0.18009538 -0.96522540 0.57155827
v 0.18937176 -0.97889952 0.56136510
v 0.20740575 -0.97144509 0.57518252
v 0.23179693 -0.95758800 0.58759552
v 0.27575795 -0.90732734 0.60598854
v 0.27575795 -0.89118358 0.28275178
v 0.17185651 -0.80383348 0.17062693
v 0.27575795 -0.89886671 0.28528875
v 0.17185651 -0.97418909 0.55479617
v 0.17310760 -0.97460067 0.55552102
v 0.17185651 -0.98168927 0.54224726
v 0.18194660 -0.98383873 0.54650573
v 0.20740575 -0.97926544 0.56299602
v 0.22140169 -0.97743615 0.56082147
v 0.24633194 -0.95365492 0.58433372
v 0.27575795 -0.92068137 0.59575007
v 0.17185651 -0.81494656 0.18113722
v 0.27203521 -0.90499492 0.28723679
v 0.27575795 -0.90714439 0.29362453
v 0.17185651 -0.97542384 0.55307467
v 0.17185651 -0.98434179 0.52072834
v 0.18300443 -0.98928099 0.52072834
v 0.20740575 -0.98548513 0.54514664
v 0.22289689 -0.97885386 0.54514664
v 0.27575795 -0.95854838 0.49404487
v 0.27575795 -0.95809106 0.49635533
v 0.27575795 -0.95392928 0.51588091
v 0.27575795 -0.94592605 0.54514664
v 0.27575795 -0.93838006 0.56956495
v 0.27575795 -0.93133720 0.58582872
v 0.17185651 -0.82734020 0.19459218
v 0.27575795 -0.91098599 0.30137133
v 0.25619825 -0.91610808 0.30119011
v 0.25619825 -0.90499492 0.28737270
v 0.17185651 -0.98132342 0.51030866
v 0.23118663 -0.97478356 0.47284308
v 0.20740575 -0.98754311 0.52072834
v 0.18300443 -0.98164353 0.50074974
v 0.23179693 -0.96682606 0.44756403
v 0.25619825 -0.97071333 0.47193702
v 0.27575795 -0.95946303 0.47193702
v 0.23379051 -0.90952255 0.30196027
v 0.21678385 -0.90586390 0.31061313
v 0.17185651 -0.97917396 0.50469107
v 0.27575795 -0.91944662 0.32560843
v 0.25619825 -0.92470593 0.32560843
v 0.25619825 -0.96646014 0.44756403
v 0.27405932 -0.95671903 0.44756403
v 0.27575795 -0.95863979 0.46663659
v 0.27575795 -0.95278602 0.43986251
v 0.27093668 -0.95338056 0.42962404
v 0.27575795 -0.95493541 0.44756403
f 1 2 5
f 1 5 14
f 1 14 10
f 1 10 3
f 1 3 11
f 1 11 28
f 1 28 32
f 1 32 31
f 1 31 30
f 1 30 29
f 1 29 12
f 1 12 4
f 1 4 13
f 1 13 33
f 1 33 43
f 1 43 52
f 1 52 63
f 1 63 77
f 1 77 76
f 1 76 75
f 1 75 74
f 1 74 73
f 1 73 72
f 1 72 88
f 1 88 96
f 1 96 99
f 1 99 97
f 1 97 92
f 1 92 79
f 1 79 66
f 1 66 55
f 1 55 53
f 1 53 44
f 1 44 34
f 1 34 20
f 1 20 19
f 1 19 18
f 1 18 16
f 1 16 15
f 1 15 6
f 1 6 2
f 2 6 7
f 2 7 8
f 2 8 9
f 2 9 5
f 3 10 23
f 3 23 22
f 3 22 37
f 3 37 36
f 3 36 46
f 3 46 45
f 3 45 54
f 3 54 64
f 3 64 78
f 3 78 91
f 3 91 82
f 3 82 68
f 3 68 58
f 3 58 67
f 3 67 56
f 3 56 47
f 3 47 39
f 3 39 38
f 3 38 24
f 3 24 11
f 4 12 13
f 5 9 14
f 6 15 7
f 7 15 16
f 7 16 8
f 8 17 9
f 8 16 18
f 8 18 19
f 8 19 20
f 8 20 21
f 8 21 17
f 9 17 22
f 9 22 23
f 9 23 14
f 10 14 23
f 11 24 25
f 11 25 26
f 11 26 27
f 11 27 28
f 12 29 13
f 13 29 30
f 13 30 31
f 13 31 32
f 13 32 33
f 17 21 22
f 20 34 21
f 21 34 44
f 21 44 35
f 21 35 46
f 21 46 36
f 21 36 37
f 21 37 22
f 24 38 25
f 25 39 40
f 25 40 26
f 25 38 39
f 26 40 41
f 26 41 42
f 26 42 27
f 27 42 43
f 27 43 32
f 27 32 28
f 32 43 33
f 35 45 46
f 35 44 45
f 39 47 40
f 40 47 48
f 40 48 49
f 40 49 41
f 41 49 50
f 41 50 51
f 41 51 42
f 42 51 52
f 42 52 43
f 44 53 45
f 45 53 55
f 45 55 54
f 47 56 57
f 47 57 48
f 48 57 49
f 49 57 58
f 49 58 59
f 49 59 60
f 49 60 50
f 50 60 61
f 50 61 51
f 51 62 52
f 51 61 62
f 52 62 63
f 54 55 65
f 54 65 64
f 55 66 65
f 56 67 57
f 57 67 58
f 58 68 69
f 58 69 59
f 59 69 70
f 59 70 60
f 60 70 61
f 61 70 71
f 61 71 72
f 61 72 73
f 61 73 74
f 61 74 75
f 61 75 62
f 62 75 76
f 62 76 77
f 62 77 63
f 64 65 78
f 65 66 79
f 65 79 80
f 65 80 81
f 65 81 78
f 68 82 69
f 69 83 84
f 69 84 70
f 69 82 85
f 69 85 80
f 69 80 86
f 69 86 83
f 70 84 71
f 71 84 87
f 71 87 72
f 72 87 88
f 78 81 80
f 78 80 89
f 78 89 90
f 78 90 91
f 79 92 93
f 79 93 80
f 80 93 86
f 80 85 89
f 82 91 85
f 83 86 94
f 83 94 84
f 84 94 87
f 85 91 89
f 86 93 94
f 87 94 95
f 87 95 88
f 88 95 96
f 89 91 90
f 92 97 95
f 92 95 98
f 92 98 94
f 92 94 93
f 94 98 95
f 95 97 99
f 95 99 96

