# https://github.com/mikedh/trimesh
v -0.11774379 0.34320093 0.51458733
v -0.10235855 0.34320093 0.51467620
v -0.14266833 0.34320093 0.51467620
v -0.17590104 0.37307107 0.52587323
v -0.17590104 0.40127591 0.53715916
v -0.17590104 0.42009092 0.54613460
v -0.10235855 0.52274086 0.61696048
v -0.10235855 0.34320093 1.33570522
v -0.16793844 0.34320093 0.51574256
v -0.17590104 0.34320093 0.51627577
v -0.17590104 0.42437832 0.54871172
v -0.17590104 0.43444136 0.55662075
v -0.17590104 0.43763036 0.55919783
v -0.10235855 0.61231591 0.68956363
v -0.10235855 0.34351980 1.33561636
v -0.13931339 0.40262235 1.36769690
v -0.17590104 0.34320093 1.42243806
v -0.17590104 0.49120531 0.62744659
v -0.14882387 0.63860736 0.74723740
v -0.12696630 0.63683574 0.72510986
v -0.10235855 0.62638293 0.70413759
v -0.12281942 0.42700037 1.33597184
v -0.10235855 0.45346896 1.29784849
v -0.13541128 0.42923266 1.35267851
v -0.14325869 0.42257125 1.36449769
v -0.15859355 0.43823271 1.36183171
v -0.17590104 0.58644971 1.26567916
v -0.17590104 0.67907207 0.90452946
v -0.17590104 0.68459963 0.91474901
v -0.17443237 0.68658388 0.91599312
v -0.12438890 0.65972552 0.75123635
v -0.13380579 0.64583572 0.74110566
v -0.10235855 0.66525309 0.74554895
v -0.10235855 0.64151287 0.71986679
v -0.10235855 0.45733122 1.29571572
v -0.12111314 0.46487848 1.31517730
v -0.13855024 0.44698473 1.34610251
v -0.17068865 0.58570563 1.26496824
v -0.17590104 0.59552063 1.25270480
v -0.17590104 0.68580435 0.93563242
v -0.10980279 0.70047369 0.86240718
v -0.10980279 0.69491071 0.83805801
v -0.17508752 0.68644215 0.93563242
v -0.15859355 0.69398945 0.93563242
v -0.10235855 0.69675323 0.83805801
v -0.11500080 0.47412654 1.30042561
v -0.10235855 0.47731550 1.28016424
v -0.11917649 0.48953996 1.29153903
v -0.10235855 0.60664662 1.16534993
v -0.10235855 0.60990648 1.16170645
v -0.10235855 0.61709943 1.15317535
v -0.16585780 0.59109147 1.25270480
v -0.17590104 0.60629230 1.22959973
v -0.10235855 0.66404837 1.07497365
v -0.10235855 0.66674133 1.06973059
v -0.10235855 0.67290670 1.05755598
v -0.17590104 0.68569811 0.95349440
v -0.10235855 0.70515089 0.88684521
v -0.10235855 0.70228080 0.86205172
v -0.10235855 0.70065090 0.85494247
v -0.17590104 0.68559179 0.95962612
v -0.17590104 0.68523744 0.97953201
v -0.13420177 0.69870207 0.93563242
v -0.10235855 0.70515089 0.89759794
v -0.10980279 0.67304843 1.05755598
v -0.10235855 0.69501702 0.95998158
v -0.10235855 0.70019023 0.93563242
v -0.10235855 0.70171389 0.92772337
f 1 2 8
f 1 8 17
f 1 17 10
f 1 10 9
f 1 9 3
f 1 3 4
f 1 4 2
f 2 4 5
f 2 5 6
f 2 6 7
f 2 7 14
f 2 14 21
f 2 21 34
f 2 34 33
f 2 33 45
f 2 45 60
f 2 60 59
f 2 59 58
f 2 58 64
f 2 64 68
f 2 68 67
f 2 67 66
f 2 66 56
f 2 56 55
f 2 55 54
f 2 54 51
f 2 51 50
f 2 50 49
f 2 49 47
f 2 47 35
f 2 35 23
f 2 23 15
f 2 15 8
f 3 9 4
f 4 9 10
f 4 10 17
f 4 17 27
f 4 27 39
f 4 39 53
f 4 53 62
f 4 62 61
f 4 61 57
f 4 57 40
f 4 40 29
f 4 29 28
f 4 28 18
f 4 18 13
f 4 13 12
f 4 12 11
f 4 11 6
f 4 6 5
f 6 11 7
f 7 11 12
f 7 12 13
f 7 13 14
f 8 15 16
f 8 16 17
f 13 18 19
f 13 19 20
f 13 20 14
f 14 20 21
f 15 22 16
f 15 23 22
f 16 22 24
f 16 24 25
f 16 25 17
f 17 25 26
f 17 26 27
f 18 28 19
f 19 28 29
f 19 29 30
f 19 30 31
f 19 31 32
f 19 32 20
f 20 32 31
f 20 31 33
f 20 33 34
f 20 34 21
f 22 23 24
f 23 35 36
f 23 36 24
f 24 37 25
f 24 36 37
f 25 37 26
f 26 37 38
f 26 38 27
f 27 38 39
f 29 40 30
f 30 41 42
f 30 42 31
f 30 40 43
f 30 43 44
f 30 44 41
f 31 42 33
f 33 42 45
f 35 46 36
f 35 47 46
f 36 46 38
f 36 38 37
f 38 46 48
f 38 48 49
f 38 49 50
f 38 50 51
f 38 51 52
f 38 52 39
f 39 52 54
f 39 54 55
f 39 55 56
f 39 56 53
f 40 57 43
f 41 44 58
f 41 58 59
f 41 59 42
f 42 59 60
f 42 60 45
f 43 57 61
f 43 61 62
f 43 62 44
f 44 63 64
f 44 64 58
f 44 62 63
f 46 47 49
f 46 49 48
f 51 54 52
f 53 56 65
f 53 65 62
f 56 66 65
f 62 65 63
f 63 66 67
f 63 67 68
f 63 68 64
f 63 65 66

