# https://github.com/mikedh/trimesh
v 0.17185651 -0.83600917 0.63004444
v 0.17185651 -0.52207216 0.63004444
v 0.17228372 -0.83591696 0.63004444
v 0.17185651 -0.81799961 0.69310206
v 0.27575795 -0.52207216 0.63004444
v 0.17185651 -0.52207216 0.88903892
v 0.17658625 -0.83496421 0.63004444
v 0.17185651 -0.81133060 0.71598111
v 0.27575795 -0.75628788 0.63004444
v 0.27575795 -0.52207216 0.83258941
v 0.17185651 -0.53903673 0.91908713
v 0.18107185 -0.52207216 0.88470622
v 0.20761937 -0.81750789 0.63004444
v 0.19375567 -0.80444641 0.70133104
v 0.17185651 -0.80619818 0.73072469
v 0.27486288 -0.76289545 0.63004444
v 0.27575795 -0.66814581 0.81338846
v 0.18262809 -0.52207216 0.88389580
v 0.17185651 -0.55996586 0.94844961
v 0.27575795 -0.52440785 0.83570643
v 0.22279518 -0.80816512 0.63004444
v 0.19791579 -0.80684355 0.68506011
v 0.21938774 -0.78068983 0.72779467
v 0.17185651 -0.79999013 0.74521890
v 0.25278063 -0.78969461 0.63004444
v 0.27134355 -0.68839885 0.80512832
v 0.24963765 -0.71406086 0.80668683
v 0.27575795 -0.64681712 0.83075035
v 0.17185651 -0.56294696 0.94848077
v 0.27575795 -0.57342689 0.86341688
v 0.27575795 -0.55895167 0.85727632
v 0.27575795 -0.55440318 0.85475152
v 0.22543976 -0.73609636 0.81354431
v 0.22069987 -0.73286936 0.82663586
v 0.17185651 -0.79445820 0.75541160
v 0.27070276 -0.66132307 0.82741512
v 0.27575795 -0.61522368 0.85369173
v 0.17185651 -0.66630183 0.90001088
v 0.27575795 -0.60246951 0.85983229
v 0.27575795 -0.59758299 0.86207656
v 0.19980768 -0.71436816 0.85428397
v 0.19326744 -0.73062588 0.84895383
v 0.20740575 -0.73542023 0.83162311
v 0.17700326 -0.73406797 0.85397226
v 0.17185651 -0.73416017 0.85609185
v 0.17346361 -0.71080310 0.87641492
v 0.17185651 -0.71160220 0.87685130
v 0.17185651 -0.72451003 0.86703264
f 1 2 5
f 1 5 9
f 1 9 16
f 1 16 25
f 1 25 21
f 1 21 13
f 1 13 7
f 1 7 3
f 1 3 4
f 1 4 8
f 1 8 15
f 1 15 24
f 1 24 35
f 1 35 45
f 1 45 48
f 1 48 47
f 1 47 38
f 1 38 29
f 1 29 19
f 1 19 11
f 1 11 6
f 1 6 2
f 2 6 12
f 2 12 18
f 2 18 10
f 2 10 5
f 3 7 4
f 4 7 8
f 5 10 20
f 5 20 32
f 5 32 31
f 5 31 30
f 5 30 40
f 5 40 39
f 5 39 37
f 5 37 28
f 5 28 17
f 5 17 9
f 6 11 12
f 7 13 14
f 7 14 8
f 8 14 15
f 9 17 16
f 10 18 11
f 10 11 19
f 10 19 20
f 11 18 12
f 13 21 22
f 13 22 14
f 14 22 23
f 14 23 15
f 15 23 24
f 16 17 26
f 16 26 27
f 16 27 25
f 17 28 26
f 19 29 30
f 19 30 31
f 19 31 32
f 19 32 20
f 21 25 23
f 21 23 22
f 23 25 27
f 23 27 33
f 23 33 34
f 23 34 24
f 24 34 35
f 26 28 36
f 26 36 34
f 26 34 27
f 27 34 33
f 28 37 36
f 29 38 39
f 29 39 40
f 29 40 30
f 34 36 37
f 34 37 41
f 34 41 42
f 34 42 43
f 34 43 35
f 35 43 44
f 35 44 45
f 37 39 38
f 37 38 46
f 37 46 41
f 38 47 46
f 41 46 42
f 42 44 43
f 42 46 47
f 42 47 48
f 42 48 44
f 44 48 45

