# https://github.com/mikedh/trimesh
v -0.34794612 -0.30804746 0.06434496
v -0.34794612 -0.27553588 0.01260050
v -0.26511707 -0.30804746 0.08254707
v -0.34794612 -0.30804746 1.12819722
v -0.34794612 -0.25604650 0.00115262
v -0.33133167 -0.25560756 0.00035127
v -0.30500312 -0.24638961 -0.00445689
v -0.32939370 -0.27316556 0.01351630
v -0.29268622 -0.24410708 -0.00388446
v -0.28162613 -0.23180184 0.00847922
v -0.26511707 -0.29501063 0.07670864
v -0.26511707 -0.30804746 1.08973232
v -0.30908176 -0.30804746 1.12029819
v -0.26511707 -0.15858497 1.16116714
v -0.34794612 -0.20741085 1.13540937
v -0.34794612 -0.23971756 -0.00296865
v -0.34074569 -0.24194158 -0.00365554
v -0.32447991 -0.24707730 -0.00468581
v -0.30500312 -0.23180184 -0.00663195
v -0.29015633 -0.23180184 -0.00548716
v -0.28938601 -0.21342446 -0.00594506
v -0.26511707 -0.15858497 0.05301154
v -0.26511707 -0.15861424 0.05301154
v -0.26511707 -0.18274186 0.05312600
v -0.26511707 -0.20758643 0.05392735
v -0.26511707 -0.23180184 0.05610248
v -0.26511707 -0.30165341 1.09740244
v -0.26793076 -0.30804746 1.09454042
v -0.30743572 -0.30804746 1.11984029
v -0.34794612 -0.15858497 1.13632525
v -0.29683781 -0.30804746 1.11594800
v -0.29126721 -0.29442536 1.11903894
v -0.27590958 -0.28059845 1.11537557
v -0.26511707 -0.29893193 1.09957750
v -0.34794612 -0.21408288 -0.00754783
v -0.34794612 -0.20741085 -0.00834918
v -0.30399767 -0.20613789 -0.00651750
v -0.32939370 -0.18806778 -0.00686094
v -0.31144945 -0.19292550 -0.00548716
v -0.29519177 -0.19716867 -0.00079352
v -0.34794612 -0.17558697 -0.00388446
v -0.34794612 -0.17285085 -0.00056461
v -0.34794612 -0.16739325 0.01076881
v -0.34794612 -0.16108698 0.02576553
v -0.34794612 -0.15858497 0.03343565
v -0.26511707 -0.29941478 1.09923405
v -0.28422898 -0.30804746 1.10781998
v -0.34794612 -0.18484882 -0.00766229
f 1 2 3
f 1 3 12
f 1 12 28
f 1 28 47
f 1 47 31
f 1 31 29
f 1 29 13
f 1 13 4
f 1 4 15
f 1 15 30
f 1 30 45
f 1 45 44
f 1 44 43
f 1 43 42
f 1 42 41
f 1 41 48
f 1 48 36
f 1 36 35
f 1 35 16
f 1 16 5
f 1 5 2
f 2 5 6
f 2 6 7
f 2 7 8
f 2 8 3
f 3 8 9
f 3 9 10
f 3 10 11
f 3 11 26
f 3 26 25
f 3 25 24
f 3 24 23
f 3 23 22
f 3 22 14
f 3 14 34
f 3 34 46
f 3 46 27
f 3 27 12
f 4 13 14
f 4 14 15
f 5 16 17
f 5 17 18
f 5 18 6
f 6 18 7
f 7 18 19
f 7 19 9
f 7 9 8
f 9 19 20
f 9 20 10
f 10 20 21
f 10 21 22
f 10 22 23
f 10 23 24
f 10 24 25
f 10 25 26
f 10 26 11
f 12 27 28
f 13 29 14
f 14 30 15
f 14 29 31
f 14 31 32
f 14 32 33
f 14 33 34
f 14 22 45
f 14 45 30
f 16 35 17
f 17 35 18
f 18 35 36
f 18 36 19
f 19 36 21
f 19 21 20
f 21 36 37
f 21 37 38
f 21 38 39
f 21 39 40
f 21 40 22
f 22 40 39
f 22 39 41
f 22 41 42
f 22 42 43
f 22 43 44
f 22 44 45
f 27 46 28
f 28 46 47
f 31 47 32
f 32 47 34
f 32 34 33
f 34 47 46
f 36 48 37
f 37 48 38
f 38 48 41
f 38 41 39

