# https://github.com/mikedh/trimesh
v 0.27578191 -0.74529653 0.63499679
v 0.27578191 -0.72399395 0.62867683
v 0.27578191 -0.84179961 0.61926707
v 0.30501069 -0.86618207 0.61501864
v 0.32940711 -0.86618207 0.61407064
v 0.32940711 -0.84179961 0.61730085
v 0.35378977 -0.81738049 0.61621241
v 0.37949783 -0.81884714 0.60954133
v 0.37223548 -0.79956117 0.60929554
v 0.34615466 -0.58495905 0.51302118
v 0.27578191 -0.58495905 0.54311129
v 0.27578191 -0.89390104 0.60957643
v 0.28060045 -0.86618207 0.61484308
v 0.28060045 -0.89056446 0.61020844
v 0.30473456 -0.89195780 0.60911998
v 0.32940711 -0.88484470 0.60876888
v 0.34384892 -0.88062817 0.60761022
v 0.34861223 -0.86618207 0.60971687
v 0.39068123 -0.82992008 0.60641644
v 0.39068123 -0.82794012 0.60641644
v 0.38849977 -0.81169739 0.60438001
v 0.41681732 -0.75310619 0.51066872
v 0.41681732 -0.73044706 0.48816258
v 0.41681732 -0.70129810 0.45206845
v 0.41681732 -0.69697161 0.44638048
v 0.34731439 -0.58495905 0.50701719
v 0.39446426 -0.79816789 0.58812361
v 0.40405990 -0.79105479 0.57011166
v 0.41587846 -0.80022115 0.55936769
v 0.27578191 -0.58495905 0.43749739
v 0.27578191 -0.90493733 0.60694311
v 0.28060045 -0.90431400 0.60694311
v 0.29643672 -0.90350734 0.60662711
v 0.31270102 -0.90105079 0.60522267
v 0.32291797 -0.90823719 0.58896627
v 0.34745248 -0.88418472 0.59395203
v 0.39167531 -0.83138665 0.59395203
v 0.41587846 -0.80700426 0.55936769
v 0.36294358 -0.87490841 0.56954988
v 0.41681732 -0.76861564 0.51231894
v 0.41681732 -0.69422172 0.43791872
v 0.34731439 -0.58495905 0.50269854
v 0.41681732 -0.69026188 0.42373387
v 0.27578191 -0.59841520 0.39862951
v 0.27578191 -0.90732058 0.60599511
v 0.27578191 -0.92070340 0.59574270
v 0.27578191 -0.93133633 0.58584139
v 0.29425527 -0.92774313 0.58250585
v 0.31174834 -0.92466324 0.56954988
v 0.32500278 -0.91249037 0.56954988
v 0.41587846 -0.80700426 0.55308281
v 0.41681732 -0.78610497 0.47661106
v 0.41681732 -0.78544499 0.49634344
v 0.41681732 -0.78350175 0.50108342
v 0.41681732 -0.77873525 0.50873763
v 0.31640122 -0.92623984 0.54514775
v 0.36230849 -0.87428508 0.54514775
v 0.37229071 -0.86148887 0.52074558
v 0.29051365 -0.61172473 0.39023799
v 0.27578191 -0.60666492 0.38230289
v 0.41681732 -0.69455171 0.40986505
v 0.41681732 -0.69843818 0.39831351
v 0.40336960 -0.68875859 0.39701441
v 0.38946627 -0.68388206 0.38767487
v 0.27578191 -0.93837606 0.56954988
v 0.29954324 -0.93111636 0.56954988
v 0.30419610 -0.93584614 0.54514775
v 0.41674827 -0.78262179 0.40417703
v 0.41681732 -0.78251177 0.40410682
v 0.27625134 -0.95920197 0.47194129
v 0.29001662 -0.94787241 0.49634344
v 0.28627502 -0.94398587 0.44757425
v 0.29385489 -0.92887978 0.40849570
v 0.31990811 -0.88191149 0.30751644
v 0.37030257 -0.85921564 0.49634344
v 0.39145441 -0.80619760 0.35941052
v 0.27578191 -0.61542795 0.37324427
v 0.41681732 -0.70606460 0.38588420
v 0.41659640 -0.70628457 0.38528733
v 0.27578191 -0.94592910 0.54514775
v 0.28060045 -0.94493919 0.54514775
v 0.28242293 -0.95018229 0.52253625
v 0.27781150 -0.95729539 0.49634344
v 0.41681732 -0.77752530 0.39051886
v 0.27578191 -0.95949531 0.47194129
v 0.27578191 -0.95865201 0.46663954
v 0.27578191 -0.95494879 0.44757425
v 0.31020200 -0.89536768 0.32559861
v 0.29799688 -0.90710054 0.32559861
v 0.29559453 -0.90482731 0.30972844
v 0.30557676 -0.89093118 0.30049424
v 0.31557283 -0.87630168 0.29126004
v 0.37092386 -0.81067076 0.30839422
v 0.38659446 -0.79875451 0.32559861
v 0.36917040 -0.75409617 0.31025510
v 0.27578191 -0.68322208 0.31330975
v 0.41681732 -0.70635794 0.38546288
v 0.41681732 -0.70661456 0.38518200
v 0.27578191 -0.95392216 0.51586517
v 0.27578191 -0.95806532 0.49634344
v 0.27578191 -0.95854199 0.49406122
v 0.39148204 -0.78313511 0.31204577
v 0.41681732 -0.77371213 0.38311046
v 0.27578191 -0.95278558 0.43992005
v 0.28060045 -0.91813683 0.32559861
v 0.28831840 -0.89995079 0.29347204
v 0.28035193 -0.90981378 0.30144226
v 0.29930853 -0.88367140 0.28476453
v 0.32155113 -0.86005895 0.28620405
v 0.37766152 -0.76975229 0.30607689
v 0.35522564 -0.76663568 0.29234848
v 0.35378977 -0.74921965 0.30509378
v 0.27578191 -0.68894191 0.30846446
v 0.41681732 -0.72117068 0.37542114
v 0.41317234 -0.73448020 0.36243005
v 0.39148204 -0.77858858 0.31204577
v 0.41681732 -0.74969631 0.36313229
v 0.41553331 -0.75820268 0.36158740
v 0.41681732 -0.76014592 0.36629227
v 0.41681732 -0.76795565 0.37440291
v 0.37871084 -0.79197147 0.30495336
v 0.35522564 -0.79505136 0.29118983
v 0.27578191 -0.91942008 0.32559861
v 0.27578191 -0.90717391 0.29361249
v 0.27578191 -0.89885086 0.28525606
v 0.27578191 -0.91098708 0.30137202
v 0.28035193 -0.89129782 0.28283344
v 0.28060045 -0.86618207 0.27630277
v 0.30646040 -0.86739202 0.28206096
v 0.34805997 -0.78830490 0.28760852
v 0.32940711 -0.75941263 0.28939919
v 0.27578191 -0.69576166 0.30512890
v 0.34805997 -0.77341879 0.28760852
v 0.41681732 -0.73671678 0.36576561
v 0.27578191 -0.89118780 0.28276319
v 0.28060045 -0.84179961 0.27816365
v 0.27578191 -0.86618207 0.27679431
v 0.27578191 -0.86134220 0.27675918
v 0.27578191 -0.84179961 0.27823386
v 0.27578191 -0.71497426 0.29712359
v 0.32940711 -0.77162222 0.28753827
v 0.27578191 -0.83695981 0.27883076
v 0.27578191 -0.73939338 0.29340183
f 1 2 11
f 1 11 30
f 1 30 44
f 1 44 60
f 1 60 77
f 1 77 96
f 1 96 113
f 1 113 132
f 1 132 140
f 1 140 143
f 1 143 142
f 1 142 139
f 1 139 138
f 1 138 137
f 1 137 135
f 1 135 125
f 1 125 124
f 1 124 126
f 1 126 123
f 1 123 104
f 1 104 87
f 1 87 86
f 1 86 85
f 1 85 101
f 1 101 100
f 1 100 99
f 1 99 80
f 1 80 65
f 1 65 47
f 1 47 46
f 1 46 45
f 1 45 31
f 1 31 12
f 1 12 3
f 1 3 4
f 1 4 5
f 1 5 6
f 1 6 7
f 1 7 8
f 1 8 9
f 1 9 2
f 2 10 11
f 2 9 10
f 3 12 13
f 3 13 4
f 4 13 12
f 4 12 14
f 4 14 15
f 4 15 5
f 5 15 16
f 5 16 17
f 5 17 18
f 5 18 19
f 5 19 7
f 5 7 6
f 7 19 8
f 8 19 20
f 8 20 9
f 9 20 21
f 9 21 10
f 10 22 23
f 10 23 24
f 10 24 25
f 10 25 26
f 10 26 42
f 10 42 30
f 10 30 11
f 10 21 27
f 10 27 28
f 10 28 29
f 10 29 22
f 12 31 32
f 12 32 15
f 12 15 14
f 15 32 33
f 15 33 16
f 16 33 34
f 16 34 17
f 17 34 35
f 17 35 36
f 17 36 19
f 17 19 18
f 19 37 38
f 19 38 29
f 19 29 20
f 19 36 39
f 19 39 37
f 20 29 21
f 21 29 27
f 22 40 55
f 22 55 54
f 22 54 53
f 22 53 52
f 22 52 69
f 22 69 84
f 22 84 103
f 22 103 120
f 22 120 119
f 22 119 117
f 22 117 134
f 22 134 114
f 22 114 98
f 22 98 97
f 22 97 78
f 22 78 62
f 22 62 61
f 22 61 43
f 22 43 41
f 22 41 25
f 22 25 24
f 22 24 23
f 22 29 40
f 25 41 26
f 26 41 43
f 26 43 42
f 27 29 28
f 29 38 40
f 30 42 44
f 31 45 33
f 31 33 32
f 33 45 46
f 33 46 34
f 34 46 47
f 34 47 48
f 34 48 35
f 35 48 49
f 35 49 36
f 36 49 50
f 36 50 39
f 37 39 38
f 38 51 52
f 38 52 53
f 38 53 54
f 38 54 55
f 38 55 40
f 38 39 51
f 39 50 56
f 39 56 57
f 39 57 58
f 39 58 51
f 42 59 60
f 42 60 44
f 42 43 61
f 42 61 62
f 42 62 63
f 42 63 64
f 42 64 59
f 47 65 48
f 48 65 66
f 48 66 49
f 49 66 67
f 49 67 56
f 49 56 50
f 51 68 69
f 51 69 52
f 51 58 68
f 56 67 70
f 56 70 71
f 56 71 58
f 56 58 57
f 58 71 70
f 58 70 72
f 58 72 73
f 58 73 74
f 58 74 75
f 58 75 76
f 58 76 68
f 59 64 60
f 60 64 77
f 62 78 63
f 63 78 64
f 64 78 79
f 64 79 77
f 65 80 81
f 65 81 66
f 66 81 67
f 67 81 82
f 67 82 83
f 67 83 70
f 68 76 69
f 69 76 84
f 70 83 85
f 70 85 86
f 70 86 87
f 70 87 73
f 70 73 72
f 73 87 88
f 73 88 74
f 74 88 89
f 74 89 90
f 74 90 91
f 74 91 92
f 74 92 93
f 74 93 94
f 74 94 76
f 74 76 75
f 76 94 84
f 77 79 95
f 77 95 96
f 78 97 79
f 79 97 98
f 79 98 95
f 80 99 81
f 81 99 82
f 82 99 100
f 82 100 101
f 82 101 83
f 83 101 85
f 84 94 102
f 84 102 103
f 87 104 105
f 87 105 90
f 87 90 89
f 87 89 88
f 90 106 91
f 90 105 107
f 90 107 106
f 91 106 92
f 92 106 108
f 92 108 109
f 92 109 102
f 92 102 93
f 93 102 94
f 95 98 110
f 95 110 111
f 95 111 112
f 95 112 113
f 95 113 96
f 98 114 115
f 98 115 116
f 98 116 110
f 102 116 117
f 102 117 118
f 102 118 119
f 102 119 120
f 102 120 103
f 102 109 121
f 102 121 122
f 102 122 116
f 104 123 105
f 105 123 107
f 106 107 124
f 106 124 125
f 106 125 108
f 107 123 126
f 107 126 124
f 108 125 127
f 108 127 128
f 108 128 129
f 108 129 109
f 109 129 130
f 109 130 122
f 109 122 121
f 110 116 111
f 111 131 132
f 111 132 113
f 111 113 112
f 111 116 133
f 111 133 131
f 114 134 115
f 115 134 116
f 116 122 133
f 116 134 117
f 117 119 118
f 122 130 133
f 125 135 127
f 127 135 128
f 128 136 133
f 128 133 130
f 128 130 129
f 128 135 137
f 128 137 138
f 128 138 139
f 128 139 136
f 131 140 132
f 131 133 141
f 131 141 143
f 131 143 140
f 133 136 141
f 136 139 142
f 136 142 141
f 141 142 143

