# https://github.com/mikedh/trimesh
v -0.74775096 -0.25622795 0.19752099
v -0.84886864 -0.25622795 0.24784950
v -0.84886864 -0.21147301 0.15477880
v -0.84886864 -0.20102036 0.13424034
v -0.84179088 -0.19076402 0.12193578
v -0.82559621 -0.17390730 0.11610731
v -0.80255145 -0.15010669 0.11638480
v -0.79857206 -0.13418237 0.11277669
v -0.74775096 -0.25573722 0.19733596
v -0.74775096 -0.25622795 0.99278505
v -0.84886864 -0.25622795 0.94800749
v -0.84886864 -0.18904645 0.12267590
v -0.84886864 -0.18514511 0.11906779
v -0.84886864 -0.17832392 0.11490456
v -0.84179088 -0.17856927 0.11453457
v -0.81739991 -0.13418237 0.10371018
v -0.81743947 -0.15837556 0.11296176
v -0.81739991 -0.10981741 0.10185988
v -0.79865125 -0.10981741 0.11194408
v -0.78637657 -0.13418237 0.12286093
v -0.74775096 -0.25495205 0.19705844
v -0.74775096 -0.23500369 1.00120398
v -0.79190021 -0.25622795 0.97455948
v -0.80606562 -0.24562809 0.97270914
v -0.84886864 -0.02592641 1.02201996
v -0.84886864 -0.15859638 0.11268420
v -0.84179088 -0.15859638 0.11027884
v -0.84179088 -0.13418237 0.10796591
v -0.84179088 -0.10981741 0.10676323
v -0.84180077 -0.08636033 0.11240671
v -0.83366380 -0.07031332 0.11582975
v -0.82496269 -0.07031332 0.11582975
v -0.81705341 -0.08493720 0.11129645
v -0.80267028 -0.09273987 0.11536719
v -0.77447807 -0.11487198 0.13627567
v -0.76060963 -0.13418237 0.14728502
v -0.77280511 -0.13418237 0.13507300
v -0.74775096 -0.15670707 0.16745342
v -0.74775096 -0.23164217 1.00249919
v -0.76018402 -0.22533624 0.99907611
v -0.74775096 -0.21137484 1.00795760
v -0.80358093 -0.00556095 1.04098565
v -0.81075765 -0.00556095 1.03858026
v -0.84886864 -0.01908068 1.02313014
v -0.84886864 -0.10981741 0.11194408
v -0.84886864 -0.10186752 0.11240671
v -0.84886864 -0.09112045 0.11499706
v -0.84886864 -0.05419270 0.13229751
v -0.84886864 -0.04344562 0.13868110
v -0.84179088 -0.04221878 0.13766342
v -0.82396290 -0.04391183 0.13868110
v -0.80868883 -0.07647203 0.12138069
v -0.74775096 -0.07234986 0.19076737
v -0.74775096 -0.08020161 0.18484637
v -0.74775096 -0.08388212 0.18290354
v -0.74775096 -0.11212387 0.16837858
v -0.74775096 -0.12218391 0.16467797
v -0.74775096 -0.13418237 0.16162496
v -0.74775096 -0.20739991 1.00879025
v -0.79300886 -0.00556095 1.04394617
v -0.84886864 -0.00556095 1.02322268
v -0.84886864 -0.02774214 0.15875697
v -0.84184032 -0.02938609 0.15607401
v -0.80768904 -0.05200893 0.14543472
v -0.74775096 -0.00556095 0.24507401
v -0.74775096 -0.00556095 1.04699918
v -0.77979379 -0.00556095 1.04496385
v -0.84886864 -0.00556095 0.30141601
v -0.84886864 -0.02442967 0.16375282
v -0.84886864 -0.02305562 0.16680584
v -0.84184032 -0.01949779 0.17790768
v -0.84179088 -0.01049282 0.20362703
v -0.84886864 -0.01049282 0.20362703
v -0.79300886 -0.00556095 0.24784950
v -0.84445365 -0.00556095 0.28328298
v -0.84886864 -0.00911877 0.22805116
v -0.84886864 -0.01893345 0.17827775
v -0.84099897 -0.00556095 0.27810206
v -0.81772656 -0.00556095 0.25284531
f 1 2 3
f 1 3 4
f 1 4 5
f 1 5 6
f 1 6 7
f 1 7 8
f 1 8 9
f 1 9 21
f 1 21 38
f 1 38 58
f 1 58 57
f 1 57 56
f 1 56 55
f 1 55 54
f 1 54 53
f 1 53 65
f 1 65 66
f 1 66 59
f 1 59 41
f 1 41 39
f 1 39 22
f 1 22 10
f 1 10 23
f 1 23 11
f 1 11 2
f 2 11 25
f 2 25 44
f 2 44 61
f 2 61 68
f 2 68 76
f 2 76 73
f 2 73 77
f 2 77 70
f 2 70 69
f 2 69 62
f 2 62 49
f 2 49 48
f 2 48 47
f 2 47 46
f 2 46 45
f 2 45 26
f 2 26 14
f 2 14 13
f 2 13 12
f 2 12 4
f 2 4 3
f 4 12 5
f 5 12 13
f 5 13 14
f 5 14 15
f 5 15 6
f 6 15 16
f 6 16 17
f 6 17 7
f 7 17 16
f 7 16 8
f 8 16 18
f 8 18 19
f 8 19 20
f 8 20 21
f 8 21 9
f 10 22 23
f 11 23 24
f 11 24 25
f 14 26 27
f 14 27 15
f 15 27 16
f 16 27 28
f 16 28 18
f 18 28 29
f 18 29 30
f 18 30 31
f 18 31 32
f 18 32 33
f 18 33 34
f 18 34 19
f 19 34 35
f 19 35 36
f 19 36 37
f 19 37 20
f 20 37 21
f 21 37 36
f 21 36 38
f 22 39 23
f 23 39 24
f 24 39 40
f 24 40 25
f 25 40 39
f 25 39 41
f 25 41 42
f 25 42 43
f 25 43 44
f 26 45 29
f 26 29 28
f 26 28 27
f 29 45 46
f 29 46 30
f 30 46 47
f 30 47 48
f 30 48 31
f 31 48 49
f 31 49 50
f 31 50 32
f 32 50 51
f 32 51 52
f 32 52 33
f 33 52 34
f 34 52 53
f 34 53 54
f 34 54 55
f 34 55 35
f 35 55 56
f 35 56 57
f 35 57 58
f 35 58 36
f 36 58 38
f 41 59 60
f 41 60 42
f 42 60 67
f 42 67 66
f 42 66 65
f 42 65 74
f 42 74 79
f 42 79 78
f 42 78 75
f 42 75 68
f 42 68 61
f 42 61 43
f 43 61 44
f 49 62 50
f 50 62 63
f 50 63 51
f 51 64 52
f 51 63 65
f 51 65 64
f 52 64 65
f 52 65 53
f 59 66 67
f 59 67 60
f 62 69 63
f 63 69 65
f 65 69 70
f 65 70 71
f 65 71 72
f 65 72 73
f 65 73 74
f 68 75 76
f 70 77 71
f 71 77 72
f 72 77 73
f 73 76 75
f 73 75 78
f 73 78 79
f 73 79 74

