# https://github.com/mikedh/trimesh
v -1.11925036 0.44521420 0.77846849
v -1.03753152 0.47577650 0.73967606
v -1.03753152 0.50030578 0.73218706
v -1.03753152 0.51294972 0.72773752
v -1.09397820 0.49062411 0.75380804
v -1.12972105 0.44521420 0.77846849
v -1.11925036 0.43184774 0.77846849
v -1.03753152 0.35378030 0.77223288
v -1.03753152 0.37816509 0.76841003
v -1.03753152 0.40204413 0.76192374
v -1.03753152 0.40258599 0.76176707
v -1.03753152 0.52505183 0.71959049
v -1.03753152 0.52548530 0.71924581
v -1.09973431 0.49062411 0.75380804
v -1.13637254 0.45261998 0.76759533
v -1.14596612 0.43260640 0.77630640
v -1.14686149 0.41631374 0.77699576
v -1.14686149 0.41465196 0.77699576
v -1.13746897 0.42408072 0.77771646
v -1.03753152 0.32943165 0.77198220
v -1.03753152 0.53610623 0.70035095
v -1.09832722 0.51266074 0.72889691
v -1.08580996 0.51349161 0.72968028
v -1.14907261 0.44373308 0.76004365
v -1.19740581 0.34583266 0.73118434
v -1.17441785 0.37144572 0.75521811
v -1.17573353 0.35378030 0.75587614
v -1.17401580 0.33846305 0.75430940
v -1.03753152 0.16795018 0.75108192
v -1.03753152 0.53700939 0.69154588
v -1.09832722 0.51266074 0.72745551
v -1.14907261 0.44373308 0.74603702
v -1.21591683 0.33362223 0.61837923
v -1.22218458 0.32155625 0.64275766
v -1.22096032 0.31899135 0.66716744
v -1.22013802 0.31751020 0.67992069
v -1.19740581 0.33521173 0.73118434
v -1.19464655 0.31891911 0.72751818
v -1.06101286 0.16795018 0.73585323
v -1.03753152 0.16795018 0.50297332
v -1.03753152 0.53610623 0.61837923
v -1.09728569 0.48737279 0.56959100
v -1.13015962 0.44730948 0.49639302
v -1.14232971 0.43336503 0.49639302
v -1.19572466 0.36613526 0.60571998
v -1.20217523 0.35620071 0.62047865
v -1.21344989 0.32943165 0.54518123
v -1.22192877 0.32141176 0.61837923
v -1.20252238 0.35092639 0.54518123
v -1.22397548 0.30501072 0.61837923
v -1.22421298 0.30501072 0.64275766
v -1.22013802 0.31620968 0.67992069
v -1.21397985 0.30685313 0.68944645
v -1.20146252 0.30501072 0.71103610
v -1.19751548 0.29092174 0.70595987
v -1.08425671 0.16795018 0.71717771
v -1.09134683 0.24897991 0.48642857
v -1.04940922 0.21946529 0.48410978
v -1.03753152 0.21610562 0.48241771
v -1.05286295 0.16795018 0.51494320
v -1.19691242 0.31548716 0.50739152
v -1.18169072 0.30641963 0.50331800
v -1.15892200 0.30533588 0.49062743
v -1.14265862 0.29742436 0.48624056
v -1.03753152 0.52638846 0.56959100
v -1.05490958 0.51616493 0.56959100
v -1.10625788 0.47151364 0.52077147
v -1.10448539 0.46840685 0.50294199
v -1.12741859 0.44362470 0.48097632
v -1.14984008 0.41956503 0.48025562
v -1.15073545 0.42115456 0.49639302
v -1.20623192 0.32943165 0.52077147
v -1.21021555 0.30501072 0.54518123
v -1.22035734 0.29222226 0.60550064
v -1.22079582 0.31913584 0.60089443
v -1.20012858 0.34901173 0.52077147
v -1.19314812 0.36118606 0.52077147
v -1.22203843 0.28958510 0.61837923
v -1.22202011 0.28958510 0.64275766
v -1.22030251 0.29222226 0.65673297
v -1.21838378 0.29995315 0.67299571
v -1.20193766 0.28662280 0.69154588
v -1.10450365 0.16795018 0.69044916
v -1.09682880 0.16795018 0.70198035
v -1.12641356 0.28940447 0.48266841
v -1.10081242 0.26527257 0.48304441
v -1.05909421 0.23362654 0.48207303
v -1.03753152 0.23185639 0.47759217
v -1.03753152 0.21639462 0.48232373
v -1.05955102 0.16795018 0.52221286
v -1.12394661 0.19359937 0.55570970
v -1.18867111 0.29923065 0.51509987
v -1.19691242 0.29164426 0.53136262
v -1.20126153 0.30641963 0.52224418
v -1.19764339 0.32943165 0.50582478
v -1.17319351 0.33813793 0.48329509
v -1.16701709 0.32188141 0.48561387
v -1.03753152 0.51891046 0.54524390
v -1.05193100 0.51410575 0.55326561
v -1.03753152 0.51883818 0.54508723
v -1.03753152 0.50102827 0.52039544
v -1.03753152 0.47711312 0.49448160
v -1.03753152 0.45200581 0.47571209
v -1.11020501 0.42697078 0.47223393
v -1.13514826 0.42740428 0.47621344
v -1.13460005 0.40258599 0.46747103
v -1.15289174 0.40258599 0.47740416
v -1.17151235 0.36656876 0.48398445
v -1.19702209 0.34492954 0.50610680
v -1.21266417 0.27737465 0.61837923
v -1.21299307 0.27737465 0.64275766
v -1.20796792 0.28120396 0.66600805
v -1.10645894 0.16795018 0.66716744
v -1.20078646 0.26343016 0.64275766
v -1.15075378 0.31368089 0.48301309
v -1.07760514 0.33864368 0.45882264
v -1.05222340 0.31476464 0.45882264
v -1.08425671 0.25678305 0.48150900
v -1.03753152 0.31151336 0.45875997
v -1.07886600 0.16795018 0.54323847
v -1.09008591 0.16795018 0.55708843
v -1.09381371 0.16795018 0.56338673
v -1.09657297 0.16795018 0.56912099
v -1.12626732 0.19168471 0.56959100
v -1.15365921 0.21307108 0.59400078
v -1.15049796 0.21606948 0.57689201
v -1.17293768 0.35378030 0.48335777
v -1.13460005 0.37816509 0.46900644
v -1.03753152 0.34070282 0.45973135
v -1.04502361 0.34348449 0.45935533
v -1.06141492 0.34778346 0.45872865
v -1.11020501 0.40258599 0.46590431
v -1.07760514 0.34796409 0.45882264
v -1.20045749 0.26357467 0.61837923
v -1.14077647 0.20086061 0.59400078
v -1.12860636 0.19009517 0.59400078
v -1.06077529 0.33008189 0.45835263
v -1.03753152 0.32935941 0.45869731
v -1.03753152 0.32982902 0.45869731
f 1 2 3
f 1 3 4
f 1 4 5
f 1 5 14
f 1 14 6
f 1 6 7
f 1 7 8
f 1 8 9
f 1 9 10
f 1 10 11
f 1 11 2
f 2 11 10
f 2 10 9
f 2 9 8
f 2 8 20
f 2 20 29
f 2 29 40
f 2 40 59
f 2 59 89
f 2 89 88
f 2 88 119
f 2 119 138
f 2 138 139
f 2 139 129
f 2 129 103
f 2 103 102
f 2 102 101
f 2 101 100
f 2 100 98
f 2 98 65
f 2 65 41
f 2 41 30
f 2 30 21
f 2 21 13
f 2 13 12
f 2 12 4
f 2 4 3
f 4 12 5
f 5 12 13
f 5 13 14
f 6 14 15
f 6 15 16
f 6 16 17
f 6 17 18
f 6 18 19
f 6 19 7
f 7 19 18
f 7 18 20
f 7 20 8
f 13 21 22
f 13 22 23
f 13 23 14
f 14 23 22
f 14 22 15
f 15 24 16
f 15 22 24
f 16 25 26
f 16 26 27
f 16 27 17
f 16 24 25
f 17 27 18
f 18 27 28
f 18 28 29
f 18 29 20
f 21 30 22
f 22 30 31
f 22 31 32
f 22 32 24
f 24 32 33
f 24 33 34
f 24 34 35
f 24 35 36
f 24 36 25
f 25 27 26
f 25 36 52
f 25 52 37
f 25 37 27
f 27 37 28
f 28 37 38
f 28 38 39
f 28 39 29
f 29 39 56
f 29 56 84
f 29 84 83
f 29 83 113
f 29 113 123
f 29 123 122
f 29 122 121
f 29 121 120
f 29 120 90
f 29 90 60
f 29 60 40
f 30 41 31
f 31 41 42
f 31 42 43
f 31 43 44
f 31 44 32
f 32 44 45
f 32 45 46
f 32 46 33
f 33 47 48
f 33 48 34
f 33 46 45
f 33 45 49
f 33 49 47
f 34 48 50
f 34 50 51
f 34 51 35
f 35 51 36
f 36 51 52
f 37 52 53
f 37 53 54
f 37 54 38
f 38 54 55
f 38 55 56
f 38 56 39
f 40 57 58
f 40 58 59
f 40 60 61
f 40 61 62
f 40 62 63
f 40 63 64
f 40 64 57
f 41 65 66
f 41 66 42
f 42 66 67
f 42 67 43
f 43 67 68
f 43 68 69
f 43 69 70
f 43 70 44
f 44 70 71
f 44 71 49
f 44 49 45
f 47 72 73
f 47 73 74
f 47 74 50
f 47 50 75
f 47 75 48
f 47 49 76
f 47 76 72
f 48 75 50
f 49 71 77
f 49 77 76
f 50 74 78
f 50 78 51
f 51 78 79
f 51 79 80
f 51 80 52
f 52 80 81
f 52 81 53
f 53 81 55
f 53 55 54
f 55 81 82
f 55 82 83
f 55 83 84
f 55 84 56
f 57 64 85
f 57 85 86
f 57 86 58
f 58 86 87
f 58 87 88
f 58 88 89
f 58 89 59
f 60 90 91
f 60 91 92
f 60 92 61
f 61 92 93
f 61 93 94
f 61 94 72
f 61 72 95
f 61 95 96
f 61 96 97
f 61 97 62
f 62 97 63
f 63 97 64
f 64 97 85
f 65 98 99
f 65 99 66
f 66 99 68
f 66 68 67
f 68 99 98
f 68 98 100
f 68 100 101
f 68 101 69
f 69 101 102
f 69 102 103
f 69 103 104
f 69 104 105
f 69 105 70
f 70 105 106
f 70 106 107
f 70 107 108
f 70 108 109
f 70 109 76
f 70 76 77
f 70 77 71
f 72 94 73
f 72 76 109
f 72 109 95
f 73 94 93
f 73 93 74
f 74 93 110
f 74 110 78
f 78 110 111
f 78 111 79
f 79 111 80
f 80 111 112
f 80 112 82
f 80 82 81
f 82 112 83
f 83 112 111
f 83 111 114
f 83 114 113
f 85 97 115
f 85 115 116
f 85 116 117
f 85 117 86
f 86 117 118
f 86 118 87
f 87 118 88
f 88 118 117
f 88 117 119
f 90 120 91
f 91 120 121
f 91 121 122
f 91 122 123
f 91 123 124
f 91 124 125
f 91 125 126
f 91 126 93
f 91 93 92
f 93 126 125
f 93 125 110
f 95 109 127
f 95 127 96
f 96 115 97
f 96 127 106
f 96 106 128
f 96 128 116
f 96 116 115
f 103 129 130
f 103 130 131
f 103 131 132
f 103 132 104
f 104 132 106
f 104 106 105
f 106 132 133
f 106 133 116
f 106 116 128
f 106 127 107
f 107 127 108
f 108 127 109
f 110 125 134
f 110 134 114
f 110 114 111
f 113 125 135
f 113 135 136
f 113 136 123
f 113 114 125
f 114 134 125
f 116 133 137
f 116 137 117
f 117 137 119
f 119 137 138
f 123 136 124
f 124 136 135
f 124 135 125
f 129 139 130
f 130 139 131
f 131 133 132
f 131 139 137
f 131 137 133
f 137 139 138

