# https://github.com/mikedh/trimesh
v -0.95801995 -0.00852059 0.37627718
v -1.01087458 -0.00852059 0.38641988
v -1.00783920 -0.00505121 0.38344630
v -0.95801995 0.01784668 0.36405704
v -0.95801995 -0.00852059 0.77685331
v -1.03222349 -0.00852059 0.40145066
v -1.02216000 0.01221859 0.38959713
v -1.00995623 0.01221859 0.38104306
v -0.95801995 0.02509384 0.36185744
v -0.95801995 0.29801841 0.77685331
v -1.03752373 -0.00852059 0.77685331
v -1.03406034 -0.00852059 0.40389467
v -1.02041661 0.06102120 0.39269291
v -1.00821283 0.06102120 0.38132818
v -1.03752373 -0.00088796 0.40910860
v -1.03752373 0.01221859 0.41012694
v -1.03752373 0.02536367 0.41147120
v -0.95801995 0.03661989 0.36071686
v -1.02990416 0.38529259 0.76495905
v -1.03737590 0.38529259 0.76646620
v -1.03752373 0.37819963 0.76842141
v -1.03699450 0.35379834 0.77220966
v -1.03752373 0.35379834 0.77220966
v -0.96380274 0.29786421 0.77685331
v -0.95801995 0.38529259 0.74650664
v -1.03752373 0.07123660 0.77685331
v -1.03752373 -0.00852059 0.40861979
v -1.03752373 0.03661989 0.41289686
v -1.03752373 0.34069181 0.45974073
v -1.00484273 0.08542251 0.38369071
v -0.95801995 0.05755182 0.36450509
v -1.03752373 0.38529259 0.76646620
v -1.03752373 0.12508909 0.77681258
v -1.03750039 0.12512763 0.77685331
v -0.98792240 0.28059441 0.77685331
v -0.97930653 0.29520436 0.77685331
v -0.95801995 0.38529259 0.46947611
v -1.03752373 0.35179380 0.46222550
v -1.03752373 0.35264187 0.46242914
v -1.03752373 0.38529259 0.47094252
v -0.95801995 0.08542251 0.37191866
v -0.95801995 0.30796397 0.43534118
v -0.95801995 0.30222022 0.43289714
v -0.95801995 0.28356267 0.42609462
v -0.95801995 0.27855133 0.42438379
f 1 2 3
f 1 3 4
f 1 4 9
f 1 9 18
f 1 18 31
f 1 31 41
f 1 41 45
f 1 45 44
f 1 44 43
f 1 43 42
f 1 42 37
f 1 37 25
f 1 25 10
f 1 10 5
f 1 5 11
f 1 11 27
f 1 27 12
f 1 12 6
f 1 6 2
f 2 6 3
f 3 7 8
f 3 8 9
f 3 9 4
f 3 6 7
f 5 10 24
f 5 24 36
f 5 36 35
f 5 35 34
f 5 34 26
f 5 26 11
f 6 12 7
f 7 13 14
f 7 14 8
f 7 12 15
f 7 15 16
f 7 16 17
f 7 17 13
f 8 14 18
f 8 18 9
f 10 19 20
f 10 20 21
f 10 21 22
f 10 22 23
f 10 23 24
f 10 25 19
f 11 26 33
f 11 33 23
f 11 23 21
f 11 21 32
f 11 32 40
f 11 40 39
f 11 39 38
f 11 38 29
f 11 29 28
f 11 28 17
f 11 17 16
f 11 16 15
f 11 15 27
f 12 27 15
f 13 17 28
f 13 28 29
f 13 29 14
f 14 29 30
f 14 30 18
f 18 30 31
f 19 25 37
f 19 37 40
f 19 40 32
f 19 32 20
f 20 32 21
f 21 23 22
f 23 33 34
f 23 34 35
f 23 35 36
f 23 36 24
f 26 34 33
f 29 38 30
f 30 38 39
f 30 39 40
f 30 40 31
f 31 40 41
f 37 42 40
f 40 42 43
f 40 43 44
f 40 44 45
f 40 45 41

