# https://github.com/mikedh/trimesh
v 0.70791598 0.68069586 0.79463707
v 0.70791598 0.75454403 0.77832451
v 0.69210155 0.68069586 0.86283435
v 0.70791598 0.68069586 0.52056120
v 0.70791598 0.75769219 0.77753587
v 0.68845432 0.68069586 0.87661493
v 0.41684578 0.68069586 0.52056120
v 0.70791598 0.76257446 0.52056120
v 0.70791598 0.75875933 0.77703777
v 0.68702957 0.68069586 0.88151286
v 0.41684578 0.88820709 0.52056120
v 0.41684578 0.68069586 0.90799483
v 0.62978437 0.84874850 0.52056120
v 0.65973192 0.90386786 0.60511256
v 0.68210003 0.89997267 0.63557926
v 0.70791598 0.81529268 0.60619176
v 0.70791598 0.79021417 0.75927244
v 0.68648818 0.68909977 0.87802620
v 0.67073078 0.68069586 0.89878008
v 0.57305202 0.87366689 0.52056120
v 0.41684578 0.92929317 0.57995885
v 0.42701830 0.93076054 0.57883812
v 0.43878646 0.95173044 0.60585969
v 0.45140950 0.95242409 0.60498804
v 0.46520076 0.95255753 0.60486351
v 0.54848987 0.68069586 0.93916716
v 0.41684578 0.75110237 0.92542809
v 0.62949939 0.84898861 0.52056120
v 0.63488488 0.90333426 0.58149463
v 0.66477548 0.90682922 0.61839504
v 0.64443046 0.90757625 0.59577330
v 0.62217636 0.91867486 0.59398847
v 0.68380970 0.90320082 0.65180881
v 0.68697256 0.89132857 0.64334121
v 0.70791598 0.83276762 0.64446193
v 0.68304036 0.73186665 0.84955186
v 0.70791598 0.80032564 0.74063545
v 0.68705807 0.88495224 0.69157326
v 0.68460757 0.88103036 0.70568590
v 0.68084632 0.70534745 0.87254716
v 0.66457601 0.71188390 0.87831675
v 0.64659605 0.68069586 0.91314178
v 0.57316601 0.87364020 0.52056120
v 0.59778518 0.91347234 0.57435529
v 0.41684578 0.93857755 0.59498466
v 0.42918387 0.94300635 0.59622989
v 0.41684578 0.94132555 0.60656533
v 0.41684578 0.94348658 0.61756489
v 0.43878646 0.95173044 0.60764453
v 0.45061163 0.95298438 0.61681775
v 0.46699592 0.95322449 0.61839504
v 0.54900276 0.93732360 0.61839504
v 0.59732924 0.92558479 0.59394696
v 0.57339395 0.68069586 0.94460466
v 0.41684578 0.76540245 0.92592617
v 0.61747479 0.85773939 0.52056120
v 0.62217636 0.90832328 0.57813251
v 0.64659605 0.91424606 0.61839504
v 0.68380970 0.90320082 0.65695577
v 0.68836881 0.89180880 0.66592145
v 0.70791598 0.83663613 0.66795533
v 0.65668302 0.75491750 0.84826511
v 0.66677005 0.73864314 0.85490636
v 0.63679400 0.90357437 0.72946986
v 0.70791598 0.81275818 0.71710054
v 0.70791598 0.82567096 0.69223738
v 0.65944702 0.90301408 0.70473122
v 0.59778518 0.68069586 0.93626161
v 0.64041273 0.75963972 0.85308002
v 0.48848068 0.82985957 0.87478859
v 0.59778518 0.86555640 0.52056120
v 0.41684578 0.92758569 0.72992644
v 0.44194936 0.95090334 0.62391558
v 0.45821965 0.95279757 0.63454157
v 0.46651150 0.95279757 0.63454157
v 0.57433429 0.93134745 0.61710830
v 0.58889492 0.92769244 0.60204098
v 0.59778518 0.91501978 0.71597983
v 0.41684578 0.79408268 0.91911889
v 0.41684578 0.77033817 0.92538657
v 0.41980921 0.83418162 0.90297236
v 0.41684578 0.83124688 0.90500624
v 0.59801310 0.86547641 0.52056120
v 0.59054758 0.90554866 0.75541222
v 0.51811486 0.92891962 0.73187731
v 0.57339395 0.91467291 0.74034490
v 0.41684578 0.92409073 0.74167314
v 0.42701830 0.92473101 0.74420512
v 0.42701830 0.92822604 0.73204334
v 0.50022037 0.92923980 0.73171128
v 0.41684578 0.83418162 0.90297236
v 0.57339395 0.90840334 0.75831776
v 0.54900276 0.91155143 0.75910641
v 0.54900276 0.91995542 0.74034490
v 0.41684578 0.91915509 0.75192557
f 1 2 3
f 1 3 6
f 1 6 10
f 1 10 19
f 1 19 42
f 1 42 68
f 1 68 54
f 1 54 26
f 1 26 12
f 1 12 7
f 1 7 4
f 1 4 8
f 1 8 16
f 1 16 35
f 1 35 61
f 1 61 66
f 1 66 65
f 1 65 37
f 1 37 17
f 1 17 9
f 1 9 5
f 1 5 2
f 2 5 3
f 3 5 6
f 4 7 11
f 4 11 20
f 4 20 43
f 4 43 71
f 4 71 83
f 4 83 56
f 4 56 28
f 4 28 13
f 4 13 8
f 5 9 10
f 5 10 6
f 7 12 27
f 7 27 55
f 7 55 80
f 7 80 79
f 7 79 82
f 7 82 91
f 7 91 95
f 7 95 87
f 7 87 72
f 7 72 48
f 7 48 47
f 7 47 45
f 7 45 21
f 7 21 11
f 8 13 14
f 8 14 15
f 8 15 16
f 9 17 10
f 10 18 19
f 10 17 18
f 11 21 22
f 11 22 23
f 11 23 24
f 11 24 25
f 11 25 20
f 12 26 27
f 13 28 29
f 13 29 14
f 14 30 15
f 14 29 31
f 14 31 32
f 14 32 30
f 15 30 33
f 15 33 34
f 15 34 16
f 16 34 35
f 17 36 18
f 17 37 38
f 17 38 39
f 17 39 36
f 18 36 40
f 18 40 19
f 19 40 41
f 19 41 42
f 20 25 44
f 20 44 43
f 21 45 46
f 21 46 23
f 21 23 22
f 23 46 45
f 23 45 47
f 23 47 48
f 23 48 49
f 23 49 50
f 23 50 24
f 24 50 25
f 25 50 51
f 25 51 52
f 25 52 53
f 25 53 44
f 26 54 27
f 27 54 55
f 28 56 29
f 29 57 31
f 29 56 57
f 30 58 33
f 30 32 58
f 31 57 32
f 32 57 44
f 32 44 53
f 32 53 58
f 33 59 60
f 33 60 61
f 33 61 35
f 33 35 34
f 33 58 59
f 36 62 63
f 36 63 41
f 36 41 40
f 36 39 64
f 36 64 62
f 37 65 38
f 38 65 66
f 38 66 61
f 38 61 60
f 38 60 59
f 38 59 39
f 39 59 67
f 39 67 64
f 41 63 62
f 41 62 42
f 42 62 69
f 42 69 70
f 42 70 68
f 43 44 71
f 44 57 71
f 48 72 73
f 48 73 49
f 49 73 74
f 49 74 50
f 50 74 51
f 51 74 75
f 51 75 52
f 52 58 76
f 52 76 77
f 52 77 53
f 52 75 78
f 52 78 67
f 52 67 59
f 52 59 58
f 53 77 76
f 53 76 58
f 54 79 80
f 54 80 55
f 54 68 81
f 54 81 82
f 54 82 79
f 56 83 57
f 57 83 71
f 62 84 69
f 62 64 84
f 64 67 78
f 64 78 85
f 64 85 86
f 64 86 84
f 68 70 81
f 69 84 70
f 70 84 81
f 72 87 88
f 72 88 89
f 72 89 74
f 72 74 73
f 74 89 90
f 74 90 75
f 75 90 85
f 75 85 78
f 81 91 82
f 81 84 92
f 81 92 93
f 81 93 85
f 81 85 88
f 81 88 91
f 84 86 92
f 85 94 86
f 85 90 88
f 85 93 92
f 85 92 94
f 86 94 92
f 87 95 88
f 88 95 91
f 88 90 89

