# https://github.com/mikedh/trimesh
v 0.60434514 -0.08943163 0.23863097
v 0.60818894 -0.08943163 0.23863097
v 0.59291577 -0.08943163 0.24500024
v 0.65297092 -0.00465839 0.16299576
v 0.67101634 -0.00505763 0.16299576
v 0.62045171 -0.08943163 0.23873044
v 0.59198033 -0.08943163 0.24579635
v 0.59198033 0.11561449 0.15383994
v 0.63336071 0.02122606 0.16448858
v 0.64553845 0.01274209 0.15961206
v 0.64839575 0.03865981 0.14876439
v 0.65773313 0.04814190 0.14239512
v 0.67101634 0.01220976 0.15622843
v 0.68656163 -0.00206329 0.16568282
v 0.73158174 -0.02428799 0.19145848
v 0.62810525 -0.08943163 0.24012371
v 0.59198033 -0.08943163 1.05260477
v 0.59198033 0.14006831 0.15015766
v 0.69538876 0.10979215 0.13682204
v 0.65926384 0.04814190 0.14239512
v 0.59198033 0.15876633 0.14926200
v 0.71850259 0.11115624 0.13970806
v 0.71069599 0.02036103 0.16518521
v 0.69498059 0.01220976 0.16319478
v 0.75768893 -0.00216310 0.19066230
v 0.74418466 -0.01982974 0.19374742
v 0.76071639 -0.02907894 0.21076532
v 0.76097147 -0.05519629 0.23574487
v 0.76071639 -0.07655595 0.25843541
v 0.63669430 -0.08943163 0.24201459
v 0.67133949 -0.08943163 1.01827040
v 0.59198033 -0.07429355 1.11908410
v 0.69538876 0.12875634 0.13881239
v 0.71979522 0.12762514 0.13950903
v 0.59198033 0.18262129 0.15025722
v 0.73336755 0.12017255 0.14199707
v 0.76571674 0.08690205 0.16468761
v 0.76571674 0.02239053 0.18698009
v 0.76571674 0.01220976 0.19086133
v 0.76571674 -0.00914991 0.20180854
v 0.76571674 -0.01510533 0.20568985
v 0.76571674 -0.03380335 0.22121493
v 0.76571674 -0.05945491 0.24490069
v 0.76571674 -0.08187923 0.26798936
v 0.76571674 -0.08943163 0.27804083
v 0.68596636 -0.08943163 1.00851743
v 0.59198033 -0.07149883 1.12246780
v 0.76571674 -0.08943163 0.94343138
v 0.59198033 0.25045985 0.15792028
v 0.73336755 0.12349959 0.14199707
v 0.76571674 0.23488926 0.18041179
v 0.76571674 0.10992524 0.15801976
v 0.76571674 0.08753418 0.16448858
v 0.61385259 -0.05286735 1.12107453
v 0.59779706 -0.06098535 1.12465725
v 0.59198033 -0.06098535 1.12714522
v 0.76571674 -0.00549015 0.97298880
v 0.65514795 0.01220976 1.11331198
v 0.63579289 -0.02621767 1.11938268
v 0.76571674 0.25045985 0.18598488
v 0.76571674 0.24952828 0.18558682
v 0.59198033 0.25045985 1.03399457
v 0.76571674 0.12975445 0.16110488
v 0.76571674 0.23179509 0.17961561
v 0.76571674 0.21352960 0.17553527
v 0.62208444 -0.03523399 1.12316443
v 0.59198033 -0.04242041 1.13301695
v 0.76571674 0.01240938 0.97448162
v 0.71338319 0.06101759 1.05230619
v 0.71186951 0.03663031 1.05101247
v 0.70157965 0.06101759 1.06454720
v 0.65490980 0.03663031 1.11291385
v 0.64269810 0.03663031 1.12465725
v 0.64295319 0.01220976 1.12376159
v 0.63910941 -0.01217752 1.12117408
v 0.62220349 -0.01217752 1.12913565
v 0.76571674 0.25045985 0.96652001
v 0.59198033 0.09971119 1.14476028
v 0.59781407 0.09971119 1.14476028
v 0.61113134 0.09831383 1.14356604
v 0.69538876 0.25045985 1.00831840
v 0.59781407 -0.03659807 1.13241980
v 0.59198033 -0.00718695 1.14207322
v 0.76571674 0.02718149 0.97408353
v 0.68928294 0.10979215 1.07549442
v 0.64079318 0.06101759 1.12495583
v 0.62557105 0.06101759 1.13719677
v 0.61337635 0.06101759 1.14485983
v 0.61135240 0.04351730 1.14366559
v 0.62220349 0.01220976 1.13421120
v 0.60538260 0.01220976 1.14117755
v 0.59198033 -0.00089882 1.14356604
v 0.59723579 -0.01221079 1.13878907
v 0.73221104 0.25045985 0.99468416
v 0.65919586 0.14668914 1.09440320
v 0.68673172 0.12702628 1.07380257
v 0.59198033 0.09645068 1.14605407
v 0.59198033 0.07958253 1.15182619
v 0.59781407 0.08537160 1.14943770
v 0.61320627 0.08537160 1.14476028
v 0.71452275 0.25045985 1.00324289
v 0.62540102 0.08537160 1.13460925
v 0.59781407 0.06101759 1.15142813
v 0.60886925 0.02724803 1.14257082
v 0.59317091 0.01220976 1.14555647
v 0.59198033 0.00781805 1.14515834
v 0.73090140 0.25045985 0.99577889
v 0.73017008 0.25045985 0.99617695
v 0.72010136 0.25045985 1.00115295
v 0.59198033 0.06101759 1.15331901
v 0.59198033 0.05519525 1.15282140
v 0.59956588 0.03586509 1.14734779
v 0.59198033 0.03609798 1.15013434
v 0.59198033 0.01220976 1.14595452
f 1 2 6
f 1 6 16
f 1 16 30
f 1 30 45
f 1 45 48
f 1 48 46
f 1 46 31
f 1 31 17
f 1 17 7
f 1 7 3
f 1 3 4
f 1 4 5
f 1 5 2
f 2 5 6
f 3 7 8
f 3 8 9
f 3 9 10
f 3 10 4
f 4 10 11
f 4 11 12
f 4 12 13
f 4 13 5
f 5 13 14
f 5 14 15
f 5 15 6
f 6 15 16
f 7 17 32
f 7 32 47
f 7 47 56
f 7 56 67
f 7 67 83
f 7 83 92
f 7 92 106
f 7 106 114
f 7 114 113
f 7 113 111
f 7 111 110
f 7 110 98
f 7 98 97
f 7 97 78
f 7 78 62
f 7 62 49
f 7 49 35
f 7 35 21
f 7 21 18
f 7 18 8
f 8 18 12
f 8 12 11
f 8 11 10
f 8 10 9
f 12 19 20
f 12 20 13
f 12 18 21
f 12 21 19
f 13 20 22
f 13 22 23
f 13 23 24
f 13 24 14
f 14 24 23
f 14 23 25
f 14 25 26
f 14 26 15
f 15 26 27
f 15 27 28
f 15 28 29
f 15 29 30
f 15 30 16
f 17 31 32
f 19 33 34
f 19 34 22
f 19 22 20
f 19 21 35
f 19 35 33
f 22 34 36
f 22 36 23
f 23 36 37
f 23 37 25
f 25 38 39
f 25 39 40
f 25 40 41
f 25 41 27
f 25 27 26
f 25 37 38
f 27 41 42
f 27 42 43
f 27 43 28
f 28 43 44
f 28 44 29
f 29 44 45
f 29 45 30
f 31 46 32
f 32 46 48
f 32 48 47
f 33 35 49
f 33 49 34
f 34 50 36
f 34 49 51
f 34 51 50
f 36 50 52
f 36 52 53
f 36 53 37
f 37 53 52
f 37 52 63
f 37 63 65
f 37 65 64
f 37 64 51
f 37 51 61
f 37 61 60
f 37 60 77
f 37 77 84
f 37 84 68
f 37 68 57
f 37 57 48
f 37 48 45
f 37 45 44
f 37 44 43
f 37 43 42
f 37 42 41
f 37 41 40
f 37 40 39
f 37 39 38
f 47 48 54
f 47 54 55
f 47 55 56
f 48 57 58
f 48 58 59
f 48 59 54
f 49 60 61
f 49 61 51
f 49 62 81
f 49 81 101
f 49 101 109
f 49 109 108
f 49 108 107
f 49 107 94
f 49 94 77
f 49 77 60
f 50 63 52
f 50 51 64
f 50 64 65
f 50 65 63
f 54 59 66
f 54 66 67
f 54 67 56
f 54 56 55
f 57 68 69
f 57 69 70
f 57 70 58
f 58 70 69
f 58 69 71
f 58 71 72
f 58 72 73
f 58 73 74
f 58 74 75
f 58 75 59
f 59 75 76
f 59 76 66
f 62 78 79
f 62 79 80
f 62 80 81
f 66 76 82
f 66 82 67
f 67 82 83
f 68 84 69
f 69 85 71
f 69 84 77
f 69 77 85
f 71 85 72
f 72 85 73
f 73 85 86
f 73 86 87
f 73 87 74
f 74 87 88
f 74 88 89
f 74 89 90
f 74 90 75
f 75 90 76
f 76 90 91
f 76 91 92
f 76 92 83
f 76 83 93
f 76 93 82
f 77 94 95
f 77 95 96
f 77 96 85
f 78 97 79
f 79 97 98
f 79 98 99
f 79 99 80
f 80 99 100
f 80 100 95
f 80 95 101
f 80 101 81
f 82 93 83
f 85 96 95
f 85 95 102
f 85 102 86
f 86 102 100
f 86 100 87
f 87 100 88
f 88 100 103
f 88 103 89
f 89 103 104
f 89 104 90
f 90 104 91
f 91 104 105
f 91 105 92
f 92 105 106
f 94 107 95
f 95 100 102
f 95 107 108
f 95 108 109
f 95 109 101
f 98 110 100
f 98 100 99
f 100 110 103
f 103 110 111
f 103 111 112
f 103 112 104
f 104 112 113
f 104 113 105
f 105 113 114
f 105 114 106
f 111 113 112

