# https://github.com/mikedh/trimesh
v -0.17591870 -0.53648539 0.10875686
v -0.18375044 -0.53648539 0.11153322
v -0.23543138 -0.30804746 0.07070994
v -0.23179822 -0.30804746 0.06988728
v -0.20718274 -0.30804746 0.07430896
v -0.20601008 -0.30804746 0.07492597
v -0.18367713 -0.30804746 0.08798534
v -0.18170873 -0.30804746 0.08932204
v -0.17591870 -0.30804746 0.09343524
v -0.17591870 -0.53648539 0.96213915
v -0.28287190 -0.30804746 0.08808816
v -0.28287190 -0.53648539 0.17035177
v -0.28287190 -0.53626178 0.17024891
v -0.17591870 -0.30804746 1.08070158
v -0.17591870 -0.53621706 1.00872091
v -0.24530479 -0.53648539 0.95309016
v -0.28287190 -0.30804746 1.10671747
v -0.28287190 -0.53648539 0.94373267
v -0.18300704 -0.33154866 1.10291277
v -0.17591870 -0.31504639 1.08666571
v -0.25065507 -0.53648539 0.95216468
v -0.17591870 -0.53498723 1.02558498
v -0.28287190 -0.40261127 1.09478926
v -0.27623376 -0.40261127 1.10424958
v -0.25774339 -0.40348337 1.11638343
v -0.25065507 -0.39592542 1.12039381
v -0.24943005 -0.37821564 1.12018813
v -0.24458234 -0.36555945 1.11885136
v -0.23179822 -0.36520168 1.11895419
v -0.21773672 -0.36535817 1.11874854
v -0.18300704 -0.35382002 1.11206462
v -0.20297373 -0.51533207 1.04841314
v -0.24561888 -0.48928175 1.07154977
v -0.27042280 -0.46557931 1.07288654
v -0.28287190 -0.44643844 1.07679406
v -0.17591870 -0.34735774 1.10754009
v -0.17591870 -0.33311391 1.10157600
v -0.17591870 -0.51461652 1.04707634
v -0.18300704 -0.51555567 1.04820746
v -0.28287190 -0.41873344 1.09098456
v -0.27406643 -0.42698457 1.10075335
v -0.25619378 -0.42698457 1.10990520
v -0.23667733 -0.39592542 1.12039381
v -0.22984027 -0.37848397 1.11998249
v -0.21773672 -0.37052353 1.11874854
v -0.20872188 -0.37848397 1.11658912
v -0.18300704 -0.37821564 1.11000802
v -0.17591870 -0.37821564 1.10733444
v -0.17591870 -0.35352933 1.10908254
v -0.23179822 -0.49138366 1.07309222
v -0.24550370 -0.46452832 1.09468640
v -0.26176395 -0.45920647 1.08923646
v -0.27084163 -0.44295018 1.09684582
v -0.27876756 -0.44930065 1.07957046
v -0.28287190 -0.42698457 1.08872231
v -0.17591870 -0.49887452 1.05674230
v -0.19403218 -0.48876745 1.07021300
v -0.20740263 -0.49100352 1.07206392
v -0.23179822 -0.42698457 1.10856839
v -0.25465469 -0.45120131 1.09910807
v -0.24155645 -0.46452832 1.09468640
v -0.22041710 -0.38680218 1.11833721
v -0.17591870 -0.41873344 1.09581752
v -0.18300704 -0.40261127 1.10322128
v -0.17591870 -0.40187336 1.10116467
v -0.17591870 -0.48044924 1.06630548
v -0.17591870 -0.42470374 1.09304116
v -0.20565409 -0.45214046 1.09067605
v -0.21261677 -0.44451542 1.09643453
v -0.22529622 -0.46079408 1.09283548
v -0.23277195 -0.45214046 1.09879960
f 1 2 3
f 1 3 4
f 1 4 5
f 1 5 6
f 1 6 7
f 1 7 8
f 1 8 9
f 1 9 14
f 1 14 20
f 1 20 37
f 1 37 36
f 1 36 49
f 1 49 48
f 1 48 65
f 1 65 63
f 1 63 67
f 1 67 66
f 1 66 56
f 1 56 38
f 1 38 22
f 1 22 15
f 1 15 10
f 1 10 16
f 1 16 21
f 1 21 18
f 1 18 12
f 1 12 2
f 2 11 3
f 2 12 13
f 2 13 11
f 3 11 17
f 3 17 14
f 3 14 9
f 3 9 8
f 3 8 7
f 3 7 6
f 3 6 5
f 3 5 4
f 10 15 16
f 11 13 12
f 11 12 18
f 11 18 35
f 11 35 55
f 11 55 40
f 11 40 23
f 11 23 17
f 14 17 19
f 14 19 20
f 15 21 16
f 15 22 18
f 15 18 21
f 17 23 24
f 17 24 25
f 17 25 26
f 17 26 27
f 17 27 28
f 17 28 29
f 17 29 30
f 17 30 31
f 17 31 19
f 18 22 32
f 18 32 33
f 18 33 34
f 18 34 35
f 19 31 36
f 19 36 37
f 19 37 20
f 22 38 39
f 22 39 32
f 23 40 24
f 24 41 25
f 24 40 41
f 25 41 42
f 25 42 26
f 26 42 43
f 26 43 27
f 27 43 44
f 27 44 29
f 27 29 28
f 29 44 30
f 30 44 45
f 30 45 31
f 31 45 46
f 31 46 47
f 31 47 48
f 31 48 49
f 31 49 36
f 32 39 50
f 32 50 33
f 33 50 51
f 33 51 52
f 33 52 34
f 34 52 53
f 34 53 54
f 34 54 35
f 35 54 53
f 35 53 55
f 38 56 57
f 38 57 58
f 38 58 39
f 39 58 50
f 40 55 41
f 41 53 42
f 41 55 53
f 42 59 43
f 42 53 60
f 42 60 51
f 42 51 61
f 42 61 59
f 43 62 45
f 43 45 44
f 43 59 63
f 43 63 64
f 43 64 62
f 45 62 46
f 46 62 47
f 47 62 64
f 47 64 65
f 47 65 48
f 50 58 61
f 50 61 51
f 51 60 53
f 51 53 52
f 56 66 57
f 57 66 67
f 57 67 63
f 57 63 68
f 57 68 69
f 57 69 70
f 57 70 61
f 57 61 58
f 59 61 71
f 59 71 69
f 59 69 63
f 61 70 71
f 63 65 64
f 63 69 68
f 69 71 70

