# https://github.com/mikedh/trimesh
v -0.28287192 -0.53648539 0.17033312
v -0.28287192 -0.53626178 0.17022899
v -0.28287192 -0.53648539 0.94381938
v -0.34174830 -0.53648539 0.18814194
v -0.34793977 -0.30804746 0.06431333
v -0.32939719 -0.30804746 0.07045790
v -0.28287192 -0.30804746 0.08805842
v -0.28287192 -0.44643844 1.07681275
v -0.34793977 -0.53648539 0.96923080
v -0.34793977 -0.53648539 0.19012070
v -0.34793977 -0.30804746 1.12826049
v -0.28287192 -0.30804746 1.10670242
v -0.28287192 -0.42698457 1.08878947
v -0.34793977 -0.36936077 1.12044959
v -0.34793977 -0.32356585 1.12815632
v -0.30909015 -0.30804746 1.12034546
v -0.28422869 -0.30804746 1.10784801
v -0.28287192 -0.40261127 1.09472574
v -0.28287192 -0.41873344 1.09097652
v -0.34793977 -0.35382002 1.12461540
v -0.34793977 -0.32989397 1.12794806
v -0.30744038 -0.30804746 1.11992886
v -0.32711040 -0.33159338 1.12253252
v -0.29684097 -0.30804746 1.11597134
v -0.31744739 -0.34118615 1.11847083
v -0.33472238 -0.35382002 1.12076202
v -0.34793977 -0.34894535 1.12555270
v -0.31419240 -0.32490749 1.11982473
f 1 2 7
f 1 7 12
f 1 12 18
f 1 18 19
f 1 19 13
f 1 13 8
f 1 8 3
f 1 3 9
f 1 9 10
f 1 10 4
f 1 4 5
f 1 5 2
f 2 5 6
f 2 6 7
f 3 8 9
f 4 10 5
f 5 10 9
f 5 9 14
f 5 14 20
f 5 20 27
f 5 27 21
f 5 21 15
f 5 15 11
f 5 11 16
f 5 16 22
f 5 22 24
f 5 24 17
f 5 17 12
f 5 12 7
f 5 7 6
f 8 13 14
f 8 14 9
f 11 15 16
f 12 17 18
f 13 19 20
f 13 20 14
f 15 21 16
f 16 21 23
f 16 23 22
f 17 24 18
f 18 24 25
f 18 25 26
f 18 26 20
f 18 20 19
f 20 26 25
f 20 25 27
f 21 27 23
f 22 23 28
f 22 28 24
f 23 27 25
f 23 25 28
f 24 28 25

