# https://github.com/mikedh/trimesh
v -1.09949542 -0.26952213 0.78913700
v -1.09949542 -0.26917956 0.80727567
v -1.10395201 -0.26913676 0.80691290
v -1.10336364 -0.26917956 0.78913700
v -1.09949542 -0.26875136 0.77680271
v -1.09949542 -0.26875136 0.81026856
v -1.09949542 -0.26763798 0.81729729
v -1.11133787 -0.26763798 0.81444045
v -1.13460971 -0.26442629 0.81353352
v -1.11555659 -0.26652460 0.78913700
v -1.09949542 -0.26870853 0.77612251
v -1.09949542 -0.26198541 0.83793003
v -1.11021126 -0.26297034 0.83793003
v -1.13460971 -0.26245648 0.83793003
v -1.15900818 -0.25847398 0.83793003
v -1.15900818 -0.25890222 0.81353352
v -1.13460971 -0.25115138 0.74034397
v -1.11021126 -0.25761755 0.74034397
v -1.09949542 -0.25980148 0.74034397
v -1.15900818 -0.25444870 0.78913700
v -1.09949542 -0.25050907 0.85711168
v -1.11021126 -0.25149396 0.85851743
v -1.13517299 -0.25098010 0.86377765
v -1.14978205 -0.24494217 0.87556778
v -1.15834471 -0.24948131 0.86300675
v -1.17413041 -0.24682635 0.85529781
v -1.17836171 -0.24960981 0.83793003
v -1.18180424 -0.24995238 0.81353352
v -1.17906270 -0.24755433 0.78913700
v -1.14695290 -0.24404290 0.72805502
v -1.13460971 -0.24635529 0.72492610
v -1.09949542 -0.25183653 0.71594746
v -1.09949542 -0.23770519 0.86930994
v -1.14369804 -0.24494217 0.87556778
v -1.14699042 -0.21971985 0.89905737
v -1.16603097 -0.23791931 0.87157727
v -1.17175196 -0.22164683 0.87543174
v -1.17607081 -0.23059671 0.86300675
v -1.18756275 -0.23179571 0.83793003
v -1.19402226 -0.23380836 0.81525670
v -1.20108263 -0.22892664 0.78913700
v -1.19126822 -0.24113099 0.78913700
v -1.17416800 -0.24541319 0.77449003
v -1.17715989 -0.22284587 0.72474472
v -1.09949542 -0.15775600 0.59877164
v -1.09949542 -0.24400007 0.70374920
v -1.09949542 -0.24472805 0.70470148
v -1.19955542 -0.22181812 0.74687390
v -1.19343390 -0.21800695 0.73059444
v -1.10809560 -0.24918157 0.71590211
v -1.09949542 -0.22550083 0.88001175
v -1.11021126 -0.22734219 0.88187097
v -1.13006552 -0.21706485 0.89701676
v -1.14633944 -0.21971985 0.89905737
v -1.09949542 -0.11938726 0.94653533
v -1.11021126 -0.11865928 0.94630860
v -1.12459497 -0.10264375 0.94939218
v -1.15388812 -0.18297834 0.90676630
v -1.15029529 -0.20738704 0.90105261
v -1.17193971 -0.20738704 0.87615729
v -1.17857448 -0.20738704 0.86232655
v -1.14850520 -0.03198701 0.92753507
v -1.22228887 -0.18297834 0.75802918
v -1.22123737 -0.19809459 0.75635135
v -1.19866659 -0.22699962 0.80827331
v -1.22123737 -0.19809459 0.74664716
v -1.20174611 -0.22502980 0.76474049
v -1.09949542 -0.14238282 0.58589318
v -1.20284779 -0.20173449 0.72247738
v -1.21018355 -0.18507663 0.71436033
v -1.20933232 -0.20802935 0.73862080
v -1.21912171 -0.19411213 0.73036770
v -1.09949542 -0.20794373 0.89157515
v -1.10804558 -0.20832913 0.89493082
v -1.11473036 -0.20079241 0.90218628
v -1.09949542 -0.11403448 0.94871198
v -1.11021126 -0.10645494 0.95075258
v -1.11021126 -0.08538638 0.95506050
v -1.12668553 -0.08538638 0.95075258
v -1.12857582 -0.06097768 0.95179555
v -1.14284682 -0.03871010 0.93560679
v -1.14890573 -0.01220312 0.92748973
v -1.22069912 -0.08538638 0.75372125
v -1.22735889 -0.15856964 0.74034397
v -1.22372854 -0.18477687 0.73925565
v -1.22316526 -0.17783965 0.72247738
v -1.09949542 -0.13360426 0.57968068
v -1.20125789 -0.17604113 0.69948662
v -1.09949542 -0.10718292 0.95120605
v -1.09949542 -0.08538638 0.95555933
v -1.11021126 -0.06097768 0.95605814
v -1.12976505 -0.03661181 0.95215832
v -1.13857806 -0.01220312 0.93968798
v -1.14790426 0.00150001 0.92467823
v -1.18755023 0.01216275 0.81353352
v -1.22017336 -0.07245405 0.75290500
v -1.22401649 -0.10992354 0.74211249
v -1.22445455 -0.10979507 0.72193322
v -1.22585669 -0.13416095 0.71862291
v -1.22564392 -0.15856964 0.71826014
v -1.21781986 -0.15856964 0.70606188
v -1.12774960 -0.01220312 0.52812150
v -1.12368105 -0.02534955 0.53197597
v -1.09949542 -0.00410971 0.50526678
v -1.09949542 -0.06097768 0.95528724
v -1.11021126 -0.03661181 0.95555933
v -1.12637254 -0.01220312 0.94989098
v -1.12257945 0.00008687 0.94785038
v -1.15182257 0.00668150 0.91116492
v -1.13226872 0.00505426 0.93392896
v -1.09949542 0.16795018 0.69744601
v -1.17608332 0.02787853 0.83126407
v -1.17793602 0.02976270 0.81353352
v -1.10645568 0.16795018 0.66719978
v -1.19797810 -0.01944008 0.76474049
v -1.20560183 -0.03661181 0.76474049
v -1.22017336 -0.07245405 0.75090975
v -1.22205108 -0.08397324 0.74179507
v -1.22248928 -0.09116739 0.72501680
v -1.14712814 0.00068639 0.55614575
v -1.14712814 -0.00085522 0.55614575
v -1.12873856 0.01216275 0.52508328
v -1.11764722 0.01216275 0.51288501
v -1.10545421 0.01216275 0.50086816
v -1.09949542 0.01139195 0.49637882
v -1.09949542 -0.03686875 0.95356406
v -1.11243954 -0.01198900 0.95084328
v -1.09949542 -0.02676269 0.95229436
v -1.09949542 -0.01708486 0.95034445
v -1.12206621 0.00008687 0.94785038
v -1.10450284 0.16795018 0.69046262
v -1.09949542 0.16795018 0.63958365
v -1.11243954 0.00668150 0.93624164
v -1.09949542 0.00496861 0.93193371
v -1.10302565 0.16795018 0.64643100
v -1.21844574 -0.07489492 0.73463029
v -1.13962956 0.01015011 0.54684969
v -1.12498298 0.02749313 0.52789476
v -1.10383936 0.03657145 0.49973449
v -1.09949542 0.03657145 0.49288714
v -1.09949542 -0.00620800 0.94354246
v -1.10579220 -0.00372431 0.94485750
v -1.09949542 0.05018893 0.50449588
v -1.09949542 -0.00154037 0.93932521
f 1 2 3
f 1 3 4
f 1 4 5
f 1 5 11
f 1 11 19
f 1 19 32
f 1 32 47
f 1 47 46
f 1 46 45
f 1 45 68
f 1 68 87
f 1 87 104
f 1 104 125
f 1 125 140
f 1 140 143
f 1 143 132
f 1 132 111
f 1 111 134
f 1 134 144
f 1 144 141
f 1 141 129
f 1 129 128
f 1 128 126
f 1 126 105
f 1 105 90
f 1 90 89
f 1 89 76
f 1 76 55
f 1 55 73
f 1 73 51
f 1 51 33
f 1 33 21
f 1 21 12
f 1 12 7
f 1 7 6
f 1 6 2
f 2 6 3
f 3 6 7
f 3 7 8
f 3 8 9
f 3 9 4
f 4 9 10
f 4 10 11
f 4 11 5
f 7 12 13
f 7 13 14
f 7 14 8
f 8 14 9
f 9 14 15
f 9 15 16
f 9 16 10
f 10 16 11
f 11 17 18
f 11 18 19
f 11 16 20
f 11 20 17
f 12 21 22
f 12 22 23
f 12 23 13
f 13 23 14
f 14 23 24
f 14 24 25
f 14 25 15
f 15 25 26
f 15 26 27
f 15 27 28
f 15 28 16
f 16 28 29
f 16 29 20
f 17 20 30
f 17 30 31
f 17 31 18
f 18 31 32
f 18 32 19
f 20 29 30
f 21 33 34
f 21 34 22
f 22 34 23
f 23 34 24
f 24 34 54
f 24 54 35
f 24 35 36
f 24 36 26
f 24 26 25
f 26 36 37
f 26 37 38
f 26 38 39
f 26 39 40
f 26 40 27
f 27 40 28
f 28 40 41
f 28 41 42
f 28 42 29
f 29 42 43
f 29 43 30
f 30 44 45
f 30 45 46
f 30 46 47
f 30 47 31
f 30 43 48
f 30 48 49
f 30 49 44
f 31 47 50
f 31 50 32
f 32 50 47
f 33 51 52
f 33 52 53
f 33 53 34
f 34 53 54
f 35 37 36
f 35 54 55
f 35 55 56
f 35 56 57
f 35 57 58
f 35 58 59
f 35 59 37
f 37 60 61
f 37 61 39
f 37 39 38
f 37 59 58
f 37 58 62
f 37 62 60
f 39 63 64
f 39 64 65
f 39 65 40
f 39 61 63
f 40 65 41
f 41 65 64
f 41 64 66
f 41 66 67
f 41 67 42
f 42 67 48
f 42 48 43
f 44 49 45
f 45 49 69
f 45 69 70
f 45 70 68
f 48 67 66
f 48 66 71
f 48 71 49
f 49 71 72
f 49 72 69
f 51 73 74
f 51 74 53
f 51 53 52
f 53 74 75
f 53 75 55
f 53 55 54
f 55 76 56
f 55 75 74
f 55 74 73
f 56 76 77
f 56 77 57
f 57 77 78
f 57 78 79
f 57 79 58
f 58 79 80
f 58 80 81
f 58 81 62
f 60 62 82
f 60 82 61
f 61 82 63
f 62 81 82
f 63 83 84
f 63 84 64
f 63 82 83
f 64 84 85
f 64 85 66
f 66 85 86
f 66 86 72
f 66 72 71
f 68 70 88
f 68 88 87
f 69 72 70
f 70 72 86
f 70 86 88
f 76 89 77
f 77 89 78
f 78 90 91
f 78 91 80
f 78 80 79
f 78 89 90
f 80 91 92
f 80 92 81
f 81 92 82
f 82 92 93
f 82 93 94
f 82 94 95
f 82 95 96
f 82 96 83
f 83 96 84
f 84 96 97
f 84 97 98
f 84 98 99
f 84 99 100
f 84 100 85
f 85 100 86
f 86 100 101
f 86 101 102
f 86 102 88
f 87 88 103
f 87 103 104
f 88 102 103
f 90 105 91
f 91 106 92
f 91 105 106
f 92 106 107
f 92 107 93
f 93 107 108
f 93 108 94
f 94 109 95
f 94 108 110
f 94 110 111
f 94 111 109
f 95 112 113
f 95 113 114
f 95 114 115
f 95 115 116
f 95 116 117
f 95 117 96
f 95 109 112
f 96 117 118
f 96 118 97
f 97 118 98
f 98 119 120
f 98 120 99
f 98 118 119
f 99 120 121
f 99 121 100
f 100 121 102
f 100 102 101
f 102 121 122
f 102 122 123
f 102 123 124
f 102 124 125
f 102 125 103
f 103 125 104
f 105 126 106
f 106 127 107
f 106 126 128
f 106 128 129
f 106 129 127
f 107 127 108
f 108 111 110
f 108 127 130
f 108 130 111
f 109 111 131
f 109 131 112
f 111 132 135
f 111 135 114
f 111 114 131
f 111 130 133
f 111 133 134
f 112 131 113
f 113 131 114
f 114 135 117
f 114 117 116
f 114 116 115
f 117 136 119
f 117 119 118
f 117 135 136
f 119 136 120
f 120 135 137
f 120 137 122
f 120 122 121
f 120 136 135
f 122 137 138
f 122 138 139
f 122 139 140
f 122 140 123
f 123 140 124
f 124 140 125
f 127 129 130
f 129 141 142
f 129 142 130
f 130 142 133
f 132 143 138
f 132 138 135
f 133 142 134
f 134 142 144
f 135 138 137
f 138 143 139
f 139 143 140
f 141 144 142

