# https://github.com/mikedh/trimesh
v -0.50311109 0.57240364 0.44765765
v -0.52035642 0.57131883 0.44765765
v -0.48042338 0.54899450 0.44765765
v -0.46280891 0.38130501 0.29346887
v -0.51022880 0.56206936 0.43487274
v -0.51326709 0.56206936 0.43487274
v -0.53389144 0.55521790 0.44765765
v -0.55950388 0.38199015 0.29346887
v -0.46280891 0.44827801 0.44765765
v -0.46280891 0.42869426 0.39876705
v -0.46280891 0.39175349 0.31090283
v -0.46280891 -0.01088395 0.29346887
v -0.47580442 0.38256110 0.29346887
v -0.55950388 0.44028466 0.36085004
v -0.55950388 0.44062724 0.36137834
v -0.55950388 0.46740502 0.40424629
v -0.55950388 0.47945216 0.44765765
v -0.55950388 -0.01088395 0.29346887
v -0.46280891 -0.01088395 0.44765765
v -0.55950388 -0.01088395 0.44765765
f 1 2 7
f 1 7 17
f 1 17 20
f 1 20 19
f 1 19 9
f 1 9 3
f 1 3 4
f 1 4 5
f 1 5 6
f 1 6 2
f 2 6 8
f 2 8 7
f 3 9 10
f 3 10 11
f 3 11 4
f 4 11 10
f 4 10 9
f 4 9 19
f 4 19 12
f 4 12 18
f 4 18 8
f 4 8 13
f 4 13 5
f 5 13 6
f 6 13 8
f 7 14 15
f 7 15 16
f 7 16 17
f 7 8 14
f 8 18 20
f 8 20 17
f 8 17 16
f 8 16 15
f 8 15 14
f 12 19 20
f 12 20 18

