# https://github.com/mikedh/trimesh
v -0.34794612 0.03819480 0.79737153
v -0.34794612 0.46156942 0.79737153
v -0.26511707 0.03819480 0.79737153
v -0.34794612 0.03819480 1.30902499
v -0.26511707 0.53898345 0.82446324
v -0.26511707 0.49929762 0.79737153
v -0.34794612 0.57261852 0.91436135
v -0.31870663 0.61212633 0.92195473
v -0.26813347 0.63419376 0.89930324
v -0.26511707 0.63152429 0.89454129
v -0.26511707 0.03819480 1.39679954
v -0.30057585 0.03819480 1.37286102
v -0.33053701 0.06453336 1.39956660
v -0.34283771 0.07076208 1.39171578
v -0.34794612 0.03932189 1.30992589
v -0.34794612 0.57694893 0.91899460
v -0.31907150 0.63591411 0.96886649
v -0.26511707 0.63573610 0.90232774
v -0.27425542 0.63668528 0.91558401
v -0.26511707 0.63816829 0.91172295
v -0.26511707 0.04584722 1.40812525
v -0.32316633 0.06921972 1.41378814
v -0.27161204 0.03819480 1.39293845
v -0.28060444 0.03819480 1.38753298
v -0.33762392 0.08541439 1.40291285
v -0.34794612 0.28064009 1.41739174
v -0.34794612 0.20743786 1.40297720
v -0.34794612 0.18359079 1.39435419
v -0.34794612 0.58507593 0.93559712
v -0.33741309 0.62885490 1.00882835
v -0.32163382 0.63787167 0.98437505
v -0.28167478 0.63870218 0.93521101
v -0.26511707 0.63905814 0.91642057
v -0.26511707 0.05207594 1.41308031
v -0.26797941 0.04922852 1.41102109
v -0.32542862 0.08541439 1.41629778
v -0.26511707 0.06109274 1.41687697
v -0.29382142 0.12071043 1.43624657
v -0.32092026 0.26213191 1.43901362
v -0.33393452 0.28064009 1.42929665
v -0.34663253 0.30502105 1.41604043
v -0.34794612 0.28562306 1.41687697
v -0.34794612 0.61497374 1.00882835
v -0.34794612 0.62227024 1.02871275
v -0.34794612 0.62369398 1.03321733
v -0.34022674 0.63300737 1.03321733
v -0.26511707 0.64232076 0.93546841
v -0.32520970 0.63971063 1.00882835
v -0.26511707 0.11756641 1.43740489
v -0.26511707 0.12907472 1.44113727
v -0.26511707 0.14918456 1.44647839
v -0.28060444 0.25625912 1.45445784
v -0.30664917 0.25489474 1.44461216
v -0.30500312 0.28064009 1.44660710
v -0.32173111 0.28064009 1.43901362
v -0.34343775 0.32050385 1.41288724
v -0.34794612 0.30502105 1.41423856
v -0.34794612 0.30270753 1.41507517
v -0.31951748 0.29529240 1.43682569
v -0.32834769 0.30407192 1.42826711
v -0.34794612 0.61811776 1.05187905
v -0.32169868 0.58922840 1.19518837
v -0.32336093 0.63745646 1.05760630
v -0.32803148 0.64030386 1.03321733
v -0.26511707 0.64303259 0.94454189
v -0.30500312 0.64309193 1.03321733
v -0.26511707 0.64410038 0.95998607
v -0.26511707 0.25625912 1.45471527
v -0.26511707 0.27174194 1.45362130
v -0.26511707 0.28064009 1.45278476
v -0.28060444 0.28064009 1.45207692
v -0.26511707 0.36914715 1.43656827
v -0.26880647 0.36671500 1.43592487
v -0.34794612 0.31599546 1.40883316
v -0.32996130 0.32898677 1.41758481
v -0.32220141 0.34796954 1.41456033
v -0.31561726 0.36422351 1.40954099
v -0.33846719 0.33675785 1.40548684
v -0.34794612 0.61788049 1.05232954
v -0.26511707 0.58400814 1.24216448
v -0.26511707 0.58549115 1.23991219
v -0.30302464 0.59207581 1.20355396
v -0.30500312 0.60293155 1.17955112
v -0.34794612 0.46299313 1.24016961
v -0.34794612 0.32667325 1.39815086
v -0.29194833 0.38943496 1.41018447
v -0.27039576 0.56330509 1.26623167
v -0.26511707 0.57042361 1.26076185
v -0.31762008 0.63454971 1.07002601
v -0.30694109 0.63810895 1.05786368
v -0.26511707 0.60263497 1.20323222
v -0.26511707 0.60785522 1.17974415
v -0.28962117 0.63650734 1.04994854
v -0.26511707 0.64297333 0.96867344
v -0.26511707 0.29612289 1.45059683
v -0.26511707 0.32050385 1.44615661
v -0.26511707 0.34393571 1.44171639
v -0.26511707 0.37513858 1.43438034
v -0.29935957 0.37318099 1.41520381
v -0.26511707 0.38207916 1.43129158
v -0.26511707 0.59142328 1.22736377
v -0.28060444 0.59842319 1.20394005
v -0.27568256 0.39459591 1.41668391
v -0.26511707 0.56472879 1.26719693
v -0.26511707 0.39530775 1.42048064
f 1 2 6
f 1 6 3
f 1 3 11
f 1 11 23
f 1 23 24
f 1 24 12
f 1 12 4
f 1 4 15
f 1 15 28
f 1 28 27
f 1 27 26
f 1 26 42
f 1 42 58
f 1 58 57
f 1 57 74
f 1 74 85
f 1 85 84
f 1 84 79
f 1 79 61
f 1 61 45
f 1 45 44
f 1 44 43
f 1 43 29
f 1 29 16
f 1 16 7
f 1 7 2
f 2 5 6
f 2 7 8
f 2 8 9
f 2 9 10
f 2 10 5
f 3 6 5
f 3 5 10
f 3 10 18
f 3 18 20
f 3 20 33
f 3 33 47
f 3 47 65
f 3 65 67
f 3 67 94
f 3 94 92
f 3 92 91
f 3 91 101
f 3 101 81
f 3 81 80
f 3 80 88
f 3 88 104
f 3 104 105
f 3 105 100
f 3 100 98
f 3 98 72
f 3 72 97
f 3 97 96
f 3 96 95
f 3 95 70
f 3 70 69
f 3 69 68
f 3 68 51
f 3 51 50
f 3 50 49
f 3 49 37
f 3 37 34
f 3 34 21
f 3 21 11
f 4 12 13
f 4 13 14
f 4 14 15
f 7 16 8
f 8 16 17
f 8 17 9
f 9 18 10
f 9 17 19
f 9 19 20
f 9 20 18
f 11 21 22
f 11 22 23
f 12 24 22
f 12 22 13
f 13 22 14
f 14 22 25
f 14 25 26
f 14 26 27
f 14 27 28
f 14 28 15
f 16 29 17
f 17 29 30
f 17 30 31
f 17 31 32
f 17 32 19
f 19 32 20
f 20 32 33
f 21 34 35
f 21 35 22
f 22 36 25
f 22 24 23
f 22 35 34
f 22 34 37
f 22 37 38
f 22 38 36
f 25 36 26
f 26 39 40
f 26 40 41
f 26 41 42
f 26 36 39
f 29 43 30
f 30 43 44
f 30 44 45
f 30 45 46
f 30 46 31
f 31 47 32
f 31 46 48
f 31 48 47
f 32 47 33
f 36 38 39
f 37 49 38
f 38 49 50
f 38 50 51
f 38 51 52
f 38 52 53
f 38 53 39
f 39 53 54
f 39 54 55
f 39 55 40
f 40 55 41
f 41 56 57
f 41 57 58
f 41 58 42
f 41 55 59
f 41 59 60
f 41 60 56
f 45 61 46
f 46 61 62
f 46 62 63
f 46 63 64
f 46 64 48
f 47 48 65
f 48 64 66
f 48 66 67
f 48 67 65
f 51 68 52
f 52 68 69
f 52 69 70
f 52 70 71
f 52 71 54
f 52 54 53
f 54 71 72
f 54 72 73
f 54 73 59
f 54 59 55
f 56 74 57
f 56 60 75
f 56 75 76
f 56 76 77
f 56 77 78
f 56 78 62
f 56 62 74
f 59 73 76
f 59 76 75
f 59 75 60
f 61 79 62
f 62 80 81
f 62 81 82
f 62 82 83
f 62 83 63
f 62 79 84
f 62 84 85
f 62 85 74
f 62 78 77
f 62 77 86
f 62 86 87
f 62 87 88
f 62 88 80
f 63 89 90
f 63 90 66
f 63 66 64
f 63 83 91
f 63 91 89
f 66 90 92
f 66 92 93
f 66 93 94
f 66 94 67
f 70 95 71
f 71 95 96
f 71 96 97
f 71 97 72
f 72 98 73
f 73 98 76
f 76 99 77
f 76 98 100
f 76 100 99
f 77 99 86
f 81 101 102
f 81 102 82
f 82 102 83
f 83 102 91
f 86 99 100
f 86 100 103
f 86 103 87
f 87 103 104
f 87 104 88
f 89 91 90
f 90 91 92
f 91 102 101
f 92 94 93
f 100 105 103
f 103 105 104

