# https://github.com/mikedh/trimesh
v 0.57697278 -0.50509338 0.43422975
v 0.55707639 -0.50509338 0.45805916
v 0.51180390 -0.50464580 0.42831651
v 0.51180390 -0.50008884 0.40669350
v 0.51180390 -0.49911235 0.40263367
v 0.57697278 -0.49890888 0.42928734
v 0.57697278 -0.50509338 0.89148991
v 0.51180390 -0.50509338 0.51436722
v 0.51180390 -0.25738893 0.27801465
v 0.57697278 -0.31093344 0.28083886
v 0.57697278 -0.32000672 0.28666384
v 0.57697278 -0.43511117 1.03790845
v 0.53710978 -0.46387713 1.07012232
v 0.56781239 -0.50509338 0.90464021
v 0.51180390 -0.50509338 0.91973219
v 0.51180390 -0.24343318 0.27607295
v 0.55337010 -0.25018727 0.26142229
v 0.57697278 -0.30588822 0.27872067
v 0.57697278 -0.42343391 1.05520690
v 0.56217328 -0.41720873 1.09801160
v 0.52460036 -0.46688797 1.07418215
v 0.51180390 -0.47567645 1.06500343
v 0.51180390 -0.47897209 1.05714854
v 0.52460036 -0.47388621 1.05750158
v 0.55009764 -0.42660753 1.10586649
v 0.54211101 -0.41879557 1.13075500
v 0.53729477 -0.41513369 1.14337574
v 0.56348099 -0.50509338 0.90693489
v 0.54881543 -0.50509338 0.91311290
v 0.51180390 -0.23183729 0.27519037
v 0.57697278 -0.13459460 0.24774242
v 0.57697278 -0.13959914 0.24809546
v 0.57548007 -0.25747032 0.26045144
v 0.57697278 -0.25869094 0.26053972
v 0.51180390 -0.13321122 0.27051281
v 0.57697278 -0.40557219 1.06729811
v 0.55951320 -0.40256131 1.11195623
v 0.55060797 -0.40256131 1.13075500
v 0.51180390 -0.46900373 1.07700636
v 0.54010161 -0.40256131 1.14567042
v 0.52460036 -0.40256131 1.14937720
v 0.52460036 -0.41623227 1.14425831
v 0.51180390 -0.43799995 1.11831074
v 0.51180390 -0.44365550 1.11089710
v 0.51180390 -0.44768355 1.10560165
v 0.51180390 -0.46473156 1.08274306
v 0.57697278 -0.11376269 0.24941929
v 0.51180390 -0.12267320 0.27042453
v 0.57697278 -0.40256131 1.06853366
v 0.57697278 -0.28058071 1.10842594
v 0.54066934 -0.37818961 1.14602346
v 0.52460036 -0.37818961 1.14902423
v 0.51180390 -0.40321232 1.14805337
v 0.51180390 -0.41240765 1.14575869
v 0.51180390 -0.41631365 1.14434659
v 0.51180390 -0.42225395 1.13781552
v 0.57697278 -0.09899318 0.25497950
v 0.51180390 -0.11075181 0.27157187
v 0.51180390 -0.09919662 0.27474912
v 0.51180390 -0.09704020 0.27536693
v 0.51180390 -0.08943165 0.27766161
v 0.57697278 -0.27789536 1.10842594
v 0.54372490 -0.08943165 1.13022539
v 0.51180390 -0.08943165 1.14161059
v 0.56085279 -0.08943165 1.11760465
v 0.54630846 -0.08943165 1.12837204
v 0.51180390 -0.39108747 1.14787682
v 0.57697278 -0.08943165 0.25877457
v 0.57697278 -0.13679171 1.09968847
v 0.57211189 -0.08943165 1.10577821
v 0.57697278 -0.08943165 1.08759726
v 0.57697278 -0.13516421 1.09933542
f 1 2 3
f 1 3 4
f 1 4 5
f 1 5 6
f 1 6 11
f 1 11 10
f 1 10 18
f 1 18 34
f 1 34 32
f 1 32 31
f 1 31 47
f 1 47 57
f 1 57 68
f 1 68 71
f 1 71 72
f 1 72 69
f 1 69 62
f 1 62 50
f 1 50 49
f 1 49 36
f 1 36 19
f 1 19 12
f 1 12 7
f 1 7 14
f 1 14 28
f 1 28 29
f 1 29 15
f 1 15 8
f 1 8 2
f 2 8 3
f 3 8 15
f 3 15 23
f 3 23 22
f 3 22 39
f 3 39 46
f 3 46 45
f 3 45 44
f 3 44 43
f 3 43 56
f 3 56 55
f 3 55 54
f 3 54 53
f 3 53 67
f 3 67 64
f 3 64 61
f 3 61 60
f 3 60 59
f 3 59 58
f 3 58 48
f 3 48 35
f 3 35 30
f 3 30 16
f 3 16 9
f 3 9 5
f 3 5 4
f 5 9 10
f 5 10 11
f 5 11 6
f 7 12 13
f 7 13 14
f 9 16 17
f 9 17 10
f 10 17 18
f 12 19 20
f 12 20 13
f 13 21 22
f 13 22 23
f 13 23 24
f 13 24 14
f 13 20 25
f 13 25 26
f 13 26 27
f 13 27 21
f 14 24 23
f 14 23 28
f 15 29 23
f 16 30 17
f 17 31 32
f 17 32 33
f 17 33 34
f 17 34 18
f 17 30 35
f 17 35 31
f 19 36 20
f 20 37 38
f 20 38 27
f 20 27 26
f 20 26 25
f 20 36 37
f 21 39 22
f 21 27 39
f 23 29 28
f 27 38 40
f 27 40 41
f 27 41 42
f 27 42 43
f 27 43 44
f 27 44 45
f 27 45 46
f 27 46 39
f 31 35 48
f 31 48 47
f 32 34 33
f 36 49 37
f 37 50 38
f 37 49 50
f 38 50 40
f 40 51 41
f 40 50 51
f 41 52 53
f 41 53 54
f 41 54 55
f 41 55 42
f 41 51 52
f 42 55 56
f 42 56 43
f 47 48 58
f 47 58 59
f 47 59 60
f 47 60 61
f 47 61 57
f 50 62 51
f 51 63 64
f 51 64 52
f 51 62 65
f 51 65 66
f 51 66 63
f 52 64 67
f 52 67 53
f 57 61 68
f 61 64 63
f 61 63 66
f 61 66 65
f 61 65 70
f 61 70 71
f 61 71 68
f 62 69 70
f 62 70 65
f 69 72 70
f 70 72 71

