# https://github.com/mikedh/trimesh
v -0.34794612 0.52976089 1.14578869
v -0.34794612 0.61780261 1.05227449
v -0.34809968 0.61780261 1.05217894
v -0.36717647 0.51370543 1.14400503
v -0.36354419 0.51528465 1.14578869
v -0.34794612 -0.14733176 1.14578869
v -0.34794612 0.61806584 1.05182855
v -0.34794612 0.62372474 1.03316395
v -0.35033811 0.62082955 1.03316395
v -0.39328744 0.56424060 1.04842052
v -0.39584478 0.49370192 1.12565894
v -0.40828307 0.45790616 1.14578869
v -0.35465551 -0.15588589 1.14578869
v -0.40828307 -0.28051305 1.14572499
v -0.40828307 -0.30499103 1.14508795
v -0.40704278 -0.30499103 1.14492869
v -0.40828307 -0.31091312 1.14467389
v -0.40828307 -0.32012529 1.14378208
v -0.35380499 -0.32933742 1.12951291
v -0.34794612 -0.32986382 1.12798405
v -0.34794612 0.62227707 1.02864111
v -0.39779972 0.56621467 0.96000245
v -0.40828307 0.56305618 0.98436837
v -0.40828307 0.55687092 1.00978539
v -0.40828307 0.54765875 1.03453352
v -0.40828307 0.47304039 1.12776106
v -0.40828307 -0.16786167 1.14578869
v -0.37819727 -0.16549284 1.14578869
v -0.39550813 -0.16773007 1.14578869
v -0.40259548 -0.16786167 1.14578869
v -0.40828307 -0.32538936 1.14292212
v -0.37819727 -0.35368378 1.13186983
v -0.35380499 -0.35368378 1.12639150
v -0.34794612 -0.34881453 1.12553154
v -0.34794612 0.61806584 1.01727035
v -0.39280314 0.56266139 0.94509623
v -0.40828307 0.55621289 0.96000245
v -0.34794612 0.61490742 1.00876616
v -0.34794612 0.58503372 0.93557281
v -0.40828307 -0.35368378 1.13594675
v -0.40259548 -0.35368378 1.13658376
v -0.37904775 -0.37908298 1.12409824
v -0.35380499 -0.37092366 1.12139092
v -0.34794612 -0.35368378 1.12463969
v -0.34794612 -0.36921283 1.12043537
v -0.34794612 0.57687443 0.91894666
v -0.38530235 0.55766052 0.92885228
v -0.40828307 0.46382825 0.82039999
v -0.40828307 -0.37881978 1.12556339
v -0.40407197 -0.38039903 1.12585004
v -0.38774748 -0.39105879 1.11957541
v -0.40828307 -0.70756171 0.89712880
v -0.34794612 -0.56398392 0.95019236
v -0.34794612 0.57253158 0.91436012
v -0.34794612 0.55937135 0.90114200
v -0.40259548 0.46382825 0.82039999
v -0.40828307 -0.72072202 0.82039999
v -0.39692558 -0.39105879 1.11957541
v -0.40828307 -0.71519474 0.88712761
v -0.34794612 -0.64781437 0.86432237
v -0.34794612 -0.62452086 0.88980307
v -0.34794612 -0.60254332 0.91244908
v -0.34794612 -0.58530344 0.92948929
v -0.34794612 -0.57069562 0.94391775
v -0.34794612 0.45803774 0.82039999
v -0.35367508 0.45922217 0.82039999
v -0.37819727 0.46330185 0.82039999
v -0.38623553 -0.71072028 0.82039999
v -0.40828307 -0.71980068 0.85983139
v -0.40828307 -0.71730036 0.88285959
v -0.34794612 -0.67966211 0.82039999
v -0.34794612 -0.66913390 0.83552916
v -0.38668437 -0.71045704 0.82966861
f 1 2 3
f 1 3 4
f 1 4 5
f 1 5 12
f 1 12 27
f 1 27 30
f 1 30 29
f 1 29 28
f 1 28 13
f 1 13 6
f 1 6 20
f 1 20 34
f 1 34 44
f 1 44 45
f 1 45 53
f 1 53 64
f 1 64 63
f 1 63 62
f 1 62 61
f 1 61 60
f 1 60 72
f 1 72 71
f 1 71 65
f 1 65 55
f 1 55 54
f 1 54 46
f 1 46 39
f 1 39 38
f 1 38 35
f 1 35 21
f 1 21 8
f 1 8 7
f 1 7 2
f 2 7 3
f 3 7 8
f 3 8 9
f 3 9 10
f 3 10 11
f 3 11 4
f 4 11 12
f 4 12 5
f 6 13 14
f 6 14 15
f 6 15 16
f 6 16 17
f 6 17 18
f 6 18 19
f 6 19 20
f 8 21 22
f 8 22 23
f 8 23 24
f 8 24 9
f 9 24 10
f 10 24 25
f 10 25 26
f 10 26 12
f 10 12 11
f 12 26 25
f 12 25 24
f 12 24 23
f 12 23 37
f 12 37 48
f 12 48 57
f 12 57 69
f 12 69 70
f 12 70 59
f 12 59 52
f 12 52 49
f 12 49 40
f 12 40 31
f 12 31 18
f 12 18 17
f 12 17 15
f 12 15 14
f 12 14 27
f 13 28 14
f 14 28 29
f 14 29 30
f 14 30 27
f 15 17 16
f 18 31 32
f 18 32 33
f 18 33 19
f 19 33 20
f 20 33 34
f 21 35 22
f 22 36 37
f 22 37 23
f 22 35 38
f 22 38 39
f 22 39 36
f 31 40 41
f 31 41 32
f 32 41 42
f 32 42 43
f 32 43 33
f 33 44 34
f 33 43 45
f 33 45 44
f 36 39 46
f 36 46 47
f 36 47 48
f 36 48 37
f 40 49 50
f 40 50 41
f 41 50 42
f 42 50 51
f 42 51 43
f 43 51 45
f 45 51 52
f 45 52 53
f 46 54 48
f 46 48 47
f 48 54 55
f 48 55 56
f 48 56 67
f 48 67 66
f 48 66 65
f 48 65 71
f 48 71 68
f 48 68 57
f 49 52 50
f 50 58 51
f 50 52 58
f 51 58 52
f 52 59 60
f 52 60 61
f 52 61 62
f 52 62 63
f 52 63 64
f 52 64 53
f 55 65 66
f 55 66 67
f 55 67 56
f 57 68 69
f 59 70 71
f 59 71 72
f 59 72 60
f 68 71 73
f 68 73 69
f 69 73 70
f 70 73 71

