# https://github.com/mikedh/trimesh
v -0.09078006 0.34320915 0.51368269
v -0.06759100 0.34320915 0.51434864
v -0.10235853 0.34320915 0.51467647
v -0.03668083 0.42783525 0.55836134
v -0.06100138 0.34320915 0.51459451
v -0.10235853 0.35122028 0.52068006
v -0.10235853 0.34320915 0.61833582
v -0.03668083 0.34320915 0.52350769
v -0.04609917 0.34320915 0.51915355
v -0.10235853 0.37395292 0.53835277
v -0.10235853 0.38894782 0.55099514
v -0.10235853 0.39286639 0.55442724
v -0.06107210 0.42783525 0.57416944
v -0.03668083 0.42783525 0.61833582
v -0.03668083 0.34320915 0.61833582
v -0.10235853 0.42783525 0.61833582
v -0.10235853 0.42783525 0.60186179
f 1 2 5
f 1 5 9
f 1 9 8
f 1 8 15
f 1 15 7
f 1 7 3
f 1 3 4
f 1 4 2
f 2 4 5
f 3 6 4
f 3 7 16
f 3 16 17
f 3 17 12
f 3 12 11
f 3 11 10
f 3 10 6
f 4 8 9
f 4 9 5
f 4 6 10
f 4 10 11
f 4 11 12
f 4 12 13
f 4 13 17
f 4 17 16
f 4 16 14
f 4 14 15
f 4 15 8
f 7 15 14
f 7 14 16
f 12 17 13

