# https://github.com/mikedh/trimesh
v -0.55950388 0.48168627 0.45244082
v -0.55950388 0.46739084 0.40422742
v -0.57340464 0.46784831 0.40215911
v -0.57340464 0.47265157 0.42316333
v -0.57340464 0.47894154 0.45244082
v -0.55950388 -0.67178213 0.45244082
v -0.55950388 0.39076743 0.18883621
v -0.55960707 0.39088178 0.18890751
v -0.58859271 0.46556104 0.40522591
v -0.56323139 0.39088178 0.18890751
v -0.60532833 0.46990684 0.45244082
v -0.60532833 -0.67281145 0.45244082
v -0.55950388 -0.68218920 0.43218549
v -0.55950388 0.34547954 0.11173756
v -0.60532833 0.45561144 0.39809376
v -0.57218008 0.38516363 0.18013496
v -0.60532833 -0.67361200 0.44755530
v -0.55950388 -0.68619201 0.41838476
v -0.55950388 0.33918957 0.10478371
v -0.57340464 0.34502211 0.11262908
v -0.59696725 0.37178313 0.18138308
v -0.60532833 0.37086820 0.19197434
v -0.58632751 0.34250611 0.11712230
v -0.58828323 0.36903840 0.16383797
v -0.60532833 -0.67487001 0.42316333
v -0.55950388 -0.68664941 0.40515461
v -0.55950388 0.33301394 0.09922059
v -0.56766761 0.32295000 0.09119692
v -0.57484002 0.33038360 0.09979120
v -0.60532833 0.36835224 0.18744541
v -0.58392772 0.31494454 0.09490566
v -0.59039590 0.32935432 0.11212980
v -0.60532833 0.32638089 0.13252777
v -0.60532833 -0.66812254 0.39873567
v -0.55950388 -0.68436215 0.39912795
v -0.55950388 0.32272126 0.09126825
v -0.55950388 0.31505893 0.08994879
v -0.55950388 0.30545241 0.08887897
v -0.57484002 0.30602422 0.08966352
v -0.58800061 0.29870497 0.09194584
v -0.59508779 0.30602422 0.10421309
v -0.60532833 0.30522368 0.11808516
v -0.60532833 -0.66560658 0.39327956
v -0.55950388 -0.67978762 0.39021272
v -0.60532833 -0.66080336 0.38300927
v -0.55950388 0.27994937 0.08912861
v -0.57340464 0.28052118 0.08816575
v -0.60532833 0.29916240 0.11779989
v -0.58812171 0.28052118 0.09180316
v -0.55950388 -0.67189659 0.37498556
v -0.60532833 -0.65805855 0.37926485
v -0.55950388 -0.66103198 0.35982974
v -0.55950388 -0.40314272 0.10738693
v -0.60532833 -0.42933193 0.13284874
v -0.58667290 -0.42075470 0.11715801
v -0.55950388 -0.65554259 0.35259058
v -0.60532833 -0.55490286 0.24796181
v -0.55950388 -0.42738775 0.10909863
v -0.57487138 -0.42807395 0.11391284
v -0.58398158 -0.43699427 0.11862007
v -0.60532833 -0.44728699 0.13694973
v -0.55950388 -0.47461983 0.13324098
v -0.60532833 -0.54278035 0.23359050
v -0.55950388 -0.44545715 0.11601685
v -0.56771694 -0.44374171 0.11683703
v -0.57487138 -0.45163278 0.12232882
v -0.58799167 -0.46615694 0.13958862
v -0.57340464 -0.47061712 0.13523803
v -0.55950388 -0.46741492 0.12817718
v -0.55950388 -0.45071788 0.11804953
v -0.55950388 -0.45643604 0.12072408
f 1 2 3
f 1 3 4
f 1 4 5
f 1 5 11
f 1 11 12
f 1 12 6
f 1 6 13
f 1 13 18
f 1 18 26
f 1 26 35
f 1 35 44
f 1 44 50
f 1 50 52
f 1 52 56
f 1 56 62
f 1 62 69
f 1 69 71
f 1 71 70
f 1 70 64
f 1 64 58
f 1 58 53
f 1 53 46
f 1 46 38
f 1 38 37
f 1 37 36
f 1 36 27
f 1 27 19
f 1 19 14
f 1 14 7
f 1 7 2
f 2 7 8
f 2 8 3
f 3 9 4
f 3 8 10
f 3 10 9
f 4 9 5
f 5 9 11
f 6 12 13
f 7 14 8
f 8 14 10
f 9 15 11
f 9 10 16
f 9 16 15
f 10 14 16
f 11 15 22
f 11 22 30
f 11 30 33
f 11 33 42
f 11 42 48
f 11 48 54
f 11 54 61
f 11 61 63
f 11 63 57
f 11 57 51
f 11 51 45
f 11 45 43
f 11 43 34
f 11 34 25
f 11 25 17
f 11 17 12
f 12 17 18
f 12 18 13
f 14 19 20
f 14 20 16
f 15 16 21
f 15 21 22
f 16 20 23
f 16 23 24
f 16 24 21
f 17 25 18
f 18 25 26
f 19 27 28
f 19 28 20
f 20 28 29
f 20 29 23
f 21 24 30
f 21 30 22
f 23 30 24
f 23 29 31
f 23 31 32
f 23 32 33
f 23 33 30
f 25 34 26
f 26 34 35
f 27 36 28
f 28 36 37
f 28 37 38
f 28 38 39
f 28 39 40
f 28 40 31
f 28 31 29
f 31 41 32
f 31 40 41
f 32 41 42
f 32 42 33
f 34 43 35
f 35 43 45
f 35 45 44
f 38 46 47
f 38 47 39
f 39 47 40
f 40 48 42
f 40 42 41
f 40 47 49
f 40 49 48
f 44 45 50
f 45 51 52
f 45 52 50
f 46 53 47
f 47 53 49
f 48 49 54
f 49 53 55
f 49 55 54
f 51 56 52
f 51 57 56
f 53 58 59
f 53 59 55
f 54 55 60
f 54 60 61
f 55 59 60
f 56 57 62
f 57 63 62
f 58 60 59
f 58 64 65
f 58 65 60
f 60 65 66
f 60 66 61
f 61 66 67
f 61 67 63
f 62 68 66
f 62 66 69
f 62 63 68
f 63 67 68
f 64 70 65
f 65 70 71
f 65 71 66
f 66 71 69
f 66 68 67

