# https://github.com/mikedh/trimesh
v -0.84888711 0.00044719 1.02340651
v -0.85389176 -0.00852059 1.02232036
v -0.84888711 -0.00852059 1.02314102
v -0.84888711 0.06102098 1.02046188
v -0.91725338 0.11180173 1.00342157
v -0.85559081 -0.00852059 1.02166868
v -0.92914636 0.08979490 0.99890808
v -0.84888711 -0.00852059 0.77685333
v -0.84888711 0.08544857 1.01546563
v -0.89060495 0.10982112 1.00877985
v -0.91060510 0.12918714 1.00103207
v -0.92687488 0.12120966 0.99610825
v -0.92914636 0.10497963 0.99890808
v -1.03751304 -0.00852059 0.89963513
v -0.92696723 0.07350986 0.99647031
v -0.84888711 0.53972456 0.77685333
v -1.03751304 -0.00852059 0.77685333
v -0.84888711 0.27008586 0.97682329
v -0.84888711 0.28334497 0.97291319
v -0.84888711 0.28747127 0.97134432
v -0.88172213 0.54109997 0.85300363
v -0.95158428 0.19520763 0.94776308
v -1.00039357 0.09766236 0.92336119
v -1.00597072 0.10740037 0.91141368
v -1.01490897 0.13424871 0.88679456
v -1.03749458 0.12511587 0.77685333
v -1.03751304 0.10932597 0.78295984
v -0.85208196 0.53950448 0.77685333
v -0.84888711 0.54588647 0.78971802
v -1.03751304 0.07125416 0.77685333
v -0.84888711 0.52470490 0.86784750
v -0.86620947 0.54412590 0.85589999
v -0.86620947 0.55353383 0.83799079
v -0.88439989 0.54401588 0.83799079
v -0.90342131 0.51375652 0.82734665
v -0.89592354 0.52294433 0.83647020
v -0.93093776 0.37203252 0.88042256
v -1.00172321 0.14932339 0.90023854
v -1.00469649 0.13424871 0.90330386
v -1.01151094 0.15862126 0.86239268
v -0.98790961 0.28059414 0.77685333
v -0.85747442 0.53911936 0.77685333
v -0.84888711 0.54880238 0.79625899
v -0.84888711 0.54280550 0.85628618
v -0.84888711 0.55045289 0.83799079
v -0.84888711 0.55243350 0.82066088
v -0.86620947 0.55243350 0.81358891
v -0.88255315 0.54170517 0.81358891
v -0.90342131 0.51375652 0.82235042
v -0.90700397 0.50115760 0.81397509
v -0.91380002 0.46429612 0.77685333
v -0.87926595 0.53807405 0.80016908
v -0.86489831 0.54275048 0.79090071
v -0.86415964 0.53334260 0.77685333
v -0.84888711 0.55210340 0.81358891
v -0.90150069 0.51001534 0.80608249
v -0.89557267 0.52294433 0.81397509
v -0.90933086 0.47452932 0.77685333
v -0.89631134 0.49351020 0.77685333
f 1 2 3
f 1 3 8
f 1 8 16
f 1 16 29
f 1 29 43
f 1 43 55
f 1 55 46
f 1 46 45
f 1 45 44
f 1 44 31
f 1 31 20
f 1 20 19
f 1 19 18
f 1 18 9
f 1 9 4
f 1 4 5
f 1 5 2
f 2 6 14
f 2 14 17
f 2 17 8
f 2 8 3
f 2 5 7
f 2 7 6
f 4 9 10
f 4 10 5
f 5 10 11
f 5 11 12
f 5 12 13
f 5 13 7
f 6 7 15
f 6 15 14
f 7 13 14
f 7 14 15
f 8 17 30
f 8 30 26
f 8 26 41
f 8 41 51
f 8 51 58
f 8 58 59
f 8 59 54
f 8 54 42
f 8 42 28
f 8 28 16
f 9 18 10
f 10 18 11
f 11 18 19
f 11 19 12
f 12 19 20
f 12 20 21
f 12 21 22
f 12 22 13
f 13 23 14
f 13 22 23
f 14 23 24
f 14 24 25
f 14 25 26
f 14 26 27
f 14 27 30
f 14 30 17
f 16 28 29
f 20 31 32
f 20 32 21
f 21 32 33
f 21 33 34
f 21 34 35
f 21 35 36
f 21 36 25
f 21 25 37
f 21 37 22
f 22 37 38
f 22 38 39
f 22 39 23
f 23 39 24
f 24 39 25
f 25 40 26
f 25 39 38
f 25 38 37
f 25 36 35
f 25 35 41
f 25 41 40
f 26 30 27
f 26 40 41
f 28 42 29
f 29 42 43
f 31 44 32
f 32 44 33
f 33 45 46
f 33 46 47
f 33 47 34
f 33 44 45
f 34 47 48
f 34 48 49
f 34 49 35
f 35 49 41
f 41 49 50
f 41 50 51
f 42 52 53
f 42 53 47
f 42 47 43
f 42 54 52
f 43 47 55
f 46 55 47
f 47 53 52
f 47 52 48
f 48 52 56
f 48 56 57
f 48 57 49
f 49 57 56
f 49 56 50
f 50 56 51
f 51 56 58
f 52 54 59
f 52 59 58
f 52 58 56

