# https://github.com/mikedh/trimesh
v 0.51180390 -0.71429312 0.69210087
v 0.51180390 -0.71116000 0.67587286
v 0.52461179 -0.71058662 0.67602174
v 0.58701710 -0.70845701 0.72550973
v 0.58701710 -0.70845701 0.73232847
v 0.51180390 -0.71304397 0.71598136
v 0.51180390 -0.69434789 0.66646359
v 0.53673531 -0.68322848 0.65497000
v 0.54901242 -0.68455957 0.65425536
v 0.56770052 -0.68496912 0.65404694
v 0.59779975 -0.69328301 0.66851815
v 0.54043661 -0.70860034 0.67780832
v 0.59779975 -0.70042970 0.69159468
v 0.62218639 -0.69416355 0.69159468
v 0.63919842 -0.68666875 0.71598136
v 0.63611170 -0.68462102 0.74039782
v 0.63453342 -0.68331043 0.75299313
v 0.62231212 -0.68703736 0.76258106
v 0.61134789 -0.68417046 0.80417836
v 0.58401415 -0.68281893 0.84774089
v 0.57341307 -0.67681899 0.88674768
v 0.53753144 -0.68328992 0.89925367
v 0.52461179 -0.68945369 0.88674768
v 0.51180390 -0.69897579 0.84961679
v 0.51180390 -0.70260040 0.82198451
v 0.51180390 -0.70362427 0.81355786
v 0.51180390 -0.67098289 0.65982351
v 0.53254515 -0.67098289 0.65368962
v 0.54901242 -0.67098289 0.65103954
v 0.65449247 -0.59644419 0.63731273
v 0.58395830 -0.67843674 0.65523798
v 0.62218639 -0.68951514 0.67280592
v 0.63636308 -0.68507151 0.67724257
v 0.63907268 -0.68675063 0.69159468
v 0.64823518 -0.67098289 0.71598136
v 0.61020259 -0.65914677 0.87504564
v 0.64189405 -0.67098289 0.74039782
v 0.59763213 -0.66481912 0.88460378
v 0.58939151 -0.66223895 0.90577465
v 0.57511706 -0.66744023 0.91280181
v 0.54700117 -0.67761765 0.90890114
v 0.52461179 -0.68494861 0.90327345
v 0.51180390 -0.68580872 0.90773986
v 0.51180390 -0.69125578 0.88674768
v 0.51180390 -0.66035498 0.65767963
v 0.51180390 -0.63344732 0.65252836
v 0.51180390 -0.54584391 0.63731273
v 0.54901242 -0.64659395 0.64785348
v 0.52461179 -0.55266297 0.63731273
v 0.65449247 -0.50509338 0.63731273
v 0.65449247 -0.61458740 0.65976396
v 0.64774631 -0.67098289 0.69159468
v 0.65014868 -0.64659395 0.71598136
v 0.65449247 -0.61976825 0.66640405
v 0.65449247 -0.62312657 0.69272617
v 0.65449247 -0.62300375 0.69317281
v 0.65449247 -0.60533149 0.70642321
v 0.61020259 -0.65619800 0.87504564
v 0.59197543 -0.62150882 0.91315913
v 0.58634667 -0.63879200 0.92411676
v 0.59166815 -0.64679873 0.91280181
v 0.58437731 -0.65507175 0.92203243
v 0.65449247 -0.50509338 0.73384706
v 0.56811952 -0.66273038 0.92670729
v 0.51180390 -0.68050498 0.91932279
v 0.51180390 -0.50509338 0.63731273
v 0.60395927 -0.62218458 0.88674768
v 0.59119328 -0.59781619 0.90833538
v 0.58476837 -0.61292871 0.92262795
v 0.58634667 -0.62918795 0.92411676
v 0.57511706 -0.64679873 0.92825565
v 0.58068996 -0.50509338 0.88686677
v 0.59127708 -0.54834219 0.88823648
v 0.58708695 -0.55604180 0.90107001
v 0.58909820 -0.57340686 0.90437516
v 0.59719915 -0.57340686 0.88674768
v 0.60083062 -0.59781619 0.88674768
v 0.54901242 -0.64659395 0.93465752
v 0.54901242 -0.66486006 0.92822587
v 0.51180390 -0.67728999 0.92265773
v 0.51180390 -0.50509338 0.91973966
v 0.58214254 -0.59781619 0.92054361
v 0.56198792 -0.55966634 0.92375944
v 0.56504676 -0.57340686 0.92518871
v 0.56994920 -0.59781619 0.92727303
v 0.57535452 -0.62150882 0.92816632
v 0.54901242 -0.62218458 0.93537215
v 0.56782621 -0.50509338 0.90467292
v 0.51180390 -0.62218458 0.94150603
v 0.51180390 -0.64659395 0.93802222
v 0.51180390 -0.66940608 0.92837474
v 0.51180390 -0.52727068 0.92634997
v 0.52461179 -0.53099761 0.92554601
v 0.53933320 -0.53437643 0.92414654
v 0.52461179 -0.50509338 0.91747667
v 0.54807663 -0.55053329 0.92539714
v 0.54901242 -0.57340686 0.92917871
v 0.56348242 -0.50509338 0.90693591
v 0.54883086 -0.50509338 0.91312935
v 0.54901242 -0.59781619 0.93275184
v 0.52461179 -0.59781619 0.93689073
v 0.51180390 -0.59781619 0.93903461
v 0.51180390 -0.61059426 0.94034477
v 0.51180390 -0.54043782 0.92989333
v 0.51180390 -0.54901796 0.93209676
v 0.52461179 -0.54901796 0.93010177
v 0.52461179 -0.57340686 0.93373446
v 0.51180390 -0.58620539 0.93754581
v 0.51180390 -0.56181649 0.93412155
v 0.51180390 -0.57340686 0.93581878
f 1 2 3
f 1 3 4
f 1 4 5
f 1 5 6
f 1 6 26
f 1 26 25
f 1 25 24
f 1 24 44
f 1 44 43
f 1 43 65
f 1 65 80
f 1 80 91
f 1 91 90
f 1 90 89
f 1 89 103
f 1 103 102
f 1 102 108
f 1 108 110
f 1 110 109
f 1 109 105
f 1 105 104
f 1 104 92
f 1 92 81
f 1 81 66
f 1 66 47
f 1 47 46
f 1 46 45
f 1 45 27
f 1 27 7
f 1 7 2
f 2 7 8
f 2 8 9
f 2 9 10
f 2 10 3
f 3 11 12
f 3 12 4
f 3 10 11
f 4 12 13
f 4 13 14
f 4 14 5
f 5 14 15
f 5 15 16
f 5 16 17
f 5 17 18
f 5 18 19
f 5 19 20
f 5 20 21
f 5 21 22
f 5 22 23
f 5 23 24
f 5 24 25
f 5 25 26
f 5 26 6
f 7 27 8
f 8 28 29
f 8 29 9
f 8 27 28
f 9 29 10
f 10 29 30
f 10 30 31
f 10 31 32
f 10 32 11
f 11 32 12
f 12 32 13
f 13 32 14
f 14 32 33
f 14 33 34
f 14 34 15
f 15 35 16
f 15 34 35
f 16 35 17
f 17 36 19
f 17 19 18
f 17 35 37
f 17 37 36
f 19 36 38
f 19 38 39
f 19 39 40
f 19 40 21
f 19 21 20
f 21 40 41
f 21 41 22
f 22 41 42
f 22 42 23
f 23 42 43
f 23 43 44
f 23 44 24
f 27 45 28
f 28 46 47
f 28 47 29
f 28 45 46
f 29 47 48
f 29 48 30
f 30 48 49
f 30 49 47
f 30 47 66
f 30 66 50
f 30 50 63
f 30 63 57
f 30 57 56
f 30 56 55
f 30 55 54
f 30 54 51
f 30 51 52
f 30 52 33
f 30 33 32
f 30 32 31
f 33 52 34
f 34 52 35
f 35 53 36
f 35 36 37
f 35 52 54
f 35 54 55
f 35 55 56
f 35 56 57
f 35 57 53
f 36 58 59
f 36 59 60
f 36 60 61
f 36 61 62
f 36 62 39
f 36 39 38
f 36 53 63
f 36 63 58
f 39 62 40
f 40 62 64
f 40 64 41
f 41 43 42
f 41 64 65
f 41 65 43
f 47 49 48
f 50 66 81
f 50 81 95
f 50 95 99
f 50 99 98
f 50 98 88
f 50 88 72
f 50 72 63
f 51 54 52
f 53 57 63
f 58 67 59
f 58 63 67
f 59 67 68
f 59 68 69
f 59 69 70
f 59 70 60
f 60 62 61
f 60 70 71
f 60 71 62
f 62 71 64
f 63 72 73
f 63 73 74
f 63 74 75
f 63 75 76
f 63 76 77
f 63 77 67
f 64 71 78
f 64 78 79
f 64 79 80
f 64 80 65
f 67 77 68
f 68 75 69
f 68 77 76
f 68 76 75
f 69 82 83
f 69 83 84
f 69 84 85
f 69 85 86
f 69 86 70
f 69 75 74
f 69 74 82
f 70 86 71
f 71 86 87
f 71 87 78
f 72 88 74
f 72 74 73
f 74 88 82
f 78 87 89
f 78 89 90
f 78 90 79
f 79 91 80
f 79 90 91
f 81 92 93
f 81 93 94
f 81 94 95
f 82 88 83
f 83 94 96
f 83 96 97
f 83 97 84
f 83 88 98
f 83 98 99
f 83 99 94
f 84 97 100
f 84 100 85
f 85 100 87
f 85 87 86
f 87 101 102
f 87 102 103
f 87 103 89
f 87 100 101
f 92 104 93
f 93 104 105
f 93 105 94
f 94 105 106
f 94 106 96
f 94 99 95
f 96 106 97
f 97 106 107
f 97 107 100
f 100 107 101
f 101 107 108
f 101 108 102
f 105 109 106
f 106 109 107
f 107 109 110
f 107 110 108

