# https://github.com/mikedh/trimesh
v -0.34794612 -0.15857033 0.03340176
v -0.34794612 0.00153234 0.11708260
v -0.32939370 -0.09321995 0.06596656
v -0.26511707 -0.11043363 0.05956035
v -0.26511707 -0.13082435 0.05382147
v -0.26511707 -0.13419392 0.05328765
v -0.26511707 -0.15857033 0.05302070
v -0.34794612 -0.15857033 1.13633426
v -0.34005647 0.00087768 0.11748298
v -0.26511707 -0.10731438 0.06129540
v -0.34794612 0.03651811 0.15698786
v -0.32152030 0.02548517 0.14177317
v -0.31411716 0.02548517 0.14177317
v -0.26511707 -0.15857033 1.16115827
v -0.34794612 -0.14859642 1.17944259
v -0.26511707 -0.06651370 0.09039019
v -0.34794612 0.03813549 0.15939019
v -0.32658815 0.03813549 0.15698786
v -0.30857091 0.03813549 0.15525285
v -0.30546533 0.03813549 0.15511938
v -0.30559505 0.03480444 0.15218322
v -0.28139098 0.03813549 0.16192597
v -0.29785949 0.02153796 0.14390856
v -0.26511707 -0.12726224 1.22628788
v -0.28979957 -0.12343055 1.24270372
v -0.30500312 -0.12404670 1.24350452
v -0.34794612 -0.13750572 1.20867085
v -0.34794612 -0.14688275 1.18464761
v -0.26511707 0.03813549 0.16726447
v -0.34794612 0.03813549 1.30903451
v -0.26511707 -0.12175540 1.23416215
v -0.26511707 -0.10762246 1.25364766
v -0.26511707 -0.07972242 1.28714667
v -0.30500312 -0.11341811 1.25578305
v -0.31975260 -0.12329577 1.24243681
v -0.34794612 -0.12664608 1.22361863
v -0.26511707 0.03813549 1.39685270
v -0.34794612 -0.06098761 1.27780433
v -0.30057585 0.03813549 1.37282946
v -0.26511707 -0.05580810 1.31317182
v -0.26511707 -0.02927515 1.34093199
v -0.30500312 -0.10122990 1.26779463
v -0.32038510 -0.09970878 1.26659348
v -0.34794612 -0.11503551 1.23856641
v -0.28060444 0.03813549 1.38751037
v -0.34794612 -0.07943360 1.26926273
v -0.27033900 -0.00085524 1.36308674
v -0.34794612 -0.07350316 1.27206545
v -0.34794612 -0.08877212 1.26192231
v -0.34794612 -0.09127523 1.25992036
v -0.34794612 -0.10111437 1.25177918
v -0.34794612 -0.10563923 1.24790878
f 1 2 3
f 1 3 4
f 1 4 5
f 1 5 6
f 1 6 7
f 1 7 14
f 1 14 8
f 1 8 15
f 1 15 28
f 1 28 27
f 1 27 36
f 1 36 44
f 1 44 52
f 1 52 51
f 1 51 50
f 1 50 49
f 1 49 46
f 1 46 48
f 1 48 38
f 1 38 30
f 1 30 17
f 1 17 11
f 1 11 2
f 2 9 10
f 2 10 4
f 2 4 3
f 2 11 12
f 2 12 13
f 2 13 9
f 4 10 16
f 4 16 29
f 4 29 37
f 4 37 41
f 4 41 40
f 4 40 33
f 4 33 32
f 4 32 31
f 4 31 24
f 4 24 14
f 4 14 7
f 4 7 6
f 4 6 5
f 8 14 15
f 9 13 10
f 10 13 16
f 11 17 18
f 11 18 19
f 11 19 12
f 12 19 20
f 12 20 13
f 13 20 21
f 13 21 22
f 13 22 23
f 13 23 16
f 14 24 25
f 14 25 26
f 14 26 27
f 14 27 28
f 14 28 15
f 16 23 29
f 17 30 39
f 17 39 45
f 17 45 37
f 17 37 29
f 17 29 22
f 17 22 20
f 17 20 19
f 17 19 18
f 20 22 21
f 22 29 23
f 24 31 25
f 25 31 32
f 25 32 33
f 25 33 34
f 25 34 26
f 26 34 35
f 26 35 27
f 27 35 36
f 30 38 39
f 33 40 34
f 34 40 41
f 34 41 42
f 34 42 43
f 34 43 35
f 35 44 36
f 35 43 44
f 37 45 46
f 37 46 43
f 37 43 47
f 37 47 41
f 38 48 39
f 39 48 46
f 39 46 45
f 41 47 43
f 41 43 42
f 43 46 49
f 43 49 50
f 43 50 51
f 43 51 52
f 43 52 44

