# https://github.com/mikedh/trimesh
v 0.88102498 0.73694641 0.61839023
v 0.86160426 0.76390403 0.64278042
v 0.85990966 0.76402612 0.66717060
v 0.87975402 0.73502310 0.63411372
v 0.88102498 0.72363559 0.61839023
v 0.88063521 0.73558790 0.59397323
v 0.87282286 0.74914299 0.61839023
v 0.86062135 0.76282025 0.61839023
v 0.83528627 0.78652643 0.59397323
v 0.83615052 0.78706069 0.61839023
v 0.84911464 0.77622270 0.66717060
v 0.83504900 0.78535103 0.68286724
v 0.85645251 0.76124794 0.68182080
v 0.87975402 0.72798599 0.63411372
v 0.85685922 0.69541101 0.68525528
v 0.87682226 0.71143901 0.61839023
v 0.87661894 0.71232435 0.59397323
v 0.88063521 0.72452092 0.59397323
v 0.86167203 0.68069578 0.65904053
v 0.87078931 0.74778441 0.59397323
v 0.87921176 0.73320662 0.57969866
v 0.85504593 0.75764544 0.55332293
v 0.83394755 0.78521366 0.56958304
v 0.80778204 0.80785126 0.54519287
v 0.78268418 0.83073320 0.55506699
v 0.82167817 0.79925720 0.61839023
v 0.83691311 0.78680116 0.66717060
v 0.80856157 0.80794289 0.66306532
v 0.76089091 0.80826343 0.75676224
v 0.78542957 0.78504576 0.75517916
v 0.81198477 0.76376667 0.73443812
v 0.82657579 0.74421244 0.72169297
v 0.84980945 0.69541101 0.69743695
v 0.85670672 0.68069578 0.68485281
v 0.85752014 0.68069578 0.68182080
v 0.86602733 0.68069578 0.61839023
v 0.86201097 0.68069578 0.59303411
v 0.84509837 0.68069578 0.52082953
v 0.87921176 0.72917667 0.57969866
v 0.84613205 0.77126161 0.56958304
v 0.85646946 0.73809128 0.52850343
v 0.85294461 0.75434827 0.53706281
v 0.83843837 0.76681957 0.52077586
v 0.82823651 0.77901615 0.52077586
v 0.83198169 0.78341237 0.55063975
v 0.81413699 0.79435726 0.52235893
v 0.80564675 0.80565315 0.53156226
v 0.78268418 0.83073320 0.56333121
v 0.79300464 0.80527153 0.52056120
v 0.77748160 0.83073320 0.55506699
v 0.70791598 0.83664064 0.66792189
v 0.80951061 0.80840079 0.64278042
v 0.73396288 0.83064157 0.68238427
v 0.76428027 0.81023262 0.74036796
v 0.74421549 0.81433885 0.74036796
v 0.74421549 0.80866032 0.75729888
v 0.74421549 0.79299867 0.76797796
v 0.76885583 0.79310550 0.76059920
v 0.76392440 0.68069578 0.78421125
v 0.78859854 0.76859032 0.75670857
v 0.81437426 0.74421244 0.73580654
v 0.83760794 0.69541101 0.71042359
v 0.84186155 0.68069578 0.70505721
v 0.84499664 0.68069578 0.52056120
v 0.85646946 0.72765018 0.52850343
v 0.84986029 0.74534204 0.52056120
v 0.84830122 0.74830347 0.52056120
v 0.83838747 0.76677383 0.52056120
v 0.82830428 0.77883297 0.52056120
v 0.82806708 0.77910770 0.52056120
v 0.81396755 0.79376192 0.52056120
v 0.78270112 0.80517998 0.52056120
v 0.76860159 0.80910303 0.52796681
v 0.76905914 0.82155906 0.54623931
v 0.70791598 0.81525473 0.60618173
v 0.70791598 0.83276340 0.64447082
v 0.70791598 0.82568055 0.69220474
v 0.73016688 0.80676748 0.75466935
v 0.70791598 0.75874456 0.77702031
v 0.70791598 0.75767598 0.77753012
v 0.71113586 0.75767598 0.77753012
v 0.70791598 0.68069578 0.79467569
v 0.74421549 0.68069578 0.78952396
v 0.75106195 0.68069578 0.78783356
v 0.70791598 0.79020522 0.75925760
v 0.76821183 0.68069578 0.78074994
v 0.83701484 0.68069578 0.71020893
v 0.79158111 0.68069578 0.75681591
v 0.70791598 0.68069578 0.52056120
v 0.76736452 0.80092105 0.52056120
v 0.75582393 0.80579052 0.53236723
v 0.76275502 0.79814287 0.52056120
v 0.75107889 0.80997309 0.54519287
v 0.70791598 0.76256072 0.52056120
v 0.70791598 0.81272073 0.71707789
v 0.70791598 0.80031051 0.74063628
v 0.70791598 0.75454672 0.77833507
f 1 2 3
f 1 3 4
f 1 4 14
f 1 14 5
f 1 5 18
f 1 18 6
f 1 6 7
f 1 7 2
f 2 7 8
f 2 8 9
f 2 9 10
f 2 10 11
f 2 11 3
f 3 11 12
f 3 12 13
f 3 13 4
f 4 13 15
f 4 15 14
f 5 16 17
f 5 17 18
f 5 14 19
f 5 19 16
f 6 20 7
f 6 18 39
f 6 39 21
f 6 21 22
f 6 22 20
f 7 20 8
f 8 20 23
f 8 23 9
f 9 23 24
f 9 24 25
f 9 25 10
f 10 25 26
f 10 26 27
f 10 27 11
f 11 27 12
f 12 27 28
f 12 28 29
f 12 29 30
f 12 30 13
f 13 30 31
f 13 31 32
f 13 32 33
f 13 33 15
f 14 15 34
f 14 34 35
f 14 35 19
f 15 33 34
f 16 36 17
f 16 19 36
f 17 36 37
f 17 37 38
f 17 38 39
f 17 39 18
f 19 35 34
f 19 34 63
f 19 63 87
f 19 87 88
f 19 88 86
f 19 86 59
f 19 59 84
f 19 84 83
f 19 83 82
f 19 82 89
f 19 89 64
f 19 64 38
f 19 38 37
f 19 37 36
f 20 40 23
f 20 22 40
f 21 39 65
f 21 65 41
f 21 41 42
f 21 42 22
f 22 42 43
f 22 43 44
f 22 44 45
f 22 45 23
f 22 23 40
f 23 45 24
f 24 45 44
f 24 44 46
f 24 46 47
f 24 47 25
f 25 48 26
f 25 47 49
f 25 49 50
f 25 50 51
f 25 51 48
f 26 48 27
f 27 48 52
f 27 52 28
f 28 53 54
f 28 54 29
f 28 52 48
f 28 48 53
f 29 54 53
f 29 53 55
f 29 55 56
f 29 56 57
f 29 57 58
f 29 58 30
f 30 58 59
f 30 59 60
f 30 60 31
f 31 60 61
f 31 61 32
f 32 61 33
f 33 61 62
f 33 62 63
f 33 63 34
f 38 64 39
f 39 64 65
f 41 65 66
f 41 66 42
f 42 66 67
f 42 67 68
f 42 68 43
f 43 68 69
f 43 69 44
f 44 69 70
f 44 70 46
f 46 70 71
f 46 71 47
f 47 71 49
f 48 51 53
f 49 71 70
f 49 70 69
f 49 69 68
f 49 68 67
f 49 67 66
f 49 66 64
f 49 64 89
f 49 89 94
f 49 94 92
f 49 92 90
f 49 90 72
f 49 72 50
f 50 72 73
f 50 73 74
f 50 74 75
f 50 75 76
f 50 76 51
f 51 77 78
f 51 78 56
f 51 56 55
f 51 55 53
f 51 76 75
f 51 75 94
f 51 94 89
f 51 89 82
f 51 82 97
f 51 97 80
f 51 80 79
f 51 79 85
f 51 85 96
f 51 96 95
f 51 95 77
f 56 78 57
f 57 79 80
f 57 80 81
f 57 81 82
f 57 82 83
f 57 83 84
f 57 84 59
f 57 59 58
f 57 78 85
f 57 85 79
f 59 86 60
f 60 86 61
f 61 86 62
f 62 87 63
f 62 86 88
f 62 88 87
f 64 66 65
f 72 90 73
f 73 91 74
f 73 90 92
f 73 92 91
f 74 93 75
f 74 91 93
f 75 93 91
f 75 91 94
f 77 95 78
f 78 96 85
f 78 95 96
f 80 97 81
f 81 97 82
f 91 92 94

