# https://github.com/mikedh/trimesh
v 0.07185546 -0.47461917 0.22355440
v 0.07177708 -0.47461917 0.22389610
v 0.07177708 -0.46489565 0.21783043
v 0.14783353 -0.46620072 0.26328001
v 0.15601426 -0.47461917 0.27541129
v 0.07177708 -0.47461917 0.93152471
v 0.07177708 -0.45862779 0.21492579
v 0.07177708 -0.45116513 0.21372973
v 0.07177708 -0.44511782 0.21321715
v 0.07428519 -0.34304863 0.21466954
v 0.14783353 -0.45713893 0.26328001
v 0.17185651 -0.34641234 0.28600473
v 0.17185651 -0.47461917 0.29207040
v 0.14600142 -0.47461917 0.89880447
v 0.10361830 -0.44368408 1.03310270
v 0.08570885 -0.44410686 1.03412786
v 0.07177708 -0.44169896 1.02754965
v 0.07177708 -0.33474045 0.21330259
v 0.07428519 -0.33641314 0.21466954
v 0.17185651 -0.33292077 0.28609017
v 0.17185651 -0.47461917 0.88291422
v 0.17089636 -0.47461917 0.88351225
v 0.09839635 -0.43993439 1.04608825
v 0.12108688 -0.43776544 1.01866479
v 0.07177708 -0.44063284 1.03045433
v 0.09404634 -0.43993439 1.04608825
v 0.07778283 -0.43807791 1.04301273
v 0.07177708 -0.32032984 0.21646356
v 0.07196324 -0.32014601 0.21663444
v 0.17185651 -0.28685821 0.29634199
v 0.17185651 -0.42216004 0.96108400
v 0.10214872 -0.42699424 1.04950555
v 0.09685816 -0.38885384 1.06906930
v 0.08059464 -0.39811782 1.07410980
v 0.17185651 -0.40381591 0.98432134
v 0.17185651 -0.37727387 1.00815672
v 0.07177708 -0.43567001 1.03976632
v 0.07177708 -0.39776860 1.07393891
v 0.08570885 -0.42875881 1.05326454
v 0.07177708 -0.42392461 1.05215392
v 0.07177708 -0.31981518 0.21671989
v 0.13419568 -0.28685821 0.27592387
v 0.17185651 -0.28685821 1.05565659
v 0.13460717 -0.28685821 1.08367814
v 0.08739397 -0.37971853 1.07692899
v 0.07177708 -0.37883625 1.07786879
v 0.07177708 -0.28685821 0.24311816
v 0.10997675 -0.28685821 1.08589930
v 0.08540513 -0.35380147 1.08085887
v 0.07177708 -0.36744011 1.07957737
v 0.07177708 -0.28685821 1.08188405
v 0.10745885 -0.28685821 1.08598474
f 1 2 3
f 1 3 4
f 1 4 5
f 1 5 13
f 1 13 21
f 1 21 22
f 1 22 14
f 1 14 6
f 1 6 2
f 2 6 17
f 2 17 25
f 2 25 37
f 2 37 40
f 2 40 38
f 2 38 46
f 2 46 50
f 2 50 51
f 2 51 47
f 2 47 41
f 2 41 28
f 2 28 18
f 2 18 9
f 2 9 8
f 2 8 7
f 2 7 3
f 3 7 4
f 4 7 8
f 4 8 9
f 4 9 10
f 4 10 19
f 4 19 11
f 4 11 12
f 4 12 13
f 4 13 5
f 6 14 15
f 6 15 16
f 6 16 17
f 9 18 19
f 9 19 10
f 11 19 20
f 11 20 12
f 12 20 30
f 12 30 43
f 12 43 36
f 12 36 35
f 12 35 31
f 12 31 21
f 12 21 13
f 14 22 15
f 15 23 16
f 15 22 21
f 15 21 24
f 15 24 23
f 16 25 17
f 16 23 26
f 16 26 27
f 16 27 25
f 18 28 19
f 19 28 29
f 19 29 30
f 19 30 20
f 21 31 24
f 23 32 33
f 23 33 34
f 23 34 26
f 23 24 35
f 23 35 36
f 23 36 32
f 24 31 35
f 25 27 37
f 26 34 38
f 26 38 39
f 26 39 27
f 27 39 38
f 27 38 40
f 27 40 37
f 28 41 29
f 29 41 30
f 30 41 42
f 30 42 47
f 30 47 51
f 30 51 52
f 30 52 48
f 30 48 44
f 30 44 43
f 32 43 44
f 32 44 33
f 32 36 43
f 33 44 45
f 33 45 34
f 34 45 46
f 34 46 38
f 41 47 42
f 44 48 49
f 44 49 45
f 45 49 50
f 45 50 46
f 48 52 49
f 49 52 50
f 50 52 51

