# https://github.com/mikedh/trimesh
v 0.89210643 -0.08943163 0.43832614
v 0.89210643 -0.01071362 0.36708511
v 0.89691591 -0.08943163 0.43860599
v 0.89210643 -0.08943163 0.74223990
v 0.91087479 -0.08943163 0.44300357
v 0.89210643 0.01220976 0.35824991
v 0.92905975 0.14269669 0.36052867
v 0.98219174 -0.08943163 0.52655787
v 0.94499649 -0.08943163 0.47638531
v 0.92975697 -0.08943163 0.45723579
v 0.97146290 -0.08943163 0.74223990
v 0.89210643 0.25045985 0.74223990
v 0.89210643 0.10979215 0.33618198
v 0.93065343 0.15859999 0.35888961
v 0.94215068 0.15859999 0.37440109
v 0.94799885 0.13417943 0.39147176
v 1.00679410 0.01220976 0.52503870
v 0.98399884 -0.08943163 0.52963619
v 0.97193244 -0.08943163 0.74140035
v 1.03745813 0.08493909 0.74223990
v 0.89210643 0.25045985 0.33390323
v 0.95868501 0.25045985 0.74223990
v 0.89210643 0.13348075 0.33386327
v 0.93015538 0.18298726 0.35924938
v 0.94077043 0.18298726 0.37440109
v 0.95090161 0.15859999 0.38783376
v 1.00723520 0.03696302 0.51928184
v 1.01110553 0.06101759 0.52080103
v 1.01608583 0.01220976 0.54514769
v 1.00322257 -0.01217752 0.52991603
v 0.99067236 -0.08943163 0.54526764
v 0.99915300 -0.08943163 0.68738989
v 1.03705971 0.11082354 0.74223990
v 1.00477356 -0.08943163 0.67215822
v 1.01413640 -0.08943163 0.64421351
v 1.01868977 -0.08943163 0.61834766
v 1.01849052 0.03663031 0.54514769
v 1.01856171 0.06101759 0.54514769
v 0.89966210 0.25045985 0.34133919
v 1.02610320 0.13118509 0.74223990
v 0.99411584 0.20690876 0.71585432
v 0.99764469 0.21219876 0.69154762
v 0.95918305 0.25045985 0.73976124
v 0.92839097 0.19835825 0.36104838
v 0.90246528 0.25045985 0.34421761
v 0.93405422 0.20684222 0.37352157
v 0.95001939 0.18298726 0.38955281
v 0.95716253 0.15859999 0.40002707
v 1.00944074 0.08537160 0.52080103
v 0.96753563 0.15859999 0.42317442
v 1.01779330 -0.08943163 0.61307054
v 1.00121621 0.19829170 0.67719547
v 1.00121621 0.19849132 0.70761884
v 1.03328894 0.11814304 0.74223990
v 1.01453483 0.08537160 0.54514769
v 0.99693322 0.15859999 0.54514769
v 0.98543605 0.22756975 0.69154762
v 0.98919256 0.18298726 0.54514769
v 0.94213644 0.25045985 0.42353423
v 0.94552297 0.25045985 0.44760106
v 0.94917986 0.25045985 0.47750471
v 0.96161626 0.25045985 0.68998847
v 0.91216961 0.25045985 0.35697063
v 0.92449213 0.25045985 0.37683976
v 0.92857597 0.25045985 0.38423573
v 0.95397517 0.20045427 0.40574395
v 0.95625180 0.18298726 0.40178611
v 0.96410634 0.18298726 0.42317442
v 1.00380598 0.10982542 0.52004143
v 1.00172851 0.12729244 0.52767725
v 0.99216642 0.15859999 0.52080103
v 0.98472457 0.18298726 0.52080103
v 0.96141703 0.25045985 0.67731541
v 0.93423921 0.25045985 0.39742850
f 1 2 3
f 1 3 5
f 1 5 10
f 1 10 9
f 1 9 8
f 1 8 18
f 1 18 31
f 1 31 51
f 1 51 36
f 1 36 35
f 1 35 34
f 1 34 32
f 1 32 19
f 1 19 11
f 1 11 4
f 1 4 12
f 1 12 21
f 1 21 23
f 1 23 13
f 1 13 6
f 1 6 2
f 2 5 3
f 2 6 7
f 2 7 8
f 2 8 9
f 2 9 10
f 2 10 5
f 4 11 20
f 4 20 33
f 4 33 54
f 4 54 40
f 4 40 22
f 4 22 12
f 6 13 7
f 7 13 14
f 7 14 15
f 7 15 16
f 7 16 8
f 8 17 18
f 8 16 17
f 11 19 20
f 12 22 43
f 12 43 62
f 12 62 73
f 12 73 61
f 12 61 60
f 12 60 59
f 12 59 74
f 12 74 65
f 12 65 64
f 12 64 63
f 12 63 45
f 12 45 39
f 12 39 21
f 13 23 14
f 14 24 15
f 14 23 21
f 14 21 24
f 15 24 25
f 15 25 26
f 15 26 16
f 16 26 17
f 17 27 28
f 17 28 29
f 17 29 30
f 17 30 18
f 17 26 27
f 18 30 29
f 18 29 31
f 19 32 20
f 20 32 34
f 20 34 35
f 20 35 36
f 20 36 37
f 20 37 38
f 20 38 33
f 21 39 24
f 22 40 41
f 22 41 42
f 22 42 43
f 24 44 25
f 24 39 45
f 24 45 44
f 25 44 46
f 25 46 47
f 25 47 26
f 26 47 48
f 26 48 28
f 26 28 27
f 28 49 38
f 28 38 37
f 28 37 29
f 28 48 50
f 28 50 49
f 29 37 51
f 29 51 31
f 33 52 42
f 33 42 53
f 33 53 54
f 33 38 55
f 33 55 56
f 33 56 52
f 36 51 37
f 38 49 55
f 40 54 41
f 41 53 42
f 41 54 53
f 42 57 43
f 42 52 58
f 42 58 59
f 42 59 60
f 42 60 61
f 42 61 57
f 43 57 62
f 44 45 63
f 44 63 46
f 46 64 47
f 46 63 64
f 47 65 66
f 47 66 67
f 47 67 48
f 47 64 65
f 48 67 50
f 49 50 68
f 49 68 69
f 49 69 70
f 49 70 55
f 50 67 68
f 52 56 58
f 55 70 56
f 56 70 71
f 56 71 72
f 56 72 58
f 57 73 62
f 57 61 73
f 58 72 59
f 59 72 68
f 59 68 66
f 59 66 74
f 65 74 66
f 66 68 67
f 68 72 71
f 68 71 70
f 68 70 69

