# https://github.com/mikedh/trimesh
v 0.28167710 -0.16870645 0.28413650
v 0.17186725 -0.16870645 0.34582126
v 0.18197212 -0.06222631 0.29279045
v 0.18941104 -0.05492432 0.28544466
v 0.28167710 -0.06098067 0.25948269
v 0.28167710 -0.16870645 1.16020130
v 0.17186725 -0.08198462 0.30728087
v 0.17186725 -0.16870645 1.18918211
v 0.17186725 -0.06162497 0.29862689
v 0.18197212 -0.03426399 0.28383462
v 0.20740631 -0.03658344 0.27648878
v 0.17314649 -0.04087873 0.29077792
v 0.17186725 0.20683044 0.25646385
v 0.17186725 0.23178605 0.25354566
v 0.18300412 0.27010001 0.24952055
v 0.20740631 0.23178605 0.24992308
v 0.28167710 0.10833952 0.25596072
v 0.28167710 -0.10105569 1.19461601
v 0.26935776 -0.07472559 1.21675408
v 0.26168237 -0.09100473 1.21282961
v 0.24541782 -0.09869329 1.21665347
v 0.18962602 -0.14387970 1.21484215
v 0.28069887 -0.16870645 1.16060383
v 0.18299336 -0.16870645 1.18948399
v 0.17186725 -0.14701525 1.21675408
v 0.17186725 -0.04014853 0.29178419
v 0.17186725 -0.03215930 0.28977165
v 0.17186725 -0.02558751 0.28846346
v 0.17186725 0.27010001 0.25404879
v 0.19086226 0.27010001 0.24921866
v 0.20740631 0.27010001 0.24982244
v 0.28167710 0.13368171 0.25545759
v 0.28167710 -0.08619401 1.20216309
v 0.25460897 -0.08387455 1.21977292
v 0.28167710 -0.08481951 1.20266622
v 0.28167710 -0.01231507 1.22862815
v 0.28167710 0.00430768 1.23416270
v 0.28167710 0.01191034 1.23667836
v 0.26969102 -0.00080371 1.24090475
v 0.18300412 -0.10977512 1.23255265
v 0.20876078 -0.11114961 1.22349614
v 0.20152613 -0.12760057 1.21896789
v 0.18210112 -0.13511731 1.22118171
v 0.17336148 -0.14697231 1.21675408
v 0.20740631 -0.16870645 1.18626391
v 0.20740631 -0.16673062 1.18807520
v 0.28020440 -0.16870645 1.16080508
v 0.20488009 -0.16870645 1.18676704
v 0.17186725 -0.13468779 1.22259051
v 0.17186725 0.27010001 1.19028902
v 0.28167710 0.27010001 0.26863982
v 0.23179774 -0.08537789 1.22631373
v 0.20740631 -0.01218622 1.25720643
v 0.17186725 -0.03057004 1.26243908
v 0.28167710 0.13419715 1.24744553
v 0.24687979 0.15859438 1.26787295
v 0.23179774 0.15859438 1.27511818
v 0.20435333 0.03660824 1.26978488
v 0.19949440 0.01637744 1.26696732
v 0.17186725 -0.10925970 1.23426330
v 0.17186725 -0.12094287 1.22893004
v 0.17186725 0.26580472 1.20669133
v 0.17917716 0.27010001 1.19079215
v 0.28167710 0.27010001 1.14983667
v 0.18300412 0.03660824 1.27491689
v 0.17186725 0.03570623 1.27310561
v 0.28167710 0.13514211 1.24734492
v 0.24761079 0.17568962 1.26867801
v 0.23179774 0.18024262 1.27250183
v 0.20947029 0.18518220 1.27300496
v 0.18300412 0.06096251 1.27723135
v 0.17186725 0.25519537 1.22862815
v 0.18300412 0.25472289 1.22832626
v 0.20713756 0.25102894 1.22923193
v 0.23179774 0.24931082 1.22319425
v 0.25056700 0.24673365 1.21997416
v 0.27404471 0.22688942 1.22389866
v 0.28167710 0.19454592 1.22923193
v 0.17186725 0.06096251 1.27652694
v 0.28167710 0.15799304 1.24452733
v 0.27172274 0.20257809 1.24382295
v 0.26727229 0.21885724 1.24009973
v 0.20270861 0.20034457 1.26847672
v 0.25099699 0.22259413 1.24241415
v 0.19030326 0.20034457 1.26847672
v 0.18913152 0.18299160 1.27018741
v 0.17186725 0.24424239 1.24080411
v 0.18300412 0.24557393 1.24201166
v 0.19881715 0.24600345 1.24241415
v 0.25891964 0.23290283 1.23003695
v 0.27710841 0.20936466 1.23054008
v 0.17186725 0.20773245 1.25881647
v 0.18300412 0.23178605 1.25167192
v 0.17186725 0.23212968 1.24925685
f 1 2 3
f 1 3 4
f 1 4 5
f 1 5 17
f 1 17 32
f 1 32 51
f 1 51 64
f 1 64 78
f 1 78 80
f 1 80 67
f 1 67 55
f 1 55 38
f 1 38 37
f 1 37 36
f 1 36 35
f 1 35 33
f 1 33 18
f 1 18 6
f 1 6 23
f 1 23 47
f 1 47 45
f 1 45 48
f 1 48 24
f 1 24 8
f 1 8 2
f 2 7 3
f 2 8 25
f 2 25 49
f 2 49 61
f 2 61 60
f 2 60 54
f 2 54 66
f 2 66 79
f 2 79 92
f 2 92 94
f 2 94 87
f 2 87 72
f 2 72 62
f 2 62 50
f 2 50 29
f 2 29 14
f 2 14 13
f 2 13 28
f 2 28 27
f 2 27 26
f 2 26 9
f 2 9 7
f 3 7 9
f 3 9 4
f 4 10 11
f 4 11 5
f 4 9 12
f 4 12 10
f 5 13 14
f 5 14 15
f 5 15 16
f 5 16 17
f 5 11 13
f 6 18 19
f 6 19 20
f 6 20 21
f 6 21 22
f 6 22 23
f 8 24 25
f 9 26 12
f 10 12 27
f 10 27 28
f 10 28 13
f 10 13 11
f 12 26 27
f 14 29 15
f 15 29 50
f 15 50 63
f 15 63 64
f 15 64 51
f 15 51 31
f 15 31 30
f 15 30 16
f 16 30 31
f 16 31 32
f 16 32 17
f 18 33 19
f 19 34 20
f 19 33 35
f 19 35 36
f 19 36 37
f 19 37 38
f 19 38 39
f 19 39 34
f 20 34 21
f 21 34 40
f 21 40 41
f 21 41 42
f 21 42 22
f 22 42 43
f 22 43 44
f 22 44 45
f 22 45 46
f 22 46 47
f 22 47 23
f 24 48 44
f 24 44 25
f 25 44 49
f 31 51 32
f 34 52 40
f 34 39 53
f 34 53 54
f 34 54 52
f 38 55 56
f 38 56 57
f 38 57 39
f 39 57 58
f 39 58 59
f 39 59 53
f 40 54 60
f 40 60 43
f 40 43 42
f 40 42 41
f 40 52 54
f 43 61 44
f 43 60 61
f 44 61 49
f 44 48 45
f 45 47 46
f 50 62 63
f 53 59 54
f 54 59 65
f 54 65 66
f 55 67 68
f 55 68 56
f 56 68 57
f 57 69 70
f 57 70 71
f 57 71 65
f 57 65 58
f 57 68 69
f 58 65 59
f 62 72 73
f 62 73 74
f 62 74 64
f 62 64 63
f 64 74 75
f 64 75 76
f 64 76 77
f 64 77 78
f 65 71 79
f 65 79 66
f 67 80 68
f 68 80 81
f 68 81 82
f 68 82 69
f 69 83 70
f 69 82 84
f 69 84 83
f 70 85 86
f 70 86 79
f 70 79 71
f 70 83 85
f 72 87 88
f 72 88 89
f 72 89 73
f 73 89 74
f 74 89 75
f 75 89 76
f 76 90 77
f 76 89 90
f 77 90 82
f 77 82 81
f 77 81 91
f 77 91 78
f 78 91 81
f 78 81 80
f 79 86 92
f 82 89 84
f 82 90 89
f 83 93 85
f 83 84 89
f 83 89 93
f 85 92 86
f 85 93 94
f 85 94 92
f 87 94 93
f 87 93 88
f 88 93 89

