# https://github.com/mikedh/trimesh
v 0.41681736 0.68069578 0.24452335
v 0.41681736 0.68069578 0.52053421
v 0.41681736 0.71330415 0.26068137
v 0.52461310 0.68069578 0.24579330
v 0.41681736 0.88820563 0.52053421
v 0.84499074 0.68069578 0.52053421
v 0.41681736 0.75873475 0.28789066
v 0.48756492 0.80537370 0.31328961
v 0.48828555 0.80537370 0.31328961
v 0.54902929 0.68069578 0.25157559
v 0.41681736 0.88994664 0.47195196
v 0.57306400 0.87368340 0.52053421
v 0.83600429 0.68069578 0.49797238
v 0.84982312 0.74542101 0.52050717
v 0.84982312 0.74533906 0.52053421
v 0.41681736 0.83585194 0.35662994
v 0.46056301 0.83060834 0.33693224
v 0.47582311 0.83144816 0.33585144
v 0.50023932 0.83107948 0.33601357
v 0.51350714 0.83013728 0.33717545
v 0.59781927 0.80047834 0.34017469
v 0.62223549 0.81334152 0.35590040
v 0.64101388 0.80848711 0.35944005
v 0.64813527 0.79486614 0.35409006
v 0.56797727 0.68069578 0.25935740
v 0.47582311 0.87229056 0.39875436
v 0.41681736 0.88480550 0.44755278
v 0.79297926 0.80527131 0.52053421
v 0.64656690 0.84656435 0.42315359
v 0.80624705 0.68069578 0.43371845
v 0.84829715 0.74828856 0.52053421
v 0.83736076 0.74421251 0.50026909
v 0.83426633 0.76270833 0.50305216
v 0.41681736 0.84943190 0.37384179
v 0.44517574 0.85348751 0.36289861
v 0.46145316 0.85412248 0.36200694
v 0.46590406 0.85412248 0.36200694
v 0.48213912 0.85361040 0.36273652
v 0.50023932 0.84183290 0.34998300
v 0.50023932 0.85252480 0.36522238
v 0.62223549 0.83490974 0.37908371
v 0.62223549 0.82554915 0.36687060
v 0.65729137 0.80426766 0.36314181
v 0.63499461 0.68362478 0.28862024
v 0.63571524 0.68069578 0.28826894
v 0.50023932 0.85926362 0.37743546
v 0.47472101 0.85983715 0.37227461
v 0.45255142 0.85875155 0.37238271
v 0.41681736 0.87837391 0.42717957
v 0.62223549 0.84580649 0.39875436
v 0.81396189 0.79376010 0.52053421
v 0.66373452 0.83304584 0.40626599
v 0.66805817 0.83628207 0.42315359
v 0.64622775 0.83673270 0.39837608
v 0.78191562 0.68069578 0.40977858
v 0.80578077 0.68397302 0.43461012
v 0.83837808 0.76678438 0.52053421
v 0.81849750 0.77131106 0.49373022
v 0.81196957 0.78714417 0.50067440
v 0.82828946 0.77884868 0.52053421
v 0.66381931 0.78800442 0.35803499
v 0.63783466 0.83144816 0.38410945
v 0.65411215 0.82683953 0.38999984
v 0.66538769 0.81057636 0.37940793
v 0.76275568 0.68069578 0.39262081
v 0.82803508 0.77913548 0.52053421
v 0.76885975 0.68069578 0.39788971
f 1 2 5
f 1 5 11
f 1 11 27
f 1 27 49
f 1 49 34
f 1 34 16
f 1 16 7
f 1 7 3
f 1 3 4
f 1 4 10
f 1 10 25
f 1 25 45
f 1 45 65
f 1 65 67
f 1 67 55
f 1 55 30
f 1 30 13
f 1 13 6
f 1 6 2
f 2 6 15
f 2 15 31
f 2 31 57
f 2 57 60
f 2 60 66
f 2 66 51
f 2 51 28
f 2 28 12
f 2 12 5
f 3 7 8
f 3 8 9
f 3 9 4
f 4 9 10
f 5 12 11
f 6 13 14
f 6 14 15
f 7 16 17
f 7 17 8
f 8 17 18
f 8 18 9
f 9 18 19
f 9 19 20
f 9 20 21
f 9 21 10
f 10 21 22
f 10 22 23
f 10 23 24
f 10 24 25
f 11 26 27
f 11 12 26
f 12 28 29
f 12 29 26
f 13 30 14
f 14 31 15
f 14 30 32
f 14 32 33
f 14 33 31
f 16 34 35
f 16 35 17
f 17 35 18
f 18 35 36
f 18 36 37
f 18 37 19
f 19 38 39
f 19 39 20
f 19 37 38
f 20 39 40
f 20 40 41
f 20 41 42
f 20 42 22
f 20 22 21
f 22 42 23
f 23 42 43
f 23 43 24
f 24 43 44
f 24 44 25
f 25 44 45
f 26 46 47
f 26 47 48
f 26 48 49
f 26 49 27
f 26 29 50
f 26 50 46
f 28 51 52
f 28 52 53
f 28 53 29
f 29 53 52
f 29 52 54
f 29 54 50
f 30 55 56
f 30 56 33
f 30 33 32
f 31 33 57
f 33 58 59
f 33 59 60
f 33 60 57
f 33 56 55
f 33 55 61
f 33 61 58
f 34 49 35
f 35 48 36
f 35 49 48
f 36 48 47
f 36 47 37
f 37 47 38
f 38 46 40
f 38 40 39
f 38 47 46
f 40 46 50
f 40 50 41
f 41 50 54
f 41 54 62
f 41 62 42
f 42 62 43
f 43 61 44
f 43 62 63
f 43 63 52
f 43 52 64
f 43 64 59
f 43 59 58
f 43 58 61
f 44 61 65
f 44 65 45
f 51 59 52
f 51 66 59
f 52 63 62
f 52 62 54
f 52 59 64
f 55 67 61
f 59 66 60
f 61 67 65

