# https://github.com/mikedh/trimesh
v 0.64644000 0.25047626 1.00549308
v 0.64644000 0.28060372 1.00107941
v 0.49024892 0.27212267 1.12054943
v 0.48991177 0.25621249 1.12014821
v 0.48917002 0.25047626 1.11954633
v 0.64644000 0.25047626 0.18745934
v 0.64644000 0.30037640 0.99817041
v 0.52441359 0.30603044 1.08845002
v 0.53990011 0.32281172 1.07360405
v 0.51059039 0.31485663 1.09336526
v 0.46316441 0.31669747 1.11834259
v 0.47608853 0.28039005 1.12486279
v 0.44997051 0.27963399 1.13740165
v 0.44086742 0.27085709 1.14352059
v 0.44086742 0.26618923 1.14352059
v 0.47581883 0.25621249 1.12686904
v 0.47559406 0.25047626 1.12546467
v 0.64255150 0.25047626 0.18023698
v 0.64644000 0.40259275 0.20441187
v 0.64644000 0.31248985 0.99526138
v 0.52452597 0.33033950 1.07771678
v 0.64644000 0.41092591 0.96065419
v 0.64644000 0.41837147 0.95794581
v 0.57986378 0.41837147 0.99676605
v 0.44689121 0.32264738 1.12195379
v 0.45358932 0.30713164 1.12636747
v 0.57174970 0.41837147 1.00117972
v 0.54898072 0.41837147 1.01191297
v 0.43441661 0.28712888 1.14141407
v 0.42657222 0.27963399 1.14542648
v 0.41683975 0.27011746 1.14843583
v 0.41683975 0.25685350 1.14893737
v 0.41683975 0.25047626 1.14833552
v 0.42155989 0.25047626 1.14703147
v 0.45035265 0.25047626 1.13559603
v 0.63798876 0.25047626 0.17361647
v 0.64644000 0.41832217 0.20922676
v 0.63250438 0.25047626 0.16739721
v 0.61065693 0.34299532 0.16609317
v 0.59815989 0.35219957 0.16067639
v 0.58997834 0.37818509 0.16318417
v 0.56896256 0.41837147 0.16248197
v 0.64644000 0.41837147 0.21905721
v 0.41683975 0.41837147 1.04932884
v 0.42702176 0.32286103 1.12245536
v 0.41814344 0.29416353 1.14392185
v 0.54345141 0.41837147 1.01432043
v 0.53131395 0.41837147 1.01913532
v 0.52699841 0.41837147 1.02084063
v 0.51171421 0.41837147 1.02615709
v 0.47581883 0.41837147 1.03849529
v 0.45140906 0.41837147 1.04361116
v 0.41683975 0.29289795 1.14422275
v 0.41683975 0.25047626 0.21243670
v 0.64635006 0.41837147 0.20922676
v 0.62439025 0.25047626 0.16398664
v 0.57624502 0.30501138 0.14583042
v 0.59780027 0.32940264 0.15696491
v 0.57339049 0.35379386 0.14954189
v 0.57339049 0.37818509 0.15475808
v 0.55740950 0.41837147 0.15816861
v 0.41683975 0.29416353 1.14392185
v 0.41683975 0.41837147 0.13840743
v 0.41683975 0.36242284 0.13981175
v 0.46024240 0.31216113 0.13860806
v 0.48305634 0.28804930 0.13890896
v 0.50764595 0.26544960 0.13910959
v 0.52908877 0.25047626 0.15917175
v 0.62319900 0.25047626 0.16368570
v 0.54898072 0.26567970 0.13981175
v 0.54898072 0.28060372 0.13620059
v 0.56404016 0.30501138 0.14171768
v 0.57123270 0.32762753 0.14583042
v 0.54898072 0.41837147 0.15515930
v 0.54199044 0.35379386 0.14051395
v 0.41787372 0.41837147 0.13800617
v 0.42702176 0.40259275 0.13158629
v 0.41683975 0.40259275 0.13589965
v 0.41683975 0.37818509 0.13499686
v 0.42702176 0.37818509 0.12847666
v 0.42810063 0.35530599 0.13599996
v 0.47527937 0.30441969 0.13439498
v 0.49980152 0.28019282 0.13549839
v 0.52461590 0.28060372 0.13098444
v 0.52461590 0.26349370 0.13730401
v 0.54864356 0.25047626 0.15586150
v 0.57914454 0.25047626 0.15385525
v 0.52461590 0.30501138 0.13218814
v 0.52461590 0.32940264 0.13349219
v 0.54898072 0.30501138 0.13760492
v 0.55028437 0.32762753 0.13991207
v 0.53322450 0.41837147 0.15124719
v 0.52461590 0.35379386 0.13620059
v 0.42702176 0.41837147 0.13559871
v 0.45140906 0.37818509 0.12416330
v 0.41683975 0.39292831 0.13469592
v 0.45140906 0.35379386 0.12667108
v 0.47581883 0.32940264 0.12697199
v 0.50020613 0.32940264 0.12827604
v 0.57172723 0.25047626 0.15355434
v 0.50157722 0.41837147 0.14442606
v 0.45140906 0.41837147 0.13469592
v 0.47613348 0.41837147 0.13941053
f 1 2 3
f 1 3 4
f 1 4 5
f 1 5 17
f 1 17 35
f 1 35 34
f 1 34 33
f 1 33 54
f 1 54 68
f 1 68 86
f 1 86 100
f 1 100 87
f 1 87 69
f 1 69 56
f 1 56 38
f 1 38 36
f 1 36 18
f 1 18 6
f 1 6 19
f 1 19 37
f 1 37 43
f 1 43 23
f 1 23 22
f 1 22 20
f 1 20 7
f 1 7 2
f 2 7 3
f 3 8 9
f 3 9 10
f 3 10 11
f 3 11 12
f 3 12 13
f 3 13 14
f 3 14 15
f 3 15 16
f 3 16 4
f 3 7 8
f 4 16 5
f 5 16 17
f 6 18 19
f 7 20 9
f 7 9 8
f 9 21 11
f 9 11 10
f 9 20 22
f 9 22 23
f 9 23 24
f 9 24 21
f 11 25 26
f 11 26 12
f 11 21 27
f 11 27 28
f 11 28 25
f 12 26 13
f 13 26 29
f 13 29 14
f 14 29 30
f 14 30 31
f 14 31 32
f 14 32 15
f 15 32 33
f 15 33 34
f 15 34 35
f 15 35 17
f 15 17 16
f 18 36 19
f 19 36 38
f 19 38 39
f 19 39 40
f 19 40 41
f 19 41 42
f 19 42 37
f 21 24 27
f 23 43 55
f 23 55 42
f 23 42 61
f 23 61 74
f 23 74 92
f 23 92 101
f 23 101 103
f 23 103 102
f 23 102 94
f 23 94 76
f 23 76 63
f 23 63 44
f 23 44 52
f 23 52 51
f 23 51 50
f 23 50 49
f 23 49 48
f 23 48 47
f 23 47 28
f 23 28 27
f 23 27 24
f 25 44 45
f 25 45 46
f 25 46 26
f 25 28 47
f 25 47 48
f 25 48 49
f 25 49 50
f 25 50 51
f 25 51 52
f 25 52 44
f 26 46 29
f 29 46 30
f 30 46 31
f 31 46 53
f 31 53 62
f 31 62 44
f 31 44 63
f 31 63 78
f 31 78 96
f 31 96 79
f 31 79 64
f 31 64 54
f 31 54 33
f 31 33 32
f 37 55 43
f 37 42 55
f 38 56 57
f 38 57 58
f 38 58 39
f 39 58 40
f 40 58 59
f 40 59 60
f 40 60 42
f 40 42 41
f 42 60 61
f 44 62 45
f 45 62 46
f 46 62 53
f 54 64 65
f 54 65 66
f 54 66 67
f 54 67 68
f 56 69 70
f 56 70 71
f 56 71 57
f 57 71 72
f 57 72 73
f 57 73 58
f 58 73 59
f 59 74 60
f 59 73 75
f 59 75 74
f 60 74 61
f 63 76 77
f 63 77 78
f 64 79 80
f 64 80 81
f 64 81 65
f 65 81 82
f 65 82 66
f 66 82 67
f 67 82 83
f 67 83 84
f 67 84 85
f 67 85 68
f 68 85 86
f 69 87 70
f 70 85 84
f 70 84 71
f 70 87 85
f 71 84 88
f 71 88 89
f 71 89 90
f 71 90 72
f 72 91 73
f 72 90 91
f 73 91 75
f 74 75 92
f 75 91 89
f 75 89 93
f 75 93 92
f 76 94 77
f 77 95 80
f 77 80 78
f 77 94 95
f 78 80 96
f 79 96 80
f 80 95 97
f 80 97 81
f 81 97 82
f 82 97 98
f 82 98 83
f 83 98 84
f 84 98 95
f 84 95 99
f 84 99 88
f 85 87 100
f 85 100 86
f 88 99 89
f 89 99 93
f 89 91 90
f 92 93 95
f 92 95 101
f 93 99 95
f 94 102 95
f 95 98 97
f 95 102 103
f 95 103 101

