# https://github.com/mikedh/trimesh
v 0.17185651 -0.47461921 0.40014073
v 0.17185651 -0.47461921 0.29204259
v 0.07177708 -0.47461921 0.40014073
v 0.17185651 -0.90170641 0.40014073
v 0.15601426 -0.47461921 0.27540209
v 0.17185651 -0.62724486 0.18399652
v 0.07177708 -0.47461921 0.22386600
v 0.07177708 -0.88654055 0.40014073
v 0.07177708 -0.90755902 0.39076578
v 0.07177708 -0.91112146 0.38693770
v 0.07177708 -0.92984983 0.36652119
v 0.07177708 -0.93269979 0.36055768
v 0.07177708 -0.98282861 0.24904810
v 0.07177708 -0.99066598 0.22821492
v 0.08654160 -0.98460975 0.22852742
v 0.08540513 -0.99204005 0.20357969
v 0.10273655 -0.98058934 0.20357969
v 0.11600209 -0.96242082 0.20311095
v 0.12285042 -0.95341284 0.21092338
v 0.17185651 -0.83340915 0.20821508
v 0.07185546 -0.47461921 0.22350143
v 0.15165447 -0.62749930 0.16386644
v 0.17185651 -0.64663475 0.17597572
v 0.07177708 -0.51019285 0.20725153
v 0.07177708 -0.99448293 0.20357969
v 0.07177708 -0.99249810 0.18995999
v 0.07177708 -0.98929190 0.17897053
v 0.08540513 -0.98476246 0.17873612
v 0.10121797 -0.97967324 0.18654858
v 0.12142980 -0.94801835 0.19467351
v 0.17185651 -0.82735293 0.19456935
v 0.14102440 -0.61121381 0.16936121
v 0.12476087 -0.60968707 0.16667891
v 0.16633084 -0.64663475 0.17113203
v 0.15413319 -0.64663475 0.16209562
v 0.13419568 -0.64663475 0.15641859
v 0.13341190 -0.62052706 0.16321544
v 0.17185651 -0.77971789 0.16730392
v 0.17134705 -0.78017586 0.16673101
v 0.12128283 -0.60968707 0.16667891
v 0.07177708 -0.52378103 0.20324115
v 0.07177708 -0.98303214 0.16678311
v 0.07726357 -0.97946970 0.16386644
v 0.09407573 -0.96379489 0.16980392
v 0.10598925 -0.96379489 0.18199133
v 0.17185651 -0.80384075 0.17058516
v 0.17185651 -0.81493521 0.18115798
v 0.09917033 -0.80144884 0.14160097
v 0.07177708 -0.77763125 0.14204368
v 0.10980040 -0.67101212 0.15451756
v 0.10750783 -0.64434465 0.16063730
v 0.08540513 -0.81737809 0.13813746
v 0.07177708 -0.81737809 0.13683542
v 0.17185651 -0.78078662 0.16725185
v 0.17134705 -0.78536689 0.16673101
v 0.11554161 -0.62220655 0.16462165
v 0.09273350 -0.65090975 0.16394458
v 0.07177708 -0.53538445 0.20035055
v 0.07177708 -0.98002948 0.16136648
v 0.08187809 -0.96379489 0.15899668
v 0.07177708 -0.97127602 0.15498630
v 0.07177708 -0.95168260 0.14358013
v 0.07242371 -0.95010491 0.14316349
v 0.17024973 -0.80165238 0.16730392
v 0.17185651 -0.80068545 0.16868414
v 0.09894500 -0.81737809 0.14175724
v 0.07177708 -0.89056104 0.13410105
v 0.08492506 -0.67167371 0.16178312
v 0.07177708 -0.86521674 0.13464792
v 0.07177708 -0.84175539 0.13561143
v 0.17185651 -0.78577403 0.16725185
v 0.08187809 -0.89056104 0.13751249
v 0.07177708 -0.94949423 0.14266869
v 0.07548047 -0.93387025 0.14055933
v 0.07858620 -0.91498925 0.13855414
v 0.07177708 -0.91498925 0.13566354
v 0.07177708 -0.93595689 0.13920518
f 1 2 5
f 1 5 21
f 1 21 7
f 1 7 3
f 1 3 8
f 1 8 4
f 1 4 20
f 1 20 31
f 1 31 47
f 1 47 46
f 1 46 65
f 1 65 71
f 1 71 54
f 1 54 38
f 1 38 23
f 1 23 6
f 1 6 2
f 2 6 5
f 3 7 24
f 3 24 41
f 3 41 58
f 3 58 49
f 3 49 53
f 3 53 70
f 3 70 69
f 3 69 67
f 3 67 76
f 3 76 77
f 3 77 73
f 3 73 62
f 3 62 61
f 3 61 59
f 3 59 42
f 3 42 27
f 3 27 26
f 3 26 25
f 3 25 14
f 3 14 13
f 3 13 12
f 3 12 11
f 3 11 10
f 3 10 9
f 3 9 8
f 4 8 9
f 4 9 10
f 4 10 11
f 4 11 12
f 4 12 13
f 4 13 14
f 4 14 15
f 4 15 16
f 4 16 17
f 4 17 18
f 4 18 19
f 4 19 20
f 5 6 22
f 5 22 21
f 6 23 22
f 7 21 24
f 14 25 16
f 14 16 15
f 16 25 26
f 16 26 27
f 16 27 28
f 16 28 29
f 16 29 17
f 17 29 18
f 18 29 30
f 18 30 19
f 19 30 31
f 19 31 20
f 21 22 32
f 21 32 33
f 21 33 24
f 22 23 34
f 22 34 35
f 22 35 36
f 22 36 37
f 22 37 32
f 23 38 39
f 23 39 34
f 24 33 40
f 24 40 41
f 27 42 28
f 28 42 43
f 28 43 29
f 29 43 44
f 29 44 45
f 29 45 30
f 30 45 46
f 30 46 47
f 30 47 31
f 32 37 33
f 33 37 40
f 34 39 35
f 35 39 48
f 35 48 36
f 36 49 50
f 36 50 51
f 36 51 40
f 36 40 37
f 36 48 52
f 36 52 53
f 36 53 49
f 38 54 39
f 39 54 71
f 39 71 55
f 39 55 48
f 40 51 56
f 40 56 41
f 41 56 51
f 41 51 57
f 41 57 58
f 42 59 43
f 43 60 44
f 43 59 61
f 43 61 62
f 43 62 63
f 43 63 60
f 44 60 63
f 44 63 64
f 44 64 45
f 45 64 65
f 45 65 46
f 48 55 66
f 48 66 67
f 48 67 52
f 49 58 68
f 49 68 57
f 49 57 51
f 49 51 50
f 52 67 69
f 52 69 70
f 52 70 53
f 55 71 65
f 55 65 64
f 55 64 72
f 55 72 66
f 57 68 58
f 62 73 63
f 63 73 74
f 63 74 64
f 64 74 75
f 64 75 72
f 66 72 67
f 67 72 76
f 72 75 76
f 73 77 74
f 74 77 75
f 75 77 76

