# https://github.com/mikedh/trimesh
v -0.46280891 0.49348501 0.76541607
v -0.45534738 0.49306888 0.76541607
v -0.46189087 0.58642154 0.68007419
v -0.46280891 0.58642154 0.68010428
v -0.46280891 -0.76642974 0.76541607
v -0.42700097 0.49029463 0.76541607
v -0.43535382 0.58891837 0.65928772
v -0.45281749 0.59086030 0.66731954
v -0.46280891 0.59169262 0.66725938
v -0.40828307 0.48821395 0.76541607
v -0.46280891 -0.76656849 0.71677390
v -0.40828307 -0.82038846 0.59398028
v -0.40828307 -0.81844646 0.61699280
v -0.40828307 -0.81803037 0.61834648
v -0.40828307 -0.71566137 0.76541607
v -0.40828307 0.57934727 0.61976032
v -0.41542437 0.58489577 0.62451324
v -0.43068371 0.59002804 0.64274277
v -0.45139775 0.59640880 0.64274277
v -0.46280891 0.59460555 0.65417382
v -0.40828307 -0.82011097 0.59085178
v -0.46280891 -0.75796831 0.65844543
v -0.40828307 0.58572803 0.59398028
v -0.46280891 0.58656028 0.50415623
v -0.46280891 0.58780870 0.52079143
v -0.46280891 0.59613139 0.64274277
v -0.40828307 0.58572803 0.56961407
v -0.40828307 0.58406345 0.54503729
v -0.40828307 -0.72273571 0.45810110
v -0.46280891 -0.75519413 0.63994516
v -0.46280891 -0.75075530 0.61897819
v -0.46280891 -0.73508100 0.54985037
v -0.46280891 -0.69277398 0.45810110
v -0.46118635 -0.69416115 0.45810110
v -0.44163049 -0.70830969 0.45810110
v -0.40828307 0.58156668 0.52079143
v -0.46280891 0.58323119 0.49152190
v -0.40828307 0.43661336 0.45810110
v -0.46280891 0.45769750 0.45810110
v -0.40828307 0.57241174 0.49597400
v -0.42700097 0.57782150 0.49639515
v -0.46280891 0.57296658 0.47169803
v -0.46280891 0.54896952 0.45852224
v -0.46280891 0.56214706 0.45903363
v -0.46222713 0.56200839 0.45924420
v -0.41090367 0.56492131 0.48156484
v -0.40828307 0.56159222 0.48349008
v -0.40828307 0.56686331 0.48613726
v -0.42700097 0.56741815 0.47822577
f 1 2 3
f 1 3 4
f 1 4 9
f 1 9 20
f 1 20 26
f 1 26 25
f 1 25 24
f 1 24 37
f 1 37 42
f 1 42 44
f 1 44 43
f 1 43 39
f 1 39 33
f 1 33 32
f 1 32 31
f 1 31 30
f 1 30 22
f 1 22 11
f 1 11 5
f 1 5 15
f 1 15 10
f 1 10 6
f 1 6 2
f 2 6 3
f 3 7 8
f 3 8 9
f 3 9 4
f 3 6 10
f 3 10 7
f 5 11 12
f 5 12 13
f 5 13 14
f 5 14 15
f 7 16 17
f 7 17 18
f 7 18 19
f 7 19 8
f 7 10 16
f 8 19 9
f 9 19 20
f 10 15 14
f 10 14 13
f 10 13 12
f 10 12 21
f 10 21 29
f 10 29 38
f 10 38 47
f 10 47 48
f 10 48 40
f 10 40 36
f 10 36 28
f 10 28 27
f 10 27 23
f 10 23 16
f 11 21 12
f 11 22 21
f 16 23 17
f 17 23 18
f 18 23 19
f 19 24 25
f 19 25 26
f 19 26 20
f 19 23 27
f 19 27 28
f 19 28 24
f 21 22 30
f 21 30 31
f 21 31 32
f 21 32 33
f 21 33 34
f 21 34 35
f 21 35 29
f 24 28 36
f 24 36 37
f 29 35 34
f 29 34 33
f 29 33 39
f 29 39 38
f 36 40 41
f 36 41 37
f 37 41 42
f 38 39 43
f 38 43 44
f 38 44 45
f 38 45 46
f 38 46 47
f 40 48 41
f 41 48 49
f 41 49 42
f 42 49 44
f 44 49 46
f 44 46 45
f 46 49 48
f 46 48 47

