# https://github.com/mikedh/trimesh
v -0.46282814 0.36674812 1.32736392
v -0.46282814 0.37809677 1.32574591
v -0.50105670 0.35482766 1.32052282
v -0.50021060 0.32935919 1.32276536
v -0.47580814 0.32935919 1.32299246
v -0.46282814 0.32935919 1.32214086
v -0.46282814 0.39371214 1.32313437
v -0.51694039 0.34739383 1.31723002
v -0.51776731 0.32935919 1.31754227
v -0.54901551 0.28057763 1.30962251
v -0.54901551 0.25616484 1.30854385
v -0.54901551 0.23184004 1.30488204
v -0.46282814 0.30710179 1.31799646
v -0.46282814 0.40053011 1.32126087
v -0.56286087 0.31959407 1.29142698
v -0.56562996 0.30499040 1.29520233
v -0.57007199 0.28057763 1.29906284
v -0.46836629 0.39802288 1.31964286
v -0.46294351 0.41429805 1.31294371
v -0.50976774 0.36366904 1.31143925
v -0.57549477 0.25541707 1.29772869
v -0.57339871 0.23184004 1.29997120
v -0.57339871 0.21116616 1.29491848
v -0.55128461 0.20500799 1.29508878
v -0.46282814 0.13423293 1.27280561
v -0.46282814 0.25616484 1.30567685
v -0.46282814 0.41416610 1.31308565
v -0.56280316 0.34321511 1.26721351
v -0.56632223 0.32839146 1.27607002
v -0.57537939 0.30499040 1.27714867
v -0.58503266 0.26307081 1.28628907
v -0.51697887 0.37264237 1.29517394
v -0.51059462 0.38891757 1.28682842
v -0.58585954 0.24679562 1.28975218
v -0.58716716 0.23184004 1.29108633
v -0.46282814 0.41434204 1.31297210
v -0.46282814 0.41447402 1.31280180
v -0.46605872 0.46541095 1.24339748
v -0.58741715 0.21648859 1.29128503
v -0.57339871 0.19898177 1.28620392
v -0.56093792 0.19524288 1.28932638
v -0.46282814 0.11984918 1.26721351
v -0.51169073 0.43765515 1.21211585
v -0.57561012 0.38038411 1.18276451
v -0.58535958 0.36358109 1.19105328
v -0.58516727 0.29003484 1.26366525
v -0.58268665 0.28136940 1.27774481
v -0.61272343 0.25616484 1.19797953
v -0.61205035 0.22770528 1.22159686
v -0.60883900 0.21169400 1.23786217
v -0.61001200 0.19541882 1.24061563
v -0.46282814 0.46563085 1.24450453
v -0.46282814 0.46651059 1.24007628
v -0.47048153 0.46730238 1.22835277
v -0.48659599 0.46255177 1.21203070
v -0.61001200 0.19519888 1.24061563
v -0.65924000 0.01991076 1.05562263
v -0.58887859 0.19251567 1.26891670
v -0.46282814 0.01991076 1.20212393
v -0.46282814 0.07489448 1.23945182
v -0.50030677 0.45115916 1.20394064
v -0.58751328 0.37075094 1.17481636
v -0.61780000 0.25616484 1.17958526
v -0.58766713 0.29790849 1.24739993
v -0.65924000 0.07515841 1.04656746
v -0.65924000 0.07247520 1.04758936
v -0.65924000 0.06051074 1.05068343
v -0.65924000 0.03662581 1.05411817
v -0.46282814 0.46849004 1.22835277
v -0.47740421 0.46752231 1.20394064
v -0.48890358 0.46422326 1.19576542
v -0.65924000 0.01991076 1.03737031
v -0.46282814 0.01991076 1.03737031
v -0.56586069 0.39217259 1.17447575
v -0.58768635 0.37079494 1.15517313
v -0.61441564 0.28194121 1.15454863
v -0.65924000 0.09059785 1.03737031
v -0.46282814 0.46928179 1.20394064
v -0.47580814 0.46620271 1.18722116
v -0.48890358 0.46422326 1.19037202
v -0.46282814 0.37308223 1.03737031
v -0.56586069 0.39217259 1.16201419
v -0.57374485 0.38377108 1.15440668
v -0.58647488 0.36758387 1.14174642
v -0.61051201 0.29355379 1.14205867
v -0.58593648 0.31770265 1.06902094
v -0.58668641 0.29469744 1.04378561
v -0.58930167 0.28057763 1.03898831
v -0.58880170 0.27925802 1.03737031
v -0.46282814 0.46637865 1.18656827
v -0.46282814 0.46237583 1.18009621
v -0.56168785 0.31743872 1.04511976
v -0.57226416 0.29711674 1.03737031
v -0.57795614 0.31092863 1.05275563
v -0.58201362 0.28911111 1.03737031
f 1 2 3
f 1 3 4
f 1 4 5
f 1 5 6
f 1 6 13
f 1 13 26
f 1 26 25
f 1 25 42
f 1 42 60
f 1 60 59
f 1 59 73
f 1 73 81
f 1 81 91
f 1 91 90
f 1 90 78
f 1 78 69
f 1 69 53
f 1 53 52
f 1 52 37
f 1 37 36
f 1 36 27
f 1 27 14
f 1 14 7
f 1 7 2
f 2 7 3
f 3 7 8
f 3 8 4
f 4 8 9
f 4 9 10
f 4 10 11
f 4 11 12
f 4 12 5
f 5 13 6
f 5 12 13
f 7 14 8
f 8 15 16
f 8 16 17
f 8 17 10
f 8 10 9
f 8 14 18
f 8 18 19
f 8 19 20
f 8 20 15
f 10 17 21
f 10 21 22
f 10 22 11
f 11 22 12
f 12 22 23
f 12 23 24
f 12 24 25
f 12 25 26
f 12 26 13
f 14 27 19
f 14 19 18
f 15 28 29
f 15 29 30
f 15 30 31
f 15 31 16
f 15 20 32
f 15 32 33
f 15 33 28
f 16 31 17
f 17 31 34
f 17 34 35
f 17 35 21
f 19 27 36
f 19 36 37
f 19 37 38
f 19 38 33
f 19 33 20
f 20 33 32
f 21 35 22
f 22 35 39
f 22 39 23
f 23 39 40
f 23 40 41
f 23 41 24
f 24 41 42
f 24 42 25
f 28 33 43
f 28 43 44
f 28 44 45
f 28 45 29
f 29 45 30
f 30 46 47
f 30 47 31
f 30 45 46
f 31 48 49
f 31 49 50
f 31 50 51
f 31 51 34
f 31 47 46
f 31 46 48
f 33 38 43
f 34 51 35
f 35 51 39
f 37 52 38
f 38 52 53
f 38 53 54
f 38 54 55
f 38 55 43
f 39 51 56
f 39 56 57
f 39 57 58
f 39 58 40
f 40 58 59
f 40 59 41
f 41 59 60
f 41 60 42
f 43 55 61
f 43 61 62
f 43 62 44
f 44 62 45
f 45 62 63
f 45 63 48
f 45 48 64
f 45 64 46
f 46 64 48
f 48 63 49
f 49 65 66
f 49 66 51
f 49 51 50
f 49 63 65
f 51 66 67
f 51 67 68
f 51 68 57
f 51 57 56
f 53 69 54
f 54 69 70
f 54 70 71
f 54 71 55
f 55 71 61
f 57 68 67
f 57 67 66
f 57 66 65
f 57 65 77
f 57 77 72
f 57 72 73
f 57 73 59
f 57 59 58
f 61 71 62
f 62 71 74
f 62 74 75
f 62 75 76
f 62 76 63
f 63 76 77
f 63 77 65
f 69 78 70
f 70 78 79
f 70 79 80
f 70 80 71
f 71 80 82
f 71 82 74
f 72 77 89
f 72 89 95
f 72 95 93
f 72 93 81
f 72 81 73
f 74 82 75
f 75 82 83
f 75 83 84
f 75 84 77
f 75 77 85
f 75 85 76
f 76 85 77
f 77 84 86
f 77 86 87
f 77 87 88
f 77 88 89
f 78 90 79
f 79 90 91
f 79 91 81
f 79 81 80
f 80 81 92
f 80 92 84
f 80 84 83
f 80 83 82
f 81 93 92
f 84 92 86
f 86 92 94
f 86 94 87
f 87 94 92
f 87 92 95
f 87 95 89
f 87 89 88
f 92 93 95

