# https://github.com/mikedh/trimesh
v 0.51180390 -0.49283179 0.56295177
v 0.41682659 -0.49283179 0.56295177
v 0.51180390 -0.51381347 0.56295177
v 0.51180390 -0.49283179 0.40148789
v 0.41682659 -0.50993485 0.56295177
v 0.41682659 -0.49283179 0.29280522
v 0.51180390 -0.51394250 0.55665823
v 0.41682659 -0.56853361 0.51498330
v 0.42211706 -0.56738049 0.51368756
v 0.42895095 -0.57133171 0.49832391
v 0.44597530 -0.56617094 0.49147505
v 0.46697909 -0.56380830 0.46569266
v 0.51180390 -0.49913758 0.40265141
v 0.50035826 -0.49283179 0.34262473
v 0.42700773 -0.49283179 0.29291098
v 0.42700773 -0.49926662 0.30118779
v 0.41682659 -0.49350916 0.29367783
v 0.51180390 -0.51388604 0.54809052
v 0.41682659 -0.57521033 0.49742483
v 0.45303233 -0.56797721 0.47307040
v 0.46683960 -0.56361477 0.44755245
v 0.48890335 -0.53763360 0.40413224
v 0.51180390 -0.50010523 0.40664438
v 0.49696455 -0.52694116 0.39712472
v 0.49611844 -0.52226421 0.37438335
v 0.49427748 -0.51886942 0.34997602
v 0.50136244 -0.50020199 0.34997602
v 0.49106045 -0.49338012 0.30801020
v 0.49108834 -0.49283179 0.30790443
v 0.45140520 -0.49283179 0.29343986
v 0.41682659 -0.49829089 0.30034161
v 0.45140520 -0.49854893 0.30118779
v 0.47579342 -0.50915266 0.31901071
v 0.47579342 -0.51578910 0.33122758
v 0.41682659 -0.51016064 0.32202526
v 0.51180390 -0.50468540 0.42822227
v 0.41682659 -0.57314602 0.47195976
v 0.42700773 -0.57395239 0.47195976
v 0.45140520 -0.56691281 0.44755245
v 0.46453372 -0.56181657 0.43385472
v 0.48702516 -0.53662563 0.38786950
v 0.49174847 -0.51585360 0.33236466
v 0.49449136 -0.50099225 0.32477537
v 0.47498450 -0.49577504 0.30039447
v 0.47120028 -0.49283179 0.29505292
v 0.49075362 -0.49283179 0.30753422
v 0.45140520 -0.56216328 0.43324651
v 0.42700773 -0.53918180 0.38094132
v 0.42700773 -0.53362595 0.36875089
v 0.41682659 -0.52927154 0.36092360
v 0.41682659 -0.56088923 0.43620820
v 0.41713343 -0.56092148 0.43612886
v 0.42596636 -0.56538072 0.44556918
v 0.43340462 -0.56186496 0.43403983
v 0.41682659 -0.53857704 0.38250148
f 1 2 5
f 1 5 3
f 1 3 7
f 1 7 18
f 1 18 36
f 1 36 23
f 1 23 13
f 1 13 4
f 1 4 14
f 1 14 29
f 1 29 46
f 1 46 45
f 1 45 30
f 1 30 15
f 1 15 6
f 1 6 2
f 2 6 17
f 2 17 31
f 2 31 35
f 2 35 50
f 2 50 55
f 2 55 51
f 2 51 37
f 2 37 19
f 2 19 8
f 2 8 5
f 3 5 8
f 3 8 9
f 3 9 10
f 3 10 11
f 3 11 12
f 3 12 7
f 4 13 14
f 6 15 16
f 6 16 17
f 7 12 18
f 8 19 10
f 8 10 9
f 10 19 20
f 10 20 11
f 11 20 12
f 12 20 21
f 12 21 22
f 12 22 18
f 13 23 24
f 13 24 25
f 13 25 26
f 13 26 27
f 13 27 14
f 14 27 28
f 14 28 29
f 15 30 16
f 16 31 17
f 16 30 32
f 16 32 33
f 16 33 34
f 16 34 35
f 16 35 31
f 18 22 24
f 18 24 36
f 19 37 38
f 19 38 20
f 20 38 21
f 21 38 39
f 21 39 40
f 21 40 41
f 21 41 22
f 22 41 24
f 23 36 24
f 24 41 26
f 24 26 25
f 26 42 27
f 26 41 42
f 27 42 43
f 27 43 28
f 28 44 45
f 28 45 46
f 28 46 29
f 28 43 42
f 28 42 44
f 30 45 32
f 32 45 33
f 33 45 42
f 33 42 34
f 34 42 47
f 34 47 48
f 34 48 49
f 34 49 35
f 35 49 50
f 37 51 52
f 37 52 53
f 37 53 38
f 38 53 39
f 39 53 54
f 39 54 47
f 39 47 40
f 40 47 42
f 40 42 41
f 42 45 44
f 47 54 48
f 48 54 52
f 48 52 55
f 48 55 50
f 48 50 49
f 51 55 52
f 52 54 53

