# https://github.com/mikedh/trimesh
v 1.13458150 0.03660293 1.03495310
v 0.97237986 0.06100204 0.99951489
v 0.97346423 0.04674712 0.99836895
v 1.13458150 0.01220381 1.02965312
v 1.15566375 0.01220381 1.02610070
v 1.16116120 0.03719964 1.02747583
v 1.15712632 0.05884723 1.02472557
v 1.13566586 0.06252698 1.02704610
v 0.98821670 0.07900301 1.00057489
v 0.97371642 0.07585367 0.99868409
v 0.97172418 0.06100204 0.99902786
v 1.12121605 -0.00128864 1.02177480
v 0.97172418 0.04499012 0.99587653
v 0.97477555 -0.02495843 0.97261392
v 1.13458150 -0.00400701 1.02297802
v 1.15092276 -0.00400701 1.02283478
v 1.15904293 -0.01216216 1.01527158
v 1.17487977 -0.02966586 0.99965814
v 1.16786919 0.01220381 1.01870938
v 1.17076924 0.02944232 1.02039967
v 1.17134925 0.04571944 1.02114451
v 1.17134925 0.04926660 1.02114451
v 1.16401086 0.06554372 1.01719104
v 1.14774529 0.07366571 1.02137370
v 1.14454258 0.07366571 1.02137370
v 1.01260242 0.14331590 0.97032204
v 0.97172418 0.13439829 0.96545181
v 0.97172418 0.07777643 0.99616300
v 0.97172418 0.07366571 0.99745220
v 1.03660988 -0.03778786 0.98284145
v 0.97172418 -0.02684803 0.96857449
v 1.01936081 -0.07630929 0.93078710
v 1.04447787 -0.05137975 0.97559338
v 1.13458150 -0.01620657 1.01581591
v 1.14698874 -0.04882713 0.99659273
v 1.15667242 -0.03732375 1.00212189
v 1.16325430 -0.04594299 0.99458736
v 1.17719981 -0.05469485 0.97831499
v 1.19742458 -0.05303731 0.95221619
v 1.17725028 -0.01219531 1.00315325
v 1.17714936 0.01220381 1.00650513
v 1.19628982 0.06740018 0.97353067
v 1.19664285 0.08536800 0.97384583
v 1.19626458 0.09889361 0.97304366
v 1.17500586 0.07867151 1.00094732
v 1.18337820 0.10423091 0.97759877
v 1.18337820 0.11643047 0.96711341
v 1.15899246 0.12143627 0.97152530
v 1.06142436 0.20275560 0.92760712
v 1.03701339 0.21681160 0.92116120
v 0.98821670 0.15670890 0.95582591
v 0.97172418 0.15425573 0.95359132
v 0.97172418 -0.07335886 0.90683694
v 0.97172418 -0.07607723 0.90288344
v 0.97172418 -0.08254167 0.89205431
v 1.08581002 -0.08366881 0.93554276
v 1.06974626 -0.07471804 0.94995296
v 1.03701339 -0.07136979 0.94473893
v 1.14663569 -0.04882713 0.99659273
v 1.08581002 -0.07577887 0.95149997
v 1.15667242 -0.05655131 0.98562035
v 1.15899246 -0.07064047 0.96132642
v 1.17228236 -0.07342516 0.94886432
v 1.18287383 -0.06198806 0.95866210
v 1.18683303 -0.06808784 0.93554276
v 1.19994635 -0.05588829 0.93554276
v 1.22047383 -0.02542254 0.90013319
v 1.22153290 -0.01219531 0.90308398
v 1.22309647 0.01220381 0.90577695
v 1.19843331 -0.03659442 0.95404969
v 1.18610178 -0.01219531 0.98435983
v 1.22029728 0.09521384 0.92402604
v 1.22029728 0.09819743 0.92402604
v 1.19956808 0.10814272 0.95880534
v 1.19697068 0.12339217 0.94986701
v 1.18337820 0.12687302 0.95493779
v 1.07862298 0.19788240 0.92511470
v 1.06202952 0.21512092 0.91282448
v 1.05428763 0.22185056 0.90580559
v 1.03701339 0.22463523 0.90895694
v 0.97172418 0.25045985 0.88351705
v 0.97172418 -0.08400031 0.88609542
v 1.08581002 -0.08821049 0.91116286
v 1.11019577 -0.08303893 0.93554276
v 1.11019577 -0.07567943 0.95215889
v 1.13695203 -0.05612035 0.98524793
v 1.13458150 -0.07011006 0.96281614
v 1.11019577 -0.08751432 0.91116286
v 1.17462757 -0.07458544 0.93554276
v 1.17467805 -0.07478434 0.91992931
v 1.20085423 -0.05459540 0.91116286
v 1.22047383 -0.02542254 0.89683860
v 1.22695472 0.01220381 0.88678298
v 1.22935049 0.03660293 0.88678298
v 1.22410520 0.03660293 0.90632126
v 1.22430692 0.06100204 0.90758181
v 1.22216336 0.08639569 0.91259529
v 1.22054945 0.09859524 0.91116286
v 1.19906377 0.12531493 0.93554276
v 1.12338479 0.19586020 0.87735762
v 1.11975341 0.19334073 0.89360132
v 1.10348785 0.19811446 0.90486020
v 1.02682535 0.24515569 0.85377989
v 1.01136674 0.25045985 0.85930905
v 0.99608467 0.25045985 0.87053927
v 0.97172418 0.25045985 0.80444715
v 0.97172418 -0.08532636 0.87137008
v 0.97172418 -0.08569102 0.86248904
v 1.08581002 -0.08598938 0.88678298
v 1.11019577 -0.08337045 0.88678298
v 1.12888225 -0.07763533 0.88678298
v 1.12411611 -0.07422078 0.87343277
v 1.19863503 -0.05131345 0.89595050
v 1.21628761 -0.02035044 0.88059490
v 1.22163382 -0.00410646 0.87251602
v 1.22221382 -0.01219531 0.88795757
v 1.22385302 0.01220381 0.86870577
v 1.22521473 0.03660293 0.86718740
v 1.22344944 0.05559843 0.87051062
v 1.22551738 0.06262644 0.88523597
v 1.22246601 0.08536800 0.89340078
v 1.22042337 0.09829688 0.89821373
v 1.19886198 0.12504972 0.91557474
v 1.12366214 0.19615856 0.86237445
v 1.01827644 0.25045985 0.84131778
v 1.01227461 0.25045985 0.85730366
v 1.01716685 0.25045985 0.83661943
v 0.97172418 0.22019301 0.74227987
v 0.97172418 -0.07823204 0.83707781
v 0.97172418 -0.07077307 0.81355737
v 1.08581002 -0.07882876 0.86475227
v 1.11019577 -0.07637559 0.86993765
v 0.97172418 -0.04501477 0.74227987
v 1.20002205 -0.02701379 0.87228683
v 1.20799090 -0.01219531 0.86715875
v 1.20166118 0.01641398 0.84538588
v 1.12348565 0.02311048 0.77588458
v 1.21406842 0.03660293 0.85498313
v 1.12535173 0.07615204 0.77333486
v 1.10361395 0.20089915 0.82040437
v 1.21885979 0.07184241 0.87606844
v 1.12308214 0.19579390 0.84859451
v 1.11112887 0.20166162 0.83948428
v 1.10807749 0.05897983 0.75835169
v 1.02611927 0.13118265 0.74227987
v 0.99210025 -0.01093557 0.74227987
v 1.09854508 0.04843782 0.75247874
v 1.10807749 0.03882404 0.76055762
v 1.12532657 0.03660293 0.77259000
v 1.12671351 0.06100204 0.77067055
v 1.09854508 0.04949865 0.75247874
v 1.03330632 0.11815432 0.74227987
v 1.00546577 0.01230326 0.74227987
v 1.03749254 0.08493704 0.74227987
v 1.03708903 0.11082795 0.74227987
f 1 2 3
f 1 3 4
f 1 4 5
f 1 5 6
f 1 6 7
f 1 7 8
f 1 8 9
f 1 9 10
f 1 10 2
f 2 11 3
f 2 10 11
f 3 12 4
f 3 11 13
f 3 13 14
f 3 14 12
f 4 12 15
f 4 15 16
f 4 16 5
f 5 16 17
f 5 17 18
f 5 18 19
f 5 19 20
f 5 20 6
f 6 20 21
f 6 21 22
f 6 22 7
f 7 22 23
f 7 23 24
f 7 24 8
f 8 24 25
f 8 25 26
f 8 26 9
f 9 26 27
f 9 27 10
f 10 27 28
f 10 28 29
f 10 29 11
f 11 29 28
f 11 28 27
f 11 27 52
f 11 52 81
f 11 81 106
f 11 106 128
f 11 128 133
f 11 133 130
f 11 130 129
f 11 129 108
f 11 108 107
f 11 107 82
f 11 82 55
f 11 55 54
f 11 54 53
f 11 53 31
f 11 31 13
f 12 14 30
f 12 30 15
f 13 31 14
f 14 31 32
f 14 32 33
f 14 33 30
f 15 34 35
f 15 35 16
f 15 30 34
f 16 35 36
f 16 36 18
f 16 18 17
f 18 36 37
f 18 37 38
f 18 38 39
f 18 39 40
f 18 40 19
f 19 40 20
f 20 40 41
f 20 41 21
f 21 41 42
f 21 42 43
f 21 43 22
f 22 43 44
f 22 44 23
f 23 44 45
f 23 45 46
f 23 46 24
f 24 46 47
f 24 47 48
f 24 48 49
f 24 49 50
f 24 50 25
f 25 50 26
f 26 51 52
f 26 52 27
f 26 50 51
f 30 33 34
f 31 53 32
f 32 53 54
f 32 54 55
f 32 55 56
f 32 56 57
f 32 57 58
f 32 58 33
f 33 59 34
f 33 58 57
f 33 57 60
f 33 60 59
f 34 59 35
f 35 37 36
f 35 59 61
f 35 61 37
f 37 61 38
f 38 61 62
f 38 62 63
f 38 63 64
f 38 64 39
f 39 64 65
f 39 65 66
f 39 66 67
f 39 67 68
f 39 68 69
f 39 69 70
f 39 70 40
f 40 71 42
f 40 42 41
f 40 70 71
f 42 72 43
f 42 71 70
f 42 70 72
f 43 72 73
f 43 73 44
f 44 73 74
f 44 74 75
f 44 75 47
f 44 47 46
f 44 46 45
f 47 75 76
f 47 76 77
f 47 77 49
f 47 49 48
f 49 77 78
f 49 78 50
f 50 78 79
f 50 79 80
f 50 80 81
f 50 81 51
f 51 81 52
f 55 82 56
f 56 82 83
f 56 83 84
f 56 84 62
f 56 62 85
f 56 85 60
f 56 60 57
f 59 60 86
f 59 86 61
f 60 85 87
f 60 87 61
f 60 61 86
f 61 87 62
f 62 87 85
f 62 84 63
f 63 65 64
f 63 84 88
f 63 88 89
f 63 89 65
f 65 89 90
f 65 90 91
f 65 91 66
f 66 91 67
f 67 91 92
f 67 92 93
f 67 93 68
f 68 93 94
f 68 94 69
f 69 94 95
f 69 95 72
f 69 72 70
f 72 95 96
f 72 96 73
f 73 96 94
f 73 94 97
f 73 97 98
f 73 98 99
f 73 99 75
f 73 75 74
f 75 99 100
f 75 100 101
f 75 101 102
f 75 102 78
f 75 78 76
f 76 78 77
f 78 102 79
f 79 103 104
f 79 104 105
f 79 105 80
f 79 102 101
f 79 101 100
f 79 100 103
f 80 105 81
f 81 105 104
f 81 104 126
f 81 126 125
f 81 125 127
f 81 127 106
f 82 107 83
f 83 107 108
f 83 108 109
f 83 109 88
f 83 88 84
f 88 109 110
f 88 110 90
f 88 90 89
f 90 110 111
f 90 111 112
f 90 112 113
f 90 113 91
f 91 113 92
f 92 113 114
f 92 114 115
f 92 115 116
f 92 116 93
f 93 116 115
f 93 115 117
f 93 117 94
f 94 118 119
f 94 119 120
f 94 120 121
f 94 121 98
f 94 98 97
f 94 96 95
f 94 117 118
f 98 121 122
f 98 122 123
f 98 123 99
f 99 123 124
f 99 124 100
f 100 124 125
f 100 125 103
f 103 125 126
f 103 126 104
f 106 127 128
f 108 129 109
f 109 129 130
f 109 130 131
f 109 131 110
f 110 131 132
f 110 132 112
f 110 112 111
f 112 132 133
f 112 133 113
f 113 133 134
f 113 134 114
f 114 135 115
f 114 134 135
f 115 136 117
f 115 135 137
f 115 137 136
f 117 136 138
f 117 138 118
f 118 138 119
f 119 138 139
f 119 139 140
f 119 140 141
f 119 141 122
f 119 122 121
f 119 121 120
f 122 141 140
f 122 140 142
f 122 142 123
f 123 142 124
f 124 142 143
f 124 143 125
f 125 143 127
f 127 143 140
f 127 140 128
f 128 140 139
f 128 139 144
f 128 144 145
f 128 145 152
f 128 152 155
f 128 155 154
f 128 154 153
f 128 153 146
f 128 146 133
f 130 133 131
f 131 133 132
f 133 146 147
f 133 147 148
f 133 148 137
f 133 137 134
f 134 137 135
f 136 137 149
f 136 149 150
f 136 150 138
f 137 148 149
f 138 150 139
f 139 150 144
f 140 143 142
f 144 150 147
f 144 147 151
f 144 151 145
f 145 151 152
f 146 153 147
f 147 150 149
f 147 149 148
f 147 153 154
f 147 154 151
f 151 154 155
f 151 155 152

