# https://github.com/mikedh/trimesh
v 0.86266834 -0.08943772 0.95808941
v 0.86001902 -0.08943772 0.95939788
v 0.71247196 -0.14159402 1.07249786
v 0.71247196 -0.15161261 1.07249786
v 0.73831307 -0.15161261 1.05148074
v 0.86266834 -0.09425224 0.95620850
v 0.86266834 -0.08943772 0.43486903
v 0.84253346 -0.08943772 0.96634907
v 0.71383738 -0.11891525 1.05017229
v 0.69541435 -0.12612182 1.06546490
v 0.69541435 -0.13832551 1.07560546
v 0.67970189 -0.15161261 1.08361978
v 0.70438132 -0.15161261 1.07527833
v 0.85946883 -0.15161261 0.93012108
v 0.85877591 -0.10980357 0.95228312
v 0.86266834 -0.10571336 0.95048400
v 0.86266834 -0.09241409 0.43380589
v 0.85260094 -0.08943772 0.34998267
v 0.67134625 -0.08943772 1.01827856
v 0.69541435 -0.11636496 1.05327988
v 0.67102018 -0.12604270 1.06530136
v 0.67102018 -0.13824029 1.07740460
v 0.65449247 -0.09207323 1.02637466
v 0.67102018 -0.11512937 1.05303454
v 0.66996047 -0.15161261 1.08435579
v 0.86258683 -0.15161261 0.92603214
v 0.86266834 -0.15161261 0.92472370
v 0.86266834 -0.15161261 0.42374711
v 0.84157563 -0.08943772 0.32593973
v 0.65449247 -0.08943772 1.02285818
v 0.65449247 -0.12676091 1.06497424
v 0.65449247 -0.11535458 1.05270741
v 0.65449247 -0.13896461 1.07625970
v 0.65449247 -0.15161261 1.08321089
v 0.65746793 -0.15161261 1.08345624
v 0.72172421 -0.15161261 0.30091546
v 0.83466701 -0.10160489 0.33346339
v 0.83607322 -0.08943772 0.32144192
v 0.80872403 -0.10071624 0.31097424
v 0.65449247 -0.08943772 0.24890416
v 0.65449247 -0.15161261 0.26607768
v 0.68881144 -0.15161261 0.27719960
v 0.81496015 -0.08943772 0.30631282
v 0.77970371 -0.09681472 0.28946642
v 0.76894338 -0.08943772 0.27826273
v 0.66392817 -0.15161261 0.26877638
v 0.77277472 -0.08943772 0.28006188
f 1 2 3
f 1 3 4
f 1 4 5
f 1 5 6
f 1 6 16
f 1 16 27
f 1 27 28
f 1 28 17
f 1 17 7
f 1 7 18
f 1 18 29
f 1 29 38
f 1 38 43
f 1 43 47
f 1 47 45
f 1 45 40
f 1 40 30
f 1 30 19
f 1 19 8
f 1 8 2
f 2 8 9
f 2 9 10
f 2 10 3
f 3 10 11
f 3 11 12
f 3 12 13
f 3 13 4
f 4 13 12
f 4 12 25
f 4 25 35
f 4 35 34
f 4 34 41
f 4 41 46
f 4 46 42
f 4 42 36
f 4 36 28
f 4 28 27
f 4 27 26
f 4 26 14
f 4 14 5
f 5 14 15
f 5 15 16
f 5 16 6
f 7 17 18
f 8 19 20
f 8 20 9
f 9 20 10
f 10 21 22
f 10 22 11
f 10 20 23
f 10 23 24
f 10 24 21
f 11 22 25
f 11 25 12
f 14 26 16
f 14 16 15
f 16 26 27
f 17 28 18
f 18 28 29
f 19 30 20
f 20 30 23
f 21 31 22
f 21 24 32
f 21 32 31
f 22 31 33
f 22 33 34
f 22 34 35
f 22 35 25
f 23 32 24
f 23 30 40
f 23 40 41
f 23 41 34
f 23 34 33
f 23 33 31
f 23 31 32
f 28 36 37
f 28 37 29
f 29 37 39
f 29 39 38
f 36 42 39
f 36 39 37
f 38 39 43
f 39 42 44
f 39 44 43
f 40 45 41
f 41 45 46
f 42 46 45
f 42 45 47
f 42 47 44
f 43 44 47

