# https://github.com/mikedh/trimesh
v -0.03667021 -0.63302367 0.14853199
v -0.03667021 -0.61216816 0.10605169
v 0.07175667 -0.63302367 0.18170428
v -0.03667021 -0.63302367 0.90624602
v -0.03667021 -0.59528834 0.08634635
v -0.03667021 -0.59367110 0.08446493
v -0.02425006 -0.58612402 0.09357493
v -0.02425006 -0.58528173 0.09357493
v 0.02463439 -0.38518334 0.14229361
v 0.02400809 -0.36890996 0.14308580
v 0.07175667 -0.33474602 0.21329219
v 0.07175667 -0.63302367 0.89832430
v -0.02301866 -0.63302367 0.90862254
v -0.03667021 -0.53794407 0.97239251
v -0.03667021 -0.57749883 0.08406884
v -0.03667021 -0.42773665 0.11308225
v -0.01219083 -0.37820902 0.13021302
v 0.00774511 -0.35934136 0.14011513
v -0.00364533 -0.34306801 0.14358093
v 0.01928418 -0.29744867 0.19477514
v 0.07175667 -0.32005617 0.21655991
v 0.07175667 -0.32032570 0.21646086
v 0.07175667 -0.62685801 0.90555287
v -0.01219083 -0.63302367 0.90872155
v 0.07175667 -0.39778423 1.07398880
v 0.06099254 -0.39737992 1.07388975
v -0.03667021 -0.52611810 0.97902695
v -0.03667021 -0.37820902 0.12328149
v -0.03667021 -0.35381584 0.13100513
v -0.01194667 -0.35226600 0.13773864
v -0.01990831 -0.34057478 0.14179855
v -0.03667021 -0.29215899 0.16665295
v -0.03667021 -0.28882344 0.16873246
v -0.03147922 -0.28882344 0.17081189
v -0.01294452 -0.28882344 0.18150619
v -0.00627799 -0.28882344 0.18546705
v -0.00088530 -0.28882344 0.18873477
v 0.01547321 -0.28882344 0.19962723
v 0.07175667 -0.28882344 0.24171143
v 0.07175667 -0.37884919 1.07785061
v 0.06099254 -0.37820902 1.07854376
v -0.00374088 -0.28882344 1.09567452
v -0.03667021 -0.50135427 0.99140467
v -0.03667021 -0.52500625 0.97962109
v -0.03667021 -0.28882344 1.05864042
v 0.07175667 -0.28882344 1.08121737
v 0.07175667 -0.36746120 1.07953396
v 0.00459231 -0.28882344 1.09547651
v -0.01634149 -0.28882344 1.08725767
v -0.03667021 -0.40229902 1.02715152
v -0.03667021 -0.40071548 1.02764662
v -0.02882535 -0.28882344 1.07458290
v 0.01761755 -0.28882344 1.09300091
f 1 2 3
f 1 3 12
f 1 12 24
f 1 24 13
f 1 13 4
f 1 4 14
f 1 14 27
f 1 27 44
f 1 44 43
f 1 43 50
f 1 50 51
f 1 51 45
f 1 45 33
f 1 33 32
f 1 32 29
f 1 29 28
f 1 28 16
f 1 16 15
f 1 15 6
f 1 6 5
f 1 5 2
f 2 5 3
f 3 5 6
f 3 6 7
f 3 7 8
f 3 8 9
f 3 9 10
f 3 10 11
f 3 11 22
f 3 22 21
f 3 21 39
f 3 39 46
f 3 46 47
f 3 47 40
f 3 40 25
f 3 25 23
f 3 23 12
f 4 13 14
f 6 15 7
f 7 15 8
f 8 15 9
f 9 15 10
f 10 15 16
f 10 16 17
f 10 17 18
f 10 18 19
f 10 19 20
f 10 20 21
f 10 21 22
f 10 22 11
f 12 23 24
f 13 24 25
f 13 25 26
f 13 26 14
f 14 26 27
f 16 28 17
f 17 28 18
f 18 28 29
f 18 29 30
f 18 30 19
f 19 30 29
f 19 29 31
f 19 31 32
f 19 32 33
f 19 33 34
f 19 34 35
f 19 35 36
f 19 36 37
f 19 37 20
f 20 37 38
f 20 38 39
f 20 39 21
f 23 25 24
f 25 40 41
f 25 41 26
f 26 41 42
f 26 42 43
f 26 43 44
f 26 44 27
f 29 32 31
f 33 45 52
f 33 52 49
f 33 49 42
f 33 42 48
f 33 48 53
f 33 53 46
f 33 46 39
f 33 39 38
f 33 38 37
f 33 37 36
f 33 36 35
f 33 35 34
f 40 47 48
f 40 48 41
f 41 48 42
f 42 49 43
f 43 49 50
f 45 51 52
f 46 53 47
f 47 53 48
f 49 52 50
f 50 52 51

