# https://github.com/mikedh/trimesh
v -0.03668083 0.29970317 0.44387206
v -0.17590825 0.33407610 0.44046324
v -0.17590825 0.33335692 0.44387206
v -0.03668083 0.20643948 0.44387206
v -0.03668083 0.28305607 0.32563424
v -0.04432634 0.29624057 0.33112083
v -0.07220998 0.31784183 0.33209481
v -0.08319445 0.32398128 0.32459536
v -0.11849193 0.34247954 0.31518049
v -0.17590825 0.33709919 0.42345153
v -0.17590825 0.20643948 0.44387206
v -0.03668083 0.20643948 0.24112765
v -0.03668083 0.28197734 0.32407594
v -0.04975043 0.29161932 0.31485584
v -0.07358646 0.31681637 0.31582979
v -0.10677153 0.33607372 0.30115557
v -0.11896892 0.34247954 0.30115557
v -0.12545603 0.34247954 0.31518049
v -0.17590825 0.33917673 0.39874560
v -0.17590825 0.20643948 0.11224127
v -0.04169607 0.20643948 0.23427750
v -0.04807415 0.22046298 0.23921220
v -0.03668083 0.21221934 0.24697136
v -0.03668083 0.27116338 0.31125221
v -0.07785212 0.31188883 0.30115557
v -0.04312705 0.27535844 0.30647985
v -0.07196468 0.29422960 0.28755271
v -0.09528282 0.31955982 0.28631902
v -0.09004953 0.32387475 0.30115557
v -0.12146292 0.34188023 0.28852665
v -0.12533337 0.34247954 0.30115557
v -0.17590825 0.34028212 0.32556930
v -0.17590825 0.20741166 0.11237115
v -0.16435138 0.20741166 0.11454628
v -0.16402430 0.20643948 0.11448134
v -0.04255465 0.20643948 0.23333603
v -0.04292262 0.20741166 0.23369314
v -0.05457488 0.20741166 0.22148628
v -0.16812646 0.24756445 0.13908988
v -0.07896966 0.23715004 0.22210310
v -0.11959583 0.27130987 0.21255836
v -0.14268229 0.27130987 0.18830697
v -0.16769035 0.27087038 0.16360102
v -0.11984113 0.31877407 0.26219746
v -0.11252270 0.32729739 0.27930656
v -0.14573504 0.31746894 0.23973166
v -0.12297566 0.34188023 0.28852665
v -0.17590825 0.33779172 0.30115557
v -0.17590825 0.22250058 0.11685128
v -0.16966645 0.22100901 0.11746815
v -0.16322024 0.20643948 0.11480603
v -0.05417966 0.20643948 0.22109669
v -0.06547757 0.20643948 0.20979883
v -0.06639068 0.20643948 0.20888983
v -0.12758206 0.20643948 0.14814764
v -0.17590825 0.22821387 0.12003290
v -0.17590825 0.24953548 0.13704459
v -0.17590825 0.25591464 0.14421939
v -0.17590825 0.27130987 0.16226996
v -0.14722053 0.31746894 0.23973166
v -0.17590825 0.32872236 0.27047608
v -0.17590825 0.33133264 0.27791056
v -0.17590825 0.33751204 0.29998682
v -0.14490370 0.20643948 0.13129826
f 1 2 3
f 1 3 11
f 1 11 4
f 1 4 12
f 1 12 23
f 1 23 24
f 1 24 13
f 1 13 5
f 1 5 6
f 1 6 7
f 1 7 8
f 1 8 9
f 1 9 2
f 2 9 10
f 2 10 19
f 2 19 32
f 2 32 48
f 2 48 63
f 2 63 62
f 2 62 61
f 2 61 59
f 2 59 58
f 2 58 57
f 2 57 56
f 2 56 49
f 2 49 33
f 2 33 20
f 2 20 11
f 2 11 3
f 4 11 20
f 4 20 35
f 4 35 51
f 4 51 64
f 4 64 55
f 4 55 54
f 4 54 53
f 4 53 52
f 4 52 36
f 4 36 21
f 4 21 12
f 5 13 6
f 6 13 14
f 6 14 15
f 6 15 7
f 7 15 8
f 8 15 16
f 8 16 9
f 9 16 17
f 9 17 31
f 9 31 18
f 9 18 19
f 9 19 10
f 12 21 22
f 12 22 23
f 13 24 14
f 14 25 15
f 14 24 26
f 14 26 22
f 14 22 27
f 14 27 28
f 14 28 25
f 15 25 29
f 15 29 16
f 16 29 30
f 16 30 17
f 17 30 47
f 17 47 31
f 18 31 32
f 18 32 19
f 20 33 34
f 20 34 35
f 21 36 37
f 21 37 22
f 22 37 38
f 22 38 39
f 22 39 40
f 22 40 28
f 22 28 27
f 22 26 24
f 22 24 23
f 25 28 29
f 28 40 41
f 28 41 42
f 28 42 43
f 28 43 44
f 28 44 45
f 28 45 30
f 28 30 29
f 30 45 44
f 30 44 43
f 30 43 46
f 30 46 60
f 30 60 47
f 31 47 32
f 32 47 48
f 33 49 50
f 33 50 34
f 34 50 51
f 34 51 35
f 36 52 37
f 37 52 38
f 38 52 39
f 39 53 54
f 39 54 55
f 39 55 50
f 39 50 56
f 39 56 57
f 39 57 43
f 39 43 42
f 39 42 40
f 39 52 53
f 40 42 41
f 43 57 58
f 43 58 59
f 43 59 46
f 46 59 60
f 47 60 61
f 47 61 62
f 47 62 63
f 47 63 48
f 49 56 50
f 50 64 51
f 50 55 64
f 59 61 60

