# https://github.com/mikedh/trimesh
v -0.47580442 0.38255172 0.29345379
v -0.55950388 0.39080892 0.18880621
v -0.55950388 0.39076958 0.19296858
v -0.55950388 0.38200124 0.29345379
v -0.46280891 0.38129348 0.29345379
v -0.55047424 0.38377065 0.18013634
v -0.54899766 0.34578757 0.11104136
v -0.55950388 0.34547300 0.11173167
v -0.55950388 -0.01088395 0.29345379
v -0.46280891 0.33112121 0.15520286
v -0.46280891 -0.01088395 0.29345379
v -0.53193216 0.34342836 0.11500062
v -0.54899766 0.33481727 0.09883853
v -0.55950388 0.33922109 0.10476735
v -0.55950388 -0.01088395 0.14673601
v -0.46280891 0.32030820 0.13634028
v -0.46280891 -0.01088395 0.12817801
v -0.48686909 0.31822426 0.11743710
v -0.50020533 0.32270672 0.11374180
v -0.52542023 0.32919452 0.10588407
v -0.53517868 0.31861744 0.09317367
v -0.54899766 0.32258877 0.09138693
v -0.55950388 0.32278536 0.09126505
v -0.55950388 0.33300856 0.09922430
v -0.52972683 -0.01088395 0.13581239
v -0.55950388 0.04459653 0.11569100
v -0.54728452 0.03763690 0.11288897
v -0.53800874 0.02375694 0.11713256
v -0.46280891 0.31248352 0.12856382
v -0.47580442 0.02851466 0.09692991
v -0.46280891 0.04369217 0.09094022
v -0.46377434 -0.01088395 0.12817801
v -0.46280891 0.30819765 0.12442174
v -0.46280891 0.30237830 0.12015790
v -0.46280891 0.29750262 0.11670621
v -0.46280891 0.29298081 0.11410728
v -0.46280891 0.24760557 0.09116354
v -0.47580442 0.23179894 0.08602661
v -0.54899766 0.30497342 0.08834129
v -0.55950388 0.31511797 0.08994530
v -0.52682106 -0.01088395 0.13506114
v -0.50153043 0.03531702 0.09749849
v -0.49428021 0.04259122 0.09144779
v -0.55950388 0.06103228 0.11299048
v -0.54899766 0.06103228 0.10769111
v -0.52459677 0.03661458 0.10458461
v -0.47580442 0.04070386 0.09002652
v -0.47580442 -0.01088395 0.12819834
v -0.50020533 -0.01088395 0.12968054
v -0.46280891 0.06115025 0.08996559
v -0.46280891 0.23179894 0.08862555
v -0.50020533 0.23179894 0.08683880
v -0.47635342 0.06150413 0.08945802
v -0.55950388 0.30544525 0.08888951
v -0.55950388 0.28000523 0.08911283
f 1 2 3
f 1 3 4
f 1 4 9
f 1 9 11
f 1 11 5
f 1 5 2
f 2 5 6
f 2 6 7
f 2 7 8
f 2 8 14
f 2 14 24
f 2 24 23
f 2 23 40
f 2 40 54
f 2 54 55
f 2 55 44
f 2 44 26
f 2 26 15
f 2 15 9
f 2 9 4
f 2 4 3
f 5 10 6
f 5 11 17
f 5 17 31
f 5 31 50
f 5 50 51
f 5 51 37
f 5 37 36
f 5 36 35
f 5 35 34
f 5 34 33
f 5 33 29
f 5 29 16
f 5 16 10
f 6 12 7
f 6 10 12
f 7 12 13
f 7 13 14
f 7 14 8
f 9 15 25
f 9 25 41
f 9 41 49
f 9 49 48
f 9 48 32
f 9 32 17
f 9 17 11
f 10 16 12
f 12 16 18
f 12 18 19
f 12 19 20
f 12 20 13
f 13 20 21
f 13 21 22
f 13 22 23
f 13 23 24
f 13 24 14
f 15 26 27
f 15 27 28
f 15 28 25
f 16 29 18
f 17 30 31
f 17 32 30
f 18 21 19
f 18 29 33
f 18 33 34
f 18 34 35
f 18 35 21
f 19 21 20
f 21 35 36
f 21 36 37
f 21 37 22
f 22 37 38
f 22 38 39
f 22 39 23
f 23 39 40
f 25 28 42
f 25 42 41
f 26 43 27
f 26 44 45
f 26 45 43
f 27 43 46
f 27 46 28
f 28 46 42
f 30 42 43
f 30 43 47
f 30 47 31
f 30 32 48
f 30 48 49
f 30 49 41
f 30 41 42
f 31 47 50
f 37 51 38
f 38 52 39
f 38 51 50
f 38 50 53
f 38 53 52
f 39 54 40
f 39 52 55
f 39 55 54
f 42 46 43
f 43 45 55
f 43 55 47
f 44 55 45
f 47 53 50
f 47 55 53
f 52 53 55

