# https://github.com/mikedh/trimesh
v -0.40259548 0.46382302 0.82036512
v -0.40828307 0.46382302 0.82036512
v -0.37819727 0.46325160 0.82036512
v -0.40828307 0.57924783 0.61981204
v -0.40828307 -0.72070980 0.82036512
v -0.37545094 0.46282308 0.82036512
v -0.37609471 0.57396227 0.59618065
v -0.39702599 0.58453338 0.59398481
v -0.40828307 0.58567622 0.59398481
v -0.35011367 0.45853746 0.82036512
v -0.34794612 0.45810893 0.82036512
v -0.40828307 -0.81799234 0.61838300
v -0.36581807 -0.82942058 0.72793086
v -0.34794612 -0.80827842 0.76836214
v -0.34794612 -0.79299316 0.78070065
v -0.39584478 -0.71513853 0.82036512
v -0.36154202 0.56753395 0.58948858
v -0.37819727 0.58339055 0.56958664
v -0.40828307 0.58581903 0.57777745
v -0.34794612 0.47710832 0.75584935
v -0.35921502 0.57124808 0.56958664
v -0.34794612 -0.67971112 0.82036512
v -0.40828307 -0.81842094 0.61702367
v -0.39712638 -0.83384894 0.61838300
v -0.36824546 -0.83270618 0.71165378
v -0.34794612 -0.84813426 0.70994591
v -0.34954668 -0.83256329 0.73441381
v -0.34794612 -0.83213477 0.73619138
v -0.34794612 -0.82599209 0.74511416
v -0.35613200 -0.82442073 0.74166356
v -0.38623553 -0.71071010 0.82036512
v -0.37819727 0.58053348 0.54518843
v -0.40259548 0.58124778 0.52079026
v -0.40259548 0.58381908 0.54518843
v -0.40110714 0.58524762 0.56962149
v -0.36046710 0.56953383 0.54518843
v -0.40828307 0.58567622 0.56962149
v -0.34794612 0.48110816 0.73430924
v -0.35335615 0.54896308 0.56958664
v -0.40828307 -0.82042082 0.59398481
v -0.39997907 -0.83656320 0.59398481
v -0.38595201 -0.85070556 0.56958664
v -0.37375590 -0.85841960 0.56958664
v -0.35380499 -0.87156202 0.54518843
v -0.34794612 -0.87356197 0.54518843
v -0.36321347 0.56524829 0.52873709
v -0.37759484 0.57067666 0.52068570
v -0.40828307 0.58167631 0.52079026
v -0.40269587 0.57081955 0.49586925
v -0.40828307 0.57239091 0.49597382
v -0.40828307 0.58410479 0.54501417
v -0.35635645 0.54896308 0.54518843
v -0.34794612 0.42225293 0.46432588
v -0.34794612 0.49296493 0.66714452
v -0.34794612 0.49396487 0.66097527
v -0.34794612 0.50439310 0.59398481
v -0.34794612 0.50296456 0.56826216
v -0.34794612 0.50182180 0.56638001
v -0.40828307 -0.81999229 0.59084791
v -0.39735675 -0.83856309 0.56958664
v -0.37558679 -0.86084808 0.54518843
v -0.37140523 -0.85884820 0.52908564
v -0.35380499 -0.86370516 0.52431056
v -0.34794612 -0.86841930 0.53176944
v -0.38531416 0.56639112 0.50364183
v -0.40828307 0.56681964 0.48610997
v -0.37819727 0.42996697 0.46432588
v -0.40828307 0.56153408 0.48349588
v -0.34794612 -0.83542037 0.46432588
v -0.40828307 -0.72070980 0.46432588
v -0.39306300 -0.83642031 0.55031205
v -0.38796599 -0.84342012 0.54337602
v -0.37246836 -0.81227826 0.46432588
v -0.36443603 -0.82070653 0.46432588
v -0.36049073 -0.82456355 0.46432588
v -0.34828870 -0.83513466 0.46432588
v -0.34794612 -0.86499081 0.52284668
v -0.39591563 0.43396688 0.46432588
v -0.40243008 0.43539541 0.46432588
v -0.40442045 0.43582394 0.46432588
v -0.40828307 0.43653817 0.46432588
v -0.38278042 -0.79170751 0.46432588
v -0.38003997 -0.79856442 0.46432588
f 1 2 5
f 1 5 16
f 1 16 31
f 1 31 22
f 1 22 11
f 1 11 10
f 1 10 6
f 1 6 3
f 1 3 4
f 1 4 2
f 2 4 9
f 2 9 19
f 2 19 37
f 2 37 51
f 2 51 48
f 2 48 50
f 2 50 66
f 2 66 68
f 2 68 81
f 2 81 70
f 2 70 59
f 2 59 40
f 2 40 23
f 2 23 12
f 2 12 5
f 3 6 4
f 4 7 8
f 4 8 9
f 4 6 10
f 4 10 11
f 4 11 7
f 5 12 13
f 5 13 14
f 5 14 15
f 5 15 16
f 7 17 18
f 7 18 8
f 7 11 17
f 8 18 9
f 9 18 19
f 11 20 21
f 11 21 17
f 11 22 15
f 11 15 14
f 11 14 29
f 11 29 28
f 11 28 26
f 11 26 45
f 11 45 64
f 11 64 77
f 11 77 69
f 11 69 53
f 11 53 58
f 11 58 57
f 11 57 56
f 11 56 55
f 11 55 54
f 11 54 38
f 11 38 20
f 12 23 24
f 12 24 13
f 13 24 25
f 13 25 26
f 13 26 27
f 13 27 28
f 13 28 29
f 13 29 30
f 13 30 14
f 14 30 29
f 15 22 31
f 15 31 16
f 17 21 18
f 18 32 33
f 18 33 34
f 18 34 35
f 18 35 19
f 18 21 36
f 18 36 32
f 19 35 37
f 20 38 39
f 20 39 21
f 21 39 36
f 23 40 41
f 23 41 24
f 24 41 42
f 24 42 26
f 24 26 25
f 26 42 43
f 26 43 44
f 26 44 45
f 26 28 27
f 32 36 46
f 32 46 47
f 32 47 33
f 33 48 34
f 33 47 49
f 33 49 50
f 33 50 48
f 34 51 37
f 34 37 35
f 34 48 51
f 36 39 52
f 36 52 53
f 36 53 46
f 38 54 39
f 39 54 55
f 39 55 56
f 39 56 57
f 39 57 58
f 39 58 53
f 39 53 52
f 40 59 60
f 40 60 41
f 41 60 42
f 42 61 43
f 42 60 61
f 43 61 44
f 44 61 62
f 44 62 63
f 44 63 45
f 45 63 64
f 46 65 47
f 46 53 65
f 47 65 49
f 49 65 66
f 49 66 50
f 53 67 68
f 53 68 65
f 53 69 76
f 53 76 75
f 53 75 74
f 53 74 73
f 53 73 83
f 53 83 82
f 53 82 70
f 53 70 81
f 53 81 80
f 53 80 79
f 53 79 78
f 53 78 67
f 59 70 60
f 60 70 71
f 60 71 72
f 60 72 61
f 61 72 62
f 62 72 73
f 62 73 74
f 62 74 75
f 62 75 76
f 62 76 69
f 62 69 63
f 63 77 64
f 63 69 77
f 65 68 66
f 67 78 68
f 68 78 79
f 68 79 80
f 68 80 81
f 70 82 71
f 71 82 83
f 71 83 72
f 72 83 73

