# https://github.com/mikedh/trimesh
v -0.26510898 0.04268630 0.16943316
v -0.26510898 0.16891214 0.15241537
v -0.19973644 0.18302810 0.11492303
v -0.19767580 0.16816546 0.11659445
v -0.18300693 0.16556984 0.11488507
v -0.17590825 0.16567650 0.11507501
v -0.17590825 0.16212084 0.11697432
v -0.26340634 0.04268630 0.16981304
v -0.26510898 0.04268630 0.49778533
v -0.26510898 0.19181058 0.15089593
v -0.26510898 0.24055864 0.14857878
v -0.19985867 0.20741991 0.11465717
v -0.18300693 0.18302810 0.10975695
v -0.17590825 0.17801464 0.11142836
v -0.17590825 0.15344503 0.12286217
v -0.23296843 0.04268630 0.17885374
v -0.25628146 0.04268630 0.17163636
v -0.17590825 0.04268630 0.49778533
v -0.26510898 0.37656254 0.49778533
v -0.26510898 0.25663022 0.15078195
v -0.19784171 0.22430929 0.11625260
v -0.18300693 0.20741991 0.11101053
v -0.17590825 0.18327700 0.11074460
v -0.17590825 0.14832489 0.12639487
v -0.18300693 0.04268630 0.20130351
v -0.17590825 0.32688999 0.49778533
v -0.17590825 0.04268630 0.20468431
v -0.25619416 0.40209216 0.34994330
v -0.26510898 0.40411888 0.32555618
v -0.25500667 0.37137130 0.49778533
v -0.21932985 0.39060738 0.36240275
v -0.23179840 0.39914099 0.34994330
v -0.26510898 0.26391931 0.15233941
v -0.18300693 0.23636298 0.12297612
v -0.18300693 0.22420261 0.11617661
v -0.26510898 0.27888863 0.15963274
v -0.26510898 0.29023118 0.16544460
v -0.17590825 0.20741991 0.11237798
v -0.17590825 0.20112640 0.11169422
v -0.17590825 0.22249591 0.11686037
v -0.17590825 0.33709475 0.42344646
v -0.19092638 0.37108682 0.34227009
v -0.21650959 0.39231410 0.34994330
v -0.25619416 0.40593227 0.32555618
v -0.26510898 0.39906987 0.30029539
v -0.21574997 0.39274081 0.33273556
v -0.23076810 0.39825205 0.32498640
v -0.18300693 0.25129674 0.13516967
v -0.17590825 0.24951890 0.13706899
v -0.17590825 0.22818496 0.12005119
v -0.26510898 0.29279126 0.16719197
v -0.17590825 0.33915703 0.39875545
v -0.18994845 0.37186909 0.32555618
v -0.25486696 0.39711424 0.29968762
v -0.26510898 0.39338080 0.28388537
v -0.20753364 0.38438497 0.32498640
v -0.19248060 0.36874012 0.31043770
v -0.23821604 0.39423414 0.30679101
v -0.18300693 0.26349264 0.14892066
v -0.26510898 0.29638248 0.17076266
v -0.26510898 0.31266739 0.18793240
v -0.17590825 0.25588353 0.14424833
v -0.17590825 0.34025928 0.32555618
v -0.18157498 0.35377078 0.32555618
v -0.17590825 0.33777030 0.30120706
v -0.17590825 0.33748587 0.30002950
v -0.17590825 0.33133457 0.27792158
v -0.17590825 0.32870339 0.27047630
v -0.26211409 0.39302521 0.28513892
v -0.26510898 0.31682749 0.19268069
v -0.17590825 0.27127953 0.16225378
v -0.24584736 0.38918513 0.29057096
f 1 2 3
f 1 3 4
f 1 4 5
f 1 5 6
f 1 6 7
f 1 7 8
f 1 8 17
f 1 17 16
f 1 16 25
f 1 25 27
f 1 27 18
f 1 18 9
f 1 9 19
f 1 19 29
f 1 29 45
f 1 45 55
f 1 55 70
f 1 70 61
f 1 61 60
f 1 60 51
f 1 51 37
f 1 37 36
f 1 36 33
f 1 33 20
f 1 20 11
f 1 11 10
f 1 10 2
f 2 10 3
f 3 10 11
f 3 11 12
f 3 12 13
f 3 13 4
f 4 13 5
f 5 13 14
f 5 14 6
f 6 14 23
f 6 23 39
f 6 39 38
f 6 38 40
f 6 40 50
f 6 50 49
f 6 49 62
f 6 62 71
f 6 71 68
f 6 68 67
f 6 67 66
f 6 66 65
f 6 65 63
f 6 63 52
f 6 52 41
f 6 41 26
f 6 26 18
f 6 18 27
f 6 27 24
f 6 24 15
f 6 15 7
f 7 15 16
f 7 16 17
f 7 17 8
f 9 18 26
f 9 26 30
f 9 30 19
f 11 20 12
f 12 21 22
f 12 22 13
f 12 20 21
f 13 23 14
f 13 22 23
f 15 24 16
f 16 24 25
f 19 28 29
f 19 30 31
f 19 31 32
f 19 32 28
f 20 33 21
f 21 34 35
f 21 35 22
f 21 33 36
f 21 36 37
f 21 37 34
f 22 38 39
f 22 39 23
f 22 35 40
f 22 40 38
f 24 27 25
f 26 41 42
f 26 42 43
f 26 43 31
f 26 31 30
f 28 32 44
f 28 44 29
f 29 44 45
f 31 43 32
f 32 43 46
f 32 46 47
f 32 47 44
f 34 48 49
f 34 49 50
f 34 50 40
f 34 40 35
f 34 37 51
f 34 51 48
f 41 52 53
f 41 53 42
f 42 53 43
f 43 53 46
f 44 47 54
f 44 54 45
f 45 54 55
f 46 53 56
f 46 56 47
f 47 56 57
f 47 57 58
f 47 58 54
f 48 59 49
f 48 51 60
f 48 60 61
f 48 61 59
f 49 59 62
f 52 63 64
f 52 64 53
f 53 64 65
f 53 65 66
f 53 66 67
f 53 67 68
f 53 68 57
f 53 57 56
f 54 69 55
f 54 58 69
f 55 69 71
f 55 71 59
f 55 59 70
f 57 68 71
f 57 71 58
f 58 71 72
f 58 72 69
f 59 71 62
f 59 61 70
f 63 65 64
f 69 72 71

