# https://github.com/mikedh/trimesh
v 0.17186725 -0.52203755 0.28363475
v 0.17186725 -0.33293713 0.28612606
v 0.28059138 -0.23183218 0.24718766
v 0.28167710 -0.23179760 0.24691082
v 0.28167710 -0.25618316 0.25004804
v 0.28167710 -0.40450265 0.31777506
v 0.17261973 -0.52203755 0.28428063
v 0.17186725 -0.52203755 0.88902563
v 0.17186725 -0.25493794 0.29332322
v 0.25980114 -0.23183218 0.25724521
v 0.26435907 -0.21557516 0.26038243
v 0.28059138 -0.21121690 0.25715293
v 0.28167710 -0.21215081 0.25650705
v 0.28167710 -0.42567140 0.32986259
v 0.17389897 -0.52203755 0.28557246
v 0.18106913 -0.52203755 0.88468888
v 0.28167710 -0.46939244 0.93562255
v 0.28167710 -0.44466097 0.97954361
v 0.28167710 -0.39467926 1.05059238
v 0.21969340 -0.39035557 1.04533293
v 0.17186725 -0.25085639 1.14987612
v 0.17186725 -0.23190137 0.30125854
v 0.28167710 -0.16870647 0.28409611
v 0.17186725 -0.21720087 0.31103929
v 0.28167710 -0.21094017 0.25715293
v 0.28167710 -0.17607403 0.27939029
v 0.28167710 -0.52203755 0.40192634
v 0.28158036 -0.52203755 0.83680017
v 0.28167710 -0.52193378 0.83689244
v 0.28167710 -0.20263872 1.14978384
v 0.25828540 -0.20959118 1.15439741
v 0.20740631 -0.23183218 1.15522785
v 0.18300412 -0.23183218 1.15956459
v 0.17186725 -0.24127512 1.15568921
v 0.17186725 -0.16870647 0.34582547
v 0.28167710 -0.16870647 1.16021047
v 0.28167710 -0.52203755 0.83569292
v 0.28167710 -0.18306109 1.15790371
v 0.28059138 -0.18302650 1.15827279
v 0.20740631 -0.16870647 1.18623093
v 0.20488009 -0.16870647 1.18678457
v 0.18299336 -0.16870647 1.18955271
v 0.17186725 -0.23183218 1.16085638
v 0.17186725 -0.16870647 1.18918360
v 0.28069887 -0.16870647 1.16057954
v 0.28167710 -0.18195424 1.15808824
v 0.28020440 -0.16870647 1.16076410
f 1 2 3
f 1 3 4
f 1 4 5
f 1 5 6
f 1 6 7
f 1 7 15
f 1 15 27
f 1 27 37
f 1 37 28
f 1 28 16
f 1 16 8
f 1 8 21
f 1 21 34
f 1 34 43
f 1 43 44
f 1 44 35
f 1 35 24
f 1 24 22
f 1 22 9
f 1 9 2
f 2 9 3
f 3 10 11
f 3 11 12
f 3 12 4
f 3 9 10
f 4 12 13
f 4 13 25
f 4 25 26
f 4 26 23
f 4 23 36
f 4 36 46
f 4 46 38
f 4 38 30
f 4 30 19
f 4 19 18
f 4 18 17
f 4 17 29
f 4 29 37
f 4 37 27
f 4 27 14
f 4 14 6
f 4 6 5
f 6 14 7
f 7 14 15
f 8 16 17
f 8 17 18
f 8 18 19
f 8 19 20
f 8 20 21
f 9 11 10
f 9 22 11
f 11 23 12
f 11 22 24
f 11 24 23
f 12 25 13
f 12 23 26
f 12 26 25
f 14 27 15
f 16 28 17
f 17 28 29
f 19 30 31
f 19 31 32
f 19 32 33
f 19 33 34
f 19 34 21
f 19 21 20
f 23 24 35
f 23 35 44
f 23 44 42
f 23 42 41
f 23 41 40
f 23 40 47
f 23 47 45
f 23 45 36
f 28 37 29
f 30 38 39
f 30 39 31
f 31 39 40
f 31 40 32
f 32 40 41
f 32 41 33
f 33 41 42
f 33 42 43
f 33 43 34
f 36 45 46
f 38 46 40
f 38 40 39
f 40 46 47
f 42 44 43
f 45 47 46

