# https://github.com/mikedh/trimesh
v -0.46280891 -0.01088395 0.44765765
v -0.46280891 -0.01088395 0.12818859
v -0.55950388 -0.01088395 0.44765765
v -0.46280891 -0.70226786 0.44765765
v -0.46377434 -0.01088395 0.12818859
v -0.46280891 -0.14669406 0.10932079
v -0.55950388 -0.01088395 0.14674422
v -0.55950388 -0.67415927 0.44765765
v -0.52459677 -0.68462829 0.44765765
v -0.46280891 -0.71302368 0.43499821
v -0.47580442 -0.01088395 0.12822328
v -0.46280891 -0.18204484 0.10481192
v -0.52459677 -0.03662620 0.12784177
v -0.50020533 -0.01088395 0.12967996
v -0.52972683 -0.01088395 0.13581893
v -0.55950388 -0.01647696 0.14365739
v -0.55950388 -0.68219029 0.43218885
v -0.55911583 -0.68233369 0.43243164
v -0.51890829 -0.71130275 0.41508992
v -0.50020533 -0.71495972 0.41900915
v -0.55019028 -0.67717095 0.44765765
v -0.53253795 -0.68233369 0.44765765
v -0.47580442 -0.72922911 0.40655781
v -0.46280891 -0.72628914 0.41463903
v -0.55950388 -0.08545761 0.12735619
v -0.46280891 -0.19531035 0.10512410
v -0.51128892 -0.41573289 0.09336645
v -0.51128892 -0.41358171 0.09336645
v -0.51560498 -0.41358171 0.09336645
v -0.54899766 -0.06100605 0.12877822
v -0.55950388 -0.06100605 0.13068579
v -0.54899766 -0.03662620 0.13269742
v -0.52682106 -0.01088395 0.13505591
v -0.54899766 -0.01819790 0.13894045
v -0.55950388 -0.03691304 0.13595768
v -0.55950388 -0.68627753 0.41838483
v -0.52124616 -0.71531822 0.39875403
v -0.50109502 -0.72722131 0.39913555
v -0.49356086 -0.73403328 0.39126240
v -0.47580442 -0.73639959 0.39434923
v -0.46280891 -0.73682986 0.39719326
v -0.54899766 -0.40253906 0.10255753
v -0.55950388 -0.40311273 0.10737857
v -0.46280891 -0.45244605 0.13127542
v -0.48449332 -0.44520381 0.11469673
v -0.48384025 -0.42699064 0.11334404
v -0.49951437 -0.45258945 0.11230359
v -0.50718107 -0.46714568 0.11636153
v -0.51560498 -0.41573289 0.09336645
v -0.55950388 -0.68663603 0.40517046
v -0.51834985 -0.71474455 0.37433689
v -0.49356086 -0.73403328 0.38134294
v -0.46280891 -0.74342674 0.37294954
v -0.55950388 -0.42742087 0.10911274
v -0.46280891 -0.46298677 0.13758779
v -0.49092011 -0.46148094 0.11944836
v -0.46280891 -0.65150036 0.27025193
v -0.46280891 -0.67494804 0.28911970
v -0.51827412 -0.46714568 0.11636153
v -0.54899766 -0.45976000 0.11962176
v -0.55950388 -0.45079682 0.11806102
v -0.54899766 -0.42699064 0.10585244
v -0.55950388 -0.68434149 0.39913555
v -0.55950388 -0.68061275 0.39178266
v -0.51504653 -0.71051390 0.35945768
v -0.50109502 -0.72700621 0.37367792
v -0.46280891 -0.73898099 0.35533037
v -0.46280891 -0.46642861 0.13973816
v -0.46280891 -0.64418642 0.26508407
v -0.46280891 -0.70542287 0.31537505
v -0.52459677 -0.49088019 0.13696347
v -0.52568525 -0.47546350 0.12381848
v -0.55950388 -0.45646156 0.12073165
v -0.54984952 -0.47739957 0.13186502
v -0.55950388 -0.46750422 0.12818859
v -0.55950388 -0.67186474 0.37499585
v -0.55950388 -0.66103722 0.35983923
v -0.53282191 -0.67910698 0.34360737
v -0.55950388 -0.47467476 0.13325236
v -0.54228695 -0.48994803 0.13904451
v -0.55950388 -0.65558761 0.35259037
f 1 2 5
f 1 5 11
f 1 11 14
f 1 14 33
f 1 33 15
f 1 15 7
f 1 7 3
f 1 3 8
f 1 8 21
f 1 21 22
f 1 22 9
f 1 9 4
f 1 4 10
f 1 10 24
f 1 24 41
f 1 41 53
f 1 53 67
f 1 67 70
f 1 70 58
f 1 58 57
f 1 57 69
f 1 69 68
f 1 68 55
f 1 55 44
f 1 44 26
f 1 26 12
f 1 12 6
f 1 6 2
f 2 6 5
f 3 7 16
f 3 16 35
f 3 35 31
f 3 31 25
f 3 25 43
f 3 43 54
f 3 54 61
f 3 61 73
f 3 73 75
f 3 75 79
f 3 79 81
f 3 81 77
f 3 77 76
f 3 76 64
f 3 64 63
f 3 63 50
f 3 50 36
f 3 36 17
f 3 17 8
f 4 9 10
f 5 6 11
f 6 12 13
f 6 13 14
f 6 14 11
f 7 15 16
f 8 17 18
f 8 18 19
f 8 19 20
f 8 20 21
f 9 22 10
f 10 20 23
f 10 23 24
f 10 22 21
f 10 21 20
f 12 25 13
f 12 26 27
f 12 27 28
f 12 28 29
f 12 29 25
f 13 25 30
f 13 30 31
f 13 31 32
f 13 32 14
f 14 32 33
f 15 33 32
f 15 32 34
f 15 34 16
f 16 34 35
f 17 36 37
f 17 37 38
f 17 38 18
f 18 38 19
f 19 38 20
f 20 38 23
f 23 38 39
f 23 39 40
f 23 40 41
f 23 41 24
f 25 31 30
f 25 29 42
f 25 42 43
f 26 44 45
f 26 45 46
f 26 46 27
f 27 46 45
f 27 45 47
f 27 47 48
f 27 48 59
f 27 59 49
f 27 49 29
f 27 29 28
f 29 49 42
f 31 35 32
f 32 35 34
f 36 50 37
f 37 51 52
f 37 52 39
f 37 39 38
f 37 50 51
f 39 52 53
f 39 53 40
f 40 53 41
f 42 49 54
f 42 54 43
f 44 55 56
f 44 56 45
f 45 56 47
f 47 56 48
f 48 56 57
f 48 57 58
f 48 58 59
f 49 60 61
f 49 61 62
f 49 62 54
f 49 59 60
f 50 63 51
f 51 63 64
f 51 64 65
f 51 65 66
f 51 66 52
f 52 66 67
f 52 67 53
f 54 62 61
f 55 68 56
f 56 68 69
f 56 69 57
f 58 70 71
f 58 71 72
f 58 72 59
f 59 72 60
f 60 73 61
f 60 72 74
f 60 74 75
f 60 75 73
f 64 76 65
f 65 70 67
f 65 67 66
f 65 76 77
f 65 77 78
f 65 78 79
f 65 79 70
f 70 79 80
f 70 80 71
f 71 80 72
f 72 80 74
f 74 79 75
f 74 80 79
f 77 81 78
f 78 81 79

