# https://github.com/mikedh/trimesh
v -0.84886864 -0.24305798 0.24813531
v -0.86532850 -0.24305798 0.25241780
v -0.86620563 -0.21876857 0.17137411
v -0.84886864 -0.21785026 0.17251945
v -0.84886864 -0.24305798 0.36627740
v -0.90150418 -0.21948028 0.19203964
v -0.89226504 -0.21826349 0.17842031
v -0.95275809 -0.24305798 0.36062549
v -0.86620563 -0.21250109 0.15479189
v -0.84886864 -0.21146799 0.15479189
v -0.84886864 -0.00852059 0.36627740
v -0.95653061 -0.24305798 0.36627740
v -0.91410740 -0.21608251 0.20155075
v -0.91664247 -0.20751924 0.17747418
v -0.89052293 -0.20561372 0.15416943
v -0.86620563 -0.20113695 0.13449987
v -0.84886864 -0.20102216 0.13425089
v -0.94208917 -0.00852059 0.36627740
v -0.84886864 -0.00852059 0.30206487
v -0.97159678 -0.18297728 0.36627740
v -0.95210930 -0.17177385 0.21439823
v -0.93217724 -0.20138948 0.18447057
v -0.90961402 -0.20150428 0.16188790
v -0.88232902 -0.19840496 0.13937988
v -0.85779545 -0.17804135 0.11540289
v -0.84886864 -0.18513533 0.11903805
v -0.84886864 -0.18906112 0.12259849
v -0.96506091 -0.11949883 0.36627740
v -0.93229737 -0.00852059 0.35880791
v -0.84886864 -0.00911750 0.22799266
v -0.86620563 -0.00953073 0.22799266
v -0.86620563 -0.01047201 0.20359241
v -0.89060707 -0.01448963 0.20359241
v -0.90691074 -0.02114741 0.20359241
v -0.92944995 -0.04534498 0.21277986
v -0.95170077 -0.07305510 0.23981932
v -0.96242976 -0.10981062 0.22799266
v -0.97116424 -0.16286620 0.36627740
v -0.96282621 -0.13419186 0.22799266
v -0.95417580 -0.15859606 0.21146025
v -0.93464019 -0.18297728 0.18240404
v -0.92400732 -0.18297728 0.17020390
v -0.91181265 -0.18297728 0.15984624
v -0.85745907 -0.15859606 0.11547757
v -0.84886864 -0.10981062 0.11194204
v -0.84886864 -0.15859606 0.11261432
v -0.84886864 -0.17833980 0.11490492
v -0.96801644 -0.13419186 0.36627740
v -0.84886864 -0.01047201 0.20359241
v -0.86620563 -0.01756598 0.17919217
v -0.88839638 -0.02114741 0.18058646
v -0.90424353 -0.02302996 0.18962451
v -0.93285002 -0.06100223 0.20877126
v -0.95176083 -0.09720677 0.21559334
v -0.95481251 -0.08761038 0.23023352
v -0.95391147 -0.10981062 0.21305375
v -0.95598995 -0.13419186 0.20991656
v -0.97074379 -0.15859606 0.36627740
v -0.96878544 -0.14039047 0.36627740
v -0.94588575 -0.13419186 0.19771642
v -0.85486392 -0.09514056 0.11709598
v -0.84886864 -0.10186721 0.11231552
v -0.84886864 -0.01894346 0.17824604
v -0.85001002 -0.02362686 0.16500018
v -0.86620563 -0.02367277 0.16527404
v -0.87879676 -0.02422376 0.16666836
v -0.92848877 -0.09403858 0.19024697
v -0.94323055 -0.10981062 0.20085361
v -0.93102386 -0.10981062 0.18820531
v -0.85754313 -0.04493174 0.13992767
v -0.84886864 -0.09112293 0.11492986
v -0.84886864 -0.02305291 0.16679286
v -0.84886864 -0.02443038 0.16375526
v -0.84886864 -0.02773631 0.15870090
v -0.84886864 -0.04343948 0.13865787
v -0.84886864 -0.05418376 0.13225900
f 1 2 3
f 1 3 4
f 1 4 10
f 1 10 17
f 1 17 27
f 1 27 26
f 1 26 47
f 1 47 46
f 1 46 45
f 1 45 62
f 1 62 71
f 1 71 76
f 1 76 75
f 1 75 74
f 1 74 73
f 1 73 72
f 1 72 63
f 1 63 49
f 1 49 30
f 1 30 19
f 1 19 11
f 1 11 5
f 1 5 12
f 1 12 8
f 1 8 2
f 2 6 7
f 2 7 3
f 2 8 6
f 3 7 9
f 3 9 10
f 3 10 4
f 5 11 18
f 5 18 28
f 5 28 48
f 5 48 59
f 5 59 58
f 5 58 38
f 5 38 20
f 5 20 12
f 6 13 14
f 6 14 7
f 6 8 12
f 6 12 13
f 7 14 15
f 7 15 9
f 9 15 16
f 9 16 17
f 9 17 10
f 11 19 29
f 11 29 18
f 12 20 21
f 12 21 22
f 12 22 14
f 12 14 13
f 14 22 23
f 14 23 15
f 15 23 24
f 15 24 16
f 16 24 25
f 16 25 26
f 16 26 27
f 16 27 17
f 18 29 30
f 18 30 31
f 18 31 32
f 18 32 33
f 18 33 34
f 18 34 35
f 18 35 36
f 18 36 37
f 18 37 28
f 19 30 29
f 20 38 37
f 20 37 39
f 20 39 21
f 21 39 40
f 21 40 22
f 22 40 41
f 22 41 42
f 22 42 23
f 23 43 25
f 23 25 24
f 23 42 43
f 25 44 45
f 25 45 46
f 25 46 47
f 25 47 26
f 25 43 44
f 28 37 48
f 30 49 32
f 30 32 31
f 32 50 33
f 32 49 50
f 33 50 51
f 33 51 52
f 33 52 34
f 34 52 35
f 35 52 53
f 35 53 54
f 35 54 55
f 35 55 36
f 36 55 37
f 37 55 54
f 37 54 56
f 37 56 57
f 37 57 39
f 37 38 58
f 37 58 59
f 37 59 48
f 39 57 40
f 40 57 41
f 41 57 60
f 41 60 42
f 42 61 43
f 42 60 61
f 43 61 44
f 44 61 62
f 44 62 45
f 49 63 50
f 50 63 64
f 50 64 65
f 50 65 66
f 50 66 51
f 51 66 52
f 52 67 68
f 52 68 56
f 52 56 54
f 52 54 53
f 52 66 61
f 52 61 67
f 56 68 60
f 56 60 57
f 60 68 69
f 60 69 61
f 61 66 70
f 61 70 71
f 61 71 62
f 61 69 67
f 63 72 64
f 64 73 74
f 64 74 65
f 64 72 73
f 65 74 75
f 65 75 66
f 66 75 70
f 67 69 68
f 70 75 76
f 70 76 71

