# https://github.com/mikedh/trimesh
v 0.00526581 0.20599174 0.80896476
v 0.00502251 0.18024038 0.84933446
v 0.01406499 0.20558875 0.80896476
v -0.00523645 0.20595145 0.80896476
v 0.00486031 0.18024038 0.84933446
v 0.01309181 0.17979709 0.84933446
v 0.01580861 0.20546785 0.80896476
v -0.01577925 0.20538725 0.80896476
v -0.00470931 0.18020008 0.84933446
v 0.01580861 0.17959559 0.84933446
v 0.02712185 0.20437977 0.80896476
v -0.01736067 0.20522606 0.80896476
v -0.01577925 0.17947468 0.84933446
v 0.02631086 0.17838660 0.84933446
v 0.03429906 0.17721793 0.84933446
v 0.03438016 0.20321108 0.80896476
v -0.02648425 0.20421856 0.80896476
v -0.02705194 0.17818510 0.84933446
v 0.03600213 0.17693583 0.84933446
v 0.04090859 0.20192150 0.80896476
v -0.02737633 0.20409767 0.80896476
v -0.03686485 0.20248569 0.80896476
v -0.03686485 0.17645223 0.84933446
v 0.04658548 0.17443726 0.84933446
v 0.04930228 0.20002742 0.80896476
v -0.04740766 0.20018862 0.80896476
v -0.04740766 0.17399397 0.84933446
v 0.04739647 0.17423576 0.84933446
v 0.05838531 0.19752885 0.80896476
v -0.05795046 0.19740796 0.80896476
v -0.05847760 0.17060881 0.84933446
v 0.05879081 0.17081030 0.84933446
v 0.06904976 0.19426460 0.80896476
v -0.06849326 0.19410339 0.80896476
v -0.06837161 0.16694155 0.84933446
v 0.06406221 0.16899683 0.84933446
v 0.07561874 0.19188693 0.80896476
v -0.07903606 0.18995256 0.80896476
v -0.06885820 0.16674006 0.84933446
v 0.06840097 0.16726395 0.84933446
v 0.08105234 0.18963015 0.80896476
v -0.09038985 0.18487481 0.80896476
v -0.07911716 0.16222651 0.84933446
v 0.07817334 0.16307281 0.84933446
v 0.09905620 0.18157026 0.80896476
v -0.08576724 0.15888166 0.84933446
v -0.10012167 0.17983739 0.80896476
v 0.07902488 0.16266981 0.84933446
v 0.08571550 0.15936526 0.84933446
v 0.08660759 0.15888166 0.84933446
v 0.09143295 0.15614129 0.84933446
v 0.09974554 0.15098296 0.84933446
v 0.11722227 0.17016551 0.80896476
v -0.09099809 0.15593980 0.84933446
v -0.11074557 0.17351037 0.80896476
v 0.10096202 0.15021728 0.84933446
v 0.12861660 0.16202502 0.80896476
v 0.10509804 0.14735601 0.84933446
v -0.09172798 0.15549650 0.84933446
v -0.12124782 0.16641767 0.80896476
v -0.10024332 0.15017698 0.84933446
v 0.13092790 0.16025184 0.80896476
v 0.10947735 0.14417236 0.84933446
v -0.12911438 0.16073544 0.80896476
v -0.11005623 0.14308428 0.84933446
v 0.11689787 0.13836924 0.84933446
v 0.11754665 0.13784534 0.84933446
v 0.14171399 0.15078146 0.80896476
v -0.11674686 0.13772443 0.84933446
v -0.14042763 0.15094267 0.80896476
v 0.12241257 0.13349299 0.84933446
v 0.15083758 0.14171409 0.80896476
v 0.12817056 0.12813316 0.84933446
v -0.12201826 0.13309000 0.84933446
v -0.15101095 0.14050510 0.80896476
v -0.12773570 0.12777047 0.84933446
v -0.12254540 0.13260640 0.84933446
v 0.15221625 0.14026331 0.80896476
v 0.13344197 0.12261214 0.84933446
v -0.13783244 0.11684932 0.84933446
v -0.13308822 0.12208825 0.84933446
v -0.13260160 0.12261214 0.84933446
v -0.16082388 0.12922125 0.80896476
v 0.13822677 0.11733291 0.84933446
v 0.16060996 0.13087353 0.80896476
v -0.14322551 0.11007900 0.84933446
v -0.16666296 0.12128225 0.80896476
v 0.14390367 0.11011931 0.84933446
v 0.16215084 0.12881826 0.80896476
v 0.14426862 0.10963571 0.84933446
v -0.15028108 0.10032653 0.84933446
v -0.17306974 0.11193278 0.80896476
v 0.17042286 0.11753441 0.80896476
v 0.14751254 0.10528337 0.84933446
v -0.15559304 0.09194424 0.84933446
v -0.17371855 0.11096559 0.80896476
v 0.15051318 0.10101162 0.84933446
v 0.15635227 0.09186364 0.84933446
v 0.18201996 0.09931905 0.80896476
v -0.15603906 0.09117855 0.84933446
v -0.18190949 0.09762647 0.80896476
v 0.15939347 0.08662471 0.84933446
v 0.19235999 0.07804092 0.80896476
v 0.16328621 0.07904841 0.84933446
v -0.15903971 0.08597992 0.84933446
v -0.18584278 0.08956658 0.80896476
v -0.16256750 0.07908871 0.84933446
v 0.19584722 0.06776456 0.80896476
v 0.16726002 0.07034373 0.84933446
v 0.16928748 0.06550779 0.84933446
v 0.17200430 0.05801209 0.84933446
v -0.19078978 0.07904841 0.80896476
v -0.16727122 0.06865115 0.84931074
v -0.16727122 0.06861085 0.84933446
v 0.19888844 0.05801209 0.80896476
v 0.17228813 0.05712550 0.84933446
v -0.19464194 0.06929594 0.80896476
v -0.17100174 0.05881808 0.84933446
v 0.20107810 0.05027459 0.80896476
v 0.17520769 0.04741333 0.84933446
v 0.17545097 0.04656704 0.84933446
v -0.19829138 0.05797179 0.80896476
v -0.17457008 0.04741333 0.84933446
v 0.20261895 0.04390727 0.80896476
v 0.17780282 0.03697576 0.84933446
v -0.20117037 0.04741333 0.80896476
v -0.17688138 0.03778175 0.84933446
v 0.20415983 0.03709666 0.80896476
v 0.17991140 0.02565161 0.84933446
v -0.20380607 0.03580708 0.80896476
v -0.17720578 0.03633097 0.84933446
v 0.20598455 0.02500682 0.80896476
v 0.18108732 0.01577824 0.84933446
v -0.20530640 0.02633670 0.80896476
v -0.17886829 0.02633670 0.84933446
v 0.20683609 0.01577824 0.80896476
v 0.18169557 0.00526008 0.84933446
v 0.20687664 0.01521405 0.80896476
v -0.20636066 0.01577824 0.80896476
v -0.18020643 0.01521405 0.84933446
v 0.18173612 -0.00525808 0.84933446
v 0.20736322 0.00526008 0.80896476
v -0.20688782 0.00526008 0.80896476
v -0.18085522 0.00526008 0.84933446
v 0.18108732 -0.01577624 0.84933446
v 0.20683609 -0.01577624 0.80896476
v 0.20732267 -0.00545958 0.80896476
v -0.20684727 -0.00525808 0.80896476
v -0.18085522 -0.00525808 0.84933446
v 0.17995195 -0.02504512 0.84933446
v 0.20582234 -0.02633470 0.80896476
v -0.20640121 -0.01480906 0.80896476
v -0.18020643 -0.01549415 0.84933446
v 0.17974918 -0.02633470 0.84933446
v 0.20415983 -0.03665137 0.80896476
v -0.20632014 -0.01577624 0.80896476
v -0.17939545 -0.02258685 0.84933446
v -0.20546860 -0.02456153 0.80896476
v 0.17784338 -0.03705436 0.84933446
v 0.20391655 -0.03773945 0.80896476
v -0.17890884 -0.02633470 0.84933446
v -0.20522529 -0.02633470 0.80896476
v 0.20172687 -0.04741133 0.80896476
v 0.17536986 -0.04741133 0.84933446
v -0.17748962 -0.03491849 0.84933446
v -0.20376552 -0.03649017 0.80896476
v 0.19884789 -0.05801009 0.80896476
v 0.17216647 -0.05801009 0.84933446
v -0.17724633 -0.03632897 0.84933446
v -0.20048106 -0.04966810 0.80896476
v -0.17457008 -0.04741133 0.84933446
v 0.19552286 -0.06848795 0.80896476
v 0.17196375 -0.05857428 0.84933446
v -0.19812920 -0.05792949 0.80896476
v -0.17100174 -0.05893698 0.84933446
v 0.19252221 -0.07662844 0.80896476
v 0.16949022 -0.06530429 0.84933446
v -0.19452031 -0.06925364 0.80896476
v -0.16909594 -0.06429680 0.84933446
v -0.19447975 -0.06937454 0.80896476
v 0.18652090 -0.08956457 0.80896476
v 0.16730059 -0.07054323 0.84933446
v 0.16689508 -0.07142982 0.84933446
v 0.16340784 -0.07904641 0.84933446
v -0.16723066 -0.06864915 0.84933446
v -0.19204678 -0.07594335 0.80896476
v -0.18981659 -0.08118229 0.80896476
v 0.18234436 -0.09818866 0.80896476
v 0.16316455 -0.07953000 0.84933446
v -0.16301353 -0.07820012 0.84933446
v -0.18150399 -0.09899465 0.80896476
v 0.15947459 -0.08678391 0.84933446
v 0.15667667 -0.09161985 0.84933446
v 0.15602787 -0.09270793 0.84933446
v 0.17431559 -0.11128599 0.80896476
v -0.16256750 -0.07912701 0.84933446
v -0.16994747 -0.11696821 0.80896476
v -0.15040270 -0.10040513 0.84933446
v -0.15612017 -0.09129745 0.84933446
v -0.15891806 -0.08638091 0.84933446
v -0.15924245 -0.08577642 0.84933446
v 0.15087813 -0.10076782 0.84933446
v 0.17399120 -0.11176958 0.80896476
v -0.16179708 -0.12825207 0.80896476
v -0.14723988 -0.10495897 0.84933446
v 0.14410640 -0.11015761 0.84933446
v 0.16750331 -0.12136086 0.80896476
v -0.15981014 -0.13075063 0.80896476
v -0.13823795 -0.11664582 0.84933446
v -0.14342825 -0.11011730 0.84933446
v -0.14403649 -0.10931131 0.84933446
v 0.14386311 -0.11048000 0.84933446
v 0.16125876 -0.12970285 0.80896476
v -0.15214636 -0.13937472 0.80896476
v -0.13762971 -0.11737120 0.84933446
v 0.13834842 -0.11749210 0.84933446
v 0.15140527 -0.14090610 0.80896476
v -0.15003779 -0.14163149 0.80896476
v -0.13316928 -0.12220714 0.84933446
v 0.13356361 -0.12277133 0.84933446
v 0.12829220 -0.12825207 0.84933446
v 0.14086246 -0.15134365 0.80896476
v -0.14160356 -0.15001377 0.80896476
v -0.12785735 -0.12780878 0.84933446
v 0.12310190 -0.13308801 0.84933446
v 0.12261532 -0.13353130 0.84933446
v 0.12220981 -0.13389399 0.84933446
v 0.11734391 -0.13820604 0.84933446
v 0.12950868 -0.16109613 0.80896476
v -0.13929221 -0.15210935 0.80896476
v -0.12205881 -0.13316859 0.84933446
v 0.11008560 -0.14384796 0.84933446
v 0.12131775 -0.16702016 0.80896476
v -0.13069580 -0.15964536 0.80896476
v -0.11723345 -0.13748064 0.84933446
v 0.10055652 -0.15057797 0.84933446
v 0.11146427 -0.17358896 0.80896476
v -0.12810065 -0.16174092 0.80896476
v -0.11650356 -0.13808514 0.84933446
v 0.09216283 -0.15577661 0.84933446
v 0.11109932 -0.17383076 0.80896476
v -0.11678741 -0.16984112 0.80896476
v -0.10474428 -0.14707191 0.84933446
v -0.10912360 -0.14388827 0.84933446
v -0.11005623 -0.14316287 0.84933446
v 0.09147349 -0.15617960 0.84933446
v 0.10071872 -0.18007719 0.80896476
v -0.11094832 -0.17342777 0.80896476
v -0.10028386 -0.15021527 0.84933446
v 0.08620209 -0.15912146 0.84933446
v 0.09759643 -0.18189065 0.80896476
v -0.10202749 -0.17886820 0.80896476
v -0.09095754 -0.15593780 0.84933446
v 0.07902488 -0.16266781 0.84933446
v 0.08956768 -0.18563852 0.80896476
v -0.09720212 -0.18156827 0.80896476
v -0.08609163 -0.15871847 0.84933446
v 0.06876592 -0.16706045 0.84933446
v 0.07902488 -0.19023265 0.80896476
v -0.09043040 -0.18483252 0.80896476
v -0.07911716 -0.16222452 0.84933446
v -0.08540230 -0.15908116 0.84933446
v 0.06827933 -0.16726196 0.84933446
v 0.06868482 -0.19418200 0.80896476
v -0.08073913 -0.18922517 0.80896476
v -0.07818453 -0.16266781 0.84933446
v 0.05891245 -0.17072771 0.84933446
v 0.05866916 -0.17080831 0.84933446
v 0.04739647 -0.17419347 0.84933446
v 0.05753378 -0.19748656 0.80896476
v -0.07514334 -0.19156253 0.80896476
v -0.06816887 -0.16706045 0.84933446
v 0.03770520 -0.17640994 0.84933446
v 0.04739647 -0.20006573 0.80896476
v -0.06881766 -0.19398051 0.80896476
v -0.06366790 -0.16883364 0.84933446
v 0.03685367 -0.17657113 0.84933446
v 0.03685367 -0.20232248 0.80896476
v -0.05795046 -0.19724476 0.80896476
v -0.05847760 -0.17064712 0.84933446
v 0.02793283 -0.17814281 0.84933446
v 0.02724350 -0.20393447 0.80896476
v -0.04898908 -0.19962242 0.80896476
v -0.04740766 -0.17395167 0.84933446
v 0.02716240 -0.17826371 0.84933446
v 0.02618921 -0.20409568 0.80896476
v -0.04047374 -0.20151650 0.80896476
v -0.03686485 -0.17640994 0.84933446
v -0.04655612 -0.17415316 0.84933446
v 0.01580861 -0.17951299 0.84933446
v 0.01580861 -0.20522406 0.80896476
v -0.03366146 -0.20288669 0.80896476
v -0.03601332 -0.17657113 0.84933446
v 0.00830700 -0.17995629 0.84933446
v 0.00526581 -0.18011748 0.84933446
v 0.00526581 -0.20570764 0.80896476
v -0.02656535 -0.20409568 0.80896476
v -0.02701139 -0.17818311 0.84933446
v -0.00272239 -0.18007719 0.84933446
v -0.00523645 -0.20562705 0.80896476
v -0.01577925 -0.20510315 0.80896476
v -0.01577925 -0.17943239 0.84933446
v -0.00523645 -0.18003689 0.84933446
v -0.01375179 -0.20526435 0.80896476
v -0.01164323 -0.17967418 0.84933446
f 1 2 3
f 1 3 7
f 1 7 11
f 1 11 16
f 1 16 20
f 1 20 25
f 1 25 29
f 1 29 33
f 1 33 37
f 1 37 41
f 1 41 45
f 1 45 53
f 1 53 57
f 1 57 62
f 1 62 68
f 1 68 72
f 1 72 78
f 1 78 85
f 1 85 89
f 1 89 93
f 1 93 99
f 1 99 103
f 1 103 108
f 1 108 115
f 1 115 119
f 1 119 124
f 1 124 128
f 1 128 132
f 1 132 136
f 1 136 138
f 1 138 142
f 1 142 147
f 1 147 146
f 1 146 151
f 1 151 155
f 1 155 160
f 1 160 163
f 1 163 167
f 1 167 172
f 1 172 176
f 1 176 181
f 1 181 188
f 1 188 195
f 1 195 203
f 1 203 207
f 1 207 213
f 1 213 217
f 1 217 222
f 1 222 229
f 1 229 233
f 1 233 237
f 1 237 241
f 1 241 247
f 1 247 251
f 1 251 255
f 1 255 259
f 1 259 264
f 1 264 270
f 1 270 274
f 1 274 278
f 1 278 282
f 1 282 286
f 1 286 291
f 1 291 296
f 1 296 300
f 1 300 304
f 1 304 301
f 1 301 297
f 1 297 292
f 1 292 287
f 1 287 283
f 1 283 279
f 1 279 275
f 1 275 271
f 1 271 265
f 1 265 260
f 1 260 256
f 1 256 252
f 1 252 248
f 1 248 242
f 1 242 238
f 1 238 234
f 1 234 230
f 1 230 223
f 1 223 218
f 1 218 214
f 1 214 208
f 1 208 204
f 1 204 197
f 1 197 191
f 1 191 187
f 1 187 186
f 1 186 180
f 1 180 178
f 1 178 174
f 1 174 170
f 1 170 166
f 1 166 162
f 1 162 158
f 1 158 156
f 1 156 152
f 1 152 148
f 1 148 143
f 1 143 139
f 1 139 134
f 1 134 130
f 1 130 126
f 1 126 122
f 1 122 117
f 1 117 112
f 1 112 106
f 1 106 101
f 1 101 96
f 1 96 92
f 1 92 87
f 1 87 83
f 1 83 75
f 1 75 70
f 1 70 64
f 1 64 60
f 1 60 55
f 1 55 47
f 1 47 42
f 1 42 38
f 1 38 34
f 1 34 30
f 1 30 26
f 1 26 22
f 1 22 21
f 1 21 17
f 1 17 12
f 1 12 8
f 1 8 4
f 1 4 5
f 1 5 2
f 2 6 3
f 2 5 9
f 2 9 13
f 2 13 18
f 2 18 23
f 2 23 27
f 2 27 31
f 2 31 35
f 2 35 39
f 2 39 43
f 2 43 46
f 2 46 54
f 2 54 59
f 2 59 61
f 2 61 65
f 2 65 69
f 2 69 74
f 2 74 77
f 2 77 76
f 2 76 82
f 2 82 81
f 2 81 80
f 2 80 86
f 2 86 91
f 2 91 95
f 2 95 100
f 2 100 105
f 2 105 107
f 2 107 114
f 2 114 118
f 2 118 123
f 2 123 127
f 2 127 131
f 2 131 135
f 2 135 140
f 2 140 144
f 2 144 149
f 2 149 153
f 2 153 157
f 2 157 161
f 2 161 165
f 2 165 169
f 2 169 171
f 2 171 175
f 2 175 179
f 2 179 185
f 2 185 190
f 2 190 196
f 2 196 201
f 2 201 200
f 2 200 199
f 2 199 198
f 2 198 205
f 2 205 211
f 2 211 210
f 2 210 209
f 2 209 215
f 2 215 219
f 2 219 224
f 2 224 231
f 2 231 235
f 2 235 239
f 2 239 245
f 2 245 244
f 2 244 243
f 2 243 249
f 2 249 253
f 2 253 257
f 2 257 262
f 2 262 261
f 2 261 266
f 2 266 272
f 2 272 276
f 2 276 280
f 2 280 284
f 2 284 289
f 2 289 288
f 2 288 293
f 2 293 298
f 2 298 302
f 2 302 305
f 2 305 303
f 2 303 299
f 2 299 295
f 2 295 294
f 2 294 290
f 2 290 285
f 2 285 281
f 2 281 277
f 2 277 273
f 2 273 269
f 2 269 268
f 2 268 267
f 2 267 263
f 2 263 258
f 2 258 254
f 2 254 250
f 2 250 246
f 2 246 240
f 2 240 236
f 2 236 232
f 2 232 228
f 2 228 227
f 2 227 226
f 2 226 225
f 2 225 221
f 2 221 220
f 2 220 216
f 2 216 212
f 2 212 206
f 2 206 202
f 2 202 194
f 2 194 193
f 2 193 192
f 2 192 189
f 2 189 184
f 2 184 183
f 2 183 182
f 2 182 177
f 2 177 173
f 2 173 168
f 2 168 164
f 2 164 159
f 2 159 154
f 2 154 150
f 2 150 145
f 2 145 141
f 2 141 137
f 2 137 133
f 2 133 129
f 2 129 125
f 2 125 121
f 2 121 120
f 2 120 116
f 2 116 111
f 2 111 110
f 2 110 109
f 2 109 104
f 2 104 102
f 2 102 98
f 2 98 97
f 2 97 94
f 2 94 90
f 2 90 88
f 2 88 84
f 2 84 79
f 2 79 73
f 2 73 71
f 2 71 67
f 2 67 66
f 2 66 63
f 2 63 58
f 2 58 56
f 2 56 52
f 2 52 51
f 2 51 50
f 2 50 49
f 2 49 48
f 2 48 44
f 2 44 40
f 2 40 36
f 2 36 32
f 2 32 28
f 2 28 24
f 2 24 19
f 2 19 15
f 2 15 14
f 2 14 10
f 2 10 6
f 3 6 7
f 4 8 9
f 4 9 5
f 6 10 7
f 7 10 11
f 8 12 13
f 8 13 9
f 10 14 11
f 11 15 16
f 11 14 15
f 12 17 13
f 13 17 18
f 15 19 16
f 16 19 20
f 17 21 18
f 18 21 22
f 18 22 23
f 19 24 25
f 19 25 20
f 22 26 23
f 23 26 27
f 24 28 25
f 25 28 29
f 26 30 27
f 27 30 31
f 28 32 29
f 29 32 33
f 30 34 31
f 31 34 35
f 32 36 33
f 33 36 37
f 34 38 35
f 35 38 39
f 36 40 37
f 37 40 41
f 38 42 43
f 38 43 39
f 40 44 41
f 41 44 45
f 42 46 43
f 42 47 46
f 44 48 45
f 45 48 49
f 45 49 50
f 45 50 51
f 45 51 52
f 45 52 53
f 46 47 54
f 47 55 54
f 52 56 53
f 53 56 58
f 53 58 57
f 54 55 59
f 55 60 61
f 55 61 59
f 57 58 63
f 57 63 62
f 60 64 61
f 61 64 65
f 62 63 66
f 62 66 67
f 62 67 68
f 64 69 65
f 64 70 69
f 67 71 68
f 68 71 73
f 68 73 72
f 69 70 74
f 70 75 76
f 70 76 77
f 70 77 74
f 72 73 79
f 72 79 78
f 75 80 81
f 75 81 82
f 75 82 76
f 75 83 80
f 78 79 84
f 78 84 85
f 80 83 86
f 83 87 86
f 84 88 85
f 85 88 90
f 85 90 89
f 86 87 91
f 87 92 91
f 89 90 94
f 89 94 93
f 91 92 96
f 91 96 95
f 93 94 97
f 93 97 98
f 93 98 99
f 95 96 101
f 95 101 100
f 98 102 99
f 99 102 104
f 99 104 103
f 100 101 105
f 101 106 107
f 101 107 105
f 103 104 109
f 103 109 110
f 103 110 111
f 103 111 108
f 106 112 107
f 107 113 114
f 107 112 113
f 108 111 116
f 108 116 115
f 112 117 114
f 112 114 113
f 114 117 118
f 115 116 120
f 115 120 121
f 115 121 119
f 117 122 118
f 118 122 123
f 119 121 125
f 119 125 124
f 122 126 123
f 123 126 127
f 124 125 128
f 125 129 128
f 126 130 127
f 127 130 131
f 128 129 132
f 129 133 132
f 130 134 135
f 130 135 131
f 132 133 136
f 133 137 138
f 133 138 136
f 134 139 140
f 134 140 135
f 137 141 142
f 137 142 138
f 139 143 144
f 139 144 140
f 141 145 146
f 141 146 147
f 141 147 142
f 143 148 149
f 143 149 144
f 145 150 151
f 145 151 146
f 148 152 149
f 149 152 153
f 150 154 151
f 151 154 155
f 152 156 153
f 153 156 158
f 153 158 157
f 154 159 155
f 155 159 160
f 157 158 161
f 158 162 161
f 159 163 160
f 159 164 163
f 161 162 166
f 161 166 165
f 163 164 167
f 164 168 167
f 165 166 169
f 166 170 171
f 166 171 169
f 167 168 172
f 168 173 172
f 170 174 171
f 171 174 175
f 172 173 177
f 172 177 176
f 174 178 175
f 175 178 180
f 175 180 179
f 176 177 182
f 176 182 183
f 176 183 184
f 176 184 181
f 179 180 186
f 179 186 187
f 179 187 185
f 181 184 188
f 184 189 188
f 185 187 190
f 187 191 190
f 188 189 192
f 188 192 193
f 188 193 194
f 188 194 195
f 190 191 196
f 191 197 198
f 191 198 199
f 191 199 200
f 191 200 201
f 191 201 196
f 194 202 195
f 195 202 203
f 197 204 205
f 197 205 198
f 202 206 207
f 202 207 203
f 204 208 209
f 204 209 210
f 204 210 211
f 204 211 205
f 206 212 213
f 206 213 207
f 208 214 215
f 208 215 209
f 212 216 213
f 213 216 217
f 214 218 219
f 214 219 215
f 216 220 217
f 217 220 221
f 217 221 222
f 218 223 224
f 218 224 219
f 221 225 222
f 222 225 226
f 222 226 227
f 222 227 228
f 222 228 229
f 223 230 231
f 223 231 224
f 228 232 229
f 229 232 233
f 230 234 235
f 230 235 231
f 232 236 233
f 233 236 237
f 234 238 239
f 234 239 235
f 236 240 241
f 236 241 237
f 238 242 243
f 238 243 244
f 238 244 245
f 238 245 239
f 240 246 247
f 240 247 241
f 242 248 249
f 242 249 243
f 246 250 251
f 246 251 247
f 248 252 253
f 248 253 249
f 250 254 251
f 251 254 255
f 252 256 257
f 252 257 253
f 254 258 259
f 254 259 255
f 256 260 261
f 256 261 262
f 256 262 257
f 258 263 259
f 259 263 264
f 260 265 266
f 260 266 261
f 263 267 264
f 264 267 268
f 264 268 269
f 264 269 270
f 265 271 272
f 265 272 266
f 269 273 274
f 269 274 270
f 271 275 276
f 271 276 272
f 273 277 278
f 273 278 274
f 275 279 280
f 275 280 276
f 277 281 278
f 278 281 282
f 279 283 284
f 279 284 280
f 281 285 282
f 282 285 286
f 283 287 288
f 283 288 289
f 283 289 284
f 285 290 286
f 286 290 291
f 287 292 288
f 288 292 293
f 290 294 291
f 291 294 295
f 291 295 296
f 292 297 298
f 292 298 293
f 295 299 296
f 296 299 300
f 297 301 302
f 297 302 298
f 299 303 300
f 300 303 304
f 301 304 302
f 302 304 305
f 303 305 304

