# https://github.com/mikedh/trimesh
v 0.00526959 0.19680701 0.92269172
v 0.01515003 0.19630628 0.92269172
v 0.00499943 0.18024467 0.84933446
v 0.00484504 0.18024467 0.84933446
v -0.00588450 0.19676848 0.92269172
v 0.01310447 0.17978245 0.84933446
v 0.02572519 0.19515077 0.92269172
v 0.01580616 0.17958987 0.84933446
v -0.00472663 0.18020614 0.84933446
v -0.01441410 0.19634480 0.92269172
v 0.02634272 0.19507374 0.92269172
v 0.02634272 0.17839584 0.84933446
v 0.02001306 0.17912767 0.84933446
v -0.01580353 0.17947432 0.84933446
v -0.01514741 0.19630628 0.92269172
v 0.03606878 0.19361009 0.92269172
v 0.03429339 0.17720181 0.84933446
v -0.02703481 0.17816473 0.84933446
v -0.02634010 0.19503522 0.92269172
v 0.03599159 0.17693218 0.84933446
v 0.04741585 0.19110648 0.92269172
v -0.03687666 0.17643147 0.84933446
v -0.03714683 0.19322491 0.92269172
v -0.03602756 0.19341750 0.92269172
v -0.02699622 0.19495818 0.92269172
v 0.04741585 0.17423600 0.84933446
v 0.05795241 0.18825622 0.92269172
v -0.03772576 0.17623888 0.84933446
v -0.04741323 0.17396637 0.84933446
v -0.04498171 0.19137609 0.92269172
v 0.05860853 0.17088500 0.84933446
v 0.06814162 0.18482820 0.92269172
v 0.05872432 0.17084649 0.84933446
v -0.04810794 0.17377379 0.84933446
v -0.05794979 0.18787104 0.92269172
v -0.05250782 0.18937322 0.92269172
v -0.04741323 0.19075983 0.92269172
v 0.06856616 0.18467412 0.92269172
v 0.06408909 0.16899768 0.84933446
v -0.05849012 0.17061539 0.84933446
v -0.05945501 0.18740883 0.92269172
v 0.06848898 0.16722588 0.84933446
v 0.07902554 0.18043724 0.92269172
v -0.06779164 0.16714886 0.84933446
v -0.06802320 0.18444302 0.92269172
v 0.07817644 0.16306605 0.84933446
v 0.08971649 0.17543002 0.92269172
v 0.07902554 0.16268088 0.84933446
v -0.06840916 0.16691776 0.84933446
v -0.07705454 0.18074538 0.92269172
v 0.08574115 0.15936841 0.84933446
v 0.09079716 0.17489079 0.92269172
v -0.07910010 0.16221866 0.84933446
v -0.07902291 0.17989800 0.92269172
v 0.08659025 0.15890619 0.84933446
v 0.10009867 0.16969098 0.92269172
v -0.08573852 0.15890619 0.84933446
v -0.08998403 0.17477524 0.92269172
v -0.08218774 0.17847288 0.92269172
v 0.09145328 0.15613297 0.84933446
v 0.10048462 0.15050948 0.84933446
v 0.11036506 0.16322011 0.92269172
v -0.09098751 0.15594038 0.84933446
v -0.09824345 0.17019170 0.92269172
v 0.10094777 0.15020134 0.84933446
v 0.12121039 0.15524707 0.92269172
v 0.10947736 0.14415416 0.84933446
v 0.10507748 0.14735107 0.84933446
v -0.09175942 0.15547817 0.84933446
v -0.10272053 0.16753402 0.92269172
v 0.12263842 0.15416860 0.92269172
v 0.11013349 0.14365344 0.84933446
v -0.10025043 0.15020134 0.84933446
v -0.10989929 0.16295049 0.92269172
v 0.13174695 0.14638815 0.92269172
v 0.11692629 0.13837659 0.84933446
v -0.11005367 0.14307569 0.84933446
v -0.11630614 0.15840548 0.92269172
v 0.11754382 0.13783736 0.84933446
v 0.13398550 0.14442377 0.92269172
v -0.11676928 0.13772181 0.84933446
v -0.12182529 0.15428415 0.92269172
v 0.12244544 0.13348493 0.84933446
v 0.13637842 0.14207424 0.92269172
v 0.12815757 0.12813105 0.84933446
v -0.12201827 0.13309975 0.84933446
v -0.13282500 0.14492450 0.92269172
v -0.12815495 0.14900732 0.92269172
v -0.12294456 0.15335974 0.92269172
v 0.14209054 0.13641222 0.92269172
v 0.14448345 0.13398565 0.92269172
v 0.13344515 0.12258459 0.84933446
v -0.12255861 0.13259904 0.84933446
v -0.13456181 0.14330679 0.92269172
v 0.14649044 0.13171314 0.92269172
v 0.13819240 0.11730776 0.84933446
v -0.12776899 0.12774589 0.84933446
v -0.13892309 0.13899287 0.92269172
v 0.15420953 0.12273867 0.92269172
v 0.13853976 0.11688407 0.84933446
v -0.13259344 0.12262311 0.84933446
v -0.14328438 0.13452489 0.92269172
v 0.14390452 0.11010506 0.84933446
v 0.15540598 0.12119798 0.92269172
v -0.13309516 0.12208387 0.84933446
v -0.14490538 0.13279163 0.92269172
v 0.14425188 0.10964286 0.84933446
v 0.16331804 0.11049023 0.92269172
v 0.14749390 0.10529043 0.84933446
v -0.13780380 0.11684555 0.84933446
v -0.14895789 0.12809254 0.92269172
v 0.15637087 0.09188649 0.84933446
v 0.15050435 0.10101503 0.84933446
v 0.16991787 0.10012914 0.92269172
v -0.14324576 0.11006655 0.84933446
v -0.15424546 0.12177574 0.92269172
v -0.15331921 0.12289274 0.92269172
v 0.15914974 0.08703333 0.84933446
v 0.17505106 0.09103911 0.92269172
v -0.15030876 0.10032173 0.84933446
v -0.15837522 0.11622928 0.92269172
v 0.15938132 0.08660964 0.84933446
v 0.17566859 0.08980656 0.92269172
v 0.16327946 0.07902178 0.84933446
v 0.15965147 0.08610893 0.84933446
v -0.15605948 0.09119318 0.84933446
v -0.16752232 0.10263275 0.92269172
v -0.16285229 0.10991248 0.92269172
v -0.16277508 0.11002803 0.92269172
v 0.18084039 0.07902178 0.92269172
v 0.16370400 0.07813589 0.84933446
v -0.15903133 0.08595486 0.84933446
v -0.17010823 0.09820329 0.92269172
v -0.16898895 0.10012914 0.92269172
v 0.18396663 0.07151095 0.92269172
v 0.16725478 0.07035544 0.84933446
v -0.16258211 0.07909882 0.84933446
v -0.17473967 0.08996063 0.92269172
v 0.18497010 0.06908437 0.92269172
v 0.16926176 0.06550229 0.84933446
v -0.16725215 0.06862217 0.84933446
v -0.18079918 0.07713444 0.92269172
v -0.17995007 0.07902178 0.92269172
v -0.17848345 0.08218018 0.92269172
v 0.18558764 0.06727407 0.92269172
v 0.17200203 0.05802998 0.84933446
v 0.16953190 0.06480898 0.84933446
v 0.16941613 0.06511712 0.84933446
v -0.17099593 0.05883883 0.84933446
v -0.18450432 0.06808293 0.92269172
v 0.18875245 0.05795294 0.92269172
v 0.17524405 0.04739926 0.84933446
v -0.17431513 0.04816960 0.84933446
v -0.18743760 0.05945511 0.92269172
v 0.19056646 0.05140504 0.92269172
v 0.17779136 0.03696113 0.84933446
v 0.19164713 0.04739926 0.92269172
v -0.17454670 0.04739926 0.84933446
v -0.18790074 0.05795294 0.92269172
v 0.17902641 0.03041323 0.84933446
v 0.19411724 0.03669151 0.92269172
v -0.17720980 0.03634486 0.84933446
v -0.19079541 0.04739926 0.92269172
v -0.18940597 0.05252203 0.92269172
v 0.17991409 0.02563711 0.84933446
v 0.19577683 0.02633042 0.92269172
v -0.17886937 0.02633042 0.84933446
v -0.19338129 0.03595969 0.92269172
v -0.19318831 0.03707668 0.92269172
v -0.19137434 0.04493417 0.92269172
v 0.18107197 0.01577674 0.84933446
v 0.19689612 0.01670115 0.92269172
v -0.17998868 0.01704780 0.84933446
v -0.19496368 0.02633042 0.92269172
v 0.18114914 0.01496788 0.84933446
v 0.19751363 0.00526158 0.92269172
v 0.18172807 0.00526158 0.84933446
v -0.18014304 0.01562267 0.84933446
v -0.19604438 0.01650857 0.92269172
v 0.19747502 -0.00525358 0.92269172
v 0.18172807 -0.00525358 0.84933446
v -0.18018164 0.01519898 0.84933446
v -0.19612156 0.01577674 0.92269172
v 0.19739784 -0.00710240 0.92269172
v 0.18168951 -0.00613948 0.84933446
v -0.18083776 0.00526158 0.84933446
v -0.19673910 0.00614747 0.92269172
v 0.19693470 -0.01580726 0.92269172
v 0.18107197 -0.01580726 0.84933446
v 0.19689612 -0.01642354 0.92269172
v -0.18083776 -0.00525358 0.84933446
v -0.19677770 -0.00436769 0.92269172
v 0.19608561 -0.02466619 0.92269172
v 0.17995270 -0.02501284 0.84933446
v -0.18022025 -0.01549913 0.84933446
v -0.19631456 -0.01492137 0.92269172
v -0.19673910 -0.00525358 0.92269172
v 0.19596983 -0.02539801 0.92269172
v 0.17782993 -0.03706869 0.84933446
v 0.19411724 -0.03672204 0.92269172
v -0.19507948 -0.02632242 0.92269172
v -0.17940974 -0.02258627 0.84933446
v 0.17763698 -0.03791607 0.84933446
v 0.19384706 -0.03818568 0.92269172
v -0.19345850 -0.03602873 0.92269172
v -0.17890799 -0.02632242 0.84933446
v -0.17724837 -0.03633686 0.84933446
v 0.17535984 -0.04742978 0.84933446
v 0.19203308 -0.04592762 0.92269172
v -0.19087259 -0.04742978 0.92269172
v -0.17458530 -0.04742978 0.84933446
v 0.17215643 -0.05802198 0.84933446
v 0.19164713 -0.04742978 0.92269172
v 0.19002611 -0.05332290 0.92269172
v 0.18875245 -0.05794495 0.92269172
v -0.18797791 -0.05794495 0.92269172
v -0.17103450 -0.05886935 0.84933446
v 0.17196343 -0.05856122 0.84933446
v 0.18805774 -0.06014042 0.92269172
v 0.18516310 -0.06880676 0.92269172
v -0.18454292 -0.06830604 0.92269172
v -0.16906615 -0.06430026 0.84933446
v 0.16949333 -0.06530171 0.84933446
v 0.18145793 -0.07778124 0.92269172
v -0.18014304 -0.07901378 0.92269172
v -0.16725215 -0.06865270 0.84933446
v 0.16729338 -0.07054003 0.84933446
v 0.17906501 -0.08301957 0.92269172
v 0.16690742 -0.07142592 0.84933446
v -0.17466249 -0.09045336 0.92269172
v -0.16300665 -0.07820493 0.84933446
v 0.17551420 -0.09056891 0.92269172
v 0.16316367 -0.07955303 0.84933446
v -0.16929773 -0.10012114 0.92269172
v -0.16258211 -0.07909082 0.84933446
v -0.15926290 -0.08575428 0.84933446
v -0.15891553 -0.08640907 0.84933446
v 0.17088277 -0.09885008 0.92269172
v 0.15949711 -0.08675572 0.84933446
v -0.15609806 -0.09130074 0.84933446
v -0.16316104 -0.11017410 0.92269172
v 0.17014944 -0.10012114 0.92269172
v 0.15644806 -0.09203256 0.84933446
v -0.15038593 -0.10042928 0.84933446
v -0.15501740 -0.12103592 0.92269172
v -0.14725969 -0.10497430 0.84933446
v -0.14401767 -0.10932673 0.84933446
v 0.16818107 -0.10339510 0.92269172
v 0.15602352 -0.09272587 0.84933446
v -0.15393672 -0.12238402 0.92269172
v -0.14343874 -0.11009707 0.84933446
v -0.13822837 -0.11664497 0.84933446
v 0.16351103 -0.11052076 0.92269172
v 0.15085171 -0.10077594 0.84933446
v -0.14405628 -0.13355396 0.92269172
v -0.13764944 -0.11733828 0.84933446
v 0.16343382 -0.11063631 0.92269172
v 0.14413609 -0.11017410 0.84933446
v -0.13317237 -0.12219143 0.84933446
v -0.12834792 -0.12731420 0.84933446
v -0.14204930 -0.13559537 0.92269172
v 0.15887957 -0.11691459 0.92269172
v 0.13834679 -0.11749235 0.84933446
v 0.15486564 -0.12211440 0.92269172
v -0.12784618 -0.12781492 0.84933446
v -0.13556528 -0.14206624 0.92269172
v 0.13394690 -0.12234550 0.84933446
v 0.15359199 -0.12361656 0.92269172
v 0.14938509 -0.12854675 0.92269172
v 0.14544836 -0.13305325 0.92269172
v -0.12726725 -0.12835416 0.84933446
v -0.13355830 -0.14403061 0.92269172
v 0.13356093 -0.12276919 0.84933446
v 0.14351859 -0.13509465 0.92269172
v -0.12205686 -0.13316880 0.84933446
v -0.13166714 -0.14564833 0.92269172
v -0.11723243 -0.13748271 0.84933446
v 0.12827337 -0.12823861 0.84933446
v 0.13935027 -0.13929302 0.92269172
v -0.12360069 -0.15254289 0.92269172
v -0.11649912 -0.13809898 0.84933446
v 0.12310157 -0.13309176 0.84933446
v 0.13506616 -0.14345286 0.92269172
v 0.13302061 -0.14537871 0.92269172
v -0.12217265 -0.15373691 0.92269172
v -0.10912738 -0.14391506 0.84933446
v 0.12263842 -0.13351545 0.84933446
v 0.12846634 -0.14926894 0.92269172
v 0.11735084 -0.13821453 0.84933446
v 0.12221387 -0.13390062 0.84933446
v -0.12109198 -0.15454577 0.92269172
v -0.10982210 -0.16278844 0.92269172
v -0.10472750 -0.14707347 0.84933446
v 0.12341033 -0.15350581 0.92269172
v 0.11055804 -0.14349137 0.84933446
v 0.12202089 -0.15466132 0.92269172
v -0.10009604 -0.16898968 0.92269172
v -0.10090655 -0.14976965 0.84933446
v -0.10028902 -0.15019334 0.84933446
v 0.11009489 -0.14383802 0.84933446
v 0.11665612 -0.15866710 0.92269172
v -0.09094891 -0.15593238 0.84933446
v -0.09040858 -0.17461317 0.92269172
v 0.10056181 -0.15057852 0.84933446
v 0.11028787 -0.16313509 0.92269172
v 0.11028787 -0.16313509 0.92267737
v -0.08608588 -0.15870562 0.84933446
v -0.07910010 -0.16224919 0.84933446
v -0.08955947 -0.17503686 0.92269172
v 0.10299333 -0.16783417 0.92269172
v 0.09214800 -0.15577832 0.84933446
v -0.07902291 -0.18000556 0.92269172
v -0.06844776 -0.16694827 0.84933446
v 0.09851625 -0.17049184 0.92269172
v 0.09102873 -0.15643311 0.84933446
v -0.06810040 -0.18439651 0.92269172
v -0.06817759 -0.16706382 0.84933446
v 0.09021822 -0.17507537 0.92269172
v 0.08620430 -0.15912930 0.84933446
v -0.06366192 -0.16883562 0.84933446
v -0.05849012 -0.17064591 0.84933446
v -0.05794979 -0.18778602 0.92269172
v 0.08249913 -0.17869598 0.92269172
v 0.07948868 -0.16244178 0.84933446
v -0.04741323 -0.17395837 0.84933446
v -0.04741323 -0.19063628 0.92269172
v 0.07732733 -0.18100700 0.92269172
v 0.06875914 -0.16706382 0.84933446
v -0.03687666 -0.17642347 0.84933446
v -0.03687666 -0.19306285 0.92269172
v 0.06825740 -0.18466612 0.92269172
v 0.06829600 -0.16725642 0.84933446
v -0.03602756 -0.17657754 0.84933446
v -0.02707341 -0.19479612 0.92269172
v 0.05957342 -0.18751639 0.92269172
v 0.05868573 -0.17079999 0.84933446
v -0.02703481 -0.17815674 0.84933446
v -0.01580353 -0.19606718 0.92269172
v -0.02618571 -0.17827229 0.84933446
v 0.05795241 -0.18801712 0.92269172
v 0.04741585 -0.17418949 0.84933446
v -0.01896836 -0.17908115 0.84933446
v -0.01580353 -0.17942780 0.84933446
v -0.01537898 -0.19610571 0.92269172
v 0.04741585 -0.19086738 0.92269172
v 0.03687928 -0.17657754 0.84933446
v -0.00526697 -0.18004408 0.84933446
v -0.00619326 -0.19668346 0.92269172
v 0.03657052 -0.19321692 0.92269172
v 0.02908300 -0.19456502 0.92269172
v 0.02715323 -0.17827229 0.84933446
v -0.00271967 -0.18008260 0.84933446
v 0.00615729 -0.19664494 0.92269172
v 0.00526959 -0.18012112 0.84933446
v 0.02711463 -0.19483463 0.92269172
v 0.01650088 -0.19602867 0.92269172
v 0.01580616 -0.17950484 0.84933446
f 1 2 3
f 1 3 4
f 1 4 5
f 1 5 10
f 1 10 15
f 1 15 19
f 1 19 25
f 1 25 24
f 1 24 23
f 1 23 30
f 1 30 37
f 1 37 36
f 1 36 35
f 1 35 41
f 1 41 45
f 1 45 50
f 1 50 54
f 1 54 59
f 1 59 58
f 1 58 64
f 1 64 70
f 1 70 74
f 1 74 78
f 1 78 82
f 1 82 89
f 1 89 88
f 1 88 87
f 1 87 94
f 1 94 98
f 1 98 102
f 1 102 106
f 1 106 111
f 1 111 117
f 1 117 116
f 1 116 121
f 1 121 129
f 1 129 128
f 1 128 127
f 1 127 134
f 1 134 133
f 1 133 138
f 1 138 144
f 1 144 143
f 1 143 142
f 1 142 150
f 1 150 154
f 1 154 159
f 1 159 164
f 1 164 163
f 1 163 170
f 1 170 169
f 1 169 168
f 1 168 174
f 1 174 179
f 1 179 183
f 1 183 187
f 1 187 192
f 1 192 197
f 1 197 196
f 1 196 201
f 1 201 205
f 1 205 210
f 1 210 216
f 1 216 221
f 1 221 225
f 1 225 230
f 1 230 234
f 1 234 241
f 1 241 245
f 1 245 250
f 1 250 255
f 1 255 261
f 1 261 266
f 1 266 272
f 1 272 276
f 1 276 280
f 1 280 285
f 1 285 291
f 1 291 292
f 1 292 297
f 1 297 303
f 1 303 309
f 1 309 312
f 1 312 316
f 1 316 322
f 1 322 326
f 1 326 330
f 1 330 334
f 1 334 338
f 1 338 344
f 1 344 348
f 1 348 353
f 1 353 356
f 1 356 355
f 1 355 350
f 1 350 349
f 1 349 345
f 1 345 340
f 1 340 335
f 1 335 331
f 1 331 327
f 1 327 323
f 1 323 318
f 1 318 314
f 1 314 310
f 1 310 305
f 1 305 301
f 1 301 296
f 1 296 294
f 1 294 288
f 1 288 284
f 1 284 283
f 1 283 279
f 1 279 274
f 1 274 270
f 1 270 269
f 1 269 268
f 1 268 264
f 1 264 262
f 1 262 257
f 1 257 253
f 1 253 248
f 1 248 242
f 1 242 238
f 1 238 232
f 1 232 228
f 1 228 224
f 1 224 220
f 1 220 219
f 1 219 215
f 1 215 214
f 1 214 213
f 1 213 209
f 1 209 204
f 1 204 200
f 1 200 198
f 1 198 193
f 1 193 190
f 1 190 188
f 1 188 184
f 1 184 180
f 1 180 176
f 1 176 172
f 1 172 166
f 1 166 161
f 1 161 157
f 1 157 155
f 1 155 151
f 1 151 145
f 1 145 139
f 1 139 135
f 1 135 130
f 1 130 123
f 1 123 119
f 1 119 114
f 1 114 108
f 1 108 104
f 1 104 99
f 1 99 95
f 1 95 91
f 1 91 90
f 1 90 84
f 1 84 80
f 1 80 75
f 1 75 71
f 1 71 66
f 1 66 62
f 1 62 56
f 1 56 52
f 1 52 47
f 1 47 43
f 1 43 38
f 1 38 32
f 1 32 27
f 1 27 21
f 1 21 16
f 1 16 11
f 1 11 7
f 1 7 2
f 2 6 3
f 2 7 8
f 2 8 6
f 3 6 8
f 3 8 13
f 3 13 12
f 3 12 17
f 3 17 20
f 3 20 26
f 3 26 31
f 3 31 33
f 3 33 39
f 3 39 42
f 3 42 46
f 3 46 48
f 3 48 51
f 3 51 55
f 3 55 60
f 3 60 61
f 3 61 65
f 3 65 68
f 3 68 67
f 3 67 72
f 3 72 76
f 3 76 79
f 3 79 83
f 3 83 85
f 3 85 92
f 3 92 96
f 3 96 100
f 3 100 103
f 3 103 107
f 3 107 109
f 3 109 113
f 3 113 112
f 3 112 118
f 3 118 122
f 3 122 125
f 3 125 124
f 3 124 131
f 3 131 136
f 3 136 140
f 3 140 148
f 3 148 147
f 3 147 146
f 3 146 152
f 3 152 156
f 3 156 160
f 3 160 165
f 3 165 171
f 3 171 175
f 3 175 177
f 3 177 181
f 3 181 185
f 3 185 189
f 3 189 194
f 3 194 199
f 3 199 203
f 3 203 208
f 3 208 212
f 3 212 218
f 3 218 223
f 3 223 227
f 3 227 229
f 3 229 233
f 3 233 239
f 3 239 243
f 3 243 249
f 3 249 254
f 3 254 258
f 3 258 263
f 3 263 267
f 3 267 273
f 3 273 278
f 3 278 282
f 3 282 287
f 3 287 290
f 3 290 289
f 3 289 295
f 3 295 300
f 3 300 304
f 3 304 311
f 3 311 315
f 3 315 319
f 3 319 324
f 3 324 328
f 3 328 332
f 3 332 336
f 3 336 341
f 3 341 346
f 3 346 351
f 3 351 357
f 3 357 354
f 3 354 352
f 3 352 347
f 3 347 343
f 3 343 342
f 3 342 339
f 3 339 337
f 3 337 333
f 3 333 329
f 3 329 325
f 3 325 321
f 3 321 320
f 3 320 317
f 3 317 313
f 3 313 308
f 3 308 307
f 3 307 302
f 3 302 299
f 3 299 298
f 3 298 293
f 3 293 286
f 3 286 281
f 3 281 277
f 3 277 275
f 3 275 271
f 3 271 265
f 3 265 260
f 3 260 259
f 3 259 256
f 3 256 252
f 3 252 251
f 3 251 247
f 3 247 246
f 3 246 244
f 3 244 240
f 3 240 237
f 3 237 236
f 3 236 235
f 3 235 231
f 3 231 226
f 3 226 222
f 3 222 217
f 3 217 211
f 3 211 207
f 3 207 206
f 3 206 202
f 3 202 195
f 3 195 191
f 3 191 186
f 3 186 182
f 3 182 178
f 3 178 173
f 3 173 167
f 3 167 162
f 3 162 158
f 3 158 153
f 3 153 149
f 3 149 141
f 3 141 137
f 3 137 132
f 3 132 126
f 3 126 120
f 3 120 115
f 3 115 110
f 3 110 105
f 3 105 101
f 3 101 97
f 3 97 93
f 3 93 86
f 3 86 81
f 3 81 77
f 3 77 73
f 3 73 69
f 3 69 63
f 3 63 57
f 3 57 53
f 3 53 49
f 3 49 44
f 3 44 40
f 3 40 34
f 3 34 29
f 3 29 28
f 3 28 22
f 3 22 18
f 3 18 14
f 3 14 9
f 3 9 4
f 4 9 5
f 5 9 10
f 7 11 12
f 7 12 13
f 7 13 8
f 9 14 15
f 9 15 10
f 11 16 17
f 11 17 12
f 14 18 19
f 14 19 15
f 16 20 17
f 16 21 20
f 18 22 23
f 18 23 24
f 18 24 25
f 18 25 19
f 20 21 26
f 21 27 26
f 22 28 23
f 23 28 29
f 23 29 30
f 26 27 31
f 27 32 33
f 27 33 31
f 29 34 35
f 29 35 36
f 29 36 37
f 29 37 30
f 32 38 39
f 32 39 33
f 34 40 35
f 35 40 41
f 38 42 39
f 38 43 42
f 40 44 45
f 40 45 41
f 42 43 46
f 43 47 48
f 43 48 46
f 44 49 45
f 45 49 50
f 47 51 48
f 47 52 51
f 49 53 54
f 49 54 50
f 51 52 55
f 52 56 55
f 53 57 58
f 53 58 59
f 53 59 54
f 55 56 60
f 56 61 60
f 56 62 61
f 57 63 64
f 57 64 58
f 61 62 65
f 62 66 67
f 62 67 68
f 62 68 65
f 63 69 70
f 63 70 64
f 66 71 67
f 67 71 72
f 69 73 70
f 70 73 74
f 71 75 76
f 71 76 72
f 73 77 78
f 73 78 74
f 75 79 76
f 75 80 79
f 77 81 82
f 77 82 78
f 79 80 83
f 80 84 85
f 80 85 83
f 81 86 87
f 81 87 88
f 81 88 89
f 81 89 82
f 84 90 85
f 85 90 91
f 85 91 92
f 86 93 87
f 87 93 97
f 87 97 94
f 91 95 96
f 91 96 92
f 94 97 98
f 95 99 96
f 96 99 100
f 97 101 102
f 97 102 98
f 99 103 100
f 99 104 103
f 101 105 106
f 101 106 102
f 103 104 107
f 104 108 109
f 104 109 107
f 105 110 106
f 106 110 111
f 108 112 113
f 108 113 109
f 108 114 112
f 110 115 116
f 110 116 117
f 110 117 111
f 112 114 118
f 114 119 118
f 115 120 121
f 115 121 116
f 118 119 122
f 119 123 124
f 119 124 125
f 119 125 122
f 120 126 127
f 120 127 128
f 120 128 129
f 120 129 121
f 123 130 124
f 124 130 131
f 126 132 133
f 126 133 134
f 126 134 127
f 130 135 136
f 130 136 131
f 132 137 138
f 132 138 133
f 135 139 140
f 135 140 136
f 137 141 142
f 137 142 143
f 137 143 144
f 137 144 138
f 139 145 146
f 139 146 147
f 139 147 148
f 139 148 140
f 141 149 150
f 141 150 142
f 145 151 146
f 146 151 152
f 149 153 154
f 149 154 150
f 151 155 152
f 152 155 157
f 152 157 156
f 153 158 159
f 153 159 154
f 156 157 161
f 156 161 160
f 158 162 163
f 158 163 164
f 158 164 159
f 160 161 165
f 161 166 165
f 162 167 168
f 162 168 169
f 162 169 170
f 162 170 163
f 165 166 171
f 166 172 171
f 167 173 174
f 167 174 168
f 171 172 175
f 172 176 177
f 172 177 175
f 173 178 179
f 173 179 174
f 176 180 181
f 176 181 177
f 178 182 183
f 178 183 179
f 180 184 181
f 181 184 185
f 182 186 183
f 183 186 187
f 184 188 185
f 185 188 190
f 185 190 189
f 186 191 192
f 186 192 187
f 189 190 193
f 189 193 194
f 191 195 196
f 191 196 197
f 191 197 192
f 193 198 194
f 194 198 200
f 194 200 199
f 195 201 196
f 195 202 201
f 199 200 204
f 199 204 203
f 201 202 206
f 201 206 207
f 201 207 205
f 203 204 209
f 203 209 208
f 205 207 210
f 207 211 210
f 208 209 213
f 208 213 214
f 208 214 215
f 208 215 212
f 210 211 216
f 211 217 216
f 212 215 219
f 212 219 220
f 212 220 218
f 216 217 221
f 217 222 221
f 218 220 223
f 220 224 223
f 221 222 225
f 222 226 225
f 223 224 227
f 224 228 229
f 224 229 227
f 225 226 231
f 225 231 230
f 228 232 233
f 228 233 229
f 230 231 235
f 230 235 236
f 230 236 237
f 230 237 234
f 232 238 239
f 232 239 233
f 234 237 240
f 234 240 241
f 238 242 239
f 239 242 243
f 240 244 241
f 241 244 246
f 241 246 247
f 241 247 245
f 242 248 243
f 243 248 249
f 245 247 251
f 245 251 252
f 245 252 250
f 248 253 254
f 248 254 249
f 250 252 256
f 250 256 255
f 253 257 254
f 254 257 258
f 255 256 259
f 255 259 260
f 255 260 261
f 257 262 258
f 258 262 264
f 258 264 263
f 260 265 266
f 260 266 261
f 263 264 268
f 263 268 269
f 263 269 270
f 263 270 267
f 265 271 272
f 265 272 266
f 267 270 273
f 270 274 273
f 271 275 272
f 272 275 277
f 272 277 276
f 273 274 278
f 274 279 278
f 276 277 280
f 277 281 280
f 278 279 283
f 278 283 284
f 278 284 282
f 280 281 285
f 281 286 285
f 282 284 287
f 284 288 289
f 284 289 290
f 284 290 287
f 285 286 291
f 286 292 291
f 286 293 292
f 288 294 289
f 289 294 296
f 289 296 295
f 292 293 298
f 292 298 299
f 292 299 297
f 295 296 300
f 296 301 300
f 297 299 302
f 297 302 303
f 300 301 304
f 301 305 306
f 301 306 304
f 302 307 303
f 303 307 308
f 303 308 309
f 304 310 311
f 304 306 310
f 305 310 306
f 308 312 309
f 308 313 312
f 310 314 311
f 311 314 315
f 312 313 317
f 312 317 316
f 314 318 319
f 314 319 315
f 316 317 320
f 316 320 321
f 316 321 322
f 318 323 324
f 318 324 319
f 321 325 322
f 322 325 326
f 323 327 324
f 324 327 328
f 325 329 326
f 326 329 330
f 327 331 332
f 327 332 328
f 329 333 330
f 330 333 334
f 331 335 336
f 331 336 332
f 333 337 334
f 334 337 339
f 334 339 338
f 335 340 336
f 336 340 341
f 338 342 343
f 338 343 344
f 338 339 342
f 340 345 341
f 341 345 346
f 343 347 348
f 343 348 344
f 345 349 346
f 346 349 350
f 346 350 351
f 347 352 348
f 348 352 354
f 348 354 353
f 350 355 351
f 351 355 356
f 351 356 357
f 353 354 357
f 353 357 356

