mtllib material.mtl
usemtl material_0
v 0.78308000 8.35192500 -0.38316300
v 0.87708500 8.35369700 -0.17288800
v 0.16638100 8.36987900 0.01854400
v 0.62870900 8.35191100 -0.55411600
v 0.42908100 8.35365500 -0.66901300
v 0.20373800 8.35698700 -0.71660700
v -0.02526100 8.36158200 -0.69224000
v -0.23550100 8.36698800 -0.59829600
v -0.40640200 8.37267800 -0.44397100
v -0.52123500 8.37809300 -0.24437300
v -0.56876000 8.38270500 -0.01903800
v -0.54432400 8.38606100 0.20997600
v -0.45031900 8.38783300 0.42025100
v -0.29594700 8.38784700 0.59120400
v -0.09631900 8.38610300 0.70610100
v 0.12902300 8.38277100 0.75369500
v 0.35802200 8.37817600 0.72932800
v 0.56826300 8.37276900 0.63538400
v 0.73916400 8.36708000 0.48105900
v 0.85399700 8.36166400 0.28146100
v 0.90152100 8.35705300 0.05612600
v 1.07599300 9.80664800 -0.24347800
v 0.95920400 9.80444700 -0.50471700
v 0.19303600 9.82675300 -0.00564900
v 0.76741700 9.80442900 -0.71710400
v 0.51940600 9.80659700 -0.85984900
v 0.23944700 9.81073700 -0.91897800
v -0.04505400 9.81644400 -0.88870500
v -0.30625000 9.82316100 -0.77199200
v -0.51857200 9.83023000 -0.58026400
v -0.66123700 9.83695800 -0.33228900
v -0.72028000 9.84268800 -0.05234000
v -0.68992100 9.84685700 0.23217900
v -0.57313300 9.84905800 0.49341800
v -0.38134600 9.84907600 0.70580500
v -0.13333500 9.84691000 0.84855000
v 0.14662400 9.84276900 0.90767900
v 0.43112500 9.83706100 0.87740600
v 0.69232100 9.83034400 0.76069300
v 0.90464300 9.82327600 0.56896500
v 1.04730800 9.81654700 0.32099000
v 1.10635100 9.81081800 0.04104100
v 0.87708500 8.35369700 -0.17288800
v 0.78308000 8.35192500 -0.38316300
v 0.95920400 9.80444700 -0.50471700
v 1.07599300 9.80664800 -0.24347800
v 0.62870900 8.35191100 -0.55411600
v 0.76741700 9.80442900 -0.71710400
v 0.62870900 8.35191100 -0.55411600
v 0.42908100 8.35365500 -0.66901300
v 0.51940600 9.80659700 -0.85984900
v 0.76741700 9.80442900 -0.71710400
v 0.20373800 8.35698700 -0.71660700
v 0.23944700 9.81073700 -0.91897800
v -0.02526100 8.36158200 -0.69224000
v -0.04505400 9.81644400 -0.88870500
v -0.23550100 8.36698800 -0.59829600
v -0.30625000 9.82316100 -0.77199200
v -0.23550100 8.36698800 -0.59829600
v -0.40640200 8.37267800 -0.44397100
v -0.51857200 9.83023000 -0.58026400
v -0.30625000 9.82316100 -0.77199200
v -0.52123500 8.37809300 -0.24437300
v -0.66123700 9.83695800 -0.33228900
v -0.56876000 8.38270500 -0.01903800
v -0.72028000 9.84268800 -0.05234000
v -0.54432400 8.38606100 0.20997600
v -0.68992100 9.84685700 0.23217900
v -0.45031900 8.38783300 0.42025100
v -0.57313300 9.84905800 0.49341800
v -0.29594700 8.38784700 0.59120400
v -0.38134600 9.84907600 0.70580500
v -0.29594700 8.38784700 0.59120400
v -0.09631900 8.38610300 0.70610100
v -0.13333500 9.84691000 0.84855000
v -0.38134600 9.84907600 0.70580500
v 0.12902300 8.38277100 0.75369500
v 0.14662400 9.84276900 0.90767900
v 0.35802200 8.37817600 0.72932800
v 0.43112500 9.83706100 0.87740600
v 0.56826300 8.37276900 0.63538400
v 0.69232100 9.83034400 0.76069300
v 0.56826300 8.37276900 0.63538400
v 0.73916400 8.36708000 0.48105900
v 0.90464300 9.82327600 0.56896500
v 0.69232100 9.83034400 0.76069300
v 0.85399700 8.36166400 0.28146100
v 1.04730800 9.81654700 0.32099000
v 0.90152100 8.35705300 0.05612600
v 1.10635100 9.81081800 0.04104100
vn -0.01830000 -0.99970000 0.01660000
vn -0.01830000 -0.99970000 0.01660000
vn -0.01830000 -0.99970000 0.01660000
vn -0.01830000 -0.99970000 0.01660000
vn -0.01830000 -0.99970000 0.01660000
vn -0.01830000 -0.99970000 0.01660000
vn -0.01830000 -0.99970000 0.01660000
vn -0.01830000 -0.99970000 0.01660000
vn -0.01830000 -0.99970000 0.01660000
vn -0.01830000 -0.99970000 0.01660000
vn -0.01830000 -0.99970000 0.01660000
vn -0.01830000 -0.99970000 0.01660000
vn -0.01830000 -0.99970000 0.01660000
vn -0.01830000 -0.99970000 0.01660000
vn -0.01830000 -0.99970000 0.01660000
vn -0.01830000 -0.99970000 0.01660000
vn -0.01830000 -0.99970000 0.01660000
vn -0.01830000 -0.99970000 0.01660000
vn -0.01830000 -0.99970000 0.01660000
vn -0.01830000 -0.99970000 0.01660000
vn -0.01830000 -0.99970000 0.01660000
vn 0.01830000 0.99970000 -0.01660000
vn 0.01830000 0.99970000 -0.01660000
vn 0.01830000 0.99970000 -0.01660000
vn 0.01830000 0.99970000 -0.01660000
vn 0.01830000 0.99970000 -0.01660000
vn 0.01830000 0.99970000 -0.01660000
vn 0.01830000 0.99970000 -0.01660000
vn 0.01830000 0.99970000 -0.01660000
vn 0.01830000 0.99970000 -0.01660000
vn 0.01830000 0.99970000 -0.01660000
vn 0.01830000 0.99970000 -0.01660000
vn 0.01830000 0.99970000 -0.01660000
vn 0.01830000 0.99970000 -0.01660000
vn 0.01830000 0.99970000 -0.01660000
vn 0.01830000 0.99970000 -0.01660000
vn 0.01830000 0.99970000 -0.01660000
vn 0.01830000 0.99970000 -0.01660000
vn 0.01830000 0.99970000 -0.01660000
vn 0.01830000 0.99970000 -0.01660000
vn 0.01830000 0.99970000 -0.01660000
vn 0.01830000 0.99970000 -0.01660000
vn 0.95600000 -0.14330000 -0.25610000
vn 0.82920000 -0.14570000 -0.53960000
vn 0.82920000 -0.14570000 -0.53960000
vn 0.95600000 -0.14330000 -0.25610000
vn 0.62110000 -0.14570000 -0.77010000
vn 0.62110000 -0.14570000 -0.77010000
vn 0.62110000 -0.14570000 -0.77010000
vn 0.35200000 -0.14340000 -0.92500000
vn 0.35200000 -0.14340000 -0.92500000
vn 0.62110000 -0.14570000 -0.77010000
vn 0.04810000 -0.13890000 -0.98910000
vn 0.04810000 -0.13890000 -0.98910000
vn -0.26060000 -0.13270000 -0.95630000
vn -0.26060000 -0.13270000 -0.95630000
vn -0.54410000 -0.12540000 -0.82960000
vn -0.54410000 -0.12540000 -0.82960000
vn -0.54400000 -0.12540000 -0.82960000
vn -0.77450000 -0.11770000 -0.62160000
vn -0.77450000 -0.11770000 -0.62160000
vn -0.54400000 -0.12540000 -0.82960000
vn -0.92930000 -0.11040000 -0.35250000
vn -0.92930000 -0.11040000 -0.35250000
vn -0.99340000 -0.10420000 -0.04870000
vn -0.99340000 -0.10420000 -0.04870000
vn -0.96040000 -0.09970000 0.26010000
vn -0.96040000 -0.09970000 0.26010000
vn -0.83370000 -0.09730000 0.54360000
vn -0.83370000 -0.09730000 0.54360000
vn -0.62550000 -0.09730000 0.77410000
vn -0.62550000 -0.09730000 0.77410000
vn -0.62560000 -0.09730000 0.77410000
vn -0.35640000 -0.09960000 0.92900000
vn -0.35640000 -0.09960000 0.92900000
vn -0.62560000 -0.09730000 0.77410000
vn -0.05260000 -0.10410000 0.99320000
vn -0.05260000 -0.10410000 0.99320000
vn 0.25620000 -0.11030000 0.96030000
vn 0.25620000 -0.11030000 0.96030000
vn 0.53960000 -0.11760000 0.83370000
vn 0.53960000 -0.11760000 0.83370000
vn 0.53960000 -0.11760000 0.83370000
vn 0.77000000 -0.12530000 0.62560000
vn 0.77000000 -0.12530000 0.62560000
vn 0.53960000 -0.11760000 0.83370000
vn 0.92480000 -0.13260000 0.35650000
vn 0.92480000 -0.13260000 0.35650000
vn 0.98890000 -0.13880000 0.05270000
vn 0.98890000 -0.13880000 0.05270000
vt 0.32069600 0.28609800
vt 0.34248800 0.24333000
vt 0.19657900 0.19592200
vt 0.28675600 0.32003900
vt 0.24398800 0.34183000
vt 0.19657900 0.34933900
vt 0.14917100 0.34183000
vt 0.10640300 0.32003900
vt 0.07246200 0.28609800
vt 0.05067100 0.24333000
vt 0.04316200 0.19592200
vt 0.05067100 0.14851300
vt 0.07246200 0.10574600
vt 0.10640300 0.07180500
vt 0.14917100 0.05001400
vt 0.19657900 0.04250500
vt 0.24398800 0.05001400
vt 0.28675500 0.07180500
vt 0.32069600 0.10574600
vt 0.34248700 0.14851300
vt 0.34999600 0.19592200
vt 0.39117800 0.14180600
vt 0.36410500 0.08867300
vt 0.20990600 0.20070500
vt 0.32193800 0.04650600
vt 0.26880500 0.01943300
vt 0.20990600 0.01010400
vt 0.15100700 0.01943300
vt 0.09787400 0.04650600
vt 0.05570700 0.08867300
vt 0.02863400 0.14180600
vt 0.01930500 0.20070500
vt 0.02863400 0.25960400
vt 0.05570700 0.31273700
vt 0.09787400 0.35490400
vt 0.15100700 0.38197700
vt 0.20990600 0.39130500
vt 0.26880500 0.38197700
vt 0.32193800 0.35490400
vt 0.36410500 0.31273700
vt 0.39117800 0.25960400
vt 0.40050600 0.20070500
vt 0.61251000 0.02212700
vt 0.56924000 0.02239500
vt 0.54903600 0.32978700
vt 0.60279400 0.32945300
vt 0.53490000 0.02260900
vt 0.50637300 0.33005200
vt 0.50853600 0.39628700
vt 0.51191000 0.43942700
vt 0.81732900 0.40388500
vt 0.81313800 0.35029000
vt 0.51564800 0.48724700
vt 0.82197400 0.46329600
vt 0.51938800 0.53506700
vt 0.82661900 0.52270700
vt 0.52276100 0.57820700
vt 0.83080900 0.57630200
vt 0.78850900 0.01904600
vt 0.75416900 0.01925900
vt 0.77819100 0.32637600
vt 0.82085300 0.32611100
vt 0.71089900 0.01952800
vt 0.72443300 0.32671000
vt 0.66293300 0.01982600
vt 0.66484200 0.32708000
vt 0.61496800 0.02012400
vt 0.60525100 0.32745000
vt 0.57169700 0.02039300
vt 0.55149400 0.32778500
vt 0.53735800 0.02060600
vt 0.50883100 0.32804900
vt 0.50887100 0.39073400
vt 0.51221000 0.43387600
vt 0.81765700 0.39856900
vt 0.81350700 0.34497100
vt 0.51591300 0.48169900
vt 0.82225700 0.45798300
vt 0.51961500 0.52952300
vt 0.82685600 0.51739700
vt 0.52295500 0.57266500
vt 0.83100600 0.57099600
vt 0.78605100 0.02104800
vt 0.75171100 0.02126100
vt 0.77573300 0.32837800
vt 0.81839500 0.32811300
vt 0.70844100 0.02153000
vt 0.72197500 0.32871300
vt 0.66047500 0.02182800
vt 0.66238400 0.32908300
f 1/1/1 2/2/2 3/3/3
f 4/4/4 1/1/1 3/3/3
f 5/5/5 4/4/4 3/3/3
f 6/6/6 5/5/5 3/3/3
f 7/7/7 6/6/6 3/3/3
f 8/8/8 7/7/7 3/3/3
f 9/9/9 8/8/8 3/3/3
f 10/10/10 9/9/9 3/3/3
f 11/11/11 10/10/10 3/3/3
f 12/12/12 11/11/11 3/3/3
f 13/13/13 12/12/12 3/3/3
f 14/14/14 13/13/13 3/3/3
f 15/15/15 14/14/14 3/3/3
f 16/16/16 15/15/15 3/3/3
f 17/17/17 16/16/16 3/3/3
f 18/18/18 17/17/17 3/3/3
f 19/19/19 18/18/18 3/3/3
f 20/20/20 19/19/19 3/3/3
f 21/21/21 20/20/20 3/3/3
f 2/2/2 21/21/21 3/3/3
f 22/22/22 23/23/23 24/24/24
f 23/23/23 25/25/25 24/24/24
f 25/25/25 26/26/26 24/24/24
f 26/26/26 27/27/27 24/24/24
f 27/27/27 28/28/28 24/24/24
f 28/28/28 29/29/29 24/24/24
f 29/29/29 30/30/30 24/24/24
f 30/30/30 31/31/31 24/24/24
f 31/31/31 32/32/32 24/24/24
f 32/32/32 33/33/33 24/24/24
f 33/33/33 34/34/34 24/24/24
f 34/34/34 35/35/35 24/24/24
f 35/35/35 36/36/36 24/24/24
f 36/36/36 37/37/37 24/24/24
f 37/37/37 38/38/38 24/24/24
f 38/38/38 39/39/39 24/24/24
f 39/39/39 40/40/40 24/24/24
f 40/40/40 41/41/41 24/24/24
f 41/41/41 42/42/42 24/24/24
f 42/42/42 22/22/22 24/24/24
f 43/43/43 44/44/44 45/45/45
f 43/43/43 45/45/45 46/46/46
f 44/44/44 47/47/47 48/48/48
f 44/44/44 48/48/48 45/45/45
f 49/49/49 50/50/50 51/51/51
f 49/49/49 51/51/51 52/52/52
f 50/50/50 53/53/53 54/54/54
f 50/50/50 54/54/54 51/51/51
f 53/53/53 55/55/55 56/56/56
f 53/53/53 56/56/56 54/54/54
f 55/55/55 57/57/57 58/58/58
f 55/55/55 58/58/58 56/56/56
f 59/59/59 60/60/60 61/61/61
f 59/59/59 61/61/61 62/62/62
f 60/60/60 63/63/63 64/64/64
f 60/60/60 64/64/64 61/61/61
f 63/63/63 65/65/65 66/66/66
f 63/63/63 66/66/66 64/64/64
f 65/65/65 67/67/67 68/68/68
f 65/65/65 68/68/68 66/66/66
f 67/67/67 69/69/69 70/70/70
f 67/67/67 70/70/70 68/68/68
f 69/69/69 71/71/71 72/72/72
f 69/69/69 72/72/72 70/70/70
f 73/73/73 74/74/74 75/75/75
f 73/73/73 75/75/75 76/76/76
f 74/74/74 77/77/77 78/78/78
f 74/74/74 78/78/78 75/75/75
f 77/77/77 79/79/79 80/80/80
f 77/77/77 80/80/80 78/78/78
f 79/79/79 81/81/81 82/82/82
f 79/79/79 82/82/82 80/80/80
f 83/83/83 84/84/84 85/85/85
f 83/83/83 85/85/85 86/86/86
f 84/84/84 87/87/87 88/88/88
f 84/84/84 88/88/88 85/85/85
f 87/87/87 89/89/89 90/90/90
f 87/87/87 90/90/90 88/88/88
f 89/89/89 43/43/43 46/46/46
f 89/89/89 46/46/46 90/90/90

