mtllib material.mtl
usemtl material_0
v 0.48425700 0.16530400 -0.16708500
v 0.55850500 0.16670300 -0.00100300
v -0.00550800 0.03310500 0.15262600
v 0.36233000 0.16529200 -0.30210800
v 0.20465800 0.16667000 -0.39285700
v 0.02667700 0.16930200 -0.43044800
v -0.15419400 0.17293100 -0.41120200
v -0.32024700 0.17720100 -0.33700300
v -0.45523000 0.18169500 -0.21511300
v -0.54592800 0.18597200 -0.05746400
v -0.58346400 0.18961500 0.12051200
v -0.56416400 0.19226600 0.30139300
v -0.48991600 0.19366500 0.46747400
v -0.36798900 0.19367600 0.60249800
v -0.21031700 0.19229900 0.69324700
v -0.03233600 0.18966700 0.73083800
v 0.14853500 0.18603800 0.71159200
v 0.31458800 0.18176800 0.63739200
v 0.44957100 0.17727400 0.51550300
v 0.54026900 0.17299700 0.35785400
v 0.57780500 0.16935400 0.17987800
v 1.24640600 9.16350900 -0.29149900
v 1.10297000 9.16080600 -0.61234300
v 0.16299000 9.24265500 -0.00031200
v 0.86742500 9.16078300 -0.87318800
v 0.56282800 9.16344500 -1.04850100
v 0.21899400 9.16853000 -1.12112100
v -0.13041900 9.17554000 -1.08394100
v -0.45120900 9.18378900 -0.94059900
v -0.71197400 9.19247100 -0.70512600
v -0.88719000 9.20073300 -0.40057300
v -0.95970400 9.20777000 -0.05675100
v -0.92241800 9.21289100 0.29268400
v -0.77898300 9.21559400 0.61352700
v -0.54343900 9.21561700 0.87437200
v -0.23884100 9.21295500 1.04968500
v 0.10499200 9.20787000 1.12230600
v 0.45440500 9.20086000 1.08512500
v 0.77519500 9.19261100 0.94178300
v 1.03596100 9.18392900 0.70631100
v 1.21117600 9.17566700 0.40175800
v 1.28369000 9.16863000 0.05793600
v 0.79899300 0.33937400 -0.06786000
v 0.69336700 0.33738200 -0.30413000
v 0.79068100 0.69224000 -0.36919500
v 0.91014400 0.69449200 -0.10197400
v 0.69336700 0.33738200 -0.30413000
v 0.51991100 0.33736600 -0.49621700
v 0.59450300 0.69222100 -0.58644400
v 0.79068100 0.69224000 -0.36919500
v 0.29560500 0.33932600 -0.62531800
v 0.34081300 0.69443800 -0.73245800
v 0.04240400 0.34307100 -0.67879600
v 0.05444400 0.69867300 -0.79294100
v -0.21490500 0.34823300 -0.65141600
v -0.23657200 0.70451200 -0.76197500
v -0.45113600 0.35430800 -0.54585800
v -0.50374900 0.71138300 -0.64258900
v -0.64316400 0.36070100 -0.37245600
v -0.72093300 0.71861300 -0.44647100
v -0.64316400 0.36070100 -0.37245600
v -0.77219300 0.36678600 -0.14818200
v -0.86686400 0.72549500 -0.19281800
v -0.72093300 0.71861300 -0.44647100
v -0.82559300 0.37196700 0.10501000
v -0.92725900 0.73135600 0.09354100
v -0.79813600 0.37573800 0.36233500
v -0.89620500 0.73562000 0.38457500
v -0.69251000 0.37772900 0.59860500
v -0.77674200 0.73787200 0.65179600
v -0.69251000 0.37772900 0.59860500
v -0.51905400 0.37774600 0.79069200
v -0.58056400 0.73789100 0.86904600
v -0.77674200 0.73787200 0.65179600
v -0.29474800 0.37578600 0.91979300
v -0.32687400 0.73567400 1.01505900
v -0.04154700 0.37204100 0.97327100
v -0.04050500 0.73143900 1.07554300
v 0.21576200 0.36687900 0.94589100
v 0.25051100 0.72560000 1.04457600
v 0.45199300 0.36080400 0.84033400
v 0.51768700 0.71873000 0.92519100
v 0.64402100 0.35441100 0.66693100
v 0.73487100 0.71149900 0.72907300
v 0.64402100 0.35441100 0.66693100
v 0.77305000 0.34832600 0.44265700
v 0.88080300 0.70461700 0.47542000
v 0.73487100 0.71149900 0.72907300
v 0.82645000 0.34314400 0.18946600
v 0.94119800 0.69875700 0.18906100
v 0.55850500 0.16670300 -0.00100300
v 0.48425700 0.16530400 -0.16708500
v 0.79899300 0.33937400 -0.06786000
v 0.36233000 0.16529200 -0.30210800
v 0.20465800 0.16667000 -0.39285700
v 0.02667700 0.16930200 -0.43044800
v -0.15419400 0.17293100 -0.41120200
v -0.32024700 0.17720100 -0.33700300
v -0.45523000 0.18169500 -0.21511300
v -0.54592800 0.18597200 -0.05746400
v -0.77219300 0.36678600 -0.14818200
v -0.58346400 0.18961500 0.12051200
v -0.82559300 0.37196700 0.10501000
v -0.56416400 0.19226600 0.30139300
v -0.79813600 0.37573800 0.36233500
v -0.48991600 0.19366500 0.46747400
v -0.36798900 0.19367600 0.60249800
v -0.21031700 0.19229900 0.69324700
v -0.03233600 0.18966700 0.73083800
v 0.14853500 0.18603800 0.71159200
v 0.31458800 0.18176800 0.63739200
v 0.44957100 0.17727400 0.51550300
v 0.54026900 0.17299700 0.35785400
v 0.77305000 0.34832600 0.44265700
v 0.57780500 0.16935400 0.17987800
v 0.82645000 0.34314400 0.18946600
v 0.97703700 0.95074100 -0.12300000
v 1.01022800 0.95529900 0.18807000
v 0.94567500 0.96156300 0.49414300
v 0.78969700 0.96891900 0.76525900
v 0.78969700 0.96891900 0.76525900
v 0.55756100 0.97664700 0.97487800
v 0.27199100 0.98399100 1.10248200
v -0.03905900 0.99023200 1.13558100
v -0.34514300 0.99475800 1.07093300
v -0.61629800 0.99712800 0.91486800
v -0.82598200 0.99710800 0.68266200
v -0.82598200 0.99710800 0.68266200
v -0.95366900 0.99470100 0.39704500
v -0.98686100 0.99014200 0.08597400
v -0.92230800 0.98387900 -0.22009900
v -0.76633000 0.97652300 -0.49121500
v -0.76633000 0.97652300 -0.49121500
v -0.53419400 0.96879400 -0.70083400
v -0.24862400 0.96145100 -0.82843900
v 0.06242600 0.95521000 -0.86153700
v 0.36851000 0.95068400 -0.79688900
v 0.63966500 0.94831400 -0.64082400
v 0.84934900 0.94833400 -0.40861800
v 0.84934900 0.94833400 -0.40861800
v 1.04808700 3.02455600 0.15370700
v 1.01489500 3.01999800 -0.15736300
v 1.11847400 8.68128000 -0.25137700
v 1.15166500 8.68583900 0.05969300
v 0.98353400 3.03082000 0.45978000
v 1.08711300 8.69210200 0.36576600
v 0.82755600 3.03817600 0.73089600
v 0.93113400 8.69945900 0.63688200
v 0.59542000 3.04590400 0.94051500
v 0.69899900 8.70718800 0.84650200
v 0.30985000 3.05324800 1.06812000
v 0.59542000 3.04590400 0.94051500
v 0.69899900 8.70718800 0.84650200
v 0.41342900 8.71453100 0.97410600
v -0.00120000 3.05948900 1.10121800
v 0.10237800 8.72077200 1.00720400
v -0.30728400 3.06401500 1.03657000
v -0.20370600 8.72529800 0.94255700
v -0.57843900 3.06638500 0.88050500
v -0.47486100 8.72766700 0.78649100
v -0.78812300 3.06636500 0.64829900
v -0.57843900 3.06638500 0.88050500
v -0.47486100 8.72766700 0.78649100
v -0.68454400 8.72764800 0.55428500
v -0.91581000 3.06395800 0.36268200
v -0.81223200 8.72524100 0.26866800
v -0.94900200 3.05939900 0.05161100
v -0.84542400 8.72068200 -0.04240200
v -0.88444900 3.05313500 -0.25446200
v -0.78087100 8.71441800 -0.34847500
v -0.72847100 3.04577900 -0.52557800
v -0.62489300 8.70706300 -0.61959100
v -0.49633600 3.03805100 -0.73519700
v -0.39275700 8.69933500 -0.82921100
v -0.21076500 3.03070800 -0.86280200
v -0.49633600 3.03805100 -0.73519700
v -0.39275700 8.69933500 -0.82921100
v -0.10718700 8.69199000 -0.95681500
v 0.10028500 3.02446700 -0.89590000
v 0.20386400 8.68575000 -0.98991400
v 0.40636900 3.01994000 -0.83125200
v 0.50994800 8.68122300 -0.92526600
v 0.67752400 3.01757100 -0.67518700
v 0.78110300 8.67885400 -0.76920100
v 0.88720800 3.01759100 -0.44298100
v 0.67752400 3.01757100 -0.67518700
v 0.78110300 8.67885400 -0.76920100
v 0.99078700 8.67887400 -0.53699400
v 1.31622600 8.68296800 0.06810600
v 1.27756500 8.67765800 -0.29422900
v 1.24640600 9.16350900 -0.29149900
v 1.28369000 9.16863000 0.05793600
v 1.24103500 8.69026400 0.42462000
v 1.21117600 9.17566700 0.40175800
v 1.05935200 8.69883300 0.74041600
v 1.03596100 9.18392900 0.70631100
v 0.78896000 8.70783400 0.98458100
v 0.77519500 9.19261100 0.94178300
v 0.45632800 8.71638900 1.13321500
v 0.78896000 8.70783400 0.98458100
v 0.77519500 9.19261100 0.94178300
v 0.45440500 9.20086000 1.08512500
v 0.09401600 8.72365800 1.17176800
v 0.10499200 9.20787000 1.12230600
v -0.26251100 8.72893000 1.09646600
v -0.23884100 9.21295500 1.04968500
v -0.57835300 8.73168900 0.91468100
v -0.54343900 9.21561700 0.87437200
v -0.82259300 8.73166700 0.64420700
v -0.57835300 8.73168900 0.91468100
v -0.54343900 9.21561700 0.87437200
v -0.77898300 9.21559400 0.61352700
v -0.97132300 8.72886300 0.31152000
v -0.92241800 9.21289100 0.29268400
v -1.00998500 8.72355400 -0.05081500
v -0.95970400 9.20777000 -0.05675100
v -0.93479400 8.71625700 -0.40732900
v -0.88719000 9.20073300 -0.40057300
v -0.75311000 8.70768900 -0.72312500
v -0.71197400 9.19247100 -0.70512600
v -0.48271800 8.69868700 -0.96729000
v -0.45120900 9.18378900 -0.94059900
v -0.15008600 8.69013400 -1.11592400
v -0.48271800 8.69868700 -0.96729000
v -0.45120900 9.18378900 -0.94059900
v -0.13041900 9.17554000 -1.08394100
v 0.21222600 8.68286400 -1.15447700
v 0.21899400 9.16853000 -1.12112100
v 0.56875300 8.67759100 -1.07917600
v 0.56282800 9.16344500 -1.04850100
v 0.88459500 8.67483100 -0.89739100
v 0.86742500 9.16078300 -0.87318800
v 1.12883500 8.67485500 -0.62691600
v 0.88459500 8.67483100 -0.89739100
v 0.86742500 9.16078300 -0.87318800
v 1.10297000 9.16080600 -0.61234300
v 1.15166500 8.68583900 0.05969300
v 1.11847400 8.68128000 -0.25137700
v 1.27756500 8.67765800 -0.29422900
v 1.31622600 8.68296800 0.06810600
v 1.08711300 8.69210200 0.36576600
v 1.24103500 8.69026400 0.42462000
v 0.93113400 8.69945900 0.63688200
v 1.05935200 8.69883300 0.74041600
v 0.69899900 8.70718800 0.84650200
v 0.78896000 8.70783400 0.98458100
v 0.41342900 8.71453100 0.97410600
v 0.45632800 8.71638900 1.13321500
v 0.10237800 8.72077200 1.00720400
v 0.09401600 8.72365800 1.17176800
v -0.20370600 8.72529800 0.94255700
v -0.26251100 8.72893000 1.09646600
v -0.47486100 8.72766700 0.78649100
v -0.57835300 8.73168900 0.91468100
v -0.68454400 8.72764800 0.55428500
v -0.82259300 8.73166700 0.64420700
v -0.81223200 8.72524100 0.26866800
v -0.97132300 8.72886300 0.31152000
v -0.84542400 8.72068200 -0.04240200
v -1.00998500 8.72355400 -0.05081500
v -0.78087100 8.71441800 -0.34847500
v -0.93479400 8.71625700 -0.40732900
v -0.62489300 8.70706300 -0.61959100
v -0.75311000 8.70768900 -0.72312500
v -0.39275700 8.69933500 -0.82921100
v -0.48271800 8.69868700 -0.96729000
v -0.10718700 8.69199000 -0.95681500
v -0.15008600 8.69013400 -1.11592400
v 0.20386400 8.68575000 -0.98991400
v 0.21222600 8.68286400 -1.15447700
v 0.50994800 8.68122300 -0.92526600
v 0.56875300 8.67759100 -1.07917600
v 0.78110300 8.67885400 -0.76920100
v 0.88459500 8.67483100 -0.89739100
v 0.99078700 8.67887400 -0.53699400
v 1.12883500 8.67485500 -0.62691600
v 0.63966500 0.94831400 -0.64082400
v 0.63966500 0.94831400 -0.64082400
v 0.36851000 0.95068400 -0.79688900
v 0.06242600 0.95521000 -0.86153700
v -0.24862400 0.96145100 -0.82843900
v -0.53419400 0.96879400 -0.70083400
v -0.53419400 0.96879400 -0.70083400
v -0.61629800 0.99712800 0.91486800
v -0.61629800 0.99712800 0.91486800
v -0.34514300 0.99475800 1.07093300
v -0.03905900 0.99023200 1.13558100
v 0.27199100 0.98399100 1.10248200
v 0.55756100 0.97664700 0.97487800
v 0.55756100 0.97664700 0.97487800
vn 0.18680000 -0.97540000 -0.11710000
vn 0.21800000 -0.97480000 -0.04740000
vn -0.01830000 -0.99970000 0.01660000
vn 0.13560000 -0.97540000 -0.17380000
vn 0.06940000 -0.97480000 -0.21200000
vn -0.00530000 -0.97370000 -0.22770000
vn -0.08130000 -0.97220000 -0.21970000
vn -0.15100000 -0.97040000 -0.18850000
vn -0.20770000 -0.96850000 -0.13730000
vn -0.24580000 -0.96670000 -0.07110000
vn -0.26160000 -0.96520000 0.00360000
vn -0.25350000 -0.96410000 0.07960000
vn -0.22230000 -0.96350000 0.14930000
vn -0.17110000 -0.96350000 0.20600000
vn -0.10490000 -0.96410000 0.24420000
vn -0.03010000 -0.96520000 0.25990000
vn 0.04580000 -0.96670000 0.25190000
vn 0.11560000 -0.96850000 0.22070000
vn 0.17220000 -0.97040000 0.16950000
vn 0.21030000 -0.97220000 0.10330000
vn 0.22610000 -0.97370000 0.02860000
vn 0.06500000 0.99750000 -0.02920000
vn 0.05880000 0.99730000 -0.04300000
vn 0.01830000 0.99970000 -0.01660000
vn 0.04870000 0.99730000 -0.05430000
vn 0.03560000 0.99750000 -0.06180000
vn 0.02070000 0.99770000 -0.06490000
vn 0.00570000 0.99800000 -0.06330000
vn -0.00820000 0.99830000 -0.05720000
vn -0.01940000 0.99870000 -0.04700000
vn -0.02700000 0.99910000 -0.03390000
vn -0.03010000 0.99940000 -0.01910000
vn -0.02850000 0.99960000 -0.00400000
vn -0.02230000 0.99970000 0.00980000
vn -0.01210000 0.99970000 0.02110000
vn 0.00100000 0.99960000 0.02860000
vn 0.01580000 0.99940000 0.03180000
vn 0.03090000 0.99910000 0.03020000
vn 0.04470000 0.99870000 0.02400000
vn 0.05600000 0.99830000 0.01390000
vn 0.06350000 0.99800000 0.00070000
vn 0.06660000 0.99770000 -0.01410000
vn 0.80690000 -0.55170000 -0.21110000
vn 0.73390000 -0.55230000 -0.39540000
vn 0.82800000 -0.29630000 -0.47610000
vn 0.92350000 -0.29470000 -0.24560000
vn 0.63160000 -0.64390000 -0.43170000
vn 0.48870000 -0.62470000 -0.60900000
vn 0.59660000 -0.29640000 -0.74580000
vn 0.77140000 -0.29670000 -0.56300000
vn 0.27290000 -0.62280000 -0.73330000
vn 0.33520000 -0.29410000 -0.89510000
vn 0.02930000 -0.61920000 -0.78470000
vn 0.04060000 -0.28970000 -0.95630000
vn -0.21830000 -0.61420000 -0.75840000
vn -0.25860000 -0.28370000 -0.92340000
vn -0.44560000 -0.60840000 -0.65680000
vn -0.53290000 -0.27660000 -0.79970000
vn -0.60570000 -0.62280000 -0.49520000
vn -0.71980000 -0.27070000 -0.63930000
vn -0.70860000 -0.52710000 -0.46910000
vn -0.79990000 -0.52370000 -0.29330000
vn -0.90470000 -0.26210000 -0.33600000
vn -0.78490000 -0.26810000 -0.55860000
vn -0.85450000 -0.51840000 -0.03430000
vn -0.96580000 -0.25610000 -0.04130000
vn -0.82640000 -0.51450000 0.22880000
vn -0.93280000 -0.25170000 0.25780000
vn -0.75340000 -0.51170000 0.41310000
vn -0.83800000 -0.24980000 0.48520000
vn -0.65450000 -0.60570000 0.45250000
vn -0.51090000 -0.58580000 0.62910000
vn -0.60660000 -0.24940000 0.75490000
vn -0.78140000 -0.24940000 0.57210000
vn -0.29510000 -0.58770000 0.75340000
vn -0.34520000 -0.25170000 0.90410000
vn -0.05150000 -0.59130000 0.80480000
vn -0.05050000 -0.25610000 0.96530000
vn 0.19610000 -0.59630000 0.77850000
vn 0.24860000 -0.26210000 0.93250000
vn 0.42340000 -0.60210000 0.67690000
vn 0.52290000 -0.26920000 0.80880000
vn 0.58280000 -0.62780000 0.51600000
vn 0.70980000 -0.27540000 0.64840000
vn 0.68910000 -0.53680000 0.48680000
vn 0.78040000 -0.54250000 0.31100000
vn 0.89470000 -0.28370000 0.34500000
vn 0.77490000 -0.27800000 0.56770000
vn 0.83500000 -0.54780000 0.05200000
vn 0.95580000 -0.28970000 0.05040000
vn 0.55170000 -0.82230000 -0.13920000
vn 0.47680000 -0.82370000 -0.30680000
vn 0.71050000 -0.67930000 -0.18360000
vn 0.35370000 -0.82370000 -0.44310000
vn 0.19460000 -0.82240000 -0.53470000
vn 0.01500000 -0.81970000 -0.57260000
vn -0.16760000 -0.81600000 -0.55320000
vn -0.33520000 -0.81170000 -0.47830000
vn -0.47140000 -0.80720000 -0.35530000
vn -0.56300000 -0.80290000 -0.19610000
vn -0.71130000 -0.65450000 -0.25630000
vn -0.60080000 -0.79920000 -0.01650000
vn -0.75960000 -0.64980000 -0.02720000
vn -0.58140000 -0.79650000 0.16600000
vn -0.73480000 -0.64640000 0.20570000
vn -0.50640000 -0.79510000 0.33370000
vn -0.38340000 -0.79510000 0.46990000
vn -0.22420000 -0.79650000 0.56150000
vn -0.04460000 -0.79910000 0.59950000
vn 0.13800000 -0.80280000 0.58010000
vn 0.30560000 -0.80710000 0.50520000
vn 0.44180000 -0.81170000 0.38210000
vn 0.53330000 -0.81600000 0.22300000
vn 0.68710000 -0.67120000 0.27840000
vn 0.57120000 -0.81960000 0.04340000
vn 0.73540000 -0.67590000 0.04920000
vn 0.98290000 0.10320000 -0.15220000
vn 0.99030000 0.13010000 0.04810000
vn 0.92650000 0.13630000 0.35080000
vn 0.79050000 0.05130000 0.61030000
vn 0.69810000 0.45490000 0.55290000
vn 0.48920000 0.47770000 0.72970000
vn 0.23780000 0.48420000 0.84200000
vn -0.03600000 0.48970000 0.87120000
vn -0.30540000 0.49360000 0.81430000
vn -0.54420000 0.49570000 0.67690000
vn -0.73460000 0.47990000 0.47970000
vn -0.84620000 0.08050000 0.52670000
vn -0.95210000 0.16900000 0.25470000
vn -0.98490000 0.16450000 -0.05300000
vn -0.92110000 0.15830000 -0.35580000
vn -0.78850000 0.05990000 -0.61210000
vn -0.68130000 0.46150000 -0.56820000
vn -0.47180000 0.47080000 -0.74550000
vn -0.22040000 0.46430000 -0.85780000
vn 0.05340000 0.45880000 -0.88690000
vn 0.32280000 0.45480000 -0.83000000
vn 0.56150000 0.45280000 -0.69260000
vn 0.75140000 0.43650000 -0.49490000
vn 0.84830000 0.03200000 -0.52850000
vn 0.99850000 -0.01740000 0.05100000
vn 0.96540000 -0.02200000 -0.26000000
vn 0.96540000 -0.02200000 -0.26000000
vn 0.99850000 -0.01740000 0.05100000
vn 0.93400000 -0.01120000 0.35710000
vn 0.93400000 -0.01120000 0.35710000
vn 0.77800000 -0.00380000 0.62820000
vn 0.77800000 -0.00380000 0.62820000
vn 0.54590000 0.00390000 0.83790000
vn 0.54590000 0.00390000 0.83790000
vn 0.26030000 0.01130000 0.96550000
vn 0.54590000 0.00390000 0.83780000
vn 0.54590000 0.00390000 0.83780000
vn 0.26030000 0.01130000 0.96550000
vn -0.05070000 0.01750000 0.99860000
vn -0.05070000 0.01750000 0.99860000
vn -0.35680000 0.02200000 0.93390000
vn -0.35680000 0.02200000 0.93390000
vn -0.62800000 0.02440000 0.77780000
vn -0.62800000 0.02440000 0.77780000
vn -0.83770000 0.02440000 0.54560000
vn -0.62800000 0.02440000 0.77790000
vn -0.62800000 0.02440000 0.77790000
vn -0.83770000 0.02440000 0.54560000
vn -0.96540000 0.02200000 0.26000000
vn -0.96540000 0.02200000 0.26000000
vn -0.99850000 0.01740000 -0.05100000
vn -0.99850000 0.01740000 -0.05100000
vn -0.93400000 0.01120000 -0.35710000
vn -0.93400000 0.01120000 -0.35710000
vn -0.77800000 0.00380000 -0.62820000
vn -0.77800000 0.00380000 -0.62820000
vn -0.54590000 -0.00390000 -0.83790000
vn -0.54590000 -0.00390000 -0.83790000
vn -0.26030000 -0.01130000 -0.96550000
vn -0.54590000 -0.00390000 -0.83780000
vn -0.54590000 -0.00390000 -0.83780000
vn -0.26030000 -0.01130000 -0.96550000
vn 0.05070000 -0.01750000 -0.99860000
vn 0.05070000 -0.01750000 -0.99860000
vn 0.35680000 -0.02200000 -0.93390000
vn 0.35680000 -0.02200000 -0.93390000
vn 0.62800000 -0.02440000 -0.77780000
vn 0.62800000 -0.02440000 -0.77780000
vn 0.83770000 -0.02440000 -0.54560000
vn 0.62800000 -0.02440000 -0.77790000
vn 0.62800000 -0.02440000 -0.77790000
vn 0.83770000 -0.02440000 -0.54560000
vn 0.99650000 0.06780000 0.04940000
vn 0.96340000 0.06330000 -0.26050000
vn 0.96340000 0.06330000 -0.26050000
vn 0.99650000 0.06780000 0.04940000
vn 0.93220000 0.07400000 0.35440000
vn 0.93220000 0.07400000 0.35440000
vn 0.77670000 0.08140000 0.62450000
vn 0.77670000 0.08140000 0.62450000
vn 0.55340000 0.09090000 0.82800000
vn 0.55340000 0.09090000 0.82800000
vn 0.26090000 0.09640000 0.96050000
vn 0.53740000 0.09130000 0.83840000
vn 0.53740000 0.09140000 0.83840000
vn 0.26090000 0.09640000 0.96050000
vn -0.04900000 0.10260000 0.99350000
vn -0.04900000 0.10260000 0.99350000
vn -0.35400000 0.10710000 0.92910000
vn -0.35400000 0.10710000 0.92910000
vn -0.61650000 0.11150000 0.77940000
vn -0.61650000 0.11150000 0.77940000
vn -0.83310000 0.10940000 0.54220000
vn -0.63140000 0.11150000 0.76740000
vn -0.63140000 0.11160000 0.76740000
vn -0.83310000 0.10940000 0.54220000
vn -0.96030000 0.10710000 0.25770000
vn -0.96030000 0.10710000 0.25770000
vn -0.99340000 0.10250000 -0.05230000
vn -0.99340000 0.10250000 -0.05230000
vn -0.92900000 0.09630000 -0.35720000
vn -0.92900000 0.09630000 -0.35720000
vn -0.77360000 0.08890000 -0.62740000
vn -0.77360000 0.08890000 -0.62740000
vn -0.55020000 0.08350000 -0.83090000
vn -0.55020000 0.08360000 -0.83090000
vn -0.25780000 0.07390000 -0.96340000
vn -0.53420000 0.08300000 -0.84130000
vn -0.53420000 0.08310000 -0.84130000
vn -0.25780000 0.07390000 -0.96340000
vn 0.05210000 0.06770000 -0.99630000
vn 0.05210000 0.06770000 -0.99630000
vn 0.35710000 0.06320000 -0.93190000
vn 0.35710000 0.06320000 -0.93190000
vn 0.61970000 0.06290000 -0.78230000
vn 0.61970000 0.06300000 -0.78230000
vn 0.83620000 0.06090000 -0.54510000
vn 0.63460000 0.06280000 -0.77030000
vn 0.63460000 0.06290000 -0.77030000
vn 0.83620000 0.06090000 -0.54510000
vn -0.01830000 -0.99970000 0.01660000
vn -0.01830000 -0.99970000 0.01660000
vn -0.01830000 -0.99970000 0.01660000
vn -0.01830000 -0.99970000 0.01660000
vn -0.01830000 -0.99970000 0.01660000
vn -0.01830000 -0.99970000 0.01660000
vn -0.01830000 -0.99970000 0.01660000
vn -0.01830000 -0.99970000 0.01660000
vn -0.01830000 -0.99970000 0.01660000
vn -0.01830000 -0.99970000 0.01660000
vn -0.01830000 -0.99970000 0.01660000
vn -0.01830000 -0.99970000 0.01660000
vn -0.01830000 -0.99970000 0.01660000
vn -0.01830000 -0.99970000 0.01660000
vn -0.01830000 -0.99970000 0.01660000
vn -0.01830000 -0.99970000 0.01660000
vn -0.01830000 -0.99970000 0.01660000
vn -0.01830000 -0.99970000 0.01660000
vn -0.01830000 -0.99970000 0.01660000
vn -0.01830000 -0.99970000 0.01660000
vn -0.01830000 -0.99970000 0.01660000
vn -0.01830000 -0.99970000 0.01660000
vn -0.01830000 -0.99970000 0.01660000
vn -0.01830000 -0.99970000 0.01660000
vn -0.01830000 -0.99970000 0.01660000
vn -0.01830000 -0.99970000 0.01660000
vn -0.01830000 -0.99970000 0.01660000
vn -0.01830000 -0.99970000 0.01660000
vn -0.01830000 -0.99970000 0.01660000
vn -0.01830000 -0.99970000 0.01660000
vn -0.01830000 -0.99970000 0.01660000
vn -0.01830000 -0.99970000 0.01660000
vn -0.01830000 -0.99970000 0.01660000
vn -0.01830000 -0.99970000 0.01660000
vn -0.01830000 -0.99970000 0.01660000
vn -0.01830000 -0.99970000 0.01660000
vn -0.01830000 -0.99970000 0.01660000
vn -0.01830000 -0.99970000 0.01660000
vn -0.01830000 -0.99970000 0.01660000
vn -0.01830000 -0.99970000 0.01660000
vn 0.62210000 -0.13510000 -0.77120000
vn 0.62210000 -0.13510000 -0.77120000
vn 0.35270000 -0.13170000 -0.92640000
vn 0.04840000 -0.12720000 -0.99070000
vn -0.26080000 -0.12100000 -0.95780000
vn -0.54450000 -0.11480000 -0.83090000
vn -0.54460000 -0.11480000 -0.83080000
vn -0.62610000 -0.08660000 0.77490000
vn -0.62610000 -0.08660000 0.77490000
vn -0.35670000 -0.08790000 0.93010000
vn -0.05240000 -0.09240000 0.99430000
vn 0.25670000 -0.09860000 0.96140000
vn 0.54050000 -0.10700000 0.83450000
vn 0.54050000 -0.10700000 0.83450000
vt 0.89825400 0.87899900
vt 0.91199200 0.85203600
vt 0.82000400 0.82214700
vt 0.87685600 0.90039700
vt 0.84989300 0.91413600
vt 0.82000400 0.91887000
vt 0.79011500 0.91413600
vt 0.76315200 0.90039700
vt 0.74175300 0.87899900
vt 0.72801500 0.85203600
vt 0.72328100 0.82214700
vt 0.72801500 0.79225800
vt 0.74175300 0.76529500
vt 0.76315200 0.74389700
vt 0.79011500 0.73015800
vt 0.82000400 0.72542500
vt 0.84989300 0.73015900
vt 0.87685600 0.74389700
vt 0.89825400 0.76529500
vt 0.91199200 0.79225800
vt 0.91672600 0.82214700
vt 0.96810700 0.73758800
vt 0.94156700 0.68550000
vt 0.79039900 0.79532900
vt 0.90022900 0.64416200
vt 0.84814000 0.61762100
vt 0.79039900 0.60847600
vt 0.73265900 0.61762100
vt 0.68057000 0.64416200
vt 0.63923200 0.68550000
vt 0.61269200 0.73758800
vt 0.60354600 0.79532900
vt 0.61269200 0.85307000
vt 0.63923200 0.90515900
vt 0.68057000 0.94649700
vt 0.73265900 0.97303700
vt 0.79039900 0.98218200
vt 0.84814000 0.97303700
vt 0.90022900 0.94649700
vt 0.94156700 0.90515900
vt 0.96810700 0.85307000
vt 0.97725300 0.79532900
vt 0.82622000 0.94386500
vt 0.86457800 0.94386500
vt 0.87517300 0.93049700
vt 0.83179000 0.93049700
vt 0.93132400 0.90302600
vt 0.90088300 0.93346700
vt 0.91147800 0.94805000
vt 0.94590700 0.91362100
vt 0.86252400 0.95301200
vt 0.86809400 0.97015500
vt 0.82000400 0.95974600
vt 0.82000400 0.97777200
vt 0.77748300 0.95301200
vt 0.77191300 0.97015500
vt 0.73912500 0.93346700
vt 0.72853000 0.94805000
vt 0.70868300 0.90302600
vt 0.69410100 0.91362100
vt 0.69130800 0.93831400
vt 0.72966700 0.93831400
vt 0.72409700 0.92494500
vt 0.68071300 0.92494500
vt 0.77218700 0.93831400
vt 0.77218700 0.92494500
vt 0.81470800 0.93831400
vt 0.82027800 0.92494500
vt 0.85306600 0.93831400
vt 0.86366100 0.92494500
vt 0.70868400 0.74126800
vt 0.73912500 0.71082700
vt 0.72853000 0.69624400
vt 0.69410100 0.73067300
vt 0.77748300 0.69128300
vt 0.77191300 0.67413900
vt 0.82000400 0.68454800
vt 0.82000400 0.66652300
vt 0.86252400 0.69128300
vt 0.86809400 0.67413900
vt 0.90088300 0.71082700
vt 0.91147700 0.69624400
vt 0.93132400 0.74126800
vt 0.94590700 0.73067300
vt 0.70282000 0.94386500
vt 0.74117900 0.94386500
vt 0.73560800 0.93049700
vt 0.69222500 0.93049700
vt 0.78369900 0.94386500
vt 0.78369900 0.93049700
vt 0.91199200 0.85203600
vt 0.89825400 0.87899900
vt 0.95086800 0.86466800
vt 0.87685600 0.90039700
vt 0.84989300 0.91413600
vt 0.82000400 0.91887000
vt 0.79011500 0.91413600
vt 0.76315200 0.90039700
vt 0.74175300 0.87899900
vt 0.72801500 0.85203600
vt 0.68913900 0.86466800
vt 0.72328100 0.82214700
vt 0.68240400 0.82214700
vt 0.72801500 0.79225800
vt 0.68913900 0.77962600
vt 0.74175300 0.76529500
vt 0.76315200 0.74389700
vt 0.79011500 0.73015800
vt 0.82000400 0.72542500
vt 0.84989300 0.73015900
vt 0.87685600 0.74389700
vt 0.89825400 0.76529500
vt 0.91199200 0.79225800
vt 0.95086800 0.77962600
vt 0.91672600 0.82214700
vt 0.95760300 0.82214700
vt 0.83510000 0.92086100
vt 0.78369900 0.92086100
vt 0.73229800 0.92086100
vt 0.68592800 0.92086100
vt 0.95457400 0.72437600
vt 0.91777500 0.68757700
vt 0.87140500 0.66395000
vt 0.82000400 0.65580900
vt 0.76860300 0.66395000
vt 0.72223200 0.68757700
vt 0.68543300 0.72437600
vt 0.86995900 0.91531000
vt 0.82358900 0.91531000
vt 0.77218700 0.91531000
vt 0.72078600 0.91531000
vt 0.67441600 0.91531000
vt 0.68543300 0.91991800
vt 0.72223200 0.95671800
vt 0.76860300 0.98034400
vt 0.82000400 0.98848500
vt 0.87140500 0.98034400
vt 0.91777500 0.95671800
vt 0.95457400 0.91991800
vt 0.88147000 0.92086100
vt 0.78369900 0.84348200
vt 0.83510000 0.84348200
vt 0.83510000 0.63178000
vt 0.78369900 0.63178000
vt 0.73229800 0.84348200
vt 0.73229800 0.63178000
vt 0.68592800 0.84348200
vt 0.68592800 0.63178000
vt 0.64912900 0.84348200
vt 0.64912900 0.63178000
vt 0.82049200 0.83881000
vt 0.86686200 0.83881000
vt 0.86686200 0.62710800
vt 0.82049200 0.62710800
vt 0.76909000 0.83881000
vt 0.76909000 0.62710800
vt 0.71768900 0.83881000
vt 0.71768900 0.62710800
vt 0.67131900 0.83881000
vt 0.67131900 0.62710800
vt 0.86995900 0.83793100
vt 0.90675800 0.83793100
vt 0.90675800 0.62622900
vt 0.86995900 0.62622900
vt 0.82358900 0.83793100
vt 0.82358900 0.62622900
vt 0.77218700 0.83793100
vt 0.77218700 0.62622900
vt 0.72078600 0.83793100
vt 0.72078600 0.62622900
vt 0.67441600 0.83793100
vt 0.67441600 0.62622900
vt 0.63761700 0.83793100
vt 0.63761700 0.62622900
vt 0.70686200 0.70010400
vt 0.66049200 0.70010400
vt 0.66049200 0.91180600
vt 0.70686200 0.91180600
vt 0.75826400 0.70010400
vt 0.75826400 0.91180600
vt 0.80966500 0.70010400
vt 0.80966500 0.91180600
vt 0.85603500 0.70010400
vt 0.85603500 0.91180600
vt 0.88147000 0.84348200
vt 0.91827000 0.84348200
vt 0.91827000 0.63178000
vt 0.88147000 0.63178000
vt 0.77794600 0.78645100
vt 0.77794600 0.84632400
vt 0.79608000 0.84419200
vt 0.79608000 0.78645100
vt 0.77794600 0.72657900
vt 0.79608000 0.72871000
vt 0.77794600 0.67256700
vt 0.79608000 0.67662200
vt 0.77794600 0.62970400
vt 0.79608000 0.63528400
vt 0.80033900 0.88280500
vt 0.80033900 0.93681600
vt 0.81847300 0.93276200
vt 0.81847300 0.88067300
vt 0.80033900 0.82293200
vt 0.81847300 0.82293200
vt 0.80033900 0.76306000
vt 0.81847300 0.76519100
vt 0.80033900 0.70904800
vt 0.81847300 0.71310300
vt 0.75416400 0.90033500
vt 0.75416400 0.94319900
vt 0.77229800 0.93761900
vt 0.77229800 0.89628100
vt 0.75416400 0.84632400
vt 0.77229800 0.84419200
vt 0.75416400 0.78645100
vt 0.77229800 0.78645100
vt 0.75416400 0.72657900
vt 0.77229800 0.72871100
vt 0.75416400 0.67256700
vt 0.77229800 0.67662200
vt 0.75416400 0.62970400
vt 0.77229800 0.63528400
vt 0.77063300 0.65031000
vt 0.77063300 0.59629800
vt 0.75249900 0.60035300
vt 0.75249900 0.65244100
vt 0.77063300 0.71018200
vt 0.75249900 0.71018200
vt 0.77063300 0.77005500
vt 0.75249900 0.76792300
vt 0.77063300 0.82406600
vt 0.75249900 0.82001100
vt 0.77794600 0.90033500
vt 0.77794600 0.94319900
vt 0.79608000 0.93761900
vt 0.79608000 0.89628100
vt 0.95809200 0.78479400
vt 0.94995100 0.83619500
vt 0.97602200 0.84466600
vt 0.98550500 0.78479400
vt 0.94995100 0.73339200
vt 0.97602200 0.72492200
vt 0.92632500 0.68702300
vt 0.94850200 0.67091000
vt 0.88952500 0.65022300
vt 0.90563800 0.62804600
vt 0.84315500 0.62659700
vt 0.85162700 0.60052600
vt 0.79175400 0.61845600
vt 0.79175400 0.59104300
vt 0.74035300 0.62659700
vt 0.73188200 0.60052600
vt 0.69398300 0.65022300
vt 0.67787000 0.62804600
vt 0.65718400 0.68702300
vt 0.63500600 0.67091000
vt 0.63355700 0.73339200
vt 0.60748600 0.72492200
vt 0.62541600 0.78479400
vt 0.59800300 0.78479400
vt 0.63355700 0.83619500
vt 0.60748600 0.84466600
vt 0.65718400 0.88256500
vt 0.63500600 0.89867800
vt 0.69398300 0.91936400
vt 0.67787000 0.94154200
vt 0.74035300 0.94299100
vt 0.73188200 0.96906200
vt 0.79175400 0.95113200
vt 0.79175400 0.97854500
vt 0.84315600 0.94299100
vt 0.85162700 0.96906200
vt 0.88952500 0.91936500
vt 0.90563800 0.94154200
vt 0.92632500 0.88256500
vt 0.94850200 0.89867800
vt 0.91827000 0.92086100
vt 0.85603500 0.62272500
vt 0.80966500 0.62272500
vt 0.75826400 0.62272500
vt 0.70686200 0.62272500
vt 0.66049200 0.62272500
vt 0.63761700 0.91531000
vt 0.90675800 0.91531000
vt 0.67131900 0.91618900
vt 0.71768900 0.91618900
vt 0.76909000 0.91618900
vt 0.82049200 0.91618900
vt 0.86686200 0.91618900
vt 0.64912900 0.92086100
f 237/237/237 238/238/238 239/239/239
f 237/237/237 239/239/239 240/240/240
f 241/241/241 237/237/237 240/240/240
f 241/241/241 240/240/240 242/242/242
f 243/243/243 241/241/241 242/242/242
f 243/243/243 242/242/242 244/244/244
f 245/245/245 243/243/243 244/244/244
f 245/245/245 244/244/244 246/246/246
f 247/247/247 245/245/245 246/246/246
f 247/247/247 246/246/246 248/248/248
f 249/249/249 247/247/247 248/248/248
f 249/249/249 248/248/248 250/250/250
f 251/251/251 249/249/249 250/250/250
f 251/251/251 250/250/250 252/252/252
f 253/253/253 251/251/251 252/252/252
f 253/253/253 252/252/252 254/254/254
f 255/255/255 253/253/253 254/254/254
f 255/255/255 254/254/254 256/256/256
f 257/257/257 255/255/255 256/256/256
f 257/257/257 256/256/256 258/258/258
f 259/259/259 257/257/257 258/258/258
f 259/259/259 258/258/258 260/260/260
f 261/261/261 259/259/259 260/260/260
f 261/261/261 260/260/260 262/262/262
f 263/263/263 261/261/261 262/262/262
f 263/263/263 262/262/262 264/264/264
f 265/265/265 263/263/263 264/264/264
f 265/265/265 264/264/264 266/266/266
f 267/267/267 265/265/265 266/266/266
f 267/267/267 266/266/266 268/268/268
f 269/269/269 267/267/267 268/268/268
f 269/269/269 268/268/268 270/270/270
f 271/271/271 269/269/269 270/270/270
f 271/271/271 270/270/270 272/272/272
f 273/273/273 271/271/271 272/272/272
f 273/273/273 272/272/272 274/274/274
f 275/275/275 273/273/273 274/274/274
f 275/275/275 274/274/274 276/276/276
f 238/238/238 275/275/275 276/276/276
f 238/238/238 276/276/276 239/239/239
f 1/1/1 2/2/2 3/3/3
f 4/4/4 1/1/1 3/3/3
f 5/5/5 4/4/4 3/3/3
f 6/6/6 5/5/5 3/3/3
f 7/7/7 6/6/6 3/3/3
f 8/8/8 7/7/7 3/3/3
f 9/9/9 8/8/8 3/3/3
f 10/10/10 9/9/9 3/3/3
f 11/11/11 10/10/10 3/3/3
f 12/12/12 11/11/11 3/3/3
f 13/13/13 12/12/12 3/3/3
f 14/14/14 13/13/13 3/3/3
f 15/15/15 14/14/14 3/3/3
f 16/16/16 15/15/15 3/3/3
f 17/17/17 16/16/16 3/3/3
f 18/18/18 17/17/17 3/3/3
f 19/19/19 18/18/18 3/3/3
f 20/20/20 19/19/19 3/3/3
f 21/21/21 20/20/20 3/3/3
f 2/2/2 21/21/21 3/3/3
f 22/22/22 23/23/23 24/24/24
f 23/23/23 25/25/25 24/24/24
f 25/25/25 26/26/26 24/24/24
f 26/26/26 27/27/27 24/24/24
f 27/27/27 28/28/28 24/24/24
f 28/28/28 29/29/29 24/24/24
f 29/29/29 30/30/30 24/24/24
f 30/30/30 31/31/31 24/24/24
f 31/31/31 32/32/32 24/24/24
f 32/32/32 33/33/33 24/24/24
f 33/33/33 34/34/34 24/24/24
f 34/34/34 35/35/35 24/24/24
f 35/35/35 36/36/36 24/24/24
f 36/36/36 37/37/37 24/24/24
f 37/37/37 38/38/38 24/24/24
f 38/38/38 39/39/39 24/24/24
f 39/39/39 40/40/40 24/24/24
f 40/40/40 41/41/41 24/24/24
f 41/41/41 42/42/42 24/24/24
f 42/42/42 22/22/22 24/24/24
f 43/43/43 44/44/44 45/45/45
f 43/43/43 45/45/45 46/46/46
f 47/47/47 48/48/48 49/49/49
f 47/47/47 49/49/49 50/50/50
f 48/48/48 51/51/51 52/52/52
f 48/48/48 52/52/52 49/49/49
f 51/51/51 53/53/53 54/54/54
f 51/51/51 54/54/54 52/52/52
f 53/53/53 55/55/55 56/56/56
f 53/53/53 56/56/56 54/54/54
f 55/55/55 57/57/57 58/58/58
f 55/55/55 58/58/58 56/56/56
f 57/57/57 59/59/59 60/60/60
f 57/57/57 60/60/60 58/58/58
f 61/61/61 62/62/62 63/63/63
f 61/61/61 63/63/63 64/64/64
f 62/62/62 65/65/65 66/66/66
f 62/62/62 66/66/66 63/63/63
f 65/65/65 67/67/67 68/68/68
f 65/65/65 68/68/68 66/66/66
f 67/67/67 69/69/69 70/70/70
f 67/67/67 70/70/70 68/68/68
f 71/71/71 72/72/72 73/73/73
f 71/71/71 73/73/73 74/74/74
f 72/72/72 75/75/75 76/76/76
f 72/72/72 76/76/76 73/73/73
f 75/75/75 77/77/77 78/78/78
f 75/75/75 78/78/78 76/76/76
f 77/77/77 79/79/79 80/80/80
f 77/77/77 80/80/80 78/78/78
f 79/79/79 81/81/81 82/82/82
f 79/79/79 82/82/82 80/80/80
f 81/81/81 83/83/83 84/84/84
f 81/81/81 84/84/84 82/82/82
f 85/85/85 86/86/86 87/87/87
f 85/85/85 87/87/87 88/88/88
f 86/86/86 89/89/89 90/90/90
f 86/86/86 90/90/90 87/87/87
f 89/89/89 43/43/43 46/46/46
f 89/89/89 46/46/46 90/90/90
f 91/91/91 92/92/92 47/47/47
f 91/91/91 47/47/47 93/93/93
f 92/92/92 94/94/94 48/48/48
f 92/92/92 48/48/48 47/47/47
f 94/94/94 95/95/95 51/51/51
f 94/94/94 51/51/51 48/48/48
f 95/95/95 96/96/96 53/53/53
f 95/95/95 53/53/53 51/51/51
f 96/96/96 97/97/97 55/55/55
f 96/96/96 55/55/55 53/53/53
f 97/97/97 98/98/98 57/57/57
f 97/97/97 57/57/57 55/55/55
f 98/98/98 99/99/99 59/59/59
f 98/98/98 59/59/59 57/57/57
f 99/99/99 100/100/100 101/101/101
f 99/99/99 101/101/101 59/59/59
f 100/100/100 102/102/102 103/103/103
f 100/100/100 103/103/103 101/101/101
f 102/102/102 104/104/104 105/105/105
f 102/102/102 105/105/105 103/103/103
f 104/104/104 106/106/106 71/71/71
f 104/104/104 71/71/71 105/105/105
f 106/106/106 107/107/107 72/72/72
f 106/106/106 72/72/72 71/71/71
f 107/107/107 108/108/108 75/75/75
f 107/107/107 75/75/75 72/72/72
f 108/108/108 109/109/109 77/77/77
f 108/108/108 77/77/77 75/75/75
f 109/109/109 110/110/110 79/79/79
f 109/109/109 79/79/79 77/77/77
f 110/110/110 111/111/111 81/81/81
f 110/110/110 81/81/81 79/79/79
f 111/111/111 112/112/112 83/83/83
f 111/111/111 83/83/83 81/81/81
f 112/112/112 113/113/113 114/114/114
f 112/112/112 114/114/114 83/83/83
f 113/113/113 115/115/115 116/116/116
f 113/113/113 116/116/116 114/114/114
f 115/115/115 91/91/91 93/93/93
f 115/115/115 93/93/93 116/116/116
f 90/90/90 46/46/46 117/117/117
f 90/90/90 117/117/117 118/118/118
f 87/87/87 90/90/90 118/118/118
f 87/87/87 118/118/118 119/119/119
f 88/88/88 87/87/87 119/119/119
f 88/88/88 119/119/119 120/120/120
f 82/82/82 84/84/84 121/121/121
f 82/82/82 121/121/121 122/122/122
f 80/80/80 82/82/82 122/122/122
f 80/80/80 122/122/122 123/123/123
f 78/78/78 80/80/80 123/123/123
f 78/78/78 123/123/123 124/124/124
f 76/76/76 78/78/78 124/124/124
f 76/76/76 124/124/124 125/125/125
f 73/73/73 76/76/76 125/125/125
f 73/73/73 125/125/125 126/126/126
f 74/74/74 73/73/73 126/126/126
f 74/74/74 126/126/126 127/127/127
f 68/68/68 70/70/70 128/128/128
f 68/68/68 128/128/128 129/129/129
f 66/66/66 68/68/68 129/129/129
f 66/66/66 129/129/129 130/130/130
f 63/63/63 66/66/66 130/130/130
f 63/63/63 130/130/130 131/131/131
f 64/64/64 63/63/63 131/131/131
f 64/64/64 131/131/131 132/132/132
f 58/58/58 60/60/60 133/133/133
f 58/58/58 133/133/133 134/134/134
f 56/56/56 58/58/58 134/134/134
f 56/56/56 134/134/134 135/135/135
f 54/54/54 56/56/56 135/135/135
f 54/54/54 135/135/135 136/136/136
f 52/52/52 54/54/54 136/136/136
f 52/52/52 136/136/136 137/137/137
f 49/49/49 52/52/52 137/137/137
f 49/49/49 137/137/137 138/138/138
f 50/50/50 49/49/49 138/138/138
f 50/50/50 138/138/138 139/139/139
f 46/46/46 45/45/45 140/140/140
f 46/46/46 140/140/140 117/117/117
f 141/141/141 142/142/142 143/143/143
f 141/141/141 143/143/143 144/144/144
f 145/145/145 141/141/141 144/144/144
f 145/145/145 144/144/144 146/146/146
f 147/147/147 145/145/145 146/146/146
f 147/147/147 146/146/146 148/148/148
f 149/149/149 147/147/147 148/148/148
f 149/149/149 148/148/148 150/150/150
f 151/151/151 152/152/152 153/153/153
f 151/151/151 153/153/153 154/154/154
f 155/155/155 151/151/151 154/154/154
f 155/155/155 154/154/154 156/156/156
f 157/157/157 155/155/155 156/156/156
f 157/157/157 156/156/156 158/158/158
f 159/159/159 157/157/157 158/158/158
f 159/159/159 158/158/158 160/160/160
f 161/161/161 162/162/162 163/163/163
f 161/161/161 163/163/163 164/164/164
f 165/165/165 161/161/161 164/164/164
f 165/165/165 164/164/164 166/166/166
f 167/167/167 165/165/165 166/166/166
f 167/167/167 166/166/166 168/168/168
f 169/169/169 167/167/167 168/168/168
f 169/169/169 168/168/168 170/170/170
f 171/171/171 169/169/169 170/170/170
f 171/171/171 170/170/170 172/172/172
f 173/173/173 171/171/171 172/172/172
f 173/173/173 172/172/172 174/174/174
f 175/175/175 176/176/176 177/177/177
f 175/175/175 177/177/177 178/178/178
f 179/179/179 175/175/175 178/178/178
f 179/179/179 178/178/178 180/180/180
f 181/181/181 179/179/179 180/180/180
f 181/181/181 180/180/180 182/182/182
f 183/183/183 181/181/181 182/182/182
f 183/183/183 182/182/182 184/184/184
f 185/185/185 186/186/186 187/187/187
f 185/185/185 187/187/187 188/188/188
f 142/142/142 185/185/185 188/188/188
f 142/142/142 188/188/188 143/143/143
f 189/189/189 190/190/190 191/191/191
f 189/189/189 191/191/191 192/192/192
f 193/193/193 189/189/189 192/192/192
f 193/193/193 192/192/192 194/194/194
f 195/195/195 193/193/193 194/194/194
f 195/195/195 194/194/194 196/196/196
f 197/197/197 195/195/195 196/196/196
f 197/197/197 196/196/196 198/198/198
f 199/199/199 200/200/200 201/201/201
f 199/199/199 201/201/201 202/202/202
f 203/203/203 199/199/199 202/202/202
f 203/203/203 202/202/202 204/204/204
f 205/205/205 203/203/203 204/204/204
f 205/205/205 204/204/204 206/206/206
f 207/207/207 205/205/205 206/206/206
f 207/207/207 206/206/206 208/208/208
f 209/209/209 210/210/210 211/211/211
f 209/209/209 211/211/211 212/212/212
f 213/213/213 209/209/209 212/212/212
f 213/213/213 212/212/212 214/214/214
f 215/215/215 213/213/213 214/214/214
f 215/215/215 214/214/214 216/216/216
f 217/217/217 215/215/215 216/216/216
f 217/217/217 216/216/216 218/218/218
f 219/219/219 217/217/217 218/218/218
f 219/219/219 218/218/218 220/220/220
f 221/221/221 219/219/219 220/220/220
f 221/221/221 220/220/220 222/222/222
f 223/223/223 224/224/224 225/225/225
f 223/223/223 225/225/225 226/226/226
f 227/227/227 223/223/223 226/226/226
f 227/227/227 226/226/226 228/228/228
f 229/229/229 227/227/227 228/228/228
f 229/229/229 228/228/228 230/230/230
f 231/231/231 229/229/229 230/230/230
f 231/231/231 230/230/230 232/232/232
f 233/233/233 234/234/234 235/235/235
f 233/233/233 235/235/235 236/236/236
f 190/190/190 233/233/233 236/236/236
f 190/190/190 236/236/236 191/191/191
f 117/117/117 140/140/140 185/185/185
f 117/117/117 185/185/185 142/142/142
f 140/140/140 277/277/277 186/186/186
f 140/140/140 186/186/186 185/185/185
f 278/278/278 279/279/279 181/181/181
f 278/278/278 181/181/181 183/183/183
f 279/279/279 280/280/280 179/179/179
f 279/279/279 179/179/179 181/181/181
f 280/280/280 281/281/281 175/175/175
f 280/280/280 175/175/175 179/179/179
f 281/281/281 282/282/282 176/176/176
f 281/281/281 176/176/176 175/175/175
f 283/283/283 132/132/132 171/171/171
f 283/283/283 171/171/171 173/173/173
f 132/132/132 131/131/131 169/169/169
f 132/132/132 169/169/169 171/171/171
f 131/131/131 130/130/130 167/167/167
f 131/131/131 167/167/167 169/169/169
f 130/130/130 129/129/129 165/165/165
f 130/130/130 165/165/165 167/167/167
f 129/129/129 128/128/128 161/161/161
f 129/129/129 161/161/161 165/165/165
f 128/128/128 284/284/284 162/162/162
f 128/128/128 162/162/162 161/161/161
f 285/285/285 286/286/286 157/157/157
f 285/285/285 157/157/157 159/159/159
f 286/286/286 287/287/287 155/155/155
f 286/286/286 155/155/155 157/157/157
f 287/287/287 288/288/288 151/151/151
f 287/287/287 151/151/151 155/155/155
f 288/288/288 289/289/289 152/152/152
f 288/288/288 152/152/152 151/151/151
f 290/290/290 120/120/120 147/147/147
f 290/290/290 147/147/147 149/149/149
f 120/120/120 119/119/119 145/145/145
f 120/120/120 145/145/145 147/147/147
f 119/119/119 118/118/118 141/141/141
f 119/119/119 141/141/141 145/145/145
f 118/118/118 117/117/117 142/142/142
f 118/118/118 142/142/142 141/141/141

