mtllib material.mtl
usemtl material_0
v 0.42793700 0.38046600 -0.11389100
v 0.49376000 0.38170600 0.03334400
v -0.00658800 0.24477500 0.16984600
v 0.31984600 0.38045500 -0.23359200
v 0.18006700 0.38167700 -0.31404300
v 0.02228200 0.38401000 -0.34736900
v -0.13806400 0.38722700 -0.33030700
v -0.28527400 0.39101300 -0.26452700
v -0.40493900 0.39499700 -0.15646900
v -0.48534500 0.39878800 -0.01671000
v -0.51862100 0.40201800 0.14106900
v -0.50151100 0.40436700 0.30142500
v -0.43568900 0.40560800 0.44865900
v -0.32759800 0.40561800 0.56836100
v -0.18781800 0.40439700 0.64881100
v -0.03003400 0.40206400 0.68213700
v 0.13031200 0.39884700 0.66507500
v 0.27752200 0.39506100 0.59929500
v 0.39718700 0.39107700 0.49123700
v 0.47759300 0.38728500 0.35147800
v 0.51086900 0.38405600 0.19369900
v 0.70736900 0.55727900 -0.02629900
v 0.61372900 0.55551300 -0.23575800
v 0.70082700 0.91526800 -0.29418900
v 0.80673300 0.91726400 -0.05729200
v 0.61372900 0.55551300 -0.23575800
v 0.45995700 0.55549900 -0.40604700
v 0.52691000 0.91525100 -0.48678600
v 0.70082700 0.91526800 -0.29418900
v 0.26110400 0.55723600 -0.52049800
v 0.30200900 0.91721700 -0.61623000
v 0.03663600 0.56055600 -0.56790800
v 0.04813600 0.92097100 -0.66985000
v -0.19147400 0.56513300 -0.54363500
v -0.20985600 0.92614700 -0.64239800
v -0.40089800 0.57051800 -0.45005600
v -0.44671400 0.93223800 -0.53656000
v -0.57113500 0.57618500 -0.29633000
v -0.63925200 0.93864800 -0.36269700
v -0.57113500 0.57618500 -0.29633000
v -0.68552200 0.58158000 -0.09750700
v -0.76862400 0.94474900 -0.13782800
v -0.63925200 0.93864800 -0.36269700
v -0.73286200 0.58617400 0.12695300
v -0.82216500 0.94994500 0.11603600
v -0.70852100 0.58951700 0.35507700
v -0.79463500 0.95372600 0.37404400
v -0.61488100 0.59128200 0.56453600
v -0.68872900 0.95572200 0.61094100
v -0.61488100 0.59128200 0.56453600
v -0.46110900 0.59129700 0.73482500
v -0.51481200 0.95573800 0.80353800
v -0.68872900 0.95572200 0.61094100
v -0.26225600 0.58955900 0.84927600
v -0.28991100 0.95377300 0.93298200
v -0.03778900 0.58623900 0.89668600
v -0.03603800 0.95001900 0.98660200
v 0.19032200 0.58166300 0.87241300
v 0.22195400 0.94484300 0.95914900
v 0.39974500 0.57627700 0.77883400
v 0.45881200 0.93875100 0.85331200
v 0.56998300 0.57061000 0.62510800
v 0.65135000 0.93234200 0.67944900
v 0.56998300 0.57061000 0.62510800
v 0.68437000 0.56521500 0.42628500
v 0.78072100 0.92624000 0.45458000
v 0.65135000 0.93234200 0.67944900
v 0.73171000 0.56062100 0.20182500
v 0.83426300 0.92104500 0.20071600
v 0.49376000 0.38170600 0.03334400
v 0.42793700 0.38046600 -0.11389100
v 0.70736900 0.55727900 -0.02629900
v 0.31984600 0.38045500 -0.23359200
v 0.18006700 0.38167700 -0.31404300
v 0.02228200 0.38401000 -0.34736900
v -0.13806400 0.38722700 -0.33030700
v -0.28527400 0.39101300 -0.26452700
v -0.40493900 0.39499700 -0.15646900
v -0.48534500 0.39878800 -0.01671000
v -0.68552200 0.58158000 -0.09750700
v -0.51862100 0.40201800 0.14106900
v -0.73286200 0.58617400 0.12695300
v -0.50151100 0.40436700 0.30142500
v -0.70852100 0.58951700 0.35507700
v -0.43568900 0.40560800 0.44865900
v -0.32759800 0.40561800 0.56836100
v -0.18781800 0.40439700 0.64881100
v -0.03003400 0.40206400 0.68213700
v 0.13031200 0.39884700 0.66507500
v 0.27752200 0.39506100 0.59929500
v 0.39718700 0.39107700 0.49123700
v 0.47759300 0.38728500 0.35147800
v 0.68437000 0.56521500 0.42628500
v 0.51086900 0.38405600 0.19369900
v 0.73171000 0.56062100 0.20182500
v 0.86663000 1.17698600 -0.07647400
v 0.89605500 1.18102800 0.19929700
v 0.83882800 1.18658100 0.47063800
v 0.70055000 1.19310200 0.71098800
v 0.70055000 1.19310200 0.71098800
v 0.49475600 1.19995300 0.89682000
v 0.24159200 1.20646400 1.00994400
v -0.03416100 1.21199600 1.03928600
v -0.30551100 1.21600900 0.98197500
v -0.54589600 1.21810900 0.84362000
v -0.73178500 1.21809200 0.63776400
v -0.73178500 1.21809200 0.63776400
v -0.84498300 1.21595800 0.38455800
v -0.87440800 1.21191700 0.10878700
v -0.81718000 1.20636400 -0.16255300
v -0.67890200 1.19984300 -0.40290300
v -0.67890200 1.19984300 -0.40290300
v -0.47310900 1.19299100 -0.58873600
v -0.21994500 1.18648100 -0.70186000
v 0.05580800 1.18094800 -0.73120200
v 0.32715800 1.17693600 -0.67389100
v 0.56754300 1.17483500 -0.53553600
v 0.75343300 1.17485300 -0.32968000
v 0.75343300 1.17485300 -0.32968000
v 0.79177800 3.27071500 -0.36448400
v 0.90497600 3.27284900 -0.11127800
v 0.56754300 1.17483500 -0.53553600
v 0.60588900 3.27069800 -0.57034000
v 0.56754300 1.17483500 -0.53553600
v 0.32715800 1.17693600 -0.67389100
v 0.36550400 3.27279800 -0.70869600
v 0.60588900 3.27069800 -0.57034000
v 0.05580800 1.18094800 -0.73120200
v 0.09415400 3.27681100 -0.76600700
v -0.21994500 1.18648100 -0.70186000
v -0.18159900 3.28234300 -0.73666500
v -0.47310900 1.19299100 -0.58873600
v -0.43476300 3.28885400 -0.62354000
v -0.47310900 1.19299100 -0.58873600
v -0.64055700 3.29570500 -0.43770800
v -0.43476300 3.28885400 -0.62354000
v -0.77883500 3.30222600 -0.19735800
v -0.83606200 3.30777900 0.07398200
v -0.80663700 3.31182100 0.34975300
v -0.69343900 3.31395400 0.60295900
v -0.54589600 1.21810900 0.84362000
v -0.50755000 3.31397200 0.80881500
v -0.54589600 1.21810900 0.84362000
v -0.30551100 1.21600900 0.98197500
v -0.26716500 3.31187100 0.94717000
v -0.50755000 3.31397200 0.80881500
v -0.03416100 1.21199600 1.03928600
v 0.00418500 3.30785800 1.00448100
v 0.24159200 1.20646400 1.00994400
v 0.27993800 3.30232600 0.97513900
v 0.49475600 1.19995300 0.89682000
v 0.53310200 3.29581500 0.86201500
v 0.49475600 1.19995300 0.89682000
v 0.73889500 3.28896400 0.67618300
v 0.53310200 3.29581500 0.86201500
v 0.87717300 3.28244300 0.43583300
v 0.93440100 3.27689000 0.16449200
v 0.79177800 3.27071500 -0.36448400
v 0.60588900 3.27069800 -0.57034000
v 0.36550400 3.27279800 -0.70869600
v 0.09415400 3.27681100 -0.76600700
v -0.18159900 3.28234300 -0.73666500
v -0.43476300 3.28885400 -0.62354000
v -0.64055700 3.29570500 -0.43770800
v -0.77883500 3.30222600 -0.19735800
v -0.83606200 3.30777900 0.07398200
v -0.80663700 3.31182100 0.34975300
v -0.69343900 3.31395400 0.60295900
v -0.50755000 3.31397200 0.80881500
v -0.26716500 3.31187100 0.94717000
v 0.00418500 3.30785800 1.00448100
v 0.27993800 3.30232600 0.97513900
v 0.53310200 3.29581500 0.86201500
v 0.73889500 3.28896400 0.67618300
v 0.87717300 3.28244300 0.43583300
v 0.93440100 3.27689000 0.16449200
v 0.90497600 3.27284900 -0.11127800
vn 0.21400000 -0.96750000 -0.13490000
vn 0.24930000 -0.96680000 -0.05590000
vn -0.01830000 -0.99970000 0.01660000
vn 0.15600000 -0.96750000 -0.19910000
vn 0.08110000 -0.96680000 -0.24230000
vn -0.00350000 -0.96560000 -0.26010000
vn -0.08950000 -0.96380000 -0.25100000
vn -0.16850000 -0.96180000 -0.21570000
vn -0.23270000 -0.95970000 -0.15770000
vn -0.27580000 -0.95760000 -0.08280000
vn -0.29370000 -0.95590000 0.00180000
vn -0.28450000 -0.95460000 0.08780000
vn -0.24920000 -0.95400000 0.16680000
vn -0.19120000 -0.95400000 0.23100000
vn -0.11620000 -0.95460000 0.27420000
vn -0.03160000 -0.95590000 0.29200000
vn 0.05440000 -0.95760000 0.28290000
vn 0.13330000 -0.95960000 0.24760000
vn 0.19750000 -0.96180000 0.18970000
vn 0.24070000 -0.96380000 0.11470000
vn 0.25850000 -0.96550000 0.03010000
vn 0.82500000 -0.52210000 -0.21640000
vn 0.75060000 -0.52310000 -0.40370000
vn 0.83620000 -0.26550000 -0.48000000
vn 0.93210000 -0.26380000 -0.24820000
vn 0.65930000 -0.60220000 -0.45020000
vn 0.50710000 -0.58660000 -0.63150000
vn 0.60210000 -0.26530000 -0.75310000
vn 0.77810000 -0.26590000 -0.56910000
vn 0.28360000 -0.58460000 -0.76010000
vn 0.33840000 -0.26300000 -0.90350000
vn 0.03140000 -0.58090000 -0.81340000
vn 0.04120000 -0.25860000 -0.96510000
vn -0.22490000 -0.57570000 -0.78610000
vn -0.26050000 -0.25250000 -0.93190000
vn -0.46020000 -0.56970000 -0.68100000
vn -0.53720000 -0.24540000 -0.80700000
vn -0.62980000 -0.58020000 -0.51640000
vn -0.72470000 -0.23960000 -0.64600000
vn -0.72330000 -0.49740000 -0.47900000
vn -0.81630000 -0.49340000 -0.30030000
vn -0.91200000 -0.23080000 -0.33910000
vn -0.79150000 -0.23710000 -0.56330000
vn -0.87210000 -0.48800000 -0.03570000
vn -0.97350000 -0.22470000 -0.04190000
vn -0.84340000 -0.48410000 0.23310000
vn -0.94020000 -0.22030000 0.25990000
vn -0.76900000 -0.48160000 0.42040000
vn -0.84500000 -0.21860000 0.48800000
vn -0.68060000 -0.56250000 0.46960000
vn -0.52780000 -0.54630000 0.65030000
vn -0.61090000 -0.21800000 0.76110000
vn -0.78690000 -0.21820000 0.57720000
vn -0.30440000 -0.54830000 0.77890000
vn -0.34720000 -0.22030000 0.91150000
vn -0.05220000 -0.55200000 0.83220000
vn -0.05000000 -0.22470000 0.97310000
vn 0.20410000 -0.55720000 0.80490000
vn 0.25170000 -0.23080000 0.93990000
vn 0.43940000 -0.56320000 0.69980000
vn 0.52830000 -0.23800000 0.81500000
vn 0.60850000 -0.58540000 0.53570000
vn 0.71590000 -0.24440000 0.65410000
vn 0.70490000 -0.50730000 0.49570000
vn 0.79790000 -0.51270000 0.31700000
vn 0.90320000 -0.25260000 0.34710000
vn 0.78270000 -0.24700000 0.57130000
vn 0.85370000 -0.51810000 0.05250000
vn 0.96470000 -0.25860000 0.04990000
vn 0.60160000 -0.78400000 -0.15310000
vn 0.52020000 -0.78550000 -0.33520000
vn 0.75160000 -0.63010000 -0.19530000
vn 0.38650000 -0.78550000 -0.48330000
vn 0.21350000 -0.78400000 -0.58290000
vn 0.01830000 -0.78110000 -0.62410000
vn -0.18010000 -0.77710000 -0.60300000
vn -0.36230000 -0.77250000 -0.52160000
vn -0.51030000 -0.76750000 -0.38790000
vn -0.60980000 -0.76280000 -0.21500000
vn -0.74920000 -0.60390000 -0.27200000
vn -0.65100000 -0.75880000 -0.01980000
vn -0.80020000 -0.59900000 -0.03020000
vn -0.62980000 -0.75590000 0.17860000
vn -0.77400000 -0.59540000 0.21560000
vn -0.54840000 -0.75440000 0.36080000
vn -0.41460000 -0.75440000 0.50890000
vn -0.24170000 -0.75590000 0.60850000
vn -0.04650000 -0.75880000 0.64970000
vn 0.15190000 -0.76280000 0.62860000
vn 0.33410000 -0.76740000 0.54720000
vn 0.48210000 -0.77240000 0.41350000
vn 0.58160000 -0.77710000 0.24060000
vn 0.72680000 -0.62160000 0.29230000
vn 0.62280000 -0.78110000 0.04530000
vn 0.77780000 -0.62650000 0.05050000
vn 0.98440000 0.10910000 -0.13810000
vn 0.98860000 0.14290000 0.04780000
vn 0.92490000 0.14910000 0.34990000
vn 0.79070000 0.06010000 0.60920000
vn 0.68860000 0.48060000 0.54310000
vn 0.48190000 0.50310000 0.71740000
vn 0.23460000 0.50950000 0.82790000
vn -0.03480000 0.51490000 0.85660000
vn -0.29990000 0.51880000 0.80060000
vn -0.53480000 0.52080000 0.66540000
vn -0.72320000 0.50520000 0.47090000
vn -0.84600000 0.08930000 0.52560000
vn -0.95000000 0.18180000 0.25400000
vn -0.98270000 0.17730000 -0.05310000
vn -0.91900000 0.17110000 -0.35520000
vn -0.78840000 0.06870000 -0.61140000
vn -0.67090000 0.48710000 -0.55910000
vn -0.46360000 0.49630000 -0.73400000
vn -0.21630000 0.48990000 -0.84450000
vn 0.05310000 0.48450000 -0.87320000
vn 0.31820000 0.48060000 -0.81720000
vn 0.55300000 0.47860000 -0.68200000
vn 0.74090000 0.46250000 -0.48700000
vn 0.84840000 0.04080000 -0.52780000
vn 0.83770000 -0.02440000 -0.54560000
vn 0.96540000 -0.02200000 -0.26000000
vn 0.62210000 -0.13510000 -0.77120000
vn 0.62800000 -0.02440000 -0.77790000
vn 0.62210000 -0.13510000 -0.77120000
vn 0.35270000 -0.13170000 -0.92640000
vn 0.35680000 -0.02200000 -0.93390000
vn 0.62800000 -0.02440000 -0.77780000
vn 0.04840000 -0.12720000 -0.99070000
vn 0.05070000 -0.01750000 -0.99860000
vn -0.26070000 -0.12100000 -0.95780000
vn -0.26030000 -0.01130000 -0.96550000
vn -0.54450000 -0.11480000 -0.83090000
vn -0.54590000 -0.00390000 -0.83780000
vn -0.54460000 -0.11480000 -0.83080000
vn -0.77800000 0.00380000 -0.62820000
vn -0.54590000 -0.00390000 -0.83790000
vn -0.93400000 0.01120000 -0.35710000
vn -0.99850000 0.01740000 -0.05100000
vn -0.96540000 0.02200000 0.26000000
vn -0.83770000 0.02440000 0.54560000
vn -0.62610000 -0.08660000 0.77490000
vn -0.62800000 0.02440000 0.77790000
vn -0.62610000 -0.08660000 0.77490000
vn -0.35670000 -0.08790000 0.93010000
vn -0.35680000 0.02200000 0.93390000
vn -0.62800000 0.02440000 0.77780000
vn -0.05240000 -0.09240000 0.99430000
vn -0.05070000 0.01750000 0.99860000
vn 0.25670000 -0.09860000 0.96140000
vn 0.26030000 0.01130000 0.96550000
vn 0.54050000 -0.10700000 0.83450000
vn 0.54590000 0.00390000 0.83780000
vn 0.54050000 -0.10700000 0.83450000
vn 0.77800000 -0.00380000 0.62820000
vn 0.54590000 0.00390000 0.83790000
vn 0.93400000 -0.01120000 0.35710000
vn 0.99850000 -0.01740000 0.05100000
vn 0.01830000 0.99970000 -0.01660000
vn 0.01830000 0.99970000 -0.01660000
vn 0.01830000 0.99970000 -0.01660000
vn 0.01830000 0.99970000 -0.01660000
vn 0.01830000 0.99970000 -0.01660000
vn 0.01830000 0.99970000 -0.01660000
vn 0.01830000 0.99970000 -0.01660000
vn 0.01830000 0.99970000 -0.01660000
vn 0.01830000 0.99970000 -0.01660000
vn 0.01830000 0.99970000 -0.01660000
vn 0.01830000 0.99970000 -0.01660000
vn 0.01830000 0.99970000 -0.01660000
vn 0.01830000 0.99970000 -0.01660000
vn 0.01830000 0.99970000 -0.01660000
vn 0.01830000 0.99970000 -0.01660000
vn 0.01830000 0.99970000 -0.01660000
vn 0.01830000 0.99970000 -0.01660000
vn 0.01830000 0.99970000 -0.01660000
vn 0.01830000 0.99970000 -0.01660000
vn 0.01830000 0.99970000 -0.01660000
vt 0.45135800 0.55789900
vt 0.46104500 0.53888800
vt 0.39618400 0.51781300
vt 0.43627000 0.57298700
vt 0.41725800 0.58267400
vt 0.39618400 0.58601200
vt 0.37510900 0.58267400
vt 0.35609700 0.57298700
vt 0.34100900 0.55789900
vt 0.33132200 0.53888800
vt 0.32798400 0.51781300
vt 0.33132200 0.49673800
vt 0.34100900 0.47772600
vt 0.35609700 0.46263800
vt 0.37510900 0.45295100
vt 0.39618400 0.44961300
vt 0.41725800 0.45295100
vt 0.43627000 0.46263800
vt 0.45135800 0.47772600
vt 0.46104500 0.49673800
vt 0.46438300 0.51781300
vt 0.44212500 0.86612000
vt 0.44212500 0.91235400
vt 0.45823900 0.92512400
vt 0.45823900 0.87283400
vt 0.47467600 0.57484100
vt 0.45321100 0.59630500
vt 0.46068200 0.60658700
vt 0.48495800 0.58231100
vt 0.42616500 0.61008600
vt 0.43009200 0.62217300
vt 0.39618400 0.61483400
vt 0.39618400 0.62754400
vt 0.36620200 0.61008600
vt 0.36227500 0.62217300
vt 0.33915600 0.59630500
vt 0.33168500 0.60658700
vt 0.31769200 0.57484100
vt 0.30740900 0.58231100
vt 0.30194600 0.71335800
vt 0.30194600 0.76064000
vt 0.31842500 0.75377400
vt 0.31842500 0.70029900
vt 0.30194600 0.81305300
vt 0.31842500 0.81305300
vt 0.30194600 0.86546500
vt 0.31842500 0.87233100
vt 0.30194600 0.91274700
vt 0.31842500 0.92580700
vt 0.31769200 0.46078500
vt 0.33915600 0.43932000
vt 0.33168500 0.42903900
vt 0.30740900 0.45331500
vt 0.36620200 0.42554000
vt 0.36227500 0.41345200
vt 0.39618400 0.42079100
vt 0.39618400 0.40808100
vt 0.42616500 0.42554000
vt 0.43009200 0.41345200
vt 0.45321100 0.43932000
vt 0.46068200 0.42903900
vt 0.47467600 0.46078500
vt 0.48495800 0.45331500
vt 0.44212500 0.71738400
vt 0.44212500 0.76361800
vt 0.45823900 0.75690400
vt 0.45823900 0.70461400
vt 0.44212500 0.81486900
vt 0.45823900 0.81486900
vt 0.46104500 0.53888800
vt 0.45135800 0.55789900
vt 0.48845700 0.54779400
vt 0.43627000 0.57298700
vt 0.41725800 0.58267400
vt 0.39618400 0.58601200
vt 0.37510900 0.58267400
vt 0.35609700 0.57298700
vt 0.34100900 0.55789900
vt 0.33132200 0.53888800
vt 0.30391100 0.54779400
vt 0.32798400 0.51781300
vt 0.29916200 0.51781300
vt 0.33132200 0.49673800
vt 0.30391100 0.48783100
vt 0.34100900 0.47772600
vt 0.35609700 0.46263800
vt 0.37510900 0.45295100
vt 0.39618400 0.44961300
vt 0.41725800 0.45295100
vt 0.43627000 0.46263800
vt 0.45135800 0.47772600
vt 0.46104500 0.49673800
vt 0.48845600 0.48783100
vt 0.46438300 0.51781300
vt 0.49320500 0.51781300
vt 0.46985300 0.87682400
vt 0.46985300 0.81486900
vt 0.46985300 0.75291400
vt 0.46985300 0.69702300
vt 0.49106900 0.44887400
vt 0.46512200 0.42292700
vt 0.43242700 0.40626800
vt 0.39618400 0.40052700
vt 0.35994000 0.40626800
vt 0.32724500 0.42292700
vt 0.30129800 0.44887400
vt 0.33030100 0.93356900
vt 0.33030100 0.87641200
vt 0.33030100 0.81305300
vt 0.33030100 0.74969300
vt 0.33030100 0.69253600
vt 0.30129800 0.58675100
vt 0.32724500 0.61269900
vt 0.35994000 0.62935800
vt 0.39618400 0.63509800
vt 0.43242700 0.62935800
vt 0.46512200 0.61269900
vt 0.49106900 0.58675100
vt 0.46985300 0.93271500
vt 0.56312000 0.93271500
vt 0.56312000 0.87682400
vt 0.46985300 0.97707000
vt 0.56312000 0.97707000
vt 0.15067900 0.71133400
vt 0.15067900 0.63961100
vt 0.03099100 0.63961100
vt 0.03099100 0.71133400
vt 0.15067900 0.56010400
vt 0.03099100 0.56010400
vt 0.15067900 0.48059700
vt 0.03099100 0.48059700
vt 0.15067900 0.40887400
vt 0.03099100 0.40887400
vt 0.33030100 0.64717600
vt 0.42568200 0.69253600
vt 0.42568200 0.64717600
vt 0.42568200 0.74969300
vt 0.42568200 0.81305300
vt 0.42568200 0.87641200
vt 0.42568200 0.93356900
vt 0.33030100 0.97893000
vt 0.42568200 0.97893000
vt 0.16032400 0.40755400
vt 0.16032400 0.47927700
vt 0.28001200 0.47927700
vt 0.28001200 0.40755400
vt 0.16032400 0.55878400
vt 0.28001200 0.55878400
vt 0.16032400 0.63829000
vt 0.28001200 0.63829000
vt 0.16032400 0.71001400
vt 0.28001200 0.71001400
vt 0.46985300 0.65266800
vt 0.56312000 0.69702300
vt 0.56312000 0.65266800
vt 0.56312000 0.75291400
vt 0.56312000 0.81486900
vt 0.26283900 0.77588500
vt 0.23409800 0.74714400
vt 0.19788300 0.72869200
vt 0.15773900 0.72233400
vt 0.11759400 0.72869200
vt 0.08137900 0.74714500
vt 0.05263900 0.77588500
vt 0.03418600 0.81210000
vt 0.02782800 0.85224500
vt 0.03418600 0.89238900
vt 0.05263900 0.92860400
vt 0.08137900 0.95734400
vt 0.11759400 0.97579700
vt 0.15773900 0.98215500
vt 0.19788300 0.97579700
vt 0.23409800 0.95734400
vt 0.26283800 0.92860400
vt 0.28129100 0.89238900
vt 0.28764900 0.85224500
vt 0.28129100 0.81210000
f 162/162/162 160/160/160 161/161/161
f 160/160/160 162/162/162 159/159/159
f 159/159/159 162/162/162 163/163/163
f 159/159/159 163/163/163 158/158/158
f 158/158/158 163/163/163 164/164/164
f 158/158/158 164/164/164 177/177/177
f 177/177/177 164/164/164 165/165/165
f 177/177/177 165/165/165 176/176/176
f 176/176/176 165/165/165 166/166/166
f 176/176/176 166/166/166 167/167/167
f 176/176/176 167/167/167 175/175/175
f 175/175/175 167/167/167 174/174/174
f 174/174/174 167/167/167 168/168/168
f 174/174/174 168/168/168 169/169/169
f 174/174/174 169/169/169 173/173/173
f 173/173/173 169/169/169 170/170/170
f 173/173/173 170/170/170 172/172/172
f 172/172/172 170/170/170 171/171/171
f 1/1/1 2/2/2 3/3/3
f 4/4/4 1/1/1 3/3/3
f 5/5/5 4/4/4 3/3/3
f 6/6/6 5/5/5 3/3/3
f 7/7/7 6/6/6 3/3/3
f 8/8/8 7/7/7 3/3/3
f 9/9/9 8/8/8 3/3/3
f 10/10/10 9/9/9 3/3/3
f 11/11/11 10/10/10 3/3/3
f 12/12/12 11/11/11 3/3/3
f 13/13/13 12/12/12 3/3/3
f 14/14/14 13/13/13 3/3/3
f 15/15/15 14/14/14 3/3/3
f 16/16/16 15/15/15 3/3/3
f 17/17/17 16/16/16 3/3/3
f 18/18/18 17/17/17 3/3/3
f 19/19/19 18/18/18 3/3/3
f 20/20/20 19/19/19 3/3/3
f 21/21/21 20/20/20 3/3/3
f 2/2/2 21/21/21 3/3/3
f 22/22/22 23/23/23 24/24/24
f 22/22/22 24/24/24 25/25/25
f 26/26/26 27/27/27 28/28/28
f 26/26/26 28/28/28 29/29/29
f 27/27/27 30/30/30 31/31/31
f 27/27/27 31/31/31 28/28/28
f 30/30/30 32/32/32 33/33/33
f 30/30/30 33/33/33 31/31/31
f 32/32/32 34/34/34 35/35/35
f 32/32/32 35/35/35 33/33/33
f 34/34/34 36/36/36 37/37/37
f 34/34/34 37/37/37 35/35/35
f 36/36/36 38/38/38 39/39/39
f 36/36/36 39/39/39 37/37/37
f 40/40/40 41/41/41 42/42/42
f 40/40/40 42/42/42 43/43/43
f 41/41/41 44/44/44 45/45/45
f 41/41/41 45/45/45 42/42/42
f 44/44/44 46/46/46 47/47/47
f 44/44/44 47/47/47 45/45/45
f 46/46/46 48/48/48 49/49/49
f 46/46/46 49/49/49 47/47/47
f 50/50/50 51/51/51 52/52/52
f 50/50/50 52/52/52 53/53/53
f 51/51/51 54/54/54 55/55/55
f 51/51/51 55/55/55 52/52/52
f 54/54/54 56/56/56 57/57/57
f 54/54/54 57/57/57 55/55/55
f 56/56/56 58/58/58 59/59/59
f 56/56/56 59/59/59 57/57/57
f 58/58/58 60/60/60 61/61/61
f 58/58/58 61/61/61 59/59/59
f 60/60/60 62/62/62 63/63/63
f 60/60/60 63/63/63 61/61/61
f 64/64/64 65/65/65 66/66/66
f 64/64/64 66/66/66 67/67/67
f 65/65/65 68/68/68 69/69/69
f 65/65/65 69/69/69 66/66/66
f 68/68/68 22/22/22 25/25/25
f 68/68/68 25/25/25 69/69/69
f 70/70/70 71/71/71 26/26/26
f 70/70/70 26/26/26 72/72/72
f 71/71/71 73/73/73 27/27/27
f 71/71/71 27/27/27 26/26/26
f 73/73/73 74/74/74 30/30/30
f 73/73/73 30/30/30 27/27/27
f 74/74/74 75/75/75 32/32/32
f 74/74/74 32/32/32 30/30/30
f 75/75/75 76/76/76 34/34/34
f 75/75/75 34/34/34 32/32/32
f 76/76/76 77/77/77 36/36/36
f 76/76/76 36/36/36 34/34/34
f 77/77/77 78/78/78 38/38/38
f 77/77/77 38/38/38 36/36/36
f 78/78/78 79/79/79 80/80/80
f 78/78/78 80/80/80 38/38/38
f 79/79/79 81/81/81 82/82/82
f 79/79/79 82/82/82 80/80/80
f 81/81/81 83/83/83 84/84/84
f 81/81/81 84/84/84 82/82/82
f 83/83/83 85/85/85 50/50/50
f 83/83/83 50/50/50 84/84/84
f 85/85/85 86/86/86 51/51/51
f 85/85/85 51/51/51 50/50/50
f 86/86/86 87/87/87 54/54/54
f 86/86/86 54/54/54 51/51/51
f 87/87/87 88/88/88 56/56/56
f 87/87/87 56/56/56 54/54/54
f 88/88/88 89/89/89 58/58/58
f 88/88/88 58/58/58 56/56/56
f 89/89/89 90/90/90 60/60/60
f 89/89/89 60/60/60 58/58/58
f 90/90/90 91/91/91 62/62/62
f 90/90/90 62/62/62 60/60/60
f 91/91/91 92/92/92 93/93/93
f 91/91/91 93/93/93 62/62/62
f 92/92/92 94/94/94 95/95/95
f 92/92/92 95/95/95 93/93/93
f 94/94/94 70/70/70 72/72/72
f 94/94/94 72/72/72 95/95/95
f 69/69/69 25/25/25 96/96/96
f 69/69/69 96/96/96 97/97/97
f 66/66/66 69/69/69 97/97/97
f 66/66/66 97/97/97 98/98/98
f 67/67/67 66/66/66 98/98/98
f 67/67/67 98/98/98 99/99/99
f 61/61/61 63/63/63 100/100/100
f 61/61/61 100/100/100 101/101/101
f 59/59/59 61/61/61 101/101/101
f 59/59/59 101/101/101 102/102/102
f 57/57/57 59/59/59 102/102/102
f 57/57/57 102/102/102 103/103/103
f 55/55/55 57/57/57 103/103/103
f 55/55/55 103/103/103 104/104/104
f 52/52/52 55/55/55 104/104/104
f 52/52/52 104/104/104 105/105/105
f 53/53/53 52/52/52 105/105/105
f 53/53/53 105/105/105 106/106/106
f 47/47/47 49/49/49 107/107/107
f 47/47/47 107/107/107 108/108/108
f 45/45/45 47/47/47 108/108/108
f 45/45/45 108/108/108 109/109/109
f 42/42/42 45/45/45 109/109/109
f 42/42/42 109/109/109 110/110/110
f 43/43/43 42/42/42 110/110/110
f 43/43/43 110/110/110 111/111/111
f 37/37/37 39/39/39 112/112/112
f 37/37/37 112/112/112 113/113/113
f 35/35/35 37/37/37 113/113/113
f 35/35/35 113/113/113 114/114/114
f 33/33/33 35/35/35 114/114/114
f 33/33/33 114/114/114 115/115/115
f 31/31/31 33/33/33 115/115/115
f 31/31/31 115/115/115 116/116/116
f 28/28/28 31/31/31 116/116/116
f 28/28/28 116/116/116 117/117/117
f 29/29/29 28/28/28 117/117/117
f 29/29/29 117/117/117 118/118/118
f 25/25/25 24/24/24 119/119/119
f 25/25/25 119/119/119 96/96/96
f 96/96/96 119/119/119 120/120/120
f 96/96/96 120/120/120 121/121/121
f 119/119/119 122/122/122 123/123/123
f 119/119/119 123/123/123 120/120/120
f 124/124/124 125/125/125 126/126/126
f 124/124/124 126/126/126 127/127/127
f 125/125/125 128/128/128 129/129/129
f 125/125/125 129/129/129 126/126/126
f 128/128/128 130/130/130 131/131/131
f 128/128/128 131/131/131 129/129/129
f 130/130/130 132/132/132 133/133/133
f 130/130/130 133/133/133 131/131/131
f 134/134/134 111/111/111 135/135/135
f 134/134/134 135/135/135 136/136/136
f 111/111/111 110/110/110 137/137/137
f 111/111/111 137/137/137 135/135/135
f 110/110/110 109/109/109 138/138/138
f 110/110/110 138/138/138 137/137/137
f 109/109/109 108/108/108 139/139/139
f 109/109/109 139/139/139 138/138/138
f 108/108/108 107/107/107 140/140/140
f 108/108/108 140/140/140 139/139/139
f 107/107/107 141/141/141 142/142/142
f 107/107/107 142/142/142 140/140/140
f 143/143/143 144/144/144 145/145/145
f 143/143/143 145/145/145 146/146/146
f 144/144/144 147/147/147 148/148/148
f 144/144/144 148/148/148 145/145/145
f 147/147/147 149/149/149 150/150/150
f 147/147/147 150/150/150 148/148/148
f 149/149/149 151/151/151 152/152/152
f 149/149/149 152/152/152 150/150/150
f 153/153/153 99/99/99 154/154/154
f 153/153/153 154/154/154 155/155/155
f 99/99/99 98/98/98 156/156/156
f 99/99/99 156/156/156 154/154/154
f 98/98/98 97/97/97 157/157/157
f 98/98/98 157/157/157 156/156/156
f 97/97/97 96/96/96 121/121/121
f 97/97/97 121/121/121 157/157/157

