# https://github.com/mikedh/trimesh
v -0.37407475 -0.95478984 0.25113366
v -0.34088275 -0.95478984 0.26167671
v -0.40659281 -0.95478984 0.25926054
v -0.40016220 -0.91455012 0.18985224
v -0.40799685 -0.88787023 0.14702108
v -0.39805613 -0.87958778 0.13186545
v -0.37407475 -0.90608435 0.17271976
v -0.35267686 -0.91348729 0.19424517
v -0.33178447 -0.95478984 0.26672851
v -0.41973485 -0.87749877 0.13450128
v -0.43456173 -0.95478984 0.27573404
v -0.40799685 -0.86478190 0.12220105
v -0.37407475 -0.83945798 0.10309172
v -0.38589694 -0.87958778 0.13186545
v -0.37466447 -0.88831004 0.14789972
v -0.36421825 -0.87625273 0.13603881
v -0.34155670 -0.88380224 0.15800344
v -0.33178447 -0.94786335 0.25662479
v -0.33178447 -0.88189654 0.16063918
v -0.33178447 -0.95478984 1.98458538
v -0.43065842 -0.85583968 0.12571534
v -0.52105189 -0.95478984 0.32757071
v -0.61863411 -0.95478984 0.38665561
v -0.40603120 -0.82930637 0.10462924
v -0.34155670 -0.83938469 0.10594721
v -0.37407475 -0.82318621 0.09672203
v -0.34155670 -0.82311282 0.09496484
v -0.34155670 -0.85587632 0.12220105
v -0.34155670 -0.87211155 0.14174961
v -0.33178447 -0.85382405 0.12417780
v -0.33178447 -0.87577628 0.15207300
v -0.33178447 -0.91968084 2.03598268
v -0.48912351 -0.87793858 2.18182812
v -0.52543256 -0.95478984 2.08166924
v -0.45727941 -0.81746901 0.13098690
v -0.44054303 -0.82875673 0.12198139
v -0.61863411 -0.77997796 0.34711927
v -0.61863411 -0.95478984 2.11835029
v -0.39482680 -0.81838527 0.09935777
v -0.43913897 -0.79687275 0.11846700
v -0.33178447 -0.82139043 0.09584338
v -0.33178447 -0.83839515 0.10902227
v -0.34155670 -0.79687275 0.08573967
v -0.33178447 -0.79687275 0.08595933
v -0.33178447 -0.86954609 0.14372636
v -0.33178447 -0.89421035 2.06761182
v -0.44778795 -0.85070896 2.18819790
v -0.47165703 -0.85737896 2.19434802
v -0.55637803 -0.81222836 2.27869238
v -0.57808482 -0.81508696 2.28176743
v -0.60259974 -0.95478984 2.11263940
v -0.56331412 -0.95478984 2.09726421
v -0.54141075 -0.95478984 2.08825868
v -0.48971323 -0.75868534 0.16371424
v -0.52781945 -0.58042853 0.18985224
v -0.45809379 -0.79687275 0.13032792
v -0.61863411 -0.58042853 0.30318990
v -0.59220966 -0.81508696 2.28176743
v -0.61388838 -0.81083571 2.27825305
v -0.61863411 -0.81479372 2.26946720
v -0.39482680 -0.80522854 0.09935777
v -0.40603120 -0.79540686 0.10440967
v -0.50192855 -0.58042853 0.17030368
v -0.49215630 -0.58042853 0.16503211
v -0.34155670 -0.76440249 0.08639864
v -0.33178447 -0.76440249 0.08398247
v -0.37668631 -0.79540686 0.09474518
v -0.33178447 -0.86258296 2.10143747
v -0.43722944 -0.83069907 2.20005881
v -0.48979747 -0.74637158 2.31098039
v -0.47165703 -0.84085059 2.21060187
v -0.33178447 -0.84675099 2.11835029
v -0.53669314 -0.77499381 2.30680713
v -0.56803174 -0.79958473 2.29274970
v -0.51990056 -0.58042853 0.18326280
v -0.61863411 -0.58042853 2.30197488
v -0.57109260 -0.76682128 2.31054107
v -0.60251550 -0.79874181 2.28901576
v -0.61863411 -0.79108237 2.28484239
v -0.61863411 -0.80819706 2.27539765
v -0.47165703 -0.58042853 0.16217672
v -0.33178447 -0.73292167 0.09276834
v -0.33178447 -0.75355462 2.19588555
v -0.33178447 -0.59937569 2.29033364
v -0.33178447 -0.58042853 2.30131590
v -0.48218747 -0.72467585 2.31647153
v -0.50204090 -0.73405778 2.32020557
v -0.51147620 -0.75285827 2.31603230
v -0.33178447 -0.82996613 2.13350582
v -0.33178447 -0.81230165 2.14910078
v -0.53669314 -0.75875867 2.31735017
v -0.61863411 -0.76322973 2.29253004
v -0.60172924 -0.76440249 2.30065701
v -0.56283670 -0.73185889 2.31603230
v -0.53669314 -0.73185889 2.32262165
v -0.53669314 -0.60175779 2.32196277
v -0.51532331 -0.58042853 2.32328063
v -0.56148883 -0.75758592 2.31515366
v -0.61863411 -0.78437573 2.28703891
v -0.45865541 -0.58042853 0.16173739
v -0.33178447 -0.70921031 0.10177384
v -0.33178447 -0.71771267 0.09825957
v -0.47165703 -0.58042853 2.32723423
v -0.47165703 -0.60175779 2.32635569
v -0.50414697 -0.69935194 2.32591637
v -0.47556027 -0.69935194 2.31932694
v -0.33178447 -0.58042853 0.16173739
v -0.50414697 -0.60175779 2.32767356
v -0.50414697 -0.58042853 2.32525748
v -0.33178447 -0.70056133 0.10572755
v -0.48280525 -0.58042853 2.32789322
f 1 2 9
f 1 9 20
f 1 20 34
f 1 34 53
f 1 53 52
f 1 52 51
f 1 51 38
f 1 38 23
f 1 23 22
f 1 22 11
f 1 11 3
f 1 3 4
f 1 4 5
f 1 5 6
f 1 6 7
f 1 7 2
f 2 7 8
f 2 8 9
f 3 10 5
f 3 5 4
f 3 11 10
f 5 10 6
f 6 12 13
f 6 13 14
f 6 14 7
f 6 10 12
f 7 14 15
f 7 15 16
f 7 16 17
f 7 17 8
f 8 18 9
f 8 17 19
f 8 19 18
f 9 18 19
f 9 19 31
f 9 31 45
f 9 45 30
f 9 30 42
f 9 42 41
f 9 41 44
f 9 44 66
f 9 66 82
f 9 82 102
f 9 102 101
f 9 101 110
f 9 110 107
f 9 107 85
f 9 85 84
f 9 84 83
f 9 83 90
f 9 90 89
f 9 89 72
f 9 72 68
f 9 68 46
f 9 46 32
f 9 32 20
f 10 21 12
f 10 11 22
f 10 22 23
f 10 23 21
f 12 21 24
f 12 24 13
f 13 25 14
f 13 24 26
f 13 26 27
f 13 27 25
f 14 25 28
f 14 28 16
f 14 16 15
f 16 29 17
f 16 28 30
f 16 30 29
f 17 29 31
f 17 31 19
f 20 32 33
f 20 33 34
f 21 35 36
f 21 36 24
f 21 23 35
f 23 37 35
f 23 38 60
f 23 60 80
f 23 80 79
f 23 79 99
f 23 99 92
f 23 92 76
f 23 76 57
f 23 57 37
f 24 39 26
f 24 36 40
f 24 40 39
f 25 27 41
f 25 41 42
f 25 42 30
f 25 30 28
f 26 43 27
f 26 39 43
f 27 43 44
f 27 44 41
f 29 30 45
f 29 45 31
f 32 46 33
f 33 47 48
f 33 48 49
f 33 49 50
f 33 50 38
f 33 38 51
f 33 51 52
f 33 52 53
f 33 53 34
f 33 46 47
f 35 54 55
f 35 55 56
f 35 56 40
f 35 40 36
f 35 37 57
f 35 57 54
f 38 50 58
f 38 58 59
f 38 59 60
f 39 61 43
f 39 40 61
f 40 62 61
f 40 56 63
f 40 63 64
f 40 64 62
f 43 65 66
f 43 66 44
f 43 61 67
f 43 67 65
f 46 68 47
f 47 69 70
f 47 70 71
f 47 71 48
f 47 68 72
f 47 72 69
f 48 71 73
f 48 73 49
f 49 73 50
f 50 73 74
f 50 74 58
f 54 57 55
f 55 75 56
f 55 57 76
f 55 76 97
f 55 97 109
f 55 109 111
f 55 111 103
f 55 103 85
f 55 85 107
f 55 107 100
f 55 100 81
f 55 81 64
f 55 64 63
f 55 63 75
f 56 75 63
f 58 74 77
f 58 77 78
f 58 78 59
f 59 78 79
f 59 79 80
f 59 80 60
f 61 62 65
f 61 65 67
f 62 64 65
f 64 81 82
f 64 82 66
f 64 66 65
f 69 72 70
f 70 83 84
f 70 84 85
f 70 85 86
f 70 86 87
f 70 87 88
f 70 88 71
f 70 72 89
f 70 89 90
f 70 90 83
f 71 88 73
f 73 88 91
f 73 91 74
f 74 91 77
f 76 92 93
f 76 93 94
f 76 94 95
f 76 95 96
f 76 96 97
f 77 91 98
f 77 98 93
f 77 93 78
f 78 93 79
f 79 93 99
f 81 100 101
f 81 101 102
f 81 102 82
f 85 103 104
f 85 104 105
f 85 105 106
f 85 106 86
f 86 106 87
f 87 105 95
f 87 95 91
f 87 91 88
f 87 106 105
f 91 95 98
f 92 99 93
f 93 98 94
f 94 98 95
f 95 105 108
f 95 108 96
f 96 108 109
f 96 109 97
f 100 110 101
f 100 107 110
f 103 111 105
f 103 105 104
f 105 111 108
f 108 111 109

