# https://github.com/mikedh/trimesh
v 0.30923069 1.35381540 1.23857286
v 0.46630418 1.32700844 1.14941462
v 0.45045534 1.32690229 1.14941462
v 0.43913471 1.32650465 1.14941462
v 0.30923069 1.28402702 1.14941462
v 0.30923069 1.08293474 1.23857286
v 0.65672634 1.20811363 1.23857286
v 0.47484183 1.32289857 1.14941462
v 0.30923069 1.08293474 1.14941462
v 0.78894170 1.08293474 1.23857286
v 0.66460359 1.20084844 1.23857286
v 0.79111145 1.08293474 1.19913900
v 0.65460374 1.20668176 1.22275743
v 0.49587929 1.31022415 1.14941462
v 0.76427216 1.08293474 1.14941462
v 0.78309267 1.08972261 1.23857286
v 0.78502661 1.08293474 1.17533728
v 0.64550007 1.19883330 1.14941462
v 0.62922669 1.21100383 1.14941462
v 0.77262110 1.08293474 1.15877995
f 1 2 3
f 1 3 4
f 1 4 5
f 1 5 9
f 1 9 6
f 1 6 10
f 1 10 16
f 1 16 11
f 1 11 7
f 1 7 2
f 2 8 14
f 2 14 19
f 2 19 18
f 2 18 15
f 2 15 9
f 2 9 5
f 2 5 4
f 2 4 3
f 2 7 8
f 6 9 15
f 6 15 20
f 6 20 17
f 6 17 12
f 6 12 10
f 7 11 12
f 7 12 13
f 7 13 14
f 7 14 8
f 10 12 16
f 11 16 12
f 12 17 18
f 12 18 13
f 13 18 19
f 13 19 14
f 15 18 20
f 17 20 18

