# https://github.com/mikedh/trimesh
v -0.73189926 -1.24491139 0.48856615
v -0.70769759 -1.24491139 0.49569883
v -0.74317220 -1.40375161 0.55262291
v -0.74686615 -1.33480349 0.52275493
v -0.76444421 -1.33675611 0.52213763
v -0.78399665 -1.33660876 0.52237769
v -0.75043269 -1.24491139 0.48962922
v -0.71253789 -1.30383857 0.52134895
v -0.57025734 -1.24491139 0.58437693
v -0.56962046 -1.24505873 0.58434263
v -0.56962046 -1.25338481 0.58471985
v -0.56962046 -1.25428740 0.58478844
v -0.56962046 -1.25537417 0.58492560
v -0.56962046 -1.26996329 0.58780611
v -0.71081831 -1.40588832 0.58310817
v -0.72629471 -1.42758773 0.59466440
v -0.74801254 -1.43119818 0.58842337
v -0.76444421 -1.42325888 0.57148331
v -0.76444421 -1.40701202 0.55077115
v -0.56962046 -1.28495753 0.59631041
v -0.56962046 -1.28549175 0.59668760
v -0.56962046 -1.30835161 0.61403915
v -0.79692548 -1.38238373 0.54089519
v -0.75737479 -1.24491139 0.49076083
v -0.81959864 -1.40222271 0.55313726
v -0.83004358 -1.38087324 0.55035964
v -0.82947038 -1.34985307 0.54178676
v -0.56962046 -1.24491139 0.58482271
v -0.56962046 -1.32666169 0.63475131
v -0.56962046 -1.33734558 0.64853653
v -0.71285638 -1.43256132 0.61633672
v -0.76444421 -1.43138236 0.58773753
v -0.73502002 -1.43226653 0.60519194
v -0.78176757 -1.43143761 0.58756604
v -0.79437792 -1.42241155 0.57494675
v -0.79692548 -1.40585148 0.55114838
v -0.76858400 -1.24491139 0.49515017
v -0.83004358 -1.40885403 0.57072888
v -0.85246208 -1.40377003 0.58057058
v -0.84125279 -1.39070981 0.55886395
v -0.84679374 -1.36902891 0.55522908
v -0.85086978 -1.34985307 0.55238289
v -0.79654335 -1.24491139 0.50749514
v -0.56962046 -1.24491139 0.83882069
v -0.56962046 -1.35117937 0.66870002
v -0.71011774 -1.43307702 0.63728890
v -0.56962046 -1.36442378 0.68838337
v -0.56962046 -1.37260242 0.70223717
v -0.56962046 -1.38153639 0.73453988
v -0.56962046 -1.38161007 0.73484853
v -0.61598582 -1.40038061 0.71526803
v -0.63432814 -1.41029084 0.73484853
v -0.73177188 -1.43294810 0.63564290
v -0.78176757 -1.43143761 0.59294982
v -1.11957254 -1.35917393 0.83882069
v -1.12836159 -1.35716606 0.83882069
v -0.86277964 -1.40557521 0.60615211
v -1.14307364 -1.34580059 0.83882069
v -1.15027049 -1.34005335 0.83882069
v -0.91653287 -1.37348669 0.61547941
v -0.90373147 -1.34985307 0.59404716
v -0.88755450 -1.34985307 0.58111925
v -0.86711043 -1.34985307 0.56486502
v -0.87029485 -1.31734084 0.56184735
v -0.85405429 -1.31734084 0.55029107
v -0.81851593 -1.24491139 0.51973726
v -0.56962046 -1.35073734 0.83882069
v -1.22020069 -1.24491139 0.83882069
v -0.71107306 -1.43234030 0.65978417
v -0.72088113 -1.43234030 0.65978417
v -0.56962046 -1.38161007 0.76701407
v -0.56962046 -1.38155481 0.76735694
v -0.56962046 -1.37269461 0.79571613
v -0.63432814 -1.40312530 0.75758387
v -0.66680940 -1.41740122 0.73484853
v -0.77552610 -1.43077446 0.61465640
v -1.09250481 -1.36388956 0.83882069
v -1.18096844 -1.31146476 0.83882069
v -0.92220121 -1.34985307 0.61030138
v -1.18727366 -1.30490702 0.83882069
v -1.20160367 -1.28539966 0.83882069
v -1.18752841 -1.28681805 0.82626998
v -1.17689241 -1.27731302 0.81145595
v -1.18256064 -1.25229794 0.80593505
v -1.18281540 -1.24491139 0.80411757
v -0.96468156 -1.28482860 0.63008764
v -0.89131221 -1.31734084 0.57810157
v -0.87456204 -1.24491139 0.55862392
v -0.85832138 -1.24491139 0.54699906
v -0.94844091 -1.28482860 0.61746833
v -0.95098852 -1.25229794 0.61544514
v -0.83475659 -1.24491139 0.53074484
v -0.69935436 -1.37411290 0.82133197
v -0.69935436 -1.39037828 0.80579789
v -0.67757283 -1.40082274 0.78800051
v -1.20478808 -1.24491139 0.82434963
v -1.19880130 -1.25229794 0.82061181
v -1.21873588 -1.24953493 0.83882069
v -0.73189926 -1.42165630 0.70230577
v -0.66674571 -1.40603576 0.76869435
v -0.69935436 -1.40139380 0.78954366
v -0.69935436 -1.40789619 0.76735694
v -1.21325869 -1.26123192 0.83882069
v -1.16358140 -1.24491139 0.78830916
v -0.96729277 -1.25229794 0.62799586
v -0.95117959 -1.24491139 0.61520507
v -0.96742015 -1.24491139 0.62789296
f 1 2 3
f 1 3 4
f 1 4 5
f 1 5 6
f 1 6 7
f 1 7 24
f 1 24 37
f 1 37 43
f 1 43 66
f 1 66 92
f 1 92 89
f 1 89 88
f 1 88 106
f 1 106 107
f 1 107 104
f 1 104 85
f 1 85 96
f 1 96 68
f 1 68 44
f 1 44 28
f 1 28 9
f 1 9 2
f 2 8 3
f 2 9 10
f 2 10 11
f 2 11 12
f 2 12 13
f 2 13 14
f 2 14 8
f 3 15 16
f 3 16 17
f 3 17 18
f 3 18 19
f 3 19 4
f 3 8 14
f 3 14 20
f 3 20 21
f 3 21 22
f 3 22 15
f 4 19 5
f 5 19 23
f 5 23 6
f 6 24 7
f 6 23 25
f 6 25 26
f 6 26 27
f 6 27 24
f 9 28 10
f 10 28 44
f 10 44 67
f 10 67 73
f 10 73 72
f 10 72 71
f 10 71 50
f 10 50 49
f 10 49 48
f 10 48 47
f 10 47 45
f 10 45 30
f 10 30 29
f 10 29 22
f 10 22 21
f 10 21 20
f 10 20 14
f 10 14 13
f 10 13 12
f 10 12 11
f 15 22 29
f 15 29 30
f 15 30 16
f 16 30 31
f 16 31 17
f 17 32 18
f 17 31 33
f 17 33 32
f 18 32 34
f 18 34 35
f 18 35 36
f 18 36 19
f 19 36 23
f 23 36 25
f 24 27 37
f 25 36 35
f 25 35 38
f 25 38 39
f 25 39 40
f 25 40 26
f 26 40 41
f 26 41 27
f 27 41 42
f 27 42 43
f 27 43 37
f 30 45 31
f 31 46 33
f 31 45 47
f 31 47 48
f 31 48 49
f 31 49 50
f 31 50 51
f 31 51 52
f 31 52 46
f 32 33 34
f 33 46 53
f 33 53 34
f 34 53 54
f 34 54 55
f 34 55 56
f 34 56 57
f 34 57 39
f 34 39 38
f 34 38 35
f 39 57 56
f 39 56 58
f 39 58 59
f 39 59 60
f 39 60 40
f 40 60 61
f 40 61 41
f 41 61 62
f 41 62 63
f 41 63 42
f 42 63 64
f 42 64 65
f 42 65 66
f 42 66 43
f 44 68 98
f 44 98 103
f 44 103 81
f 44 81 80
f 44 80 78
f 44 78 59
f 44 59 58
f 44 58 56
f 44 56 55
f 44 55 77
f 44 77 67
f 46 69 70
f 46 70 53
f 46 52 69
f 50 71 52
f 50 52 51
f 52 71 72
f 52 72 73
f 52 73 74
f 52 74 75
f 52 75 69
f 53 70 76
f 53 76 54
f 54 76 77
f 54 77 55
f 59 78 60
f 60 79 61
f 60 78 80
f 60 80 81
f 60 81 82
f 60 82 83
f 60 83 79
f 61 79 84
f 61 84 85
f 61 85 86
f 61 86 62
f 62 86 63
f 63 86 87
f 63 87 64
f 64 88 89
f 64 89 65
f 64 87 90
f 64 90 91
f 64 91 88
f 65 89 92
f 65 92 66
f 67 77 93
f 67 93 94
f 67 94 95
f 67 95 73
f 68 96 97
f 68 97 98
f 69 75 70
f 70 75 99
f 70 99 77
f 70 77 76
f 73 95 74
f 74 95 100
f 74 100 75
f 75 100 95
f 75 95 101
f 75 101 102
f 75 102 99
f 77 99 102
f 77 102 101
f 77 101 94
f 77 94 93
f 79 83 97
f 79 97 84
f 81 103 97
f 81 97 83
f 81 83 82
f 84 97 85
f 85 97 96
f 85 104 86
f 86 105 90
f 86 90 87
f 86 104 105
f 88 91 106
f 90 105 91
f 91 105 106
f 94 101 95
f 97 103 98
f 104 107 105
f 105 107 106

