# https://github.com/mikedh/trimesh
v 0.03928564 -0.78523562 2.12159373
v 0.06370216 -0.78523562 2.12159373
v 0.03928564 -0.78523562 2.12924764
v 0.03928564 -0.41449270 2.12159373
v 0.04779587 -0.78523562 2.12889876
v 0.21216878 -0.63430376 2.12159373
v 0.19960493 -0.62359810 2.15575895
v 0.18756262 -0.57896090 2.20767366
v 0.16589593 -0.58785202 2.21752302
v 0.10568433 -0.56070679 2.28811055
v 0.08167082 -0.56919878 2.29693403
v 0.03928564 -0.61848115 2.28002586
v 0.03928564 -0.41449270 2.27555256
v 0.28143581 -0.41449270 2.12159373
v 0.19827744 -0.55725920 2.21815912
v 0.28143581 -0.43169435 2.12159373
v 0.28143581 -0.42842823 2.12526681
v 0.28143581 -0.41449270 2.13788634
v 0.20252069 -0.53435994 2.22983479
v 0.17758266 -0.56854552 2.22486906
v 0.19621507 -0.52198492 2.24871283
v 0.09219599 -0.54619061 2.30979979
v 0.07050560 -0.55598903 2.31468351
v 0.03928564 -0.61405371 2.28351415
v 0.08811868 -0.41449270 2.27809698
v 0.03928564 -0.48253722 2.31679706
v 0.28022683 -0.41449270 2.14041031
v 0.21065163 -0.50420261 2.23108654
v 0.26005356 -0.41449270 2.18159314
v 0.19825373 -0.50420261 2.25088792
v 0.17888646 -0.50420261 2.26486178
v 0.13927482 -0.52837205 2.28651001
v 0.10023210 -0.52452527 2.31359597
v 0.08133893 -0.53588414 2.31776138
v 0.04879149 -0.56008988 2.31854115
v 0.04879149 -0.53671882 2.32914982
v 0.03928564 -0.56154148 2.31991602
v 0.11386268 -0.41449270 2.27875365
v 0.03928564 -0.48965018 2.32059313
v 0.24279609 -0.41449270 2.20221539
v 0.19823003 -0.48224690 2.25070325
v 0.15913990 -0.50420261 2.27760454
v 0.14287802 -0.50420261 2.28788488
v 0.10023210 -0.51715829 2.31359597
v 0.03928564 -0.53671882 2.33120180
v 0.04879149 -0.50420261 2.32656430
v 0.03928564 -0.51371070 2.32937549
v 0.16964138 -0.41449270 2.26223535
v 0.03928564 -0.50420261 2.32810328
v 0.21318811 -0.41449270 2.23188677
v 0.20901595 -0.41449270 2.23508784
v 0.17568624 -0.41449270 2.25983449
v 0.07977439 -0.50547279 2.31708427
f 1 2 5
f 1 5 3
f 1 3 12
f 1 12 24
f 1 24 37
f 1 37 45
f 1 45 47
f 1 47 49
f 1 49 39
f 1 39 26
f 1 26 13
f 1 13 4
f 1 4 14
f 1 14 16
f 1 16 6
f 1 6 2
f 2 6 7
f 2 7 8
f 2 8 9
f 2 9 10
f 2 10 11
f 2 11 12
f 2 12 5
f 3 5 12
f 4 13 25
f 4 25 38
f 4 38 48
f 4 48 52
f 4 52 51
f 4 51 50
f 4 50 40
f 4 40 29
f 4 29 27
f 4 27 18
f 4 18 14
f 6 15 7
f 6 16 17
f 6 17 18
f 6 18 19
f 6 19 15
f 7 15 8
f 8 15 9
f 9 15 20
f 9 20 10
f 10 20 15
f 10 15 21
f 10 21 22
f 10 22 11
f 11 22 23
f 11 23 12
f 12 23 24
f 13 26 25
f 14 18 17
f 14 17 16
f 15 19 21
f 18 27 19
f 19 27 28
f 19 28 21
f 21 28 29
f 21 29 30
f 21 30 31
f 21 31 32
f 21 32 22
f 22 32 33
f 22 33 34
f 22 34 23
f 23 35 24
f 23 34 36
f 23 36 35
f 24 35 37
f 25 26 38
f 26 39 38
f 27 29 28
f 29 40 30
f 30 41 31
f 30 40 41
f 31 42 33
f 31 33 32
f 31 41 42
f 33 36 34
f 33 42 43
f 33 43 44
f 33 44 36
f 35 36 45
f 35 45 37
f 36 44 46
f 36 46 47
f 36 47 45
f 38 39 49
f 38 49 46
f 38 46 48
f 40 50 41
f 41 50 51
f 41 51 52
f 41 52 42
f 42 52 43
f 43 52 44
f 44 53 46
f 44 52 48
f 44 48 53
f 46 49 47
f 46 53 48

