# https://github.com/mikedh/trimesh
v -1.29713891 -0.12638899 0.93063353
v -1.40500695 -0.12638899 0.93063353
v -1.29713891 -0.23452819 0.93063353
v -1.29713891 -0.12638899 0.24136777
v -1.40915686 -0.14532606 0.93063353
v -1.53031506 -0.12638899 0.78575257
v -1.53245787 -0.14637399 0.78872585
v -1.41818875 -0.23452819 0.93063353
v -1.29713891 -0.23452819 0.30346918
v -1.29713891 -0.14161061 0.24028653
v -1.41493396 -0.12638899 0.28184518
v -1.41639869 -0.17890256 0.93063353
v -1.56207613 -0.12638899 0.71952897
v -1.41818875 -0.23406246 0.93063353
v -1.41789037 -0.21136761 0.93063353
v -1.53215950 -0.16933346 0.78825284
v -1.49993740 -0.23175485 0.78865828
v -1.49687252 -0.23452819 0.79136130
v -1.29746444 -0.23452819 0.30346918
v -1.29713891 -0.17765349 0.24934157
v -1.29713891 -0.14603526 0.24075957
v -1.41493396 -0.14637399 0.28394000
v -1.43467951 -0.16797855 0.29367081
v -1.43028560 -0.12638899 0.28840002
v -1.56842284 -0.12638899 0.70195945
v -1.53462763 -0.17564229 0.76737216
v -1.51810983 -0.21142054 0.76737216
v -1.50547050 -0.23452819 0.76737216
v -1.50221572 -0.23452819 0.77717054
v -1.36117628 -0.23452819 0.30833467
v -1.29713891 -0.17514478 0.24805763
v -1.38339003 -0.23452819 0.31009157
v -1.41468987 -0.23452819 0.31853845
v -1.41254716 -0.20868954 0.30400981
v -1.43836828 -0.12638899 0.29191391
v -1.42182323 -0.18965719 0.29860387
v -1.43421846 -0.23095037 0.32448508
v -1.43937177 -0.21142054 0.31941699
v -1.44772567 -0.17865910 0.31184848
v -1.46546411 -0.16765040 0.32502570
v -1.45464198 -0.12638899 0.30448285
v -1.44834946 -0.12638899 0.29907684
v -1.57420004 -0.12638899 0.66979371
v -1.52244944 -0.20840372 0.73581457
v -1.50867101 -0.23452819 0.64668304
v -1.42369471 -0.23452819 0.32218746
v -1.43180452 -0.23452819 0.32712054
v -1.43516778 -0.23452819 0.33468894
v -1.56826018 -0.12638899 0.62674837
v -1.46752539 -0.12638899 0.32076849
v -1.57048422 -0.12638899 0.63722255
v -1.50839977 -0.23452819 0.63722255
v -1.50218858 -0.23452819 0.60316468
v -1.50476528 -0.23452819 0.61350367
f 1 2 5
f 1 5 12
f 1 12 15
f 1 15 14
f 1 14 8
f 1 8 3
f 1 3 9
f 1 9 20
f 1 20 31
f 1 31 21
f 1 21 10
f 1 10 4
f 1 4 11
f 1 11 24
f 1 24 35
f 1 35 42
f 1 42 41
f 1 41 50
f 1 50 49
f 1 49 51
f 1 51 43
f 1 43 25
f 1 25 13
f 1 13 6
f 1 6 2
f 2 6 7
f 2 7 5
f 3 8 18
f 3 18 29
f 3 29 28
f 3 28 45
f 3 45 52
f 3 52 54
f 3 54 53
f 3 53 48
f 3 48 47
f 3 47 46
f 3 46 33
f 3 33 32
f 3 32 30
f 3 30 19
f 3 19 9
f 4 10 11
f 5 7 12
f 6 13 7
f 7 14 15
f 7 15 12
f 7 13 16
f 7 16 8
f 7 8 14
f 8 16 17
f 8 17 18
f 9 19 20
f 10 21 22
f 10 22 11
f 11 22 23
f 11 23 24
f 13 25 16
f 16 25 26
f 16 26 27
f 16 27 17
f 17 27 28
f 17 28 29
f 17 29 18
f 19 30 20
f 20 30 32
f 20 32 33
f 20 33 34
f 20 34 31
f 21 31 23
f 21 23 22
f 23 35 24
f 23 31 36
f 23 36 37
f 23 37 38
f 23 38 39
f 23 39 40
f 23 40 41
f 23 41 42
f 23 42 35
f 25 43 26
f 26 43 27
f 27 43 28
f 28 43 44
f 28 44 45
f 31 34 36
f 33 46 37
f 33 37 34
f 34 37 36
f 37 46 47
f 37 47 48
f 37 48 49
f 37 49 40
f 37 40 38
f 38 40 39
f 40 50 41
f 40 49 50
f 43 51 52
f 43 52 45
f 43 45 44
f 48 53 49
f 49 53 54
f 49 54 51
f 51 54 52

