# https://github.com/mikedh/trimesh
v 0.96554945 -0.96710888 1.41792164
v 0.95197807 -0.98517352 1.38537861
v 0.96270791 -0.96710888 1.38666744
v 0.96079940 -0.96710888 1.45041866
v 0.95252935 -0.98487854 1.41792164
v 0.78343844 -1.23962014 1.24494180
v 0.78343844 -1.23962014 1.23094875
v 0.89476619 -0.96710888 1.09249123
v 0.95884853 -0.96710888 1.45686281
v 0.75103677 -1.27086452 1.24351489
v 0.75532025 -1.27492990 1.22280149
v 0.94561643 -0.97730508 1.47057969
v 0.75476891 -1.27473312 1.19711687
v 0.74624441 -1.26666799 1.17543686
v 0.80591607 -1.08825051 1.09249123
v 0.53232551 -0.96710888 1.09249123
v 0.95210525 -0.96710888 1.47550486
v 0.74255467 -1.26365178 1.26519489
v 0.72088288 -1.27207751 1.27513733
v 0.73178235 -1.27663474 1.25474614
v 0.73186718 -1.28866695 1.22280149
v 0.93687992 -0.97156773 1.49230574
v 0.73398773 -1.28197873 1.18786490
v 0.72457256 -1.27404466 1.16821019
v 0.72232483 -1.24243967 1.13516082
v 0.71439405 -1.20290061 1.09249123
v 0.80417721 -1.09057828 1.09249123
v 0.53232551 -0.96710888 1.56273127
v 0.53232551 -1.21621142 1.09249123
v 0.94370802 -0.96710888 1.48830115
v 0.69933832 -1.27758551 1.28144341
v 0.67516428 -1.29876476 1.26450445
v 0.69776909 -1.29335524 1.25433188
v 0.91516566 -0.97769855 1.50141963
v 0.68589417 -1.30204329 1.24282444
v 0.68589417 -1.30204329 1.23334230
v 0.69776909 -1.29850244 1.22261736
v 0.93929725 -0.96710888 1.49479135
v 0.69933832 -1.29155201 1.19025844
v 0.69933832 -1.27604459 1.16604680
v 0.66659736 -1.22234225 1.09249123
v 0.66680941 -1.22230948 1.09249123
v 0.69870217 -1.21362144 1.09249123
v 0.69908386 -1.21339189 1.09249123
v 0.53232551 -1.03074511 1.54339876
v 0.89446928 -0.96710888 1.51186839
v 0.63406845 -1.22191611 1.09249123
v 0.66710628 -1.29571577 1.22261736
v 0.65641880 -1.29971552 1.24590843
v 0.63538317 -1.29558462 1.25617306
v 0.53232551 -1.24089875 1.22284753
v 0.65904824 -1.27342174 1.30850890
v 0.66710628 -1.28607687 1.28802566
v 0.65349249 -1.30174821 1.27320408
v 0.92199376 -0.96710888 1.50611467
v 0.53232551 -1.04251500 1.53902595
v 0.53232551 -1.05261290 1.53216751
v 0.65892106 -1.23942345 1.33939487
v 0.67813300 -1.30204329 1.23334230
v 0.64696127 -1.30174821 1.27320408
v 0.64696127 -1.30174821 1.26758844
v 0.58304851 -1.27033990 1.26699005
v 0.53232551 -1.24348882 1.24876227
v 0.63428050 -1.27584790 1.31127070
v 0.53232551 -1.17119722 1.40300800
v 0.60913102 -1.27342174 1.30924539
v 0.63538317 -1.29292901 1.28554005
v 0.59967349 -1.27807727 1.28857802
v 0.58304851 -1.27033990 1.27826735
v 0.53232551 -1.24240690 1.25368746
v 0.53232551 -1.17827891 1.39251322
v 0.58745924 -1.26709423 1.29994737
v 0.53232551 -1.21801465 1.31909574
v 0.53232551 -1.18227866 1.38547068
f 1 2 3
f 1 3 8
f 1 8 16
f 1 16 28
f 1 28 46
f 1 46 55
f 1 55 38
f 1 38 30
f 1 30 17
f 1 17 9
f 1 9 4
f 1 4 5
f 1 5 6
f 1 6 7
f 1 7 2
f 2 7 3
f 3 7 8
f 4 9 6
f 4 6 5
f 6 10 11
f 6 11 7
f 6 9 12
f 6 12 10
f 7 11 13
f 7 13 8
f 8 13 14
f 8 14 15
f 8 15 27
f 8 27 26
f 8 26 44
f 8 44 43
f 8 43 42
f 8 42 41
f 8 41 47
f 8 47 29
f 8 29 16
f 9 17 12
f 10 18 19
f 10 19 20
f 10 20 21
f 10 21 11
f 10 12 22
f 10 22 18
f 11 21 13
f 12 17 22
f 13 21 23
f 13 23 14
f 14 24 25
f 14 25 26
f 14 26 27
f 14 27 15
f 14 23 24
f 16 29 51
f 16 51 63
f 16 63 70
f 16 70 73
f 16 73 74
f 16 74 71
f 16 71 65
f 16 65 57
f 16 57 56
f 16 56 45
f 16 45 28
f 17 30 22
f 18 22 19
f 19 31 32
f 19 32 33
f 19 33 20
f 19 22 34
f 19 34 31
f 20 33 21
f 21 33 35
f 21 35 36
f 21 36 37
f 21 37 23
f 22 30 38
f 22 38 34
f 23 37 39
f 23 39 24
f 24 40 41
f 24 41 42
f 24 42 43
f 24 43 25
f 24 39 40
f 25 43 44
f 25 44 26
f 28 45 46
f 29 47 40
f 29 40 39
f 29 39 48
f 29 48 49
f 29 49 50
f 29 50 51
f 31 52 53
f 31 53 54
f 31 54 32
f 31 34 52
f 32 54 35
f 32 35 33
f 34 38 55
f 34 55 46
f 34 46 56
f 34 56 57
f 34 57 58
f 34 58 52
f 35 59 36
f 35 54 60
f 35 60 59
f 36 59 39
f 36 39 37
f 39 59 48
f 40 47 41
f 45 56 46
f 48 59 49
f 49 59 61
f 49 61 50
f 50 61 62
f 50 62 63
f 50 63 51
f 52 54 53
f 52 58 64
f 52 64 54
f 54 64 60
f 57 65 66
f 57 66 64
f 57 64 58
f 59 60 61
f 60 64 67
f 60 67 68
f 60 68 69
f 60 69 62
f 60 62 61
f 62 69 63
f 63 69 70
f 64 66 67
f 65 71 66
f 66 71 72
f 66 72 68
f 66 68 67
f 68 72 69
f 69 72 70
f 70 72 73
f 71 74 72
f 72 74 73

