# https://github.com/mikedh/trimesh
v -0.29291854 0.39577383 2.23608126
v -0.29302643 0.39571189 2.23628735
v -0.29291854 0.39571189 2.21195424
v -0.29291854 0.44995451 2.21216052
v -0.32039937 0.45799385 2.21566617
v -0.34154953 0.45889174 2.21607855
v -0.35924658 0.45744688 2.21545989
v -0.32529123 0.39571189 2.23401902
v -0.29291854 0.39571189 0.14528561
v -0.29291854 0.47005809 2.19731315
v -0.30673088 0.47286517 2.20081880
v -0.34154953 0.47515624 2.20844858
v -0.31471615 0.49373247 2.18844587
v -0.34154953 0.49836619 2.19215780
v -0.36644052 0.39571189 2.22329595
v -0.34154953 0.39571189 2.23257560
v -0.37406608 0.50063666 2.19092049
v -0.39658309 0.49675624 2.18679618
v -0.49970809 0.40658932 2.15710163
v -0.50427623 0.39571189 0.17518643
v -0.52506671 0.42016027 0.16363845
v -0.29291854 0.42188372 0.13229401
v -0.29291854 0.48771583 2.18205340
v -0.34154953 0.50113201 2.18906452
v -0.29291854 0.50113201 2.16761841
v -0.37406608 0.50113201 2.19050812
v -0.50244179 0.39571189 2.15751400
v -0.39169120 0.50113201 2.18494040
v -0.40143899 0.50113201 2.18040372
v -0.49298178 0.42674452 2.15297732
v -0.55438199 0.39571189 2.12080795
v -0.51193780 0.39571189 2.15256495
v -0.52445523 0.39571189 0.18034178
v -0.56481317 0.50113201 0.15827700
v -0.53682880 0.50113201 0.14714138
v -0.53362749 0.50113201 0.14611035
v -0.50413239 0.47163706 0.14755395
v -0.50413239 0.43911838 0.15559609
v -0.66038456 0.39571189 0.23127635
v -0.29291854 0.43833401 0.12961329
v -0.29291854 0.50113201 0.14095501
v -0.43266067 0.50113201 2.15483329
v -0.55610850 0.39571189 2.11874589
v -0.45762359 0.50113201 2.12802555
v -0.66038456 0.50113201 1.90882083
v -0.59963180 0.50113201 0.17415540
v -0.50413239 0.50113201 0.14301727
v -0.66038456 0.50113201 0.21024261
v -0.60366044 0.50113201 0.17621747
v -0.66038456 0.39571189 1.89974746
v -0.56028099 0.39571189 2.11359055
v -0.66038456 0.48103871 1.90820223
v -0.62150134 0.39571189 1.99501796
v -0.58301386 0.39571189 2.08307106
v -0.57599973 0.39571189 2.09379412
f 1 2 3
f 1 3 9
f 1 9 22
f 1 22 40
f 1 40 41
f 1 41 25
f 1 25 23
f 1 23 10
f 1 10 4
f 1 4 2
f 2 4 5
f 2 5 6
f 2 6 7
f 2 7 8
f 2 8 16
f 2 16 15
f 2 15 27
f 2 27 32
f 2 32 31
f 2 31 43
f 2 43 51
f 2 51 55
f 2 55 54
f 2 54 53
f 2 53 50
f 2 50 39
f 2 39 33
f 2 33 20
f 2 20 9
f 2 9 3
f 4 10 11
f 4 11 5
f 5 12 6
f 5 11 13
f 5 13 14
f 5 14 12
f 6 12 7
f 7 15 16
f 7 16 8
f 7 12 17
f 7 17 18
f 7 18 19
f 7 19 15
f 9 20 21
f 9 21 22
f 10 23 13
f 10 13 11
f 12 14 17
f 13 24 14
f 13 23 25
f 13 25 24
f 14 24 26
f 14 26 17
f 15 19 27
f 17 26 28
f 17 28 18
f 18 28 29
f 18 29 30
f 18 30 19
f 19 30 31
f 19 31 32
f 19 32 27
f 20 33 21
f 21 34 35
f 21 35 36
f 21 36 37
f 21 37 38
f 21 38 22
f 21 33 39
f 21 39 34
f 22 38 37
f 22 37 40
f 24 25 41
f 24 41 47
f 24 47 36
f 24 36 35
f 24 35 34
f 24 34 46
f 24 46 49
f 24 49 48
f 24 48 45
f 24 45 44
f 24 44 42
f 24 42 29
f 24 29 28
f 24 28 26
f 29 42 30
f 30 42 31
f 31 42 44
f 31 44 45
f 31 45 43
f 34 39 46
f 36 47 40
f 36 40 37
f 39 48 49
f 39 49 46
f 39 50 52
f 39 52 45
f 39 45 48
f 40 47 41
f 43 45 51
f 45 52 53
f 45 53 54
f 45 54 55
f 45 55 51
f 50 53 52

