# https://github.com/mikedh/trimesh
v -1.11929898 0.39571189 1.32903868
v -1.11929898 0.40851916 1.32261922
v -1.25231103 0.43500061 1.31037289
v -1.25231103 0.40658932 1.32380435
v -1.21976942 0.39571189 1.32884117
v -1.11929898 0.39571189 0.32009894
v -1.11929898 0.43056299 1.30968157
v -1.25231103 0.50113201 1.27511532
v -1.25231103 0.49788116 1.27689303
v -1.25231103 0.47163706 1.29091705
v -1.25231103 0.45125484 1.30178071
v -1.28481619 0.49750964 1.27709054
v -1.28481619 0.47163706 1.29012696
v -1.25231103 0.39571189 1.32844610
v -1.27879674 0.43231737 1.30849641
v -1.14687912 0.39571189 0.33224650
v -1.11929898 0.50113201 0.34024620
v -1.11929898 0.43760130 1.30523732
v -1.27777522 0.50113201 1.27511532
v -1.11929898 0.44557874 1.29980551
v -1.11929898 0.50113201 1.25941233
v -1.28481619 0.50113201 1.27491777
v -1.30466226 0.49241150 1.27442396
v -1.28357587 0.40658932 1.31333570
v -1.28266378 0.39571189 1.31610103
v -1.28769824 0.44154357 1.30118813
v -1.21929520 0.39571189 0.36562759
v -1.25231103 0.39571189 0.38142941
v -1.26219761 0.39571189 0.38686123
v -1.28259079 0.39571189 0.40947737
v -1.17931129 0.50113201 0.41629190
v -1.29656329 0.50113201 1.27146116
v -1.30841985 0.47163706 1.27906574
v -1.31626338 0.50113201 1.25674582
v -1.33315438 0.50113201 1.23847509
v -1.29984667 0.40658932 1.30266954
v -1.29951834 0.39571189 1.30197822
v -1.33621888 0.39571189 0.47969630
v -1.19120429 0.50113201 0.43969819
v -1.34457316 0.39571189 0.49164635
v -1.39229115 0.39571189 0.56235903
v -1.47043488 0.39571189 0.69934019
v -1.47131042 0.39641367 0.70240177
v -1.43636098 0.42745662 0.71010513
v -1.46401402 0.42314280 0.75049826
v -1.44730544 0.43036689 0.73775812
v -1.41976185 0.44829295 0.73489404
v -1.31049926 0.43911838 1.28469510
v -1.33402992 0.49135885 1.23975898
v -1.40111975 0.50113201 1.11433283
v -1.39874836 0.45581634 1.14159080
v -1.32677006 0.43911838 1.25862225
v -1.39159794 0.43801411 1.15452844
v -1.38911721 0.40658932 1.15768878
v -1.39188982 0.39571189 1.15176315
v -1.19244471 0.50113201 0.44216720
v -1.47214952 0.39571189 0.70240177
v -1.45803112 0.41850908 0.72886965
v -1.39192637 0.48377357 0.79997740
v -1.42662038 0.45246229 0.76748509
v -1.48659615 0.39571189 0.73252382
v -1.49082806 0.39571189 0.74536269
v -1.46543687 0.42460825 0.76748509
v -1.37733365 0.50113201 0.83237089
v -1.36565954 0.50113201 0.79879224
v -1.40210473 0.50113201 1.11137000
v -1.41337753 0.47163706 1.09260547
v -1.40279784 0.46865458 1.12490024
v -1.41636903 0.43911838 1.09260547
v -1.41844853 0.39571189 1.09260547
v -1.41034958 0.39571189 1.11403654
v -1.39874836 0.44812782 1.14159080
v -1.39845658 0.40658932 1.14099823
v -1.40130210 0.39571189 1.13527010
v -1.49199548 0.39571189 0.75790531
v -1.40524212 0.50113201 1.06633510
v -1.40473136 0.50113201 1.06011318
v -1.40575289 0.50113201 1.08756866
v -1.42366533 0.43911838 1.06011318
v -1.42632850 0.39571189 1.05991564
v -1.42125760 0.39571189 1.08124798
f 1 2 3
f 1 3 4
f 1 4 5
f 1 5 14
f 1 14 25
f 1 25 37
f 1 37 55
f 1 55 74
f 1 74 71
f 1 71 70
f 1 70 81
f 1 81 80
f 1 80 75
f 1 75 62
f 1 62 61
f 1 61 57
f 1 57 42
f 1 42 41
f 1 41 40
f 1 40 38
f 1 38 30
f 1 30 29
f 1 29 28
f 1 28 27
f 1 27 16
f 1 16 6
f 1 6 17
f 1 17 21
f 1 21 20
f 1 20 18
f 1 18 7
f 1 7 2
f 2 7 8
f 2 8 9
f 2 9 10
f 2 10 11
f 2 11 3
f 3 11 12
f 3 12 13
f 3 13 4
f 4 14 5
f 4 13 15
f 4 15 14
f 6 16 17
f 7 18 8
f 8 19 9
f 8 18 20
f 8 20 21
f 8 21 17
f 8 17 31
f 8 31 39
f 8 39 56
f 8 56 65
f 8 65 64
f 8 64 77
f 8 77 76
f 8 76 78
f 8 78 66
f 8 66 50
f 8 50 35
f 8 35 34
f 8 34 32
f 8 32 22
f 8 22 19
f 9 19 12
f 9 12 10
f 10 12 11
f 12 19 22
f 12 22 23
f 12 23 13
f 13 23 15
f 14 15 24
f 14 24 25
f 15 23 26
f 15 26 24
f 16 27 17
f 17 27 28
f 17 28 29
f 17 29 30
f 17 30 31
f 22 32 23
f 23 33 26
f 23 32 34
f 23 34 35
f 23 35 33
f 24 26 36
f 24 36 25
f 25 36 37
f 26 33 36
f 30 38 31
f 31 38 40
f 31 40 41
f 31 41 42
f 31 42 43
f 31 43 44
f 31 44 45
f 31 45 46
f 31 46 47
f 31 47 39
f 33 48 36
f 33 35 48
f 35 49 48
f 35 50 51
f 35 51 49
f 36 48 52
f 36 52 53
f 36 53 54
f 36 54 37
f 37 54 55
f 39 47 56
f 42 57 43
f 43 57 45
f 43 45 58
f 43 58 44
f 44 58 45
f 45 59 60
f 45 60 47
f 45 47 46
f 45 57 61
f 45 61 62
f 45 62 63
f 45 63 64
f 45 64 59
f 47 60 65
f 47 65 56
f 48 49 51
f 48 51 52
f 50 66 67
f 50 67 68
f 50 68 51
f 51 68 67
f 51 67 69
f 51 69 70
f 51 70 71
f 51 71 72
f 51 72 53
f 51 53 52
f 53 72 73
f 53 73 54
f 54 73 74
f 54 74 55
f 59 65 60
f 59 64 65
f 62 75 63
f 63 75 76
f 63 76 77
f 63 77 64
f 66 78 75
f 66 75 67
f 67 79 69
f 67 75 79
f 69 79 80
f 69 80 81
f 69 81 70
f 71 74 72
f 72 74 73
f 75 80 79
f 75 78 76

