# https://github.com/mikedh/trimesh
v -0.87474777 0.90470715 1.32576267
v -0.87474777 0.91524448 1.32122792
v -1.10654876 1.04153554 1.10944707
v -1.10945137 1.02459557 1.11159511
v -1.08271294 0.95955714 1.14874825
v -1.09900187 0.95955714 1.13593958
v -1.10132401 0.92702048 1.13768980
v -1.11597373 0.90470715 1.11732321
v -0.87474777 0.90470715 0.51300789
v -0.87474777 0.92335681 1.31764785
v -1.10159718 1.07143782 1.07205525
v -1.11351501 1.04804287 1.09258098
v -1.14687825 1.04823481 1.05327978
v -1.13707765 1.03823830 1.07491930
v -1.14179009 1.01655294 1.08072698
v -1.00847386 1.04101217 1.17404740
v -0.99208246 1.04788583 1.17921859
v -0.97343736 1.07175190 1.17166067
v -0.95175297 1.08007362 1.17874127
v -0.94505981 1.08293474 1.18057107
v -0.95004551 1.08293474 1.17691144
v -1.14544406 0.99207636 1.08414792
v -1.12953077 0.99207636 1.10037756
v -1.11710063 0.95955714 1.11970993
v -1.11996911 0.92702048 1.12146018
v -1.13622392 0.92702048 1.10682168
v -1.14298533 0.90470715 1.09170584
v -0.89148059 0.90470715 0.51420125
v -0.87474777 0.97292069 0.55517313
v -0.87474777 0.92417681 1.31709096
v -0.90937451 1.07321741 1.20634755
v -1.11054415 1.07548536 1.05041573
v -1.07991279 1.07536322 1.07985184
v -1.13280900 1.07044344 1.02758286
v -1.15650815 1.05177633 1.02527573
v -1.16856264 1.03365004 1.03458387
v -1.15517641 1.02510149 1.06004214
v -1.17187510 1.01196468 1.04516497
v -0.92737080 1.08293474 1.19043614
v -0.93437126 1.08293474 1.18669696
v -0.96428547 1.08293474 1.16282985
v -1.14906381 0.95955714 1.08772799
v -1.13338956 0.95955714 1.10395763
v -1.16169877 0.99207636 1.06362221
v -1.16531852 0.95955714 1.06752050
v -1.15087364 0.92702048 1.09051249
v -1.14756129 0.90470715 1.08661420
v -1.11177342 0.90470715 0.61722763
v -1.11091979 0.91573295 0.61746629
v -0.98511614 0.94893257 0.58365455
v -0.91695544 0.94662972 0.55366155
v -0.87655760 0.97478742 0.55692334
v -0.87474777 0.97672394 0.55875319
v -0.87474777 1.07433394 1.20706356
v -0.89397343 1.08293474 1.20109677
v -0.90056413 1.08293474 1.20069900
v -1.11652017 1.07712526 1.02758286
v -0.97275435 1.08293474 1.15328300
v -1.13229678 1.07115874 0.99504405
v -1.15469833 1.05751602 0.99504405
v -1.17296788 1.04347206 0.99504405
v -1.17126042 1.04127390 1.01286481
v -1.17416303 1.02351394 1.02527573
v -1.17908039 0.99207636 1.02758286
v -1.17296788 0.99207636 1.04739257
v -1.17450454 0.95955714 1.05129086
v -1.16712845 0.92702048 1.06855475
v -1.15872782 0.90470715 1.07237347
v -1.17371915 0.90470715 0.65207359
v -1.17149947 0.91133663 0.65302828
v -1.15469833 0.91770437 0.64793664
v -1.09620173 0.93741831 0.62852475
v -1.07451734 0.94375115 0.62048950
v -0.91879948 0.98050975 0.58389323
v -0.87474777 1.08293474 0.67450872
v -0.87474777 1.08293474 1.20046033
v -1.08964515 1.08045740 1.02758286
v -1.08964515 1.08080637 0.99504405
v -1.11600785 1.07651465 0.99504405
v -0.98771144 1.08293474 1.12607449
v -1.17330929 1.04390819 0.97316585
v -1.10986113 1.07466537 0.97197247
v -1.10354360 1.07255445 0.95025341
v -1.12485235 1.03846504 0.82972449
v -1.15469833 1.02548527 0.83250898
v -1.18007070 1.02459557 0.99504405
v -1.18457840 0.99207636 0.99504405
v -1.21828307 0.90470715 0.86465004
v -1.17996833 0.95955714 1.02758286
v -1.17433373 0.92702048 1.05224554
v -1.17293366 0.90470715 1.04922239
v -1.17067986 0.90470715 1.05431404
v -1.16385011 0.90470715 1.06545201
v -1.18550038 0.90470715 0.66893970
v -1.16641130 0.93993045 0.69049966
v -1.15521054 0.93382444 0.66886016
v -1.13315051 0.94113422 0.65732437
v -1.19837440 0.90470715 0.68890853
v -1.20643350 0.91491305 0.71388943
v -1.19895495 0.93825566 0.73489249
v -1.17580215 0.94713564 0.71221876
v -1.14069741 1.00974908 0.78151290
v -1.12215467 1.02754393 0.79997014
v -0.95383597 1.08293474 0.77339810
v -1.06232625 1.08293474 0.96775598
v -1.04470549 1.08293474 0.92925034
v -1.09148921 1.07775332 0.96170963
v -1.17375327 1.01205193 0.83250898
v -1.19847685 0.96831498 0.79997014
v -1.20756040 0.95203797 0.79997014
v -1.21657561 0.92702048 0.79997014
v -0.96834920 1.08293474 0.79623096
v -1.15278604 1.01386631 0.80267509
v -1.17149947 1.00887673 0.81524510
v -1.22357616 0.90470715 0.83250898
v -1.14472691 0.94676931 0.67896388
v -1.20960937 0.90470715 0.70816133
v -1.21001913 0.92199610 0.73489249
v -1.20346255 0.94326268 0.75120168
v -1.18270023 0.95369532 0.73489249
v -1.17740715 0.98106801 0.77427326
v -1.16945049 0.97499680 0.75263370
v -1.16238170 1.00273582 0.79360559
v -1.20626279 0.94867084 0.77292079
v -1.21189730 0.93026547 0.76416948
v -1.21879529 0.90470715 0.74324600
v -1.22200529 0.90470715 0.77761461
v -1.22323465 0.90470715 0.79997014
v -1.21165825 0.90470715 0.71428722
v -1.21729275 0.90470715 0.73489249
f 1 2 3
f 1 3 4
f 1 4 5
f 1 5 6
f 1 6 7
f 1 7 8
f 1 8 27
f 1 27 47
f 1 47 68
f 1 68 93
f 1 93 92
f 1 92 91
f 1 91 88
f 1 88 115
f 1 115 128
f 1 128 127
f 1 127 126
f 1 126 130
f 1 130 129
f 1 129 117
f 1 117 98
f 1 98 94
f 1 94 69
f 1 69 48
f 1 48 28
f 1 28 9
f 1 9 29
f 1 29 53
f 1 53 75
f 1 75 76
f 1 76 54
f 1 54 30
f 1 30 10
f 1 10 2
f 2 10 3
f 3 11 12
f 3 12 13
f 3 13 14
f 3 14 15
f 3 15 4
f 3 10 16
f 3 16 17
f 3 17 18
f 3 18 19
f 3 19 20
f 3 20 21
f 3 21 11
f 4 15 22
f 4 22 23
f 4 23 24
f 4 24 6
f 4 6 5
f 6 24 25
f 6 25 7
f 7 25 8
f 8 25 26
f 8 26 27
f 9 28 29
f 10 30 31
f 10 31 17
f 10 17 16
f 11 32 13
f 11 13 12
f 11 21 33
f 11 33 32
f 13 32 34
f 13 34 35
f 13 35 36
f 13 36 14
f 14 36 37
f 14 37 15
f 15 37 38
f 15 38 22
f 17 39 40
f 17 40 20
f 17 20 19
f 17 19 18
f 17 31 39
f 20 40 39
f 20 39 56
f 20 56 55
f 20 55 76
f 20 76 75
f 20 75 104
f 20 104 112
f 20 112 106
f 20 106 105
f 20 105 80
f 20 80 58
f 20 58 41
f 20 41 21
f 21 41 32
f 21 32 33
f 22 42 43
f 22 43 23
f 22 38 44
f 22 44 45
f 22 45 42
f 23 43 24
f 24 43 26
f 24 26 25
f 26 43 42
f 26 42 46
f 26 46 47
f 26 47 27
f 28 48 49
f 28 49 50
f 28 50 51
f 28 51 52
f 28 52 29
f 29 52 53
f 30 54 55
f 30 55 56
f 30 56 31
f 31 56 39
f 32 57 34
f 32 41 58
f 32 58 57
f 34 57 59
f 34 59 60
f 34 60 61
f 34 61 35
f 35 61 62
f 35 62 36
f 36 38 37
f 36 62 63
f 36 63 38
f 38 63 64
f 38 64 65
f 38 65 45
f 38 45 44
f 42 45 46
f 45 65 66
f 45 66 67
f 45 67 46
f 46 67 68
f 46 68 47
f 48 69 49
f 49 69 70
f 49 70 71
f 49 71 72
f 49 72 73
f 49 73 50
f 50 52 51
f 50 73 52
f 52 73 74
f 52 74 75
f 52 75 53
f 54 76 55
f 57 77 78
f 57 78 79
f 57 79 59
f 57 58 77
f 58 80 77
f 59 81 60
f 59 79 82
f 59 82 83
f 59 83 84
f 59 84 85
f 59 85 81
f 60 81 61
f 61 81 86
f 61 86 62
f 62 86 63
f 63 86 64
f 64 66 65
f 64 86 87
f 64 87 88
f 64 88 89
f 64 89 66
f 66 90 67
f 66 89 88
f 66 88 90
f 67 90 91
f 67 91 92
f 67 92 93
f 67 93 68
f 69 94 70
f 70 95 96
f 70 96 97
f 70 97 71
f 70 94 98
f 70 98 99
f 70 99 100
f 70 100 101
f 70 101 95
f 71 97 72
f 72 97 73
f 73 97 75
f 73 75 74
f 75 97 102
f 75 102 103
f 75 103 84
f 75 84 104
f 77 105 78
f 77 80 105
f 78 105 106
f 78 106 79
f 79 106 107
f 79 107 82
f 81 85 108
f 81 108 109
f 81 109 110
f 81 110 111
f 81 111 86
f 82 107 112
f 82 112 104
f 82 104 83
f 83 104 84
f 84 103 85
f 85 103 113
f 85 113 114
f 85 114 108
f 86 111 115
f 86 115 88
f 86 88 87
f 88 91 90
f 95 97 96
f 95 101 97
f 97 101 116
f 97 116 102
f 98 117 99
f 99 117 118
f 99 118 119
f 99 119 100
f 100 119 120
f 100 120 101
f 101 120 121
f 101 121 122
f 101 122 116
f 102 122 123
f 102 123 113
f 102 113 103
f 102 116 122
f 106 112 107
f 108 114 124
f 108 124 109
f 109 124 110
f 110 124 111
f 111 124 125
f 111 125 126
f 111 126 127
f 111 127 128
f 111 128 115
f 113 123 114
f 114 123 122
f 114 122 121
f 114 121 119
f 114 119 124
f 117 129 118
f 118 129 130
f 118 130 124
f 118 124 119
f 119 121 120
f 124 130 126
f 124 126 125

