# https://github.com/mikedh/trimesh
v -1.12779577 -0.52154967 1.92971387
v -1.12779577 -0.47612407 1.92869118
v -1.14015213 -0.48454776 1.92340715
v -1.27817430 -0.52154967 1.86281168
v -1.12779577 -0.52154967 1.05921848
v -1.12779577 -0.45736400 1.92033903
v -1.27629003 -0.51131687 1.86187418
v -1.28473301 -0.52154967 1.85880610
v -1.47660148 -0.52154967 1.05921848
v -1.12779577 -0.42529002 1.05921848
v -1.12779577 -0.44430450 1.90746996
v -1.26672382 -0.48963588 1.85556751
v -1.31107642 -0.51053483 1.83281226
v -1.33020893 -0.52154967 1.82352261
v -1.49479184 -0.52154967 1.11546743
v -1.45341058 -0.42529002 1.05921848
v -1.12779577 -0.42529002 1.87014113
v -1.12779577 -0.44146834 1.90440183
v -1.27842799 -0.48105204 1.83392015
v -1.30009697 -0.48884438 1.82113629
v -1.25675892 -0.42529002 1.77622233
v -1.30451771 -0.42529002 1.73045618
v -1.33162210 -0.52154967 1.82147722
v -1.49569774 -0.52154967 1.12049576
v -1.49783569 -0.52154967 1.13541026
v -1.49798061 -0.52154967 1.14802367
v -1.46511476 -0.45250204 1.35290627
v -1.45623699 -0.43623889 1.35290627
v -1.44917101 -0.42529002 1.35290627
v -1.21882011 -0.42529002 1.80443208
v -1.12779577 -0.42535598 1.87210132
v -1.24827977 -0.42529002 1.78278472
v -1.31209097 -0.42529002 1.71852455
v -1.31607696 -0.42529002 1.71059859
v -1.43221263 -0.42529002 1.43770586
v -1.43438684 -0.42529002 1.43208095
v -1.44500385 -0.43912216 1.41793350
v -1.38162751 -0.52154967 1.67812756
v -1.49747334 -0.52154967 1.15756894
v -1.46453496 -0.45367043 1.37370135
v -1.44609091 -0.42529002 1.38520682
v -1.44793893 -0.42529002 1.36816167
v -1.44145283 -0.42529002 1.40736550
v -1.45583839 -0.44134586 1.38495114
v -1.46457123 -0.47164840 1.37336044
v -1.46406394 -0.48995621 1.37020709
v -1.46660041 -0.52154967 1.34557685
v -1.47453603 -0.52154967 1.30296402
v -1.47236191 -0.50416524 1.32035004
v -1.46670908 -0.50213944 1.35392898
f 1 2 3
f 1 3 4
f 1 4 8
f 1 8 14
f 1 14 23
f 1 23 38
f 1 38 47
f 1 47 48
f 1 48 39
f 1 39 26
f 1 26 25
f 1 25 24
f 1 24 15
f 1 15 9
f 1 9 5
f 1 5 10
f 1 10 17
f 1 17 31
f 1 31 18
f 1 18 11
f 1 11 6
f 1 6 2
f 2 6 7
f 2 7 4
f 2 4 3
f 4 7 8
f 5 9 16
f 5 16 10
f 6 11 12
f 6 12 7
f 7 12 13
f 7 13 14
f 7 14 8
f 9 15 16
f 10 16 29
f 10 29 42
f 10 42 41
f 10 41 43
f 10 43 36
f 10 36 35
f 10 35 34
f 10 34 33
f 10 33 22
f 10 22 21
f 10 21 32
f 10 32 30
f 10 30 17
f 11 18 12
f 12 19 20
f 12 20 13
f 12 18 21
f 12 21 19
f 13 20 14
f 14 20 22
f 14 22 23
f 15 24 16
f 16 24 25
f 16 25 26
f 16 26 27
f 16 27 28
f 16 28 29
f 17 30 31
f 18 31 32
f 18 32 21
f 19 21 22
f 19 22 20
f 22 33 23
f 23 33 34
f 23 34 35
f 23 35 36
f 23 36 37
f 23 37 38
f 26 39 40
f 26 40 27
f 27 40 28
f 28 40 41
f 28 41 42
f 28 42 29
f 30 32 31
f 36 43 44
f 36 44 37
f 37 44 40
f 37 40 38
f 38 40 45
f 38 45 46
f 38 46 47
f 39 48 49
f 39 49 45
f 39 45 40
f 40 44 41
f 41 44 43
f 45 49 50
f 45 50 46
f 46 50 47
f 47 50 48
f 48 50 49

