# https://github.com/mikedh/trimesh
v 0.82346491 0.59603871 1.81580603
v 0.82346491 0.66659522 1.78960521
v 0.74603090 0.59603871 1.88630685
v 0.82346491 0.59603871 0.37303809
v 0.82346491 0.67229560 1.78736435
v 0.69960170 0.62859248 1.88630685
v 0.50515988 0.59603871 1.88630685
v 0.82346491 0.69797542 1.76909275
v 0.78787954 0.59603871 0.28702369
v 0.78065031 0.61794615 0.26323614
v 0.78065031 0.61814172 0.26323614
v 0.78529320 0.63110739 0.27737073
v 0.78579180 0.66681876 0.28443808
v 0.82346491 0.68654666 0.42750823
v 0.63372830 0.67210003 1.88630685
v 0.50515988 0.65566942 1.88630685
v 0.50515988 0.59603871 0.22548626
v 0.82346491 0.71219846 1.75616470
v 0.68635846 0.75229695 1.79494881
v 0.60125900 0.69286181 1.88630685
v 0.77846902 0.59603871 0.26720070
v 0.76634759 0.60498049 0.25082520
v 0.71661534 0.71337209 0.19721699
v 0.71692695 0.73187047 0.19704453
v 0.71633489 0.75081594 0.19756170
v 0.77952851 0.63982563 0.26495989
v 0.77825092 0.66681876 0.26806257
v 0.75509865 0.82662585 0.27995635
v 0.76435333 0.82942008 0.31201793
v 0.82346491 0.83780306 0.62901308
v 0.75712406 0.86370637 0.31081124
v 0.57517761 0.69244265 1.88630685
v 0.55221229 0.71608257 1.85734806
v 0.53005711 0.74352278 1.81925347
v 0.51615950 0.72186684 1.82925114
v 0.50515988 0.72896438 1.80546359
v 0.50515988 0.67223971 0.14550488
v 0.51497541 0.68162862 0.13205971
v 0.51223327 0.59603871 0.22445204
v 0.82346491 0.75928272 1.70962383
v 0.66678964 0.75685167 1.79960289
v 0.82346491 0.79409994 1.67514910
v 0.82346491 0.80740087 1.66187628
v 0.82346491 0.82335643 1.64515607
v 0.82346491 0.87345860 1.59120309
v 0.59321957 0.74913935 1.82545894
v 0.56922593 0.74922320 1.82563130
v 0.63428917 0.76132258 1.80511884
v 0.63428917 0.77758553 1.78822622
v 0.60175754 0.78010039 1.79115655
v 0.76382357 0.59603871 0.25168707
v 0.73615304 0.59603871 0.23479442
v 0.73297465 0.60031400 0.23186409
v 0.67713493 0.73187047 0.16946479
v 0.69932126 0.73187047 0.18446134
v 0.71159852 0.77249984 0.20135400
v 0.74861725 0.81393961 0.26289133
v 0.73107385 0.73187047 0.21445436
v 0.65790888 0.76436841 0.16170802
v 0.67414353 0.76436841 0.17222276
v 0.70019374 0.76274771 0.18997729
v 0.75952342 0.69934462 0.24841194
v 0.75341596 0.85406601 0.29098825
v 0.82346491 0.84358733 0.63728705
v 0.75207608 0.88147826 0.32011939
v 0.55174486 0.74855254 1.82494178
v 0.53921832 0.75657224 1.80822157
v 0.51725015 0.75173806 1.79753438
v 0.50515988 0.82617867 1.67807942
v 0.50515988 0.68445091 0.13309395
v 0.50515988 0.69733272 0.12930173
v 0.53669430 0.69934462 0.12568189
v 0.53669430 0.68151685 0.13205971
v 0.63428917 0.59603871 0.21066215
v 0.54208510 0.59603871 0.22031503
v 0.66678964 0.77311462 1.78133129
v 0.72107133 0.84870090 1.66618565
v 0.82346491 0.88147826 1.57913692
v 0.56922593 0.76484341 1.80822157
v 0.69932126 0.85102023 1.67066736
v 0.63428917 0.78971283 1.77202308
v 0.60175754 0.79029964 1.77495346
v 0.56922593 0.77998862 1.78977757
v 0.73281882 0.59603871 0.23324303
v 0.65619507 0.71186316 0.16256989
v 0.66090027 0.73187047 0.16032898
v 0.65220651 0.78306237 0.16463836
v 0.65846976 0.82290935 0.19152869
v 0.74599974 0.73187047 0.23686287
v 0.63428917 0.73187047 0.14860756
v 0.63428917 0.76436841 0.15188270
v 0.74472219 0.87574992 0.29891747
v 0.82346491 0.85618972 0.67021041
v 0.74039087 0.88147826 0.30339919
v 0.81296379 0.88147826 0.68365557
v 0.81449060 0.88019286 0.68175947
v 0.50515988 0.88147826 1.58482527
v 0.50515988 0.69898134 0.12895702
v 0.53669430 0.73187047 0.12568189
v 0.56227714 0.73187047 0.12999126
v 0.56209020 0.69934462 0.12999126
v 0.55454931 0.68243902 0.13274923
v 0.66678964 0.59603871 0.21290297
v 0.82346491 0.88147826 0.77294512
v 0.57835600 0.69934462 0.13550721
v 0.63428917 0.78934961 0.16153557
v 0.63428917 0.80561251 0.16946479
v 0.64815564 0.84459326 0.19928545
v 0.60175754 0.73187047 0.13964412
v 0.60281703 0.79915767 0.15826053
v 0.60175754 0.76436841 0.14481536
v 0.64980712 0.87751030 0.23238125
v 0.63790378 0.88147826 0.22807188
v 0.50515988 0.88147826 0.27685357
v 0.50515988 0.73005415 0.12895702
v 0.51790452 0.75022912 0.13188735
v 0.53669430 0.75120718 0.13188735
v 0.55482975 0.75011735 0.13274923
v 0.61437759 0.81148059 0.16670681
v 0.63612765 0.83201888 0.18670215
v 0.62649902 0.84965098 0.19566560
v 0.62964624 0.88147826 0.22238348
v 0.59268985 0.81609124 0.16412119
v 0.56707585 0.76232855 0.13912705
v 0.57832484 0.88147826 0.22565861
v 0.50515988 0.88125472 0.27650885
v 0.50515988 0.76244032 0.14550488
v 0.53669430 0.76747008 0.14016128
v 0.50515988 0.76308302 0.14584959
v 0.50515988 0.77255573 0.15205505
v 0.50515988 0.78563316 0.16067380
v 0.50515988 0.78638762 0.16119085
v 0.53669430 0.79166889 0.15636442
v 0.57904150 0.81609124 0.16412119
v 0.60175754 0.85099221 0.19342469
v 0.60175754 0.86725517 0.20669751
v 0.60175754 0.88147826 0.21859127
v 0.58156552 0.88147826 0.22462440
v 0.55177602 0.84596250 0.19773415
v 0.50515988 0.82215489 0.19049437
v 0.50515988 0.80265053 0.17411886
v 0.53669430 0.80793179 0.16946479
v 0.56860272 0.82793916 0.17670449
v 0.56922593 0.84822590 0.19497608
v 0.53924949 0.83101286 0.18790883
v 0.50515988 0.82145635 0.18980494
f 1 2 3
f 1 3 7
f 1 7 17
f 1 17 39
f 1 39 75
f 1 75 74
f 1 74 103
f 1 103 84
f 1 84 52
f 1 52 51
f 1 51 21
f 1 21 9
f 1 9 4
f 1 4 14
f 1 14 30
f 1 30 64
f 1 64 93
f 1 93 104
f 1 104 78
f 1 78 45
f 1 45 44
f 1 44 43
f 1 43 42
f 1 42 40
f 1 40 18
f 1 18 8
f 1 8 5
f 1 5 2
f 2 5 3
f 3 6 15
f 3 15 20
f 3 20 32
f 3 32 16
f 3 16 7
f 3 5 8
f 3 8 6
f 4 9 10
f 4 10 11
f 4 11 12
f 4 12 13
f 4 13 14
f 6 8 15
f 7 16 36
f 7 36 69
f 7 69 97
f 7 97 114
f 7 114 126
f 7 126 140
f 7 140 146
f 7 146 141
f 7 141 132
f 7 132 131
f 7 131 130
f 7 130 129
f 7 129 127
f 7 127 115
f 7 115 98
f 7 98 71
f 7 71 70
f 7 70 37
f 7 37 17
f 8 18 19
f 8 19 20
f 8 20 15
f 9 21 10
f 10 21 22
f 10 22 23
f 10 23 24
f 10 24 11
f 11 24 25
f 11 25 26
f 11 26 13
f 11 13 12
f 13 26 27
f 13 27 28
f 13 28 29
f 13 29 14
f 14 29 31
f 14 31 30
f 16 32 33
f 16 33 34
f 16 34 35
f 16 35 36
f 17 37 38
f 17 38 39
f 18 40 19
f 19 41 20
f 19 40 42
f 19 42 43
f 19 43 44
f 19 44 45
f 19 45 41
f 20 46 47
f 20 47 32
f 20 41 48
f 20 48 49
f 20 49 50
f 20 50 46
f 21 51 22
f 22 51 52
f 22 52 53
f 22 53 54
f 22 54 23
f 23 54 55
f 23 55 24
f 24 55 25
f 25 56 57
f 25 57 58
f 25 58 26
f 25 55 54
f 25 54 59
f 25 59 60
f 25 60 61
f 25 61 56
f 26 58 27
f 27 58 62
f 27 62 57
f 27 57 28
f 28 63 29
f 28 57 63
f 29 63 31
f 30 31 64
f 31 63 65
f 31 65 64
f 32 47 66
f 32 66 33
f 33 66 34
f 34 66 67
f 34 67 68
f 34 68 35
f 35 68 36
f 36 68 69
f 37 70 38
f 38 70 71
f 38 71 72
f 38 72 73
f 38 73 74
f 38 74 75
f 38 75 39
f 41 45 76
f 41 76 49
f 41 49 48
f 45 77 76
f 45 78 77
f 46 50 47
f 47 50 79
f 47 79 66
f 49 76 77
f 49 77 80
f 49 80 81
f 49 81 50
f 50 81 80
f 50 80 82
f 50 82 83
f 50 83 79
f 52 84 53
f 53 84 85
f 53 85 86
f 53 86 54
f 54 86 59
f 56 61 60
f 56 60 87
f 56 87 88
f 56 88 63
f 56 63 57
f 57 62 89
f 57 89 58
f 58 89 62
f 59 87 60
f 59 86 90
f 59 90 91
f 59 91 87
f 63 92 65
f 63 88 92
f 64 65 93
f 65 92 94
f 65 94 113
f 65 113 122
f 65 122 137
f 65 137 138
f 65 138 125
f 65 125 114
f 65 114 97
f 65 97 78
f 65 78 104
f 65 104 95
f 65 95 96
f 65 96 93
f 66 79 83
f 66 83 67
f 67 83 69
f 67 69 68
f 69 83 97
f 71 98 72
f 72 99 100
f 72 100 101
f 72 101 102
f 72 102 73
f 72 98 115
f 72 115 99
f 73 102 103
f 73 103 74
f 77 78 80
f 78 97 80
f 80 97 82
f 82 97 83
f 84 103 102
f 84 102 105
f 84 105 85
f 85 105 90
f 85 90 86
f 87 91 106
f 87 106 107
f 87 107 108
f 87 108 88
f 88 108 92
f 90 105 101
f 90 101 109
f 90 109 91
f 91 110 106
f 91 109 100
f 91 100 111
f 91 111 110
f 92 108 112
f 92 112 113
f 92 113 94
f 93 96 104
f 95 104 96
f 99 115 116
f 99 116 117
f 99 117 118
f 99 118 100
f 100 118 111
f 100 109 101
f 101 105 102
f 106 119 107
f 106 110 119
f 107 119 120
f 107 120 108
f 108 120 121
f 108 121 122
f 108 122 112
f 110 123 119
f 110 111 124
f 110 124 123
f 111 118 124
f 112 122 113
f 114 125 126
f 115 127 116
f 116 128 117
f 116 127 129
f 116 129 130
f 116 130 131
f 116 131 132
f 116 132 133
f 116 133 134
f 116 134 128
f 117 128 134
f 117 134 123
f 117 123 118
f 118 123 124
f 119 123 121
f 119 121 120
f 121 135 136
f 121 136 122
f 121 123 135
f 122 136 137
f 123 134 136
f 123 136 135
f 125 138 139
f 125 139 140
f 125 140 126
f 132 141 133
f 133 141 142
f 133 142 134
f 134 142 143
f 134 143 137
f 134 137 136
f 137 143 144
f 137 144 139
f 137 139 138
f 139 144 143
f 139 143 145
f 139 145 146
f 139 146 140
f 141 146 143
f 141 143 142
f 143 146 145

