# https://github.com/mikedh/trimesh
v 0.08201705 1.45319800 0.79971684
v 0.08208070 1.47484303 0.82950008
v 0.11378216 1.47526142 0.83699945
v 0.08437238 1.45319800 0.80025251
v 0.04878780 1.45319800 0.80260947
v 0.05948228 1.46451160 0.81498341
v 0.07183184 1.46451160 0.81498341
v 0.14631117 1.56942663 1.00070015
v -0.08126457 1.59623748 1.04033970
v -0.01627021 1.59687407 1.03958977
v 0.10327866 1.45319800 0.81043025
v 0.17884017 1.56660739 1.00461053
v 0.21136919 1.53473999 0.96989912
v 0.21136919 1.52326256 0.95366835
v 0.13453453 1.46956817 0.84342749
v -0.21615490 1.45319800 0.83635666
v -0.22933203 1.46403874 0.84824852
v -0.10513614 1.59543716 1.04141104
v 0.04878780 1.62021076 1.08763935
v 0.04878780 1.62881427 1.10387015
v 0.07004943 1.62810488 1.10542358
v 0.14631117 1.58283205 1.02764432
v -0.08126457 1.60685991 1.06015950
v -0.04873556 1.60787854 1.06015950
v 0.11416411 1.45319800 0.81819748
v 0.17884017 1.57648409 1.02764432
v 0.19749183 1.56267851 1.00884234
v 0.22906597 1.53022899 0.97659500
v 0.23205788 1.50063526 0.94199075
v 0.21136919 1.50700145 0.93534843
v 0.26445959 1.45319800 0.94654391
v -0.23658899 1.45319800 0.83935641
v -0.25103926 1.46112848 0.85398019
v -0.20285049 1.56553419 1.03685785
v -0.12677972 1.59301798 1.04912470
v 0.02644401 1.62786836 1.10569142
v 0.04878780 1.63232478 1.12513622
v 0.08131682 1.63605358 1.15770495
v 0.11378216 1.63412549 1.15770495
v 0.13122432 1.62661340 1.14083135
v -0.11506673 1.59883851 1.06005235
v -0.08126457 1.61422660 1.09262109
v -0.04873556 1.61811904 1.09262109
v 0.17884017 1.60915181 1.12513622
v 0.19812842 1.59545538 1.10601283
v 0.20379394 1.59945697 1.12513622
v 0.22002660 1.58506938 1.12513622
v 0.25643871 1.55618494 1.15770495
v 0.30424555 1.45319800 0.99512919
v 0.27846423 1.45319800 0.96079274
v -0.24531006 1.45319800 0.84294540
v -0.26727192 1.45319800 0.86051536
v -0.27306476 1.45319800 0.86731838
v -0.26351613 1.46553023 0.87562126
v -0.26440733 1.49830710 0.94327634
v -0.23830775 1.53470354 1.00059300
v -0.24702882 1.53985112 1.02459100
v -0.26459830 1.53228436 1.03337601
v -0.20495118 1.56751677 1.06015950
v -0.17885159 1.57781184 1.06015950
v 0.04878780 1.63414372 1.15770495
v 0.08131682 1.63900010 1.19022011
v -0.03390335 1.62672255 1.17007892
v 0.11378216 1.63863639 1.19022011
v 0.13765374 1.62950544 1.15770495
v -0.03390335 1.62672255 1.17586417
v 0.17884017 1.61553613 1.15770495
v 0.20595830 1.60163962 1.15770495
v 0.22225462 1.58936197 1.15770495
v 0.24020605 1.57310086 1.15770495
v 0.25567485 1.55769465 1.19022011
v 0.27101630 1.54145176 1.19022011
v 0.28724896 1.52188023 1.19022011
v 0.26866097 1.53994205 1.15770495
v 0.29864369 1.50561912 1.19022011
v 0.30640989 1.45319800 1.08672870
v -0.29407175 1.45319800 0.89511963
v -0.30425695 1.45319800 0.90872564
v -0.29840046 1.46944089 0.93004531
v -0.27007285 1.50319994 0.96256046
v -0.25995130 1.52864658 1.01168138
v -0.28636918 1.49246835 0.96256046
v -0.26459830 1.53228436 1.05116025
v -0.30610303 1.47618901 0.96256046
v -0.32870145 1.46771288 1.00118223
v -0.29757293 1.50065348 1.02764432
v -0.31380559 1.48524726 1.02764432
v -0.20055881 1.56533412 1.08469316
v -0.12168711 1.59079888 1.15770495
v 0.08131682 1.63197910 1.21850347
v 0.11378216 1.63176099 1.21877132
v 0.13644424 1.62908706 1.21271824
v 0.14160051 1.63134260 1.19022011
v -0.04638023 1.61808269 1.18813100
v -0.03619502 1.59591012 1.24132300
v -0.01627021 1.62226613 1.19423763
v 0.15783318 1.62408507 1.19022011
v 0.17884017 1.61240766 1.19022011
v 0.20131130 1.59840200 1.19022011
v 0.29488788 1.49919835 1.24218007
v 0.29794346 1.50365467 1.22273526
v 0.19749183 1.59538258 1.21116481
v 0.23415860 1.56533412 1.21148620
v 0.30125364 1.47999062 1.22273526
v 0.30653723 1.45319800 1.09262109
v -0.31304169 1.45319800 0.92383153
v -0.31469681 1.45494414 0.93004531
v -0.29700000 1.50052610 1.05057100
v -0.33042020 1.45319800 1.08030068
v -0.25727769 1.52631833 1.07285486
v -0.13830172 1.56924478 1.18443487
v -0.32233569 1.45987333 0.96256046
v -0.33303019 1.45319800 0.98029113
v -0.33805912 1.45319800 0.99609339
v -0.34378830 1.45319800 1.02764432
v -0.32971997 1.46896793 1.02764432
v -0.10042549 1.59461862 1.17548919
v -0.07986410 1.60043915 1.18791673
v 0.08131682 1.62337568 1.23473427
v 0.11378216 1.62406685 1.23505567
v 0.14688408 1.61864648 1.22321737
v 0.19023487 1.59087168 1.23285943
v 0.17915847 1.60167607 1.22230674
v -0.04771704 1.60163962 1.22155680
v -0.09934331 1.56282401 1.24105517
v -0.05713835 1.52671849 1.30212152
v -0.03568577 1.56280579 1.27287396
v 0.09430295 1.59481870 1.27249899
v 0.25809383 1.49499668 1.27035631
v 0.26834270 1.47331520 1.27758785
v 0.27197117 1.45319800 1.28085544
v 0.29635201 1.47999062 1.24619760
v 0.20143860 1.56919020 1.24555479
v 0.18660640 1.55636689 1.26724943
v 0.20086570 1.53470354 1.27587370
v 0.29533348 1.45519880 1.24544766
v 0.29463324 1.45319800 1.24276931
v -0.31641556 1.45319800 0.93004531
v -0.33952324 1.45319800 1.05989165
v -0.33945957 1.45319800 1.06005235
v -0.19368380 1.45319800 1.26885643
v -0.19177407 1.45947317 1.26628522
v -0.06808745 1.59623748 1.20998633
v -0.16631105 1.49968943 1.24367997
v -0.32717369 1.45319800 0.96256046
v 0.10054140 1.59481870 1.27249899
v 0.11231804 1.60560486 1.25685744
v 0.14631117 1.60211258 1.24726894
v 0.16852766 1.59669221 1.24196581
v 0.17756703 1.57677509 1.25460761
v -0.13384570 1.46696713 1.30656760
v -0.09838845 1.52973790 1.27233829
v -0.08126457 1.53494007 1.27881991
v -0.17006685 1.46927716 1.27678436
v -0.07298908 1.50503700 1.30903166
v -0.04727143 1.51453176 1.31117434
v -0.03543113 1.52935597 1.30453206
v -0.13925660 1.45319800 1.31320989
v -0.01627021 1.45319800 1.34690352
v -0.00996811 1.45319800 1.34695709
v 0.24351624 1.47999062 1.28755130
v 0.22893867 1.46498456 1.30469275
v 0.22893867 1.46172872 1.30469275
v 0.23765975 1.45319800 1.29971103
v 0.27381723 1.45319800 1.27881991
v 0.29100477 1.45319800 1.25375054
v 0.16489917 1.56267851 1.27249899
v 0.17699410 1.54534420 1.27898060
v 0.29412399 1.45319800 1.24759034
v -0.18509003 1.45319800 1.27678436
v 0.11269997 1.54223385 1.29799687
v 0.11231804 1.57868496 1.27946269
v 0.12218495 1.59028967 1.26874930
v 0.14631117 1.58406898 1.26349974
v -0.15548927 1.45663570 1.29847898
v -0.15211541 1.45319800 1.30367497
v -0.17636895 1.45319800 1.28406946
v -0.15714436 1.45319800 1.29987172
v -0.11379358 1.45319800 1.32413756
v -0.11105630 1.45319800 1.32515533
v 0.01288495 1.45319800 1.34401092
v 0.14631117 1.47999062 1.31808448
v 0.14631117 1.50638308 1.30935309
v 0.11269997 1.51507743 1.30978161
v 0.17858553 1.51154880 1.29644343
v 0.16757279 1.50005324 1.30603193
v 0.14631117 1.45319800 1.32119139
v 0.22187269 1.45319800 1.30346069
v 0.14631117 1.56780787 1.27603440
v 0.14631117 1.54503497 1.28905119
v 0.12282153 1.52762796 1.30340713
f 1 2 3
f 1 3 4
f 1 4 11
f 1 11 25
f 1 25 31
f 1 31 50
f 1 50 49
f 1 49 76
f 1 76 105
f 1 105 137
f 1 137 169
f 1 169 166
f 1 166 165
f 1 165 131
f 1 131 164
f 1 164 188
f 1 188 187
f 1 187 181
f 1 181 160
f 1 160 159
f 1 159 180
f 1 180 179
f 1 179 158
f 1 158 176
f 1 176 178
f 1 178 177
f 1 177 170
f 1 170 141
f 1 141 109
f 1 109 140
f 1 140 139
f 1 139 115
f 1 115 114
f 1 114 113
f 1 113 145
f 1 145 138
f 1 138 106
f 1 106 78
f 1 78 77
f 1 77 53
f 1 53 52
f 1 52 51
f 1 51 32
f 1 32 16
f 1 16 5
f 1 5 6
f 1 6 7
f 1 7 2
f 2 8 3
f 2 7 6
f 2 6 9
f 2 9 10
f 2 10 8
f 3 11 4
f 3 8 12
f 3 12 13
f 3 13 14
f 3 14 15
f 3 15 11
f 5 16 17
f 5 17 6
f 6 17 18
f 6 18 9
f 8 19 20
f 8 20 21
f 8 21 22
f 8 22 12
f 8 10 19
f 9 18 23
f 9 23 24
f 9 24 10
f 10 24 20
f 10 20 19
f 11 15 25
f 12 26 27
f 12 27 13
f 12 22 26
f 13 27 28
f 13 28 14
f 14 28 29
f 14 29 30
f 14 30 15
f 15 30 29
f 15 29 31
f 15 31 25
f 16 32 17
f 17 32 33
f 17 33 18
f 18 33 34
f 18 34 35
f 18 35 23
f 20 36 37
f 20 37 21
f 20 24 23
f 20 23 36
f 21 37 38
f 21 38 39
f 21 39 40
f 21 40 26
f 21 26 22
f 23 35 41
f 23 41 42
f 23 42 43
f 23 43 36
f 26 44 45
f 26 45 27
f 26 40 44
f 27 45 46
f 27 46 28
f 28 46 47
f 28 47 48
f 28 48 49
f 28 49 29
f 29 49 50
f 29 50 31
f 32 51 33
f 33 51 52
f 33 52 53
f 33 53 54
f 33 54 55
f 33 55 34
f 34 55 56
f 34 56 57
f 34 57 58
f 34 58 59
f 34 59 60
f 34 60 35
f 35 60 41
f 36 43 37
f 37 61 62
f 37 62 38
f 37 43 63
f 37 63 61
f 38 62 64
f 38 64 39
f 39 64 65
f 39 65 40
f 40 65 44
f 41 60 42
f 42 66 63
f 42 63 43
f 42 60 59
f 42 59 66
f 44 67 46
f 44 46 45
f 44 65 67
f 46 67 68
f 46 68 69
f 46 69 47
f 47 69 70
f 47 70 48
f 48 70 71
f 48 71 72
f 48 72 73
f 48 73 74
f 48 74 49
f 49 74 73
f 49 73 75
f 49 75 76
f 53 77 54
f 54 77 78
f 54 78 79
f 54 79 55
f 55 80 81
f 55 81 56
f 55 79 82
f 55 82 80
f 56 81 57
f 57 81 58
f 58 83 59
f 58 81 82
f 58 82 84
f 58 84 85
f 58 85 86
f 58 86 87
f 58 87 83
f 59 88 89
f 59 89 66
f 59 83 88
f 61 63 62
f 62 90 91
f 62 91 64
f 62 63 66
f 62 66 90
f 64 91 92
f 64 92 93
f 64 93 65
f 65 93 67
f 66 89 94
f 66 94 95
f 66 95 96
f 66 96 90
f 67 93 97
f 67 97 68
f 68 97 98
f 68 98 99
f 68 99 71
f 68 71 69
f 69 71 70
f 71 100 101
f 71 101 72
f 71 99 102
f 71 102 103
f 71 103 100
f 72 101 73
f 73 101 75
f 75 101 104
f 75 104 105
f 75 105 76
f 78 106 107
f 78 107 79
f 79 107 84
f 79 84 82
f 80 82 81
f 83 87 108
f 83 108 109
f 83 109 110
f 83 110 111
f 83 111 88
f 84 107 112
f 84 112 85
f 85 112 113
f 85 113 114
f 85 114 115
f 85 115 116
f 85 116 87
f 85 87 86
f 87 116 108
f 88 111 89
f 89 111 117
f 89 117 118
f 89 118 94
f 90 119 120
f 90 120 91
f 90 96 95
f 90 95 119
f 91 120 92
f 92 121 122
f 92 122 123
f 92 123 102
f 92 102 98
f 92 98 97
f 92 97 93
f 92 120 121
f 94 124 95
f 94 118 124
f 95 124 125
f 95 125 126
f 95 126 127
f 95 127 128
f 95 128 119
f 98 102 99
f 100 129 130
f 100 130 131
f 100 131 132
f 100 132 104
f 100 104 101
f 100 103 122
f 100 122 133
f 100 133 134
f 100 134 135
f 100 135 129
f 102 123 122
f 102 122 103
f 104 132 136
f 104 136 105
f 105 136 137
f 106 138 107
f 107 138 112
f 108 116 139
f 108 139 140
f 108 140 109
f 109 141 142
f 109 142 111
f 109 111 110
f 111 125 143
f 111 143 118
f 111 118 117
f 111 142 144
f 111 144 125
f 112 145 113
f 112 138 145
f 115 139 116
f 118 143 124
f 119 128 120
f 120 128 146
f 120 146 147
f 120 147 148
f 120 148 149
f 120 149 121
f 121 149 122
f 122 149 150
f 122 150 133
f 124 143 125
f 125 151 152
f 125 152 153
f 125 153 126
f 125 144 142
f 125 142 154
f 125 154 151
f 126 155 156
f 126 156 157
f 126 157 128
f 126 128 127
f 126 153 151
f 126 151 158
f 126 158 155
f 128 157 159
f 128 159 160
f 128 160 146
f 129 161 130
f 129 135 161
f 130 161 162
f 130 162 131
f 131 163 164
f 131 165 132
f 131 162 163
f 132 165 166
f 132 166 136
f 133 150 134
f 134 150 167
f 134 167 135
f 135 167 168
f 135 168 162
f 135 162 161
f 136 166 169
f 136 169 137
f 141 170 142
f 142 170 154
f 146 171 172
f 146 172 173
f 146 173 148
f 146 148 147
f 146 160 171
f 148 173 174
f 148 174 149
f 149 174 150
f 150 174 167
f 151 153 152
f 151 154 175
f 151 175 176
f 151 176 158
f 154 170 177
f 154 177 178
f 154 178 175
f 155 158 179
f 155 179 180
f 155 180 156
f 156 159 157
f 156 180 159
f 160 181 182
f 160 182 183
f 160 183 184
f 160 184 171
f 162 168 185
f 162 185 186
f 162 186 183
f 162 183 182
f 162 182 187
f 162 187 163
f 163 187 188
f 163 188 164
f 167 174 173
f 167 173 189
f 167 189 168
f 168 189 190
f 168 190 185
f 171 184 191
f 171 191 172
f 172 191 183
f 172 183 190
f 172 190 189
f 172 189 173
f 175 178 176
f 181 187 182
f 183 186 190
f 183 191 184
f 185 190 186

