# https://github.com/mikedh/trimesh
v -0.37229203 0.04201442 2.32902333
v -0.37229203 0.11913987 2.32173720
v -0.58825281 0.04201442 2.30921419
v -0.37229203 0.04201442 0.12748086
v -0.43337928 0.11913987 2.29236506
v -0.60654749 0.04201442 2.30078962
v -0.37229203 0.11913987 0.13772698
v -0.45286555 0.04201442 0.03321686
v -0.45125338 0.04879384 0.03162311
v -0.37229203 0.04995646 0.12520399
v -0.43982796 0.11913987 2.28849433
v -0.72153729 0.11913987 2.08903719
v -0.73033415 0.11913987 2.08129565
v -0.73033415 0.10876689 2.08858178
v -0.73033415 0.08356673 2.10247092
v -0.73033415 0.08050164 2.10406478
v -0.73033415 0.05629047 2.11226163
v -0.73033415 0.04201442 2.11636006
v -0.37229203 0.09802398 0.13112397
v -0.42055204 0.10527903 0.06418284
v -0.42304039 0.11913987 0.06805357
v -0.46492174 0.04201442 0.02615853
v -0.47165082 0.04879384 0.02001084
v -0.47165082 0.08131699 0.01750627
v -0.44925568 0.08131699 0.03071228
v -0.37229203 0.05164000 0.12474857
v -0.73033415 0.11913987 0.16800984
v -0.73033415 0.04201442 0.21058800
v -0.37229203 0.07842554 0.12588710
v -0.37229203 0.05224395 0.12474857
v -0.42055204 0.08901745 0.06418284
v -0.45255011 0.10098337 0.03389999
v -0.43849618 0.11397602 0.05188755
v -0.43288862 0.11913987 0.05917369
v -0.47165082 0.04201442 0.02319854
v -0.50417459 0.04879384 0.01500169
v -0.50722372 0.08384606 0.00589400
v -0.52008606 0.10003969 0.00293401
v -0.50722372 0.11206600 0.00839858
v -0.47130034 0.11263222 0.02661385
v -0.64324185 0.11913987 0.07579511
v -0.73033415 0.05050003 0.15548684
v -0.73033415 0.04205971 0.15434841
v -0.73012385 0.04201442 0.15434841
v -0.45899881 0.11913987 0.03868143
v -0.45139355 0.11913987 0.04460143
v -0.47427938 0.11913987 0.02775229
v -0.49411605 0.04201442 0.01978313
v -0.50417459 0.04201442 0.01864469
v -0.53680354 0.04201442 0.02433699
v -0.53364930 0.08384606 0.00908169
v -0.52075192 0.09637820 0.00293401
v -0.52008606 0.09637820 0.00293401
v -0.52075192 0.10003969 0.00293401
v -0.53428017 0.11913987 0.00726014
v -0.51328690 0.11913987 0.00930941
v -0.50673307 0.11913987 0.01158627
v -0.62964357 0.11913987 0.06372744
v -0.58790233 0.05795891 0.03412769
v -0.60044927 0.04201442 0.04869986
v -0.56838106 0.04201442 0.03162311
v -0.53364930 0.11206600 0.00566629
v -0.58331117 0.04201442 0.03594915
v -0.54097414 0.11913987 0.00885398
v -0.58832294 0.11913987 0.03321686
v -0.58895378 0.08131699 0.03321686
v -0.56918714 0.11384013 0.02001084
v -0.56918714 0.11913987 0.02001084
v -0.57234140 0.11913987 0.02206002
f 1 2 3
f 1 3 6
f 1 6 18
f 1 18 28
f 1 28 44
f 1 44 60
f 1 60 63
f 1 63 61
f 1 61 50
f 1 50 49
f 1 49 48
f 1 48 35
f 1 35 22
f 1 22 8
f 1 8 4
f 1 4 10
f 1 10 26
f 1 26 30
f 1 30 29
f 1 29 19
f 1 19 7
f 1 7 2
f 2 5 6
f 2 6 3
f 2 7 21
f 2 21 34
f 2 34 46
f 2 46 45
f 2 45 47
f 2 47 57
f 2 57 56
f 2 56 55
f 2 55 64
f 2 64 68
f 2 68 69
f 2 69 65
f 2 65 58
f 2 58 41
f 2 41 27
f 2 27 13
f 2 13 12
f 2 12 11
f 2 11 5
f 4 8 9
f 4 9 10
f 5 11 6
f 6 11 12
f 6 12 13
f 6 13 14
f 6 14 15
f 6 15 16
f 6 16 17
f 6 17 18
f 7 19 20
f 7 20 21
f 8 22 9
f 9 22 23
f 9 23 24
f 9 24 25
f 9 25 26
f 9 26 10
f 13 27 42
f 13 42 43
f 13 43 28
f 13 28 18
f 13 18 17
f 13 17 16
f 13 16 15
f 13 15 14
f 19 29 20
f 20 29 30
f 20 30 26
f 20 26 31
f 20 31 25
f 20 25 32
f 20 32 33
f 20 33 34
f 20 34 21
f 22 35 23
f 23 35 36
f 23 36 37
f 23 37 24
f 24 37 38
f 24 38 39
f 24 39 40
f 24 40 32
f 24 32 25
f 25 31 26
f 27 41 42
f 28 43 44
f 32 45 46
f 32 46 33
f 32 40 47
f 32 47 45
f 33 46 34
f 35 48 36
f 36 48 49
f 36 49 50
f 36 50 51
f 36 51 52
f 36 52 37
f 37 52 53
f 37 53 38
f 38 53 52
f 38 52 54
f 38 54 55
f 38 55 56
f 38 56 39
f 39 56 57
f 39 57 47
f 39 47 40
f 41 43 42
f 41 58 43
f 43 58 59
f 43 59 60
f 43 60 44
f 50 61 51
f 51 62 52
f 51 61 63
f 51 63 59
f 51 59 62
f 52 62 54
f 54 62 55
f 55 62 64
f 58 65 66
f 58 66 59
f 59 66 67
f 59 67 62
f 59 63 60
f 62 67 68
f 62 68 64
f 65 69 66
f 66 69 67
f 67 69 68

