# https://github.com/mikedh/trimesh
v 0.03926194 -1.27397206 1.22154774
v -0.16573184 -1.27397206 1.22154774
v 0.03926194 -1.46542621 1.22154774
v 0.03926194 -1.27397206 0.37009352
v -0.16573184 -1.38613464 1.22154774
v -0.16573184 -1.27397206 0.50811306
v 0.01141041 -1.46542621 1.22154774
v 0.03926194 -1.46542621 0.39509705
v 0.03926194 -1.44095098 0.39126316
v 0.03085432 -1.43540372 0.39268000
v -0.07154225 -1.46542621 0.42310100
v -0.07274621 -1.44743525 0.42276763
v -0.07272614 -1.38238654 0.42126742
v 0.01624630 -1.27397206 0.38101171
v -0.16573184 -1.40165185 1.21021280
v -0.12469697 -1.46542621 1.18320895
v -0.11384128 -1.46542621 1.18820968
v -0.09971486 -1.46542621 1.19204355
v -0.04405189 -1.27397206 0.41776691
v -0.16573184 -1.34854102 0.48827694
v 0.03926194 -1.45989776 0.39409694
v -0.07555544 -1.46542621 0.42493467
v -0.08899963 -1.44743525 0.43026872
v -0.08845784 -1.41492020 0.43051877
v -0.08899963 -1.38238654 0.43168562
v -0.07090014 -1.34987159 0.42226753
v -0.00263576 -1.27397206 0.39184663
v -0.16573184 -1.46542621 1.14295323
v -0.15212712 -1.46542621 1.15920554
v -0.13525165 -1.46542621 1.17812492
v -0.01890925 -1.27397206 0.40151461
v -0.06797051 -1.32704547 0.42418457
v -0.11109225 -1.34987159 0.44927138
v -0.12736573 -1.34987159 0.46077304
v -0.12941246 -1.38238654 0.45893946
v -0.16573184 -1.38238654 0.48560995
v -0.10750044 -1.46542621 0.44927138
v -0.11053040 -1.44743525 0.44652101
v -0.11255706 -1.41492020 0.44677106
v -0.16573184 -1.38705293 0.48577658
v -0.11315903 -1.38238654 0.44793790
v -0.08717363 -1.34987159 0.43301910
v -0.16573184 -1.46542621 0.49669482
v -0.15772551 -1.46542621 0.48919374
v -0.16226043 -1.46147193 0.49119404
v -0.16573184 -1.45854838 0.49302761
v -0.16573184 -1.41827483 0.48761015
v -0.16573184 -1.41492020 0.48719348
v -0.16119693 -1.46542621 0.49227751
f 1 2 5
f 1 5 7
f 1 7 3
f 1 3 8
f 1 8 21
f 1 21 9
f 1 9 4
f 1 4 14
f 1 14 27
f 1 27 31
f 1 31 19
f 1 19 6
f 1 6 2
f 2 6 20
f 2 20 36
f 2 36 40
f 2 40 48
f 2 48 47
f 2 47 46
f 2 46 43
f 2 43 28
f 2 28 15
f 2 15 5
f 3 7 18
f 3 18 17
f 3 17 16
f 3 16 30
f 3 30 29
f 3 29 28
f 3 28 43
f 3 43 49
f 3 49 44
f 3 44 37
f 3 37 22
f 3 22 11
f 3 11 8
f 4 9 10
f 4 10 11
f 4 11 12
f 4 12 13
f 4 13 14
f 5 15 16
f 5 16 17
f 5 17 18
f 5 18 7
f 6 19 20
f 8 11 21
f 9 21 11
f 9 11 10
f 11 22 12
f 12 22 23
f 12 23 13
f 13 23 24
f 13 24 25
f 13 25 26
f 13 26 14
f 14 26 27
f 15 28 29
f 15 29 30
f 15 30 16
f 19 31 32
f 19 32 33
f 19 33 34
f 19 34 20
f 20 34 35
f 20 35 36
f 22 37 38
f 22 38 23
f 23 39 24
f 23 38 40
f 23 40 39
f 24 39 41
f 24 41 25
f 25 41 42
f 25 42 26
f 26 32 31
f 26 31 27
f 26 42 32
f 32 42 33
f 33 42 35
f 33 35 34
f 35 42 41
f 35 41 39
f 35 39 36
f 36 39 40
f 37 44 45
f 37 45 46
f 37 46 38
f 38 46 47
f 38 47 48
f 38 48 40
f 43 46 45
f 43 45 49
f 44 49 45

