# https://github.com/mikedh/trimesh
v -1.29711186 -0.12638899 1.45186311
v -1.46646499 -0.12638899 1.33874975
v -1.46655582 -0.13723890 1.33874975
v -1.46578323 -0.19688694 1.33808647
v -1.29711186 -0.14535781 1.44727122
v -1.29711186 -0.12638899 0.93063357
v -1.47030508 -0.12638899 1.33278031
v -1.50020834 -0.18606879 1.30742291
v -1.50020834 -0.19858059 1.30742291
v -1.47796268 -0.20199963 1.31905568
v -1.29711186 -0.23452819 1.39558704
v -1.29711186 -0.23452819 0.93063357
v -1.40499978 -0.12638899 0.93063357
v -1.48364342 -0.12638899 1.31170869
v -1.50754778 -0.17670081 1.29038194
v -1.51918187 -0.17890256 1.25527956
v -1.50627528 -0.20394732 1.28777987
v -1.49977658 -0.22923556 1.24323862
v -1.47996231 -0.21604629 1.28777987
v -1.47996231 -0.23452819 1.23915695
v -1.41817896 -0.23452819 0.93063357
v -1.40915802 -0.14532606 0.93063357
v -1.49804963 -0.23452819 1.05323680
v -1.52924807 -0.19438882 1.20584031
v -1.48843787 -0.12638899 1.22272822
v -1.49359602 -0.12638899 1.28502474
v -1.50113991 -0.14637399 1.28175940
v -1.49732250 -0.12725698 1.27543281
v -1.52924807 -0.19438882 1.20946278
v -1.52924807 -0.19648470 1.20946278
v -1.50963825 -0.21314593 1.25456527
v -1.51879557 -0.20896474 1.22129965
v -1.50113991 -0.22987067 1.22272822
v -1.49057389 -0.23452819 1.22272822
v -1.41817896 -0.23406246 0.93063357
v -1.48341620 -0.23452819 1.02782838
v -1.41638387 -0.17890256 0.93063357
v -1.49239167 -0.23452819 1.04333873
v -1.50123084 -0.23452819 1.06609406
v -1.52924807 -0.19648470 1.20584031
v -1.49732250 -0.12725698 1.26272861
v -1.49682259 -0.12638899 1.26201432
v -1.49448214 -0.12638899 1.24436108
v -1.49675445 -0.12638899 1.27624914
v -1.49682259 -0.12638899 1.27380014
v -1.50161714 -0.23452819 1.08879836
v -1.41786090 -0.21136761 0.93063357
f 1 2 3
f 1 3 4
f 1 4 5
f 1 5 11
f 1 11 12
f 1 12 6
f 1 6 13
f 1 13 25
f 1 25 43
f 1 43 42
f 1 42 45
f 1 45 44
f 1 44 26
f 1 26 14
f 1 14 7
f 1 7 2
f 2 7 8
f 2 8 3
f 3 8 9
f 3 9 4
f 4 9 10
f 4 10 11
f 4 11 5
f 6 12 21
f 6 21 35
f 6 35 47
f 6 47 37
f 6 37 22
f 6 22 13
f 7 14 8
f 8 14 15
f 8 15 9
f 9 15 16
f 9 16 17
f 9 17 18
f 9 18 10
f 10 18 19
f 10 19 11
f 11 19 18
f 11 18 20
f 11 20 34
f 11 34 46
f 11 46 39
f 11 39 23
f 11 23 38
f 11 38 36
f 11 36 21
f 11 21 12
f 13 22 23
f 13 23 24
f 13 24 25
f 14 26 15
f 15 26 27
f 15 27 16
f 16 27 28
f 16 28 29
f 16 29 30
f 16 30 17
f 17 31 18
f 17 30 31
f 18 31 32
f 18 32 33
f 18 33 34
f 18 34 20
f 21 36 35
f 22 37 23
f 23 39 24
f 23 37 38
f 24 39 40
f 24 40 30
f 24 30 29
f 24 29 28
f 24 28 41
f 24 41 42
f 24 42 43
f 24 43 25
f 26 44 27
f 27 44 28
f 28 44 45
f 28 45 42
f 28 42 41
f 30 40 46
f 30 46 32
f 30 32 31
f 32 46 33
f 33 46 34
f 35 36 47
f 36 38 37
f 36 37 47
f 39 46 40

