# https://github.com/mikedh/trimesh
v 0.01141068 -1.46542621 1.22154771
v 0.03926196 -1.46542621 1.22154771
v 0.01171033 -1.46542621 1.22276737
v -0.04347391 -1.43324860 1.22154771
v 0.03926196 -1.27397206 1.22154771
v 0.03926196 -1.46542621 1.29472658
v 0.02144491 -1.46542621 1.25358889
v -0.04347391 -1.27397206 1.22154771
v 0.02974603 -1.46542621 1.27889658
v 0.03215134 -1.46542621 1.28415631
v -0.04347391 -1.35916695 1.42149372
v 0.03926196 -1.27397206 1.43915322
v 0.03744785 -1.46542621 1.29205860
v 0.03926196 -1.46454544 1.29602246
v -0.04347391 -1.34359342 1.44525144
v -0.04347391 -1.27397206 1.48112944
v 0.03926196 -1.27567748 1.43839094
v 0.03926196 -1.45607463 1.30425508
v -0.04347391 -1.34014515 1.44809730
v -0.04347391 -1.30476287 1.46730675
v -0.04347391 -1.31887458 1.46006510
v 0.03926196 -1.42322233 1.33022341
f 1 2 6
f 1 6 13
f 1 13 10
f 1 10 9
f 1 9 7
f 1 7 3
f 1 3 4
f 1 4 8
f 1 8 5
f 1 5 2
f 2 5 12
f 2 12 17
f 2 17 22
f 2 22 18
f 2 18 14
f 2 14 6
f 3 7 4
f 4 7 9
f 4 9 10
f 4 10 11
f 4 11 15
f 4 15 19
f 4 19 21
f 4 21 20
f 4 20 16
f 4 16 8
f 5 8 16
f 5 16 12
f 6 14 15
f 6 15 11
f 6 11 13
f 10 13 11
f 12 16 17
f 14 18 15
f 15 18 19
f 16 20 17
f 17 20 21
f 17 21 19
f 17 19 22
f 18 22 19

