# https://github.com/mikedh/trimesh
v 1.22883417 -0.17890901 1.59275596
v 1.22883417 -0.33133339 1.56406948
v 1.22883417 -0.14638992 1.58621344
v 1.20677365 -0.15377242 1.66891770
v 1.21433723 -0.17890901 1.64559945
v 1.20686372 -0.17890901 1.66841440
v 1.17210728 -0.19750566 1.72830368
v 1.13775603 -0.25923372 1.72595507
v 1.11267912 -0.33133339 1.66958869
v 1.22883417 -0.33133339 0.40688148
v 1.22883417 -0.14568779 1.58604564
v 1.22883417 -0.14504583 1.58587789
v 1.22883417 -0.12638899 1.57950312
v 1.20272175 -0.13208635 1.65885226
v 1.19912003 -0.14430357 1.67898302
v 1.18061628 -0.14873708 1.71068913
v 1.17179212 -0.16115491 1.72763258
v 1.17246740 -0.17890901 1.72847138
v 1.15468398 -0.17890901 1.73602052
v 0.76894121 -0.33133339 1.87945268
v 1.15432386 -0.20958245 1.73350410
v 1.14320355 -0.23754766 1.73048449
v 0.77330825 -0.33133339 1.87727187
v 1.11605575 -0.26786001 1.73165879
v 1.04262590 -0.33133339 1.72025126
v 1.06049937 -0.33133339 1.70850832
v 1.09539095 -0.33133339 1.68284145
v 1.04672288 -0.33133339 0.19131358
v 1.04582241 -0.30900536 0.19282338
v 1.04393154 -0.27646622 0.19483650
v 1.04226578 -0.25128953 0.19668179
v 1.04041989 -0.22960344 0.19869490
v 1.11632581 -0.12638899 0.32132530
v 1.13365905 -0.12638899 0.34464358
v 1.18264227 -0.12638899 0.41459831
v 1.19871484 -0.12638899 0.44227820
v 1.22883417 -0.31590640 0.41594031
v 1.20011055 -0.12638899 1.65482604
v 1.22883417 -0.12638899 0.56306319
v 1.19020584 -0.12638899 1.67965412
v 1.17805004 -0.12638899 1.70230130
v 1.14576978 -0.12638899 1.72947798
v 1.12213355 -0.12638899 1.73803351
v 0.76894121 -0.27676714 1.88045928
v 1.17300773 -0.12638899 1.70699851
v 1.16193250 -0.12638899 1.71656064
v 0.76894121 -0.32716068 1.87962048
v 0.76894121 -0.33133339 0.19416548
v 1.02340179 -0.33133339 0.17722204
v 1.02758882 -0.24184074 0.18946827
v 1.01745892 -0.21142808 0.19299118
v 0.99337252 -0.12638899 0.21328984
v 1.01417244 -0.12638899 0.22536829
v 0.76894121 -0.12638899 1.83952654
v 0.76894121 -0.24394715 1.87173585
v 0.76894121 -0.27034758 1.87878167
v 0.76894121 -0.30818286 0.19936590
v 0.79662929 -0.33133339 0.18577766
v 1.01210147 -0.33133339 0.17453793
v 0.99211194 -0.24394715 0.18040944
v 1.02457230 -0.27646622 0.18426785
v 0.99211194 -0.21142808 0.18745516
v 0.98027138 -0.15836642 0.19701739
v 1.00188161 -0.16948027 0.20104351
v 0.99148165 -0.14707200 0.20506972
v 0.97162725 -0.12638899 0.20641173
v 0.76894121 -0.12638899 0.24466036
v 0.77456884 -0.12638899 0.24247955
v 0.82944984 -0.14638992 0.22000008
v 0.82944984 -0.33133339 0.17604773
v 0.81922998 -0.33133339 0.17906734
v 0.99062626 -0.33133339 0.17101501
v 0.97937093 -0.33133339 0.17017622
v 0.89450572 -0.33133339 0.16665330
v 0.95956150 -0.15479553 0.19617860
v 0.95956150 -0.12638899 0.20389542
v 0.83030521 -0.12638899 0.22520058
v 0.86200026 -0.14638992 0.21127675
v 0.85304100 -0.33133339 0.17185381
v 0.89450572 -0.12638899 0.20842484
v 0.86150502 -0.33133339 0.17051171
v 0.92696610 -0.12638899 0.20322432
v 0.93754608 -0.15646060 0.19684960
v 0.94357899 -0.12638899 0.20322432
f 1 2 10
f 1 10 37
f 1 37 39
f 1 39 13
f 1 13 12
f 1 12 11
f 1 11 3
f 1 3 4
f 1 4 5
f 1 5 2
f 2 5 6
f 2 6 7
f 2 7 8
f 2 8 9
f 2 9 27
f 2 27 26
f 2 26 25
f 2 25 23
f 2 23 20
f 2 20 48
f 2 48 58
f 2 58 71
f 2 71 70
f 2 70 79
f 2 79 81
f 2 81 74
f 2 74 73
f 2 73 72
f 2 72 59
f 2 59 49
f 2 49 28
f 2 28 10
f 3 11 4
f 4 6 5
f 4 11 12
f 4 12 13
f 4 13 14
f 4 14 15
f 4 15 16
f 4 16 17
f 4 17 18
f 4 18 6
f 6 18 7
f 7 18 19
f 7 19 20
f 7 20 21
f 7 21 22
f 7 22 8
f 8 22 20
f 8 20 23
f 8 23 24
f 8 24 25
f 8 25 26
f 8 26 27
f 8 27 9
f 10 28 29
f 10 29 30
f 10 30 31
f 10 31 32
f 10 32 33
f 10 33 34
f 10 34 35
f 10 35 36
f 10 36 37
f 13 38 14
f 13 39 36
f 13 36 35
f 13 35 34
f 13 34 33
f 13 33 53
f 13 53 52
f 13 52 66
f 13 66 76
f 13 76 84
f 13 84 82
f 13 82 80
f 13 80 77
f 13 77 68
f 13 68 67
f 13 67 54
f 13 54 43
f 13 43 42
f 13 42 46
f 13 46 45
f 13 45 41
f 13 41 40
f 13 40 38
f 14 38 40
f 14 40 15
f 15 40 41
f 15 41 16
f 16 41 17
f 17 42 43
f 17 43 44
f 17 44 19
f 17 19 18
f 17 41 45
f 17 45 46
f 17 46 42
f 19 44 47
f 19 47 20
f 20 22 21
f 20 47 44
f 20 44 56
f 20 56 55
f 20 55 54
f 20 54 67
f 20 67 57
f 20 57 48
f 23 25 24
f 28 49 29
f 29 49 30
f 30 49 50
f 30 50 31
f 31 50 32
f 32 50 51
f 32 51 52
f 32 52 53
f 32 53 33
f 36 39 37
f 43 54 55
f 43 55 56
f 43 56 44
f 48 57 58
f 49 59 60
f 49 60 61
f 49 61 50
f 50 61 60
f 50 60 51
f 51 60 62
f 51 62 63
f 51 63 64
f 51 64 52
f 52 64 65
f 52 65 63
f 52 63 66
f 57 67 68
f 57 68 69
f 57 69 70
f 57 70 71
f 57 71 58
f 59 72 60
f 60 72 73
f 60 73 74
f 60 74 75
f 60 75 63
f 60 63 62
f 63 75 76
f 63 76 66
f 63 65 64
f 68 77 69
f 69 77 78
f 69 78 70
f 70 78 80
f 70 80 79
f 74 81 82
f 74 82 83
f 74 83 75
f 75 83 82
f 75 82 84
f 75 84 76
f 77 80 78
f 79 80 82
f 79 82 81

