# https://github.com/mikedh/trimesh
v -0.07741236 -0.98463755 0.27009343
v -0.33178441 -0.98463755 0.30024116
v -0.33178441 -0.87578268 0.15203384
v -0.33178441 -0.86954871 0.14374895
v -0.33178441 -0.85384383 0.12418740
v -0.33178441 -0.83837877 0.10899852
v -0.33178441 -0.82135525 0.09588071
v -0.19452561 -0.74852554 0.06780424
v -0.13234577 -0.71303979 0.06941516
v -0.10004811 -0.71100177 0.10255467
v -0.07741236 -0.70213032 0.12234635
v -0.07741236 -0.98463755 2.01682236
v -0.33178441 -0.98463755 1.95514602
v -0.33178441 -0.79689883 0.08598491
v -0.23382066 -0.74984428 0.06711386
v -0.21140905 -0.74972437 0.06711386
v -0.18177587 -0.73048296 0.06458232
v -0.15403526 -0.71879425 0.06573297
v -0.14447295 -0.70105135 0.06274119
v -0.12736540 -0.69140067 0.06596310
v -0.11371920 -0.70117126 0.08391374
v -0.09544128 -0.68930269 0.09818210
v -0.07741236 -0.69673554 0.12027510
v -0.07741236 -0.85803978 2.12912850
v -0.15904052 -0.71849452 2.31553831
v -0.09075973 -0.98463755 2.02280589
v -0.30190224 -0.98463755 1.99818139
v -0.33178441 -0.89418485 2.06768229
v -0.33178441 -0.76435024 0.08414388
v -0.30899927 -0.76435024 0.07862056
v -0.23733183 -0.73180170 0.06642336
v -0.21140905 -0.73180170 0.06366181
v -0.17891216 -0.69931306 0.05951936
v -0.14639039 -0.66682443 0.06251105
v -0.12741521 -0.66682443 0.06619323
v -0.08595368 -0.63427584 0.09058761
v -0.07741236 -0.63427584 0.09795197
v -0.07741236 -0.59453423 2.32589446
v -0.13167342 -0.61545403 2.37583388
v -0.12980577 -0.65105964 2.34522588
v -0.14407452 -0.63619400 2.36915990
v -0.16195403 -0.68366814 2.34522588
v -0.17186496 -0.71849452 2.31553831
v -0.22281406 -0.94435643 2.08563293
v -0.14639039 -0.98463755 2.03799482
v -0.11449116 -0.98463755 2.03293186
v -0.29634914 -0.98463755 2.00554574
v -0.33178441 -0.86253546 2.10151230
v -0.33178441 -0.73288066 0.09265888
v -0.30899927 -0.73180170 0.08460414
v -0.27647748 -0.73180170 0.07470824
v -0.23439342 -0.71124154 0.06688362
v -0.25359271 -0.73180170 0.06941516
v -0.17657140 -0.66814312 0.06435220
v -0.16417030 -0.64926140 0.06757412
v -0.14639039 -0.64800261 0.06757412
v -0.12925794 -0.64836225 0.06780424
v -0.11658291 -0.63625396 0.07378772
v -0.08859328 -0.60178721 0.09311915
v -0.07741236 -0.60178721 0.10117389
v -0.07741236 -0.57409394 2.33947243
v -0.07741236 -0.56923862 2.34223409
v -0.08864308 -0.56923862 2.35443128
v -0.12609541 -0.59375500 2.38135709
v -0.14407452 -0.60346559 2.38918172
v -0.15336290 -0.62654331 2.38319823
v -0.16426990 -0.68366814 2.34522588
v -0.19355445 -0.71471817 2.31162600
v -0.19728970 -0.74942464 2.28124814
v -0.22968697 -0.94435643 2.08563293
v -0.17891216 -0.69919315 2.32865612
v -0.21140905 -0.98463755 2.03638391
v -0.28521802 -0.98463755 2.01498127
v -0.33178441 -0.84671076 2.11831219
v -0.33178441 -0.45325069 0.19276785
v -0.27647748 -0.69931306 0.08460414
v -0.19938147 -0.67983188 0.06688362
v -0.24472766 -0.69997244 0.07401786
v -0.14639039 -0.63169832 0.07240694
v -0.11386862 -0.60178721 0.08414388
v -0.09586460 -0.58446395 0.09887250
v -0.07741236 -0.53633044 0.13822572
v -0.07741236 -0.57127669 0.11843404
v -0.07741236 -0.55023699 2.34683679
v -0.10410710 -0.56923862 2.37077091
v -0.12036799 -0.56923862 2.38526940
v -0.14870626 -0.56893894 2.40252956
v -0.16108247 -0.55784965 2.41058430
v -0.17891216 -0.60178721 2.39424467
v -0.17891216 -0.62540444 2.38227761
v -0.18595938 -0.67863300 2.34177383
v -0.17891216 -0.64164873 2.37123117
v -0.17664610 -0.66742385 2.35328053
v -0.20025303 -0.65699393 2.34913809
v -0.33178441 -0.75350072 2.19586781
v -0.33178441 -0.81230393 2.14915031
v -0.33178441 -0.82992696 2.13350107
v -0.33178441 -0.83843868 2.12590658
v -0.27037654 -0.98337872 2.02717846
v -0.26118776 -0.98463755 2.02924968
v -0.24393081 -0.97228943 2.04927149
v -0.24393081 -0.98463755 2.03546334
v -0.27152203 -0.98463755 2.02533738
v -0.33178441 -0.44971406 0.19483901
v -0.16319911 -0.45486906 0.16538167
v -0.14639039 -0.45486906 0.16538167
v -0.12955677 -0.45522875 0.16561181
v -0.09270208 -0.48136350 0.16192962
v -0.07741236 -0.37232879 0.23787443
v -0.07741236 -0.53675004 2.34867783
v -0.08567975 -0.53675004 2.35627232
v -0.12034309 -0.53675004 2.38411875
v -0.16108247 -0.55143581 2.41058430
v -0.10408222 -0.53675004 2.37261195
v -0.16417030 -0.55784965 2.41058430
v -0.17657140 -0.56893894 2.40391043
v -0.33178441 -0.42807499 2.38020644
v -0.19619403 -0.61935024 2.37813517
v -0.33178441 -0.55958799 2.31530818
v -0.17253731 -0.41392862 0.19276785
v -0.33178441 -0.43352968 0.20657594
v -0.14639039 -0.41183065 0.19115692
v -0.14639039 -0.43862477 0.17481729
v -0.10786730 -0.45966448 0.17044463
v -0.14639039 -0.39552640 0.20335402
v -0.14639039 -0.37232879 0.22682788
v -0.07741236 -0.37232879 2.28723162
v -0.11932213 -0.37232879 2.32313280
v -0.13737593 -0.37232879 2.33463960
v -0.25252194 -0.37232879 2.38089683
v -0.25339351 -0.37232879 2.38112696
v -0.27485886 -0.37232879 2.38618992
v -0.16417030 -0.55143581 2.41058430
v -0.11309667 -0.37232879 2.31806984
v -0.33178441 -0.40709524 2.38296810
v -0.33178441 -0.42268016 2.38112696
v -0.33178441 -0.55041681 2.31991089
v -0.24572374 -0.37232879 0.23718403
v -0.33178441 -0.37232879 0.25398392
v -0.27657709 -0.37232879 2.38618992
v -0.27647748 -0.37406713 2.38642006
v -0.33178441 -0.39696501 2.38296810
v -0.33178441 -0.37232879 2.37537361
v -0.30720634 -0.37232879 2.38319823
v -0.33178441 -0.38233914 2.38066671
v -0.30800318 -0.37232879 2.38296810
f 1 2 3
f 1 3 4
f 1 4 5
f 1 5 6
f 1 6 7
f 1 7 8
f 1 8 9
f 1 9 10
f 1 10 11
f 1 11 23
f 1 23 37
f 1 37 60
f 1 60 83
f 1 83 82
f 1 82 109
f 1 109 127
f 1 127 110
f 1 110 84
f 1 84 62
f 1 62 61
f 1 61 38
f 1 38 24
f 1 24 12
f 1 12 26
f 1 26 46
f 1 46 45
f 1 45 72
f 1 72 102
f 1 102 100
f 1 100 103
f 1 103 73
f 1 73 47
f 1 47 27
f 1 27 13
f 1 13 2
f 2 13 28
f 2 28 48
f 2 48 74
f 2 74 98
f 2 98 97
f 2 97 96
f 2 96 95
f 2 95 119
f 2 119 137
f 2 137 117
f 2 117 136
f 2 136 135
f 2 135 142
f 2 142 145
f 2 145 143
f 2 143 139
f 2 139 121
f 2 121 104
f 2 104 75
f 2 75 49
f 2 49 29
f 2 29 14
f 2 14 7
f 2 7 6
f 2 6 5
f 2 5 4
f 2 4 3
f 7 14 15
f 7 15 16
f 7 16 8
f 8 16 17
f 8 17 18
f 8 18 9
f 9 18 19
f 9 19 20
f 9 20 21
f 9 21 11
f 9 11 10
f 11 21 22
f 11 22 23
f 12 24 25
f 12 25 26
f 13 27 28
f 14 29 30
f 14 30 15
f 15 30 31
f 15 31 32
f 15 32 16
f 16 32 17
f 17 32 33
f 17 33 19
f 17 19 18
f 19 33 34
f 19 34 20
f 20 34 35
f 20 35 36
f 20 36 37
f 20 37 22
f 20 22 21
f 22 37 23
f 24 38 39
f 24 39 40
f 24 40 25
f 25 40 39
f 25 39 41
f 25 41 42
f 25 42 67
f 25 67 43
f 25 43 70
f 25 70 44
f 25 44 45
f 25 45 46
f 25 46 26
f 27 47 28
f 28 47 48
f 29 49 50
f 29 50 51
f 29 51 52
f 29 52 30
f 30 52 53
f 30 53 31
f 31 53 52
f 31 52 33
f 31 33 32
f 33 54 34
f 33 52 54
f 34 54 55
f 34 55 56
f 34 56 57
f 34 57 35
f 35 57 58
f 35 58 36
f 36 59 60
f 36 60 37
f 36 58 59
f 38 61 39
f 39 61 62
f 39 62 63
f 39 63 64
f 39 64 65
f 39 65 66
f 39 66 41
f 41 66 42
f 42 66 67
f 43 68 69
f 43 69 70
f 43 67 71
f 43 71 68
f 44 70 45
f 45 70 72
f 47 73 74
f 47 74 48
f 49 75 50
f 50 76 52
f 50 52 51
f 50 75 76
f 52 77 54
f 52 76 78
f 52 78 77
f 54 77 55
f 55 79 56
f 55 77 75
f 55 75 79
f 56 79 57
f 57 79 80
f 57 80 58
f 58 80 59
f 59 80 81
f 59 81 82
f 59 82 83
f 59 83 60
f 62 84 63
f 63 84 85
f 63 85 64
f 64 86 87
f 64 87 65
f 64 85 86
f 65 87 88
f 65 88 66
f 66 88 89
f 66 89 90
f 66 90 67
f 67 91 71
f 67 90 92
f 67 92 93
f 67 93 91
f 68 71 91
f 68 91 94
f 68 94 95
f 68 95 96
f 68 96 69
f 69 96 97
f 69 97 98
f 69 98 70
f 70 98 99
f 70 99 100
f 70 100 101
f 70 101 102
f 70 102 72
f 73 103 74
f 74 103 99
f 74 99 98
f 75 104 105
f 75 105 79
f 75 77 78
f 75 78 76
f 79 105 80
f 80 105 106
f 80 106 107
f 80 107 81
f 81 107 108
f 81 108 82
f 82 108 109
f 84 110 85
f 85 110 111
f 85 111 86
f 86 112 113
f 86 113 88
f 86 88 87
f 86 111 114
f 86 114 112
f 88 113 133
f 88 133 115
f 88 115 89
f 89 115 116
f 89 116 117
f 89 117 118
f 89 118 90
f 90 118 92
f 91 93 92
f 91 92 118
f 91 118 94
f 94 118 95
f 95 118 119
f 99 103 100
f 100 102 101
f 104 120 105
f 104 121 120
f 105 120 122
f 105 122 123
f 105 123 106
f 106 123 107
f 107 124 108
f 107 123 122
f 107 122 109
f 107 109 124
f 108 124 109
f 109 122 125
f 109 125 126
f 109 126 138
f 109 138 139
f 109 139 143
f 109 143 146
f 109 146 144
f 109 144 140
f 109 140 132
f 109 132 131
f 109 131 130
f 109 130 129
f 109 129 128
f 109 128 134
f 109 134 127
f 110 127 111
f 111 127 114
f 112 114 128
f 112 128 129
f 112 129 113
f 113 130 131
f 113 131 132
f 113 132 140
f 113 140 133
f 113 129 130
f 114 127 134
f 114 134 128
f 115 133 142
f 115 142 135
f 115 135 136
f 115 136 117
f 115 117 116
f 117 137 118
f 118 137 119
f 120 121 138
f 120 138 125
f 120 125 122
f 121 139 138
f 125 138 126
f 133 140 141
f 133 141 142
f 140 144 141
f 141 144 142
f 142 144 145
f 143 145 146
f 144 146 145

