# https://github.com/mikedh/trimesh
v 1.24537272 0.72509918 0.96929190
v 1.24446422 0.72509918 0.96252144
v 1.24529013 0.73185545 0.96252144
v 1.24359701 0.73185545 0.99503150
v 1.24400997 0.72509918 0.99503150
v 1.23926099 0.72509918 0.93497248
v 1.23959135 0.73411817 0.93077011
v 1.23698974 0.78233602 0.98096519
v 1.23674195 0.80505866 0.87578896
v 1.23674195 0.81500175 0.87578896
v 1.23674195 0.81500175 0.88524432
v 1.23913710 0.76229041 0.99310541
v 1.23781565 0.72509918 1.03594634
v 1.24351441 0.72509918 1.00186037
v 1.23682455 0.74645146 0.91121738
v 1.23575086 0.78338769 0.88267621
v 1.18743488 0.72509918 0.73465907
v 1.20589405 0.88243668 0.93001134
v 1.20378798 0.87896301 0.94722941
v 1.20370538 0.81359955 1.04429272
v 1.23347951 0.74100186 1.03577122
v 1.23302527 0.79530672 0.86493281
v 1.22414675 0.79693203 0.83242275
v 1.22650059 0.82943850 0.83242275
v 1.21307945 0.86481311 0.82997135
v 1.20643088 0.88374330 0.83919325
v 1.21720911 0.86197681 0.86493281
v 1.20696773 0.88517740 0.89744290
v 1.23153863 0.72509918 1.05205545
v 1.17896930 0.72509918 0.70314121
v 1.19627211 0.89865805 0.93001134
v 1.19862605 0.90139877 0.89744290
v 1.17306395 0.94636605 0.89113933
v 1.18004299 0.92370714 0.93001134
v 1.17591334 0.91749266 0.95435011
v 1.17430282 0.85005773 1.04832000
v 1.12858854 0.86379332 1.10394316
v 1.17517001 0.81822057 1.08153048
v 1.19685023 0.79693203 1.06571317
v 1.20634830 0.75416378 1.08024642
v 1.14081209 0.94693963 0.98265782
v 1.21526822 0.82943850 0.79997106
v 1.20502684 0.84859174 0.78205255
v 1.20940417 0.85547549 0.79997106
v 1.19874993 0.89451502 0.82997135
v 1.18074501 0.92912490 0.83172233
v 1.17302266 0.94639784 0.84216995
v 1.18594824 0.92698965 0.86493281
v 1.19908030 0.90187677 0.86493281
v 1.20700903 0.88565550 0.86493281
v 1.20903250 0.73185545 1.08345657
v 1.20911510 0.72509918 1.08328148
v 1.17500483 0.72509918 0.69596216
v 1.17409634 0.94792762 0.86493281
v 1.14514812 0.98368465 0.89744290
v 1.16319434 0.95812566 0.90018611
v 1.17075141 0.94295597 0.91285163
v 1.16852144 0.93999220 0.93001134
v 1.14609791 0.95248485 0.96252144
v 1.10595852 0.94337028 1.04394251
v 1.11537389 0.88128942 1.10394316
v 1.14428091 0.84075200 1.10394316
v 1.18057983 0.79693203 1.08818424
v 1.15018617 0.83198796 1.10394316
v 1.16819109 0.79693203 1.10394316
v 1.18338792 0.76331019 1.10394316
v 1.13296586 0.96876991 0.96252144
v 1.11132693 0.98094393 0.98586797
v 1.12272457 0.95991038 0.99508984
v 1.18739358 0.86044703 0.77353105
v 1.17669805 0.88578297 0.77825875
v 1.17752396 0.91965970 0.80755867
v 1.16810850 0.72509918 0.68633168
v 1.15782582 0.72509918 0.67769346
v 1.14262908 0.97893616 0.84438785
v 1.14576755 0.98320665 0.86493281
v 1.16203806 0.96418078 0.86493281
v 1.16744777 0.94136261 0.82045763
v 1.19474418 0.73185545 1.09974080
v 1.19061463 0.73185545 1.10394316
v 1.19305106 0.72509918 1.09950731
v 1.12734967 0.99993791 0.89744290
v 1.10975769 1.01157005 0.92434980
v 1.14180317 0.97957352 0.92049762
v 1.07527579 0.97798006 1.04674412
v 1.08708638 0.95643662 1.05619947
v 1.07717537 0.94786383 1.08141374
v 1.11099657 0.88670718 1.10394316
v 1.11669533 0.98773200 0.96252144
v 1.10583462 1.00825575 0.94606208
v 1.10104435 1.00398525 0.96252144
v 1.04401492 1.01118763 1.04686084
v 1.16653927 0.90742199 0.78596312
v 1.16459838 0.86197681 0.75590443
v 1.14832787 0.86197681 0.74300545
v 1.14205096 0.88103448 0.74872536
v 1.15278778 0.72509918 0.67483351
v 1.13354398 0.83896728 0.72105967
v 1.14576755 0.94725836 0.81263656
v 1.12214644 0.96676223 0.82495186
v 1.12214644 0.98174066 0.84123607
v 1.10897309 1.00975353 0.87905749
v 1.11112045 1.01185689 0.89744290
v 1.15617401 0.92762702 0.79932900
v 1.18830207 0.72509918 1.10394316
v 1.04876400 1.04551066 0.96252144
v 1.06499322 1.03422895 0.96252144
v 1.06519968 0.93820757 1.10312602
v 1.08295684 0.92039275 1.10394316
v 1.04413889 1.04251490 0.98306637
v 1.07779480 1.01306793 0.98534267
v 1.04938343 1.01622296 1.02759992
v 0.84401997 1.04216437 1.10394316
v 0.85240295 1.03907303 1.10394316
v 0.86528724 1.03391032 1.10394316
v 1.04438668 0.97842626 1.07942928
v 1.14485905 0.91389142 0.78030158
v 1.11186376 0.84993026 0.71621530
v 0.82349601 0.72509918 0.50767219
v 1.12214644 0.88409393 0.74487315
v 1.03228701 0.72509918 0.60952152
v 1.00342128 0.72509918 0.59434625
v 0.99326259 0.73373570 0.59393771
v 1.12214644 0.93374582 0.79296706
v 0.82349601 0.83782002 0.62901590
v 1.08964670 0.98378023 0.83936834
v 1.08964670 1.00003349 0.86008842
v 1.04512999 1.04315227 0.91075044
v 1.08964670 1.01166573 0.87637263
v 1.04946602 1.04598866 0.93001134
v 0.82349601 0.72509918 1.10394316
v 1.02460595 1.05064158 0.96252144
v 1.06470415 0.93769759 1.10394316
v 0.82349601 1.04694476 1.10394316
v 0.82481747 1.04668982 1.10394316
v 0.82758427 1.04611614 1.10394316
v 1.04727736 0.94929793 1.10394316
v 0.82349601 0.84362020 0.63730392
v 1.02460595 1.04334352 0.91051695
v 1.02460595 1.04987664 0.93001134
v 0.82349601 1.04276985 1.08964339
v 0.97699208 1.04073028 0.91571158
v 0.92702425 1.02046157 0.89744290
v 0.82349601 0.96692150 0.86528303
v 0.83604994 0.97960541 0.87602244
v 0.90943239 1.00895680 0.88051665
v 0.99867230 1.04187754 0.91244307
v 0.90410518 1.01249425 0.89744290
f 1 2 3
f 1 3 4
f 1 4 5
f 1 5 14
f 1 14 13
f 1 13 29
f 1 29 52
f 1 52 81
f 1 81 105
f 1 105 131
f 1 131 119
f 1 119 122
f 1 122 121
f 1 121 97
f 1 97 74
f 1 74 73
f 1 73 53
f 1 53 30
f 1 30 17
f 1 17 6
f 1 6 2
f 2 6 7
f 2 7 3
f 3 8 4
f 3 7 9
f 3 9 10
f 3 10 11
f 3 11 8
f 4 8 12
f 4 12 13
f 4 13 14
f 4 14 5
f 6 15 16
f 6 16 7
f 6 17 15
f 7 16 9
f 8 11 18
f 8 18 19
f 8 19 20
f 8 20 21
f 8 21 13
f 8 13 12
f 9 16 22
f 9 22 23
f 9 23 24
f 9 24 10
f 10 24 25
f 10 25 26
f 10 26 27
f 10 27 11
f 11 27 28
f 11 28 18
f 13 21 29
f 15 17 16
f 16 17 22
f 17 30 22
f 18 31 19
f 18 28 32
f 18 32 33
f 18 33 31
f 19 31 34
f 19 34 35
f 19 35 20
f 20 36 37
f 20 37 38
f 20 38 39
f 20 39 40
f 20 40 29
f 20 29 21
f 20 35 41
f 20 41 36
f 22 30 23
f 23 30 24
f 24 30 42
f 24 42 43
f 24 43 44
f 24 44 25
f 25 44 45
f 25 45 26
f 26 45 46
f 26 46 47
f 26 47 48
f 26 48 49
f 26 49 50
f 26 50 27
f 27 50 28
f 28 50 49
f 28 49 32
f 29 40 51
f 29 51 52
f 30 53 43
f 30 43 42
f 31 33 34
f 32 49 48
f 32 48 54
f 32 54 33
f 33 55 56
f 33 56 57
f 33 57 34
f 33 54 55
f 34 58 35
f 34 57 58
f 35 58 59
f 35 59 41
f 36 60 61
f 36 61 37
f 36 41 60
f 37 61 88
f 37 88 109
f 37 109 133
f 37 133 137
f 37 137 115
f 37 115 114
f 37 114 113
f 37 113 136
f 37 136 135
f 37 135 134
f 37 134 131
f 37 131 105
f 37 105 80
f 37 80 66
f 37 66 65
f 37 65 64
f 37 64 62
f 37 62 38
f 38 63 39
f 38 62 64
f 38 64 65
f 38 65 63
f 39 63 40
f 40 63 65
f 40 65 66
f 40 66 51
f 41 59 67
f 41 67 68
f 41 68 69
f 41 69 60
f 43 70 71
f 43 71 72
f 43 72 44
f 43 53 73
f 43 73 74
f 43 74 70
f 44 72 45
f 45 72 46
f 46 72 47
f 47 75 76
f 47 76 77
f 47 77 54
f 47 54 48
f 47 72 78
f 47 78 75
f 51 66 79
f 51 79 52
f 52 79 80
f 52 80 81
f 54 77 55
f 55 82 83
f 55 83 84
f 55 84 58
f 55 58 56
f 55 77 76
f 55 76 82
f 56 58 57
f 58 84 59
f 59 84 67
f 60 85 86
f 60 86 87
f 60 87 61
f 60 69 68
f 60 68 85
f 61 87 88
f 66 80 79
f 67 89 68
f 67 84 89
f 68 89 90
f 68 90 91
f 68 91 92
f 68 92 85
f 70 74 71
f 71 93 72
f 71 74 94
f 71 94 95
f 71 95 96
f 71 96 93
f 72 93 78
f 74 97 98
f 74 98 96
f 74 96 95
f 74 95 94
f 75 78 99
f 75 99 100
f 75 100 101
f 75 101 102
f 75 102 76
f 76 102 103
f 76 103 82
f 78 93 104
f 78 104 99
f 80 105 81
f 82 103 83
f 83 90 84
f 83 103 106
f 83 106 107
f 83 107 90
f 84 90 89
f 85 92 87
f 85 87 86
f 87 92 108
f 87 108 109
f 87 109 88
f 90 107 110
f 90 110 111
f 90 111 91
f 91 111 92
f 92 112 110
f 92 110 113
f 92 113 114
f 92 114 115
f 92 115 116
f 92 116 108
f 92 111 112
f 93 96 117
f 93 117 104
f 96 98 118
f 96 118 119
f 96 119 120
f 96 120 117
f 97 121 98
f 98 121 122
f 98 122 123
f 98 123 118
f 99 104 117
f 99 117 120
f 99 120 124
f 99 124 100
f 100 124 119
f 100 119 125
f 100 125 101
f 101 125 126
f 101 126 127
f 101 127 128
f 101 128 129
f 101 129 102
f 102 129 128
f 102 128 130
f 102 130 103
f 103 130 106
f 106 132 110
f 106 110 107
f 106 130 132
f 108 133 109
f 108 116 133
f 110 132 134
f 110 134 135
f 110 135 136
f 110 136 113
f 110 112 111
f 115 137 116
f 116 137 133
f 118 123 119
f 119 124 120
f 119 123 122
f 119 131 134
f 119 134 141
f 119 141 144
f 119 144 138
f 119 138 125
f 125 138 139
f 125 139 128
f 125 128 126
f 126 128 127
f 128 139 140
f 128 140 130
f 130 140 132
f 132 140 134
f 134 140 142
f 134 142 143
f 134 143 141
f 138 144 145
f 138 145 146
f 138 146 147
f 138 147 139
f 139 147 140
f 140 147 142
f 141 143 148
f 141 148 145
f 141 145 144
f 142 147 146
f 142 146 143
f 143 146 148
f 145 148 146

