# https://github.com/mikedh/trimesh
v -0.79347367 -0.73284557 2.25924104
v -0.89621531 -0.73284557 2.16358250
v -1.43059250 -0.82647918 1.66142519
v -1.09662564 -0.82647918 1.91802643
v -0.89295965 -0.82647918 2.06831870
v -0.89189964 -0.82647918 2.06891040
v -0.86199328 -0.82647918 2.08074436
v -0.84904647 -0.82647918 2.08054719
v -0.82943704 -0.82647918 2.07877207
v -0.79347367 -0.82647918 2.07344669
v -0.79347367 -0.73284557 0.37960233
v -1.25001875 -0.73284557 1.81625374
v -1.43013825 -0.81972427 1.66103069
v -1.43945087 -0.82647918 1.65215521
v -0.79347367 -0.82647918 0.46737135
v -0.79347367 -0.75411846 0.38926682
v -1.02212482 -0.73284557 0.25317537
v -1.25562145 -0.73284557 1.81073119
v -1.40257905 -0.73284557 1.66418645
v -1.42695841 -0.79690246 1.65767776
v -1.44088942 -0.79690246 1.64130733
v -1.44565934 -0.82647918 1.64485752
v -0.89742664 -0.82647918 0.40682051
v -0.90643642 -0.81582902 0.39084458
v -1.03355737 -0.75166211 0.25948699
v -1.02348757 -0.73329468 0.25297819
v -1.02348757 -0.73284557 0.25278102
v -1.41953860 -0.73284557 1.64426583
v -1.42279425 -0.76438368 1.65235239
v -1.43286396 -0.74344077 1.63223456
v -1.46201313 -0.82647918 1.62493693
v -0.92703016 -0.82647918 0.39695883
v -1.05717954 -0.75675807 0.25613390
v -1.05717954 -0.73284557 0.24429993
v -1.42014428 -0.73284557 1.64347689
v -1.46140746 -0.82190566 1.62355628
v -1.42983542 -0.73284557 1.62118947
v -1.54840094 -0.73284557 1.31961889
v -1.56195341 -0.74642868 1.30640422
v -1.46436028 -0.82647918 1.61842818
v -1.15477268 -0.82647918 0.35198961
v -1.12221642 -0.78728798 0.28769140
v -1.08966017 -0.77503384 0.27289870
v -1.08966017 -0.75877448 0.25593674
v -1.08966017 -0.73284557 0.24666677
v -1.55771354 -0.73284557 1.29299231
v -1.55839492 -0.73284557 1.28766700
v -1.56308903 -0.74368820 1.28766700
v -1.56687464 -0.76438368 1.28766700
v -1.56301333 -0.76438368 1.30916551
v -1.46708588 -0.82647918 1.61034161
v -1.17612359 -0.82647918 0.35475080
v -1.18717759 -0.80161349 0.31214840
v -1.15477268 -0.80343737 0.31214840
v -1.15477268 -0.78872693 0.28848028
v -1.12221642 -0.75485165 0.25909244
v -1.18717759 -0.78668304 0.29124146
v -1.23593630 -0.78060640 0.29577795
v -1.12100499 -0.73284557 0.25140025
v -1.56301333 -0.74389904 1.26735191
v -1.55521498 -0.73284557 1.12790757
v -1.56513335 -0.76438368 1.26182937
v -1.56475471 -0.79690246 1.26025150
v -1.56505755 -0.79762654 1.28806148
v -1.56293762 -0.78726050 1.30857379
v -1.47442998 -0.82647918 1.58371502
v -1.55983338 -0.80894581 1.29890933
v -1.18717759 -0.82647918 0.35770933
v -1.22291380 -0.79426285 0.30879533
v -1.14553586 -0.75086474 0.26165644
v -1.12221642 -0.73284557 0.25159761
v -1.25221438 -0.79189815 0.31510674
v -1.25221438 -0.77485053 0.29893365
v -1.27159679 -0.75126801 0.29479171
v -1.16726523 -0.74578710 0.26422044
v -1.51190756 -0.73284557 0.83047891
v -1.56240766 -0.81544408 1.26537958
v -1.56240766 -0.81544408 1.27721361
v -1.54779517 -0.82647918 1.28766700
v -1.19853443 -0.82647918 0.36342905
v -1.15575697 -0.73370711 0.25810619
v -1.14016027 -0.73284557 0.25495049
v -1.21821958 -0.82647918 0.37901062
v -1.25221438 -0.80302495 0.34469195
v -1.27560953 -0.78532659 0.32161553
v -1.31732697 -0.75456752 0.32220724
v -1.33413510 -0.74869252 0.32772978
v -1.29325045 -0.73792317 0.29893365
v -1.29521897 -0.73284557 0.29814477
v -1.28136365 -0.73284557 0.29400283
v -1.17392795 -0.73284557 0.26205099
v -1.15780121 -0.73284557 0.25830356
v -1.36222436 -0.73284557 0.37348807
v -1.36108873 -0.73741909 0.37723549
v -1.36464712 -0.74421981 0.40031191
v -1.34390196 -0.76488776 0.37802437
v -1.33572507 -0.78298942 0.38926682
v -1.41302729 -0.82647918 0.73482047
v -1.51682889 -0.82647918 1.09516677
v -1.52924565 -0.81384015 1.10739526
v -1.55014232 -0.82647918 1.25926533
v -1.15575697 -0.73284557 0.25790902
v -1.21867392 -0.82647918 0.37940516
v -1.23336203 -0.82647918 0.39755055
v -1.33822354 -0.75323856 0.34469195
v -1.35730312 -0.73284557 0.36125957
v -1.35147319 -0.73284557 0.34705879
v -1.35003473 -0.73284557 0.34370570
v -1.33837496 -0.73284557 0.32319348
v -1.33776929 -0.73284557 0.32279896
v -1.31475279 -0.73284557 0.30879533
v -1.30521305 -0.73284557 0.30327278
v -1.24396178 -0.82647918 0.41293476
v -1.26046709 -0.82647918 0.43798351
v -1.29976175 -0.82647918 0.50543749
v -1.31672130 -0.82647918 0.53778387
v -1.33065232 -0.82647918 0.56598828
v -1.40318472 -0.82647918 0.71351923
f 1 2 3
f 1 3 4
f 1 4 5
f 1 5 6
f 1 6 7
f 1 7 8
f 1 8 9
f 1 9 10
f 1 10 15
f 1 15 16
f 1 16 11
f 1 11 17
f 1 17 27
f 1 27 34
f 1 34 45
f 1 45 59
f 1 59 71
f 1 71 82
f 1 82 102
f 1 102 92
f 1 92 91
f 1 91 90
f 1 90 89
f 1 89 112
f 1 112 111
f 1 111 110
f 1 110 109
f 1 109 108
f 1 108 107
f 1 107 106
f 1 106 93
f 1 93 76
f 1 76 61
f 1 61 47
f 1 47 46
f 1 46 38
f 1 38 37
f 1 37 35
f 1 35 28
f 1 28 19
f 1 19 18
f 1 18 12
f 1 12 2
f 2 12 13
f 2 13 3
f 3 13 14
f 3 14 22
f 3 22 31
f 3 31 40
f 3 40 51
f 3 51 66
f 3 66 79
f 3 79 101
f 3 101 99
f 3 99 98
f 3 98 118
f 3 118 117
f 3 117 116
f 3 116 115
f 3 115 114
f 3 114 113
f 3 113 104
f 3 104 103
f 3 103 83
f 3 83 80
f 3 80 68
f 3 68 52
f 3 52 41
f 3 41 32
f 3 32 23
f 3 23 15
f 3 15 10
f 3 10 9
f 3 9 8
f 3 8 7
f 3 7 6
f 3 6 5
f 3 5 4
f 11 16 17
f 12 18 13
f 13 19 20
f 13 20 21
f 13 21 22
f 13 22 14
f 13 18 19
f 15 23 16
f 16 23 24
f 16 24 25
f 16 25 17
f 17 25 26
f 17 26 27
f 19 28 29
f 19 29 20
f 20 29 21
f 21 30 31
f 21 31 22
f 21 29 30
f 23 32 33
f 23 33 25
f 23 25 24
f 25 33 34
f 25 34 26
f 26 34 27
f 28 35 30
f 28 30 29
f 30 36 31
f 30 35 37
f 30 37 38
f 30 38 39
f 30 39 36
f 31 36 39
f 31 39 40
f 32 41 42
f 32 42 43
f 32 43 33
f 33 43 44
f 33 44 34
f 34 44 45
f 38 46 39
f 39 46 47
f 39 47 48
f 39 48 49
f 39 49 50
f 39 50 40
f 40 50 51
f 41 52 53
f 41 53 54
f 41 54 42
f 42 54 55
f 42 55 43
f 43 55 44
f 44 56 45
f 44 55 57
f 44 57 58
f 44 58 56
f 45 56 59
f 47 60 48
f 47 61 60
f 48 60 49
f 49 62 63
f 49 63 64
f 49 64 65
f 49 65 50
f 49 60 61
f 49 61 62
f 50 65 51
f 51 65 67
f 51 67 66
f 52 68 53
f 53 68 69
f 53 69 57
f 53 57 55
f 53 55 54
f 56 70 71
f 56 71 59
f 56 58 70
f 57 69 58
f 58 69 72
f 58 72 73
f 58 73 74
f 58 74 75
f 58 75 70
f 61 76 63
f 61 63 62
f 63 77 64
f 63 76 77
f 64 77 78
f 64 78 67
f 64 67 65
f 66 67 78
f 66 78 79
f 68 80 72
f 68 72 69
f 70 75 81
f 70 81 71
f 71 81 82
f 72 80 83
f 72 83 84
f 72 84 85
f 72 85 73
f 73 85 86
f 73 86 87
f 73 87 74
f 74 88 89
f 74 89 90
f 74 90 91
f 74 91 75
f 74 87 88
f 75 91 92
f 75 92 81
f 76 93 94
f 76 94 95
f 76 95 96
f 76 96 97
f 76 97 98
f 76 98 99
f 76 99 100
f 76 100 77
f 77 101 78
f 77 100 99
f 77 99 101
f 78 101 79
f 81 102 82
f 81 92 102
f 83 103 84
f 84 103 104
f 84 104 97
f 84 97 85
f 85 87 86
f 85 97 87
f 87 105 94
f 87 94 106
f 87 106 107
f 87 107 108
f 87 108 109
f 87 109 110
f 87 110 111
f 87 111 112
f 87 112 88
f 87 97 105
f 88 112 89
f 93 106 94
f 94 96 95
f 94 105 96
f 96 105 97
f 97 104 113
f 97 113 114
f 97 114 115
f 97 115 116
f 97 116 117
f 97 117 118
f 97 118 98

