# https://github.com/mikedh/trimesh
v -1.15270906 0.59603871 0.62745340
v -1.27505940 0.59603871 0.83206812
v -1.15006518 0.68949943 0.62745340
v 0.20518877 0.59603871 0.62745340
v -1.28137519 0.59603871 0.84499063
v -1.14756826 0.70699887 0.62745340
v -1.14800894 0.70464173 0.62745340
v -1.14874333 0.69931912 0.62745340
v 0.20518877 0.70699887 0.62745340
v 0.20518877 0.59603871 1.10400131
v -1.28930673 0.59603871 0.86187857
v -1.29077553 0.59603871 0.86845647
v -1.15138721 0.70699887 0.64508778
v 0.20518877 0.70699887 1.10400131
v -1.15902484 0.59603871 1.10400131
v -1.29518183 0.59603871 0.89747389
v -1.17532851 0.70699887 0.76740870
v -1.16945332 0.70699887 0.73489244
v -1.00480176 0.70699887 1.10400131
v -1.17415343 0.68840234 1.01629597
v -1.24010211 0.65502192 0.95168327
v -1.26742168 0.61338605 0.94319263
v -1.28798469 0.59603871 0.92485849
v -1.12950216 0.70699887 1.04069484
v -1.13141165 0.70699887 1.03934194
v -1.15094655 0.70699887 1.02501985
v -1.27153436 0.62143513 0.89747389
v -1.29444743 0.59603871 0.90573125
v -1.24157091 0.65612992 0.92999017
v -1.17518155 0.70699887 0.77333350
v -1.20485109 0.68379663 0.94846427
v -1.16578130 0.70699887 0.99642230
v -1.16636884 0.70699887 0.99506939
f 1 2 3
f 1 3 8
f 1 8 7
f 1 7 6
f 1 6 9
f 1 9 4
f 1 4 10
f 1 10 15
f 1 15 23
f 1 23 28
f 1 28 16
f 1 16 12
f 1 12 11
f 1 11 5
f 1 5 2
f 2 5 6
f 2 6 7
f 2 7 8
f 2 8 3
f 4 9 14
f 4 14 10
f 5 11 6
f 6 11 12
f 6 12 13
f 6 13 18
f 6 18 17
f 6 17 30
f 6 30 33
f 6 33 32
f 6 32 26
f 6 26 25
f 6 25 24
f 6 24 19
f 6 19 14
f 6 14 9
f 10 14 19
f 10 19 15
f 12 16 17
f 12 17 18
f 12 18 13
f 15 20 21
f 15 21 22
f 15 22 23
f 15 19 24
f 15 24 25
f 15 25 26
f 15 26 20
f 16 27 17
f 16 28 29
f 16 29 27
f 17 27 29
f 17 29 31
f 17 31 30
f 20 32 21
f 20 26 32
f 21 31 29
f 21 29 28
f 21 28 23
f 21 23 22
f 21 32 33
f 21 33 31
f 30 31 33

