# https://github.com/mikedh/trimesh
v 1.21777929 -0.69385586 0.45927899
v 1.21777929 -0.53626361 0.36515667
v 1.21976680 -0.69385586 0.45927899
v 1.21777929 -0.69385586 1.60542232
v 1.21777929 -0.50436193 0.35082830
v 1.33380600 -0.69385586 0.48311836
v 1.22023250 -0.69385586 1.60443418
v 1.21777929 -0.66876740 1.61061018
v 1.21777929 -0.47022463 0.35527503
v 1.27107933 -0.37409371 0.42284054
v 1.33380600 -0.56919437 0.48398298
v 1.33380600 -0.58931481 0.48324190
v 1.33380600 -0.65223104 0.48163612
v 1.33380600 -0.66678018 0.48175962
v 1.33380600 -0.68541026 0.48200667
v 1.33380600 -0.69385586 1.34084218
v 1.22663805 -0.69385586 1.60159318
v 1.21976680 -0.66678018 1.61011608
v 1.21777929 -0.66685119 1.61098073
v 1.21777929 -0.40659868 0.36861522
v 1.23874499 -0.38346197 0.39121935
v 1.33380600 -0.54662547 0.48768863
v 1.26901233 -0.35698958 0.42543448
v 1.33380600 -0.35588953 0.52190367
v 1.33380600 -0.68973949 1.34565947
v 1.33370383 -0.65070519 1.46707976
v 1.31047803 -0.66830608 1.51389391
v 1.30213034 -0.68402628 1.50191244
v 1.28554865 -0.69385586 1.51389391
v 1.23570124 -0.69385586 1.59578776
v 1.23791588 -0.68636834 1.59801108
v 1.21976680 -0.63423978 1.61184535
v 1.24142532 -0.66678018 1.59974040
v 1.24396935 -0.63423978 1.60072854
v 1.21777929 -0.63423978 1.61270999
v 1.21777929 -0.37686160 0.37713807
v 1.23411117 -0.36178015 0.39455440
v 1.25171506 -0.34432118 0.41715862
v 1.24557075 -0.33136887 0.41950549
v 1.25879074 -0.33136887 0.43840407
v 1.32674177 -0.33456260 0.53339104
v 1.33380600 -0.35450558 0.52313891
v 1.33380600 -0.65286981 1.38592703
v 1.33380600 -0.62497801 1.41594245
v 1.33380600 -0.33136887 1.52797517
v 1.32423175 -0.63423978 1.51549967
v 1.31471430 -0.63423978 1.54798545
v 1.30732067 -0.65822814 1.54798545
v 1.29781458 -0.68015836 1.52365199
v 1.27350986 -0.69385586 1.54798545
v 1.25316884 -0.69385586 1.57861844
v 1.30276635 -0.65283433 1.56577235
v 1.24394666 -0.60173482 1.60048149
v 1.26023308 -0.63423978 1.59257623
v 1.28481037 -0.63423978 1.57898899
v 1.26021039 -0.60173482 1.59282326
v 1.21777929 -0.60173482 1.61184535
v 1.21777929 -0.34155326 0.39270162
v 1.22755799 -0.34155326 0.39912461
v 1.21777929 -0.33374641 0.39628377
v 1.21777929 -0.33136887 0.39776595
v 1.32484507 -0.33136887 0.53499681
v 1.33380600 -0.33136887 0.54920162
v 1.33285194 -0.33136887 1.52933391
v 1.30389073 -0.63423978 1.56688405
v 1.29264692 -0.67448062 1.54798545
v 1.26751310 -0.69385586 1.55984340
v 1.25604217 -0.69385586 1.57577749
v 1.27142008 -0.68594254 1.56700754
v 1.30043810 -0.33136887 1.56429013
v 1.28481037 -0.60173482 1.57874194
v 1.21777929 -0.57103963 1.60949849
v 1.21777929 -0.33651430 0.39492498
v 1.21777929 -0.33136887 1.56256081
v 1.32616246 -0.33136887 1.53798031
v 1.32129018 -0.33136887 1.54341522
v 1.30707076 -0.33136887 1.55873172
v 1.28847879 -0.33136887 1.56577235
v 1.21777929 -0.50418449 1.60060504
v 1.21777929 -0.33218503 1.56280785
v 1.21997124 -0.33136887 1.56293140
v 1.28554865 -0.33136887 1.56589585
v 1.21777929 -0.47164404 1.59566423
v 1.23148765 -0.33136887 1.56453713
v 1.28481037 -0.33136887 1.56589585
v 1.26332229 -0.33136887 1.56564881
v 1.23539453 -0.33136887 1.56490772
f 1 2 3
f 1 3 6
f 1 6 16
f 1 16 29
f 1 29 50
f 1 50 67
f 1 67 68
f 1 68 51
f 1 51 30
f 1 30 17
f 1 17 7
f 1 7 4
f 1 4 8
f 1 8 19
f 1 19 35
f 1 35 57
f 1 57 72
f 1 72 79
f 1 79 83
f 1 83 80
f 1 80 74
f 1 74 61
f 1 61 60
f 1 60 73
f 1 73 58
f 1 58 36
f 1 36 20
f 1 20 9
f 1 9 5
f 1 5 2
f 2 5 6
f 2 6 3
f 4 7 8
f 5 9 10
f 5 10 11
f 5 11 12
f 5 12 13
f 5 13 14
f 5 14 15
f 5 15 6
f 6 15 14
f 6 14 13
f 6 13 12
f 6 12 11
f 6 11 22
f 6 22 24
f 6 24 42
f 6 42 63
f 6 63 45
f 6 45 44
f 6 44 43
f 6 43 25
f 6 25 16
f 7 17 8
f 8 18 19
f 8 17 18
f 9 20 21
f 9 21 10
f 10 22 11
f 10 21 23
f 10 23 24
f 10 24 22
f 16 25 26
f 16 26 27
f 16 27 28
f 16 28 29
f 17 30 31
f 17 31 18
f 18 32 19
f 18 31 33
f 18 33 34
f 18 34 32
f 19 32 35
f 20 36 21
f 21 36 37
f 21 37 23
f 23 37 38
f 23 38 39
f 23 39 40
f 23 40 41
f 23 41 42
f 23 42 24
f 25 43 26
f 26 43 44
f 26 44 45
f 26 45 46
f 26 46 47
f 26 47 48
f 26 48 27
f 27 48 28
f 28 48 49
f 28 49 50
f 28 50 29
f 30 51 52
f 30 52 31
f 31 52 33
f 32 34 53
f 32 53 35
f 33 54 34
f 33 52 55
f 33 55 54
f 34 54 56
f 34 56 53
f 35 53 57
f 36 58 59
f 36 59 37
f 37 59 38
f 38 59 39
f 39 59 60
f 39 60 61
f 39 61 74
f 39 74 81
f 39 81 84
f 39 84 87
f 39 87 86
f 39 86 85
f 39 85 82
f 39 82 78
f 39 78 70
f 39 70 77
f 39 77 76
f 39 76 75
f 39 75 64
f 39 64 45
f 39 45 63
f 39 63 62
f 39 62 40
f 40 62 41
f 41 62 63
f 41 63 42
f 45 64 65
f 45 65 47
f 45 47 46
f 47 65 52
f 47 52 48
f 48 52 66
f 48 66 49
f 49 66 50
f 50 66 67
f 51 68 52
f 52 65 55
f 52 68 69
f 52 69 66
f 53 56 70
f 53 70 57
f 54 55 56
f 55 65 71
f 55 71 56
f 56 71 70
f 57 70 72
f 58 73 59
f 59 73 60
f 64 75 65
f 65 75 76
f 65 76 77
f 65 77 70
f 65 70 71
f 66 69 67
f 67 69 68
f 70 78 79
f 70 79 72
f 74 80 81
f 78 82 83
f 78 83 79
f 80 83 81
f 81 83 84
f 82 85 83
f 83 85 86
f 83 86 87
f 83 87 84

