# https://github.com/mikedh/trimesh
v -1.40239720 0.04201441 0.94190516
v -1.39788397 -0.12638899 0.94190516
v -1.46976465 -0.12638899 1.15954733
v -1.47868090 -0.12638899 1.18966166
v -1.48836778 -0.12638899 1.22273042
v -1.49442194 -0.12638899 1.24439616
v -1.49684363 -0.12638899 1.26201901
v -1.49684363 -0.12638899 1.27378486
v -1.47284679 -0.08390900 1.28777946
v -1.46051815 -0.06765550 1.28777946
v -1.40074596 0.04201441 0.95196053
v -0.37240209 0.04201441 0.94190516
v -0.37240209 -0.12638899 0.94190516
v -1.49673360 -0.12638899 1.27622095
v -1.48935840 -0.11537749 1.28684649
v -1.46800340 -0.08933232 1.32032991
v -1.45655534 -0.07306234 1.32032991
v -1.33932282 0.00586438 1.38537894
v -1.31730729 0.01804627 1.38537894
v -1.26149801 0.04201441 1.39533068
v -0.37240209 0.04201441 1.47141990
v -0.37240209 -0.12638899 1.47141990
v -1.49354135 -0.12638899 1.28503238
v -1.47691963 -0.11382797 1.32032991
v -1.46437085 -0.09612385 1.33733077
v -1.33524998 0.00190816 1.40517875
v -1.25225151 0.04082754 1.41611528
v -1.25203136 0.04201441 1.41274618
v -1.15582367 0.04201441 1.47141990
v -1.29033834 -0.12638899 1.47141990
v -1.48363431 -0.12638899 1.31172581
v -1.46635225 -0.11382797 1.33873023
v -1.33646073 -0.02799433 1.43643338
v -1.32556309 -0.00631750 1.42689631
v -1.30387783 0.00138066 1.43534491
v -1.24146389 0.03664054 1.43829933
v -1.25049024 0.04201441 1.41497499
v -1.23375850 0.04201441 1.43109469
v -1.21306385 0.00916124 1.47141990
v -1.29121892 -0.11382797 1.47141990
v -1.46646228 -0.12638899 1.33873023
v -1.47031508 -0.12638899 1.33282139
v -1.28274298 -0.08163417 1.47141990
v -1.27184534 -0.06706207 1.47141990
v -1.31576617 -0.01680150 1.43975061
f 1 2 3
f 1 3 4
f 1 4 5
f 1 5 6
f 1 6 7
f 1 7 8
f 1 8 9
f 1 9 10
f 1 10 11
f 1 11 20
f 1 20 28
f 1 28 37
f 1 37 38
f 1 38 29
f 1 29 21
f 1 21 12
f 1 12 13
f 1 13 2
f 2 13 22
f 2 22 30
f 2 30 41
f 2 41 42
f 2 42 31
f 2 31 23
f 2 23 14
f 2 14 8
f 2 8 7
f 2 7 6
f 2 6 5
f 2 5 4
f 2 4 3
f 8 14 9
f 9 14 15
f 9 15 16
f 9 16 17
f 9 17 10
f 10 17 18
f 10 18 11
f 11 18 19
f 11 19 20
f 12 21 22
f 12 22 13
f 14 23 24
f 14 24 15
f 15 24 16
f 16 24 25
f 16 25 17
f 17 25 26
f 17 26 18
f 18 26 19
f 19 26 27
f 19 27 28
f 19 28 20
f 21 29 39
f 21 39 44
f 21 44 43
f 21 43 40
f 21 40 30
f 21 30 22
f 23 31 24
f 24 31 32
f 24 32 25
f 25 32 33
f 25 33 26
f 26 33 34
f 26 34 35
f 26 35 36
f 26 36 27
f 27 36 37
f 27 37 28
f 29 38 36
f 29 36 39
f 30 40 41
f 31 42 32
f 32 42 41
f 32 41 40
f 32 40 33
f 33 40 43
f 33 43 44
f 33 44 39
f 33 39 45
f 33 45 35
f 33 35 34
f 35 45 39
f 35 39 36
f 36 38 37

