# https://github.com/mikedh/trimesh
v 0.66023587 0.21446155 2.11798299
v 0.64353945 0.39570157 2.10118475
v 0.63945518 0.39570157 2.10923872
v 0.62657380 0.39570157 2.13363068
v 0.62352182 0.39570157 2.13869316
v 0.61683428 0.39570157 2.14835785
v 0.48384676 0.34151587 2.33843103
v 0.42392829 0.29020443 2.41068648
v 0.49179100 0.21726487 2.31703067
v 0.49125241 0.21446155 2.31634027
v 0.66023587 0.21446155 0.13325990
v 0.66023587 0.39570157 2.05976452
v 0.65740824 0.39570157 2.06850869
v 0.48770668 0.39570157 2.29977207
v 0.49206029 0.36576991 2.32025210
v 0.46755429 0.34151587 2.35568963
v 0.42392829 0.29724824 2.41068648
v 0.36984459 0.24396738 2.45394765
v 0.36661306 0.21446155 2.45509830
v 0.36809419 0.21446155 2.45348758
v 0.50413373 0.21446155 0.12819743
v 0.66023587 0.39570157 0.18526545
v 0.47303001 0.39570157 2.30874656
v 0.46346996 0.36298433 2.34947650
v 0.48416094 0.38745129 2.30989702
v 0.41347065 0.31891186 2.40815525
v 0.33465654 0.23216858 2.47764931
v 0.34825603 0.21446155 2.46913527
v 0.27648852 0.39570157 0.21725101
v 0.64488597 0.39570157 0.18641590
v 0.47213237 0.21446155 0.13694160
v 0.20171390 0.37245886 0.22461461
v 0.20171390 0.38134785 0.22622551
v 0.46463695 0.39570157 2.31265839
v 0.46248256 0.39318213 2.31634027
v 0.43909866 0.38243016 2.33636006
v 0.39179227 0.32545886 2.40999628
v 0.30902853 0.23534451 2.47903009
v 0.33465654 0.21746003 2.47764931
v 0.33779834 0.21446155 2.47580847
v 0.20171390 0.39570157 0.23174824
v 0.20171390 0.21446155 0.21448964
v 0.20171390 0.22115047 0.21448964
v 0.20171390 0.35123877 0.22300388
v 0.44690825 0.39570157 2.31887152
v 0.43909866 0.39570157 2.32140275
v 0.37406359 0.32597341 2.41045634
v 0.30902853 0.25159667 2.46844488
v 0.43591197 0.39570157 2.32186301
v 0.37406359 0.35661477 2.37593954
v 0.37406359 0.34107231 2.39365820
v 0.30902853 0.21527769 2.47903009
v 0.27648852 0.24834979 2.46936521
v 0.27648852 0.23207988 2.47695912
v 0.33048245 0.21446155 2.47695912
v 0.20171390 0.39570157 2.30437447
v 0.20171390 0.21446155 2.43760978
v 0.35355216 0.32600889 2.41045634
v 0.34156848 0.35696961 2.37616966
v 0.27648852 0.26942793 2.45302733
v 0.40660358 0.39570157 2.32439425
v 0.30902853 0.21446155 2.47856983
v 0.27648852 0.22288924 2.47695912
v 0.27648852 0.21446155 2.47281697
v 0.24399344 0.26540036 2.44819498
v 0.24718012 0.24079146 2.46315228
v 0.26015122 0.22782168 2.47488795
v 0.20171390 0.39545319 2.30483454
v 0.40081368 0.39570157 2.32416412
v 0.20328480 0.21446155 2.43853009
v 0.26015122 0.22760875 2.47488795
v 0.20171390 0.24245927 2.43853009
v 0.34224172 0.33807381 2.39618944
v 0.20171390 0.36305531 2.35062715
v 0.20171390 0.38778839 2.31726081
v 0.20171390 0.38008815 2.32784582
v 0.20171390 0.34524179 2.36696504
v 0.24713524 0.21446155 2.46200162
v 0.22595059 0.26098248 2.44313250
v 0.20171390 0.32897189 2.38008149
v 0.20283598 0.24396738 2.43922049
v 0.20171390 0.39254341 2.30966708
v 0.20171390 0.24384318 2.43830016
v 0.20180366 0.29114480 2.40861550
v 0.20171390 0.27302965 2.42127169
v 0.20171390 0.29105607 2.40861550
f 1 2 3
f 1 3 4
f 1 4 5
f 1 5 6
f 1 6 7
f 1 7 8
f 1 8 9
f 1 9 10
f 1 10 20
f 1 20 19
f 1 19 28
f 1 28 40
f 1 40 55
f 1 55 62
f 1 62 64
f 1 64 78
f 1 78 70
f 1 70 57
f 1 57 42
f 1 42 31
f 1 31 21
f 1 21 11
f 1 11 22
f 1 22 12
f 1 12 13
f 1 13 2
f 2 13 12
f 2 12 22
f 2 22 30
f 2 30 29
f 2 29 41
f 2 41 56
f 2 56 69
f 2 69 61
f 2 61 49
f 2 49 46
f 2 46 45
f 2 45 34
f 2 34 23
f 2 23 14
f 2 14 6
f 2 6 5
f 2 5 4
f 2 4 3
f 6 14 15
f 6 15 7
f 7 15 16
f 7 16 17
f 7 17 8
f 8 17 18
f 8 18 19
f 8 19 20
f 8 20 9
f 9 20 10
f 11 21 22
f 14 23 24
f 14 24 25
f 14 25 15
f 15 25 24
f 15 24 16
f 16 24 17
f 17 26 27
f 17 27 18
f 17 24 26
f 18 27 28
f 18 28 19
f 21 29 30
f 21 30 22
f 21 31 32
f 21 32 33
f 21 33 29
f 23 34 24
f 24 34 35
f 24 35 36
f 24 36 37
f 24 37 26
f 26 37 27
f 27 38 52
f 27 52 39
f 27 39 40
f 27 40 28
f 27 37 38
f 29 33 41
f 31 42 43
f 31 43 44
f 31 44 32
f 32 44 43
f 32 43 42
f 32 42 57
f 32 57 72
f 32 72 83
f 32 83 85
f 32 85 86
f 32 86 80
f 32 80 77
f 32 77 74
f 32 74 76
f 32 76 75
f 32 75 82
f 32 82 68
f 32 68 56
f 32 56 41
f 32 41 33
f 34 45 35
f 35 45 36
f 36 45 46
f 36 46 37
f 37 47 48
f 37 48 38
f 37 46 49
f 37 49 50
f 37 50 51
f 37 51 47
f 38 48 53
f 38 53 54
f 38 54 63
f 38 63 52
f 39 55 40
f 39 52 55
f 47 58 48
f 47 51 59
f 47 59 58
f 48 60 53
f 48 58 60
f 49 61 50
f 50 61 59
f 50 59 51
f 52 62 55
f 52 63 64
f 52 64 62
f 53 60 65
f 53 65 66
f 53 66 67
f 53 67 54
f 54 67 71
f 54 71 63
f 56 68 69
f 57 70 71
f 57 71 72
f 58 59 73
f 58 73 74
f 58 74 60
f 59 61 69
f 59 69 75
f 59 75 76
f 59 76 74
f 59 74 73
f 60 74 77
f 60 77 65
f 63 71 64
f 64 71 78
f 65 79 66
f 65 77 80
f 65 80 79
f 66 79 81
f 66 81 67
f 67 81 72
f 67 72 71
f 68 82 69
f 69 82 75
f 70 78 71
f 72 81 83
f 79 80 84
f 79 84 85
f 79 85 81
f 80 86 84
f 81 85 83
f 84 86 85

