# https://github.com/mikedh/trimesh
v 0.03926194 -1.19173687 1.90310287
v 0.00878936 -1.19173687 1.90128388
v -0.01627153 -1.20688630 1.89264367
v 0.01623499 -1.20770736 1.89340159
v 0.03926194 -1.20771541 1.89370475
v 0.03926194 -1.19173687 0.35453462
v -0.02146530 -1.19173687 1.89825220
v -0.03748247 -1.20567080 1.89158259
v -0.04881435 -1.23389286 1.85171637
v 0.01623499 -1.22102147 1.87324110
v 0.03926194 -1.21161948 1.88779300
v 0.03926194 -1.22021650 0.35877894
v -0.16827124 -1.19173687 0.41880570
v -0.33178443 -1.19173687 1.82791787
v -0.33178443 -1.19752454 1.82094508
v -0.33178443 -1.20579963 1.81078902
v -0.07300356 -1.23843284 1.83307170
v -0.04881435 -1.23929414 1.83534543
v 0.01623499 -1.23935055 1.83292009
v 0.03926194 -1.23914931 1.83216218
v 0.01623499 -1.23306375 1.84913942
v 0.03926194 -1.22408839 1.86611671
v 0.03926194 -1.22056266 1.87324110
v -0.33178443 -1.20881817 1.80502888
v 0.03926194 -1.25227827 0.36408435
v -0.17793239 -1.19173687 0.42365626
v 0.03926194 -1.27397206 0.37014761
v 0.01623499 -1.27397206 0.38106163
v -0.31547669 -1.27397206 0.54719619
v -0.33178443 -1.19173687 0.56371868
v -0.33178443 -1.22189885 1.77562185
v -0.33178443 -1.27397206 1.59811858
v -0.04881435 -1.24484847 1.80821212
v 0.01623499 -1.24612834 1.80821212
v 0.03926194 -1.24112946 1.82488623
v 0.03926194 -1.23260495 1.84838152
v -0.32807979 -1.27397206 0.55416897
v -0.33178443 -1.27397206 0.55659429
v -0.33178443 -1.25227827 0.55613951
v -0.33178443 -1.22710703 0.55871645
v -0.33178443 -1.19877222 0.56205125
v 0.03926194 -1.27397206 1.43910840
v -0.30933860 -1.27397206 1.59917966
v 0.03926194 -1.26962527 1.66814980
v -0.01627153 -1.25714027 1.74318319
v -0.01627153 -1.25181946 1.77562185
v 0.01623499 -1.25232654 1.77562185
v 0.03926194 -1.24549243 1.80821212
v -0.13808921 -1.27397206 1.54900582
v 0.03926194 -1.27369036 1.60175656
v -0.27904762 -1.27397206 1.59448062
v 0.03926194 -1.27329592 1.61297371
v 0.03926194 -1.27139613 1.64556398
v 0.03926194 -1.25154571 1.77562185
v 0.03926194 -1.24730362 1.79866244
v -0.14615229 -1.27397206 1.55264379
v -0.26546388 -1.27397206 1.59235845
v -0.22565703 -1.27397206 1.58508249
v -0.20430080 -1.27397206 1.57765493
f 1 2 3
f 1 3 4
f 1 4 5
f 1 5 11
f 1 11 23
f 1 23 22
f 1 22 36
f 1 36 20
f 1 20 35
f 1 35 48
f 1 48 55
f 1 55 54
f 1 54 44
f 1 44 53
f 1 53 52
f 1 52 50
f 1 50 42
f 1 42 27
f 1 27 25
f 1 25 12
f 1 12 6
f 1 6 13
f 1 13 26
f 1 26 30
f 1 30 14
f 1 14 7
f 1 7 2
f 2 7 8
f 2 8 3
f 3 8 9
f 3 9 4
f 4 10 5
f 4 9 10
f 5 10 11
f 6 12 13
f 7 14 8
f 8 14 15
f 8 15 16
f 8 16 9
f 9 17 18
f 9 18 19
f 9 19 20
f 9 20 21
f 9 21 22
f 9 22 23
f 9 23 10
f 9 16 24
f 9 24 17
f 10 23 11
f 12 25 13
f 13 25 27
f 13 27 28
f 13 28 29
f 13 29 26
f 14 30 41
f 14 41 40
f 14 40 39
f 14 39 38
f 14 38 32
f 14 32 31
f 14 31 24
f 14 24 16
f 14 16 15
f 17 24 31
f 17 31 32
f 17 32 18
f 18 32 33
f 18 33 34
f 18 34 19
f 19 34 20
f 20 34 35
f 20 36 21
f 21 36 22
f 26 29 37
f 26 37 38
f 26 38 39
f 26 39 40
f 26 40 41
f 26 41 30
f 27 42 49
f 27 49 56
f 27 56 59
f 27 59 58
f 27 58 57
f 27 57 51
f 27 51 43
f 27 43 32
f 27 32 38
f 27 38 37
f 27 37 29
f 27 29 28
f 32 43 44
f 32 44 45
f 32 45 46
f 32 46 33
f 33 46 34
f 34 46 47
f 34 47 48
f 34 48 35
f 42 50 49
f 43 51 50
f 43 50 52
f 43 52 53
f 43 53 44
f 44 54 47
f 44 47 45
f 45 47 46
f 47 54 55
f 47 55 48
f 49 50 56
f 50 51 57
f 50 57 58
f 50 58 59
f 50 59 56

