# https://github.com/mikedh/trimesh
v -1.19589986 -1.16237249 1.35974664
v -1.19288606 -1.18456862 1.35974664
v -1.17373989 -1.24491119 1.55315382
v -1.17557172 -1.21975769 1.58054957
v -1.18189468 -1.16237249 1.58054957
v -0.59220191 -1.16237249 1.35974664
v -1.19223610 -1.18723508 1.35974664
v -1.17391710 -1.24491119 1.54807095
v -1.17261706 -1.24491119 1.56956543
v -1.17941279 -1.16237249 1.60540389
v -1.17220344 -1.24250336 1.58054957
v -1.17078523 -1.24491119 1.59084452
v -1.16918963 -1.24491119 1.60549004
v -1.17285350 -1.21975769 1.60441316
v -0.59220191 -1.16237249 1.74065971
v -0.59220191 -1.24491119 1.35974664
v -1.18591314 -1.21223513 1.35974664
v -1.18431754 -1.21701048 1.35974664
v -1.18177661 -1.22090514 1.35974664
v -1.16404854 -1.24491119 1.35974664
v -1.17178980 -1.24491119 1.58054957
v -1.17509897 -1.16237249 1.64287924
v -1.16830324 -1.24491119 1.61164978
v -0.60177499 -1.16237249 1.74561333
v -0.59220191 -1.18723508 1.73635219
v -0.59220191 -1.24491119 1.71300545
v -1.17356259 -1.16237249 1.65235573
v -1.17072610 -1.17029105 1.66002312
v -1.16091658 -1.24491119 1.64559297
v -0.60963441 -1.16237249 1.74884396
v -0.60177499 -1.18723508 1.74121966
v -0.59220191 -1.21251790 1.72993398
v -0.59220191 -1.23137694 1.72360196
v -0.59899763 -1.24491119 1.71701145
v -1.16706234 -1.16237249 1.67811465
v -1.15760732 -1.24491119 1.65248500
v -0.64059938 -1.16237249 1.75857893
v -0.64769057 -1.17728035 1.76012965
v -0.63581283 -1.18776843 1.75504677
v -0.60177499 -1.21865881 1.73234618
v -0.59220191 -1.22754703 1.72575572
v -0.59220191 -1.22934891 1.72510958
v -0.61258907 -1.23841481 1.72885710
v -0.60679797 -1.24491119 1.72101745
v -1.14667507 -1.24491119 1.67061957
v -1.15423903 -1.16237249 1.69784303
v -0.64769057 -1.16237249 1.76012965
v -0.82892996 -1.16237249 1.79523585
v -0.63427637 -1.21975769 1.74289959
v -0.63427637 -1.23970757 1.73053703
v -0.63427637 -1.24491119 1.72493728
v -0.62062579 -1.24491119 1.72299891
v -1.14974800 -1.16237249 1.70469198
v -1.14058845 -1.24491119 1.67333330
v -1.13940658 -1.20472866 1.69495700
v -0.86196314 -1.16237249 1.79971567
v -0.86196314 -1.24491119 1.72704795
v -1.12593331 -1.16237249 1.71546079
v -1.12215138 -1.24491119 1.67996690
v -0.88908699 -1.24491119 1.72334347
f 1 2 3
f 1 3 4
f 1 4 5
f 1 5 10
f 1 10 22
f 1 22 27
f 1 27 35
f 1 35 46
f 1 46 53
f 1 53 58
f 1 58 56
f 1 56 48
f 1 48 47
f 1 47 37
f 1 37 30
f 1 30 24
f 1 24 15
f 1 15 6
f 1 6 16
f 1 16 20
f 1 20 19
f 1 19 18
f 1 18 17
f 1 17 7
f 1 7 2
f 2 7 8
f 2 8 3
f 3 9 4
f 3 8 20
f 3 20 16
f 3 16 26
f 3 26 34
f 3 34 44
f 3 44 52
f 3 52 51
f 3 51 57
f 3 57 60
f 3 60 59
f 3 59 54
f 3 54 45
f 3 45 36
f 3 36 29
f 3 29 23
f 3 23 13
f 3 13 12
f 3 12 21
f 3 21 9
f 4 10 5
f 4 9 11
f 4 11 12
f 4 12 13
f 4 13 14
f 4 14 10
f 6 15 25
f 6 25 32
f 6 32 41
f 6 41 42
f 6 42 33
f 6 33 26
f 6 26 16
f 7 17 8
f 8 17 18
f 8 18 19
f 8 19 20
f 9 21 11
f 10 14 22
f 11 21 12
f 13 23 14
f 14 23 22
f 15 24 25
f 22 23 27
f 23 28 27
f 23 29 28
f 24 30 31
f 24 31 25
f 25 31 32
f 26 33 34
f 27 28 35
f 28 29 35
f 29 36 35
f 30 37 38
f 30 38 39
f 30 39 31
f 31 40 41
f 31 41 32
f 31 39 40
f 33 42 43
f 33 43 34
f 34 43 44
f 35 36 45
f 35 45 46
f 37 47 38
f 38 48 39
f 38 47 48
f 39 49 43
f 39 43 40
f 39 48 49
f 40 43 42
f 40 42 41
f 43 49 50
f 43 50 51
f 43 51 52
f 43 52 44
f 45 53 46
f 45 54 55
f 45 55 53
f 48 56 49
f 49 56 50
f 50 56 57
f 50 57 51
f 53 55 58
f 54 59 55
f 55 59 56
f 55 56 58
f 56 59 60
f 56 60 57

