# https://github.com/mikedh/trimesh
v -0.98312270 0.11913987 1.64942923
v -0.98312270 0.17889141 1.63871563
v -1.07349367 0.16279907 1.62937951
v -1.07349367 0.16138108 1.62937951
v -1.06947328 0.11913987 1.62815508
v -0.98312270 0.11913987 1.43178997
v -0.98312270 0.18755795 1.63703207
v -1.10041271 0.11913987 1.59387156
v -1.08660363 0.11913987 1.61239079
v -0.98312270 0.20042249 1.63397105
v -1.03387261 0.19063648 1.62800202
v -1.05717916 0.18375176 1.62034946
v -1.05717916 0.20119678 1.60412601
v -1.07361019 0.19535690 1.59708562
v -1.23314333 0.21444381 1.37760973
v -1.24153368 0.21444381 1.36613089
v -1.37210852 0.21444381 1.16854139
v -1.08386504 0.11913987 1.61514571
v -0.98312270 0.21444381 1.43178997
v -0.98318086 0.11913987 0.10988394
v -0.98318086 0.14989721 0.09825209
v -0.98318086 0.15302239 0.09733380
v -0.98318086 0.17709094 0.09136476
v -0.98318086 0.20245619 0.08707934
v -0.98318086 0.21140258 0.08585492
v -1.10332608 0.11913987 1.58866780
v -1.36459216 0.19764248 1.17160240
v -1.01219752 0.19614985 1.62968558
v -0.98312270 0.21444381 1.61376826
v -1.01953910 0.21444381 1.60948279
v -1.02221933 0.21039506 1.61284992
v -1.04255425 0.21444381 1.59065748
v -1.05234303 0.21444381 1.58055604
v -1.05717916 0.21211158 1.58055604
v -1.42495606 0.21444381 1.02436683
v -1.57720588 0.11913987 0.67479717
v -1.56660139 0.11913987 0.70035678
v -0.98318086 0.21359488 0.08616095
v -0.98318086 0.21444381 0.08631411
v -1.05717916 0.11913987 0.10070084
v -0.99209564 0.21140258 0.08769150
v -0.99227052 0.21444381 0.08799763
v -1.40100856 0.11913987 1.02513211
v -1.53216599 0.21444381 0.72698770
v -1.56526131 0.13949550 0.69301030
v -1.57819639 0.11913987 0.67005259
v -1.45321515 0.11913987 0.26859844
v -1.03929133 0.21140258 0.10131310
v -1.02303507 0.21140258 0.09549722
v -1.02251063 0.21444381 0.09565020
v -1.53397233 0.21444381 0.70586662
v -1.56875727 0.14235015 0.67005259
v -1.57831301 0.11913987 0.64342157
v -1.45828432 0.11913987 0.27120035
v -1.43392910 0.13201373 0.26247634
v -1.03824256 0.21444381 0.10177229
v -1.53397233 0.21444381 0.70418306
v -1.57720588 0.11913987 0.63745262
v -1.47949333 0.11913987 0.28497502
v -1.47197697 0.13833872 0.28818907
v -1.38277118 0.21444381 0.28206698
v -1.35282237 0.21444381 0.26599655
v -1.04103931 0.21444381 0.10314968
v -1.39658035 0.21444381 0.31206503
v -1.40479593 0.20205505 0.28987259
v -1.49184572 0.12041793 0.31206503
v -1.49242841 0.11913987 0.31206503
f 1 2 3
f 1 3 4
f 1 4 5
f 1 5 18
f 1 18 9
f 1 9 8
f 1 8 26
f 1 26 43
f 1 43 37
f 1 37 36
f 1 36 46
f 1 46 53
f 1 53 58
f 1 58 67
f 1 67 59
f 1 59 54
f 1 54 47
f 1 47 40
f 1 40 20
f 1 20 6
f 1 6 19
f 1 19 29
f 1 29 10
f 1 10 7
f 1 7 2
f 2 7 3
f 3 8 9
f 3 9 4
f 3 7 10
f 3 10 11
f 3 11 12
f 3 12 13
f 3 13 14
f 3 14 15
f 3 15 16
f 3 16 17
f 3 17 8
f 4 18 5
f 4 9 18
f 6 20 21
f 6 21 22
f 6 22 23
f 6 23 24
f 6 24 25
f 6 25 19
f 8 17 27
f 8 27 26
f 10 28 11
f 10 29 30
f 10 30 31
f 10 31 28
f 11 31 13
f 11 13 12
f 11 28 31
f 13 30 32
f 13 32 33
f 13 33 34
f 13 34 15
f 13 15 14
f 13 31 30
f 15 34 33
f 15 33 32
f 15 32 30
f 15 30 29
f 15 29 19
f 15 19 39
f 15 39 42
f 15 42 50
f 15 50 56
f 15 56 63
f 15 63 62
f 15 62 61
f 15 61 64
f 15 64 57
f 15 57 51
f 15 51 44
f 15 44 35
f 15 35 17
f 15 17 16
f 17 35 36
f 17 36 37
f 17 37 27
f 19 25 38
f 19 38 39
f 20 40 21
f 21 40 22
f 22 40 23
f 23 40 24
f 24 40 25
f 25 40 41
f 25 41 42
f 25 42 38
f 26 27 43
f 27 37 43
f 35 44 45
f 35 45 36
f 36 45 44
f 36 44 46
f 38 42 39
f 40 47 48
f 40 48 49
f 40 49 41
f 41 49 42
f 42 49 50
f 44 51 52
f 44 52 46
f 46 52 53
f 47 54 55
f 47 55 48
f 48 56 50
f 48 50 49
f 48 55 56
f 51 57 52
f 52 57 53
f 53 57 58
f 54 59 60
f 54 60 55
f 55 60 61
f 55 61 62
f 55 62 63
f 55 63 56
f 57 64 65
f 57 65 60
f 57 60 66
f 57 66 58
f 58 66 67
f 59 67 66
f 59 66 60
f 60 65 61
f 61 65 64

