# https://github.com/mikedh/trimesh
v -0.24392647 1.37037256 1.61244811
v -0.27735923 1.36966918 1.61244811
v -0.26780701 1.36854373 1.63357792
v -0.24392647 1.36812167 1.63426174
v 0.09911543 1.33373940 1.69496152
v 0.10012094 1.33388006 1.67816255
v 0.09945061 1.33382384 1.66129513
v 0.04992990 1.33126342 1.61244811
v -0.27777817 1.36964097 1.61244811
v -0.27777817 1.36958475 1.61283563
v -0.27836474 1.36950032 1.61244811
v -0.28950899 1.36440769 1.62350309
v -0.27735923 1.35087431 1.64604610
v -0.24392647 1.34355891 1.66925019
v -0.24392647 1.35982157 1.65053650
v 0.09718824 1.30141116 1.79229087
v 0.11377894 1.30242406 1.79331657
v 0.13271578 1.30250839 1.79343057
v 0.11377894 1.30878279 1.77571980
v 0.14469795 1.30535012 1.77410143
v 0.16489167 1.30233962 1.76220310
v 0.11637647 1.33174181 1.67816255
v 0.17972275 1.30484372 1.61244811
v 0.14629000 1.31272185 1.61244811
v -0.30249666 1.35261871 1.61244811
v -0.29864223 1.34271487 1.63683746
v -0.52990647 1.08293474 1.63588010
v -0.51968390 1.08293474 1.66120396
v -0.28682764 1.32625523 1.65851433
v -0.26512570 1.33734083 1.66428112
v -0.21141543 1.34625998 1.67342141
v -0.24392647 1.31733609 1.68073824
v -0.12854574 1.30006062 1.72671322
v 0.11377894 1.28481086 1.79965324
v -0.26101991 1.10713175 1.75980975
v -0.26579603 1.08965921 1.76290973
v 0.14469795 1.28438879 1.79762459
v 0.16673509 1.27327508 1.79495774
v 0.15441776 1.29496800 1.78387997
v 0.17670626 1.28177215 1.77168531
v 0.19514036 1.26854820 1.75946785
v 0.20628461 1.28014030 1.71068923
v 0.18785052 1.29640287 1.71068923
v 0.19153733 1.29930092 1.67816255
v 0.17159499 1.30529390 1.71068923
v 0.14629000 1.32175344 1.67816255
v 0.19664862 1.30203010 1.62471117
v 0.18131479 1.30428100 1.61244811
v -0.52672236 1.08293474 1.61244811
v -0.26789081 1.08293474 1.76373030
v 0.14654136 1.08293474 1.84389592
v 0.16757299 1.08293474 1.84526356
v 0.17888485 1.08293474 1.84521795
v -0.24392647 1.08293474 1.76897284
v 0.19882719 1.08293474 1.84318935
v 0.21307173 1.08293474 1.84102395
v 0.24390695 1.08293474 1.83603208
v 0.25647565 1.08293474 1.83245348
v 0.27641800 1.08293474 1.82267494
v 0.29996336 1.08293474 1.80822370
v 0.32593873 1.08293474 1.77571980
v 0.22840554 1.26939233 1.67002515
v 0.21449618 1.28064671 1.67978087
v 0.23167341 1.27237472 1.64563581
v 0.19664862 1.30203010 1.63448969
v 0.23200857 1.27274046 1.61310914
v 0.23192479 1.27271235 1.61244811
v 0.20972006 1.28984716 1.61244811
v 0.20913352 1.29026923 1.61244811
v 0.20720632 1.29147911 1.61244811
v 0.31110764 1.08293474 1.61244811
f 1 2 3
f 1 3 4
f 1 4 5
f 1 5 6
f 1 6 7
f 1 7 8
f 1 8 24
f 1 24 23
f 1 23 48
f 1 48 70
f 1 70 69
f 1 69 68
f 1 68 67
f 1 67 71
f 1 71 49
f 1 49 25
f 1 25 11
f 1 11 9
f 1 9 2
f 2 9 3
f 3 9 10
f 3 10 11
f 3 11 12
f 3 12 13
f 3 13 14
f 3 14 15
f 3 15 16
f 3 16 17
f 3 17 18
f 3 18 4
f 4 18 19
f 4 19 5
f 5 19 18
f 5 18 20
f 5 20 21
f 5 21 22
f 5 22 6
f 6 22 7
f 7 22 23
f 7 23 24
f 7 24 8
f 9 11 10
f 11 25 12
f 12 26 13
f 12 25 27
f 12 27 28
f 12 28 26
f 13 26 29
f 13 29 30
f 13 30 14
f 14 31 15
f 14 30 32
f 14 32 33
f 14 33 16
f 14 16 31
f 15 31 16
f 16 34 17
f 16 33 35
f 16 35 36
f 16 36 34
f 17 34 18
f 18 34 37
f 18 37 38
f 18 38 39
f 18 39 21
f 18 21 20
f 21 39 38
f 21 38 40
f 21 40 41
f 21 41 42
f 21 42 43
f 21 43 44
f 21 44 45
f 21 45 46
f 21 46 22
f 22 46 47
f 22 47 23
f 23 47 48
f 25 49 27
f 26 28 29
f 27 49 71
f 27 71 61
f 27 61 60
f 27 60 59
f 27 59 58
f 27 58 57
f 27 57 56
f 27 56 55
f 27 55 53
f 27 53 52
f 27 52 51
f 27 51 54
f 27 54 50
f 27 50 28
f 28 50 36
f 28 36 35
f 28 35 30
f 28 30 29
f 30 35 32
f 32 35 33
f 34 51 52
f 34 52 53
f 34 53 37
f 34 36 54
f 34 54 51
f 36 50 54
f 37 53 55
f 37 55 56
f 37 56 57
f 37 57 58
f 37 58 38
f 38 58 59
f 38 59 60
f 38 60 61
f 38 61 40
f 40 61 41
f 41 61 42
f 42 61 62
f 42 62 63
f 42 63 43
f 43 63 44
f 44 63 64
f 44 64 65
f 44 65 45
f 45 65 46
f 46 65 47
f 47 65 66
f 47 66 67
f 47 67 68
f 47 68 69
f 47 69 70
f 47 70 48
f 61 71 66
f 61 66 64
f 61 64 62
f 62 64 63
f 64 66 65
f 66 71 67

