# https://github.com/mikedh/trimesh
v 1.52267648 -0.33133339 0.93012746
v 1.51997318 -0.33133339 0.89750632
v 1.51913912 -0.30900536 0.93012746
v 1.51669474 -0.24394715 1.06003155
v 1.51703984 -0.33133339 1.31264218
v 1.51123055 -0.33133339 0.86442084
v 1.50128009 -0.22214071 0.90923137
v 1.51324366 -0.21142808 1.09265268
v 1.51100051 -0.21142808 1.12515773
v 1.50274676 -0.24081761 1.28652204
v 1.50107885 -0.24958432 1.30915949
v 1.51511300 -0.33133339 1.31983971
v 1.50838348 -0.33133339 0.85583022
v 1.49958339 -0.31576596 0.84178341
v 1.47367193 -0.33133339 0.76678961
v 1.46630971 -0.28932540 0.78013992
v 1.27201692 -0.12638899 0.61610548
v 1.46481424 -0.19305209 0.87916419
v 1.43594067 -0.15898830 0.87417233
v 1.46446914 -0.12638899 1.03925152
v 1.46538948 -0.12723155 1.04006415
v 1.50153891 -0.18835779 1.09265268
v 1.50021609 -0.18982226 1.12515773
v 1.49736894 -0.19301197 1.18088066
v 1.49604603 -0.22791832 1.29650572
v 1.50726192 -0.33133339 1.33748530
v 1.39357935 -0.21118733 1.51637916
v 1.46498680 -0.33133339 0.74763487
v 1.33514200 -0.33133339 0.55063102
v 1.32487522 -0.33133339 0.53507504
v 1.25878803 -0.33133339 0.43837257
v 1.24558782 -0.33133339 0.41956608
v 1.24993043 -0.12638899 0.58661877
v 1.46441167 -0.12638899 1.04935131
v 1.46538948 -0.12723155 1.04853869
v 1.48859763 -0.17529800 1.15766276
v 1.47232023 -0.15148544 1.15766276
v 1.48701589 -0.18085493 1.19109652
v 1.46904179 -0.15658097 1.19016782
v 1.44433818 -0.12638899 1.18877473
v 1.35835014 -0.12638899 1.46564806
v 1.34773819 -0.12638899 1.49443823
v 1.37592157 -0.17792601 1.51440561
v 1.37203922 -0.18811705 1.53715918
v 1.50337947 -0.33133339 1.34305760
v 1.40094159 -0.22185986 1.50616328
v 1.37776213 -0.24394715 1.54319583
v 1.37747460 -0.21142808 1.54191881
v 1.22887915 -0.33133339 0.40679627
v 1.24049761 -0.32062075 0.42153962
v 1.23506223 -0.12638899 0.56966978
v 1.45336841 -0.12638899 1.15766276
v 1.44902581 -0.12638899 1.17310266
v 1.34095119 -0.12638899 1.50767241
v 1.31043839 -0.12638899 1.53634654
v 1.22887915 -0.12638899 1.57964790
v 1.22887915 -0.14568779 1.58614888
v 1.34989515 -0.21142808 1.55434038
v 1.32579546 -0.12638899 1.52369278
v 1.37117647 -0.27646622 1.53762350
v 1.36657502 -0.29329752 1.53228340
v 1.32619804 -0.33133339 1.53797181
v 1.34716305 -0.24619399 1.55968053
v 1.33450928 -0.26182162 1.56444017
v 1.34716305 -0.27417926 1.55480476
v 1.22887915 -0.31590640 0.41596735
v 1.22887915 -0.33133339 1.56420800
v 1.22887915 -0.12638899 0.56305262
v 1.22887915 -0.17890901 1.59276601
v 1.30350754 -0.32798319 1.56560105
v 1.30710237 -0.33133339 1.55875181
v 1.32130908 -0.33133339 1.54331191
v 1.33450928 -0.25855164 1.56444017
v 1.23149618 -0.33133339 1.56455625
v 1.28481454 -0.33133339 1.56594934
v 1.28849566 -0.33133339 1.56583325
v 1.23540731 -0.33133339 1.56490455
v 1.26333188 -0.33133339 1.56571717
v 1.30045912 -0.33133339 1.56432408
f 1 2 3
f 1 3 4
f 1 4 5
f 1 5 12
f 1 12 26
f 1 26 45
f 1 45 62
f 1 62 72
f 1 72 71
f 1 71 79
f 1 79 76
f 1 76 75
f 1 75 78
f 1 78 77
f 1 77 74
f 1 74 67
f 1 67 49
f 1 49 32
f 1 32 31
f 1 31 30
f 1 30 29
f 1 29 28
f 1 28 15
f 1 15 13
f 1 13 6
f 1 6 2
f 2 6 7
f 2 7 3
f 3 7 8
f 3 8 4
f 4 8 5
f 5 8 9
f 5 9 10
f 5 10 11
f 5 11 12
f 6 13 7
f 7 13 14
f 7 14 15
f 7 15 16
f 7 16 17
f 7 17 18
f 7 18 19
f 7 19 20
f 7 20 21
f 7 21 22
f 7 22 8
f 8 22 23
f 8 23 9
f 9 23 24
f 9 24 10
f 10 25 11
f 10 24 25
f 11 26 12
f 11 25 27
f 11 27 26
f 13 15 14
f 15 28 16
f 16 28 29
f 16 29 30
f 16 30 17
f 17 19 18
f 17 30 31
f 17 31 32
f 17 32 33
f 17 33 51
f 17 51 68
f 17 68 56
f 17 56 55
f 17 55 59
f 17 59 54
f 17 54 42
f 17 42 41
f 17 41 40
f 17 40 53
f 17 53 52
f 17 52 34
f 17 34 20
f 17 20 19
f 20 34 35
f 20 35 21
f 21 35 22
f 22 35 23
f 23 36 24
f 23 35 36
f 24 36 37
f 24 37 38
f 24 38 25
f 25 38 39
f 25 39 40
f 25 40 41
f 25 41 42
f 25 42 43
f 25 43 44
f 25 44 27
f 26 27 46
f 26 46 47
f 26 47 45
f 27 44 48
f 27 48 46
f 32 49 50
f 32 50 33
f 33 50 51
f 34 52 35
f 35 52 37
f 35 37 36
f 37 52 39
f 37 39 38
f 39 52 53
f 39 53 40
f 42 54 44
f 42 44 43
f 44 55 56
f 44 56 57
f 44 57 58
f 44 58 48
f 44 54 59
f 44 59 55
f 45 47 60
f 45 60 61
f 45 61 62
f 46 48 47
f 47 48 63
f 47 63 64
f 47 64 65
f 47 65 60
f 48 58 63
f 49 66 50
f 49 67 69
f 49 69 57
f 49 57 56
f 49 56 68
f 49 68 66
f 50 66 68
f 50 68 51
f 57 69 58
f 58 69 63
f 60 65 70
f 60 70 61
f 61 70 71
f 61 71 72
f 61 72 62
f 63 69 73
f 63 73 64
f 64 73 69
f 64 69 70
f 64 70 65
f 67 74 69
f 69 75 76
f 69 76 70
f 69 74 77
f 69 77 78
f 69 78 75
f 70 76 79
f 70 79 71

