# https://github.com/mikedh/trimesh
v -0.53663818 0.70700973 0.13300572
v -0.53663818 0.71216153 0.13645391
v -0.17900012 0.70700973 0.20060923
v -0.82933961 0.70700973 0.13770779
v -0.82933961 0.70710477 0.13770779
v -0.86187744 0.73185545 0.15264939
v -0.86187744 0.75110064 0.16393410
v -0.86187744 0.76092916 0.16999445
v -0.50423940 0.76092916 0.19945984
v -0.01631098 0.76092916 0.28524411
v -0.17900012 0.71095277 0.20363941
v -0.85436866 0.76092916 0.17030785
v 0.20519658 0.75516505 0.32244173
v 0.20519658 0.73708107 0.31920256
v 0.20519658 0.73185545 0.31888916
v 0.20519658 0.71117446 0.32453142
v 0.20519658 0.70700973 0.32818849
v -0.86215557 0.70700973 0.14136486
v -0.88051023 0.74996579 0.16466549
v -0.89107800 0.76092916 0.17803989
v 0.20519658 0.76092916 0.32808399
v 0.20519658 0.70700973 1.20024165
v -0.86646609 0.70700973 0.14293215
v -1.14150810 0.71807866 0.26183888
v -1.04389461 0.76092916 0.25379343
v -1.12204106 0.73830569 0.27103381
v 0.20519658 0.76092916 1.20024165
v -0.96560915 0.70700973 1.20024165
v -1.14373291 0.70700973 0.26110758
v -1.16695435 0.70700973 0.27573577
v -1.17682697 0.72111378 0.28963267
v -1.15221507 0.73044079 0.28054224
v -1.14109097 0.75010306 0.29318525
v -1.12204106 0.75545009 0.28733390
v -1.08505360 0.76092916 0.27751206
v -0.95921281 0.76092916 1.20024165
v -1.15096360 0.70700973 1.02501600
v -1.18099840 0.70700973 0.28628900
v -1.19671123 0.70700973 0.31011212
v -1.18336232 0.72505677 0.31209742
v -1.14859967 0.76092916 0.34229429
v -1.14637485 0.76092916 0.33801042
v -1.13094034 0.76092916 0.31209742
v -1.12204106 0.76092916 0.29997690
v -1.10785791 0.76092916 1.01132812
v -1.11272457 0.75302200 1.01697046
v -1.14540150 0.72325155 1.01885124
v -1.16584199 0.70700973 0.99638641
v -1.20116086 0.70700973 0.32296413
v -1.20282935 0.71448406 0.34459308
v -1.17877367 0.76092916 0.43497481
v -1.17585363 0.76092916 0.42452609
v -1.17223833 0.76092916 0.41219647
v -1.11536661 0.76092916 0.99941657
v -1.18795096 0.76092916 0.86734429
v -1.18864620 0.76092916 0.86598594
v -1.11939912 0.76092916 0.99283384
v -1.16625911 0.70700973 0.99502807
v -1.19267871 0.76092916 0.85302949
v -1.20519329 0.70700973 0.34459308
v -1.21409255 0.70700973 0.41679395
v -1.21353632 0.76092916 0.73673484
v -1.17946891 0.76092916 0.44061716
v -1.21506581 0.76092916 0.76734972
v -1.21423156 0.70700973 0.43466131
v -1.19893595 0.76092916 0.83234099
v -1.21520491 0.76092916 0.76369264
f 1 2 3
f 1 3 17
f 1 17 22
f 1 22 28
f 1 28 37
f 1 37 48
f 1 48 58
f 1 58 65
f 1 65 61
f 1 61 60
f 1 60 49
f 1 49 39
f 1 39 38
f 1 38 30
f 1 30 29
f 1 29 23
f 1 23 18
f 1 18 4
f 1 4 5
f 1 5 6
f 1 6 7
f 1 7 8
f 1 8 2
f 2 9 10
f 2 10 11
f 2 11 3
f 2 8 12
f 2 12 9
f 3 11 13
f 3 13 14
f 3 14 15
f 3 15 16
f 3 16 17
f 4 18 5
f 5 18 6
f 6 18 19
f 6 19 7
f 7 19 8
f 8 19 20
f 8 20 25
f 8 25 35
f 8 35 44
f 8 44 43
f 8 43 42
f 8 42 41
f 8 41 53
f 8 53 52
f 8 52 51
f 8 51 63
f 8 63 62
f 8 62 67
f 8 67 64
f 8 64 66
f 8 66 59
f 8 59 56
f 8 56 55
f 8 55 57
f 8 57 54
f 8 54 45
f 8 45 36
f 8 36 27
f 8 27 21
f 8 21 10
f 8 10 9
f 8 9 12
f 10 21 11
f 11 21 13
f 13 21 27
f 13 27 22
f 13 22 17
f 13 17 16
f 13 16 15
f 13 15 14
f 18 23 19
f 19 23 24
f 19 24 20
f 20 24 26
f 20 26 25
f 22 27 36
f 22 36 28
f 23 29 24
f 24 29 30
f 24 30 31
f 24 31 32
f 24 32 33
f 24 33 34
f 24 34 26
f 25 26 34
f 25 34 35
f 28 36 37
f 30 38 31
f 31 38 39
f 31 39 40
f 31 40 33
f 31 33 32
f 33 41 42
f 33 42 43
f 33 43 44
f 33 44 34
f 33 40 41
f 34 44 35
f 36 45 46
f 36 46 47
f 36 47 37
f 37 47 48
f 39 49 40
f 40 49 50
f 40 50 51
f 40 51 52
f 40 52 53
f 40 53 41
f 45 54 47
f 45 47 46
f 47 55 56
f 47 56 48
f 47 54 57
f 47 57 55
f 48 56 59
f 48 59 58
f 49 60 50
f 50 60 61
f 50 61 62
f 50 62 63
f 50 63 51
f 58 64 65
f 58 59 66
f 58 66 64
f 61 65 67
f 61 67 62
f 64 67 65

