# https://github.com/mikedh/trimesh
v -0.96703646 0.21446155 0.08326175
v -0.99222040 0.21446155 0.08806849
v -0.96703646 0.21902138 0.08386256
v -0.96703646 0.21446155 1.61752649
v -0.99532939 0.21446155 0.08866941
v -0.99365131 0.24599004 0.09332602
v -0.96703646 0.24441095 0.08896982
v -0.96703646 0.39570157 1.55398687
v -1.01951177 0.21446155 1.60956528
v -1.02249066 0.21446155 0.09572929
v -1.01905645 0.23649777 0.09693112
v -0.98280242 0.39570157 0.13042834
v -0.96703646 0.39570157 0.12697349
v -1.06522275 0.39570157 1.45815165
v -1.04247137 0.21446155 1.59078878
v -1.03820466 0.21446155 0.10158762
v -1.04098843 0.21446155 0.10308977
v -1.09991581 0.24572389 0.14439804
v -1.05998046 0.24659328 0.12246704
v -1.07271556 0.25919048 0.13343254
v -0.99080249 0.39570157 0.13478454
v -1.07717741 0.39570157 1.44177853
v -1.05229262 0.21446155 1.58042416
v -1.09991581 0.21446155 0.14364697
v -1.09991581 0.21772617 0.14334656
v -1.09991581 0.25310478 0.14680142
v -1.09991581 0.27327806 0.15746641
v -1.01302062 0.39570157 0.15806734
v -1.08029939 0.39570157 1.43261563
v -1.07577249 0.21446155 1.52739936
v -1.06822773 0.21446155 1.54752775
v -1.05692353 0.21446155 1.57231269
v -1.09991581 0.21446155 1.42330248
v -1.09991581 0.27879600 0.16197286
v -1.09991581 0.28773823 0.17008422
v -1.09991581 0.28871406 0.17098555
v -1.09991581 0.30487753 0.18615688
v -1.09991581 0.31092773 0.19351736
v -1.09991581 0.33173973 0.21905338
v -1.09991581 0.39570157 0.30918056
v -1.08491730 0.39570157 1.41789486
v -1.08205551 0.21446155 1.50156288
v -1.08779209 0.37405569 1.41789486
v -1.09991581 0.37405569 1.35991301
v -1.09991581 0.39570157 1.34819649
v -1.09991581 0.39561287 1.34924797
v -1.09991581 0.38958041 1.35225222
f 1 2 3
f 1 3 7
f 1 7 13
f 1 13 8
f 1 8 4
f 1 4 9
f 1 9 15
f 1 15 23
f 1 23 32
f 1 32 31
f 1 31 30
f 1 30 42
f 1 42 33
f 1 33 24
f 1 24 17
f 1 17 16
f 1 16 10
f 1 10 5
f 1 5 2
f 2 5 3
f 3 5 6
f 3 6 7
f 4 8 9
f 5 10 11
f 5 11 6
f 6 11 12
f 6 12 13
f 6 13 7
f 8 14 15
f 8 15 9
f 8 13 12
f 8 12 21
f 8 21 28
f 8 28 40
f 8 40 45
f 8 45 41
f 8 41 29
f 8 29 22
f 8 22 14
f 10 16 11
f 11 16 17
f 11 17 18
f 11 18 19
f 11 19 20
f 11 20 12
f 12 20 21
f 14 22 23
f 14 23 15
f 17 24 25
f 17 25 18
f 18 25 24
f 18 24 33
f 18 33 44
f 18 44 47
f 18 47 46
f 18 46 45
f 18 45 40
f 18 40 39
f 18 39 38
f 18 38 37
f 18 37 36
f 18 36 35
f 18 35 34
f 18 34 27
f 18 27 26
f 18 26 20
f 18 20 19
f 20 26 21
f 21 26 27
f 21 27 28
f 22 29 30
f 22 30 31
f 22 31 32
f 22 32 23
f 27 34 28
f 28 34 35
f 28 35 36
f 28 36 37
f 28 37 38
f 28 38 39
f 28 39 40
f 29 41 30
f 30 41 43
f 30 43 42
f 33 42 43
f 33 43 44
f 41 45 46
f 41 46 43
f 43 46 47
f 43 47 44

