# https://github.com/mikedh/trimesh
v -0.33178447 -0.95480467 1.98459279
v -0.52545451 -0.95480467 2.08167671
v -0.33178447 -1.08582232 1.90688945
v -0.33178447 -0.95480467 0.26678677
v -0.54142584 -0.95480467 2.08837840
v -0.33178447 -1.10638989 1.88769001
v -0.56332125 -0.95480467 2.09743471
v -0.57384238 -0.97657417 2.08475585
v -0.57384238 -0.98676882 2.07660512
v -0.57384238 -1.00384906 2.06283957
v -0.57384238 -1.01131336 2.05595681
v -0.33178447 -1.07487078 0.32746417
v -0.34088383 -0.95480467 0.26171519
v -0.57384238 -1.06342960 1.96629900
v -0.57384238 -1.07034475 1.94800520
v -0.57384238 -1.07261523 1.93822438
v -0.57384238 -1.10638989 1.74786014
v -0.33178447 -1.10638989 0.40009603
v -0.57384238 -0.95480467 2.10141963
v -0.37408239 -0.95480467 0.25102877
v -0.33178447 -1.08959155 0.34376562
v -0.43943686 -1.10638989 0.34738817
v -0.57384238 -1.10638989 0.38560587
v -0.41536141 -1.10638989 0.35535781
v -0.33178447 -1.10342194 0.37636848
v -0.57384238 -0.95480467 0.36676874
v -0.40659373 -0.95480467 0.25936058
v -0.47161646 -1.10638989 0.34793160
v -0.50642636 -1.10638989 0.35626340
v -0.51699490 -1.10638989 0.35879911
v -0.33178447 -1.09509703 0.35499546
v -0.33178447 -1.10199735 0.37075346
v -0.57384238 -0.99208140 0.36767433
v -0.52104699 -0.95480467 0.32764545
v -0.43457912 -0.95480467 0.27566201
v -0.52178160 -1.10638989 0.36006705
v -0.52988573 -0.95480467 0.33380372
v -0.57384238 -0.95511623 0.36676874
f 1 2 3
f 1 3 6
f 1 6 18
f 1 18 25
f 1 25 32
f 1 32 31
f 1 31 21
f 1 21 12
f 1 12 4
f 1 4 13
f 1 13 20
f 1 20 27
f 1 27 35
f 1 35 34
f 1 34 37
f 1 37 26
f 1 26 19
f 1 19 7
f 1 7 5
f 1 5 2
f 2 5 3
f 3 5 7
f 3 7 8
f 3 8 9
f 3 9 10
f 3 10 11
f 3 11 6
f 4 12 13
f 6 11 14
f 6 14 15
f 6 15 16
f 6 16 17
f 6 17 23
f 6 23 36
f 6 36 30
f 6 30 29
f 6 29 28
f 6 28 22
f 6 22 24
f 6 24 18
f 7 19 8
f 8 19 26
f 8 26 38
f 8 38 33
f 8 33 23
f 8 23 17
f 8 17 16
f 8 16 15
f 8 15 14
f 8 14 11
f 8 11 10
f 8 10 9
f 12 20 13
f 12 21 22
f 12 22 20
f 18 24 25
f 20 22 28
f 20 28 29
f 20 29 30
f 20 30 27
f 21 31 22
f 22 31 32
f 22 32 24
f 23 33 34
f 23 34 35
f 23 35 27
f 23 27 36
f 24 32 25
f 26 37 38
f 27 30 36
f 33 38 37
f 33 37 34

