# https://github.com/mikedh/trimesh
v 0.30923069 1.34221758 1.36603778
v -0.26978472 1.34221758 1.36603778
v 0.30923069 1.08293474 1.36603778
v 0.30923069 1.34221758 0.85871493
v -0.36741324 1.19922628 1.36603778
v -0.36741324 1.34221758 1.27771734
v -0.36741324 1.08293474 1.36603778
v 0.30923069 1.08293474 0.45941965
v 0.30923069 1.32709103 0.80953751
v 0.30909823 1.34221758 0.82806944
v -0.36741324 1.34221758 0.85527973
v -0.36741324 1.08293474 0.44251491
v 0.30492552 1.08293474 0.45706924
v 0.30923069 1.08780770 0.46167966
v 0.30923069 1.26351393 0.63922456
v 0.19563983 1.34221758 0.71805305
v -0.35648468 1.34221758 0.83810379
v -0.26024705 1.30117802 0.58841997
v -0.36741324 1.31561922 0.79706234
v -0.36741324 1.09006654 0.44640213
v -0.17884577 1.24404748 0.51655222
v -0.17884577 1.21975876 0.50407707
v -0.17884577 1.18003891 0.48536436
v -0.14632501 1.17904908 0.48500277
v 0.27644499 1.08293474 0.45173568
v 0.29790473 1.08293474 0.45544204
v 0.30923069 1.12354282 0.48238119
v 0.30923069 1.26331094 0.63886297
v 0.13503595 1.33665936 0.64808374
v 0.18610218 1.34221758 0.70892269
v -0.34780807 1.34221758 0.82653262
v -0.24388731 1.30655855 0.58236320
v -0.36741324 1.17760238 0.51510587
v -0.36741324 1.26394540 0.68984835
v -0.36741324 1.10785801 0.45670767
v -0.11380424 1.26376781 0.52568260
v -0.20176265 1.24143326 0.51790824
v -0.21136654 1.29587359 0.56021526
v 0.27644499 1.08331541 0.45191647
v 0.27909435 1.08293474 0.45209726
v 0.04873338 1.30493426 0.58525597
v 0.06886844 1.30249773 0.58724480
v 0.30923069 1.12519251 0.48382754
v 0.30923069 1.24643321 0.60939269
v 0.30923069 1.24628092 0.60921185
v 0.11384115 1.32668495 0.62828619
v 0.06628532 1.33404524 0.62042144
v 0.11384115 1.33942577 0.64455816
v 0.10927102 1.34221758 0.64817414
v 0.12470349 1.34221758 0.65866046
v -0.34264182 1.34221758 0.81993345
v -0.20951200 1.32691344 0.60659026
v -0.21136654 1.31181228 0.57648723
v -0.23805876 1.27595017 0.55135611
v -0.24693406 1.28600067 0.56428325
v -0.36741324 1.16034397 0.49883390
v -0.14632501 1.28224443 0.54385294
v -0.11380424 1.28270130 0.54195451
v -0.14632501 1.29851310 0.55858806
v 0.01621260 1.30744689 0.58290557
v 0.01621260 1.32371556 0.60017193
v 0.04873338 1.32117753 0.60270312
v 0.30923069 1.14676562 0.50434830
v 0.04873338 1.33521266 0.61897503
v 0.03800351 1.34221758 0.62602619
v 0.05615156 1.34221758 0.63018462
v -0.17884577 1.34221758 0.62792461
v -0.19745745 1.33447662 0.61861346
v -0.17884577 1.33681165 0.61463585
v -0.14632501 1.31221836 0.57486002
v -0.17884577 1.32851233 0.59836393
v -0.14632501 1.32848693 0.59574235
v -0.11380424 1.29896997 0.55858806
v -0.01630816 1.32473069 0.59755035
v -0.01630816 1.33945117 0.61382226
v -0.01630816 1.34221758 0.61725744
v -0.14645748 1.34221758 0.61608227
v -0.08128346 1.34221758 0.61327985
v -0.14632501 1.33957806 0.61201427
v -0.11380424 1.34221758 0.61400310
v -0.05147828 1.34221758 0.61382226
v -0.04876270 1.34082167 0.61219506
v -0.04876270 1.34221758 0.61391265
v -0.02140816 1.34221758 0.61671502
f 1 2 5
f 1 5 7
f 1 7 3
f 1 3 8
f 1 8 14
f 1 14 27
f 1 27 43
f 1 43 63
f 1 63 45
f 1 45 44
f 1 44 28
f 1 28 15
f 1 15 9
f 1 9 4
f 1 4 10
f 1 10 16
f 1 16 30
f 1 30 50
f 1 50 49
f 1 49 66
f 1 66 65
f 1 65 76
f 1 76 84
f 1 84 83
f 1 83 81
f 1 81 78
f 1 78 80
f 1 80 77
f 1 77 67
f 1 67 51
f 1 51 31
f 1 31 17
f 1 17 11
f 1 11 6
f 1 6 2
f 2 6 5
f 3 7 12
f 3 12 25
f 3 25 40
f 3 40 26
f 3 26 13
f 3 13 8
f 4 9 10
f 5 6 11
f 5 11 19
f 5 19 34
f 5 34 33
f 5 33 56
f 5 56 35
f 5 35 20
f 5 20 12
f 5 12 7
f 8 13 14
f 9 15 10
f 10 15 16
f 11 17 18
f 11 18 19
f 12 20 21
f 12 21 22
f 12 22 23
f 12 23 24
f 12 24 25
f 13 26 27
f 13 27 14
f 15 28 29
f 15 29 30
f 15 30 16
f 17 31 32
f 17 32 18
f 18 32 33
f 18 33 34
f 18 34 19
f 20 35 21
f 21 36 22
f 21 35 37
f 21 37 38
f 21 38 36
f 22 36 24
f 22 24 23
f 24 36 25
f 25 39 40
f 25 36 39
f 26 40 27
f 27 36 41
f 27 41 42
f 27 42 43
f 27 40 39
f 27 39 36
f 28 44 29
f 29 44 45
f 29 45 46
f 29 46 47
f 29 47 48
f 29 48 49
f 29 49 50
f 29 50 30
f 31 51 32
f 32 52 53
f 32 53 38
f 32 38 54
f 32 54 55
f 32 55 33
f 32 51 52
f 33 55 56
f 35 56 54
f 35 54 37
f 36 38 57
f 36 57 58
f 36 58 41
f 37 54 38
f 38 53 59
f 38 59 58
f 38 58 57
f 41 58 60
f 41 60 61
f 41 61 62
f 41 62 47
f 41 47 42
f 42 47 46
f 42 46 45
f 42 45 63
f 42 63 43
f 47 62 61
f 47 61 64
f 47 64 65
f 47 65 66
f 47 66 48
f 48 66 49
f 51 67 68
f 51 68 52
f 52 68 69
f 52 69 53
f 53 70 59
f 53 69 71
f 53 71 72
f 53 72 70
f 54 56 55
f 58 59 73
f 58 73 60
f 59 70 73
f 60 73 61
f 61 74 75
f 61 75 64
f 61 73 74
f 64 76 65
f 64 75 76
f 67 77 69
f 67 69 68
f 69 77 71
f 70 72 78
f 70 78 73
f 71 77 79
f 71 79 72
f 72 79 80
f 72 80 78
f 73 78 81
f 73 81 82
f 73 82 75
f 73 75 74
f 75 82 83
f 75 83 84
f 75 84 76
f 77 80 79
f 81 83 82

