# https://github.com/mikedh/trimesh
v 0.94491857 -0.70764889 0.44387403
v 0.94491857 -0.68613462 0.40586102
v 0.95954551 -0.62417057 0.28848764
v 0.99207228 -0.62516525 0.28748735
v 0.95929725 -0.70764889 0.44387403
v 0.94491857 -0.70764889 1.81900967
v 0.94491857 -0.62092873 0.29198885
v 0.94491857 -0.59521474 0.26464620
v 0.95954551 -0.60851382 0.27214880
v 0.99207228 -0.60976635 0.27131513
v 1.06020691 -0.59270967 0.25547647
v 1.05711450 -0.60884534 0.27464959
v 1.05711450 -0.62100240 0.29082190
v 1.06020691 -0.70764889 0.47638510
v 0.95067455 -0.70764889 1.81600868
v 0.97916085 -0.68466102 1.82617880
v 0.94491857 -0.70278605 1.82384465
v 0.94491857 -0.52227253 0.19612285
v 0.99207228 -0.52363558 0.19428890
v 1.06020691 -0.56721670 0.23880415
v 1.06020691 -0.60895585 0.27531652
v 1.01206008 -0.52264095 0.19562266
v 1.06020691 -0.62074450 0.29132200
v 1.06020691 -0.70764889 1.72414399
v 0.95602425 -0.70764889 1.81300763
v 0.95954551 -0.70547535 1.81350783
v 1.00085291 -0.67721945 1.81950987
v 0.99083081 -0.66653599 1.83184743
v 0.95954551 -0.66679390 1.84201755
v 0.95954551 -0.68922912 1.82951327
v 0.98188084 -0.70764889 1.79833596
v 0.98868644 -0.69703910 1.80600523
v 0.94491857 -0.69390777 1.83084703
v 0.94491857 -0.51413098 0.19028759
v 0.99207228 -0.50418434 0.17995073
v 1.06020691 -0.56566947 0.23797048
v 1.02357201 -0.50307915 0.18895373
v 1.06020691 -0.70750154 1.72431072
v 1.04928193 -0.70764889 1.73831551
v 1.01139421 -0.65552101 1.82717910
v 1.01336932 -0.68771873 1.79783581
v 0.95954551 -0.63426460 1.85052045
v 0.94491857 -0.68116128 1.83801616
v 0.94491857 -0.66679390 1.84451835
v 0.99688021 -0.70764889 1.78699875
v 0.94491857 -0.50418434 0.18328519
v 0.94491857 -0.47946503 0.16928041
v 0.95954551 -0.48082812 0.16944714
v 0.95954551 -0.46454505 0.16161109
v 0.98565046 -0.46244518 0.16227801
v 0.99472451 -0.47264972 0.16744644
v 1.06020691 -0.55259146 0.23146829
v 1.02458772 -0.47165504 0.17744983
v 1.06020691 -0.50764725 0.21112805
v 1.06020691 -0.69873376 1.73047950
v 1.04331154 -0.68639253 1.76299057
v 1.03254447 -0.70764889 1.75432094
v 1.01089759 -0.63426460 1.82684573
v 0.99207228 -0.63426460 1.83868309
v 1.03561430 -0.66679390 1.78366429
v 1.02282713 -0.63426460 1.80817267
v 0.99941959 -0.70764889 1.78499811
v 0.94491857 -0.64888989 1.84918668
v 0.94491857 -0.59458847 1.85935681
v 0.94491857 -0.63518560 1.85268788
v 0.94491857 -0.46318196 0.16261149
v 0.94491857 -0.45312477 0.16061078
v 0.94491857 -0.43912579 0.15810988
v 0.95954551 -0.43912579 0.15710959
v 0.99472451 -0.44045200 0.16144435
v 1.00731992 -0.45220381 0.16611267
v 1.04712622 -0.47165504 0.19312185
v 1.01014148 -0.43050532 0.16477881
v 1.02783815 -0.40659650 0.17378190
v 1.06020691 -0.47165504 0.20262505
v 1.06020691 -0.66605712 1.73164658
v 1.05538775 -0.66679390 1.74315047
v 1.04428208 -0.66679390 1.76732538
v 1.00869682 -0.61717108 1.82501177
v 0.94491857 -0.56688517 1.86035711
v 1.06020691 -0.33148076 1.70863870
v 1.03652852 -0.63426460 1.78099671
v 1.06020691 -0.37436194 1.71380713
v 0.94491857 -0.42450051 0.15727631
v 0.95954551 -0.40659650 0.15760978
v 0.99207228 -0.40659650 0.16044406
v 1.01157481 -0.40659650 0.16427871
v 1.02830092 -0.37406722 0.17294834
v 1.06020691 -0.46495025 0.20212486
v 0.94491857 -0.55612804 1.85518868
v 1.04263433 -0.33133341 1.72030937
v 1.01938478 -0.33133341 1.72847880
v 1.00246682 -0.33133341 1.73364723
v 0.99207228 -0.33133341 1.73648154
v 1.06020691 -0.33133341 1.70413715
v 0.94491857 -0.40659650 0.15760978
v 0.94491857 -0.39197121 0.15894355
v 1.01076217 -0.35516856 0.16477881
v 1.01203749 -0.37406722 0.16427871
v 1.04675380 -0.33133341 0.19145462
v 1.04717141 -0.34153795 0.19062096
v 1.04781469 -0.37406722 0.18912046
v 1.06020691 -0.43131581 0.20279178
v 0.95994053 -0.33133341 1.73998274
v 0.94491857 -0.33133341 1.73698170
v 1.06020691 -0.33133341 0.21162815
v 0.94491857 -0.37240944 0.16177782
v 0.94491857 -0.36375215 0.16327831
v 0.99921641 -0.35516856 0.16477881
v 0.95820244 -0.33133341 0.16961387
v 0.97934146 -0.33133341 0.17011397
v 0.99062763 -0.33133341 0.17094764
v 1.01213908 -0.33133341 0.17461557
v 1.02342525 -0.33133341 0.17728310
v 0.94491857 -0.33133341 0.16961387
f 1 2 3
f 1 3 4
f 1 4 5
f 1 5 14
f 1 14 24
f 1 24 39
f 1 39 57
f 1 57 62
f 1 62 45
f 1 45 31
f 1 31 25
f 1 25 15
f 1 15 6
f 1 6 17
f 1 17 33
f 1 33 43
f 1 43 44
f 1 44 63
f 1 63 65
f 1 65 64
f 1 64 80
f 1 80 90
f 1 90 105
f 1 105 115
f 1 115 108
f 1 108 107
f 1 107 97
f 1 97 96
f 1 96 84
f 1 84 68
f 1 68 67
f 1 67 66
f 1 66 47
f 1 47 46
f 1 46 34
f 1 34 18
f 1 18 8
f 1 8 7
f 1 7 2
f 2 7 3
f 3 7 8
f 3 8 9
f 3 9 10
f 3 10 4
f 4 10 11
f 4 11 12
f 4 12 13
f 4 13 5
f 5 13 14
f 6 15 16
f 6 16 17
f 8 18 9
f 9 18 19
f 9 19 10
f 10 19 11
f 11 20 36
f 11 36 52
f 11 52 54
f 11 54 75
f 11 75 89
f 11 89 103
f 11 103 106
f 11 106 95
f 11 95 81
f 11 81 83
f 11 83 76
f 11 76 55
f 11 55 38
f 11 38 24
f 11 24 14
f 11 14 23
f 11 23 21
f 11 21 12
f 11 19 22
f 11 22 20
f 12 21 13
f 13 21 23
f 13 23 14
f 15 25 26
f 15 26 16
f 16 27 28
f 16 28 29
f 16 29 30
f 16 30 17
f 16 26 31
f 16 31 32
f 16 32 27
f 17 30 33
f 18 34 35
f 18 35 19
f 19 35 22
f 20 22 37
f 20 37 36
f 22 35 37
f 24 38 39
f 25 31 26
f 27 40 28
f 27 32 41
f 27 41 40
f 28 42 29
f 28 40 42
f 29 43 30
f 29 42 44
f 29 44 43
f 30 43 33
f 31 45 32
f 32 45 41
f 34 46 35
f 35 46 47
f 35 47 48
f 35 48 49
f 35 49 50
f 35 50 51
f 35 51 37
f 36 37 52
f 37 51 53
f 37 53 54
f 37 54 52
f 38 55 56
f 38 56 39
f 39 56 40
f 39 40 41
f 39 41 57
f 40 58 59
f 40 59 42
f 40 56 60
f 40 60 61
f 40 61 58
f 41 45 62
f 41 62 57
f 42 63 44
f 42 59 64
f 42 64 65
f 42 65 63
f 47 66 49
f 47 49 48
f 49 66 67
f 49 67 68
f 49 68 69
f 49 69 50
f 50 69 70
f 50 70 71
f 50 71 51
f 51 71 53
f 53 72 54
f 53 71 73
f 53 73 74
f 53 74 72
f 54 72 75
f 55 76 77
f 55 77 78
f 55 78 60
f 55 60 56
f 58 79 80
f 58 80 59
f 58 61 81
f 58 81 79
f 59 80 64
f 60 78 61
f 61 78 82
f 61 82 83
f 61 83 81
f 68 84 69
f 69 84 85
f 69 85 86
f 69 86 70
f 70 86 87
f 70 87 73
f 70 73 71
f 72 74 75
f 73 87 74
f 74 87 88
f 74 88 89
f 74 89 75
f 76 83 77
f 77 83 78
f 78 83 82
f 79 81 80
f 80 81 91
f 80 91 92
f 80 92 93
f 80 93 94
f 80 94 90
f 81 95 91
f 84 96 85
f 85 96 97
f 85 97 98
f 85 98 86
f 86 98 99
f 86 99 87
f 87 99 88
f 88 99 98
f 88 98 100
f 88 100 101
f 88 101 102
f 88 102 89
f 89 102 103
f 90 104 105
f 90 94 104
f 91 95 106
f 91 106 100
f 91 100 114
f 91 114 113
f 91 113 112
f 91 112 111
f 91 111 110
f 91 110 115
f 91 115 105
f 91 105 104
f 91 104 94
f 91 94 93
f 91 93 92
f 97 107 98
f 98 107 108
f 98 108 109
f 98 109 115
f 98 115 110
f 98 110 111
f 98 111 112
f 98 112 113
f 98 113 114
f 98 114 100
f 100 106 101
f 101 106 103
f 101 103 102
f 108 115 109

