# https://github.com/mikedh/trimesh
v 0.20533564 0.70701942 2.10969443
v 0.20533564 0.70867201 2.10834641
v 0.02457297 0.77665144 2.14618770
v 0.04142424 0.75497345 2.15514252
v 0.01794004 0.73188594 2.17738517
v 0.18167216 0.70701942 2.11932325
v 0.20533564 0.70701942 1.20034609
v 0.02385591 0.80632011 2.11845663
v 0.20533564 0.80632011 2.00984323
v 0.00975343 0.80632011 2.12606343
v 0.00288146 0.78194943 2.15080960
v 0.01471320 0.76523891 2.15889779
v 0.00819977 0.72105663 2.18402910
v 0.00819977 0.70750547 2.18402910
v 0.00867782 0.70701942 2.18374022
v -0.40513419 0.70701942 1.20034609
v 0.20533564 0.80632011 1.20034609
v -0.00644051 0.80632011 2.12654492
v -0.00255637 0.78194943 2.15080960
v -0.00297465 0.72105663 2.18402910
v -0.00297465 0.70750547 2.18402910
v -0.00357222 0.70701942 2.18354760
v -0.40513419 0.80632011 1.20034609
v -0.40513419 0.70701942 1.95235906
v -0.01391004 0.80632011 2.12654492
v -0.13706767 0.70701942 2.15716464
v -0.02568203 0.80632011 2.12375253
v -0.14632989 0.77195617 2.11017582
v -0.16503360 0.75133775 2.11855298
v -0.11579444 0.70701942 2.16140130
v -0.40513419 0.80632011 1.83864238
v -0.27151924 0.70701942 2.06549800
v -0.35828529 0.71652664 1.98760058
v -0.35009871 0.73821432 1.98047528
v -0.36151216 0.75265984 1.95881036
v -0.40513419 0.71223961 1.94783347
v -0.14979575 0.70701942 2.15061699
v -0.03434668 0.80632011 2.11922691
v -0.16778239 0.78420468 2.08976267
v -0.17877754 0.70701942 2.13174447
v -0.17722387 0.76358632 2.10054700
v -0.19999099 0.75416659 2.08957006
v -0.17596899 0.80632011 2.03632255
v -0.34017917 0.75857023 1.97007609
v -0.26691800 0.72127053 2.05933547
v -0.32840719 0.75059899 1.98943008
v -0.14632989 0.80632011 2.06020209
v -0.15481527 0.80632011 2.05413592
f 1 2 3
f 1 3 4
f 1 4 5
f 1 5 6
f 1 6 15
f 1 15 22
f 1 22 30
f 1 30 26
f 1 26 37
f 1 37 40
f 1 40 32
f 1 32 24
f 1 24 16
f 1 16 7
f 1 7 17
f 1 17 9
f 1 9 2
f 2 8 3
f 2 9 8
f 3 8 10
f 3 10 11
f 3 11 12
f 3 12 4
f 4 12 5
f 5 12 11
f 5 11 13
f 5 13 6
f 6 13 14
f 6 14 15
f 7 16 23
f 7 23 17
f 8 9 17
f 8 17 23
f 8 23 31
f 8 31 43
f 8 43 48
f 8 48 47
f 8 47 38
f 8 38 27
f 8 27 25
f 8 25 18
f 8 18 10
f 10 18 11
f 11 18 25
f 11 25 19
f 11 19 20
f 11 20 13
f 13 20 21
f 13 21 14
f 14 21 15
f 15 21 22
f 16 24 36
f 16 36 31
f 16 31 23
f 19 26 20
f 19 25 27
f 19 27 28
f 19 28 29
f 19 29 26
f 20 26 21
f 21 26 30
f 21 30 22
f 24 32 33
f 24 33 34
f 24 34 35
f 24 35 36
f 26 29 37
f 27 38 39
f 27 39 28
f 28 39 29
f 29 40 37
f 29 39 41
f 29 41 42
f 29 42 32
f 29 32 40
f 31 36 35
f 31 35 44
f 31 44 39
f 31 39 43
f 32 42 45
f 32 45 46
f 32 46 34
f 32 34 33
f 34 46 35
f 35 46 39
f 35 39 44
f 38 47 39
f 39 47 48
f 39 48 43
f 39 46 41
f 41 46 42
f 42 46 45

