# https://github.com/mikedh/trimesh
v -1.00060309 0.90469756 1.18146606
v -1.07972629 0.90469756 1.14616985
v -1.00060309 0.89407493 1.17908794
v -1.00060309 0.90469756 0.57367041
v -1.08031064 0.90469756 1.14579435
v -1.00060309 0.83086881 1.15017509
v -1.00060309 0.86195665 1.16744770
v -1.00060309 0.86708979 0.54212915
v -1.00111735 0.90469756 0.57385817
v -1.11375978 0.90469756 1.11925961
v -1.11546616 0.90166389 1.11675635
v -1.00060309 0.80632020 1.12845918
v -1.07198930 0.84706759 1.10793229
v -1.00060309 0.80632020 0.54212915
v -1.02273892 0.85527289 0.54212915
v -1.11179629 0.90469756 0.61716486
v -1.09989864 0.90469756 0.61228352
v -1.11600379 0.90469756 1.11731957
v -1.14297806 0.90469756 1.09172358
v -1.14606359 0.89448905 1.08477700
v -1.14017317 0.87680712 1.07789297
v -1.07332161 0.81322537 1.07626584
v -1.06792208 0.80632020 1.07069606
v -1.10029599 0.80632020 0.54212915
v -1.05798790 0.83520261 0.54212915
v -1.06817917 0.82869227 0.54212915
v -1.08942675 0.81488184 0.54212915
v -1.17371575 0.90469756 0.65202299
v -1.14758289 0.90469756 1.08659186
v -1.16233226 0.89448905 1.06406237
v -1.17126140 0.87781837 1.04434907
v -1.20630002 0.80632020 0.89146143
v -1.21169955 0.86195665 0.67542867
v -1.20861411 0.88455021 0.67786935
v -1.17712846 0.89448905 0.65058361
v -1.23713116 0.80632020 0.71823467
v -1.23797267 0.80931534 0.71554368
v -1.23930508 0.82944344 0.71316555
v -1.18551996 0.90469756 0.66892012
v -1.15873258 0.90469756 1.07238576
v -1.16385166 0.90469756 1.06543918
v -1.17228990 0.89448905 1.04779108
v -1.22577112 0.82944344 0.86492670
v -1.21726270 0.80632020 0.86642866
v -1.20817004 0.80632020 0.88883300
v -1.17067705 0.90469756 1.05429959
v -1.23844021 0.84984117 0.71441722
v -1.19837603 0.90469756 0.68888376
v -1.21258779 0.89502831 0.70277693
v -1.20959580 0.90469756 0.70815901
v -1.23822986 0.80632020 0.72743421
v -1.23848693 0.80632020 0.73500663
v -1.23939853 0.82974201 0.73625825
v -1.17294442 0.90469756 1.04916789
v -1.22920718 0.86195665 0.86492670
v -1.23724808 0.80632020 0.75428189
v -1.22322331 0.90469756 0.79996664
v -1.22203117 0.90469756 0.77762492
v -1.21880547 0.90469756 0.74326743
v -1.21728607 0.90469756 0.73488144
v -1.21167618 0.90469756 0.71429201
v -1.23844021 0.84984117 0.72637031
v -1.22724370 0.89448905 0.83244667
v -1.23294713 0.86195665 0.83244667
v -1.21826785 0.90469756 0.86461379
v -1.22245188 0.89448905 0.86492670
v -1.22357393 0.90469756 0.83244667
f 1 2 3
f 1 3 7
f 1 7 6
f 1 6 12
f 1 12 14
f 1 14 8
f 1 8 4
f 1 4 9
f 1 9 17
f 1 17 16
f 1 16 28
f 1 28 39
f 1 39 48
f 1 48 50
f 1 50 61
f 1 61 60
f 1 60 59
f 1 59 58
f 1 58 57
f 1 57 67
f 1 67 65
f 1 65 54
f 1 54 46
f 1 46 41
f 1 41 40
f 1 40 29
f 1 29 19
f 1 19 18
f 1 18 10
f 1 10 5
f 1 5 2
f 2 5 6
f 2 6 7
f 2 7 3
f 4 8 9
f 5 10 11
f 5 11 6
f 6 11 13
f 6 13 12
f 8 14 24
f 8 24 27
f 8 27 26
f 8 26 25
f 8 25 15
f 8 15 16
f 8 16 17
f 8 17 9
f 10 18 11
f 11 19 20
f 11 20 21
f 11 21 13
f 11 18 19
f 12 13 22
f 12 22 23
f 12 23 32
f 12 32 45
f 12 45 44
f 12 44 56
f 12 56 52
f 12 52 51
f 12 51 36
f 12 36 24
f 12 24 14
f 13 21 22
f 15 25 16
f 16 25 26
f 16 26 27
f 16 27 24
f 16 24 28
f 19 29 20
f 20 29 30
f 20 30 31
f 20 31 21
f 21 31 22
f 22 31 32
f 22 32 23
f 24 33 34
f 24 34 35
f 24 35 28
f 24 36 37
f 24 37 38
f 24 38 33
f 28 35 34
f 28 34 39
f 29 40 30
f 30 40 41
f 30 41 31
f 31 42 43
f 31 43 44
f 31 44 45
f 31 45 32
f 31 41 46
f 31 46 42
f 33 38 47
f 33 47 34
f 34 48 39
f 34 47 49
f 34 49 50
f 34 50 48
f 36 51 37
f 37 51 38
f 38 51 52
f 38 52 53
f 38 53 47
f 42 46 54
f 42 54 43
f 43 54 55
f 43 55 56
f 43 56 44
f 47 57 58
f 47 58 59
f 47 59 60
f 47 60 61
f 47 61 49
f 47 53 62
f 47 62 63
f 47 63 57
f 49 61 50
f 52 56 53
f 53 64 62
f 53 56 64
f 54 65 66
f 54 66 55
f 55 66 63
f 55 63 64
f 55 64 56
f 57 63 67
f 62 64 63
f 63 66 67
f 65 67 66

