# https://github.com/mikedh/trimesh
v -1.29713261 -0.23452819 0.91616421
v -1.42292832 -0.23452819 0.91616421
v -1.29713261 -0.32388554 0.91616421
v -1.29713261 -0.23452819 0.30340520
v -1.42533082 -0.32388554 0.91616421
v -1.45432558 -0.23452819 0.86452117
v -1.29713261 -0.32388554 0.32925674
v -1.36116958 -0.23452819 0.30838353
v -1.49688570 -0.23452819 0.79134516
v -1.50222901 -0.23452819 0.77718983
v -1.50548059 -0.23452819 0.76735301
v -1.44504718 -0.32388554 0.83243167
v -1.31794669 -0.32388554 0.33189587
v -1.38337123 -0.23452819 0.31012298
v -1.50866993 -0.23452819 0.64667261
v -1.50755156 -0.24395817 0.63725569
v -1.49226720 -0.32388554 0.62262048
v -1.49009260 -0.32388554 0.63827538
v -1.33517786 -0.32388554 0.33543468
v -1.41466486 -0.23452819 0.31852021
v -1.50840074 -0.23452819 0.63725569
v -1.48574340 -0.32388554 0.53972766
v -1.49096242 -0.32388554 0.59023110
v -1.36939164 -0.32388554 0.34755074
v -1.41491341 -0.23751116 0.32019966
v -1.42367396 -0.23452819 0.32217903
v -1.50475570 -0.23452819 0.61350348
v -1.47418695 -0.32388554 0.50595877
v -1.50216687 -0.24499042 0.60282700
v -1.48621974 -0.27648197 0.53972766
v -1.43514761 -0.23452819 0.33471493
v -1.37987119 -0.32388554 0.35312883
v -1.43177175 -0.23452819 0.32709737
v -1.50218761 -0.23452819 0.60318688
v -1.43336647 -0.32388554 0.42090663
v -1.39443066 -0.32388554 0.36224591
v -1.39579758 -0.32388554 0.36332552
v -1.40822383 -0.32388554 0.37946021
v -1.42493725 -0.32388554 0.40555168
f 1 2 5
f 1 5 3
f 1 3 7
f 1 7 4
f 1 4 8
f 1 8 14
f 1 14 20
f 1 20 26
f 1 26 33
f 1 33 31
f 1 31 34
f 1 34 27
f 1 27 21
f 1 21 15
f 1 15 11
f 1 11 10
f 1 10 9
f 1 9 6
f 1 6 2
f 2 6 5
f 3 5 12
f 3 12 18
f 3 18 17
f 3 17 23
f 3 23 22
f 3 22 28
f 3 28 35
f 3 35 39
f 3 39 38
f 3 38 37
f 3 37 36
f 3 36 32
f 3 32 24
f 3 24 19
f 3 19 13
f 3 13 7
f 4 7 8
f 5 6 9
f 5 9 10
f 5 10 11
f 5 11 12
f 7 13 14
f 7 14 8
f 11 15 16
f 11 16 17
f 11 17 18
f 11 18 12
f 13 19 14
f 14 19 20
f 15 21 16
f 16 21 22
f 16 22 23
f 16 23 17
f 19 24 20
f 20 25 26
f 20 24 25
f 21 27 22
f 22 27 29
f 22 29 30
f 22 30 31
f 22 31 28
f 24 32 26
f 24 26 25
f 26 32 33
f 27 34 29
f 28 31 33
f 28 33 35
f 29 34 31
f 29 31 30
f 32 36 33
f 33 36 37
f 33 37 38
f 33 38 39
f 33 39 35

