# https://github.com/mikedh/trimesh
v 0.37540737 0.21444381 2.44118348
v 0.36808847 0.21444381 2.45339278
v 0.37540737 0.21034596 2.43957101
v 0.37540737 0.21444381 0.17716590
v 0.36655148 0.21444381 2.45523576
v 0.36618554 0.21142081 2.45523576
v 0.37540737 0.19974531 2.43450291
v 0.36216015 0.18467062 2.44947669
v 0.37540737 0.21424228 0.17693558
v -0.17885337 0.21444381 0.12671621
v 0.34818105 0.21444381 2.46905753
v 0.34386290 0.20853216 2.47205232
v 0.37540737 0.18154014 2.42390626
v 0.35711013 0.16298565 2.44210496
v 0.37540737 0.07718621 2.35502735
v 0.37540737 0.21142081 0.17578376
v 0.01619547 0.07718621 0.14007733
v -0.17885337 0.14636587 0.12533407
v -0.37229207 0.07843571 0.12579472
v -0.37229207 0.17889334 0.15182581
v -0.37229207 0.21280466 0.16104050
v -0.37229207 0.21343614 0.16127083
v -0.37229207 0.21444381 0.16173148
v 0.37540737 0.17889334 0.17463196
v 0.33771502 0.21444381 2.47573809
v 0.30895171 0.19900635 2.47320414
v 0.34437522 0.17585691 2.45500543
v 0.34430204 0.07718621 2.38796950
v 0.35879344 0.07718621 2.37875480
v 0.36925947 0.07718621 2.36401155
v 0.37540737 0.07718621 0.19375214
v -0.17424245 0.07718621 0.12948050
v -0.17885337 0.08132436 0.12878951
v 0.37540737 0.14635243 0.17923921
v 0.37540737 0.14503575 0.17946953
v 0.37540737 0.11250827 0.18615009
v 0.37540737 0.08243951 0.19237000
v 0.37540737 0.08058540 0.19283065
v -0.37229207 0.07718621 0.12579472
v -0.37229207 0.21444381 2.32876595
v 0.33039612 0.21444381 2.47688990
v 0.30895171 0.21444381 2.47873289
v 0.11382967 0.07718621 2.44348710
v 0.14332487 0.07718621 2.43887984
v 0.30895171 0.07718621 2.39787518
v -0.37229207 0.07718621 2.32369785
v -0.37229207 0.21318086 2.32876595
v -0.20446955 0.07718621 2.41952933
v -0.21142250 0.21444381 2.36516335
v 0.27645574 0.21444381 2.47274349
v -0.17570624 0.07718621 2.42390626
v -0.34667589 0.07718621 2.34028409
f 1 2 3
f 1 3 7
f 1 7 13
f 1 13 15
f 1 15 31
f 1 31 38
f 1 38 37
f 1 37 36
f 1 36 35
f 1 35 34
f 1 34 24
f 1 24 16
f 1 16 9
f 1 9 4
f 1 4 10
f 1 10 23
f 1 23 40
f 1 40 49
f 1 49 50
f 1 50 42
f 1 42 41
f 1 41 25
f 1 25 11
f 1 11 5
f 1 5 2
f 2 5 6
f 2 6 3
f 3 6 8
f 3 8 7
f 4 9 10
f 5 11 12
f 5 12 6
f 6 12 8
f 7 8 13
f 8 12 14
f 8 14 15
f 8 15 13
f 9 16 10
f 10 17 18
f 10 18 19
f 10 19 20
f 10 20 21
f 10 21 22
f 10 22 23
f 10 16 24
f 10 24 17
f 11 25 12
f 12 25 26
f 12 26 27
f 12 27 14
f 14 27 28
f 14 28 29
f 14 29 30
f 14 30 15
f 15 30 29
f 15 29 28
f 15 28 45
f 15 45 44
f 15 44 43
f 15 43 51
f 15 51 48
f 15 48 52
f 15 52 46
f 15 46 39
f 15 39 32
f 15 32 17
f 15 17 31
f 17 32 33
f 17 33 18
f 17 24 34
f 17 34 35
f 17 35 36
f 17 36 37
f 17 37 38
f 17 38 31
f 18 33 39
f 18 39 19
f 19 39 46
f 19 46 47
f 19 47 40
f 19 40 23
f 19 23 22
f 19 22 21
f 19 21 20
f 25 41 26
f 26 41 42
f 26 42 43
f 26 43 44
f 26 44 27
f 27 44 45
f 27 45 28
f 32 39 33
f 40 47 48
f 40 48 49
f 42 50 48
f 42 48 51
f 42 51 43
f 46 52 47
f 47 52 48
f 48 50 49

