# https://github.com/mikedh/trimesh
v -0.36741329 1.19924703 1.36603778
v -0.50420775 1.19566120 1.36603778
v -0.36741329 1.08296954 1.36603778
v -0.36741329 1.37446391 1.26670149
v -0.51733622 1.19517380 1.36603778
v -0.72072534 1.08296954 1.36603778
v -0.36741329 1.08296954 0.44253387
v -0.56923784 1.18929026 1.36603778
v -0.53672279 1.19402489 1.36603778
v -0.36741329 1.40269780 1.24396968
v -0.37407955 1.40311551 1.24433929
v -0.40659460 1.40127040 1.24147471
v -0.61447326 1.16871542 1.36603778
v -0.91690395 1.10974122 1.17780710
v -0.94996321 1.08296954 1.17688304
v -0.41210449 1.08296954 0.42950466
v -0.36741329 1.09007149 0.44641491
v -0.60012036 1.17856769 1.36603778
v -0.42366839 1.39914678 1.23934938
v -0.36741329 1.41223667 1.22271631
v -0.37407955 1.41401218 1.22271631
v -0.42115155 1.43166270 1.20709974
v -0.42407655 1.43166270 1.20709974
v -0.78453102 1.27566285 1.11404705
v -0.96424805 1.08296954 1.16274494
v -0.43951780 1.08296954 0.42201976
v -0.36741329 1.10786121 0.45676438
v -0.75106367 1.30187752 1.11007361
v -0.36741329 1.42233264 1.19018946
v -0.37407955 1.42428225 1.19018946
v -0.36741329 1.43319451 1.14906886
v -0.37407955 1.43396042 1.15137901
v -0.36741329 1.43747654 1.11848254
v -0.36741329 1.43859065 1.08734177
v -0.42407655 1.43166270 1.20386553
v -0.85588727 1.27618505 0.96250150
v -0.77330719 1.29759549 1.09260891
v -0.97268290 1.08296954 1.15331953
v -0.47278112 1.08296954 0.42386787
v -0.63433599 1.10894042 0.45537826
v -0.60175289 1.10988042 0.45500864
v -0.36741329 1.17759288 0.51516486
v -0.36741329 1.16036016 0.49890142
v -0.36741329 1.43392562 1.14528022
v -0.39625508 1.43382112 1.12513576
v -0.36741329 1.43437812 1.06008205
v -0.75426071 1.30441894 0.77556446
v -1.06226935 1.08296954 0.96767622
v -0.85166981 1.27291263 0.98569537
v -0.85398264 1.27409623 0.92997465
v -0.87024017 1.26302556 0.92997465
v -0.88833428 1.24680235 0.92997465
v -0.98764805 1.08296954 1.12605982
v -0.63433599 1.08296954 0.43606545
v -0.63433599 1.08965368 0.44077813
v -0.65209004 1.10688640 0.45731881
v -0.69936608 1.22591421 0.59916173
v -0.62127557 1.14013343 0.48892163
v -0.60175289 1.14093413 0.48781276
v -0.60175289 1.12617323 0.47154931
v -0.37407955 1.17738398 0.51525729
v -0.69936608 1.23997890 0.61542517
v -0.69936608 1.25303399 0.63732534
v -0.66685104 1.27392223 0.67585857
v -0.63433599 1.30650775 0.74414652
v -0.36741329 1.26393067 0.68990427
v -0.36741329 1.42783318 1.02672353
v -0.73201719 1.30737806 0.76576948
v -0.74296887 1.29985831 0.75384910
v -0.76480429 1.29467107 0.76576948
v -0.81616181 1.27092821 0.77907593
v -0.90275521 1.22894303 0.89744780
v -0.91438716 1.20958660 0.87397671
v -0.93669874 1.16227488 0.79995962
v -0.94438531 1.14062083 0.78166330
v -1.04465140 1.08296954 0.92923539
v -0.88649769 1.24217222 0.89744780
v -0.65664757 1.08296954 0.44502881
v -0.66481036 1.08296954 0.44872505
v -0.66447020 1.08728637 0.45122002
v -0.81629781 1.14069053 0.58650215
v -0.71827650 1.20641858 0.58705658
v -0.71922883 1.23761159 0.61819735
v -0.73242529 1.26180705 0.67096109
v -0.69936608 1.26532327 0.66107364
v -0.69936608 1.29745619 0.72723626
v -0.66685104 1.30577665 0.74183633
v -0.36741329 1.41557879 0.99706127
v -0.36741329 1.41540469 0.99669164
v -0.69936608 1.30379224 0.74349970
v -0.72126950 1.30233012 0.74802756
v -0.75514503 1.27242522 0.71014119
v -0.76534850 1.27907457 0.73398186
v -0.73201719 1.29414887 0.73629198
v -0.74364914 1.26741209 0.68842579
v -0.78623160 1.27259932 0.74423895
v -0.79697924 1.27729915 0.76789480
v -0.80793096 1.26490547 0.75745296
v -0.82201180 1.24245072 0.73490592
v -0.83826923 1.23047484 0.73490592
v -0.84486749 1.23538347 0.75412634
v -0.92044121 1.17839359 0.79995962
v -0.91465926 1.17435526 0.77741258
v -0.85398264 1.17856769 0.66985222
v -0.96826147 1.08296954 0.79626338
v -0.87636227 1.16495559 0.69119795
v -0.87098843 1.15433742 0.67003703
v -0.85350648 1.15284041 0.63908108
v -0.84718033 1.14072533 0.61884416
v -0.86432212 1.12220441 0.63732534
v -0.67140857 1.08296954 0.45334533
v -0.81867860 1.12220441 0.58493128
v -0.83493612 1.12220441 0.60017822
v -0.84779250 1.17264935 0.65109380
v -0.77942928 1.20231055 0.62207839
v -0.75772992 1.21028290 0.61551755
v -0.72956834 1.21919516 0.60599982
v -0.74092819 1.23197175 0.62605187
v -0.75358050 1.23983970 0.64776723
v -0.73079276 1.24391283 0.63704815
v -0.76534850 1.26138925 0.70053097
v -0.81493738 1.23736789 0.71651717
v -0.84207859 1.20112694 0.69027389
v -0.85010532 1.20756748 0.71198930
v -0.85547917 1.21421683 0.73490592
v -0.86323381 1.18744515 0.70154741
v -0.95377247 1.08296954 0.77343916
v -0.84962917 1.12220441 0.61644166
v -0.84942502 1.09880974 0.61718091
v -0.70378756 1.08296954 0.48217598
v -0.81731817 1.09675573 0.58567052
v -0.77527986 1.23200655 0.66042682
v -0.76650487 1.22114477 0.63492285
v -0.85806402 1.08296954 0.63640133
v -0.82983438 1.08296954 0.60304284
v -0.85561517 1.08296954 0.63344434
v -0.81418912 1.08296954 0.58798064
f 1 2 5
f 1 5 9
f 1 9 8
f 1 8 18
f 1 18 13
f 1 13 6
f 1 6 3
f 1 3 7
f 1 7 17
f 1 17 27
f 1 27 43
f 1 43 42
f 1 42 66
f 1 66 89
f 1 89 88
f 1 88 67
f 1 67 46
f 1 46 34
f 1 34 33
f 1 33 44
f 1 44 31
f 1 31 29
f 1 29 20
f 1 20 10
f 1 10 4
f 1 4 2
f 2 4 5
f 3 6 15
f 3 15 25
f 3 25 38
f 3 38 53
f 3 53 48
f 3 48 76
f 3 76 105
f 3 105 127
f 3 127 134
f 3 134 136
f 3 136 135
f 3 135 137
f 3 137 130
f 3 130 111
f 3 111 79
f 3 79 78
f 3 78 54
f 3 54 39
f 3 39 26
f 3 26 16
f 3 16 7
f 4 8 9
f 4 9 5
f 4 10 11
f 4 11 12
f 4 12 8
f 6 13 14
f 6 14 15
f 7 16 17
f 8 12 19
f 8 19 18
f 10 20 21
f 10 21 22
f 10 22 11
f 11 22 23
f 11 23 12
f 12 23 19
f 13 18 24
f 13 24 14
f 14 24 15
f 15 24 25
f 16 26 27
f 16 27 17
f 18 19 23
f 18 23 28
f 18 28 24
f 20 22 21
f 20 29 30
f 20 30 22
f 22 30 31
f 22 31 32
f 22 32 33
f 22 33 23
f 23 33 34
f 23 34 35
f 23 35 36
f 23 36 37
f 23 37 28
f 24 28 37
f 24 37 38
f 24 38 25
f 26 39 40
f 26 40 41
f 26 41 42
f 26 42 43
f 26 43 27
f 29 31 30
f 31 44 32
f 32 44 33
f 34 45 35
f 34 46 47
f 34 47 45
f 35 45 47
f 35 47 36
f 36 48 49
f 36 49 37
f 36 47 50
f 36 50 51
f 36 51 52
f 36 52 48
f 37 49 53
f 37 53 38
f 39 54 55
f 39 55 40
f 40 55 56
f 40 56 57
f 40 57 58
f 40 58 59
f 40 59 60
f 40 60 41
f 41 60 42
f 42 60 61
f 42 61 62
f 42 62 63
f 42 63 64
f 42 64 65
f 42 65 66
f 46 67 68
f 46 68 47
f 47 68 69
f 47 69 70
f 47 70 71
f 47 71 50
f 48 53 49
f 48 52 72
f 48 72 73
f 48 73 74
f 48 74 75
f 48 75 76
f 50 71 51
f 51 71 77
f 51 77 72
f 51 72 52
f 54 78 56
f 54 56 55
f 56 78 79
f 56 79 80
f 56 80 81
f 56 81 82
f 56 82 83
f 56 83 57
f 57 83 62
f 57 62 58
f 58 62 59
f 59 62 61
f 59 61 60
f 62 83 63
f 63 83 84
f 63 84 85
f 63 85 64
f 64 85 86
f 64 86 87
f 64 87 65
f 65 87 88
f 65 88 89
f 65 89 66
f 67 88 87
f 67 87 90
f 67 90 68
f 68 90 91
f 68 91 69
f 69 92 93
f 69 93 70
f 69 91 94
f 69 94 95
f 69 95 92
f 70 93 96
f 70 96 97
f 70 97 71
f 71 97 96
f 71 96 98
f 71 98 99
f 71 99 100
f 71 100 101
f 71 101 72
f 71 72 77
f 72 101 102
f 72 102 73
f 73 102 74
f 74 102 101
f 74 101 103
f 74 103 104
f 74 104 75
f 75 105 76
f 75 104 106
f 75 106 107
f 75 107 108
f 75 108 109
f 75 109 110
f 75 110 105
f 79 111 81
f 79 81 80
f 81 112 113
f 81 113 109
f 81 109 114
f 81 114 115
f 81 115 116
f 81 116 117
f 81 117 82
f 81 111 112
f 82 117 83
f 83 118 119
f 83 119 120
f 83 120 84
f 83 117 118
f 84 95 94
f 84 94 85
f 84 120 95
f 85 94 86
f 86 94 91
f 86 91 90
f 86 90 87
f 92 121 96
f 92 96 93
f 92 95 121
f 95 120 119
f 95 119 121
f 96 122 98
f 96 121 119
f 96 119 122
f 98 122 99
f 99 122 100
f 100 122 123
f 100 123 124
f 100 124 101
f 101 124 125
f 101 125 103
f 103 125 124
f 103 124 126
f 103 126 104
f 104 114 106
f 104 126 124
f 104 124 114
f 105 110 127
f 106 114 107
f 107 114 108
f 108 114 109
f 109 113 128
f 109 128 110
f 110 128 129
f 110 129 127
f 111 130 112
f 112 131 113
f 112 130 131
f 113 131 129
f 113 129 128
f 114 132 119
f 114 119 133
f 114 133 115
f 114 124 123
f 114 123 132
f 115 118 116
f 115 133 118
f 116 118 117
f 118 133 119
f 119 132 122
f 122 132 123
f 127 129 134
f 129 131 135
f 129 135 136
f 129 136 134
f 130 137 131
f 131 137 135

