# https://github.com/mikedh/trimesh
v 0.82353189 1.07169868 1.18601228
v 0.82885067 1.06915387 1.19092209
v 0.82353189 1.07169868 1.18159897
v 0.82353189 1.07020575 1.19435160
v 0.82353189 1.06932361 1.19787305
v 0.82407095 1.06911995 1.19787305
v 0.82895846 1.06681273 1.19787305
v 0.85778048 1.05103515 1.19787305
v 0.85950548 1.05242630 1.19023251
v 0.86518370 1.04940650 1.16054382
v 0.82353189 1.07023967 1.16492955
v 0.87912752 1.04143288 1.13879909
v 0.82353189 0.72506738 1.19787305
v 1.08803308 0.85400232 1.19787305
v 1.06470958 0.93770815 1.10394315
v 1.04727977 0.94927835 1.10394315
v 0.87129301 1.03851486 1.11710952
v 0.84958672 1.04180609 1.10694973
v 0.84398042 1.04214547 1.10394315
v 0.82759290 1.04611527 1.10394315
v 0.82353189 1.04696357 1.10394315
v 1.12885831 0.72506738 1.19787305
v 0.82353189 0.72506738 1.10394315
v 1.10237221 0.84165168 1.19787305
v 1.10844564 0.84850557 1.17905213
v 1.08292998 0.92036987 1.10394315
v 0.86525553 1.03390043 1.10394315
v 0.85242583 1.03905781 1.10394315
v 1.18829917 0.72506738 1.10394315
v 1.19063518 0.73188734 1.10394315
v 1.12875052 0.73029262 1.19787305
v 1.10977534 0.82964042 1.19787305
v 1.11196759 0.82594195 1.19787305
v 1.15016930 0.83201549 1.10394315
v 1.14427558 0.84073552 1.10394315
v 1.12860675 0.86380816 1.10394315
v 1.11538164 0.88128215 1.10394315
v 1.11103321 0.88671105 1.10394315
v 1.08903940 0.91307482 1.10394315
v 1.18337570 0.76330675 1.10394315
v 1.12476142 0.78929736 1.19787305
v 1.12702541 0.76439255 1.19787305
v 1.12770824 0.75675822 1.19787305
v 1.12871455 0.73188734 1.19787305
v 1.11376442 0.82214180 1.19787305
v 1.16820999 0.79693164 1.10394315
v 1.12238946 0.79716914 1.19787305
f 1 2 3
f 1 3 11
f 1 11 21
f 1 21 23
f 1 23 13
f 1 13 5
f 1 5 4
f 1 4 2
f 2 4 5
f 2 5 6
f 2 6 7
f 2 7 8
f 2 8 9
f 2 9 10
f 2 10 3
f 3 10 12
f 3 12 11
f 5 13 22
f 5 22 31
f 5 31 44
f 5 44 43
f 5 43 42
f 5 42 41
f 5 41 47
f 5 47 45
f 5 45 33
f 5 33 32
f 5 32 24
f 5 24 14
f 5 14 8
f 5 8 7
f 5 7 6
f 8 14 15
f 8 15 9
f 9 15 16
f 9 16 10
f 10 16 12
f 11 17 18
f 11 18 19
f 11 19 20
f 11 20 21
f 11 12 17
f 12 16 17
f 13 23 29
f 13 29 22
f 14 24 15
f 15 24 25
f 15 25 26
f 15 26 39
f 15 39 38
f 15 38 37
f 15 37 36
f 15 36 35
f 15 35 34
f 15 34 46
f 15 46 40
f 15 40 30
f 15 30 29
f 15 29 23
f 15 23 21
f 15 21 20
f 15 20 19
f 15 19 28
f 15 28 27
f 15 27 16
f 16 27 17
f 17 27 28
f 17 28 18
f 18 28 19
f 22 29 30
f 22 30 31
f 24 32 25
f 25 32 33
f 25 33 34
f 25 34 35
f 25 35 36
f 25 36 37
f 25 37 38
f 25 38 39
f 25 39 26
f 30 40 41
f 30 41 42
f 30 42 43
f 30 43 44
f 30 44 31
f 33 45 46
f 33 46 34
f 40 46 45
f 40 45 47
f 40 47 41

