# https://github.com/mikedh/trimesh
v -0.33183305 -0.42529002 2.38083702
v -0.73182670 -0.42529002 2.46801642
v -0.73182670 -0.43912216 2.46801642
v -0.69928829 -0.47164840 2.45771969
v -0.33183305 -0.42802255 2.38037947
v -0.33183305 -0.42529002 0.21485568
v -0.76533783 -0.42529002 2.45726196
v -0.73182670 -0.47164840 2.46458405
v -0.69923969 -0.50471178 2.44971108
v -0.70935624 -0.52154967 2.44536343
v -0.33183305 -0.52154967 2.33118377
v -0.33183305 -0.43351581 0.20661831
v -0.34720245 -0.42529002 0.19975376
v -0.75896631 -0.47164840 2.45428732
v -0.77788628 -0.42529002 2.44467711
v -0.75356756 -0.50416524 2.44810928
v -0.73182670 -0.50416524 2.45497384
v -0.73182670 -0.52154967 2.44559239
v -0.33183305 -0.52154967 0.18030436
v -0.33183305 -0.44970354 0.19494855
v -0.34316555 -0.44192061 0.19037231
v -0.35260120 -0.42529002 0.19494855
v -0.82866367 -0.52140833 2.33026848
v -0.76888837 -0.50416524 2.42614281
v -0.78095043 -0.42529002 2.43872784
v -0.74880113 -0.52110681 2.44330408
v -0.74403466 -0.52154967 2.44376182
v -0.40765869 -0.52154967 0.15993950
v -0.42268763 -0.45565852 0.13316800
v -0.42268763 -0.45521571 0.13316800
v -0.35887543 -0.47164840 0.16657526
v -0.33183305 -0.47109251 0.18877051
v -0.33183305 -0.45323697 0.19266043
v -0.37949764 -0.44705583 0.16039723
v -0.37084021 -0.43736957 0.17229575
v -0.37259115 -0.42529002 0.18213474
v -0.82866367 -0.42529002 2.31768364
v -0.82866367 -0.52154967 2.32889565
v -0.74933614 -0.52154967 2.44216002
v -0.43912706 -0.52154967 0.15307513
v -0.43912706 -0.45949348 0.13133743
v -0.43912706 -0.45035370 0.13133743
v -0.43912706 -0.43409056 0.14140539
v -0.39525616 -0.42529002 0.16771933
v -0.82866367 -0.42529002 0.13911726
v -0.82866367 -0.52154967 0.35077286
v -0.45430192 -0.52154967 0.15078682
v -0.46553715 -0.46058650 0.13087989
v -0.47166546 -0.52154967 0.14964276
v -0.46553715 -0.44883668 0.13087989
v -0.47448645 -0.43844374 0.13637141
v -0.48484618 -0.42529002 0.14346472
v -0.45133505 -0.42529002 0.14575284
v -0.43912706 -0.42529002 0.14941400
v -0.50420387 -0.50416524 0.14529530
v -0.48679167 -0.52154967 0.14987173
v -0.50420387 -0.52154967 0.15124456
v -0.82866367 -0.43883009 0.14735464
v -0.82866367 -0.52151196 0.31027227
v -0.82851778 -0.52154967 0.31027227
v -0.82866367 -0.43988540 0.14804115
v -0.53528312 -0.52154967 0.16016845
v -0.82195171 -0.52154967 0.30317894
v -0.82866367 -0.46020015 0.18190596
v -0.55099300 -0.52154967 0.16657526
v -0.79588209 -0.52154967 0.28601767
v -0.75327577 -0.52154967 0.26290713
f 1 2 3
f 1 3 4
f 1 4 5
f 1 5 11
f 1 11 19
f 1 19 32
f 1 32 33
f 1 33 20
f 1 20 12
f 1 12 6
f 1 6 13
f 1 13 22
f 1 22 36
f 1 36 44
f 1 44 54
f 1 54 53
f 1 53 52
f 1 52 45
f 1 45 37
f 1 37 25
f 1 25 15
f 1 15 7
f 1 7 2
f 2 7 3
f 3 7 8
f 3 8 4
f 4 8 9
f 4 9 5
f 5 9 10
f 5 10 11
f 6 12 13
f 7 14 8
f 7 15 14
f 8 14 16
f 8 16 17
f 8 17 9
f 9 17 10
f 10 17 18
f 10 18 27
f 10 27 39
f 10 39 38
f 10 38 46
f 10 46 60
f 10 60 63
f 10 63 66
f 10 66 67
f 10 67 65
f 10 65 62
f 10 62 57
f 10 57 56
f 10 56 49
f 10 49 47
f 10 47 40
f 10 40 28
f 10 28 19
f 10 19 11
f 12 20 21
f 12 21 22
f 12 22 13
f 14 15 23
f 14 23 24
f 14 24 16
f 15 25 23
f 16 26 17
f 16 24 23
f 16 23 26
f 17 26 18
f 18 26 27
f 19 28 29
f 19 29 30
f 19 30 31
f 19 31 32
f 20 33 21
f 21 33 34
f 21 34 35
f 21 35 22
f 22 35 36
f 23 25 37
f 23 37 45
f 23 45 58
f 23 58 61
f 23 61 64
f 23 64 59
f 23 59 46
f 23 46 38
f 23 38 39
f 23 39 26
f 26 39 27
f 28 40 29
f 29 40 41
f 29 41 42
f 29 42 30
f 30 42 43
f 30 43 44
f 30 44 34
f 30 34 31
f 31 34 33
f 31 33 32
f 34 44 35
f 35 44 36
f 40 47 41
f 41 48 50
f 41 50 42
f 41 47 49
f 41 49 48
f 42 50 51
f 42 51 52
f 42 52 53
f 42 53 43
f 43 53 54
f 43 54 44
f 45 52 51
f 45 51 50
f 45 50 48
f 45 48 55
f 45 55 56
f 45 56 57
f 45 57 58
f 46 59 60
f 48 49 56
f 48 56 55
f 57 61 58
f 57 62 61
f 59 63 60
f 59 64 63
f 61 62 65
f 61 65 64
f 63 64 66
f 64 65 67
f 64 67 66

