# https://github.com/mikedh/trimesh
v 1.07746997 -0.12599893 1.74441231
v 0.83840969 -0.01253478 1.82480209
v 1.07746997 -0.12638899 1.74441231
v 1.07746997 -0.11853198 1.74408486
v 0.83840969 -0.12638899 1.76929874
v 1.07746997 -0.11384006 1.74375740
v 1.07746997 -0.08008278 1.73606224
v 1.07746997 -0.06424617 1.73082300
v 1.07746997 -0.06093619 1.72967690
v 1.07746997 -0.03483531 1.69840509
v 1.07503576 -0.03173709 1.69578548
v 1.07746997 -0.01253478 1.65239790
v 0.83840969 -0.01253478 0.15249768
v 1.07746997 -0.12638899 0.28920944
v 0.83840969 -0.12638899 0.22306389
v 1.07746997 -0.01253478 0.27545640
v 0.85835095 -0.01253478 0.15397122
v 0.95953135 -0.12638899 0.20390782
v 0.94356911 -0.12638899 0.20308918
v 0.83840969 -0.02579696 0.15822805
v 1.04606020 -0.12638899 0.25728280
v 1.07746997 -0.12486217 0.28888200
v 0.83840969 -0.03589406 0.16313989
v 0.84126519 -0.12638899 0.22224524
v 1.07746997 -0.04879962 0.27840350
v 1.01420579 -0.12638899 0.22535599
v 0.99335187 -0.12638899 0.21324032
v 0.87136416 -0.01253478 0.15921042
v 0.86235322 -0.01253478 0.15495359
v 0.97158508 -0.12638899 0.20636374
v 0.92695146 -0.12638899 0.20325292
v 0.83840969 -0.03505821 0.16264870
v 1.02852980 -0.12638899 0.23960020
v 1.07746997 -0.11384006 0.28658981
v 0.83897145 -0.03603894 0.16313989
v 0.89451192 -0.12638899 0.20832847
v 1.07746997 -0.08116381 0.28200542
v 1.01766977 -0.12638899 0.22879437
f 1 2 3
f 1 3 14
f 1 14 22
f 1 22 34
f 1 34 37
f 1 37 25
f 1 25 16
f 1 16 12
f 1 12 10
f 1 10 9
f 1 9 8
f 1 8 7
f 1 7 6
f 1 6 4
f 1 4 2
f 2 5 3
f 2 4 6
f 2 6 7
f 2 7 8
f 2 8 9
f 2 9 10
f 2 10 11
f 2 11 12
f 2 12 16
f 2 16 28
f 2 28 29
f 2 29 17
f 2 17 13
f 2 13 20
f 2 20 32
f 2 32 23
f 2 23 15
f 2 15 5
f 3 5 15
f 3 15 24
f 3 24 36
f 3 36 31
f 3 31 19
f 3 19 18
f 3 18 30
f 3 30 27
f 3 27 26
f 3 26 38
f 3 38 33
f 3 33 21
f 3 21 14
f 10 12 11
f 13 17 18
f 13 18 19
f 13 19 20
f 14 21 22
f 15 23 24
f 16 25 26
f 16 26 27
f 16 27 28
f 17 29 30
f 17 30 18
f 19 31 20
f 20 31 32
f 21 33 34
f 21 34 22
f 23 32 35
f 23 35 31
f 23 31 36
f 23 36 24
f 25 37 26
f 26 37 38
f 27 30 29
f 27 29 28
f 31 35 32
f 33 38 37
f 33 37 34

