# https://github.com/mikedh/trimesh
v -0.56955677 -1.24491139 0.96301577
v -0.56955677 -1.38145952 0.96301577
v -0.56955677 -1.24491139 0.83885496
v -0.86177605 -1.24491139 0.96301577
v -0.56955677 -1.39921861 0.96293068
v -0.58385883 -1.39757465 0.96301577
v -0.56955677 -1.34617070 0.83885496
v -0.86177605 -1.24491139 0.83885496
v -0.86177605 -1.31774468 0.96301577
v -0.56958537 -1.35073957 0.83885496
v -0.63588961 -1.43246205 0.96301577
v -0.86177605 -1.29432714 0.83885496
v -0.73202794 -1.40736225 0.96301577
v -0.86177605 -1.30535730 0.83892792
v -0.64950519 -1.43873218 0.96301577
v -0.66472253 -1.44018498 0.96301577
v -0.73182772 -1.33894477 0.83885496
v -0.85047747 -1.30535730 0.83885496
v -0.69876140 -1.42644038 0.96301577
v -0.83139847 -1.31363471 0.83885496
v -0.82227382 -1.31621539 0.83885496
v -0.69349825 -1.42888728 0.96301577
v -0.76412170 -1.33110706 0.83885496
f 1 2 5
f 1 5 7
f 1 7 3
f 1 3 8
f 1 8 4
f 1 4 9
f 1 9 13
f 1 13 19
f 1 19 22
f 1 22 16
f 1 16 15
f 1 15 11
f 1 11 6
f 1 6 2
f 2 6 5
f 3 7 10
f 3 10 17
f 3 17 23
f 3 23 21
f 3 21 20
f 3 20 18
f 3 18 12
f 3 12 8
f 4 8 12
f 4 12 14
f 4 14 9
f 5 10 7
f 5 6 11
f 5 11 10
f 9 14 13
f 10 11 15
f 10 15 16
f 10 16 17
f 12 18 14
f 13 14 19
f 14 18 20
f 14 20 21
f 14 21 16
f 14 16 22
f 14 22 19
f 16 21 23
f 16 23 17

