# https://github.com/mikedh/trimesh
v -0.87472596 0.85560034 1.47606031
v -0.92729491 0.80632020 1.38701000
v -0.87472596 0.85490695 1.47606031
v -0.87472596 0.86225512 1.46298618
v -1.00060309 0.90469756 1.18138971
v -0.92162637 0.80632020 1.39596987
v -0.87472596 0.83666646 1.47532888
v -1.00060309 0.89869760 1.18010973
v -1.00060309 0.89407493 1.17910403
v -1.00060309 0.86195665 1.16740132
v -1.00060309 0.83086881 1.15012153
v -1.00060309 0.80632020 1.12845322
v -0.87472596 0.86666598 1.45292918
v -0.97827417 0.90469756 1.20982365
v -1.00060309 0.90469756 0.57367162
v -0.87472596 0.80632020 1.46554616
v -1.00060309 0.80632020 0.54222056
v -0.87472596 0.90469756 1.32575361
v -0.95850846 0.90469756 0.54743194
v -0.98060319 0.88253740 0.54222056
v -0.99534122 0.87158731 0.54222056
v -1.00060309 0.86708979 0.54222056
v -0.87472596 0.80632020 0.54222056
v -0.87472596 0.90469756 0.54222056
v -0.94303109 0.90469756 0.54222056
v -0.95850846 0.89707001 0.54222056
f 1 2 3
f 1 3 7
f 1 7 16
f 1 16 23
f 1 23 24
f 1 24 18
f 1 18 13
f 1 13 4
f 1 4 5
f 1 5 2
f 2 6 7
f 2 7 3
f 2 5 8
f 2 8 9
f 2 9 10
f 2 10 11
f 2 11 12
f 2 12 17
f 2 17 23
f 2 23 16
f 2 16 6
f 4 13 5
f 5 13 14
f 5 14 18
f 5 18 24
f 5 24 25
f 5 25 19
f 5 19 15
f 5 15 22
f 5 22 17
f 5 17 12
f 5 12 11
f 5 11 10
f 5 10 9
f 5 9 8
f 6 16 7
f 13 18 14
f 15 19 20
f 15 20 21
f 15 21 22
f 17 22 21
f 17 21 20
f 17 20 26
f 17 26 25
f 17 25 24
f 17 24 23
f 19 25 26
f 19 26 20

