# https://github.com/mikedh/trimesh
v 0.20165911 0.24245927 2.43858535
v 0.20165911 0.21446155 2.43762741
v 0.20165911 0.24384318 2.43834591
v -0.29613282 0.32741053 2.34590570
v -0.29761255 0.30899380 2.34638467
v -0.21140461 0.21446155 2.36506429
v 0.20165911 0.21446155 0.21451252
v 0.20165911 0.27302965 2.42134264
v -0.35811703 0.33841093 2.31836521
v -0.35811703 0.30899380 2.32770496
v -0.35811703 0.29236902 2.32986037
v -0.35811703 0.25984695 2.33225522
v 0.20165911 0.29105607 2.40865002
v 0.14636108 0.32654115 2.37847523
v -0.27645788 0.36358757 2.31884418
v -0.30895715 0.36060684 2.31573092
v -0.35175970 0.35686317 2.31142020
v -0.35811703 0.34999681 2.31285711
v -0.35811703 0.24396738 2.33297364
v -0.35811703 0.22732487 2.33225522
v -0.35811703 0.21446155 2.33153673
v 0.10399699 0.21446155 0.17427948
v 0.08130778 0.22187792 0.15727631
v 0.08377401 0.24180279 0.14003353
v 0.07456680 0.25118859 0.12805948
v -0.06299322 0.38697225 0.00161274
v 0.20165911 0.22115047 0.21451252
v 0.20165911 0.32897189 2.37991214
v 0.20165911 0.34524179 2.36698016
v 0.17886032 0.36356984 2.34997689
v 0.14636108 0.39570157 2.31956258
v 0.11380704 0.39570157 2.31477299
v -0.27645788 0.37394922 2.29609338
v -0.35811703 0.36610701 2.29489590
v -0.35811703 0.35468084 2.31022283
v -0.35811703 0.21446155 0.15943163
v 0.08130778 0.21446155 0.16517916
v 0.04875374 0.23087340 0.13668083
v 0.04875374 0.24712554 0.12398819
v -0.11379727 0.31896510 0.03035061
v -0.09214937 0.32306363 0.03346386
v -0.08129802 0.34009646 0.02484251
v -0.08129802 0.36548603 0.00759980
v -0.08129802 0.38173820 -0.00078210
v -0.06956980 0.39570157 0.00065480
v -0.06299322 0.39380314 0.00161274
v 0.20165911 0.35123877 0.22289445
v 0.20165911 0.36305531 2.35069530
v 0.15770566 0.39570157 2.31812568
v -0.34151119 0.39570157 2.23239104
v -0.35811703 0.39570157 2.22592500
v -0.35811703 0.39564835 0.20086204
v -0.22981900 0.39541769 0.00113377
v -0.22981900 0.38555284 0.00113377
v -0.22148868 0.36385372 0.00712083
v -0.19896392 0.29063025 0.03394283
v -0.17885055 0.21446155 0.12686200
v 0.05856380 0.21446155 0.15967106
v 0.03242191 0.21446155 0.15392354
v -0.01629954 0.21446155 0.14602058
v -0.18504349 0.29063025 0.03394283
v -0.16334080 0.29299003 0.03585870
v -0.10749472 0.36055362 0.00448656
v -0.11653751 0.37245886 -0.00150052
v -0.17885055 0.37405569 -0.00652965
v -0.17885055 0.39570157 -0.00796655
v -0.08129802 0.39570157 -0.00078210
v -0.06458257 0.39570157 0.00209171
v -0.06074623 0.39570157 0.00472599
v 0.20165911 0.39570157 0.23175532
v 0.20165911 0.38134785 0.22624722
v 0.20165911 0.37245886 0.22481031
v 0.20165911 0.38008815 2.32794450
v 0.17896994 0.39570157 2.31477299
v 0.17886032 0.39406928 2.31692830
v -0.35811703 0.39570157 0.20684911
v -0.35592484 0.39570157 0.19966466
v -0.23003823 0.39570157 0.00161274
v -0.22938058 0.39570157 0.00113377
v -0.21156902 0.39570157 -0.00293741
v -0.21096616 0.37444603 -0.00245846
v -0.19984080 0.35494696 0.00137330
v -0.17885055 0.35445018 0.00113377
v -0.14635131 0.35641959 0.00233114
v -0.12919742 0.35757286 0.00304964
v 0.20165911 0.39570157 2.30423576
v 0.20165911 0.38778839 2.31740728
v 0.19804200 0.39114176 2.31357551
v 0.20165911 0.39330633 2.30830695
v 0.20165911 0.39545319 2.30471473
f 1 2 7
f 1 7 27
f 1 27 47
f 1 47 72
f 1 72 71
f 1 71 70
f 1 70 86
f 1 86 90
f 1 90 89
f 1 89 87
f 1 87 73
f 1 73 48
f 1 48 29
f 1 29 28
f 1 28 13
f 1 13 8
f 1 8 3
f 1 3 4
f 1 4 5
f 1 5 6
f 1 6 2
f 2 6 21
f 2 21 36
f 2 36 57
f 2 57 60
f 2 60 59
f 2 59 58
f 2 58 37
f 2 37 22
f 2 22 7
f 3 8 4
f 4 9 10
f 4 10 11
f 4 11 12
f 4 12 5
f 4 8 13
f 4 13 14
f 4 14 15
f 4 15 16
f 4 16 17
f 4 17 18
f 4 18 9
f 5 12 19
f 5 19 6
f 6 19 20
f 6 20 21
f 7 22 23
f 7 23 24
f 7 24 25
f 7 25 26
f 7 26 46
f 7 46 27
f 9 18 35
f 9 35 34
f 9 34 51
f 9 51 76
f 9 76 52
f 9 52 36
f 9 36 21
f 9 21 20
f 9 20 19
f 9 19 12
f 9 12 11
f 9 11 10
f 13 28 14
f 14 28 29
f 14 29 15
f 15 29 30
f 15 30 31
f 15 31 32
f 15 32 33
f 15 33 34
f 15 34 17
f 15 17 16
f 17 35 18
f 17 34 35
f 22 37 23
f 23 37 38
f 23 38 24
f 24 38 25
f 25 38 39
f 25 39 40
f 25 40 41
f 25 41 42
f 25 42 43
f 25 43 26
f 26 43 44
f 26 44 45
f 26 45 46
f 27 46 47
f 29 48 30
f 30 48 31
f 31 48 49
f 31 49 74
f 31 74 86
f 31 86 70
f 31 70 69
f 31 69 68
f 31 68 45
f 31 45 67
f 31 67 66
f 31 66 80
f 31 80 79
f 31 79 78
f 31 78 77
f 31 77 76
f 31 76 51
f 31 51 50
f 31 50 32
f 32 50 33
f 33 50 34
f 34 50 51
f 36 52 53
f 36 53 54
f 36 54 55
f 36 55 56
f 36 56 57
f 37 58 38
f 38 58 59
f 38 59 60
f 38 60 61
f 38 61 62
f 38 62 39
f 39 62 40
f 40 63 43
f 40 43 42
f 40 42 41
f 40 62 63
f 43 63 44
f 44 64 65
f 44 65 66
f 44 66 67
f 44 67 45
f 44 63 64
f 45 68 46
f 46 68 69
f 46 69 70
f 46 70 71
f 46 71 72
f 46 72 47
f 48 73 74
f 48 74 75
f 48 75 49
f 49 75 74
f 52 76 77
f 52 77 78
f 52 78 53
f 53 78 79
f 53 79 80
f 53 80 54
f 54 80 81
f 54 81 55
f 55 81 82
f 55 82 56
f 56 82 83
f 56 83 61
f 56 61 57
f 57 61 60
f 61 83 84
f 61 84 85
f 61 85 63
f 61 63 62
f 63 85 64
f 64 85 65
f 65 85 84
f 65 84 83
f 65 83 82
f 65 82 81
f 65 81 66
f 66 81 80
f 73 87 74
f 74 87 88
f 74 88 89
f 74 89 90
f 74 90 86
f 87 89 88

