# https://github.com/mikedh/trimesh
v -0.37229203 0.21444381 2.32891261
v -0.37407993 0.21444381 2.32845807
v -0.37272112 0.11913987 2.32163986
v -0.37229203 0.21142124 2.32868530
v -0.37229203 0.21444381 0.16187397
v -0.37407993 0.21142124 2.32823076
v -0.39814478 0.21444381 2.31823076
v -0.37229203 0.11913987 2.32163986
v -0.39814478 0.21142124 2.31800353
v -0.43340176 0.11913987 2.29232182
v -0.37229203 0.21343629 0.16141943
v -0.42303204 0.11913987 0.06801073
v -0.42442659 0.12697614 0.07028342
v -0.46025569 0.12267552 0.03960167
v -0.44609572 0.14072692 0.06119252
v -0.48192483 0.13595986 0.03073806
v -0.45496357 0.21444381 0.10028333
v -0.43983814 0.11913987 2.28845817
v -0.41287690 0.21444381 2.30436720
v -0.71663763 0.13098756 2.08527698
v -0.73276429 0.11913987 2.07914062
v -0.72153643 0.11913987 2.08891330
v -0.37229203 0.11913987 0.13778320
v -0.37229203 0.21230750 0.16096490
v -0.43290113 0.11913987 0.05914703
v -0.37229203 0.17889141 0.15164675
v -0.45138784 0.11913987 0.04460161
v -0.45900418 0.11913987 0.03869259
v -0.47427270 0.11913987 0.02778350
v -0.50674058 0.11913987 0.01164724
v -0.50491694 0.14663211 0.02460172
v -0.54914910 0.19966684 0.03301078
v -0.47066118 0.21444381 0.08891970
v -0.46790782 0.21444381 0.09073787
v -0.73759159 0.21444381 1.98845916
v -0.73759159 0.21407065 1.98891371
v -0.73759159 0.20719527 1.99686822
v -0.73759159 0.13673416 2.05868618
v -0.73759159 0.11926115 2.07391335
v -0.73759159 0.11913987 2.07164065
v -0.51328422 0.11913987 0.00914722
v -0.53670544 0.14638023 0.01278355
v -0.56920910 0.20200839 0.03164715
v -0.56920910 0.21444381 0.03937444
v -0.56506118 0.21444381 0.04005620
v -0.53595452 0.21444381 0.05232891
v -0.73759159 0.21444381 0.15891951
v -0.73759159 0.11913987 0.17164675
v -0.53427390 0.11913987 0.00710174
v -0.56920910 0.17889141 0.02460172
v -0.58919756 0.19977879 0.03301078
v -0.60096183 0.21444381 0.04664710
v -0.62735095 0.21444381 0.06141984
v -0.64415699 0.21142124 0.07482884
v -0.64755399 0.17889141 0.07051066
v -0.64723215 0.14638023 0.07051066
v -0.64326303 0.11913987 0.07573792
v -0.54099634 0.11913987 0.00869269
v -0.56920910 0.14638023 0.02028352
v -0.59019879 0.17889141 0.03210170
v -0.62788730 0.21142124 0.06096529
v -0.60378670 0.21444381 0.04755618
v -0.57235576 0.11913987 0.02210169
v -0.58830365 0.11913987 0.03323810
v -0.62963940 0.11913987 0.06369253
v -0.56920910 0.11913987 0.02005631
f 1 2 3
f 1 3 4
f 1 4 8
f 1 8 23
f 1 23 26
f 1 26 24
f 1 24 11
f 1 11 5
f 1 5 17
f 1 17 34
f 1 34 33
f 1 33 46
f 1 46 45
f 1 45 44
f 1 44 52
f 1 52 62
f 1 62 53
f 1 53 47
f 1 47 35
f 1 35 19
f 1 19 7
f 1 7 2
f 2 6 3
f 2 7 9
f 2 9 6
f 3 8 4
f 3 6 9
f 3 9 10
f 3 10 18
f 3 18 22
f 3 22 21
f 3 21 40
f 3 40 48
f 3 48 57
f 3 57 65
f 3 65 64
f 3 64 63
f 3 63 66
f 3 66 58
f 3 58 49
f 3 49 41
f 3 41 30
f 3 30 29
f 3 29 28
f 3 28 27
f 3 27 25
f 3 25 12
f 3 12 23
f 3 23 8
f 5 11 12
f 5 12 13
f 5 13 14
f 5 14 15
f 5 15 16
f 5 16 17
f 7 18 10
f 7 10 9
f 7 19 20
f 7 20 21
f 7 21 22
f 7 22 18
f 11 24 12
f 12 25 13
f 12 24 26
f 12 26 23
f 13 25 14
f 14 27 28
f 14 28 16
f 14 16 15
f 14 25 27
f 16 28 29
f 16 29 30
f 16 30 31
f 16 31 32
f 16 32 33
f 16 33 34
f 16 34 17
f 19 35 36
f 19 36 37
f 19 37 20
f 20 37 21
f 21 37 38
f 21 38 39
f 21 39 40
f 30 41 31
f 31 41 42
f 31 42 32
f 32 42 43
f 32 43 44
f 32 44 45
f 32 45 46
f 32 46 33
f 35 47 48
f 35 48 40
f 35 40 39
f 35 39 38
f 35 38 37
f 35 37 36
f 41 49 42
f 42 49 50
f 42 50 43
f 43 50 51
f 43 51 44
f 44 51 52
f 47 53 54
f 47 54 55
f 47 55 56
f 47 56 48
f 48 56 57
f 49 58 50
f 50 58 51
f 51 58 59
f 51 59 60
f 51 60 55
f 51 55 61
f 51 61 53
f 51 53 62
f 51 62 52
f 53 61 54
f 54 61 55
f 55 60 56
f 56 60 63
f 56 63 64
f 56 64 65
f 56 65 57
f 58 66 59
f 59 66 60
f 60 66 63

