# https://github.com/mikedh/trimesh
v 1.39988187 0.43911838 0.78055472
v 1.39923528 0.45827250 0.78169917
v 1.39916346 0.45805579 0.80001114
v 1.39966637 0.44152297 0.80092676
v 1.39657736 0.39571189 1.25529207
v 1.39969032 0.41947913 0.79062627
v 1.39969032 0.41947913 0.78147030
v 1.39327284 0.43911838 0.76430283
v 1.38129986 0.47163706 0.73488929
v 1.39360806 0.47012003 0.76945312
v 1.38462833 0.50113201 0.76762188
v 1.38503546 0.50113201 0.77071206
v 1.39626609 0.47432030 0.80001114
v 1.36642942 0.48833507 1.10982649
v 1.39447012 0.39571189 1.27806757
v 1.38860334 0.39571189 0.76865193
v 1.37390060 0.39571189 0.73466037
v 1.37457103 0.40538187 0.73237138
v 1.38074906 0.43911838 0.73488929
v 1.37715724 0.50113201 0.73488929
v 1.37014107 0.47163706 0.71108371
v 1.37009319 0.50113201 0.71497504
v 1.37823480 0.50113201 0.73797942
v 1.38256898 0.50113201 0.80172791
v 1.35596510 0.50113201 1.09540584
v 1.34971523 0.50113201 1.12069922
v 1.37179328 0.39571189 1.34605067
v 1.39039931 0.39571189 1.29214486
v 1.27653654 0.39571189 0.54948077
v 1.27378274 0.41686816 0.51835042
v 1.36982981 0.43911838 0.71177043
v 1.36903958 0.50113201 0.71280048
v 1.27603364 0.43911838 0.51606144
v 1.34779955 0.50113201 1.12516276
v 1.35869496 0.39571189 1.38004226
v 1.27442931 0.39571189 0.54558948
v 1.25306957 0.39571189 0.50679103
v 1.22945892 0.39571189 0.47073935
v 1.21305600 0.39571189 0.44681938
v 1.27327993 0.47163706 0.51880826
v 1.27009514 0.49099766 0.52201282
v 1.27533926 0.50113201 0.53689132
v 1.21379826 0.40658932 0.44544598
v 1.21322360 0.43911838 0.44681938
v 1.33007961 0.50113201 1.15835317
v 1.35407336 0.39571189 1.38782482
v 1.20263956 0.39571189 0.43594665
v 1.26734133 0.50113201 0.52487408
v 1.23472702 0.50113201 0.49214146
v 1.25026788 0.50110104 0.50770661
v 1.19816162 0.40658932 0.42919412
v 1.19512049 0.43911838 0.43056754
v 1.20932040 0.46184330 0.45231294
v 1.31650223 0.50113201 1.17723737
v 1.35098433 0.39872537 1.38496359
v 1.34389635 0.39571189 1.40155880
v 1.19492894 0.39571189 0.43010969
v 1.25024394 0.50113201 0.50770661
v 1.17330581 0.45699282 0.42495949
v 1.22136522 0.50113201 0.48332885
v 1.17996272 0.39571189 0.42198379
v 1.18190235 0.40658932 0.42129709
v 1.17886122 0.43911838 0.42289937
v 1.30591818 0.50113201 1.18994130
v 1.23815124 0.42389615 1.46885522
v 1.29796813 0.42174956 1.39789639
v 1.31690937 0.41656887 1.38645144
v 1.28479787 0.39571189 1.47366207
v 1.15525058 0.43911838 0.42072486
v 1.15525058 0.45780812 0.42461614
v 1.18422506 0.50101850 0.46833593
v 1.18889457 0.50113201 0.47028156
v 1.15556185 0.39571189 0.41729133
v 1.15525058 0.39960258 0.41717694
v 1.15525058 0.40658932 0.41706246
v 1.28427111 0.50113201 1.21214452
v 1.15525058 0.44397913 1.51303280
v 1.15525058 0.43076937 1.54805442
v 1.17572430 0.42559901 1.53752505
v 1.28398368 0.39571189 1.47457771
v 1.15525058 0.50101850 0.46787814
v 1.15671123 0.50113201 0.46776366
v 1.15680701 0.50101850 0.46764923
v 1.18412930 0.50113201 0.46845036
v 1.15525058 0.39571189 0.41912248
v 1.15525058 0.39582541 0.41729133
v 1.27457298 0.50113201 1.22164386
v 1.15525058 0.44487696 1.51028603
v 1.15525058 0.43044943 1.54862665
v 1.16573886 0.41996421 1.55927045
v 1.21427723 0.39739408 1.54175968
v 1.21501957 0.39571189 1.54210302
v 1.15525058 0.50113201 0.48012423
v 1.15560973 0.50113201 0.46799257
v 1.15525058 0.39571189 1.58628060
v 1.15525058 0.50113201 1.33735251
v 1.15525058 0.40805478 1.57952806
v 1.15525058 0.40741494 1.58021477
v 1.18099240 0.39827129 1.57140216
v 1.18151925 0.39571189 1.57185995
v 1.17917249 0.39571189 1.57357666
v 1.15525058 0.40719819 1.58044369
f 1 2 3
f 1 3 4
f 1 4 5
f 1 5 6
f 1 6 7
f 1 7 8
f 1 8 9
f 1 9 2
f 2 9 10
f 2 10 11
f 2 11 12
f 2 12 13
f 2 13 3
f 3 13 5
f 3 5 4
f 5 14 15
f 5 15 28
f 5 28 27
f 5 27 35
f 5 35 46
f 5 46 56
f 5 56 68
f 5 68 80
f 5 80 92
f 5 92 100
f 5 100 101
f 5 101 95
f 5 95 85
f 5 85 73
f 5 73 61
f 5 61 57
f 5 57 47
f 5 47 39
f 5 39 38
f 5 38 37
f 5 37 36
f 5 36 29
f 5 29 17
f 5 17 16
f 5 16 7
f 5 7 6
f 5 13 14
f 7 16 17
f 7 17 18
f 7 18 19
f 7 19 8
f 8 19 9
f 9 20 10
f 9 19 21
f 9 21 22
f 9 22 20
f 10 20 23
f 10 23 11
f 11 23 20
f 11 20 22
f 11 22 32
f 11 32 42
f 11 42 48
f 11 48 58
f 11 58 49
f 11 49 60
f 11 60 72
f 11 72 84
f 11 84 82
f 11 82 94
f 11 94 93
f 11 93 96
f 11 96 87
f 11 87 76
f 11 76 64
f 11 64 54
f 11 54 45
f 11 45 34
f 11 34 26
f 11 26 25
f 11 25 24
f 11 24 12
f 12 24 14
f 12 14 13
f 14 25 26
f 14 26 27
f 14 27 28
f 14 28 15
f 14 24 25
f 17 29 30
f 17 30 18
f 18 31 19
f 18 30 31
f 19 31 21
f 21 32 22
f 21 31 33
f 21 33 32
f 26 34 35
f 26 35 27
f 29 36 30
f 30 36 37
f 30 37 38
f 30 38 39
f 30 39 33
f 30 33 31
f 32 33 40
f 32 40 41
f 32 41 42
f 33 39 43
f 33 43 44
f 33 44 40
f 34 45 35
f 35 45 46
f 39 47 43
f 40 44 41
f 41 48 42
f 41 44 49
f 41 49 50
f 41 50 48
f 43 47 51
f 43 51 44
f 44 51 52
f 44 52 53
f 44 53 49
f 45 54 55
f 45 55 46
f 46 55 56
f 47 57 51
f 48 50 58
f 49 58 50
f 49 53 59
f 49 59 60
f 51 57 61
f 51 61 62
f 51 62 52
f 52 62 63
f 52 63 59
f 52 59 53
f 54 64 65
f 54 65 66
f 54 66 67
f 54 67 55
f 55 67 56
f 56 67 65
f 56 65 68
f 59 63 69
f 59 69 70
f 59 70 71
f 59 71 72
f 59 72 60
f 61 73 62
f 62 73 74
f 62 74 75
f 62 75 63
f 63 75 69
f 64 76 77
f 64 77 78
f 64 78 79
f 64 79 65
f 65 79 68
f 65 67 66
f 68 79 80
f 69 75 74
f 69 74 86
f 69 86 85
f 69 85 95
f 69 95 102
f 69 102 98
f 69 98 97
f 69 97 89
f 69 89 78
f 69 78 77
f 69 77 88
f 69 88 96
f 69 96 93
f 69 93 81
f 69 81 70
f 70 81 82
f 70 82 83
f 70 83 71
f 71 83 82
f 71 82 84
f 71 84 72
f 73 85 86
f 73 86 74
f 76 87 77
f 77 87 88
f 78 89 90
f 78 90 79
f 79 90 80
f 80 90 91
f 80 91 92
f 81 93 94
f 81 94 82
f 87 96 88
f 89 97 90
f 90 97 98
f 90 98 99
f 90 99 91
f 91 99 92
f 92 99 100
f 95 101 99
f 95 99 102
f 98 102 99
f 99 101 100

