# https://github.com/mikedh/trimesh
v -0.16571988 -1.45294073 1.41731452
v -0.12450450 -1.43388064 1.43949433
v -0.16571988 -1.44745745 1.44945531
v -0.16571988 -1.44843846 1.39855463
v -0.04347392 -1.43324996 1.22154770
v -0.09082852 -1.40600871 1.44198458
v -0.11264491 -1.41664239 1.45158034
v -0.13687870 -1.42727608 1.46117610
v -0.14718254 -1.43890841 1.45038503
v -0.16571988 -1.44015222 1.46233822
v -0.16571988 -1.44484711 1.38646862
v -0.16571988 -1.43878578 1.36750952
v -0.16571988 -1.38612523 1.22154770
v -0.04347392 -1.27398951 1.22154770
v -0.04347392 -1.35918188 1.42149812
v -0.05872026 -1.37298639 1.44102168
v -0.10078532 -1.39428884 1.46366634
v -0.12245810 -1.40558829 1.47482266
v -0.13507163 -1.39474435 1.49650443
v -0.14682352 -1.41424241 1.48272505
v -0.15856344 -1.43330250 1.46894567
v -0.16571988 -1.43487910 1.47037341
v -0.16571988 -1.27398951 1.22154770
v -0.04347392 -1.27398951 1.48109810
v -0.04347392 -1.34359041 1.44523850
v -0.04347392 -1.34013923 1.44809399
v -0.07061575 -1.35709713 1.46270347
v -0.12652698 -1.37305648 1.50251423
v -0.14609352 -1.38328728 1.50696348
v -0.15675638 -1.40119110 1.50148495
v -0.16571988 -1.40921454 1.49650443
v -0.16571988 -1.27398951 1.56075287
v -0.10372927 -1.27398951 1.52569015
v -0.04347392 -1.30476947 1.46731872
v -0.04347392 -1.31887187 1.46008039
v -0.13805149 -1.27398951 1.54913168
v -0.16571988 -1.38274414 1.51280728
v -0.14611745 -1.27398951 1.55268445
v -0.16571988 -1.40262762 1.50254743
f 1 2 3
f 1 3 10
f 1 10 22
f 1 22 31
f 1 31 39
f 1 39 37
f 1 37 32
f 1 32 23
f 1 23 13
f 1 13 12
f 1 12 11
f 1 11 4
f 1 4 5
f 1 5 2
f 2 6 7
f 2 7 8
f 2 8 9
f 2 9 3
f 2 5 6
f 3 9 10
f 4 11 5
f 5 12 13
f 5 13 23
f 5 23 14
f 5 14 24
f 5 24 34
f 5 34 35
f 5 35 26
f 5 26 25
f 5 25 15
f 5 15 16
f 5 16 6
f 5 11 12
f 6 16 17
f 6 17 18
f 6 18 7
f 7 18 8
f 8 18 19
f 8 19 20
f 8 20 21
f 8 21 9
f 9 21 10
f 10 21 22
f 14 23 32
f 14 32 38
f 14 38 36
f 14 36 33
f 14 33 24
f 15 25 16
f 16 25 26
f 16 26 27
f 16 27 19
f 16 19 17
f 17 19 18
f 19 28 29
f 19 29 30
f 19 30 20
f 19 27 28
f 20 30 21
f 21 30 22
f 22 30 31
f 24 33 28
f 24 28 34
f 26 35 27
f 27 35 28
f 28 33 36
f 28 36 29
f 28 35 34
f 29 37 30
f 29 36 38
f 29 38 32
f 29 32 37
f 30 37 39
f 30 39 31

