# https://github.com/mikedh/trimesh
v -0.59228304 -1.16236464 1.35970359
v -1.19585460 -1.16236464 1.35970359
v -0.59228304 -1.24490324 1.35970359
v -0.59228304 -1.16236464 0.41302839
v -1.19285010 -1.18456891 1.35970359
v -1.39950826 -1.16236464 1.17474237
v -1.39950826 -1.17438793 1.17474237
v -1.16410478 -1.24490324 1.35970359
v -0.59228304 -1.24490324 0.58232908
v -0.59228304 -1.16991958 0.41951508
v -0.73186863 -1.24490324 0.48855113
v -0.75046380 -1.24490324 0.48966310
v -0.75736593 -1.24490324 0.49077512
v -0.75436148 -1.24182469 0.48845845
v -0.76491771 -1.21923268 0.48345453
v -0.73251821 -1.18708182 0.46260468
v -0.72870177 -1.16236464 0.45278207
v -1.25805497 -1.21975789 1.29474478
v -1.24181470 -1.21975789 1.30910800
v -1.19220052 -1.18723537 1.35970359
v -1.41087644 -1.16236464 1.15815518
v -1.40762834 -1.18603141 1.15954517
v -1.39666614 -1.19607503 1.17168440
v -1.35971939 -1.21975789 1.20068885
v -1.27575698 -1.21975789 1.27843557
v -1.18172553 -1.22090524 1.35970359
v -1.23856661 -1.23944109 1.30623535
v -1.22947212 -1.24490324 1.30966398
v -0.70044361 -1.24490324 0.50096837
v -0.59228304 -1.17452529 0.42516762
v -0.59228304 -1.17334555 0.42257298
v -0.70767055 -1.24490324 0.49577909
v -0.76857177 -1.24490324 0.49522306
v -0.76443050 -1.18723537 0.47409524
v -0.79650511 -1.24490324 0.50754763
v -0.78302563 -1.20804170 0.48957043
v -0.81087777 -1.16693807 0.49197977
v -0.74055720 -1.16236464 0.45760070
v -1.27267125 -1.24298824 1.27519224
v -1.18432394 -1.21700253 1.35970359
v -1.18586680 -1.21223532 1.35970359
v -1.42175742 -1.16236464 1.12516610
v -1.41850941 -1.18723537 1.12516610
v -1.40429911 -1.21410991 1.15000056
v -1.37116890 -1.24490324 1.17937568
v -1.37628450 -1.21975789 1.18447229
v -1.33990629 -1.24490324 1.21162341
v -1.24433190 -1.24490324 1.29780273
v -1.27478255 -1.24490324 1.27231959
v -0.81185220 -1.16236464 0.49142378
v -0.81851070 -1.24490324 0.51977953
v -0.83475107 -1.24490324 0.53080677
v -0.85829947 -1.24490324 0.54702334
v -1.30174151 -1.24490324 1.24729979
v -1.41339372 -1.16236464 1.09236236
v -1.40608549 -1.21680865 1.12516610
v -1.40705990 -1.18675863 1.09152838
v -1.40291872 -1.21063537 1.10162894
v -1.38529796 -1.24490324 1.15815518
v -1.39065726 -1.24490324 1.12516610
v -1.35622769 -1.24490324 1.19559221
v -1.01980946 -1.16236464 0.64005996
v -0.87453984 -1.24490324 0.55869925
v -1.40235028 -1.16236464 1.06975188
v -1.39601657 -1.19727900 1.07994512
v -1.40032021 -1.17559189 1.07364384
v -1.23588696 -1.23535255 0.84892895
v -1.23353215 -1.24490324 0.85263558
v -1.37563492 -1.24490324 1.09384501
v -0.95127536 -1.24490324 0.61522548
v -0.96751573 -1.24490324 0.62792069
v -1.16792120 -1.23005199 0.78563814
v -1.17238732 -1.20836489 0.78220945
v -1.17238732 -1.19900003 0.78220945
v -1.23759219 -1.19810316 0.84707562
v -1.23393813 -1.17641606 0.85087492
v -1.23085250 -1.16236464 0.85393291
v -1.39138808 -1.16236464 1.05288666
v -1.18278109 -1.24490324 0.80417132
v -1.22435632 -1.24490324 0.84216434
v -1.23759219 -1.21367349 0.84707562
v -1.16353632 -1.24490324 0.78832544
v -1.38716557 -1.16236464 1.04751205
v -1.24002824 -1.16236464 0.86440416
f 1 2 5
f 1 5 20
f 1 20 41
f 1 41 40
f 1 40 26
f 1 26 8
f 1 8 3
f 1 3 9
f 1 9 30
f 1 30 31
f 1 31 10
f 1 10 4
f 1 4 17
f 1 17 38
f 1 38 50
f 1 50 62
f 1 62 77
f 1 77 84
f 1 84 83
f 1 83 78
f 1 78 64
f 1 64 55
f 1 55 42
f 1 42 21
f 1 21 6
f 1 6 2
f 2 6 7
f 2 7 5
f 3 8 28
f 3 28 48
f 3 48 49
f 3 49 54
f 3 54 47
f 3 47 61
f 3 61 45
f 3 45 59
f 3 59 60
f 3 60 69
f 3 69 68
f 3 68 80
f 3 80 79
f 3 79 82
f 3 82 71
f 3 71 70
f 3 70 63
f 3 63 53
f 3 53 52
f 3 52 51
f 3 51 35
f 3 35 33
f 3 33 13
f 3 13 12
f 3 12 11
f 3 11 32
f 3 32 29
f 3 29 9
f 4 10 11
f 4 11 12
f 4 12 13
f 4 13 14
f 4 14 15
f 4 15 16
f 4 16 17
f 5 18 19
f 5 19 20
f 5 7 18
f 6 21 7
f 7 21 22
f 7 22 23
f 7 23 24
f 7 24 25
f 7 25 18
f 8 26 27
f 8 27 28
f 9 29 30
f 10 31 11
f 11 31 32
f 13 33 15
f 13 15 14
f 15 34 17
f 15 17 16
f 15 33 35
f 15 35 36
f 15 36 37
f 15 37 34
f 17 34 38
f 18 25 39
f 18 39 19
f 19 39 27
f 19 27 40
f 19 40 41
f 19 41 20
f 21 42 22
f 22 42 43
f 22 43 44
f 22 44 23
f 23 44 45
f 23 45 46
f 23 46 24
f 24 46 47
f 24 47 39
f 24 39 25
f 26 40 27
f 27 48 28
f 27 39 49
f 27 49 48
f 29 32 31
f 29 31 30
f 34 37 50
f 34 50 38
f 35 51 37
f 35 37 36
f 37 51 52
f 37 52 53
f 37 53 50
f 39 47 54
f 39 54 49
f 42 55 43
f 43 56 44
f 43 55 57
f 43 57 58
f 43 58 56
f 44 59 45
f 44 56 60
f 44 60 59
f 45 61 46
f 46 61 47
f 50 53 62
f 53 63 62
f 55 64 57
f 56 58 60
f 57 65 58
f 57 64 66
f 57 66 65
f 58 65 67
f 58 67 68
f 58 68 69
f 58 69 60
f 62 63 70
f 62 70 71
f 62 71 72
f 62 72 73
f 62 73 74
f 62 74 75
f 62 75 76
f 62 76 77
f 64 78 67
f 64 67 66
f 65 66 67
f 67 79 80
f 67 80 68
f 67 78 81
f 67 81 73
f 67 73 79
f 71 82 72
f 72 82 79
f 72 79 73
f 73 81 75
f 73 75 74
f 75 81 78
f 75 78 83
f 75 83 76
f 76 83 84
f 76 84 77

