# https://github.com/mikedh/trimesh
v -0.91627521 -0.73284557 0.36650711
v -0.79347373 -0.73284557 0.37948978
v -0.91628723 -0.73284557 0.36691928
v -0.91628723 -0.73280418 0.36650711
v -0.91628723 -0.52159101 0.30015138
v -0.79347373 -0.53584149 0.28737480
v -0.79347373 -0.73284557 2.25908924
v -0.91628723 -0.73284557 2.14142099
v -0.91628723 -0.52157032 0.30736394
v -0.91009543 -0.52157032 0.30303636
v -0.79347373 -0.52157032 0.28469583
v -0.79347373 -0.53201516 0.28655044
v -0.79347373 -0.73143910 2.26362282
v -0.89619708 -0.73284557 2.16367701
v -0.84309207 -0.68266895 2.34419766
v -0.88532842 -0.68653667 2.28649702
v -0.91402694 -0.68467522 2.25228876
v -0.91628723 -0.68589548 2.24548829
v -0.91628723 -0.52157032 2.28237552
v -0.79347373 -0.52157032 2.37078118
v -0.79347373 -0.72103565 2.29164888
v -0.81703852 -0.71776778 2.28423024
v -0.79691225 -0.71290727 2.30710444
v -0.79347373 -0.71340369 2.30792870
v -0.79347373 -0.70124217 2.32874220
v -0.79691225 -0.68688826 2.34852525
v -0.79691225 -0.67075564 2.36480507
v -0.81765164 -0.65265819 2.37881810
v -0.85568002 -0.66099334 2.35305883
v -0.87736926 -0.64796316 2.34378558
v -0.86503384 -0.67054883 2.33327579
v -0.90700564 -0.67919427 2.27392653
v -0.91628723 -0.67274122 2.26774432
v -0.91628723 -0.68103502 2.25414347
v -0.91628723 -0.60175769 2.29267923
v -0.88033885 -0.61503608 2.34728881
v -0.82250890 -0.60175769 2.38293960
v -0.79347373 -0.52463137 2.37181163
v -0.79347373 -0.68709508 2.34852525
v -0.79347373 -0.66796350 2.36727795
v -0.79347373 -0.65437486 2.38026063
v -0.79691225 -0.65449894 2.38026063
v -0.79691225 -0.63427114 2.38788536
v -0.82402384 -0.63427114 2.38252742
v -0.84029077 -0.63427114 2.37490268
v -0.86469717 -0.63598781 2.35738642
v -0.88033885 -0.62630824 2.34728881
v -0.88964458 -0.63598781 2.33121508
v -0.91628723 -0.63427114 2.29494602
v -0.91628723 -0.65054854 2.28690920
v -0.91512108 -0.65751865 2.28505449
v -0.91628723 -0.65853209 2.28237552
v -0.79691225 -0.60175769 2.38973997
v -0.79347373 -0.56775509 2.38479422
v -0.79347373 -0.56303941 2.38355778
v -0.79347373 -0.54665863 2.37902419
v -0.79347373 -0.63400224 2.38726709
v -0.79347373 -0.63083775 2.38767927
v -0.79347373 -0.59832435 2.38994606
f 1 2 7
f 1 7 14
f 1 14 8
f 1 8 3
f 1 3 4
f 1 4 5
f 1 5 6
f 1 6 2
f 2 6 12
f 2 12 11
f 2 11 20
f 2 20 38
f 2 38 56
f 2 56 55
f 2 55 54
f 2 54 59
f 2 59 58
f 2 58 57
f 2 57 41
f 2 41 40
f 2 40 39
f 2 39 25
f 2 25 24
f 2 24 21
f 2 21 13
f 2 13 7
f 3 8 18
f 3 18 34
f 3 34 33
f 3 33 52
f 3 52 50
f 3 50 49
f 3 49 35
f 3 35 19
f 3 19 9
f 3 9 5
f 3 5 4
f 5 9 10
f 5 10 11
f 5 11 12
f 5 12 6
f 7 13 14
f 8 14 15
f 8 15 16
f 8 16 17
f 8 17 18
f 9 19 20
f 9 20 11
f 9 11 10
f 13 21 22
f 13 22 14
f 14 22 15
f 15 22 21
f 15 21 23
f 15 23 24
f 15 24 25
f 15 25 26
f 15 26 27
f 15 27 28
f 15 28 29
f 15 29 30
f 15 30 31
f 15 31 32
f 15 32 16
f 16 32 17
f 17 32 33
f 17 33 34
f 17 34 18
f 19 35 36
f 19 36 20
f 20 36 37
f 20 37 38
f 21 24 23
f 25 39 26
f 26 39 27
f 27 40 41
f 27 41 42
f 27 42 28
f 27 39 40
f 28 42 43
f 28 43 44
f 28 44 45
f 28 45 29
f 29 45 30
f 30 45 46
f 30 46 47
f 30 47 48
f 30 48 49
f 30 49 50
f 30 50 51
f 30 51 32
f 30 32 31
f 32 51 33
f 33 51 52
f 35 49 36
f 36 47 45
f 36 45 37
f 36 49 47
f 37 45 44
f 37 44 53
f 37 53 54
f 37 54 55
f 37 55 56
f 37 56 38
f 41 57 43
f 41 43 42
f 43 57 58
f 43 58 59
f 43 59 53
f 43 53 44
f 45 47 46
f 47 49 48
f 50 52 51
f 53 59 54

