# https://github.com/mikedh/trimesh
v 0.28143581 -1.38571286 0.92790219
v 0.03928564 -1.38571286 0.92790219
v 0.28143581 -1.41907321 0.92790219
v 0.28143581 -1.38571286 0.53368504
v 0.03928564 -1.58502236 0.92790219
v 0.03928564 -1.38571286 0.38535248
v 0.11139733 -1.54914978 0.92790219
v 0.28143581 -1.52638521 0.81549016
v 0.26522135 -1.54502072 0.61381136
v 0.26152331 -1.56252011 0.61872906
v 0.16674932 -1.56747935 0.48434776
v 0.13740209 -1.57755079 0.44912209
v 0.12810960 -1.54502072 0.42811501
v 0.09968689 -1.50405774 0.39187378
v 0.10099068 -1.47998238 0.39117882
v 0.11929121 -1.41492223 0.40202984
v 0.11929121 -1.38571286 0.40251094
v 0.28143581 -1.51281829 0.62990074
v 0.04879149 -1.58373338 0.92790219
v 0.03928564 -1.58672643 0.89748731
v 0.08133893 -1.60201933 0.60477777
v 0.19642842 -1.59439469 0.59200244
v 0.04879149 -1.38571286 0.38230563
v 0.03928564 -1.44098559 0.39123234
v 0.11085211 -1.54954296 0.92790219
v 0.26695183 -1.53328892 0.81981984
v 0.28143581 -1.53881612 0.79977496
v 0.19642842 -1.59439469 0.58628297
v 0.13154688 -1.59505009 0.45660560
v 0.23298206 -1.56643068 0.58013586
v 0.28143581 -1.52361066 0.63914816
v 0.28143581 -1.53698099 0.66817321
v 0.28143581 -1.53918759 0.67399961
v 0.28143581 -1.54698690 0.73525694
v 0.28143581 -1.54792633 0.76695466
v 0.26152331 -1.56252011 0.63086289
v 0.11682585 -1.57875233 0.43324650
v 0.10798376 -1.56872461 0.42057811
v 0.11184773 -1.54502072 0.41443099
v 0.08849796 -1.52575173 0.39422567
v 0.07913434 -1.51393250 0.39187378
v 0.08133893 -1.41492223 0.38380235
v 0.08133893 -1.38571286 0.38193146
v 0.08354354 -1.38571286 0.38251947
v 0.10302934 -1.41492223 0.38978912
v 0.10468871 -1.38571286 0.39080474
v 0.27645769 -1.54997995 0.76738229
v 0.28143581 -1.54681213 0.77224652
v 0.08261903 -1.56905226 0.92790219
v 0.03928564 -1.60796171 0.47467275
v 0.04879149 -1.60887922 0.47467275
v 0.08133893 -1.60818011 0.47467275
v 0.05211024 -1.38571286 0.38214529
v 0.06484002 -1.52898508 0.39326358
v 0.03928564 -1.45992693 0.39411875
v 0.08318796 -1.56870270 0.92790219
v 0.11386268 -1.60193189 0.47467275
v 0.11386268 -1.59915734 0.45115333
v 0.08133893 -1.57285367 0.41817269
v 0.07913434 -1.54189661 0.40074697
v 0.08133893 -1.58912961 0.42971865
v 0.06680756 -1.52898508 0.39326358
v 0.10302934 -1.38571286 0.38957528
v 0.03928564 -1.60145127 0.44709086
v 0.04879149 -1.60223783 0.44591491
v 0.08133893 -1.60271844 0.44602183
v 0.03928564 -1.56907417 0.42228866
v 0.03928564 -1.54305443 0.41122381
v 0.03928564 -1.51249064 0.40358007
v 0.03928564 -1.50434167 0.40165566
v 0.04879149 -1.58722896 0.42961173
v 0.03928564 -1.58443250 0.43041351
f 1 2 5
f 1 5 19
f 1 19 49
f 1 49 56
f 1 56 25
f 1 25 7
f 1 7 3
f 1 3 8
f 1 8 27
f 1 27 48
f 1 48 35
f 1 35 34
f 1 34 33
f 1 33 32
f 1 32 31
f 1 31 18
f 1 18 4
f 1 4 17
f 1 17 46
f 1 46 63
f 1 63 44
f 1 44 43
f 1 43 53
f 1 53 23
f 1 23 6
f 1 6 2
f 2 6 24
f 2 24 55
f 2 55 70
f 2 70 69
f 2 69 68
f 2 68 67
f 2 67 72
f 2 72 64
f 2 64 50
f 2 50 20
f 2 20 5
f 3 7 8
f 4 9 10
f 4 10 11
f 4 11 12
f 4 12 13
f 4 13 14
f 4 14 15
f 4 15 16
f 4 16 17
f 4 18 9
f 5 20 21
f 5 21 22
f 5 22 19
f 6 23 24
f 7 25 26
f 7 26 8
f 8 26 27
f 9 18 10
f 10 28 29
f 10 29 30
f 10 30 12
f 10 12 11
f 10 18 31
f 10 31 32
f 10 32 33
f 10 33 34
f 10 34 35
f 10 35 36
f 10 36 22
f 10 22 28
f 12 30 29
f 12 29 37
f 12 37 38
f 12 38 13
f 13 38 39
f 13 39 14
f 14 39 38
f 14 38 40
f 14 40 41
f 14 41 42
f 14 42 43
f 14 43 15
f 15 43 44
f 15 44 45
f 15 45 16
f 16 45 46
f 16 46 17
f 19 47 48
f 19 48 27
f 19 27 49
f 19 22 47
f 20 50 51
f 20 51 21
f 21 51 52
f 21 52 22
f 22 52 28
f 22 36 35
f 22 35 47
f 23 53 54
f 23 54 24
f 24 54 55
f 25 56 26
f 26 56 27
f 27 56 49
f 28 52 57
f 28 57 58
f 28 58 29
f 29 58 37
f 35 48 47
f 37 58 38
f 38 59 60
f 38 60 40
f 38 58 61
f 38 61 59
f 40 62 41
f 40 60 62
f 41 62 54
f 41 54 42
f 42 53 43
f 42 54 53
f 44 63 45
f 45 63 46
f 50 64 65
f 50 65 51
f 51 65 66
f 51 66 52
f 52 66 58
f 52 58 57
f 54 67 68
f 54 68 69
f 54 69 70
f 54 70 55
f 54 62 59
f 54 59 71
f 54 71 72
f 54 72 67
f 58 66 61
f 59 62 60
f 59 61 71
f 61 66 65
f 61 65 71
f 64 72 71
f 64 71 65

