# https://github.com/mikedh/trimesh
v -0.33180770 -1.49954713 0.73488363
v -0.33180770 -1.48257304 0.96251009
v -0.37407420 -1.49271758 0.76738462
v -0.33180770 -1.49862486 0.70803846
v -0.33180770 -1.48244848 0.96302788
v -0.49621882 -1.43524009 0.96302788
v -0.43912642 -1.47387414 0.83242644
v -0.40658869 -1.48481638 0.79988566
v -0.40658869 -1.48389411 0.76738462
v -0.33180770 -1.49214438 0.69059306
v -0.37407420 -1.48830584 0.73488363
v -0.33180770 -1.24491129 0.96302788
v -0.56920765 -1.39934783 0.96302788
v -0.56955677 -1.39922317 0.96290841
v -0.45911925 -1.46624708 0.83242644
v -0.43912642 -1.47574358 0.79988566
v -0.45695472 -1.46470170 0.78136484
v -0.43842818 -1.46948732 0.76925663
v -0.45641939 -1.39934783 0.61969629
v -0.33180770 -1.38484139 0.57907003
v -0.48313852 -1.42913340 0.72504570
v -0.56955677 -1.24491129 0.96302788
v -0.33180770 -1.24491129 0.55700443
v -0.56955677 -1.38145157 0.96302788
v -0.56955677 -1.38160105 0.73488363
v -0.45946838 -1.46647139 0.79988566
v -0.56955677 -1.38152631 0.73456499
v -0.56955677 -1.37260310 0.70230300
v -0.56955677 -1.36442766 0.68844226
v -0.56955677 -1.35119236 0.66872658
v -0.56955677 -1.34977164 0.66665545
v -0.56955677 -1.33733395 0.64853294
v -0.56955677 -1.32666595 0.63475189
v -0.56955677 -1.30837090 0.61404046
v -0.46901092 -1.38042956 0.61161086
v -0.47161762 -1.35764793 0.59396635
v -0.43912642 -1.36178553 0.58894780
v -0.33180770 -1.38357015 0.57819382
v -0.56955677 -1.24491129 0.58480550
v -0.33180770 -1.25228912 0.55612816
v -0.56955677 -1.24506086 0.58436740
v -0.56955677 -1.30817140 0.61388115
v -0.56955677 -1.28496606 0.59631627
v -0.52459041 -1.30435787 0.58703599
v -0.48825893 -1.33401888 0.58839021
v -0.47161762 -1.34139671 0.58767325
v -0.33180770 -1.36609761 0.56859484
v -0.33180770 -1.38237374 0.57751670
v -0.33180770 -1.28481658 0.55680527
v -0.56955677 -1.25338588 0.58472586
v -0.56955677 -1.26996107 0.58779273
v -0.56054951 -1.27350046 0.58655803
v -0.33180770 -1.33466690 0.56122636
v -0.33180770 -1.30351044 0.55819930
v -0.56955677 -1.25428313 0.58480550
v -0.33180770 -1.32718942 0.56023062
v -0.56955677 -1.25537989 0.58492497
f 1 2 3
f 1 3 4
f 1 4 10
f 1 10 20
f 1 20 38
f 1 38 48
f 1 48 47
f 1 47 53
f 1 53 56
f 1 56 54
f 1 54 49
f 1 49 40
f 1 40 23
f 1 23 12
f 1 12 5
f 1 5 2
f 2 5 6
f 2 6 7
f 2 7 8
f 2 8 3
f 3 8 9
f 3 9 4
f 4 9 11
f 4 11 10
f 5 12 22
f 5 22 24
f 5 24 13
f 5 13 6
f 6 13 14
f 6 14 15
f 6 15 7
f 7 15 16
f 7 16 8
f 8 16 9
f 9 16 17
f 9 17 18
f 9 18 11
f 10 19 20
f 10 11 18
f 10 18 21
f 10 21 19
f 12 23 39
f 12 39 22
f 13 24 14
f 14 24 22
f 14 22 39
f 14 39 41
f 14 41 50
f 14 50 55
f 14 55 57
f 14 57 51
f 14 51 43
f 14 43 42
f 14 42 34
f 14 34 33
f 14 33 32
f 14 32 31
f 14 31 30
f 14 30 29
f 14 29 28
f 14 28 27
f 14 27 25
f 14 25 26
f 14 26 15
f 15 26 16
f 16 26 17
f 17 25 27
f 17 27 28
f 17 28 21
f 17 21 18
f 17 26 25
f 19 21 28
f 19 28 29
f 19 29 30
f 19 30 31
f 19 31 32
f 19 32 33
f 19 33 34
f 19 34 35
f 19 35 36
f 19 36 37
f 19 37 20
f 20 37 38
f 23 40 41
f 23 41 39
f 34 42 36
f 34 36 35
f 36 43 44
f 36 44 45
f 36 45 46
f 36 46 47
f 36 47 37
f 36 42 43
f 37 47 48
f 37 48 38
f 40 49 41
f 41 49 50
f 43 51 44
f 44 52 53
f 44 53 47
f 44 47 45
f 44 51 52
f 45 47 46
f 49 54 50
f 50 54 56
f 50 56 55
f 51 57 52
f 52 57 53
f 53 57 56
f 55 56 57

