# https://github.com/mikedh/trimesh
v -0.37080738 0.80633726 1.83577234
v -0.37080738 0.89528878 1.79715390
v -0.57309005 0.80633726 1.86388787
v -0.37080738 0.80633726 0.36730191
v -0.37080738 0.90879172 1.79052898
v -0.50418274 0.87462311 1.82252250
v -0.59025521 0.80633726 1.86501895
v -0.45258856 0.80633726 0.25936425
v -0.37080738 0.83025869 0.35098204
v -0.50418274 0.91813070 1.79666916
v -0.50418274 0.89448342 1.81105007
v -0.37080738 0.92632155 1.77469381
v -0.50581047 0.98137860 1.75530380
v -0.51399847 0.98137860 1.75708120
v -0.53673734 0.98137860 1.76015126
v -0.53673734 0.92023832 1.79812342
v -0.53673734 0.89448342 1.81298906
v -0.60174800 0.80633726 1.86534213
v -0.45648525 0.80633726 0.25451669
v -0.37080738 0.85906383 0.34290287
v -0.37080738 0.94258334 1.75885860
v -0.37080738 0.98137860 1.71280736
v -0.55335993 0.98137860 1.75966653
v -0.60174800 0.83216080 1.84966851
v -0.61915976 0.81445958 1.85774774
v -0.62409229 0.80633726 1.85952509
v -0.46995102 0.80633726 0.24255951
v -0.44879053 0.95953058 0.28909565
v -0.37080738 0.86197691 0.34274127
v -0.37080738 0.98137860 0.39622540
v -0.55789788 0.98137860 1.75902019
v -0.60174800 0.85841270 1.83334861
v -0.63425330 0.85255233 1.82947056
v -0.65087589 0.84604073 1.82462310
v -0.63953108 0.80633726 1.85015325
v -0.47621533 0.80633726 0.23722726
v -0.45120743 0.98029900 0.29151928
v -0.37080738 0.89607698 0.34968938
v -0.49772111 0.89448342 0.23593461
v -0.37080738 0.95708009 0.37909757
v -0.45056624 0.98137860 0.29361991
v -0.57121566 0.98137860 1.75368794
v -0.75544529 0.94859794 1.69923433
v -0.75120334 0.91333267 1.72831934
v -0.67277626 0.82943617 1.81848291
v -0.65916252 0.80633726 1.83625708
v -0.50428137 0.80633726 0.22381583
v -0.51399847 0.89448342 0.22704754
v -0.50704357 0.92414530 0.24175164
v -0.53673734 0.93358704 0.23431885
v -0.54137392 0.98137860 0.25564785
v -0.45347640 0.98137860 0.29135777
v -0.45194735 0.98137860 0.29200406
v -0.37080738 0.95324174 0.37699703
v -0.37080738 0.92700700 0.36310082
v -0.37080738 0.91806207 0.35873803
v -0.59360930 0.98137860 1.73736804
v -0.73181851 0.97505555 1.65496045
v -0.73181851 0.96626484 1.67806691
v -0.76550767 0.95536652 1.67919798
v -0.77714839 0.93953320 1.69083197
v -0.76417584 0.92642431 1.71022198
v -0.78449787 0.91783931 1.69955748
v -0.77122937 0.89448342 1.71975542
v -0.69359150 0.82943617 1.80216296
v -0.67726486 0.80633726 1.82026032
v -0.53673734 0.80633726 0.21476718
v -0.53673734 0.89448342 0.22252317
v -0.51976950 0.91141350 0.23060234
v -0.53673734 0.91732525 0.22914819
v -0.56332362 0.94054416 0.23141033
v -0.57220220 0.95630905 0.23851993
v -0.56973591 0.98137860 0.25322403
v -0.68856034 0.98137860 1.66271648
v -0.74849044 0.97610073 1.63314670
v -0.76136436 0.96662468 1.64461914
v -0.78568167 0.94779258 1.66901821
v -0.78726006 0.89448342 1.70343552
v -0.79051552 0.92801797 1.67919798
v -0.79919678 0.89448342 1.67806691
v -0.69423275 0.80633726 1.80394041
v -0.56924269 0.80633726 0.21460559
v -0.56924269 0.89448342 0.22349274
v -0.58556933 0.94332017 0.23076394
v -0.58502672 0.94332017 0.23076394
v -0.61980100 0.97764301 0.26162639
v -0.59454649 0.98137860 0.25887947
v -0.70192747 0.98137860 1.64752760
v -0.84368805 0.98137860 1.34391232
v -0.87471365 0.98137860 1.26053527
v -0.84723946 0.91295568 1.53894353
v -0.84482261 0.90437068 1.56059574
v -0.79959136 0.86197691 1.67806691
v -0.78652018 0.86197691 1.70246599
v -0.75702373 0.80633726 1.73688325
v -0.84033400 0.89390073 1.57820830
v -0.84620368 0.88269405 1.56592799
v -0.84033400 0.86197691 1.58305583
v -0.82908787 0.80633726 0.24272112
v -0.68323322 0.84595504 0.23076394
v -0.84566112 0.80633726 0.24708389
v -0.87471365 0.98137860 0.56524168
v -0.62216861 0.98137860 0.27164453
v -0.60194526 0.98137860 0.26130320
v -0.87471365 0.85561954 1.47608760
v -0.87308596 0.85944082 1.47996559
v -0.84630236 0.84187677 1.56592799
v -0.80866721 0.82943617 1.65108245
v -0.78173563 0.80633726 1.69697216
v -0.77330103 0.80633726 1.71329210
v -0.84654897 0.86197691 1.56673592
v -0.87471365 0.80633726 0.28667181
v -0.87471365 0.85491703 1.47608760
v -0.85582213 0.80633726 1.52472422
v -0.84186310 0.80633726 1.56253473
v -0.83545076 0.80633726 1.57982416
v -0.83964343 0.83039585 1.57820830
v -0.82109720 0.80633726 1.61488775
v -0.87471365 0.83666743 1.47527967
v -0.87017570 0.80633726 1.48206619
v -0.81394503 0.80633726 1.63120770
v -0.80723674 0.80633726 1.64575021
v -0.79115677 0.80633726 1.67806691
v -0.87471365 0.80633726 1.46542309
f 1 2 3
f 1 3 7
f 1 7 18
f 1 18 26
f 1 26 35
f 1 35 46
f 1 46 66
f 1 66 81
f 1 81 95
f 1 95 110
f 1 110 109
f 1 109 123
f 1 123 122
f 1 122 121
f 1 121 118
f 1 118 116
f 1 116 115
f 1 115 114
f 1 114 120
f 1 120 124
f 1 124 112
f 1 112 101
f 1 101 99
f 1 99 82
f 1 82 67
f 1 67 47
f 1 47 36
f 1 36 27
f 1 27 19
f 1 19 8
f 1 8 4
f 1 4 9
f 1 9 20
f 1 20 29
f 1 29 38
f 1 38 56
f 1 56 55
f 1 55 54
f 1 54 40
f 1 40 30
f 1 30 22
f 1 22 21
f 1 21 12
f 1 12 5
f 1 5 2
f 2 5 6
f 2 6 3
f 3 6 7
f 4 8 9
f 5 10 11
f 5 11 6
f 5 12 13
f 5 13 14
f 5 14 15
f 5 15 10
f 6 11 16
f 6 16 17
f 6 17 7
f 7 17 18
f 8 19 9
f 9 19 20
f 10 16 11
f 10 15 16
f 12 21 13
f 13 21 22
f 13 22 30
f 13 30 41
f 13 41 53
f 13 53 52
f 13 52 51
f 13 51 73
f 13 73 87
f 13 87 104
f 13 104 103
f 13 103 102
f 13 102 90
f 13 90 89
f 13 89 88
f 13 88 74
f 13 74 57
f 13 57 42
f 13 42 31
f 13 31 23
f 13 23 15
f 13 15 14
f 15 23 16
f 16 24 18
f 16 18 17
f 16 23 24
f 18 24 25
f 18 25 26
f 19 27 28
f 19 28 29
f 19 29 20
f 23 31 32
f 23 32 24
f 24 32 25
f 25 32 33
f 25 33 34
f 25 34 26
f 26 34 35
f 27 36 28
f 28 37 38
f 28 38 29
f 28 36 39
f 28 39 37
f 30 40 37
f 30 37 41
f 31 42 33
f 31 33 32
f 33 42 43
f 33 43 44
f 33 44 34
f 34 45 35
f 34 44 45
f 35 45 46
f 36 47 48
f 36 48 39
f 37 39 48
f 37 48 49
f 37 49 50
f 37 50 51
f 37 51 52
f 37 52 53
f 37 53 41
f 37 40 54
f 37 54 55
f 37 55 56
f 37 56 38
f 42 57 58
f 42 58 59
f 42 59 60
f 42 60 43
f 43 61 62
f 43 62 44
f 43 60 61
f 44 62 63
f 44 63 64
f 44 64 45
f 45 65 46
f 45 64 65
f 46 65 66
f 47 67 48
f 48 67 68
f 48 68 69
f 48 69 49
f 49 69 50
f 50 69 70
f 50 70 71
f 50 71 51
f 51 71 72
f 51 72 73
f 57 74 58
f 58 60 59
f 58 74 75
f 58 75 60
f 60 75 76
f 60 76 77
f 60 77 61
f 61 63 62
f 61 77 63
f 63 78 64
f 63 77 79
f 63 79 80
f 63 80 78
f 64 78 81
f 64 81 65
f 65 81 66
f 67 82 68
f 68 70 69
f 68 82 83
f 68 83 84
f 68 84 85
f 68 85 71
f 68 71 70
f 71 85 72
f 72 85 73
f 73 86 87
f 73 85 84
f 73 84 86
f 74 88 75
f 75 88 89
f 75 89 90
f 75 90 76
f 76 90 77
f 77 91 92
f 77 92 79
f 77 90 91
f 78 80 93
f 78 93 94
f 78 94 95
f 78 95 81
f 79 92 96
f 79 96 80
f 80 96 97
f 80 97 98
f 80 98 93
f 82 99 100
f 82 100 83
f 83 100 84
f 84 100 99
f 84 99 101
f 84 101 86
f 86 101 102
f 86 102 103
f 86 103 104
f 86 104 87
f 90 105 106
f 90 106 91
f 90 102 112
f 90 112 124
f 90 124 119
f 90 119 113
f 90 113 105
f 91 106 92
f 92 97 96
f 92 106 105
f 92 105 97
f 93 98 107
f 93 107 108
f 93 108 109
f 93 109 110
f 93 110 94
f 94 110 95
f 97 111 98
f 97 105 111
f 98 111 107
f 101 112 102
f 105 113 111
f 107 114 115
f 107 115 116
f 107 116 117
f 107 117 118
f 107 118 108
f 107 111 119
f 107 119 120
f 107 120 114
f 108 118 121
f 108 121 122
f 108 122 123
f 108 123 109
f 111 113 119
f 116 118 117
f 119 124 120

