# https://github.com/mikedh/trimesh
v -1.13371324 0.50113206 1.25910490
v -1.13371324 0.52407834 1.25598631
v -1.25230783 0.50113206 1.27520087
v -1.13371324 0.50113206 0.36386778
v -1.13371324 0.53353558 1.25055393
v -1.25230783 0.51415662 1.26795768
v -1.27771530 0.50113206 1.27510025
v -1.17930809 0.50113206 0.41628028
v -1.13371324 0.54077247 0.28047050
v -1.25230783 0.53669415 1.25387371
v -1.13371324 0.58925699 1.21031400
v -1.25230783 0.55572938 1.24119812
v -1.28479951 0.51378501 1.26715286
v -1.28479951 0.50113206 1.27489906
v -1.27646355 0.55605451 1.24149995
v -1.19243793 0.50113206 0.44213434
v -1.13754830 0.55495829 0.26608475
v -1.13371324 0.55203193 0.26266441
v -1.13371324 0.54446987 0.27332795
v -1.21976292 0.58897830 1.21011281
v -1.13371324 0.59602940 1.19884564
v -1.28631756 0.53907238 1.25005092
v -1.29654449 0.50113206 1.27147866
v -1.29816907 0.55148385 1.23687237
v -1.25230783 0.58801212 1.20960980
v -1.26959231 0.58611694 1.20739661
v -1.36568251 0.50113206 0.79865989
v -1.19382277 0.59602940 0.33922079
v -1.18037334 0.59602940 0.31296423
v -1.14218239 0.57664118 0.25853980
v -1.13371324 0.57059338 0.25139724
v -1.19994827 0.59602940 1.19794024
v -1.21976292 0.59602940 1.19673307
v -1.13371324 0.59602940 0.24747387
v -1.31044662 0.52981027 1.24552393
v -1.31625251 0.50113206 1.25669051
v -1.30791654 0.55743873 1.21524338
v -1.32959542 0.54906845 1.19975105
v -1.32000769 0.53944399 1.22610816
v -1.22953706 0.59602940 1.19602888
v -1.24130859 0.59602940 1.19019409
v -1.25230783 0.59427357 1.19019409
v -1.27265506 0.58770555 1.19019409
v -1.33502848 0.55432659 1.17802147
v -1.37734752 0.50113206 0.83236076
v -1.20543456 0.59602940 0.36346530
v -1.17081229 0.59602940 0.29656654
v -1.15808194 0.59602940 0.27564184
v -1.14441952 0.59602940 0.25703077
v -1.14239537 0.59602940 0.25501882
v -1.13371324 0.57743083 0.25008944
v -1.33212548 0.51305109 1.23697295
v -1.33316417 0.50113206 1.23848192
v -1.33737214 0.52738556 1.21534400
v -1.39913291 0.52120772 1.10971428
v -1.24439800 0.59602940 1.18224670
v -1.29452043 0.59602940 0.90569800
v -1.35745299 0.54941219 1.09261230
v -1.40472574 0.50113206 1.06011859
v -1.39793447 0.51934046 1.08214994
v -1.33500182 0.55481894 0.87189649
v -1.33327071 0.55264511 0.85016692
v -1.21012188 0.59602940 0.37956132
v -1.40113041 0.50113206 1.11434187
v -1.38520413 0.53107370 1.09281352
v -1.29515954 0.59602940 0.89744880
v -1.39913291 0.52120772 1.10377889
v -1.40573777 0.50113206 1.08758233
v -1.40496547 0.50113206 1.09281352
v -1.40211579 0.50113206 1.11142449
v -1.40097056 0.50416985 1.11333588
v -1.40523175 0.50113206 1.06635577
v -1.30253679 0.58682298 0.87441148
v -1.29087169 0.59602940 0.86847609
f 1 2 3
f 1 3 7
f 1 7 14
f 1 14 23
f 1 23 36
f 1 36 53
f 1 53 64
f 1 64 70
f 1 70 69
f 1 69 68
f 1 68 72
f 1 72 59
f 1 59 45
f 1 45 27
f 1 27 16
f 1 16 8
f 1 8 4
f 1 4 9
f 1 9 19
f 1 19 18
f 1 18 31
f 1 31 51
f 1 51 34
f 1 34 21
f 1 21 11
f 1 11 5
f 1 5 2
f 2 5 6
f 2 6 3
f 3 6 7
f 4 8 9
f 5 10 6
f 5 11 12
f 5 12 10
f 6 13 14
f 6 14 7
f 6 10 15
f 6 15 13
f 8 16 17
f 8 17 18
f 8 18 19
f 8 19 9
f 10 12 15
f 11 20 15
f 11 15 12
f 11 21 20
f 13 22 23
f 13 23 14
f 13 15 22
f 15 24 22
f 15 20 25
f 15 25 26
f 15 26 24
f 16 27 17
f 17 28 29
f 17 29 30
f 17 30 18
f 17 27 28
f 18 30 31
f 20 21 32
f 20 32 33
f 20 33 25
f 21 34 50
f 21 50 49
f 21 49 48
f 21 48 47
f 21 47 29
f 21 29 28
f 21 28 46
f 21 46 63
f 21 63 74
f 21 74 66
f 21 66 57
f 21 57 56
f 21 56 41
f 21 41 40
f 21 40 33
f 21 33 32
f 22 24 23
f 23 24 35
f 23 35 36
f 24 37 38
f 24 38 39
f 24 39 35
f 24 26 37
f 25 33 40
f 25 40 26
f 26 40 41
f 26 41 42
f 26 42 43
f 26 43 44
f 26 44 37
f 27 45 46
f 27 46 28
f 29 47 30
f 30 47 48
f 30 48 49
f 30 49 50
f 30 50 31
f 31 50 51
f 34 51 50
f 35 39 52
f 35 52 36
f 36 52 53
f 37 44 38
f 38 54 39
f 38 44 55
f 38 55 54
f 39 54 52
f 41 56 42
f 42 56 57
f 42 57 43
f 43 57 58
f 43 58 44
f 44 58 55
f 45 59 60
f 45 60 61
f 45 61 62
f 45 62 63
f 45 63 46
f 52 54 55
f 52 55 64
f 52 64 53
f 55 58 65
f 55 65 66
f 55 66 67
f 55 67 68
f 55 68 69
f 55 69 70
f 55 70 71
f 55 71 64
f 57 66 58
f 58 66 65
f 59 72 67
f 59 67 60
f 60 67 61
f 61 67 73
f 61 73 63
f 61 63 62
f 63 73 74
f 64 71 70
f 66 73 67
f 66 74 73
f 67 72 68

