# https://github.com/mikedh/trimesh
v -0.82382289 0.59603871 0.10493207
v -0.82311708 0.59603871 0.10493207
v -0.86193464 0.59603871 0.11372938
v -0.85148921 0.69211728 0.13014772
v -0.82932798 0.63428549 0.11459890
v -0.82932798 0.66679685 0.12252676
v -0.53657322 0.69588656 0.12549324
v -0.53657322 0.66679685 0.11976481
v -0.17902848 0.59603871 0.14646369
v -0.88889516 0.59603871 0.12073662
v -0.89440025 0.59603871 0.12221985
v -0.91472654 0.59603871 0.12779493
v -0.92121962 0.59603871 0.12973853
v -0.93801699 0.59603871 0.13490436
v -0.99334963 0.59603871 0.15520989
v -1.00901787 0.59603871 0.16109188
v -1.00563009 0.61578667 0.16656460
v -1.01169975 0.68628415 0.19602553
v -1.14367931 0.70699887 0.26103381
v -0.86645164 0.70699887 0.14288340
v -0.86207579 0.70699887 0.14129778
v -0.82989255 0.70699887 0.13771748
v -0.82932798 0.70699887 0.13766631
v -0.56917993 0.69511532 0.12580015
v -0.53657322 0.70699887 0.13290967
v -0.17902848 0.69468085 0.19106416
v -0.18086348 0.66397262 0.17392983
v -0.17140612 0.64737475 0.16728069
v -0.18086348 0.63563239 0.16052926
v -0.17902848 0.60175236 0.14850956
v -0.15785527 0.62569327 0.16206358
v -0.17394690 0.59603871 0.14769121
v -1.01522867 0.59603871 0.16421183
v -1.16160600 0.69931912 0.26819441
v -1.16696986 0.70699887 0.27576418
v -0.17902848 0.70699887 0.20057763
v 0.20519450 0.70699887 0.32813905
v -0.15644373 0.68851095 0.19490028
v -0.14698637 0.59603871 0.15628396
v -1.06209196 0.59603871 0.19341694
v -1.08326519 0.59603871 0.20686869
v -1.16400560 0.66679685 0.26665998
v -1.18320266 0.69931912 0.28445930
v -1.18094411 0.70699887 0.28630053
v 0.20519450 0.70699887 0.62740231
v 0.20519450 0.59603871 0.31642636
v -0.04013231 0.59603871 0.20456711
v -0.14232826 0.59603871 0.15838103
v -1.10570880 0.59603871 0.22379849
v -1.18546112 0.66679685 0.28292487
v -1.20169392 0.66679685 0.30113328
v -1.20014128 0.70238236 0.30962375
v -1.19675349 0.70699887 0.31008411
v 0.20519450 0.59603871 0.62740231
v -1.14763165 0.70699887 0.62740231
v -1.11008458 0.59603871 0.22712305
v -1.12349425 0.59603871 0.23786404
v -1.14494977 0.60175236 0.25653280
v -1.14438511 0.59603871 0.25699315
v -1.18080297 0.63428549 0.28589136
v -1.19689463 0.63521963 0.31223225
v -1.21072784 0.60913882 0.35279216
v -1.21256287 0.63521963 0.34297188
v -1.22625484 0.63428549 0.37703600
v -1.20564627 0.69357285 0.31883032
v -1.17529797 0.61093115 0.29080155
v -1.23670027 0.68531739 0.42388697
v -1.20112926 0.70699887 0.32297324
v -1.15271332 0.59603871 0.62740231
v -1.18757843 0.70699887 0.51252533
v -1.23670027 0.68531739 0.42935975
v -1.22145555 0.66679685 0.47462515
v -1.14876098 0.69931912 0.62740231
v -1.14226780 0.59603871 0.25504955
v -1.15793595 0.59603871 0.27561072
v -1.19378923 0.59603871 0.33923804
v -1.20536389 0.59603871 0.36337960
v -1.21002204 0.59603871 0.37954222
v -1.21228049 0.59967760 0.37954222
v -1.17078106 0.59603871 0.29658117
v -1.17628606 0.59603871 0.30609464
v -1.18023840 0.59603871 0.31294834
v -1.22794863 0.63428549 0.40956568
v -1.23670027 0.67314056 0.42388697
v -1.21425666 0.70699887 0.43457673
v -1.21411552 0.70699887 0.41672629
v -1.20522275 0.70699887 0.34455741
v -1.15017249 0.68949943 0.62740231
v -1.19731806 0.59603871 0.53324001
v -1.23670027 0.67314056 0.42935975
v -1.23415944 0.66410295 0.44097016
v -1.20296429 0.59603871 0.51927680
v -1.21016318 0.59603871 0.38255990
v -1.22837216 0.63428549 0.44209543
v -1.21129241 0.59603871 0.44132820
v -1.20832824 0.59603871 0.47697792
f 1 2 9
f 1 9 32
f 1 32 39
f 1 39 48
f 1 48 47
f 1 47 46
f 1 46 54
f 1 54 69
f 1 69 89
f 1 89 92
f 1 92 96
f 1 96 95
f 1 95 93
f 1 93 78
f 1 78 77
f 1 77 76
f 1 76 82
f 1 82 81
f 1 81 80
f 1 80 75
f 1 75 59
f 1 59 74
f 1 74 57
f 1 57 56
f 1 56 49
f 1 49 41
f 1 41 40
f 1 40 33
f 1 33 16
f 1 16 15
f 1 15 14
f 1 14 13
f 1 13 12
f 1 12 11
f 1 11 10
f 1 10 3
f 1 3 4
f 1 4 5
f 1 5 6
f 1 6 7
f 1 7 2
f 2 7 8
f 2 8 9
f 3 10 4
f 4 6 5
f 4 10 11
f 4 11 12
f 4 12 13
f 4 13 14
f 4 14 15
f 4 15 16
f 4 16 17
f 4 17 18
f 4 18 19
f 4 19 20
f 4 20 21
f 4 21 22
f 4 22 23
f 4 23 7
f 4 7 24
f 4 24 6
f 6 24 7
f 7 23 25
f 7 25 26
f 7 26 27
f 7 27 28
f 7 28 29
f 7 29 30
f 7 30 9
f 7 9 8
f 9 30 31
f 9 31 32
f 16 33 19
f 16 19 17
f 17 19 18
f 19 34 35
f 19 35 44
f 19 44 53
f 19 53 68
f 19 68 87
f 19 87 86
f 19 86 85
f 19 85 70
f 19 70 55
f 19 55 45
f 19 45 37
f 19 37 36
f 19 36 25
f 19 25 23
f 19 23 22
f 19 22 21
f 19 21 20
f 19 33 34
f 25 36 26
f 26 36 37
f 26 37 38
f 26 38 28
f 26 28 27
f 28 38 37
f 28 37 31
f 28 31 29
f 29 31 30
f 31 39 32
f 31 37 39
f 33 40 34
f 34 41 42
f 34 42 43
f 34 43 35
f 34 40 41
f 35 43 44
f 37 45 54
f 37 54 46
f 37 46 47
f 37 47 48
f 37 48 39
f 41 49 42
f 42 49 50
f 42 50 43
f 43 50 51
f 43 51 52
f 43 52 44
f 44 52 53
f 45 55 73
f 45 73 88
f 45 88 69
f 45 69 54
f 49 56 50
f 50 56 57
f 50 57 58
f 50 58 59
f 50 59 60
f 50 60 51
f 51 61 62
f 51 62 63
f 51 63 64
f 51 64 65
f 51 65 52
f 51 60 66
f 51 66 61
f 52 65 67
f 52 67 68
f 52 68 53
f 55 70 71
f 55 71 72
f 55 72 73
f 57 74 58
f 58 74 59
f 59 75 66
f 59 66 60
f 61 66 62
f 62 76 77
f 62 77 78
f 62 78 79
f 62 79 64
f 62 64 63
f 62 66 80
f 62 80 81
f 62 81 82
f 62 82 76
f 64 79 83
f 64 83 84
f 64 84 67
f 64 67 65
f 66 75 80
f 67 84 90
f 67 90 71
f 67 71 85
f 67 85 86
f 67 86 87
f 67 87 68
f 69 88 89
f 70 85 71
f 71 90 91
f 71 91 72
f 72 91 92
f 72 92 89
f 72 89 88
f 72 88 73
f 78 93 79
f 79 94 83
f 79 93 95
f 79 95 94
f 83 94 84
f 84 94 90
f 90 94 91
f 91 94 92
f 92 94 96
f 94 95 96

