# https://github.com/mikedh/trimesh
v -0.73230228 0.04201441 0.94190516
v -1.40240427 0.04201441 0.94190516
v -0.73230228 -0.12638899 0.94190516
v -0.73230228 0.04201441 0.15362943
v -1.39792934 -0.12638899 0.94190516
v -1.56437995 0.04201441 0.72249008
v -1.59798594 -0.04878100 0.69094801
v -1.53024751 -0.12604283 0.78575814
v -1.53024751 -0.12638899 0.78575814
v -0.73230228 -0.12638899 0.08088958
v -0.73230228 -0.08468376 0.09229257
v -0.74862268 -0.10461326 0.06847505
v -0.77029547 -0.08781577 0.06176211
v -0.84101722 -0.05924852 0.03169135
v -0.85540733 -0.03758818 0.03858828
v -0.86260234 -0.01653775 0.05081881
v -0.86979735 0.00378737 0.06304945
v -1.03124657 0.04201441 0.04474955
v -1.57710284 0.04201441 0.70225903
v -1.61132313 -0.04878100 0.66979735
v -1.59877569 -0.08130449 0.69205154
v -1.59666981 -0.10129991 0.68966057
v -1.56201090 -0.12638899 0.71945545
v -0.74792075 -0.12638899 0.06792328
v -0.73230228 -0.11752045 0.08088958
v -0.73230228 -0.08511235 0.09210866
v -0.73230228 -0.11470163 0.08134935
v -0.74792075 -0.12629009 0.06792328
v -0.76143333 -0.11480054 0.06093446
v -0.86198815 -0.08130449 0.01348344
v -0.86453276 -0.04855022 0.02782907
v -0.87716782 -0.03173626 0.03518576
v -1.03852930 0.03433273 0.03435821
v -1.04686507 0.04201441 0.03941593
v -1.59017683 0.04201441 0.67834958
v -1.60904170 -0.08130449 0.66979735
v -1.62781911 -0.01627400 0.62492120
v -1.62834548 -0.03780247 0.62630061
v -1.59921443 -0.10392091 0.66979735
v -1.56841625 -0.12638899 0.70198316
v -0.75160597 -0.12638899 0.06599220
v -0.86198815 -0.11382797 0.01587431
v -0.90954542 -0.12638899 0.00244824
v -0.90954542 -0.12060301 0.00244824
v -0.89454119 -0.08130449 0.00640253
v -0.89454119 -0.04878100 0.02148391
v -1.05713107 0.03517343 0.03389833
v -1.05713107 0.01624948 0.02746118
v -1.05713107 0.04201441 0.03886417
v -1.60096929 0.04201441 0.65664716
v -1.61325344 -0.08130449 0.63724377
v -1.62632733 0.00001247 0.62096696
v -1.62773128 0.00207300 0.60469015
v -1.62860876 -0.01647181 0.60413837
v -1.62834548 -0.03780247 0.61462175
v -1.58166560 -0.12017441 0.66979735
v -1.59974090 -0.10342638 0.63724377
v -1.57411959 -0.12638899 0.66979735
v -0.85075684 -0.12638899 0.02497833
v -0.86172486 -0.12638899 0.02065625
v -0.91603849 -0.12638899 0.00254015
v -0.92700651 -0.10912995 0.00272413
v -0.94341468 -0.09750853 0.00300001
v -0.94113334 -0.09750853 0.00300001
v -0.91946059 -0.09892618 0.00309192
v -1.07555738 0.03425031 0.03463409
v -1.05713107 -0.01627400 0.02129993
v -1.08968422 -0.01627400 0.02553010
v -1.08766607 0.01376035 0.03196714
v -1.08362987 0.04201441 0.04548531
v -1.60798885 0.04201441 0.63660006
v -1.59745958 -0.10065703 0.61627702
v -1.60930497 0.04201441 0.62997896
v -1.61062120 0.04201441 0.60469015
v -1.62817002 0.00273237 0.58620631
v -1.62817002 -0.00575703 0.58620631
v -1.62430918 -0.02743386 0.59291933
v -1.61904460 -0.04869858 0.60413837
v -1.57964745 -0.11969637 0.63724377
v -1.57043430 -0.12638899 0.63724377
v -0.94341468 -0.09765689 0.00300001
v -0.99211270 -0.12638899 0.00962106
v -1.10661875 0.00126527 0.03500187
v -1.46689627 0.04201441 0.26131386
v -1.08968422 -0.04878100 0.02644964
v -1.11004085 -0.04878100 0.03279479
v -1.10960211 -0.01627400 0.03288679
v -1.56824079 -0.12638899 0.62676039
v -1.46751047 -0.12638899 0.32071964
v -1.60851532 0.04201441 0.59788517
v -1.60167132 0.04201441 0.57783800
v -1.49892285 0.04201441 0.29184440
v -1.49857183 0.01624948 0.29258007
v -1.49795764 -0.00394376 0.29405138
v -1.02492903 -0.12638899 0.01936873
v -1.46689627 0.02612357 0.26131386
v -1.10723306 -0.06655106 0.03490998
v -1.15022764 -0.08130449 0.05900327
v -1.13855771 -0.12638899 0.05881929
v -1.14882370 -0.11382797 0.06111835
v -1.45461204 -0.12638899 0.30453481
v -1.44829450 -0.12638899 0.29910922
v -1.20392709 -0.12638899 0.09992514
v -1.10846144 -0.12638899 0.04704853
v -1.16514414 -0.11382797 0.07187757
v -1.14689337 -0.12638899 0.06258967
v -1.15689619 -0.12638899 0.06911881
f 1 2 5
f 1 5 3
f 1 3 10
f 1 10 25
f 1 25 27
f 1 27 26
f 1 26 11
f 1 11 4
f 1 4 18
f 1 18 34
f 1 34 49
f 1 49 70
f 1 70 84
f 1 84 92
f 1 92 91
f 1 91 90
f 1 90 74
f 1 74 73
f 1 73 71
f 1 71 50
f 1 50 35
f 1 35 19
f 1 19 6
f 1 6 2
f 2 6 7
f 2 7 8
f 2 8 9
f 2 9 5
f 3 5 9
f 3 9 23
f 3 23 40
f 3 40 58
f 3 58 80
f 3 80 88
f 3 88 89
f 3 89 101
f 3 101 102
f 3 102 103
f 3 103 107
f 3 107 106
f 3 106 99
f 3 99 104
f 3 104 95
f 3 95 82
f 3 82 61
f 3 61 43
f 3 43 60
f 3 60 59
f 3 59 41
f 3 41 24
f 3 24 10
f 4 11 12
f 4 12 13
f 4 13 14
f 4 14 15
f 4 15 16
f 4 16 17
f 4 17 18
f 6 19 20
f 6 20 7
f 7 20 21
f 7 21 8
f 8 21 9
f 9 21 22
f 9 22 23
f 10 24 28
f 10 28 25
f 11 26 12
f 12 26 27
f 12 27 25
f 12 25 28
f 12 28 29
f 12 29 30
f 12 30 14
f 12 14 13
f 14 30 31
f 14 31 15
f 15 31 32
f 15 32 16
f 16 32 17
f 17 32 33
f 17 33 18
f 18 33 34
f 19 35 20
f 20 36 21
f 20 35 37
f 20 37 38
f 20 38 36
f 21 36 22
f 22 36 39
f 22 39 40
f 22 40 23
f 24 41 28
f 28 41 29
f 29 41 30
f 30 42 43
f 30 43 44
f 30 44 45
f 30 45 31
f 30 41 42
f 31 45 46
f 31 46 33
f 31 33 32
f 33 47 34
f 33 46 45
f 33 45 48
f 33 48 47
f 34 47 49
f 35 50 37
f 36 38 51
f 36 51 39
f 37 52 53
f 37 53 54
f 37 54 38
f 37 50 52
f 38 54 55
f 38 55 51
f 39 56 40
f 39 51 57
f 39 57 56
f 40 56 58
f 41 59 42
f 42 59 60
f 42 60 43
f 43 61 44
f 44 61 62
f 44 62 63
f 44 63 64
f 44 64 65
f 44 65 45
f 45 65 64
f 45 64 63
f 45 63 48
f 47 66 49
f 47 48 66
f 48 63 67
f 48 67 68
f 48 68 69
f 48 69 66
f 49 66 70
f 50 71 52
f 51 55 72
f 51 72 57
f 52 71 73
f 52 73 53
f 53 74 75
f 53 75 54
f 53 73 74
f 54 75 76
f 54 76 55
f 55 76 77
f 55 77 78
f 55 78 72
f 56 57 58
f 57 79 58
f 57 72 79
f 58 79 80
f 61 81 62
f 61 82 81
f 62 81 63
f 63 81 82
f 63 82 68
f 63 68 67
f 66 69 83
f 66 83 84
f 66 84 70
f 68 85 86
f 68 86 87
f 68 87 83
f 68 83 69
f 68 82 85
f 72 88 79
f 72 78 89
f 72 89 88
f 74 90 75
f 75 90 91
f 75 91 92
f 75 92 76
f 76 92 93
f 76 93 94
f 76 94 77
f 77 94 89
f 77 89 78
f 79 88 80
f 82 95 85
f 83 87 84
f 84 87 86
f 84 86 96
f 84 96 92
f 85 95 97
f 85 97 86
f 86 98 96
f 86 97 99
f 86 99 100
f 86 100 98
f 89 94 101
f 92 96 93
f 93 96 94
f 94 102 101
f 94 96 103
f 94 103 102
f 95 104 97
f 96 98 105
f 96 105 103
f 97 104 99
f 98 100 105
f 99 106 100
f 100 106 107
f 100 107 103
f 100 103 105

