# https://github.com/mikedh/trimesh
v 0.28143581 -0.78523562 0.22817580
v 0.03928564 -0.78523562 0.27047710
v 0.28143581 -0.76963073 0.20907208
v 0.28143581 -0.78523562 2.10365957
v 0.03928564 -0.74927182 0.22973533
v 0.03928564 -0.78523562 2.12159373
v 0.28143581 -0.76132025 0.20341888
v 0.28143581 -0.76560248 2.10833807
v 0.27394492 -0.76571139 2.11204187
v 0.27550947 -0.78523562 2.10658360
v 0.03928564 -0.72230805 0.21745429
v 0.28143581 -0.74919926 0.19698598
v 0.06370216 -0.78523562 2.12159373
v 0.03928564 -0.41449270 2.12159373
v 0.28143581 -0.75848958 2.10950763
v 0.28143581 -0.70071522 2.11457602
v 0.26140478 -0.75576781 2.11769499
v 0.25585775 -0.77746950 2.11691522
v 0.25066627 -0.78523562 2.11496590
v 0.03928564 -0.69929988 0.20751256
v 0.11386268 -0.56923504 0.14415822
v 0.11386268 -0.53671882 0.13714051
v 0.14638643 -0.56923504 0.14688730
v 0.14638643 -0.53671882 0.14103924
v 0.17888646 -0.50420261 0.14279362
v 0.28143581 -0.73185240 0.19484172
v 0.21216878 -0.63430376 2.12159373
v 0.23708309 -0.78523562 2.11613555
v 0.23416735 -0.78167917 2.11750005
v 0.03928564 -0.41449270 0.20400369
v 0.28143581 -0.41449270 2.12159373
v 0.28143581 -0.66968691 2.11555073
v 0.26602734 -0.69929988 2.11827981
v 0.28143581 -0.43169435 2.12159373
v 0.03928564 -0.69254991 0.20497840
v 0.07844688 -0.57213827 0.15351514
v 0.08133893 -0.53671882 0.14084430
v 0.03928564 -0.67190062 0.19757082
v 0.14638643 -0.50420261 0.13753040
v 0.09575179 -0.49055742 0.13304683
v 0.09869126 -0.49055742 0.13304683
v 0.14607826 -0.41449270 0.13012280
v 0.17888646 -0.47165010 0.13947971
v 0.28143581 -0.56923504 0.17710251
v 0.04082649 -0.41449270 0.20107966
v 0.03928564 -0.41645240 0.19874047
v 0.28143581 -0.41449270 0.29932762
v 0.08347243 -0.50249699 0.13616580
v 0.03928564 -0.55907373 0.16287215
v 0.04879149 -0.53671882 0.15351514
v 0.04879149 -0.50420261 0.14864179
v 0.09451912 -0.47165010 0.13265694
v 0.11227443 -0.41449270 0.13070762
v 0.07823354 -0.47165010 0.13538603
v 0.14849619 -0.41449270 0.13051268
v 0.15404326 -0.41449270 0.13148740
v 0.16072816 -0.42127902 0.13343672
v 0.17888646 -0.43913389 0.13986959
v 0.28143581 -0.51381956 0.19484172
v 0.23262649 -0.44860572 0.16248226
v 0.04959748 -0.41449270 0.18470504
v 0.03928564 -0.41924677 0.19211263
v 0.28136468 -0.41449270 0.29913267
v 0.28143581 -0.47683961 0.21706451
v 0.03928564 -0.53671882 0.15721893
v 0.03928564 -0.50420261 0.15312525
v 0.04879149 -0.47165010 0.14805696
v 0.09485099 -0.43913389 0.13246200
v 0.10054028 -0.41449270 0.13187718
v 0.09620220 -0.41750480 0.13246200
v 0.16985472 -0.41449270 0.13772533
v 0.17770119 -0.41449270 0.14084430
v 0.26477093 -0.47165010 0.19172275
v 0.28143581 -0.49621873 0.20244426
v 0.18422017 -0.41449270 0.14376833
v 0.20482013 -0.41449270 0.15819364
v 0.21093610 -0.41449270 0.16365191
v 0.22478002 -0.42694033 0.17066962
v 0.26152331 -0.45354121 0.19562150
v 0.06766095 -0.41449270 0.15721893
v 0.06050194 -0.41801285 0.16131261
v 0.03928564 -0.43053304 0.17612781
v 0.22236208 -0.41449270 0.18197586
v 0.03928564 -0.47165010 0.15409996
v 0.03928564 -0.46167026 0.15663420
v 0.09255157 -0.41449270 0.13694556
v 0.03928564 -0.44748066 0.16072779
v 0.21977819 -0.41449270 0.17768733
v 0.03928564 -0.43169435 0.17495816
f 1 2 3
f 1 3 7
f 1 7 12
f 1 12 26
f 1 26 44
f 1 44 59
f 1 59 74
f 1 74 64
f 1 64 47
f 1 47 31
f 1 31 34
f 1 34 32
f 1 32 16
f 1 16 15
f 1 15 8
f 1 8 4
f 1 4 10
f 1 10 19
f 1 19 28
f 1 28 13
f 1 13 6
f 1 6 2
f 2 5 3
f 2 6 14
f 2 14 30
f 2 30 46
f 2 46 62
f 2 62 82
f 2 82 89
f 2 89 87
f 2 87 85
f 2 85 84
f 2 84 66
f 2 66 65
f 2 65 49
f 2 49 38
f 2 38 35
f 2 35 20
f 2 20 11
f 2 11 5
f 3 5 7
f 4 8 9
f 4 9 10
f 5 11 12
f 5 12 7
f 6 13 27
f 6 27 34
f 6 34 31
f 6 31 14
f 8 15 9
f 9 16 17
f 9 17 18
f 9 18 10
f 9 15 16
f 10 18 19
f 11 20 12
f 12 21 22
f 12 22 23
f 12 23 24
f 12 24 25
f 12 25 26
f 12 20 21
f 13 28 29
f 13 29 17
f 13 17 27
f 14 31 47
f 14 47 63
f 14 63 83
f 14 83 88
f 14 88 77
f 14 77 76
f 14 76 75
f 14 75 72
f 14 72 71
f 14 71 56
f 14 56 55
f 14 55 42
f 14 42 53
f 14 53 69
f 14 69 86
f 14 86 80
f 14 80 61
f 14 61 45
f 14 45 30
f 16 32 17
f 17 29 18
f 17 32 33
f 17 33 34
f 17 34 27
f 18 29 19
f 19 29 28
f 20 35 21
f 21 36 37
f 21 37 22
f 21 35 38
f 21 38 36
f 22 39 24
f 22 24 23
f 22 37 40
f 22 40 41
f 22 41 42
f 22 42 39
f 24 39 25
f 25 39 43
f 25 43 44
f 25 44 26
f 30 45 46
f 32 34 33
f 36 38 37
f 37 48 40
f 37 38 49
f 37 49 50
f 37 50 51
f 37 51 48
f 39 42 43
f 40 52 53
f 40 53 42
f 40 42 41
f 40 48 54
f 40 54 52
f 42 55 43
f 43 55 56
f 43 56 57
f 43 57 58
f 43 58 44
f 44 58 60
f 44 60 59
f 45 61 46
f 46 61 62
f 47 64 63
f 48 51 54
f 49 65 50
f 50 65 51
f 51 65 66
f 51 66 67
f 51 67 54
f 52 54 68
f 52 68 53
f 53 68 69
f 54 70 68
f 54 67 70
f 56 71 57
f 57 71 72
f 57 72 58
f 58 72 60
f 59 60 73
f 59 73 74
f 60 72 75
f 60 75 76
f 60 76 77
f 60 77 78
f 60 78 79
f 60 79 73
f 61 80 81
f 61 81 62
f 62 81 82
f 63 64 79
f 63 79 83
f 64 74 79
f 66 84 67
f 67 84 85
f 67 85 70
f 68 70 69
f 69 70 86
f 70 85 87
f 70 87 86
f 73 79 74
f 77 88 79
f 77 79 78
f 79 88 83
f 80 86 87
f 80 87 81
f 81 87 89
f 81 89 82

