# https://github.com/mikedh/trimesh
v 0.32770581 1.39957786 1.33815359
v 0.32770581 1.39957786 1.33411132
v 0.32202485 1.39957786 1.33815359
v 0.30956491 1.37977213 1.36603775
v 0.32221579 1.37878026 1.36603775
v 0.34083409 1.37704459 1.36603775
v 0.37406059 1.37394510 1.36603775
v 0.40666649 1.37010172 1.36603775
v 0.42757625 1.36715723 1.36603775
v 0.42805367 1.36706427 1.36603775
v 0.39673672 1.36979181 1.33167848
v 0.33973610 1.38928754 1.32209682
v 0.30923073 1.38451432 1.28760031
v 0.30923073 1.38460729 1.28783736
v 0.32202485 1.39957786 1.33411132
v 0.44390308 1.36080326 1.36603775
v 0.30923073 1.39421575 1.32195958
v 0.30923073 1.38913253 1.35061725
v 0.30923073 1.38882262 1.35134087
v 0.30923073 1.37974111 1.36603775
v 0.33983157 1.37307722 1.28919725
v 0.65672449 1.20812274 1.23858158
v 0.32784903 1.36793215 1.26921049
v 0.30923073 1.37202341 1.26303481
v 0.30923073 1.38637398 1.29376352
v 0.45951379 1.35206277 1.36603775
v 0.30923073 1.08296566 1.36603775
v 0.68804139 1.20666606 1.32603927
v 0.74819281 1.17108400 1.33644437
v 0.66460145 1.20083903 1.23858158
v 0.30923073 1.35379844 1.23858158
v 0.30923073 1.36046233 1.24666611
v 0.48767992 1.33529458 1.36603775
v 0.77349457 1.08296566 1.36603775
v 0.30923073 1.08296566 1.23858158
v 0.74819281 1.17108400 1.33745493
v 0.79364055 1.08966057 1.32033769
v 0.78208767 1.10782350 1.29749389
v 0.78891435 1.08296566 1.23858158
v 0.78309019 1.08972251 1.23858158
v 0.72661470 1.17780983 1.36603775
v 0.73358462 1.17889466 1.35013068
v 0.77697958 1.08296566 1.36452814
v 0.75134361 1.13528489 1.36603775
v 0.74609231 1.15471868 1.36158379
v 0.78175347 1.10831943 1.33877741
v 0.79693454 1.08296566 1.32033769
v 0.79492954 1.08296566 1.28733831
v 0.74723802 1.14492438 1.36603775
v 0.78476106 1.08296566 1.35429771
v 0.78767317 1.08966057 1.34591376
v 0.78958275 1.08296566 1.34736098
f 1 2 15
f 1 15 3
f 1 3 4
f 1 4 5
f 1 5 6
f 1 6 7
f 1 7 8
f 1 8 9
f 1 9 10
f 1 10 2
f 2 11 12
f 2 12 13
f 2 13 14
f 2 14 15
f 2 10 16
f 2 16 11
f 3 15 17
f 3 17 18
f 3 18 19
f 3 19 20
f 3 20 4
f 4 20 27
f 4 27 34
f 4 34 44
f 4 44 49
f 4 49 41
f 4 41 33
f 4 33 26
f 4 26 16
f 4 16 10
f 4 10 9
f 4 9 8
f 4 8 7
f 4 7 6
f 4 6 5
f 11 21 12
f 11 16 22
f 11 22 21
f 12 21 13
f 13 21 23
f 13 23 24
f 13 24 32
f 13 32 31
f 13 31 35
f 13 35 27
f 13 27 20
f 13 20 19
f 13 19 18
f 13 18 17
f 13 17 25
f 13 25 14
f 14 25 15
f 15 25 17
f 16 26 22
f 21 22 23
f 22 28 29
f 22 29 30
f 22 30 40
f 22 40 39
f 22 39 35
f 22 35 31
f 22 31 32
f 22 32 24
f 22 24 23
f 22 26 33
f 22 33 28
f 27 35 39
f 27 39 48
f 27 48 47
f 27 47 52
f 27 52 50
f 27 50 43
f 27 43 34
f 28 33 29
f 29 36 37
f 29 37 38
f 29 38 39
f 29 39 40
f 29 40 30
f 29 33 36
f 33 41 42
f 33 42 36
f 34 43 44
f 36 42 41
f 36 41 45
f 36 45 46
f 36 46 37
f 37 46 47
f 37 47 48
f 37 48 38
f 38 48 39
f 41 49 45
f 43 50 49
f 43 49 44
f 45 49 50
f 45 50 51
f 45 51 46
f 46 51 47
f 47 51 52
f 50 52 51

