# https://github.com/mikedh/trimesh
v -0.82869295 -0.52140833 2.33032858
v -0.82989342 -0.52154967 2.32900965
v -0.82869295 -0.52154967 2.32900965
v -0.82869295 -0.42529002 2.31757846
v -0.91504178 -0.48238057 2.28174630
v -0.91788205 -0.50416524 2.28306533
v -0.93413289 -0.50416524 2.27449196
v -0.91662303 -0.52154967 2.28240577
v -0.82869295 -0.52154967 0.35076666
v -0.90760452 -0.42529002 2.25514697
v -0.92780819 -0.47053658 2.26547899
v -0.82869295 -0.42529002 0.13929098
v -0.94968093 -0.48035477 2.25382804
v -0.97758552 -0.51708341 2.24877196
v -0.97758552 -0.52154967 2.24877196
v -0.84749111 -0.52154967 0.31229663
v -0.82869295 -0.52151196 0.31031813
v -0.91334353 -0.42529002 2.25009090
v -0.82869295 -0.43883009 0.14742473
v -0.84148863 -0.42806021 0.13071770
v -0.84011240 -0.42529002 0.13027800
v -1.06873646 -0.46134969 2.11357698
v -1.04250094 -0.51853447 2.18370251
v -1.04613174 -0.52154967 2.18194386
v -0.96112976 -0.52154967 0.21711056
v -0.89451599 -0.47629371 0.14940313
v -0.86257074 -0.46589132 0.14830406
v -0.83847270 -0.46075609 0.15841611
v -0.82869295 -0.46020015 0.18193787
v -1.04768362 -0.42529002 2.10346483
v -1.07945321 -0.44919476 2.09181387
v -0.82869295 -0.43988540 0.14808419
v -0.84421170 -0.42529002 0.12807974
v -0.85214683 -0.44975065 0.13665311
v -0.90821940 -0.42529002 0.09422598
v -1.07400696 -0.51958978 2.15050831
v -1.07450474 -0.52154967 2.15116778
v -0.99246013 -0.52154967 0.20809757
v -0.89451599 -0.46090683 0.12829960
v -0.87384382 -0.45777860 0.13137717
v -1.06577908 -0.42529002 2.07796467
v -1.07371421 -0.42529002 2.06675334
v -1.08396247 -0.43866044 2.06675334
v -1.10197010 -0.46942475 2.07071034
v -1.11321391 -0.51082695 2.09335266
v -0.92701766 -0.42529002 0.08565272
v -1.09948123 -0.52154967 2.11841320
v -1.02458112 -0.52154967 0.21227433
v -0.95954851 -0.43055718 0.09048894
v -0.92701766 -0.43126385 0.09136825
v -1.07737429 -0.42529002 2.05796021
v -1.08416739 -0.42529002 2.03531780
v -1.11101788 -0.47878123 2.06169726
v -1.11933359 -0.50165892 2.07071034
v -1.12141253 -0.52154967 2.08302075
v -1.11499999 -0.52154967 2.09730966
v -1.10343415 -0.52154967 2.11313736
v -0.93981334 -0.42529002 0.08455353
v -1.12779567 -0.52154967 0.22986067
v -0.95954851 -0.42529002 0.08477339
v -1.12732727 -0.42529002 1.87308387
v -1.12779567 -0.42535598 1.87198470
v -1.12709298 -0.52154967 2.06939130
v -1.12779567 -0.50959259 0.22854164
v -0.98109922 -0.42529002 0.09554501
v -1.12779567 -0.52154967 1.92957995
v -1.12779567 -0.42529002 1.87000624
v -1.12779567 -0.44146834 1.90429961
v -1.12779567 -0.44430450 1.90737719
v -1.12779567 -0.45736400 1.92034712
v -1.12779567 -0.47612407 1.92848082
v -1.12779567 -0.47164840 0.22568392
v -1.12779567 -0.42529002 0.22282609
f 1 2 3
f 1 3 9
f 1 9 17
f 1 17 29
f 1 29 32
f 1 32 19
f 1 19 12
f 1 12 4
f 1 4 5
f 1 5 6
f 1 6 7
f 1 7 8
f 1 8 2
f 2 8 15
f 2 15 24
f 2 24 37
f 2 37 47
f 2 47 57
f 2 57 56
f 2 56 55
f 2 55 63
f 2 63 66
f 2 66 59
f 2 59 48
f 2 48 38
f 2 38 25
f 2 25 16
f 2 16 9
f 2 9 3
f 4 10 11
f 4 11 5
f 4 12 21
f 4 21 33
f 4 33 35
f 4 35 46
f 4 46 58
f 4 58 60
f 4 60 65
f 4 65 73
f 4 73 67
f 4 67 61
f 4 61 52
f 4 52 51
f 4 51 42
f 4 42 41
f 4 41 30
f 4 30 18
f 4 18 10
f 5 7 6
f 5 11 13
f 5 13 14
f 5 14 7
f 7 14 15
f 7 15 8
f 9 16 17
f 10 18 13
f 10 13 11
f 12 19 20
f 12 20 21
f 13 18 22
f 13 22 23
f 13 23 24
f 13 24 14
f 14 24 15
f 16 25 17
f 17 25 26
f 17 26 27
f 17 27 28
f 17 28 29
f 18 30 31
f 18 31 22
f 19 32 20
f 20 33 21
f 20 32 34
f 20 34 35
f 20 35 33
f 22 31 36
f 22 36 23
f 23 36 24
f 24 36 37
f 25 38 26
f 26 38 39
f 26 39 40
f 26 40 27
f 27 40 28
f 28 40 34
f 28 34 32
f 28 32 29
f 30 41 31
f 31 41 42
f 31 42 43
f 31 43 44
f 31 44 45
f 31 45 36
f 34 40 35
f 35 40 46
f 36 45 37
f 37 45 47
f 38 48 49
f 38 49 39
f 39 49 50
f 39 50 46
f 39 46 40
f 42 51 43
f 43 51 52
f 43 52 53
f 43 53 44
f 44 53 54
f 44 54 45
f 45 54 55
f 45 55 56
f 45 56 57
f 45 57 47
f 46 50 58
f 48 59 49
f 49 60 58
f 49 58 50
f 49 59 60
f 52 61 62
f 52 62 53
f 53 62 54
f 54 62 63
f 54 63 55
f 59 64 65
f 59 65 60
f 59 66 71
f 59 71 70
f 59 70 69
f 59 69 68
f 59 68 62
f 59 62 67
f 59 67 73
f 59 73 72
f 59 72 64
f 61 67 62
f 62 68 63
f 63 68 69
f 63 69 70
f 63 70 71
f 63 71 66
f 64 72 65
f 65 72 73

