# https://github.com/mikedh/trimesh
v -0.79159235 -1.47654129 1.28942605
v -0.79159235 -1.49951000 1.33079443
v -0.79159235 -1.35560710 1.28942605
v -0.56920484 -1.52017800 1.28942605
v -0.79159235 -1.51110744 1.35282475
v -0.79159235 -1.35560710 1.58517083
v -0.33182941 -1.35560710 1.28942605
v -0.53670859 -1.51985743 1.28942605
v -0.79159235 -1.54821927 1.45044137
v -0.79159235 -1.54126089 1.41796040
v -0.79159235 -1.53175653 1.39471421
v -0.79159235 -1.52632560 1.38261345
v -0.79159235 -1.51403040 1.35852773
v -0.79159235 -1.47863446 1.52336434
v -0.47167118 -1.40855944 1.53682570
v -0.43912996 -1.40582502 1.53581249
v -0.43912996 -1.38240379 1.54296293
v -0.43912996 -1.35560710 1.54875276
v -0.33182941 -1.35560710 1.53210699
v -0.33182941 -1.44976340 1.28942605
v -0.47198623 -1.51403040 1.28942605
v -0.43912996 -1.52010248 1.41793144
v -0.54350490 -1.52975768 1.42430026
v -0.79159235 -1.54727646 1.45449427
v -0.54350490 -1.52975768 1.43637207
v -0.79159235 -1.51144682 1.50556060
v -0.47167118 -1.42481473 1.52834358
v -0.43912996 -1.42208031 1.52646191
v -0.33182941 -1.35945398 1.52990686
v -0.33182941 -1.44925428 1.29732918
v -0.34758242 -1.47997337 1.41793144
v -0.35739432 -1.49662475 1.40059089
v -0.35554896 -1.46524552 1.28942605
v -0.44273061 -1.50450724 1.28942605
v -0.37476762 -1.50081110 1.38802694
v -0.40658874 -1.51587842 1.41793144
v -0.79159235 -1.53688590 1.48251704
v -0.40658874 -1.50829760 1.45044137
v -0.43912996 -1.51199374 1.45044137
v -0.79159235 -1.52542039 1.49667320
v -0.43912996 -1.44503012 1.51019248
v -0.39029559 -1.49624756 1.46671081
v -0.38426446 -1.43520529 1.50156561
v -0.33182941 -1.37472875 1.52090366
v -0.33457495 -1.44746278 1.41793144
v -0.33182941 -1.43927852 1.41793144
v -0.35748432 -1.49654933 1.43492460
v -0.35725928 -1.49677558 1.41793144
v -0.33182941 -1.41363209 1.48564355
v -0.37409249 -1.50537474 1.41793144
v -0.40393322 -1.48778044 1.28942605
v -0.37323733 -1.47414634 1.28942605
v -0.37733312 -1.50020766 1.44760434
v -0.36864646 -1.48796908 1.45657859
v -0.35635912 -1.46628275 1.46812931
v -0.33182941 -1.38521363 1.51375322
f 1 2 5
f 1 5 13
f 1 13 12
f 1 12 11
f 1 11 10
f 1 10 9
f 1 9 24
f 1 24 37
f 1 37 40
f 1 40 26
f 1 26 14
f 1 14 6
f 1 6 3
f 1 3 7
f 1 7 20
f 1 20 33
f 1 33 52
f 1 52 51
f 1 51 34
f 1 34 21
f 1 21 8
f 1 8 4
f 1 4 2
f 2 4 5
f 3 6 18
f 3 18 19
f 3 19 7
f 4 8 9
f 4 9 10
f 4 10 11
f 4 11 12
f 4 12 13
f 4 13 5
f 6 14 15
f 6 15 16
f 6 16 17
f 6 17 18
f 7 19 29
f 7 29 44
f 7 44 56
f 7 56 49
f 7 49 46
f 7 46 30
f 7 30 20
f 8 21 22
f 8 22 23
f 8 23 9
f 9 23 25
f 9 25 24
f 14 26 27
f 14 27 15
f 15 27 16
f 16 27 28
f 16 28 29
f 16 29 19
f 16 19 17
f 17 19 18
f 20 30 31
f 20 31 32
f 20 32 33
f 21 34 35
f 21 35 36
f 21 36 22
f 22 25 23
f 22 36 25
f 24 25 37
f 25 36 38
f 25 38 39
f 25 39 37
f 26 40 27
f 27 40 28
f 28 41 42
f 28 42 43
f 28 43 44
f 28 44 29
f 28 40 41
f 30 45 31
f 30 46 45
f 31 47 48
f 31 48 32
f 31 45 49
f 31 49 47
f 32 48 50
f 32 50 35
f 32 35 34
f 32 34 51
f 32 51 52
f 32 52 33
f 35 50 36
f 36 50 47
f 36 47 53
f 36 53 38
f 37 39 38
f 37 38 42
f 37 42 40
f 38 53 42
f 40 42 41
f 42 53 47
f 42 47 54
f 42 54 55
f 42 55 56
f 42 56 44
f 42 44 43
f 45 46 49
f 47 55 54
f 47 50 48
f 47 49 55
f 49 56 55

