# https://github.com/mikedh/trimesh
v 0.38686623 -1.41074509 0.99423428
v 0.42630651 -1.40229542 1.01708122
v 0.38686623 -1.41021426 1.00812768
v 0.38686623 -1.40910820 0.97354853
v 0.53231127 -1.38588260 0.50287067
v 0.53231127 -1.38729828 0.53575177
v 0.40644399 -1.40525938 1.02773283
v 0.38686623 -1.40946212 1.02773283
v 0.53231127 -1.38588260 0.57233775
v 0.53231127 -1.36062198 0.73489065
v 0.53231127 -1.24241466 1.25357793
v 0.39802910 -1.34252817 1.38525658
v 0.38686623 -1.36040077 1.35546295
v 0.38686623 -1.36088749 1.35283862
v 0.38686623 -1.36570957 0.46041860
v 0.38944336 -1.36637310 0.45733118
v 0.40658637 -1.36796569 0.45053884
v 0.50416194 -1.37999877 0.47477511
v 0.53067383 -1.37305328 0.44853203
v 0.53231127 -1.37393803 0.45285440
v 0.53231127 -1.21799459 1.31903133
v 0.42935355 -1.30793303 1.38525658
v 0.39290329 -1.33606921 1.40393549
v 0.38686623 -1.35049121 1.38587407
v 0.45595084 -1.20414771 1.53268111
v 0.42335917 -1.23644242 1.53237236
v 0.38686623 -1.36513443 0.45486124
v 0.38686623 -1.35801193 0.41935592
v 0.38686623 -1.35119905 0.39002526
v 0.40658637 -1.36389567 0.43417552
v 0.50416194 -1.37309748 0.44776017
v 0.53231127 -1.37044313 0.44683393
v 0.38686623 -1.33726367 0.35451989
v 0.38686623 -1.33137984 0.34849948
v 0.39478275 -1.30545559 0.32627000
v 0.53231127 -1.18229349 1.38541096
v 0.38686623 -1.34403225 1.39745190
v 0.52268612 -0.98180115 1.73197432
v 0.51078280 -0.99241864 1.74293469
v 0.48935403 -1.00922949 1.76053301
v 0.53231127 -1.17831196 1.39251204
v 0.38774898 -1.23423040 1.56262910
v 0.53231127 -1.34208574 0.42105388
v 0.38686623 -1.32102786 0.33923726
v 0.38686623 -1.30629624 0.32611558
v 0.38686623 -1.29758105 0.32241072
v 0.38686623 -1.25228001 0.30589302
v 0.40658637 -1.25228001 0.30851730
v 0.40601684 -1.28453042 0.32179331
v 0.42673367 -1.27351490 0.32596126
v 0.38686623 -1.23445161 1.56278347
v 0.53231127 -1.05262822 1.53206362
v 0.53231127 -1.04254166 1.53901032
v 0.53231127 -0.95879676 1.57467007
v 0.52446590 -0.95879676 1.70989929
v 0.52309903 -0.95954880 1.73274619
v 0.51448480 -0.95954880 1.74910952
v 0.49822457 -0.95954880 1.76994968
v 0.49449411 -0.99210893 1.76500978
v 0.53231127 -1.17123367 1.40300927
v 0.46040746 -0.98303992 1.79603839
v 0.42456944 -0.97866018 1.82552332
v 0.41501549 -1.00033739 1.81903973
v 0.39333043 -1.01002583 1.82567768
v 0.38686623 -1.03683483 1.80082391
v 0.53231127 -1.33828123 0.41904706
v 0.38686623 -1.22799265 0.29802011
v 0.40658637 -1.22533830 0.29910068
v 0.43615950 -1.21675592 0.30512119
v 0.42334492 -1.20392650 0.29570446
v 0.43819557 -1.25095284 0.32133015
v 0.45810083 -1.23922948 0.32611558
v 0.53231127 -0.95879676 0.28968405
v 0.52311323 -0.95879676 1.73228307
v 0.52305628 -0.95879676 1.73274619
v 0.51471261 -0.95879676 1.74849208
v 0.51452751 -0.95879676 1.74880082
v 0.49826727 -0.95879676 1.77010405
v 0.48148022 -0.95879676 1.78600427
v 0.48115276 -0.95879676 1.78631301
v 0.46497798 -0.95879676 1.80051517
v 0.44596970 -0.95879676 1.81641538
v 0.42926810 -0.95879676 1.82984571
v 0.41655322 -0.95879676 1.83802735
v 0.40519099 -0.95879676 1.84528280
v 0.40514830 -0.99056054 1.82984571
v 0.38686623 -0.95879676 1.85392761
v 0.38686623 -1.01099909 1.82629517
v 0.38686623 -1.01648479 1.82150965
v 0.53231127 -1.21233197 0.35513737
v 0.38686623 -1.21171264 0.29400641
v 0.40658637 -1.20905829 0.29493264
v 0.46507763 -1.21971998 0.32086698
v 0.44708032 -1.18720406 0.29832876
v 0.38686623 -1.19583075 0.29076461
v 0.38686623 -1.16751766 0.28690534
v 0.45466937 -1.17021621 0.29585888
v 0.53231127 -1.12221662 0.32410877
v 0.53117215 -1.12221662 0.32333695
v 0.51041260 -0.95879676 0.28412661
v 0.38686623 -0.95879676 0.29925510
v 0.53231127 -1.20804073 0.35328500
v 0.38686623 -1.06284749 0.27687121
v 0.52607482 -1.14252246 0.32596126
v 0.53231127 -1.14915833 0.33290801
v 0.50215437 -0.95879676 0.28366354
v 0.47297994 -0.95879676 0.28628793
v 0.38686623 -1.02984504 0.28273730
v 0.38686623 -1.05714067 0.27748871
v 0.48333125 -0.95879676 0.28474411
f 1 2 3
f 1 3 8
f 1 8 14
f 1 14 13
f 1 13 24
f 1 24 37
f 1 37 51
f 1 51 65
f 1 65 89
f 1 89 88
f 1 88 87
f 1 87 101
f 1 101 108
f 1 108 109
f 1 109 103
f 1 103 96
f 1 96 95
f 1 95 91
f 1 91 67
f 1 67 47
f 1 47 46
f 1 46 45
f 1 45 44
f 1 44 34
f 1 34 33
f 1 33 29
f 1 29 28
f 1 28 27
f 1 27 15
f 1 15 4
f 1 4 5
f 1 5 6
f 1 6 2
f 2 7 8
f 2 8 3
f 2 6 9
f 2 9 10
f 2 10 11
f 2 11 12
f 2 12 13
f 2 13 14
f 2 14 7
f 4 15 16
f 4 16 17
f 4 17 5
f 5 17 18
f 5 18 19
f 5 19 20
f 5 20 32
f 5 32 43
f 5 43 66
f 5 66 90
f 5 90 102
f 5 102 105
f 5 105 98
f 5 98 73
f 5 73 54
f 5 54 53
f 5 53 52
f 5 52 60
f 5 60 41
f 5 41 36
f 5 36 21
f 5 21 11
f 5 11 10
f 5 10 9
f 5 9 6
f 7 14 8
f 11 21 22
f 11 22 12
f 12 23 24
f 12 24 13
f 12 22 25
f 12 25 26
f 12 26 23
f 15 27 16
f 16 27 28
f 16 28 17
f 17 28 29
f 17 29 30
f 17 30 18
f 18 30 31
f 18 31 19
f 19 32 20
f 19 31 33
f 19 33 34
f 19 34 35
f 19 35 32
f 21 36 25
f 21 25 22
f 23 37 24
f 23 26 37
f 25 38 39
f 25 39 40
f 25 40 26
f 25 36 41
f 25 41 38
f 26 40 42
f 26 42 37
f 29 33 31
f 29 31 30
f 32 35 43
f 34 44 35
f 35 45 46
f 35 46 47
f 35 47 48
f 35 48 49
f 35 49 50
f 35 50 43
f 35 44 45
f 37 42 51
f 38 52 53
f 38 53 54
f 38 54 55
f 38 55 56
f 38 56 57
f 38 57 58
f 38 58 59
f 38 59 39
f 38 41 60
f 38 60 52
f 39 59 40
f 40 59 61
f 40 61 62
f 40 62 63
f 40 63 64
f 40 64 65
f 40 65 42
f 42 65 51
f 43 50 66
f 47 67 68
f 47 68 48
f 48 69 49
f 48 68 70
f 48 70 69
f 49 69 50
f 50 69 71
f 50 71 72
f 50 72 66
f 54 73 100
f 54 100 106
f 54 106 110
f 54 110 107
f 54 107 101
f 54 101 87
f 54 87 85
f 54 85 84
f 54 84 83
f 54 83 82
f 54 82 81
f 54 81 80
f 54 80 79
f 54 79 78
f 54 78 77
f 54 77 76
f 54 76 75
f 54 75 74
f 54 74 55
f 55 74 56
f 56 74 75
f 56 75 57
f 57 76 77
f 57 77 78
f 57 78 58
f 57 75 76
f 58 78 79
f 58 79 59
f 59 79 80
f 59 80 81
f 59 81 82
f 59 82 61
f 61 82 83
f 61 83 62
f 62 83 84
f 62 84 85
f 62 85 86
f 62 86 63
f 63 86 64
f 64 86 87
f 64 87 88
f 64 88 89
f 64 89 65
f 66 72 90
f 67 91 92
f 67 92 68
f 68 92 70
f 69 93 71
f 69 70 94
f 69 94 93
f 70 92 95
f 70 95 96
f 70 96 97
f 70 97 94
f 71 93 72
f 72 93 90
f 73 98 99
f 73 99 97
f 73 97 100
f 85 87 86
f 90 93 102
f 91 95 92
f 93 94 97
f 93 97 102
f 96 103 97
f 97 103 100
f 97 99 104
f 97 104 102
f 98 104 99
f 98 105 104
f 100 103 106
f 101 107 108
f 102 104 105
f 103 109 106
f 106 109 110
f 107 110 108
f 108 110 109

