# https://github.com/mikedh/trimesh
v 1.33380600 -0.89287222 0.96257018
v 1.33380600 -0.88858476 0.99513732
v 1.33380600 -0.89138810 0.93000301
v 1.59180103 -0.74677097 1.06014804
v 1.53580959 -0.78497277 1.19029305
v 1.51249704 -0.79805481 1.19029305
v 1.48927250 -0.80992760 1.19029305
v 1.47303583 -0.81580905 1.19029305
v 1.46801513 -0.81514939 1.21130411
v 1.33380600 -0.88435236 1.02214273
v 1.33380600 -0.88743052 0.89669429
v 1.33938458 -0.88457222 0.89669429
v 1.61006361 -0.73286443 1.02764267
v 1.61006361 -0.73407368 1.06014804
v 1.55207565 -0.77513374 1.19029305
v 1.53243315 -0.78249926 1.20870862
v 1.47928977 -0.80245215 1.22236582
v 1.44746239 -0.81047728 1.23435448
v 1.44746239 -0.81806266 1.21810181
v 1.44746239 -0.82443874 1.19029305
v 1.33380600 -0.87968026 1.04519310
v 1.33380600 -0.33138835 0.89669429
v 1.33982506 -0.88429740 0.89669429
v 1.62662309 -0.71593469 1.01095741
v 1.62844358 -0.71829827 1.02764267
v 1.62911886 -0.71912277 1.06014804
v 1.57142452 -0.75886361 1.19029305
v 1.56749011 -0.75534579 1.21389959
v 1.54420682 -0.76425034 1.22211864
v 1.49661273 -0.78090526 1.23929826
v 1.47999440 -0.78634696 1.24479822
v 1.44631737 -0.79250318 1.25647791
v 1.43081470 -0.81311568 1.23892748
v 1.41493048 -0.83141952 1.19029305
v 1.41795465 -0.82026130 1.22595007
v 1.33380600 -0.84587574 1.15686073
v 1.51974915 -0.33138835 0.89669429
v 1.33380600 -0.33138835 1.52801504
v 1.33997182 -0.88418747 0.89669429
v 1.62847286 -0.69927981 1.00650802
v 1.63217240 -0.69927981 1.02764267
v 1.34038283 -0.88380273 0.89669429
v 1.59183040 -0.68064615 0.94780061
v 1.59732094 -0.65898929 0.94081753
v 1.63375790 -0.69927981 1.06014804
v 1.62756281 -0.71697909 1.07831642
v 1.58598758 -0.73182007 1.19029305
v 1.57397893 -0.73275450 1.22397255
v 1.56672673 -0.72247575 1.24504541
v 1.55595123 -0.74418753 1.23559044
v 1.53363694 -0.71956248 1.27532606
v 1.47412221 -0.75529082 1.27835413
v 1.45638813 -0.77694763 1.26815758
v 1.43469036 -0.78222444 1.27303957
v 1.41493048 -0.78491781 1.27575864
v 1.41795465 -0.80355147 1.25307906
v 1.40911692 -0.81421501 1.24078140
v 1.39590451 -0.81421501 1.24078140
v 1.33380600 -0.83251889 1.19029305
v 1.51998402 -0.33138835 0.89749766
v 1.54696683 -0.43912289 0.89669429
v 1.33380600 -0.62496497 1.41597661
v 1.41493048 -0.53674359 1.42203275
v 1.51326043 -0.63502386 1.34645471
v 1.53290292 -0.62474512 1.34058397
v 1.50207381 -0.43153751 1.40534748
v 1.51954364 -0.40663760 1.39570711
v 1.53868699 -0.40663760 1.37939264
v 1.53404795 -0.38448609 1.37562301
v 1.50336571 -0.33138835 1.34305585
v 1.62888387 -0.67613889 1.00533386
v 1.59940549 -0.63425432 0.93803666
v 1.63182012 -0.66355152 1.05693458
v 1.54259204 -0.66943298 0.89669429
v 1.56772499 -0.65788997 0.90899193
v 1.56737272 -0.62787820 0.89669429
v 1.58719135 -0.63425432 0.92172219
v 1.63002910 -0.69927981 1.08542310
v 1.63061634 -0.63425432 1.09271518
v 1.63117413 -0.66888329 1.09549606
v 1.58490120 -0.69927981 1.22273661
v 1.57133641 -0.69922485 1.25561274
v 1.56537619 -0.68828649 1.27600583
v 1.55530532 -0.70999832 1.26673625
v 1.54294431 -0.69735599 1.28651137
v 1.53058340 -0.68471366 1.30523593
v 1.51249704 -0.70752481 1.29788206
v 1.47253670 -0.72187110 1.30919096
v 1.51249704 -0.72648830 1.28156758
v 1.45312907 -0.74358293 1.30004497
v 1.43143132 -0.74820012 1.30412359
v 1.41493048 -0.76545959 1.29201132
v 1.38239847 -0.76705364 1.29250570
v 1.38239847 -0.78497277 1.27625302
v 1.33380600 -0.79151379 1.25505656
v 1.33380600 -0.81465472 1.22347817
v 1.33380600 -0.82031627 1.21439398
v 1.61769746 -0.63425432 0.99513732
v 1.60289953 -0.60176908 0.96257018
v 1.52265593 -0.33138835 0.93006482
v 1.61746258 -0.56922883 1.12522053
v 1.62659381 -0.61721471 1.07467039
v 1.61467329 -0.60176908 1.02764267
v 1.57001514 -0.56845929 0.89669429
v 1.61050400 -0.63425432 0.96257018
v 1.59688047 -0.60176908 0.94186807
v 1.47940716 -0.66695947 1.34571314
v 1.47749874 -0.63200072 1.36227481
v 1.33380600 -0.76474506 1.28638778
v 1.35952620 -0.75028884 1.30554492
v 1.44746239 -0.70730495 1.33038742
v 1.44746239 -0.69103482 1.34200530
v 1.46816190 -0.68636267 1.33891544
v 1.50292532 -0.65629593 1.34083116
v 1.52459371 -0.64640193 1.33415704
v 1.53674922 -0.43912289 1.37624098
v 1.56144178 -0.65085423 1.30424718
v 1.55301518 -0.43912289 1.35745461
v 1.56314468 -0.43912289 1.34120193
v 1.56249878 -0.41993954 1.34070757
v 1.55395470 -0.40812171 1.35207825
v 1.53686661 -0.37382255 1.35096590
v 1.52990803 -0.35579351 1.33891544
v 1.50724137 -0.33138835 1.33749411
v 1.62876659 -0.63425432 1.06700753
v 1.63005838 -0.66981772 1.02764267
v 1.57089601 -0.60468231 0.89669429
v 1.57007388 -0.56922883 0.89669429
v 1.54312055 -0.66871840 0.89669429
v 1.56061964 -0.64464304 0.89669429
v 1.62603595 -0.68114083 1.10822630
v 1.62732783 -0.61463127 1.09271518
v 1.62741586 -0.61430144 1.11483861
v 1.62817934 -0.63425432 1.11551836
v 1.62770958 -0.65942905 1.11181053
v 1.57773711 -0.66679458 1.25524197
v 1.56672673 -0.66371641 1.28725294
v 1.55228115 -0.67251109 1.29769667
v 1.48980092 -0.67795279 1.33298291
v 1.51249704 -0.69130969 1.31036512
v 1.48116880 -0.70021425 1.32105603
v 1.44435011 -0.73236970 1.31215722
v 1.56244004 -0.42081901 1.13535529
v 1.60874234 -0.53674359 1.15772589
v 1.60662832 -0.53674359 1.12522053
v 1.51704798 -0.33138835 1.31271341
v 1.53073016 -0.35441935 1.32031447
v 1.56249878 -0.41993954 1.33125259
v 1.61728635 -0.56922883 1.15772589
v 1.58184766 -0.50420334 1.28780911
v 1.56255752 -0.45984531 1.33860645
v 1.51511010 -0.33138835 1.31994369
f 1 2 10
f 1 10 21
f 1 21 36
f 1 36 59
f 1 59 97
f 1 97 96
f 1 96 95
f 1 95 109
f 1 109 62
f 1 62 38
f 1 38 22
f 1 22 11
f 1 11 3
f 1 3 4
f 1 4 5
f 1 5 6
f 1 6 7
f 1 7 8
f 1 8 9
f 1 9 2
f 2 9 10
f 3 11 12
f 3 12 13
f 3 13 4
f 4 13 14
f 4 14 15
f 4 15 5
f 5 15 16
f 5 16 6
f 6 16 9
f 6 9 7
f 7 9 8
f 9 16 17
f 9 17 18
f 9 18 19
f 9 19 20
f 9 20 10
f 10 20 21
f 11 22 37
f 11 37 61
f 11 61 104
f 11 104 128
f 11 128 127
f 11 127 76
f 11 76 130
f 11 130 129
f 11 129 74
f 11 74 42
f 11 42 39
f 11 39 23
f 11 23 12
f 12 23 13
f 13 24 25
f 13 25 26
f 13 26 14
f 13 23 24
f 14 26 15
f 15 27 28
f 15 28 16
f 15 26 27
f 16 28 29
f 16 29 30
f 16 30 31
f 16 31 17
f 17 31 18
f 18 31 32
f 18 32 33
f 18 33 19
f 19 34 20
f 19 33 35
f 19 35 34
f 20 34 21
f 21 34 36
f 22 38 70
f 22 70 124
f 22 124 152
f 22 152 146
f 22 146 100
f 22 100 60
f 22 60 37
f 23 39 24
f 24 40 41
f 24 41 25
f 24 39 42
f 24 42 43
f 24 43 44
f 24 44 40
f 25 41 45
f 25 45 26
f 26 45 46
f 26 46 27
f 27 46 28
f 28 46 47
f 28 47 48
f 28 48 49
f 28 49 50
f 28 50 29
f 29 50 30
f 30 50 51
f 30 51 31
f 31 51 52
f 31 52 53
f 31 53 32
f 32 53 54
f 32 54 33
f 33 54 55
f 33 55 56
f 33 56 57
f 33 57 35
f 34 35 36
f 35 57 58
f 35 58 36
f 36 58 59
f 37 60 61
f 38 62 63
f 38 63 64
f 38 64 65
f 38 65 66
f 38 66 67
f 38 67 68
f 38 68 69
f 38 69 70
f 40 71 41
f 40 44 72
f 40 72 71
f 41 71 73
f 41 73 45
f 42 74 43
f 43 74 75
f 43 75 44
f 44 75 76
f 44 76 77
f 44 77 72
f 45 78 46
f 45 73 79
f 45 79 80
f 45 80 78
f 46 78 81
f 46 81 47
f 47 81 48
f 48 81 82
f 48 82 83
f 48 83 49
f 49 83 84
f 49 84 50
f 50 84 51
f 51 84 85
f 51 85 86
f 51 86 87
f 51 87 88
f 51 88 89
f 51 89 52
f 52 89 88
f 52 88 90
f 52 90 53
f 53 90 54
f 54 90 91
f 54 91 55
f 55 91 92
f 55 92 62
f 55 62 93
f 55 93 94
f 55 94 57
f 55 57 56
f 57 94 58
f 58 95 96
f 58 96 97
f 58 97 59
f 58 94 95
f 60 98 99
f 60 99 61
f 60 100 101
f 60 101 102
f 60 102 103
f 60 103 98
f 61 99 105
f 61 105 106
f 61 106 104
f 62 107 108
f 62 108 63
f 62 109 110
f 62 110 93
f 62 92 91
f 62 91 111
f 62 111 112
f 62 112 113
f 62 113 107
f 63 108 64
f 64 108 107
f 64 107 114
f 64 114 115
f 64 115 65
f 65 116 66
f 65 115 117
f 65 117 116
f 66 116 67
f 67 116 68
f 68 116 118
f 68 118 119
f 68 119 120
f 68 120 121
f 68 121 69
f 69 121 122
f 69 122 123
f 69 123 124
f 69 124 70
f 71 102 125
f 71 125 126
f 71 126 73
f 71 72 105
f 71 105 98
f 71 98 102
f 72 77 127
f 72 127 128
f 72 128 104
f 72 104 106
f 72 106 105
f 73 125 79
f 73 126 125
f 74 129 75
f 75 129 130
f 75 130 76
f 76 127 77
f 78 80 131
f 78 131 81
f 79 132 133
f 79 133 134
f 79 134 80
f 79 125 102
f 79 102 132
f 80 134 135
f 80 135 131
f 81 136 137
f 81 137 82
f 81 131 135
f 81 135 136
f 82 137 83
f 83 137 117
f 83 117 138
f 83 138 85
f 83 85 84
f 85 138 86
f 86 139 113
f 86 113 140
f 86 140 87
f 86 138 115
f 86 115 114
f 86 114 139
f 87 140 141
f 87 141 88
f 88 141 113
f 88 113 90
f 90 113 142
f 90 142 91
f 91 142 111
f 93 110 94
f 94 110 109
f 94 109 95
f 98 105 99
f 98 103 102
f 100 143 144
f 100 144 145
f 100 145 101
f 100 146 147
f 100 147 120
f 100 120 148
f 100 148 143
f 101 145 144
f 101 144 149
f 101 149 133
f 101 133 132
f 101 132 102
f 107 113 114
f 111 142 113
f 111 113 112
f 113 141 140
f 113 139 114
f 115 138 117
f 116 117 118
f 117 137 150
f 117 150 151
f 117 151 118
f 118 151 119
f 119 151 150
f 119 150 120
f 120 147 123
f 120 123 122
f 120 122 121
f 120 150 149
f 120 149 144
f 120 144 148
f 123 147 146
f 123 146 152
f 123 152 124
f 133 149 134
f 134 149 150
f 134 150 135
f 135 150 136
f 136 150 137
f 143 148 144

