# https://github.com/mikedh/trimesh
v 0.20054343 0.39571189 2.30478124
v 0.20054343 0.50113201 2.25578231
v 0.17895205 0.39571189 2.31480886
v 0.20054343 0.39571189 0.23133219
v 0.09162050 0.50113201 2.28563738
v 0.20054343 0.50113201 0.29947476
v 0.08210483 0.50113201 2.28814438
v 0.04877586 0.50113201 2.29338600
v 0.15769879 0.39571189 2.31799946
v -0.06067841 0.39571189 0.00457002
v 0.20054343 0.41187320 0.23520660
v 0.20054343 0.48520805 0.27987531
v 0.16962959 0.50113201 0.24728524
v 0.01621973 0.50113201 2.29110700
v 0.14634763 0.39571189 2.31959486
v -0.06454264 0.39571189 0.00206322
v -0.05691079 0.43091386 0.02918347
v 0.14654084 0.50113201 0.22289978
v 0.16330193 0.48941864 0.22973679
v 0.13470664 0.46198778 0.19464009
v 0.15513875 0.43911838 0.20443972
v 0.20054343 0.42083107 0.23794140
v 0.20054343 0.45094522 0.25138745
v 0.15972753 0.50113201 0.23361119
v 0.11383980 0.39571189 2.31480886
v -0.00947738 0.50113201 2.28381418
v -0.29291854 0.39577383 2.23618285
v -0.06951785 0.39571189 0.00069580
v -0.08130373 0.41535109 0.00753283
v -0.08130373 0.43584687 0.02394167
v -0.08130373 0.45210105 0.03943910
v -0.05874630 0.46122406 0.06040595
v -0.08130373 0.50113201 0.10302366
v 0.20054343 0.43869524 0.24546203
v 0.16682805 0.47163706 0.22586257
v -0.27644726 0.39571189 2.23755027
v -0.29291854 0.50113201 2.16758448
v -0.29291854 0.48771583 2.18194212
v -0.29291854 0.47005809 2.19721156
v -0.29291854 0.44995451 2.21225319
v -0.29291854 0.39571189 2.21179739
v -0.08130373 0.39571189 -0.00067160
v -0.08130373 0.39908658 -0.00067160
v -0.15288856 0.42594987 0.00046780
v -0.17887550 0.44420615 0.01482565
v -0.15404784 0.45779779 0.03305770
v -0.15588333 0.48922258 0.06678717
v -0.14564313 0.50113201 0.08228461
v -0.11381156 0.49947045 0.08798203
v -0.11381156 0.50113201 0.09003323
v -0.29291854 0.50113201 0.14108316
v -0.29291854 0.39571189 0.14541317
v -0.17887550 0.39571189 -0.00796462
v -0.17887550 0.40658932 -0.00864822
v -0.17887550 0.42794165 -0.00089960
v -0.21138331 0.45983087 0.03123449
v -0.17887550 0.45952125 0.03100668
v -0.17172668 0.50113201 0.07818220
v -0.14916924 0.50113201 0.08160081
v -0.24393944 0.50113201 0.08661463
v -0.26031411 0.48801513 0.06815458
v -0.26137676 0.47163706 0.06587558
v -0.29291854 0.43833401 0.12968813
v -0.29291854 0.42188372 0.13242294
v -0.26557911 0.39571189 0.07521959
v -0.21157653 0.39571189 -0.00295061
v -0.21186633 0.40640354 -0.00317861
v -0.20138462 0.42653814 0.00024001
v -0.23171884 0.45820028 0.03328569
v -0.24393944 0.48867561 0.06724298
v -0.21138331 0.47609537 0.04969453
v -0.17887550 0.50113201 0.07749861
v -0.23925405 0.50113201 0.08479143
v -0.21283241 0.50113201 0.07841020
v -0.22307262 0.41711584 0.00570962
v -0.23007652 0.39571189 0.00160741
v -0.25345511 0.43911838 0.04718773
v -0.25625666 0.40658932 0.04787132
v -0.26185981 0.43911838 0.06336876
v -0.25553213 0.39571189 0.04992253
v -0.22940028 0.39571189 0.00115160
v -0.19925930 0.50113201 0.07795440
v -0.23423056 0.39571189 0.00912803
v -0.23881933 0.40640354 0.01778844
v -0.24954258 0.39571189 0.03784370
f 1 2 3
f 1 3 9
f 1 9 15
f 1 15 25
f 1 25 36
f 1 36 41
f 1 41 52
f 1 52 65
f 1 65 80
f 1 80 85
f 1 85 83
f 1 83 76
f 1 76 81
f 1 81 66
f 1 66 53
f 1 53 42
f 1 42 28
f 1 28 16
f 1 16 10
f 1 10 4
f 1 4 11
f 1 11 22
f 1 22 34
f 1 34 23
f 1 23 12
f 1 12 6
f 1 6 2
f 2 5 3
f 2 6 13
f 2 13 24
f 2 24 18
f 2 18 33
f 2 33 50
f 2 50 48
f 2 48 59
f 2 59 58
f 2 58 72
f 2 72 82
f 2 82 74
f 2 74 73
f 2 73 60
f 2 60 51
f 2 51 37
f 2 37 26
f 2 26 14
f 2 14 8
f 2 8 7
f 2 7 5
f 3 5 7
f 3 7 8
f 3 8 9
f 4 10 11
f 6 12 13
f 8 14 15
f 8 15 9
f 10 16 17
f 10 17 18
f 10 18 19
f 10 19 20
f 10 20 21
f 10 21 22
f 10 22 11
f 12 23 13
f 13 23 24
f 14 25 15
f 14 26 27
f 14 27 25
f 16 28 29
f 16 29 17
f 17 29 30
f 17 30 31
f 17 31 32
f 17 32 18
f 18 24 19
f 18 32 33
f 19 24 23
f 19 23 34
f 19 34 22
f 19 22 35
f 19 35 20
f 20 35 21
f 21 35 22
f 25 27 36
f 26 37 38
f 26 38 39
f 26 39 40
f 26 40 27
f 27 40 39
f 27 39 38
f 27 38 37
f 27 37 51
f 27 51 63
f 27 63 64
f 27 64 52
f 27 52 41
f 27 41 36
f 28 42 43
f 28 43 29
f 29 43 44
f 29 44 30
f 30 44 31
f 31 44 45
f 31 45 46
f 31 46 47
f 31 47 48
f 31 48 49
f 31 49 50
f 31 50 33
f 31 33 32
f 42 53 54
f 42 54 43
f 43 54 44
f 44 54 55
f 44 55 45
f 45 55 56
f 45 56 57
f 45 57 46
f 46 57 47
f 47 58 59
f 47 59 48
f 47 57 58
f 48 50 49
f 51 60 61
f 51 61 62
f 51 62 63
f 52 64 65
f 53 66 54
f 54 66 67
f 54 67 68
f 54 68 55
f 55 68 56
f 56 68 69
f 56 69 61
f 56 61 70
f 56 70 71
f 56 71 72
f 56 72 57
f 57 72 58
f 60 73 61
f 61 73 74
f 61 74 70
f 61 69 75
f 61 75 76
f 61 76 62
f 62 76 77
f 62 77 78
f 62 78 79
f 62 79 63
f 63 79 78
f 63 78 64
f 64 78 80
f 64 80 65
f 66 81 67
f 67 81 75
f 67 75 68
f 68 75 69
f 70 74 71
f 71 74 82
f 71 82 72
f 75 81 76
f 76 83 78
f 76 78 84
f 76 84 77
f 77 84 78
f 78 83 85
f 78 85 80

