# https://github.com/mikedh/trimesh
v 0.82346704 0.88152585 1.57925009
v 0.82346704 0.95410401 1.51344842
v 0.52690069 1.08293464 1.48907252
v 0.52707488 0.94519194 1.56539712
v 0.52690069 0.94521162 1.56539712
v 0.52690069 0.91693750 1.57205717
v 0.52690069 0.88152585 1.57751844
v 0.82346704 0.88152585 0.77298006
v 0.82346704 0.97072543 1.48960532
v 0.78296674 1.01011996 1.46949187
v 0.76435698 0.99905869 1.49080416
v 0.76435698 1.01335351 1.47455352
v 0.76087309 1.08293464 1.37598427
v 0.52690069 1.08293464 0.51616714
v 0.52690069 0.88152585 0.26614758
v 0.81295723 0.88152585 0.68373491
v 0.82346704 0.94899733 0.84384338
v 0.82346704 0.98085998 1.47348793
v 0.77701511 1.08293464 1.36452889
v 0.55308792 1.08293464 0.52415927
v 0.62810775 0.88479886 0.22432223
v 0.60177534 0.88682970 0.22299011
v 0.57927517 0.88312290 0.22671980
v 0.52690069 0.89231105 0.27880162
v 0.57831714 0.88152585 0.22565416
v 0.75207622 0.88152585 0.32009419
v 0.82346704 0.96693972 0.86542205
v 0.82346704 1.05140729 1.26143077
v 0.79693135 1.08293464 1.32030595
v 0.78958614 1.08293464 1.34734586
v 0.78476678 1.08293464 1.35427235
v 0.56510734 1.08293464 0.53081932
v 0.71857280 0.91259982 0.32555547
v 0.74040521 0.88152585 0.30331078
v 0.63789167 0.88152585 0.22805182
v 0.62964644 0.88152585 0.22245734
v 0.60177534 0.88152585 0.21846128
v 0.75178595 0.88253139 0.32062697
v 0.82346704 1.07023696 1.16485951
v 0.82346704 1.06911306 1.19855956
v 0.82346704 1.07021728 1.19429710
v 0.82346704 1.07169607 1.18590539
v 0.81754434 1.07449582 1.18044413
v 0.81754434 1.07449582 1.17112000
v 0.79109585 1.08293464 1.19909238
v 0.57288804 1.08293464 0.53548140
v 0.59489465 1.08293464 0.55452923
v 0.62555291 1.08293464 0.58156919
v 0.62892066 1.08293464 0.58569844
v 0.64152072 1.08293464 0.60421345
v 0.64654332 1.08293464 0.61167281
v 0.71622119 1.08293464 0.78336979
v 0.71874700 1.08293464 0.79056267
v 0.82346704 1.07169607 1.18150974
v 0.72234703 1.08293464 0.80787890
f 1 2 3
f 1 3 4
f 1 4 5
f 1 5 6
f 1 6 7
f 1 7 15
f 1 15 25
f 1 25 37
f 1 37 36
f 1 36 35
f 1 35 34
f 1 34 26
f 1 26 16
f 1 16 8
f 1 8 17
f 1 17 27
f 1 27 39
f 1 39 54
f 1 54 42
f 1 42 41
f 1 41 40
f 1 40 28
f 1 28 18
f 1 18 9
f 1 9 2
f 2 9 10
f 2 10 11
f 2 11 3
f 3 5 4
f 3 11 12
f 3 12 13
f 3 13 19
f 3 19 31
f 3 31 30
f 3 30 29
f 3 29 45
f 3 45 55
f 3 55 53
f 3 53 52
f 3 52 51
f 3 51 50
f 3 50 49
f 3 49 48
f 3 48 47
f 3 47 46
f 3 46 32
f 3 32 20
f 3 20 14
f 3 14 24
f 3 24 15
f 3 15 7
f 3 7 6
f 3 6 5
f 8 16 17
f 9 18 19
f 9 19 10
f 10 12 11
f 10 19 13
f 10 13 12
f 14 20 21
f 14 21 22
f 14 22 23
f 14 23 24
f 15 24 23
f 15 23 25
f 16 26 27
f 16 27 17
f 18 28 29
f 18 29 30
f 18 30 31
f 18 31 19
f 20 32 21
f 21 33 34
f 21 34 35
f 21 35 36
f 21 36 37
f 21 37 22
f 21 32 33
f 22 37 23
f 23 37 25
f 26 34 38
f 26 38 27
f 27 38 39
f 28 40 29
f 29 40 41
f 29 41 42
f 29 42 43
f 29 43 44
f 29 44 45
f 32 46 33
f 33 38 34
f 33 46 47
f 33 47 48
f 33 48 49
f 33 49 50
f 33 50 51
f 33 51 38
f 38 51 52
f 38 52 53
f 38 53 39
f 39 44 54
f 39 53 44
f 42 54 44
f 42 44 43
f 44 53 55
f 44 55 45

