# https://github.com/mikedh/trimesh
v -1.18140728 0.04201442 1.43321093
v -1.18140728 0.11913987 1.39398861
v -1.21977378 0.04201442 1.43419146
v -1.18140728 0.04201442 0.18214220
v -1.20481377 0.11913987 1.37584831
v -1.23385127 0.04201442 1.43100467
v -1.18140728 0.11913987 0.20359191
v -1.46690751 0.04201442 0.26132220
v -1.46690751 0.04240699 0.26132220
v -1.45039272 0.05146636 0.25703232
v -1.33525134 0.11913987 0.22994444
v -1.18140728 0.11510844 0.20224360
v -1.20762923 0.11913987 1.37315175
v -1.25057613 0.04201442 1.41494805
v -1.49888660 0.04201442 0.29184208
v -1.49897064 0.04879384 0.29159692
v -1.49930682 0.08131699 0.29184208
v -1.49813019 0.10273485 0.29355807
v -1.47993450 0.08131699 0.27652088
v -1.45455300 0.11384013 0.26647019
v -1.43698758 0.11913987 0.26181251
v -1.22023598 0.11913987 1.35256005
v -1.25208894 0.04201442 1.41274180
v -1.60171543 0.04201442 0.57804226
v -1.49241512 0.11913987 0.31206601
v -1.48997782 0.11913987 0.30679551
v -1.47955633 0.11913987 0.28485558
v -1.48169943 0.11368159 0.28399758
v -1.60852307 0.04201442 0.59802111
v -1.61070824 0.04201442 0.60476246
v -1.59642059 0.06794687 0.58564158
v -1.59974041 0.07382036 0.60476246
v -1.45829295 0.11913987 0.27112785
v -1.45325025 0.11913987 0.26843123
v -1.40101641 0.11913987 1.02517646
v -1.26158603 0.04201442 1.39533687
v -1.57721635 0.11913987 0.63736596
v -1.60932145 0.04201442 0.63013436
v -1.59911003 0.07659857 0.63736596
v -1.60839705 0.04879384 0.60476246
v -1.59167209 0.09285259 0.63736596
v -1.57839298 0.11913987 0.64337189
v -1.56666876 0.11913987 0.70024423
v -1.56721499 0.11106192 0.70318591
v -1.59797548 0.04879384 0.66212507
v -1.60104306 0.04201442 0.65673198
v -1.60801880 0.04201442 0.63675312
v -1.60663201 0.04879384 0.63736596
v -1.59558014 0.07164611 0.65697714
v -1.58032602 0.11384013 0.66984693
v -1.57818293 0.11913987 0.66984693
v -1.57721635 0.11913987 0.67462717
f 1 2 3
f 1 3 6
f 1 6 14
f 1 14 23
f 1 23 36
f 1 36 46
f 1 46 47
f 1 47 38
f 1 38 30
f 1 30 29
f 1 29 24
f 1 24 15
f 1 15 8
f 1 8 4
f 1 4 12
f 1 12 7
f 1 7 2
f 2 5 6
f 2 6 3
f 2 7 11
f 2 11 21
f 2 21 34
f 2 34 33
f 2 33 27
f 2 27 26
f 2 26 25
f 2 25 37
f 2 37 42
f 2 42 51
f 2 51 52
f 2 52 43
f 2 43 35
f 2 35 22
f 2 22 13
f 2 13 5
f 4 8 9
f 4 9 10
f 4 10 11
f 4 11 12
f 5 13 6
f 6 13 14
f 7 12 11
f 8 15 16
f 8 16 17
f 8 17 9
f 9 17 18
f 9 18 19
f 9 19 20
f 9 20 10
f 10 20 11
f 11 20 21
f 13 22 23
f 13 23 14
f 15 24 16
f 16 24 17
f 17 24 18
f 18 25 26
f 18 26 27
f 18 27 28
f 18 28 19
f 18 24 29
f 18 29 30
f 18 30 31
f 18 31 32
f 18 32 25
f 19 28 20
f 20 28 27
f 20 27 33
f 20 33 34
f 20 34 21
f 22 35 23
f 23 35 36
f 25 32 37
f 30 38 39
f 30 39 40
f 30 40 31
f 31 40 32
f 32 40 39
f 32 39 41
f 32 41 42
f 32 42 37
f 35 43 36
f 36 43 44
f 36 44 45
f 36 45 46
f 38 47 48
f 38 48 39
f 39 48 49
f 39 49 50
f 39 50 51
f 39 51 41
f 41 51 42
f 43 52 49
f 43 49 44
f 44 49 45
f 45 49 48
f 45 48 46
f 46 48 47
f 49 52 50
f 50 52 51

