# https://github.com/mikedh/trimesh
v -0.57389764 -0.95480467 2.10137785
v -0.60261758 -0.95480467 2.11259597
v -0.58116453 -0.97885938 2.08653543
v -0.57389764 -0.97657417 2.08480954
v -0.57389764 -0.95480467 0.36671252
v -0.63427590 -0.95480467 2.12381409
v -0.57784703 -1.01248563 2.05754096
v -0.57389764 -0.98676882 2.07669799
v -0.57389764 -0.99208140 0.36774801
v -0.73187314 -1.08965087 0.43384858
v -0.62662988 -0.95480467 0.38966651
v -0.63813047 -0.95480467 2.12484958
v -0.57389764 -1.01131336 2.05598763
v -0.57389764 -1.00384906 2.06271851
v -0.60176453 -0.99809134 2.07652544
v -0.66681881 -0.97316109 2.11466695
v -0.60176453 -1.01493418 2.06030233
v -0.63427590 -1.03358742 2.04114520
v -0.63427590 -1.04421247 2.02474949
v -0.60176453 -1.07788321 1.96175548
v -0.58318660 -1.07518243 1.95709563
v -0.57389764 -1.10638989 0.38569699
v -0.58129089 -1.10638989 0.38794063
v -0.71332681 -1.08965087 0.42642742
v -0.73187314 -1.10638989 0.43660996
v -0.74574337 -1.10638989 0.44420377
v -0.76049827 -1.08965087 0.44955395
v -0.77831789 -1.05712284 0.45939138
v -0.64290131 -0.95480467 0.39726031
v -0.66381727 -0.95480467 2.12985457
v -0.57389764 -1.06342960 1.96624272
v -0.66681881 -0.95689698 2.12847388
v -0.69933018 -0.97109835 2.11328626
v -0.69933018 -0.98814893 2.09706315
v -0.66681881 -0.98955869 2.09827128
v -0.66681881 -1.00582271 2.08187562
v -0.63427590 -1.01733814 2.06271851
v -0.66681881 -1.01827310 2.06547987
v -0.65803537 -1.04410856 2.02492209
v -0.63427590 -1.05682601 2.00334879
v -0.62880991 -1.07758639 1.96158289
v -0.89446151 -1.10638989 1.87528973
v -0.87894827 -1.10638989 1.87528973
v -0.86195015 -1.10638989 1.87511714
v -0.60176453 -1.08473904 1.93828375
v -0.58021667 -1.07734899 1.93828375
v -0.57389764 -1.07261523 1.93828375
v -0.57389764 -1.07034475 1.94794859
v -0.57389764 -1.10638989 1.74792102
v -0.69743445 -1.10638989 0.42435634
v -0.82605808 -1.10638989 0.49270055
v -0.79689583 -1.05712284 0.47009172
v -0.83601058 -1.08965087 0.49701520
v -0.82232985 -1.05712284 0.48527933
v -0.89664154 -0.95858873 0.53066951
v -0.89664154 -0.95480467 0.53118730
v -0.66675565 -0.95480467 2.12950937
v -0.69945653 -0.95480467 2.12519477
v -0.69933018 -0.95483433 2.12519477
v -0.72027773 -0.98262861 2.09085002
v -0.89664154 -1.10638989 1.87459939
v -0.69933018 -1.00441294 2.07807867
v -0.84871176 -1.10638989 1.87201057
v -0.82940718 -1.10638989 1.86700558
v -0.80924951 -1.10638989 1.86010212
v -0.83443078 -1.10638989 0.49856848
v -0.89664154 -0.98826767 0.52980661
v -0.83860134 -1.05712284 0.49597967
v -0.85866425 -1.08965087 0.51323832
v -0.89664154 -0.95480467 1.89858886
v -0.72684948 -0.95480467 2.10586510
v -0.89664154 -1.09496345 1.88374645
v -0.89664154 -1.10638989 0.55103472
v -0.84545746 -1.10638989 0.50650744
v -0.87493573 -1.08965087 0.52600971
v -0.89048047 -1.10638989 0.54361351
v -0.85695805 -1.10638989 0.51479160
v -0.87322954 -1.10638989 0.52739039
v -0.89664154 -1.05712284 1.89461941
v -0.73477987 -0.95480467 2.09654541
v -0.89664154 -1.05909649 1.89444681
v -0.89664154 -1.07884774 1.89168544
f 1 2 3
f 1 3 4
f 1 4 8
f 1 8 14
f 1 14 13
f 1 13 31
f 1 31 48
f 1 48 47
f 1 47 49
f 1 49 22
f 1 22 9
f 1 9 5
f 1 5 11
f 1 11 29
f 1 29 56
f 1 56 70
f 1 70 80
f 1 80 71
f 1 71 58
f 1 58 57
f 1 57 30
f 1 30 12
f 1 12 6
f 1 6 2
f 2 6 3
f 3 6 7
f 3 7 8
f 3 8 4
f 5 9 10
f 5 10 11
f 6 12 7
f 7 13 14
f 7 14 8
f 7 12 15
f 7 15 16
f 7 16 17
f 7 17 18
f 7 18 19
f 7 19 20
f 7 20 21
f 7 21 13
f 9 22 23
f 9 23 24
f 9 24 10
f 10 25 26
f 10 26 27
f 10 27 28
f 10 28 29
f 10 29 11
f 10 24 25
f 12 30 16
f 12 16 15
f 13 21 31
f 16 30 32
f 16 32 33
f 16 33 34
f 16 34 35
f 16 35 17
f 17 36 37
f 17 37 18
f 17 35 36
f 18 37 38
f 18 38 19
f 19 38 39
f 19 39 40
f 19 40 20
f 20 40 41
f 20 41 42
f 20 42 43
f 20 43 44
f 20 44 45
f 20 45 21
f 21 45 46
f 21 46 47
f 21 47 48
f 21 48 31
f 22 49 65
f 22 65 64
f 22 64 63
f 22 63 44
f 22 44 43
f 22 43 42
f 22 42 61
f 22 61 73
f 22 73 76
f 22 76 78
f 22 78 77
f 22 77 74
f 22 74 66
f 22 66 51
f 22 51 26
f 22 26 25
f 22 25 50
f 22 50 23
f 23 50 24
f 24 50 25
f 26 51 27
f 27 52 28
f 27 51 53
f 27 53 54
f 27 54 52
f 28 52 55
f 28 55 29
f 29 55 56
f 30 57 32
f 32 57 58
f 32 58 59
f 32 59 33
f 33 59 58
f 33 58 60
f 33 60 34
f 34 60 61
f 34 61 62
f 34 62 36
f 34 36 35
f 36 62 38
f 36 38 37
f 38 62 42
f 38 42 39
f 39 42 40
f 40 42 41
f 42 62 61
f 44 63 45
f 45 63 64
f 45 64 65
f 45 65 49
f 45 49 46
f 46 49 47
f 51 66 53
f 52 54 67
f 52 67 55
f 53 68 54
f 53 66 69
f 53 69 67
f 53 67 68
f 54 68 67
f 55 67 73
f 55 73 61
f 55 61 72
f 55 72 82
f 55 82 81
f 55 81 79
f 55 79 70
f 55 70 56
f 58 71 60
f 60 71 72
f 60 72 61
f 66 74 69
f 67 75 76
f 67 76 73
f 67 69 75
f 69 74 77
f 69 77 78
f 69 78 75
f 70 79 80
f 71 80 81
f 71 81 82
f 71 82 72
f 75 78 76
f 79 81 80

