# https://github.com/mikedh/trimesh
v -1.15895631 0.59603871 1.10404795
v -1.17257935 0.59603871 1.10884895
v -1.00484557 0.70699887 1.10404795
v 0.20533564 0.59603871 1.10404795
v -1.18719582 0.59603871 1.11699936
v -1.19826456 0.59603871 1.12570806
v -1.23686322 0.59603871 1.15786327
v -1.24438424 0.59603871 1.18242628
v -1.08048192 0.70699887 1.39031851
v 0.20533564 0.70699887 1.10404795
v 0.20533564 0.59603871 2.23271752
v -1.07991425 0.70699887 1.41555139
v -1.08048192 0.70699887 1.39456120
v -1.24126226 0.59603871 1.19024173
v -1.07437988 0.70699887 1.43520178
v -1.07821144 0.70699887 1.42370184
v 0.20533564 0.70699887 2.10967930
v 0.01716724 0.59603871 2.24466413
v 0.20533564 0.60149165 2.23059614
v -1.07877901 0.69276904 1.44413380
v -1.07650844 0.59603871 1.47372103
v -1.07707611 0.60175236 1.47427928
v -1.07750186 0.63428549 1.47271621
v -1.07551521 0.65926915 1.46981328
v -1.07225132 0.68095068 1.46590554
v -0.85186998 0.70699887 1.76691388
v 0.20533564 0.63527396 2.20257202
v 0.18163723 0.70699887 2.11928118
v 0.00865281 0.70699887 2.18381486
v -0.09210102 0.65230631 2.21552348
v -0.09962209 0.65230631 2.21552348
v -0.01263321 0.59603871 2.24086805
v 0.20533564 0.62194570 2.21831471
v -1.06742655 0.59603871 1.48924038
v -1.06728462 0.60175236 1.49046854
v -0.85399863 0.66679685 1.77160315
v -0.85314723 0.69931912 1.76858863
v -0.23414972 0.60175236 2.18727602
v -0.22960869 0.62004475 2.18392653
v -0.60253978 0.70699887 1.91529666
v -0.00355116 0.70699887 2.18359162
v -0.11395464 0.68730519 2.18772261
v -0.13609211 0.68523048 2.18448480
v -0.14673512 0.66814380 2.19006725
v -0.21144462 0.62713798 2.18816921
v -0.21144462 0.60175236 2.19676622
v -0.21144462 0.59603871 2.19698957
v -0.83980792 0.59603871 1.78287982
v -0.84122699 0.60175236 1.78477786
v -0.84292991 0.63428549 1.78902053
v -0.83739553 0.66679685 1.78790405
v -0.23429162 0.59603871 2.18749937
v -0.21570184 0.59603871 2.19531487
v -0.82661062 0.63428549 1.80074379
v -0.19413198 0.64982965 2.18158190
v -0.15780385 0.67988616 2.17946051
v -0.14418079 0.69789613 2.16472269
v -0.14985708 0.70699887 2.15054321
v -0.11764424 0.70699887 2.16103827
v -0.13708547 0.70699887 2.15713052
v -0.82363057 0.59603871 1.80096714
v -0.82490772 0.60175236 1.80197195
f 1 2 3
f 1 3 10
f 1 10 4
f 1 4 11
f 1 11 18
f 1 18 32
f 1 32 47
f 1 47 53
f 1 53 52
f 1 52 61
f 1 61 48
f 1 48 34
f 1 34 21
f 1 21 14
f 1 14 8
f 1 8 7
f 1 7 6
f 1 6 5
f 1 5 2
f 2 5 3
f 3 5 6
f 3 6 7
f 3 7 8
f 3 8 9
f 3 9 13
f 3 13 12
f 3 12 16
f 3 16 15
f 3 15 26
f 3 26 40
f 3 40 58
f 3 58 60
f 3 60 59
f 3 59 41
f 3 41 29
f 3 29 28
f 3 28 17
f 3 17 10
f 4 10 17
f 4 17 27
f 4 27 33
f 4 33 19
f 4 19 11
f 8 12 13
f 8 13 9
f 8 14 15
f 8 15 16
f 8 16 12
f 11 19 18
f 14 20 15
f 14 21 22
f 14 22 23
f 14 23 24
f 14 24 25
f 14 25 20
f 15 20 26
f 17 28 27
f 18 29 30
f 18 30 31
f 18 31 32
f 18 19 29
f 19 33 29
f 20 25 26
f 21 34 22
f 22 34 35
f 22 35 23
f 23 35 36
f 23 36 37
f 23 37 24
f 24 37 25
f 25 37 26
f 26 37 38
f 26 38 39
f 26 39 40
f 27 28 29
f 27 29 33
f 29 41 31
f 29 31 30
f 31 41 42
f 31 42 43
f 31 43 44
f 31 44 45
f 31 45 46
f 31 46 32
f 32 46 47
f 34 48 49
f 34 49 50
f 34 50 35
f 35 50 36
f 36 50 37
f 37 50 51
f 37 51 38
f 38 52 53
f 38 53 46
f 38 46 39
f 38 51 54
f 38 54 52
f 39 46 45
f 39 45 55
f 39 55 40
f 40 55 56
f 40 56 43
f 40 43 57
f 40 57 58
f 41 59 42
f 42 59 60
f 42 60 43
f 43 60 57
f 43 56 44
f 44 56 45
f 45 56 55
f 46 53 47
f 48 61 49
f 49 61 62
f 49 62 50
f 50 62 54
f 50 54 51
f 52 62 61
f 52 54 62
f 57 60 58

