# https://github.com/mikedh/trimesh
v -0.96567100 0.70701942 1.20034611
v -1.05552355 0.70701942 1.32039013
v -0.96540655 0.80632011 1.20034611
v -0.40513419 0.70701942 1.20034611
v -1.05585411 0.70701942 1.32084441
v -1.05625088 0.70701942 1.32180978
v -1.06868073 0.70701942 1.35287130
v -1.08058176 0.70701942 1.39026438
v -1.07489578 0.71698350 1.39736255
v -1.07489578 0.71698350 1.40874800
v -0.92725729 0.80632011 1.38705603
v -0.40513419 0.80632011 1.20034611
v -0.40513419 0.70701942 1.49040519
v -1.08058176 0.70701942 1.39446650
v -1.07992065 0.70701942 1.41547704
v -1.07826766 0.70701942 1.42359734
v -1.07205270 0.71446574 1.43041156
v -0.86728948 0.80632011 1.49040519
v -1.01016755 0.74916024 1.43557902
v -0.40513419 0.80632011 1.49040519
v -0.88408316 0.70701942 1.49040519
v -1.07443291 0.70701942 1.43512474
v -1.06524272 0.70701942 1.44531770
v -1.05876332 0.70701942 1.45119496
v -1.05036646 0.72117330 1.44213772
v -1.04811848 0.70701942 1.45823633
v -1.03601910 0.70701942 1.46590235
v -1.02669670 0.70701942 1.46842928
v -1.01671308 0.70701942 1.47081428
f 1 2 3
f 1 3 12
f 1 12 4
f 1 4 13
f 1 13 21
f 1 21 29
f 1 29 28
f 1 28 27
f 1 27 26
f 1 26 24
f 1 24 23
f 1 23 22
f 1 22 16
f 1 16 15
f 1 15 14
f 1 14 8
f 1 8 7
f 1 7 6
f 1 6 5
f 1 5 2
f 2 5 3
f 3 5 6
f 3 6 7
f 3 7 8
f 3 8 9
f 3 9 10
f 3 10 11
f 3 11 18
f 3 18 20
f 3 20 12
f 4 12 20
f 4 20 13
f 8 14 10
f 8 10 9
f 10 14 15
f 10 15 16
f 10 16 17
f 10 17 11
f 11 17 19
f 11 19 18
f 13 20 18
f 13 18 21
f 16 22 17
f 17 22 23
f 17 23 24
f 17 24 25
f 17 25 18
f 17 18 19
f 18 25 24
f 18 24 26
f 18 26 27
f 18 27 28
f 18 28 29
f 18 29 21

