# https://github.com/mikedh/trimesh
v 1.38501907 0.50113206 0.77075102
v 1.38463675 0.50113206 0.76764654
v 1.38376567 0.50416985 0.76740143
v 1.35459750 0.56921846 1.06012271
v 1.36035462 0.53669415 1.06012271
v 1.38257606 0.50113206 0.80171429
v 1.37822094 0.50113206 0.73799043
v 1.36776891 0.52351164 0.71519689
v 1.37002078 0.52638226 0.73488596
v 1.37169906 0.52640082 0.76740143
v 1.34070379 0.59342817 1.06012271
v 1.33836701 0.59079913 1.08291624
v 1.34306190 0.56864246 1.09329179
v 1.34971134 0.50113206 1.12074208
v 1.35597837 0.50117850 1.09549763
v 1.35597837 0.50113206 1.09549763
v 1.37713756 0.50113206 0.73488596
v 1.33573274 0.55510694 0.68276306
v 1.37008447 0.50113206 0.71503350
v 1.36893730 0.50416985 0.71299107
v 1.27533559 0.50113206 0.53685181
v 1.27618544 0.50277637 0.53930268
v 1.27306250 0.52779435 0.54984167
v 1.35659441 0.54263978 0.73488596
v 1.33743225 0.59602940 1.06012271
v 1.33823955 0.55682560 0.70237041
v 1.32721384 0.59602940 1.08675603
v 1.30783919 0.59039034 1.11820946
v 1.29976642 0.58291193 1.13985922
v 1.32952940 0.57910301 1.10456601
v 1.31650679 0.50113206 1.17727658
v 1.33008175 0.50113206 1.15840450
v 1.34779935 0.50113206 1.12515373
v 1.27467709 0.56331931 0.58088665
v 1.26824013 0.58500215 0.58946481
v 1.26222796 0.59602940 0.59853319
v 1.27397604 0.59602940 0.63733940
v 1.36904355 0.50113206 0.71282768
v 1.26734782 0.50113206 0.52484229
v 1.26418242 0.51268879 0.52819188
v 1.24251343 0.52876048 0.51503859
v 1.31185426 0.59602940 1.10415754
v 1.28878317 0.59602940 1.12899349
v 1.27809734 0.59084556 1.14933612
v 1.26426742 0.58039431 1.17106757
v 1.25120225 0.50113206 1.24336965
v 1.27454962 0.50113206 1.22163820
v 1.28425813 0.50113206 1.21216129
v 1.30592719 0.50113206 1.18993965
v 1.25349668 0.59602940 0.58268398
v 1.23473807 0.50113206 0.49208170
v 1.23331472 0.51122100 0.49338885
v 1.20408276 0.58595902 0.52288153
v 1.28491672 0.59602940 1.13307835
v 1.25517496 0.59602940 1.15832281
v 1.24257713 0.58859738 1.17703148
v 1.16801030 0.50113206 1.30251848
v 1.24793071 0.59602940 0.57712857
v 1.22135426 0.50113206 0.48334009
v 1.21162443 0.52654948 0.48668968
v 1.19373690 0.54824162 0.49461429
v 1.17204659 0.55361124 0.49061115
v 1.18723614 0.58908977 0.52010388
v 1.18723614 0.59602940 0.52696640
v 1.19533026 0.59602940 0.52982586
v 1.20852281 0.59602940 0.53848574
v 1.25232818 0.59602940 1.16028354
v 1.22012208 0.59602940 1.16837157
v 1.16801030 0.59602940 1.16608405
v 1.16801030 0.50113206 0.46806267
v 1.18889320 0.50113206 0.47026848
v 1.18413453 0.50113206 0.46838953
v 1.16801030 0.55389924 0.49044772
v 1.16801030 0.55768025 0.49281698
v 1.16801030 0.59130078 0.51797973
v 1.16801030 0.59602940 0.52263648
f 1 2 3
f 1 3 4
f 1 4 5
f 1 5 6
f 1 6 16
f 1 16 14
f 1 14 33
f 1 33 32
f 1 32 31
f 1 31 49
f 1 49 48
f 1 48 47
f 1 47 46
f 1 46 57
f 1 57 70
f 1 70 72
f 1 72 71
f 1 71 59
f 1 59 51
f 1 51 39
f 1 39 21
f 1 21 38
f 1 38 19
f 1 19 17
f 1 17 7
f 1 7 2
f 2 7 8
f 2 8 3
f 3 8 9
f 3 9 10
f 3 10 4
f 4 11 12
f 4 12 13
f 4 13 14
f 4 14 5
f 4 10 11
f 5 14 15
f 5 15 16
f 5 16 6
f 7 17 8
f 8 18 9
f 8 17 19
f 8 19 20
f 8 20 21
f 8 21 22
f 8 22 23
f 8 23 18
f 9 24 11
f 9 11 10
f 9 18 24
f 11 25 12
f 11 24 26
f 11 26 25
f 12 25 27
f 12 27 28
f 12 28 29
f 12 29 30
f 12 30 13
f 13 30 31
f 13 31 32
f 13 32 33
f 13 33 14
f 14 16 15
f 18 26 24
f 18 23 34
f 18 34 35
f 18 35 36
f 18 36 37
f 18 37 26
f 19 38 20
f 20 38 21
f 21 39 23
f 21 23 22
f 23 39 40
f 23 40 41
f 23 41 35
f 23 35 34
f 25 26 37
f 25 37 36
f 25 36 50
f 25 50 58
f 25 58 66
f 25 66 65
f 25 65 64
f 25 64 76
f 25 76 69
f 25 69 68
f 25 68 67
f 25 67 55
f 25 55 54
f 25 54 43
f 25 43 42
f 25 42 27
f 27 42 28
f 28 42 29
f 29 42 43
f 29 43 44
f 29 44 45
f 29 45 46
f 29 46 47
f 29 47 48
f 29 48 49
f 29 49 31
f 29 31 30
f 35 41 50
f 35 50 36
f 39 51 52
f 39 52 40
f 40 52 41
f 41 52 53
f 41 53 50
f 43 54 44
f 44 54 55
f 44 55 56
f 44 56 45
f 45 56 57
f 45 57 46
f 50 53 58
f 51 59 52
f 52 59 60
f 52 60 53
f 53 60 61
f 53 61 62
f 53 62 63
f 53 63 64
f 53 64 65
f 53 65 66
f 53 66 58
f 55 67 56
f 56 67 68
f 56 68 57
f 57 68 69
f 57 69 76
f 57 76 75
f 57 75 74
f 57 74 73
f 57 73 70
f 59 71 60
f 60 62 61
f 60 71 72
f 60 72 62
f 62 73 74
f 62 74 63
f 62 72 73
f 63 75 76
f 63 76 64
f 63 74 75
f 70 73 72

