# https://github.com/mikedh/trimesh
v 0.50515982 0.59603866 2.05846090
v 0.50515982 0.59738222 2.05681082
v 0.35442595 0.64757643 2.17808264
v 0.36343595 0.62589853 2.18695109
v 0.37696559 0.59603866 2.19396337
v 0.50515982 0.59603866 0.22556633
v 0.50515982 0.61148186 2.03948635
v 0.33273741 0.65423372 2.18571358
v 0.34277461 0.63575623 2.19293215
v 0.50515982 0.61223666 2.03824885
v 0.39028981 0.75025942 1.95595734
v 0.34154198 0.60831170 2.20922563
v 0.34154198 0.59603866 2.21603163
v 0.36910021 0.59603866 2.20015071
v 0.37156548 0.59836347 2.19685095
v 0.50392717 0.59603866 0.22556633
v 0.50515982 0.67222818 0.14554346
v 0.29569961 0.68406345 2.15127083
v 0.30752706 0.67361700 2.16364551
v 0.30902383 0.65678498 2.18818859
v 0.30902383 0.63427681 2.20345067
v 0.50515982 0.72915520 1.80519261
v 0.42630040 0.71937297 1.95781355
v 0.39172790 0.74933856 1.95554482
v 0.39249095 0.75025942 1.95245116
v 0.37256330 0.75025942 1.96730080
v 0.30902383 0.59955604 2.22304392
v 0.32422635 0.59603866 2.22077518
v 0.46953075 0.59603866 0.22597871
v 0.50515982 0.68442576 0.13316878
v 0.43686589 0.59603866 0.22866000
v 0.20536497 0.75025942 2.05309850
v 0.27650570 0.68468240 2.15209577
v 0.27650570 0.67360193 2.16838906
v 0.29423220 0.75025942 2.01432452
v 0.28786358 0.75025942 2.01741819
v 0.27650570 0.65735861 2.18963238
v 0.24395823 0.62363416 2.21850645
v 0.26957948 0.62167166 2.21685657
v 0.24395823 0.60176007 2.23253121
v 0.27814921 0.59603866 2.23046876
v 0.30424002 0.59603866 2.22593130
v 0.50515982 0.73931481 1.78168075
v 0.40047374 0.75025942 1.93822030
v 0.30893578 0.59603866 2.22490008
v 0.49327366 0.68783743 0.13440628
v 0.45462168 0.71442149 0.13275622
v 0.50515982 0.69731775 0.12925017
v 0.42718089 0.59603866 0.22969122
v 0.40678369 0.59603866 0.23216604
v 0.38057546 0.59603866 0.23732217
v 0.37438293 0.59603866 0.23855967
v 0.20536497 0.72219594 2.09187243
v 0.24395823 0.65618115 2.18921982
v 0.20536497 0.75025942 0.32167622
v 0.24395823 0.63989256 2.20530683
v 0.21144010 0.62263784 2.21871273
v 0.21144010 0.60176007 2.23253121
v 0.24395823 0.59603866 2.23583116
v 0.50515982 0.75025942 1.74558797
v 0.47161448 0.69390602 0.13894355
v 0.45462168 0.71679157 0.13275622
v 0.50515982 0.69894809 0.12883761
v 0.20536497 0.59603866 0.31652010
v 0.20536497 0.63527319 2.20262573
v 0.22000986 0.65361482 2.18612615
v 0.20536497 0.62194338 2.21830036
v 0.44839983 0.75025942 0.15977430
v 0.20536497 0.73708059 0.31920121
v 0.20536497 0.60148830 2.23046876
v 0.20536497 0.60065803 2.23088113
v 0.21105855 0.59603866 2.23479994
v 0.50515982 0.75025942 0.13935612
v 0.20536497 0.73184227 0.31899493
v 0.45453366 0.75025942 0.15688692
v 0.47211342 0.75025942 0.14987444
v 0.50515982 0.73003079 0.12904389
v 0.20536497 0.59603866 2.23273749
f 1 2 3
f 1 3 4
f 1 4 5
f 1 5 14
f 1 14 13
f 1 13 28
f 1 28 45
f 1 45 42
f 1 42 41
f 1 41 59
f 1 59 72
f 1 72 78
f 1 78 64
f 1 64 52
f 1 52 51
f 1 51 50
f 1 50 49
f 1 49 31
f 1 31 29
f 1 29 16
f 1 16 6
f 1 6 17
f 1 17 30
f 1 30 48
f 1 48 63
f 1 63 77
f 1 77 73
f 1 73 60
f 1 60 43
f 1 43 22
f 1 22 10
f 1 10 7
f 1 7 2
f 2 7 3
f 3 8 9
f 3 9 4
f 3 7 10
f 3 10 11
f 3 11 8
f 4 9 12
f 4 12 13
f 4 13 14
f 4 14 15
f 4 15 5
f 5 15 14
f 6 16 17
f 8 18 19
f 8 19 20
f 8 20 21
f 8 21 12
f 8 12 9
f 8 11 18
f 10 22 23
f 10 23 24
f 10 24 11
f 11 24 25
f 11 25 44
f 11 44 60
f 11 60 73
f 11 73 76
f 11 76 75
f 11 75 68
f 11 68 55
f 11 55 32
f 11 32 36
f 11 36 35
f 11 35 26
f 11 26 18
f 12 21 27
f 12 27 13
f 13 27 28
f 16 29 17
f 17 29 31
f 17 31 30
f 18 32 33
f 18 33 34
f 18 34 20
f 18 20 19
f 18 26 35
f 18 35 36
f 18 36 32
f 20 34 37
f 20 37 38
f 20 38 39
f 20 39 21
f 21 39 40
f 21 40 41
f 21 41 42
f 21 42 27
f 22 43 25
f 22 25 23
f 23 25 24
f 25 43 44
f 27 42 45
f 27 45 28
f 30 46 47
f 30 47 48
f 30 31 49
f 30 49 50
f 30 50 51
f 30 51 52
f 30 52 46
f 32 53 54
f 32 54 34
f 32 34 33
f 32 55 69
f 32 69 74
f 32 74 64
f 32 64 78
f 32 78 71
f 32 71 70
f 32 70 67
f 32 67 65
f 32 65 53
f 34 54 37
f 37 54 56
f 37 56 38
f 38 56 57
f 38 57 58
f 38 58 40
f 38 40 39
f 40 58 59
f 40 59 41
f 43 60 44
f 46 61 47
f 46 52 61
f 47 62 63
f 47 63 48
f 47 61 52
f 47 52 64
f 47 64 62
f 53 65 66
f 53 66 54
f 54 66 67
f 54 67 57
f 54 57 56
f 55 68 62
f 55 62 69
f 57 67 58
f 58 70 71
f 58 71 72
f 58 72 59
f 58 67 70
f 62 64 74
f 62 74 69
f 62 68 75
f 62 75 76
f 62 76 73
f 62 73 77
f 62 77 63
f 65 67 66
f 71 78 72

