# https://github.com/mikedh/trimesh
v -1.31850496 -0.32388663 1.45029649
v -1.29715277 -0.29249887 1.45029649
v -1.29711186 -0.32388663 1.45029649
v -1.35316369 -0.32388663 1.58170730
v -1.34877299 -0.30900504 1.58056849
v -1.33567670 -0.25816847 1.59333352
v -1.29711186 -0.24997670 1.55090706
v -1.29711186 -0.29249119 1.45045540
v -1.29711186 -0.29285902 1.45029649
v -1.29711186 -0.32388663 1.72085125
v -1.35565683 -0.32388663 1.60024569
v -1.34392096 -0.27648313 1.61306367
v -1.33600949 -0.25779298 1.61306367
v -1.31734306 -0.24910312 1.61306367
v -1.29711186 -0.24688850 1.55856078
v -1.29711186 -0.31217752 1.71796454
v -1.33739909 -0.30900504 1.66613649
v -1.33874206 -0.32388663 1.66759308
v -1.35676037 -0.32388663 1.61226918
v -1.35314033 -0.30900504 1.61306367
v -1.33827492 -0.27816900 1.64394336
v -1.33473670 -0.25903439 1.63199935
v -1.31726716 -0.25436761 1.64394336
v -1.29711186 -0.24917209 1.64497620
v -1.29711186 -0.24560876 1.61306367
v -1.29711186 -0.24573904 1.59285683
v -1.29711186 -0.30900504 1.71709061
v -1.33477751 -0.29013097 1.66322327
v -1.34654255 -0.30900504 1.64561182
v -1.34924003 -0.32388663 1.64561182
v -1.34428304 -0.32388663 1.65673484
v -1.35299443 -0.32388663 1.63083405
v -1.32805720 -0.26845228 1.65368926
v -1.30637795 -0.25731021 1.66648078
v -1.29711186 -0.25244420 1.65750288
v -1.29711186 -0.28486648 1.70241879
v -1.29711186 -0.26934117 1.68647578
v -1.29711186 -0.25601517 1.67108890
f 1 2 9
f 1 9 3
f 1 3 10
f 1 10 18
f 1 18 31
f 1 31 30
f 1 30 32
f 1 32 19
f 1 19 11
f 1 11 4
f 1 4 5
f 1 5 6
f 1 6 2
f 2 7 8
f 2 8 9
f 2 6 7
f 3 9 8
f 3 8 7
f 3 7 15
f 3 15 26
f 3 26 25
f 3 25 24
f 3 24 35
f 3 35 38
f 3 38 37
f 3 37 36
f 3 36 27
f 3 27 16
f 3 16 10
f 4 11 12
f 4 12 5
f 5 12 6
f 6 12 13
f 6 13 14
f 6 14 15
f 6 15 7
f 10 16 17
f 10 17 18
f 11 19 20
f 11 20 12
f 12 20 21
f 12 21 22
f 12 22 13
f 13 22 14
f 14 22 23
f 14 23 24
f 14 24 25
f 14 25 26
f 14 26 15
f 16 27 17
f 17 28 29
f 17 29 30
f 17 30 31
f 17 31 18
f 17 27 28
f 19 32 29
f 19 29 20
f 20 29 21
f 21 29 28
f 21 28 22
f 22 28 33
f 22 33 34
f 22 34 23
f 23 35 24
f 23 34 35
f 27 36 28
f 28 36 33
f 29 32 30
f 33 36 34
f 34 36 37
f 34 37 38
f 34 38 35

