# https://github.com/mikedh/trimesh
v -1.29713300 -0.29285761 1.45029649
v -1.29715423 -0.29249894 1.45029649
v -1.29713300 -0.32388554 1.45029649
v -1.29713300 -0.23452819 1.39560753
v -1.31850922 -0.32388554 1.45029649
v -1.47996396 -0.23452819 1.23917413
v -1.29713300 -0.32388554 0.91616426
v -1.29713300 -0.23452819 0.91616426
v -1.36450298 -0.32388554 1.39947653
v -1.49057796 -0.23452819 1.22275699
v -1.42532656 -0.32388554 0.91616426
v -1.42293258 -0.23452819 0.91616426
v -1.50032331 -0.32388554 1.08593005
v -1.50163681 -0.23452819 1.08880567
v -1.50523834 -0.24163130 1.09361578
v -1.51324646 -0.27648197 1.09267467
v -1.49199732 -0.32388554 1.01827469
v -1.49759034 -0.32388554 1.02711065
v -1.50153086 -0.27648197 1.03777658
v -1.49979364 -0.25258338 1.03997251
v -1.49803528 -0.23452819 1.05325262
v -1.50182749 -0.32388554 1.07955141
v -1.50123424 -0.23452819 1.06611446
v -1.50496294 -0.24262855 1.06057236
v -1.51354309 -0.27648197 1.06015410
v -1.50722973 -0.30899704 1.06015410
v -1.50426382 -0.32388554 1.06109519
v -1.50028095 -0.32388554 1.03453498
v -1.50375529 -0.32388554 1.04797193
f 1 2 5
f 1 5 3
f 1 3 7
f 1 7 8
f 1 8 4
f 1 4 2
f 2 4 6
f 2 6 5
f 3 5 9
f 3 9 13
f 3 13 22
f 3 22 27
f 3 27 29
f 3 29 28
f 3 28 18
f 3 18 17
f 3 17 11
f 3 11 7
f 4 8 12
f 4 12 21
f 4 21 23
f 4 23 14
f 4 14 10
f 4 10 6
f 5 6 9
f 6 10 9
f 7 11 12
f 7 12 8
f 9 10 13
f 10 14 15
f 10 15 16
f 10 16 13
f 11 17 12
f 12 17 18
f 12 18 19
f 12 19 20
f 12 20 21
f 13 16 22
f 14 23 15
f 15 23 24
f 15 24 25
f 15 25 16
f 16 25 26
f 16 26 27
f 16 27 22
f 18 25 19
f 18 28 25
f 19 25 20
f 20 25 24
f 20 24 21
f 21 24 23
f 25 28 29
f 25 29 26
f 26 29 27

