# https://github.com/mikedh/trimesh
v -0.89664164 -0.95480467 1.36366698
v -1.35044779 -0.95480467 1.36366698
v -0.89664164 -1.10638989 1.36366698
v -0.89664164 -0.95480467 0.80445051
v -1.20019391 -1.10638989 1.36366698
v -1.41486523 -0.95480467 1.20875483
v -1.43121000 -1.10606340 1.14148025
v -1.43083601 -1.10638989 1.14180869
v -1.40049684 -1.10638989 1.17574704
v -1.39264497 -1.10638989 1.18362949
v -1.37587290 -1.10638989 1.20027023
v -1.35685750 -1.10638989 1.21811523
v -0.89664164 -1.10638989 0.80445051
v -1.35162296 -0.95480467 0.80445051
v -1.42202272 -0.95480467 1.18866550
v -1.43724573 -1.06022426 1.12834282
v -1.43473524 -1.08925023 1.12834282
v -1.43948916 -1.08965087 1.09265282
v -1.43286579 -1.10638989 1.12560586
v -1.43131682 -1.10638989 1.13972859
v -1.18272757 -1.10638989 0.80445051
v -1.43505571 -1.08965087 1.07108554
v -1.43569676 -1.05712284 1.07020971
v -1.44226672 -1.05712284 1.09265282
v -1.39216426 -0.95480467 0.94846956
v -1.35092849 -0.95587312 0.80445051
v -1.43142365 -1.10634530 1.07601208
v -1.42554806 -0.95480467 1.15768308
v -1.43142365 -1.10638989 1.07606681
v -1.43372039 -1.10638989 1.09265282
v -1.18283440 -1.10638989 0.80455999
v -1.42677656 -0.95480467 1.12577008
v -1.42367852 -0.95480467 1.09867413
v -1.26968566 -1.10638989 0.89455136
v -1.30162733 -1.10638989 0.92766863
v -1.32026884 -1.10638989 0.94715584
v -1.35803267 -1.10638989 0.98684180
v -1.37330909 -1.10638989 1.00309938
v -1.40348804 -1.10638989 1.03807776
v -1.40872258 -1.10638989 1.04453699
f 1 2 5
f 1 5 3
f 1 3 13
f 1 13 4
f 1 4 14
f 1 14 25
f 1 25 33
f 1 33 32
f 1 32 28
f 1 28 15
f 1 15 6
f 1 6 2
f 2 6 7
f 2 7 8
f 2 8 9
f 2 9 10
f 2 10 11
f 2 11 12
f 2 12 5
f 3 5 12
f 3 12 11
f 3 11 10
f 3 10 9
f 3 9 8
f 3 8 20
f 3 20 19
f 3 19 30
f 3 30 29
f 3 29 40
f 3 40 39
f 3 39 38
f 3 38 37
f 3 37 36
f 3 36 35
f 3 35 34
f 3 34 31
f 3 31 21
f 3 21 13
f 4 13 21
f 4 21 26
f 4 26 14
f 6 15 7
f 7 15 16
f 7 16 17
f 7 17 18
f 7 18 19
f 7 19 20
f 7 20 8
f 14 22 23
f 14 23 24
f 14 24 25
f 14 26 27
f 14 27 22
f 15 28 24
f 15 24 16
f 16 24 18
f 16 18 17
f 18 29 30
f 18 30 19
f 18 24 22
f 18 22 29
f 21 31 26
f 22 27 29
f 22 24 23
f 24 28 32
f 24 32 33
f 24 33 25
f 26 31 34
f 26 34 35
f 26 35 36
f 26 36 37
f 26 37 38
f 26 38 39
f 26 39 40
f 26 40 27
f 27 40 29

