# https://github.com/mikedh/trimesh
v 1.20795495 -0.69385586 0.45912704
v 1.21776387 -0.69385586 0.45927680
v 1.06021826 -0.69385586 0.47170491
v 1.06021826 -0.62071968 0.29127257
v 1.08966067 -0.59389246 0.25204167
v 1.11614192 -0.59130204 0.25548559
v 1.13782659 -0.58477265 0.26446977
v 1.14610877 -0.56309083 0.25473693
v 1.17550493 -0.55950675 0.28872709
v 1.18002389 -0.53406351 0.27854494
v 1.19769864 -0.53551840 0.31088802
v 1.20448477 -0.52387908 0.32092039
v 1.21776387 -0.53626361 0.36524236
v 1.21776387 -0.69385586 1.60550862
v 1.06021826 -0.69385586 1.72934053
v 1.06021826 -0.60893840 0.27525081
v 1.06021826 -0.59268597 0.25548559
v 1.08966067 -0.57476562 0.23572037
v 1.11307277 -0.55876159 0.22808380
v 1.12545745 -0.57178484 0.24425534
v 1.13475745 -0.54683835 0.23302511
v 1.16779345 -0.54314783 0.26716504
v 1.17124821 -0.52146606 0.26297237
v 1.18590006 -0.50418449 0.27959312
v 1.20115340 -0.50418449 0.30280224
v 1.21776387 -0.50436193 0.35086765
v 1.21776387 -0.66876740 1.61059963
v 1.21776387 -0.66685119 1.61089912
v 1.06021826 -0.66607050 1.73173634
v 1.06021826 -0.56724267 0.23871506
v 1.06021826 -0.55258705 0.23152771
v 1.06021826 -0.50762660 0.21116361
v 1.08966067 -0.55851319 0.22838324
v 1.06021826 -0.47164404 0.20262863
v 1.12322109 -0.53626361 0.22538855
v 1.13990873 -0.52515658 0.22943143
v 1.15385108 -0.53413447 0.24799879
v 1.14205251 -0.50418449 0.22733515
v 1.15830838 -0.50418449 0.24575274
v 1.17198852 -0.50418449 0.26207395
v 1.17203476 -0.48470281 0.26192429
v 1.18036316 -0.47299249 0.27809572
v 1.17858960 -0.43913907 0.28678047
v 1.21776387 -0.37686160 0.37707148
v 1.21776387 -0.40659868 0.36868626
v 1.21776387 -0.47022463 0.35520999
v 1.21776387 -0.63423978 1.61269596
v 1.06021826 -0.37437759 1.71391774
v 1.10835336 -0.43913907 1.69684778
v 1.10821454 -0.40659868 1.69669801
v 1.08966067 -0.40659868 1.70598173
v 1.06021826 -0.46497274 0.20202965
v 1.12218774 -0.50418449 0.21984836
v 1.14177487 -0.48200591 0.22763459
v 1.17484179 -0.41628629 0.29172178
v 1.21776387 -0.33374641 0.39623771
v 1.21776387 -0.60386396 1.61194726
v 1.06021826 -0.33147533 1.70867699
v 1.13861316 -0.38953003 1.66210898
v 1.10603985 -0.39009779 1.69445196
v 1.06052671 -0.33136887 1.70852723
v 1.21776387 -0.60173482 1.61179754
v 1.21776387 -0.57103963 1.60955149
v 1.21776387 -0.50418449 1.60056731
v 1.21776387 -0.47164404 1.59562601
v 1.06021826 -0.43133224 0.20277841
v 1.06021826 -0.33136887 0.21161282
v 1.21776387 -0.33136887 0.39773512
v 1.06021826 -0.33136887 1.70418489
v 1.13566740 -0.36784821 1.65821576
v 1.11268715 -0.33136887 1.66959577
v 1.21776387 -0.33136887 1.56253427
v 1.09541344 -0.33136887 1.68292228
f 1 2 14
f 1 14 15
f 1 15 3
f 1 3 4
f 1 4 2
f 2 4 5
f 2 5 6
f 2 6 7
f 2 7 8
f 2 8 9
f 2 9 10
f 2 10 11
f 2 11 12
f 2 12 13
f 2 13 26
f 2 26 46
f 2 46 45
f 2 45 44
f 2 44 56
f 2 56 68
f 2 68 72
f 2 72 65
f 2 65 64
f 2 64 63
f 2 63 62
f 2 62 57
f 2 57 47
f 2 47 28
f 2 28 27
f 2 27 14
f 3 15 29
f 3 29 48
f 3 48 58
f 3 58 69
f 3 69 67
f 3 67 66
f 3 66 52
f 3 52 34
f 3 34 32
f 3 32 31
f 3 31 30
f 3 30 17
f 3 17 16
f 3 16 4
f 4 16 5
f 5 16 17
f 5 17 18
f 5 18 6
f 6 18 19
f 6 19 20
f 6 20 7
f 7 20 8
f 8 20 21
f 8 21 22
f 8 22 9
f 9 22 10
f 10 22 23
f 10 23 24
f 10 24 25
f 10 25 11
f 11 25 12
f 12 25 26
f 12 26 13
f 14 27 15
f 15 27 28
f 15 28 29
f 17 30 18
f 18 30 31
f 18 31 32
f 18 32 33
f 18 33 19
f 19 33 32
f 19 32 34
f 19 34 35
f 19 35 21
f 19 21 20
f 21 36 37
f 21 37 22
f 21 35 36
f 22 37 23
f 23 37 36
f 23 36 38
f 23 38 39
f 23 39 40
f 23 40 24
f 24 40 41
f 24 41 25
f 25 41 42
f 25 42 43
f 25 43 44
f 25 44 45
f 25 45 46
f 25 46 26
f 28 47 29
f 29 47 49
f 29 49 50
f 29 50 51
f 29 51 48
f 34 52 53
f 34 53 35
f 35 53 36
f 36 53 38
f 38 53 54
f 38 54 39
f 39 41 40
f 39 54 41
f 41 54 43
f 41 43 42
f 43 54 55
f 43 55 56
f 43 56 44
f 47 57 50
f 47 50 49
f 48 51 58
f 50 59 60
f 50 60 61
f 50 61 51
f 50 57 62
f 50 62 63
f 50 63 64
f 50 64 65
f 50 65 59
f 51 61 58
f 52 66 53
f 53 66 54
f 54 66 67
f 54 67 55
f 55 67 68
f 55 68 56
f 58 61 69
f 59 70 71
f 59 71 60
f 59 65 72
f 59 72 70
f 60 71 73
f 60 73 61
f 61 73 71
f 61 71 72
f 61 72 68
f 61 68 67
f 61 67 69
f 70 72 71

