# https://github.com/mikedh/trimesh
v 1.07749343 -0.12638899 0.28916466
v 1.07749343 0.08676496 0.22266325
v 1.08131065 0.08836636 0.22341043
v 1.14054600 0.06077546 0.26196625
v 1.17265362 -0.06777082 0.32712276
v 1.14285185 -0.10243461 0.32532942
v 1.07972173 -0.12638899 0.29095791
v 1.07749343 -0.12638899 1.74457342
v 1.07749343 0.09236988 0.22131832
v 1.07749343 0.11382207 0.21788111
v 1.08599982 0.11382207 0.22131832
v 1.14393697 0.08129348 0.25867852
v 1.15271468 0.04946552 0.27511712
v 1.21410090 -0.04878747 0.35387272
v 1.20683454 -0.06813781 0.35805704
v 1.11638291 -0.12638899 0.32129448
v 1.08966211 -0.12638899 1.74442399
v 1.08966211 -0.11381127 1.74397565
v 1.07749343 -0.11381127 1.74367679
v 1.07749343 0.12339715 0.21967445
v 1.07749343 0.15015399 0.22610037
v 1.14139856 0.13357275 0.25912696
v 1.12219598 0.11382207 0.24283782
v 1.14457637 0.11382207 0.25658641
v 1.16021360 0.08129348 0.27526650
v 1.23489229 -0.01625889 0.36194250
v 1.23072630 -0.05138976 0.37389784
v 1.13368649 -0.12638899 0.34460733
v 1.23473729 -0.06400084 0.39780840
v 1.18267145 -0.12638899 0.41454586
v 1.12219598 -0.12638899 1.73814746
v 1.07749343 -0.08008163 1.73605526
v 1.12219598 -0.11381127 1.73695193
v 1.12219598 -0.09065760 1.73097427
v 1.09103785 -0.07924757 1.73471030
v 1.07749343 0.18061408 0.23969947
v 1.14519639 0.14518295 0.28258918
v 1.26721308 0.06341111 0.46401090
v 1.23655874 0.03375171 0.36029874
v 1.07749343 0.20276688 0.25598870
v 1.13663185 0.19285818 0.33130698
v 1.23655874 0.02858050 0.36029874
v 1.24535585 -0.01625889 0.37823164
v 1.24192619 -0.04231512 0.38256543
v 1.27374310 -0.12638899 0.62002769
v 1.19873491 -0.12638899 0.44219250
v 1.14579712 -0.12638899 1.72962930
v 1.07749343 -0.06089811 1.72962930
v 1.08109747 -0.06119838 1.72947987
v 1.13878269 -0.09719668 1.72708882
v 1.07749343 0.11215393 1.66013910
v 1.27542894 0.11665790 1.60469634
v 1.14199929 0.19993106 0.35297605
v 1.15831458 0.21444381 0.41125812
v 1.27217358 0.04175875 0.45041176
v 1.17275045 0.21444381 0.44667572
v 1.27542894 0.21444381 0.70072591
v 1.25754393 0.01626969 0.40961426
v 1.07749343 0.21444381 0.27257667
v 1.12607134 0.21444381 0.34774559
v 1.13620552 0.21444381 0.36358638
v 1.14494455 0.21444381 0.38062269
v 1.27252235 0.01626969 0.44861845
v 1.25647818 -0.01625889 0.40961426
v 1.27542894 -0.12638899 0.62510867
v 1.16195751 -0.12638899 1.71662792
v 1.27542894 0.08129348 1.61485837
v 1.27542894 0.10541467 1.60813351
v 1.14579712 0.13327249 1.63159579
v 1.07749343 0.13087037 1.65012650
v 1.27542894 0.13153763 1.59797154
v 1.27343309 0.05106693 0.47477070
v 1.27540955 0.01626969 0.47477070
v 1.27542894 0.21444381 1.48379838
v 1.07749343 0.21444381 1.60215585
v 1.27021649 -0.00404817 0.45340058
v 1.27542894 -0.12638899 1.55149528
v 1.17302169 -0.12638899 1.70691422
v 1.27542894 0.07195195 1.61455951
v 1.17807913 -0.12638899 1.70228152
v 1.12209913 0.21444381 1.57764747
v 1.09400251 0.21444381 1.59333883
v 1.08381028 0.21444381 1.59886816
v 1.08012868 0.21444381 1.60081088
v 1.26432589 0.21444381 1.49321315
v 1.24756487 0.21444381 1.50636398
v 1.24605341 0.21444381 1.50741008
v 1.27542894 0.00539346 1.59901758
v 1.27542894 0.04876490 1.61127177
v 1.27542894 0.01076485 1.60081088
v 1.27542894 0.03945673 1.60947847
f 1 2 3
f 1 3 4
f 1 4 5
f 1 5 6
f 1 6 7
f 1 7 16
f 1 16 28
f 1 28 30
f 1 30 46
f 1 46 45
f 1 45 65
f 1 65 77
f 1 77 80
f 1 80 78
f 1 78 66
f 1 66 47
f 1 47 31
f 1 31 17
f 1 17 8
f 1 8 19
f 1 19 32
f 1 32 48
f 1 48 51
f 1 51 70
f 1 70 75
f 1 75 59
f 1 59 40
f 1 40 36
f 1 36 21
f 1 21 20
f 1 20 10
f 1 10 9
f 1 9 2
f 2 9 3
f 3 9 10
f 3 10 11
f 3 11 12
f 3 12 4
f 4 12 13
f 4 13 14
f 4 14 5
f 5 14 15
f 5 15 6
f 6 15 16
f 6 16 7
f 8 17 18
f 8 18 19
f 10 20 11
f 11 20 21
f 11 21 22
f 11 22 23
f 11 23 12
f 12 23 24
f 12 24 25
f 12 25 26
f 12 26 14
f 12 14 13
f 14 26 27
f 14 27 15
f 15 28 16
f 15 27 29
f 15 29 30
f 15 30 28
f 17 31 18
f 18 32 19
f 18 31 33
f 18 33 34
f 18 34 35
f 18 35 32
f 21 36 22
f 22 37 38
f 22 38 39
f 22 39 24
f 22 24 23
f 22 36 40
f 22 40 41
f 22 41 37
f 24 39 42
f 24 42 25
f 25 42 26
f 26 42 43
f 26 43 44
f 26 44 27
f 27 44 29
f 29 44 45
f 29 45 46
f 29 46 30
f 31 47 33
f 32 35 49
f 32 49 48
f 33 47 50
f 33 50 34
f 34 51 35
f 34 50 52
f 34 52 51
f 35 51 49
f 37 41 53
f 37 53 54
f 37 54 38
f 38 55 39
f 38 54 56
f 38 56 57
f 38 57 55
f 39 58 43
f 39 43 42
f 39 55 58
f 40 59 41
f 41 60 61
f 41 61 62
f 41 62 53
f 41 59 60
f 43 58 63
f 43 63 64
f 43 64 44
f 44 64 65
f 44 65 45
f 47 66 67
f 47 67 50
f 48 49 51
f 50 67 68
f 50 68 52
f 51 69 70
f 51 52 71
f 51 71 69
f 52 68 67
f 52 67 79
f 52 79 89
f 52 89 91
f 52 91 90
f 52 90 88
f 52 88 77
f 52 77 65
f 52 65 57
f 52 57 74
f 52 74 71
f 53 62 54
f 54 62 61
f 54 61 60
f 54 60 59
f 54 59 75
f 54 75 84
f 54 84 83
f 54 83 82
f 54 82 81
f 54 81 87
f 54 87 86
f 54 86 85
f 54 85 74
f 54 74 57
f 54 57 56
f 55 57 72
f 55 72 73
f 55 73 63
f 55 63 58
f 57 65 73
f 57 73 72
f 63 73 65
f 63 65 76
f 63 76 64
f 64 76 65
f 66 78 67
f 67 78 80
f 67 80 79
f 69 71 75
f 69 75 70
f 71 81 82
f 71 82 83
f 71 83 84
f 71 84 75
f 71 74 85
f 71 85 86
f 71 86 87
f 71 87 81
f 77 88 80
f 79 80 89
f 80 88 90
f 80 90 91
f 80 91 89

