# https://github.com/mikedh/trimesh
v 0.03926194 -0.12638900 2.41864584
v -0.08132086 -0.12638900 2.43141428
v 0.03926194 -0.14863336 2.41707778
v 0.03926194 -0.12638900 0.14563904
v -0.11386370 -0.12638900 2.43410236
v 0.03926194 -0.17891843 2.40542936
v -0.08132086 -0.14639448 2.42715813
v -0.27483448 -0.37230470 2.38616472
v 0.03926194 -0.14639448 0.14855125
v -0.30897540 -0.18866838 0.16647173
v -0.32847932 -0.16890365 0.16490368
v -0.33178443 -0.15183519 0.16355972
v -0.33178443 -0.12638900 0.16154361
v -0.12639414 -0.12638900 2.43096624
v -0.30719572 -0.37230470 2.38325271
v -0.27657784 -0.37230470 2.38616472
v -0.14637021 -0.30899014 2.38795671
v -0.12842807 -0.32615488 2.37810048
v 0.03926194 -0.20759053 2.38952477
v -0.25336930 -0.37230470 2.38123660
v 0.03926194 -0.16844625 0.15639156
v -0.14637021 -0.37230470 0.22672997
v -0.30897540 -0.21144237 0.17117593
v -0.33178443 -0.17184067 0.16624782
v -0.33178443 -0.16199441 0.16445582
v -0.33178443 -0.12638900 2.32657865
v -0.14745981 -0.12638900 2.42559007
v -0.30799475 -0.37230470 2.38302859
v 0.03918929 -0.37230470 2.29476951
v 0.03926194 -0.27364955 2.35032354
v 0.03926194 -0.17713696 0.15952750
v -0.05048509 -0.37230470 0.23905038
v -0.24392607 -0.37230470 0.23703427
v -0.33178443 -0.24179966 0.18976858
v -0.33178443 -0.21144237 0.17610424
v -0.33178443 -0.18806654 0.17028004
v -0.24570574 -0.37230470 0.23725818
v -0.33178443 -0.37230470 2.37541238
v -0.24272750 -0.12638900 2.38750886
v -0.21141955 -0.12638900 2.40139732
v 0.03926194 -0.37230470 2.29006550
v 0.03926194 -0.31004940 2.32837083
v 0.03926194 -0.37230470 0.26593120
v -0.01383807 -0.37230470 0.24980270
v -0.04881435 -0.37230470 0.23927429
v -0.33178443 -0.37230470 0.25405885
v -0.22187975 -0.12638900 2.39691705
f 1 2 3
f 1 3 6
f 1 6 19
f 1 19 30
f 1 30 42
f 1 42 41
f 1 41 43
f 1 43 31
f 1 31 21
f 1 21 9
f 1 9 4
f 1 4 13
f 1 13 26
f 1 26 39
f 1 39 47
f 1 47 40
f 1 40 27
f 1 27 14
f 1 14 5
f 1 5 2
f 2 5 3
f 3 5 7
f 3 7 8
f 3 8 6
f 4 9 10
f 4 10 11
f 4 11 12
f 4 12 13
f 5 14 15
f 5 15 16
f 5 16 8
f 5 8 7
f 6 8 17
f 6 17 18
f 6 18 19
f 8 16 15
f 8 15 28
f 8 28 38
f 8 38 46
f 8 46 37
f 8 37 33
f 8 33 22
f 8 22 32
f 8 32 45
f 8 45 44
f 8 44 43
f 8 43 41
f 8 41 29
f 8 29 20
f 8 20 18
f 8 18 17
f 9 21 22
f 9 22 23
f 9 23 10
f 10 23 11
f 11 23 24
f 11 24 25
f 11 25 12
f 12 25 24
f 12 24 36
f 12 36 35
f 12 35 34
f 12 34 46
f 12 46 38
f 12 38 26
f 12 26 13
f 14 27 15
f 15 27 28
f 18 20 29
f 18 29 19
f 19 29 30
f 21 31 22
f 22 33 23
f 22 31 32
f 23 34 35
f 23 35 36
f 23 36 24
f 23 33 37
f 23 37 34
f 26 38 39
f 27 40 38
f 27 38 28
f 29 41 42
f 29 42 30
f 31 43 44
f 31 44 45
f 31 45 32
f 34 37 46
f 38 40 47
f 38 47 39

