# https://github.com/mikedh/trimesh
v 0.53232547 -0.70764889 0.16671698
v 0.53232547 -0.69932315 0.16450351
v 0.78388755 -0.55513336 0.16376562
v 0.53988651 -0.70764889 0.17040605
v 0.53232547 -0.70764889 2.03393647
v 0.53232547 -0.67843520 0.16081446
v 0.76437079 -0.53667675 0.15730976
v 0.54215209 -0.70764889 0.17151270
v 0.79559767 -0.53428220 0.16136777
v 0.81118381 -0.52614069 0.16376562
v 0.81118381 -0.54183433 0.17335723
v 0.81118381 -0.54883381 0.17999766
v 0.81118381 -0.55848576 0.18922031
v 0.56669140 -0.70764889 0.18995800
v 0.81118381 -0.70764889 1.86294840
v 0.78200415 -0.65180020 1.92289566
v 0.53232547 -0.70503326 2.03578101
v 0.53232547 -0.66679390 0.15915429
v 0.76437079 -0.50418434 0.15804765
v 0.79690788 -0.50418434 0.15767870
v 0.81118381 -0.50525269 0.15896992
v 0.58102194 -0.70764889 0.20360762
v 0.81118381 -0.58515754 0.23275116
v 0.81118381 -0.61588172 1.92842925
v 0.81118381 -0.70764889 0.44505681
v 0.53232547 -0.70149668 2.03799448
v 0.53232547 -0.63426460 0.16247460
v 0.81118381 -0.47165504 0.15841659
v 0.73183364 -0.43912579 0.17022148
v 0.81118381 -0.58913621 1.94447671
v 0.53232547 -0.69932315 2.03873228
v 0.81118381 -0.56320120 1.95425270
v 0.53232547 -0.33133341 0.21578145
v 0.81118381 -0.34153795 0.17889081
v 0.53232547 -0.67552484 2.04149907
v 0.81118381 -0.55767531 1.95572837
v 0.81118381 -0.33133341 0.18147323
v 0.53232547 -0.33133341 1.96273755
v 0.53232547 -0.66679390 2.04168354
v 0.81118381 -0.54942324 1.95572837
v 0.81118381 -0.33133341 1.84579425
v 0.60176710 -0.33133341 1.96347535
v 0.81118381 -0.54489198 1.95425270
v 0.62120199 -0.33133341 1.95665064
v 0.79769948 -0.33133341 1.86091939
v 0.81118381 -0.50418434 1.93543853
v 0.81118381 -0.53582947 1.95019479
v 0.77324204 -0.33133341 1.87733575
v 0.79256780 -0.33133341 1.86553072
f 1 2 3
f 1 3 4
f 1 4 8
f 1 8 14
f 1 14 22
f 1 22 25
f 1 25 15
f 1 15 5
f 1 5 17
f 1 17 26
f 1 26 31
f 1 31 35
f 1 35 39
f 1 39 38
f 1 38 33
f 1 33 27
f 1 27 18
f 1 18 6
f 1 6 2
f 2 6 7
f 2 7 3
f 3 8 4
f 3 7 9
f 3 9 10
f 3 10 11
f 3 11 12
f 3 12 13
f 3 13 14
f 3 14 8
f 5 15 16
f 5 16 17
f 6 18 7
f 7 19 20
f 7 20 21
f 7 21 9
f 7 18 19
f 9 21 10
f 10 21 28
f 10 28 34
f 10 34 37
f 10 37 41
f 10 41 46
f 10 46 47
f 10 47 43
f 10 43 40
f 10 40 36
f 10 36 32
f 10 32 30
f 10 30 24
f 10 24 15
f 10 15 25
f 10 25 23
f 10 23 13
f 10 13 12
f 10 12 11
f 13 22 14
f 13 23 22
f 15 24 16
f 16 24 17
f 17 24 26
f 18 27 19
f 19 28 20
f 19 27 29
f 19 29 28
f 20 28 21
f 22 23 25
f 24 30 26
f 26 30 32
f 26 32 31
f 27 33 29
f 28 29 34
f 29 33 34
f 31 32 36
f 31 36 35
f 33 37 34
f 33 38 42
f 33 42 44
f 33 44 48
f 33 48 49
f 33 49 45
f 33 45 41
f 33 41 37
f 35 36 39
f 36 40 39
f 38 39 42
f 39 40 42
f 40 43 44
f 40 44 42
f 41 45 46
f 43 47 44
f 44 47 48
f 45 49 46
f 46 49 48
f 46 48 47

