# https://github.com/mikedh/trimesh
v -0.72072943 1.08294860 1.36606186
v -0.72160748 1.08294860 1.38137667
v -0.61433236 1.16869448 1.36606186
v 0.77351231 1.08294860 1.36606186
v -0.72116845 1.08294860 1.38540434
v -0.58989178 1.17513066 1.41793929
v -0.59998998 1.17852978 1.36606186
v -0.71721697 1.08294860 1.40621801
v 0.75126699 1.13528770 1.36606186
v 0.74790092 1.13826893 1.36907659
v 0.55574233 1.22525474 1.56737326
v 0.55691314 1.21975188 1.56874795
v 0.55808394 1.19315749 1.56995386
v 0.76077983 1.08294860 1.37607076
v -0.58696475 1.17259516 1.43800530
v -0.57042713 1.17905916 1.44948537
v -0.56910998 1.18605264 1.41793929
v -0.56910998 1.18953542 1.38540434
v -0.56910998 1.18927068 1.36606186
v -0.71414361 1.08294860 1.41550338
v 0.74716919 1.14492806 1.36606186
v 0.54213169 1.22525474 1.57518744
v 0.53657037 1.21975188 1.58046923
v 0.72389943 1.17735965 1.37233250
v 0.59525705 1.22525474 1.51093756
v 0.51564219 1.18722277 1.59462639
v 0.53964373 1.18428333 1.57894981
v 0.55252264 1.17148067 1.56344204
v 0.49442136 1.16668836 1.59913641
v 0.39402468 1.08294860 1.59911229
v -0.58198884 1.16812332 1.45968722
v -0.56032893 1.17646802 1.47611145
v -0.53910804 1.18457589 1.48537269
v -0.49051956 1.20426055 1.50256869
v -0.39012294 1.22525474 1.58030041
v -0.39173279 1.22525474 1.54803076
v -0.53662009 1.19615268 1.38540434
v -0.33392421 1.22525474 1.36606186
v -0.70667970 1.08294860 1.42529521
v -0.65150545 1.10691005 1.46771844
v -0.61755209 1.13814359 1.46518608
v 0.72653372 1.17779151 1.36606186
v 0.53657037 1.22525474 1.57723742
v 0.50627578 1.21996087 1.59122578
v 0.49676294 1.20926176 1.59944993
v 0.59803771 1.22525474 1.50502870
v 0.49939727 1.18722277 1.60053525
v 0.36768154 1.08294860 1.60810824
v 0.39036593 1.08294860 1.60053525
v -0.49330027 1.17698343 1.57169033
v -0.37680501 1.22525474 1.61242534
v -0.38324443 1.22525474 1.51549584
v 0.61808778 1.22525474 1.36606186
v -0.69160559 1.08294860 1.44367298
v -0.52666822 1.08294860 1.61242534
v -0.48437283 1.16284342 1.59339636
v 0.65248022 1.21149075 1.36606186
v 0.60755049 1.22525474 1.48298502
v 0.51417871 1.22525474 1.58524455
v 0.50583670 1.22525474 1.58768046
v 0.48520122 1.22525474 1.59194930
v 0.47159063 1.22525474 1.59414402
v 0.47159063 1.21239634 1.60065583
v 0.47159063 1.18722277 1.60321232
v 0.33270370 1.08294860 1.61160531
v -0.46271292 1.17634267 1.60248878
v 0.24152715 1.22525474 1.61242534
v -0.47266480 1.14133381 1.61242534
v 0.61999032 1.22525474 1.37390014
v 0.62525899 1.22355513 1.36606186
v 0.31104379 1.08294860 1.61242534
v 0.61135565 1.22525474 1.45047420
f 1 2 3
f 1 3 7
f 1 7 19
f 1 19 38
f 1 38 53
f 1 53 70
f 1 70 57
f 1 57 42
f 1 42 21
f 1 21 9
f 1 9 4
f 1 4 14
f 1 14 30
f 1 30 49
f 1 49 48
f 1 48 65
f 1 65 71
f 1 71 55
f 1 55 54
f 1 54 39
f 1 39 20
f 1 20 8
f 1 8 5
f 1 5 2
f 2 5 3
f 3 6 7
f 3 5 8
f 3 8 6
f 4 9 10
f 4 10 11
f 4 11 12
f 4 12 13
f 4 13 14
f 6 8 15
f 6 15 16
f 6 16 17
f 6 17 7
f 7 17 18
f 7 18 19
f 8 20 15
f 9 21 10
f 10 21 11
f 11 22 23
f 11 23 12
f 11 21 24
f 11 24 25
f 11 25 46
f 11 46 58
f 11 58 72
f 11 72 69
f 11 69 53
f 11 53 38
f 11 38 52
f 11 52 36
f 11 36 35
f 11 35 51
f 11 51 67
f 11 67 62
f 11 62 61
f 11 61 60
f 11 60 59
f 11 59 43
f 11 43 22
f 12 23 13
f 13 26 27
f 13 27 14
f 13 23 26
f 14 27 28
f 14 28 29
f 14 29 30
f 15 31 32
f 15 32 16
f 15 20 31
f 16 32 33
f 16 33 34
f 16 34 17
f 17 34 18
f 18 34 35
f 18 35 36
f 18 36 37
f 18 37 19
f 19 37 38
f 20 39 40
f 20 40 41
f 20 41 31
f 21 42 24
f 22 43 23
f 23 43 44
f 23 44 45
f 23 45 26
f 24 42 25
f 25 42 46
f 26 45 47
f 26 47 29
f 26 29 27
f 27 29 28
f 29 47 48
f 29 48 49
f 29 49 30
f 31 41 32
f 32 50 33
f 32 41 50
f 33 50 51
f 33 51 34
f 34 51 35
f 36 52 37
f 37 52 38
f 39 54 40
f 40 54 55
f 40 55 56
f 40 56 50
f 40 50 41
f 42 57 58
f 42 58 46
f 43 59 44
f 44 60 61
f 44 61 45
f 44 59 60
f 45 61 62
f 45 62 63
f 45 63 64
f 45 64 47
f 47 64 65
f 47 65 48
f 50 56 66
f 50 66 51
f 51 66 68
f 51 68 55
f 51 55 71
f 51 71 67
f 53 69 70
f 55 68 66
f 55 66 56
f 57 70 58
f 58 70 72
f 62 67 63
f 63 67 64
f 64 67 65
f 65 67 71
f 69 72 70

