# https://github.com/mikedh/trimesh
v 0.53234752 -0.96710888 0.29468430
v 0.53234752 -0.95220267 0.28536170
v 0.53548617 -0.96710888 0.29541539
v 0.53234752 -0.96710888 1.56272560
v 0.53234752 -0.88996244 0.24679221
v 0.53670182 -0.96710888 0.29578104
v 0.54050352 -0.96710888 1.56016649
v 0.53234752 -0.87553879 1.84898088
v 0.53234752 -0.79691952 0.19542713
v 0.55796487 -0.94979028 0.29230796
v 0.56906055 -0.96710888 0.31168407
v 0.75812926 -0.96710888 1.48905967
v 0.75118890 -0.78186102 1.85866894
v 0.53234752 -0.86540666 1.86835704
v 0.53234752 -0.78247047 0.18866379
v 0.75812926 -0.96710888 0.44951067
v 0.57619982 -0.96710888 0.31625390
v 0.75812926 -0.77985489 1.85610983
v 0.71370231 -0.77810274 1.88809880
v 0.69201927 -0.78427341 1.89321701
v 0.53234752 -0.85697589 1.88096981
v 0.53234752 -0.76390757 0.18153480
v 0.55500308 -0.75245501 0.19615833
v 0.56669556 -0.70771107 0.18994327
v 0.58104036 -0.70771107 0.20365288
v 0.61216129 -0.70771107 0.23728697
v 0.61366432 -0.70771107 0.23893210
v 0.62509153 -0.70771107 0.25154487
v 0.66534105 -0.70771107 0.29669497
v 0.69020684 -0.70771107 0.32466249
v 0.75812926 -0.70771107 0.40161864
v 0.75812926 -0.77167810 1.86232484
v 0.53234752 -0.70771107 2.03396832
v 0.53234752 -0.73099721 2.02062436
v 0.53234752 -0.76398376 1.99320532
v 0.75812926 -0.76482174 1.86744306
v 0.53234752 -0.84798646 1.89339980
v 0.53234752 -0.78841261 1.96852808
v 0.53234752 -0.79270418 1.96359269
v 0.53234752 -0.82386235 1.92447473
v 0.53234752 -0.73333346 0.17276067
v 0.54216125 -0.70771107 0.17148109
v 0.75812926 -0.70771107 1.88828157
v 0.53234752 -0.70771107 0.16654569
v 0.75812926 -0.73841222 1.87841069
f 1 2 3
f 1 3 6
f 1 6 11
f 1 11 17
f 1 17 16
f 1 16 12
f 1 12 7
f 1 7 4
f 1 4 8
f 1 8 14
f 1 14 21
f 1 21 37
f 1 37 40
f 1 40 39
f 1 39 38
f 1 38 35
f 1 35 34
f 1 34 33
f 1 33 44
f 1 44 41
f 1 41 22
f 1 22 15
f 1 15 9
f 1 9 5
f 1 5 2
f 2 5 3
f 3 5 6
f 4 7 8
f 5 9 10
f 5 10 6
f 6 10 11
f 7 12 8
f 8 13 14
f 8 12 13
f 9 15 16
f 9 16 10
f 10 17 11
f 10 16 17
f 12 18 13
f 12 16 31
f 12 31 43
f 12 43 45
f 12 45 36
f 12 36 32
f 12 32 18
f 13 18 19
f 13 19 20
f 13 20 14
f 14 20 21
f 15 22 23
f 15 23 16
f 16 23 24
f 16 24 25
f 16 25 26
f 16 26 27
f 16 27 28
f 16 28 29
f 16 29 30
f 16 30 31
f 18 32 19
f 19 33 34
f 19 34 35
f 19 35 20
f 19 32 36
f 19 36 33
f 20 37 21
f 20 35 38
f 20 38 39
f 20 39 40
f 20 40 37
f 22 24 23
f 22 41 42
f 22 42 24
f 24 42 44
f 24 44 33
f 24 33 43
f 24 43 31
f 24 31 30
f 24 30 29
f 24 29 28
f 24 28 27
f 24 27 26
f 24 26 25
f 33 36 45
f 33 45 43
f 41 44 42

