# https://github.com/mikedh/trimesh
v -0.33178441 -0.39691392 2.38283859
v -0.33178441 -0.40705743 2.38283859
v -0.33178441 -0.38230405 2.38068967
v -0.73190828 -0.37406613 2.46378082
v -0.73190828 -0.40658103 2.46831751
v -0.33178441 -0.42266979 2.38116719
v -0.73190828 -0.42528008 2.46807865
v -0.33178441 -0.36058772 2.37090013
v -0.54043939 -0.32389431 2.40910309
v -0.56927508 -0.32389431 2.41626603
v -0.58334690 -0.32389431 2.41960882
v -0.60180170 -0.32389431 2.42390665
v -0.70249592 -0.32389431 2.44611198
v -0.69661344 -0.33870269 2.44849975
v -0.73190828 -0.34154129 2.45637904
v -0.76443496 -0.32389431 2.45828931
v -0.76443496 -0.37406613 2.46401967
v -0.33178441 -0.42528008 2.38068967
v -0.76443496 -0.40658103 2.46282580
v -0.76535766 -0.42528008 2.45733407
v -0.33178441 -0.32389431 2.35418632
v -0.73075486 -0.32389431 2.45208121
v -0.79730761 -0.32389431 2.45470764
v -0.33178441 -0.42528008 0.21482621
v -0.81045669 -0.32389431 2.44873841
v -0.81530109 -0.32389431 2.44635083
v -0.81495502 -0.32890653 2.44563446
v -0.78427384 -0.40658103 2.44802223
v -0.77793005 -0.42528008 2.44467943
v -0.33178441 -0.32389431 0.25470038
v -0.34724035 -0.42528008 0.19978380
v -0.33178441 -0.32393401 0.23583786
v -1.07366874 -0.42528008 2.06670991
v -1.04760122 -0.42528008 2.10348014
v -1.33872627 -0.32389431 1.66748999
v -1.34022570 -0.34154129 1.66916134
v -1.30446954 -0.42528008 1.73028591
v -0.33189976 -0.32389431 0.23583786
v -0.35266145 -0.42528008 0.19500845
v -0.37261574 -0.42528008 0.18211496
v -0.39533824 -0.42528008 0.16778892
v -0.43916849 -0.42528008 0.14940371
v -0.86420638 -0.32389431 0.06249225
v -1.34426267 -0.32389431 1.65674541
v -1.35233671 -0.34154129 1.64552334
v -1.31196670 -0.42528008 1.71834755
v -0.45139481 -0.42528008 0.14582226
v -0.89454148 -0.32389431 0.05341907
v -0.88323787 -0.32389431 0.05676187
v -1.34922239 -0.32389431 1.64552334
v -1.31600377 -0.42528008 1.71046820
v -1.43434535 -0.42528008 1.43182609
v -1.43215388 -0.42528008 1.43755651
v -0.92695281 -0.42528008 0.08565281
v -0.92695281 -0.41400511 0.07514689
v -0.92695281 -0.39773770 0.06464116
v -0.95947950 -0.37406613 0.05031512
v -0.95959475 -0.33998302 0.03933190
v -0.96939893 -0.32389431 0.03431768
v -0.93906382 -0.32389431 0.04171946
v -0.92695281 -0.32389431 0.04482342
v -1.44138129 -0.42528008 1.40723300
v -1.50032137 -0.32389431 1.08609020
v -0.93975586 -0.42528008 0.08469777
v -0.95947950 -0.41605961 0.07443072
v -0.95947950 -0.39980215 0.06249225
v -1.04956208 -0.32389431 0.02930348
v -1.03341409 -0.32389431 0.02906482
v -0.99996476 -0.32389431 0.03145240
v -0.97043704 -0.32811251 0.03503406
v -0.97516605 -0.32389431 0.03360131
v -1.44611030 -0.42528008 1.38502758
v -1.50182080 -0.32389431 1.07964345
v -0.95947950 -0.42528008 0.08469777
v -1.00896145 -0.39091910 0.06750646
v -0.99200607 -0.39457156 0.06464116
v -1.06259584 -0.32389431 0.03909303
v -1.35891122 -0.42528008 0.29911125
v -1.36225615 -0.42528008 0.30126016
v -1.38071106 -0.42528008 0.31487002
v -1.50424308 -0.32389431 1.06125834
v -1.49812990 -0.36306903 1.05314022
v -1.50712659 -0.42528008 0.86379728
v -0.98104852 -0.42528008 0.09544217
v -1.06697888 -0.32389431 0.04267449
v -1.39651298 -0.42528008 0.32680830
v -1.51001020 -0.42528008 0.83156365
v -1.49224742 -0.32389431 0.62288050
v -1.39835838 -0.42363253 0.32919607
v -1.39570558 -0.32389431 0.36333986
v -1.39916587 -0.42528008 0.33086746
v -1.49086336 -0.32389431 0.59040807
v -1.49063263 -0.34154129 0.57226171
v -1.49109396 -0.37406613 0.57226171
v -1.47206247 -0.40161845 0.53978926
v -1.45533780 -0.42528008 0.52856717
v -1.47413858 -0.32389431 0.50612299
v -1.43330734 -0.32389431 0.42088288
v -1.42488733 -0.32389431 0.40560180
v -1.40816257 -0.32389431 0.37957596
v -1.45014738 -0.42528008 0.50755563
v -1.46744872 -0.39733078 0.51877772
v -1.48325063 -0.37406613 0.53978926
v -1.48636495 -0.34154129 0.53978926
v -1.48567291 -0.32389431 0.53978926
f 1 2 6
f 1 6 18
f 1 18 24
f 1 24 32
f 1 32 30
f 1 30 21
f 1 21 8
f 1 8 3
f 1 3 4
f 1 4 5
f 1 5 2
f 2 5 7
f 2 7 6
f 3 8 9
f 3 9 10
f 3 10 11
f 3 11 12
f 3 12 13
f 3 13 14
f 3 14 4
f 4 14 15
f 4 15 16
f 4 16 5
f 5 16 17
f 5 17 7
f 6 7 18
f 7 17 19
f 7 19 20
f 7 20 29
f 7 29 34
f 7 34 33
f 7 33 37
f 7 37 46
f 7 46 51
f 7 51 53
f 7 53 52
f 7 52 62
f 7 62 72
f 7 72 83
f 7 83 87
f 7 87 96
f 7 96 101
f 7 101 91
f 7 91 86
f 7 86 80
f 7 80 79
f 7 79 78
f 7 78 84
f 7 84 74
f 7 74 64
f 7 64 54
f 7 54 47
f 7 47 42
f 7 42 41
f 7 41 40
f 7 40 39
f 7 39 31
f 7 31 24
f 7 24 18
f 8 21 9
f 9 21 30
f 9 30 38
f 9 38 43
f 9 43 49
f 9 49 48
f 9 48 61
f 9 61 60
f 9 60 59
f 9 59 71
f 9 71 69
f 9 69 68
f 9 68 67
f 9 67 77
f 9 77 85
f 9 85 90
f 9 90 100
f 9 100 99
f 9 99 98
f 9 98 97
f 9 97 105
f 9 105 92
f 9 92 88
f 9 88 81
f 9 81 73
f 9 73 63
f 9 63 50
f 9 50 44
f 9 44 35
f 9 35 26
f 9 26 25
f 9 25 23
f 9 23 16
f 9 16 22
f 9 22 13
f 9 13 12
f 9 12 11
f 9 11 10
f 13 22 14
f 14 22 15
f 15 22 16
f 16 23 17
f 17 23 19
f 19 23 25
f 19 25 26
f 19 26 27
f 19 27 20
f 20 27 28
f 20 28 29
f 24 31 32
f 26 33 34
f 26 34 27
f 26 35 36
f 26 36 37
f 26 37 33
f 27 34 28
f 28 34 29
f 30 32 38
f 31 39 32
f 32 39 40
f 32 40 41
f 32 41 42
f 32 42 43
f 32 43 38
f 35 44 36
f 36 44 45
f 36 45 51
f 36 51 46
f 36 46 37
f 42 47 48
f 42 48 49
f 42 49 43
f 44 50 45
f 45 50 52
f 45 52 53
f 45 53 51
f 47 54 55
f 47 55 56
f 47 56 57
f 47 57 58
f 47 58 59
f 47 59 60
f 47 60 61
f 47 61 48
f 50 62 52
f 50 63 62
f 54 64 65
f 54 65 55
f 55 65 66
f 55 66 56
f 56 66 57
f 57 66 67
f 57 67 68
f 57 68 58
f 58 68 69
f 58 69 70
f 58 70 59
f 59 70 71
f 62 63 73
f 62 73 72
f 64 74 65
f 65 74 75
f 65 75 76
f 65 76 66
f 66 76 67
f 67 76 75
f 67 75 78
f 67 78 79
f 67 79 80
f 67 80 77
f 69 71 70
f 72 73 81
f 72 81 82
f 72 82 83
f 74 84 75
f 75 84 78
f 77 80 86
f 77 86 85
f 81 87 83
f 81 83 82
f 81 88 87
f 85 86 89
f 85 89 90
f 86 91 89
f 87 88 92
f 87 92 93
f 87 93 94
f 87 94 95
f 87 95 96
f 89 91 97
f 89 97 98
f 89 98 99
f 89 99 100
f 89 100 90
f 91 101 95
f 91 95 102
f 91 102 103
f 91 103 104
f 91 104 97
f 92 105 93
f 93 105 104
f 93 104 94
f 94 104 103
f 94 103 95
f 95 103 102
f 95 101 96
f 97 104 105

