# https://github.com/mikedh/trimesh
v -0.35817183 0.24396738 2.33306001
v -0.35817183 0.25984695 2.33238647
v -0.37408532 0.24396738 2.32946758
v -0.37408532 0.21446155 2.32834504
v -0.37106787 0.21446155 2.32901858
v -0.35817183 0.22732487 2.33238647
v -0.35817183 0.29236902 2.32991670
v -0.37408532 0.27648946 2.32677329
v -0.39815315 0.24396738 2.31913955
v -0.39811721 0.21446155 2.31824142
v -0.35817183 0.21446155 2.33148835
v -0.35817183 0.30899380 2.32767142
v -0.37408532 0.30899380 2.32250737
v -0.39556675 0.27648946 2.31711878
v -0.41288121 0.21446155 2.30432087
v -0.61821201 0.32583147 2.08473597
v -0.72511620 0.21446155 1.98908853
v -0.35817183 0.21446155 0.15943861
v -0.35817183 0.33841093 2.31846594
v -0.37408532 0.33299946 2.31644516
v -0.39057356 0.32565402 2.31240373
v -0.55678517 0.39438864 2.11998631
v -0.59137818 0.37405569 2.09124718
v -0.58667238 0.39158530 2.08675663
v -0.61382949 0.34753059 2.07687761
v -0.62410319 0.33862383 2.06699849
v -0.72511620 0.39570157 1.83326854
v -0.72515210 0.29668047 1.82653282
v -0.72511620 0.21446155 0.15674432
v -0.47064394 0.21446155 0.08893794
v -0.35817183 0.39564835 0.20097566
v -0.35817183 0.34999681 2.31285285
v -0.35817183 0.35468084 2.31038306
v -0.37408532 0.34925162 2.30746427
v -0.39434540 0.36229237 2.28478724
v -0.55437840 0.39570157 2.12088443
v -0.55610264 0.39570157 2.11886367
v -0.57600352 0.39570157 2.09371696
v -0.58300833 0.39570157 2.08316432
v -0.72511620 0.39570157 0.22320357
v -0.72511620 0.39557739 0.20591522
v -0.72511620 0.30532109 0.15831597
v -0.72511620 0.27648946 0.14641619
v -0.72511620 0.26978277 0.14596717
v -0.72511620 0.23775748 0.14776333
v -0.64321379 0.21446155 0.07569100
v -0.53595035 0.21446155 0.05234044
v -0.35827960 0.39570157 0.20097566
v -0.35817183 0.39570157 0.20681325
v -0.56508319 0.21446155 0.03999155
v -0.55419878 0.25979373 0.06850617
v -0.35817183 0.36610701 2.29489086
v -0.37408532 0.36631993 2.29107394
v -0.51195438 0.39570157 2.15254236
v -0.71512981 0.39570157 0.20771138
v -0.50430299 0.39570157 0.17515532
v -0.59299466 0.26185186 0.06648551
v -0.61469161 0.25860498 0.07030242
v -0.62342070 0.23690586 0.06401572
v -0.62737213 0.21446155 0.06132143
v -0.45781975 0.39570157 0.17537982
v -0.35817183 0.39570157 2.22596184
v -0.56921424 0.21446155 0.03931802
v -0.57589572 0.26185186 0.06648551
v -0.47229638 0.39570157 0.17223653
v -0.36643393 0.39570157 2.22326755
v -0.50247096 0.39570157 2.15748192
v -0.49316712 0.39570157 0.17380817
v -0.60298099 0.24623842 0.06019881
v -0.60093343 0.21446155 0.04650276
v -0.60377128 0.21446155 0.04762539
f 1 2 3
f 1 3 4
f 1 4 5
f 1 5 6
f 1 6 11
f 1 11 18
f 1 18 31
f 1 31 49
f 1 49 62
f 1 62 52
f 1 52 33
f 1 33 32
f 1 32 19
f 1 19 12
f 1 12 7
f 1 7 2
f 2 7 3
f 3 7 8
f 3 8 9
f 3 9 10
f 3 10 4
f 4 10 15
f 4 15 17
f 4 17 29
f 4 29 46
f 4 46 60
f 4 60 71
f 4 71 70
f 4 70 63
f 4 63 50
f 4 50 47
f 4 47 30
f 4 30 18
f 4 18 11
f 4 11 5
f 5 11 6
f 7 12 13
f 7 13 8
f 8 13 14
f 8 14 9
f 9 15 10
f 9 14 16
f 9 16 17
f 9 17 15
f 12 19 20
f 12 20 13
f 13 20 21
f 13 21 14
f 14 21 16
f 16 22 23
f 16 23 24
f 16 24 25
f 16 25 26
f 16 26 17
f 16 21 22
f 17 26 27
f 17 27 28
f 17 28 29
f 18 30 31
f 19 32 20
f 20 32 33
f 20 33 34
f 20 34 21
f 21 34 35
f 21 35 22
f 22 36 37
f 22 37 24
f 22 24 23
f 22 35 36
f 24 26 25
f 24 37 38
f 24 38 39
f 24 39 27
f 24 27 26
f 27 40 28
f 27 39 38
f 27 38 37
f 27 37 36
f 27 36 54
f 27 54 67
f 27 67 66
f 27 66 62
f 27 62 49
f 27 49 48
f 27 48 61
f 27 61 65
f 27 65 68
f 27 68 56
f 27 56 55
f 27 55 40
f 28 40 41
f 28 41 42
f 28 42 43
f 28 43 44
f 28 44 45
f 28 45 29
f 29 45 46
f 30 47 31
f 31 48 49
f 31 47 50
f 31 50 51
f 31 51 48
f 33 52 53
f 33 53 35
f 33 35 34
f 35 53 54
f 35 54 36
f 40 55 41
f 41 55 56
f 41 56 57
f 41 57 58
f 41 58 42
f 42 58 59
f 42 59 43
f 43 59 60
f 43 60 44
f 44 60 45
f 45 60 46
f 48 51 61
f 50 63 51
f 51 63 64
f 51 64 65
f 51 65 61
f 52 62 53
f 53 62 66
f 53 66 67
f 53 67 54
f 56 68 57
f 57 68 65
f 57 65 64
f 57 64 63
f 57 63 69
f 57 69 58
f 58 69 59
f 59 69 70
f 59 70 71
f 59 71 60
f 63 70 69

