# https://github.com/mikedh/trimesh
v 0.92454943 -0.70764889 0.44355728
v 0.94490548 -0.70746470 0.44355728
v 0.94490548 -0.70764889 0.44390966
v 0.81118387 -0.70764889 0.44496677
v 0.94490548 -0.62092873 0.29186408
v 0.94490548 -0.68613462 0.40585423
v 0.94490548 -0.70764889 1.81901491
v 0.81118387 -0.58515754 0.23284286
v 0.81118387 -0.70764889 1.86288437
v 0.81118387 -0.58442077 0.23160962
v 0.81118387 -0.55848576 0.18932577
v 0.94490548 -0.59521474 0.26473198
v 0.94490548 -0.70278605 1.82377184
v 0.93961686 -0.70764889 1.82165762
v 0.92041282 -0.70764889 1.82958577
v 0.81118387 -0.61588172 1.92842426
v 0.81118387 -0.54883381 0.17998816
v 0.94490548 -0.52227253 0.19602069
v 0.94490548 -0.69390777 1.83081911
v 0.82944538 -0.57303737 1.94850908
v 0.81118387 -0.58913621 1.94445689
v 0.81118387 -0.54183433 0.17346939
v 0.94490548 -0.50418434 0.18333560
v 0.94490548 -0.68116128 1.83786639
v 0.87832614 -0.58552596 1.92208163
v 0.85871622 -0.56596416 1.94199031
v 0.84571715 -0.55295982 1.95449925
v 0.82944538 -0.55675430 1.95555636
v 0.81118387 -0.56320120 1.95414689
v 0.81118387 -0.52614069 0.16377929
v 0.84109614 -0.51921483 0.16659824
v 0.94490548 -0.47946503 0.16924095
v 0.94490548 -0.66679390 1.84456130
v 0.88534278 -0.56920605 1.92719093
v 0.84571715 -0.55292298 1.95449925
v 0.88890339 -0.53667675 1.93018610
v 0.82944538 -0.55008634 1.95555636
v 0.81118387 -0.55767531 1.95590873
v 0.81118387 -0.50525269 0.15902237
v 0.82992978 -0.50668941 0.16078421
v 0.86197583 -0.49744271 0.16148894
v 0.94490548 -0.46318196 0.16254604
v 0.94490548 -0.64888989 1.84931822
v 0.90161456 -0.56920605 1.91521058
v 0.82944538 -0.53384011 1.95009469
v 0.85871622 -0.53991864 1.94621864
v 0.90516209 -0.53667675 1.91609146
v 0.88307802 -0.51169958 1.92613382
v 0.81118387 -0.54942324 1.95590873
v 0.81118387 -0.47165504 0.15831762
v 0.82944538 -0.47165504 0.15637964
v 0.86197583 -0.47165504 0.15673201
v 0.94490548 -0.45312477 0.16060806
v 0.94490548 -0.63518560 1.85266578
v 0.91690445 -0.56920605 1.89900172
v 0.82944538 -0.50418434 1.93617627
v 0.81118387 -0.52179361 1.94357592
v 0.81118387 -0.54489198 1.95432311
v 0.86221150 -0.50219498 1.92965750
v 0.91732341 -0.53667675 1.89970646
v 0.91416848 -0.51519933 1.89406866
v 0.87322072 -0.49000114 1.92067225
v 0.89502987 -0.50260023 1.90745848
v 0.94490548 -0.33133341 1.73708992
v 0.84062482 -0.38427176 0.16360316
v 0.86134748 -0.37369883 0.16007946
v 0.86197583 -0.40659650 0.15726051
v 0.81118387 -0.34153795 0.17875481
v 0.82944538 -0.34153795 0.17346939
v 0.89448004 -0.37406722 0.15690815
v 0.89448004 -0.40659650 0.15602727
v 0.94490548 -0.42450051 0.15726051
v 0.94490548 -0.43912579 0.15814148
v 0.94490548 -0.59458847 1.85936068
v 0.81118387 -0.33133341 1.84597077
v 0.81118387 -0.50418434 1.93529540
v 0.85154252 -0.48616982 1.92296260
v 0.94490548 -0.56688517 1.86024156
v 0.94490548 -0.55612804 1.85513226
v 0.87847009 -0.45504045 1.88984024
v 0.94490548 -0.33133341 0.16959333
v 0.87178081 -0.34850060 0.16342692
v 0.81118387 -0.33133341 0.18139752
v 0.82944538 -0.33133341 0.17611210
v 0.94490548 -0.40659650 0.15761288
v 0.89448004 -0.34617972 0.16254604
v 0.94490548 -0.36375215 0.16325078
v 0.94490548 -0.37240944 0.16184132
v 0.94490548 -0.39197121 0.15884622
v 0.89448004 -0.33133341 0.16677438
v 0.88941396 -0.33133341 0.16730298
v 0.85304797 -0.33133341 0.17188368
v 0.86150453 -0.33133341 0.17047429
f 1 2 3
f 1 3 7
f 1 7 14
f 1 14 15
f 1 15 9
f 1 9 4
f 1 4 5
f 1 5 6
f 1 6 2
f 2 6 5
f 2 5 12
f 2 12 18
f 2 18 23
f 2 23 32
f 2 32 42
f 2 42 53
f 2 53 73
f 2 73 72
f 2 72 85
f 2 85 89
f 2 89 88
f 2 88 87
f 2 87 81
f 2 81 64
f 2 64 79
f 2 79 78
f 2 78 74
f 2 74 54
f 2 54 43
f 2 43 33
f 2 33 24
f 2 24 19
f 2 19 13
f 2 13 7
f 2 7 3
f 4 8 5
f 4 9 16
f 4 16 21
f 4 21 29
f 4 29 38
f 4 38 49
f 4 49 58
f 4 58 57
f 4 57 76
f 4 76 75
f 4 75 83
f 4 83 68
f 4 68 50
f 4 50 39
f 4 39 30
f 4 30 22
f 4 22 17
f 4 17 11
f 4 11 10
f 4 10 8
f 5 8 10
f 5 10 11
f 5 11 12
f 7 13 14
f 9 15 16
f 11 17 12
f 12 17 18
f 13 19 15
f 13 15 14
f 15 19 16
f 16 20 21
f 16 19 20
f 17 22 18
f 18 22 23
f 19 24 25
f 19 25 26
f 19 26 20
f 20 27 28
f 20 28 21
f 20 26 27
f 21 28 29
f 22 30 31
f 22 31 23
f 23 31 32
f 24 33 34
f 24 34 25
f 25 34 26
f 26 34 27
f 27 35 37
f 27 37 28
f 27 34 36
f 27 36 35
f 28 37 49
f 28 49 38
f 28 38 29
f 30 39 40
f 30 40 41
f 30 41 42
f 30 42 32
f 30 32 31
f 33 43 44
f 33 44 34
f 34 44 36
f 35 45 37
f 35 36 46
f 35 46 45
f 36 44 47
f 36 47 48
f 36 48 46
f 37 45 49
f 39 50 51
f 39 51 52
f 39 52 41
f 39 41 40
f 41 52 53
f 41 53 42
f 43 54 55
f 43 55 44
f 44 55 47
f 45 56 57
f 45 57 58
f 45 58 49
f 45 46 59
f 45 59 56
f 46 48 59
f 47 55 60
f 47 60 61
f 47 61 48
f 48 62 59
f 48 61 63
f 48 63 64
f 48 64 62
f 50 65 66
f 50 66 67
f 50 67 51
f 50 68 69
f 50 69 65
f 51 67 70
f 51 70 71
f 51 71 52
f 52 71 72
f 52 72 73
f 52 73 53
f 54 74 55
f 55 74 60
f 56 75 76
f 56 76 57
f 56 59 77
f 56 77 75
f 59 62 75
f 59 75 77
f 60 74 78
f 60 78 79
f 60 79 64
f 60 64 61
f 61 64 63
f 62 80 75
f 62 64 80
f 64 75 80
f 64 81 90
f 64 90 91
f 64 91 93
f 64 93 92
f 64 92 84
f 64 84 83
f 64 83 75
f 65 69 66
f 66 70 67
f 66 69 82
f 66 82 70
f 68 83 84
f 68 84 69
f 69 84 82
f 70 85 71
f 70 82 86
f 70 86 81
f 70 81 87
f 70 87 88
f 70 88 89
f 70 89 85
f 71 85 72
f 81 86 90
f 82 91 90
f 82 90 86
f 82 84 92
f 82 92 93
f 82 93 91

