# https://github.com/mikedh/trimesh
v 1.38860975 0.39570157 0.76859900
v 1.38330842 0.37405569 0.76731181
v 1.37235242 0.37405569 0.73987878
v 1.37386706 0.39570157 0.73464956
v 1.38805440 0.39570157 0.80110038
v 1.37240292 0.34770801 0.79200967
v 1.32125799 0.21446155 0.83239499
v 1.37265535 0.34639506 0.76731181
v 1.36851534 0.35267592 0.74583196
v 1.27652511 0.39570157 0.54937578
v 1.14490141 0.21446155 0.38059400
v 1.13616684 0.21446155 0.36353877
v 1.38275306 0.39570157 0.81115646
v 1.31494695 0.21446155 0.93585226
v 1.31838010 0.21446155 0.80013499
v 1.31696647 0.21446155 0.79635387
v 1.34145342 0.30869217 0.73521268
v 1.15828085 0.21446155 0.41116457
v 1.27440460 0.39570157 0.54551421
v 1.07416691 0.21446155 0.26458668
v 1.25304795 0.39570157 0.50681832
v 1.25895505 0.39570157 0.51751801
v 1.37381657 0.39570157 0.82772894
v 1.28500716 0.39570157 0.93585226
v 0.87281843 0.21446155 0.93585226
v 1.29177264 0.21446155 0.73481049
v 1.29071243 0.21446155 0.73223611
v 1.06028253 0.21446155 0.24399177
v 1.22941929 0.39570157 0.47077721
v 0.87281843 0.39570157 0.93585226
v 0.87281843 0.21446155 0.11398636
v 1.04483298 0.21446155 0.22669527
v 1.21301044 0.39570157 0.44680344
v 0.87281843 0.39570157 0.22910873
v 0.87281843 0.24396738 0.11591715
v 0.89452849 0.24396738 0.12010050
v 0.89452849 0.21446155 0.11849153
v 0.95203496 0.21446155 0.14809670
v 0.94375494 0.22650873 0.13281146
v 0.94375494 0.22952495 0.13281146
v 0.95466043 0.27648946 0.15581983
v 1.20260980 0.39570157 0.43594283
v 0.87680703 0.39570157 0.23120035
v 0.95117669 0.29758534 0.16080767
v 0.87281843 0.32680729 0.16434734
v 0.87281843 0.27397002 0.12742135
v 0.91699596 0.26399872 0.13055882
v 0.92754801 0.24180279 0.12886940
v 0.92734608 0.21446155 0.12903031
v 0.93870603 0.25120633 0.13570757
v 1.19488503 0.39570157 0.43007005
v 0.87281843 0.30278389 0.14512004
v 0.87281843 0.30886959 0.14978613
v 0.87281843 0.28757855 0.13538575
v 0.87281843 0.28823502 0.13578803
f 1 2 3
f 1 3 4
f 1 4 10
f 1 10 19
f 1 19 22
f 1 22 21
f 1 21 29
f 1 29 33
f 1 33 42
f 1 42 51
f 1 51 43
f 1 43 34
f 1 34 30
f 1 30 24
f 1 24 23
f 1 23 13
f 1 13 5
f 1 5 2
f 2 6 7
f 2 7 8
f 2 8 9
f 2 9 3
f 2 5 6
f 3 10 4
f 3 9 11
f 3 11 12
f 3 12 10
f 5 13 14
f 5 14 6
f 6 14 7
f 7 15 8
f 7 14 25
f 7 25 31
f 7 31 37
f 7 37 49
f 7 49 38
f 7 38 32
f 7 32 28
f 7 28 20
f 7 20 12
f 7 12 11
f 7 11 18
f 7 18 27
f 7 27 26
f 7 26 16
f 7 16 15
f 8 15 9
f 9 15 16
f 9 16 17
f 9 17 18
f 9 18 11
f 10 12 19
f 12 20 21
f 12 21 22
f 12 22 19
f 13 23 14
f 14 24 30
f 14 30 25
f 14 23 24
f 16 26 17
f 17 26 27
f 17 27 18
f 20 28 29
f 20 29 21
f 25 30 34
f 25 34 45
f 25 45 53
f 25 53 52
f 25 52 55
f 25 55 54
f 25 54 46
f 25 46 35
f 25 35 31
f 28 32 33
f 28 33 29
f 31 35 36
f 31 36 37
f 32 38 39
f 32 39 40
f 32 40 41
f 32 41 42
f 32 42 33
f 34 43 44
f 34 44 45
f 35 46 47
f 35 47 36
f 36 48 37
f 36 47 48
f 37 48 40
f 37 40 39
f 37 39 49
f 38 49 39
f 40 48 50
f 40 50 41
f 41 50 44
f 41 44 42
f 42 44 51
f 43 51 44
f 44 50 47
f 44 47 52
f 44 52 53
f 44 53 45
f 46 54 47
f 47 50 48
f 47 54 55
f 47 55 52

