# https://github.com/mikedh/trimesh
v 1.46449328 -0.12638899 1.03938181
v 1.46440070 -0.12638899 1.04944015
v 1.27544823 -0.12638899 0.62507407
v 1.31654741 -0.08131173 0.73494940
v 1.30666586 -0.05075969 0.73590733
v 1.27544823 -0.00230380 0.70582814
v 1.27544823 0.00527645 0.71291691
v 1.38325724 0.02111558 0.99512513
v 1.43501510 0.02111558 1.15337632
v 1.43518163 0.02111558 1.15395108
v 1.43582938 0.02111558 1.15625013
v 1.44101069 0.02111558 1.18470085
v 1.44188043 0.02111558 1.19016110
v 1.45335340 -0.12638899 1.15768703
v 1.27544823 -0.11467930 0.63139644
v 1.27544823 -0.12638899 1.55149495
v 1.29186201 -0.05075969 0.70487021
v 1.27803889 -0.01515414 0.70046371
v 1.27544823 -0.01239637 0.69758989
v 1.27544823 0.01063317 0.72747753
v 1.27544823 0.01294334 0.73494940
v 1.27544823 0.01779471 0.76742349
v 1.38138818 0.02111558 0.99158076
v 1.40044818 0.02111558 1.47169879
v 1.40007806 -0.00527815 1.46930395
v 1.44904179 -0.12638899 1.17310982
v 1.27544823 -0.03030021 0.68551988
v 1.28483016 -0.12638899 1.54785480
v 1.27544823 0.00537752 1.59900859
v 1.27544823 -0.01908144 0.69280019
v 1.27544823 0.02110115 0.80028072
v 1.37102554 0.02111558 0.97223042
v 1.39254659 0.02111558 1.48731317
v 1.37235784 0.02111558 1.52496009
v 1.36671393 0.02111558 1.53396468
v 1.34095526 -0.12638899 1.50762142
v 1.34772801 -0.12638899 1.49449767
v 1.35834976 -0.12638899 1.46556799
v 1.44432306 -0.12638899 1.18872419
v 1.31044080 -0.12638899 1.53635953
v 1.28618098 0.02111558 1.60025395
v 1.28277613 0.01886316 1.60082870
v 1.27544823 0.01074868 1.60082870
v 1.27544823 0.02111558 0.82863564
v 1.36943410 0.02111558 0.96983559
v 1.35805361 0.02111558 1.54316088
v 1.32578130 -0.12638899 1.52371479
v 1.33597741 0.02111558 1.56567239
v 1.32224685 0.02111558 1.57649709
v 1.31301296 0.02111558 1.58329844
v 1.29732086 0.02111558 1.59469793
v 1.28294268 0.02111558 1.60149927
v 1.27544823 0.02111558 1.60370252
v 1.34554439 0.02111558 1.55638042
f 1 2 14
f 1 14 26
f 1 26 39
f 1 39 38
f 1 38 37
f 1 37 36
f 1 36 47
f 1 47 40
f 1 40 28
f 1 28 16
f 1 16 3
f 1 3 4
f 1 4 5
f 1 5 6
f 1 6 7
f 1 7 8
f 1 8 9
f 1 9 10
f 1 10 11
f 1 11 12
f 1 12 13
f 1 13 2
f 2 13 14
f 3 15 4
f 3 16 29
f 3 29 43
f 3 43 53
f 3 53 44
f 3 44 31
f 3 31 22
f 3 22 21
f 3 21 20
f 3 20 7
f 3 7 6
f 3 6 19
f 3 19 30
f 3 30 27
f 3 27 15
f 4 15 17
f 4 17 18
f 4 18 5
f 5 18 6
f 6 18 19
f 7 20 8
f 8 20 21
f 8 21 22
f 8 22 23
f 8 23 32
f 8 32 45
f 8 45 44
f 8 44 53
f 8 53 52
f 8 52 41
f 8 41 51
f 8 51 50
f 8 50 49
f 8 49 48
f 8 48 54
f 8 54 46
f 8 46 35
f 8 35 34
f 8 34 33
f 8 33 24
f 8 24 13
f 8 13 12
f 8 12 11
f 8 11 10
f 8 10 9
f 13 24 14
f 14 24 25
f 14 25 26
f 15 27 17
f 16 28 29
f 17 27 18
f 18 27 30
f 18 30 19
f 22 31 32
f 22 32 23
f 24 33 25
f 25 33 34
f 25 34 35
f 25 35 36
f 25 36 37
f 25 37 38
f 25 38 39
f 25 39 26
f 28 40 41
f 28 41 29
f 29 41 42
f 29 42 43
f 31 44 45
f 31 45 32
f 35 46 36
f 36 46 47
f 40 48 49
f 40 49 50
f 40 50 51
f 40 51 41
f 40 47 48
f 41 52 42
f 42 52 43
f 43 52 53
f 46 54 47
f 47 54 48

