# https://github.com/mikedh/trimesh
v -0.33178441 -0.32389429 2.35433076
v -0.33178441 -0.24209130 2.33404944
v -0.53673695 -0.27648282 2.39827360
v -0.53834330 -0.31043395 2.40599992
v -0.54042214 -0.32389429 2.40889720
v -0.33178441 -0.32389429 0.25473238
v -0.66685205 -0.24209130 2.42410808
v -0.33178441 -0.24209130 0.19002548
v -0.69756188 -0.24209130 2.43231716
v -0.56924211 -0.32389429 2.41638195
v -0.33187892 -0.32389429 0.23565833
v -0.33178441 -0.31836120 0.23227810
v -0.50357038 -0.24209130 0.11638497
v -0.76304463 -0.24209130 2.44776961
v -0.76238318 -0.24369276 2.44801118
v -0.60184178 -0.32389429 2.42386671
v -0.86415084 -0.32389429 0.06254285
v -0.88314364 -0.32389429 0.05674831
v -0.89448265 -0.32389429 0.05336808
v -0.92698780 -0.32389429 0.04467606
v -0.96270567 -0.32389429 0.03598405
v -1.05937062 -0.27633067 -0.00071542
v -1.03612573 -0.26538466 0.00145754
v -1.05710286 -0.24395701 -0.00820016
v -1.05710286 -0.24209130 -0.00795880
v -0.79498285 -0.24209130 2.45066708
v -0.76446200 -0.27648282 2.45332279
v -0.70247546 -0.32389429 2.44607960
v -0.96941454 -0.32389429 0.03453542
v -1.07174909 -0.29316212 0.00266481
v -1.07411136 -0.29316212 0.00266481
v -1.07968645 -0.27648282 -0.00023267
v -1.08299357 -0.24395701 -0.00361288
v -1.08271013 -0.24209130 -0.00361288
v -0.79696716 -0.24209130 2.45066708
v -0.79696716 -0.24395701 2.45090846
v -0.79696716 -0.27648282 2.45477162
v -0.76446200 -0.30900063 2.45718595
v -0.73072845 -0.32389429 2.45211572
v -0.97527307 -0.32389429 0.03356952
v -0.99993539 -0.32389429 0.03163794
v -1.03338549 -0.32389429 0.02922361
v -1.08677327 -0.29778234 0.02222180
v -1.10623856 -0.29311406 0.03477678
v -1.09593903 -0.27648282 0.01304683
v -1.04963807 -0.32389429 0.02922361
v -1.06258343 -0.32389429 0.03912270
v -1.06693002 -0.32389429 0.04274448
v -1.09934067 -0.24395701 0.01087388
v -1.09886819 -0.24209130 0.01135663
v -0.81520406 -0.24209130 2.44487234
v -0.79696716 -0.30900063 2.45766890
v -0.76446200 -0.32389429 2.45839321
v -1.10982923 -0.27648282 0.02922361
v -1.29711186 -0.32389429 0.32933876
v -1.24362948 -0.24209130 0.18398935
v -1.23153456 -0.24209130 0.16950259
v -1.10009660 -0.24209130 0.01256389
v -0.81595998 -0.27648282 2.44656235
v -0.87501735 -0.24209130 2.37074890
v -0.81633794 -0.30900063 2.44801118
v -0.81038499 -0.32389429 2.44873550
v -0.79725066 -0.32389429 2.45477162
v -1.29711186 -0.24209130 0.30760861
v -1.29711186 -0.32389429 1.72078131
v -0.98538367 -0.24209130 2.19835794
v -0.81520406 -0.32389429 2.44632098
v -1.01070750 -0.32389429 2.15200057
v -1.29711186 -0.24209130 1.39531460
v -1.29711186 -0.31217956 1.71788399
v -1.10888438 -0.24209130 1.99433756
v -1.29711186 -0.30900063 1.71691820
v -1.29711186 -0.24561452 1.61285580
v -1.28511146 -0.24209130 1.54525141
v -1.24476345 -0.24209130 1.73864820
v -1.29711186 -0.25601606 1.67104382
v -1.29711186 -0.26934827 1.68625481
v -1.29711186 -0.28486650 1.70243158
v -1.29711186 -0.24916979 1.64496786
v -1.25459061 -0.24209130 1.71619388
v -1.28473340 -0.24348458 1.61285580
v -1.28104822 -0.24209130 1.57736350
f 1 2 3
f 1 3 4
f 1 4 5
f 1 5 10
f 1 10 16
f 1 16 28
f 1 28 39
f 1 39 53
f 1 53 63
f 1 63 62
f 1 62 67
f 1 67 68
f 1 68 65
f 1 65 55
f 1 55 48
f 1 48 47
f 1 47 46
f 1 46 42
f 1 42 41
f 1 41 40
f 1 40 29
f 1 29 21
f 1 21 20
f 1 20 19
f 1 19 18
f 1 18 17
f 1 17 11
f 1 11 6
f 1 6 12
f 1 12 8
f 1 8 2
f 2 7 3
f 2 8 13
f 2 13 25
f 2 25 34
f 2 34 50
f 2 50 58
f 2 58 57
f 2 57 56
f 2 56 64
f 2 64 69
f 2 69 74
f 2 74 82
f 2 82 80
f 2 80 75
f 2 75 71
f 2 71 66
f 2 66 60
f 2 60 51
f 2 51 35
f 2 35 26
f 2 26 14
f 2 14 9
f 2 9 7
f 3 7 9
f 3 9 4
f 4 9 10
f 4 10 5
f 6 11 12
f 8 12 13
f 9 14 15
f 9 15 10
f 10 15 16
f 11 17 13
f 11 13 12
f 13 17 18
f 13 18 19
f 13 19 20
f 13 20 21
f 13 21 22
f 13 22 23
f 13 23 24
f 13 24 25
f 14 26 15
f 15 26 27
f 15 27 16
f 16 27 28
f 21 29 22
f 22 30 24
f 22 24 23
f 22 29 30
f 24 30 31
f 24 31 32
f 24 32 33
f 24 33 34
f 24 34 25
f 26 35 36
f 26 36 37
f 26 37 38
f 26 38 27
f 27 38 39
f 27 39 28
f 29 40 30
f 30 40 41
f 30 41 42
f 30 42 46
f 30 46 31
f 31 43 44
f 31 44 45
f 31 45 32
f 31 46 47
f 31 47 48
f 31 48 43
f 32 45 33
f 33 49 34
f 33 45 49
f 34 49 50
f 35 51 36
f 36 51 37
f 37 52 38
f 37 51 52
f 38 52 53
f 38 53 39
f 43 48 44
f 44 54 45
f 44 48 55
f 44 55 56
f 44 56 54
f 45 54 49
f 49 57 58
f 49 58 50
f 49 54 56
f 49 56 57
f 51 59 52
f 51 60 59
f 52 59 61
f 52 61 62
f 52 62 63
f 52 63 53
f 55 64 56
f 55 65 70
f 55 70 72
f 55 72 78
f 55 78 77
f 55 77 76
f 55 76 79
f 55 79 73
f 55 73 69
f 55 69 64
f 59 60 61
f 60 66 65
f 60 65 61
f 61 67 62
f 61 65 68
f 61 68 67
f 65 66 70
f 66 71 72
f 66 72 70
f 69 73 74
f 71 75 76
f 71 76 77
f 71 77 78
f 71 78 72
f 73 79 80
f 73 80 81
f 73 81 74
f 74 81 82
f 75 80 76
f 76 80 79
f 80 82 81

