# https://github.com/mikedh/trimesh
v -1.12779577 -0.42529002 0.68022573
v -1.41475608 -0.42529002 0.68022573
v -1.12779577 -0.52154967 0.68022573
v -1.12779577 -0.42529002 0.22262262
v -1.40325306 -0.52154967 0.68022573
v -1.44580756 -0.42529002 0.62405554
v -1.12779577 -0.52154967 0.22983430
v -1.12779577 -0.47164840 0.22548936
v -1.14437174 -0.47164840 0.22849047
v -1.14605196 -0.42529002 0.22746031
v -1.45530727 -0.42529002 0.60398841
v -1.45672895 -0.42529002 0.59588088
v -1.42596819 -0.52154967 0.53966597
v -1.13303031 -0.52154967 0.23037173
v -1.12779577 -0.50959259 0.22849047
v -1.13813554 -0.51983479 0.23077490
v -1.27193830 -0.46192448 0.26235381
v -1.26350501 -0.52154967 0.26454868
v -1.37032748 -0.52154967 0.29344000
v -1.27193830 -0.44622668 0.26235381
v -1.28360282 -0.43687960 0.26642995
v -1.26903026 -0.42529002 0.26360800
v -1.45785983 -0.42529002 0.56313734
v -1.42790695 -0.52154967 0.50714640
v -1.42722838 -0.52154967 0.52457076
v -1.13687544 -0.52154967 0.23090935
v -1.37239536 -0.47164840 0.29254420
v -1.37788843 -0.52154967 0.29971100
v -1.38864823 -0.47164840 0.30445901
v -1.37019816 -0.44925128 0.29357435
v -1.35979384 -0.42756083 0.29782974
v -1.35898606 -0.42529002 0.29899435
v -1.45669667 -0.42529002 0.53966597
v -1.42684063 -0.52154967 0.49406688
v -1.38658026 -0.52154967 0.30866959
v -1.38732339 -0.50416524 0.30660910
v -1.40176671 -0.50416524 0.32286884
v -1.40299462 -0.47164840 0.32071886
v -1.40121747 -0.44533155 0.32376474
v -1.38428613 -0.43644619 0.31077479
v -1.36234650 -0.42529002 0.30109963
v -1.45533954 -0.42529002 0.52833341
v -1.42474037 -0.52154967 0.47538830
v -1.39330104 -0.52154967 0.31623956
v -1.40057118 -0.52154967 0.32492936
v -1.40664578 -0.50416524 0.34454858
v -1.40926310 -0.47164840 0.34454858
v -1.45013738 -0.42529002 0.50732554
v -1.40461020 -0.43634252 0.34177142
v -1.39914949 -0.42529002 0.33070762
v -1.39653228 -0.42529002 0.32672106
v -1.38073181 -0.42529002 0.31485102
v -1.40283303 -0.52154967 0.33505255
v -1.40483634 -0.52154967 0.34454858
f 1 2 5
f 1 5 3
f 1 3 7
f 1 7 15
f 1 15 8
f 1 8 4
f 1 4 10
f 1 10 22
f 1 22 32
f 1 32 41
f 1 41 52
f 1 52 51
f 1 51 50
f 1 50 48
f 1 48 42
f 1 42 33
f 1 33 23
f 1 23 12
f 1 12 11
f 1 11 6
f 1 6 2
f 2 6 5
f 3 5 13
f 3 13 25
f 3 25 24
f 3 24 34
f 3 34 43
f 3 43 54
f 3 54 53
f 3 53 45
f 3 45 44
f 3 44 35
f 3 35 28
f 3 28 19
f 3 19 18
f 3 18 26
f 3 26 14
f 3 14 7
f 4 8 9
f 4 9 10
f 5 6 11
f 5 11 12
f 5 12 13
f 7 14 15
f 8 15 16
f 8 16 9
f 9 17 10
f 9 16 18
f 9 18 19
f 9 19 17
f 10 17 20
f 10 20 21
f 10 21 22
f 12 23 24
f 12 24 25
f 12 25 13
f 14 26 16
f 14 16 15
f 16 26 18
f 17 19 27
f 17 27 20
f 19 28 29
f 19 29 27
f 20 27 21
f 21 27 30
f 21 30 22
f 22 30 31
f 22 31 32
f 23 33 24
f 24 33 34
f 27 29 30
f 28 35 36
f 28 36 29
f 29 36 37
f 29 37 38
f 29 38 39
f 29 39 30
f 30 39 40
f 30 40 31
f 31 40 41
f 31 41 32
f 33 42 43
f 33 43 34
f 35 44 37
f 35 37 36
f 37 44 45
f 37 45 46
f 37 46 42
f 37 42 47
f 37 47 38
f 38 47 48
f 38 48 39
f 39 49 50
f 39 50 51
f 39 51 40
f 39 48 49
f 40 51 52
f 40 52 41
f 42 48 47
f 42 46 53
f 42 53 54
f 42 54 43
f 45 53 46
f 48 50 49

