# https://github.com/mikedh/trimesh
v -0.92702251 0.80632020 0.28524013
v -0.90290605 0.80632020 0.28556701
v -0.93633512 0.80632020 0.28549159
v -1.01380766 0.88032227 0.39095286
v -0.99911705 0.88032227 0.39095286
v -0.87471365 0.80632020 0.28664835
v -0.95954571 0.80632020 0.29102373
v -0.99407860 0.80632020 0.30389832
v -1.03546151 0.87497732 0.39605751
v -1.05139759 0.88440568 0.41770797
v -1.02462048 0.88842171 0.40797659
v -0.98980452 0.88891290 0.40669410
v -0.87471365 0.90469756 0.51298525
v -0.87471365 0.80632020 0.54210404
v -1.09544125 0.80632020 0.35685530
v -1.09830014 0.81112589 0.36309141
v -1.07806157 0.84810773 0.39097807
v -1.09974373 0.84257007 0.39806916
v -1.07307976 0.87803018 0.42630786
v -1.06020070 0.88957740 0.43913218
v -1.02459218 0.90401376 0.44209934
v -0.99209719 0.90444717 0.44209934
v -0.87471365 0.90469756 0.54210404
v -0.89147059 0.90469756 0.51411681
v -1.10025324 0.80632020 0.54210404
v -1.12193530 0.80632020 0.37397955
v -1.11531184 0.82089140 0.38476707
v -1.12414316 0.83107102 0.40744857
v -1.11132072 0.84949452 0.41974482
v -1.12216175 0.85368388 0.44380927
v -1.09034620 0.87239626 0.43913218
v -1.07998637 0.88191137 0.44798346
v -1.05711537 0.89111833 0.47463794
v -1.02459218 0.89924656 0.47463794
v -0.94304350 0.90469756 0.54210404
v -1.08938380 0.81488184 0.54210404
v -1.07777852 0.84917667 0.52631249
v -1.10993373 0.80632020 0.53647137
v -1.12422807 0.80632020 0.37553860
v -1.12572828 0.80632020 0.37707244
v -1.13699390 0.81146294 0.39515220
v -1.13300288 0.84126025 0.43412815
v -1.13990940 0.84683640 0.45580382
v -1.12216175 0.85759387 0.47463794
v -1.09575261 0.87288744 0.47463794
v -1.07947687 0.88144908 0.47463794
v -1.07491963 0.87883922 0.49186282
v -0.95852669 0.89707001 0.54210404
v -1.06815454 0.82869227 0.54210404
v -1.13860733 0.84586372 0.49105813
v -1.05796454 0.83520261 0.54210404
v -1.12991754 0.80632020 0.52065467
v -1.14273998 0.80632020 0.40028195
v -1.14820300 0.80632020 0.41074260
v -1.14341932 0.81957198 0.41682787
v -1.14840114 0.83003088 0.44380927
v -1.15242057 0.82944344 0.47463794
v -1.13968295 0.84667276 0.47463794
v -1.16388433 0.80632020 0.47607127
v -1.16161986 0.80632020 0.48142732
v -1.14370238 0.82944344 0.49543352
v -1.14942015 0.80632020 0.50395793
v -1.13187064 0.80632020 0.51909567
v -1.16201615 0.80632020 0.44139528
v -1.16297854 0.80632020 0.44934137
f 1 2 6
f 1 6 14
f 1 14 25
f 1 25 38
f 1 38 52
f 1 52 63
f 1 63 62
f 1 62 60
f 1 60 59
f 1 59 65
f 1 65 64
f 1 64 54
f 1 54 53
f 1 53 40
f 1 40 39
f 1 39 26
f 1 26 15
f 1 15 8
f 1 8 7
f 1 7 3
f 1 3 4
f 1 4 5
f 1 5 2
f 2 5 6
f 3 7 4
f 4 7 8
f 4 8 9
f 4 9 10
f 4 10 11
f 4 11 12
f 4 12 5
f 5 12 6
f 6 13 23
f 6 23 14
f 6 12 13
f 8 15 16
f 8 16 9
f 9 16 17
f 9 17 18
f 9 18 10
f 10 19 20
f 10 20 21
f 10 21 11
f 10 18 19
f 11 21 12
f 12 22 13
f 12 21 22
f 13 22 24
f 13 24 35
f 13 35 23
f 14 23 35
f 14 35 48
f 14 48 51
f 14 51 49
f 14 49 36
f 14 36 25
f 15 26 16
f 16 18 17
f 16 26 27
f 16 27 18
f 18 27 28
f 18 28 29
f 18 29 19
f 19 29 30
f 19 30 31
f 19 31 32
f 19 32 20
f 20 32 21
f 21 32 33
f 21 33 34
f 21 34 35
f 21 35 22
f 22 35 24
f 25 36 37
f 25 37 38
f 26 39 27
f 27 39 40
f 27 40 41
f 27 41 28
f 28 41 42
f 28 42 29
f 29 42 30
f 30 42 43
f 30 43 31
f 31 43 32
f 32 43 44
f 32 44 45
f 32 45 46
f 32 46 33
f 33 47 35
f 33 35 34
f 33 46 47
f 35 47 48
f 36 49 37
f 37 47 50
f 37 50 38
f 37 49 51
f 37 51 48
f 37 48 47
f 38 50 52
f 40 53 41
f 41 53 54
f 41 54 55
f 41 55 42
f 42 55 43
f 43 55 56
f 43 56 57
f 43 57 58
f 43 58 44
f 44 58 50
f 44 50 45
f 45 50 46
f 46 50 47
f 50 58 57
f 50 57 59
f 50 59 60
f 50 60 61
f 50 61 62
f 50 62 63
f 50 63 52
f 54 64 55
f 55 64 56
f 56 64 65
f 56 65 57
f 57 65 59
f 60 62 61

