# https://github.com/mikedh/trimesh
v -0.37080738 0.98137860 1.71283261
v -0.37080738 1.08292485 1.62240901
v -0.42422656 1.03984107 1.69350880
v -0.44588032 1.04764465 1.69881915
v -0.47167738 1.05358926 1.70427703
v -0.47029631 1.02519814 1.72109317
v -0.47093755 0.98137860 1.74439971
v -0.37080738 0.98137860 0.39615871
v -0.43685381 1.08292485 1.65397615
v -0.47167738 1.06985260 1.68952603
v -0.37080738 1.08292485 0.44218189
v -0.49402172 1.07272545 1.69336126
v -0.54344557 1.04567633 1.73156636
v -0.50418274 1.03677919 1.72478091
v -0.50581047 0.98137860 1.75531548
v -0.45056624 0.98137860 0.29349177
v -0.37080738 1.04748558 0.42256301
v -0.44405528 1.08292485 1.65707383
v -0.45909947 1.08292485 1.66312173
v -0.37080738 1.08064836 0.44085427
v -0.45194735 0.98137860 0.29201676
v -0.45061553 1.01453150 0.32343642
v -0.50418274 1.01341817 0.29127917
v -0.53673734 1.03668972 0.30189996
v -0.53673734 1.04633241 0.31812597
v -0.41209257 1.08292485 0.42949598
v -0.51572482 1.07375939 1.69483636
v -0.56924269 1.04798258 1.73274643
v -0.47187470 1.08292485 1.66577690
v -0.49535350 1.08292485 1.67020222
v -0.53673734 0.99592217 1.75443039
v -0.51399847 0.98137860 1.75708556
v -0.37080738 1.06374892 0.43111862
v -0.37080738 1.06211852 0.43023354
v -0.46620234 1.00200598 0.30175242
v -0.54137392 0.98137860 0.25572929
v -0.54324825 0.98639881 0.25720439
v -0.53412312 0.99517662 0.26679259
v -0.53673734 1.02043636 0.28331369
v -0.56924269 1.03548692 0.30293253
v -0.56924269 1.04573595 0.31930609
v -0.53673734 1.05599497 0.34467779
v -0.49037168 1.07384886 0.39247100
v -0.48583373 1.07384886 0.39247100
v -0.43951737 1.08292485 0.42212058
v -0.53673734 1.07400784 1.69542642
v -0.58917003 1.04553713 1.73009126
v -0.56924269 1.02460168 1.74366216
v -0.56845348 1.06539909 1.70781725
v -0.51976950 1.08292485 1.66105662
v -0.55705936 1.07383888 1.69527894
v -0.53673734 0.98137860 1.76018330
v -0.56973591 0.98137860 0.25322160
v -0.56924269 0.98647830 0.25631935
v -0.56924269 1.00274164 0.26826760
v -0.56924269 1.01923356 0.28464125
v -0.59395459 1.01348777 0.29142671
v -0.58798623 1.04254495 0.32505895
v -0.66478558 1.08292485 0.44881979
v -0.65654825 1.08292485 0.44513204
v -0.63425330 1.08292485 0.43613394
v -0.47276255 1.08292485 0.42389066
v -0.70192747 0.98137860 1.64748568
v -0.68856034 0.98137860 1.66267921
v -0.59252418 1.02460168 1.73348398
v -0.57121566 0.98137860 1.75369284
v -0.59405322 1.05165080 1.71061996
v -0.87471365 1.08292485 1.20038302
v -0.55789788 0.98137860 1.75900323
v -0.55335993 0.98137860 1.75959324
v -0.55957494 1.07568787 1.67802024
v -0.70676132 1.08292485 1.42518818
v -0.59454649 0.98137860 0.25882702
v -0.60194526 0.98137860 0.26118717
v -0.62216861 0.98137860 0.27166042
v -0.67134586 1.08292485 0.45339265
v -0.84368805 0.98137860 1.34391019
v -0.87471365 1.07433587 1.20702097
v -0.59360930 0.98137860 1.73746677
v -0.87471365 1.08292485 0.67451003
v -0.71420943 1.08292485 1.41545252
v -0.87471365 0.98137860 0.56535266
v -0.82982770 1.08292485 0.60311525
v -0.81419164 1.08292485 0.58806920
v -0.70370319 1.08292485 0.48230457
v -0.87471365 1.07388860 1.20731599
v -0.87471365 1.03089420 1.23327774
v -0.87471365 0.99094180 1.25702684
v -0.87471365 0.98137860 1.26056708
v -0.87387513 1.08292485 0.66978969
v -0.85804171 1.08292485 0.63645247
v -0.85562476 1.08292485 0.63350227
f 1 2 3
f 1 3 4
f 1 4 5
f 1 5 6
f 1 6 7
f 1 7 15
f 1 15 32
f 1 32 52
f 1 52 70
f 1 70 69
f 1 69 66
f 1 66 79
f 1 79 64
f 1 64 63
f 1 63 77
f 1 77 89
f 1 89 82
f 1 82 75
f 1 75 74
f 1 74 73
f 1 73 53
f 1 53 36
f 1 36 21
f 1 21 16
f 1 16 8
f 1 8 17
f 1 17 34
f 1 34 33
f 1 33 20
f 1 20 11
f 1 11 2
f 2 9 10
f 2 10 4
f 2 4 3
f 2 11 26
f 2 26 45
f 2 45 62
f 2 62 61
f 2 61 60
f 2 60 59
f 2 59 76
f 2 76 85
f 2 85 84
f 2 84 83
f 2 83 92
f 2 92 91
f 2 91 90
f 2 90 80
f 2 80 68
f 2 68 81
f 2 81 72
f 2 72 50
f 2 50 30
f 2 30 29
f 2 29 19
f 2 19 18
f 2 18 9
f 4 10 5
f 5 10 12
f 5 12 13
f 5 13 14
f 5 14 6
f 6 14 13
f 6 13 15
f 6 15 7
f 8 16 17
f 9 18 10
f 10 18 19
f 10 19 12
f 11 20 16
f 11 16 21
f 11 21 22
f 11 22 23
f 11 23 24
f 11 24 25
f 11 25 26
f 12 27 28
f 12 28 13
f 12 19 29
f 12 29 30
f 12 30 27
f 13 28 31
f 13 31 32
f 13 32 15
f 16 20 33
f 16 33 34
f 16 34 17
f 21 23 35
f 21 35 22
f 21 36 37
f 21 37 23
f 22 35 23
f 23 37 38
f 23 38 39
f 23 39 24
f 24 39 40
f 24 40 41
f 24 41 25
f 25 41 42
f 25 42 43
f 25 43 44
f 25 44 45
f 25 45 26
f 27 46 28
f 27 30 46
f 28 47 48
f 28 48 31
f 28 46 49
f 28 49 47
f 30 50 51
f 30 51 46
f 31 48 52
f 31 52 32
f 36 53 37
f 37 53 54
f 37 54 55
f 37 55 39
f 37 39 38
f 39 55 56
f 39 56 40
f 40 56 57
f 40 57 58
f 40 58 41
f 41 58 59
f 41 59 60
f 41 60 61
f 41 61 42
f 42 61 43
f 43 61 62
f 43 62 45
f 43 45 44
f 46 51 49
f 47 63 64
f 47 64 65
f 47 65 66
f 47 66 48
f 47 49 67
f 47 67 68
f 47 68 63
f 48 66 69
f 48 69 70
f 48 70 52
f 49 51 68
f 49 68 67
f 50 71 51
f 50 72 71
f 51 71 68
f 53 73 54
f 54 73 55
f 55 73 74
f 55 74 56
f 56 74 75
f 56 75 57
f 57 75 58
f 58 75 76
f 58 76 59
f 63 68 78
f 63 78 77
f 64 79 65
f 65 79 66
f 68 80 82
f 68 82 89
f 68 89 88
f 68 88 87
f 68 87 86
f 68 86 78
f 68 71 81
f 71 72 81
f 75 82 83
f 75 83 84
f 75 84 85
f 75 85 76
f 77 78 86
f 77 86 87
f 77 87 88
f 77 88 89
f 80 90 82
f 82 90 91
f 82 91 92
f 82 92 83

