# https://github.com/mikedh/trimesh
v 0.50515982 0.75025947 1.74559369
v 0.50515982 0.82617344 1.67795844
v 0.49259869 0.85944761 1.67645959
v 0.48945839 0.88056840 1.66446888
v 0.48860728 0.84693450 1.69482042
v 0.40047374 0.75025947 1.93819491
v 0.50515982 0.75025947 0.13939673
v 0.50515982 0.88149338 1.58484287
v 0.48787355 0.88149338 1.66540563
v 0.39028981 0.75025947 1.95580636
v 0.39249095 0.75025947 1.95243399
v 0.47211342 0.75025947 0.14988860
v 0.50515982 0.76247711 0.14539204
v 0.50515982 0.88149338 0.27672813
v 0.36038369 0.88149338 1.82840473
v 0.35959130 0.78190203 1.95599374
v 0.37185896 0.76187328 1.96086496
v 0.37256330 0.75025947 1.96742241
v 0.45453366 0.75025947 0.15682071
v 0.46239905 0.77624930 0.16881153
v 0.47258297 0.76499516 0.15831957
v 0.48408760 0.78249301 0.16450234
v 0.50515982 0.76309378 0.14576680
v 0.50515982 0.82215227 0.19054467
v 0.45206839 0.88149338 0.29583843
v 0.33247327 0.88149338 1.85482186
v 0.20536497 0.87284721 1.97810165
v 0.22913725 0.84738409 1.98821885
v 0.29769532 0.78417599 1.99027974
v 0.30873035 0.76404445 1.99702448
v 0.29423220 0.75025947 2.01426117
v 0.30999233 0.75025947 2.00489340
v 0.44839983 0.75025947 0.15981842
v 0.44974988 0.75456326 0.16131727
v 0.41943285 0.78322527 0.19522860
v 0.43909633 0.78801729 0.19017001
v 0.48276692 0.81675642 0.19504123
v 0.50416194 0.82189529 0.19054467
v 0.50416194 0.80249606 0.17424478
v 0.50515982 0.80266308 0.17405741
v 0.50515982 0.78639853 0.16112988
v 0.42001986 0.88149338 0.31494864
v 0.20536497 0.88149338 1.96404994
v 0.20536497 0.85660840 1.99365211
v 0.21144010 0.85453994 1.99234064
v 0.28786358 0.75025947 2.01744625
v 0.20536497 0.75025947 0.32169347
v 0.20536497 0.75517993 0.32244281
v 0.20536497 0.77466906 0.34042902
v 0.20536497 0.88149338 0.44590996
v 0.20536497 0.75025947 2.05304373
f 1 2 3
f 1 3 4
f 1 4 5
f 1 5 6
f 1 6 11
f 1 11 10
f 1 10 18
f 1 18 32
f 1 32 31
f 1 31 46
f 1 46 51
f 1 51 47
f 1 47 33
f 1 33 19
f 1 19 12
f 1 12 7
f 1 7 13
f 1 13 23
f 1 23 41
f 1 41 40
f 1 40 24
f 1 24 14
f 1 14 8
f 1 8 2
f 2 8 4
f 2 4 3
f 4 8 9
f 4 9 10
f 4 10 11
f 4 11 6
f 4 6 5
f 7 12 13
f 8 14 25
f 8 25 42
f 8 42 50
f 8 50 43
f 8 43 26
f 8 26 15
f 8 15 9
f 9 15 16
f 9 16 10
f 10 16 17
f 10 17 18
f 12 19 20
f 12 20 21
f 12 21 13
f 13 21 22
f 13 22 23
f 14 24 25
f 15 26 16
f 16 27 28
f 16 28 29
f 16 29 30
f 16 30 31
f 16 31 32
f 16 32 17
f 16 26 27
f 17 32 18
f 19 33 34
f 19 34 20
f 20 22 21
f 20 34 35
f 20 35 36
f 20 36 37
f 20 37 22
f 22 37 38
f 22 38 39
f 22 39 40
f 22 40 41
f 22 41 23
f 24 40 38
f 24 38 25
f 25 38 37
f 25 37 42
f 26 43 27
f 27 43 50
f 27 50 49
f 27 49 48
f 27 48 47
f 27 47 51
f 27 51 44
f 27 44 45
f 27 45 28
f 28 45 46
f 28 46 31
f 28 31 29
f 29 31 30
f 33 47 48
f 33 48 35
f 33 35 34
f 35 37 36
f 35 48 49
f 35 49 50
f 35 50 37
f 37 50 42
f 38 40 39
f 44 51 45
f 45 51 46

