# https://github.com/mikedh/trimesh
v -1.20360660 -1.24494396 1.32836513
v -1.18202991 -1.41491002 1.32836513
v -1.17404447 -1.40776561 1.45046003
v -1.16476850 -1.28484188 1.61307108
v -1.16920485 -1.24494396 1.60549870
v -0.79159235 -1.24494396 1.32836513
v -1.17501239 -1.44143257 1.32836513
v -1.17436718 -1.44068227 1.35287779
v -1.17347990 -1.43921425 1.38543123
v -1.17485109 -1.41791141 1.42001438
v -1.15391971 -1.34989233 1.61307108
v -1.15940464 -1.31736711 1.61307108
v -1.14169964 -1.53323386 1.50713581
v -1.14145759 -1.47128270 1.56865165
v -1.14383712 -1.44524949 1.57989313
v -1.15831574 -1.28484188 1.64558551
v -1.16827726 -1.24494396 1.61162686
v -1.16819660 -1.24941327 1.61002651
v -0.79159235 -1.24494396 1.71838186
v -0.79159235 -1.49809888 1.32836513
v -1.17356056 -1.44541264 1.32836513
v -1.14339344 -1.53594163 1.48301346
v -1.12939883 -1.55222048 1.48301346
v -1.11048395 -1.56425840 1.50612095
v -1.12359129 -1.54598951 1.51747954
v -1.13669864 -1.52279445 1.52879907
v -1.13484343 -1.49297698 1.55803471
v -1.13944109 -1.43295062 1.59769213
v -1.14617623 -1.34989233 1.63742761
v -1.14666024 -1.24494396 1.67064463
v -1.15763010 -1.24494396 1.65249430
v -1.16053387 -1.25231675 1.64558551
v -1.14916075 -1.31602956 1.64691263
v -1.14032837 -1.30431783 1.66311126
v -1.14387746 -1.28484188 1.66521903
v -1.16093713 -1.24494396 1.64558551
v -0.79691593 -1.24494396 1.71990412
v -0.79159235 -1.24784734 1.71709375
v -0.79235865 -1.49832717 1.32836513
v -0.79159235 -1.49950167 1.33078517
v -1.16851921 -1.45767885 1.32836513
v -1.14113498 -1.53294024 1.45046003
v -1.12730168 -1.54921919 1.45046003
v -1.11100829 -1.56461726 1.45046003
v -1.11314576 -1.56588957 1.48301346
v -1.11500097 -1.53705079 1.53812792
v -1.08963323 -1.57254463 1.48301346
v -1.08963323 -1.56608529 1.50904842
v -1.08963323 -1.55701608 1.52532514
v -1.11318609 -1.50034987 1.56701226
v -1.14178030 -1.37086888 1.63247044
v -1.14061065 -1.24494396 1.67333786
v -1.12213945 -1.24494396 1.67997349
v -1.12213945 -1.34989233 1.64621002
v -1.12213945 -1.32340235 1.65756862
v -0.88907061 -1.24494396 1.72333901
v -0.82143677 -1.24494396 1.72384644
v -0.79691593 -1.25231675 1.71662535
v -0.79159235 -1.28334128 1.70007542
v -0.79691593 -1.50021930 1.32949709
v -0.79691593 -1.49956691 1.32836513
v -0.79159235 -1.51111548 1.35283876
v -0.79691593 -1.51271399 1.35287779
v -1.15448428 -1.47996038 1.32836513
v -1.14589396 -1.50879916 1.38543123
v -1.13714232 -1.52736176 1.40963162
v -1.13347225 -1.52504553 1.38543123
v -1.10766083 -1.56256199 1.43070940
v -1.08963323 -1.57029364 1.45046003
v -1.08963323 -1.54076980 1.54164089
v -1.05708667 -1.57433895 1.45046003
v -1.05708667 -1.57626365 1.48301346
v -1.02458045 -1.57815578 1.48301346
v -1.05708667 -1.56755331 1.50951682
v -1.02458045 -1.56866247 1.50908746
v -1.05708667 -1.55623312 1.52575450
v -1.12213945 -1.37455533 1.63422693
v -1.12213945 -1.43751784 1.59976088
v -1.08963323 -1.51839037 1.55787858
v -1.08963323 -1.50211152 1.56787102
v -1.08963323 -1.47996038 1.58067379
v -1.08963323 -1.45686331 1.59335948
v -0.86196876 -1.25688397 1.72158255
v -0.86196876 -1.24494396 1.72708619
v -0.83107567 -1.24494396 1.72513454
v -0.82655876 -1.25091396 1.72185578
v -0.79885182 -1.28614686 1.70069993
v -0.79159235 -1.29505291 1.69445467
v -0.79885182 -1.49982786 1.32836513
v -0.94912247 -1.51812941 1.32836513
v -0.79159235 -1.52631774 1.38262088
v -0.79691593 -1.52498020 1.37715626
v -0.82946253 -1.52719862 1.37258942
v -1.14065097 -1.49894709 1.32836513
v -1.13548875 -1.50331849 1.32836513
v -1.08963323 -1.52237044 1.32836513
v -1.08963323 -1.52736176 1.34023115
v -1.08963323 -1.56383429 1.42782096
v -1.12217979 -1.51131120 1.32836513
v -1.11141156 -1.53108078 1.36247989
v -1.05708667 -1.53995427 1.54066508
v -1.02458045 -1.56706397 1.42192700
v -1.02458045 -1.57655728 1.45046003
v -1.05708667 -1.56562861 1.42493253
v -0.99207422 -1.57482829 1.45046003
v -0.99207422 -1.57606793 1.48301346
v -0.99207422 -1.56742283 1.50682355
v -1.02458045 -1.55375374 1.52532514
v -0.86196876 -1.28484188 1.70749168
v -0.82946253 -1.30346972 1.69589890
v -0.86196876 -1.30448098 1.69656244
v -0.82946253 -1.28484188 1.70589129
v -0.84406203 -1.24494396 1.72611037
v -0.81099124 -1.30177331 1.69480597
v -0.79159235 -1.29828259 1.69273723
v -0.92702144 -1.53277719 1.36150407
v -0.95956799 -1.54863194 1.38543123
v -0.95956799 -1.51914067 1.32836513
v -0.79159235 -1.53173327 1.39472107
v -0.79691593 -1.53228785 1.39339395
v -0.82946253 -1.54797945 1.41794564
v -0.86196876 -1.55192685 1.41794564
v -0.95956799 -1.55920183 1.40807031
v -1.10907244 -1.51600890 1.32836513
v -1.05708667 -1.52279445 1.32836513
v -0.99207422 -1.56014785 1.40440121
v -0.99207422 -1.56618319 1.42063891
v -0.95956799 -1.56412792 1.42434702
v -0.82946253 -1.55580901 1.45046003
v -0.86467080 -1.56005004 1.45264587
v -0.95956799 -1.57169643 1.48301346
v -0.90951807 -1.56168121 1.49975858
v -0.92702144 -1.56308400 1.50163218
v -0.95956799 -1.56526975 1.50459866
v -0.99207422 -1.55068721 1.52306124
v -0.79739989 -1.31720396 1.67849024
v -0.79159235 -1.30337182 1.68852170
v -0.95956799 -1.54749011 1.52087538
v -0.99207422 -1.52122861 1.32836513
v -0.98025741 -1.52047822 1.32836513
v -0.79159235 -1.54125915 1.41794564
v -0.79691593 -1.54262926 1.41794564
v -1.01159409 -1.52178319 1.32836513
v -0.79691593 -1.54967586 1.45046003
v -0.89701572 -1.56275770 1.47989085
v -0.92702144 -1.56729235 1.48301346
v -0.79159235 -1.54726182 1.45455850
v -0.79159235 -1.53688764 1.48254508
v -0.79159235 -1.52540430 1.49671401
v -0.81175748 -1.52915598 1.49960247
v -0.79159235 -1.54820784 1.45046003
f 1 2 3
f 1 3 4
f 1 4 5
f 1 5 17
f 1 17 36
f 1 36 31
f 1 31 30
f 1 30 52
f 1 52 53
f 1 53 56
f 1 56 84
f 1 84 113
f 1 113 85
f 1 85 57
f 1 57 37
f 1 37 19
f 1 19 6
f 1 6 20
f 1 20 39
f 1 39 61
f 1 61 89
f 1 89 90
f 1 90 118
f 1 118 140
f 1 140 139
f 1 139 143
f 1 143 125
f 1 125 96
f 1 96 124
f 1 124 99
f 1 99 95
f 1 95 94
f 1 94 64
f 1 64 41
f 1 41 21
f 1 21 7
f 1 7 2
f 2 7 8
f 2 8 9
f 2 9 10
f 2 10 3
f 3 11 12
f 3 12 4
f 3 10 13
f 3 13 14
f 3 14 15
f 3 15 11
f 4 12 16
f 4 16 17
f 4 17 18
f 4 18 5
f 5 18 17
f 6 19 38
f 6 38 59
f 6 59 88
f 6 88 115
f 6 115 137
f 6 137 149
f 6 149 148
f 6 148 147
f 6 147 151
f 6 151 141
f 6 141 119
f 6 119 91
f 6 91 62
f 6 62 40
f 6 40 20
f 7 21 22
f 7 22 8
f 8 22 9
f 9 22 10
f 10 22 13
f 11 16 12
f 11 15 16
f 13 22 23
f 13 23 24
f 13 24 25
f 13 25 26
f 13 26 14
f 14 26 27
f 14 27 28
f 14 28 29
f 14 29 15
f 15 29 16
f 16 30 31
f 16 31 32
f 16 32 17
f 16 29 33
f 16 33 34
f 16 34 35
f 16 35 30
f 17 32 36
f 19 37 38
f 20 40 39
f 21 41 22
f 22 42 43
f 22 43 23
f 22 41 42
f 23 43 44
f 23 44 45
f 23 45 24
f 24 46 25
f 24 45 47
f 24 47 48
f 24 48 49
f 24 49 46
f 25 46 26
f 26 46 27
f 27 46 50
f 27 50 28
f 28 51 29
f 28 50 51
f 29 51 34
f 29 34 33
f 30 35 52
f 31 36 32
f 34 53 52
f 34 52 35
f 34 51 54
f 34 54 55
f 34 55 56
f 34 56 53
f 37 57 58
f 37 58 38
f 38 58 59
f 39 40 60
f 39 60 61
f 40 62 63
f 40 63 60
f 41 64 65
f 41 65 42
f 42 66 43
f 42 65 66
f 43 66 67
f 43 67 68
f 43 68 44
f 44 68 69
f 44 69 47
f 44 47 45
f 46 49 70
f 46 70 50
f 47 69 71
f 47 71 72
f 47 72 48
f 48 72 73
f 48 73 74
f 48 74 49
f 49 74 75
f 49 75 76
f 49 76 70
f 50 77 78
f 50 78 51
f 50 70 79
f 50 79 80
f 50 80 81
f 50 81 82
f 50 82 77
f 51 78 77
f 51 77 54
f 54 77 83
f 54 83 84
f 54 84 55
f 55 84 56
f 57 85 86
f 57 86 58
f 58 86 87
f 58 87 88
f 58 88 59
f 60 89 61
f 60 63 90
f 60 90 89
f 62 91 63
f 63 92 93
f 63 93 90
f 63 91 92
f 64 94 65
f 65 94 66
f 66 94 67
f 67 94 95
f 67 95 68
f 68 96 97
f 68 97 98
f 68 98 71
f 68 71 69
f 68 95 99
f 68 99 100
f 68 100 96
f 70 76 101
f 70 101 79
f 71 102 103
f 71 103 72
f 71 98 104
f 71 104 102
f 72 103 73
f 73 103 105
f 73 105 106
f 73 106 107
f 73 107 75
f 73 75 74
f 75 107 108
f 75 108 76
f 76 108 101
f 77 82 109
f 77 109 83
f 79 101 110
f 79 110 111
f 79 111 80
f 80 111 81
f 81 111 109
f 81 109 82
f 83 109 112
f 83 112 113
f 83 113 84
f 85 113 112
f 85 112 86
f 86 112 87
f 87 112 114
f 87 114 115
f 87 115 88
f 90 116 117
f 90 117 118
f 90 93 116
f 91 119 120
f 91 120 92
f 92 120 121
f 92 121 93
f 93 121 122
f 93 122 123
f 93 123 117
f 93 117 116
f 96 100 124
f 96 125 126
f 96 126 102
f 96 102 97
f 97 102 104
f 97 104 98
f 99 124 100
f 101 108 114
f 101 114 110
f 102 126 127
f 102 127 103
f 103 127 105
f 105 127 128
f 105 128 122
f 105 122 129
f 105 129 130
f 105 130 106
f 106 130 129
f 106 129 131
f 106 131 132
f 106 132 133
f 106 133 134
f 106 134 107
f 107 134 108
f 108 134 133
f 108 133 135
f 108 135 114
f 109 111 110
f 109 110 112
f 110 114 112
f 114 136 137
f 114 137 115
f 114 135 138
f 114 138 132
f 114 132 136
f 117 123 126
f 117 126 139
f 117 139 140
f 117 140 118
f 119 141 142
f 119 142 120
f 120 142 121
f 121 142 129
f 121 129 122
f 122 128 123
f 123 128 127
f 123 127 126
f 125 143 126
f 126 143 139
f 129 142 144
f 129 144 132
f 129 132 145
f 129 145 146
f 129 146 131
f 131 146 132
f 132 138 133
f 132 146 145
f 132 144 147
f 132 147 148
f 132 148 149
f 132 149 150
f 132 150 136
f 133 138 135
f 136 150 149
f 136 149 137
f 141 151 144
f 141 144 142
f 144 151 147

