# https://github.com/mikedh/trimesh
v 0.20527922 0.80632020 2.00971552
v 0.20527922 0.82953340 2.00421091
v 0.02385284 0.80632020 2.11838722
v 0.20527922 0.80632020 0.37626612
v 0.20527922 0.85009011 1.99622033
v 0.00975379 0.80632020 2.12602262
v 0.20527922 0.85661538 1.99355682
v -0.01680878 0.80632020 0.31269687
v -0.03023106 0.84669525 0.32761249
v 0.07663963 0.91891406 0.41941524
v 0.20527922 0.91891406 0.47019975
v 0.00512932 0.81577735 2.11980775
v -0.00643189 0.80632020 2.12655539
v 0.19366163 0.87748084 1.98609896
v 0.20527922 0.87284033 1.97810839
v -0.04760109 0.80632020 0.31251928
v -0.03451717 0.84669525 0.32761249
v -0.37075100 0.91891406 0.35921963
v -0.24391607 0.91494591 0.35850946
v -0.24391607 0.91891406 0.36064014
v -0.23162171 0.91891406 0.36206067
v -0.10540714 0.91891406 0.38230360
v 0.04945669 0.91891406 0.41089199
v 0.05633702 0.91891406 0.41302277
v 0.20527922 0.91891406 1.92093146
v -0.00682667 0.84562603 2.08447162
v -0.02853918 0.84574730 2.08464921
v -0.01032323 0.81577735 2.11980775
v 0.17194911 0.88231968 1.99071572
v 0.16506879 0.91209119 1.95680021
v -0.01387618 0.80632020 2.12655539
v -0.21222144 0.80632020 0.31926673
v -0.37075100 0.89643934 0.34980851
v -0.37075100 0.91891406 1.78136289
v 0.17584046 0.91891406 1.93993125
v -0.03259970 0.84574730 2.08464921
v -0.03197934 0.81294464 2.11696670
v 0.15852685 0.91209119 1.95680021
v -0.02571937 0.80632020 2.12371434
v -0.23190370 0.80632020 0.32015468
v -0.25372898 0.80632020 0.32122003
v -0.37075100 0.86197225 0.34270589
v -0.37075100 0.90879541 1.79059645
v -0.15481016 0.80632020 2.05410763
v -0.14635073 0.80632020 2.06014490
v -0.34447041 0.91891406 1.79610106
v 0.17516371 0.91891406 1.93993125
v -0.03446077 0.91891406 1.92164172
v -0.04517604 0.91891406 1.92004361
v -0.08245390 0.91891406 1.90938952
v -0.28767949 0.91891406 1.82291384
v -0.30081978 0.91891406 1.81687651
v 0.14713482 0.91891406 1.93851068
v -0.26692571 0.80632020 0.32459385
v -0.37075100 0.85906238 0.34288329
v -0.37075100 0.89529305 1.79716645
v -0.17595870 0.80632020 2.03635071
v -0.37075100 0.83024977 0.35105145
v -0.37075100 0.80632020 0.36738778
v -0.37075100 0.80632020 1.83569873
f 1 2 3
f 1 3 6
f 1 6 13
f 1 13 31
f 1 31 39
f 1 39 45
f 1 45 44
f 1 44 57
f 1 57 60
f 1 60 59
f 1 59 54
f 1 54 41
f 1 41 40
f 1 40 32
f 1 32 16
f 1 16 8
f 1 8 4
f 1 4 11
f 1 11 25
f 1 25 15
f 1 15 7
f 1 7 5
f 1 5 2
f 2 5 3
f 3 5 7
f 3 7 6
f 4 8 9
f 4 9 10
f 4 10 11
f 6 12 13
f 6 7 14
f 6 14 12
f 7 15 14
f 8 16 9
f 9 16 17
f 9 17 18
f 9 18 19
f 9 19 20
f 9 20 21
f 9 21 22
f 9 22 23
f 9 23 24
f 9 24 10
f 10 24 23
f 10 23 22
f 10 22 21
f 10 21 20
f 10 20 18
f 10 18 34
f 10 34 46
f 10 46 52
f 10 52 51
f 10 51 50
f 10 50 49
f 10 49 48
f 10 48 53
f 10 53 47
f 10 47 35
f 10 35 25
f 10 25 11
f 12 26 27
f 12 27 36
f 12 36 28
f 12 28 31
f 12 31 13
f 12 14 29
f 12 29 30
f 12 30 26
f 14 30 29
f 14 15 25
f 14 25 30
f 16 32 33
f 16 33 17
f 17 33 18
f 18 20 19
f 18 33 42
f 18 42 55
f 18 55 58
f 18 58 59
f 18 59 60
f 18 60 56
f 18 56 43
f 18 43 34
f 25 35 30
f 26 30 27
f 27 30 38
f 27 38 36
f 28 37 31
f 28 36 37
f 30 35 47
f 30 47 38
f 31 37 39
f 32 40 33
f 33 40 41
f 33 41 42
f 34 43 44
f 34 44 45
f 34 45 36
f 34 36 46
f 36 45 37
f 36 38 48
f 36 48 49
f 36 49 50
f 36 50 51
f 36 51 52
f 36 52 46
f 37 45 39
f 38 47 53
f 38 53 48
f 41 54 55
f 41 55 42
f 43 56 57
f 43 57 44
f 54 58 55
f 54 59 58
f 56 60 57

