# https://github.com/mikedh/trimesh
v -0.37229207 0.04201441 0.94190516
v -0.73226699 0.04201441 0.94190516
v -0.37229207 -0.12638899 0.94190516
v -0.37229207 0.04201441 0.12730220
v -0.73226699 -0.12638899 0.94190516
v -0.73226699 0.04201441 0.15360597
v -0.37229207 -0.12638899 0.16165083
v -0.45285033 0.04201441 0.03302454
v -0.73226699 -0.12638899 0.08093174
v -0.60043478 0.04201441 0.04875249
v -0.73226699 -0.08468376 0.09223053
v -0.45764293 -0.12638899 0.10190238
v -0.45517616 0.03220626 0.03528426
v -0.46490236 0.04201441 0.02615475
v -0.73226699 -0.11752045 0.08093174
v -0.58330821 0.04201441 0.03591697
v -0.56840176 0.04201441 0.03148789
v -0.53679162 0.04201441 0.02425653
v -0.50419476 0.04201441 0.01847156
v -0.53608683 -0.12638899 0.07370038
v -0.73226699 -0.11470163 0.08138368
v -0.46222411 -0.12638899 0.09928109
v -0.47420566 -0.12638899 0.09286323
v -0.47166842 0.04201441 0.02317188
v -0.50422999 -0.12638899 0.07921420
v -0.49411620 0.04201441 0.01973709
v -0.52438719 -0.12638899 0.07424276
f 1 2 5
f 1 5 3
f 1 3 7
f 1 7 4
f 1 4 8
f 1 8 14
f 1 14 24
f 1 24 26
f 1 26 19
f 1 19 18
f 1 18 17
f 1 17 16
f 1 16 10
f 1 10 6
f 1 6 2
f 2 6 11
f 2 11 21
f 2 21 15
f 2 15 9
f 2 9 5
f 3 5 9
f 3 9 20
f 3 20 27
f 3 27 25
f 3 25 23
f 3 23 22
f 3 22 12
f 3 12 7
f 4 7 8
f 6 10 11
f 7 12 13
f 7 13 8
f 8 13 14
f 9 15 16
f 9 16 17
f 9 17 18
f 9 18 19
f 9 19 20
f 10 16 11
f 11 16 21
f 12 22 13
f 13 22 23
f 13 23 14
f 14 23 25
f 14 25 24
f 15 21 16
f 19 26 27
f 19 27 20
f 24 25 27
f 24 27 26

