# https://github.com/mikedh/trimesh
v -0.79347367 -0.82647918 2.07348256
v -0.82947088 -0.82647918 2.07889828
v -0.79347367 -0.82750905 2.07314406
v -0.79347367 -0.82647918 0.46739636
v -0.84902486 -0.82647918 2.08059062
v -0.79347367 -0.86331697 2.05571232
v -0.79347367 -0.82816221 0.46773487
v -0.89746551 -0.82647918 0.40680848
v -0.86198679 -0.82647918 2.08075987
v -0.79354778 -0.89432706 2.03574205
v -0.79347367 -0.91111949 2.00324802
v -0.79347367 -0.95478984 0.53221523
v -0.92701882 -0.82647918 0.39699257
v -0.86198679 -0.83318611 2.07619042
v -0.89191040 -0.82647918 2.06891311
v -0.88502210 -0.85046836 2.05706635
v -0.79347367 -0.95478984 1.92082822
v -0.86198679 -0.85331940 2.05994327
v -1.08967269 -0.95478984 1.89341137
v -1.08641373 -0.95478984 1.89425755
v -1.05930471 -0.95478984 1.90051944
v -1.05323107 -0.95478984 1.90136564
v -1.02508520 -0.95478984 1.90491967
v -1.18722063 -0.95478984 0.46282691
v -1.18722063 -0.94715347 0.45470339
v -1.12218870 -0.87572607 0.39445396
v -1.15477869 -0.82647918 0.35214413
v -0.89294734 -0.82647918 2.06840536
v -1.17344394 -0.95478984 1.86396363
v -1.15470462 -0.95478984 1.87259486
v -1.14981614 -0.95478984 1.87445652
v -1.12174424 -0.95478984 1.88427242
v -1.11804083 -0.95478984 1.88545710
v -1.21973655 -0.95478984 0.45910362
v -1.18722063 -0.93032344 0.43845637
v -1.14137238 -0.87794914 0.39360790
v -1.17611042 -0.82647918 0.35468255
v -1.16300026 -0.87895390 0.39293089
v -1.17233294 -0.87895390 0.39293089
v -1.09663514 -0.82647918 1.91795111
v -1.09989408 -0.82944325 1.91710494
v -1.14448321 -0.86197313 1.89459605
v -1.14700157 -0.89447780 1.89510376
v -1.18322089 -0.92700758 1.86582527
v -1.17766577 -0.95478984 1.86159427
v -1.23077272 -0.95478984 0.46147298
v -1.21973655 -0.94892443 0.45368796
v -1.18722063 -0.91405845 0.42288629
v -1.18722063 -0.82647918 0.35772891
v -1.20781157 -0.91390781 0.42339395
v -1.09915348 -0.82647918 1.91608947
v -1.43060898 -0.82647918 1.66138354
v -1.16322254 -0.89447780 1.88308775
v -1.43164593 -0.84142533 1.66222971
v -1.43164593 -0.84641152 1.66222971
v -1.19951593 -0.92700758 1.85194756
v -1.46416185 -0.84628598 1.62990490
v -1.19536815 -0.95478984 1.84280861
v -1.23929064 -0.94676417 0.45605731
v -1.24736410 -0.95478984 0.46621169
v -1.19855304 -0.82647918 0.36331389
v -1.43942314 -0.82647918 1.65224454
v -1.46416185 -0.84359819 1.62990490
v -1.54778499 -0.82647918 1.28770193
v -1.46719871 -0.84989061 1.61298093
v -1.36957671 -0.94681439 1.63328973
v -1.35802201 -0.95478984 1.64107475
v -1.35239284 -0.95478984 1.64902902
v -1.27476937 -0.95478984 0.48550505
v -1.21825525 -0.82647918 0.37888402
v -1.44357092 -0.82647918 1.64733663
v -1.46201390 -0.82647918 1.62482769
v -1.46438413 -0.82647918 1.61839660
v -1.46756901 -0.83142775 1.61281168
v -1.47608693 -0.82944325 1.58048687
v -1.47179094 -0.85483919 1.58048687
v -1.47445741 -0.82647918 1.58387168
v -1.55008106 -0.82647918 1.25926963
v -1.50786215 -0.89147603 1.19038902
v -1.37290980 -0.94922591 1.61298093
v -1.36705835 -0.95478984 1.61298093
v -1.29106431 -0.95478984 0.50005968
v -1.23336513 -0.82647918 0.39750034
v -1.30869263 -0.95478984 0.51630668
v -1.32498757 -0.95478984 0.53339990
v -1.33839396 -0.95478984 0.54964696
v -1.46705059 -0.82647918 1.61027307
v -1.49253009 -0.90774092 1.19038902
v -1.51682444 -0.82647918 1.09510699
v -1.41786923 -0.95478984 0.70247056
v -1.53067519 -0.85184992 1.19986645
v -1.52423126 -0.86240014 1.18954283
v -1.41816548 -0.95478984 0.70720926
v -1.47623506 -0.91935871 1.19038902
v -1.42201701 -0.95478984 1.18886586
v -1.35572594 -0.95478984 0.57384825
v -1.24395693 -0.82647918 0.41307038
v -1.42675745 -0.95478984 1.12590863
v -1.41305472 -0.82647918 0.73479537
v -1.41379552 -0.82944325 0.73496456
v -1.41831360 -0.86197313 0.73496456
v -1.41772111 -0.92700758 0.70247056
v -1.41142530 -0.95478984 0.67471520
v -1.42549823 -0.95478984 1.15772573
v -1.35935529 -0.95478984 0.57943317
v -1.26047415 -0.82647918 0.43811788
v -1.40312966 -0.82647918 0.71347115
v -1.40290749 -0.82944325 0.71144025
v -1.40549978 -0.92831382 0.66777634
v -1.40964765 -0.95478984 0.66963798
v -1.37150246 -0.95478984 0.59872648
v -1.29973035 -0.82647918 0.50547534
v -1.37661321 -0.95478984 0.60735772
v -1.31669193 -0.82647918 0.53763089
v -1.39742642 -0.91835395 0.65559109
v -1.39913001 -0.94003214 0.65271401
v -1.40001873 -0.95478984 0.65068312
v -1.39350074 -0.95478984 0.63849785
f 1 2 3
f 1 3 6
f 1 6 11
f 1 11 17
f 1 17 12
f 1 12 7
f 1 7 4
f 1 4 8
f 1 8 13
f 1 13 27
f 1 27 37
f 1 37 49
f 1 49 61
f 1 61 70
f 1 70 83
f 1 83 97
f 1 97 106
f 1 106 112
f 1 112 114
f 1 114 107
f 1 107 99
f 1 99 89
f 1 89 78
f 1 78 64
f 1 64 77
f 1 77 87
f 1 87 73
f 1 73 72
f 1 72 71
f 1 71 62
f 1 62 52
f 1 52 51
f 1 51 40
f 1 40 28
f 1 28 15
f 1 15 9
f 1 9 5
f 1 5 2
f 2 5 6
f 2 6 3
f 4 7 8
f 5 9 10
f 5 10 6
f 6 10 11
f 7 12 8
f 8 12 13
f 9 14 10
f 9 15 16
f 9 16 14
f 10 17 11
f 10 14 18
f 10 18 16
f 10 16 19
f 10 19 20
f 10 20 21
f 10 21 22
f 10 22 23
f 10 23 17
f 12 24 25
f 12 25 26
f 12 26 13
f 12 17 23
f 12 23 22
f 12 22 21
f 12 21 20
f 12 20 19
f 12 19 33
f 12 33 32
f 12 32 31
f 12 31 30
f 12 30 29
f 12 29 45
f 12 45 58
f 12 58 68
f 12 68 67
f 12 67 81
f 12 81 95
f 12 95 104
f 12 104 98
f 12 98 93
f 12 93 90
f 12 90 103
f 12 103 110
f 12 110 117
f 12 117 118
f 12 118 113
f 12 113 111
f 12 111 105
f 12 105 96
f 12 96 86
f 12 86 85
f 12 85 84
f 12 84 82
f 12 82 69
f 12 69 60
f 12 60 46
f 12 46 34
f 12 34 24
f 13 26 27
f 14 16 18
f 15 28 29
f 15 29 30
f 15 30 16
f 16 30 31
f 16 31 32
f 16 32 33
f 16 33 19
f 24 34 25
f 25 34 35
f 25 35 36
f 25 36 26
f 26 36 27
f 27 36 38
f 27 38 39
f 27 39 37
f 28 40 41
f 28 41 42
f 28 42 43
f 28 43 44
f 28 44 45
f 28 45 29
f 34 46 47
f 34 47 48
f 34 48 35
f 35 48 36
f 36 48 38
f 37 39 50
f 37 50 49
f 38 48 39
f 39 48 50
f 40 51 41
f 41 51 52
f 41 52 42
f 42 53 43
f 42 52 54
f 42 54 53
f 43 53 44
f 44 53 55
f 44 55 56
f 44 56 45
f 45 56 55
f 45 55 57
f 45 57 58
f 46 59 47
f 46 60 59
f 47 59 50
f 47 50 48
f 49 50 59
f 49 59 61
f 52 62 63
f 52 63 54
f 53 54 55
f 54 63 57
f 54 57 55
f 57 63 64
f 57 64 65
f 57 65 66
f 57 66 67
f 57 67 68
f 57 68 58
f 59 60 69
f 59 69 61
f 61 69 70
f 62 71 63
f 63 71 72
f 63 72 73
f 63 73 74
f 63 74 75
f 63 75 64
f 64 76 65
f 64 75 77
f 64 78 79
f 64 79 76
f 65 76 66
f 66 76 80
f 66 80 81
f 66 81 67
f 69 82 70
f 70 82 84
f 70 84 85
f 70 85 86
f 70 86 83
f 73 87 74
f 74 87 77
f 74 77 75
f 76 79 88
f 76 88 80
f 78 89 90
f 78 90 91
f 78 91 92
f 78 92 79
f 79 92 90
f 79 90 93
f 79 93 88
f 80 88 81
f 81 88 94
f 81 94 95
f 83 86 96
f 83 96 97
f 88 93 98
f 88 98 94
f 89 99 100
f 89 100 101
f 89 101 102
f 89 102 103
f 89 103 90
f 90 92 91
f 94 98 104
f 94 104 95
f 96 105 106
f 96 106 97
f 99 107 108
f 99 108 109
f 99 109 100
f 100 109 102
f 100 102 101
f 102 109 110
f 102 110 103
f 105 111 106
f 106 111 113
f 106 113 112
f 107 114 108
f 108 115 109
f 108 114 115
f 109 115 116
f 109 116 117
f 109 117 110
f 112 113 115
f 112 115 114
f 113 118 116
f 113 116 115
f 116 118 117

