# https://github.com/mikedh/trimesh
v -1.13308266 -0.60326755 1.96392654
v -1.13308266 -0.59875868 1.96290841
v -1.14693079 -0.58212969 1.95544208
v -1.15655167 -0.60266775 1.95323606
v -1.18725088 -0.63427114 1.93558835
v -1.15471499 -0.63427114 1.94424256
v -1.13308266 -0.63578100 1.94797573
v -1.13308266 -0.58043367 1.95747834
v -1.15655167 -0.57046455 1.94627883
v -1.27818254 -0.52157032 1.86279160
v -1.18984561 -0.60030988 1.93626711
v -1.13308266 -0.52157032 1.92591609
v -1.20573459 -0.63427114 1.92506770
v -1.20386872 -0.65106560 1.92235266
v -1.18725088 -0.65617427 1.92574645
v -1.13308266 -0.64301997 1.94390318
v -1.15398611 -0.52157032 1.91726188
v -1.16628917 -0.52157032 1.91200156
v -1.28471305 -0.52157032 1.85871905
v -1.20611360 -0.61019632 1.92557672
v -1.29724932 -0.53671015 1.85430713
v -1.33768603 -0.56922360 1.82851432
v -1.13308266 -0.52157032 0.23037861
v -1.33654895 -0.60175769 1.82732650
v -1.33395431 -0.61871763 1.82478115
v -1.30532501 -0.65458168 1.82766588
v -1.25004879 -0.73284557 1.81612699
v -1.24121515 -0.72633043 1.82851432
v -1.22760015 -0.73284557 1.83292625
v -1.22281888 -0.73284557 1.83547159
v -1.15471499 -0.73284557 1.85922812
v -1.15471499 -0.67710531 1.91488633
v -1.15471499 -0.66082791 1.92930988
v -1.22060318 -0.73284557 1.83648973
v -1.18879607 -0.73284557 1.84853768
v -1.18739667 -0.73284557 1.84904675
v -1.13308266 -0.66000060 1.93117652
v -1.33022260 -0.52157032 1.82342365
v -1.33272979 -0.52301813 1.82223581
v -1.32007690 -0.53499348 1.83648973
v -1.33544114 -0.54469375 1.82630836
v -1.34765665 -0.56922360 1.80815158
v -1.42016288 -0.73284557 1.64355277
v -1.13308266 -0.69931864 0.24802633
v -1.15471499 -0.69931864 0.25057171
v -1.13690181 -0.52157032 0.23088773
v -1.40261220 -0.73284557 1.66425489
v -1.25564636 -0.73284557 1.81069692
v -1.40211657 -0.73284557 1.66476396
v -1.13308266 -0.73284557 1.86414912
v -1.13308266 -0.66546086 1.92642521
v -1.33165107 -0.52157032 1.82138737
v -1.38165039 -0.52157032 1.67799974
v -1.39132952 -0.53511761 1.67816943
v -1.40095040 -0.54490056 1.66730930
v -1.39538191 -0.56922360 1.68597514
v -1.42987119 -0.73284557 1.62115375
v -1.13308266 -0.72093221 0.25108073
v -1.13308266 -0.73245259 0.25345638
v -1.15774701 -0.73284557 0.25820769
v -1.17844641 -0.72407600 0.26041361
v -1.33742361 -0.65902851 0.29384248
v -1.34124277 -0.63427114 0.29248497
v -1.36751066 -0.58891364 0.29503037
v -1.26319733 -0.53671015 0.26465590
v -1.26348882 -0.52157032 0.26465590
v -1.13308266 -0.73284557 0.25362602
v -1.43089165 -0.52157032 1.41039940
v -1.40147512 -0.56922360 1.66985464
v -1.43051263 -0.73284557 1.61300867
v -1.17392747 -0.73284557 0.26194087
v -1.28138944 -0.73284557 0.29401212
v -1.30156412 -0.71621653 0.29570913
v -1.33045583 -0.68070412 0.29638788
v -1.34891035 -0.66862534 0.30402385
v -1.36896832 -0.56922360 0.29418187
v -1.37182546 -0.66678454 0.32184121
v -1.38220429 -0.60132336 0.31165983
v -1.40086287 -0.59205747 0.32540474
v -1.37030945 -0.52157032 0.29350311
v -1.43089165 -0.73284557 1.41803542
v -1.43089165 -0.52157032 0.71399369
v -1.29523767 -0.73284557 0.29825442
v -1.32345876 -0.69931864 0.29944220
v -1.33870639 -0.73185278 0.32285945
v -1.35033892 -0.69791222 0.31675062
v -1.36780216 -0.68612299 0.32574411
v -1.37788950 -0.52157032 0.29978166
v -1.39692710 -0.61373309 0.33236205
v -1.40083378 -0.62585322 0.35408230
v -1.40313693 -0.60244023 0.34373121
v -1.40453632 -0.56922360 0.34457970
v -1.40485699 -0.52157032 0.34457970
v -1.40284544 -0.52157032 0.33507708
v -1.40057138 -0.52157032 0.32506535
v -1.39331200 -0.52157032 0.31624150
v -1.38657744 -0.52157032 0.30877517
v -1.43089165 -0.73284557 0.75760389
v -1.42791790 -0.52157032 0.50731187
v -1.43089165 -0.53671015 0.71026052
v -1.30526665 -0.73284557 0.30317545
v -1.31436271 -0.72897785 0.30639951
v -1.33841490 -0.73284557 0.32319873
v -1.37001786 -0.69791222 0.34763402
v -1.38269993 -0.66678454 0.34457970
v -1.39409913 -0.63569826 0.34373121
v -1.35010569 -0.73284557 0.34356146
v -1.35407063 -0.72887442 0.34763402
v -1.36628615 -0.71605106 0.36036078
v -1.39223327 -0.73284557 0.50731187
v -1.39261231 -0.73185278 0.50731187
v -1.42683917 -0.52157032 0.49407609
v -1.42474008 -0.52157032 0.47557994
v -1.43089165 -0.71390006 0.74216214
v -1.43089165 -0.56922360 0.70669704
v -1.43089165 -0.68461314 0.72926575
v -1.43089165 -0.66678454 0.72332661
v -1.43089165 -0.63034138 0.71161803
v -1.43089165 -0.60175769 0.70703642
v -1.31480000 -0.73284557 0.30877517
v -1.36625697 -0.73284557 0.38886860
v -1.35733589 -0.73284557 0.36137890
v -1.36223376 -0.73284557 0.37359656
f 1 2 3
f 1 3 4
f 1 4 5
f 1 5 6
f 1 6 7
f 1 7 16
f 1 16 37
f 1 37 51
f 1 51 50
f 1 50 67
f 1 67 59
f 1 59 58
f 1 58 44
f 1 44 23
f 1 23 12
f 1 12 8
f 1 8 2
f 2 8 3
f 3 9 10
f 3 10 11
f 3 11 4
f 3 8 12
f 3 12 9
f 4 11 5
f 5 11 13
f 5 13 14
f 5 14 15
f 5 15 6
f 6 15 7
f 7 15 16
f 9 12 17
f 9 17 18
f 9 18 10
f 10 19 11
f 10 18 17
f 10 17 12
f 10 12 23
f 10 23 46
f 10 46 66
f 10 66 80
f 10 80 88
f 10 88 97
f 10 97 96
f 10 96 95
f 10 95 94
f 10 94 93
f 10 93 113
f 10 113 112
f 10 112 99
f 10 99 82
f 10 82 68
f 10 68 53
f 10 53 52
f 10 52 38
f 10 38 19
f 11 20 13
f 11 19 21
f 11 21 22
f 11 22 20
f 13 20 22
f 13 22 24
f 13 24 14
f 14 24 25
f 14 25 26
f 14 26 27
f 14 27 28
f 14 28 29
f 14 29 30
f 14 30 15
f 15 31 32
f 15 32 33
f 15 33 16
f 15 30 34
f 15 34 35
f 15 35 36
f 15 36 31
f 16 33 37
f 19 38 39
f 19 39 40
f 19 40 21
f 21 40 41
f 21 41 22
f 22 41 42
f 22 42 43
f 22 43 24
f 23 44 45
f 23 45 46
f 24 43 25
f 25 43 47
f 25 47 26
f 26 48 27
f 26 47 49
f 26 49 48
f 27 48 49
f 27 49 47
f 27 47 43
f 27 43 57
f 27 57 70
f 27 70 81
f 27 81 98
f 27 98 110
f 27 110 121
f 27 121 123
f 27 123 122
f 27 122 107
f 27 107 103
f 27 103 120
f 27 120 101
f 27 101 83
f 27 83 72
f 27 72 71
f 27 71 60
f 27 60 67
f 27 67 50
f 27 50 31
f 27 31 36
f 27 36 35
f 27 35 34
f 27 34 30
f 27 30 29
f 27 29 28
f 31 50 32
f 32 51 33
f 32 50 51
f 33 51 37
f 38 52 39
f 39 41 40
f 39 52 53
f 39 53 54
f 39 54 55
f 39 55 41
f 41 55 42
f 42 55 56
f 42 56 57
f 42 57 43
f 44 58 45
f 45 58 59
f 45 59 60
f 45 60 61
f 45 61 62
f 45 62 63
f 45 63 64
f 45 64 46
f 46 65 66
f 46 64 65
f 53 68 55
f 53 55 54
f 55 57 69
f 55 69 56
f 55 68 57
f 56 69 57
f 57 68 70
f 59 67 60
f 60 71 61
f 61 71 72
f 61 72 73
f 61 73 74
f 61 74 62
f 62 74 75
f 62 75 64
f 62 64 63
f 64 76 65
f 64 75 77
f 64 77 78
f 64 78 79
f 64 79 76
f 65 76 80
f 65 80 66
f 68 81 70
f 68 82 100
f 68 100 115
f 68 115 119
f 68 119 118
f 68 118 117
f 68 117 116
f 68 116 114
f 68 114 98
f 68 98 81
f 72 83 73
f 73 83 74
f 74 83 84
f 74 84 85
f 74 85 86
f 74 86 75
f 75 86 87
f 75 87 77
f 76 79 88
f 76 88 80
f 77 87 79
f 77 79 78
f 79 87 89
f 79 89 90
f 79 90 91
f 79 91 92
f 79 92 93
f 79 93 94
f 79 94 95
f 79 95 96
f 79 96 97
f 79 97 88
f 82 99 100
f 83 101 84
f 84 101 102
f 84 102 85
f 85 103 87
f 85 87 86
f 85 102 103
f 87 104 105
f 87 105 106
f 87 106 89
f 87 103 107
f 87 107 108
f 87 108 109
f 87 109 104
f 89 106 90
f 90 106 105
f 90 105 110
f 90 110 111
f 90 111 98
f 90 98 91
f 91 98 112
f 91 112 113
f 91 113 92
f 92 113 93
f 98 114 99
f 98 99 112
f 98 111 110
f 99 115 100
f 99 114 116
f 99 116 117
f 99 117 118
f 99 118 119
f 99 119 115
f 101 120 102
f 102 120 103
f 104 109 105
f 105 109 121
f 105 121 110
f 107 122 108
f 108 122 123
f 108 123 109
f 109 123 121

