# https://github.com/mikedh/trimesh
v 1.25558267 -0.96710888 0.76735985
v 1.25541109 -0.96710888 0.76804665
v 1.01033244 -1.27080190 0.78961220
v 1.01084718 -1.27141940 0.76735985
v 1.25266572 -0.96710888 0.73487422
v 1.24654595 -0.96710888 0.79476322
v 0.96892355 -1.29553498 0.83239988
v 0.97006752 -1.29800496 0.79991420
v 0.99203021 -1.28534673 0.76735985
v 1.03166601 -1.22507473 0.83239988
v 1.00615725 -1.26644523 0.81131510
v 0.96606390 -1.29001205 0.86495423
v 0.94982062 -1.30503721 0.86495423
v 1.00964612 -1.27011578 0.74703055
v 1.00558531 -1.26318638 0.72539637
v 0.98299349 -1.27683938 0.70238854
v 1.24242785 -0.96710888 0.71488832
v 1.18940853 -0.96710888 0.93349692
v 1.14045002 -1.04425852 0.91928014
v 0.95273758 -1.30627219 0.83239988
v 0.95388143 -1.30538027 0.79991420
v 0.96703618 -1.29845087 0.73487422
v 0.99363162 -1.28040698 0.73569838
v 1.11145237 -1.07962586 0.92216471
v 0.97939022 -1.27375201 0.86495423
v 0.97613010 -1.26918963 0.88178083
v 0.94621735 -1.30287608 0.88308577
v 0.92705722 -1.31176081 0.86495423
v 0.97727397 -1.27035589 0.68363889
v 0.96045876 -1.29347680 0.70238854
v 0.94879114 -1.27237986 0.64751316
v 0.91521791 -1.17824973 0.51708979
v 0.88250260 -1.14446034 0.45472829
v 0.88296015 -1.04840930 0.41922068
v 1.05305678 -0.96710888 0.54401235
v 1.17951389 -0.96710888 0.95533716
v 1.13507377 -1.03787798 0.94091435
v 0.92705722 -1.31371614 0.83239988
v 0.95022098 -1.30273881 0.71317131
v 0.92705722 -1.30455698 0.88542090
v 1.14411049 -1.01616354 0.95327677
v 1.10241563 -1.07080976 0.94379893
v 0.97635887 -1.23684093 0.91426651
v 0.95954367 -1.24394191 0.91962353
v 0.94101267 -1.26744010 0.91282422
v 0.71440783 -1.20291428 1.09249123
v 0.69907974 -1.21341137 1.09249123
v 0.69873658 -1.21361717 1.09249123
v 0.67134032 -1.22109543 1.09249123
v 0.89451348 -1.31529409 0.86495423
v 0.67134032 -1.30074926 0.63679907
v 0.67134032 -1.28339140 0.60630518
v 0.88427569 -1.20620754 0.51963091
v 0.90595242 -1.19996417 0.52732313
v 0.88501920 -1.17653461 0.48419203
v 0.86196974 -1.16387639 0.46537371
v 0.86196974 -1.14761634 0.45280524
v 0.85081686 -1.04748306 0.39106192
v 0.88690658 -1.02460236 0.41551194
v 0.86751768 -1.02460236 0.39923475
v 0.88639184 -0.99208217 0.41846525
v 0.92419746 -0.96710888 0.45177505
v 1.17591063 -0.96710888 0.96076288
v 0.89451348 -1.31656340 0.83239988
v 0.67134032 -1.30839901 0.66983419
v 0.76439589 -1.31755817 0.76735985
v 0.67134032 -1.29951428 0.94228796
v 1.16595880 -0.96710888 0.97271323
v 1.14319539 -0.98127643 0.98205372
v 1.13169927 -1.00299087 0.97497968
v 1.14862886 -0.96710888 0.98837228
v 1.12214780 -0.96710888 1.00389397
v 1.08737351 -0.96710888 1.02394855
v 1.08291235 -0.96710888 1.02648970
v 1.02503141 -0.96710888 1.05876933
v 0.99203021 -0.96710888 1.07497783
v 0.80426047 -1.09056887 1.09249123
v 0.67134032 -0.96710888 1.09249123
v 0.67134032 -1.30551744 0.92656022
v 0.67134032 -1.30719834 0.90211013
v 0.67134032 -1.25166029 0.56372353
v 0.86196974 -1.17811256 0.48165087
v 0.67134032 -1.23193549 0.53920474
v 0.82948329 -1.14391148 0.45479693
v 0.82948329 -1.06343445 0.40060835
v 0.82948329 -1.04717431 0.39085583
v 0.85127440 -1.02460236 0.39106192
v 0.84801429 -1.00669563 0.39257279
v 0.88233102 -0.96752058 0.42313541
v 0.88278857 -0.96710888 0.42354750
v 0.67134032 -1.31038866 0.70300668
v 0.67134032 -1.30740423 0.89743990
v 0.89485664 -0.96710888 1.09249123
v 0.80597632 -1.08823616 1.09249123
v 0.67134032 -0.96710888 0.44422024
v 0.67134032 -1.22030646 0.53158125
v 0.76439589 -1.07900837 0.42141845
v 0.83016961 -1.02487679 0.39092446
v 0.81066627 -1.04264615 0.39236679
v 0.81066627 -1.03592265 0.39236679
v 0.84143696 -1.00669563 0.39257279
v 0.83016961 -0.96710888 0.41441305
v 0.86191254 -0.96710888 0.41564930
v 0.88215944 -0.96710888 0.42320415
v 0.83016961 -0.99434625 0.40081443
v 0.81976024 -1.01420821 0.39470193
v 0.67134032 -0.99760510 0.44099227
v 0.67134032 -1.07804791 0.45651398
v 0.67688827 -1.08147825 0.45445357
v 0.74580764 -1.07712167 0.42457775
v 0.76439589 -1.05715676 0.41324554
v 0.74134648 -1.05715676 0.42224262
v 0.67134032 -1.02909610 0.44422024
v 0.67134032 -1.06861432 0.45280524
v 0.67134032 -1.05722540 0.45005803
f 1 2 3
f 1 3 4
f 1 4 5
f 1 5 17
f 1 17 35
f 1 35 62
f 1 62 90
f 1 90 104
f 1 104 103
f 1 103 102
f 1 102 95
f 1 95 78
f 1 78 93
f 1 93 76
f 1 76 75
f 1 75 74
f 1 74 73
f 1 73 72
f 1 72 71
f 1 71 68
f 1 68 63
f 1 63 36
f 1 36 18
f 1 18 6
f 1 6 2
f 2 6 3
f 3 7 8
f 3 8 9
f 3 9 4
f 3 6 10
f 3 10 11
f 3 11 12
f 3 12 13
f 3 13 7
f 4 9 14
f 4 14 5
f 5 14 15
f 5 15 16
f 5 16 17
f 6 18 19
f 6 19 10
f 7 13 8
f 8 13 20
f 8 20 21
f 8 21 22
f 8 22 9
f 9 22 23
f 9 23 14
f 10 19 24
f 10 24 25
f 10 25 11
f 11 25 12
f 12 25 26
f 12 26 27
f 12 27 13
f 13 27 28
f 13 28 20
f 14 23 16
f 14 16 15
f 16 29 17
f 16 23 30
f 16 30 31
f 16 31 29
f 17 29 31
f 17 31 32
f 17 32 33
f 17 33 34
f 17 34 35
f 18 36 19
f 19 36 37
f 19 37 24
f 20 38 21
f 20 28 38
f 21 38 39
f 21 39 22
f 22 39 30
f 22 30 23
f 24 37 26
f 24 26 25
f 26 37 27
f 27 40 28
f 27 37 41
f 27 41 42
f 27 42 43
f 27 43 44
f 27 44 45
f 27 45 46
f 27 46 47
f 27 47 48
f 27 48 49
f 27 49 40
f 28 40 50
f 28 50 38
f 30 39 31
f 31 39 51
f 31 51 52
f 31 52 53
f 31 53 54
f 31 54 32
f 32 54 55
f 32 55 33
f 33 55 56
f 33 56 57
f 33 57 58
f 33 58 34
f 34 58 59
f 34 59 35
f 35 59 60
f 35 60 61
f 35 61 62
f 36 63 41
f 36 41 37
f 38 50 64
f 38 64 39
f 39 65 51
f 39 64 66
f 39 66 65
f 40 67 50
f 40 49 67
f 41 63 68
f 41 68 69
f 41 69 70
f 41 70 42
f 42 70 43
f 43 70 46
f 43 46 44
f 44 46 45
f 46 70 71
f 46 71 72
f 46 72 73
f 46 73 74
f 46 74 75
f 46 75 76
f 46 76 77
f 46 77 94
f 46 94 93
f 46 93 78
f 46 78 49
f 46 49 48
f 46 48 47
f 49 78 95
f 49 95 107
f 49 107 113
f 49 113 115
f 49 115 114
f 49 114 108
f 49 108 96
f 49 96 83
f 49 83 81
f 49 81 52
f 49 52 51
f 49 51 65
f 49 65 91
f 49 91 92
f 49 92 80
f 49 80 79
f 49 79 67
f 50 67 79
f 50 79 80
f 50 80 66
f 50 66 64
f 52 81 53
f 53 81 82
f 53 82 55
f 53 55 54
f 55 82 56
f 56 82 83
f 56 83 57
f 57 83 84
f 57 84 85
f 57 85 58
f 58 85 86
f 58 86 87
f 58 87 60
f 58 60 59
f 60 87 88
f 60 88 61
f 61 88 89
f 61 89 90
f 61 90 62
f 65 66 91
f 66 80 92
f 66 92 91
f 68 71 69
f 69 71 70
f 76 93 94
f 76 94 77
f 81 83 82
f 83 96 97
f 83 97 84
f 84 97 85
f 85 97 86
f 86 98 87
f 86 97 99
f 86 99 100
f 86 100 98
f 87 98 88
f 88 98 101
f 88 101 102
f 88 102 103
f 88 103 104
f 88 104 89
f 89 104 90
f 95 102 105
f 95 105 101
f 95 101 106
f 95 106 100
f 95 100 107
f 96 108 109
f 96 109 110
f 96 110 97
f 97 110 99
f 98 100 106
f 98 106 101
f 99 110 111
f 99 111 112
f 99 112 113
f 99 113 107
f 99 107 100
f 101 105 102
f 108 114 109
f 109 114 110
f 110 114 115
f 110 115 113
f 110 113 112
f 110 112 111

