# https://github.com/mikedh/trimesh
v 1.06018859 -0.70771107 1.72415809
v 1.04927728 -0.70771107 1.73827479
v 1.06018859 -0.73180979 1.71018694
v 1.06018859 -0.70771107 0.47650541
v 1.04673422 -0.72170306 1.73172578
v 1.03254049 -0.70771107 1.75428338
v 1.05817791 -0.73292714 1.71135122
v 1.06018859 -0.73493322 1.70771289
v 1.06018859 -0.76439008 0.47548668
v 0.95926565 -0.70771107 0.44390608
v 1.03398943 -0.74338939 1.72241171
v 0.99939235 -0.70771107 1.78513633
v 1.04791705 -0.75367390 1.70072732
v 1.06018859 -0.74826502 1.69519707
v 1.06018859 -0.79691952 0.47810628
v 0.88217621 -0.96710888 0.42324040
v 0.90470871 -0.89448255 0.42644210
v 0.75812931 -0.70771107 0.40155602
v 1.02216137 -0.76296800 1.70916822
v 0.98185727 -0.70771107 1.79837982
v 0.97552918 -0.74798569 1.75923147
v 1.03206744 -0.77536018 1.68719279
v 1.05802998 -0.76563437 1.67831528
v 1.06018859 -0.76472020 1.67744206
v 0.88276762 -0.96710888 0.42353140
v 1.06018859 -0.92701204 0.52278483
v 1.04773955 -0.95012045 0.51740014
v 0.86189102 -0.96710888 0.41567267
v 0.75812931 -0.70771107 1.88831909
v 0.83013267 -0.96710888 0.41436284
v 0.80754109 -0.96710888 0.42120296
v 0.80384481 -0.96710888 0.42251278
v 0.79518074 -0.96710888 0.42687871
v 0.78979896 -0.96710888 0.42964386
v 0.76427991 -0.96710888 0.44463373
v 0.75812931 -0.96710888 0.44958183
v 1.01036288 -0.78181023 1.69592474
v 0.95953174 -0.70771107 1.81104115
v 0.75812931 -0.77985489 1.85615636
v 0.92700458 -0.79026635 1.73798369
v 1.04643856 -0.78330845 1.66550839
v 1.06018859 -0.77970256 1.65794065
v 1.06018859 -0.76822455 1.67293052
v 0.92416586 -0.96710888 0.45176482
v 1.06018859 -0.95156782 0.53777470
v 1.06018859 -0.95751001 0.54170408
v 1.06018859 -0.95903368 0.54315940
v 1.05767519 -0.95918597 0.54010324
v 1.05309178 -0.96710888 0.54403261
v 0.75812931 -0.73841222 1.87842287
v 0.92041039 -0.70771107 1.82966939
v 0.75812931 -0.96710888 1.48897709
v 0.90515219 -0.81167335 1.72459470
v 0.92200724 -0.96710888 1.50614996
v 0.93930579 -0.96710888 1.49479840
v 0.95066068 -0.70771107 1.81598929
v 0.77681765 -0.87950024 1.66419856
v 0.86626746 -0.96710888 1.50804189
v 0.88560636 -0.96710888 1.51109807
v 0.89450698 -0.96710888 1.51182573
v 0.93960145 -0.70771107 1.82181060
v 0.75812931 -0.77167810 1.86226872
v 0.94371170 -0.96710888 1.48824944
v 0.95210961 -0.96710888 1.47544253
v 1.06018859 -0.93922649 1.25292288
v 1.06018859 -0.96149687 0.54650666
v 1.06018859 -0.96710888 0.55552972
v 0.75812931 -0.76482174 1.86736236
v 0.95888120 -0.96710888 1.45681435
v 1.06018859 -0.94687003 1.22265207
v 1.06018859 -0.96710888 1.03767987
v 0.96080327 -0.96710888 1.45041090
f 1 2 3
f 1 3 8
f 1 8 14
f 1 14 24
f 1 24 43
f 1 43 42
f 1 42 65
f 1 65 70
f 1 70 71
f 1 71 67
f 1 67 66
f 1 66 47
f 1 47 46
f 1 46 45
f 1 45 26
f 1 26 15
f 1 15 9
f 1 9 4
f 1 4 10
f 1 10 18
f 1 18 29
f 1 29 51
f 1 51 61
f 1 61 56
f 1 56 38
f 1 38 20
f 1 20 12
f 1 12 6
f 1 6 2
f 2 5 3
f 2 6 5
f 3 7 8
f 3 5 7
f 4 9 10
f 5 11 7
f 5 6 12
f 5 12 11
f 7 13 14
f 7 14 8
f 7 11 13
f 9 15 16
f 9 16 17
f 9 17 10
f 10 17 18
f 11 19 13
f 11 12 20
f 11 20 21
f 11 21 19
f 13 22 23
f 13 23 24
f 13 24 14
f 13 19 22
f 15 25 16
f 15 26 27
f 15 27 25
f 16 25 44
f 16 44 49
f 16 49 67
f 16 67 71
f 16 71 72
f 16 72 69
f 16 69 64
f 16 64 63
f 16 63 55
f 16 55 54
f 16 54 60
f 16 60 59
f 16 59 58
f 16 58 52
f 16 52 36
f 16 36 35
f 16 35 34
f 16 34 33
f 16 33 32
f 16 32 31
f 16 31 30
f 16 30 28
f 16 28 17
f 17 28 18
f 18 28 30
f 18 30 31
f 18 31 32
f 18 32 33
f 18 33 34
f 18 34 35
f 18 35 36
f 18 36 52
f 18 52 39
f 18 39 62
f 18 62 68
f 18 68 50
f 18 50 29
f 19 37 22
f 19 21 37
f 20 38 39
f 20 39 21
f 21 39 40
f 21 40 37
f 22 37 41
f 22 41 23
f 23 41 42
f 23 42 43
f 23 43 24
f 25 27 44
f 26 45 27
f 27 45 46
f 27 46 47
f 27 47 48
f 27 48 49
f 27 49 44
f 29 50 51
f 37 40 53
f 37 53 54
f 37 54 55
f 37 55 41
f 38 56 39
f 39 57 58
f 39 58 59
f 39 59 60
f 39 60 54
f 39 54 53
f 39 53 40
f 39 56 61
f 39 61 62
f 39 52 57
f 41 55 42
f 42 55 63
f 42 63 64
f 42 64 65
f 47 49 48
f 47 66 49
f 49 66 67
f 50 68 51
f 51 68 61
f 52 58 57
f 61 68 62
f 64 69 65
f 65 69 70
f 69 72 70
f 70 72 71

