# https://github.com/mikedh/trimesh
v -0.33178447 -0.52154967 2.33110292
v -0.61863411 -0.52154967 2.34269513
v -0.48280525 -0.58039194 2.32788284
v -0.47165703 -0.58039194 2.32723879
v -0.33178447 -0.53598951 2.32680936
v -0.33178447 -0.52154967 0.18030649
v -0.61863411 -0.58039194 2.30212222
v -0.51532331 -0.58039194 2.32337466
v -0.50414697 -0.58039194 2.32530682
v -0.61863411 -0.52154967 0.22152364
v -0.33178447 -0.55037755 2.31993997
v -0.33178447 -0.58039194 2.30147817
v -0.33178447 -0.57133752 2.30813295
v -0.33178447 -0.55954141 2.31543177
v -0.33178447 -0.57697062 0.16270358
v -0.40763184 -0.52154967 0.15991273
v -0.61863411 -0.58039194 0.30309887
v -0.59588830 -0.52154967 0.19812423
v -0.61863411 -0.52394001 0.22324099
v -0.33178447 -0.58039194 0.16163009
v -0.43913897 -0.52154967 0.15304334
v -0.61863411 -0.57617001 0.29408250
v -0.52781945 -0.58039194 0.18996673
v -0.56008479 -0.55810721 0.19039617
v -0.61863411 -0.52600202 0.22474373
v -0.59147957 -0.52154967 0.19468954
v -0.57022210 -0.53677864 0.18545874
v -0.45865541 -0.58039194 0.16184470
v -0.47165703 -0.56921788 0.15926868
v -0.47165703 -0.52154967 0.14960845
v -0.45427473 -0.52154967 0.15068194
v -0.61863411 -0.56026713 0.26617529
v -0.51990056 -0.58039194 0.18309733
v -0.54772901 -0.53669798 0.16828485
v -0.52492707 -0.55541739 0.16463554
v -0.50192855 -0.58039194 0.17021702
v -0.61863411 -0.55540008 0.25844704
v -0.61863411 -0.54264211 0.24299069
v -0.58358875 -0.52154967 0.18867881
v -0.47165703 -0.58039194 0.16205952
v -0.50414697 -0.52154967 0.15132579
v -0.48676467 -0.52154967 0.14982327
v -0.55095839 -0.52154967 0.16678232
v -0.54607224 -0.52154967 0.16463554
v -0.53523286 -0.52154967 0.16012736
v -0.53146998 -0.53669798 0.16163009
v -0.49215630 -0.58039194 0.16506479
f 1 2 3
f 1 3 4
f 1 4 5
f 1 5 11
f 1 11 14
f 1 14 13
f 1 13 12
f 1 12 20
f 1 20 15
f 1 15 6
f 1 6 16
f 1 16 21
f 1 21 31
f 1 31 30
f 1 30 42
f 1 42 41
f 1 41 45
f 1 45 44
f 1 44 43
f 1 43 39
f 1 39 26
f 1 26 18
f 1 18 10
f 1 10 2
f 2 7 8
f 2 8 9
f 2 9 3
f 2 10 19
f 2 19 25
f 2 25 38
f 2 38 37
f 2 37 32
f 2 32 22
f 2 22 17
f 2 17 7
f 3 9 8
f 3 8 7
f 3 7 17
f 3 17 23
f 3 23 33
f 3 33 36
f 3 36 47
f 3 47 40
f 3 40 28
f 3 28 20
f 3 20 12
f 3 12 4
f 4 11 5
f 4 12 13
f 4 13 14
f 4 14 11
f 6 15 16
f 10 18 19
f 15 20 16
f 16 20 21
f 17 22 23
f 18 24 25
f 18 25 19
f 18 26 27
f 18 27 24
f 20 28 29
f 20 29 30
f 20 30 31
f 20 31 21
f 22 32 24
f 22 24 23
f 23 24 33
f 24 27 34
f 24 34 35
f 24 35 36
f 24 36 33
f 24 32 37
f 24 37 38
f 24 38 25
f 26 39 34
f 26 34 27
f 28 40 29
f 29 41 42
f 29 42 30
f 29 40 41
f 34 43 44
f 34 44 45
f 34 45 46
f 34 46 35
f 34 39 43
f 35 47 36
f 35 46 41
f 35 41 47
f 40 47 41
f 41 46 45

