# https://github.com/mikedh/trimesh
v -1.21972531 -0.95480467 0.45898444
v -1.25224811 -0.99933787 0.49827883
v -1.25224811 -0.98307385 0.48553011
v -1.23080452 -0.95480467 0.46138535
v -1.18720251 -0.95480467 0.46277180
v -0.89669253 -1.10638989 0.55096444
v -1.28477093 -1.01511225 0.51714824
v -1.27200683 -0.98003175 0.48881029
v -1.24739783 -0.95480467 0.46622108
v -0.95990020 -0.95480467 0.50696960
v -0.92926642 -0.95480467 0.51511929
v -0.89669253 -0.98826767 0.52982935
v -0.89669253 -1.10638989 0.80441677
v -1.05716228 -1.10638989 0.58055361
v -1.28477093 -1.04525126 0.54964560
v -1.28477093 -1.03136144 0.53338003
v -1.30743990 -1.04369308 0.55258762
v -1.30325326 -1.01064556 0.52174727
v -1.30713358 -0.99208140 0.51819653
v -1.27461079 -0.95955326 0.48590211
v -1.27476395 -0.95480467 0.48546251
v -0.92584568 -0.95480467 0.51633669
v -0.89669253 -0.95858873 0.53067474
v -0.92114847 -0.95480467 0.51856853
v -0.90072602 -0.95480467 0.52844286
v -1.18270954 -1.10638989 0.80441677
v -0.89669253 -0.95480467 0.80441677
v -1.07860588 -1.10638989 0.58596419
v -1.31729383 -1.08332927 0.60740367
v -1.31729383 -1.07107188 0.59113805
v -1.34981662 -1.08012393 0.61281425
v -1.36967742 -1.07654770 0.61761616
v -1.32913884 -1.03486361 0.55823491
v -1.36395916 -1.03409188 0.59059699
v -1.33521450 -1.01319793 0.55387262
v -1.30902270 -0.95955326 0.51603230
v -1.29089768 -0.95955326 0.49976674
v -1.32342047 -0.99208140 0.53425925
v -1.29105084 -0.95480467 0.49996962
v -0.89669253 -0.95480467 0.53108053
v -0.89847948 -0.95480467 0.52979551
v -1.35093984 -0.95587312 0.80441677
v -1.36508238 -1.03983477 0.71774585
v -1.35313520 -1.05952679 0.70496335
v -1.34113701 -1.07852136 0.69218086
v -1.30121107 -1.10597432 0.68616155
v -1.29942412 -1.10638989 0.68693933
v -1.35160357 -0.95480467 0.80441677
v -1.29217415 -1.10638989 0.65251447
v -1.30115998 -1.10592982 0.65346131
v -1.31412831 -1.09910366 0.64047587
v -1.34981662 -1.08745465 0.63726335
v -1.37054540 -1.07714125 0.63726335
v -1.38376896 -1.05712284 0.63726335
v -1.39413345 -1.02753288 0.63831163
v -1.37391515 -1.05712284 0.61190120
v -1.36712466 -1.01241147 0.58731686
v -1.30871628 -0.95480467 0.51623520
v -1.32530960 -0.95955326 0.53290659
v -1.36829896 -0.99208140 0.58572748
v -1.38412637 -0.95480467 0.77516577
v -1.39683937 -0.97387339 0.74885677
v -1.37498728 -1.04949529 0.69603588
v -1.36283594 -1.07117580 0.68061571
v -1.35114408 -1.08233508 0.66979454
v -1.36845212 -1.07524176 0.65893955
v -1.30121107 -1.10597432 0.66979454
v -1.29978143 -1.10638989 0.66979454
v -1.29957728 -1.10638989 0.65501687
v -1.39709470 -1.03714882 0.66979454
v -1.40020912 -1.01864408 0.64984296
v -1.39352071 -0.99208140 0.63168367
v -1.37948024 -0.99208140 0.60476600
v -1.37529360 -1.02379332 0.60277082
v -1.32495219 -0.95480467 0.53331243
v -1.33873741 -0.95955326 0.54917220
v -1.33843109 -0.95480467 0.54957799
v -1.32694339 -0.95480467 0.53571333
v -1.36804363 -0.96879821 0.58599802
v -1.39877948 -0.95480467 0.76069242
v -1.40556997 -0.95480467 0.75186638
v -1.40337452 -0.98264344 0.72718061
v -1.37927600 -1.05905190 0.66979454
v -1.40077068 -1.01477093 0.69123397
v -1.40699962 -0.99292728 0.70215663
v -1.41787457 -0.95955326 0.70232568
v -1.40143441 -1.02089963 0.66979454
v -1.40807174 -0.99208140 0.66979454
v -1.41036926 -0.95955326 0.66979454
v -1.40112809 -0.99208140 0.64791546
v -1.40036228 -0.95955326 0.65001207
v -1.35573913 -0.95480467 0.57379036
v -1.40005596 -0.95480467 0.65065457
v -1.39352071 -0.95480467 0.63834547
v -1.37662107 -0.95480467 0.60733601
v -1.37156654 -0.95480467 0.59861147
v -1.35941520 -0.95480467 0.57943767
v -1.40924604 -0.95480467 0.74287129
v -1.40929703 -0.96164566 0.73675060
v -1.41823197 -0.95480467 0.70705997
v -1.41787457 -0.95480467 0.70232568
v -1.41144150 -0.95480467 0.67452879
v -1.40965454 -0.95480467 0.66949016
v -1.40112809 -0.95480467 0.65271736
v -1.41144150 -0.95480467 0.73637860
f 1 2 3
f 1 3 4
f 1 4 9
f 1 9 21
f 1 21 39
f 1 39 58
f 1 58 75
f 1 75 78
f 1 78 77
f 1 77 92
f 1 92 97
f 1 97 96
f 1 96 95
f 1 95 94
f 1 94 93
f 1 93 104
f 1 104 103
f 1 103 102
f 1 102 101
f 1 101 100
f 1 100 105
f 1 105 98
f 1 98 81
f 1 81 80
f 1 80 61
f 1 61 48
f 1 48 27
f 1 27 40
f 1 40 41
f 1 41 25
f 1 25 24
f 1 24 22
f 1 22 11
f 1 11 10
f 1 10 5
f 1 5 6
f 1 6 2
f 2 7 3
f 2 6 7
f 3 7 8
f 3 8 4
f 4 8 9
f 5 10 6
f 6 10 11
f 6 11 12
f 6 12 23
f 6 23 40
f 6 40 27
f 6 27 13
f 6 13 26
f 6 26 47
f 6 47 68
f 6 68 69
f 6 69 49
f 6 49 28
f 6 28 14
f 6 14 15
f 6 15 16
f 6 16 7
f 7 16 17
f 7 17 18
f 7 18 8
f 8 18 19
f 8 19 20
f 8 20 9
f 9 20 21
f 11 22 12
f 12 22 24
f 12 24 25
f 12 25 23
f 13 27 48
f 13 48 42
f 13 42 26
f 14 28 29
f 14 29 15
f 15 29 17
f 15 17 16
f 17 29 30
f 17 30 31
f 17 31 32
f 17 32 18
f 18 32 33
f 18 33 34
f 18 34 35
f 18 35 19
f 19 36 37
f 19 37 20
f 19 35 38
f 19 38 36
f 20 37 21
f 21 37 39
f 23 25 41
f 23 41 40
f 26 42 43
f 26 43 44
f 26 44 45
f 26 45 46
f 26 46 47
f 28 49 50
f 28 50 51
f 28 51 29
f 29 51 31
f 29 31 30
f 31 51 32
f 32 51 52
f 32 52 53
f 32 53 54
f 32 54 55
f 32 55 56
f 32 56 34
f 32 34 33
f 34 38 35
f 34 56 57
f 34 57 38
f 36 58 39
f 36 39 37
f 36 38 59
f 36 59 58
f 38 57 60
f 38 60 59
f 42 48 61
f 42 61 62
f 42 62 43
f 43 62 63
f 43 63 44
f 44 63 64
f 44 64 45
f 45 64 46
f 46 64 65
f 46 65 66
f 46 66 53
f 46 53 52
f 46 52 67
f 46 67 68
f 46 68 47
f 49 69 50
f 50 69 68
f 50 68 67
f 50 67 52
f 50 52 51
f 53 66 70
f 53 70 54
f 54 70 71
f 54 71 55
f 55 71 72
f 55 72 73
f 55 73 74
f 55 74 56
f 56 74 57
f 57 74 60
f 58 59 75
f 59 76 77
f 59 77 78
f 59 78 75
f 59 60 76
f 60 79 76
f 60 74 73
f 60 73 79
f 61 80 62
f 62 80 81
f 62 81 82
f 62 82 63
f 63 82 70
f 63 70 83
f 63 83 64
f 64 83 66
f 64 66 65
f 66 83 70
f 70 82 84
f 70 84 85
f 70 85 86
f 70 86 87
f 70 87 71
f 71 87 88
f 71 88 89
f 71 89 90
f 71 90 72
f 72 90 89
f 72 89 91
f 72 91 79
f 72 79 73
f 76 79 77
f 77 79 92
f 79 91 93
f 79 93 94
f 79 94 95
f 79 95 96
f 79 96 97
f 79 97 92
f 81 98 99
f 81 99 82
f 82 99 85
f 82 85 84
f 85 99 86
f 86 100 101
f 86 101 89
f 86 89 88
f 86 88 87
f 86 99 100
f 89 101 102
f 89 102 103
f 89 103 91
f 91 103 104
f 91 104 93
f 98 105 99
f 99 105 100

