# https://github.com/mikedh/trimesh
v -0.43942576 -1.10638989 0.34725159
v -0.45098583 -1.14488076 0.35805927
v -0.47164234 -1.15002020 0.35647870
v -0.47164234 -1.12218075 0.34968658
v -0.47164234 -1.10638989 0.34784960
v -0.41535812 -1.10638989 0.35536799
v -0.44236312 -1.16236464 0.37924734
v -0.46017703 -1.16236464 0.36814070
v -0.47164234 -1.16236464 0.36194658
v -0.33178447 -1.10638989 0.40000830
v -0.47694861 -1.16236464 0.36245918
v -0.49713140 -1.14743400 0.35780297
v -0.50651205 -1.12288210 0.35609415
v -0.50651205 -1.10638989 0.35622231
v -0.43099263 -1.16236464 0.39197731
v -0.33178447 -1.10638989 0.78365819
v -0.33178447 -1.16236464 0.56267821
v -0.41516860 -1.16236464 0.41367798
v -0.42322272 -1.16236464 0.40193058
v -0.48613981 -1.16236464 0.36399700
v -0.50651205 -1.15684714 0.36438146
v -0.51883017 -1.13419648 0.36143396
v -0.52186234 -1.11251005 0.35998155
v -0.52186234 -1.10638989 0.35998155
v -0.51702985 -1.10638989 0.35878544
v -0.33178447 -1.16236464 0.78365819
v -1.15681340 -1.10638989 0.78365819
v -0.50556449 -1.16236464 0.36771349
v -0.72871175 -1.16236464 0.45280766
v -0.73250197 -1.15458975 0.45101350
v -0.73193344 -1.12218075 0.43909520
v -0.73193344 -1.10638989 0.43653211
v -1.15491827 -1.16236464 0.78365819
v -1.26511795 -1.10638989 0.71577937
v -1.16211958 -1.10650495 0.78365819
v -0.74055609 -1.16236464 0.45754933
v -1.29951388 -1.10638989 0.65503441
v -1.27165602 -1.10638989 0.71095223
v -1.29941909 -1.10638989 0.68694476
v -1.29970340 -1.10638989 0.66977215
v -1.01979812 -1.16236464 0.63995498
v -0.81181162 -1.16236464 0.49142465
f 1 2 3
f 1 3 4
f 1 4 5
f 1 5 14
f 1 14 25
f 1 25 24
f 1 24 32
f 1 32 37
f 1 37 40
f 1 40 39
f 1 39 38
f 1 38 34
f 1 34 27
f 1 27 16
f 1 16 10
f 1 10 6
f 1 6 2
f 2 7 8
f 2 8 9
f 2 9 3
f 2 6 10
f 2 10 7
f 3 9 11
f 3 11 12
f 3 12 4
f 4 12 13
f 4 13 5
f 5 13 14
f 7 15 19
f 7 19 18
f 7 18 17
f 7 17 26
f 7 26 33
f 7 33 41
f 7 41 42
f 7 42 36
f 7 36 29
f 7 29 28
f 7 28 20
f 7 20 11
f 7 11 9
f 7 9 8
f 7 10 15
f 10 16 26
f 10 26 17
f 10 17 18
f 10 18 19
f 10 19 15
f 11 20 21
f 11 21 12
f 12 21 22
f 12 22 13
f 13 22 23
f 13 23 24
f 13 24 25
f 13 25 14
f 16 27 35
f 16 35 33
f 16 33 26
f 20 28 21
f 21 28 29
f 21 29 30
f 21 30 31
f 21 31 22
f 22 31 32
f 22 32 23
f 23 32 24
f 27 34 35
f 29 36 37
f 29 37 30
f 30 37 31
f 31 37 32
f 33 35 34
f 33 34 38
f 33 38 39
f 33 39 40
f 33 40 37
f 33 37 41
f 36 42 37
f 37 42 41

