# https://github.com/mikedh/trimesh
v 0.76427622 1.08293483 1.14941462
v 0.61724166 1.29889804 0.86491110
v 0.61844432 1.30204716 1.01006733
v 0.61844432 1.30204716 1.01270164
v 0.60254264 1.31145546 1.02513007
v 0.59220880 1.30737331 1.05059491
v 0.64552610 1.19882796 1.14941462
v 0.30923073 1.08293483 1.14941462
v 0.72231727 1.08293483 0.80783474
v 0.72009012 1.08899965 0.80216089
v 0.71630402 1.10653326 0.81445428
v 0.66508024 1.18724255 0.73488512
v 0.59817749 1.32028057 0.86578919
v 0.61488088 1.29683754 0.83242150
v 0.58592835 1.33400424 0.87720446
v 0.55510496 1.36938254 0.93975199
v 0.55510496 1.36938254 0.95366646
v 0.48971668 1.43271370 0.95339630
v 0.45301372 1.46171611 0.99507213
v 0.46303577 1.44060579 1.02756173
v 0.45826974 1.43516293 1.05005454
v 0.62926808 1.21099656 1.14941462
v 0.30923073 1.28400802 1.14941462
v 0.30923073 1.08293483 0.45936521
v 0.72107006 1.08293483 0.80175564
v 0.71875383 1.08293483 0.79054299
v 0.68325354 1.13934571 0.71826883
v 0.67888839 1.15839562 0.73488512
v 0.65229651 1.20555370 0.71603980
v 0.52347985 1.40235048 0.89746825
v 0.59862293 1.31479884 0.83242150
v 0.58472569 1.33311008 0.85552219
v 0.61937972 1.27047881 0.78162696
v 0.49074117 1.43341340 0.92995782
v 0.45363728 1.46334893 0.96251498
v 0.43671118 1.47170758 0.99507213
v 0.43114336 1.46910277 1.02215807
v 0.44085361 1.45825602 1.03080393
v 0.43911649 1.44231635 1.05626877
v 0.43911649 1.42738746 1.07254733
v 0.45969506 1.40530514 1.07977474
v 0.49590808 1.31021136 1.14941462
v 0.43911649 1.32650097 1.14941462
v 0.30923073 1.41490789 1.09031192
v 0.30923073 1.08783329 0.46172933
v 0.39853831 1.14062868 0.48908546
v 0.40824856 1.12430020 0.48503267
v 0.40660048 1.08966057 0.47523847
v 0.40660048 1.08293483 0.47469814
v 0.71621493 1.08293483 0.78338312
v 0.65790893 1.18724255 0.70942031
v 0.64650604 1.08293483 0.61161377
v 0.58811089 1.23856051 0.68118609
v 0.59225334 1.30900613 0.80945589
v 0.62178499 1.14537165 0.61505861
v 0.59318874 1.17841734 0.61282961
v 0.59091710 1.21033564 0.64667014
v 0.58040507 1.23202914 0.65950382
v 0.52218811 1.40048443 0.87720446
v 0.48985031 1.43255812 0.90949140
v 0.58058325 1.33104958 0.83242150
v 0.40660048 1.48006623 0.99507213
v 0.47167700 1.44678722 0.92995782
v 0.44134359 1.45736186 0.93299740
v 0.43737932 1.46785867 0.96251498
v 0.40660048 1.47217414 1.02648099
v 0.40660048 1.46292134 1.04275959
v 0.40660048 1.44667060 1.05829513
v 0.40660048 1.42832048 1.07457372
v 0.46063047 1.33552044 1.14326794
v 0.46633191 1.32700630 1.14941462
v 0.47483950 1.32288538 1.14941462
v 0.45043024 1.32688969 1.14941462
v 0.30923073 1.44103338 1.05620122
v 0.30923073 1.12356153 0.48239840
v 0.32223713 1.13946233 0.49003108
v 0.38067681 1.14062868 0.48908546
v 0.42018591 1.13654654 0.49151708
v 0.43911649 1.17254688 0.52137241
v 0.45800248 1.17184709 0.52238559
v 0.46998437 1.15594630 0.51475291
v 0.43911649 1.11376443 0.48847751
v 0.45671074 1.10746638 0.49036881
v 0.45671074 1.10377296 0.49036881
v 0.47871468 1.08293483 0.49833922
v 0.64147275 1.08293483 0.60411618
v 0.64062643 1.08876641 0.60573727
v 0.52192085 1.36739987 0.81425164
v 0.62601651 1.12107343 0.60445391
v 0.62035961 1.10948802 0.58682443
v 0.61127296 1.13114265 0.59337639
v 0.60223085 1.15563532 0.60310298
v 0.58147410 1.16589889 0.59114736
v 0.57069483 1.18868101 0.60242752
v 0.55996009 1.21045225 0.61370772
v 0.57020485 1.22122126 0.63640313
v 0.55871289 1.23929918 0.64775085
v 0.50103048 1.40499416 0.86578919
v 0.47167700 1.43753441 0.90476320
v 0.37408451 1.47392358 0.99507213
v 0.37408451 1.46863630 1.01952378
v 0.43198968 1.46393211 0.94583114
v 0.40878308 1.47019138 0.96055616
v 0.37408451 1.46898615 0.96893186
v 0.34989798 1.46548719 0.97433552
v 0.42107677 1.46393211 0.94583114
v 0.43911649 1.43951718 0.90307456
v 0.30923073 1.44138333 1.05566086
v 0.30923073 1.12519435 0.48381683
v 0.30923073 1.14677124 0.50435081
v 0.32584507 1.23599467 0.58858059
v 0.34753724 1.23700544 0.58763496
v 0.43911649 1.13005404 0.49388115
v 0.37408451 1.23677220 0.58783756
v 0.39038706 1.23607241 0.58851303
v 0.47969463 1.16760946 0.52785677
v 0.48900399 1.33384875 0.75089352
v 0.51065160 1.33120506 0.75420327
v 0.53359099 1.21208507 0.60364336
v 0.54227675 1.19894458 0.59202547
v 0.49528449 1.14591596 0.51752223
v 0.46918260 1.11986821 0.49860939
v 0.55305604 1.08293483 0.52407425
v 0.62886725 1.08293483 0.58567614
v 0.62459114 1.08966057 0.58283917
v 0.50419297 1.37085987 0.80938831
v 0.50103048 1.38734384 0.83559613
v 0.59488137 1.08293483 0.55446990
v 0.57283283 1.08293483 0.53542198
v 0.55978192 1.17725108 0.58500068
v 0.47167700 1.42754295 0.88848461
v 0.33341729 1.46136617 0.99507213
v 0.35488674 1.46439867 1.01283673
v 0.39938462 1.46233816 0.94839789
v 0.34005410 1.45763397 0.96312289
v 0.37408451 1.46031653 0.95272083
v 0.30923073 1.45281316 0.99507213
v 0.30923073 1.44842004 0.96251498
v 0.34156854 1.26554138 0.63106699
v 0.47167700 1.37381453 0.80560576
v 0.37408451 1.24827988 0.60479164
v 0.33862876 1.24719126 0.60154941
v 0.30923073 1.24633598 0.60918209
v 0.50419297 1.35977988 0.79317728
v 0.50156494 1.34170197 0.76602381
v 0.56508247 1.08293483 0.53082882
v 0.62552654 1.08293483 0.58155580
v 0.30923073 1.43625154 0.93934672
v 0.30923073 1.24645260 0.60938479
f 1 2 3
f 1 3 4
f 1 4 5
f 1 5 6
f 1 6 7
f 1 7 22
f 1 22 42
f 1 42 72
f 1 72 71
f 1 71 73
f 1 73 43
f 1 43 23
f 1 23 8
f 1 8 24
f 1 24 49
f 1 49 85
f 1 85 123
f 1 123 146
f 1 146 129
f 1 129 128
f 1 128 147
f 1 147 124
f 1 124 86
f 1 86 52
f 1 52 50
f 1 50 26
f 1 26 25
f 1 25 9
f 1 9 10
f 1 10 11
f 1 11 12
f 1 12 2
f 2 13 3
f 2 12 14
f 2 14 13
f 3 13 15
f 3 15 16
f 3 16 17
f 3 17 4
f 4 17 18
f 4 18 19
f 4 19 20
f 4 20 5
f 5 20 21
f 5 21 6
f 6 21 7
f 7 21 22
f 8 23 44
f 8 44 74
f 8 74 108
f 8 108 137
f 8 137 138
f 8 138 148
f 8 148 149
f 8 149 143
f 8 143 110
f 8 110 109
f 8 109 75
f 8 75 45
f 8 45 24
f 9 25 10
f 10 25 26
f 10 26 27
f 10 27 11
f 11 27 28
f 11 28 12
f 12 28 29
f 12 29 14
f 13 30 15
f 13 14 31
f 13 31 32
f 13 32 30
f 14 29 33
f 14 33 31
f 15 30 16
f 16 30 17
f 17 30 34
f 17 34 18
f 18 34 19
f 19 35 36
f 19 36 37
f 19 37 38
f 19 38 20
f 19 34 35
f 20 38 21
f 21 38 39
f 21 39 40
f 21 40 41
f 21 41 22
f 22 41 42
f 23 43 44
f 24 45 46
f 24 46 47
f 24 47 48
f 24 48 49
f 26 50 27
f 27 51 29
f 27 29 28
f 27 50 52
f 27 52 51
f 29 53 54
f 29 54 33
f 29 51 55
f 29 55 56
f 29 56 57
f 29 57 58
f 29 58 53
f 30 32 59
f 30 59 60
f 30 60 34
f 31 61 59
f 31 59 32
f 31 33 54
f 31 54 61
f 34 60 35
f 35 62 36
f 35 60 63
f 35 63 64
f 35 64 65
f 35 65 62
f 36 62 37
f 37 66 67
f 37 67 39
f 37 39 38
f 37 62 66
f 39 67 40
f 40 67 68
f 40 68 69
f 40 69 70
f 40 70 71
f 40 71 72
f 40 72 42
f 40 42 41
f 43 73 44
f 44 73 71
f 44 71 70
f 44 70 69
f 44 69 68
f 44 68 67
f 44 67 74
f 45 75 76
f 45 76 77
f 45 77 46
f 46 78 47
f 46 77 79
f 46 79 80
f 46 80 81
f 46 81 78
f 47 78 82
f 47 82 48
f 48 82 83
f 48 83 49
f 49 83 84
f 49 84 85
f 51 52 55
f 52 86 87
f 52 87 55
f 53 88 54
f 53 58 88
f 54 88 61
f 55 87 89
f 55 89 90
f 55 90 91
f 55 91 92
f 55 92 56
f 56 92 93
f 56 93 94
f 56 94 95
f 56 95 96
f 56 96 58
f 56 58 57
f 58 96 97
f 58 97 88
f 59 98 60
f 59 61 88
f 59 88 98
f 60 99 63
f 60 98 99
f 62 100 101
f 62 101 66
f 62 65 102
f 62 102 103
f 62 103 104
f 62 104 105
f 62 105 100
f 63 99 64
f 64 106 102
f 64 102 65
f 64 99 107
f 64 107 106
f 66 101 108
f 66 108 67
f 67 108 74
f 75 109 76
f 76 109 110
f 76 110 111
f 76 111 112
f 76 112 77
f 77 112 79
f 78 113 83
f 78 83 82
f 78 81 113
f 79 112 114
f 79 114 115
f 79 115 80
f 80 116 81
f 80 115 117
f 80 117 118
f 80 118 97
f 80 97 119
f 80 119 120
f 80 120 116
f 81 116 121
f 81 121 113
f 83 113 122
f 83 122 123
f 83 123 84
f 84 123 85
f 86 124 87
f 87 124 125
f 87 125 90
f 87 90 89
f 88 97 118
f 88 118 126
f 88 126 127
f 88 127 98
f 90 93 91
f 90 125 128
f 90 128 129
f 90 129 93
f 91 93 92
f 93 130 94
f 93 129 121
f 93 121 130
f 94 130 95
f 95 97 96
f 95 130 120
f 95 120 119
f 95 119 97
f 98 127 99
f 99 127 126
f 99 126 131
f 99 131 107
f 100 132 133
f 100 133 101
f 100 105 132
f 101 133 108
f 102 106 103
f 103 106 134
f 103 134 104
f 104 135 105
f 104 134 136
f 104 136 135
f 105 137 132
f 105 135 138
f 105 138 137
f 106 107 139
f 106 139 134
f 107 131 140
f 107 140 141
f 107 141 142
f 107 142 139
f 108 133 132
f 108 132 137
f 110 143 111
f 111 143 142
f 111 142 112
f 112 142 114
f 113 121 122
f 114 142 141
f 114 141 115
f 115 141 140
f 115 140 117
f 116 120 121
f 117 140 126
f 117 126 144
f 117 144 145
f 117 145 118
f 118 145 144
f 118 144 126
f 120 130 121
f 121 129 146
f 121 146 123
f 121 123 122
f 124 147 125
f 125 147 128
f 126 140 131
f 134 139 136
f 135 136 148
f 135 148 138
f 136 139 143
f 136 143 149
f 136 149 148
f 139 142 143

