# https://github.com/mikedh/trimesh
v -0.33180991 -1.16236464 1.84830125
v -0.59220191 -1.16236464 1.74063639
v -0.59220191 -1.17570502 1.73830848
v -0.59220191 -1.18723537 1.73627163
v -0.59220191 -1.21251809 1.72986990
v -0.59220191 -1.22754712 1.72565059
v -0.35877954 -1.20392892 1.82487688
v -0.33180991 -1.17736139 1.84204505
v -0.33180991 -1.16236464 0.56272483
v -0.59220191 -1.16236464 0.41315801
v -0.59220191 -1.22934900 1.72506863
v -0.37407422 -1.22734511 1.77570022
v -0.35668926 -1.20392892 1.82487688
v -0.59220191 -1.23137713 1.72361369
v -0.59220191 -1.24490324 1.71299270
v -0.33180991 -1.18608792 1.83491590
v -0.33180991 -1.16647752 0.56199736
v -0.41516593 -1.16236464 0.41373992
v -0.57785037 -1.16236464 0.40006365
v -0.59220191 -1.16451404 0.41490396
v -0.40660090 -1.23469803 1.75373079
v -0.40660090 -1.23923907 1.73743555
v -0.33180991 -1.24426491 1.68651301
v -0.33180991 -1.22189100 1.77570022
v -0.33180991 -1.19752939 1.82094854
v -0.33180991 -1.20880925 1.80508980
v -0.33180991 -1.20578732 1.81076405
v -0.40787549 -1.24490324 1.70935542
v -0.43199011 -1.23965930 1.73539865
v -0.59220191 -1.24490324 0.58236641
v -0.33180991 -1.24490324 0.55705062
v -0.42317013 -1.16236464 0.40195500
v -0.56253019 -1.16236464 0.39075210
v -0.55623390 -1.17356376 0.39177053
v -0.59039203 -1.17397584 0.42159662
v -0.59220191 -1.17334555 0.42261505
v -0.59220191 -1.16991958 0.41955967
v -0.33180991 -1.24490324 1.68374864
v -0.59220191 -1.17452529 0.42523393
v -0.52842309 -1.20665995 0.41955967
v -0.50130049 -1.20771851 0.40908420
v -0.48733138 -1.20362997 0.39322547
v -0.46566390 -1.19955752 0.39919073
v -0.44906914 -1.17787856 0.38565978
v -0.44231397 -1.16236464 0.37925821
v -0.43097042 -1.16236464 0.39206154
v -0.50553202 -1.16236464 0.36776419
v -0.51022239 -1.20025246 0.39788129
v -0.53823716 -1.19594571 0.40908420
v -0.56793432 -1.18018141 0.41039364
v -0.53668219 -1.17861383 0.38755123
v -0.48855492 -1.20362997 0.39322547
v -0.47162882 -1.16629159 0.36369038
v -0.47456031 -1.18812420 0.38260449
v -0.46018328 -1.16236464 0.36820070
v -0.48608229 -1.16236464 0.36398140
v -0.50130049 -1.18853628 0.38347742
v -0.47693098 -1.16236464 0.36252645
v -0.47162882 -1.16236464 0.36194444
f 1 2 3
f 1 3 4
f 1 4 5
f 1 5 6
f 1 6 7
f 1 7 8
f 1 8 16
f 1 16 25
f 1 25 27
f 1 27 26
f 1 26 24
f 1 24 23
f 1 23 38
f 1 38 31
f 1 31 17
f 1 17 9
f 1 9 18
f 1 18 32
f 1 32 46
f 1 46 45
f 1 45 55
f 1 55 59
f 1 59 58
f 1 58 56
f 1 56 47
f 1 47 33
f 1 33 19
f 1 19 10
f 1 10 2
f 2 10 20
f 2 20 37
f 2 37 36
f 2 36 39
f 2 39 30
f 2 30 15
f 2 15 14
f 2 14 11
f 2 11 6
f 2 6 5
f 2 5 4
f 2 4 3
f 6 11 7
f 7 12 13
f 7 13 8
f 7 11 14
f 7 14 15
f 7 15 12
f 8 13 16
f 9 17 18
f 10 19 20
f 12 21 22
f 12 22 23
f 12 23 24
f 12 24 13
f 12 15 21
f 13 25 16
f 13 24 26
f 13 26 27
f 13 27 25
f 15 28 22
f 15 22 29
f 15 29 21
f 15 30 31
f 15 31 38
f 15 38 28
f 17 31 18
f 18 31 32
f 19 33 34
f 19 34 35
f 19 35 36
f 19 36 37
f 19 37 20
f 21 29 22
f 22 28 38
f 22 38 23
f 30 39 35
f 30 35 40
f 30 40 41
f 30 41 31
f 31 41 42
f 31 42 43
f 31 43 44
f 31 44 45
f 31 45 46
f 31 46 32
f 33 47 34
f 34 48 49
f 34 49 50
f 34 50 35
f 34 47 51
f 34 51 48
f 35 39 36
f 35 50 49
f 35 49 40
f 40 49 48
f 40 48 52
f 40 52 41
f 41 52 42
f 42 52 53
f 42 53 54
f 42 54 43
f 43 54 44
f 44 54 53
f 44 53 45
f 45 53 55
f 47 56 57
f 47 57 51
f 48 51 57
f 48 57 52
f 52 57 53
f 53 56 58
f 53 58 59
f 53 59 55
f 53 57 56

