# https://github.com/mikedh/trimesh
v -0.48416509 0.50113206 1.99101094
v -0.48416509 0.59588075 1.95273159
v -0.62696320 0.56127548 1.92653058
v -0.63160443 0.53669415 1.92820295
v -0.64463809 0.50416985 1.91965519
v -0.64406592 0.50113206 1.91965519
v -0.48416509 0.50113206 0.14709504
v -0.48416509 0.59602940 1.95087329
v -0.48467373 0.59602940 1.95235993
v -0.58582767 0.59602940 1.92188504
v -0.64788062 0.53669415 1.92039851
v -0.60273962 0.59602940 1.91519546
v -0.82367612 0.59602940 1.80091460
v -0.64667262 0.50113206 1.91816854
v -0.50114064 0.50113206 0.14337855
v -0.51627242 0.54773066 0.13167177
v -0.48416509 0.50230259 0.14690921
v -0.48416509 0.59602940 0.13836134
v -0.66854376 0.50113206 1.90330275
v -0.83982517 0.59602940 1.78288980
v -0.77726355 0.50113206 1.81782442
v -0.76098737 0.50113206 1.83399101
v -0.82939827 0.50113206 0.09655132
v -0.79690944 0.51418449 0.09785214
v -0.79487491 0.53504054 0.09673715
v -0.50946948 0.59602940 0.13092845
v -0.49325688 0.59602940 0.13427328
v -0.48416509 0.51646984 0.14505101
v -0.48416509 0.55264511 0.14170618
v -0.48874279 0.59602940 0.13613148
v -1.06750098 0.59602940 1.48910457
v -1.05141552 0.56921846 1.50898756
v -1.04696502 0.53669415 1.50657188
v -1.04327741 0.51546649 1.50266960
v -1.02305940 0.50113206 1.51530553
v -0.86188704 0.50113206 0.09636550
v -0.82939827 0.50261846 0.09636550
v -0.82939827 0.53669415 0.09264909
v -0.80574691 0.56921846 0.09822379
v -0.81204122 0.58679511 0.10026782
v -0.82310390 0.59602940 0.10509920
v -1.07659277 0.59602940 1.47349552
v -1.06851825 0.56747193 1.48260077
v -1.06018946 0.53669415 1.48297244
v -1.04766442 0.50443929 1.48204334
v -1.04454905 0.50113206 1.48520230
v -1.02865435 0.50113206 1.50805846
v -0.86195063 0.50416985 0.09599383
v -0.88356736 0.50113206 0.09896701
v -0.88337668 0.50416985 0.09896701
v -0.86252285 0.53464106 0.09803796
v -0.85209584 0.55716004 0.09915284
v -0.82704578 0.56848454 0.09785214
v -0.81458433 0.58679511 0.10026782
v -0.82380331 0.59602940 0.10509920
v -1.08434934 0.59602940 1.45063934
v -1.07506689 0.57715213 1.47163726
v -1.07284167 0.55546925 1.46457603
v -1.13368658 0.50113206 1.25905640
v -1.04747365 0.50113206 1.47851271
v -1.04677434 0.50113206 1.48018508
v -0.92699179 0.50113206 0.11067390
v -0.92699179 0.50416985 0.11085962
v -0.87377627 0.54411687 0.10194019
v -0.89443941 0.56921846 0.11439030
v -0.91478460 0.59602940 0.12776954
v -0.89443941 0.59602940 0.12219485
v -0.86201412 0.59602940 0.11383280
v -0.82704578 0.59602940 0.10565668
v -1.10895447 0.59602940 1.35884306
v -1.13368658 0.52407834 1.25589743
v -1.13368658 0.50113206 0.36394979
v -0.95649235 0.50113206 0.12070830
v -0.95948056 0.50416985 0.12200902
v -0.97969866 0.52444064 0.13222925
v -0.92699179 0.53669415 0.11643433
v -0.94314074 0.58535520 0.13315841
v -0.93811800 0.59602940 0.13501661
v -1.11702890 0.59602940 1.32019200
v -1.13368658 0.53353558 1.25050858
v -1.11791907 0.59602940 1.31461730
v -1.13368658 0.54077247 0.28051548
v -1.11435855 0.50113206 0.27661325
v -0.95948056 0.50113206 0.12182319
v -0.99654702 0.50113206 0.13650314
v -0.99794574 0.50416985 0.13724646
v -0.99114284 0.53584876 0.13817562
v -0.99203293 0.56921846 0.14653756
v -1.01301394 0.59408779 0.16196083
v -0.99336805 0.59602940 0.15527126
v -1.13368658 0.58925699 1.21018511
v -1.13368658 0.59602940 1.19866412
v -1.13368658 0.54446987 0.27345425
v -1.10959019 0.50113206 0.25784515
v -0.99807292 0.50113206 0.13724646
v -1.02363163 0.53669415 0.15434211
v -1.01918111 0.56921846 0.15805860
v -1.01523914 0.59602940 0.16437653
v -1.00907206 0.59602940 0.16121752
v -1.07392244 0.58686016 0.19782460
v -1.06209680 0.59602940 0.19355061
v -1.13368658 0.59602940 0.24762490
v -1.13368658 0.55203193 0.26267652
v -1.10876369 0.50113206 0.25654443
v -1.01968974 0.50113206 0.15211225
v -1.02178786 0.50416985 0.15359880
v -1.03990776 0.53669415 0.16660639
v -1.11016241 0.59602940 0.22718451
v -1.08333208 0.59602940 0.20692987
v -1.12357752 0.59602940 0.23796215
v -1.11086181 0.56921846 0.22644119
v -1.13368658 0.57609304 0.25041225
v -1.13368658 0.57059338 0.25152722
v -1.09662011 0.50113206 0.23926295
v -1.02159709 0.50113206 0.15359880
v -1.10755566 0.55011819 0.22922854
v -1.03634733 0.50113206 0.16734970
v -1.03787323 0.50113206 0.16902207
v -1.08066183 0.50113206 0.21993746
f 1 2 3
f 1 3 4
f 1 4 5
f 1 5 6
f 1 6 14
f 1 14 19
f 1 19 22
f 1 22 21
f 1 21 35
f 1 35 47
f 1 47 46
f 1 46 61
f 1 61 60
f 1 60 59
f 1 59 72
f 1 72 83
f 1 83 94
f 1 94 104
f 1 104 114
f 1 114 119
f 1 119 118
f 1 118 117
f 1 117 115
f 1 115 105
f 1 105 95
f 1 95 85
f 1 85 84
f 1 84 73
f 1 73 62
f 1 62 49
f 1 49 36
f 1 36 23
f 1 23 15
f 1 15 7
f 1 7 17
f 1 17 28
f 1 28 29
f 1 29 18
f 1 18 8
f 1 8 2
f 2 8 9
f 2 9 10
f 2 10 3
f 3 11 4
f 3 10 12
f 3 12 13
f 3 13 11
f 4 11 5
f 5 14 6
f 5 11 14
f 7 15 16
f 7 16 17
f 8 18 30
f 8 30 27
f 8 27 26
f 8 26 41
f 8 41 55
f 8 55 69
f 8 69 68
f 8 68 67
f 8 67 66
f 8 66 78
f 8 78 90
f 8 90 99
f 8 99 98
f 8 98 101
f 8 101 109
f 8 109 108
f 8 108 110
f 8 110 102
f 8 102 92
f 8 92 81
f 8 81 79
f 8 79 70
f 8 70 56
f 8 56 42
f 8 42 31
f 8 31 20
f 8 20 13
f 8 13 12
f 8 12 10
f 8 10 9
f 11 19 14
f 11 13 19
f 13 20 21
f 13 21 22
f 13 22 19
f 15 23 24
f 15 24 16
f 16 24 25
f 16 25 26
f 16 26 27
f 16 27 28
f 16 28 17
f 18 29 30
f 20 31 32
f 20 32 33
f 20 33 34
f 20 34 21
f 21 34 35
f 23 36 37
f 23 37 24
f 24 37 38
f 24 38 25
f 25 38 26
f 26 38 39
f 26 39 40
f 26 40 41
f 27 30 29
f 27 29 28
f 31 42 43
f 31 43 32
f 32 43 33
f 33 43 44
f 33 44 34
f 34 44 45
f 34 45 46
f 34 46 47
f 34 47 35
f 36 48 37
f 36 49 48
f 37 48 38
f 38 48 50
f 38 50 51
f 38 51 52
f 38 52 53
f 38 53 54
f 38 54 40
f 38 40 39
f 40 54 55
f 40 55 41
f 42 56 57
f 42 57 43
f 43 57 58
f 43 58 44
f 44 58 59
f 44 59 45
f 45 60 61
f 45 61 46
f 45 59 60
f 48 49 50
f 49 62 50
f 50 62 63
f 50 63 64
f 50 64 51
f 51 64 52
f 52 54 53
f 52 64 65
f 52 65 66
f 52 66 67
f 52 67 68
f 52 68 69
f 52 69 54
f 54 69 55
f 56 70 59
f 56 59 57
f 57 59 58
f 59 70 71
f 59 71 80
f 59 80 91
f 59 91 92
f 59 92 102
f 59 102 112
f 59 112 113
f 59 113 103
f 59 103 93
f 59 93 82
f 59 82 72
f 62 73 63
f 63 73 74
f 63 74 75
f 63 75 76
f 63 76 64
f 64 76 77
f 64 77 65
f 65 77 66
f 66 77 78
f 70 79 71
f 71 79 81
f 71 81 80
f 72 82 83
f 73 84 74
f 74 84 85
f 74 85 86
f 74 86 75
f 75 86 87
f 75 87 76
f 76 87 77
f 77 87 88
f 77 88 89
f 77 89 90
f 77 90 78
f 80 81 91
f 81 92 91
f 82 93 83
f 83 93 94
f 85 95 86
f 86 95 96
f 86 96 87
f 87 96 97
f 87 97 88
f 88 97 89
f 89 98 99
f 89 99 90
f 89 97 100
f 89 100 101
f 89 101 98
f 93 103 94
f 94 103 104
f 95 105 96
f 96 105 106
f 96 106 107
f 96 107 100
f 96 100 97
f 100 108 109
f 100 109 101
f 100 107 108
f 102 110 111
f 102 111 112
f 103 113 104
f 104 113 114
f 105 115 106
f 106 115 107
f 107 111 110
f 107 110 108
f 107 115 111
f 111 116 113
f 111 113 112
f 111 115 117
f 111 117 118
f 111 118 116
f 113 116 114
f 114 116 119
f 116 118 119

