# https://github.com/mikedh/trimesh
v 0.08133893 -1.38571286 0.38187813
v 0.08354354 -1.38571286 0.38253023
v 0.05211024 -1.38571286 0.38213899
v 0.14638643 -1.19944497 0.26553880
v 0.28143581 -1.28861140 0.32331718
v 0.28143581 -1.29901505 0.33036009
v 0.10302934 -1.38571286 0.38957315
v 0.04879149 -1.38571286 0.38239975
v 0.11386268 -1.19685877 0.26684301
v 0.27645769 -1.05714319 0.18676196
v 0.28143581 -1.06019964 0.18793578
v 0.28143581 -1.07583463 0.19602214
v 0.28143581 -1.30618602 0.34079418
v 0.10468871 -1.38571286 0.39087745
v 0.28143581 -1.30847840 0.34496783
v 0.28143581 -1.31000662 0.34848919
v 0.09333385 -1.17511079 0.26123477
v 0.03928564 -1.38571286 0.38539959
v 0.11386268 -1.18063595 0.25940884
v 0.04879149 -1.06925149 0.23097604
v 0.24393394 -1.02463890 0.18402309
v 0.27645769 -1.02463890 0.17841475
v 0.28143581 -1.02957623 0.17932771
v 0.28143581 -1.05714319 0.18650110
v 0.12125876 -1.38571286 0.40418090
v 0.28143581 -1.38571286 0.53369309
v 0.03928564 -1.09029406 0.24323614
v 0.03928564 -1.06566596 0.23228043
v 0.03928564 -1.38571286 1.34376431
v 0.03928564 -1.05726068 0.23071528
v 0.21141020 -0.99207578 0.18728369
v 0.27645769 -0.99207578 0.17737131
v 0.28143581 -1.02463890 0.17828437
v 0.28143581 -1.38571286 1.31507073
v 0.04575721 -1.38571286 1.34741623
v 0.03928564 -1.21137694 1.50979566
v 0.03928564 -1.05008981 0.23019356
v 0.18457575 -0.99207578 0.19406583
v 0.18817896 -0.96979890 0.19550051
v 0.27645769 -0.92706720 0.18232745
v 0.27645769 -0.95957149 0.17841475
v 0.03928564 -1.03439608 0.23019356
v 0.28143581 -0.99707195 0.17750170
v 0.28143581 -0.96450882 0.17841475
v 0.28143581 -0.99207578 0.17763217
v 0.28143581 -1.38418454 1.32615692
v 0.26280341 -1.38571286 1.33724306
v 0.04746400 -1.38571286 1.34819876
v 0.27645769 -1.28214575 1.50979566
v 0.03928564 -0.78523562 1.50979566
v 0.07790167 -1.38571286 1.35941533
v 0.08314055 -1.38571286 1.36098044
v 0.03928564 -1.01811451 0.23214996
v 0.03928564 -1.01723286 0.23228043
v 0.03928564 -0.86199978 0.25588729
v 0.03928564 -0.78523562 0.27049504
v 0.27944456 -0.89250570 0.19302239
v 0.28143581 -0.89027206 0.19380488
v 0.28143581 -0.92706720 0.18258841
v 0.28143581 -0.95957149 0.17867561
v 0.28143581 -1.35838098 1.38041379
v 0.24194270 -1.38571286 1.35093769
v 0.28143581 -1.35679401 1.38367444
v 0.27750072 -1.28226334 1.50979566
v 0.11386268 -1.38571286 1.36658873
v 0.12175656 -1.38571286 1.36789298
v 0.28143581 -0.78523562 1.50979566
v 0.28143581 -0.78523562 0.22810669
v 0.21439708 -1.38571286 1.36502362
v 0.28143581 -1.34145293 1.41328097
v 0.28143581 -1.28249841 1.50979566
v 0.14638643 -1.38571286 1.37076234
v 0.16298017 -1.38571286 1.37206658
v 0.21141020 -1.38571286 1.36619744
v 0.17888646 -1.38571286 1.37245787
f 1 2 7
f 1 7 14
f 1 14 25
f 1 25 26
f 1 26 34
f 1 34 47
f 1 47 62
f 1 62 69
f 1 69 74
f 1 74 75
f 1 75 73
f 1 73 72
f 1 72 66
f 1 66 65
f 1 65 52
f 1 52 51
f 1 51 48
f 1 48 35
f 1 35 29
f 1 29 18
f 1 18 8
f 1 8 3
f 1 3 4
f 1 4 5
f 1 5 6
f 1 6 2
f 2 6 7
f 3 8 4
f 4 8 9
f 4 9 10
f 4 10 11
f 4 11 12
f 4 12 5
f 5 12 11
f 5 11 24
f 5 24 23
f 5 23 33
f 5 33 43
f 5 43 45
f 5 45 44
f 5 44 60
f 5 60 59
f 5 59 58
f 5 58 68
f 5 68 67
f 5 67 71
f 5 71 70
f 5 70 63
f 5 63 61
f 5 61 46
f 5 46 34
f 5 34 26
f 5 26 16
f 5 16 15
f 5 15 13
f 5 13 6
f 6 13 7
f 7 13 15
f 7 15 16
f 7 16 14
f 8 17 9
f 8 18 17
f 9 17 19
f 9 19 10
f 10 20 21
f 10 21 22
f 10 22 23
f 10 23 24
f 10 24 11
f 10 19 20
f 14 16 25
f 16 26 25
f 17 27 28
f 17 28 20
f 17 20 19
f 17 18 27
f 18 29 36
f 18 36 50
f 18 50 56
f 18 56 55
f 18 55 54
f 18 54 53
f 18 53 42
f 18 42 37
f 18 37 30
f 18 30 28
f 18 28 27
f 20 28 30
f 20 30 21
f 21 31 22
f 21 30 31
f 22 32 33
f 22 33 23
f 22 31 32
f 29 35 36
f 30 37 31
f 31 38 39
f 31 39 40
f 31 40 41
f 31 41 32
f 31 37 42
f 31 42 38
f 32 43 33
f 32 41 44
f 32 44 45
f 32 45 43
f 34 46 47
f 35 48 36
f 36 49 64
f 36 64 71
f 36 71 67
f 36 67 50
f 36 48 51
f 36 51 52
f 36 52 49
f 38 42 39
f 39 42 53
f 39 53 54
f 39 54 55
f 39 55 56
f 39 56 40
f 40 57 58
f 40 58 59
f 40 59 60
f 40 60 41
f 40 56 57
f 41 60 44
f 46 61 47
f 47 61 63
f 47 63 62
f 49 52 65
f 49 65 66
f 49 66 64
f 50 67 68
f 50 68 56
f 56 68 57
f 57 68 58
f 62 63 70
f 62 70 69
f 64 66 72
f 64 72 73
f 64 73 71
f 69 70 74
f 70 71 74
f 71 73 75
f 71 75 74

