# https://github.com/mikedh/trimesh
v 0.37540737 -0.01627187 2.37672502
v 0.37540737 -0.04715887 2.37002905
v 0.37540737 0.01624915 2.37487787
v 0.36516090 0.01624915 2.38157384
v 0.19975363 -0.12636907 2.47762644
v 0.21512335 -0.12636907 2.46700526
v 0.37540737 -0.08131390 2.35894606
v 0.22924882 -0.12636907 2.45661489
v 0.36925947 0.07716629 2.36402569
v 0.35879344 0.07716629 2.37880307
v 0.37540737 0.07716629 2.35502076
v 0.34430204 0.07716629 2.38803892
v 0.19902174 -0.12391804 2.47739554
v 0.13146823 0.00148317 2.47554838
v 0.17860200 -0.12636907 2.48132073
v 0.37540737 -0.10373189 2.34971022
v 0.37540737 -0.12636907 2.33539465
v 0.37540737 -0.12620966 2.33562555
v 0.37540737 -0.10476810 2.34924840
v 0.37540737 0.07716629 0.19383667
v 0.30895171 0.07716629 2.39796737
v 0.13651829 0.06997260 2.44483919
v 0.11382967 0.07716629 2.44345385
v 0.12854067 0.00148317 2.47554838
v 0.15693804 -0.12636907 2.47854996
v -0.20424998 0.03828852 2.44414657
v -0.20424998 0.02485766 2.44414657
v 0.37540737 -0.12636907 0.22108238
v 0.32695619 -0.07156956 0.19753097
v 0.14632562 -0.12636907 0.15412265
v 0.11382967 -0.11383492 0.14465590
v 0.06962348 -0.08131390 0.13218747
v 0.07064812 -0.04877296 0.13172577
v 0.04876460 -0.01627187 0.12641512
v 0.04964287 0.01395754 0.12895499
v 0.03946959 0.03980298 0.13057124
v 0.01619547 0.07716629 0.14003799
v 0.14332487 0.07716629 2.43883593
v -0.17570624 0.07716629 2.42382775
v -0.21361819 0.01491404 2.44137580
v -0.13084135 -0.06730516 2.44276113
v -0.11378829 -0.11383492 2.43721969
v -0.11378829 -0.12636907 2.43398712
v -0.24157639 0.01624915 2.42544398
v -0.20446955 0.07716629 2.41944073
v -0.34667589 0.07716629 2.34024347
v -0.36885219 0.07716629 2.32592790
v -0.37229207 0.07654854 2.32384985
v 0.31912498 -0.09325023 0.19891640
v 0.12634501 -0.12636907 0.14904291
v 0.06625679 -0.09837150 0.13288019
v 0.01619547 -0.01627187 0.12248992
v 0.01619547 0.01624915 0.12364436
v 0.01619547 0.04428658 0.12987852
v 0.01619547 0.06054709 0.13472734
v -0.17424245 0.07716629 0.12941680
v -0.21142250 -0.01627187 2.43444893
v -0.14745526 -0.12636907 2.42567489
v -0.14635743 -0.11383492 2.42890747
v -0.24669964 -0.01792582 2.41990254
v -0.12637681 -0.12636907 2.43098553
v -0.26038600 -0.03326968 2.41020489
v -0.35882529 0.00522947 2.34555412
v -0.37229207 -0.01142958 2.33770361
v -0.37229207 -0.01627187 2.33793451
v -0.35955717 -0.03508305 2.34578492
v -0.37229207 0.07716629 2.32361894
v -0.37229207 0.01525280 2.33377841
v 0.11382967 -0.12636907 0.14673396
v 0.06384155 -0.09837150 0.13288019
v 0.09399544 -0.12636907 0.14442499
v 0.05022838 -0.12636907 0.14327056
v -0.37229207 0.05189873 0.12456798
v -0.37229207 0.05223749 0.12456798
v -0.37229207 0.07716629 0.12572240
v -0.24245464 -0.04598317 2.41436099
v -0.21142250 -0.12636907 2.40143086
v -0.37229207 -0.04707916 2.33677998
v -0.37229207 -0.12636907 2.31946283
v -0.24267421 -0.12636907 2.38757711
v -0.37229207 -0.12636907 0.16174214
v -0.22188853 -0.12636907 2.39704384
f 1 2 7
f 1 7 16
f 1 16 19
f 1 19 18
f 1 18 17
f 1 17 28
f 1 28 20
f 1 20 11
f 1 11 3
f 1 3 4
f 1 4 5
f 1 5 6
f 1 6 2
f 2 6 8
f 2 8 7
f 3 9 10
f 3 10 4
f 3 11 9
f 4 10 12
f 4 12 5
f 5 13 14
f 5 14 15
f 5 15 25
f 5 25 43
f 5 43 61
f 5 61 58
f 5 58 77
f 5 77 82
f 5 82 80
f 5 80 79
f 5 79 81
f 5 81 72
f 5 72 71
f 5 71 69
f 5 69 50
f 5 50 30
f 5 30 28
f 5 28 17
f 5 17 8
f 5 8 6
f 5 12 13
f 7 8 16
f 8 17 18
f 8 18 19
f 8 19 16
f 9 11 20
f 9 20 37
f 9 37 56
f 9 56 75
f 9 75 67
f 9 67 47
f 9 47 46
f 9 46 45
f 9 45 39
f 9 39 23
f 9 23 38
f 9 38 21
f 9 21 12
f 9 12 10
f 12 21 14
f 12 14 13
f 14 22 23
f 14 23 24
f 14 24 15
f 14 21 22
f 15 24 26
f 15 26 27
f 15 27 25
f 20 28 29
f 20 29 30
f 20 30 31
f 20 31 32
f 20 32 33
f 20 33 34
f 20 34 35
f 20 35 36
f 20 36 37
f 21 38 22
f 22 38 23
f 23 26 24
f 23 39 26
f 25 27 40
f 25 40 41
f 25 41 42
f 25 42 43
f 26 44 40
f 26 40 27
f 26 39 45
f 26 45 46
f 26 46 47
f 26 47 48
f 26 48 44
f 28 30 49
f 28 49 29
f 29 49 30
f 30 50 31
f 31 50 51
f 31 51 32
f 32 51 52
f 32 52 34
f 32 34 33
f 34 52 53
f 34 53 35
f 35 53 36
f 36 53 54
f 36 54 55
f 36 55 37
f 37 55 56
f 40 57 58
f 40 58 59
f 40 59 42
f 40 42 41
f 40 44 60
f 40 60 57
f 42 59 58
f 42 58 61
f 42 61 43
f 44 62 60
f 44 48 63
f 44 63 64
f 44 64 65
f 44 65 66
f 44 66 62
f 47 67 48
f 48 67 75
f 48 75 74
f 48 74 73
f 48 73 81
f 48 81 79
f 48 79 78
f 48 78 65
f 48 65 64
f 48 64 68
f 48 68 63
f 50 69 51
f 51 70 52
f 51 69 71
f 51 71 72
f 51 72 70
f 52 73 74
f 52 74 53
f 52 70 73
f 53 74 75
f 53 75 56
f 53 56 54
f 54 56 55
f 57 60 76
f 57 76 58
f 58 76 77
f 60 62 76
f 62 66 78
f 62 78 79
f 62 79 80
f 62 80 76
f 63 68 64
f 65 78 66
f 70 72 81
f 70 81 73
f 76 80 82
f 76 82 77

