# https://github.com/mikedh/trimesh
v -1.41475143 -0.42529002 0.68022573
v -1.12779577 -0.42529002 0.68022573
v -1.40324589 -0.52154967 0.68022573
v -1.52831495 -0.52154967 0.79883834
v -1.53670967 -0.52154967 0.80751732
v -1.53491999 -0.50416524 0.80952015
v -1.53176661 -0.47890371 0.81300656
v -1.49520470 -0.42782465 0.78578282
v -1.49418201 -0.42529002 0.78726640
v -1.12779577 -0.42529002 1.05913329
v -1.12779577 -0.52154967 0.68022573
v -1.55349928 -0.52154967 0.83210771
v -1.55030324 -0.50416524 0.83247861
v -1.53943690 -0.46950012 0.82995652
v -1.52814453 -0.45723211 0.81745731
v -1.49648312 -0.42529002 0.79138334
v -1.12779577 -0.52154967 1.05913329
v -1.45340137 -0.42529002 1.05913329
v -1.56078609 -0.52154967 0.85035582
v -1.56099915 -0.52105970 0.85109761
v -1.56010422 -0.50392969 0.86315175
v -1.54949361 -0.47164840 0.86500623
v -1.53359893 -0.44967528 0.83911766
v -1.50206537 -0.42529002 0.80414215
v -1.47662542 -0.52154967 1.05913329
v -1.46277622 -0.42529002 1.04155282
v -1.52545984 -0.49862487 0.97356753
v -1.52878375 -0.52031531 0.97883427
v -1.56116957 -0.52154967 0.85154268
v -1.56312975 -0.52154967 0.86930860
v -1.56206440 -0.51462420 0.87275794
v -1.56189398 -0.51606580 0.89745964
v -1.55763270 -0.49980266 0.89745964
v -1.54054490 -0.47015968 0.89760800
v -1.53155354 -0.45252089 0.88688909
v -1.53449386 -0.44895921 0.86500623
v -1.51011925 -0.42529002 0.83147722
v -1.52878375 -0.52047550 0.97883427
v -1.52750532 -0.52154967 0.97994696
v -1.46456599 -0.42529002 1.03606355
v -1.53564442 -0.47991191 0.92998724
v -1.53112740 -0.48515076 0.95187012
v -1.53398251 -0.50735004 0.96266321
v -1.56125478 -0.52041899 0.91374199
v -1.56283147 -0.52154967 0.88688909
v -1.55107030 -0.50741600 0.92676042
v -1.46840113 -0.42529002 1.02393525
v -1.50717894 -0.42529002 0.86378227
v -1.56125478 -0.52043784 0.91374199
v -1.56048771 -0.52154967 0.91485468
v -1.52916723 -0.52154967 0.97731360
v -1.56138265 -0.52154967 0.91236968
f 1 2 11
f 1 11 3
f 1 3 4
f 1 4 5
f 1 5 6
f 1 6 7
f 1 7 8
f 1 8 9
f 1 9 16
f 1 16 24
f 1 24 37
f 1 37 48
f 1 48 47
f 1 47 40
f 1 40 26
f 1 26 18
f 1 18 10
f 1 10 2
f 2 10 17
f 2 17 11
f 3 11 17
f 3 17 25
f 3 25 39
f 3 39 51
f 3 51 50
f 3 50 52
f 3 52 45
f 3 45 30
f 3 30 29
f 3 29 19
f 3 19 12
f 3 12 5
f 3 5 4
f 5 12 6
f 6 12 13
f 6 13 7
f 7 13 14
f 7 14 15
f 7 15 8
f 8 15 16
f 8 16 9
f 10 18 25
f 10 25 17
f 12 19 20
f 12 20 13
f 13 20 21
f 13 21 14
f 14 21 22
f 14 22 23
f 14 23 15
f 15 23 16
f 16 23 24
f 18 26 27
f 18 27 28
f 18 28 25
f 19 29 20
f 20 29 21
f 21 29 30
f 21 30 31
f 21 31 32
f 21 32 33
f 21 33 22
f 22 33 34
f 22 34 35
f 22 35 36
f 22 36 23
f 23 36 37
f 23 37 24
f 25 28 38
f 25 38 39
f 26 40 34
f 26 34 41
f 26 41 42
f 26 42 27
f 27 42 43
f 27 43 28
f 28 43 44
f 28 44 49
f 28 49 38
f 30 45 32
f 30 32 31
f 32 45 44
f 32 44 33
f 33 46 42
f 33 42 41
f 33 41 34
f 33 44 46
f 34 40 35
f 35 40 47
f 35 47 36
f 36 48 37
f 36 47 48
f 38 49 50
f 38 50 51
f 38 51 39
f 42 46 43
f 43 46 44
f 44 45 52
f 44 52 49
f 49 52 50

