# https://github.com/mikedh/trimesh
v 0.30923069 1.37976146 1.36603778
v 0.23769825 1.45319790 1.29971887
v 0.14636191 1.45319790 1.32116198
v 0.01290092 1.45319790 1.34400517
v -0.00994973 1.45319790 1.34695265
v -0.01630816 1.44744029 1.35026861
v -0.00888998 1.40746307 1.36603778
v 0.30923069 1.34221758 1.36603778
v 0.30923069 1.38883232 1.35130024
v 0.27194110 1.45319790 1.28085484
v -0.01630816 1.45319790 1.34687898
v -0.11380424 1.40621374 1.36603778
v -0.26978472 1.34221758 1.36603778
v 0.30923069 1.34221758 0.85869827
v 0.30923069 1.38896270 1.35100547
v 0.29412942 1.45319790 1.24754803
v 0.29101643 1.45319790 1.25373780
v 0.27386189 1.45319790 1.27879159
v -0.11108865 1.45319790 1.32514113
v -0.12638865 1.40328069 1.36603778
v -0.26859250 1.34431424 1.36603778
v -0.36741324 1.36504157 1.27164389
v -0.36741324 1.35742633 1.27385450
v -0.36741324 1.34221758 1.27775995
v 0.30909823 1.34221758 0.82804417
v 0.30923069 1.34600891 0.83253914
v 0.30923069 1.38914736 1.35056338
v 0.29465928 1.45319790 1.24275832
v -0.11380424 1.45319790 1.32410950
v -0.23872108 1.37164652 1.36603778
v -0.22355355 1.37621994 1.36603778
v -0.26077691 1.35399348 1.36603778
v -0.36741324 1.37450356 1.26670681
v -0.36741324 1.34221758 0.85530862
v 0.19563983 1.34221758 0.71802852
v 0.18981126 1.35864300 0.72326035
v 0.19994502 1.37447099 0.74492448
v 0.30923069 1.35238567 0.83990790
v 0.30870083 1.44744029 1.09265656
v 0.30923069 1.45283943 0.99502041
v 0.30651513 1.45319790 1.09265656
v -0.13930423 1.45319790 1.31320372
v -0.25494836 1.36057671 1.36603778
v -0.36741324 1.40269402 1.24401101
v -0.36741324 1.36654071 0.90025808
v -0.32860027 1.43509953 0.90829006
v -0.35648468 1.34221758 0.83806569
v 0.18610218 1.34221758 0.70896494
v 0.12470349 1.34221758 0.65863623
v 0.16815282 1.37124452 0.71427044
v 0.17934632 1.38370479 0.73549249
v 0.30923069 1.43625106 0.93938622
v 0.30923069 1.42262830 0.92317494
v 0.30923069 1.44842886 0.96259784
v 0.27843201 1.45319790 0.96082934
v 0.30426317 1.45319790 0.99502041
v 0.30638266 1.45319790 1.08668786
v -0.15208735 1.45319790 1.30369803
v -0.36741324 1.41225383 1.22278897
v -0.15712111 1.45319790 1.29986624
v -0.36741324 1.38333546 0.93223852
v -0.36741324 1.41557802 0.99700999
v -0.36741324 1.42784277 1.02670612
v -0.35880287 1.43249230 1.00887370
v -0.33807170 1.45319790 0.99605205
v -0.33303794 1.45319790 0.98028291
v -0.31641326 1.45319790 0.93002791
v -0.31303534 1.45319790 0.92383814
v -0.30429250 1.45319790 0.90873216
v -0.29409251 1.45319790 0.89509995
v -0.27303016 1.45319790 0.86731971
v -0.27654056 1.44866791 0.86422483
v -0.26793018 1.43942315 0.84189745
v -0.28958860 1.42782106 0.85280324
v -0.32032106 1.42527896 0.88662588
v -0.34264182 1.34221758 0.81993853
v -0.34780807 1.34221758 0.82649676
v 0.10927102 1.34221758 0.64817259
v 0.16888140 1.40069517 0.74765096
v 0.26445667 1.45319790 0.94653394
v 0.11417232 1.45319790 0.81817005
v -0.36741324 1.42233506 1.19021901
v -0.17639513 1.45319790 1.28409709
v -0.18507175 1.45319790 1.27672833
v -0.19368214 1.45319790 1.26884374
v -0.36741324 1.43437163 1.06008662
v -0.34376780 1.45319790 1.02759035
v -0.26726784 1.45319790 0.86054044
v -0.17884577 1.34221758 0.62798219
v 0.05615156 1.34221758 0.63019287
v 0.04873338 1.37577461 0.67425805
v 0.04873338 1.39203708 0.69746969
v 0.10748271 1.43492572 0.77749444
v 0.10324375 1.45319790 0.81043282
v -0.36741324 1.43050430 1.15934390
v -0.33045483 1.45319790 1.08027703
v -0.36741324 1.43393715 1.14526955
v -0.36741324 1.43322010 1.14902762
v -0.36741324 1.43858667 1.08735106
v -0.36741324 1.43750029 1.11852092
v -0.33952885 1.45319790 1.05979188
v -0.24534445 1.45319790 0.84300278
v -0.14718604 1.37628518 0.66792094
v -0.13698605 1.36812671 0.65089905
v -0.14645748 1.34221758 0.61604480
v 0.03800351 1.34221758 0.62599265
v 0.02873079 1.36553042 0.65428868
v 0.01720611 1.37677404 0.66703666
v 0.01621260 1.39489412 0.69444848
v 0.08436712 1.45319790 0.80026396
v -0.33946260 1.45319790 1.06001293
v -0.23660161 1.45319790 0.83939209
v -0.11380424 1.39765346 0.68811131
v -0.11380424 1.38505194 0.66983681
v -0.11380424 1.35705700 0.63255082
v -0.11380424 1.34221758 0.61398157
v -0.11380424 1.36979976 0.64883583
v -0.01630816 1.34221758 0.61722380
v 0.00700612 1.36721423 0.65222545
v -0.01630816 1.36855042 0.65045691
v -0.01630816 1.38221651 0.66983681
v -0.04876270 1.39749050 0.68833238
v 0.08204895 1.45319790 0.79974810
v -0.21620163 1.45319790 0.83637088
v -0.11380424 1.40502964 0.70439628
v -0.08128346 1.40605078 0.70314364
v -0.08128346 1.39822917 0.68685864
v -0.08128346 1.38622518 0.66983681
v -0.08128346 1.37039718 0.64817259
v -0.08128346 1.35742633 0.63188762
v -0.08128346 1.34221758 0.61324465
v -0.04876270 1.34221758 0.61390785
v -0.04876270 1.35710043 0.63255082
v -0.01630816 1.35572081 0.63417197
v -0.04876270 1.36982147 0.64876210
v -0.04876270 1.38491070 0.66983681
v 0.04860091 1.45319790 0.80262191
v -0.05147828 1.34221758 0.61383413
f 1 2 3
f 1 3 4
f 1 4 5
f 1 5 6
f 1 6 7
f 1 7 12
f 1 12 20
f 1 20 31
f 1 31 30
f 1 30 43
f 1 43 32
f 1 32 21
f 1 21 13
f 1 13 8
f 1 8 14
f 1 14 26
f 1 26 38
f 1 38 53
f 1 53 52
f 1 52 54
f 1 54 40
f 1 40 27
f 1 27 15
f 1 15 9
f 1 9 10
f 1 10 2
f 2 10 18
f 2 18 17
f 2 17 16
f 2 16 28
f 2 28 41
f 2 41 57
f 2 57 56
f 2 56 55
f 2 55 80
f 2 80 81
f 2 81 94
f 2 94 110
f 2 110 123
f 2 123 137
f 2 137 124
f 2 124 112
f 2 112 102
f 2 102 88
f 2 88 71
f 2 71 70
f 2 70 69
f 2 69 68
f 2 68 67
f 2 67 66
f 2 66 65
f 2 65 87
f 2 87 101
f 2 101 111
f 2 111 96
f 2 96 85
f 2 85 84
f 2 84 83
f 2 83 60
f 2 60 58
f 2 58 42
f 2 42 29
f 2 29 19
f 2 19 11
f 2 11 5
f 2 5 4
f 2 4 3
f 5 11 6
f 6 11 12
f 6 12 7
f 8 13 24
f 8 24 34
f 8 34 47
f 8 47 77
f 8 77 76
f 8 76 89
f 8 89 105
f 8 105 116
f 8 116 131
f 8 131 138
f 8 138 132
f 8 132 118
f 8 118 106
f 8 106 90
f 8 90 78
f 8 78 49
f 8 49 48
f 8 48 35
f 8 35 25
f 8 25 14
f 9 15 16
f 9 16 17
f 9 17 18
f 9 18 10
f 11 19 20
f 11 20 12
f 13 21 22
f 13 22 23
f 13 23 24
f 14 25 26
f 15 27 16
f 16 27 28
f 19 29 30
f 19 30 31
f 19 31 20
f 21 32 33
f 21 33 22
f 22 33 44
f 22 44 59
f 22 59 82
f 22 82 95
f 22 95 98
f 22 98 97
f 22 97 100
f 22 100 99
f 22 99 86
f 22 86 63
f 22 63 62
f 22 62 61
f 22 61 45
f 22 45 34
f 22 34 24
f 22 24 23
f 25 35 36
f 25 36 37
f 25 37 26
f 26 37 38
f 27 39 28
f 27 40 39
f 28 39 41
f 29 42 30
f 30 42 44
f 30 44 43
f 32 43 33
f 33 43 44
f 34 45 46
f 34 46 47
f 35 48 36
f 36 48 49
f 36 49 50
f 36 50 37
f 37 50 51
f 37 51 52
f 37 52 53
f 37 53 38
f 39 40 41
f 40 54 55
f 40 55 56
f 40 56 57
f 40 57 41
f 42 58 44
f 44 58 60
f 44 60 59
f 45 61 46
f 46 61 62
f 46 62 63
f 46 63 64
f 46 64 65
f 46 65 66
f 46 66 67
f 46 67 68
f 46 68 69
f 46 69 70
f 46 70 71
f 46 71 72
f 46 72 73
f 46 73 74
f 46 74 75
f 46 75 76
f 46 76 77
f 46 77 47
f 49 78 50
f 50 78 79
f 50 79 51
f 51 79 52
f 52 79 54
f 54 80 55
f 54 79 81
f 54 81 80
f 59 60 83
f 59 83 84
f 59 84 85
f 59 85 82
f 63 86 65
f 63 65 64
f 65 86 87
f 71 88 72
f 72 88 73
f 73 88 89
f 73 89 74
f 74 89 76
f 74 76 75
f 78 90 79
f 79 90 91
f 79 91 92
f 79 92 93
f 79 93 94
f 79 94 81
f 82 85 95
f 85 96 97
f 85 97 98
f 85 98 95
f 86 99 87
f 87 99 100
f 87 100 101
f 88 102 89
f 89 103 104
f 89 104 105
f 89 102 103
f 90 106 107
f 90 107 91
f 91 107 108
f 91 108 92
f 92 108 109
f 92 109 110
f 92 110 93
f 93 110 94
f 96 111 100
f 96 100 97
f 100 111 101
f 102 112 113
f 102 113 103
f 103 113 104
f 104 113 114
f 104 114 105
f 105 115 116
f 105 114 117
f 105 117 115
f 106 118 119
f 106 119 107
f 107 119 108
f 108 119 120
f 108 120 121
f 108 121 109
f 109 121 122
f 109 122 123
f 109 123 110
f 112 124 125
f 112 125 113
f 113 125 126
f 113 126 127
f 113 127 114
f 114 128 117
f 114 127 128
f 115 129 130
f 115 130 116
f 115 117 129
f 116 130 131
f 117 128 129
f 118 132 133
f 118 133 134
f 118 134 119
f 119 134 120
f 120 135 136
f 120 136 121
f 120 134 133
f 120 133 135
f 121 136 122
f 122 136 127
f 122 127 123
f 123 127 126
f 123 126 137
f 124 137 125
f 125 137 126
f 127 136 128
f 128 136 135
f 128 135 129
f 129 133 130
f 129 135 133
f 130 133 132
f 130 132 138
f 130 138 131

