# https://github.com/mikedh/trimesh
v -0.33182941 -1.24491129 1.68377451
v -0.40789395 -1.24491129 1.70935565
v -0.33182941 -1.35558820 1.53207762
v -0.33182941 -1.24491129 0.96302788
v -0.63424226 -1.24491129 1.72494295
v -0.79159235 -1.29827803 1.69272415
v -0.79159235 -1.30333731 1.68847308
v -0.79159235 -1.32372632 1.66982793
v -0.79159235 -1.33363917 1.66043079
v -0.43912996 -1.35558820 1.54870908
v -0.33182941 -1.35558820 0.96302788
v -0.79159235 -1.24491129 0.96302788
v -0.79159235 -1.24491129 1.71837988
v -0.79159235 -1.24782553 1.71703743
v -0.79159235 -1.28331666 1.70010765
v -0.79159235 -1.29503876 1.69443950
v -0.79159235 -1.35183971 1.59263705
v -0.79150230 -1.35558820 1.58510440
v -0.78736150 -1.35558820 0.96302788
v -0.79159235 -1.35120051 0.96302788
v -0.79159235 -1.35558820 1.54304096
v -0.78911685 -1.35376810 0.96302788
v -0.79159235 -1.35558820 0.97466245
v -0.79159235 -1.35178562 0.96451952
f 1 2 3
f 1 3 11
f 1 11 4
f 1 4 12
f 1 12 13
f 1 13 5
f 1 5 2
f 2 5 6
f 2 6 7
f 2 7 8
f 2 8 9
f 2 9 3
f 3 10 18
f 3 18 21
f 3 21 23
f 3 23 19
f 3 19 11
f 3 9 10
f 4 11 19
f 4 19 22
f 4 22 20
f 4 20 12
f 5 13 14
f 5 14 15
f 5 15 16
f 5 16 6
f 6 16 15
f 6 15 14
f 6 14 13
f 6 13 12
f 6 12 20
f 6 20 24
f 6 24 23
f 6 23 21
f 6 21 17
f 6 17 9
f 6 9 8
f 6 8 7
f 9 17 18
f 9 18 10
f 17 21 18
f 19 23 24
f 19 24 22
f 20 22 24

