# https://github.com/mikedh/trimesh
v 0.50215437 -0.95879676 0.28362147
v 0.51041260 -0.95879676 0.28420678
v 0.48333125 -0.95879676 0.28479209
v 0.48599378 -0.94376472 0.26274545
v 0.48895537 -0.94376472 0.26274545
v 0.53231127 -0.95879676 0.28966971
v 0.38686623 -0.95879676 0.29922980
v 0.41484464 -0.85066495 0.15699927
v 0.43912105 -0.85126839 0.15699927
v 0.53231127 -0.95221333 0.28537741
v 0.53231127 -0.95879676 1.57462157
v 0.44228199 -0.83140856 0.13924493
v 0.45522468 -0.81292026 0.13339173
v 0.38686623 -0.81396268 0.13261139
v 0.38836125 -0.81489522 0.13163581
v 0.40503440 -0.83755306 0.14743927
v 0.38686623 -0.95879676 1.85381468
v 0.40658637 -0.82103971 0.12792891
v 0.43353962 -0.82191758 0.12773377
v 0.53231127 -0.88994567 0.24674693
v 0.49023685 -0.81621192 0.16402299
v 0.53231127 -0.92856809 1.68075786
v 0.52446590 -0.95879676 1.70982827
v 0.44228199 -0.80002783 0.12129536
v 0.46054981 -0.79124997 0.12851421
v 0.38686623 -0.81078065 0.13027014
v 0.40658637 -0.79690072 0.11466181
v 0.40482082 -0.95879676 1.84542521
v 0.38686623 -0.88440471 1.99370387
v 0.52282848 -0.81659599 0.19562983
v 0.53231127 -0.79690072 0.19543469
v 0.51092520 -0.79690072 0.17436353
v 0.53231127 -0.87551717 1.84913220
v 0.52311323 -0.95879676 1.73226520
v 0.43912105 -0.76436793 0.11154023
v 0.46658690 -0.76436793 0.12480722
v 0.48284714 -0.76436793 0.13826935
v 0.38686623 -0.79690072 0.12363661
v 0.40658637 -0.76436793 0.11017446
v 0.40519099 -0.95879676 1.84523012
v 0.52258642 -0.78274650 1.98999699
v 0.52302782 -0.75180465 2.02374982
v 0.50972918 -0.74000946 2.04540640
v 0.48804412 -0.74812892 2.05223497
v 0.38686623 -0.86191147 2.00911707
v 0.41655322 -0.95879676 1.83801131
v 0.42926810 -0.95879676 1.82981697
v 0.44596970 -0.95879676 1.81635479
v 0.46497798 -0.95879676 1.80035633
v 0.48115276 -0.95879676 1.78630884
v 0.49826727 -0.95879676 1.77011526
v 0.53231127 -0.85697395 1.88093408
v 0.52751290 -0.84989682 1.89576192
v 0.53231127 -0.84797667 1.89342068
v 0.52792579 -0.79690072 0.19075221
v 0.53231127 -0.78241730 0.18880114
v 0.53231127 -0.76387418 0.18158239
v 0.52305628 -0.95879676 1.73265541
v 0.53231127 -0.86536779 1.86844743
v 0.43912105 -0.73183509 0.11934429
v 0.46523423 -0.70840927 0.13027014
v 0.53000463 -0.63429150 0.16168175
v 0.47010375 -0.73183509 0.12617297
v 0.48636399 -0.73183509 0.13417219
v 0.53231127 -0.69930226 0.16441326
v 0.53231127 -0.73512676 0.17319291
v 0.38686623 -0.76436793 0.11953943
v 0.38686623 -0.39833255 0.21767648
v 0.53231127 -0.82383772 1.92444217
v 0.53231127 -0.81917444 1.93029526
v 0.53231127 -0.79267641 1.96346289
v 0.53231127 -0.78834233 1.96853554
v 0.52637383 -0.73024410 2.03506585
v 0.52183181 -0.71828431 2.05399090
v 0.53231127 -0.76392904 1.99331370
v 0.50098681 -0.73024410 2.05886852
v 0.47162728 -0.70961624 2.08325641
v 0.43912105 -0.71411487 2.08384173
v 0.38686623 -0.72459336 2.07954951
v 0.51452751 -0.95879676 1.74884900
v 0.52307053 -0.61668097 0.16499857
v 0.40658637 -0.39833255 0.21767648
v 0.53231127 -0.60702539 0.17046141
v 0.53231127 -0.63429150 0.16246219
v 0.53231127 -0.66682434 0.15914547
v 0.53231127 -0.65091453 0.16070626
v 0.53231127 -0.67845492 0.16090141
v 0.38686623 -0.39833255 2.10042553
v 0.53231127 -0.73095732 2.02062823
v 0.52369704 -0.69930226 2.05672232
v 0.50184112 -0.69831475 2.07428162
v 0.53231127 -0.70149673 2.03799240
v 0.48945374 -0.68679385 2.08540261
v 0.47162728 -0.69332236 2.08754871
v 0.43912105 -0.69787587 2.08988995
v 0.38686623 -0.71384054 2.08423199
v 0.53231127 -0.39833255 0.23582108
v 0.38686623 -0.40606802 2.10335208
v 0.39878373 -0.39833255 2.09262137
v 0.53231127 -0.69930226 2.03857771
v 0.53231127 -0.67554728 2.04150426
v 0.52393909 -0.66682434 2.05672232
v 0.48945374 -0.67861952 2.08540261
v 0.38686623 -0.42334937 2.10296191
v 0.38686623 -0.43925918 2.10257164
v 0.40658637 -0.69743698 2.08988995
v 0.38686623 -0.70012521 2.08930464
v 0.53231127 -0.39833255 1.96560899
v 0.40050658 -0.40661666 2.09457243
v 0.53231127 -0.66682434 2.04150426
v 0.52214502 -0.64696446 2.05418604
v 0.50184112 -0.66742777 2.07467189
v 0.38686623 -0.66583683 2.09125571
f 1 2 6
f 1 6 11
f 1 11 23
f 1 23 34
f 1 34 58
f 1 58 80
f 1 80 51
f 1 51 50
f 1 50 49
f 1 49 48
f 1 48 47
f 1 47 46
f 1 46 40
f 1 40 28
f 1 28 17
f 1 17 7
f 1 7 3
f 1 3 4
f 1 4 5
f 1 5 2
f 2 5 6
f 3 7 4
f 4 7 8
f 4 8 9
f 4 9 5
f 5 9 6
f 6 10 20
f 6 20 31
f 6 31 56
f 6 56 57
f 6 57 66
f 6 66 65
f 6 65 87
f 6 87 85
f 6 85 86
f 6 86 84
f 6 84 83
f 6 83 97
f 6 97 108
f 6 108 110
f 6 110 101
f 6 101 100
f 6 100 92
f 6 92 89
f 6 89 75
f 6 75 72
f 6 72 71
f 6 71 70
f 6 70 69
f 6 69 54
f 6 54 52
f 6 52 59
f 6 59 33
f 6 33 22
f 6 22 11
f 6 9 12
f 6 12 13
f 6 13 10
f 7 14 15
f 7 15 16
f 7 16 8
f 7 17 29
f 7 29 45
f 7 45 79
f 7 79 96
f 7 96 107
f 7 107 113
f 7 113 105
f 7 105 104
f 7 104 98
f 7 98 88
f 7 88 68
f 7 68 67
f 7 67 38
f 7 38 26
f 7 26 14
f 8 16 18
f 8 18 19
f 8 19 9
f 9 19 12
f 10 13 21
f 10 21 20
f 11 22 23
f 12 19 13
f 13 19 24
f 13 24 25
f 13 25 21
f 14 26 15
f 15 26 27
f 15 27 18
f 15 18 16
f 17 28 29
f 18 27 19
f 19 27 24
f 20 21 30
f 20 30 31
f 21 25 32
f 21 32 30
f 22 33 34
f 22 34 23
f 24 27 35
f 24 35 36
f 24 36 25
f 25 36 37
f 25 37 32
f 26 38 27
f 27 39 35
f 27 38 39
f 28 40 29
f 29 41 42
f 29 42 43
f 29 43 44
f 29 44 45
f 29 40 46
f 29 46 47
f 29 47 48
f 29 48 49
f 29 49 50
f 29 50 51
f 29 51 52
f 29 52 53
f 29 53 54
f 29 54 41
f 30 32 55
f 30 55 31
f 31 55 56
f 32 37 57
f 32 57 56
f 32 56 55
f 33 58 34
f 33 59 58
f 35 39 60
f 35 60 61
f 35 61 62
f 35 62 63
f 35 63 36
f 36 63 64
f 36 64 65
f 36 65 37
f 37 65 66
f 37 66 57
f 38 67 39
f 39 67 68
f 39 68 60
f 41 54 69
f 41 69 70
f 41 70 71
f 41 71 72
f 41 72 42
f 42 73 74
f 42 74 43
f 42 72 75
f 42 75 73
f 43 74 76
f 43 76 44
f 44 76 77
f 44 77 45
f 45 77 78
f 45 78 79
f 51 80 59
f 51 59 52
f 52 54 53
f 58 59 80
f 60 81 61
f 60 68 82
f 60 82 81
f 61 81 62
f 62 81 83
f 62 83 84
f 62 84 63
f 63 85 64
f 63 84 86
f 63 86 85
f 64 85 87
f 64 87 65
f 68 88 99
f 68 99 108
f 68 108 97
f 68 97 82
f 73 75 89
f 73 89 74
f 74 90 91
f 74 91 76
f 74 89 92
f 74 92 90
f 76 91 77
f 77 91 93
f 77 93 94
f 77 94 95
f 77 95 78
f 78 95 96
f 78 96 79
f 81 82 97
f 81 97 83
f 88 98 99
f 90 92 100
f 90 100 101
f 90 101 102
f 90 102 93
f 90 93 91
f 93 103 98
f 93 98 94
f 93 102 103
f 94 98 104
f 94 104 105
f 94 105 95
f 95 106 107
f 95 107 96
f 95 105 106
f 98 109 99
f 98 103 109
f 99 109 108
f 101 110 102
f 102 111 112
f 102 112 103
f 102 110 108
f 102 108 111
f 103 112 109
f 105 113 106
f 106 113 107
f 108 109 111
f 109 112 111

