# https://github.com/mikedh/trimesh
v -1.09997183 0.21446155 1.42345172
v -1.09997183 0.37394922 1.35992213
v -1.21979801 0.27648946 1.38535902
v -1.20624903 0.23348156 1.40302699
v -1.20624903 0.21698098 1.40302699
v -1.20167521 0.21446155 1.40352821
v -1.09997183 0.21446155 0.14358716
v -1.09997183 0.39500963 1.34964711
v -1.25228960 0.39570157 1.32847058
v -1.25228960 0.36727802 1.34112638
v -1.21979801 0.31997643 1.36681387
v -1.21979801 0.30372426 1.37383094
v -1.24025081 0.29964347 1.37157544
v -1.24292610 0.27648946 1.37520930
v -1.24180424 0.24396738 1.37633704
v -1.20987363 0.21446155 1.39914255
v -1.35282789 0.21446155 0.26601011
v -1.14329398 0.22138113 0.16300941
v -1.09997183 0.21772617 0.14333658
v -1.09997183 0.39561287 1.34914589
v -1.27002397 0.36121008 1.33799374
v -1.09997183 0.39570157 1.34826875
v -1.28266679 0.39570157 1.31606536
v -1.27196574 0.34151587 1.34049983
v -1.27343279 0.30899380 1.34325654
v -1.27170681 0.27648946 1.34137698
v -1.36974246 0.21934074 1.17785405
v -1.23874063 0.21806327 1.37307909
v -1.23308808 0.21446155 1.37759009
v -1.38281674 0.21446155 0.28204904
v -1.14044614 0.26199380 0.16451301
v -1.14359604 0.24396738 0.16275882
v -1.09997183 0.24572389 0.14433901
v -1.29953822 0.39570157 1.30190591
v -1.09997183 0.39570157 0.30924027
v -1.39187819 0.39570157 1.15166533
v -1.43399201 0.31807798 1.08086803
v -1.37211569 0.21446155 1.16858148
v -1.24150218 0.21446155 1.36618736
v -1.39662455 0.21446155 0.31212222
v -1.52866198 0.32496208 0.68628283
v -1.36961305 0.26477938 0.29320125
v -1.35010948 0.27597491 0.28580828
v -1.34985055 0.24396738 0.27377899
v -1.17078019 0.29263517 0.19834545
v -1.09997183 0.27327806 0.15749607
v -1.09997183 0.25310478 0.14671980
v -1.31843768 0.27822823 0.26851614
v -1.09997183 0.33173973 0.21902072
v -1.16102845 0.32299265 0.23480916
v -1.21932331 0.39570157 0.36562749
v -1.40128474 0.39570157 1.13525037
v -1.43399201 0.33223651 1.08086803
v -1.42493066 0.21446155 1.02460611
v -1.54074382 0.30899380 0.73490112
v -1.54048500 0.27648946 0.73490112
v -1.53224345 0.21446155 0.72688160
v -1.53107836 0.30329844 0.67951634
v -1.53401256 0.21446155 0.70420142
v -1.53940627 0.27648946 0.70244714
v -1.53617001 0.31208100 0.69931450
v -1.53276119 0.33113648 0.70796057
v -1.52167180 0.34179975 0.69931450
v -1.49901833 0.36074878 0.68189712
v -1.36223444 0.28789792 0.31212222
v -1.33945156 0.29684015 0.29094579
v -1.18726329 0.30207421 0.21902072
v -1.09997183 0.31092773 0.19345852
v -1.09997183 0.30487753 0.18619080
v -1.09997183 0.28871406 0.17102897
v -1.09997183 0.27879600 0.16200698
v -1.29755342 0.29023993 0.26450641
v -1.31735896 0.30124030 0.28493110
v -1.25228960 0.39570157 0.38154127
v -1.41034609 0.39570157 1.11394852
v -1.41845823 0.39570157 1.09264669
v -1.53107836 0.33179294 0.75407278
v -1.53349483 0.33456078 0.73490112
v -1.53401256 0.21446155 0.70583037
v -1.52486484 0.35083069 0.73490112
v -1.50652636 0.37577670 0.73665540
v -1.50367851 0.36623124 0.70244714
v -1.48758375 0.38250112 0.70244714
v -1.39860945 0.35776804 0.49105774
v -1.33366951 0.35787448 0.39331989
v -1.27274240 0.39307567 0.38968598
v -1.26221399 0.39570157 0.38692927
v -1.27080073 0.32629277 0.29470484
v -1.42121979 0.39570157 1.08124393
v -1.42635458 0.39570157 1.05981680
v -1.49690402 0.39108852 0.75357157
v -1.49690402 0.39108852 0.74868465
v -1.49345207 0.38777066 0.72700691
v -1.47213614 0.39570157 0.70244714
v -1.47045340 0.39570157 0.69931450
v -1.39856632 0.39025461 0.55609099
v -1.36232071 0.38716741 0.49707234
v -1.34065969 0.39422894 0.48165982
v -1.33233186 0.38934975 0.45998212
v -1.28258051 0.39570157 0.40948416
v -1.49198492 0.39570157 0.75795723
v -1.49081992 0.39570157 0.74542671
v -1.48659130 0.39570157 0.73252033
v -1.39226653 0.39570157 0.56235622
v -1.34454321 0.39570157 0.49168425
v -1.33621529 0.39570157 0.47978030
f 1 2 3
f 1 3 4
f 1 4 5
f 1 5 6
f 1 6 16
f 1 16 29
f 1 29 39
f 1 39 38
f 1 38 54
f 1 54 57
f 1 57 79
f 1 79 59
f 1 59 40
f 1 40 30
f 1 30 17
f 1 17 7
f 1 7 19
f 1 19 33
f 1 33 47
f 1 47 46
f 1 46 71
f 1 71 70
f 1 70 69
f 1 69 68
f 1 68 49
f 1 49 35
f 1 35 22
f 1 22 20
f 1 20 8
f 1 8 2
f 2 8 9
f 2 9 10
f 2 10 11
f 2 11 12
f 2 12 3
f 3 12 10
f 3 10 13
f 3 13 4
f 4 13 14
f 4 14 15
f 4 15 5
f 5 15 16
f 5 16 6
f 7 17 18
f 7 18 19
f 8 20 9
f 9 21 10
f 9 20 22
f 9 22 35
f 9 35 51
f 9 51 74
f 9 74 87
f 9 87 100
f 9 100 106
f 9 106 105
f 9 105 104
f 9 104 95
f 9 95 94
f 9 94 103
f 9 103 102
f 9 102 101
f 9 101 90
f 9 90 89
f 9 89 76
f 9 76 75
f 9 75 52
f 9 52 36
f 9 36 34
f 9 34 23
f 9 23 21
f 10 21 13
f 10 12 11
f 13 21 14
f 14 21 24
f 14 24 25
f 14 25 15
f 15 25 26
f 15 26 27
f 15 27 28
f 15 28 29
f 15 29 16
f 17 30 31
f 17 31 32
f 17 32 18
f 18 32 19
f 19 32 33
f 21 23 34
f 21 34 24
f 24 34 25
f 25 27 26
f 25 34 36
f 25 36 37
f 25 37 27
f 27 38 39
f 27 39 28
f 27 37 38
f 28 39 29
f 30 40 41
f 30 41 42
f 30 42 43
f 30 43 44
f 30 44 31
f 31 45 46
f 31 46 47
f 31 47 33
f 31 33 32
f 31 44 48
f 31 48 45
f 35 49 50
f 35 50 51
f 36 52 53
f 36 53 37
f 37 54 38
f 37 53 55
f 37 55 56
f 37 56 57
f 37 57 54
f 40 58 41
f 40 59 60
f 40 60 58
f 41 58 61
f 41 61 62
f 41 62 63
f 41 63 64
f 41 64 65
f 41 65 42
f 42 65 66
f 42 66 43
f 43 66 48
f 43 48 44
f 45 67 50
f 45 50 49
f 45 49 68
f 45 68 69
f 45 69 70
f 45 70 71
f 45 71 46
f 45 48 72
f 45 72 66
f 45 66 73
f 45 73 67
f 48 66 72
f 50 67 74
f 50 74 51
f 52 75 53
f 53 75 76
f 53 76 77
f 53 77 55
f 55 77 78
f 55 78 62
f 55 62 61
f 55 61 60
f 55 60 56
f 56 60 59
f 56 59 79
f 56 79 57
f 58 60 61
f 62 78 80
f 62 80 81
f 62 81 82
f 62 82 63
f 63 82 64
f 64 82 83
f 64 83 84
f 64 84 65
f 65 84 66
f 66 84 85
f 66 85 86
f 66 86 87
f 66 87 73
f 67 73 88
f 67 88 74
f 73 87 74
f 73 74 88
f 76 89 77
f 77 89 90
f 77 90 80
f 77 80 78
f 80 90 91
f 80 91 92
f 80 92 81
f 81 92 93
f 81 93 82
f 82 93 83
f 83 93 94
f 83 94 95
f 83 95 96
f 83 96 84
f 84 96 85
f 85 96 97
f 85 97 98
f 85 98 99
f 85 99 86
f 86 99 98
f 86 98 100
f 86 100 87
f 90 101 91
f 91 101 92
f 92 102 93
f 92 101 102
f 93 102 103
f 93 103 94
f 95 104 96
f 96 104 98
f 96 98 97
f 98 104 105
f 98 105 106
f 98 106 100

