# https://github.com/mikedh/trimesh
v -0.73037831 0.04201442 2.11643460
v -0.73037831 0.05629047 2.11216392
v -0.82274757 0.04201442 2.07596436
v -0.73037831 0.04201442 0.21067505
v -0.73037831 0.08050164 2.10423257
v -0.86169103 0.08185300 2.04627272
v -0.85860037 0.04201442 2.05969501
v -0.75762106 0.04201442 0.14580073
v -0.73037831 0.04205971 0.15434220
v -0.73037831 0.10876689 2.08877662
v -0.86372217 0.11913987 2.03122353
v -0.86469349 0.11619556 2.03183356
v -0.88275230 0.10692481 2.02451233
v -0.87281774 0.04879384 2.04932326
v -0.87445143 0.04201442 2.05013666
v -1.03119674 0.04201442 0.04472697
v -0.84319076 0.09006683 0.09902614
v -0.86200017 0.11384013 0.08519711
v -0.86200017 0.11913987 0.08397695
v -0.84327897 0.11913987 0.09312845
v -0.73037831 0.05050003 0.15535898
v -0.73037831 0.11913987 2.08125193
v -0.87970575 0.11913987 2.02146180
v -0.88663786 0.08131699 2.02939315
v -0.93463280 0.11913987 1.98119503
v -0.95145538 0.11913987 1.96492558
v -1.13005665 0.04201442 1.76847230
v -1.04682707 0.04201442 0.03943939
v -1.05711488 0.04201442 0.03882926
v -0.89449718 0.11913987 0.08316344
v -0.83917270 0.11913987 0.09577224
v -0.73037831 0.11913987 0.16796778
v -0.96629092 0.11913987 1.93991138
v -1.13879907 0.06538759 1.72759540
v -1.13840163 0.04201442 1.75891405
v -1.08351878 0.04201442 0.04554036
v -1.08122271 0.07043819 0.06343682
v -1.05711488 0.05145126 0.04574373
v -1.05711488 0.07222742 0.06201318
v -1.05711488 0.11913987 0.10065305
v -0.97105957 0.11913987 1.93157328
v -1.14829209 0.04201442 1.74081427
v -1.14281706 0.04201442 1.75118603
v -0.97843314 0.11913987 1.91306680
v -1.18140728 0.11913987 1.39386884
v -1.09098067 0.04201442 0.05082793
v -1.08921455 0.04747269 0.05306505
v -1.10290216 0.06067672 0.07401194
v -1.09287928 0.11913987 0.11753262
v -1.09146643 0.11913987 0.11631238
v -1.07967733 0.10527903 0.09455209
v -1.15425279 0.04201442 1.71051250
v -1.18140728 0.11913987 0.20355720
v -1.18140728 0.04201442 1.43311884
v -1.10148929 0.04201442 0.06038628
v -1.18140728 0.11588604 0.20254033
v -1.10987848 0.04201442 0.07035129
v -1.14555458 0.04201442 0.12465048
v -1.18140728 0.04201442 0.18220356
f 1 2 3
f 1 3 7
f 1 7 15
f 1 15 27
f 1 27 35
f 1 35 43
f 1 43 42
f 1 42 52
f 1 52 54
f 1 54 59
f 1 59 58
f 1 58 57
f 1 57 55
f 1 55 46
f 1 46 36
f 1 36 29
f 1 29 28
f 1 28 16
f 1 16 8
f 1 8 4
f 1 4 9
f 1 9 21
f 1 21 32
f 1 32 22
f 1 22 10
f 1 10 5
f 1 5 2
f 2 5 6
f 2 6 3
f 3 6 7
f 4 8 9
f 5 10 11
f 5 11 6
f 6 11 12
f 6 12 13
f 6 13 14
f 6 14 7
f 7 14 15
f 8 16 9
f 9 16 17
f 9 17 18
f 9 18 19
f 9 19 20
f 9 20 21
f 10 22 11
f 11 23 12
f 11 22 32
f 11 32 31
f 11 31 20
f 11 20 19
f 11 19 30
f 11 30 40
f 11 40 50
f 11 50 49
f 11 49 53
f 11 53 45
f 11 45 44
f 11 44 41
f 11 41 33
f 11 33 26
f 11 26 25
f 11 25 23
f 12 23 13
f 13 24 14
f 13 23 25
f 13 25 24
f 14 24 15
f 15 24 25
f 15 25 26
f 15 26 27
f 16 28 18
f 16 18 17
f 18 28 19
f 19 28 29
f 19 29 30
f 20 31 21
f 21 31 32
f 26 33 34
f 26 34 35
f 26 35 27
f 29 36 37
f 29 37 38
f 29 38 30
f 30 38 39
f 30 39 40
f 33 41 34
f 34 42 43
f 34 43 35
f 34 41 44
f 34 44 45
f 34 45 42
f 36 46 47
f 36 47 37
f 37 39 38
f 37 47 48
f 37 48 49
f 37 49 50
f 37 50 51
f 37 51 40
f 37 40 39
f 40 51 50
f 42 45 52
f 45 53 56
f 45 56 59
f 45 59 54
f 45 54 52
f 46 55 48
f 46 48 47
f 48 55 53
f 48 53 49
f 53 55 57
f 53 57 58
f 53 58 56
f 56 58 59

