# https://github.com/mikedh/trimesh
v -0.86177605 -1.24492418 0.96301577
v -0.86177605 -1.31772413 0.96301577
v -0.86177605 -1.24492418 0.83885496
v -1.26201973 -1.24492418 0.96301577
v -0.86197196 -1.30541158 0.83885496
v -0.86177605 -1.30535972 0.83892792
v -1.09014535 -1.37200334 0.96301577
v -1.07944972 -1.36499164 0.86497554
v -0.86177605 -1.29433024 0.83885496
v -1.22017752 -1.24492418 0.83885496
v -1.24348853 -1.24492418 0.87755570
v -1.23714163 -1.27105287 0.87916012
v -1.25829780 -1.25321905 0.96301577
v -1.05715735 -1.35553033 0.83885496
v -1.09574777 -1.36793370 0.86497554
v -1.12172291 -1.37727831 0.96301577
v -1.09884289 -1.36709132 0.84630584
v -1.21876708 -1.24952523 0.83885496
v -1.22433034 -1.24492418 0.84213674
v -1.24113780 -1.24492418 0.86926617
v -1.24015833 -1.25228583 0.87170928
v -1.20791471 -1.31410816 0.86757665
v -1.20415363 -1.33452121 0.88014467
v -1.20673943 -1.33900555 0.89750166
v -1.21739580 -1.31733531 0.89750166
v -1.23353720 -1.24492418 0.85260200
v -1.23169586 -1.25228583 0.85544623
v -1.20348756 -1.30112160 0.84868818
v -1.25818022 -1.25345228 0.96301577
v -1.09253516 -1.36389004 0.83885496
v -1.12215380 -1.37731728 0.96301577
v -1.12215380 -1.37234030 0.89750166
v -1.12360341 -1.36915202 0.86250811
v -1.11376975 -1.36709132 0.84630584
v -1.21324299 -1.26121573 0.83885496
v -1.20744456 -1.28481706 0.84404506
v -1.18722868 -1.32508577 0.85640643
v -1.17034291 -1.33304368 0.84922298
v -1.13543525 -1.36543232 0.85001303
v -1.16983360 -1.36563967 0.88219883
v -1.18762050 -1.35715045 0.89482761
v -1.20764047 -1.33986093 0.96301577
v -1.20787554 -1.33952397 0.96301577
v -1.22209718 -1.31627258 0.96301577
v -1.17700321 -1.36933349 0.90387073
v -1.19502510 -1.35588027 0.93001562
v -1.20160708 -1.28540034 0.83885496
v -1.18726784 -1.30489316 0.83885496
v -1.18722868 -1.30883319 0.84160193
v -1.11956808 -1.35917228 0.83885496
v -1.15416235 -1.37631921 0.96301577
v -1.15467166 -1.37555456 0.93001562
v -1.15729664 -1.37191261 0.89482761
v -1.14816811 -1.36876320 0.87169713
v -1.12834396 -1.35717633 0.83885496
v -1.14863825 -1.34374910 0.84072680
v -1.14307501 -1.34579691 0.83885496
v -1.20744456 -1.34010724 0.96301577
v -1.17876621 -1.37053881 0.93001562
v -1.19435913 -1.35612659 0.96301577
v -1.18096020 -1.31143830 0.83885496
v -1.15028367 -1.34005538 0.83885496
v -1.15467166 -1.37628033 0.96301577
v -1.17770843 -1.37029259 0.96301577
v -1.17810015 -1.37009813 0.96301577
v -1.17833523 -1.36991666 0.96301577
f 1 2 6
f 1 6 9
f 1 9 3
f 1 3 10
f 1 10 19
f 1 19 26
f 1 26 20
f 1 20 11
f 1 11 4
f 1 4 13
f 1 13 29
f 1 29 44
f 1 44 43
f 1 43 42
f 1 42 58
f 1 58 60
f 1 60 66
f 1 66 65
f 1 65 64
f 1 64 63
f 1 63 51
f 1 51 31
f 1 31 16
f 1 16 7
f 1 7 2
f 2 5 6
f 2 7 8
f 2 8 5
f 3 9 5
f 3 5 14
f 3 14 30
f 3 30 50
f 3 50 55
f 3 55 57
f 3 57 62
f 3 62 61
f 3 61 48
f 3 48 47
f 3 47 35
f 3 35 18
f 3 18 10
f 4 11 12
f 4 12 13
f 5 9 6
f 5 8 14
f 7 15 8
f 7 16 15
f 8 15 17
f 8 17 14
f 10 18 19
f 11 20 21
f 11 21 12
f 12 22 23
f 12 23 24
f 12 24 25
f 12 25 13
f 12 21 26
f 12 26 27
f 12 27 28
f 12 28 22
f 13 25 24
f 13 24 29
f 14 17 30
f 15 16 17
f 16 31 17
f 17 31 32
f 17 32 33
f 17 33 34
f 17 34 30
f 18 35 19
f 19 35 36
f 19 36 26
f 20 26 21
f 22 28 23
f 23 28 37
f 23 37 38
f 23 38 39
f 23 39 40
f 23 40 41
f 23 41 24
f 24 42 43
f 24 43 44
f 24 44 29
f 24 41 45
f 24 45 46
f 24 46 42
f 26 36 28
f 26 28 27
f 28 47 48
f 28 48 49
f 28 49 37
f 28 36 47
f 30 34 50
f 31 51 52
f 31 52 32
f 32 52 33
f 33 52 53
f 33 53 54
f 33 54 34
f 34 54 39
f 34 39 55
f 34 55 50
f 35 47 36
f 37 49 38
f 38 49 56
f 38 56 39
f 39 56 57
f 39 57 55
f 39 54 40
f 40 45 41
f 40 54 45
f 42 46 58
f 45 54 53
f 45 53 52
f 45 52 59
f 45 59 46
f 46 59 60
f 46 60 58
f 48 61 49
f 49 61 62
f 49 62 56
f 51 63 52
f 52 63 59
f 56 62 57
f 59 63 64
f 59 64 65
f 59 65 66
f 59 66 60

