# https://github.com/mikedh/trimesh
v -0.16573184 -1.46542621 0.49672244
v -0.24396316 -1.46542621 0.53781983
v -0.24396316 -1.45525008 0.52920793
v -0.26200528 -1.43334225 0.52234018
v -0.16573184 -1.45854838 0.49301604
v -0.16573184 -1.46542621 1.14294353
v -0.26569498 -1.46542621 0.54992013
v -0.26597130 -1.41492020 0.52048697
v -0.24396316 -1.41492020 0.51187507
v -0.27416341 -1.44496149 0.54087216
v -0.29613905 -1.43489771 0.55231837
v -0.28222548 -1.41492020 0.53138816
v -0.16573184 -1.41827483 0.48767447
v -0.17447658 -1.46542621 1.13814700
v -0.16573184 -1.45292619 1.41721684
v -0.19245371 -1.46456414 1.43672992
v -0.21065836 -1.46540750 1.41678080
v -0.27008361 -1.46542621 0.55624280
v -0.26953097 -1.38238654 0.51885183
v -0.28580140 -1.38238654 0.52789975
v -0.24396316 -1.38238654 0.50947678
v -0.16573184 -1.41492020 0.48723844
v -0.31652176 -1.41433925 0.57292157
v -0.33178443 -1.38358595 0.57826317
v -0.33178443 -1.38238654 0.57750008
v -0.30060894 -1.41492020 0.54763090
v -0.28700419 -1.45742400 0.57226752
v -0.33178443 -1.46542621 0.67048701
v -0.30504632 -1.38238654 0.54414249
v -0.20633478 -1.46542621 1.11721678
v -0.16573184 -1.44745396 1.44937525
v -0.18053940 -1.45427556 1.44872121
v -0.21143856 -1.45766761 1.45460781
v -0.21143856 -1.46529505 1.43836509
v -0.23172378 -1.46518261 1.41787091
v -0.33178443 -1.46542621 1.01649001
v -0.31670056 -1.46542621 1.03524000
v -0.24430450 -1.46542621 1.08996387
v -0.28506995 -1.34987159 0.52724571
v -0.26881580 -1.34987159 0.51961487
v -0.33178443 -1.32717662 0.56027623
v -0.33178443 -1.30350724 0.55820501
v -0.33178443 -1.28482288 0.55689688
v -0.33178443 -1.27732659 0.55667887
v -0.32807848 -1.27397206 0.55417157
v -0.24396316 -1.34987159 0.51176608
v -0.16573184 -1.38238654 0.48560325
v -0.16573184 -1.38705293 0.48582126
v -0.32736330 -1.40313238 0.58414976
v -0.33178443 -1.38484158 0.57913527
v -0.33178443 -1.36610090 0.56856111
v -0.33178443 -1.39623584 0.59101751
v -0.33178443 -1.33465421 0.56125733
v -0.16573184 -1.44014514 1.46234765
v -0.17891397 -1.43774632 1.47292177
v -0.21143856 -1.44140078 1.47728226
v -0.24396316 -1.43909569 1.47771829
v -0.23078104 -1.46495771 1.43716598
v -0.33178443 -1.44985278 1.28771099
v -0.31548150 -1.27397206 0.54719482
v -0.30899609 -1.27397206 0.54392448
v -0.26075372 -1.27397206 0.52332130
v -0.28827202 -1.27397206 0.53422247
v -0.27619518 -1.27397206 0.52920793
v -0.26592254 -1.27397206 0.52517449
v -0.33132931 -1.27397206 0.55635180
v -0.33178443 -1.27397206 0.55667887
v -0.16573184 -1.34854102 0.48832857
v -0.16573184 -1.43487900 1.47030552
v -0.16573184 -1.40922307 1.49646827
v -0.17891397 -1.42099218 1.48916451
v -0.21143856 -1.42500269 1.49352495
v -0.24396316 -1.41100343 1.51096686
v -0.24396316 -1.42727036 1.49407003
v -0.33178443 -1.41360844 1.48556715
v -0.27647150 -1.40909191 1.51271101
v -0.33178443 -1.43924556 1.41787091
v -0.33178443 -1.44923431 1.29730402
v -0.25459338 -1.27397206 0.52168610
v -0.33178443 -1.27397206 1.59806716
v -0.24396316 -1.27397206 0.51983294
v -0.16573184 -1.27397206 0.50816866
v -0.16573184 -1.40262636 1.50257293
v -0.17891397 -1.40474406 1.50409911
v -0.21143856 -1.40873586 1.50726045
v -0.27647150 -1.39503643 1.52895375
v -0.33178443 -1.38519764 1.51369212
v -0.30179549 -1.37459042 1.53636653
v -0.30935367 -1.27397206 1.59926629
v -0.16573184 -1.27397206 1.56067614
v -0.16573184 -1.38274259 1.51271101
v -0.22567723 -1.27397206 1.58520377
v -0.17891397 -1.38238654 1.51663544
v -0.24396316 -1.39012644 1.52731861
v -0.27647150 -1.37876960 1.53821975
v -0.27907217 -1.27397206 1.59457876
v -0.17858889 -1.27397206 1.56645379
v -0.20433550 -1.27397206 1.57757297
v -0.26545118 -1.27397206 1.59228952
f 1 2 3
f 1 3 4
f 1 4 5
f 1 5 13
f 1 13 22
f 1 22 48
f 1 48 47
f 1 47 68
f 1 68 82
f 1 82 90
f 1 90 91
f 1 91 83
f 1 83 70
f 1 70 69
f 1 69 54
f 1 54 31
f 1 31 15
f 1 15 6
f 1 6 14
f 1 14 30
f 1 30 38
f 1 38 37
f 1 37 36
f 1 36 28
f 1 28 18
f 1 18 7
f 1 7 2
f 2 7 3
f 3 7 4
f 4 8 9
f 4 9 5
f 4 7 10
f 4 10 11
f 4 11 12
f 4 12 8
f 5 9 13
f 6 15 16
f 6 16 17
f 6 17 14
f 7 18 11
f 7 11 10
f 8 19 9
f 8 12 20
f 8 20 19
f 9 19 21
f 9 21 22
f 9 22 13
f 11 23 24
f 11 24 25
f 11 25 26
f 11 26 12
f 11 18 27
f 11 27 28
f 11 28 23
f 12 26 29
f 12 29 20
f 14 17 30
f 15 31 16
f 16 31 32
f 16 32 33
f 16 33 34
f 16 34 17
f 17 34 35
f 17 35 36
f 17 36 37
f 17 37 38
f 17 38 30
f 18 28 27
f 19 20 39
f 19 39 40
f 19 40 21
f 20 29 41
f 20 41 42
f 20 42 43
f 20 43 44
f 20 44 45
f 20 45 39
f 21 40 46
f 21 46 47
f 21 47 48
f 21 48 22
f 23 49 50
f 23 50 24
f 23 28 49
f 24 50 52
f 24 52 28
f 24 28 36
f 24 36 59
f 24 59 78
f 24 78 77
f 24 77 75
f 24 75 87
f 24 87 80
f 24 80 67
f 24 67 44
f 24 44 43
f 24 43 42
f 24 42 41
f 24 41 53
f 24 53 51
f 24 51 25
f 25 51 26
f 26 51 29
f 28 52 49
f 29 51 53
f 29 53 41
f 31 54 32
f 32 54 55
f 32 55 33
f 33 55 56
f 33 56 57
f 33 57 58
f 33 58 34
f 34 58 35
f 35 58 36
f 36 58 59
f 39 45 60
f 39 60 61
f 39 61 40
f 40 62 46
f 40 61 63
f 40 63 64
f 40 64 65
f 40 65 62
f 44 66 45
f 44 67 66
f 45 66 67
f 45 67 80
f 45 80 89
f 45 89 96
f 45 96 99
f 45 99 92
f 45 92 98
f 45 98 97
f 45 97 90
f 45 90 82
f 45 82 81
f 45 81 79
f 45 79 62
f 45 62 65
f 45 65 64
f 45 64 63
f 45 63 61
f 45 61 60
f 46 62 68
f 46 68 47
f 49 52 50
f 54 69 55
f 55 69 70
f 55 70 71
f 55 71 72
f 55 72 56
f 56 72 73
f 56 73 74
f 56 74 57
f 57 75 58
f 57 74 76
f 57 76 75
f 58 75 77
f 58 77 78
f 58 78 59
f 62 79 68
f 68 79 81
f 68 81 82
f 70 83 71
f 71 83 84
f 71 84 72
f 72 84 85
f 72 85 73
f 73 85 86
f 73 86 74
f 74 86 76
f 75 76 86
f 75 86 87
f 80 87 88
f 80 88 86
f 80 86 89
f 83 91 92
f 83 92 93
f 83 93 94
f 83 94 84
f 84 94 85
f 85 94 86
f 86 95 89
f 86 88 87
f 86 94 95
f 89 95 94
f 89 94 96
f 90 97 91
f 91 97 98
f 91 98 92
f 92 99 94
f 92 94 93
f 94 99 96

