# https://github.com/mikedh/trimesh
v 0.20527922 0.91892501 1.92088415
v 0.20527922 1.02459373 1.87461316
v 0.17584046 0.91892501 1.94007346
v 0.20527922 0.91892501 0.47007993
v 0.20527922 1.04507890 1.86532807
v 0.17516371 0.91892501 1.94007346
v 0.20527922 1.05053737 1.86254247
v 0.17888584 1.05374824 1.86408998
v 0.07663963 0.91892501 0.41932111
v 0.20527922 1.02459373 0.43727243
v 0.14713482 0.91894110 1.93852595
v 0.14713482 0.91892501 1.93852595
v 0.14634525 1.05395685 1.86393527
v 0.20527922 1.06680023 1.85263834
v 0.17888584 1.07001109 1.85465009
v 0.14634525 1.07021980 1.85465009
v 0.04945669 0.91892501 0.41080979
v 0.04877992 0.92703240 0.40941698
v -0.10540714 0.91892501 0.38233529
v -0.23162171 0.91892501 0.36206270
v 0.20527922 1.02973114 0.43851042
v -0.01630121 0.91892501 1.92336023
v -0.03446077 0.91892501 1.92165791
v 0.20527922 1.07998075 1.84412692
v 0.19885008 1.08293474 1.84304364
v 0.17888584 1.08293474 1.84521021
v 0.16760662 1.08293474 1.84521021
v 0.14651447 1.08293474 1.84381740
v -0.24391607 1.08293474 1.76891729
v -0.06874963 1.01080318 1.85929273
v -0.24391607 0.91892501 0.36067000
v 0.20527922 1.05928687 0.44748607
v -0.04517604 0.91892501 1.91995568
v 0.20527922 1.08293474 1.84211517
v -0.26794083 1.08293474 1.76365571
v -0.37075100 0.91892501 0.35912239
v -0.24391607 0.98492381 0.38960864
v 0.20527922 1.06379816 0.45027158
v -0.24391607 1.00117067 0.39703678
v -0.37075100 1.08293474 0.44206979
v -0.08245390 0.91892501 1.90927770
v 0.20527922 1.08293474 0.46481835
v -0.27155016 1.08293474 1.76056058
v -0.37075100 0.91892501 1.78129741
v -0.34469598 0.91892501 1.79599898
v -0.30081978 0.91892501 1.81704523
v -0.28767949 0.91892501 1.82292586
v -0.37075100 1.04748703 0.42257094
v 0.20527922 1.07994867 0.46249708
v -0.37075100 1.06374998 0.43108227
v -0.37075100 1.08293474 1.62236671
v -0.28536723 1.08293474 1.74663286
v -0.37075100 0.92586042 1.77510735
v -0.37075100 0.94260496 1.75885836
v -0.29534934 1.08293474 1.73239571
v -0.37075100 0.92634201 1.77464313
f 1 2 3
f 1 3 6
f 1 6 12
f 1 12 22
f 1 22 23
f 1 23 33
f 1 33 41
f 1 41 47
f 1 47 46
f 1 46 45
f 1 45 44
f 1 44 36
f 1 36 31
f 1 31 20
f 1 20 19
f 1 19 17
f 1 17 9
f 1 9 4
f 1 4 10
f 1 10 21
f 1 21 32
f 1 32 38
f 1 38 49
f 1 49 42
f 1 42 34
f 1 34 24
f 1 24 14
f 1 14 7
f 1 7 5
f 1 5 2
f 2 5 3
f 3 5 7
f 3 7 8
f 3 8 6
f 4 9 10
f 6 11 12
f 6 8 13
f 6 13 11
f 7 14 15
f 7 15 8
f 8 15 16
f 8 16 13
f 9 17 10
f 10 17 18
f 10 18 19
f 10 19 20
f 10 20 21
f 11 22 12
f 11 13 22
f 13 16 23
f 13 23 22
f 14 24 15
f 15 24 25
f 15 25 26
f 15 26 16
f 16 26 27
f 16 27 28
f 16 28 29
f 16 29 30
f 16 30 23
f 17 19 18
f 20 31 21
f 21 31 32
f 23 30 33
f 24 34 25
f 25 34 42
f 25 42 40
f 25 40 51
f 25 51 55
f 25 55 52
f 25 52 43
f 25 43 35
f 25 35 29
f 25 29 28
f 25 28 27
f 25 27 26
f 29 35 30
f 30 35 33
f 31 36 37
f 31 37 32
f 32 37 39
f 32 39 40
f 32 40 38
f 33 35 41
f 35 43 44
f 35 44 45
f 35 45 46
f 35 46 47
f 35 47 41
f 36 48 39
f 36 39 37
f 36 44 53
f 36 53 56
f 36 56 54
f 36 54 51
f 36 51 40
f 36 40 50
f 36 50 48
f 38 40 49
f 39 48 50
f 39 50 40
f 40 42 49
f 43 52 44
f 44 52 53
f 51 54 55
f 52 55 53
f 53 55 56
f 54 56 55

