# https://github.com/mikedh/trimesh
v 0.28143581 -0.17890108 2.41315858
v 0.27062616 -0.14638346 2.42188026
v 0.27242776 -0.17890108 2.42348671
v 0.28143581 -0.21143806 2.41269968
v 0.28143581 -0.14638346 2.40925703
v 0.27920750 -0.12638899 2.40902748
v 0.25578661 -0.14638346 2.43817569
v 0.24156340 -0.17890108 2.45768441
v 0.25782529 -0.17890108 2.43978233
v 0.27242776 -0.21143806 2.42279826
v 0.28143581 -0.22427090 2.41132258
v 0.25623701 -0.24393631 2.43771659
v 0.28143581 -0.13184731 2.40719129
v 0.28143581 -0.12638899 2.40627330
v 0.26349087 -0.12638899 2.42578200
v 0.23952476 -0.14638346 2.45470066
v 0.22636827 -0.17890108 2.47397983
v 0.24085225 -0.21143806 2.45676621
v 0.27027059 -0.24393631 2.42142116
v 0.28143581 -0.24393631 2.40810929
v 0.22513561 -0.21143806 2.47306183
v 0.23997515 -0.24393631 2.45447111
v 0.23748608 -0.27647329 2.45011047
v 0.25374793 -0.27647329 2.43312639
v 0.28143581 -0.12638899 0.20707295
v 0.24594889 -0.12638899 2.44230699
v 0.22224355 -0.14638346 2.47076654
v 0.20598168 -0.14638346 2.48063578
v 0.21010641 -0.17890108 2.48316042
v 0.20887372 -0.21143806 2.48247177
v 0.28143581 -0.25177538 2.40535529
v 0.23267390 -0.29790007 2.44620872
v 0.20408524 -0.23541980 2.47902913
v 0.26109662 -0.29426120 2.41178168
v 0.26529245 -0.27647329 2.41683098
v 0.28143581 -0.21738025 0.22153218
v 0.16418914 -0.19692125 0.16438330
v 0.16532700 -0.17890108 0.16369486
v 0.14638643 -0.12638899 0.15405517
v 0.22928404 -0.12638899 2.45653686
v 0.21510822 -0.12638899 2.46709435
v 0.19977087 -0.12638899 2.47765203
v 0.17862570 -0.12638899 2.48109467
v 0.17888646 -0.14638346 2.48476687
v 0.17888646 -0.17890108 2.48798016
v 0.17888646 -0.21143806 2.48499642
v 0.28143581 -0.27668619 2.39342051
v 0.21141020 -0.27647329 2.46089750
v 0.21141020 -0.30107442 2.44919227
v 0.21141020 -0.31733323 2.43381485
v 0.21141020 -0.32412708 2.42670000
v 0.23369322 -0.32412708 2.41614232
v 0.24284348 -0.30691984 2.42371626
v 0.17888646 -0.23361972 2.47811113
v 0.26638291 -0.30150024 2.39365005
v 0.24988398 -0.32412708 2.39319096
v 0.25448283 -0.31777841 2.39365005
v 0.25988764 -0.32412708 2.37689553
v 0.28143581 -0.24165234 0.22681101
v 0.14638643 -0.19934072 0.16277666
v 0.14638643 -0.17890108 0.15864556
v 0.12640281 -0.12638899 0.14900588
v 0.28143581 -0.24623965 0.22795857
v 0.17585218 -0.32412708 0.21648288
v 0.14638643 -0.32412708 0.20776139
v 0.15698271 -0.12638899 2.47834048
v 0.15627155 -0.14638346 2.47902913
v 0.15551298 -0.17890108 2.47948823
v 0.15876061 -0.21143806 2.47742248
v 0.16245865 -0.22785170 2.47512738
v 0.28143581 -0.27687975 2.39319096
v 0.18711222 -0.29867431 2.44781518
v 0.19645212 -0.32412708 2.42532291
v 0.26899048 -0.32412708 2.35922301
v 0.11386268 -0.20040529 0.16162912
v 0.11386268 -0.17890108 0.15497317
v 0.11386268 -0.14638346 0.14969453
v 0.11386268 -0.12638899 0.14671078
v 0.28143581 -0.25767889 0.23231941
v 0.28143581 -0.26112420 0.23369651
v 0.28143581 -0.28092511 0.24976238
v 0.28143581 -0.32412708 0.29451756
v 0.13560049 -0.32412708 0.21005649
v 0.03928564 -0.17713970 0.15956356
v 0.08133893 -0.19779226 0.16369486
v 0.08818979 -0.12638899 2.44781518
v 0.08923282 -0.14638346 2.44712672
v 0.07297096 -0.14638346 2.43748704
v 0.03928564 -0.14864807 2.41706032
v 0.16542182 -0.28849319 2.44024124
v 0.03928564 -0.17890108 2.40535529
v 0.03928564 -0.17998499 2.40489619
v 0.09115296 -0.23567143 2.41499477
v 0.09926019 -0.32412708 2.36817404
v 0.12002608 -0.32412708 2.38423992
v 0.28143581 -0.29877108 2.36243610
v 0.15930584 -0.32412708 2.41247013
v 0.16359651 -0.32412708 2.41522432
v 0.17834123 -0.32412708 2.42142116
v 0.27479831 -0.32412708 2.34384558
v 0.08133893 -0.17890108 0.15635027
v 0.04879149 -0.14638346 0.14808788
v 0.05023752 -0.12638899 0.14326813
v 0.09402130 -0.12638899 0.14441568
v 0.28143581 -0.32412708 2.32341886
v 0.10155961 -0.32412708 0.22313882
v 0.03928564 -0.18935317 0.16782595
v 0.03928564 -0.16844899 0.15635027
v 0.03928564 -0.12638899 2.41866697
v 0.03928564 -0.20758626 2.38951876
v 0.03928564 -0.27364734 2.35027197
v 0.03928564 -0.31003612 2.32823861
v 0.07792537 -0.32412708 2.35050153
v 0.27946826 -0.32412708 2.33076325
v 0.28143581 -0.32027529 2.33076325
v 0.03928564 -0.14638346 0.14854679
v 0.03928564 -0.12638899 0.14579278
v 0.03928564 -0.32412708 0.26491026
v 0.04360002 -0.32412708 2.32181222
v 0.04983453 -0.32412708 2.32709106
v 0.03928564 -0.32412708 2.31768092
f 1 2 3
f 1 3 4
f 1 4 11
f 1 11 20
f 1 20 31
f 1 31 47
f 1 47 71
f 1 71 96
f 1 96 115
f 1 115 105
f 1 105 82
f 1 82 81
f 1 81 80
f 1 80 79
f 1 79 63
f 1 63 59
f 1 59 36
f 1 36 25
f 1 25 14
f 1 14 13
f 1 13 5
f 1 5 2
f 2 5 6
f 2 6 7
f 2 7 8
f 2 8 9
f 2 9 3
f 3 10 4
f 3 9 10
f 4 10 12
f 4 12 11
f 5 13 6
f 6 13 14
f 6 14 25
f 6 25 39
f 6 39 62
f 6 62 78
f 6 78 104
f 6 104 103
f 6 103 117
f 6 117 109
f 6 109 86
f 6 86 66
f 6 66 43
f 6 43 42
f 6 42 41
f 6 41 40
f 6 40 26
f 6 26 15
f 6 15 7
f 7 16 17
f 7 17 8
f 7 15 16
f 8 17 18
f 8 18 10
f 8 10 9
f 10 18 12
f 11 19 20
f 11 12 19
f 12 18 21
f 12 21 22
f 12 22 23
f 12 23 24
f 12 24 19
f 15 26 16
f 16 26 27
f 16 27 17
f 17 21 18
f 17 27 28
f 17 28 29
f 17 29 30
f 17 30 21
f 19 24 20
f 20 24 31
f 21 30 23
f 21 23 22
f 23 32 24
f 23 30 33
f 23 33 32
f 24 34 35
f 24 35 31
f 24 32 34
f 25 36 37
f 25 37 38
f 25 38 39
f 26 40 27
f 27 41 42
f 27 42 28
f 27 40 41
f 28 42 43
f 28 43 44
f 28 44 45
f 28 45 29
f 29 45 30
f 30 45 46
f 30 46 33
f 31 35 47
f 32 33 48
f 32 48 49
f 32 49 50
f 32 50 51
f 32 51 52
f 32 52 53
f 32 53 34
f 33 46 54
f 33 54 48
f 34 55 47
f 34 47 35
f 34 53 56
f 34 56 57
f 34 57 58
f 34 58 55
f 36 59 37
f 37 60 61
f 37 61 62
f 37 62 39
f 37 39 38
f 37 59 63
f 37 63 64
f 37 64 65
f 37 65 60
f 43 66 44
f 44 66 45
f 45 66 67
f 45 67 68
f 45 68 46
f 46 68 69
f 46 69 70
f 46 70 54
f 47 55 71
f 48 54 49
f 49 72 73
f 49 73 50
f 49 54 72
f 50 73 51
f 51 73 99
f 51 99 98
f 51 98 97
f 51 97 95
f 51 95 94
f 51 94 113
f 51 113 120
f 51 120 119
f 51 119 121
f 51 121 118
f 51 118 106
f 51 106 83
f 51 83 65
f 51 65 64
f 51 64 82
f 51 82 105
f 51 105 114
f 51 114 100
f 51 100 74
f 51 74 58
f 51 58 56
f 51 56 52
f 52 56 53
f 54 70 72
f 55 58 74
f 55 74 71
f 56 58 57
f 60 75 76
f 60 76 61
f 60 65 75
f 61 76 77
f 61 77 78
f 61 78 62
f 63 79 64
f 64 79 80
f 64 80 81
f 64 81 82
f 65 83 84
f 65 84 85
f 65 85 75
f 66 86 67
f 67 86 68
f 68 86 87
f 68 87 69
f 69 87 88
f 69 88 89
f 69 89 70
f 70 90 72
f 70 89 91
f 70 91 92
f 70 92 93
f 70 93 94
f 70 94 95
f 70 95 90
f 71 74 96
f 72 90 97
f 72 97 98
f 72 98 99
f 72 99 73
f 74 100 96
f 75 85 84
f 75 84 101
f 75 101 76
f 76 102 103
f 76 103 104
f 76 104 77
f 76 101 102
f 77 104 78
f 83 106 84
f 84 107 118
f 84 118 121
f 84 121 112
f 84 112 111
f 84 111 110
f 84 110 92
f 84 92 91
f 84 91 89
f 84 89 109
f 84 109 117
f 84 117 116
f 84 116 108
f 84 108 101
f 84 106 107
f 86 88 87
f 86 109 88
f 88 109 89
f 90 95 97
f 92 110 93
f 93 110 111
f 93 111 94
f 94 111 112
f 94 112 113
f 96 100 114
f 96 114 115
f 101 108 116
f 101 116 102
f 102 116 103
f 103 116 117
f 105 115 114
f 106 118 107
f 112 119 120
f 112 120 113
f 112 121 119

