# https://github.com/mikedh/trimesh
v -1.14580283 -0.12638899 1.84458476
v -1.08447313 -0.12638899 2.03598462
v -1.08258024 -0.11382797 2.03598462
v -1.07394870 -0.09643705 2.05391394
v -1.07735587 -0.09139286 2.03598462
v -1.14413705 -0.12304268 1.84458476
v -0.37229207 -0.12638899 1.84458476
v -1.08008166 -0.12638899 2.04872539
v -1.04139100 -0.09541503 2.15140112
v -1.03715094 -0.07350742 2.13352939
v -0.97703268 -0.03089556 2.25004117
v -1.04320820 0.00212245 1.96103886
v -1.08613891 -0.04762710 1.84458476
v -0.37229207 0.04201441 1.84458476
v -0.37229207 -0.12638899 2.31962540
v -1.00860608 -0.12638899 2.24727398
v -1.03154794 -0.08326611 2.16373828
v -0.97665414 -0.06290803 2.28134546
v -0.98074278 -0.05075911 2.26197489
v -0.99179727 -0.04878100 2.23107414
v -0.97180832 -0.04124768 2.27171780
v -0.94402073 -0.03150547 2.31351444
v -0.94901797 -0.02624699 2.29610394
v -0.95772521 -0.01719712 2.26001470
v -0.94364209 0.00024325 2.24825402
v -0.99800594 0.04201441 1.84458476
v -1.02670212 0.01603519 1.84458476
v -1.05842703 -0.01294418 1.84458476
v -0.37229207 0.04201441 2.32902245
v -0.37229207 -0.04747874 2.33674761
v -0.61503636 -0.12638899 2.42195519
v -1.00542605 -0.12638899 2.25142477
v -0.93955345 -0.11382797 2.33916892
v -0.94053777 -0.08130449 2.34222449
v -0.95204659 -0.08130449 2.32596697
v -0.94795795 -0.04878100 2.31933720
v -0.96416110 -0.05075911 2.29374031
v -0.93387485 -0.04878100 2.33559463
v -0.91191728 -0.03114282 2.34579878
v -0.92229030 -0.02047749 2.32394921
v -0.91100868 0.00017731 2.31276502
v -0.93160330 -0.00997701 2.29610394
v -0.93826631 -0.00348220 2.26993066
v -0.91532445 0.00253456 2.29610394
v -0.89442700 0.01019975 2.29610394
v -0.99043432 0.04201441 1.86464713
v -0.37229207 0.01524394 2.33392274
v -0.58830874 0.04201441 2.30924831
v -0.60178615 0.03939341 2.31858768
v -0.82938721 0.00154551 2.34631769
v -0.75155159 -0.03137360 2.37785250
v -0.63434385 -0.06661699 2.40840727
v -0.63434385 -0.08288697 2.41941853
v -0.63434385 -0.11382797 2.43060272
v -0.37229207 -0.01627400 2.33795836
v -0.63434385 -0.12638899 2.43002623
v -0.92092745 -0.12638899 2.35502289
v -0.92335031 -0.11382797 2.35657942
v -0.92425891 -0.08130449 2.35456166
v -0.91759599 -0.04878100 2.34954610
v -0.89442700 -0.04878100 2.35773249
v -0.89442700 -0.02463153 2.34845070
v -0.87133372 -0.00170190 2.34343516
v -0.89442700 -0.00836155 2.33594050
v -0.89442700 0.00337526 2.31962540
v -0.86194501 0.02028813 2.29610394
v -0.88791540 0.04201441 2.03448572
v -0.82878155 0.02938746 2.29783350
v -0.81749993 0.03354149 2.28809058
v -0.37229207 -0.01142762 2.33772774
v -0.60663191 0.04201441 2.30083130
v -0.79690527 0.03031057 2.30411740
v -0.62374366 0.03822303 2.31743470
v -0.82938721 0.01512855 2.32867657
v -0.84967899 0.00047403 2.34539523
v -0.77313056 -0.03476936 2.37629597
v -0.66682583 -0.08470025 2.41918791
v -0.66682583 -0.06843026 2.40794605
v -0.66682583 -0.11382797 2.43192873
v -0.66682583 -0.12638899 2.43354294
v -0.64683688 -0.12638899 2.43267815
v -0.89510838 -0.12638899 2.37133799
v -0.89329129 -0.11465218 2.37283694
v -0.89442700 -0.08130449 2.36684125
v -0.82908438 -0.12638899 2.39831849
v -0.82938721 -0.11382797 2.39457117
v -0.79690527 -0.11382797 2.40218106
v -0.86103641 -0.01403214 2.35081443
v -0.86103641 0.00747985 2.33098263
v -0.87436234 0.04201441 2.05022434
v -0.80939831 -0.12638899 2.40293050
v -0.67939463 -0.12638899 2.43117930
v -0.88170673 -0.12638899 2.37842899
v -0.88170673 -0.12604283 2.37842899
f 1 2 3
f 1 3 4
f 1 4 5
f 1 5 6
f 1 6 13
f 1 13 28
f 1 28 27
f 1 27 26
f 1 26 14
f 1 14 7
f 1 7 15
f 1 15 31
f 1 31 56
f 1 56 81
f 1 81 80
f 1 80 92
f 1 92 91
f 1 91 85
f 1 85 93
f 1 93 82
f 1 82 57
f 1 57 32
f 1 32 16
f 1 16 8
f 1 8 2
f 2 8 9
f 2 9 3
f 3 9 4
f 4 9 10
f 4 10 5
f 5 10 11
f 5 11 12
f 5 12 6
f 6 12 13
f 7 14 29
f 7 29 47
f 7 47 70
f 7 70 55
f 7 55 30
f 7 30 15
f 8 16 9
f 9 17 10
f 9 16 18
f 9 18 19
f 9 19 20
f 9 20 11
f 9 11 17
f 10 17 11
f 11 20 19
f 11 19 21
f 11 21 22
f 11 22 23
f 11 23 24
f 11 24 25
f 11 25 12
f 12 26 27
f 12 27 28
f 12 28 13
f 12 25 26
f 14 26 46
f 14 46 67
f 14 67 90
f 14 90 71
f 14 71 48
f 14 48 29
f 15 30 31
f 16 32 33
f 16 33 34
f 16 34 35
f 16 35 18
f 18 35 36
f 18 36 37
f 18 37 21
f 18 21 19
f 21 37 22
f 22 37 36
f 22 36 38
f 22 38 39
f 22 39 40
f 22 40 41
f 22 41 23
f 23 41 42
f 23 42 43
f 23 43 24
f 24 43 25
f 25 43 41
f 25 41 44
f 25 44 45
f 25 45 46
f 25 46 26
f 29 48 49
f 29 49 50
f 29 50 51
f 29 51 52
f 29 52 53
f 29 53 54
f 29 54 47
f 30 55 54
f 30 54 56
f 30 56 31
f 32 57 33
f 33 57 58
f 33 58 34
f 34 58 59
f 34 59 60
f 34 60 38
f 34 38 36
f 34 36 35
f 38 60 39
f 39 41 40
f 39 60 61
f 39 61 62
f 39 62 63
f 39 63 64
f 39 64 41
f 41 43 42
f 41 64 63
f 41 63 65
f 41 65 45
f 41 45 44
f 45 65 66
f 45 66 46
f 46 66 68
f 46 68 69
f 46 69 67
f 47 54 70
f 48 71 69
f 48 69 49
f 49 69 72
f 49 72 73
f 49 73 74
f 49 74 50
f 50 74 75
f 50 75 51
f 51 75 63
f 51 63 76
f 51 76 77
f 51 77 78
f 51 78 52
f 52 78 77
f 52 77 53
f 53 77 79
f 53 79 54
f 54 79 80
f 54 80 81
f 54 81 56
f 54 55 70
f 57 82 58
f 58 82 83
f 58 83 59
f 59 83 84
f 59 84 60
f 60 84 61
f 61 84 85
f 61 85 86
f 61 86 87
f 61 87 79
f 61 79 62
f 62 79 88
f 62 88 63
f 63 88 79
f 63 79 77
f 63 77 76
f 63 75 74
f 63 74 89
f 63 89 65
f 65 89 68
f 65 68 66
f 67 69 90
f 68 74 72
f 68 72 69
f 68 89 74
f 69 71 90
f 72 74 73
f 79 87 91
f 79 91 92
f 79 92 80
f 82 93 83
f 83 93 94
f 83 94 85
f 83 85 84
f 85 91 87
f 85 87 86
f 85 94 93

