# https://github.com/mikedh/trimesh
v -0.33178441 -0.24209130 2.33399632
v -0.33178441 -0.23419734 2.33375572
v -0.63434694 -0.12638899 2.43002537
v -0.63434694 -0.14637867 2.42906277
v -0.66685205 -0.17890578 2.43435750
v -0.66685205 -0.24209130 2.42424923
v -0.33178441 -0.24209130 0.19006870
v -0.33178441 -0.12638899 2.32677602
v -0.64681982 -0.12638899 2.43267273
v -0.66685205 -0.14637867 2.43604228
v -0.76304463 -0.24209130 2.44783535
v -0.69756188 -0.24209130 2.43219153
v -0.50357038 -0.24209130 0.11618160
v -0.47919152 -0.20425248 0.09139229
v -0.33178441 -0.24177419 0.18982811
v -0.33178441 -0.12638899 0.16142845
v -0.66685205 -0.12638899 2.43339491
v -0.79696716 -0.24209130 2.45072331
v -1.05710286 -0.24209130 -0.00800630
v -0.50423179 -0.22613353 0.10222257
v -0.50423179 -0.20986997 0.08850413
v -0.50442082 -0.17713900 0.07213833
v -0.46964785 -0.17949472 0.08778214
v -0.33178441 -0.21142158 0.17610968
v -0.33178441 -0.15182629 0.16359462
v -0.46879741 -0.14386439 0.08994812
v -0.47418342 -0.12638899 0.09283629
v -0.67941945 -0.12638899 2.43122874
v -0.79696716 -0.22048206 2.44663195
v -0.81463717 -0.22544268 2.44422518
v -0.81520406 -0.24209130 2.44470658
v -1.08271013 -0.24209130 -0.00343355
v -1.05814232 -0.21016444 -0.00463694
v -1.02525920 -0.17724093 -0.00223016
v -1.02450328 -0.21142158 -0.00535892
v -0.90941231 -0.12638899 0.00258337
v -0.90941231 -0.13128166 0.00258337
v -0.51528734 -0.16511120 0.06732480
v -0.51528734 -0.15796476 0.06732480
v -0.50442082 -0.14682036 0.07261972
v -0.33178441 -0.16197402 0.16455721
v -0.33178441 -0.16658354 0.16527920
v -0.33178441 -0.17183861 0.16624199
v -0.50423179 -0.12638899 0.07935844
v -0.80944009 -0.12638899 2.40282928
v -0.82909436 -0.12638899 2.39825634
v -0.88200976 -0.12638899 2.37828038
v -0.89514405 -0.12638899 2.37130087
v -0.92084583 -0.12638899 2.35493506
v -1.00976254 -0.16609654 2.24951954
v -0.87501735 -0.24209130 2.37057887
v -1.20394297 -0.12638899 0.10005659
v -1.07855247 -0.22016493 -0.00174876
v -1.09886819 -0.24209130 0.01148827
v -1.20394297 -0.13132695 0.10005659
v -1.04803163 -0.18696961 -0.00078598
v -0.99199812 -0.17890578 -0.00247077
v -1.01486506 -0.15824789 0.00113939
v -0.99199812 -0.15328728 0.00065800
v -0.91593225 -0.12638899 0.00258337
v -0.52445305 -0.12638899 0.07430431
v -1.00541586 -0.12638899 2.25144492
v -1.00919556 -0.12854086 2.24831617
v -1.01004599 -0.14637867 2.24976035
v -1.24514141 -0.24209130 1.73784584
v -1.24476345 -0.24209130 1.73856784
v -1.10888438 -0.24209130 1.99440473
v -0.98245441 -0.23562439 2.22112009
v -0.98538367 -0.24209130 2.19849656
v -1.24381851 -0.17890578 0.15396754
v -1.29711186 -0.12638899 0.24133248
v -1.15679169 -0.12638899 0.06925017
v -1.14677550 -0.12638899 0.06275204
v -1.13846028 -0.12638899 0.05890109
v -1.10009660 -0.24209130 0.01269165
v -1.23115669 -0.17890578 0.13760174
v -1.03659820 -0.16529242 0.00474955
v -1.10841191 -0.12638899 0.04710823
v -1.02478673 -0.12638899 0.01943057
v -0.99199812 -0.12638899 0.00980368
v -0.99199812 -0.13702373 0.00595274
v -1.00853415 -0.12638899 2.24711277
v -1.20904559 -0.12638899 1.74241865
v -1.25459061 -0.24209130 1.71618511
v -1.24202322 -0.21142158 0.15902168
v -1.26980373 -0.20012996 0.19560423
v -1.26980373 -0.18894027 0.19560423
v -1.29711186 -0.14161059 0.24036969
v -1.29711186 -0.12638899 1.45168396
v -1.24362948 -0.24209130 0.18381119
v -1.23795998 -0.22997292 0.16335384
v -1.27859143 -0.12638899 1.53351325
v -1.28104822 -0.24209130 1.57731600
v -1.28945805 -0.14637867 1.51546266
v -1.25931516 -0.21114977 0.18357058
v -1.29711186 -0.17765997 0.24951538
v -1.29711186 -0.17514569 0.24807120
v -1.29711186 -0.14602758 0.24085108
v -1.29711186 -0.24209130 0.30751789
v -1.29711186 -0.12777072 1.45144329
v -1.28511146 -0.24209130 1.54530630
v -1.28341059 -0.12638899 1.51666605
v -1.29711186 -0.24209130 1.39536615
v -1.29711186 -0.14535937 1.44711114
f 1 2 3
f 1 3 4
f 1 4 5
f 1 5 6
f 1 6 12
f 1 12 11
f 1 11 18
f 1 18 31
f 1 31 51
f 1 51 69
f 1 69 67
f 1 67 66
f 1 66 65
f 1 65 84
f 1 84 93
f 1 93 101
f 1 101 103
f 1 103 99
f 1 99 90
f 1 90 75
f 1 75 54
f 1 54 32
f 1 32 19
f 1 19 13
f 1 13 7
f 1 7 15
f 1 15 24
f 1 24 43
f 1 43 42
f 1 42 41
f 1 41 25
f 1 25 16
f 1 16 8
f 1 8 2
f 2 8 3
f 3 9 10
f 3 10 4
f 3 8 16
f 3 16 27
f 3 27 44
f 3 44 61
f 3 61 36
f 3 36 60
f 3 60 80
f 3 80 79
f 3 79 78
f 3 78 74
f 3 74 73
f 3 73 72
f 3 72 52
f 3 52 71
f 3 71 89
f 3 89 102
f 3 102 92
f 3 92 83
f 3 83 82
f 3 82 62
f 3 62 49
f 3 49 48
f 3 48 47
f 3 47 46
f 3 46 45
f 3 45 28
f 3 28 17
f 3 17 9
f 4 10 5
f 5 10 11
f 5 11 12
f 5 12 6
f 7 13 14
f 7 14 15
f 9 17 10
f 10 18 11
f 10 17 18
f 13 19 20
f 13 20 14
f 14 20 21
f 14 21 22
f 14 22 23
f 14 23 24
f 14 24 15
f 16 25 23
f 16 23 26
f 16 26 27
f 17 28 29
f 17 29 18
f 18 29 30
f 18 30 31
f 19 32 33
f 19 33 34
f 19 34 35
f 19 35 36
f 19 36 37
f 19 37 38
f 19 38 22
f 19 22 21
f 19 21 20
f 22 38 39
f 22 39 23
f 23 39 40
f 23 40 26
f 23 25 41
f 23 41 42
f 23 42 43
f 23 43 24
f 26 40 27
f 27 40 44
f 28 45 29
f 29 45 46
f 29 46 30
f 30 46 47
f 30 47 48
f 30 48 49
f 30 49 31
f 31 49 50
f 31 50 51
f 32 52 53
f 32 53 33
f 32 54 55
f 32 55 52
f 33 53 56
f 33 56 34
f 34 57 35
f 34 56 58
f 34 58 59
f 34 59 60
f 34 60 57
f 35 57 36
f 36 57 60
f 36 61 39
f 36 39 38
f 36 38 37
f 39 61 40
f 40 61 44
f 49 62 63
f 49 63 64
f 49 64 50
f 50 64 65
f 50 65 66
f 50 66 67
f 50 67 68
f 50 68 51
f 51 68 69
f 52 70 71
f 52 72 53
f 52 55 70
f 53 72 73
f 53 73 74
f 53 74 56
f 54 75 55
f 55 75 76
f 55 76 70
f 56 77 58
f 56 74 78
f 56 78 77
f 58 77 79
f 58 79 80
f 58 80 81
f 58 81 59
f 59 81 60
f 60 81 80
f 62 82 63
f 63 82 83
f 63 83 84
f 63 84 65
f 63 65 64
f 67 69 68
f 70 76 85
f 70 85 86
f 70 86 87
f 70 87 88
f 70 88 71
f 71 88 98
f 71 98 97
f 71 97 96
f 71 96 99
f 71 99 103
f 71 103 104
f 71 104 100
f 71 100 89
f 75 90 91
f 75 91 85
f 75 85 76
f 77 78 79
f 83 92 84
f 84 92 94
f 84 94 93
f 85 91 95
f 85 95 86
f 86 96 97
f 86 97 98
f 86 98 88
f 86 88 87
f 86 95 99
f 86 99 96
f 89 100 101
f 89 101 94
f 89 94 102
f 90 99 95
f 90 95 91
f 92 102 94
f 93 94 101
f 100 104 101
f 101 104 103

