# https://github.com/mikedh/trimesh
v 0.03926194 -0.98469746 2.01077810
v 0.03624737 -0.98469746 2.01360984
v 0.03926194 -1.05712885 1.99148671
v 0.03926194 -0.98469746 0.23774036
v 0.03083568 -0.98469746 2.01856540
v 0.03519408 -1.07553054 1.98865497
v 0.03926194 -1.07176101 1.98670807
v 0.02803902 -0.99789078 2.01714953
v 0.03926194 -0.99262154 0.23632448
v 0.03374128 -0.98469746 0.23862530
v 0.02084764 -0.98469746 2.02387497
v 0.01681611 -1.02754015 2.01449479
v 0.01623499 -1.05712885 2.00476059
v 0.01623499 -1.08025257 1.99307960
v 0.03926194 -1.19173687 1.90299411
v 0.00635591 -1.01866357 2.02210518
v 0.01623499 -0.99207432 0.24021818
v 0.01623499 -0.98469746 0.24145705
v 0.03926194 -1.01720446 0.23225378
v 0.01674347 -0.98469746 2.02529084
v -0.01627153 -1.05712885 2.01237098
v -0.12094613 -1.07634113 2.02210518
v -0.13946939 -1.07634113 2.02210518
v 0.00878936 -1.19173687 1.90122426
v 0.03926194 -1.19173687 0.35455052
v -0.00889854 -0.98469746 2.02776867
v -0.11386370 -1.02460158 2.03237030
v -0.11161185 -1.05978368 2.02688372
v 0.00886200 -0.98469746 0.24269592
v -0.33178443 -0.98469746 0.30039315
v 0.03926194 -1.03436990 0.23012997
v 0.03170735 -1.03951749 0.23066090
v -0.14869470 -1.05927708 2.02546785
v -0.24392607 -0.98469746 2.03555597
v -0.16111618 -1.07155832 2.01909642
v -0.17887672 -1.08483268 1.99909710
v -0.22721879 -1.17078165 1.88936626
v -0.20553570 -1.17307171 1.89202099
v -0.02146530 -1.19173687 1.89821551
v -0.16827124 -1.19173687 0.41879620
v -0.16976037 -1.17242319 0.32552503
v -0.15210878 -1.17242319 0.32552503
v 0.03926194 -1.14078766 0.27986280
v -0.14637021 -0.98469746 2.03821080
v -0.14637021 -1.02460158 2.03183928
v -0.33178443 -0.98469746 1.95520476
v 0.03170735 -1.04778608 0.23066090
v 0.01903163 -1.05802058 0.23508553
v -0.19111660 -1.13286358 0.29667646
v -0.24392607 -1.08963575 0.30074707
v -0.27646888 -1.08963575 0.31048126
v -0.33178443 -1.06582300 0.32340113
v 0.03926194 -1.05007624 0.23030697
v -0.21141955 -0.98469746 2.03644091
v -0.26117811 -0.98469746 2.02918454
v -0.27152934 -0.98469746 2.02529084
v -0.20393761 -1.08043491 1.99272558
v -0.33178443 -1.18608259 1.83485479
v -0.33178443 -1.19173687 1.82795237
v -0.21439781 -1.18095526 1.87644630
v -0.17793239 -1.19173687 0.42357484
v -0.17989368 -1.17524020 0.34322353
v -0.19144347 -1.17011287 0.33136554
v -0.21141955 -1.15067754 0.31632177
v -0.18043848 -1.15554149 0.31101219
v -0.16943348 -1.14097010 0.29455256
v -0.14637021 -1.14192261 0.29366770
v 0.03926194 -1.11665065 0.25844762
v -0.33178443 -1.05739232 1.92317038
v -0.32655433 -1.07557106 1.92317038
v -0.30189298 -0.98469746 1.99821216
v 0.03926194 -1.05725041 0.23083790
v 0.03926194 -1.06564066 0.23225378
v -0.24392607 -1.14317911 0.32375514
v -0.24392607 -1.12216301 0.31065828
v -0.33178443 -1.07488202 0.32747183
v -0.28522202 -0.98469746 2.01484871
v -0.29629968 -1.10817936 1.92440929
v -0.33178443 -1.17734792 1.84193420
v -0.33178443 -1.19173687 0.56374709
v -0.21134692 -1.16638387 0.34322353
v -0.26019748 -1.13845708 0.32835677
v 0.03926194 -1.09028436 0.24340384
v 0.03926194 -1.11174618 0.25543886
v -0.33178443 -1.08584607 1.90688775
v -0.29633598 -0.98469746 2.00564554
v -0.27323639 -1.11999452 0.32251628
v -0.29524640 -1.10769302 0.32658690
v -0.33178443 -1.08959523 0.34375446
v -0.33178443 -1.09510769 0.35508154
v -0.24392607 -1.15248126 0.34463941
f 1 2 3
f 1 3 7
f 1 7 15
f 1 15 25
f 1 25 43
f 1 43 68
f 1 68 84
f 1 84 83
f 1 83 73
f 1 73 72
f 1 72 53
f 1 53 31
f 1 31 19
f 1 19 9
f 1 9 4
f 1 4 10
f 1 10 18
f 1 18 29
f 1 29 30
f 1 30 46
f 1 46 71
f 1 71 86
f 1 86 77
f 1 77 56
f 1 56 55
f 1 55 34
f 1 34 54
f 1 54 44
f 1 44 26
f 1 26 20
f 1 20 11
f 1 11 5
f 1 5 2
f 2 5 3
f 3 6 7
f 3 5 8
f 3 8 6
f 4 9 10
f 5 11 8
f 6 8 12
f 6 12 13
f 6 13 14
f 6 14 15
f 6 15 7
f 8 11 16
f 8 16 12
f 9 17 18
f 9 18 10
f 9 19 17
f 11 20 16
f 12 16 13
f 13 16 21
f 13 21 14
f 14 21 22
f 14 22 15
f 15 22 23
f 15 23 24
f 15 24 39
f 15 39 59
f 15 59 80
f 15 80 61
f 15 61 40
f 15 40 25
f 16 20 26
f 16 26 27
f 16 27 28
f 16 28 21
f 17 29 18
f 17 19 30
f 17 30 29
f 19 31 32
f 19 32 30
f 21 28 22
f 22 28 23
f 23 28 33
f 23 33 34
f 23 34 35
f 23 35 36
f 23 36 37
f 23 37 38
f 23 38 39
f 23 39 24
f 25 40 41
f 25 41 42
f 25 42 43
f 26 44 27
f 27 44 28
f 28 44 45
f 28 45 34
f 28 34 33
f 30 32 47
f 30 47 48
f 30 48 49
f 30 49 50
f 30 50 51
f 30 51 52
f 30 52 76
f 30 76 89
f 30 89 90
f 30 90 80
f 30 80 59
f 30 59 58
f 30 58 79
f 30 79 85
f 30 85 69
f 30 69 46
f 31 53 47
f 31 47 32
f 34 55 35
f 34 45 54
f 35 55 56
f 35 56 57
f 35 57 36
f 36 57 58
f 36 58 37
f 37 58 59
f 37 59 38
f 38 59 60
f 38 60 39
f 39 60 59
f 40 61 62
f 40 62 41
f 41 62 63
f 41 63 64
f 41 64 65
f 41 65 66
f 41 66 67
f 41 67 43
f 41 43 42
f 43 67 68
f 44 54 45
f 46 69 70
f 46 70 71
f 47 53 72
f 47 72 73
f 47 73 48
f 48 73 49
f 49 66 64
f 49 64 74
f 49 74 75
f 49 75 51
f 49 51 50
f 49 73 66
f 51 75 52
f 52 75 76
f 56 77 70
f 56 70 78
f 56 78 57
f 57 78 58
f 58 78 79
f 61 80 62
f 62 80 63
f 63 80 81
f 63 81 82
f 63 82 74
f 63 74 64
f 64 66 65
f 66 73 83
f 66 83 84
f 66 84 68
f 66 68 67
f 69 85 70
f 70 77 86
f 70 86 71
f 70 85 79
f 70 79 78
f 74 82 87
f 74 87 75
f 75 87 76
f 76 87 88
f 76 88 89
f 80 90 82
f 80 82 91
f 80 91 81
f 81 91 82
f 82 88 87
f 82 90 89
f 82 89 88

