# https://github.com/mikedh/trimesh
v -1.20299366 -1.10638989 1.36044526
v -1.19672683 -1.15433771 1.36044526
v -1.19617923 -1.10638989 1.48181784
v -0.58142078 -1.10638989 1.36044526
v -1.19563163 -1.16208517 1.36044526
v -1.18194199 -1.16236464 1.58060945
v -1.18486243 -1.12218075 1.61311997
v -1.18650523 -1.10638989 1.61311997
v -0.58142078 -1.10638989 1.75107542
v -0.58142078 -1.16236464 1.36044526
v -1.19557085 -1.16236464 1.36044526
v -1.17938651 -1.16236464 1.60545857
v -1.18200277 -1.12218075 1.64558007
v -1.18358469 -1.10638989 1.64558007
v -0.80927811 -1.10638989 1.86019987
v -0.60180320 -1.16236464 1.74563178
v -0.58142078 -1.16236464 1.73509737
v -1.17512756 -1.16236464 1.64285827
v -1.17336309 -1.14609713 1.67814097
v -1.17743962 -1.12218075 1.67814097
v -1.17859560 -1.10638989 1.67814097
v -0.82947805 -1.10638989 1.86710518
v -0.81012991 -1.10821445 1.85919177
v -0.60965196 -1.16236464 1.74885763
v -1.17354563 -1.16236464 1.65238458
v -1.16709626 -1.16235912 1.67814097
v -1.17092938 -1.13848665 1.69442142
v -1.17184204 -1.12218075 1.69704244
v -1.17238955 -1.10638989 1.69865537
v -0.84876526 -1.10638989 1.87204474
v -0.82947805 -1.11163344 1.86261925
v -0.64056026 -1.16236464 1.75853517
v -1.15425832 -1.16236464 1.69784890
v -1.16892151 -1.10638989 1.70651838
v -1.14975595 -1.16236464 1.70465344
v -1.13965600 -1.13960434 1.72753681
v -1.14458432 -1.12218075 1.73101464
v -1.16082944 -1.12218075 1.71327252
v -1.16326315 -1.10638989 1.71488541
v -0.86196818 -1.10638989 1.87516977
v -0.86196818 -1.11587970 1.86730677
v -0.64767889 -1.16236464 1.76014811
v -0.86196818 -1.13214178 1.84885893
v -0.86196818 -1.14472731 1.83257853
v -1.12596626 -1.16236464 1.71543985
v -0.92700942 -1.10978145 1.86181277
v -0.94246363 -1.10638989 1.85762924
v -1.14695716 -1.10638989 1.73373646
v -1.15535352 -1.10638989 1.72461336
v -0.87900430 -1.10638989 1.87537141
v -0.89445841 -1.11558385 1.86786125
v -0.82893044 -1.16236464 1.79522920
v -0.88715725 -1.14312745 1.83106640
v -0.86196818 -1.15826078 1.80823340
v -0.86196818 -1.16236464 1.79971520
v -0.89445841 -1.10638989 1.87532100
v -0.91928242 -1.10638989 1.86710518
v -0.92682689 -1.10638989 1.86448418
f 1 2 3
f 1 3 8
f 1 8 14
f 1 14 21
f 1 21 29
f 1 29 34
f 1 34 39
f 1 39 49
f 1 49 48
f 1 48 47
f 1 47 58
f 1 58 57
f 1 57 56
f 1 56 50
f 1 50 40
f 1 40 30
f 1 30 22
f 1 22 15
f 1 15 9
f 1 9 4
f 1 4 10
f 1 10 11
f 1 11 5
f 1 5 2
f 2 5 3
f 3 5 6
f 3 6 7
f 3 7 8
f 4 9 17
f 4 17 10
f 5 11 6
f 6 12 13
f 6 13 7
f 6 11 10
f 6 10 17
f 6 17 16
f 6 16 24
f 6 24 32
f 6 32 42
f 6 42 52
f 6 52 55
f 6 55 45
f 6 45 35
f 6 35 33
f 6 33 25
f 6 25 18
f 6 18 12
f 7 13 8
f 8 13 14
f 9 15 16
f 9 16 17
f 12 18 13
f 13 18 19
f 13 19 20
f 13 20 14
f 14 20 21
f 15 22 23
f 15 23 24
f 15 24 16
f 18 25 19
f 19 25 26
f 19 26 27
f 19 27 20
f 20 27 28
f 20 28 21
f 21 28 29
f 22 30 31
f 22 31 24
f 22 24 23
f 24 31 32
f 25 33 26
f 26 33 27
f 27 34 28
f 27 33 35
f 27 35 36
f 27 36 37
f 27 37 38
f 27 38 39
f 27 39 34
f 28 34 29
f 30 40 41
f 30 41 31
f 31 41 32
f 32 41 43
f 32 43 44
f 32 44 42
f 35 45 46
f 35 46 47
f 35 47 36
f 36 47 37
f 37 48 49
f 37 49 38
f 37 47 48
f 38 49 39
f 40 50 41
f 41 50 51
f 41 51 43
f 42 44 52
f 43 51 44
f 44 51 53
f 44 53 54
f 44 54 52
f 45 55 54
f 45 54 53
f 45 53 51
f 45 51 46
f 46 51 56
f 46 56 57
f 46 57 58
f 46 58 47
f 50 56 51
f 52 54 55

