# https://github.com/mikedh/trimesh
v -1.16215468 -1.10650495 0.78365819
v -1.18275752 -1.10638989 0.80460454
v -1.16215468 -1.10638989 0.78382753
v -1.15676125 -1.10638989 0.78365819
v -1.15492757 -1.16236464 0.78365819
v -1.16377276 -1.16236464 0.79043325
v -1.23075896 -1.16236464 0.85389342
v -1.26969943 -1.10638989 0.89460049
v -0.33178441 -1.10638989 0.78365819
v -0.33178441 -1.16236464 0.78365819
v -1.24003562 -1.16236464 0.86439484
v -1.37325296 -1.10638989 1.00311505
v -1.35804354 -1.10638989 0.98685480
v -1.30162849 -1.10638989 0.92768557
v -0.33178441 -1.10638989 1.36044526
v -0.33178441 -1.16236464 1.36044526
v -1.39137479 -1.16236464 1.05296850
v -1.39364004 -1.15470482 1.05127473
v -1.39763116 -1.13601008 1.04551589
v -1.40205384 -1.11433461 1.03964415
v -1.40345614 -1.10638989 1.03806328
v -1.20292891 -1.10638989 1.36044526
v -1.19559392 -1.16236464 1.36044526
v -1.40237742 -1.16236464 1.06979334
v -1.43139399 -1.10638989 1.07600386
v -1.40874167 -1.10638989 1.04455609
v -1.35685701 -1.10638989 1.21816809
v -1.39957282 -1.16236464 1.17480743
v -1.19667255 -1.15433771 1.36044526
v -1.41338005 -1.16236464 1.09237703
v -1.42168587 -1.16236464 1.12517981
v -1.43376712 -1.10638989 1.09260285
v -1.37584188 -1.10638989 1.20027053
v -1.39266931 -1.10638989 1.18367154
v -1.40043576 -1.10638989 1.17576725
v -1.43085462 -1.10638989 1.14177881
v -1.41079123 -1.16236464 1.15815198
v -1.43128620 -1.10638989 1.13968982
v -1.43258050 -1.10903629 1.12517981
v -1.43290418 -1.10638989 1.12557502
f 1 2 3
f 1 3 4
f 1 4 9
f 1 9 10
f 1 10 5
f 1 5 6
f 1 6 7
f 1 7 2
f 2 7 8
f 2 8 14
f 2 14 13
f 2 13 12
f 2 12 21
f 2 21 26
f 2 26 25
f 2 25 32
f 2 32 40
f 2 40 38
f 2 38 36
f 2 36 35
f 2 35 34
f 2 34 33
f 2 33 27
f 2 27 22
f 2 22 15
f 2 15 9
f 2 9 4
f 2 4 3
f 5 10 16
f 5 16 23
f 5 23 28
f 5 28 37
f 5 37 31
f 5 31 30
f 5 30 24
f 5 24 17
f 5 17 11
f 5 11 7
f 5 7 6
f 7 11 12
f 7 12 13
f 7 13 14
f 7 14 8
f 9 15 16
f 9 16 10
f 11 17 18
f 11 18 19
f 11 19 20
f 11 20 21
f 11 21 12
f 15 22 29
f 15 29 23
f 15 23 16
f 17 24 25
f 17 25 18
f 18 25 19
f 19 25 20
f 20 25 26
f 20 26 21
f 22 27 28
f 22 28 29
f 23 29 28
f 24 30 25
f 25 31 32
f 25 30 31
f 27 33 28
f 28 33 34
f 28 34 35
f 28 35 36
f 28 36 37
f 31 36 38
f 31 38 39
f 31 39 32
f 31 37 36
f 32 39 40
f 38 40 39

