# https://github.com/mikedh/trimesh
v -1.26200092 -1.24491139 0.96302791
v -1.25830614 -1.25323514 0.96302791
v -1.36328447 -1.24491139 1.07902510
v -0.79159235 -1.24491139 0.96302791
v -1.25818886 -1.25345276 0.96302791
v -1.29871396 -1.26291893 1.01544834
v -1.37073269 -1.24491139 1.08757114
v -0.79159235 -1.24491139 1.32832612
v -0.79159235 -1.35121621 0.96302791
v -1.27584159 -1.28481648 1.00364838
v -1.22212084 -1.31628906 0.96302791
v -1.36838679 -1.27146030 1.10637957
v -1.37560041 -1.24491139 1.09393596
v -1.20786963 -1.33954665 0.96302791
v -0.79159235 -1.49810625 1.32832612
v -1.20358838 -1.24491139 1.32832612
v -0.79159235 -1.39963554 1.04155130
v -1.12171700 -1.37730283 0.96302791
v -1.33712786 -1.30388501 1.10416260
v -1.35753704 -1.29311299 1.12518800
v -1.37266804 -1.27684636 1.12518800
v -1.38697789 -1.25231026 1.12518800
v -1.39073132 -1.24491139 1.12518800
v -1.20763504 -1.33990028 0.96302791
v -1.20745910 -1.34011781 0.96302791
v -1.19438075 -1.35613978 0.96302791
v -0.79159235 -1.44196166 1.12518800
v -0.79235477 -1.49832387 1.32832612
v -1.22951040 -1.24491139 1.30973225
v -1.18200627 -1.41489577 1.32832612
v -0.79159235 -1.40518474 1.05117005
v -1.12212753 -1.37732998 0.96302791
v -1.34129182 -1.30578906 1.12518800
v -1.17837012 -1.36993111 0.96302791
v -1.17273998 -1.43246816 1.10598623
v -1.35630544 -1.29101846 1.15769153
v -1.17004220 -1.46307024 1.24143550
v -1.17244675 -1.46532801 1.26310452
v -1.14066000 -1.49894951 1.32832612
v -1.37096727 -1.27475173 1.15769153
v -1.38257944 -1.25231026 1.15769153
v -1.38533577 -1.24491139 1.15815636
v -0.79159235 -1.43437231 1.10541412
v -0.79692926 -1.49957514 1.32832612
v -0.79886463 -1.49982001 1.32832612
v -0.94911849 -1.51812680 1.32832612
v -0.95955772 -1.51916054 1.32832612
v -0.99210689 -1.52122784 1.32832612
v -1.08969565 -1.45221670 1.12518800
v -1.08969565 -1.44054714 1.09268446
v -1.24434808 -1.24491139 1.29786076
v -1.17502722 -1.44141755 1.32832612
v -1.27478594 -1.24491139 1.27240144
v -1.30176362 -1.24491139 1.24733547
v -1.33994293 -1.24491139 1.21161377
v -1.33888729 -1.25231026 1.21100589
v -1.35618814 -1.24491139 1.19563019
v -0.79159235 -1.42972075 1.09529475
v -1.12212753 -1.43203291 1.07455542
v -1.15414887 -1.37632357 0.96302791
v -1.08969565 -1.43214177 1.07451968
v -1.17508587 -1.43475308 1.12518800
v -1.17807690 -1.37012149 0.96302791
v -1.17772500 -1.37031188 0.96302791
v -1.16552636 -1.39786740 1.01341015
v -1.13942839 -1.43151613 1.07577118
v -1.15203757 -1.43420906 1.09415051
v -1.08969565 -1.52237034 1.32832612
v -1.13332907 -1.49495083 1.27858749
v -1.13919380 -1.49690936 1.30025651
v -1.13549902 -1.50330182 1.32832612
v -1.15444212 -1.47996261 1.32832612
v -1.36615819 -1.26865861 1.17403268
v -1.16851737 -1.45768428 1.32832612
v -1.36967703 -1.25231026 1.17785873
v -1.37120186 -1.24491139 1.17936053
v -1.01163635 -1.52179909 1.32832612
v -1.04430282 -1.52250635 1.32832612
v -1.05714648 -1.52277835 1.32832612
v -1.07626551 -1.52256073 1.32832612
v -1.12212753 -1.43880624 1.09268446
v -1.17356104 -1.44541623 1.32832612
v -1.15467670 -1.37629633 0.96302791
v -1.10904917 -1.51603226 1.32832612
v -1.12218618 -1.51129918 1.32832612
f 1 2 3
f 1 3 7
f 1 7 13
f 1 13 23
f 1 23 42
f 1 42 76
f 1 76 57
f 1 57 55
f 1 55 54
f 1 54 53
f 1 53 51
f 1 51 29
f 1 29 16
f 1 16 8
f 1 8 4
f 1 4 9
f 1 9 18
f 1 18 32
f 1 32 60
f 1 60 83
f 1 83 64
f 1 64 63
f 1 63 34
f 1 34 26
f 1 26 25
f 1 25 24
f 1 24 14
f 1 14 11
f 1 11 5
f 1 5 2
f 2 5 6
f 2 6 7
f 2 7 3
f 4 8 15
f 4 15 27
f 4 27 43
f 4 43 58
f 4 58 31
f 4 31 17
f 4 17 9
f 5 10 6
f 5 11 10
f 6 10 7
f 7 12 13
f 7 10 14
f 7 14 12
f 8 16 30
f 8 30 52
f 8 52 82
f 8 82 74
f 8 74 72
f 8 72 39
f 8 39 71
f 8 71 85
f 8 85 84
f 8 84 68
f 8 68 80
f 8 80 79
f 8 79 78
f 8 78 77
f 8 77 48
f 8 48 47
f 8 47 46
f 8 46 45
f 8 45 44
f 8 44 28
f 8 28 15
f 9 17 18
f 10 11 14
f 12 19 20
f 12 20 21
f 12 21 22
f 12 22 23
f 12 23 13
f 12 14 24
f 12 24 25
f 12 25 26
f 12 26 19
f 15 28 27
f 16 29 30
f 17 31 18
f 18 31 32
f 19 33 20
f 19 26 34
f 19 34 35
f 19 35 33
f 20 36 21
f 20 33 37
f 20 37 38
f 20 38 39
f 20 39 36
f 21 36 40
f 21 40 22
f 22 41 23
f 22 40 41
f 23 41 42
f 27 28 44
f 27 44 45
f 27 45 46
f 27 46 47
f 27 47 48
f 27 48 49
f 27 49 50
f 27 50 43
f 29 51 30
f 30 51 53
f 30 53 54
f 30 54 55
f 30 55 56
f 30 56 57
f 30 57 52
f 31 58 32
f 32 59 60
f 32 58 61
f 32 61 59
f 33 35 62
f 33 62 37
f 34 63 35
f 35 63 64
f 35 64 65
f 35 65 66
f 35 66 67
f 35 67 68
f 35 68 69
f 35 69 70
f 35 70 37
f 35 37 62
f 36 39 40
f 37 70 38
f 38 70 71
f 38 71 39
f 39 72 40
f 40 73 41
f 40 72 74
f 40 74 73
f 41 73 42
f 42 73 75
f 42 75 76
f 43 50 58
f 48 77 49
f 49 77 78
f 49 78 79
f 49 79 80
f 49 80 68
f 49 68 81
f 49 81 50
f 50 61 58
f 50 81 59
f 50 59 61
f 52 57 76
f 52 76 82
f 55 57 56
f 59 81 66
f 59 66 83
f 59 83 60
f 64 83 65
f 65 83 66
f 66 81 68
f 66 68 67
f 68 84 69
f 69 84 85
f 69 85 70
f 70 85 71
f 73 74 82
f 73 82 75
f 75 82 76

