# https://github.com/mikedh/trimesh
v 1.27544823 0.02111558 0.82859717
v 1.27544823 0.20729051 0.70454851
v 1.37102941 0.02111558 0.97224660
v 1.27544823 0.02111558 1.60367754
v 1.27544823 0.21444381 0.70061046
v 1.27575774 0.21444381 0.70105797
v 1.27636050 0.21444381 0.70195295
v 1.38139070 0.02111558 0.99157887
v 1.28292590 0.02111558 1.60152953
v 1.28481570 0.04880148 1.60994261
v 1.27544823 0.03943408 1.60958463
v 1.27544823 0.21444381 1.48383544
v 1.29076206 0.21444381 0.73238335
v 1.38324792 0.02111558 0.99515892
v 1.28462028 0.02111558 1.60090302
v 1.28481570 0.08133195 1.61450717
v 1.27544823 0.04880148 1.61137464
v 1.28618417 0.02111558 1.60027652
v 1.30737923 0.04880148 1.60090302
v 1.31428672 0.08133195 1.60466209
v 1.27544823 0.13153749 1.59794948
v 1.27636050 0.13153749 1.59794948
v 1.29804432 0.12938015 1.59571196
v 1.28333324 0.21444381 1.47730184
v 1.29180473 0.21444381 0.73488940
v 1.38922686 0.11386242 0.99515892
v 1.43502178 0.02111558 1.15348652
v 1.31699109 0.21444381 0.79646622
v 1.27544823 0.07196454 1.61459669
v 1.31112626 0.10771209 1.60233504
v 1.28624942 0.11668211 1.60466209
v 1.27544823 0.08133195 1.61495468
v 1.29731118 0.02111558 1.59472741
v 1.30192163 0.03146704 1.59732297
v 1.32363800 0.04880148 1.58944688
v 1.33054549 0.08133195 1.59436942
v 1.27544823 0.13102654 1.59821800
v 1.32165039 0.11853666 1.58515080
v 1.33215834 0.12939908 1.56250699
v 1.30012964 0.21444381 1.46253416
v 1.38140699 0.14635504 0.99515892
v 1.43272466 0.10018032 1.16646420
v 1.43469599 0.08133195 1.16198913
v 1.43542903 0.04671984 1.15590305
v 1.31840842 0.21444381 0.80022527
v 1.43582008 0.02111558 1.15635055
v 1.34369258 0.10773102 1.57450014
v 1.27544823 0.11668211 1.60466209
v 1.27544823 0.10544121 1.60824209
v 1.31301606 0.02111558 1.58336078
v 1.33864233 0.02743622 1.56796660
v 1.34393697 0.04880148 1.57315766
v 1.34773286 0.08133195 1.57808020
v 1.35213150 0.11677672 1.55185636
v 1.39592264 0.21444381 1.36596237
v 1.43652055 0.08133195 1.19018201
v 1.44075633 0.04880148 1.19018201
v 1.42055510 0.21444381 1.28791731
v 1.44188043 0.02111558 1.19018201
v 1.44101700 0.02111558 1.18472243
v 1.36397525 0.08133195 1.56116447
v 1.37125750 0.10411653 1.54129521
v 1.32223687 0.02111558 1.57646919
v 1.33597053 0.02111558 1.56563956
v 1.34554982 0.02111558 1.55642092
v 1.35804528 0.02111558 1.54317474
v 1.36847171 0.02741730 1.53628314
v 1.36017947 0.04880148 1.55740542
v 1.40501316 0.21444381 1.35289518
v 1.41949615 0.21444381 1.32031675
v 1.43753064 0.04880148 1.22276044
v 1.40305822 0.08133195 1.48294042
v 1.40045157 0.08133195 1.50182517
v 1.39981623 0.06276745 1.50093018
v 1.40045157 0.02111558 1.47175279
v 1.37155075 0.04880148 1.54111623
v 1.39988137 0.09885563 1.50101968
v 1.36669591 0.02111558 1.53395611
v 1.37236530 0.02111558 1.52500599
v 1.40553450 0.21444381 1.35173167
v 1.39255027 0.02111558 1.48723648
f 1 2 3
f 1 3 8
f 1 8 14
f 1 14 27
f 1 27 46
f 1 46 60
f 1 60 59
f 1 59 75
f 1 75 81
f 1 81 79
f 1 79 78
f 1 78 66
f 1 66 65
f 1 65 64
f 1 64 63
f 1 63 50
f 1 50 33
f 1 33 18
f 1 18 15
f 1 15 9
f 1 9 4
f 1 4 11
f 1 11 17
f 1 17 29
f 1 29 32
f 1 32 49
f 1 49 48
f 1 48 37
f 1 37 21
f 1 21 12
f 1 12 5
f 1 5 2
f 2 5 6
f 2 6 7
f 2 7 3
f 3 7 8
f 4 9 10
f 4 10 11
f 5 12 24
f 5 24 40
f 5 40 55
f 5 55 69
f 5 69 80
f 5 80 70
f 5 70 58
f 5 58 45
f 5 45 28
f 5 28 25
f 5 25 13
f 5 13 7
f 5 7 6
f 7 13 14
f 7 14 8
f 9 15 10
f 10 16 17
f 10 17 11
f 10 15 18
f 10 18 19
f 10 19 20
f 10 20 16
f 12 21 22
f 12 22 23
f 12 23 24
f 13 25 14
f 14 26 27
f 14 25 28
f 14 28 26
f 16 29 17
f 16 20 30
f 16 30 31
f 16 31 32
f 16 32 29
f 18 33 34
f 18 34 19
f 19 34 35
f 19 35 36
f 19 36 20
f 20 36 30
f 21 37 22
f 22 37 31
f 22 31 23
f 23 31 30
f 23 30 38
f 23 38 39
f 23 39 40
f 23 40 24
f 26 41 42
f 26 42 43
f 26 43 44
f 26 44 27
f 26 28 45
f 26 45 41
f 27 44 46
f 30 36 47
f 30 47 38
f 31 48 49
f 31 49 32
f 31 37 48
f 33 50 34
f 34 50 51
f 34 51 35
f 35 51 52
f 35 52 36
f 36 52 53
f 36 53 47
f 38 47 39
f 39 47 54
f 39 54 55
f 39 55 40
f 41 45 42
f 42 56 57
f 42 57 43
f 42 45 58
f 42 58 56
f 43 57 44
f 44 57 59
f 44 59 60
f 44 60 46
f 47 53 61
f 47 61 62
f 47 62 54
f 50 63 51
f 51 63 64
f 51 64 65
f 51 65 66
f 51 66 67
f 51 67 68
f 51 68 52
f 52 68 53
f 53 68 61
f 54 62 55
f 55 62 69
f 56 58 57
f 57 58 70
f 57 70 71
f 57 71 59
f 59 71 72
f 59 72 73
f 59 73 74
f 59 74 75
f 61 68 76
f 61 76 74
f 61 74 73
f 61 73 77
f 61 77 62
f 62 77 69
f 66 78 67
f 67 78 79
f 67 79 74
f 67 74 76
f 67 76 68
f 69 77 80
f 70 80 77
f 70 77 72
f 70 72 71
f 72 77 73
f 74 79 81
f 74 81 75

