# https://github.com/mikedh/trimesh
v 0.80179448 0.50105975 1.84693104
v 0.80179448 0.39571189 1.84167628
v 0.80179448 0.50113201 1.84651067
v 0.68614665 0.50113201 2.05648996
v 0.65224679 0.46085254 2.11996711
v 0.65224679 0.45043954 2.11996711
v 0.80179448 0.39571189 0.19589311
v 0.75253376 0.39571189 1.92848456
v 0.80179448 0.50113201 0.32284742
v 0.68514610 0.50113201 2.05817144
v 0.67355192 0.50113201 2.07624761
v 0.65760250 0.50113201 2.09684630
v 0.62334956 0.46432010 2.15464833
v 0.62329072 0.43911838 2.15464833
v 0.61681678 0.39571189 2.14834273
v 0.62352613 0.39571189 2.13888412
v 0.79944033 0.39571189 0.19337079
v 0.80179448 0.39573254 0.19505228
v 0.80179448 0.41256466 0.21523044
v 0.71769227 0.50113201 0.22805201
v 0.62947035 0.50113201 2.12164859
v 0.61458033 0.48600270 2.14813256
v 0.48775025 0.39571189 2.29988917
v 0.76436342 0.39571189 0.18202054
v 0.68620549 0.50113201 0.19610327
v 0.80179448 0.39592862 0.19526243
v 0.70397936 0.50113201 0.21333880
v 0.60704706 0.50113201 2.13720264
v 0.49139923 0.45647682 2.24839293
v 0.48869195 0.42354528 2.28034167
v 0.47303680 0.39571189 2.30871729
v 0.71639752 0.39571189 0.17886774
v 0.63423751 0.43911838 0.17718626
v 0.63423751 0.47163706 0.18181038
v 0.66701914 0.50113201 0.19274031
v 0.70203717 0.50113201 0.21144716
v 0.48498413 0.50113201 2.19710667
v 0.50411164 0.49739613 2.19479452
v 0.52788863 0.49291717 2.18806839
v 0.50411164 0.48390773 2.21097904
v 0.50293458 0.46584750 2.23199805
v 0.48775025 0.48784999 2.21476252
v 0.27764201 0.50113201 2.25701070
v 0.43913700 0.39571189 2.32153885
v 0.46467955 0.39571189 2.31271073
v 0.67708312 0.39571189 0.17928807
v 0.27652378 0.39571189 0.21712228
v 0.60169133 0.47163706 0.18517335
v 0.63423751 0.50113201 0.18937715
v 0.47450817 0.50113201 2.20110031
v 0.47085924 0.50113201 2.20215113
v 0.24385988 0.50113201 2.26499779
v 0.40659078 0.39571189 2.32448149
v 0.20054345 0.39571189 0.23120500
v 0.27652378 0.40658932 0.21880377
v 0.60451629 0.50113201 0.19337079
v 0.24091719 0.50113201 2.26520795
v 0.40082313 0.39571189 2.32406098
v 0.20054345 0.41187320 0.23519845
v 0.20054345 0.39571189 2.30493381
v 0.20054345 0.42083107 0.23793093
v 0.27652378 0.42894273 0.22616037
v 0.31036474 0.44042902 0.22447888
v 0.32207666 0.45763266 0.22973368
v 0.20054345 0.45094522 0.25138317
v 0.34191041 0.50113201 0.25138317
v 0.20795902 0.50113201 2.25869218
v 0.20054345 0.50113201 2.25595970
v 0.20054345 0.43869524 0.24549790
v 0.20054345 0.48471270 0.27954844
v 0.20054345 0.48520805 0.27996896
v 0.20054345 0.50113201 0.29930629
f 1 2 7
f 1 7 18
f 1 18 26
f 1 26 19
f 1 19 9
f 1 9 3
f 1 3 4
f 1 4 5
f 1 5 6
f 1 6 2
f 2 6 8
f 2 8 16
f 2 16 15
f 2 15 23
f 2 23 31
f 2 31 45
f 2 45 44
f 2 44 53
f 2 53 58
f 2 58 60
f 2 60 54
f 2 54 47
f 2 47 46
f 2 46 32
f 2 32 24
f 2 24 17
f 2 17 7
f 3 9 20
f 3 20 27
f 3 27 36
f 3 36 25
f 3 25 35
f 3 35 49
f 3 49 56
f 3 56 66
f 3 66 72
f 3 72 68
f 3 68 67
f 3 67 57
f 3 57 52
f 3 52 43
f 3 43 51
f 3 51 50
f 3 50 37
f 3 37 28
f 3 28 21
f 3 21 12
f 3 12 11
f 3 11 10
f 3 10 4
f 4 10 5
f 5 10 11
f 5 11 12
f 5 12 13
f 5 13 6
f 6 13 14
f 6 14 15
f 6 15 16
f 6 16 8
f 7 17 18
f 9 19 20
f 12 21 22
f 12 22 13
f 13 22 23
f 13 23 14
f 14 23 15
f 17 24 25
f 17 25 18
f 18 25 26
f 19 26 20
f 20 26 27
f 21 28 22
f 22 28 29
f 22 29 30
f 22 30 23
f 23 30 31
f 24 32 33
f 24 33 34
f 24 34 35
f 24 35 25
f 25 36 26
f 26 36 27
f 28 37 38
f 28 38 39
f 28 39 40
f 28 40 41
f 28 41 29
f 29 41 42
f 29 42 43
f 29 43 44
f 29 44 30
f 30 44 45
f 30 45 31
f 32 46 33
f 33 47 48
f 33 48 34
f 33 46 47
f 34 48 49
f 34 49 35
f 37 50 42
f 37 42 38
f 38 42 39
f 39 42 40
f 40 42 41
f 42 50 51
f 42 51 43
f 43 52 44
f 44 52 53
f 47 54 55
f 47 55 48
f 48 56 49
f 48 55 56
f 52 57 53
f 53 57 58
f 54 59 55
f 54 60 68
f 54 68 72
f 54 72 71
f 54 71 70
f 54 70 65
f 54 65 69
f 54 69 61
f 54 61 59
f 55 59 61
f 55 61 62
f 55 62 56
f 56 62 63
f 56 63 64
f 56 64 65
f 56 65 66
f 57 60 58
f 57 67 60
f 60 67 68
f 61 69 62
f 62 69 63
f 63 69 64
f 64 69 65
f 65 70 66
f 66 70 71
f 66 71 72

