# https://github.com/mikedh/trimesh
v -0.88412640 0.70701942 1.49045038
v -0.87596812 0.70701942 1.67815871
v -0.86729413 0.80632011 1.49045038
v -0.40513419 0.70701942 1.49045038
v -0.87376453 0.70701942 1.70592381
v -0.87334246 0.70701942 1.71067192
v -0.87315498 0.70701942 1.71193807
v -0.85407221 0.72331194 1.74318513
v -0.85585383 0.80632011 1.52486282
v -0.40513419 0.80632011 1.49045038
v -0.40513419 0.70701942 1.95237297
v -0.86026120 0.70701942 1.75100819
v -0.84985241 0.71968598 1.76403154
v -0.83545823 0.80632011 1.57998604
v -0.40513419 0.80632011 1.83864460
v -0.43912686 0.70701942 1.94816752
v -0.40513419 0.71223961 1.94789619
v -0.60177606 0.80632011 1.86532439
v -0.60177606 0.79690042 1.87174564
v -0.60177606 0.77482387 1.88621608
v -0.85191535 0.70701942 1.76692561
v -0.69423620 0.80632011 1.80400604
v -0.75701718 0.80632011 1.73685432
v -0.77328678 0.80632011 1.71333989
v -0.78177325 0.80632011 1.69706071
v -0.79119743 0.80632011 1.67815871
v -0.80723258 0.80632011 1.64587161
v -0.81398419 0.80632011 1.63131078
v -0.82111096 0.80632011 1.61489589
v -0.62264055 0.75410828 1.89286343
v -0.63956656 0.80632011 1.85017574
v -0.65916509 0.80632011 1.83624792
v -0.67726326 0.80632011 1.82028528
v -0.43908000 0.80632011 1.84461364
v -0.60266692 0.70701942 1.91529254
v -0.60177606 0.75856053 1.89530529
v -0.60177606 0.73185676 1.90724337
v -0.57308152 0.80632011 1.86392257
v -0.59024197 0.80632011 1.86514355
v -0.62414090 0.80632011 1.85962668
v -0.62587570 0.73185676 1.89679755
f 1 2 3
f 1 3 10
f 1 10 4
f 1 4 11
f 1 11 16
f 1 16 35
f 1 35 21
f 1 21 12
f 1 12 7
f 1 7 6
f 1 6 5
f 1 5 2
f 2 5 3
f 3 5 6
f 3 6 7
f 3 7 8
f 3 8 9
f 3 9 14
f 3 14 29
f 3 29 28
f 3 28 27
f 3 27 26
f 3 26 25
f 3 25 24
f 3 24 23
f 3 23 22
f 3 22 33
f 3 33 32
f 3 32 31
f 3 31 40
f 3 40 18
f 3 18 39
f 3 39 38
f 3 38 34
f 3 34 15
f 3 15 10
f 4 10 15
f 4 15 17
f 4 17 11
f 7 12 13
f 7 13 8
f 8 13 9
f 9 13 14
f 11 17 18
f 11 18 19
f 11 19 20
f 11 20 16
f 12 21 13
f 13 22 23
f 13 23 24
f 13 24 25
f 13 25 26
f 13 26 27
f 13 27 28
f 13 28 29
f 13 29 14
f 13 21 30
f 13 30 31
f 13 31 32
f 13 32 33
f 13 33 22
f 15 34 17
f 16 20 36
f 16 36 37
f 16 37 35
f 17 34 38
f 17 38 39
f 17 39 18
f 18 40 19
f 19 40 20
f 20 40 30
f 20 30 36
f 21 35 41
f 21 41 30
f 30 41 35
f 30 35 37
f 30 37 36
f 30 40 31

