# https://github.com/mikedh/trimesh
v -1.43093382 -0.73284557 0.75759914
v -1.48756950 -0.73284557 0.79478624
v -1.49862040 -0.71749887 0.78211197
v -1.43093382 -0.71390006 0.74220897
v -1.43093382 -0.73284557 1.41812223
v -1.50176467 -0.73284557 0.80620696
v -1.50550085 -0.72486197 0.79993945
v -1.53448310 -0.69245196 0.80954962
v -1.52456365 -0.67249301 0.78789198
v -1.50300131 -0.69931864 0.77800332
v -1.49002968 -0.66678454 0.75557958
v -1.46769116 -0.68748807 0.74882467
v -1.43093382 -0.68461314 0.72918655
v -1.43093382 -0.52157032 1.41053162
v -1.51259184 -0.73284557 1.35955609
v -1.51193412 -0.73284557 0.83037160
v -1.52789212 -0.71410688 0.83246075
v -1.53744319 -0.69785018 0.83246075
v -1.54991490 -0.66678454 0.83246075
v -1.53674591 -0.66370279 0.79917345
v -1.52885247 -0.65081740 0.78357439
v -1.51322339 -0.66370279 0.77417317
v -1.49430532 -0.63427114 0.75265478
v -1.47803160 -0.63427114 0.74109477
v -1.47376915 -0.66678454 0.74478562
v -1.44745754 -0.66678454 0.73134536
v -1.43093382 -0.66678454 0.72319763
v -1.43234155 -0.52157032 1.40865136
v -1.53478574 -0.73284557 1.34312136
v -1.52432684 -0.73284557 1.35092091
v -1.43093382 -0.52157032 0.71393568
v -1.55524299 -0.73284557 1.12765921
v -1.55588763 -0.63427114 0.83246075
v -1.56143935 -0.71605106 1.14075128
v -1.54121891 -0.63427114 0.79993945
v -1.52902347 -0.63427114 0.78343513
v -1.51249975 -0.63427114 0.76867170
v -1.49387113 -0.60175769 0.75314228
v -1.47761060 -0.60175769 0.74067696
v -1.43093382 -0.56922360 0.70669327
v -1.43093382 -0.60175769 0.70704141
v -1.52901029 -0.61596683 0.78343513
v -1.43093382 -0.63034138 0.71156796
v -1.43386755 -0.52157032 1.40607473
v -1.54433683 -0.73284557 1.32717408
v -1.43093382 -0.52436251 0.71323932
v -1.46996706 -0.52157032 0.74617837
v -1.55843980 -0.73284557 1.28775857
v -1.56184716 -0.71683703 1.15767349
v -1.56268917 -0.59582171 0.84597065
v -1.56516243 -0.56922360 0.84186197
v -1.53803519 -0.60378461 0.79750216
v -1.56504398 -0.54274956 0.84227980
v -1.55546662 -0.56922360 0.82556649
v -1.49162150 -0.56922360 0.75502248
v -1.47536097 -0.56922360 0.74179116
v -1.51509148 -0.60378461 0.77208401
v -1.50968439 -0.56922360 0.77124831
v -1.43093382 -0.53671015 0.71024481
v -1.53920600 -0.56922360 0.80293396
v -1.53829827 -0.53671015 0.80578911
v -1.52766837 -0.59427051 0.78496713
v -1.46508625 -0.52157032 1.35015487
v -1.54845455 -0.73284557 1.31965310
v -1.48808259 -0.53671015 0.75808659
v -1.48622770 -0.52157032 0.76017579
v -1.55776890 -0.73284557 1.29312076
v -1.56333380 -0.67803601 1.17842583
v -1.56326798 -0.69931864 1.17863475
v -1.56187354 -0.71679564 1.17570992
v -1.56295225 -0.70155242 1.15628072
v -1.56532025 -0.57042320 0.86595696
v -1.56116307 -0.52157032 0.85154176
v -1.56082098 -0.52157032 0.85035789
v -1.55350635 -0.52157032 0.83211256
v -1.53673273 -0.52157032 0.80753007
v -1.56495190 -0.53383527 0.86317141
v -1.56312325 -0.52157032 0.86929961
v -1.50631658 -0.53671015 0.77431241
v -1.52594501 -0.56922360 0.78670813
v -1.52257711 -0.53671015 0.78956334
v -1.52832619 -0.52157032 0.79882526
v -1.46663870 -0.52157032 1.34548907
v -1.51153939 -0.52157032 0.78315653
v -1.56141308 -0.52157032 0.91240598
v -1.56283389 -0.52157032 0.88691822
f 1 2 3
f 1 3 4
f 1 4 13
f 1 13 27
f 1 27 43
f 1 43 41
f 1 41 40
f 1 40 59
f 1 59 46
f 1 46 31
f 1 31 14
f 1 14 5
f 1 5 15
f 1 15 30
f 1 30 29
f 1 29 45
f 1 45 64
f 1 64 67
f 1 67 48
f 1 48 32
f 1 32 16
f 1 16 6
f 1 6 2
f 2 6 3
f 3 6 7
f 3 7 8
f 3 8 9
f 3 9 10
f 3 10 11
f 3 11 12
f 3 12 4
f 4 12 13
f 5 14 15
f 6 16 17
f 6 17 7
f 7 17 8
f 8 17 18
f 8 18 19
f 8 19 20
f 8 20 9
f 9 20 21
f 9 21 10
f 10 21 22
f 10 22 11
f 11 23 24
f 11 24 25
f 11 25 12
f 11 22 21
f 11 21 23
f 12 25 26
f 12 26 13
f 13 26 27
f 14 28 29
f 14 29 30
f 14 30 15
f 14 31 47
f 14 47 66
f 14 66 84
f 14 84 82
f 14 82 76
f 14 76 75
f 14 75 74
f 14 74 73
f 14 73 78
f 14 78 86
f 14 86 85
f 14 85 83
f 14 83 63
f 14 63 44
f 14 44 28
f 16 32 17
f 17 32 18
f 18 32 19
f 19 33 20
f 19 32 34
f 19 34 33
f 20 35 21
f 20 33 35
f 21 35 36
f 21 36 37
f 21 37 23
f 23 38 39
f 23 39 40
f 23 40 41
f 23 41 24
f 23 37 42
f 23 42 38
f 24 41 43
f 24 43 25
f 25 43 26
f 26 43 27
f 28 44 45
f 28 45 29
f 31 46 47
f 32 48 49
f 32 49 34
f 33 50 51
f 33 51 35
f 33 34 50
f 34 49 51
f 34 51 50
f 35 52 42
f 35 42 36
f 35 51 53
f 35 53 54
f 35 54 52
f 36 42 37
f 38 55 56
f 38 56 40
f 38 40 39
f 38 42 57
f 38 57 58
f 38 58 55
f 40 56 59
f 42 58 57
f 42 52 54
f 42 54 60
f 42 60 61
f 42 61 62
f 42 62 58
f 44 63 45
f 45 63 64
f 46 59 47
f 47 59 65
f 47 65 66
f 48 67 68
f 48 68 69
f 48 69 70
f 48 70 49
f 49 70 69
f 49 69 71
f 49 71 51
f 51 71 69
f 51 69 72
f 51 72 53
f 53 73 74
f 53 74 75
f 53 75 76
f 53 76 61
f 53 61 54
f 53 72 77
f 53 77 78
f 53 78 73
f 54 61 60
f 55 65 59
f 55 59 56
f 55 58 79
f 55 79 65
f 58 62 80
f 58 80 81
f 58 81 79
f 61 76 82
f 61 82 81
f 61 81 80
f 61 80 62
f 63 83 67
f 63 67 64
f 65 79 66
f 66 79 84
f 67 83 68
f 68 83 85
f 68 85 86
f 68 86 77
f 68 77 72
f 68 72 69
f 77 86 78
f 79 81 82
f 79 82 84

