# https://github.com/mikedh/trimesh
v 0.87279768 0.39570157 1.80318338
v 0.66023592 0.39570157 2.05972342
v 0.81675962 0.26472616 2.02493834
v 0.82127507 0.24270765 2.03580863
v 0.83634066 0.21446155 2.00339527
v 0.87279768 0.37496055 1.80239280
v 0.87279768 0.39570157 0.22915827
v 0.66023592 0.21446155 2.11802797
v 0.68940981 0.21446155 2.11684203
v 0.69933561 0.21816973 2.11447036
v 0.73450243 0.21446155 2.10261177
v 0.75358410 0.23298475 2.08798619
v 0.79624212 0.24270765 2.05972342
v 0.78494296 0.26316481 2.05517762
v 0.80664649 0.25273220 2.04667894
v 0.66023592 0.39570157 0.18528172
v 0.81472035 0.23103308 2.05379412
v 0.82298138 0.21446155 2.03719213
v 0.87277683 0.21446155 1.78045448
v 0.87279768 0.21449703 1.78045448
v 0.86476542 0.27648946 1.84073545
v 0.87279768 0.35943583 1.80120696
v 0.87279768 0.32680729 0.16433154
v 0.85625468 0.33255589 0.15939044
v 0.86557697 0.39570157 0.22500777
v 0.66023592 0.21446155 0.13330177
v 0.69933561 0.21446155 2.11565629
v 0.71132147 0.21446155 2.11130805
v 0.80167321 0.21446155 2.05952566
v 0.81472035 0.22322637 2.05379412
v 0.67713265 0.39570157 0.17915468
v 0.70878281 0.30264195 0.12559368
v 0.82129593 0.21446155 2.04094730
v 0.87279768 0.21446155 1.77986156
v 0.87279768 0.30886959 0.14990373
v 0.87279768 0.30278389 0.14516016
v 0.85019927 0.29550947 0.13152296
v 0.82943210 0.29937733 0.12757005
v 0.79690799 0.30461139 0.12203606
v 0.76438388 0.38193336 0.17085370
v 0.76438388 0.39570157 0.18192186
v 0.79678314 0.39570157 0.19239676
v 0.79946749 0.39570157 0.19338494
v 0.71519191 0.22847814 0.10049301
v 0.71519191 0.22691679 0.10049301
v 0.72145534 0.21446155 0.10266712
v 0.81266023 0.21446155 2.05201527
v 0.71646126 0.39570157 0.17875956
v 0.73185972 0.38530446 0.17026084
v 0.73185972 0.36903453 0.15899531
v 0.73169328 0.31169065 0.12243138
v 0.73444000 0.27482167 0.10622474
v 0.87279768 0.21446155 0.11413040
v 0.87279768 0.28823502 0.13587102
v 0.87279768 0.27397002 0.12737248
v 0.79767792 0.27659592 0.10543411
v 0.87279768 0.28757855 0.13547571
v 0.76438388 0.28266386 0.10306243
v 0.76380123 0.31158419 0.12164075
v 0.74698771 0.26286319 0.10029544
v 0.76438388 0.26639395 0.09910951
v 0.76511217 0.24371898 0.09930727
v 0.73127708 0.21446155 0.10049301
v 0.86195625 0.21446155 0.11175872
v 0.87279768 0.24396738 0.11590920
v 0.78733597 0.26582619 0.09891196
v 0.78652441 0.24396738 0.09930727
v 0.76606938 0.21446155 0.10029544
v 0.78714869 0.21446155 0.10148119
v 0.78178002 0.21843587 0.10049301
v 0.77582869 0.21446155 0.10049301
f 1 2 3
f 1 3 4
f 1 4 5
f 1 5 6
f 1 6 22
f 1 22 20
f 1 20 34
f 1 34 53
f 1 53 65
f 1 65 55
f 1 55 57
f 1 57 54
f 1 54 36
f 1 36 35
f 1 35 23
f 1 23 7
f 1 7 25
f 1 25 43
f 1 43 42
f 1 42 41
f 1 41 48
f 1 48 31
f 1 31 16
f 1 16 2
f 2 8 9
f 2 9 10
f 2 10 11
f 2 11 12
f 2 12 13
f 2 13 14
f 2 14 15
f 2 15 3
f 2 16 26
f 2 26 8
f 3 15 17
f 3 17 4
f 4 17 18
f 4 18 5
f 5 18 33
f 5 33 47
f 5 47 29
f 5 29 11
f 5 11 28
f 5 28 27
f 5 27 9
f 5 9 8
f 5 8 26
f 5 26 46
f 5 46 63
f 5 63 68
f 5 68 71
f 5 71 69
f 5 69 64
f 5 64 53
f 5 53 34
f 5 34 19
f 5 19 20
f 5 20 21
f 5 21 22
f 5 22 6
f 7 23 24
f 7 24 25
f 9 27 10
f 10 27 28
f 10 28 11
f 11 29 30
f 11 30 17
f 11 17 12
f 12 17 13
f 13 17 15
f 13 15 14
f 16 31 32
f 16 32 26
f 17 30 33
f 17 33 18
f 19 34 20
f 20 22 21
f 23 35 24
f 24 35 36
f 24 36 37
f 24 37 38
f 24 38 39
f 24 39 40
f 24 40 41
f 24 41 42
f 24 42 43
f 24 43 25
f 26 32 44
f 26 44 45
f 26 45 46
f 29 47 30
f 30 47 33
f 31 48 49
f 31 49 50
f 31 50 51
f 31 51 32
f 32 51 52
f 32 52 44
f 36 54 37
f 37 55 56
f 37 56 38
f 37 54 57
f 37 57 55
f 38 56 39
f 39 56 58
f 39 58 59
f 39 59 40
f 40 49 41
f 40 59 49
f 41 49 48
f 44 52 60
f 44 60 61
f 44 61 45
f 45 61 62
f 45 62 63
f 45 63 46
f 49 59 50
f 50 59 58
f 50 58 51
f 51 58 52
f 52 58 60
f 53 64 65
f 55 65 56
f 56 66 58
f 56 65 66
f 58 66 61
f 58 61 60
f 61 66 62
f 62 66 67
f 62 67 68
f 62 68 63
f 64 69 67
f 64 67 66
f 64 66 65
f 67 69 70
f 67 70 71
f 67 71 68
f 69 71 70

