# https://github.com/mikedh/trimesh
v 0.82349601 0.72506743 1.19787306
v 0.82349601 1.06929230 1.19787306
v 1.12887780 0.72506743 1.19787306
v 0.82349601 0.72506743 1.74304282
v 0.82349601 1.06909009 1.19869503
v 0.91497054 0.97746532 1.50237687
v 0.82407434 1.06912382 1.19787306
v 1.12875604 0.73029063 1.19787306
v 1.13447886 0.72506743 1.32039791
v 0.83013208 0.72506743 1.74583744
v 0.82349601 0.72850460 1.73975503
v 0.82349601 1.05139866 1.26149174
v 0.90029804 0.97746532 1.50237687
v 0.89451435 0.95020362 1.54122755
v 0.91880607 0.94888943 1.53947408
v 0.92772522 0.96044780 1.51580199
v 0.95015999 0.95033846 1.50752773
v 0.96041853 0.95256250 1.47996513
v 1.01259401 0.94680014 1.37524915
v 0.82897533 1.06679868 1.19787306
v 1.12869507 0.73187445 1.19787306
v 1.13326123 0.73187445 1.32039791
v 1.13387009 0.72506743 1.32779543
v 1.12772104 0.75677722 1.19787306
v 1.12476821 0.78929581 1.19787306
v 0.83734658 0.72506743 1.74868687
v 0.82349601 0.75930458 1.70978140
v 0.82349601 0.98083507 1.47355394
v 0.82349601 0.97069199 1.48966410
v 0.89147022 0.96826574 1.51410331
v 0.82349601 0.95407890 1.51350055
v 0.86197313 0.94626097 1.53569311
v 0.89451435 0.93648858 1.55750209
v 0.92017589 0.91866231 1.56988611
v 0.93034311 0.92974898 1.55120051
v 0.94047989 0.94086929 1.52922712
v 0.94184972 0.90868771 1.56298174
v 0.94991648 0.91916784 1.54128234
v 0.96087521 0.92840106 1.51656916
v 0.97910919 0.91593284 1.50396597
v 0.97186425 0.93760055 1.48884216
v 0.97597384 0.94343039 1.46725236
v 1.03962548 0.90939535 1.39755129
v 1.04218250 0.91286631 1.37585191
v 1.03052360 0.93180455 1.35289220
v 1.01426831 0.94777736 1.35289220
v 0.85780277 1.05106171 1.19787306
v 1.12622946 0.76439299 1.32039791
v 1.12729480 0.76439299 1.28784883
v 1.13009543 0.72506743 1.35327578
v 1.12239391 0.79714742 1.19787306
v 0.86197313 0.72506743 1.75767349
v 0.82349601 0.79411458 1.67520484
v 0.84495677 0.94363250 1.53213133
v 0.82349601 0.80742529 1.66194408
v 0.89536663 0.72506743 1.75718032
v 0.92127178 0.72506743 1.74156331
v 1.00677987 0.84267340 1.52961070
v 0.92483327 0.72506743 1.73865910
v 0.94775517 0.72506743 1.71109651
v 0.95366071 0.72506743 1.70315105
v 1.01353770 0.85480468 1.50791131
v 1.00726688 0.87647249 1.49706164
v 1.04166496 0.84702038 1.46829350
v 1.04747917 0.88776128 1.41185317
v 1.05031015 0.89696086 1.38620842
v 1.04440461 0.91556215 1.35289220
v 1.07545424 0.88176306 1.31332916
v 1.04708339 0.91755034 1.32039791
v 1.04592673 0.91546104 1.28784883
v 1.08802630 0.85399593 1.19787306
v 1.11469240 0.79691152 1.32039791
v 1.10635159 0.81396268 1.33793277
v 1.10951749 0.79539513 1.35042637
v 1.11889320 0.76439299 1.35289220
v 1.12845156 0.73187445 1.35289220
v 1.11374873 0.82215130 1.19787306
v 1.12842112 0.72506743 1.35968695
v 1.03594213 0.72506743 1.58725657
v 1.04053864 0.77955705 1.52982988
v 1.07807215 0.82299378 1.40977090
v 1.07286679 0.84469523 1.39996234
v 1.06872677 0.86178012 1.38763314
v 1.07295810 0.87744972 1.33497376
v 1.07545424 0.88176306 1.29935607
v 1.11195265 0.82592547 1.19787306
v 1.10976100 0.82963227 1.19787306
v 1.10236387 0.84162871 1.19787306
v 1.10714310 0.78353344 1.37234493
v 1.11871058 0.72506743 1.38604403
v 1.04470909 0.72506743 1.56676269
f 1 2 7
f 1 7 20
f 1 20 47
f 1 47 71
f 1 71 88
f 1 88 87
f 1 87 86
f 1 86 77
f 1 77 51
f 1 51 25
f 1 25 24
f 1 24 21
f 1 21 8
f 1 8 3
f 1 3 9
f 1 9 23
f 1 23 50
f 1 50 78
f 1 78 90
f 1 90 91
f 1 91 79
f 1 79 61
f 1 61 60
f 1 60 59
f 1 59 57
f 1 57 56
f 1 56 52
f 1 52 26
f 1 26 10
f 1 10 4
f 1 4 11
f 1 11 27
f 1 27 53
f 1 53 55
f 1 55 31
f 1 31 29
f 1 29 28
f 1 28 12
f 1 12 5
f 1 5 2
f 2 5 6
f 2 6 7
f 3 8 9
f 4 10 11
f 5 12 6
f 6 13 14
f 6 14 15
f 6 15 16
f 6 16 17
f 6 17 18
f 6 18 19
f 6 19 20
f 6 20 7
f 6 12 13
f 8 21 9
f 9 22 23
f 9 21 24
f 9 24 25
f 9 25 22
f 10 26 27
f 10 27 11
f 12 28 13
f 13 28 29
f 13 29 30
f 13 30 14
f 14 30 29
f 14 29 31
f 14 31 32
f 14 32 33
f 14 33 15
f 15 33 34
f 15 34 35
f 15 35 36
f 15 36 16
f 16 36 17
f 17 36 37
f 17 37 38
f 17 38 39
f 17 39 40
f 17 40 41
f 17 41 42
f 17 42 18
f 18 42 19
f 19 43 44
f 19 44 45
f 19 45 46
f 19 46 47
f 19 47 20
f 19 42 43
f 22 48 23
f 22 25 49
f 22 49 48
f 23 48 50
f 25 51 48
f 25 48 49
f 26 52 27
f 27 52 53
f 31 54 32
f 31 55 54
f 32 54 33
f 33 54 55
f 33 55 52
f 33 52 56
f 33 56 34
f 34 56 57
f 34 57 37
f 34 37 35
f 35 37 36
f 37 58 40
f 37 40 38
f 37 57 59
f 37 59 60
f 37 60 61
f 37 61 58
f 38 40 39
f 40 58 62
f 40 62 63
f 40 63 64
f 40 64 65
f 40 65 41
f 41 65 43
f 41 43 42
f 43 65 66
f 43 66 44
f 44 67 45
f 44 66 68
f 44 68 67
f 45 67 69
f 45 69 46
f 46 69 70
f 46 70 47
f 47 70 71
f 48 72 73
f 48 73 74
f 48 74 75
f 48 75 76
f 48 76 50
f 48 51 77
f 48 77 72
f 50 76 78
f 52 55 53
f 58 61 79
f 58 79 62
f 62 64 63
f 62 79 64
f 64 79 80
f 64 80 81
f 64 81 82
f 64 82 65
f 65 82 83
f 65 83 66
f 66 83 73
f 66 73 84
f 66 84 68
f 67 68 69
f 68 85 69
f 68 84 73
f 68 73 86
f 68 86 87
f 68 87 88
f 68 88 85
f 69 85 88
f 69 88 70
f 70 88 71
f 72 77 73
f 73 83 82
f 73 82 89
f 73 89 74
f 73 77 86
f 74 89 75
f 75 89 78
f 75 78 76
f 78 89 90
f 79 91 81
f 79 81 80
f 81 89 82
f 81 91 89
f 89 91 90

