# https://github.com/mikedh/trimesh
v 0.52690064 0.88152585 0.26612538
v 0.45210014 0.88152585 0.29573897
v 0.40202945 1.08293464 0.47427108
v 0.40658912 1.08293464 0.47469617
v 0.52690064 0.89231105 0.27873590
v 0.52690064 0.88152585 1.57748602
v 0.42004807 0.88152585 0.31500913
v 0.41462047 0.88819023 0.32209382
v 0.40202945 0.88152585 0.33031191
v 0.40202945 1.08293464 1.59321383
v 0.47870023 1.08293464 0.49835875
v 0.52690064 1.08293464 0.51621197
v 0.52690064 0.88568613 1.57691923
v 0.48786847 0.88152585 1.66547679
v 0.41290909 0.88152585 0.31954329
v 0.40202945 0.88152585 1.71365212
v 0.40202945 0.89666850 1.70996816
v 0.42270072 0.91066757 1.69424030
v 0.43911795 0.90508764 1.69083972
v 0.45800452 0.88160466 1.69565724
v 0.40454765 1.08293464 1.59137182
v 0.52690064 1.08293464 1.48907013
v 0.52690064 0.91693750 1.57195999
v 0.47432394 0.88152585 1.68120465
v 0.52690064 0.94521162 1.56544219
v 0.45805338 0.88152585 1.69565724
v 0.50418788 1.08293464 1.51372455
v 0.48400559 1.08293464 1.53001916
f 1 2 3
f 1 3 4
f 1 4 5
f 1 5 12
f 1 12 22
f 1 22 25
f 1 25 23
f 1 23 13
f 1 13 6
f 1 6 14
f 1 14 24
f 1 24 26
f 1 26 16
f 1 16 9
f 1 9 15
f 1 15 7
f 1 7 2
f 2 7 8
f 2 8 3
f 3 8 9
f 3 9 16
f 3 16 17
f 3 17 10
f 3 10 21
f 3 21 28
f 3 28 27
f 3 27 22
f 3 22 12
f 3 12 11
f 3 11 4
f 4 11 5
f 5 11 12
f 6 13 14
f 7 15 8
f 8 15 9
f 10 17 18
f 10 18 19
f 10 19 20
f 10 20 21
f 13 23 14
f 14 23 25
f 14 25 22
f 14 22 24
f 16 26 20
f 16 20 17
f 17 20 19
f 17 19 18
f 20 26 24
f 20 24 27
f 20 27 28
f 20 28 21
f 22 27 24

