# https://github.com/mikedh/trimesh
v -0.91629926 -0.63427114 2.29505255
v -0.91629926 -0.65054854 2.28688032
v -0.91629926 -0.60175769 2.29280515
v -0.97758261 -0.52157032 2.24887995
v -0.97758261 -0.52438321 2.24887995
v -1.05200103 -0.56922360 2.19187921
v -1.04769341 -0.59387753 2.18820178
v -0.91629926 -0.65853209 2.28238570
v -0.91629926 -0.52157032 2.28238570
v -0.91661760 -0.52157032 2.28238570
v -1.04342824 -0.52157032 2.18452435
v -1.04809657 -0.53671015 2.18861047
v -1.06435109 -0.53671015 2.17267468
v -1.06825555 -0.56922360 2.17553492
v -0.91629926 -0.67274122 2.26788013
v -1.07644650 -0.58895503 2.15449168
v -1.10704568 -0.61913131 2.08707168
v -0.91629926 -0.52157032 0.30738430
v -1.04612311 -0.52157032 2.18186845
v -1.07451550 -0.52157032 2.15122294
v -1.07827144 -0.53671015 2.15633039
v -1.10791569 -0.54690679 2.11996440
v -1.08007507 -0.56922360 2.15939498
v -1.10598468 -0.58568711 2.11730850
v -0.94318503 -0.68297920 2.21455701
v -0.91629926 -0.68103502 2.25419175
v -1.11022871 -0.59861391 2.09912550
v -1.12128427 -0.60175769 2.06827566
v -1.13306144 -0.73284557 1.86397225
v -0.91629926 -0.52159101 0.30002944
v -0.91636294 -0.52157032 0.30002944
v -1.10343832 -0.52157032 2.11322238
v -1.10420219 -0.52523122 2.11506109
v -1.11748597 -0.53631721 2.10280293
v -1.11943819 -0.56922360 2.10096422
v -1.10747006 -0.56922360 2.11935157
v -1.09635083 -0.56922360 2.13569585
v -0.91629926 -0.68589548 2.24561103
v -1.13214895 -0.56922360 2.06827566
v -0.92606050 -0.73284557 2.13079254
v -1.13301897 -0.53671015 2.06827566
v -1.13306144 -0.66546086 1.92628481
v -1.13306144 -0.73284557 0.25365249
v -0.92033109 -0.52157032 0.28817978
v -0.91629926 -0.73280418 0.36642810
v -1.11502442 -0.52157032 2.09728679
v -1.12143287 -0.52157032 2.08298556
v -0.91629926 -0.73284557 2.14141633
v -1.12709859 -0.52157032 2.06950152
v -1.13306144 -0.52157032 1.92587616
v -1.13306144 -0.58043367 1.95754319
v -1.13306144 -0.59875868 1.96285510
v -1.13306144 -0.60326755 1.96387662
v -1.13306144 -0.63578100 1.94794094
v -1.13306144 -0.64301997 1.94385486
v -1.13306144 -0.66000060 1.93118805
v -1.13306144 -0.73245259 0.25344815
v -1.12217551 -0.73284557 0.25160944
v -0.93138674 -0.52157032 0.26284626
v -0.91629926 -0.73284557 0.36683660
v -0.98091417 -0.73284557 0.27898619
v -0.96746066 -0.72382784 0.27959903
v -0.97335982 -0.71791251 0.26121169
v -0.95615045 -0.69931864 0.27959903
v -0.93592779 -0.52157032 0.25324399
v -1.13306144 -0.52157032 0.23056618
v -1.13306144 -0.72093221 0.25099660
v -1.12096602 -0.73284557 0.25140508
v -0.99171508 -0.73284557 0.27020111
v -0.96966755 -0.69931864 0.25835146
v -1.02208092 -0.73284557 0.25324399
v -1.02348146 -0.73284557 0.25283530
v -0.97482396 -0.62068251 0.23015769
v -0.94632552 -0.52157032 0.23710386
v -1.02460604 -0.52157032 0.21238320
v -1.13306144 -0.52260450 0.23056618
v -1.13306144 -0.69931864 0.24813634
v -1.08964534 -0.73185278 0.24629763
v -1.08964534 -0.73284557 0.24670613
v -0.97128030 -0.60175769 0.22750160
v -0.96113712 -0.52157032 0.21708215
v -1.03390043 -0.73284557 0.25017940
v -1.05711508 -0.73185278 0.24384588
v -0.99247903 -0.52157032 0.20788858
v -1.05711508 -0.73284557 0.24445891
v -1.05592681 -0.73284557 0.24466307
f 1 2 8
f 1 8 15
f 1 15 26
f 1 26 38
f 1 38 48
f 1 48 60
f 1 60 45
f 1 45 30
f 1 30 18
f 1 18 9
f 1 9 3
f 1 3 4
f 1 4 5
f 1 5 6
f 1 6 7
f 1 7 2
f 2 7 8
f 3 9 10
f 3 10 4
f 4 10 9
f 4 9 18
f 4 18 31
f 4 31 44
f 4 44 59
f 4 59 65
f 4 65 74
f 4 74 81
f 4 81 84
f 4 84 75
f 4 75 66
f 4 66 50
f 4 50 49
f 4 49 47
f 4 47 46
f 4 46 32
f 4 32 20
f 4 20 19
f 4 19 11
f 4 11 12
f 4 12 6
f 4 6 5
f 6 12 13
f 6 13 14
f 6 14 7
f 7 15 8
f 7 14 16
f 7 16 17
f 7 17 15
f 11 19 13
f 11 13 12
f 13 19 20
f 13 20 21
f 13 21 14
f 14 21 22
f 14 22 23
f 14 23 24
f 14 24 16
f 15 25 26
f 15 17 25
f 16 24 17
f 17 24 27
f 17 27 28
f 17 28 29
f 17 29 25
f 18 30 31
f 20 32 33
f 20 33 21
f 21 33 34
f 21 34 22
f 22 34 35
f 22 35 36
f 22 36 37
f 22 37 23
f 23 37 24
f 24 36 35
f 24 35 27
f 24 37 36
f 25 38 26
f 25 29 38
f 27 35 28
f 28 39 29
f 28 35 39
f 29 40 38
f 29 39 41
f 29 41 42
f 29 42 56
f 29 56 55
f 29 55 54
f 29 54 53
f 29 53 52
f 29 52 51
f 29 51 50
f 29 50 66
f 29 66 76
f 29 76 77
f 29 77 67
f 29 67 57
f 29 57 43
f 29 43 58
f 29 58 68
f 29 68 79
f 29 79 85
f 29 85 86
f 29 86 82
f 29 82 72
f 29 72 71
f 29 71 69
f 29 69 61
f 29 61 60
f 29 60 48
f 29 48 40
f 30 44 31
f 30 45 44
f 32 46 33
f 33 46 34
f 34 46 47
f 34 47 41
f 34 41 35
f 35 41 39
f 38 40 48
f 41 47 49
f 41 49 50
f 41 50 51
f 41 51 52
f 41 52 53
f 41 53 54
f 41 54 55
f 41 55 56
f 41 56 42
f 43 57 58
f 44 45 59
f 45 60 61
f 45 61 62
f 45 62 63
f 45 63 64
f 45 64 65
f 45 65 59
f 57 67 58
f 58 67 68
f 61 69 63
f 61 63 62
f 63 70 64
f 63 69 71
f 63 71 72
f 63 72 73
f 63 73 70
f 64 70 65
f 65 70 74
f 66 75 76
f 67 77 78
f 67 78 68
f 68 78 79
f 70 73 80
f 70 80 81
f 70 81 74
f 72 82 83
f 72 83 73
f 73 83 84
f 73 84 80
f 75 84 77
f 75 77 76
f 77 84 78
f 78 83 79
f 78 84 83
f 79 83 85
f 80 84 81
f 82 86 83
f 83 86 85

