# https://github.com/mikedh/trimesh
v 0.40201724 0.88152585 0.33046751
v 0.39614528 0.88152585 0.33366606
v 0.20533562 1.02459218 0.43730024
v 0.20533562 1.02973831 0.43857973
v 0.20533562 1.05929405 0.44753580
v 0.20882028 1.06024045 0.44705597
v 0.24395575 1.05710548 0.43953932
v 0.27649215 1.08293464 0.45185390
v 0.27914897 1.08293464 0.45217369
v 0.30207848 1.07970109 0.45393293
v 0.40201724 1.08293464 0.47440395
v 0.40201724 0.88152585 1.71353686
v 0.20533562 0.88152585 0.44593644
v 0.20533562 1.06118685 0.44865524
v 0.20533562 1.06380921 0.45025462
v 0.24395575 1.08293464 0.45601204
v 0.24395575 1.07989826 0.45393293
v 0.27289198 1.08293464 0.45217369
v 0.29792000 1.08293464 0.45553220
v 0.40201724 1.08293464 1.59327004
v 0.40201724 0.89666850 1.70985856
v 0.40195947 1.02459218 1.77558952
v 0.40168995 0.99205920 1.77558952
v 0.39550995 0.99205920 1.80421688
v 0.39279538 0.96565811 1.80085837
v 0.38884866 0.95670669 1.81029420
v 0.38253389 0.92703259 1.80821508
v 0.37302326 0.89449961 1.80821508
v 0.36383991 0.88152585 1.82116945
v 0.20533562 0.88152585 1.96398635
v 0.20533562 1.07993771 0.46240925
v 0.20533562 1.08293464 0.46480817
v 0.32600911 1.08293464 1.77558952
v 0.33919693 1.07871523 1.77558952
v 0.35546514 1.07244530 1.77558952
v 0.37404362 1.06227130 1.77558952
v 0.39487462 1.04695126 1.77558952
v 0.39248734 1.04413173 1.79510096
v 0.39527892 1.02459218 1.79989879
v 0.38775127 0.99205920 1.82052966
v 0.37233018 0.95954590 1.83716233
v 0.36784438 0.92703259 1.83540310
v 0.36039375 0.88152585 1.82836620
v 0.33245862 0.88152585 1.85491454
v 0.34632029 0.89449961 1.84691805
v 0.35049805 0.92703259 1.85171588
v 0.37150232 0.99205920 1.83476341
v 0.36541859 1.02459218 1.82996548
v 0.35979690 1.04243599 1.82564739
v 0.34152647 1.04720756 1.82964568
v 0.28567553 1.03594911 1.85523433
v 0.26399741 1.04255435 1.85779320
v 0.24395575 1.06242901 1.85027655
v 0.21143860 1.04979047 1.86227124
v 0.20533562 1.05053970 1.86259113
v 0.20533562 1.08293464 1.84212011
v 0.29999924 1.08293464 1.80821508
v 0.33484590 1.07646754 1.79733992
v 0.37200289 1.05000732 1.80677574
v 0.38168680 1.02459218 1.81621157
v 0.34401001 1.06518941 1.80821508
v 0.29593699 1.07489016 1.82612723
v 0.30766166 1.05799275 1.83444352
v 0.27549103 1.05487747 1.84707799
v 0.24395575 1.08293464 1.83588295
v 0.21313279 1.08293464 1.84100068
v 0.20533562 1.06680624 1.85267547
v 0.27649215 1.08293464 1.82260878
v 0.27649215 1.07869555 1.82964568
v 0.25650827 1.08293464 1.83236449
f 1 2 3
f 1 3 4
f 1 4 5
f 1 5 6
f 1 6 7
f 1 7 8
f 1 8 9
f 1 9 10
f 1 10 11
f 1 11 20
f 1 20 21
f 1 21 12
f 1 12 29
f 1 29 43
f 1 43 44
f 1 44 30
f 1 30 13
f 1 13 2
f 2 13 3
f 3 13 30
f 3 30 55
f 3 55 67
f 3 67 56
f 3 56 32
f 3 32 31
f 3 31 15
f 3 15 14
f 3 14 5
f 3 5 4
f 5 14 6
f 6 14 15
f 6 15 16
f 6 16 17
f 6 17 7
f 7 17 18
f 7 18 8
f 8 18 16
f 8 16 32
f 8 32 56
f 8 56 66
f 8 66 65
f 8 65 70
f 8 70 68
f 8 68 57
f 8 57 33
f 8 33 20
f 8 20 11
f 8 11 19
f 8 19 9
f 9 19 10
f 10 19 11
f 12 21 22
f 12 22 23
f 12 23 24
f 12 24 25
f 12 25 26
f 12 26 27
f 12 27 28
f 12 28 29
f 15 31 16
f 16 18 17
f 16 31 32
f 20 33 34
f 20 34 35
f 20 35 36
f 20 36 37
f 20 37 22
f 20 22 21
f 22 37 38
f 22 38 39
f 22 39 24
f 22 24 23
f 24 39 40
f 24 40 26
f 24 26 25
f 26 40 41
f 26 41 42
f 26 42 43
f 26 43 27
f 27 43 29
f 27 29 28
f 30 44 45
f 30 45 46
f 30 46 41
f 30 41 47
f 30 47 48
f 30 48 49
f 30 49 50
f 30 50 51
f 30 51 52
f 30 52 53
f 30 53 54
f 30 54 55
f 33 57 58
f 33 58 34
f 34 58 35
f 35 58 36
f 36 58 38
f 36 38 37
f 38 58 59
f 38 59 49
f 38 49 60
f 38 60 39
f 39 60 40
f 40 60 47
f 40 47 41
f 41 46 42
f 42 46 45
f 42 45 43
f 43 45 44
f 47 60 48
f 48 60 49
f 49 59 61
f 49 61 62
f 49 62 50
f 50 63 51
f 50 62 63
f 51 63 64
f 51 64 52
f 52 64 53
f 53 64 65
f 53 65 66
f 53 66 56
f 53 56 67
f 53 67 54
f 54 67 55
f 57 68 62
f 57 62 58
f 58 62 61
f 58 61 59
f 62 68 69
f 62 69 64
f 62 64 63
f 64 69 70
f 64 70 65
f 68 70 69

