# https://github.com/mikedh/trimesh
v -0.89664154 -0.95480467 1.89867548
v -1.01936122 -0.95480467 1.90471542
v -0.89664154 -1.05712284 1.89475488
v -0.89664154 -0.95480467 1.36366700
v -1.02507124 -0.95480467 1.90492733
v -0.89664154 -1.05909649 1.89459590
v -0.89664154 -1.10638989 1.36366700
v -1.35045099 -0.95480467 1.36366700
v -1.05320693 -0.95480467 1.90137757
v -0.91460052 -1.07564250 1.89046335
v -0.89664154 -1.07884774 1.89173488
v -1.20019420 -1.10638989 1.36366700
v -0.89664154 -1.10638989 1.87456886
v -1.35399677 -0.95480467 1.37776011
v -1.05928532 -0.95480467 1.90052985
v -0.89664154 -1.09496345 1.88378763
v -1.08640801 -0.95480467 1.89427804
v -1.08967743 -0.95480467 1.89348325
v -1.08967743 -0.97011899 1.88723144
v -1.13936393 -1.00890930 1.85734981
v -0.92606660 -1.08775148 1.87917825
v -1.35482559 -0.95480467 1.38544243
v -1.19618797 -1.10638989 1.48181604
v -1.33944535 -0.98065496 1.61310450
v -1.36550890 -0.95480467 1.51551232
v -0.89664154 -1.09620997 1.88283397
v -0.91934349 -1.10638989 1.86709845
v -1.11804345 -0.95480467 1.88553605
v -0.94370326 -1.10612273 1.85734981
v -0.92689552 -1.10638989 1.86444933
v -1.15198136 -0.99058264 1.86084659
v -1.17279533 -0.97872590 1.85840943
v -1.16105289 -1.00042115 1.85035623
v -1.13996262 -1.04183818 1.82598469
v -1.18651784 -1.10638989 1.61310450
v -1.33875467 -0.98016533 1.63895954
v -1.35570055 -0.96550388 1.61310450
v -1.36707454 -0.95480467 1.61310450
v -1.12361534 -0.95480467 1.88362870
v -0.94255203 -1.10638989 1.85761474
v -1.14700805 -1.10638989 1.73374369
v -1.14972494 -0.95480467 1.87456886
v -1.15460603 -0.95480467 1.87260853
v -1.17343997 -0.95480467 1.86407845
v -1.17767644 -0.95480467 1.86164134
v -1.19535914 -0.95480467 1.84283285
v -1.19443813 -0.96117077 1.84071355
v -1.35238508 -0.95480467 1.64902607
v -1.33267619 -0.97443728 1.66068200
v -1.17961054 -0.99058264 1.84002481
v -1.17376228 -1.01129853 1.82868677
v -1.15534286 -1.10638989 1.72463081
v -1.18357064 -1.10638989 1.64558223
v -1.35804897 -0.95480467 1.64118478
v -1.17859744 -1.10638989 1.67811296
v -1.17238082 -1.10638989 1.69861685
v -1.16892722 -1.10638989 1.70651111
v -1.16326325 -1.10638989 1.71488222
f 1 2 3
f 1 3 6
f 1 6 11
f 1 11 16
f 1 16 26
f 1 26 13
f 1 13 7
f 1 7 4
f 1 4 8
f 1 8 14
f 1 14 22
f 1 22 25
f 1 25 38
f 1 38 54
f 1 54 48
f 1 48 46
f 1 46 45
f 1 45 44
f 1 44 43
f 1 43 42
f 1 42 39
f 1 39 28
f 1 28 18
f 1 18 17
f 1 17 15
f 1 15 9
f 1 9 5
f 1 5 2
f 2 5 3
f 3 5 6
f 4 7 12
f 4 12 8
f 5 9 10
f 5 10 11
f 5 11 6
f 7 13 27
f 7 27 30
f 7 30 40
f 7 40 41
f 7 41 52
f 7 52 58
f 7 58 57
f 7 57 56
f 7 56 55
f 7 55 53
f 7 53 35
f 7 35 23
f 7 23 12
f 8 12 14
f 9 15 10
f 10 16 11
f 10 15 17
f 10 17 18
f 10 18 19
f 10 19 20
f 10 20 21
f 10 21 16
f 12 22 14
f 12 23 24
f 12 24 25
f 12 25 22
f 13 26 27
f 16 21 26
f 18 28 19
f 19 28 20
f 20 29 30
f 20 30 21
f 20 28 31
f 20 31 32
f 20 32 33
f 20 33 34
f 20 34 29
f 21 30 27
f 21 27 26
f 23 35 36
f 23 36 24
f 24 36 37
f 24 37 25
f 25 37 38
f 28 39 32
f 28 32 31
f 29 40 30
f 29 34 41
f 29 41 40
f 32 42 43
f 32 43 44
f 32 44 45
f 32 45 46
f 32 46 47
f 32 47 48
f 32 48 49
f 32 49 50
f 32 50 51
f 32 51 33
f 32 39 42
f 33 51 34
f 34 51 52
f 34 52 41
f 35 53 36
f 36 49 54
f 36 54 38
f 36 38 37
f 36 53 55
f 36 55 56
f 36 56 57
f 36 57 49
f 46 48 47
f 48 54 49
f 49 57 58
f 49 58 51
f 49 51 50
f 51 58 52

