# https://github.com/mikedh/trimesh
v 0.28143581 -1.28253040 1.50979566
v 0.08133893 -1.27868478 1.61311526
v 0.27645769 -1.28218966 1.50979566
v 0.28143581 -0.78528428 1.50979566
v 0.28143581 -1.27055558 1.55993964
v 0.17888646 -1.23920689 1.76585120
v 0.14638643 -1.24986742 1.74323490
v 0.11386268 -1.25449184 1.74323490
v 0.08133893 -1.27459585 1.64567552
v 0.04879149 -1.27561806 1.61311526
v 0.04568608 -1.27279475 1.57752336
v 0.08133893 -1.27556940 1.58061569
v 0.04879149 -1.27016619 1.67071714
v 0.04879149 -1.27318424 1.64567552
v 0.03928564 -1.23682174 1.52756129
v 0.03928564 -1.22241301 1.51634409
v 0.03928564 -1.21136308 1.50979566
v 0.03928564 -1.27084766 1.57170254
v 0.03928564 -1.26899789 1.56382017
v 0.03928564 -1.25093839 1.54053689
v 0.03928564 -1.23891482 1.52925904
v 0.03928564 -0.78528428 1.50979566
v 0.28143581 -0.78528428 2.10376203
v 0.28143581 -1.11308218 1.80380780
v 0.19612026 -1.23677308 1.76087927
v 0.11386268 -1.22275375 1.84073366
v 0.11386268 -1.23331686 1.81714722
v 0.09504064 -1.23555612 1.82302866
v 0.14515374 -1.24173823 1.77676523
v 0.11386268 -1.24680070 1.77573449
v 0.04879149 -1.24519435 1.80829471
v 0.08133893 -1.25707174 1.74323490
v 0.03928564 -1.25152244 1.77573449
v 0.04879149 -1.26729411 1.68696692
v 0.03928564 -1.27328157 1.61311526
v 0.03928564 -1.27367097 1.60183741
v 0.03928564 -1.27138314 1.64567552
v 0.03928564 -1.27196729 1.57734146
v 0.03928564 -1.26958204 1.66823117
v 0.03928564 -0.78528428 2.12922816
v 0.27550947 -0.78528428 2.10667249
v 0.28143581 -0.79239127 2.10206427
v 0.28143581 -1.10139944 1.82011825
v 0.16743678 -1.20824769 1.82933456
v 0.13391741 -1.20600853 1.86043955
v 0.08304572 -1.23054221 1.83964224
v 0.11386268 -1.20922124 1.86668481
v 0.08299832 -1.21272612 1.87571923
v 0.07337394 -1.23730846 1.82800060
v 0.04879149 -1.23906090 1.83188116
v 0.03928564 -1.24548642 1.80829471
v 0.03928564 -1.24728752 1.79877523
v 0.03928564 -0.82948396 2.12686346
v 0.04879149 -0.82948396 2.12862181
v 0.04779587 -0.78528428 2.12886435
v 0.25066627 -0.78528428 2.11510055
v 0.27645769 -0.79691831 2.10339822
v 0.28143581 -0.79691831 2.10073040
v 0.28143581 -1.08465422 1.83915716
v 0.28143581 -0.94538630 1.99431847
v 0.28143581 -0.91846737 2.02020898
v 0.11386268 -1.19529933 1.88299527
v 0.09494581 -1.20235766 1.88820974
v 0.04879149 -1.22031983 1.87329388
v 0.04879149 -1.23239197 1.84813093
v 0.07327913 -1.20581378 1.89209030
v 0.03928564 -1.23910957 1.83218434
v 0.03928564 -1.24110542 1.82496892
v 0.03928564 -1.23258672 1.84843410
v 0.04879149 -0.86200085 2.12577203
v 0.03928564 -0.86200085 2.12395300
v 0.23708309 -0.78528428 2.11619197
v 0.06886993 -0.88025510 2.11879921
v 0.24459770 -0.79433841 2.11285712
v 0.24336502 -0.83152838 2.09418197
v 0.27645769 -0.82057587 2.09030146
v 0.28143581 -0.81872610 2.08890681
v 0.28143581 -0.91116563 2.02633302
v 0.08299832 -1.18979870 1.90076090
v 0.28143581 -0.87684764 2.05155656
v 0.04879149 -1.20771221 1.89384866
v 0.03928564 -1.21160649 1.88784594
v 0.03928564 -1.22051458 1.87329388
v 0.03928564 -1.22406803 1.86626037
v 0.03928564 -0.87134700 2.12207338
v 0.03928564 -0.88049851 2.11910233
v 0.04879149 -0.88108265 2.11952682
v 0.25381907 -0.84374660 2.08296472
v 0.03928564 -1.20771221 1.89372739
f 1 2 3
f 1 3 17
f 1 17 22
f 1 22 4
f 1 4 23
f 1 23 42
f 1 42 58
f 1 58 77
f 1 77 80
f 1 80 78
f 1 78 61
f 1 61 60
f 1 60 59
f 1 59 43
f 1 43 24
f 1 24 5
f 1 5 6
f 1 6 7
f 1 7 8
f 1 8 9
f 1 9 2
f 2 10 11
f 2 11 12
f 2 12 3
f 2 9 13
f 2 13 14
f 2 14 10
f 3 15 16
f 3 16 17
f 3 12 11
f 3 11 18
f 3 18 19
f 3 19 20
f 3 20 21
f 3 21 15
f 4 22 40
f 4 40 55
f 4 55 72
f 4 72 56
f 4 56 41
f 4 41 23
f 5 24 25
f 5 25 6
f 6 25 26
f 6 26 27
f 6 27 28
f 6 28 29
f 6 29 7
f 7 29 30
f 7 30 8
f 8 30 31
f 8 31 32
f 8 32 9
f 9 32 33
f 9 33 34
f 9 34 13
f 10 35 36
f 10 36 11
f 10 14 37
f 10 37 35
f 11 36 38
f 11 38 18
f 13 39 14
f 13 34 33
f 13 33 39
f 14 39 37
f 15 21 20
f 15 20 19
f 15 19 18
f 15 18 38
f 15 38 36
f 15 36 35
f 15 35 37
f 15 37 39
f 15 39 33
f 15 33 52
f 15 52 51
f 15 51 68
f 15 68 67
f 15 67 69
f 15 69 84
f 15 84 83
f 15 83 82
f 15 82 89
f 15 89 86
f 15 86 85
f 15 85 71
f 15 71 53
f 15 53 40
f 15 40 22
f 15 22 17
f 15 17 16
f 23 41 42
f 24 43 25
f 25 43 44
f 25 44 45
f 25 45 26
f 26 46 28
f 26 28 27
f 26 45 47
f 26 47 48
f 26 48 46
f 28 46 49
f 28 49 30
f 28 30 29
f 30 49 50
f 30 50 31
f 31 50 51
f 31 51 32
f 32 51 52
f 32 52 33
f 40 53 54
f 40 54 55
f 41 56 57
f 41 57 42
f 42 57 58
f 43 59 44
f 44 59 60
f 44 60 45
f 45 60 61
f 45 61 62
f 45 62 63
f 45 63 47
f 46 48 64
f 46 64 65
f 46 65 49
f 47 63 48
f 48 63 66
f 48 66 64
f 49 65 50
f 50 67 68
f 50 68 51
f 50 65 69
f 50 69 67
f 53 70 54
f 53 71 70
f 54 70 56
f 54 56 72
f 54 72 55
f 56 70 73
f 56 73 74
f 56 74 57
f 57 75 76
f 57 76 77
f 57 77 58
f 57 74 73
f 57 73 75
f 61 78 63
f 61 63 62
f 63 79 66
f 63 78 80
f 63 80 73
f 63 73 79
f 64 66 81
f 64 81 82
f 64 82 83
f 64 83 84
f 64 84 65
f 65 84 69
f 66 79 73
f 66 73 81
f 70 71 85
f 70 85 86
f 70 86 87
f 70 87 73
f 73 80 88
f 73 88 75
f 73 87 81
f 75 88 76
f 76 88 80
f 76 80 77
f 81 89 82
f 81 87 89
f 86 89 87

