# https://github.com/mikedh/trimesh
v -1.29124936 -0.11382797 1.47145640
v -1.29034979 -0.12638899 1.47145640
v -1.28891064 -0.12638899 1.48299909
v -1.28342349 -0.12638899 1.51675051
v -1.28270391 -0.08163417 1.47145640
v -0.37229207 -0.12638899 1.47145640
v -1.27856603 -0.12638899 1.53355316
v -1.27532773 -0.12027332 1.53906880
v -1.27883590 -0.11119049 1.51766368
v -1.27181955 -0.06706207 1.47145640
v -1.18285630 -0.01627400 1.74318440
v -1.17449067 0.00482588 1.74318440
v -1.15425134 0.04201441 1.71063843
v -0.37229207 0.04201441 1.47145640
v -0.37229207 -0.12638899 1.84458476
v -1.20903260 -0.12638899 1.74256346
v -1.20858280 -0.11382797 1.74015262
v -1.20615403 -0.08740366 1.73427170
v -1.21299046 0.00916124 1.47145640
v -1.19212142 -0.04878100 1.74318440
v -1.17134233 0.00052348 1.75987746
v -1.14831449 0.04201441 1.74095624
v -1.15578053 0.04201441 1.47145640
v -0.37229207 0.04201441 1.84458476
v -1.14579575 -0.12638899 1.84458476
v -1.20273591 -0.12638899 1.75805111
v -1.20183632 -0.11382797 1.75644388
v -1.19958756 -0.07845270 1.74435327
v -1.17377111 -0.01627400 1.76258052
v -1.14408664 -0.12304268 1.84458476
v -1.10864524 0.03701967 1.79417680
v -1.14093830 0.03612952 1.76247094
v -1.13832970 0.04201441 1.75889122
v -1.14273736 0.04201441 1.75122044
v -0.99800342 0.04201441 1.84458476
v -1.15272215 -0.12638899 1.83435705
v -1.08615705 -0.04762710 1.84458476
v -1.05845165 -0.01294418 1.84458476
v -1.06798664 0.02396412 1.82237603
v -1.09407297 0.04201441 1.79874271
v -1.10450746 0.04201441 1.79249653
v -1.11413240 0.04201441 1.78464311
v -1.13005403 0.04201441 1.76864408
v -1.04630807 0.03528882 1.82661318
v -1.02669834 0.01603519 1.84458476
f 1 2 3
f 1 3 4
f 1 4 5
f 1 5 10
f 1 10 19
f 1 19 23
f 1 23 14
f 1 14 6
f 1 6 2
f 2 6 15
f 2 15 25
f 2 25 36
f 2 36 26
f 2 26 16
f 2 16 7
f 2 7 4
f 2 4 3
f 4 7 8
f 4 8 9
f 4 9 5
f 5 9 11
f 5 11 12
f 5 12 13
f 5 13 10
f 6 14 24
f 6 24 15
f 7 16 17
f 7 17 18
f 7 18 8
f 8 18 11
f 8 11 9
f 10 13 19
f 11 20 21
f 11 21 12
f 11 18 20
f 12 21 22
f 12 22 13
f 13 22 34
f 13 34 33
f 13 33 43
f 13 43 42
f 13 42 41
f 13 41 40
f 13 40 35
f 13 35 24
f 13 24 14
f 13 14 23
f 13 23 19
f 15 24 35
f 15 35 45
f 15 45 38
f 15 38 37
f 15 37 30
f 15 30 25
f 16 26 17
f 17 26 27
f 17 27 18
f 18 27 28
f 18 28 20
f 20 28 21
f 21 28 27
f 21 27 29
f 21 29 25
f 21 25 30
f 21 30 31
f 21 31 32
f 21 32 33
f 21 33 34
f 21 34 22
f 25 29 36
f 26 36 27
f 27 36 29
f 30 37 31
f 31 37 38
f 31 38 39
f 31 39 40
f 31 40 41
f 31 41 42
f 31 42 32
f 32 42 43
f 32 43 33
f 35 44 45
f 35 40 44
f 38 45 44
f 38 44 39
f 39 44 40

