# https://github.com/mikedh/trimesh
v 0.28143581 -0.32413593 2.32338900
v 0.27946826 -0.32413593 2.33080959
v 0.26012470 -0.35763383 2.34430158
v 0.28143581 -0.33100886 2.31057151
v 0.28143581 -0.32413593 0.29441131
v 0.27738219 -0.32413593 2.33665611
v 0.27479831 -0.32413593 2.34385198
v 0.26899048 -0.32413593 2.35914295
v 0.26657255 -0.32413593 2.36386516
v 0.25988764 -0.32413593 2.37690737
v 0.24988398 -0.32413593 2.39332279
v 0.23369322 -0.32413593 2.41625923
v 0.23110935 -0.36157006 2.38073019
v 0.23833947 -0.36860224 2.36116661
v 0.28022683 -0.41449270 2.14034691
v 0.28143581 -0.41449270 2.13764855
v 0.28143581 -0.40976917 0.29890864
v 0.22236208 -0.41449270 0.18197770
v 0.21977819 -0.41449270 0.17770507
v 0.21093610 -0.41449270 0.16353859
v 0.19649954 -0.38510795 0.16353859
v 0.17905239 -0.37465256 0.15049620
v 0.19244592 -0.36343647 0.17230836
v 0.17075553 -0.35355605 0.15926596
v 0.17585218 -0.32413593 0.21660716
v 0.21141020 -0.32413593 2.42682796
v 0.23132271 -0.32856751 2.41423536
v 0.21141020 -0.36552400 2.38545242
v 0.21141020 -0.38123361 2.36116661
v 0.26005356 -0.41449270 2.18149776
v 0.28143581 -0.41449270 0.29935843
v 0.28136468 -0.41449270 0.29913355
v 0.20482013 -0.41449270 0.15814168
v 0.16563517 -0.38588636 0.13160731
v 0.14638643 -0.36711621 0.14262583
v 0.14638643 -0.35382141 0.15904126
v 0.14638643 -0.32413593 0.20783739
v 0.19645212 -0.32413593 2.42525389
v 0.17888646 -0.34836375 2.40186766
v 0.17888646 -0.36486059 2.38567731
v 0.17888646 -0.38054366 2.36116661
v 0.08811868 -0.41449270 2.27796573
v 0.11386268 -0.41449270 2.27864041
v 0.16964138 -0.41449270 2.26222498
v 0.17568624 -0.41449270 2.25975152
v 0.20901595 -0.41449270 2.23501611
v 0.21318811 -0.41449270 2.23186796
v 0.24279609 -0.41449270 2.20218543
v 0.18422017 -0.41449270 0.14375011
v 0.16563517 -0.39957033 0.13160731
v 0.14849619 -0.40887579 0.12958363
v 0.14638643 -0.38337424 0.12980833
v 0.12144839 -0.38548830 0.13048303
v 0.12815701 -0.35674043 0.16331369
v 0.10155961 -0.32413593 0.22335325
v 0.13560049 -0.32413593 0.21008597
v 0.17834123 -0.32413593 2.42143105
v 0.17888646 -0.33209687 2.41535965
v 0.16051481 -0.32745297 2.41131212
v 0.15624785 -0.36067668 2.38095509
v 0.03928564 -0.41449270 2.27549227
v 0.17770119 -0.41449270 0.14082685
v 0.15404326 -0.41449270 0.13138241
v 0.16985472 -0.41449270 0.13767870
v 0.14849619 -0.41449270 0.13048303
v 0.14607826 -0.41449270 0.13025813
v 0.11227443 -0.41449270 0.13070791
v 0.11191884 -0.40662020 0.13025813
v 0.10054028 -0.41449270 0.13205709
v 0.09978170 -0.39581101 0.13475545
v 0.03928564 -0.32413593 0.26472879
v 0.11395751 -0.37458179 0.14914702
v 0.16359651 -0.32413593 2.41535965
v 0.13455745 -0.35459098 2.37510839
v 0.15930584 -0.32413593 2.41243639
v 0.12374781 -0.33290181 2.38207937
v 0.12002608 -0.32413593 2.38410324
v 0.09926019 -0.32413593 2.36813760
v 0.04360002 -0.32413593 2.32181493
v 0.03928564 -0.32413593 2.31754250
v 0.03928564 -0.41449270 0.20401456
v 0.09255157 -0.41449270 0.13700422
v 0.06766095 -0.41449270 0.15724230
v 0.04959748 -0.41449270 0.18467607
v 0.04082649 -0.41449270 0.20109130
v 0.12874965 -0.32413593 2.39039934
f 1 2 3
f 1 3 4
f 1 4 16
f 1 16 31
f 1 31 17
f 1 17 5
f 1 5 25
f 1 25 37
f 1 37 56
f 1 56 55
f 1 55 71
f 1 71 80
f 1 80 79
f 1 79 78
f 1 78 77
f 1 77 86
f 1 86 75
f 1 75 73
f 1 73 57
f 1 57 38
f 1 38 26
f 1 26 12
f 1 12 11
f 1 11 10
f 1 10 9
f 1 9 8
f 1 8 7
f 1 7 6
f 1 6 2
f 2 6 3
f 3 6 7
f 3 7 8
f 3 8 9
f 3 9 10
f 3 10 11
f 3 11 12
f 3 12 13
f 3 13 14
f 3 14 15
f 3 15 16
f 3 16 4
f 5 17 18
f 5 18 19
f 5 19 20
f 5 20 21
f 5 21 22
f 5 22 23
f 5 23 24
f 5 24 25
f 12 26 27
f 12 27 13
f 13 27 28
f 13 28 29
f 13 29 14
f 14 29 30
f 14 30 15
f 15 30 48
f 15 48 47
f 15 47 46
f 15 46 45
f 15 45 44
f 15 44 43
f 15 43 42
f 15 42 61
f 15 61 81
f 15 81 85
f 15 85 84
f 15 84 83
f 15 83 82
f 15 82 69
f 15 69 67
f 15 67 66
f 15 66 65
f 15 65 63
f 15 63 64
f 15 64 62
f 15 62 49
f 15 49 33
f 15 33 20
f 15 20 19
f 15 19 18
f 15 18 32
f 15 32 31
f 15 31 16
f 17 31 32
f 17 32 18
f 20 33 34
f 20 34 22
f 20 22 21
f 22 34 24
f 22 24 23
f 24 34 35
f 24 35 36
f 24 36 37
f 24 37 25
f 26 38 39
f 26 39 40
f 26 40 28
f 26 28 27
f 28 40 29
f 29 40 41
f 29 41 42
f 29 42 43
f 29 43 44
f 29 44 45
f 29 45 46
f 29 46 47
f 29 47 48
f 29 48 30
f 33 49 34
f 34 50 51
f 34 51 52
f 34 52 35
f 34 49 50
f 35 52 53
f 35 53 36
f 36 54 55
f 36 55 56
f 36 56 37
f 36 53 54
f 38 57 58
f 38 58 39
f 39 58 59
f 39 59 60
f 39 60 40
f 40 60 61
f 40 61 41
f 41 61 42
f 49 62 50
f 50 63 51
f 50 62 64
f 50 64 63
f 51 63 65
f 51 65 66
f 51 66 67
f 51 67 68
f 51 68 52
f 52 68 53
f 53 68 69
f 53 69 70
f 53 70 71
f 53 71 72
f 53 72 54
f 54 72 55
f 55 72 71
f 57 73 58
f 58 73 59
f 59 74 60
f 59 73 75
f 59 75 61
f 59 61 74
f 60 74 61
f 61 75 76
f 61 76 77
f 61 77 78
f 61 78 79
f 61 79 80
f 61 80 71
f 61 71 81
f 67 69 68
f 69 82 70
f 70 82 83
f 70 83 71
f 71 83 84
f 71 84 85
f 71 85 81
f 75 86 76
f 76 86 77

