# https://github.com/mikedh/trimesh
v 0.71792235 -0.12638899 2.06798542
v 0.71790418 -0.12638899 2.07676294
v 0.71775887 -0.13689345 2.09049407
v 0.71768615 -0.14719672 2.06634678
v 0.71657796 -0.14637764 2.04506245
v 0.71661432 -0.12638899 2.04736041
v 0.71754085 -0.12638899 2.09456265
v 0.71243581 -0.15857776 2.07578349
v 0.71586944 -0.16308993 2.05408474
v 0.71143664 -0.12638899 2.11098729
v 0.70177165 -0.14877743 2.10236061
v 0.71586944 -0.16308993 2.04739807
v 0.71416170 -0.14637764 2.02878840
v 0.71225416 -0.12638899 2.03349735
v 0.68115179 -0.16064703 2.11420824
v 0.69074411 -0.16663932 2.09252831
v 0.64670661 -0.19218915 2.10978187
v 0.70068159 -0.17057670 2.06634678
v 0.68467625 -0.19616964 2.02370281
v 0.70847537 -0.12638899 2.11477329
v 0.69110743 -0.13896272 2.12515173
v 0.68467625 -0.19616964 2.01558461
v 0.69328752 -0.18047762 2.00422671
v 0.69108926 -0.17638217 1.99379170
v 0.70482374 -0.14637764 2.00341674
v 0.70128114 -0.12638899 2.00341674
v 0.70487826 -0.12638899 2.01321133
v 0.65947820 -0.17050484 2.12584862
v 0.62503308 -0.19970466 2.12266547
v 0.65221132 -0.19624148 2.08812084
v 0.67868104 -0.19310883 2.04538265
v 0.56353684 -0.26745913 1.99379170
v 0.69412322 -0.12638899 2.12859864
v 0.66927036 -0.14916541 2.13634009
v 0.67677349 -0.12638899 2.14438301
v 0.67079646 -0.12638899 2.14969462
v 0.65738900 -0.13769816 2.15434705
v 0.67829954 -0.19237596 1.99390474
v 0.67828135 -0.19231847 1.99379170
v 0.69975506 -0.14637764 1.99379170
v 0.69812000 -0.13381827 1.99379170
v 0.69679380 -0.12638899 1.99379170
v 0.64692461 -0.15938247 2.14754735
v 0.63596979 -0.17974474 2.13509696
v 0.63522492 -0.20132846 2.09976122
v 0.62523291 -0.16730034 2.15436585
v 0.60176080 -0.19040727 2.14558843
v 0.60176080 -0.20315345 2.12933324
v 0.53670380 -0.27287661 1.99379170
v 0.61905603 -0.12638899 2.18284538
v 0.61905603 -0.13128916 2.18284538
v 0.53232547 -0.12638899 1.99379170
v 0.60176080 -0.17414044 2.15856626
v 0.56922321 -0.19016298 2.14566375
v 0.56922321 -0.20348396 2.12940865
v 0.53232547 -0.21965019 2.10407466
v 0.53232547 -0.22920624 2.08783826
v 0.53232547 -0.23097373 2.08467383
v 0.53232547 -0.23961010 2.06847515
v 0.53514141 -0.27299158 1.99379170
v 0.60214230 -0.12638899 2.18476669
v 0.60176080 -0.13449366 2.18454063
v 0.60176080 -0.15074611 2.17482146
v 0.53232547 -0.12638899 2.18116904
v 0.53232547 -0.27319275 1.99379170
v 0.56922321 -0.17389616 2.15737955
v 0.53626778 -0.12638899 2.18352346
v 0.53232547 -0.20338336 2.12539660
v 0.53232547 -0.20556761 2.12272199
v 0.56922321 -0.12638899 2.18617937
v 0.56922321 -0.13419190 2.18450293
v 0.56922321 -0.15044434 2.17365365
v 0.53232547 -0.14703865 2.16621349
v 0.54760416 -0.12638899 2.18591560
f 1 2 3
f 1 3 4
f 1 4 5
f 1 5 6
f 1 6 14
f 1 14 27
f 1 27 26
f 1 26 42
f 1 42 52
f 1 52 64
f 1 64 67
f 1 67 74
f 1 74 70
f 1 70 61
f 1 61 50
f 1 50 36
f 1 36 35
f 1 35 33
f 1 33 20
f 1 20 10
f 1 10 7
f 1 7 2
f 2 7 3
f 3 8 9
f 3 9 4
f 3 7 10
f 3 10 11
f 3 11 8
f 4 9 12
f 4 12 5
f 5 12 13
f 5 13 6
f 6 13 14
f 8 11 15
f 8 15 16
f 8 16 17
f 8 17 18
f 8 18 9
f 9 18 19
f 9 19 22
f 9 22 12
f 10 20 11
f 11 20 21
f 11 21 15
f 12 22 23
f 12 23 24
f 12 24 25
f 12 25 13
f 13 25 26
f 13 26 27
f 13 27 14
f 15 21 28
f 15 28 17
f 15 17 16
f 17 28 29
f 17 29 30
f 17 30 18
f 18 31 19
f 18 30 31
f 19 31 30
f 19 30 32
f 19 32 22
f 20 33 21
f 21 34 28
f 21 33 35
f 21 35 36
f 21 36 37
f 21 37 34
f 22 38 23
f 22 32 38
f 23 38 24
f 24 39 32
f 24 32 49
f 24 49 60
f 24 60 65
f 24 65 52
f 24 52 42
f 24 42 41
f 24 41 40
f 24 40 25
f 24 38 39
f 25 40 41
f 25 41 26
f 26 41 42
f 28 34 43
f 28 43 44
f 28 44 29
f 29 45 30
f 29 44 46
f 29 46 47
f 29 47 48
f 29 48 32
f 29 32 45
f 30 45 32
f 32 39 38
f 32 48 49
f 34 37 43
f 36 50 51
f 36 51 37
f 37 51 43
f 43 51 46
f 43 46 44
f 46 53 47
f 46 51 53
f 47 53 54
f 47 54 55
f 47 55 48
f 48 55 56
f 48 56 57
f 48 57 58
f 48 58 59
f 48 59 49
f 49 59 60
f 50 61 51
f 51 61 62
f 51 62 63
f 51 63 53
f 52 65 59
f 52 59 58
f 52 58 57
f 52 57 56
f 52 56 69
f 52 69 68
f 52 68 73
f 52 73 64
f 53 66 54
f 53 63 66
f 54 66 67
f 54 67 68
f 54 68 55
f 55 68 69
f 55 69 56
f 59 65 60
f 61 70 62
f 62 70 71
f 62 71 63
f 63 71 72
f 63 72 66
f 64 73 67
f 66 72 74
f 66 74 67
f 67 73 68
f 70 74 71
f 71 74 72

