# https://github.com/mikedh/trimesh
v -0.73761558 0.11926115 2.07393497
v -0.73766366 0.11913987 2.07413049
v -0.73761558 0.11913987 2.07178451
v -0.73761558 0.13673416 2.05868618
v -0.84816434 0.16542050 2.02075958
v -0.86371325 0.11913987 2.03112098
v -0.73761558 0.20719527 1.99690893
v -0.79356290 0.21444381 1.99886387
v -0.79692742 0.21444381 1.99925482
v -0.82910668 0.21444381 1.99671340
v -0.73761558 0.11913987 0.17154662
v -0.85498953 0.14638023 2.02486509
v -0.82992377 0.21308179 1.99729989
v -0.83119752 0.21444381 1.99593141
v -0.92040554 0.21444381 1.95761386
v -0.92415461 0.20865057 1.95878681
v -0.92701446 0.17889141 1.97305817
v -0.86763050 0.11913987 2.02877499
v -0.92799974 0.14879641 1.98381051
v -0.73761558 0.21444381 1.98850250
v -0.83915224 0.11913987 0.09569353
v -0.83684511 0.14638023 0.09334753
v -0.73761558 0.21444381 0.15903477
v -0.93662739 0.21444381 1.94138755
v -0.94376501 0.19596327 1.95507235
v -0.94847531 0.17889141 1.96054632
v -0.87967075 0.11913987 2.02134606
v -0.95359421 0.14638023 1.96699772
v -0.84326171 0.11913987 0.09315201
v -0.86195887 0.14638023 0.07790322
v -0.83744594 0.17889141 0.09354305
v -0.83886384 0.21444381 0.09608447
v -0.94448594 0.21444381 1.92770266
v -0.94672094 0.20244686 1.93825956
v -0.95832855 0.17889141 1.93825956
v -0.96993617 0.14448647 1.93591357
v -0.93458462 0.11913987 1.98126909
v -0.96630730 0.11913987 1.94001909
v -0.95143123 0.11913987 1.96484726
v -0.97630478 0.12666828 1.92340172
v -0.86195887 0.11913987 0.08396368
v -0.89447469 0.14638023 0.07770769
v -0.89447469 0.17889141 0.07692570
v -0.86195887 0.17889141 0.07868522
v -0.89447469 0.11913987 0.08318167
v -0.86195887 0.21142124 0.08572309
v -0.86195887 0.21444381 0.08650509
v -0.94907613 0.21444381 1.90737094
v -0.95650214 0.21444381 1.87315881
v -0.95760762 0.21142124 1.87315881
v -0.97301230 0.15265857 1.90580694
v -0.97630478 0.13237756 1.92340172
v -0.97108972 0.11913987 1.93141712
v -0.97880412 0.11913987 1.91128092
v -0.97841958 0.11913987 1.91304034
v -0.95953019 0.21142124 0.08122664
v -0.98310593 0.17710026 0.09119706
v -0.95953019 0.17889141 0.08591862
v -0.98310593 0.20245619 0.08709157
v -0.92701446 0.21142124 0.07985817
v -0.89447469 0.21142124 0.08103120
v -0.98310593 0.13835738 0.10253587
v -0.98310593 0.14989721 0.09823495
v -0.98310593 0.15301307 0.09725751
v -0.98310593 0.11913987 0.10976936
v -0.89452269 0.21444381 0.08220415
v -0.98310593 0.21444381 1.61373336
v -0.97618457 0.16385324 1.85888748
v -0.97801108 0.13639832 1.90580694
v -0.98310593 0.11976490 1.88176071
v -0.98310593 0.11913987 1.88215171
v -0.98310593 0.21142124 0.08591862
v -0.98310593 0.21359488 0.08611413
v -0.95953019 0.21444381 0.08181311
v -0.93001846 0.21444381 0.08064017
v -0.89707010 0.21444381 0.08200864
v -0.98310593 0.12412150 1.87257234
v -0.97911655 0.14679070 1.87120386
v -0.98310593 0.21444381 0.08630957
f 1 2 3
f 1 3 11
f 1 11 23
f 1 23 20
f 1 20 7
f 1 7 4
f 1 4 2
f 2 5 6
f 2 6 18
f 2 18 27
f 2 27 37
f 2 37 39
f 2 39 38
f 2 38 53
f 2 53 55
f 2 55 54
f 2 54 71
f 2 71 65
f 2 65 45
f 2 45 41
f 2 41 29
f 2 29 21
f 2 21 11
f 2 11 3
f 2 4 7
f 2 7 8
f 2 8 9
f 2 9 10
f 2 10 5
f 5 12 6
f 5 10 13
f 5 13 14
f 5 14 15
f 5 15 16
f 5 16 17
f 5 17 12
f 6 12 17
f 6 17 19
f 6 19 18
f 7 20 8
f 8 20 23
f 8 23 32
f 8 32 47
f 8 47 66
f 8 66 76
f 8 76 75
f 8 75 74
f 8 74 79
f 8 79 67
f 8 67 49
f 8 49 48
f 8 48 33
f 8 33 24
f 8 24 15
f 8 15 14
f 8 14 10
f 8 10 9
f 10 14 13
f 11 21 22
f 11 22 23
f 15 24 25
f 15 25 16
f 16 25 17
f 17 25 26
f 17 26 19
f 18 19 27
f 19 26 28
f 19 28 27
f 21 29 22
f 22 29 30
f 22 30 31
f 22 31 23
f 23 31 32
f 24 33 25
f 25 34 35
f 25 35 26
f 25 33 34
f 26 35 36
f 26 36 28
f 27 28 37
f 28 38 39
f 28 39 37
f 28 36 40
f 28 40 38
f 29 41 30
f 30 42 43
f 30 43 44
f 30 44 31
f 30 41 45
f 30 45 42
f 31 44 32
f 32 44 46
f 32 46 47
f 33 48 35
f 33 35 34
f 35 48 49
f 35 49 50
f 35 50 51
f 35 51 52
f 35 52 36
f 36 52 40
f 38 40 53
f 40 52 54
f 40 54 55
f 40 55 53
f 42 56 43
f 42 45 57
f 42 57 58
f 42 58 59
f 42 59 56
f 43 56 60
f 43 60 61
f 43 61 44
f 44 61 46
f 45 62 63
f 45 63 64
f 45 64 57
f 45 65 62
f 46 61 47
f 47 61 66
f 49 67 50
f 50 67 68
f 50 68 51
f 51 68 69
f 51 69 52
f 52 69 70
f 52 70 71
f 52 71 54
f 56 72 73
f 56 73 74
f 56 74 60
f 56 59 72
f 57 64 63
f 57 63 62
f 57 62 65
f 57 65 71
f 57 71 70
f 57 70 77
f 57 77 67
f 57 67 79
f 57 79 73
f 57 73 72
f 57 72 59
f 57 59 58
f 60 74 75
f 60 75 61
f 61 76 66
f 61 75 76
f 67 77 78
f 67 78 68
f 68 78 69
f 69 78 70
f 70 78 77
f 73 79 74

