# https://github.com/mikedh/trimesh
v -0.86184623 0.76093439 0.16992098
v -0.89110155 0.76093439 0.17799007
v -0.86184623 0.76736728 0.17395553
v -0.53664621 0.80632016 0.21480537
v -0.85435585 0.76093439 0.17032442
v -0.89406950 0.76398202 0.18172198
v -0.88587234 0.78452913 0.19332136
v -1.04387920 0.76093439 0.25373876
v -0.86184623 0.78765227 0.19019463
v -0.56915210 0.80632016 0.21470446
v -0.01683493 0.80632016 0.31264336
v 0.00125529 0.78156589 0.29489125
v -0.50428171 0.76093439 0.19937317
v -1.01730915 0.78497340 0.25858032
v -0.86184623 0.79863886 0.21450283
v -1.08500620 0.76093439 0.27754270
v -1.03893266 0.77942900 0.26523733
v -0.82905773 0.80632016 0.24264385
v 0.20533564 0.80632016 0.37618761
v 0.20533564 0.80405884 0.37306077
v 0.20533564 0.78739907 0.35369494
v 0.20533564 0.77466209 0.34048175
v 0.20533564 0.76093439 0.32807546
v 0.00648446 0.76438630 0.29035243
v -0.01626964 0.76438630 0.28631789
v -0.01626964 0.76093439 0.28530925
v -0.99201111 0.79877215 0.27955998
v -1.12415450 0.80632016 0.37558232
v -1.12189323 0.80632016 0.37396851
v -1.09546461 0.80632016 0.35692258
v -0.99398971 0.80632016 0.30396899
v -0.84559336 0.80632016 0.24698094
v -1.12217590 0.76093439 0.29993444
v 0.20533564 0.80632016 1.20034609
v 0.20533564 0.76093439 1.20034609
v -1.12570918 0.80632016 0.37709532
v -1.13093839 0.76093439 0.31203809
v -1.14012480 0.78294309 0.35853641
v -0.96544106 0.80632016 1.20034609
v -0.95922251 0.76093439 1.20034609
v -1.14266873 0.80632016 0.40029397
v -1.14634335 0.76093439 0.33796020
v -1.14860462 0.76093439 0.34229729
v -1.14818061 0.80632016 0.41078391
v -1.06790521 0.80632016 1.07063517
v -0.96529973 0.79493375 1.20034609
v -1.10790153 0.76093439 1.01132723
v -1.17220672 0.76093439 0.41219589
v -1.16655351 0.79829235 0.44063957
v -1.16203098 0.80632016 0.44144647
v -1.20626715 0.80632016 0.89140012
v -1.20810451 0.80632016 0.88877766
v -1.20768051 0.80371234 0.88776901
v -1.20245130 0.78203236 0.87949819
v -1.11539210 0.76093439 0.99942529
v -1.17573991 0.76093439 0.42450136
v -1.17022803 0.77928684 0.42873764
v -1.17870785 0.76093439 0.43499119
v -1.23707708 0.80632016 0.71821687
v -1.21714958 0.80632016 0.86638586
v -1.21290972 0.79448503 0.86709191
v -1.20669116 0.77646576 0.85781244
v -1.18860094 0.76093439 0.86598240
v -1.18789435 0.76093439 0.86739450
v -1.11934929 0.76093439 0.99286914
v -1.17941453 0.76093439 0.44063957
v -1.23198919 0.78817205 0.73485939
v -1.23820775 0.80632016 0.72729461
v -1.23721841 0.80632016 0.75422527
v -1.23721841 0.80538277 0.75422527
v -1.19891801 0.76093439 0.83239475
v -1.19269956 0.76093439 0.85297098
v -1.21700824 0.76438630 0.76733756
v -1.21502965 0.76093439 0.76733756
v -1.21347506 0.76093439 0.73677581
v -1.21517098 0.76093439 0.76370646
v -1.23834908 0.80443651 0.73485939
v -1.23849043 0.80632016 0.73496025
f 1 2 3
f 1 3 4
f 1 4 5
f 1 5 13
f 1 13 26
f 1 26 23
f 1 23 35
f 1 35 40
f 1 40 47
f 1 47 55
f 1 55 65
f 1 65 64
f 1 64 63
f 1 63 72
f 1 72 71
f 1 71 74
f 1 74 76
f 1 76 75
f 1 75 66
f 1 66 58
f 1 58 56
f 1 56 48
f 1 48 43
f 1 43 42
f 1 42 37
f 1 37 33
f 1 33 16
f 1 16 8
f 1 8 2
f 2 6 7
f 2 7 3
f 2 8 6
f 3 7 9
f 3 9 4
f 4 10 18
f 4 18 32
f 4 32 31
f 4 31 30
f 4 30 29
f 4 29 28
f 4 28 36
f 4 36 41
f 4 41 44
f 4 44 50
f 4 50 59
f 4 59 68
f 4 68 78
f 4 78 69
f 4 69 60
f 4 60 52
f 4 52 51
f 4 51 45
f 4 45 39
f 4 39 34
f 4 34 19
f 4 19 11
f 4 11 12
f 4 12 13
f 4 13 5
f 4 9 10
f 6 8 14
f 6 14 7
f 7 15 9
f 7 14 15
f 8 16 17
f 8 17 14
f 9 15 10
f 10 15 18
f 11 19 20
f 11 20 21
f 11 21 22
f 11 22 23
f 11 23 12
f 12 23 24
f 12 24 25
f 12 25 13
f 13 25 26
f 14 27 15
f 14 17 28
f 14 28 29
f 14 29 30
f 14 30 27
f 15 27 31
f 15 31 32
f 15 32 18
f 16 33 17
f 17 33 28
f 19 34 35
f 19 35 23
f 19 23 22
f 19 22 21
f 19 21 20
f 23 26 24
f 24 26 25
f 27 30 31
f 28 33 36
f 33 37 38
f 33 38 36
f 34 39 46
f 34 46 40
f 34 40 35
f 36 38 41
f 37 42 38
f 38 42 43
f 38 43 44
f 38 44 41
f 39 45 46
f 40 46 47
f 43 48 49
f 43 49 50
f 43 50 44
f 45 51 47
f 45 47 46
f 47 51 52
f 47 52 53
f 47 53 54
f 47 54 55
f 48 56 57
f 48 57 49
f 49 57 58
f 49 58 59
f 49 59 50
f 52 60 53
f 53 60 61
f 53 61 54
f 54 61 62
f 54 62 63
f 54 63 64
f 54 64 65
f 54 65 55
f 56 58 57
f 58 66 67
f 58 67 59
f 59 67 68
f 60 69 70
f 60 70 61
f 61 70 62
f 62 71 72
f 62 72 63
f 62 70 73
f 62 73 74
f 62 74 71
f 66 75 67
f 67 75 76
f 67 76 74
f 67 74 73
f 67 73 70
f 67 70 77
f 67 77 68
f 68 77 78
f 69 78 70
f 70 78 77

