# https://github.com/mikedh/trimesh
v 0.37173447 -0.39830592 0.21799385
v 0.36580353 -0.39830592 0.21928962
v 0.37173447 -0.37405566 0.21453840
v 0.37173447 -0.39830592 2.10809030
v 0.34217704 -0.39830592 0.22468866
v 0.28143581 -0.12641560 0.20697979
v 0.37173447 -0.27646903 0.21065111
v 0.34153179 -0.37405566 0.22166517
v 0.37173447 -0.23749827 2.25883158
v 0.29548090 -0.26560832 2.38192980
v 0.28143581 -0.27668198 2.39337572
v 0.28143581 -0.27686832 2.39315974
v 0.28143581 -0.29877607 2.36249320
v 0.28143581 -0.32028452 2.33074687
v 0.28143581 -0.33098550 2.31066244
v 0.28143581 -0.39830592 2.15257842
v 0.33113719 -0.39830592 0.22792803
v 0.32377436 -0.39370077 0.22943977
v 0.32278440 -0.12641560 0.21259481
v 0.37173447 -0.27415314 0.21065111
v 0.28143581 -0.21737402 0.22144919
v 0.28143581 -0.12641560 2.40633340
v 0.37173447 -0.14938812 2.32254031
v 0.37173447 -0.12641560 2.33657777
v 0.28143581 -0.25179288 2.40546958
v 0.28143581 -0.39830592 0.29984332
v 0.32555098 -0.39830592 0.23116750
v 0.28143581 -0.24625603 0.22792803
v 0.28143581 -0.24167750 0.22684823
v 0.28143581 -0.26116288 0.23375902
v 0.35407426 -0.12641560 0.21777787
v 0.37173447 -0.12641560 0.22101724
v 0.28143581 -0.13184595 2.40719730
v 0.28143581 -0.14638013 2.40935688
v 0.28143581 -0.17890901 2.41324418
v 0.28143581 -0.21143789 2.41259635
v 0.28143581 -0.22426842 2.41130057
v 0.28143581 -0.24396678 2.40806111
v 0.28656238 -0.24396678 2.40179826
f 1 2 3
f 1 3 7
f 1 7 20
f 1 20 32
f 1 32 24
f 1 24 23
f 1 23 9
f 1 9 4
f 1 4 16
f 1 16 26
f 1 26 27
f 1 27 17
f 1 17 5
f 1 5 2
f 2 5 3
f 3 6 7
f 3 5 8
f 3 8 6
f 4 9 10
f 4 10 11
f 4 11 12
f 4 12 13
f 4 13 14
f 4 14 15
f 4 15 16
f 5 17 18
f 5 18 8
f 6 19 20
f 6 20 7
f 6 8 18
f 6 18 21
f 6 21 29
f 6 29 28
f 6 28 30
f 6 30 26
f 6 26 16
f 6 16 15
f 6 15 14
f 6 14 13
f 6 13 12
f 6 12 11
f 6 11 25
f 6 25 38
f 6 38 37
f 6 37 36
f 6 36 35
f 6 35 34
f 6 34 33
f 6 33 22
f 6 22 24
f 6 24 32
f 6 32 31
f 6 31 19
f 9 23 10
f 10 23 24
f 10 24 25
f 10 25 11
f 17 27 18
f 18 28 29
f 18 29 21
f 18 27 26
f 18 26 30
f 18 30 28
f 19 31 20
f 20 31 32
f 22 33 24
f 24 33 34
f 24 34 35
f 24 35 36
f 24 36 37
f 24 37 38
f 24 38 39
f 24 39 25
f 25 39 38

