# https://github.com/mikedh/trimesh
v 1.43904258 0.30899380 1.32040039
v 1.43433092 0.33227201 1.32040039
v 1.43311154 0.32913157 1.34196701
v 1.43433092 0.30899380 1.34468407
v 1.43311154 0.27648946 1.34120285
v 1.43676987 0.27648946 1.32040039
v 1.43482986 0.27648946 1.29467327
v 1.43588298 0.30899380 1.29289021
v 1.43344404 0.33072840 1.29925831
v 1.39918788 0.39139014 1.23719059
v 1.39968682 0.39206437 1.25536089
v 1.42540664 0.34854192 1.32040039
v 1.42158196 0.34059324 1.35283523
v 1.40550697 0.33949322 1.38433609
v 1.39946503 0.32728636 1.40250639
v 1.42756845 0.30899380 1.36090148
v 1.43150402 0.25942112 1.33729707
v 1.42440885 0.27648946 1.35742026
v 1.43200286 0.25729203 1.32040039
v 1.43200286 0.25711461 1.30163573
v 1.42052873 0.21446155 1.28805046
v 1.31493329 0.21446155 0.93585226
v 1.33100819 0.39570157 1.02959064
v 1.39541866 0.39570157 1.23303011
v 1.35135125 0.39570157 1.09267725
v 1.39658269 0.39570157 1.25536089
v 1.39952047 0.39156756 1.27539917
v 1.40916540 0.36821839 1.32040039
v 1.40456473 0.36319726 1.35292015
v 1.40062905 0.35991487 1.37278861
v 1.39436543 0.34896774 1.39452504
v 1.39946503 0.32050869 1.40250639
v 1.37269209 0.36562797 1.40777067
v 1.07879880 0.39570157 1.69883514
v 1.40927630 0.30940188 1.38790222
v 1.41947550 0.21446155 1.32040039
v 1.40500813 0.21446155 1.35300506
v 1.40816772 0.27648946 1.38000578
v 1.40201487 0.24396738 1.37278861
v 1.39868905 0.22750229 1.36922246
v 0.87281843 0.21446155 0.93585226
v 1.28500076 0.39570157 0.93585226
v 1.31698430 0.39570157 0.99639162
v 1.33028765 0.39570157 1.02763776
v 1.39447632 0.39570157 1.27820115
v 1.39658269 0.38828520 1.29705071
v 1.36809133 0.39199338 1.37397731
v 1.36254824 0.38730935 1.39562885
v 1.39724787 0.29882731 1.40046859
v 1.30151915 0.39073368 1.46729115
v 1.28394762 0.39570157 1.47467815
v 1.05718081 0.39570157 1.71029775
v 0.87281843 0.21449703 1.78043170
v 0.93124240 0.21446155 1.74570434
v 1.24752967 0.21446155 1.50634880
v 1.26432511 0.21446155 1.49327299
v 1.28328245 0.21446155 1.47731027
v 1.39591749 0.21446155 1.36599597
v 1.39281336 0.27648946 1.39630811
v 1.30007787 0.21446155 1.46253631
v 0.87281843 0.39570157 0.93585226
v 0.87281843 0.21446155 1.77992225
v 1.39037440 0.39570157 1.29221095
v 1.37174975 0.39570157 1.34612751
v 1.36919991 0.39570157 1.35283523
v 1.35866810 0.39570157 1.38000578
v 1.35406735 0.39570157 1.38781731
v 1.34386814 0.39570157 1.40157239
v 1.34087489 0.39442412 1.40853485
v 0.87281843 0.39570157 1.80327193
v 0.87281843 0.37496055 1.80250777
v 0.87281843 0.35943583 1.80123415
f 1 2 3
f 1 3 4
f 1 4 5
f 1 5 6
f 1 6 7
f 1 7 8
f 1 8 9
f 1 9 2
f 2 9 10
f 2 10 11
f 2 11 12
f 2 12 3
f 3 13 14
f 3 14 15
f 3 15 16
f 3 16 4
f 3 12 13
f 4 16 5
f 5 17 6
f 5 16 18
f 5 18 17
f 6 17 19
f 6 19 20
f 6 20 7
f 7 20 21
f 7 21 22
f 7 22 8
f 8 22 23
f 8 23 9
f 9 23 10
f 10 24 11
f 10 23 25
f 10 25 24
f 11 24 26
f 11 26 27
f 11 27 12
f 12 27 28
f 12 28 29
f 12 29 13
f 13 29 30
f 13 30 14
f 14 30 31
f 14 31 15
f 15 32 16
f 15 31 33
f 15 33 34
f 15 34 32
f 16 35 18
f 16 32 35
f 17 36 19
f 17 18 37
f 17 37 36
f 18 35 38
f 18 38 39
f 18 39 40
f 18 40 37
f 19 36 21
f 19 21 20
f 21 36 37
f 21 37 58
f 21 58 60
f 21 60 57
f 21 57 56
f 21 56 55
f 21 55 54
f 21 54 62
f 21 62 41
f 21 41 22
f 22 41 61
f 22 61 42
f 22 42 43
f 22 43 44
f 22 44 23
f 23 44 43
f 23 43 42
f 23 42 61
f 23 61 70
f 23 70 52
f 23 52 34
f 23 34 51
f 23 51 68
f 23 68 67
f 23 67 66
f 23 66 65
f 23 65 64
f 23 64 63
f 23 63 45
f 23 45 26
f 23 26 24
f 23 24 25
f 26 45 27
f 27 45 46
f 27 46 28
f 28 46 29
f 29 47 30
f 29 46 47
f 30 47 48
f 30 48 33
f 30 33 31
f 32 49 35
f 32 34 49
f 33 48 50
f 33 50 34
f 34 50 51
f 34 52 53
f 34 53 54
f 34 54 55
f 34 55 56
f 34 56 57
f 34 57 49
f 35 49 38
f 37 40 58
f 38 49 59
f 38 59 39
f 39 59 40
f 40 59 60
f 40 60 58
f 41 62 53
f 41 53 72
f 41 72 71
f 41 71 70
f 41 70 61
f 45 63 46
f 46 63 47
f 47 63 64
f 47 64 65
f 47 65 66
f 47 66 67
f 47 67 48
f 48 67 68
f 48 68 69
f 48 69 50
f 49 57 60
f 49 60 59
f 50 69 68
f 50 68 51
f 52 70 71
f 52 71 72
f 52 72 53
f 53 62 54

