# https://github.com/mikedh/trimesh
v 0.53670536 -1.38899149 0.53975427
v 0.56922762 -1.38597663 0.57224523
v 0.53670536 -1.38762864 0.57224523
v 0.53232551 -1.38589404 0.57224523
v 0.53232551 -1.38733948 0.53569287
v 0.53232551 -1.38589404 0.50281140
v 0.53670536 -1.38684393 0.50718518
v 0.57238329 -1.37936858 0.53670824
v 0.59319431 -1.37387560 0.57224523
v 0.61921488 -1.36685459 0.64863022
v 0.61921488 -1.36685459 0.65737778
v 0.59335756 -1.36743273 0.72392182
v 0.58055810 -1.36743273 0.72392182
v 0.53232551 -1.36065950 0.73485629
v 0.53232551 -1.37395819 0.45282532
v 0.53960253 -1.37792304 0.47188249
v 0.56699694 -1.37639491 0.50718518
v 0.58986184 -1.37110851 0.54545581
v 0.63453074 -1.35037576 0.63613369
v 0.65210449 -1.33575542 0.64542798
v 0.65215887 -1.33579671 0.66987432
v 0.67126965 -1.30721695 0.90215352
v 0.67126965 -1.30548235 0.92652174
v 0.61109450 -1.36466564 0.70228719
v 0.66679463 -1.30573012 0.92769329
v 0.62819218 -1.30279775 0.95167101
v 0.53232551 -1.29466167 0.99501834
v 0.53232551 -1.35264730 0.76726911
v 0.53232551 -1.37044769 0.44681134
v 0.55237481 -1.36536776 0.45915166
v 0.56099844 -1.37176934 0.48086435
v 0.58326489 -1.36227021 0.50718518
v 0.64986014 -1.33265787 0.62371528
v 0.67126965 -1.30073279 0.63683663
v 0.67126965 -1.30837332 0.66987432
v 0.67126965 -1.31039709 0.70291201
v 0.67126965 -1.30738213 0.89746732
v 0.67126965 -1.29949373 0.94229860
v 0.66679463 -1.29998937 0.94393878
v 0.63712867 -1.29627239 0.96252734
v 0.56922762 -1.29205977 0.99501834
v 0.53232551 -1.28103252 1.02938377
v 0.53960253 -1.35900748 0.43946962
v 0.53232551 -1.34207440 0.42103730
v 0.53670536 -1.34153746 0.42150590
v 0.57124073 -1.35244073 0.47281973
v 0.55359897 -1.33451646 0.42525486
v 0.58794397 -1.33951379 0.48648781
v 0.64946569 -1.26678393 0.52577376
v 0.67126965 -1.28338665 0.60629824
v 0.67126965 -1.29722228 0.94667238
v 0.56922762 -1.27830673 1.02329172
v 0.67126965 -1.22106451 1.09249123
v 0.66679463 -1.22230347 1.09249123
v 0.66656337 -1.22234477 1.09249123
v 0.53232551 -1.27545705 1.03711598
v 0.53232551 -1.33827473 0.41900654
v 0.53232551 -1.21235010 0.35511808
v 0.53670536 -1.21086336 0.35613341
v 0.55384380 -1.20487475 0.36011668
v 0.58812079 -1.27330939 0.42283365
v 0.65519210 -1.24510129 0.51858825
v 0.67126965 -1.23192648 0.53920754
v 0.66085055 -1.25447643 0.53787978
v 0.67126965 -1.25166804 0.56373197
v 0.67126965 -0.96710898 1.09249123
v 0.63404107 -1.22189052 1.09249123
v 0.53232551 -1.26946843 1.04492633
v 0.53232551 -1.20805488 0.35324360
v 0.53232551 -1.14911936 0.33293669
v 0.53232551 -1.12219161 0.32403296
v 0.54745090 -1.12219161 0.33231193
v 0.57619187 -0.96710898 0.31622269
v 0.58730467 -0.96710898 0.32606363
v 0.58603968 -1.20442050 0.39284198
v 0.67126965 -1.07804151 0.45649615
v 0.67126965 -1.22032109 0.53155338
v 0.53232551 -0.96710898 1.09249123
v 0.67126965 -0.96710898 0.44423391
v 0.53232551 -1.21619106 1.09249123
v 0.53232551 -1.23531310 1.07585524
v 0.53232551 -1.25249405 1.06054697
v 0.53232551 -0.96710898 0.29458803
v 0.53670536 -0.96710898 0.29575952
v 0.54958639 -0.96710898 0.30208597
v 0.56905080 -0.96710898 0.31169261
v 0.67126965 -0.99758853 0.44095359
v 0.67126965 -1.02910066 0.44423391
v 0.67126965 -1.05722617 0.45001359
v 0.67126965 -1.06862508 0.45282532
f 1 2 3
f 1 3 4
f 1 4 5
f 1 5 6
f 1 6 7
f 1 7 2
f 2 7 8
f 2 8 9
f 2 9 10
f 2 10 11
f 2 11 12
f 2 12 3
f 3 12 13
f 3 13 14
f 3 14 4
f 4 14 28
f 4 28 27
f 4 27 42
f 4 42 56
f 4 56 68
f 4 68 82
f 4 82 81
f 4 81 80
f 4 80 78
f 4 78 83
f 4 83 71
f 4 71 70
f 4 70 69
f 4 69 58
f 4 58 57
f 4 57 44
f 4 44 29
f 4 29 15
f 4 15 6
f 4 6 5
f 6 15 7
f 7 15 16
f 7 16 17
f 7 17 8
f 8 18 9
f 8 17 18
f 9 18 19
f 9 19 10
f 10 19 20
f 10 20 21
f 10 21 11
f 11 21 22
f 11 22 23
f 11 23 24
f 11 24 12
f 12 24 23
f 12 23 25
f 12 25 26
f 12 26 27
f 12 27 13
f 13 27 28
f 13 28 14
f 15 29 30
f 15 30 31
f 15 31 16
f 16 31 17
f 17 31 18
f 18 31 32
f 18 32 33
f 18 33 19
f 19 33 20
f 20 33 34
f 20 34 35
f 20 35 36
f 20 36 21
f 21 36 37
f 21 37 22
f 22 37 36
f 22 36 35
f 22 35 34
f 22 34 50
f 22 50 65
f 22 65 63
f 22 63 77
f 22 77 76
f 22 76 90
f 22 90 89
f 22 89 88
f 22 88 87
f 22 87 79
f 22 79 66
f 22 66 53
f 22 53 51
f 22 51 38
f 22 38 23
f 23 38 39
f 23 39 25
f 25 39 26
f 26 39 40
f 26 40 41
f 26 41 27
f 27 41 42
f 29 43 30
f 29 44 45
f 29 45 43
f 30 46 31
f 30 43 47
f 30 47 46
f 31 46 32
f 32 46 48
f 32 48 49
f 32 49 33
f 33 50 34
f 33 49 50
f 38 51 39
f 39 52 40
f 39 51 53
f 39 53 54
f 39 54 52
f 40 52 41
f 41 52 42
f 42 52 55
f 42 55 56
f 43 45 47
f 44 57 45
f 45 57 58
f 45 58 59
f 45 59 60
f 45 60 47
f 46 47 48
f 47 60 61
f 47 61 48
f 48 61 49
f 49 61 62
f 49 62 63
f 49 63 64
f 49 64 50
f 50 64 65
f 52 54 55
f 53 66 78
f 53 78 80
f 53 80 67
f 53 67 55
f 53 55 54
f 55 67 68
f 55 68 56
f 58 69 59
f 59 69 60
f 60 69 70
f 60 70 71
f 60 71 72
f 60 72 73
f 60 73 74
f 60 74 75
f 60 75 61
f 61 75 76
f 61 76 77
f 61 77 62
f 62 77 63
f 63 65 64
f 66 79 74
f 66 74 73
f 66 73 86
f 66 86 85
f 66 85 84
f 66 84 83
f 66 83 78
f 67 80 81
f 67 81 82
f 67 82 68
f 71 83 84
f 71 84 85
f 71 85 86
f 71 86 72
f 72 86 73
f 74 79 87
f 74 87 88
f 74 88 89
f 74 89 90
f 74 90 75
f 75 90 76

