# https://github.com/mikedh/trimesh
v -0.72517445 0.21446155 1.98899202
v -0.72517445 0.39570157 1.83328172
v -0.77707471 0.22924106 1.98824075
v -0.79691617 0.21446155 1.99932269
v -0.72517445 0.21446155 0.15671815
v -0.87230416 0.39570157 1.75739867
v -0.88189334 0.29421426 1.92400312
v -0.86195722 0.29533205 1.92494235
v -0.81940941 0.23037659 1.98936775
v -0.79691617 0.23087340 1.98974339
v -0.72517445 0.39570157 0.22320968
v -0.82909339 0.21446155 1.99669305
v -0.83884833 0.21446155 0.09604928
v -0.72517445 0.23775748 0.14770236
v -0.89564977 0.39570157 1.74256022
v -0.90358162 0.28770273 1.91404820
v -0.91487563 0.26602137 1.92625712
v -0.89342418 0.27670236 1.93076502
v -0.83120062 0.21446155 1.99594178
v -0.91283935 0.39570157 1.72997558
v -0.72517445 0.39557739 0.20592936
v -0.72534016 0.39570157 0.20592936
v -0.86195722 0.21446155 0.08646999
v -0.72517445 0.26978277 0.14582400
v -0.91193967 0.29373521 1.89225999
v -0.91859290 0.27670236 1.90428105
v -0.94238849 0.22576354 1.91799260
v -0.94449573 0.21446155 1.92775975
v -0.93663495 0.21446155 1.94147131
v -0.92041610 0.21446155 1.95762462
v -0.91141873 0.22837168 1.95480713
v -0.91378643 0.39570157 1.72697030
v -0.73935707 0.39570157 0.19165431
v -0.72517445 0.30532109 0.15822079
v -0.89451327 0.21446155 0.08214997
v -0.86195722 0.39570157 0.12441153
v -0.84294453 0.26378579 0.09943019
v -0.84024530 0.24396738 0.09792755
v -0.72517445 0.27648946 0.14638749
v -0.96703637 0.39570157 1.55397966
v -0.94906537 0.21446155 1.90747419
v -0.75429730 0.39570157 0.17925762
v -0.83872997 0.39570157 0.13023418
v -0.89707040 0.21446155 0.08196211
v -0.89448962 0.39570157 0.12046712
v -0.85037909 0.39570157 0.12666542
v -0.96703637 0.21446155 1.61765375
v -0.96682320 0.27648946 1.67813472
v -0.95650001 0.21446155 1.87328928
v -0.96703637 0.39570157 0.12704116
v -0.93002903 0.21446155 0.08045947
v -0.92699827 0.39570157 0.12009140
v -0.95896242 0.21446155 1.84060701
v -0.96703637 0.21446155 0.08327687
v -0.95953067 0.39570157 0.12459928
v -0.96703637 0.24441095 0.08909962
v -0.95953067 0.21446155 0.08196211
v -0.95953067 0.24396738 0.08778476
v -0.96703637 0.22138113 0.08440386
v -0.96251403 0.21446155 0.08233773
f 1 2 3
f 1 3 4
f 1 4 12
f 1 12 19
f 1 19 30
f 1 30 29
f 1 29 28
f 1 28 41
f 1 41 49
f 1 49 53
f 1 53 47
f 1 47 54
f 1 54 60
f 1 60 57
f 1 57 51
f 1 51 44
f 1 44 35
f 1 35 23
f 1 23 13
f 1 13 5
f 1 5 14
f 1 14 24
f 1 24 39
f 1 39 34
f 1 34 21
f 1 21 11
f 1 11 2
f 2 6 7
f 2 7 8
f 2 8 9
f 2 9 10
f 2 10 3
f 2 11 22
f 2 22 33
f 2 33 42
f 2 42 43
f 2 43 46
f 2 46 36
f 2 36 45
f 2 45 52
f 2 52 55
f 2 55 50
f 2 50 40
f 2 40 32
f 2 32 20
f 2 20 15
f 2 15 6
f 3 10 4
f 4 10 9
f 4 9 12
f 5 13 14
f 6 15 7
f 7 16 17
f 7 17 18
f 7 18 19
f 7 19 12
f 7 12 9
f 7 9 8
f 7 15 20
f 7 20 16
f 11 21 22
f 13 23 24
f 13 24 14
f 16 20 25
f 16 25 17
f 17 25 26
f 17 26 27
f 17 27 28
f 17 28 29
f 17 29 30
f 17 30 31
f 17 31 18
f 18 31 19
f 19 31 30
f 20 32 27
f 20 27 26
f 20 26 25
f 21 33 22
f 21 34 33
f 23 35 36
f 23 36 37
f 23 37 38
f 23 38 39
f 23 39 24
f 27 32 40
f 27 40 28
f 28 40 41
f 33 34 42
f 34 39 43
f 34 43 42
f 35 44 45
f 35 45 36
f 36 46 37
f 37 46 43
f 37 43 39
f 37 39 38
f 40 47 48
f 40 48 49
f 40 49 41
f 40 50 56
f 40 56 59
f 40 59 54
f 40 54 47
f 44 51 45
f 45 51 52
f 47 53 48
f 48 53 49
f 50 55 56
f 51 57 58
f 51 58 52
f 52 58 55
f 54 59 60
f 55 58 56
f 56 58 59
f 57 60 58
f 58 60 59

