# https://github.com/mikedh/trimesh
v -0.33389663 1.22527248 1.36606186
v -0.38321705 1.22527248 1.51549584
v -0.29618689 1.33856671 1.42599463
v -0.28467548 1.31814445 1.36606186
v 0.61807610 1.22527248 1.36606186
v -0.39175136 1.22527248 1.54803076
v -0.30015634 1.34536224 1.45047420
v -0.29261439 1.36598060 1.46706725
v -0.26859923 1.34429205 1.36606186
v 0.52836658 1.30300171 1.36606186
v 0.54692375 1.29495772 1.37308014
v 0.56022138 1.30722887 1.39476206
v 0.59336628 1.27578402 1.39464146
v 0.62065624 1.27326916 1.42799640
v 0.62006080 1.22527248 1.37390014
v -0.30362962 1.35303166 1.47994619
v -0.39006434 1.22527248 1.58030041
v -0.32258371 1.32964873 1.58054157
v -0.29698081 1.37088546 1.51549584
v -0.29578994 1.36967267 1.48877329
v -0.27663736 1.38271080 1.48269560
v -0.25490464 1.36055849 1.36606186
v -0.26075959 1.35397700 1.36606186
v 0.48758051 1.33528488 1.36606186
v 0.53799249 1.32898878 1.41555161
v 0.57034348 1.31097445 1.41878340
v 0.58890065 1.30280551 1.43021523
v 0.58195414 1.29745474 1.40853333
v 0.45939747 1.35206849 1.36606186
v 0.44897763 1.36425046 1.37766253
v 0.60199984 1.28536195 1.41825280
v 0.62204555 1.27696123 1.45047420
v 0.60854945 1.29322757 1.45047420
v 0.62204555 1.25828695 1.45047420
v 0.62045776 1.26196118 1.48298502
v 0.61142729 1.22527248 1.45047420
v -0.37686593 1.22527248 1.61242534
v -0.33121728 1.30969022 1.61242534
v -0.32069822 1.32654527 1.61242534
v -0.29390444 1.36703296 1.60178937
v -0.30809525 1.34985685 1.58054157
v -0.26066032 1.39888796 1.50037397
v -0.26066032 1.39888796 1.49827571
v -0.23872913 1.37163459 1.36606186
v 0.52796961 1.33788892 1.42478873
v 0.59227467 1.30408974 1.45047420
v 0.44381734 1.36082604 1.36606186
v 0.42793957 1.36706863 1.36606186
v 0.45622188 1.36653354 1.39936856
v 0.62045776 1.27462474 1.48298502
v 0.59118309 1.30335844 1.47389260
v 0.60190058 1.29213964 1.48404622
v 0.61867149 1.26629527 1.50030161
v 0.60755705 1.22527248 1.48298502
v 0.24147478 1.22527248 1.61242534
v -0.30303418 1.35180104 1.61242534
v -0.30243879 1.35262142 1.61242534
v -0.27832436 1.36949431 1.61242534
v -0.27772897 1.36965483 1.61242534
v -0.27733201 1.36967267 1.61242534
v -0.24388942 1.37036830 1.61242534
v -0.25917179 1.39888796 1.50037397
v -0.00879889 1.40746714 1.36606186
v -0.11379078 1.40621858 1.36606186
v -0.22354602 1.37620065 1.36606186
v -0.12639377 1.40327565 1.36606186
v 0.52767192 1.33790676 1.45047420
v 0.45622188 1.36653354 1.40310682
v 0.42754261 1.36715781 1.36606186
v 0.40660382 1.37011858 1.36606186
v 0.37405431 1.37393541 1.36606186
v 0.34081019 1.37707454 1.36606186
v 0.32215380 1.37878685 1.36606186
v 0.61867149 1.27014786 1.50030161
v 0.52251164 1.33505301 1.46832138
v 0.57828239 1.29977339 1.49555039
v 0.60170210 1.27688988 1.50710283
v 0.55575575 1.22527248 1.56737326
v 0.59525177 1.22527248 1.51093756
v 0.59812961 1.22527248 1.50502870
v 0.47160348 1.22527248 1.59414402
v 0.23929157 1.25229407 1.61242534
v 0.05004816 1.33127176 1.61242534
v 0.50415299 1.34464878 1.45047420
v 0.55317560 1.23633085 1.56457558
v 0.14630727 1.31275801 1.61242534
v 0.17974986 1.30485671 1.61242534
v 0.55664889 1.30168190 1.50027750
v 0.56597710 1.28425608 1.51530289
v 0.53660317 1.24004075 1.56855503
v 0.54216043 1.22527248 1.57518744
v 0.48519885 1.22527248 1.59194930
v 0.18133765 1.30432161 1.61242534
v 0.20713906 1.29149753 1.61242534
v 0.20912377 1.29030248 1.61242534
v 0.20971921 1.28987450 1.61242534
v 0.23194809 1.27273407 1.61242534
v 0.50415299 1.24564123 1.57402976
v 0.53660317 1.22527248 1.57723742
v 0.50583999 1.22527248 1.58768046
v 0.51427508 1.22527248 1.58524455
f 1 2 3
f 1 3 4
f 1 4 9
f 1 9 23
f 1 23 22
f 1 22 44
f 1 44 65
f 1 65 66
f 1 66 64
f 1 64 63
f 1 63 73
f 1 73 72
f 1 72 71
f 1 71 70
f 1 70 69
f 1 69 48
f 1 48 47
f 1 47 29
f 1 29 24
f 1 24 10
f 1 10 5
f 1 5 15
f 1 15 36
f 1 36 54
f 1 54 80
f 1 80 79
f 1 79 78
f 1 78 91
f 1 91 99
f 1 99 101
f 1 101 100
f 1 100 92
f 1 92 81
f 1 81 55
f 1 55 37
f 1 37 17
f 1 17 6
f 1 6 2
f 2 6 7
f 2 7 3
f 3 7 8
f 3 8 9
f 3 9 4
f 5 10 11
f 5 11 12
f 5 12 13
f 5 13 14
f 5 14 15
f 6 16 7
f 6 17 18
f 6 18 19
f 6 19 20
f 6 20 16
f 7 16 8
f 8 16 20
f 8 20 21
f 8 21 22
f 8 22 23
f 8 23 9
f 10 12 11
f 10 24 12
f 12 25 26
f 12 26 27
f 12 27 28
f 12 28 13
f 12 24 29
f 12 29 30
f 12 30 25
f 13 28 31
f 13 31 14
f 14 32 15
f 14 31 27
f 14 27 33
f 14 33 32
f 15 32 34
f 15 34 35
f 15 35 36
f 17 37 38
f 17 38 39
f 17 39 18
f 18 39 40
f 18 40 41
f 18 41 19
f 19 40 42
f 19 42 43
f 19 43 20
f 19 41 40
f 20 43 21
f 21 43 22
f 22 43 44
f 25 45 26
f 25 30 45
f 26 45 27
f 27 46 33
f 27 31 28
f 27 45 46
f 29 47 30
f 30 47 48
f 30 48 49
f 30 49 45
f 32 33 50
f 32 50 35
f 32 35 34
f 33 46 51
f 33 51 52
f 33 52 50
f 35 50 74
f 35 74 53
f 35 53 54
f 35 54 36
f 37 55 82
f 37 82 97
f 37 97 96
f 37 96 95
f 37 95 94
f 37 94 93
f 37 93 87
f 37 87 86
f 37 86 83
f 37 83 61
f 37 61 60
f 37 60 59
f 37 59 58
f 37 58 57
f 37 57 56
f 37 56 39
f 37 39 38
f 39 56 40
f 40 56 57
f 40 57 58
f 40 58 42
f 42 58 59
f 42 59 60
f 42 60 61
f 42 61 62
f 42 62 63
f 42 63 64
f 42 64 43
f 43 65 44
f 43 64 66
f 43 66 65
f 45 67 46
f 45 49 68
f 45 68 67
f 46 67 51
f 48 69 49
f 49 69 70
f 49 70 71
f 49 71 72
f 49 72 73
f 49 73 68
f 50 52 74
f 51 67 75
f 51 75 76
f 51 76 52
f 52 76 77
f 52 77 74
f 53 78 79
f 53 79 80
f 53 80 54
f 53 74 78
f 55 81 82
f 61 83 75
f 61 75 84
f 61 84 68
f 61 68 62
f 62 68 63
f 63 68 73
f 67 68 84
f 67 84 75
f 74 77 85
f 74 85 78
f 75 86 87
f 75 87 88
f 75 88 76
f 75 83 86
f 76 88 89
f 76 89 77
f 77 89 90
f 77 90 85
f 78 85 91
f 81 92 93
f 81 93 94
f 81 94 95
f 81 95 96
f 81 96 97
f 81 97 82
f 85 90 91
f 87 93 98
f 87 98 88
f 88 98 89
f 89 98 90
f 90 99 91
f 90 98 100
f 90 100 101
f 90 101 99
f 92 100 93
f 93 100 98

