# https://github.com/mikedh/trimesh
v -0.61866222 -0.95474748 0.38653686
v -0.62661907 -0.95474748 0.38958497
v -0.76337455 -0.53520505 0.27136166
v -0.75185845 -0.52337321 0.26243505
v -0.61866222 -0.52154972 0.22150328
v -0.61866222 -0.95474748 2.11829989
v -0.64289216 -0.95474748 0.39720525
v -0.78625268 -0.55729963 0.29204526
v -0.79237861 -0.53673177 0.28681993
v -0.75329585 -0.52154972 0.26287049
v -0.61866222 -0.52154972 2.34255379
v -0.61866222 -0.81475863 2.26939916
v -0.63428505 -0.95474748 2.12374294
v -0.68074289 -0.95474748 0.42246102
v -0.79345666 -0.75407280 0.38914953
v -0.79345666 -0.53673177 0.28769081
v -0.79345666 -0.53562915 0.28725537
v -0.79345666 -0.53202447 0.28660220
v -0.79345666 -0.52154972 0.28486044
v -0.62696131 -0.52154972 2.36106017
v -0.61866222 -0.76319052 2.29247770
v -0.61866222 -0.80818538 2.27527764
v -0.79345666 -0.65441398 2.38021972
v -0.69944582 -0.95474748 2.12504927
v -0.66380244 -0.95474748 2.12983915
v -0.63811801 -0.95474748 2.12483154
v -0.68428500 -0.95474748 0.42507369
v -0.79345666 -0.95474748 0.53219298
v -0.79345666 -0.52154972 2.37085768
v -0.63517484 -0.52154972 2.37521211
v -0.61866222 -0.78435208 2.28703465
v -0.64208791 -0.52154972 2.38522733
v -0.61866222 -0.79105256 2.28485742
v -0.77598576 -0.65373546 2.37978428
v -0.71005497 -0.52273711 2.44510092
v -0.73185506 -0.52154972 2.44575409
v -0.74403848 -0.52154972 2.44379459
v -0.74936017 -0.52154972 2.44205281
v -0.79345666 -0.63401571 2.38718683
v -0.79345666 -0.66798453 2.36715639
v -0.71883317 -0.94830141 2.12004166
v -0.72682428 -0.95474748 2.10588963
v -0.79345666 -0.68711054 2.34843229
v -0.79345666 -0.95474748 1.92082575
v -0.79345666 -0.52464547 2.37194628
v -0.78216303 -0.52154972 2.39175899
v -0.66766968 -0.52154972 2.41244260
v -0.67461697 -0.52154972 2.41810337
v -0.70629044 -0.52154972 2.44379459
v -0.70935339 -0.52154972 2.44531864
v -0.76799465 -0.52154972 2.41353121
v -0.79345666 -0.56777443 2.38479188
v -0.79345666 -0.59835057 2.38979950
v -0.79345666 -0.63087755 2.38762227
v -0.73476401 -0.95474748 2.09652758
v -0.79345666 -0.70127479 2.32861957
v -0.74924041 -0.94529043 2.08651235
v -0.74823085 -0.95474748 2.06844141
v -0.78053743 -0.91021903 2.05145913
v -0.79345666 -0.89431601 2.03556537
v -0.79345666 -0.54669764 2.37913111
f 1 2 3
f 1 3 4
f 1 4 5
f 1 5 11
f 1 11 21
f 1 21 31
f 1 31 33
f 1 33 22
f 1 22 12
f 1 12 6
f 1 6 13
f 1 13 26
f 1 26 25
f 1 25 24
f 1 24 42
f 1 42 55
f 1 55 58
f 1 58 44
f 1 44 28
f 1 28 27
f 1 27 14
f 1 14 7
f 1 7 2
f 2 7 3
f 3 8 9
f 3 9 4
f 3 7 8
f 4 10 5
f 4 9 10
f 5 10 19
f 5 19 29
f 5 29 46
f 5 46 51
f 5 51 38
f 5 38 37
f 5 37 36
f 5 36 50
f 5 50 49
f 5 49 48
f 5 48 47
f 5 47 32
f 5 32 30
f 5 30 20
f 5 20 11
f 6 12 13
f 7 14 15
f 7 15 8
f 8 15 9
f 9 15 16
f 9 16 17
f 9 17 18
f 9 18 10
f 10 18 19
f 11 20 21
f 12 22 23
f 12 23 24
f 12 24 25
f 12 25 26
f 12 26 13
f 14 27 15
f 15 27 28
f 15 28 44
f 15 44 60
f 15 60 56
f 15 56 43
f 15 43 40
f 15 40 23
f 15 23 39
f 15 39 54
f 15 54 53
f 15 53 52
f 15 52 61
f 15 61 45
f 15 45 29
f 15 29 19
f 15 19 18
f 15 18 17
f 15 17 16
f 20 30 21
f 21 30 32
f 21 32 31
f 22 33 34
f 22 34 23
f 23 34 35
f 23 35 36
f 23 36 37
f 23 37 38
f 23 38 39
f 23 40 24
f 24 41 42
f 24 40 43
f 24 43 41
f 29 45 46
f 31 32 47
f 31 47 33
f 33 47 48
f 33 48 49
f 33 49 50
f 33 50 35
f 33 35 34
f 35 50 36
f 38 51 52
f 38 52 53
f 38 53 54
f 38 54 39
f 41 43 42
f 42 43 55
f 43 56 57
f 43 57 55
f 44 58 57
f 44 57 59
f 44 59 60
f 45 61 46
f 46 61 52
f 46 52 51
f 55 57 58
f 56 60 59
f 56 59 57

