# https://github.com/mikedh/trimesh
v 0.03926194 -0.98463755 0.23781015
v 0.00888926 -0.98463755 0.24265752
v -0.07738746 -0.70213032 0.12235547
v -0.07738746 -0.69673554 0.12037241
v -0.07738746 -0.63427584 0.09789847
v 0.03926194 -0.53675004 0.15716813
v 0.03926194 -0.98463755 2.01083364
v -0.01626527 -0.98463755 0.24706421
v -0.07738746 -0.98463755 0.27019918
v -0.07738746 -0.60178721 0.10120347
v 0.03926194 -0.47165286 0.15408349
v 0.03926194 -0.50420145 0.15320212
v 0.03926194 -0.88045808 2.11901741
v 0.03084666 -0.98463755 2.01854533
v -0.07738746 -0.98463755 2.01678266
v -0.07738746 -0.57127669 0.11838945
v 0.03926194 -0.44749622 0.16069347
v 0.03926194 -0.46170249 0.15672745
v -0.07738746 -0.85803978 2.12893240
v -0.01626527 -0.98463755 2.02757901
v -0.00890046 -0.98463755 2.02779935
v 0.01674505 -0.98463755 2.02537567
v 0.02085564 -0.98463755 2.02383333
v 0.03926194 -0.56156605 2.31974124
v 0.01625406 -0.56504272 2.32304623
v -0.07738746 -0.57409394 2.33957122
v -0.07738746 -0.59453423 2.32591056
v -0.07738746 -0.53633044 0.13821942
v 0.03926194 -0.43173143 0.17501515
v -0.07738746 -0.37232879 0.23781015
v 0.03926194 -0.53675004 2.33119850
v -0.07738746 -0.56923862 2.34221518
v 0.03926194 -0.43053255 0.17611685
v -0.05047451 -0.37232879 0.23913218
v -0.07738746 -0.37232879 2.28735221
v 0.03926194 -0.51373227 2.32921554
v 0.01625406 -0.53675004 2.33604587
v -0.07738746 -0.55023699 2.34684222
v -0.04878461 -0.37232879 0.23935253
v 0.03926194 -0.41926345 0.19220114
v -0.07738746 -0.53675004 2.34882517
v 0.03920486 -0.37232879 2.29462322
v 0.01625406 -0.50420145 2.33163918
v 0.03926194 -0.50420145 2.32789351
v -0.01383318 -0.37232879 0.24970820
v 0.03926194 -0.37232879 0.26579248
v 0.03926194 -0.37412706 2.29396220
v 0.03926194 -0.37232879 2.28999619
f 1 2 3
f 1 3 4
f 1 4 5
f 1 5 6
f 1 6 12
f 1 12 11
f 1 11 18
f 1 18 17
f 1 17 29
f 1 29 33
f 1 33 40
f 1 40 46
f 1 46 48
f 1 48 47
f 1 47 44
f 1 44 36
f 1 36 31
f 1 31 24
f 1 24 13
f 1 13 7
f 1 7 14
f 1 14 23
f 1 23 22
f 1 22 21
f 1 21 20
f 1 20 15
f 1 15 9
f 1 9 8
f 1 8 2
f 2 8 3
f 3 8 9
f 3 9 15
f 3 15 19
f 3 19 27
f 3 27 26
f 3 26 32
f 3 32 38
f 3 38 41
f 3 41 35
f 3 35 30
f 3 30 28
f 3 28 16
f 3 16 10
f 3 10 5
f 3 5 4
f 5 10 11
f 5 11 12
f 5 12 6
f 7 13 14
f 10 16 17
f 10 17 18
f 10 18 11
f 13 19 20
f 13 20 21
f 13 21 22
f 13 22 23
f 13 23 14
f 13 24 25
f 13 25 26
f 13 26 27
f 13 27 19
f 15 20 19
f 16 28 17
f 17 28 30
f 17 30 29
f 24 31 32
f 24 32 26
f 24 26 25
f 29 30 33
f 30 34 33
f 30 35 42
f 30 42 48
f 30 48 46
f 30 46 45
f 30 45 39
f 30 39 34
f 31 36 37
f 31 37 32
f 32 37 38
f 33 34 39
f 33 39 40
f 35 41 42
f 36 43 37
f 36 44 43
f 37 41 38
f 37 43 41
f 39 45 40
f 40 45 46
f 41 43 42
f 42 47 48
f 42 43 44
f 42 44 47

