# https://github.com/mikedh/trimesh
v 0.76894116 -0.27676714 1.88034004
v 0.76894116 -0.32716068 1.87963109
v 0.76894116 -0.27034758 1.87874493
v 0.69975839 -0.14638992 1.99377294
v 0.76894116 -0.33133339 1.87945389
v 0.76894116 -0.24394715 1.87183260
v 0.69811394 -0.13383166 1.99377294
v 0.69109609 -0.17638131 1.99377294
v 0.76894116 -0.12638899 1.83939791
v 0.67826473 -0.19230982 1.99377294
v 0.76322033 -0.33133339 1.88246691
v 0.76894116 -0.33133339 0.19426708
v 0.69679375 -0.12638899 1.99377294
v 0.76894116 -0.12638899 0.24460296
v 0.56354688 -0.26745879 1.99377294
v 0.60176297 -0.33133339 1.96346507
v 0.62119531 -0.33133339 1.95655273
v 0.53232547 -0.33133339 0.21571300
v 0.53232547 -0.17367305 0.18611404
v 0.53232547 -0.14731273 0.18310102
v 0.53232547 -0.14324033 0.18363262
v 0.53232547 -0.14091324 0.18398723
v 0.53232547 -0.12638899 0.18717745
v 0.76894116 -0.30818286 0.19940691
v 0.53232547 -0.12638899 1.99377294
v 0.53670293 -0.27287528 1.99377294
v 0.53232547 -0.33133339 1.96275616
v 0.53515115 -0.27299565 1.99377294
v 0.53232547 -0.27317620 1.99377294
f 1 2 5
f 1 5 12
f 1 12 24
f 1 24 14
f 1 14 9
f 1 9 6
f 1 6 3
f 1 3 4
f 1 4 2
f 2 4 5
f 3 6 4
f 4 7 13
f 4 13 25
f 4 25 29
f 4 29 28
f 4 28 26
f 4 26 15
f 4 15 10
f 4 10 8
f 4 8 5
f 4 6 9
f 4 9 7
f 5 8 10
f 5 10 11
f 5 11 17
f 5 17 16
f 5 16 27
f 5 27 18
f 5 18 12
f 7 9 13
f 9 14 23
f 9 23 25
f 9 25 13
f 10 15 16
f 10 16 17
f 10 17 11
f 12 18 19
f 12 19 20
f 12 20 21
f 12 21 22
f 12 22 23
f 12 23 24
f 14 24 23
f 15 26 16
f 16 26 28
f 16 28 29
f 16 29 27
f 18 27 29
f 18 29 25
f 18 25 23
f 18 23 22
f 18 22 21
f 18 21 20
f 18 20 19

