# https://github.com/mikedh/trimesh
v 0.03926194 -1.46542631 1.29463658
v -0.13529257 -1.46542631 1.17812731
v -0.13351289 -1.47998005 1.17733473
v -0.13137000 -1.49849700 1.17530923
v -0.11386370 -1.52107816 1.16685505
v -0.11386370 -1.53436716 1.15056312
v 0.03926194 -1.48863146 1.26531111
v 0.03926194 -1.46542631 0.39514610
v -0.31667526 -1.46542631 1.03511059
v -0.13271383 -1.53077514 1.14448666
v -0.11386370 -1.54374366 1.12511251
v -0.08132086 -1.53568261 1.15197216
v 0.03926194 -1.50203843 1.24488016
v 0.03926194 -1.49154889 1.26152435
v 0.03926194 -1.46836061 0.39558639
v 0.03853554 -1.46542631 0.39532223
v -0.16496611 -1.53013428 1.11075798
v -0.33178443 -1.46542631 1.01635287
v -0.14469948 -1.53451897 1.12299894
v -0.19558397 -1.62668184 0.81697490
v -0.08132086 -1.54490730 1.12511251
v -0.17887672 -1.62873924 0.82076168
v 0.03926194 -1.50848062 1.22268791
v 0.03926194 -1.50436571 0.40166284
v -0.07115123 -1.47134562 0.42323865
v -0.07155075 -1.46542631 0.42306253
v -0.19405853 -1.52829605 1.07315445
v -0.33178443 -1.47336929 0.99380837
v -0.33178443 -1.46542631 0.67052370
v -0.19558397 -1.62668184 0.80913720
v -0.18192761 -1.63148820 0.79892171
v -0.33178443 -1.48055344 0.97055934
v -0.33178443 -1.48259398 0.96254548
v -0.33178443 -1.49955944 0.73489884
v -0.14637021 -1.63575482 0.79997847
v 0.01623499 -1.58077746 0.96254548
v 0.03926194 -1.58492610 0.92996162
v 0.03926194 -1.51251110 0.40360034
v -0.07558228 -1.46542631 0.42491190
v 0.03926194 -1.54308594 0.41126190
v 0.00312342 -1.55634120 0.42658515
v -0.06065472 -1.49303301 0.42746572
v -0.08172039 -1.48131237 0.43424671
v -0.26568179 -1.46542631 0.54987539
v -0.27007655 -1.46542631 0.55621599
v -0.33178443 -1.47596635 0.67598372
v -0.33178443 -1.49864881 0.70803919
v -0.19478493 -1.62612532 0.78747332
v -0.17357398 -1.63185928 0.76739460
v -0.14637021 -1.63769416 0.76739460
v 0.01623499 -1.58813028 0.92996162
v -0.11063120 -1.63325887 0.77065302
v -0.08132086 -1.62919466 0.75938076
v -0.06494050 -1.62639510 0.75136686
v 0.03926194 -1.58673060 0.89746585
v 0.03926194 -1.56907368 0.42226995
v 0.02480653 -1.56618998 0.42429548
v 0.01485482 -1.57723603 0.43257346
v -0.01739745 -1.57932717 0.44772057
v -0.04038809 -1.56968080 0.45406126
v -0.06207120 -1.55583528 0.46066607
v -0.26462852 -1.46800650 0.55102022
v -0.33178443 -1.49217288 0.69060242
v -0.33178443 -1.48159901 0.68091533
v -0.22798152 -1.59411706 0.75013396
v -0.18984539 -1.62352826 0.76739460
v -0.16674580 -1.62833463 0.74573076
v -0.01739745 -1.59887283 0.47361157
v 0.01623499 -1.60573650 0.47466829
v 0.03926194 -1.60796258 0.47466829
v -0.11386370 -1.63541748 0.73489884
v -0.08019494 -1.63062817 0.73789301
v 0.03926194 -1.58442019 0.43045993
v 0.01623499 -1.59951358 0.44992222
v -0.00730047 -1.59614083 0.45511798
v -0.02898357 -1.59136820 0.46207512
v -0.07525541 -1.57035539 0.48232995
v -0.09693851 -1.56018624 0.49166477
v -0.06138112 -1.59204279 0.49606797
v -0.32495626 -1.49595045 0.68699178
v -0.22187975 -1.59039010 0.72847012
v -0.17811399 -1.61784499 0.73489884
v -0.03969801 -1.59590469 0.48373894
v 0.03926194 -1.60145302 0.44710414
f 1 2 3
f 1 3 4
f 1 4 5
f 1 5 6
f 1 6 7
f 1 7 14
f 1 14 13
f 1 13 23
f 1 23 37
f 1 37 55
f 1 55 70
f 1 70 84
f 1 84 73
f 1 73 56
f 1 56 40
f 1 40 38
f 1 38 24
f 1 24 15
f 1 15 8
f 1 8 16
f 1 16 26
f 1 26 39
f 1 39 44
f 1 44 45
f 1 45 29
f 1 29 18
f 1 18 9
f 1 9 2
f 2 9 3
f 3 9 4
f 4 10 5
f 4 9 10
f 5 10 6
f 6 10 11
f 6 11 12
f 6 12 13
f 6 13 14
f 6 14 7
f 8 15 16
f 9 17 10
f 9 18 17
f 10 17 19
f 10 19 20
f 10 20 11
f 11 21 12
f 11 20 22
f 11 22 21
f 12 21 13
f 13 21 23
f 15 24 25
f 15 25 16
f 16 25 26
f 17 27 20
f 17 20 19
f 17 18 27
f 18 28 20
f 18 20 27
f 18 29 46
f 18 46 64
f 18 64 63
f 18 63 47
f 18 47 34
f 18 34 33
f 18 33 32
f 18 32 28
f 20 30 31
f 20 31 22
f 20 28 32
f 20 32 33
f 20 33 34
f 20 34 30
f 21 22 35
f 21 35 36
f 21 36 23
f 22 31 35
f 23 36 37
f 24 38 25
f 25 39 26
f 25 38 40
f 25 40 41
f 25 41 42
f 25 42 43
f 25 43 44
f 25 44 39
f 29 45 46
f 30 34 47
f 30 47 48
f 30 48 31
f 31 48 49
f 31 49 50
f 31 50 35
f 35 37 51
f 35 51 36
f 35 50 52
f 35 52 37
f 36 51 37
f 37 52 53
f 37 53 54
f 37 54 55
f 40 56 57
f 40 57 41
f 41 57 58
f 41 58 59
f 41 59 60
f 41 60 42
f 42 60 43
f 43 60 61
f 43 61 44
f 44 62 45
f 44 61 60
f 44 60 62
f 45 62 63
f 45 63 64
f 45 64 46
f 47 65 48
f 47 63 65
f 48 65 66
f 48 66 49
f 49 66 67
f 49 67 68
f 49 68 50
f 50 68 69
f 50 69 70
f 50 70 71
f 50 71 52
f 52 71 72
f 52 72 53
f 53 72 54
f 54 72 70
f 54 70 55
f 56 73 58
f 56 58 57
f 58 73 74
f 58 74 75
f 58 75 59
f 59 75 76
f 59 76 60
f 60 76 62
f 62 76 77
f 62 77 78
f 62 78 79
f 62 79 80
f 62 80 63
f 63 80 81
f 63 81 65
f 65 81 66
f 66 81 82
f 66 82 67
f 67 82 79
f 67 79 83
f 67 83 68
f 68 83 75
f 68 75 74
f 68 74 69
f 69 74 84
f 69 84 70
f 70 72 71
f 73 84 74
f 75 83 76
f 76 83 79
f 76 79 77
f 77 79 78
f 79 82 81
f 79 81 80

