# https://github.com/mikedh/trimesh
v -0.78736150 -1.35558830 0.96302791
v -0.76796281 -1.37518891 0.96302791
v -0.78551620 -1.40281743 1.03654417
v -0.79159235 -1.39964795 1.04152832
v -0.79159235 -1.35558830 0.97462566
v -0.33182941 -1.35558830 0.96302791
v -0.75837601 -1.38432190 0.96302791
v -0.74959931 -1.40008582 0.97599948
v -0.78673142 -1.43705593 1.09951703
v -0.79159235 -1.40521537 1.05117714
v -0.79159235 -1.35558830 1.28942605
v -0.33182941 -1.35558830 1.28942605
v -0.33182941 -1.48245012 0.96302791
v -0.73371127 -1.40613279 0.96302791
v -0.79150230 -1.44203950 1.12520459
v -0.79159235 -1.44197688 1.12520459
v -0.79159235 -1.43440778 1.10542774
v -0.79159235 -1.42973694 1.09529967
v -0.73204598 -1.40738387 0.96302791
v -0.72160399 -1.43620104 1.00408328
v -0.72182899 -1.46777046 1.07028305
v -0.63455730 -1.52202670 1.05849362
v -0.69401367 -1.50574145 1.12520459
v -0.79159235 -1.47654904 1.28942605
v -0.33182941 -1.44975458 1.28942605
v -0.42157657 -1.52978346 1.24092641
v -0.43647444 -1.53914590 1.22242753
v -0.48067291 -1.56479349 1.21616539
v -0.48166308 -1.56441815 1.19022223
v -0.48679405 -1.56193684 1.17296939
v -0.50416737 -1.56264584 1.17169140
v -0.60174606 -1.52646810 1.05341363
v -0.60174606 -1.51020379 1.03044177
v -0.65053535 -1.46370440 0.97881104
v -0.66466810 -1.44020456 0.96302791
v -0.70193523 -1.50901523 1.15578045
v -0.71989362 -1.49990299 1.16536536
v -0.69873959 -1.42646325 0.96302791
v -0.67222953 -1.45897103 0.98887522
v -0.65377598 -1.49952765 1.03881259
v -0.63424226 -1.50617932 1.03261434
v -0.62393530 -1.53082612 1.06827022
v -0.72254913 -1.50163371 1.19022223
v -0.69932469 -1.51072502 1.19022223
v -0.52779691 -1.56571101 1.21648488
v -0.56920484 -1.53130568 1.27434580
v -0.56920484 -1.52017083 1.28942605
v -0.33795059 -1.45375811 1.28942605
v -0.43912996 -1.53518406 1.24747610
v -0.47054593 -1.55774564 1.22530301
v -0.35554896 -1.46524746 1.28942605
v -0.50416737 -1.56058145 1.23750779
v -0.50416737 -1.56723322 1.22124538
v -0.50416737 -1.56858851 1.19022223
v -0.69342855 -1.42890289 0.96302791
v -0.66678347 -1.52106750 1.12520459
v -0.66678347 -1.52265224 1.15769745
v -0.52743684 -1.56546081 1.19022223
v -0.53670859 -1.54654826 1.25527182
v -0.53670859 -1.53284873 1.27575158
v -0.53670859 -1.51985810 1.28942605
v -0.43912996 -1.52327778 1.26373850
v -0.46208434 -1.52742729 1.27006453
v -0.47243631 -1.54000089 1.25763609
v -0.37323733 -1.47413025 1.28942605
v -0.50416737 -1.54654826 1.25527182
v -0.47198623 -1.51404048 1.28942605
v -0.44273061 -1.50451121 1.28942605
v -0.40393322 -1.48778810 1.28942605
f 1 2 3
f 1 3 4
f 1 4 5
f 1 5 11
f 1 11 12
f 1 12 6
f 1 6 13
f 1 13 35
f 1 35 55
f 1 55 38
f 1 38 19
f 1 19 14
f 1 14 7
f 1 7 2
f 2 7 3
f 3 7 8
f 3 8 9
f 3 9 10
f 3 10 4
f 4 10 18
f 4 18 17
f 4 17 16
f 4 16 24
f 4 24 11
f 4 11 5
f 6 12 25
f 6 25 13
f 7 14 8
f 8 14 9
f 9 15 16
f 9 16 17
f 9 17 18
f 9 18 10
f 9 14 19
f 9 19 20
f 9 20 21
f 9 21 22
f 9 22 23
f 9 23 15
f 11 24 47
f 11 47 61
f 11 61 67
f 11 67 68
f 11 68 69
f 11 69 65
f 11 65 51
f 11 51 48
f 11 48 25
f 11 25 12
f 13 25 26
f 13 26 27
f 13 27 28
f 13 28 29
f 13 29 30
f 13 30 31
f 13 31 32
f 13 32 33
f 13 33 34
f 13 34 35
f 15 24 16
f 15 23 36
f 15 36 37
f 15 37 24
f 19 38 39
f 19 39 40
f 19 40 20
f 20 40 21
f 21 40 22
f 22 41 42
f 22 42 23
f 22 40 39
f 22 39 41
f 23 42 36
f 24 37 36
f 24 36 43
f 24 43 44
f 24 44 45
f 24 45 46
f 24 46 47
f 25 48 26
f 26 49 50
f 26 50 28
f 26 28 27
f 26 48 51
f 26 51 49
f 28 50 52
f 28 52 53
f 28 53 54
f 28 54 29
f 29 54 30
f 30 54 31
f 31 54 32
f 32 42 41
f 32 41 33
f 32 54 42
f 33 41 34
f 34 41 39
f 34 39 38
f 34 38 55
f 34 55 35
f 36 42 56
f 36 56 57
f 36 57 44
f 36 44 43
f 42 54 58
f 42 58 56
f 44 57 45
f 45 58 54
f 45 54 53
f 45 53 52
f 45 52 59
f 45 59 46
f 45 57 58
f 46 59 60
f 46 60 47
f 47 60 61
f 49 62 63
f 49 63 64
f 49 64 50
f 49 51 65
f 49 65 62
f 50 64 52
f 52 66 60
f 52 60 59
f 52 64 66
f 56 58 57
f 60 66 67
f 60 67 61
f 62 68 63
f 62 65 69
f 62 69 68
f 63 67 64
f 63 68 67
f 64 67 66

