# https://github.com/mikedh/trimesh
v 1.07746997 0.10310966 1.66197108
v 1.07746997 0.09128971 1.66197108
v 1.07746997 0.11217459 1.66025339
v 0.97678095 0.16403127 1.76073696
v 0.97804482 0.14636800 1.76262643
v 0.94806284 0.14025807 1.79526212
v 1.07746997 -0.01253478 1.65235214
v 0.94806284 0.12163943 1.79526212
v 1.07746997 0.13085988 1.65011918
v 0.94270306 0.19484758 1.75884755
v 0.83840969 0.21444381 1.83700146
v 0.94272653 0.16194279 1.79165501
v 1.07746997 0.21444381 1.60202445
v 0.83840969 0.04880898 1.86362531
v 0.88779463 0.04880898 1.83219199
v 0.88393273 0.02670213 1.82961550
v 0.83840969 -0.00493624 1.83803201
v 0.83840969 -0.00820228 1.83270722
v 0.83840969 -0.01253478 1.82480602
v 1.07746997 -0.01253478 0.27546959
v 0.84688245 0.21444381 1.82875662
v 0.83840969 0.21444381 0.10885582
v 1.07746997 0.21444381 0.27254953
v 0.83840969 0.01632634 1.85349106
v 0.83840969 -0.01253478 0.15248460
v 0.87136416 -0.01253478 0.15918337
v 0.88255185 -0.00682476 0.16227531
v 1.07746997 0.08680168 0.22256543
v 0.85895943 0.21444381 0.11126046
v 0.86197875 0.21142216 0.11160402
v 0.83840969 0.21142216 0.10902760
v 1.07746997 0.20293491 0.25623172
v 1.07744651 0.20286826 0.25605994
v 1.07414637 0.21444381 0.26464833
v 0.83840969 0.00988314 0.14097615
v 0.85835095 -0.01253478 0.15403055
v 0.86235322 -0.01253478 0.15488922
v 0.86197875 0.01628191 0.14355274
v 0.85432523 0.05458566 0.12757838
v 1.07746997 0.09242282 0.22136311
v 0.86197875 0.21444381 0.11177578
v 0.89451192 0.21142216 0.11830299
v 0.83840969 0.08133606 0.11658525
v 1.07746997 0.20275717 0.25605994
v 1.06043093 0.21444381 0.24420805
v 1.07746997 0.18062809 0.23974212
v 1.07075267 0.18476063 0.23441733
v 1.04907952 0.20466791 0.22239365
v 0.83840969 0.04825354 0.12465842
v 0.83840969 0.07171570 0.11795944
v 0.92732593 0.21444381 0.12912435
v 1.07746997 0.11384093 0.21792764
v 0.89451192 0.21444381 0.11847477
v 0.92667053 0.21395500 0.12895256
v 1.04481979 0.21444381 0.22668780
v 1.07746997 0.15014506 0.22600080
v 0.95204175 0.21444381 0.14819044
v 1.07746997 0.12341687 0.21964537
f 1 2 7
f 1 7 20
f 1 20 28
f 1 28 40
f 1 40 52
f 1 52 58
f 1 58 56
f 1 56 46
f 1 46 44
f 1 44 32
f 1 32 23
f 1 23 13
f 1 13 9
f 1 9 3
f 1 3 4
f 1 4 5
f 1 5 6
f 1 6 8
f 1 8 2
f 2 8 7
f 3 9 4
f 4 10 11
f 4 11 12
f 4 12 6
f 4 6 5
f 4 9 13
f 4 13 10
f 6 12 11
f 6 11 14
f 6 14 8
f 7 8 15
f 7 15 16
f 7 16 17
f 7 17 18
f 7 18 19
f 7 19 25
f 7 25 36
f 7 36 37
f 7 37 26
f 7 26 20
f 8 14 15
f 10 21 11
f 10 13 21
f 11 21 13
f 11 13 23
f 11 23 34
f 11 34 45
f 11 45 55
f 11 55 57
f 11 57 51
f 11 51 53
f 11 53 41
f 11 41 29
f 11 29 22
f 11 22 31
f 11 31 43
f 11 43 50
f 11 50 49
f 11 49 35
f 11 35 25
f 11 25 19
f 11 19 18
f 11 18 17
f 11 17 24
f 11 24 14
f 14 24 16
f 14 16 15
f 16 24 17
f 20 26 27
f 20 27 28
f 22 29 30
f 22 30 31
f 23 32 33
f 23 33 34
f 25 35 36
f 26 37 27
f 27 37 38
f 27 38 28
f 28 38 39
f 28 39 40
f 29 41 30
f 30 41 53
f 30 53 42
f 30 42 43
f 30 43 31
f 32 44 33
f 33 45 34
f 33 44 46
f 33 46 47
f 33 47 48
f 33 48 45
f 35 49 36
f 36 49 37
f 37 49 38
f 38 49 39
f 39 49 50
f 39 50 51
f 39 51 40
f 40 51 52
f 42 53 51
f 42 51 54
f 42 54 43
f 43 54 50
f 45 48 55
f 46 56 47
f 47 56 48
f 48 56 57
f 48 57 55
f 50 54 51
f 51 57 56
f 51 56 58
f 51 58 52

