# https://github.com/mikedh/trimesh
v 0.28143581 -1.38573234 1.31513085
v 0.26280341 -1.38573234 1.33732727
v 0.23369322 -1.44746161 1.34189712
v 0.24872243 -1.44525696 1.31878674
v 0.26109662 -1.43292677 1.30690513
v 0.26339604 -1.43815540 1.28779879
v 0.26621696 -1.44459361 1.25528757
v 0.28143581 -1.39620908 1.28779879
v 0.28143581 -1.38573234 0.92795562
v 0.24194270 -1.38573234 1.35094978
v 0.22809875 -1.46406453 1.33697909
v 0.21439708 -1.38573234 1.36500751
v 0.21141020 -1.41493862 1.35965426
v 0.21141020 -1.44746161 1.35116739
v 0.23203384 -1.47028812 1.32031001
v 0.23803130 -1.48177951 1.28853867
v 0.25486210 -1.45440711 1.28779879
v 0.25877349 -1.46084542 1.25528757
v 0.25995875 -1.46320605 1.23679054
v 0.26704666 -1.45040755 1.22469131
v 0.28143581 -1.44174520 1.11928007
v 0.28143581 -1.41495810 1.22273281
v 0.28143581 -1.41907476 0.92795562
v 0.03928564 -1.38573234 0.92795562
v 0.22395033 -1.49379756 1.29989802
v 0.21141020 -1.46644474 1.33924225
v 0.17888646 -1.53586088 1.27883318
v 0.19932047 -1.53250518 1.27522082
v 0.21141020 -1.38573234 1.36626967
v 0.17888646 -1.38573234 1.37258041
v 0.17888646 -1.46779091 1.34033032
v 0.17888646 -1.44746161 1.35295180
v 0.23037449 -1.49980663 1.27822387
v 0.23347989 -1.50493774 1.25528757
v 0.24831943 -1.47998461 1.25528757
v 0.25398501 -1.47797509 1.22469131
v 0.26119142 -1.46578139 1.21511639
v 0.28143581 -1.44640809 1.09577797
v 0.11139733 -1.54916665 0.92795562
v 0.28143581 -1.44121844 0.99032322
v 0.26123886 -1.46494249 1.00986478
v 0.03928564 -1.38573234 1.34385564
v 0.03928564 -1.58502576 0.92795562
v 0.20517569 -1.53849477 1.25528757
v 0.17888646 -1.50277215 1.30951645
v 0.17888646 -1.51902386 1.29506702
v 0.14638643 -1.53424153 1.27748397
v 0.17888646 -1.55053231 1.25528757
v 0.14638643 -1.51791179 1.29376136
v 0.16298017 -1.38573234 1.37205813
v 0.15333209 -1.46587891 1.33841533
v 0.14638643 -1.50166008 1.30838487
v 0.14638643 -1.38573234 1.37079598
v 0.14638643 -1.41493862 1.36091641
v 0.11386268 -1.41493862 1.35678179
v 0.14403960 -1.45046610 1.34611881
v 0.22143756 -1.52120893 1.25528757
v 0.22523041 -1.52546217 1.22273281
v 0.23634823 -1.50919088 1.22273281
v 0.25415096 -1.48410117 1.19022159
v 0.28143581 -1.45265127 1.06061189
v 0.11085211 -1.54955682 0.92795562
v 0.28143581 -1.44318889 0.99641635
v 0.26408349 -1.46724467 1.02762191
v 0.03928564 -1.39275587 1.34294167
v 0.04575721 -1.38573234 1.34746800
v 0.04879149 -1.58371865 0.92795562
v 0.17888646 -1.55533179 1.22273281
v 0.03928564 -1.58492824 0.93004473
v 0.20896855 -1.54097250 1.22273281
v 0.10227077 -1.52725707 1.26960643
v 0.14638643 -1.54682541 1.25528757
v 0.14638643 -1.55283448 1.22273281
v 0.12481456 -1.49824584 1.30586058
v 0.13164170 -1.46330366 1.33628274
v 0.12175656 -1.38573234 1.36792353
v 0.08133893 -1.41493862 1.35142853
v 0.11386268 -1.44348154 1.34416029
v 0.28143581 -1.45165621 1.02762191
v 0.28143581 -1.45272931 1.06013315
v 0.08318796 -1.56869601 0.92795562
v 0.04746400 -1.38573234 1.34820786
v 0.03928564 -1.40612019 1.33950339
v 0.08261903 -1.56904722 0.92795562
v 0.11386268 -1.54553778 1.22273281
v 0.08133893 -1.53303194 1.24662660
v 0.06384439 -1.52950070 1.24027233
v 0.04587574 -1.51562910 1.22273281
v 0.03928564 -1.50846899 1.22273281
v 0.08133893 -1.50606929 1.28113987
v 0.05983819 -1.50002125 1.27556899
v 0.08133893 -1.52234058 1.26290398
v 0.10312416 -1.49407073 1.30198708
v 0.08133893 -1.48999314 1.29741724
v 0.05782322 -1.46839570 1.30829784
v 0.11391009 -1.48193558 1.31600130
v 0.08133893 -1.47374143 1.31291120
v 0.11386268 -1.45973335 1.33388900
v 0.08133893 -1.45366573 1.32914506
v 0.08133893 -1.43739453 1.34067850
v 0.06128420 -1.43353156 1.33837181
v 0.11386268 -1.38573234 1.36661784
v 0.08314055 -1.38573234 1.36109050
v 0.04978712 -1.41310465 1.34211473
v 0.04891002 -1.38573234 1.34881719
v 0.03928564 -1.42250848 1.33062483
v 0.03959381 -1.42274259 1.33092948
v 0.03928564 -1.49153445 1.26155478
v 0.03928564 -1.50201129 1.24488571
v 0.03928564 -1.48862748 1.26534124
v 0.03928564 -1.46457180 1.29598099
v 0.04869667 -1.44642758 1.31961366
v 0.03928564 -1.45608500 1.30425025
v 0.07790167 -1.38573234 1.35943666
v 0.03928564 -1.42323028 1.33018961
f 1 2 3
f 1 3 4
f 1 4 5
f 1 5 6
f 1 6 7
f 1 7 8
f 1 8 22
f 1 22 21
f 1 21 38
f 1 38 61
f 1 61 80
f 1 80 79
f 1 79 63
f 1 63 40
f 1 40 23
f 1 23 9
f 1 9 24
f 1 24 42
f 1 42 66
f 1 66 82
f 1 82 105
f 1 105 114
f 1 114 103
f 1 103 102
f 1 102 76
f 1 76 53
f 1 53 50
f 1 50 30
f 1 30 29
f 1 29 12
f 1 12 10
f 1 10 2
f 2 10 3
f 3 11 4
f 3 10 12
f 3 12 13
f 3 13 14
f 3 14 11
f 4 15 16
f 4 16 5
f 4 11 15
f 5 16 17
f 5 17 6
f 6 17 18
f 6 18 7
f 7 18 19
f 7 19 20
f 7 20 21
f 7 21 22
f 7 22 8
f 9 23 39
f 9 39 62
f 9 62 81
f 9 81 84
f 9 84 67
f 9 67 43
f 9 43 24
f 11 25 15
f 11 14 26
f 11 26 27
f 11 27 28
f 11 28 25
f 12 29 13
f 13 29 30
f 13 30 14
f 14 31 26
f 14 30 32
f 14 32 31
f 15 25 33
f 15 33 16
f 16 33 17
f 17 33 34
f 17 34 35
f 17 35 18
f 18 35 36
f 18 36 19
f 19 36 37
f 19 37 20
f 20 37 21
f 21 37 38
f 23 40 41
f 23 41 39
f 24 43 69
f 24 69 89
f 24 89 109
f 24 109 108
f 24 108 110
f 24 110 111
f 24 111 113
f 24 113 115
f 24 115 106
f 24 106 83
f 24 83 65
f 24 65 42
f 25 28 44
f 25 44 33
f 26 31 45
f 26 45 46
f 26 46 27
f 27 47 48
f 27 48 28
f 27 46 49
f 27 49 47
f 28 48 44
f 30 50 32
f 31 32 51
f 31 51 52
f 31 52 45
f 32 50 53
f 32 53 54
f 32 54 55
f 32 55 56
f 32 56 51
f 33 44 57
f 33 57 34
f 34 57 58
f 34 58 59
f 34 59 35
f 35 59 36
f 36 59 60
f 36 60 37
f 37 60 61
f 37 61 38
f 39 41 62
f 40 63 41
f 41 63 64
f 41 64 62
f 42 65 66
f 43 67 68
f 43 68 69
f 44 48 68
f 44 68 70
f 44 70 58
f 44 58 57
f 45 52 46
f 46 52 49
f 47 71 72
f 47 72 48
f 47 49 71
f 48 72 73
f 48 73 68
f 49 52 74
f 49 74 71
f 51 56 75
f 51 75 52
f 52 75 74
f 53 76 54
f 54 76 55
f 55 77 56
f 55 76 77
f 56 78 75
f 56 77 78
f 58 70 79
f 58 79 80
f 58 80 59
f 59 80 60
f 60 80 61
f 62 64 81
f 63 79 64
f 64 79 70
f 64 70 81
f 65 82 66
f 65 83 82
f 67 84 68
f 68 73 69
f 68 84 70
f 69 73 72
f 69 72 85
f 69 85 86
f 69 86 87
f 69 87 88
f 69 88 89
f 70 84 81
f 71 90 91
f 71 91 92
f 71 92 87
f 71 87 86
f 71 86 72
f 71 74 93
f 71 93 94
f 71 94 95
f 71 95 90
f 72 86 85
f 74 75 96
f 74 96 97
f 74 97 93
f 75 98 99
f 75 99 96
f 75 78 100
f 75 100 101
f 75 101 98
f 76 102 77
f 77 102 103
f 77 103 104
f 77 104 101
f 77 101 100
f 77 100 78
f 82 83 105
f 83 101 104
f 83 104 105
f 83 106 107
f 83 107 101
f 87 92 91
f 87 91 108
f 87 108 109
f 87 109 88
f 88 109 89
f 90 95 91
f 91 110 108
f 91 95 111
f 91 111 110
f 93 97 94
f 94 97 95
f 95 112 113
f 95 113 111
f 95 97 101
f 95 101 112
f 96 99 97
f 97 99 101
f 98 101 99
f 101 107 112
f 103 114 104
f 104 114 105
f 106 115 107
f 107 115 113
f 107 113 112

