# https://github.com/mikedh/trimesh
v 1.33743487 0.59605126 1.06011553
v 1.24447924 0.72506738 0.96254368
v 1.24537747 0.72506738 0.96932127
v 1.24404738 0.72506738 0.99502502
v 1.24356366 0.72506738 1.00180261
v 1.23782844 0.72506738 1.03594636
v 1.32720822 0.59605126 1.08677835
v 1.27395006 0.59605126 0.63728288
v 1.23929676 0.72506738 0.93492178
v 1.23675737 0.65152252 0.61867646
v 1.23155764 0.72506738 1.05205915
v 1.20913497 0.72506738 1.08332562
v 1.31186822 0.59605126 1.10416992
v 1.26222039 0.59605126 0.59847155
v 1.20424621 0.68372916 0.62008312
v 1.18747238 0.72506738 0.73466295
v 1.23102215 0.64431074 0.59700094
v 1.16097281 0.72506738 1.13198366
v 1.28491952 0.59605126 1.13313458
v 1.29224405 0.59605126 1.12527000
v 1.25347943 0.59605126 0.58267844
v 1.23862303 0.62262490 0.58542789
v 1.20934232 0.65444006 0.58523606
v 1.18724779 0.69051151 0.61439250
v 1.18724779 0.69917575 0.63728288
v 1.17897317 0.72506738 0.70314069
v 1.16097281 0.59605126 1.17418382
v 1.22012180 0.59605126 1.16836529
v 1.25230473 0.59605126 1.16030891
v 1.25513774 0.59605126 1.15832678
v 1.16097281 0.72506738 0.68146517
v 1.24793419 0.59605126 0.57711572
v 1.20851311 0.59605126 0.53849617
v 1.19533239 0.59605126 0.52986434
v 1.18724779 0.59605126 0.52698703
v 1.16097281 0.69224184 0.60671978
v 1.16097281 0.69533619 0.60985280
v 1.16097281 0.70538970 0.63287105
v 1.16812459 0.72506738 0.68632456
v 1.17503450 0.72506738 0.69597947
v 1.16097281 0.59605126 0.52110461
v 1.17595007 0.59605126 0.52442949
f 1 2 3
f 1 3 4
f 1 4 5
f 1 5 6
f 1 6 7
f 1 7 13
f 1 13 20
f 1 20 19
f 1 19 30
f 1 30 29
f 1 29 28
f 1 28 27
f 1 27 41
f 1 41 42
f 1 42 35
f 1 35 34
f 1 34 33
f 1 33 32
f 1 32 21
f 1 21 14
f 1 14 8
f 1 8 2
f 2 9 16
f 2 16 26
f 2 26 40
f 2 40 39
f 2 39 31
f 2 31 18
f 2 18 12
f 2 12 11
f 2 11 6
f 2 6 5
f 2 5 4
f 2 4 3
f 2 8 10
f 2 10 9
f 6 11 7
f 7 12 13
f 7 11 12
f 8 14 10
f 9 10 15
f 9 15 16
f 10 14 17
f 10 17 15
f 12 18 19
f 12 19 20
f 12 20 13
f 14 21 22
f 14 22 17
f 15 17 23
f 15 23 24
f 15 24 25
f 15 25 26
f 15 26 16
f 17 22 23
f 18 27 28
f 18 28 29
f 18 29 30
f 18 30 19
f 18 31 38
f 18 38 37
f 18 37 36
f 18 36 41
f 18 41 27
f 21 32 22
f 22 32 33
f 22 33 23
f 23 33 34
f 23 34 35
f 23 35 36
f 23 36 37
f 23 37 24
f 24 37 38
f 24 38 39
f 24 39 25
f 25 39 40
f 25 40 26
f 31 39 38
f 35 42 36
f 36 42 41

