# https://github.com/mikedh/trimesh
v 0.19354763 0.50113206 2.25326047
v 0.19354763 0.54597488 2.24545049
v 0.09165189 0.50113206 2.28558503
v 0.19354763 0.50113206 0.29252753
v 0.19354763 0.57001737 2.23937608
v 0.08216551 0.50539616 2.28710356
v 0.08209919 0.50113206 2.28797135
v 0.17006385 0.50113206 0.24805414
v 0.19354763 0.56770420 0.30836435
v 0.19354763 0.59602940 2.22874590
v 0.03838220 0.55584086 2.28167999
v 0.04906268 0.53779968 2.28558503
v 0.04873097 0.50416985 2.29339492
v 0.04873097 0.50113206 2.29361187
v 0.16893610 0.50113206 0.24631858
v 0.19354763 0.59602940 0.31595737
v 0.01715392 0.59602940 2.24458270
v 0.03765247 0.58895968 2.25109100
v 0.01622519 0.58992586 2.25152490
v 0.01622519 0.57169890 2.26779570
v 0.01622519 0.55544138 2.28146305
v 0.01622519 0.53669415 2.28732051
v 0.01622519 0.50416985 2.29122555
v 0.01622519 0.50113206 2.29100860
v 0.15971507 0.50113206 0.23351891
v 0.15666350 0.51111878 0.23677312
v 0.13497084 0.52480295 0.22722755
v -0.08135855 0.50113206 0.10313601
v -0.01634696 0.59602940 0.21572958
v -0.01263201 0.59602940 2.24089471
v -0.00062476 0.55336972 2.28016146
v -0.00540112 0.53669415 2.28233083
v -0.37404342 0.50113206 2.19056387
v 0.14651373 0.50113206 0.22288872
v 0.14604937 0.50182880 0.22288872
v -0.11386435 0.50113206 0.09011951
v -0.14690086 0.59602940 0.15628717
v -0.04002975 0.59602940 0.20466549
v -0.21138174 0.59602940 2.19685521
v -0.39162308 0.50113206 2.18492334
v -0.11618619 0.50113206 0.08946866
v -0.17390057 0.59602940 0.14782634
v -0.21556106 0.59602940 2.19533660
v -0.23420214 0.59602940 2.18730976
v -0.40137482 0.50113206 2.18058451
v -0.12733105 0.50113206 0.08664836
v -0.17887594 0.59602940 0.14652466
v -0.47162718 0.59602940 1.96364125
v -0.48416509 0.59588075 1.95279407
v -0.42465958 0.55426155 2.11918958
v -0.42472593 0.52251764 2.15151405
v -0.40654922 0.52667026 2.15780540
v -0.42990033 0.50416985 2.15606992
v -0.43082908 0.50113206 2.15628687
v -0.14915636 0.50113206 0.08144173
v -0.17171140 0.50113206 0.07818753
v -0.17887594 0.50113206 0.07731984
v -0.21138174 0.59602940 0.14544002
v -0.48416509 0.59602940 1.95084160
v -0.48416509 0.50113206 1.99097611
v -0.48323633 0.50113206 2.06842484
v -0.48250664 0.50113206 2.07623482
v -0.47673521 0.50113206 2.09879688
v -0.45497622 0.51986067 2.11636927
v -0.43135977 0.53469680 2.13133839
v -0.46141105 0.50113206 2.12352841
v -0.45756344 0.50113206 2.12808419
v -0.43262020 0.50113206 2.15476824
v -0.21284118 0.50113206 0.07840448
v -0.48416509 0.59602940 0.13828088
v -0.48416509 0.50113206 0.14717550
v -0.47401533 0.50113206 2.10400351
v -0.23924387 0.50113206 0.08491279
v -0.48416509 0.55264511 0.14175193
v -0.48416509 0.50230259 0.14695855
v -0.48416509 0.51646984 0.14500613
f 1 2 3
f 1 3 7
f 1 7 14
f 1 14 24
f 1 24 33
f 1 33 40
f 1 40 45
f 1 45 54
f 1 54 68
f 1 68 67
f 1 67 66
f 1 66 72
f 1 72 63
f 1 63 62
f 1 62 61
f 1 61 60
f 1 60 71
f 1 71 73
f 1 73 69
f 1 69 57
f 1 57 56
f 1 56 55
f 1 55 46
f 1 46 41
f 1 41 36
f 1 36 28
f 1 28 34
f 1 34 25
f 1 25 15
f 1 15 8
f 1 8 4
f 1 4 9
f 1 9 16
f 1 16 10
f 1 10 5
f 1 5 2
f 2 5 3
f 3 6 7
f 3 5 6
f 4 8 9
f 5 10 11
f 5 11 12
f 5 12 6
f 6 12 13
f 6 13 7
f 7 13 14
f 8 15 16
f 8 16 9
f 10 17 18
f 10 18 11
f 10 16 29
f 10 29 38
f 10 38 37
f 10 37 42
f 10 42 47
f 10 47 58
f 10 58 70
f 10 70 59
f 10 59 48
f 10 48 44
f 10 44 43
f 10 43 39
f 10 39 30
f 10 30 17
f 11 18 19
f 11 19 20
f 11 20 21
f 11 21 22
f 11 22 12
f 12 22 13
f 13 23 14
f 13 22 23
f 14 23 24
f 15 25 16
f 16 25 26
f 16 26 27
f 16 27 28
f 16 28 29
f 17 30 19
f 17 19 18
f 19 30 20
f 20 31 21
f 20 30 31
f 21 31 22
f 22 31 32
f 22 32 23
f 23 32 33
f 23 33 24
f 25 34 35
f 25 35 26
f 26 35 27
f 27 35 28
f 28 36 37
f 28 37 38
f 28 38 29
f 28 35 34
f 30 39 31
f 31 39 33
f 31 33 32
f 33 39 40
f 36 41 42
f 36 42 37
f 39 43 40
f 40 43 44
f 40 44 45
f 41 46 47
f 41 47 42
f 44 48 49
f 44 49 50
f 44 50 51
f 44 51 52
f 44 52 45
f 45 53 54
f 45 52 51
f 45 51 53
f 46 55 47
f 47 55 56
f 47 56 57
f 47 57 58
f 48 59 49
f 49 59 70
f 49 70 74
f 49 74 76
f 49 76 75
f 49 75 71
f 49 71 60
f 49 60 61
f 49 61 62
f 49 62 63
f 49 63 64
f 49 64 50
f 50 64 65
f 50 65 51
f 51 65 64
f 51 64 66
f 51 66 67
f 51 67 53
f 53 67 68
f 53 68 54
f 57 69 70
f 57 70 58
f 63 72 64
f 64 72 66
f 69 73 70
f 70 73 74
f 71 75 73
f 73 76 74
f 73 75 76

