# https://github.com/mikedh/trimesh
v -0.66042949 0.50113201 1.90892979
v -0.66680829 0.50113201 1.90449373
v -0.68527085 0.44467058 1.89154052
v -0.66042949 0.48103871 1.90822001
v -0.66042949 0.50113201 0.21028177
v -0.66851526 0.50113201 1.90325166
v -0.89563659 0.39571189 1.74248960
v -0.66339424 0.39571189 1.89810582
v -0.67004261 0.43593974 1.89881560
v -0.66042949 0.44694101 1.90484862
v -0.66042949 0.39571189 0.23139733
v -0.77228313 0.50113201 0.12333542
v -0.76096299 0.50113201 1.83404947
v -0.91266167 0.39935491 1.72971384
v -0.91284139 0.39571189 1.72989129
v -0.66042949 0.39571189 1.89970287
v -0.83872144 0.39571189 0.13025560
v -0.78836491 0.43214196 0.13664351
v -0.77996462 0.45381424 0.13273982
v -0.79694482 0.50113201 0.10701082
v -0.77722444 0.50113201 1.81790226
v -0.90983167 0.42103750 1.72439059
v -1.04459508 0.50113201 1.48519937
v -1.07716296 0.39571189 1.44172618
v -0.85040098 0.39571189 0.12652931
v -0.82946777 0.43911838 0.11428589
v -0.83108488 0.40836440 0.12777138
v -0.81006181 0.42038734 0.13185255
v -0.79829245 0.44144038 0.12759398
v -0.82946777 0.46973820 0.10399430
v -0.81859678 0.49072934 0.10221985
v -0.82946777 0.50113201 0.09654172
v -1.02307792 0.50113201 1.51518700
v -1.02864805 0.50113201 1.50808931
v -1.04751494 0.50113201 1.47863401
v -1.07653403 0.40658932 1.43995178
v -1.11929898 0.39571189 1.32887335
v -0.86199067 0.39571189 0.12440008
v -0.86199067 0.40658932 0.11889935
v -0.85085019 0.45763266 0.10097779
v -0.86181095 0.46973820 0.09849357
v -0.86199067 0.50113201 0.09618684
v -1.05766714 0.50113201 1.45024337
v -1.11929898 0.40851916 1.32248545
v -1.11929898 0.39571189 0.32011804
v -0.89446859 0.39571189 0.12049630
v -0.89446859 0.40658932 0.11606023
v -0.86181095 0.44167773 0.10576864
v -0.87254709 0.45421672 0.10026802
v -0.88552928 0.47163706 0.09884846
v -0.88211533 0.45421672 0.10026802
v -0.88359770 0.50113201 0.09884846
v -1.11929898 0.50113201 1.25931624
v -1.11929898 0.44557874 1.29977294
v -1.11929898 0.43760130 1.30527362
v -1.11929898 0.43056299 1.30970967
v -1.11929898 0.41136753 1.32088847
v -1.11929898 0.50113201 0.34034642
v -1.11440256 0.50113201 0.27664495
v -1.10964088 0.50113201 0.25783613
v -1.07689338 0.44793176 0.22554171
v -1.01571084 0.40658932 0.15545234
v -1.01301558 0.39571189 0.15811396
v -0.92699149 0.39571189 0.12014141
v -0.90174590 0.47163706 0.10257474
v -0.95951448 0.40658932 0.12280303
v -0.92699149 0.40658932 0.11694751
v -0.95951448 0.39571189 0.12457748
v -0.92699149 0.47163706 0.10843026
v -0.92699149 0.50113201 0.11055961
v -1.10878744 0.50113201 0.25641657
v -1.08012771 0.47163706 0.22181542
v -1.06701077 0.47163706 0.20549082
v -1.01970874 0.43911838 0.15367789
v -0.99962906 0.40658932 0.13930513
v -0.99077952 0.39571189 0.13486907
v -0.98278361 0.39571189 0.13043300
v -0.95951448 0.47163706 0.11960913
v -0.95650477 0.50113201 0.12067379
v -1.09661381 0.50113201 0.23920470
v -1.08066679 0.50113201 0.21986359
v -1.03790182 0.50113201 0.16893783
v -1.03637447 0.50113201 0.16734089
v -1.02164042 0.50113201 0.15350049
v -0.99891028 0.43911838 0.13735329
v -0.98336756 0.40658932 0.13025560
v -0.98287347 0.47163706 0.13007820
v -0.99657436 0.50113201 0.13664351
v -0.95951448 0.50113201 0.12173837
v -1.01970874 0.50113201 0.15208094
v -0.99913487 0.47163706 0.13770818
v -0.99810171 0.50113201 0.13735329
f 1 2 3
f 1 3 4
f 1 4 10
f 1 10 16
f 1 16 11
f 1 11 5
f 1 5 12
f 1 12 20
f 1 20 32
f 1 32 42
f 1 42 52
f 1 52 70
f 1 70 79
f 1 79 89
f 1 89 88
f 1 88 92
f 1 92 90
f 1 90 84
f 1 84 83
f 1 83 82
f 1 82 81
f 1 81 80
f 1 80 71
f 1 71 60
f 1 60 59
f 1 59 58
f 1 58 53
f 1 53 43
f 1 43 35
f 1 35 23
f 1 23 34
f 1 34 33
f 1 33 21
f 1 21 13
f 1 13 6
f 1 6 2
f 2 6 7
f 2 7 3
f 3 8 9
f 3 9 4
f 3 7 8
f 4 9 10
f 5 11 12
f 6 13 14
f 6 14 15
f 6 15 7
f 7 15 24
f 7 24 37
f 7 37 45
f 7 45 63
f 7 63 76
f 7 76 77
f 7 77 68
f 7 68 64
f 7 64 46
f 7 46 38
f 7 38 25
f 7 25 17
f 7 17 11
f 7 11 16
f 7 16 8
f 8 16 9
f 9 16 10
f 11 17 18
f 11 18 19
f 11 19 12
f 12 19 20
f 13 21 22
f 13 22 14
f 14 22 23
f 14 23 15
f 15 23 24
f 17 25 26
f 17 26 27
f 17 27 28
f 17 28 18
f 18 28 29
f 18 29 19
f 19 29 20
f 20 26 30
f 20 30 31
f 20 31 32
f 20 29 26
f 21 33 22
f 22 33 34
f 22 34 23
f 23 35 24
f 24 35 36
f 24 36 37
f 25 38 39
f 25 39 26
f 26 39 40
f 26 40 30
f 26 29 28
f 26 28 27
f 30 40 32
f 30 32 31
f 32 40 41
f 32 41 42
f 35 43 37
f 35 37 36
f 37 43 44
f 37 44 57
f 37 57 56
f 37 56 55
f 37 55 54
f 37 54 53
f 37 53 58
f 37 58 45
f 38 46 39
f 39 46 47
f 39 47 48
f 39 48 40
f 40 48 49
f 40 49 41
f 41 50 42
f 41 49 51
f 41 51 50
f 42 50 52
f 43 53 54
f 43 54 55
f 43 55 56
f 43 56 57
f 43 57 44
f 45 58 59
f 45 59 60
f 45 60 61
f 45 61 62
f 45 62 63
f 46 64 47
f 47 64 51
f 47 51 49
f 47 49 48
f 50 65 52
f 50 51 66
f 50 66 65
f 51 64 67
f 51 67 68
f 51 68 66
f 52 65 69
f 52 69 70
f 60 71 61
f 61 72 62
f 61 71 72
f 62 72 73
f 62 73 74
f 62 74 75
f 62 75 76
f 62 76 63
f 64 68 67
f 65 66 69
f 66 68 77
f 66 77 69
f 69 78 79
f 69 79 70
f 69 77 78
f 71 80 72
f 72 80 73
f 73 80 81
f 73 81 82
f 73 82 74
f 74 82 83
f 74 83 84
f 74 84 85
f 74 85 75
f 75 85 76
f 76 85 77
f 77 86 78
f 77 85 86
f 78 86 87
f 78 87 88
f 78 88 89
f 78 89 79
f 84 90 85
f 85 90 91
f 85 91 92
f 85 92 87
f 85 87 86
f 87 92 88
f 90 92 91

