# https://github.com/mikedh/trimesh
v 0.82184450 0.53669415 1.84599854
v 0.82184450 0.52748778 1.84498220
v 0.82184450 0.56097822 1.83908747
v 0.73014610 0.59602940 2.00718927
v 0.72036741 0.56921846 2.02588982
v 0.82184450 0.50232115 1.83664827
v 0.82184450 0.57024033 1.83563194
v 0.82184450 0.59593649 1.81550852
v 0.73192961 0.59602940 2.00332717
v 0.71999841 0.59602940 2.02507675
v 0.70849768 0.56921846 2.04215122
v 0.69090833 0.53669415 2.06186806
v 0.68684920 0.50416985 2.05739623
v 0.82184450 0.50113206 1.83624172
v 0.82184450 0.59602940 1.79701121
v 0.71790737 0.59602940 2.02792251
v 0.69219982 0.56921846 2.06105505
v 0.67688603 0.53669415 2.07812947
v 0.65763615 0.50113206 2.09683002
v 0.67350345 0.50113206 2.07630006
v 0.68512719 0.50113206 2.05820925
v 0.82184450 0.50113206 0.34060340
v 0.82184450 0.59602940 0.37129670
v 0.69342987 0.59602940 2.05211128
v 0.68986279 0.59246204 2.05800597
v 0.67411846 0.56921846 2.07731635
v 0.66058819 0.53669415 2.09195163
v 0.62946855 0.50113206 2.12162853
v 0.82184450 0.51898741 0.34161970
v 0.70400805 0.50113206 0.21315500
v 0.77842462 0.59602940 0.26722396
v 0.82184450 0.59375335 0.36926402
v 0.79951954 0.59602940 0.31580479
v 0.68076059 0.59602940 2.06186806
v 0.66058819 0.59602940 2.07690981
v 0.65419205 0.58937773 2.08707314
v 0.65782062 0.56921846 2.08991894
v 0.60702059 0.50113206 2.13728009
v 0.82184450 0.54391248 0.34507524
v 0.68617272 0.50113206 0.19628386
v 0.76378732 0.59602940 0.25177569
v 0.78789578 0.59602940 0.28694090
v 0.82184450 0.59210900 0.36804445
v 0.64170728 0.59602940 2.08869927
v 0.35806351 0.58573607 2.21492810
v 0.48500211 0.50113206 2.19704056
v 0.82184450 0.56571610 0.35157976
v 0.66704578 0.50113206 0.19282834
v 0.68617272 0.50416985 0.19608060
v 0.73611170 0.59602940 0.23490454
v 0.82184450 0.58147197 0.36072681
v 0.82184450 0.56921846 0.35279944
v 0.34158116 0.59602940 2.21594439
v 0.34158116 0.59203469 2.21818036
v 0.34158116 0.56921846 2.22793723
v 0.47448539 0.50113206 2.20110593
v 0.63426562 0.50113206 0.18937280
v 0.66679982 0.50416985 0.19303151
v 0.68420465 0.52203455 0.19730017
v 0.73279066 0.59602940 0.23327841
v 0.32423782 0.59602940 2.22082287
v 0.30830898 0.56725828 2.24013316
v 0.29699273 0.55511625 2.24826392
v 0.30123633 0.53669415 2.25090634
v 0.27651283 0.53669415 2.25822397
v 0.27835787 0.50276706 2.25720758
v 0.27761985 0.50113206 2.25700440
v 0.63426562 0.59602940 0.21071577
v 0.60566759 0.50113206 0.19323479
v 0.40683400 0.59602940 0.23226212
v 0.42719092 0.59602940 0.22961959
v 0.43690811 0.59602940 0.22860330
v 0.66679982 0.59602940 0.21295173
v 0.30898549 0.59602940 2.22488815
v 0.27651283 0.57571217 2.24257241
v 0.27651283 0.55944539 2.25009332
v 0.24397866 0.56396962 2.25171945
v 0.24397866 0.53669415 2.26127295
v 0.24397866 0.50416985 2.26594807
v 0.24391717 0.50113206 2.26493177
v 0.60456056 0.50113206 0.19343806
v 0.38826063 0.55052697 0.23002614
v 0.38826063 0.55719721 0.23002614
v 0.38063446 0.59602940 0.23734379
v 0.30424991 0.59602940 2.22590454
v 0.24397866 0.58023640 2.24480837
v 0.27817337 0.59602940 2.23037638
v 0.26654964 0.59602940 2.23220579
v 0.24397866 0.59602940 2.23566133
v 0.21107549 0.59602940 2.23464503
v 0.21882464 0.56114544 2.25009332
v 0.21144451 0.50416985 2.25903699
v 0.20935347 0.53722368 2.25314230
v 0.24096511 0.50113206 2.26513505
v 0.20793893 0.50113206 2.25863053
v 0.34188867 0.50113206 0.25136922
v 0.19354763 0.50113206 0.29242913
v 0.37442282 0.59602940 0.23856336
v 0.19354763 0.59602940 2.22875025
v 0.20935347 0.57088138 2.24480837
v 0.19354763 0.50113206 2.25334558
v 0.19711472 0.54840884 2.24663779
v 0.19354763 0.56770420 0.30828388
v 0.19354763 0.59602940 0.31600807
v 0.19354763 0.57001737 2.23932014
v 0.19354763 0.54597488 2.24562139
f 1 2 6
f 1 6 14
f 1 14 22
f 1 22 29
f 1 29 39
f 1 39 47
f 1 47 52
f 1 52 51
f 1 51 43
f 1 43 32
f 1 32 23
f 1 23 15
f 1 15 8
f 1 8 7
f 1 7 3
f 1 3 4
f 1 4 5
f 1 5 2
f 2 5 6
f 3 7 4
f 4 7 8
f 4 8 9
f 4 9 15
f 4 15 23
f 4 23 33
f 4 33 42
f 4 42 31
f 4 31 41
f 4 41 50
f 4 50 60
f 4 60 73
f 4 73 68
f 4 68 72
f 4 72 71
f 4 71 70
f 4 70 84
f 4 84 98
f 4 98 104
f 4 104 99
f 4 99 90
f 4 90 89
f 4 89 88
f 4 88 87
f 4 87 85
f 4 85 74
f 4 74 61
f 4 61 53
f 4 53 44
f 4 44 35
f 4 35 34
f 4 34 24
f 4 24 16
f 4 16 10
f 4 10 5
f 5 10 11
f 5 11 12
f 5 12 13
f 5 13 14
f 5 14 6
f 8 15 9
f 10 16 11
f 11 16 17
f 11 17 12
f 12 17 18
f 12 18 19
f 12 19 20
f 12 20 13
f 13 20 21
f 13 21 14
f 14 21 20
f 14 20 19
f 14 19 28
f 14 28 38
f 14 38 46
f 14 46 56
f 14 56 67
f 14 67 80
f 14 80 94
f 14 94 95
f 14 95 101
f 14 101 97
f 14 97 96
f 14 96 81
f 14 81 69
f 14 69 57
f 14 57 48
f 14 48 40
f 14 40 30
f 14 30 22
f 16 24 25
f 16 25 17
f 17 25 26
f 17 26 18
f 18 26 27
f 18 27 28
f 18 28 19
f 22 30 31
f 22 31 29
f 23 32 33
f 24 34 25
f 25 34 35
f 25 35 36
f 25 36 26
f 26 36 37
f 26 37 28
f 26 28 27
f 28 37 38
f 29 31 39
f 30 40 41
f 30 41 31
f 31 42 39
f 32 43 42
f 32 42 33
f 35 44 36
f 36 44 45
f 36 45 46
f 36 46 38
f 36 38 37
f 39 42 47
f 40 48 49
f 40 49 41
f 41 49 50
f 42 43 51
f 42 51 52
f 42 52 47
f 44 53 45
f 45 53 54
f 45 54 55
f 45 55 46
f 46 55 56
f 48 57 58
f 48 58 49
f 49 58 59
f 49 59 50
f 50 59 60
f 53 61 54
f 54 61 62
f 54 62 55
f 55 62 63
f 55 63 56
f 56 63 64
f 56 64 65
f 56 65 66
f 56 66 67
f 57 68 59
f 57 59 58
f 57 69 70
f 57 70 71
f 57 71 72
f 57 72 68
f 59 68 73
f 59 73 60
f 61 74 62
f 62 74 75
f 62 75 63
f 63 75 76
f 63 76 65
f 63 65 64
f 65 76 77
f 65 77 78
f 65 78 79
f 65 79 66
f 66 79 67
f 67 79 80
f 69 81 82
f 69 82 83
f 69 83 70
f 70 83 84
f 74 85 75
f 75 86 76
f 75 85 87
f 75 87 88
f 75 88 89
f 75 89 86
f 76 86 77
f 77 86 90
f 77 90 91
f 77 91 78
f 78 92 79
f 78 91 93
f 78 93 92
f 79 94 80
f 79 92 95
f 79 95 94
f 81 96 82
f 82 96 97
f 82 97 83
f 83 97 98
f 83 98 84
f 86 89 90
f 90 99 100
f 90 100 91
f 91 100 93
f 92 93 95
f 93 101 95
f 93 100 102
f 93 102 101
f 97 103 98
f 97 101 106
f 97 106 105
f 97 105 99
f 97 99 104
f 97 104 103
f 98 103 104
f 99 105 100
f 100 105 102
f 101 102 106
f 102 105 106

