# https://github.com/mikedh/trimesh
v 1.51975807 -0.33139128 0.89665367
v 1.49643282 -0.39008003 0.71802461
v 1.51124024 -0.33139128 0.86434929
v 1.33382917 -0.33139128 0.89665367
v 1.54698245 -0.43915148 0.89665367
v 1.55236694 -0.47165335 0.83241059
v 1.54749302 -0.47165335 0.79990306
v 1.53607413 -0.43810863 0.80132528
v 1.49972851 -0.40659165 0.71249832
v 1.33443260 -0.35624566 0.52224781
v 1.33382917 -0.35450759 0.52314177
v 1.33512891 -0.33139128 0.55057006
v 1.46637688 -0.35479726 0.71432686
v 1.46498436 -0.33139128 0.74752522
v 1.47366456 -0.33139128 0.76666407
v 1.50838553 -0.33139128 0.85573479
v 1.33382917 -0.33139128 0.54918844
v 1.33382917 -0.88739912 0.89665367
v 1.57000594 -0.56846370 0.89665367
v 1.57007554 -0.56927478 0.89665367
v 1.57091104 -0.60467344 0.89665367
v 1.52911129 -0.68224916 0.71725254
v 1.52565313 -0.69974575 0.70477778
v 1.51140271 -0.69928224 0.66983215
v 1.37813553 -0.56927478 0.51103268
v 1.49880012 -0.69928224 0.65044951
v 1.33382917 -0.35589804 0.52188210
v 1.35931284 -0.56927478 0.49473827
v 1.33382917 -0.91665657 0.79543325
v 1.33823887 -0.91509229 0.79319836
v 1.33937614 -0.88456030 0.89665367
v 1.56738329 -0.62790558 0.89665367
v 1.53171078 -0.69574818 0.73484727
v 1.52911129 -0.68920144 0.71725254
v 1.51007981 -0.73184202 0.66983215
v 1.52853113 -0.71202810 0.73484727
v 1.51864396 -0.73184202 0.70229907
v 1.49810383 -0.78328886 0.65101838
v 1.49914823 -0.76434389 0.65032761
v 1.49972851 -0.73184202 0.65016508
v 1.39586738 -0.73184202 0.52602683
v 1.37996900 -0.69928224 0.50936666
v 1.36339769 -0.66678037 0.49270657
v 1.33951543 -0.54812830 0.48884630
v 1.33382917 -0.54667990 0.48770854
v 1.34306646 -0.56927478 0.48709901
v 1.33382917 -0.91833670 0.78775336
v 1.36697189 -0.91138442 0.68803639
v 1.42021378 -0.86828038 0.66983215
v 1.43759742 -0.85200046 0.66983215
v 1.33997958 -0.88421268 0.89665367
v 1.33981711 -0.88432852 0.89665367
v 1.56062943 -0.64464901 0.89665367
v 1.49810383 -0.78328886 0.66068943
v 1.46816403 -0.81915098 0.64711752
v 1.43796879 -0.82030968 0.61339088
v 1.42536620 -0.80762179 0.59169210
v 1.43376800 -0.78589596 0.58600326
v 1.40204096 -0.78473721 0.55243921
v 1.38992578 -0.76434389 0.53094360
v 1.40554554 -0.76434389 0.54719739
v 1.33547702 -0.78213012 0.48933390
v 1.37959774 -0.73184202 0.51233301
v 1.36235330 -0.69928224 0.49311293
v 1.34608365 -0.69928224 0.48539236
v 1.34712805 -0.66678037 0.48514856
v 1.34399473 -0.60177665 0.48624567
v 1.33382917 -0.56927478 0.48397014
v 1.33382917 -0.58937845 0.48323875
v 1.33382917 -0.91972717 0.76735485
v 1.36794670 -0.91202169 0.66983215
v 1.40394413 -0.88218493 0.66983215
v 1.40341030 -0.88177935 0.64914922
v 1.43752783 -0.85159487 0.64638607
v 1.34037411 -0.88380709 0.89665367
v 1.45384390 -0.83514125 0.66983215
v 1.54312966 -0.66875020 0.89665367
v 1.46814076 -0.81886133 0.66983215
v 1.44859859 -0.83056423 0.63590239
v 1.42596965 -0.84197759 0.62468728
v 1.33382917 -0.78213012 0.48933390
v 1.33382917 -0.78050792 0.48896820
v 1.33870311 -0.76434389 0.48742408
v 1.36771463 -0.91173204 0.65191234
v 1.34986674 -0.91433918 0.64898666
v 1.33382917 -0.91457086 0.64886476
v 1.35896474 -0.73184202 0.49607921
v 1.34271827 -0.73184202 0.48620505
v 1.33382917 -0.68543565 0.48201970
v 1.33382917 -0.66678037 0.48169462
v 1.33382917 -0.65223855 0.48161340
v 1.33382917 -0.92320326 0.70128322
v 1.34986674 -0.91880016 0.66983215
v 1.54259591 -0.66938747 0.89665367
v 1.33382917 -0.76434389 0.48701777
v 1.33382917 -0.92105968 0.66983215
f 1 2 3
f 1 3 16
f 1 16 15
f 1 15 14
f 1 14 12
f 1 12 17
f 1 17 4
f 1 4 18
f 1 18 31
f 1 31 52
f 1 52 51
f 1 51 75
f 1 75 94
f 1 94 77
f 1 77 53
f 1 53 32
f 1 32 21
f 1 21 20
f 1 20 19
f 1 19 5
f 1 5 6
f 1 6 7
f 1 7 8
f 1 8 2
f 2 9 10
f 2 10 11
f 2 11 12
f 2 12 13
f 2 13 14
f 2 14 15
f 2 15 16
f 2 16 3
f 2 8 7
f 2 7 9
f 4 17 11
f 4 11 27
f 4 27 45
f 4 45 68
f 4 68 69
f 4 69 91
f 4 91 90
f 4 90 89
f 4 89 95
f 4 95 82
f 4 82 81
f 4 81 86
f 4 86 96
f 4 96 92
f 4 92 70
f 4 70 47
f 4 47 29
f 4 29 18
f 5 19 6
f 6 19 20
f 6 20 7
f 7 20 21
f 7 21 22
f 7 22 23
f 7 23 24
f 7 24 9
f 9 25 10
f 9 24 26
f 9 26 25
f 10 27 11
f 10 25 28
f 10 28 27
f 11 17 12
f 12 14 13
f 18 29 30
f 18 30 31
f 21 32 33
f 21 33 34
f 21 34 22
f 22 34 23
f 23 35 24
f 23 34 33
f 23 33 36
f 23 36 37
f 23 37 38
f 23 38 35
f 24 35 39
f 24 39 40
f 24 40 26
f 25 26 40
f 25 40 41
f 25 41 42
f 25 42 43
f 25 43 28
f 27 28 44
f 27 44 45
f 28 46 44
f 28 43 46
f 29 47 30
f 30 47 48
f 30 48 49
f 30 49 50
f 30 50 51
f 30 51 52
f 30 52 31
f 32 53 38
f 32 38 36
f 32 36 33
f 35 38 39
f 36 38 37
f 38 54 55
f 38 55 56
f 38 56 57
f 38 57 58
f 38 58 59
f 38 59 60
f 38 60 61
f 38 61 41
f 38 41 39
f 38 53 54
f 39 41 40
f 41 61 60
f 41 60 62
f 41 62 63
f 41 63 64
f 41 64 42
f 42 64 43
f 43 64 65
f 43 65 66
f 43 66 67
f 43 67 46
f 44 46 68
f 44 68 45
f 46 67 69
f 46 69 68
f 47 70 48
f 48 70 71
f 48 71 72
f 48 72 49
f 49 72 73
f 49 73 74
f 49 74 50
f 50 75 51
f 50 74 76
f 50 76 75
f 53 77 54
f 54 78 55
f 54 77 78
f 55 78 76
f 55 76 74
f 55 74 79
f 55 79 56
f 56 79 74
f 56 74 80
f 56 80 62
f 56 62 57
f 57 62 59
f 57 59 58
f 59 62 60
f 62 81 82
f 62 82 83
f 62 83 63
f 62 80 84
f 62 84 85
f 62 85 86
f 62 86 81
f 63 83 87
f 63 87 64
f 64 87 83
f 64 83 88
f 64 88 65
f 65 88 89
f 65 89 90
f 65 90 66
f 66 90 91
f 66 91 69
f 66 69 67
f 70 92 71
f 71 92 93
f 71 93 84
f 71 84 72
f 72 84 73
f 73 84 80
f 73 80 74
f 75 76 94
f 76 78 94
f 77 94 78
f 82 95 83
f 83 95 89
f 83 89 88
f 84 93 85
f 85 93 96
f 85 96 86
f 92 96 93

