# https://github.com/mikedh/trimesh
v 0.50515988 0.59603871 1.88647921
v 0.50515988 0.59603871 2.05857519
v 0.50515988 0.65566273 1.88647921
v 0.74603987 0.59603871 1.88647921
v 0.50515988 0.59737877 2.05693801
v 0.50539660 0.59603871 2.05882083
v 0.55142283 0.62090634 2.08585598
v 0.54545646 0.63276197 2.06629075
v 0.55220415 0.65131818 2.05399090
v 0.50515988 0.65043197 1.92667381
v 0.57573811 0.69109992 1.97090019
v 0.57516991 0.69241842 1.88647921
v 0.69961115 0.62860116 1.88647921
v 0.68744168 0.68644196 1.94977960
v 0.71810217 0.65414968 1.95053682
v 0.73192897 0.63427502 1.97090019
v 0.74701059 0.59603871 1.95669702
v 0.50515988 0.61147153 2.03956260
v 0.50840345 0.59603871 2.06107201
v 0.52230128 0.59603871 2.07144813
v 0.54271007 0.59603871 2.08530345
v 0.54668762 0.59603871 2.08788208
v 0.56354499 0.59603871 2.09232319
v 0.56922724 0.62735832 2.08806626
v 0.56922724 0.64362336 2.07744460
v 0.56922724 0.65737029 2.06119483
v 0.58499547 0.68346995 2.02108210
v 0.58104157 0.68653924 2.00339973
v 0.50515988 0.64193741 1.96842382
v 0.50515988 0.61950137 2.02378356
v 0.50515988 0.61223884 2.03829374
v 0.50515988 0.64890811 1.93835975
v 0.60175809 0.69707642 2.00339973
v 0.60175809 0.70282589 1.97090019
v 0.60175809 0.70137769 1.93835975
v 0.60126089 0.69283990 1.88647921
v 0.63369708 0.67207904 1.88647921
v 0.66520988 0.68998678 1.93870766
v 0.66679618 0.69975660 1.97090019
v 0.69028284 0.68809553 1.97090019
v 0.70654826 0.67181968 1.97090019
v 0.71848096 0.65555465 1.97090019
v 0.72129840 0.63129220 2.00120991
v 0.73221305 0.60175576 2.00339973
v 0.74447728 0.60220967 1.96916060
v 0.74701059 0.59603871 1.96214085
v 0.71691837 0.65360930 1.98893048
v 0.56922724 0.60175576 2.09232319
v 0.56922724 0.59603871 2.09318273
v 0.60175809 0.60175576 2.09475855
v 0.60175809 0.62740155 2.08831190
v 0.60175809 0.64366659 2.08049397
v 0.60175809 0.66362772 2.06424420
v 0.60175809 0.67988194 2.04416738
v 0.60175809 0.68818195 2.02789716
v 0.63426528 0.70262058 2.00339973
v 0.63426528 0.70643556 1.97090019
v 0.63426528 0.69942159 1.93835975
v 0.66554136 0.69227795 2.00256064
v 0.68831770 0.68639878 1.99114074
v 0.71601864 0.61845309 2.02001786
v 0.71997257 0.60175576 2.02499101
v 0.73015327 0.59603871 2.00737006
v 0.73195263 0.59603871 2.00339973
v 0.59605219 0.59603871 2.09518837
v 0.60175809 0.59603871 2.09555675
v 0.63293946 0.59603871 2.09105427
v 0.63270269 0.60083712 2.08992863
v 0.62086466 0.62094957 2.08616299
v 0.62472385 0.65965060 2.05806355
v 0.63426528 0.69027856 2.02885902
v 0.65386905 0.68626907 2.02239187
v 0.69347907 0.59603871 2.05218995
v 0.68076505 0.59603871 2.06199302
v 0.71796010 0.59603871 2.02801994
v 0.72004358 0.59603871 2.02517520
v 0.64169958 0.59603871 2.08878263
v 0.66059304 0.59603871 2.07709669
f 1 2 5
f 1 5 18
f 1 18 31
f 1 31 30
f 1 30 29
f 1 29 32
f 1 32 10
f 1 10 3
f 1 3 12
f 1 12 36
f 1 36 37
f 1 37 13
f 1 13 4
f 1 4 17
f 1 17 46
f 1 46 64
f 1 64 63
f 1 63 76
f 1 76 75
f 1 75 73
f 1 73 74
f 1 74 78
f 1 78 77
f 1 77 67
f 1 67 66
f 1 66 65
f 1 65 49
f 1 49 23
f 1 23 22
f 1 22 21
f 1 21 20
f 1 20 19
f 1 19 6
f 1 6 2
f 2 6 7
f 2 7 8
f 2 8 9
f 2 9 5
f 3 10 11
f 3 11 12
f 4 13 14
f 4 14 15
f 4 15 16
f 4 16 17
f 5 9 18
f 6 19 7
f 7 19 20
f 7 20 21
f 7 21 22
f 7 22 23
f 7 23 24
f 7 24 25
f 7 25 9
f 7 9 8
f 9 25 26
f 9 26 27
f 9 27 28
f 9 28 29
f 9 29 30
f 9 30 31
f 9 31 18
f 10 32 11
f 11 28 33
f 11 33 34
f 11 34 12
f 11 32 29
f 11 29 28
f 12 34 35
f 12 35 36
f 13 37 14
f 14 38 39
f 14 39 40
f 14 40 41
f 14 41 15
f 14 37 36
f 14 36 38
f 15 41 42
f 15 42 16
f 16 43 44
f 16 44 45
f 16 45 46
f 16 46 17
f 16 42 47
f 16 47 43
f 23 48 24
f 23 49 48
f 24 48 50
f 24 50 51
f 24 51 52
f 24 52 25
f 25 52 53
f 25 53 26
f 26 53 54
f 26 54 55
f 26 55 27
f 27 55 33
f 27 33 28
f 33 55 56
f 33 56 34
f 34 56 57
f 34 57 35
f 35 57 36
f 36 57 58
f 36 58 38
f 38 58 39
f 39 58 57
f 39 57 56
f 39 56 59
f 39 59 60
f 39 60 40
f 40 60 41
f 41 47 42
f 41 60 47
f 43 47 61
f 43 61 44
f 44 61 62
f 44 62 63
f 44 63 64
f 44 64 46
f 44 46 45
f 47 60 61
f 48 49 50
f 49 65 50
f 50 65 66
f 50 66 67
f 50 67 68
f 50 68 51
f 51 68 69
f 51 69 52
f 52 69 70
f 52 70 53
f 53 70 71
f 53 71 54
f 54 71 55
f 55 71 56
f 56 71 59
f 59 71 72
f 59 72 60
f 60 72 61
f 61 73 62
f 61 72 74
f 61 74 73
f 62 73 75
f 62 75 76
f 62 76 63
f 67 77 68
f 68 77 69
f 69 77 78
f 69 78 72
f 69 72 70
f 70 72 71
f 72 78 74

