# https://github.com/mikedh/trimesh
v 0.28143581 -1.54792962 0.76711178
v 0.28143581 -1.54691682 0.73546946
v 0.30982647 -1.53555135 0.73785763
v 0.31079658 -1.53577635 0.76472372
v 0.30113692 -1.53420101 0.79178884
v 0.28143581 -1.54680427 0.77228603
v 0.28143581 -1.53915230 0.67417491
v 0.32542019 -1.52891219 0.75079314
v 0.32542019 -1.52891219 0.75198717
v 0.36675228 -1.37069624 1.37607734
v 0.34152990 -1.38206170 1.35279336
v 0.28143581 -1.53881476 0.79994818
v 0.28143581 -1.53690170 0.66840368
v 0.38686621 -1.35111617 0.38999095
v 0.38686621 -1.40906865 0.97348347
v 0.38686621 -1.41064408 0.99418032
v 0.38686621 -1.35798053 0.41944431
v 0.38686621 -1.36506978 0.45486774
v 0.38686621 -1.36563240 0.46043996
v 0.38686621 -1.41019390 1.00811091
v 0.38686621 -1.40940628 1.02781273
v 0.38686621 -1.36079366 1.35279336
v 0.38588580 -1.36191901 1.35279336
v 0.36962128 -1.37362201 1.35279336
v 0.38686621 -1.36034358 1.35538045
v 0.38686621 -1.35044100 1.38582873
v 0.38686621 -1.34402692 1.39757022
v 0.38686621 -1.23509877 1.56175210
v 0.32495579 -1.26840735 1.56414022
v 0.34152990 -1.37283429 1.37965947
v 0.28143581 -1.38419976 1.32612622
v 0.28143581 -1.39612785 1.28771762
v 0.28143581 -1.52351082 0.63914947
v 0.38686621 -1.33727511 0.35456757
v 0.38686621 -1.23442350 1.56274712
v 0.30327319 -1.26942015 1.56553326
v 0.30901118 -1.11075412 1.79916904
v 0.28143581 -1.11300472 1.80374625
v 0.30901118 -1.36990852 1.37548029
v 0.28506848 -1.26942015 1.56553326
v 0.29152888 -1.36664521 1.37030610
v 0.28143581 -1.35843061 1.38045550
v 0.28143581 -1.29901524 0.33048747
v 0.29092000 -1.30182847 0.32770148
v 0.34152990 -1.33873800 0.35397044
v 0.37405894 -1.33963826 0.35158247
v 0.37405894 -1.32388413 0.33526378
v 0.38686621 -1.33131111 0.34859728
v 0.38686621 -0.88445812 1.99360015
v 0.36446121 -0.91787925 1.99519226
v 0.32555435 -1.10614037 1.79240274
v 0.34140605 -0.92733174 2.00315259
v 0.32881551 -0.94511129 1.98942097
v 0.28143581 -1.10130163 1.82006494
v 0.28143581 -1.26311842 1.57130450
v 0.28143581 -1.27054541 1.55976202
v 0.28143581 -1.28855004 0.32332319
v 0.34152990 -1.32107090 0.33765184
v 0.28143581 -1.07575756 0.19595786
v 0.37405894 -1.30756748 0.32571135
v 0.38686621 -1.30621713 0.32610938
v 0.38686621 -1.32095846 0.33924385
v 0.38686621 -0.86206483 2.00912289
v 0.38588580 -0.86206483 2.01131195
v 0.37521479 -0.89424816 2.00335160
v 0.36429610 -0.88592101 2.02464554
v 0.35400693 -0.90763913 2.01688421
v 0.35048778 -0.93959737 1.98066468
v 0.33233466 -0.91517856 2.02305342
v 0.30901118 -0.93408346 2.00852585
v 0.28143581 -1.08464734 1.83916973
v 0.28143581 -1.06011598 0.18799753
v 0.30901118 -1.07699536 0.19496290
v 0.38686621 -1.29755235 0.32252723
v 0.32780413 -1.07553247 0.19615689
v 0.38686621 -0.72466684 2.07957180
v 0.34251031 -0.89593613 2.03041672
v 0.38686621 -0.71420163 2.08414901
v 0.28143581 -0.79691051 2.10066671
v 0.28143581 -0.81874113 2.08892523
v 0.30901118 -0.89458579 2.04016817
v 0.30901118 -0.91776670 2.02524247
v 0.28143581 -0.94544892 1.99419719
v 0.28143581 -1.05707776 0.18660454
v 0.30901118 -1.05707776 0.18501243
v 0.38686621 -0.79691051 0.12371783
v 0.38686621 -0.70024803 2.08932316
v 0.28143581 -0.79240935 2.10205971
v 0.28143581 -0.87691869 2.05151162
v 0.28376814 -0.91574119 2.02345145
v 0.28143581 -0.91844187 2.02006832
v 0.28143581 -1.02950809 0.17944016
v 0.28143581 -1.02455680 0.17824618
v 0.38686621 -0.76438959 0.11953865
v 0.38686621 -0.66581415 2.09111428
v 0.36283063 -0.42871536 2.11877643
v 0.28143581 -0.39844505 2.15260789
v 0.28143581 -0.75853809 2.10942300
v 0.28143581 -0.76562739 2.10842803
v 0.28143581 -0.91124008 2.02623753
v 0.28143581 -0.99698722 0.17745012
v 0.37869266 -0.76438959 0.12351883
v 0.28143581 -0.56926421 0.17705210
v 0.37405894 -0.39844505 0.21745080
v 0.38686621 -0.39844505 0.21764982
v 0.38686621 -0.43929311 2.10245773
v 0.37383189 -0.43940565 2.11101511
v 0.36283063 -0.41566202 2.11877643
v 0.38686621 -0.42342649 2.10305477
v 0.38686621 -0.40609702 2.10325380
v 0.28143581 -0.39844505 0.29984022
v 0.37383189 -0.40553440 2.11141313
v 0.38127271 -0.39844505 2.10404984
v 0.28143581 -0.51389988 0.19476388
v 0.36580283 -0.39844505 0.21924183
v 0.38686621 -0.39844505 2.10046770
v 0.32554403 -0.39844505 0.23098340
v 0.28143581 -0.47687781 0.21725180
v 0.28143581 -0.49623283 0.20252521
v 0.33114785 -0.39844505 0.22799821
v 0.34218007 -0.39844505 0.22461508
f 1 2 3
f 1 3 4
f 1 4 5
f 1 5 6
f 1 6 12
f 1 12 32
f 1 32 31
f 1 31 42
f 1 42 56
f 1 56 55
f 1 55 38
f 1 38 54
f 1 54 71
f 1 71 83
f 1 83 91
f 1 91 100
f 1 100 89
f 1 89 80
f 1 80 79
f 1 79 88
f 1 88 99
f 1 99 98
f 1 98 97
f 1 97 111
f 1 111 118
f 1 118 119
f 1 119 114
f 1 114 103
f 1 103 101
f 1 101 93
f 1 93 92
f 1 92 84
f 1 84 72
f 1 72 59
f 1 59 57
f 1 57 43
f 1 43 33
f 1 33 13
f 1 13 7
f 1 7 2
f 2 7 3
f 3 8 4
f 3 7 8
f 4 8 9
f 4 9 10
f 4 10 5
f 5 10 6
f 6 10 11
f 6 11 12
f 7 13 14
f 7 14 8
f 8 15 16
f 8 16 9
f 8 14 17
f 8 17 18
f 8 18 19
f 8 19 15
f 9 16 20
f 9 20 21
f 9 21 22
f 9 22 23
f 9 23 24
f 9 24 10
f 10 24 23
f 10 23 25
f 10 25 26
f 10 26 27
f 10 27 28
f 10 28 29
f 10 29 30
f 10 30 11
f 11 30 31
f 11 31 32
f 11 32 12
f 13 33 34
f 13 34 14
f 14 34 48
f 14 48 62
f 14 62 61
f 14 61 74
f 14 74 86
f 14 86 94
f 14 94 105
f 14 105 116
f 14 116 110
f 14 110 109
f 14 109 106
f 14 106 95
f 14 95 87
f 14 87 78
f 14 78 76
f 14 76 63
f 14 63 49
f 14 49 35
f 14 35 28
f 14 28 27
f 14 27 26
f 14 26 25
f 14 25 22
f 14 22 21
f 14 21 20
f 14 20 16
f 14 16 15
f 14 15 19
f 14 19 18
f 14 18 17
f 22 25 23
f 28 35 29
f 29 36 30
f 29 35 37
f 29 37 38
f 29 38 36
f 30 39 31
f 30 36 40
f 30 40 39
f 31 39 41
f 31 41 42
f 33 43 44
f 33 44 45
f 33 45 46
f 33 46 34
f 34 46 47
f 34 47 48
f 35 49 50
f 35 50 51
f 35 51 37
f 36 38 40
f 37 51 52
f 37 52 53
f 37 53 54
f 37 54 38
f 38 55 40
f 39 42 41
f 39 40 42
f 40 55 56
f 40 56 42
f 43 57 44
f 44 47 58
f 44 58 45
f 44 57 59
f 44 59 47
f 45 58 47
f 45 47 46
f 47 59 60
f 47 60 61
f 47 61 62
f 47 62 48
f 49 63 64
f 49 64 65
f 49 65 50
f 50 65 66
f 50 66 67
f 50 67 68
f 50 68 51
f 51 68 52
f 52 68 67
f 52 67 69
f 52 69 53
f 53 69 70
f 53 70 54
f 54 70 71
f 59 72 73
f 59 73 60
f 60 73 61
f 61 73 75
f 61 75 74
f 63 76 64
f 64 66 65
f 64 76 66
f 66 77 67
f 66 76 78
f 66 78 79
f 66 79 77
f 67 77 69
f 69 77 79
f 69 79 80
f 69 80 81
f 69 81 82
f 69 82 70
f 70 82 83
f 70 83 71
f 72 84 85
f 72 85 73
f 73 85 75
f 74 75 86
f 75 85 86
f 78 87 79
f 79 87 88
f 80 89 81
f 81 89 82
f 82 90 83
f 82 89 90
f 83 90 91
f 84 92 85
f 85 92 93
f 85 93 86
f 86 93 94
f 87 95 96
f 87 96 97
f 87 97 98
f 87 98 99
f 87 99 88
f 89 100 90
f 90 100 91
f 93 101 94
f 94 101 102
f 94 102 103
f 94 103 104
f 94 104 105
f 95 106 107
f 95 107 96
f 96 108 97
f 96 107 106
f 96 106 109
f 96 109 110
f 96 110 108
f 97 108 112
f 97 112 113
f 97 113 116
f 97 116 105
f 97 105 104
f 97 104 115
f 97 115 121
f 97 121 120
f 97 120 117
f 97 117 111
f 101 103 102
f 103 114 104
f 104 114 115
f 108 110 112
f 110 116 112
f 111 117 118
f 112 116 113
f 114 119 120
f 114 120 121
f 114 121 115
f 117 120 119
f 117 119 118

