# https://github.com/mikedh/trimesh
v 0.37406095 -0.39830592 0.21746234
v 0.40660043 -0.39830592 0.21767503
v 0.37175016 -0.39830592 0.21788770
v 0.37406095 -0.37405566 0.21405934
v 0.45520530 -0.13059484 0.16577893
v 0.47163222 -0.13693025 0.16429016
v 0.49381253 -0.13871375 0.16386478
v 0.53232547 -0.34152680 0.21576079
v 0.53232547 -0.36492522 0.22256688
v 0.53232547 -0.36870518 0.22384298
v 0.53232547 -0.39830592 0.23575352
v 0.37175016 -0.37405566 0.21469738
v 0.37175016 -0.39830592 2.10805298
v 0.37175016 -0.27646903 0.21065624
v 0.45520530 -0.12987612 0.16577893
v 0.47163222 -0.12641560 0.16429016
v 0.49381253 -0.12641560 0.16386478
v 0.50445465 -0.14829672 0.16811852
v 0.53232547 -0.17366499 0.18598442
v 0.53232547 -0.39830592 1.96555151
v 0.38129195 -0.39830592 2.10401195
v 0.46278214 -0.13496042 2.31712605
v 0.37175016 -0.23749827 2.25884932
v 0.37175016 -0.27415314 0.21065624
v 0.45154264 -0.12641560 0.16960738
v 0.46947865 -0.12641560 0.16450283
v 0.37175016 -0.12641560 0.22107803
v 0.49458281 -0.12641560 0.16429016
v 0.53232547 -0.14731181 0.18321947
v 0.53232547 -0.20339885 2.12528075
v 0.49183186 -0.12641560 2.28905114
v 0.48436509 -0.12641560 2.30691705
v 0.48417645 -0.12641560 2.30712974
v 0.39877209 -0.39830592 2.09273945
v 0.46647625 -0.12641560 2.32159255
v 0.43912419 -0.12641560 2.33307774
v 0.37175016 -0.14938812 2.32265596
v 0.37175016 -0.12641560 2.33669342
v 0.51737616 -0.12641560 0.17768957
v 0.53232547 -0.14323905 0.18364483
v 0.53232547 -0.14704562 2.16611703
v 0.53232547 -0.12641560 2.18100522
v 0.40147586 -0.12641560 2.33648074
v 0.53232547 -0.12641560 0.18704783
v 0.53232547 -0.14092317 0.18407019
f 1 2 11
f 1 11 20
f 1 20 34
f 1 34 21
f 1 21 13
f 1 13 3
f 1 3 4
f 1 4 5
f 1 5 6
f 1 6 7
f 1 7 2
f 2 8 9
f 2 9 10
f 2 10 11
f 2 7 8
f 3 12 4
f 3 13 23
f 3 23 37
f 3 37 38
f 3 38 27
f 3 27 24
f 3 24 14
f 3 14 12
f 4 12 5
f 5 14 24
f 5 24 15
f 5 15 16
f 5 16 6
f 5 12 14
f 6 16 17
f 6 17 7
f 7 17 18
f 7 18 8
f 8 18 19
f 8 19 29
f 8 29 40
f 8 40 45
f 8 45 44
f 8 44 42
f 8 42 41
f 8 41 30
f 8 30 20
f 8 20 11
f 8 11 10
f 8 10 9
f 13 21 22
f 13 22 23
f 15 25 26
f 15 26 16
f 15 24 27
f 15 27 25
f 16 26 25
f 16 25 27
f 16 27 38
f 16 38 43
f 16 43 36
f 16 36 35
f 16 35 33
f 16 33 32
f 16 32 31
f 16 31 42
f 16 42 44
f 16 44 39
f 16 39 28
f 16 28 17
f 17 28 29
f 17 29 18
f 18 29 19
f 20 30 31
f 20 31 32
f 20 32 33
f 20 33 34
f 21 34 22
f 22 33 35
f 22 35 36
f 22 36 23
f 22 34 33
f 23 36 37
f 28 39 40
f 28 40 29
f 30 41 31
f 31 41 42
f 36 43 37
f 37 43 38
f 39 44 45
f 39 45 40

