# https://github.com/mikedh/trimesh
v 1.33377925 -0.69385591 1.34085835
v 1.28554787 -0.69385591 1.51395116
v 1.33377925 -0.73215843 1.31358688
v 1.33377925 -0.69385591 0.48311496
v 1.27349678 -0.69385591 1.54794709
v 1.33377925 -0.79156473 1.25505910
v 1.33377925 -0.76479043 1.28631543
v 1.33377925 -0.74657535 1.30262848
v 1.33377925 -0.73999546 1.30785864
v 1.33377925 -0.75695340 0.48660171
v 1.20362687 -0.74826042 0.45833409
v 1.21974859 -0.69385591 0.45933031
v 1.26749798 -0.69385591 1.55990168
v 1.24012848 -0.72017552 1.57011292
v 1.33377925 -0.82037181 1.21433870
v 1.33377925 -0.81470134 1.22342919
v 1.33377925 -0.76438921 0.48709988
v 1.20327877 -0.74826042 0.45833409
v 1.20362687 -0.74668232 0.45833409
v 1.33377925 -0.78054475 0.48896777
v 1.33377925 -0.78217631 0.48934136
v 1.06021826 -0.92701437 0.52271460
v 1.20796531 -0.69385591 0.45908118
v 1.25600921 -0.69385591 1.57584115
v 1.23150518 -0.70805888 1.59178067
v 1.21964147 -0.73132922 1.58019963
v 1.20777784 -0.75117591 1.56861862
v 1.27063130 -0.87961763 1.20923309
v 1.33377925 -0.83256871 1.19018042
v 1.06021826 -0.79691424 0.47800934
v 1.06021826 -0.76438921 0.47551882
v 1.06021826 -0.69385591 0.47165847
v 1.20327877 -0.74668232 0.45833409
v 1.33377925 -0.91457677 0.64898522
v 1.06021826 -0.95903116 0.54313705
v 1.06021826 -0.95750652 0.54164277
v 1.06021826 -0.95154184 0.53778242
v 1.23568292 -0.69385591 1.59589006
v 1.06021826 -0.69877748 1.73050397
v 1.06021826 -0.73181066 1.71020599
v 1.20981315 -0.72079069 1.60062207
v 1.06021826 -0.76471017 1.67745538
v 1.06021826 -0.76824083 1.67297240
v 1.06021826 -0.77968879 1.65790460
v 1.13852388 -0.94330359 1.23899509
v 1.33377925 -0.84588902 1.15680715
v 1.30308906 -0.91227644 1.01397444
v 1.33377925 -0.87967114 1.04523076
v 1.06021826 -0.69385591 1.72938319
v 1.06021826 -0.96708222 0.55558977
v 1.06021826 -0.96149192 0.54649934
v 1.33377925 -0.92107635 0.66990573
v 1.24245838 -0.96708222 0.71486011
v 1.06021826 -0.73491340 1.70784003
v 1.06021826 -0.74826042 1.69526275
v 1.06021826 -0.93921127 1.25294214
v 1.06677939 -0.94793091 1.24659125
v 1.08967657 -0.95076615 1.24957990
v 1.12218793 -0.94728899 1.24397617
v 1.12218793 -0.95132790 1.22268203
v 1.24658250 -0.96708222 0.79493107
v 1.28479807 -0.92310923 0.99517084
v 1.30525822 -0.91420230 0.99517084
v 1.33377925 -0.88435198 1.02219323
v 1.06021826 -0.96708222 1.03775913
v 1.33377925 -0.92318940 0.70141117
v 1.25266166 -0.96708222 0.73490898
v 1.06021826 -0.94686101 1.22268203
v 1.06404778 -0.94985678 1.22268203
v 1.08967657 -0.95731933 1.22268203
v 1.17955132 -0.96708222 0.95544665
v 1.18943335 -0.96708222 0.93365439
v 1.25542002 -0.96708222 0.76815774
v 1.32154067 -0.89991911 0.99517084
v 1.25558074 -0.96708222 0.76741055
v 1.31733619 -0.93059854 0.76741055
v 1.33377925 -0.91837489 0.78783300
v 1.33377925 -0.88860483 0.99517084
v 1.08295471 -0.96708222 1.02655170
v 1.33377925 -0.91973900 0.76741055
v 1.08742703 -0.96708222 1.02406115
v 1.12218793 -0.96708222 1.00401226
v 1.14867365 -0.96708222 0.98844637
v 1.16602725 -0.96708222 0.97275592
v 1.17596278 -0.96708222 0.96092585
f 1 2 3
f 1 3 9
f 1 9 8
f 1 8 7
f 1 7 6
f 1 6 16
f 1 16 15
f 1 15 29
f 1 29 46
f 1 46 48
f 1 48 64
f 1 64 78
f 1 78 77
f 1 77 80
f 1 80 66
f 1 66 52
f 1 52 34
f 1 34 21
f 1 21 20
f 1 20 17
f 1 17 10
f 1 10 4
f 1 4 12
f 1 12 23
f 1 23 32
f 1 32 49
f 1 49 38
f 1 38 24
f 1 24 13
f 1 13 5
f 1 5 2
f 2 5 6
f 2 6 7
f 2 7 8
f 2 8 9
f 2 9 3
f 4 10 11
f 4 11 12
f 5 13 14
f 5 14 15
f 5 15 16
f 5 16 6
f 10 17 11
f 11 18 33
f 11 33 19
f 11 19 12
f 11 17 20
f 11 20 21
f 11 21 22
f 11 22 18
f 12 19 23
f 13 24 14
f 14 24 25
f 14 25 26
f 14 26 27
f 14 27 15
f 15 28 29
f 15 27 28
f 18 30 31
f 18 31 32
f 18 32 33
f 18 22 30
f 19 33 23
f 21 34 35
f 21 35 36
f 21 36 37
f 21 37 22
f 22 37 36
f 22 36 35
f 22 35 51
f 22 51 50
f 22 50 65
f 22 65 68
f 22 68 56
f 22 56 44
f 22 44 43
f 22 43 42
f 22 42 55
f 22 55 54
f 22 54 40
f 22 40 39
f 22 39 49
f 22 49 32
f 22 32 31
f 22 31 30
f 23 33 32
f 24 38 25
f 25 38 39
f 25 39 40
f 25 40 41
f 25 41 26
f 26 41 27
f 27 41 42
f 27 42 43
f 27 43 44
f 27 44 45
f 27 45 28
f 28 46 29
f 28 45 47
f 28 47 48
f 28 48 46
f 34 50 51
f 34 51 35
f 34 52 53
f 34 53 50
f 38 49 39
f 40 54 41
f 41 54 55
f 41 55 42
f 44 56 57
f 44 57 58
f 44 58 59
f 44 59 45
f 45 59 60
f 45 60 61
f 45 61 62
f 45 62 47
f 47 62 63
f 47 63 64
f 47 64 48
f 50 53 67
f 50 67 75
f 50 75 73
f 50 73 61
f 50 61 72
f 50 72 71
f 50 71 85
f 50 85 84
f 50 84 83
f 50 83 82
f 50 82 81
f 50 81 79
f 50 79 65
f 52 66 67
f 52 67 53
f 56 68 57
f 57 68 69
f 57 69 70
f 57 70 58
f 58 70 59
f 59 70 60
f 60 70 71
f 60 71 72
f 60 72 61
f 61 73 62
f 62 73 63
f 63 74 64
f 63 73 75
f 63 75 76
f 63 76 77
f 63 77 74
f 64 74 78
f 65 79 70
f 65 70 69
f 65 69 68
f 66 80 76
f 66 76 75
f 66 75 67
f 70 79 81
f 70 81 82
f 70 82 83
f 70 83 84
f 70 84 85
f 70 85 71
f 74 77 78
f 76 80 77

