# https://github.com/mikedh/trimesh
v 0.83834097 0.04880970 1.86362493
v 0.83834097 0.01632308 1.85327600
v 0.83834097 0.21442113 1.83694771
v 0.83743460 0.17889242 1.97079385
v 0.83834097 0.01387126 1.85166620
v 0.83680015 0.21142444 2.00322050
v 0.83834097 0.21442113 0.10890642
v 0.83634695 0.21442113 2.00322050
v 0.83834097 -0.00494874 1.83809759
v 0.82297789 0.21442113 2.03725698
v 0.82311380 0.21199199 2.03725698
v 0.83231358 0.17889242 2.00322050
v 0.83834097 0.21142444 0.10890642
v 0.78849011 0.08131903 0.09694760
v 0.76438038 0.08131903 0.09188804
v 0.78713056 0.21442113 0.10154710
v 0.80525816 -0.01745757 1.87374393
v 0.81482048 -0.01745757 1.85856545
v 0.82506254 -0.01745757 1.84131728
v 0.82615018 -0.01745757 1.83947745
v 0.83834097 -0.00819513 1.83257814
v 0.82075724 0.14831277 2.00230060
v 0.81599875 0.12597395 1.99080180
v 0.57929757 -0.01745757 2.20743946
v 0.82130105 0.21442113 2.04093664
v 0.81935242 0.17889242 2.02667807
v 0.82941320 0.08131903 0.11258598
v 0.83834097 0.08131903 0.11649549
v 0.78477396 0.06102341 0.09878748
v 0.76438038 0.05537059 0.09671767
v 0.73990816 0.05621057 0.09717755
v 0.73016456 0.08308979 0.09648754
v 0.53669770 0.17889242 0.11948524
v 0.73125221 0.21442113 0.10039723
v 0.77580082 0.21442113 0.10039723
v 0.83834097 -0.01745757 1.81578989
v 0.81472985 0.16043565 2.02115868
v 0.58496246 0.00106730 2.21387865
v 0.53094221 -0.01745757 2.26401348
v 0.81264515 0.21442113 2.05197548
v 0.80960877 0.20152635 2.04921575
v 0.58931308 0.02274775 2.21962821
v 0.83834097 0.07171606 0.11810543
v 0.76438038 0.01627767 0.11396580
v 0.76438038 0.03911593 0.10361692
v 0.83834097 0.04824215 0.12454482
v 0.83834097 0.00987570 0.14087300
v 0.50465716 0.17918754 0.12615455
v 0.73184134 0.01627767 0.11603561
v 0.37545269 -0.01614085 0.21308560
v 0.43912590 0.04880970 0.17743927
v 0.48340254 0.19024344 0.13029418
v 0.48340254 0.20513597 0.13029418
v 0.50420398 0.21049367 0.12661443
v 0.50420398 0.21442113 0.12822437
v 0.83834097 -0.01745757 0.15490163
v 0.50714972 -0.01745757 2.29000094
v 0.37545269 0.21442113 2.44132519
v 0.57594396 0.04880970 2.24078604
v 0.59244008 0.04880970 2.22445765
v 0.76438038 -0.00828594 0.12707449
v 0.73184134 -0.01745757 0.13420369
v 0.37545269 -0.01745757 0.21377542
v 0.37545269 0.08243143 0.19238766
v 0.40658680 0.08131903 0.18065897
v 0.37545269 0.14502097 0.17950908
v 0.37545269 0.14636039 0.17927915
v 0.37545269 0.17889242 0.17444951
v 0.43912590 0.21142444 0.14616250
v 0.43608952 0.21442113 0.14777225
v 0.47220876 0.21442113 0.13696351
v 0.76438038 -0.01745757 0.13466375
v 0.50393207 -0.01745757 2.29276056
v 0.37545269 -0.01745757 2.37647191
v 0.38193329 -0.01745757 2.37325223
v 0.47021470 -0.01745757 2.31966776
v 0.37545269 0.21442113 0.17697939
v 0.37545269 0.11248893 0.18617841
v 0.37545269 0.21142444 0.17582953
v 0.40930601 0.21142444 0.15812133
v 0.40975919 0.21442113 0.15835126
f 1 2 5
f 1 5 9
f 1 9 21
f 1 21 36
f 1 36 56
f 1 56 47
f 1 47 46
f 1 46 43
f 1 43 28
f 1 28 13
f 1 13 7
f 1 7 3
f 1 3 4
f 1 4 2
f 2 4 6
f 2 6 5
f 3 7 16
f 3 16 35
f 3 35 34
f 3 34 55
f 3 55 71
f 3 71 70
f 3 70 81
f 3 81 77
f 3 77 58
f 3 58 40
f 3 40 25
f 3 25 10
f 3 10 8
f 3 8 6
f 3 6 4
f 5 6 9
f 6 8 10
f 6 10 11
f 6 11 12
f 6 12 9
f 7 13 14
f 7 14 15
f 7 15 16
f 9 17 18
f 9 18 19
f 9 19 20
f 9 20 21
f 9 12 22
f 9 22 23
f 9 23 24
f 9 24 17
f 10 25 11
f 11 25 26
f 11 26 12
f 12 26 22
f 13 27 14
f 13 28 27
f 14 29 15
f 14 27 29
f 15 29 30
f 15 30 31
f 15 31 32
f 15 32 33
f 15 33 34
f 15 34 35
f 15 35 16
f 17 24 39
f 17 39 57
f 17 57 73
f 17 73 76
f 17 76 75
f 17 75 74
f 17 74 63
f 17 63 62
f 17 62 72
f 17 72 56
f 17 56 36
f 17 36 20
f 17 20 19
f 17 19 18
f 20 36 21
f 22 26 37
f 22 37 23
f 23 37 24
f 24 37 38
f 24 38 39
f 25 40 26
f 26 40 41
f 26 41 42
f 26 42 38
f 26 38 37
f 27 28 43
f 27 43 29
f 29 44 45
f 29 45 30
f 29 43 46
f 29 46 47
f 29 47 44
f 30 45 31
f 31 48 33
f 31 33 32
f 31 45 44
f 31 44 49
f 31 49 50
f 31 50 51
f 31 51 48
f 33 48 52
f 33 52 53
f 33 53 54
f 33 54 34
f 34 54 55
f 38 42 39
f 39 42 57
f 40 58 59
f 40 59 60
f 40 60 42
f 40 42 41
f 42 60 57
f 44 61 49
f 44 47 56
f 44 56 61
f 48 51 52
f 49 61 62
f 49 62 63
f 49 63 50
f 50 63 74
f 50 74 58
f 50 58 77
f 50 77 79
f 50 79 68
f 50 68 67
f 50 67 66
f 50 66 78
f 50 78 64
f 50 64 65
f 50 65 52
f 50 52 51
f 52 65 66
f 52 66 67
f 52 67 68
f 52 68 69
f 52 69 53
f 53 69 70
f 53 70 71
f 53 71 54
f 54 71 55
f 56 72 61
f 57 60 59
f 57 59 58
f 57 58 73
f 58 74 75
f 58 75 76
f 58 76 73
f 61 72 62
f 64 78 65
f 65 78 66
f 68 79 80
f 68 80 69
f 69 80 70
f 70 80 81
f 77 81 79
f 79 81 80

