# https://github.com/mikedh/trimesh
v 0.83834097 -0.01749092 1.81587674
v 0.82615018 -0.01749092 1.83958408
v 0.71670480 -0.09573975 2.11902313
v 0.71670480 -0.10157110 2.11902313
v 0.83834097 -0.12638899 1.76912067
v 0.83834097 -0.01749092 0.15504762
v 0.81482048 -0.01749092 1.85846212
v 0.57929757 -0.01749092 2.20726691
v 0.57839120 -0.01749092 2.20836463
v 0.53094221 -0.01749092 2.26390103
v 0.49205850 -0.02775708 2.31570591
v 0.49554807 -0.04879045 2.32009622
v 0.47923320 -0.08131596 2.33743761
v 0.80507689 -0.01749092 1.87404748
v 0.69794275 -0.11049404 2.13285227
v 0.71276206 -0.12326544 2.11199864
v 0.83834097 -0.12638899 0.22309636
v 0.71144783 -0.12638899 2.11090112
v 0.83834097 -0.02579553 0.15812075
v 0.76438038 -0.01749092 0.13463292
v 0.50714972 -0.01749092 2.29002305
v 0.50465716 -0.01749092 2.29221829
v 0.47021470 -0.01749092 2.31965729
v 0.38193329 -0.01749092 2.37321810
v 0.46142283 -0.05719101 2.34929135
v 0.46300902 -0.08131596 2.34994995
v 0.45951946 -0.10110204 2.34731576
v 0.67904470 -0.11941696 2.14668160
v 0.70845677 -0.12638899 2.11463282
v 0.49382592 -0.12638899 0.16404751
v 0.83834097 -0.03589112 0.16316964
v 0.83834097 -0.03505960 0.16273053
v 0.73184134 -0.01749092 0.13397453
v 0.37545269 -0.01749092 2.37651088
v 0.43912590 -0.08131596 2.35807177
v 0.43912590 -0.10483325 2.34951082
v 0.43912590 -0.12110133 2.33787674
v 0.46649859 -0.12638899 2.32141322
v 0.47198216 -0.11369221 2.32799859
v 0.67079664 -0.12638899 2.14953525
v 0.67677877 -0.12638899 2.14426708
v 0.69413592 -0.12638899 2.12846215
v 0.47166494 -0.12638899 0.16426717
v 0.46953492 -0.12638899 0.16448665
v 0.37545269 -0.01749092 0.21365735
v 0.37545269 -0.04717004 2.36992551
v 0.40658680 -0.08131596 2.36026703
v 0.40658680 -0.12252985 2.33919373
v 0.40658680 -0.10626177 2.35038889
v 0.40151110 -0.12638899 2.33655974
v 0.43912590 -0.12638899 2.33304749
v 0.48421832 -0.12638899 2.30714496
v 0.45154328 -0.12638899 0.16953535
v 0.37545269 -0.12638899 0.22090130
v 0.37545269 -0.08131596 2.35894984
v 0.37545269 -0.10373521 2.34973048
v 0.37545269 -0.10476928 2.34929135
v 0.37545269 -0.12036575 2.33941339
v 0.37545269 -0.12621843 2.33568168
v 0.37545269 -0.12638899 2.33546202
f 1 2 3
f 1 3 4
f 1 4 5
f 1 5 17
f 1 17 31
f 1 31 32
f 1 32 19
f 1 19 6
f 1 6 20
f 1 20 33
f 1 33 45
f 1 45 34
f 1 34 24
f 1 24 23
f 1 23 22
f 1 22 21
f 1 21 10
f 1 10 9
f 1 9 8
f 1 8 14
f 1 14 7
f 1 7 2
f 2 7 3
f 3 8 9
f 3 9 10
f 3 10 11
f 3 11 12
f 3 12 13
f 3 13 4
f 3 7 14
f 3 14 8
f 4 13 15
f 4 15 16
f 4 16 5
f 5 16 18
f 5 18 29
f 5 29 42
f 5 42 41
f 5 41 40
f 5 40 52
f 5 52 38
f 5 38 51
f 5 51 50
f 5 50 60
f 5 60 54
f 5 54 53
f 5 53 44
f 5 44 43
f 5 43 30
f 5 30 17
f 6 19 20
f 10 21 11
f 11 21 22
f 11 22 23
f 11 23 24
f 11 24 25
f 11 25 12
f 12 25 13
f 13 25 26
f 13 26 27
f 13 27 28
f 13 28 15
f 15 28 29
f 15 29 16
f 16 29 18
f 17 30 20
f 17 20 31
f 19 32 20
f 20 32 31
f 20 30 33
f 24 34 25
f 25 34 35
f 25 35 26
f 26 35 27
f 27 35 36
f 27 36 37
f 27 37 38
f 27 38 39
f 27 39 40
f 27 40 28
f 28 40 41
f 28 41 42
f 28 42 29
f 30 43 33
f 33 43 44
f 33 44 45
f 34 46 47
f 34 47 35
f 34 45 54
f 34 54 60
f 34 60 59
f 34 59 58
f 34 58 57
f 34 57 56
f 34 56 55
f 34 55 46
f 35 47 36
f 36 48 37
f 36 47 49
f 36 49 48
f 37 48 50
f 37 50 51
f 37 51 38
f 38 52 39
f 39 52 40
f 44 53 45
f 45 53 54
f 46 55 47
f 47 55 49
f 48 49 50
f 49 55 56
f 49 56 57
f 49 57 58
f 49 58 59
f 49 59 50
f 50 59 60

