# https://github.com/mikedh/trimesh
v 1.16797637 0.50114738 1.30234868
v 1.16797637 0.50114738 0.46807875
v 1.16797637 0.59602165 1.16586413
v 1.16091513 0.72503515 1.13190469
v 1.15518010 0.40807838 1.57952229
v 1.15518010 0.40720798 1.58049254
v 1.15518010 0.39573150 1.58615246
v 1.15518010 0.39573150 0.41940360
v 1.15518010 0.39586045 0.41730131
v 1.15518010 0.39963220 0.41713962
v 1.15518010 0.40659543 0.41713962
v 1.15518010 0.43915507 0.42102072
v 1.15518010 0.45782048 0.42457833
v 1.16797637 0.55391975 0.49055668
v 1.16797637 0.59602165 0.52273728
v 1.16091513 0.72503515 0.68153802
v 1.13381707 0.72503515 1.32757567
v 1.14001808 0.69054127 1.34471710
v 1.13603936 0.70053487 1.35441980
v 1.13008933 0.72503515 1.35312611
v 1.12836878 0.72503515 1.35959457
v 1.08872541 0.50417765 1.71050863
v 1.10399495 0.47845232 1.68382624
v 1.10610974 0.45675663 1.69482261
v 1.10610974 0.45030921 1.69482261
v 1.10542866 0.42864576 1.69352892
v 1.09955026 0.40524150 1.68075374
v 1.08628801 0.39573150 1.68964787
v 0.87681584 0.39573150 0.23133306
v 0.86563253 0.39573150 0.22502630
v 1.16797637 0.55769155 0.49298235
v 1.16797637 0.59128275 0.51804763
v 1.16091513 0.69221761 0.60682728
v 1.16091513 0.69531240 0.61006151
v 1.16091513 0.70537041 0.63302455
v 1.15779665 0.72503515 0.67781867
v 1.11869090 0.72503515 1.38579185
v 1.07395763 0.61961929 1.63029973
v 1.07815144 0.50417765 1.73217799
v 1.08947814 0.50114738 1.71034693
v 1.04384876 0.55765927 1.76371174
v 1.09743545 0.46923247 1.70759783
v 1.08040960 0.47168248 1.73379511
v 1.07664599 0.45001907 1.72959064
v 1.08299038 0.40659543 1.70193793
v 1.07876080 0.39573150 1.69870370
v 0.86233490 0.39573150 0.22340917
v 0.86201229 0.39872956 0.22551146
v 0.86201229 0.41500938 0.23796322
v 0.82351589 0.68651166 0.42765087
v 1.15467826 0.69647293 0.60892953
v 0.82351589 0.69808482 0.44333690
v 0.82351589 0.70852971 0.45772924
v 1.15467826 0.70891654 0.63755248
v 1.15277857 0.72503515 0.67490781
v 1.04467312 0.72503515 1.56674706
v 1.03976255 0.71404227 1.59407633
v 1.06976391 0.64270119 1.61283485
v 1.04406378 0.62139238 1.69886539
v 1.04746900 0.53670506 1.76823965
v 1.06664552 0.50417765 1.74834914
v 1.07840232 0.50114738 1.73233968
v 0.94674740 0.68773666 1.76387348
v 0.94560043 0.65353291 1.79362837
v 1.01180426 0.55753034 1.79443693
v 1.03202023 0.53670506 1.78457254
v 1.05033652 0.50417765 1.77098876
v 1.04775574 0.47964509 1.76743109
v 1.01209100 0.48625372 1.79314325
v 1.05703928 0.40682110 1.71794739
v 0.84674276 0.39573150 1.82500043
v 0.80190197 0.39573150 0.19510966
v 0.80179448 0.39576375 0.19494797
v 0.80179448 0.41259161 0.21516191
v 0.80179448 0.50114738 0.32286176
v 0.82351589 0.72503515 0.50785982
v 1.00334508 0.72503515 0.59437548
v 1.03227110 0.72503515 0.60957638
v 1.03592721 0.72503515 1.58712274
v 0.93366440 0.70940011 1.75109825
v 0.92373565 0.69744008 1.77276761
v 0.91380679 0.68551228 1.79346668
v 0.93549245 0.67522859 1.78538110
v 0.94495522 0.71720152 1.72942889
v 0.94767936 0.59192748 1.82726441
v 1.01574710 0.53670506 1.79653917
v 1.03223533 0.50417765 1.78715991
v 1.02879423 0.50114738 1.78829190
v 1.01531699 0.50114738 1.79524549
v 0.92703327 0.53670506 1.83454142
v 0.81871283 0.39573150 1.83745217
v 0.80179448 0.39573150 0.19591823
v 0.80179448 0.50114738 1.84666979
v 0.82351589 0.72503515 1.74301267
v 0.95370113 0.72503515 1.70306993
v 0.92448837 0.72329434 1.74139556
v 0.91197885 0.71616991 1.76015407
v 0.89452278 0.68722086 1.79443693
v 0.92491848 0.59602165 1.83227744
v 0.92703327 0.59792361 1.83114545
v 0.93362852 0.59602165 1.83001346
v 0.89452278 0.71945813 1.76371174
v 0.89452278 0.70346845 1.77988289
v 0.94775110 0.72503515 1.71083206
v 0.92484674 0.72503515 1.73848476
v 0.92703327 0.56920024 1.83939278
v 0.94979415 0.56920024 1.82855809
v 1.01596210 0.50417765 1.79556892
v 0.89452278 0.53670506 1.84214183
v 0.80179448 0.39573150 1.84165675
v 0.80179448 0.50105063 1.84699317
v 0.82351589 0.71217248 1.75611129
v 0.83735172 0.72503515 1.74851084
v 0.92129824 0.72503515 1.74139556
v 0.89538300 0.72503515 1.75691985
v 0.86201229 0.71952259 1.76355005
v 0.86910940 0.68612478 1.79379011
v 0.89452278 0.59840719 1.83357113
v 0.92703327 0.59602165 1.83179233
v 0.89452278 0.56920024 1.84569954
v 0.86201229 0.72503515 1.75756671
v 0.82186708 0.53670506 1.84602292
v 0.82186708 0.56094749 1.83906929
v 0.82186708 0.57019957 1.83567337
v 0.82351589 0.67226278 1.78732165
v 0.82351589 0.69792366 1.76904821
v 0.83165246 0.70037366 1.77001851
v 0.84394698 0.71626665 1.75999239
v 0.85975413 0.69792366 1.78198513
v 0.84742384 0.68141817 1.79136444
v 0.86201229 0.56920024 1.84214183
f 1 2 14
f 1 14 31
f 1 31 32
f 1 32 15
f 1 15 3
f 1 3 4
f 1 4 5
f 1 5 6
f 1 6 7
f 1 7 8
f 1 8 2
f 2 8 9
f 2 9 10
f 2 10 11
f 2 11 12
f 2 12 13
f 2 13 14
f 3 15 16
f 3 16 4
f 4 16 36
f 4 36 55
f 4 55 78
f 4 78 77
f 4 77 76
f 4 76 94
f 4 94 113
f 4 113 121
f 4 121 115
f 4 115 114
f 4 114 105
f 4 105 104
f 4 104 95
f 4 95 79
f 4 79 56
f 4 56 37
f 4 37 21
f 4 21 20
f 4 20 17
f 4 17 18
f 4 18 5
f 5 18 6
f 6 18 19
f 6 19 20
f 6 20 21
f 6 21 22
f 6 22 23
f 6 23 24
f 6 24 7
f 7 24 25
f 7 25 26
f 7 26 27
f 7 27 28
f 7 28 46
f 7 46 71
f 7 71 91
f 7 91 110
f 7 110 92
f 7 92 72
f 7 72 47
f 7 47 30
f 7 30 29
f 7 29 8
f 8 29 9
f 9 29 10
f 10 29 11
f 11 29 12
f 12 29 13
f 13 29 30
f 13 30 14
f 14 30 31
f 15 32 33
f 15 33 34
f 15 34 35
f 15 35 16
f 16 35 36
f 17 20 18
f 18 20 19
f 21 37 38
f 21 38 22
f 22 39 40
f 22 40 24
f 22 24 23
f 22 38 41
f 22 41 39
f 24 42 43
f 24 43 25
f 24 40 42
f 25 43 26
f 26 44 45
f 26 45 46
f 26 46 28
f 26 28 27
f 26 43 44
f 30 47 31
f 31 47 32
f 32 47 48
f 32 48 49
f 32 49 50
f 32 50 33
f 33 50 34
f 34 51 35
f 34 50 52
f 34 52 53
f 34 53 51
f 35 51 54
f 35 54 36
f 36 54 55
f 37 56 57
f 37 57 58
f 37 58 38
f 38 58 59
f 38 59 41
f 39 42 40
f 39 41 60
f 39 60 61
f 39 61 62
f 39 62 42
f 41 63 64
f 41 64 65
f 41 65 66
f 41 66 60
f 41 59 63
f 42 62 43
f 43 62 61
f 43 61 67
f 43 67 68
f 43 68 44
f 44 68 45
f 45 68 46
f 46 68 69
f 46 69 70
f 46 70 71
f 47 72 73
f 47 73 48
f 48 73 49
f 49 73 50
f 50 73 74
f 50 74 75
f 50 75 52
f 51 53 54
f 52 75 53
f 53 75 76
f 53 76 77
f 53 77 78
f 53 78 54
f 54 78 55
f 56 79 57
f 57 79 59
f 57 59 58
f 59 79 63
f 60 66 67
f 60 67 61
f 63 80 81
f 63 81 82
f 63 82 83
f 63 83 64
f 63 79 84
f 63 84 80
f 64 83 82
f 64 82 85
f 64 85 65
f 65 85 86
f 65 86 66
f 66 87 67
f 66 86 87
f 67 87 68
f 68 87 88
f 68 88 69
f 69 88 89
f 69 89 90
f 69 90 91
f 69 91 71
f 69 71 70
f 72 92 73
f 73 92 110
f 73 110 111
f 73 111 93
f 73 93 75
f 73 75 74
f 75 93 94
f 75 94 76
f 79 95 84
f 80 96 97
f 80 97 81
f 80 84 96
f 81 97 82
f 82 98 99
f 82 99 100
f 82 100 101
f 82 101 85
f 82 97 102
f 82 102 103
f 82 103 98
f 84 95 104
f 84 104 105
f 84 105 96
f 85 101 106
f 85 106 107
f 85 107 86
f 86 108 87
f 86 107 106
f 86 106 108
f 87 108 88
f 88 108 89
f 89 108 90
f 90 106 109
f 90 109 110
f 90 110 91
f 90 108 106
f 93 111 94
f 94 111 112
f 94 112 113
f 96 105 114
f 96 114 97
f 97 114 115
f 97 115 102
f 98 103 116
f 98 116 117
f 98 117 118
f 98 118 99
f 99 119 100
f 99 118 120
f 99 120 106
f 99 106 119
f 100 119 101
f 101 119 106
f 102 115 121
f 102 121 116
f 102 116 103
f 106 120 109
f 109 120 110
f 110 120 111
f 111 120 122
f 111 122 123
f 111 123 124
f 111 124 125
f 111 125 126
f 111 126 112
f 112 126 127
f 112 127 128
f 112 128 113
f 113 128 116
f 113 116 121
f 116 128 127
f 116 127 129
f 116 129 117
f 117 129 130
f 117 130 124
f 117 124 131
f 117 131 118
f 118 131 120
f 120 131 122
f 122 131 123
f 123 131 124
f 124 130 125
f 125 130 126
f 126 130 127
f 127 130 129

