# https://github.com/mikedh/trimesh
v 94.32532481 -136.40871784 8.18853653
v 94.32532481 -137.98745542 9.40798593
v 38.82837153 -137.97949403 9.40798593
v 38.82837153 -136.40871784 8.21132905
v -112.83021503 -132.50644447 12.66746505
v -57.33326451 -132.53668012 12.66746505
v -1.86388011 -132.63376060 12.67886131
v 134.85216631 -136.40871784 8.45066153
v 135.01758024 -137.90469884 9.47636900
v 94.32532481 -139.83673700 11.48219891
v 38.82837153 -139.82878664 11.49359517
v -141.30927489 -141.09877214 13.21450757
v 10.15632371 -137.90151207 9.47636900
v -141.72281521 -140.08978138 12.67886131
v -0.32000068 -136.40871784 9.04329460
v -127.71762260 -133.05709277 12.67886131
v -140.70275349 -140.53857458 104.10373880
v -85.06795620 -140.60223264 106.59962992
v 66.59063312 -140.60064477 106.62242244
v 122.22543041 -140.53857458 104.10373880
v 136.94742405 -140.55131060 100.14906027
v 136.97499120 -136.83841252 30.09312343
v 137.41609868 -136.40871784 18.85590970
v 138.27074648 -136.40871784 13.86412745
v 137.91235148 -136.40871784 9.77268278
v 137.71937040 -136.40871784 9.02049656
v 136.12034341 -136.40871784 8.54183161
v 137.52637830 -137.78056948 9.59033711
v 135.01758024 -139.75557931 11.57337450
v 67.41771377 -141.10673353 13.20311131
v 65.81869228 -141.10673353 13.20311131
v -85.89503685 -141.10354677 13.21450757
v 122.83195181 -141.10195890 13.21450757
v -112.83021503 -141.81015897 15.98392547
v -141.88824017 -141.55552672 15.98392547
v -142.32934764 -138.95347450 12.67886131
v -142.35691479 -134.82043101 12.67886131
v -112.83021503 -142.34648338 124.61791861
v -142.16392269 -142.93532872 124.61791861
v 94.32532481 -142.34489551 124.53814479
v 135.01758024 -142.47538737 124.53814479
v 137.96748578 -143.11515475 124.53814479
v 137.05770368 -140.47650438 97.34545359
v 138.02263110 -142.98306400 119.55775328
v 138.46373858 -142.44992635 82.55244835
v 138.49130573 -142.44992635 78.84849857
v 138.51887288 -138.75136319 15.97252921
v 137.93991863 -138.90891496 12.18880009
v 137.36096438 -141.01282879 13.37406623
v 94.32532481 -141.81174684 15.97252921
v 135.01758024 -141.72581452 15.97252921
v -112.83021503 -142.29714921 19.68787525
v 94.32532481 -142.30032494 19.67647899
v -142.08122124 -141.81015897 19.68787525
v -143.07371581 -138.75453892 15.98392547
v -140.59247387 -144.30558146 43.57549954
v -143.12885011 -142.44515172 75.14454879
v -143.04614866 -142.44515172 82.54105209
v -142.88072371 -142.44515172 89.94895029
v -142.19150086 -142.89713168 123.23891055
v -57.33326451 -142.36239514 124.61791861
v -142.82558941 -146.14531378 124.61791861
v -1.86388011 -142.41810283 124.61791861
v 138.13289970 -144.13846940 124.53814479
v -0.32000068 -143.18996097 124.61791861
v 138.29832465 -146.14850054 124.53814479
v 138.49130573 -142.44992635 71.45199595
v 138.46373858 -142.44992635 67.74804617
v 137.99506395 -141.83720786 27.07297954
v 137.93991863 -141.74331415 23.38042326
v 137.88478433 -141.64464581 19.67647899
v 137.71937040 -141.40751318 15.97252921
v 135.01758024 -142.18255808 19.67647899
v -85.06795620 -144.30716933 43.54131076
v 66.56306597 -144.30875719 43.51851824
v 122.08758364 -144.30558146 43.56410328
v 66.61820027 -144.30875719 43.51851824
v -140.70275349 -144.35969026 45.58133220
v -141.06115952 -144.55543908 52.97783414
v -141.25414059 -148.76009100 124.61791861
v -141.99850876 -145.33525860 82.54105209
v -142.13635554 -141.91201408 23.39182504
v -142.90830189 -142.44515172 60.38573370
v -142.99100334 -142.44515172 64.07828723
v -143.10128296 -142.44515172 71.45199595
v -85.81232437 -148.76486563 124.61791861
v -0.32000068 -146.95378109 124.61791861
v 137.93991863 -147.23706112 124.53814479
v 138.35345895 -142.44992635 60.37433607
v 137.19555045 -148.61845098 124.53814479
v 137.22311760 -144.53634055 56.68178392
v 136.97499120 -144.35809137 49.99188041
v 122.72168321 -148.72985535 124.53814479
v -84.37872232 -148.76486563 124.61791861
v -0.70597058 -147.70017820 124.61791861
v -1.31249465 -148.27151289 124.61791861
v -2.49797348 -148.63277487 124.61791861
v -28.99204867 -148.74417924 124.61791861
f 1 2 3
f 1 3 4
f 1 4 5
f 1 5 6
f 1 6 7
f 1 7 8
f 1 8 9
f 1 9 2
f 2 10 3
f 2 9 10
f 3 11 12
f 3 12 13
f 3 13 4
f 3 10 11
f 4 13 12
f 4 12 14
f 4 14 15
f 4 15 16
f 4 16 5
f 5 16 17
f 5 17 18
f 5 18 19
f 5 19 6
f 6 19 7
f 7 19 20
f 7 20 21
f 7 21 22
f 7 22 23
f 7 23 24
f 7 24 25
f 7 25 26
f 7 26 27
f 7 27 8
f 8 27 9
f 9 27 28
f 9 28 29
f 9 29 10
f 10 30 31
f 10 31 32
f 10 32 12
f 10 12 11
f 10 29 33
f 10 33 30
f 12 32 34
f 12 34 35
f 12 35 14
f 14 35 36
f 14 36 15
f 15 36 37
f 15 37 16
f 16 37 17
f 17 38 18
f 17 37 39
f 17 39 38
f 18 38 19
f 19 40 20
f 19 38 40
f 20 40 41
f 20 41 21
f 21 41 42
f 21 42 43
f 21 43 24
f 21 24 22
f 22 24 23
f 24 42 44
f 24 44 45
f 24 45 46
f 24 46 47
f 24 47 25
f 24 43 42
f 25 48 26
f 25 47 48
f 26 48 28
f 26 28 27
f 28 49 29
f 28 48 49
f 29 49 33
f 30 33 50
f 30 50 31
f 31 50 34
f 31 34 32
f 33 49 51
f 33 51 50
f 34 52 35
f 34 50 53
f 34 53 52
f 35 54 55
f 35 55 36
f 35 52 56
f 35 56 54
f 36 55 37
f 37 55 57
f 37 57 58
f 37 58 59
f 37 59 60
f 37 60 39
f 38 39 62
f 38 62 80
f 38 80 86
f 38 86 94
f 38 94 98
f 38 98 97
f 38 97 96
f 38 96 95
f 38 95 87
f 38 87 65
f 38 65 63
f 38 63 61
f 38 61 40
f 39 60 62
f 40 61 63
f 40 63 41
f 41 63 42
f 42 64 44
f 42 63 65
f 42 65 64
f 44 64 45
f 45 64 66
f 45 66 46
f 46 66 67
f 46 67 47
f 47 67 68
f 47 68 69
f 47 69 70
f 47 70 71
f 47 71 72
f 47 72 48
f 48 72 49
f 49 72 51
f 50 51 53
f 51 73 53
f 51 72 73
f 52 74 56
f 52 53 75
f 52 75 74
f 53 73 76
f 53 76 77
f 53 77 75
f 54 56 78
f 54 78 79
f 54 79 80
f 54 80 81
f 54 81 62
f 54 62 82
f 54 82 83
f 54 83 55
f 55 83 84
f 55 84 85
f 55 85 57
f 56 74 86
f 56 86 80
f 56 80 78
f 57 85 62
f 57 62 58
f 58 62 59
f 59 62 60
f 62 85 84
f 62 84 83
f 62 83 82
f 62 81 80
f 64 65 66
f 65 87 66
f 66 87 88
f 66 88 69
f 66 69 89
f 66 89 68
f 66 68 67
f 68 89 69
f 69 88 70
f 70 88 71
f 71 88 90
f 71 90 91
f 71 91 92
f 71 92 72
f 72 92 73
f 73 92 76
f 74 75 86
f 75 77 94
f 75 94 86
f 76 93 94
f 76 94 77
f 76 92 90
f 76 90 93
f 78 80 79
f 87 95 88
f 88 95 90
f 90 92 91
f 90 95 96
f 90 96 97
f 90 97 93
f 93 97 98
f 93 98 94

