# https://github.com/mikedh/trimesh
v 149.85098927 166.69114344 132.90020406
v 149.85098927 166.69114344 131.55187823
v 147.60930585 166.62623934 132.77155920
v 149.85098927 165.17504945 134.75034022
v 153.55004864 166.67878233 132.87761553
v 149.85098927 166.23678168 129.70173655
v 147.60930585 166.62623934 131.87202105
v 153.55004864 166.67878233 131.60490640
v 142.43236056 164.92159708 130.66510919
v 142.43236056 164.16740398 134.04721250
v 147.32836352 163.15049594 136.40505837
v 149.85098927 163.32512832 136.50031390
v 153.55004864 163.29886233 136.48558753
v 153.55004864 165.14877245 134.72775721
v 155.72735725 166.61232345 132.74209543
v 149.85098927 164.38686054 127.75143240
v 146.15191887 163.97268066 128.01166629
v 142.43236056 163.55385847 128.27681265
v 153.55004864 166.21977826 129.75476472
v 153.55004864 164.36831336 127.76910845
v 155.72735725 166.61232345 131.94272528
v 142.43236056 160.94976628 135.52123350
v 147.04742118 160.94976628 136.48460614
v 149.85098927 160.94976628 136.75564084
v 153.55004864 160.94976628 136.72028873
v 156.01707696 163.11494534 136.38443815
v 164.64725984 163.73622068 133.74278296
v 168.34925235 163.19067781 133.07795152
v 170.28658341 162.84604434 132.59479312
v 149.85098927 160.94976628 126.72423078
v 146.15191887 160.94976628 127.25648628
v 142.43236056 160.94976628 127.79758532
v 166.65482096 162.84604434 128.77175876
v 164.64725984 163.08403705 128.58419188
v 153.55004864 160.94976628 126.76743953
v 168.07416528 161.03476131 128.27484987
v 170.28658341 162.84604434 132.32473430
v 164.64725984 164.02059236 130.66510919
v 142.43236056 160.93121910 135.51533965
v 147.40444885 158.80621089 136.38345676
v 149.85098927 158.66093201 136.46791147
v 153.55004864 158.69493885 136.44826712
v 172.04832275 157.25147879 135.51927072
v 168.34925235 160.94976628 134.79158619
v 171.73225987 160.90958440 133.63967079
v 172.32633194 160.65303348 133.55128500
v 172.32633194 161.01621414 130.86740245
v 149.85098927 157.67030098 127.78678451
v 146.15191887 158.06593368 128.05880611
v 142.43236056 158.46466493 128.33671606
v 172.32633194 153.40173737 128.19432622
v 168.07416528 163.13967859 130.92141752
v 169.12183826 162.32522369 129.85886379
v 172.32633194 159.64230048 128.51643182
v 172.04832275 159.72112047 128.47616725
v 172.04832275 157.25147879 127.88105865
v 172.32633194 156.97174941 127.87810896
v 172.32633194 153.58101206 128.17763156
v 172.32633194 160.81840330 130.35380440
v 142.43236056 157.87121036 133.98829048
v 147.89317030 155.36601808 132.58791787
v 172.32633194 151.87791356 133.91856764
v 172.32633194 153.31055627 134.56866719
v 172.32633194 157.26075238 135.41713995
v 172.32633194 153.25646952 128.24735439
v 172.32633194 151.69555135 129.50435025
v 142.43236056 157.24374896 130.65430287
v 172.32633194 150.90273116 130.66510919
v 172.32633194 159.49857639 128.47125478
v 172.32633194 157.23293161 127.92524879
v 142.43236056 157.86656805 133.96766474
v 147.89317030 155.36601808 132.33062815
f 1 2 7
f 1 7 3
f 1 3 4
f 1 4 5
f 1 5 8
f 1 8 2
f 2 6 7
f 2 8 6
f 3 7 9
f 3 9 10
f 3 10 11
f 3 11 4
f 4 11 12
f 4 12 13
f 4 13 14
f 4 14 5
f 5 15 21
f 5 21 8
f 5 14 15
f 6 16 17
f 6 17 18
f 6 18 9
f 6 9 7
f 6 8 19
f 6 19 20
f 6 20 16
f 8 21 19
f 9 18 32
f 9 32 50
f 9 50 67
f 9 67 71
f 9 71 60
f 9 60 39
f 9 39 22
f 9 22 10
f 10 22 11
f 11 22 23
f 11 23 24
f 11 24 12
f 12 24 13
f 13 24 25
f 13 25 26
f 13 26 14
f 14 26 15
f 15 26 27
f 15 27 28
f 15 28 29
f 15 29 37
f 15 37 21
f 16 30 17
f 16 20 30
f 17 30 18
f 18 30 31
f 18 31 32
f 19 21 33
f 19 33 34
f 19 34 20
f 20 35 30
f 20 34 36
f 20 36 35
f 21 37 38
f 21 38 33
f 22 39 40
f 22 40 23
f 23 40 24
f 24 40 41
f 24 41 42
f 24 42 25
f 25 42 43
f 25 43 26
f 26 43 44
f 26 44 27
f 27 44 28
f 28 44 45
f 28 45 29
f 29 45 46
f 29 46 47
f 29 47 37
f 30 48 49
f 30 49 50
f 30 50 31
f 30 35 51
f 30 51 48
f 31 50 32
f 33 38 52
f 33 52 37
f 33 37 53
f 33 53 54
f 33 54 55
f 33 55 36
f 33 36 34
f 35 36 56
f 35 56 57
f 35 57 58
f 35 58 51
f 36 55 56
f 37 47 59
f 37 59 53
f 37 52 38
f 39 60 40
f 40 60 61
f 40 61 62
f 40 62 41
f 41 62 63
f 41 63 42
f 42 63 43
f 43 63 64
f 43 64 45
f 43 45 44
f 45 64 46
f 46 64 63
f 46 63 62
f 46 62 68
f 46 68 66
f 46 66 65
f 46 65 51
f 46 51 58
f 46 58 57
f 46 57 70
f 46 70 69
f 46 69 54
f 46 54 59
f 46 59 47
f 48 51 65
f 48 65 66
f 48 66 49
f 49 66 50
f 50 66 68
f 50 68 67
f 53 59 54
f 54 69 55
f 55 69 70
f 55 70 56
f 56 70 57
f 60 71 61
f 61 68 62
f 61 71 67
f 61 67 72
f 61 72 68
f 67 68 72

