# https://github.com/mikedh/trimesh
v 94.34478721 126.87152062 5.36421038
v 94.34478721 127.65126296 5.38646810
v 135.04041686 127.65126296 5.45641698
v 135.04041686 126.87152062 5.43734052
v 38.85197177 126.87152062 5.37374862
v 38.85197177 127.65126296 5.39282508
v 94.34478721 131.35023411 5.86339633
v 123.23256866 131.35023411 5.96514116
v 122.68905474 133.95789901 6.35939551
v 134.72790463 131.65222672 6.07959997
v 137.24166478 133.78372975 6.43888263
v 137.59494332 131.35023411 6.09867643
v 137.81234889 127.65126296 5.85385809
v 137.81234889 126.87152062 5.84431986
v 9.78754003 126.87152062 5.70442209
v 9.78754003 127.65126296 5.71713606
v 10.05930250 131.35023411 5.98103638
v 38.85197177 131.35023411 5.86975331
v 67.27777189 133.96429458 6.35303852
v 65.97333848 133.96429458 6.35303852
v 135.04041686 137.90294557 9.47531042
v 94.34478721 135.57170200 7.54853207
v 94.34478721 137.98443406 9.39899904
v 137.54059193 137.77830897 9.58659349
v 137.92105167 135.03004059 8.43879111
v 138.49173577 131.35023411 8.56596940
v 138.47815068 127.65126296 8.56596940
v 138.46456559 126.87152062 8.56596940
v -0.29464872 126.87152062 5.98103638
v -0.29464872 127.65126296 5.99375586
v -0.29464872 131.35023411 6.34350029
v 10.56205012 133.93872330 6.36893374
v 38.85197177 135.55732297 7.55807031
v 135.04041686 139.75323059 11.57060125
v 94.34478721 139.83471909 11.47521340
v 38.85197177 137.97643959 9.40853727
v 137.36395266 141.01392045 13.36383882
v 137.96180694 138.90637878 12.18424600
v 138.51891698 138.74978635 15.96467257
v 138.05692464 138.94473020 37.84282808
v 137.54059193 126.87152062 10.95377525
v -0.29464872 126.87152062 10.66444148
v -0.29464872 133.31877118 6.66144877
v -0.29464872 133.63194503 6.84586197
v -0.29464872 137.57059601 9.78690192
v 10.18159038 137.89974778 9.47212918
v 122.83853485 141.10179350 13.20486458
v 67.44082607 141.10659018 13.19850759
v 38.85197177 139.82672461 11.48475715
v 65.82386940 141.10659018 13.19850759
v 135.04041686 141.72495443 15.96467257
v 137.73081628 141.40698390 15.96467257
v 137.90746658 141.64346593 19.66561202
v 137.96180694 141.74253124 23.36337574
v 138.00258427 141.83679986 27.06113394
v 138.02975445 141.92788173 30.76207615
v 138.05692464 142.11801787 37.84282808
v 137.79876379 138.85204945 37.84282808
v 135.04041686 137.93490141 37.84282808
v 122.11837063 136.88832009 36.50743676
v 135.04041686 126.87152062 11.03644362
v -0.29464872 138.88241742 37.84282808
v 10.12723898 126.87152062 11.06188258
v 11.10556404 136.89630353 36.37389598
v -0.29464872 138.08030158 10.36238822
v 10.41258655 141.09061226 13.22075980
v 94.34478721 141.81123960 15.96467257
v 38.85197177 141.80164624 15.96467257
v 135.04041686 142.18192955 19.66561202
v 94.34478721 142.29857167 19.66561202
v 135.04041686 143.03197915 37.84282808
v 135.29859976 142.96007300 37.84282808
v 94.34478721 137.74155645 37.84282808
v 123.15104708 126.87152062 11.07777780
v 66.63914579 136.88672119 36.55512793
v -0.29464872 142.15636929 37.84282808
v 12.58664223 138.25605870 37.84282808
v 38.85197177 126.87152062 11.09367853
v 66.58479440 136.88672119 36.55512793
v 38.85197177 137.76073216 37.84282808
v -0.29464872 140.78861965 13.75174169
v -0.29464872 140.95000877 14.29225631
v 9.88265772 141.54120283 15.96467257
v 38.85197177 142.28579154 19.66561202
v 94.34478721 143.19495614 37.84282808
v 94.34478721 126.87152062 11.10003552
v -0.29464872 142.10044106 35.78569019
v 38.85197177 143.17737932 37.84282808
v -0.29464872 141.21045217 15.96467257
v -0.29464872 141.34147332 17.01073011
v -0.29464872 141.55558186 19.66561202
v 9.66525215 141.79844845 19.66561202
v -0.29464872 141.61310899 20.88972027
f 1 2 3
f 1 3 4
f 1 4 14
f 1 14 28
f 1 28 41
f 1 41 61
f 1 61 74
f 1 74 86
f 1 86 78
f 1 78 63
f 1 63 42
f 1 42 29
f 1 29 15
f 1 15 5
f 1 5 6
f 1 6 2
f 2 7 3
f 2 6 18
f 2 18 7
f 3 8 9
f 3 9 10
f 3 10 11
f 3 11 12
f 3 12 13
f 3 13 4
f 3 7 8
f 4 13 14
f 5 15 16
f 5 16 6
f 6 16 17
f 6 17 18
f 7 19 9
f 7 9 8
f 7 18 20
f 7 20 19
f 9 21 11
f 9 11 10
f 9 19 22
f 9 22 23
f 9 23 21
f 11 21 24
f 11 24 25
f 11 25 12
f 12 25 26
f 12 26 13
f 13 26 14
f 14 26 27
f 14 27 28
f 15 29 30
f 15 30 16
f 16 30 17
f 17 30 31
f 17 31 32
f 17 32 18
f 18 32 20
f 19 20 22
f 20 32 33
f 20 33 22
f 21 34 24
f 21 23 35
f 21 35 34
f 22 33 36
f 22 36 23
f 23 36 49
f 23 49 35
f 24 34 37
f 24 37 38
f 24 38 25
f 25 38 26
f 26 38 39
f 26 39 27
f 27 39 28
f 28 39 40
f 28 40 41
f 29 42 62
f 29 62 76
f 29 76 87
f 29 87 93
f 29 93 91
f 29 91 90
f 29 90 89
f 29 89 82
f 29 82 81
f 29 81 65
f 29 65 45
f 29 45 44
f 29 44 43
f 29 43 31
f 29 31 30
f 31 43 32
f 32 43 44
f 32 44 45
f 32 45 46
f 32 46 36
f 32 36 33
f 34 47 37
f 34 35 47
f 35 48 47
f 35 49 50
f 35 50 48
f 36 46 49
f 37 51 52
f 37 52 38
f 37 47 51
f 38 52 39
f 39 52 53
f 39 53 54
f 39 54 55
f 39 55 56
f 39 56 57
f 39 57 40
f 40 58 41
f 40 57 72
f 40 72 71
f 40 71 85
f 40 85 88
f 40 88 76
f 40 76 62
f 40 62 77
f 40 77 80
f 40 80 73
f 40 73 59
f 40 59 58
f 41 58 59
f 41 59 60
f 41 60 61
f 42 63 64
f 42 64 62
f 45 65 46
f 46 65 66
f 46 66 49
f 47 48 67
f 47 67 51
f 48 50 67
f 49 66 50
f 50 66 68
f 50 68 67
f 51 69 52
f 51 67 70
f 51 70 69
f 52 69 53
f 53 69 71
f 53 71 72
f 53 72 54
f 54 72 55
f 55 72 57
f 55 57 56
f 59 73 60
f 60 74 61
f 60 73 75
f 60 75 74
f 62 64 77
f 63 78 79
f 63 79 64
f 64 79 80
f 64 80 77
f 65 81 66
f 66 81 82
f 66 82 83
f 66 83 68
f 67 68 70
f 68 83 84
f 68 84 70
f 69 70 85
f 69 85 71
f 70 84 85
f 73 80 79
f 73 79 75
f 74 75 86
f 75 79 86
f 76 88 87
f 78 86 79
f 82 89 83
f 83 89 90
f 83 90 91
f 83 91 92
f 83 92 84
f 84 92 88
f 84 88 85
f 87 88 93
f 88 92 93
f 91 93 92

