# https://github.com/mikedh/trimesh
v -167.29799564 -1.15947707 130.66304717
v -167.18379046 -1.08851854 133.38245275
v -167.29799564 1.14667902 130.66304717
v -166.87788331 -0.46762983 128.19354883
v -162.66753050 -97.66322144 130.46932178
v -160.95035070 -1.85132362 134.00396516
v -167.18379046 1.07572049 133.38245275
v -161.31438042 -97.66322144 133.27010558
v -160.94321632 -94.32816974 133.41773870
v -162.52273681 83.52965963 130.66304717
v -166.87788331 0.45483247 128.19354883
v -164.77627410 -2.02872029 126.64731844
v -160.78107738 -97.66322144 128.11072608
v -160.95035070 1.83852557 134.00396516
v -157.94427434 -97.66322144 133.41773870
v -157.94427434 -46.23595408 133.41846096
v -160.94423079 83.52965963 133.41773870
v -162.39629180 83.52965963 130.88486348
v -160.83206558 83.52965963 128.33038113
v -160.68420641 83.52965963 128.12657168
v -164.77627410 2.01592224 126.64731844
v -161.08801002 -4.44131383 126.64731844
v -158.12577645 -97.66322144 128.11072608
v -157.94528881 83.52965963 133.41773870
v -157.94427434 -8.20212155 133.41846096
v -156.96943377 -97.66322144 130.66376943
v -156.88173715 -1.85132362 130.66304717
v -156.88072268 1.83852557 130.66304717
v -158.12577645 83.52965963 128.12657168
v -161.08801002 4.42851578 126.64731844
v -162.10363894 3.77214884 126.64731844
v -159.78279370 -4.01556230 126.64731844
v -158.21652750 -1.56748914 126.64731844
v -156.96943377 83.52965963 130.66304717
v -158.21652750 1.55469075 126.64731844
f 1 2 7
f 1 7 3
f 1 3 11
f 1 11 4
f 1 4 5
f 1 5 2
f 2 6 14
f 2 14 7
f 2 5 8
f 2 8 9
f 2 9 6
f 3 10 11
f 3 7 10
f 4 11 21
f 4 21 12
f 4 12 13
f 4 13 5
f 5 13 23
f 5 23 26
f 5 26 15
f 5 15 8
f 6 9 15
f 6 15 16
f 6 16 25
f 6 25 14
f 7 14 17
f 7 17 18
f 7 18 10
f 8 15 9
f 10 18 17
f 10 17 24
f 10 24 34
f 10 34 29
f 10 29 20
f 10 20 19
f 10 19 11
f 11 19 20
f 11 20 21
f 12 21 31
f 12 31 30
f 12 30 35
f 12 35 33
f 12 33 32
f 12 32 22
f 12 22 13
f 13 22 23
f 14 24 17
f 14 25 24
f 15 26 27
f 15 27 28
f 15 28 16
f 16 28 25
f 20 29 30
f 20 30 31
f 20 31 21
f 22 32 23
f 23 32 33
f 23 33 26
f 24 28 34
f 24 25 28
f 26 33 27
f 27 33 28
f 28 33 35
f 28 35 34
f 29 34 35
f 29 35 30

