# https://github.com/mikedh/trimesh
v -157.63392337 123.14697817 126.64659066
v -155.34009393 122.17824648 115.18225947
v -155.26052411 122.29449164 112.16343605
v -155.16444708 122.42364925 108.46178537
v -155.06687040 122.53990543 104.76013192
v -154.97229302 122.65615059 101.05848124
v -157.32617473 123.26322333 119.55475673
v -157.25111490 123.50863712 108.46178537
v -157.25111490 123.58613389 104.76013192
v -161.15423734 123.14697817 126.64659066
v -156.72569606 120.24078310 126.64659066
v -151.64714344 122.17824648 44.75504825
v -155.34009393 121.77782812 115.18225947
v -151.57208360 122.28156816 41.86799856
v -151.47450692 122.41073679 38.16634788
v -151.28235286 122.64322711 30.77502444
v -154.87771564 122.74655981 97.35683056
v -157.25111490 123.41821687 112.16343605
v -154.78464895 122.83696903 93.65517987
v -154.69608121 122.91447683 89.95352643
v -154.60900210 122.97906115 86.26385505
v -154.34479853 123.13405469 75.15890162
v -157.25111490 123.65070718 101.05848124
v -154.15864309 123.21155146 67.75559853
v -160.53273044 123.26322333 119.55475673
v -160.43966374 123.25029985 115.85310605
v -160.34958532 123.22447494 112.16343605
v -160.25651863 123.18572656 108.46178537
v -159.89922631 122.97906115 93.65517987
v -159.81365788 122.91447683 89.95352643
v -159.72359049 122.84989251 86.26385505
v -159.63051277 122.75947226 82.56220437
v -159.53744607 122.65615059 78.86055231
v -159.44136904 122.55280686 75.15890162
v -159.34529201 122.43656170 71.45725025
v -161.19927104 123.00488606 126.64659066
v -158.21488450 -1.56103395 126.64659066
v -156.60560253 -1.84519613 115.85310605
v -155.32057639 -8.21299266 106.72476273
v -150.58579715 120.24078310 15.96842170
v -151.64714344 121.81657651 44.75504825
v -150.35310836 1.78431684 14.06368604
v -150.35310836 101.74446074 13.53659112
v -150.35310836 104.30192034 13.32096087
v -150.35310836 -4.10557007 14.03972468
v -151.09619741 122.82406761 23.37172307
v -151.00613002 122.90156438 19.67007239
v -153.55066614 123.63779473 30.77502444
v -153.55066614 123.68945557 27.07337100
v -157.25111490 123.72820395 93.65517987
v -153.55066614 123.50863712 38.16634788
v -157.25111490 123.74112743 89.95352643
v -157.25111490 123.72820395 86.26385505
v -157.25111490 123.65070718 78.86055231
v -156.66114482 123.22447494 41.86799856
v -156.56956675 123.18572656 38.16634788
v -156.38492198 123.09530631 30.77502444
v -156.21078581 122.99197360 23.37172307
v -156.12521738 122.92738928 19.67007239
v -159.24921498 122.30740409 67.75559853
v -162.11199730 120.05994260 126.64659066
v -159.78063244 -4.00223737 126.64659066
v -157.88912901 -8.21299266 118.60838200
v -156.77523974 -8.21299266 115.85310605
v -150.35310836 -8.21299266 11.42820038
v -150.35310836 112.62009822 8.58907067
v -150.35310836 111.71593982 6.74423292
v -150.84850106 120.51202180 12.06311594
v -151.03465651 122.82406761 15.96842170
v -150.35310836 105.23190365 13.03344653
v -150.35310836 -1.76769936 14.06368604
v -153.55066614 123.72820395 19.67007239
v -153.55066614 123.71529150 23.37172307
v -155.97509771 122.75947226 15.96842170
v -159.10209462 122.10073868 62.16119322
v -165.68935322 105.43856906 126.64659066
v -161.08667577 -4.42848064 126.64659066
v -160.87500417 -8.21299266 118.66827991
v -150.35310836 -8.21299266 7.13955687
v -150.35310836 110.95387354 5.59420862
v -150.79445842 116.77917613 8.28959219
v -151.09619741 119.45286986 9.34378204
v -151.30636936 122.50115704 13.16522853
v -153.55066614 123.48279016 15.96842170
v -155.71238277 122.43656170 13.33293604
v -156.05465650 120.42160155 12.17092555
v -159.15763691 107.36310896 17.21428043
v -159.49090170 105.43856906 19.67007239
v -162.85658601 0.13101564 72.24789402
v -162.85658601 -0.11439816 72.24789402
v -164.77662696 -2.01311315 126.64659066
v -161.96637659 -8.21299266 116.70364634
v -150.52574487 -8.21299266 5.64213136
v -150.35310836 -7.46383883 5.66608170
v -151.25532603 115.70711174 6.26506072
v -150.35310836 105.94229807 4.28845199
v -153.55066614 119.86620067 8.93648292
v -153.55066614 121.71324380 10.96100336
v -153.55066614 117.86415298 7.07965897
v -153.55066614 122.66906304 12.80584111
v -155.85500418 119.31079980 9.51148955
v -158.96848216 106.35562888 14.74651331
v -159.23269675 105.25772855 15.98039687
v -159.11710217 103.88858953 14.06368604
v -159.43985836 0.67350406 15.96842170
v -159.43985836 -0.66980455 15.96842170
v -159.59148871 -0.92813079 19.67007239
v -159.26422254 -8.21299266 46.95926791
v -160.95157468 -8.21299266 82.56220437
v -162.34017611 -8.21299266 115.85310605
v -153.55066614 -8.21299266 4.73168765
v -150.35310836 -1.84519613 4.59991667
v -153.55066614 112.83966505 5.19888467
v -153.55066614 116.01710985 6.13328975
v -150.35310836 105.43856906 4.26449062
v -153.55066614 109.14557879 4.75564901
v -155.68236766 115.44878549 6.39683170
v -156.02614104 116.62417156 8.39740180
v -155.91805576 112.83966505 6.07339184
v -157.13252102 105.43856906 8.56512033
v -159.25671325 0.33767553 13.66836209
v -159.25671325 -0.32105805 13.66836209
v -156.03064000 -8.21299266 5.85776160
v -153.55066614 -1.84519613 4.68377594
v -153.55066614 105.43856906 4.64782838
v -156.02313071 109.14557879 5.88171194
v -156.03363931 105.43856906 5.85776160
v -156.03664964 1.86181361 5.85776160
v -156.03664964 -1.84519613 5.85776160
f 1 2 3
f 1 3 4
f 1 4 5
f 1 5 6
f 1 6 7
f 1 7 8
f 1 8 9
f 1 9 10
f 1 10 36
f 1 36 61
f 1 61 76
f 1 76 91
f 1 91 77
f 1 77 62
f 1 62 37
f 1 37 11
f 1 11 2
f 2 12 3
f 2 11 13
f 2 13 41
f 2 41 12
f 3 12 14
f 3 14 15
f 3 15 4
f 4 15 5
f 5 15 16
f 5 16 6
f 6 16 17
f 6 17 7
f 7 18 8
f 7 17 19
f 7 19 20
f 7 20 21
f 7 21 18
f 8 18 21
f 8 21 22
f 8 22 9
f 9 23 10
f 9 22 24
f 9 24 23
f 10 23 25
f 10 25 26
f 10 26 27
f 10 27 28
f 10 28 29
f 10 29 30
f 10 30 31
f 10 31 32
f 10 32 33
f 10 33 34
f 10 34 35
f 10 35 36
f 11 37 38
f 11 38 39
f 11 39 13
f 12 40 15
f 12 15 14
f 12 41 71
f 12 71 42
f 12 42 43
f 12 43 44
f 12 44 40
f 13 39 45
f 13 45 41
f 15 40 16
f 16 46 19
f 16 19 17
f 16 40 46
f 19 46 47
f 19 47 20
f 20 47 21
f 21 47 22
f 22 47 24
f 23 48 49
f 23 49 50
f 23 50 25
f 23 24 48
f 24 51 48
f 24 47 51
f 25 50 52
f 25 52 53
f 25 53 26
f 26 53 54
f 26 54 27
f 27 54 55
f 27 55 56
f 27 56 28
f 28 56 57
f 28 57 58
f 28 58 29
f 29 58 59
f 29 59 30
f 30 59 31
f 31 59 32
f 32 59 33
f 33 59 34
f 34 59 35
f 35 60 36
f 35 59 60
f 36 60 61
f 37 62 63
f 37 63 64
f 37 64 39
f 37 39 38
f 39 64 63
f 39 63 78
f 39 78 92
f 39 92 110
f 39 110 109
f 39 109 108
f 39 108 123
f 39 123 111
f 39 111 93
f 39 93 79
f 39 79 65
f 39 65 45
f 40 66 67
f 40 67 68
f 40 68 69
f 40 69 47
f 40 47 46
f 40 44 70
f 40 70 66
f 41 45 71
f 42 71 45
f 42 45 65
f 42 65 79
f 42 79 94
f 42 94 112
f 42 112 115
f 42 115 96
f 42 96 80
f 42 80 67
f 42 67 66
f 42 66 70
f 42 70 44
f 42 44 43
f 47 69 72
f 47 72 73
f 47 73 49
f 47 49 48
f 47 48 51
f 49 73 50
f 50 73 72
f 50 72 52
f 52 72 53
f 53 72 54
f 54 72 55
f 55 72 56
f 56 72 57
f 57 72 58
f 58 72 59
f 59 74 75
f 59 75 60
f 59 72 74
f 60 75 61
f 61 75 76
f 62 77 63
f 63 77 78
f 67 80 68
f 68 80 81
f 68 81 82
f 68 82 83
f 68 83 69
f 69 83 84
f 69 84 72
f 72 84 74
f 74 84 85
f 74 85 86
f 74 86 87
f 74 87 75
f 75 87 76
f 76 87 88
f 76 88 89
f 76 89 90
f 76 90 91
f 77 91 78
f 78 91 92
f 79 93 94
f 80 95 81
f 80 96 95
f 81 95 82
f 82 97 98
f 82 98 83
f 82 95 99
f 82 99 97
f 83 100 84
f 83 98 100
f 84 100 85
f 85 100 98
f 85 98 101
f 85 101 86
f 86 101 102
f 86 102 87
f 87 102 103
f 87 103 88
f 88 103 104
f 88 104 105
f 88 105 89
f 89 105 106
f 89 106 90
f 90 106 107
f 90 107 108
f 90 108 109
f 90 109 91
f 91 109 110
f 91 110 92
f 93 111 112
f 93 112 94
f 95 113 114
f 95 114 99
f 95 96 113
f 96 115 116
f 96 116 113
f 97 99 101
f 97 101 98
f 99 114 117
f 99 117 101
f 101 117 118
f 101 118 102
f 102 118 117
f 102 117 104
f 102 104 103
f 104 117 119
f 104 119 120
f 104 120 121
f 104 121 105
f 105 121 122
f 105 122 106
f 106 122 123
f 106 123 108
f 106 108 107
f 111 123 124
f 111 124 112
f 112 124 115
f 113 116 119
f 113 119 117
f 113 117 114
f 115 125 116
f 115 124 125
f 116 126 119
f 116 125 126
f 119 126 120
f 120 126 127
f 120 127 121
f 121 128 129
f 121 129 122
f 121 127 128
f 122 129 123
f 123 129 124
f 124 129 125
f 125 127 126
f 125 129 128
f 125 128 127

