# https://github.com/mikedh/trimesh
v -149.83901410 166.69107728 132.89879262
v -149.83901410 166.69107728 131.54937513
v -150.35310836 166.68862932 132.89639979
v -150.35310836 166.48090533 133.15001205
v -150.35310836 165.17106876 134.74825614
v -149.83901410 165.17351672 134.74825614
v -0.29464872 164.23023502 134.09268727
v -0.29464872 164.98045846 130.66411677
v -149.83901410 166.23653909 129.69991161
v -150.35310836 166.29762789 129.95591670
v -150.35310836 166.68862932 131.55416079
v -150.35310836 163.32116967 136.49723741
v -149.83901410 163.32361764 136.49963024
v -0.29464872 162.32901693 134.99469543
v -0.29464872 163.54844428 128.27871478
v -149.83901410 164.38664000 127.74995480
v -150.35310836 164.38419204 127.75234763
v -150.35310836 166.23409113 129.70469175
v -150.35310836 160.94831073 136.75084967
v -149.83901410 160.94831073 136.75563533
v -1.85163582 160.94831073 135.65025879
v -0.29464872 160.94831073 135.62155036
v -0.29464872 146.02691839 112.31540547
v -1.85163582 147.06305727 112.31540547
v -112.83849620 147.18280897 112.31540547
v -57.35975103 147.15592548 112.31540547
v -141.96593542 146.49122637 112.31540547
v -150.35310836 161.41506668 126.86230912
v -150.35310836 160.64040773 136.71256993
v -150.35310836 158.66343511 136.46613064
v -149.83901410 158.65853918 136.46852347
v -1.85163582 149.85135315 134.45875697
v -0.29464872 158.80516334 135.31530138
v -0.29464872 142.75965982 112.31540547
v -142.27438977 142.74744206 112.31540547
v -150.35310836 160.94831073 126.72592892
v -150.35310836 156.81352499 134.46832828
v -141.08461365 143.97663920 132.84137025
v -141.74560773 146.15155498 133.44190957
v -112.83849620 146.15155498 133.64767078
v -112.83849620 149.85135315 134.53292363
v -57.35975103 149.85135315 134.51856665
v -1.63130813 145.85830667 133.39166569
v -0.29464872 146.56209600 133.12847660
v -57.35975103 146.15155498 133.63092098
v -0.29464872 142.82074862 114.54529291
v -1.85163582 141.82371098 112.31540547
v -142.25970199 142.60815076 112.31540547
v -150.35310836 158.11603973 127.64468137
v -150.35310836 156.61314490 134.21710333
v -150.35310836 155.34484651 132.61885924
v -141.71623218 143.43657669 130.66411677
v -112.83849620 143.27040191 130.66411677
v -85.63525506 143.97419124 132.84376308
v -84.59236773 143.97419124 132.84376308
v -29.17238194 143.99129390 132.82701328
v -2.71826430 144.09637987 132.71934702
v -0.29464872 144.48737027 132.41788369
v -0.29464872 143.19219942 125.71386718
v -0.29464872 143.25085129 126.96279689
v -1.85163582 142.52994827 126.96279689
v -57.35975103 141.74795646 112.31540547
v -127.64456965 142.08763887 112.31540547
v -142.24501422 142.70345591 115.86599921
v -150.35310836 155.34484651 132.25279506
v -150.35310836 155.82382022 130.40332602
v -150.35310836 156.07551932 130.03726185
v -150.35310836 157.67371930 127.78823454
v -142.18626311 142.90139907 123.26625716
v -142.14219977 143.00403709 126.96279689
v -112.83849620 142.45664171 126.96279689
v -57.35975103 143.28750457 130.66411677
v -1.63130813 143.50499835 130.95122864
v -0.29464872 144.42383350 132.38438409
v -0.29464872 143.48789569 129.07305117
v -57.35975103 142.47374437 126.96279689
v -112.83849620 141.72840583 112.31540547
v -0.29464872 143.75426052 130.24063022
v -0.29464872 144.39451308 132.31978875
f 1 2 11
f 1 11 3
f 1 3 4
f 1 4 5
f 1 5 6
f 1 6 7
f 1 7 8
f 1 8 2
f 2 9 10
f 2 10 11
f 2 8 9
f 3 11 10
f 3 10 18
f 3 18 17
f 3 17 28
f 3 28 36
f 3 36 49
f 3 49 68
f 3 68 67
f 3 67 66
f 3 66 65
f 3 65 51
f 3 51 50
f 3 50 37
f 3 37 30
f 3 30 29
f 3 29 19
f 3 19 12
f 3 12 5
f 3 5 4
f 5 12 13
f 5 13 6
f 6 13 7
f 7 14 22
f 7 22 33
f 7 33 44
f 7 44 58
f 7 58 74
f 7 74 79
f 7 79 78
f 7 78 75
f 7 75 60
f 7 60 59
f 7 59 46
f 7 46 34
f 7 34 23
f 7 23 15
f 7 15 8
f 7 13 14
f 8 15 9
f 9 16 17
f 9 17 18
f 9 18 10
f 9 15 16
f 12 19 20
f 12 20 13
f 13 20 21
f 13 21 14
f 14 21 22
f 15 23 24
f 15 24 16
f 16 25 17
f 16 24 26
f 16 26 25
f 17 27 28
f 17 25 27
f 19 29 20
f 20 29 30
f 20 30 31
f 20 31 32
f 20 32 21
f 21 32 22
f 22 32 33
f 23 34 47
f 23 47 62
f 23 62 77
f 23 77 63
f 23 63 48
f 23 48 35
f 23 35 27
f 23 27 25
f 23 25 26
f 23 26 24
f 27 35 36
f 27 36 28
f 30 37 38
f 30 38 39
f 30 39 40
f 30 40 31
f 31 40 41
f 31 41 42
f 31 42 32
f 32 43 44
f 32 44 33
f 32 42 45
f 32 45 43
f 34 46 47
f 35 48 36
f 36 48 49
f 37 50 38
f 38 40 39
f 38 50 51
f 38 51 52
f 38 52 53
f 38 53 54
f 38 54 40
f 40 54 55
f 40 55 45
f 40 45 42
f 40 42 41
f 43 56 57
f 43 57 58
f 43 58 44
f 43 45 56
f 45 55 56
f 46 59 47
f 47 59 60
f 47 60 61
f 47 61 62
f 48 63 64
f 48 64 51
f 48 51 65
f 48 65 66
f 48 66 67
f 48 67 68
f 48 68 49
f 51 64 69
f 51 69 70
f 51 70 52
f 52 70 71
f 52 71 53
f 53 55 54
f 53 71 76
f 53 76 72
f 53 72 55
f 55 72 56
f 56 72 73
f 56 73 57
f 57 73 74
f 57 74 58
f 60 75 61
f 61 75 73
f 61 73 72
f 61 72 76
f 61 76 62
f 62 76 77
f 63 77 70
f 63 70 69
f 63 69 64
f 70 77 71
f 71 77 76
f 73 75 78
f 73 78 79
f 73 79 74

