# https://github.com/mikedh/trimesh
v -160.95508122 -102.57116648 123.33169055
v -163.91472348 -102.69554946 123.33169055
v -159.02790590 -103.47584314 123.33169055
v -157.88813659 -8.21299817 118.60868800
v -160.87532395 -8.21299817 118.66284642
v -164.83117683 -105.38698541 123.33169055
v -156.51780667 -120.24636269 123.33169055
v -156.77446786 -8.21299817 115.85721080
v -161.96580320 -8.21299817 116.70214945
v -164.85003276 -105.44352012 123.33169055
v -156.53375151 -120.30289740 123.33169055
v -155.34032549 -122.18011002 115.17475844
v -155.34032549 -121.78431191 115.17475844
v -155.32146956 -8.21299817 106.72534715
v -162.33992250 -8.21299817 115.85721080
v -164.51505881 -105.44352012 115.85721080
v -162.82569978 -107.32073273 83.83610578
v -159.10186305 -122.10094819 62.17094716
v -159.34547947 -122.44020056 71.45446769
v -159.53689473 -122.66638351 78.86395203
v -161.51047107 -120.23504913 123.33169055
v -160.95073664 -8.21299817 82.55786116
v -157.49371684 -123.19787816 123.33169055
v -155.26056822 -122.29319047 112.16330097
v -151.57153226 -122.28188794 41.87069463
v -151.64694495 -122.16880749 44.74132808
v -157.49081678 -123.20919171 123.25586435
v -151.64694495 -121.81824156 44.74132808
v -150.03588765 -101.74564062 12.66605913
v -150.61302247 -8.21299817 12.66605913
v -162.84890029 -103.43061096 79.71972525
v -162.84890029 -104.38051980 79.71972525
v -162.91125719 -105.54529803 82.59035870
v -159.49049370 -105.44352012 19.67473675
v -159.15696427 -107.35466238 17.21574149
v -155.97546159 -122.75684787 15.96999854
v -156.12483144 -122.92646303 19.67473675
v -159.63115233 -122.75684787 82.55786116
v -159.72395438 -122.84731223 86.26260350
v -159.81241185 -122.91516050 89.95651333
v -159.89941377 -122.98300877 93.66125567
v -160.25614371 -123.18656460 108.45856001
v -160.34894577 -123.22049425 112.16330097
v -160.53310535 -123.26572642 119.56195452
v -160.62446289 -123.14133242 123.33169055
v -159.26427767 -8.21299817 46.96200532
v -160.60706250 -123.19787816 123.33169055
v -155.16341055 -122.42889803 108.45856001
v -151.37867248 -122.53067595 34.47204108
v -150.58692189 -120.24636269 15.96999854
v -160.59546224 -123.20919171 123.25586435
v -157.25010043 -123.51451444 108.45856001
v -157.32695764 -123.26572642 119.56195452
v -154.97200632 -122.65506995 101.05990646
v -150.80733779 -120.46121003 12.66605913
v -156.46414997 -8.21299817 12.66605913
v -159.11781892 -103.55500497 14.06345999
v -159.11781892 -103.89425734 14.06345999
v -159.23237697 -105.25127784 15.98082692
v -158.96700456 -106.35951034 14.74591235
v -156.09001964 -120.39337279 12.66605913
v -153.55090873 -123.49189835 15.96999854
v -153.55090873 -123.72937280 19.67473675
v -155.90586005 -121.29803842 12.66605913
v -155.71300028 -122.44020056 13.32684921
v -156.38439269 -123.09610024 30.76730012
v -159.98497118 -123.03955450 97.35516550
v -156.56855228 -123.18656460 38.16595091
v -156.66136536 -123.22049425 41.87069463
v -157.25010043 -123.59367626 75.15920969
v -157.25010043 -123.65022200 78.86395203
v -157.25010043 -123.69545418 82.55786116
v -157.25010043 -123.72937280 86.26260350
v -157.25010043 -123.74068636 89.95651333
v -157.25010043 -123.71805924 93.66125567
v -157.25010043 -123.69545418 97.35516550
v -157.25010043 -123.65022200 101.05990646
v -151.28297037 -122.64375640 30.76730012
v -151.18871277 -122.73422075 27.07339029
v -151.09589969 -122.82469614 23.36864658
v -151.00599770 -122.90385797 19.67473675
v -151.03499834 -122.82469614 15.96999854
v -150.87693933 -120.86832169 12.66605913
v -157.25010043 -123.42403905 112.16330097
v -154.15995528 -123.22049425 67.77139072
v -154.43691692 -123.08478668 78.86395203
v -154.69503366 -122.91516050 89.95651333
v -154.78493564 -122.83599867 93.66125567
v -154.87774872 -122.74553431 97.35516550
v -158.44932657 -105.18342957 12.66605913
v -158.43627077 -105.28520749 12.66605913
v -153.55090873 -122.66638351 12.80688315
v -151.30617088 -122.50805986 13.16435741
v -153.55090873 -123.71805924 23.36864658
v -153.55090873 -122.59852422 12.66605913
v -153.55090873 -123.68414062 27.07339029
v -153.55090873 -123.63890844 30.76730012
v -153.55090873 -123.58236270 34.47204108
v -151.10025530 -121.61468573 12.66605913
v -151.80644848 -122.32712012 12.66605913
f 1 2 6
f 1 6 10
f 1 10 21
f 1 21 45
f 1 45 47
f 1 47 23
f 1 23 11
f 1 11 7
f 1 7 3
f 1 3 4
f 1 4 5
f 1 5 2
f 2 5 6
f 3 7 4
f 4 8 14
f 4 14 30
f 4 30 56
f 4 56 46
f 4 46 22
f 4 22 15
f 4 15 9
f 4 9 5
f 4 7 8
f 5 9 10
f 5 10 6
f 7 11 12
f 7 12 13
f 7 13 14
f 7 14 8
f 9 15 10
f 10 16 17
f 10 17 18
f 10 18 19
f 10 19 20
f 10 20 21
f 10 15 22
f 10 22 16
f 11 23 12
f 12 24 25
f 12 25 26
f 12 26 28
f 12 28 13
f 12 23 27
f 12 27 24
f 13 28 29
f 13 29 14
f 14 29 30
f 16 22 31
f 16 31 32
f 16 32 33
f 16 33 17
f 17 33 34
f 17 34 35
f 17 35 18
f 18 36 37
f 18 37 19
f 18 35 36
f 19 37 20
f 20 37 38
f 20 38 21
f 21 38 39
f 21 39 40
f 21 40 41
f 21 41 42
f 21 42 43
f 21 43 44
f 21 44 45
f 22 46 31
f 23 47 51
f 23 51 27
f 24 48 25
f 24 27 48
f 25 48 49
f 25 49 50
f 25 50 26
f 26 50 29
f 26 29 28
f 27 51 52
f 27 52 53
f 27 53 54
f 27 54 48
f 29 50 55
f 29 55 83
f 29 83 99
f 29 99 100
f 29 100 95
f 29 95 64
f 29 64 61
f 29 61 91
f 29 91 90
f 29 90 56
f 29 56 30
f 31 34 32
f 31 46 34
f 32 34 33
f 34 46 57
f 34 57 58
f 34 58 59
f 34 59 35
f 35 59 60
f 35 60 61
f 35 61 36
f 36 62 63
f 36 63 37
f 36 61 64
f 36 64 65
f 36 65 62
f 37 63 66
f 37 66 41
f 37 41 40
f 37 40 39
f 37 39 38
f 41 66 67
f 41 67 42
f 42 67 66
f 42 66 68
f 42 68 69
f 42 69 43
f 43 69 70
f 43 70 71
f 43 71 44
f 44 71 72
f 44 72 73
f 44 73 74
f 44 74 75
f 44 75 76
f 44 76 77
f 44 77 51
f 44 51 47
f 44 47 45
f 46 56 57
f 48 54 49
f 49 54 78
f 49 78 50
f 50 78 79
f 50 79 80
f 50 80 81
f 50 81 82
f 50 82 83
f 50 83 55
f 51 77 52
f 52 84 53
f 52 77 85
f 52 85 86
f 52 86 84
f 53 84 87
f 53 87 88
f 53 88 89
f 53 89 54
f 54 89 79
f 54 79 78
f 56 90 57
f 57 90 58
f 58 90 91
f 58 91 60
f 58 60 59
f 60 91 61
f 62 92 93
f 62 93 82
f 62 82 63
f 62 65 92
f 63 82 81
f 63 81 94
f 63 94 74
f 63 74 73
f 63 73 72
f 63 72 71
f 63 71 70
f 63 70 68
f 63 68 66
f 64 95 65
f 65 95 92
f 68 70 69
f 74 94 75
f 75 94 76
f 76 96 77
f 76 94 96
f 77 96 97
f 77 97 98
f 77 98 85
f 79 89 88
f 79 88 80
f 80 88 81
f 81 88 87
f 81 87 86
f 81 86 85
f 81 85 98
f 81 98 97
f 81 97 96
f 81 96 94
f 82 93 99
f 82 99 83
f 84 86 87
f 92 95 93
f 93 100 99
f 93 95 100

