# https://github.com/mikedh/trimesh
v 165.07984355 -105.41766213 134.58108344
v 164.64821917 -105.41766213 134.58108344
v 165.07984355 -120.24006636 134.43229802
v 165.07984355 -102.64528903 133.63138411
v 163.39231497 1.11154606 133.35386010
v 160.30900648 99.23630223 133.42245268
v 158.44563257 99.23630223 133.65670729
v 157.25067383 99.23630223 133.67887128
v 160.94944650 -105.41766213 134.29511837
v 164.64821917 -120.24006636 134.42913331
v 165.07984355 -123.18708286 133.75484634
v 165.07984355 -102.42699029 130.66304717
v 163.44226665 1.11154606 130.66304717
v 161.13528217 99.23630223 130.66304717
v 160.70466124 99.23630223 132.26381641
v 155.79693673 99.23630223 133.13331739
v 157.25067383 1.83192806 133.79599858
v 157.25067383 0.02005924 133.79599858
v 157.25166624 -1.85730018 133.79599858
v 157.25166624 -101.72843872 133.71158246
v 160.94944650 -120.24006636 134.08724000
v 160.94944650 -123.05610582 133.56173846
v 164.64821917 -123.18708286 133.74956999
v 160.94944650 -123.77649057 130.66304717
v 165.07984355 -123.42721479 131.02498730
v 165.07984355 -103.36567378 128.57054063
v 163.06359325 0.36933502 128.40381450
v 160.77360117 99.23630223 129.59093867
v 155.11053676 99.23630223 132.86001667
v 156.19559080 -0.00177119 133.33486633
v 155.11053676 -101.72843872 132.86001667
v 158.33872717 -122.68500788 133.11010585
v 157.25166624 -123.55819183 123.80093857
v 165.07984355 -123.44904797 130.66304717
v 157.16274565 -122.96879514 130.48787999
v 157.25166624 -123.47087012 126.96554810
v 165.07984355 -121.28790474 128.50933604
v 160.98840439 -105.48315065 123.80093857
v 160.32399198 -0.00177119 123.80093857
v 160.14613976 99.23630223 127.84666036
v 154.96466243 99.23630223 130.66304717
v 154.87374597 1.83192806 130.66304717
v 154.99364102 -0.00177119 131.77736097
v 154.87374597 -1.85730018 130.66304717
v 154.94168246 -101.72843872 130.66304717
v 155.28638210 -122.24841039 129.14035912
v 155.20745183 -103.95507047 132.74394243
v 157.77721741 -123.49270331 123.80093857
v 155.39329853 -122.66317470 123.80093857
v 160.29102167 -123.12159434 123.80093857
v 165.07984355 -122.46670913 128.73831981
v 155.17647738 -122.40122061 126.96554810
v 155.09255195 -122.51036447 123.80093857
v 165.07984355 -122.33573209 128.50933604
v 160.85553073 -120.21824420 123.80093857
v 157.25067383 99.23630223 127.43090364
v 158.84527905 99.23630223 127.52903717
v 154.96766174 -0.00177119 123.80093857
v 155.24442489 99.23630223 128.24342332
v 154.96766174 -1.00593976 123.80093857
f 1 2 3
f 1 3 11
f 1 11 25
f 1 25 34
f 1 34 51
f 1 51 54
f 1 54 37
f 1 37 26
f 1 26 12
f 1 12 4
f 1 4 5
f 1 5 6
f 1 6 7
f 1 7 8
f 1 8 2
f 2 9 10
f 2 10 3
f 2 8 9
f 3 10 11
f 4 12 13
f 4 13 5
f 5 13 14
f 5 14 15
f 5 15 6
f 6 15 14
f 6 14 28
f 6 28 40
f 6 40 57
f 6 57 56
f 6 56 59
f 6 59 41
f 6 41 29
f 6 29 16
f 6 16 8
f 6 8 7
f 8 16 17
f 8 17 9
f 9 17 18
f 9 18 19
f 9 19 20
f 9 20 21
f 9 21 10
f 10 21 22
f 10 22 23
f 10 23 11
f 11 23 24
f 11 24 25
f 12 26 13
f 13 27 14
f 13 26 27
f 14 27 28
f 16 29 17
f 17 29 30
f 17 30 18
f 18 30 31
f 18 31 19
f 19 31 20
f 20 31 32
f 20 32 21
f 21 32 22
f 22 24 23
f 22 32 24
f 24 33 34
f 24 34 25
f 24 32 35
f 24 35 36
f 24 36 33
f 26 37 38
f 26 38 39
f 26 39 27
f 27 40 28
f 27 39 40
f 29 41 42
f 29 42 43
f 29 43 31
f 29 31 30
f 31 44 45
f 31 45 46
f 31 46 47
f 31 47 32
f 31 43 44
f 32 47 46
f 32 46 35
f 33 48 34
f 33 36 49
f 33 49 53
f 33 53 60
f 33 60 58
f 33 58 39
f 33 39 38
f 33 38 55
f 33 55 50
f 33 50 48
f 34 48 50
f 34 50 51
f 35 46 36
f 36 46 52
f 36 52 53
f 36 53 49
f 37 54 38
f 38 54 55
f 39 56 57
f 39 57 40
f 39 58 56
f 41 59 58
f 41 58 42
f 42 58 60
f 42 60 44
f 42 44 43
f 44 60 45
f 45 60 53
f 45 53 52
f 45 52 46
f 50 55 54
f 50 54 51
f 56 58 59

