# https://github.com/mikedh/trimesh
v -186.22335106 131.34674962 130.66473428
v -186.22335106 135.04458501 130.66473428
v -185.28432573 83.54740736 128.56415607
v -185.35957303 83.54740736 128.73265201
v -186.22229248 83.54740736 130.66473428
v -186.20004028 83.54740736 130.91560085
v -185.93826263 83.54740736 133.79200686
v -185.93826263 135.04458501 133.79200686
v -185.84817318 138.74861750 133.69989950
v -186.05378001 138.74861750 130.66473428
v -185.20590271 138.74861750 128.62930827
v -185.28432573 135.04458501 128.56415607
v -183.32148955 83.54740736 127.98677867
v -183.14979032 83.54740736 135.49119083
v -183.14979032 135.04458501 135.49119083
v -183.14979032 138.74861750 135.42229500
v -183.14979032 142.44645289 135.17741602
v -185.61499921 142.44645289 133.41832312
v -185.31506862 145.17802661 132.99071804
v -185.31506862 145.17802661 131.49972118
v -185.54292765 142.45884708 130.42584287
v -185.08401180 141.23862580 128.73489597
v -183.43065546 142.45884708 128.22192094
v -183.14979032 138.74861750 127.98153539
v -183.14979032 135.04458501 127.93660094
v -183.14979032 83.54740736 127.93660094
v -179.45091840 83.54740736 134.22186142
v -175.39594507 105.45569377 134.66818460
v -179.45091840 105.45569377 135.34216833
v -179.45091840 146.14429931 135.52339477
v -179.45091840 146.81944086 135.50916461
v -182.85621120 146.81944086 134.34317893
v -183.43913512 146.30534660 134.15445974
v -183.29816774 146.81944086 134.09755012
v -184.16512151 146.81944086 130.91410671
v -184.20857837 146.81944086 130.40936874
v -184.85190743 143.70384572 129.03294648
v -184.45446632 146.30534660 130.42584287
v -182.56899458 146.14429931 128.18747303
v -179.45091840 146.14429931 127.87294839
v -180.43340058 83.54740736 128.16650545
v -179.30148240 83.54740736 134.08556392
v -177.59513097 83.54740736 132.52042798
v -175.39594507 102.32771547 133.69765002
v -175.39594507 120.24704636 134.53713589
v -178.64226363 146.81944086 135.30247715
v -182.42273431 146.81944086 128.24288851
v -179.51027599 146.81944086 127.91113992
v -176.82567669 146.81944086 128.44283856
v -175.39594507 122.37160247 128.69820410
v -175.39594507 121.47966183 128.69820410
v -175.39594507 103.51696230 128.78207439
v -180.19599229 83.54740736 128.18672320
v -177.59513097 83.54740736 132.49122334
v -175.39594507 101.83838754 131.25409237
v -175.39594507 101.90651148 133.55162132
v -175.39594507 120.53196939 134.47198368
v -175.41078723 146.81944086 130.66473428
v -175.79869010 146.81944086 132.95851961
v -176.15373293 146.81944086 133.94777228
v -175.39594507 123.96346201 130.47601508
v -175.39594507 101.83838754 130.79728265
v -178.34655633 83.54740736 130.64226705
v -178.49494479 83.54740736 130.44456648
v -175.39594507 123.88914097 133.65197125
v -175.39594507 124.11212613 130.74711043
f 1 2 12
f 1 12 3
f 1 3 4
f 1 4 5
f 1 5 6
f 1 6 7
f 1 7 8
f 1 8 2
f 2 8 9
f 2 9 10
f 2 10 11
f 2 11 12
f 3 13 26
f 3 26 41
f 3 41 53
f 3 53 64
f 3 64 63
f 3 63 54
f 3 54 43
f 3 43 42
f 3 42 27
f 3 27 14
f 3 14 7
f 3 7 6
f 3 6 5
f 3 5 4
f 3 12 13
f 7 14 15
f 7 15 8
f 8 15 16
f 8 16 9
f 9 16 17
f 9 17 18
f 9 18 10
f 10 18 19
f 10 19 20
f 10 20 21
f 10 21 22
f 10 22 11
f 11 22 23
f 11 23 24
f 11 24 12
f 12 24 25
f 12 25 13
f 13 25 26
f 14 27 28
f 14 28 29
f 14 29 30
f 14 30 15
f 15 30 16
f 16 30 31
f 16 31 17
f 17 31 32
f 17 32 33
f 17 33 18
f 18 33 19
f 19 33 34
f 19 34 35
f 19 35 36
f 19 36 20
f 20 37 21
f 20 36 38
f 20 38 37
f 21 37 22
f 22 37 39
f 22 39 23
f 23 39 24
f 24 39 40
f 24 40 25
f 25 40 26
f 26 40 41
f 27 42 28
f 28 42 43
f 28 43 44
f 28 44 56
f 28 56 55
f 28 55 62
f 28 62 52
f 28 52 51
f 28 51 50
f 28 50 61
f 28 61 66
f 28 66 65
f 28 65 57
f 28 57 45
f 28 45 46
f 28 46 30
f 28 30 29
f 30 46 31
f 31 46 60
f 31 60 59
f 31 59 58
f 31 58 49
f 31 49 48
f 31 48 47
f 31 47 36
f 31 36 35
f 31 35 34
f 31 34 32
f 32 34 33
f 36 47 37
f 36 37 38
f 37 47 39
f 39 47 48
f 39 48 40
f 40 48 49
f 40 49 50
f 40 50 51
f 40 51 52
f 40 52 53
f 40 53 41
f 43 54 62
f 43 62 55
f 43 55 56
f 43 56 44
f 45 57 58
f 45 58 59
f 45 59 60
f 45 60 46
f 49 58 50
f 50 58 61
f 52 62 54
f 52 54 63
f 52 63 64
f 52 64 53
f 57 65 58
f 58 66 61
f 58 65 66

