# https://github.com/mikedh/trimesh
v -0.29464872 136.02425535 15.66930710
v -0.29464872 136.02425535 9.04033388
v -1.74881586 136.02425535 17.60556304
v -0.29464872 75.99847977 10.61354149
v -0.29464872 133.62675138 6.84476480
v -1.85163582 136.02425535 7.99921637
v -1.85163582 75.99847977 10.97082829
v -15.60013968 136.02425535 17.68815973
v -0.29464872 75.99847977 5.92850442
v -0.29464872 133.31530875 6.66228129
v -1.85163582 133.64437230 6.50669230
v -1.85163582 135.48951881 7.59391311
v -29.06956474 133.93230566 6.36838791
v -57.35975103 135.55415826 7.55933288
v -57.35975103 136.02425535 7.92238121
v -57.35975103 136.02425535 17.86680038
v -28.67297270 75.99847977 10.99771729
v -0.29464872 105.45018034 3.34491116
v -1.85163582 75.99847977 5.33879347
v -0.29464872 131.34677168 6.34341207
v -1.85163582 131.34677168 5.90545277
v -4.01085486 133.73839833 6.46058900
v -57.35975103 131.34677168 5.87087805
v -84.47486000 133.96169225 6.35301647
v -112.83849620 135.57177918 7.54780981
v -112.83849620 136.02425535 7.89932956
v -112.83849620 136.02425535 17.92058389
v -84.03419912 75.99847977 11.02268761
v -1.85163582 105.45018034 3.29688919
v -1.85163582 127.64473505 5.42523302
v -127.64456965 83.25563665 -1.48419183
v -127.64456965 86.95178493 -1.70125006
v -127.64456965 75.99847977 3.02989032
v -127.64456965 76.86228537 2.02526620
v -127.64456965 79.02474080 0.17545533
v -127.64456965 80.87575360 -0.92905560
v -125.03001297 80.96390232 -0.89063802
v -127.64456965 90.29536591 -1.14611382
v -112.83849620 131.34677168 5.86127366
v -85.76745608 133.96169225 6.35301647
v -141.20212689 133.95581493 6.35685933
v -141.96593542 136.02425535 8.71378446
v -141.65748107 136.02425535 17.31934987
v -150.35310836 100.17332067 13.51599845
v -141.61340671 75.99847977 11.01692608
v -127.87959614 75.99847977 11.03229201
v -129.62752985 81.14018873 -0.80419847
v -129.81848199 83.25563665 -1.00780943
v -129.90661968 86.95178493 -1.11153910
v -150.35310836 105.45018034 4.26501991
v -150.35310836 105.95554133 4.28038584
v -141.73091996 131.34677168 5.96307914
v -142.09813644 75.99847977 5.65189564
v -150.35310836 110.96209957 5.58466488
v -142.17157533 135.13105765 8.36034603
v -142.17157533 136.02425535 9.22666025
v -142.61223070 136.02425535 13.62356547
v -150.35310836 112.62507133 8.57740426
v -150.35310836 105.23864106 13.02425013
v -150.35310836 104.30431317 13.30854463
v -150.35310836 101.75403206 13.53328306
v -150.35310836 98.68075801 11.69115791
v -143.12632496 75.99847977 8.56395700
v -143.06757385 75.99847977 8.66192514
v -150.35310836 99.59745395 5.44444181
v -142.14219977 75.99847977 5.76907257
v -150.35310836 111.72013003 6.74103513
v -150.35310836 98.17539702 8.57548007
f 1 2 6
f 1 6 15
f 1 15 26
f 1 26 42
f 1 42 56
f 1 56 57
f 1 57 43
f 1 43 27
f 1 27 16
f 1 16 8
f 1 8 3
f 1 3 4
f 1 4 9
f 1 9 18
f 1 18 20
f 1 20 10
f 1 10 5
f 1 5 2
f 2 5 6
f 3 7 4
f 3 8 7
f 4 7 17
f 4 17 28
f 4 28 46
f 4 46 45
f 4 45 64
f 4 64 63
f 4 63 66
f 4 66 53
f 4 53 33
f 4 33 19
f 4 19 9
f 5 10 11
f 5 11 12
f 5 12 6
f 6 12 13
f 6 13 14
f 6 14 15
f 7 8 16
f 7 16 17
f 9 19 18
f 10 20 21
f 10 21 11
f 11 21 22
f 11 22 12
f 12 22 13
f 13 22 21
f 13 21 23
f 13 23 24
f 13 24 14
f 14 24 25
f 14 25 15
f 15 25 26
f 16 27 17
f 17 27 28
f 18 29 30
f 18 30 20
f 18 19 31
f 18 31 32
f 18 32 29
f 19 33 34
f 19 34 35
f 19 35 36
f 19 36 37
f 19 37 31
f 20 30 21
f 21 30 32
f 21 32 38
f 21 38 23
f 23 38 39
f 23 39 24
f 24 39 40
f 24 40 25
f 25 40 41
f 25 41 26
f 26 41 42
f 27 43 44
f 27 44 45
f 27 45 46
f 27 46 28
f 29 32 30
f 31 37 36
f 31 36 47
f 31 47 48
f 31 48 32
f 32 48 49
f 32 49 50
f 32 50 51
f 32 51 52
f 32 52 41
f 32 41 38
f 33 53 34
f 34 53 35
f 35 53 47
f 35 47 36
f 38 41 39
f 39 41 40
f 41 52 54
f 41 54 55
f 41 55 42
f 42 55 56
f 43 57 58
f 43 58 59
f 43 59 60
f 43 60 61
f 43 61 44
f 44 61 60
f 44 60 59
f 44 59 58
f 44 58 67
f 44 67 54
f 44 54 51
f 44 51 50
f 44 50 65
f 44 65 68
f 44 68 62
f 44 62 63
f 44 63 64
f 44 64 45
f 47 53 50
f 47 50 48
f 48 50 49
f 50 53 65
f 51 54 52
f 53 66 65
f 54 67 56
f 54 56 55
f 56 67 58
f 56 58 57
f 62 68 63
f 63 68 65
f 63 65 66

