# https://github.com/mikedh/trimesh
v 183.14873174 1.85197765 148.08958218
v 185.18942858 5.55202944 147.47401324
v 183.14873174 5.55202944 148.00474152
v 180.33913196 5.55202944 147.84296095
v 180.27032435 1.85197765 147.88833647
v 181.73003800 0.02678424 147.99093038
v 183.14873174 0.02678424 148.08958218
v 184.20745363 0.02678424 147.79955371
v 185.23441817 1.85197765 147.51544667
v 186.15419060 5.55202944 145.46356308
v 186.07742160 9.25208123 145.46356308
v 185.81008641 12.67897565 145.75753916
v 185.09281123 9.25208123 147.39115190
v 185.01339579 11.25110205 147.32407000
v 183.14873174 9.25208123 147.82520219
v 180.75733665 12.95213302 147.59436590
v 180.49132468 9.25208123 147.74825676
v 178.49033556 5.55202944 145.59180546
v 172.90292644 120.24122418 134.45837103
v 178.64252828 9.25208123 145.63916031
v 178.42151693 1.85197765 145.54642993
v 180.27032435 0.02678424 147.88833647
v 185.23441817 0.02678424 147.51544667
v 186.18594795 1.85197765 145.46356308
v 186.42150373 24.05229114 141.76228179
v 185.93846111 126.87152062 133.79347895
v 185.97948103 16.65218481 145.12224317
v 184.53698031 13.72194567 147.18596410
v 183.24269161 12.67897565 147.54504276
v 183.14873174 126.87152062 135.49023149
v 182.07015047 15.72096649 147.44442266
v 181.04053949 15.72096649 147.44442266
v 182.37056624 126.87152062 135.38960588
v 172.90292644 123.37012873 133.72639704
v 172.90292644 105.44101702 134.60436665
v 178.42151693 0.02678424 145.54642993
v 177.52689676 12.95213302 143.80232805
v 186.18594795 0.02678424 145.46356308
v 186.40694828 42.55255009 134.36564065
v 186.41356440 35.15244651 138.06297432
v 186.22299820 126.87152062 130.66435936
v 179.45112791 126.87152062 134.52742122
v 172.90292644 123.41979371 133.09504867
v 178.69943790 126.87152062 134.23739827
v 177.05576315 126.87152062 132.90169820
v 172.90292644 102.48593988 133.61393961
v 177.57851349 0.02678424 143.69776034
v 177.54278647 9.25208123 143.78851691
v 185.95169334 0.02678424 142.27919893
v 186.21505886 49.95265642 130.66435936
v 186.22299820 53.65270821 130.66435936
v 185.28470065 126.87152062 128.56512644
v 172.90292644 123.55637240 130.68606022
v 177.03459158 126.87152062 132.25851249
v 172.90292644 102.44869115 130.69987137
v 177.57851349 0.02678424 143.57149177
v 183.14873174 0.02678424 140.52720733
v 185.15764917 47.70530520 128.67758387
v 185.83128004 46.38918332 130.52427965
v 185.25955941 49.95265642 128.58682730
v 185.28470065 53.65270821 128.56512644
v 183.14873174 86.94075807 127.93575187
v 183.14873174 126.87152062 127.93772017
v 172.90292644 122.28990446 128.69928473
v 177.03459158 126.87152062 131.84221545
v 178.27198168 126.87152062 130.11193023
v 180.02681821 126.87152062 128.20210016
v 172.90292644 103.15642809 129.22606539
v 177.57057415 47.59355900 132.40451363
v 178.38182023 49.95265642 130.56965518
v 180.23061663 49.95265642 128.20998988
v 180.61176004 47.07207675 128.42701502
v 178.50092135 0.02678424 142.70733330
v 172.90292644 103.54133166 128.78609919
v 183.14873174 47.03482802 128.42109911
v 179.45112791 0.02678424 141.81752636
v 183.14873174 49.95265642 127.98112740
v 183.14873174 53.65270821 127.93772017
v 183.14873174 83.24070628 127.93575187
v 180.81291202 126.87152062 128.13501826
v 172.90292644 121.49526484 128.69928473
v 180.19488961 53.65270821 128.18828902
f 1 2 3
f 1 3 4
f 1 4 5
f 1 5 6
f 1 6 7
f 1 7 8
f 1 8 9
f 1 9 2
f 2 9 10
f 2 10 11
f 2 11 12
f 2 12 13
f 2 13 3
f 3 13 14
f 3 14 15
f 3 15 16
f 3 16 17
f 3 17 4
f 4 18 5
f 4 17 19
f 4 19 20
f 4 20 18
f 5 18 21
f 5 21 36
f 5 36 22
f 5 22 6
f 6 22 36
f 6 36 47
f 6 47 56
f 6 56 73
f 6 73 76
f 6 76 57
f 6 57 49
f 6 49 38
f 6 38 23
f 6 23 8
f 6 8 7
f 8 23 9
f 9 23 38
f 9 38 24
f 9 24 10
f 10 24 25
f 10 25 26
f 10 26 11
f 11 27 12
f 11 26 27
f 12 27 13
f 13 27 14
f 14 28 29
f 14 29 15
f 14 27 26
f 14 26 30
f 14 30 28
f 15 29 31
f 15 31 32
f 15 32 16
f 16 32 19
f 16 19 17
f 18 20 19
f 18 19 21
f 19 33 34
f 19 34 43
f 19 43 53
f 19 53 64
f 19 64 81
f 19 81 74
f 19 74 68
f 19 68 55
f 19 55 46
f 19 46 35
f 19 35 21
f 19 32 33
f 21 35 37
f 21 37 36
f 24 38 25
f 25 38 39
f 25 39 40
f 25 40 41
f 25 41 26
f 26 41 52
f 26 52 63
f 26 63 80
f 26 80 67
f 26 67 66
f 26 66 65
f 26 65 54
f 26 54 45
f 26 45 44
f 26 44 42
f 26 42 33
f 26 33 30
f 28 30 29
f 29 30 31
f 30 33 32
f 30 32 31
f 33 42 34
f 34 42 44
f 34 44 45
f 34 45 43
f 35 46 47
f 35 47 48
f 35 48 37
f 36 37 48
f 36 48 47
f 38 49 39
f 39 49 50
f 39 50 51
f 39 51 41
f 39 41 40
f 41 51 61
f 41 61 52
f 43 45 53
f 45 54 53
f 46 55 47
f 47 55 56
f 49 57 58
f 49 58 59
f 49 59 50
f 50 58 60
f 50 60 61
f 50 61 51
f 50 59 58
f 52 62 63
f 52 61 79
f 52 79 62
f 53 54 65
f 53 65 66
f 53 66 67
f 53 67 64
f 55 68 56
f 56 69 70
f 56 70 71
f 56 71 72
f 56 72 73
f 56 68 74
f 56 74 69
f 57 75 58
f 57 76 72
f 57 72 75
f 58 75 77
f 58 77 60
f 60 77 78
f 60 78 61
f 61 78 79
f 62 79 81
f 62 81 64
f 62 64 63
f 63 64 80
f 64 67 80
f 69 74 70
f 70 74 71
f 71 74 82
f 71 82 78
f 71 78 77
f 71 77 72
f 72 77 75
f 72 76 73
f 74 81 82
f 78 82 81
f 78 81 79

