# https://github.com/mikedh/trimesh
v 172.32926509 150.89975391 130.66430423
v 172.32926509 151.87571922 133.91855662
v 172.32926509 151.69523157 129.50423998
v 177.03497752 126.87152062 131.84034088
v 177.03497752 126.87152062 132.25796115
v 177.05537721 126.87152062 132.89998903
v 172.32926509 153.30624477 134.56819304
v 172.32926509 153.25611666 128.24756941
v 178.27261021 126.87152062 130.11051328
v 178.69830214 126.87152062 134.23577181
v 172.32926509 157.25691503 135.41788977
v 172.32926509 153.39982973 128.19432071
v 180.02706080 126.87152062 128.20269009
v 179.44904383 126.87152062 134.52559628
v 175.75110920 153.54689496 135.60654281
v 175.83951154 157.37724012 134.13383400
v 172.32926509 160.65275781 133.55190250
v 182.37040084 126.87152062 135.38822201
v 183.14970210 126.87152062 135.48863259
v 172.32926509 153.58031737 128.17758745
v 180.81315461 126.87152062 128.13422984
v 172.32926509 156.96947787 127.87787188
v 179.58096918 153.60705750 134.07222142
v 183.14970210 127.65029259 135.49091515
v 183.14970210 135.05027487 135.49091515
v 179.44904383 146.14691267 135.52286548
v 179.44904383 149.84690933 135.44527498
v 178.43717507 156.23081059 133.33890768
v 174.66444525 159.64671122 133.20654676
v 172.32926509 161.01707423 130.86664711
v 185.93777745 126.87152062 133.79228253
v 183.14970210 126.87152062 127.93644656
v 172.32926509 157.23018592 127.92503928
v 175.75110920 153.54689496 127.83527513
v 182.47239929 149.84690933 133.76717988
v 181.76518061 152.41384100 133.10917959
v 185.93777745 135.05027487 133.79228253
v 183.14970210 138.75027153 135.42245489
v 183.14970210 142.45025716 135.17750974
v 183.43938874 146.30734246 134.15437704
v 181.76518061 152.41384100 131.29720188
v 178.41133914 156.20407045 130.66430423
v 176.39984142 158.05574486 130.66430423
v 174.55019595 159.56314968 130.66430423
v 172.32926509 160.81652873 130.35317587
v 174.00210588 159.16875199 128.75875810
v 186.16217404 126.87152062 131.32306538
v 183.14970210 135.05027487 127.93644656
v 183.59850632 126.87152062 128.06804662
v 179.44904383 146.14691267 127.87331228
v 175.44237918 157.02629928 128.41492407
v 172.32926509 159.49630486 128.47121619
v 178.69966947 153.54689496 128.36167536
v 179.81081305 150.20788461 128.09923610
v 182.56896150 146.14691267 128.18747854
v 185.31487014 145.17762964 132.99050853
v 186.22202784 135.05027487 130.66430423
v 185.84801881 138.75027153 133.70024133
v 185.61544028 142.45025716 133.41801988
v 185.31487014 145.17762964 131.49954475
v 182.60296834 150.20788461 130.30373143
v 181.28644949 151.68186702 128.83026728
v 180.46091260 153.60705750 130.30373143
v 177.84556198 155.64256070 128.66747775
v 172.32926509 159.64001792 128.51685636
v 186.22202784 126.87152062 130.66430423
v 183.14970210 138.75027153 127.98132588
v 185.28359796 135.05027487 128.56402375
v 185.28359796 126.87152062 128.56402375
v 181.90662214 149.21520258 128.44078757
v 184.85110246 143.70698837 129.03261016
v 185.08365894 141.24032394 128.73441630
v 183.43122886 142.46697388 128.22170591
v 186.05338305 138.75027153 130.66430423
v 185.48216965 126.87152062 129.00598581
v 185.20607914 138.75027153 128.62944060
v 185.54336873 142.46697388 130.42544591
v 184.45397011 146.30734246 130.42544591
f 1 2 7
f 1 7 11
f 1 11 17
f 1 17 30
f 1 30 45
f 1 45 65
f 1 65 52
f 1 52 33
f 1 33 22
f 1 22 20
f 1 20 12
f 1 12 8
f 1 8 3
f 1 3 4
f 1 4 5
f 1 5 6
f 1 6 2
f 2 6 7
f 3 8 4
f 4 9 13
f 4 13 21
f 4 21 32
f 4 32 49
f 4 49 69
f 4 69 75
f 4 75 66
f 4 66 47
f 4 47 31
f 4 31 19
f 4 19 18
f 4 18 14
f 4 14 10
f 4 10 6
f 4 6 5
f 4 8 9
f 6 10 11
f 6 11 7
f 8 12 9
f 9 12 13
f 10 14 11
f 11 15 16
f 11 16 17
f 11 14 18
f 11 18 19
f 11 19 15
f 12 20 13
f 13 20 22
f 13 22 21
f 15 23 16
f 15 19 24
f 15 24 25
f 15 25 26
f 15 26 27
f 15 27 23
f 16 23 28
f 16 28 29
f 16 29 17
f 17 29 30
f 19 31 24
f 21 22 32
f 22 33 34
f 22 34 32
f 23 27 35
f 23 35 36
f 23 36 28
f 24 31 37
f 24 37 25
f 25 37 38
f 25 38 26
f 26 38 27
f 27 38 39
f 27 39 40
f 27 40 35
f 28 41 42
f 28 42 43
f 28 43 29
f 28 36 41
f 29 43 44
f 29 44 30
f 30 44 46
f 30 46 45
f 31 47 37
f 32 48 49
f 32 34 50
f 32 50 48
f 33 51 34
f 33 52 51
f 34 51 53
f 34 53 54
f 34 54 55
f 34 55 50
f 35 40 56
f 35 56 36
f 36 56 60
f 36 60 41
f 37 57 58
f 37 58 38
f 37 47 57
f 38 58 39
f 39 59 40
f 39 58 59
f 40 59 56
f 41 60 61
f 41 61 62
f 41 62 63
f 41 63 42
f 42 63 64
f 42 64 43
f 43 46 44
f 43 64 46
f 45 46 65
f 46 64 51
f 46 51 65
f 47 66 57
f 48 67 68
f 48 68 49
f 48 50 67
f 49 68 69
f 50 55 67
f 51 52 65
f 51 64 53
f 53 64 62
f 53 62 70
f 53 70 54
f 54 70 55
f 55 71 72
f 55 72 73
f 55 73 67
f 55 70 71
f 56 59 74
f 56 74 60
f 57 66 75
f 57 75 68
f 57 68 76
f 57 76 74
f 57 74 58
f 58 74 59
f 60 74 77
f 60 77 71
f 60 71 78
f 60 78 61
f 61 78 62
f 62 78 71
f 62 71 70
f 62 64 63
f 67 76 68
f 67 73 76
f 68 75 69
f 71 77 72
f 72 74 76
f 72 76 73
f 72 77 74

