# https://github.com/mikedh/trimesh
v -0.29464872 138.88361935 37.84600382
v -0.29464872 138.95783011 40.53563136
v -0.29464872 142.15761532 37.84600382
v 12.59983587 138.25656593 37.84600382
v -0.29464872 139.81289693 66.62586676
v -0.29464872 144.14308965 58.78606991
v 11.10521670 144.30012316 43.70039802
v 38.85077811 143.17938621 37.84600382
v 10.99651943 140.54427546 103.97520696
v -0.29464872 140.52492332 87.92228788
v 38.85077811 137.76289342 37.84600382
v -0.29464872 144.19148654 59.33757003
v -0.29464872 144.35927124 61.64538979
v 10.52095853 148.71312760 124.52497872
v 66.58275443 144.30980475 43.52222051
v 94.34189818 143.19551851 37.84600382
v 9.56983673 142.94814193 124.52497872
v -0.29464872 143.16325391 124.52497872
v -0.29464872 140.55180681 88.49924213
v 66.60992461 140.60020370 106.62241142
v 38.85077811 142.35874525 124.52497872
v 94.34189818 137.74353025 37.84600382
v -0.29464872 144.38723536 62.26476713
v -0.29464872 147.17077866 124.52497872
v 65.93055426 148.73032950 124.52497872
v 66.63710031 144.30980475 43.52222051
v 122.11464355 144.30764348 43.57312876
v 135.04987791 143.03311491 37.84600382
v 122.22333531 140.53675514 104.11095863
v 94.34189818 142.34583280 124.52497872
v 135.04987791 137.93712883 37.84600382
v 67.33006126 148.73032950 124.52497872
v 122.73965700 148.72495942 124.52497872
v 137.19669725 148.61417256 124.52497872
v 136.97930271 144.35927124 49.98750826
v 135.30803875 142.96105439 37.84600382
v 136.96570659 140.55073720 100.15712366
v 135.04987791 142.47382156 124.52497872
v 137.79455153 138.85242436 37.84600382
v 137.97117978 139.45366389 56.66491145
v 137.69943384 139.90432063 75.16988920
v 137.61791227 139.99467472 78.86918737
v 137.53639069 140.08823762 82.56000106
v 137.42768791 140.18396179 86.25929958
v 137.21028234 140.37757140 93.65789662
v 137.07440937 140.47651541 97.35719444
v 138.29728813 146.14899675 124.52497872
v 138.01194608 145.55421896 97.35719444
v 137.97117978 145.46064503 93.65789662
v 137.93042450 145.36492086 89.95859879
v 137.76737032 145.09495025 78.86918737
v 137.69943384 145.00783805 75.16988920
v 137.63149736 144.91856460 71.47059068
v 137.54997578 144.82607130 67.77129148
v 137.45485809 144.73034713 64.07199365
v 137.34615531 144.63354232 60.36421065
v 137.22386743 144.53673752 56.66491145
v 137.08799446 144.43886311 52.96561224
v 138.06629747 142.12857058 38.16841817
v 138.05271238 142.11888899 37.84600382
v 137.97117978 143.11700726 124.52497872
v 136.02818091 142.67710172 124.52497872
v 138.05271238 138.94492869 37.84600382
v 138.06629747 138.95676051 38.16841817
v 137.99836098 143.08366204 123.26077130
v 137.82172172 139.73115482 67.77129148
v 138.06629747 139.06861697 41.86771738
v 138.05271238 139.17294209 45.56701658
v 138.41957600 142.45016894 86.25929958
v 138.50108655 142.45016894 78.86918737
v 138.51468267 142.45016894 75.16988920
v 138.50108655 142.45016894 71.47059068
v 138.47391637 142.45016894 67.77129148
v 138.36521358 142.45016894 60.36421065
f 1 2 5
f 1 5 10
f 1 10 19
f 1 19 18
f 1 18 24
f 1 24 23
f 1 23 13
f 1 13 12
f 1 12 6
f 1 6 3
f 1 3 8
f 1 8 16
f 1 16 28
f 1 28 36
f 1 36 60
f 1 60 63
f 1 63 39
f 1 39 31
f 1 31 22
f 1 22 11
f 1 11 4
f 1 4 2
f 2 4 5
f 3 6 7
f 3 7 8
f 4 9 10
f 4 10 5
f 4 11 9
f 6 12 7
f 7 12 13
f 7 13 14
f 7 14 15
f 7 15 8
f 8 15 16
f 9 17 18
f 9 18 19
f 9 19 10
f 9 11 20
f 9 20 21
f 9 21 17
f 11 22 20
f 13 23 14
f 14 23 24
f 14 24 18
f 14 18 17
f 14 17 21
f 14 21 30
f 14 30 38
f 14 38 62
f 14 62 61
f 14 61 47
f 14 47 34
f 14 34 33
f 14 33 32
f 14 32 25
f 14 25 15
f 15 25 32
f 15 32 26
f 15 26 16
f 16 27 28
f 16 26 27
f 20 22 29
f 20 29 30
f 20 30 21
f 22 31 29
f 26 32 27
f 27 32 33
f 27 33 34
f 27 34 35
f 27 35 28
f 28 35 36
f 29 31 37
f 29 37 38
f 29 38 30
f 31 39 40
f 31 40 41
f 31 41 42
f 31 42 43
f 31 43 44
f 31 44 45
f 31 45 46
f 31 46 37
f 34 47 48
f 34 48 49
f 34 49 50
f 34 50 51
f 34 51 52
f 34 52 53
f 34 53 54
f 34 54 55
f 34 55 56
f 34 56 57
f 34 57 58
f 34 58 35
f 35 58 57
f 35 57 59
f 35 59 60
f 35 60 36
f 37 46 61
f 37 61 62
f 37 62 38
f 39 63 64
f 39 64 40
f 40 65 66
f 40 66 41
f 40 64 67
f 40 67 68
f 40 68 69
f 40 69 65
f 41 66 65
f 41 65 42
f 42 65 43
f 43 65 61
f 43 61 44
f 44 61 45
f 45 61 46
f 47 61 65
f 47 65 69
f 47 69 70
f 47 70 71
f 47 71 72
f 47 72 73
f 47 73 74
f 47 74 48
f 48 74 59
f 48 59 49
f 49 59 50
f 50 59 51
f 51 59 52
f 52 59 53
f 53 59 54
f 54 59 55
f 55 59 56
f 56 59 57
f 59 74 73
f 59 73 64
f 59 64 63
f 59 63 60
f 64 73 72
f 64 72 71
f 64 71 70
f 64 70 67
f 67 70 68
f 68 70 69

