# https://github.com/mikedh/trimesh
v -158.45070493 -105.17324075 12.66605913
v -157.12966507 -105.44483231 8.56318512
v -155.91474770 -112.84263128 6.06376540
v -155.68054823 -115.45513696 6.38867733
v -156.02453112 -116.63205577 8.39017920
v -158.43607228 -105.28964029 12.66605913
v -156.46365376 -8.21299266 12.66605913
v -156.45999284 -8.21299266 12.26378825
v -156.08308375 -8.21299266 6.60809530
v -156.02819204 -8.21299266 5.84575335
v -156.03185295 -101.74593834 5.84575335
v -156.03185295 -105.44483231 5.84575335
v -156.02087020 -109.14372628 5.87247695
v -153.54711549 -112.84263128 5.19874684
v -153.54711549 -109.14372628 4.74584062
v -141.20030746 -133.94961783 6.35491860
v -141.57356667 -137.90717988 9.45915056
v -155.85253416 -119.30923398 9.50837998
v -156.05380743 -120.42149128 12.15970572
v -156.08674466 -120.39562227 12.66605913
v -150.60862275 -8.21299266 12.66605913
v -153.54711549 -8.21299266 4.73177586
v -153.54711549 -105.44483231 4.64175258
v -127.65321471 -86.93741693 -1.70314116
v -141.73458087 -131.33711215 5.96249472
v -127.65321471 -90.28711782 -1.14615242
v -139.90122208 -133.94961783 6.35491860
v -139.49502564 -137.90717988 9.45915056
v -127.52146579 -140.33862453 12.66605913
v -141.76385719 -140.07995645 12.66605913
v -155.90376495 -121.30094951 12.66605913
v -125.05869383 -8.21299266 10.94867533
v -124.35243449 -134.99721363 12.66605913
v -127.65321471 -8.21299266 5.38440608
v -127.65321471 -83.23852296 -1.48512912
v -124.31949726 -83.23852296 -1.16162310
v -124.05968239 -86.93741693 -1.27695854
v -124.69275646 -89.91205572 -1.04488174
v -125.37340041 -133.84616383 6.40414802
v -125.03307844 -137.84251837 9.51963289
v -126.73469934 -140.33862453 12.66605913
v -124.57565121 -8.21299266 10.25806310
v -122.27023255 -79.53962348 10.10334523
v -124.45123515 -138.91597215 12.66605913
v -121.06994783 -105.44483231 9.20737978
v -122.27023255 -83.23852296 10.14694543
v -125.51246014 -8.21299266 5.55037686
v -122.21167992 -86.93741693 -0.07296328
v -124.45855699 -8.21299266 5.70650616
v -121.06994783 -105.44483231 3.49261044
v -124.95257133 -131.33711215 6.03141810
v -124.58297305 -135.06187513 8.39721434
v -124.54272501 -138.94184117 12.14001175
v -124.86474240 -139.89889541 12.66605913
v -123.75594753 -8.21299266 8.51817899
v -124.57931213 -139.29102874 12.66605913
v -123.89500726 -131.33711215 8.56318512
v -121.06994783 -108.40653659 5.18749393
v -121.06994783 -108.45827462 8.00619638
v -121.06994783 -106.47949360 8.89231483
v -121.06994783 -102.31500150 8.14544356
v -121.69571109 -79.53962348 4.86539384
v -123.91696174 -8.21299266 7.78396104
v -121.06994783 -104.59124309 3.83581042
v -121.06994783 -102.31500150 6.03282403
v -121.06994783 -102.35380502 4.98776441
f 1 2 3
f 1 3 4
f 1 4 5
f 1 5 6
f 1 6 20
f 1 20 31
f 1 31 30
f 1 30 29
f 1 29 41
f 1 41 54
f 1 54 56
f 1 56 44
f 1 44 33
f 1 33 21
f 1 21 7
f 1 7 8
f 1 8 9
f 1 9 10
f 1 10 2
f 2 11 12
f 2 12 13
f 2 13 3
f 2 10 11
f 3 14 4
f 3 13 15
f 3 15 14
f 4 14 16
f 4 16 17
f 4 17 18
f 4 18 5
f 5 18 6
f 6 18 19
f 6 19 20
f 7 21 32
f 7 32 42
f 7 42 55
f 7 55 63
f 7 63 49
f 7 49 47
f 7 47 34
f 7 34 22
f 7 22 10
f 7 10 9
f 7 9 8
f 10 22 23
f 10 23 11
f 11 23 12
f 12 23 13
f 13 23 15
f 14 15 24
f 14 24 25
f 14 25 16
f 15 23 24
f 16 25 24
f 16 24 26
f 16 26 27
f 16 27 28
f 16 28 17
f 17 28 41
f 17 41 29
f 17 29 30
f 17 30 18
f 18 30 31
f 18 31 19
f 19 31 20
f 21 33 32
f 22 34 35
f 22 35 24
f 22 24 23
f 24 35 36
f 24 36 37
f 24 37 38
f 24 38 26
f 26 38 39
f 26 39 27
f 27 39 40
f 27 40 28
f 28 40 41
f 32 33 43
f 32 43 42
f 33 44 45
f 33 45 46
f 33 46 43
f 34 47 35
f 35 47 36
f 36 48 37
f 36 47 49
f 36 49 48
f 37 48 50
f 37 50 51
f 37 51 38
f 38 51 39
f 39 51 52
f 39 52 40
f 40 53 54
f 40 54 41
f 40 52 53
f 42 43 55
f 43 46 45
f 43 45 55
f 44 56 53
f 44 53 57
f 44 57 58
f 44 58 59
f 44 59 60
f 44 60 45
f 45 60 59
f 45 59 58
f 45 58 50
f 45 50 64
f 45 64 66
f 45 66 65
f 45 65 61
f 45 61 55
f 48 62 50
f 48 49 63
f 48 63 55
f 48 55 62
f 50 58 57
f 50 57 52
f 50 52 51
f 50 62 64
f 52 57 53
f 53 56 54
f 55 61 62
f 61 65 62
f 62 65 66
f 62 66 64

