# https://github.com/mikedh/trimesh
v -183.14926103 1.85586737 148.09152291
v -180.27103007 1.85586737 147.88830891
v -180.33982665 5.55646224 147.84293338
v -183.14926103 5.55646224 148.00471395
v -185.18971528 5.55646224 147.47399119
v -185.23413147 1.85586737 147.51542461
v -183.14926103 -1.84472749 148.09152291
v -180.27103007 -1.84472749 147.88830891
v -178.42129639 1.85586737 145.54641890
v -178.49009297 5.55646224 145.59179994
v -178.64250623 9.25705710 145.63914928
v -180.49310000 9.25705710 147.74822919
v -180.75872603 12.95765196 147.59433834
v -183.14926103 9.25705710 147.82517462
v -185.01467490 11.25106621 147.32404795
v -185.09305382 9.25705710 147.39112434
v -186.15377158 5.55646224 145.46355756
v -185.81065981 12.67920997 145.75752813
v -186.07801705 9.25705710 145.46355756
v -186.18687421 1.85586737 145.46355756
v -185.23413147 -1.84472749 147.51542461
v -185.18971528 -5.54532235 147.47399119
v -183.14926103 -5.54532235 148.00471395
v -180.33982665 -5.54532235 147.84293338
v -178.49009297 -5.54532235 145.59179994
v -178.42129639 -1.84472749 145.54641890
v -177.52604769 12.95765196 143.80233908
v -177.55042808 16.65824682 143.72539365
v -177.58526193 18.77800487 143.64252680
v -178.90899235 12.95765196 145.65098661
v -179.12060881 20.14327347 144.92889270
v -179.66229228 24.05045517 144.86970051
v -181.04088132 15.71513328 147.44439510
v -183.24244902 12.67920997 147.54501519
v -182.07112083 15.71513328 147.44439510
v -185.72791425 24.05045517 144.46327251
v -185.90297668 20.35884168 144.82235118
v -185.98047345 16.65824682 145.12223766
v -184.53743241 13.72112417 147.18594204
v -185.93779950 83.54739634 133.79357819
v -186.42201097 24.05045517 141.76230936
v -186.18687421 -1.84472749 145.46355756
v -186.15377158 -5.54532235 145.46355756
v -185.82894234 -8.21298439 146.02781852
v -185.12004758 -8.21298439 147.41480452
v -184.54788587 -8.21298439 147.56277395
v -183.14926103 -8.21298439 147.87647157
v -180.44956596 -8.21298439 147.77387767
v -178.59983228 -8.21298439 145.62533814
v -177.54868584 -8.21298439 143.77471679
v -177.52604769 12.95765196 143.43339689
v -177.55304145 41.05343195 136.33868219
v -177.59484427 83.54739634 132.52300275
v -179.30174704 83.54739634 134.08754876
v -179.45067581 83.54739634 134.22368085
v -183.14926103 83.54739634 135.49228800
v -183.14926103 20.35884168 146.44608386
v -183.24244902 16.82890540 147.01231862
v -186.30270035 27.75105003 141.76230936
v -186.19993001 83.54739634 130.91702332
v -186.22257918 83.54739634 130.66448617
v -186.41415985 35.15223976 138.06303496
v -186.40719087 42.54444810 134.36573438
v -186.03185862 -8.21298439 143.05261736
v -186.09890192 -8.21298439 145.46355756
v -177.54868584 -8.21298439 143.50442089
v -177.57045286 47.58336467 132.40462390
v -177.55304145 40.03846188 136.03879020
v -177.55304145 41.05343195 136.03879020
v -177.59484427 83.54739634 132.49340666
v -185.28465654 83.54739634 128.56526979
v -186.22343928 61.04741966 130.66448617
v -186.22343928 53.64623545 130.66448617
v -186.21561021 49.94563783 130.66448617
v -185.97873120 -8.21298439 142.14506269
v -179.65967891 -8.21298439 141.39139888
v -180.61241063 47.06240619 128.42716388
v -180.23184061 49.94563783 128.21013874
v -178.38210693 49.94563783 130.56978199
v -178.34553084 53.64623545 130.64278531
v -178.34553084 83.54739634 130.64278531
v -183.32082794 83.54739634 127.98719769
v -183.14926103 53.64623545 127.93590073
v -185.28465654 53.64623545 128.56526979
v -185.26026513 49.94563783 128.58697065
v -185.15749479 47.70013360 128.67772722
v -183.70749580 -8.21298439 140.62983983
v -180.44869484 -8.21298439 141.11123945
v -183.14926103 47.02648068 128.42124246
v -183.14926103 49.94563783 127.98127626
v -183.10746923 -8.21298439 140.24511269
v -180.19613564 53.64623545 128.18646407
v -180.19613564 83.54739634 128.18646407
v -183.14926103 83.54739634 127.93787454
f 1 2 3
f 1 3 4
f 1 4 5
f 1 5 6
f 1 6 21
f 1 21 7
f 1 7 8
f 1 8 2
f 2 8 26
f 2 26 9
f 2 9 10
f 2 10 3
f 3 10 11
f 3 11 12
f 3 12 4
f 4 12 13
f 4 13 14
f 4 14 15
f 4 15 16
f 4 16 5
f 5 17 6
f 5 16 18
f 5 18 19
f 5 19 17
f 6 20 42
f 6 42 21
f 6 17 20
f 7 21 22
f 7 22 23
f 7 23 24
f 7 24 8
f 8 24 25
f 8 25 26
f 9 26 27
f 9 27 10
f 10 27 28
f 10 28 11
f 11 28 29
f 11 29 30
f 11 30 12
f 12 30 29
f 12 29 13
f 13 29 31
f 13 31 32
f 13 32 33
f 13 33 14
f 14 34 15
f 14 33 35
f 14 35 34
f 15 36 37
f 15 37 38
f 15 38 16
f 15 34 39
f 15 39 40
f 15 40 36
f 16 38 18
f 17 19 41
f 17 41 20
f 18 38 19
f 19 38 41
f 20 41 42
f 21 42 43
f 21 43 22
f 22 43 44
f 22 44 45
f 22 45 23
f 23 45 46
f 23 46 47
f 23 47 48
f 23 48 24
f 24 48 49
f 24 49 25
f 25 49 50
f 25 50 26
f 26 50 27
f 27 50 66
f 27 66 51
f 27 51 69
f 27 69 52
f 27 52 53
f 27 53 28
f 28 53 29
f 29 32 31
f 29 53 32
f 32 53 54
f 32 54 55
f 32 55 33
f 33 55 56
f 33 56 35
f 34 35 39
f 35 57 58
f 35 58 39
f 35 56 57
f 36 40 37
f 37 40 38
f 38 40 59
f 38 59 41
f 39 58 57
f 39 57 56
f 39 56 40
f 40 56 55
f 40 55 54
f 40 54 53
f 40 53 70
f 40 70 81
f 40 81 93
f 40 93 94
f 40 94 82
f 40 82 71
f 40 71 61
f 40 61 60
f 40 60 41
f 40 41 59
f 41 60 61
f 41 61 62
f 41 62 63
f 41 63 64
f 41 64 43
f 41 43 42
f 43 64 65
f 43 65 44
f 44 65 64
f 44 64 75
f 44 75 87
f 44 87 91
f 44 91 88
f 44 88 76
f 44 76 66
f 44 66 50
f 44 50 49
f 44 49 48
f 44 48 47
f 44 47 46
f 44 46 45
f 51 66 67
f 51 67 68
f 51 68 69
f 52 69 70
f 52 70 53
f 61 71 72
f 61 72 63
f 61 63 62
f 63 72 73
f 63 73 74
f 63 74 75
f 63 75 64
f 66 76 77
f 66 77 78
f 66 78 79
f 66 79 67
f 67 79 80
f 67 80 81
f 67 81 70
f 67 70 69
f 67 69 68
f 71 82 83
f 71 83 84
f 71 84 73
f 71 73 72
f 73 84 74
f 74 84 85
f 74 85 86
f 74 86 75
f 75 86 87
f 76 88 77
f 77 89 90
f 77 90 78
f 77 88 91
f 77 91 89
f 78 90 83
f 78 83 92
f 78 92 79
f 79 92 93
f 79 93 81
f 79 81 80
f 82 94 83
f 83 94 93
f 83 93 92
f 83 90 85
f 83 85 84
f 85 90 86
f 86 90 89
f 86 89 91
f 86 91 87

