# https://github.com/mikedh/trimesh
v -150.35310836 166.69019513 132.89763480
v -150.35310836 166.69019513 131.55628898
v -153.55116235 166.68436192 132.88683950
v -150.35310836 165.17157599 134.74823409
v -150.35310836 166.29741838 129.95786845
v -153.55116235 166.68436192 131.58278652
v -155.74174730 166.61825590 132.75437384
v -153.55116235 165.15601709 134.73645740
v -150.35310836 164.92073699 134.98666788
v -150.35310836 166.23519381 129.70568968
v -153.55116235 166.22546812 129.73316862
v -155.74174730 166.61825590 131.91345999
v -164.65320331 163.73656251 133.74246869
v -156.02674752 163.12406455 136.38983028
v -170.28707962 162.84601126 132.59443475
v -168.34837020 163.19017058 133.07817758
v -153.55116235 163.30489403 136.48893418
v -150.35310836 163.32239365 136.49874809
v -150.35310836 164.38601147 127.75304783
v -153.55116235 164.37629681 127.76383761
v -164.65320331 163.08323209 128.58414777
v -166.65820621 162.84601126 128.77254167
v -164.65320331 164.02046004 130.66435385
v -170.28707962 162.84601126 132.32459646
v -168.34837020 160.94822252 134.79140425
v -153.55116235 160.94822252 136.72737349
v -172.04684515 157.24986886 135.51948023
v -175.74862816 153.55150418 135.60582606
v -174.66162237 159.64932459 133.20671768
v -171.73200625 160.90933078 133.63944474
v -150.35310836 160.94822252 136.75190274
v -150.35310836 161.41489025 126.86503276
v -150.35310836 160.94822252 126.72766014
v -153.55116235 160.94822252 126.75611495
v -168.07330519 161.03376890 128.27505938
v -172.04684515 159.72126382 128.47621135
v -174.00212794 159.16903868 128.75880772
v -169.12385617 162.32489289 129.85974594
v -168.07330519 163.13962345 130.92143406
v -174.54894992 159.56376719 130.66435385
v -179.44710311 146.82563795 135.50868494
v -175.83811113 157.37819946 134.13398286
v -179.57966802 153.60984730 134.07216629
v -179.44710311 149.85120980 135.44490558
v -176.39817636 158.05487374 130.66435385
v -178.43300692 156.23291672 133.33918335
v -150.35310836 160.64099215 136.71363402
v -150.35310836 157.67375238 127.78934825
v -179.51006648 146.82563795 127.91102414
v -175.74862816 153.55150418 127.83546810
v -172.04684515 157.24986886 127.88060655
v -175.44042743 157.02625517 128.41439478
v -177.84310299 155.64569232 128.66754942
v -182.85393967 146.82563795 134.34298596
v -178.64178948 146.82563795 135.30164462
v -150.35310836 158.66347921 136.46636220
v -181.76361479 152.41788786 133.10859517
v -182.47282934 149.85120980 133.76700345
v -183.29802439 146.82563795 134.09767693
v -178.40980640 156.20763213 130.66435385
v -181.76361479 152.41788786 131.29724598
v -150.35310836 156.07736081 130.03833145
v -176.82237966 146.82563795 128.44284959
v -182.42310923 146.82563795 128.24366039
v -179.81165109 150.21093905 128.09941804
v -178.69812571 153.55150418 128.36140520
v -181.28639435 151.68483325 128.83043820
v -180.45789124 153.60984730 130.30424418
v -176.14963094 146.82563795 133.94754623
v -150.35310836 155.34818765 132.61896400
v -150.35310836 156.81235615 134.46956329
v -184.20938333 146.82563795 130.40923642
v -184.16298230 146.82563795 130.91456984
v -182.60207516 150.21093905 130.30424418
v -150.35310836 155.82458107 130.40531086
v -175.40728069 146.82563795 130.66435385
v -150.35310836 155.41235294 132.00274999
v -150.35310836 155.34818765 132.25394737
v -181.90612593 149.21731974 128.44088681
v -175.79833724 146.82563795 132.95846998
f 1 2 6
f 1 6 3
f 1 3 4
f 1 4 9
f 1 9 18
f 1 18 31
f 1 31 47
f 1 47 56
f 1 56 71
f 1 71 70
f 1 70 78
f 1 78 77
f 1 77 75
f 1 75 62
f 1 62 48
f 1 48 33
f 1 33 32
f 1 32 19
f 1 19 10
f 1 10 5
f 1 5 2
f 2 5 6
f 3 6 12
f 3 12 7
f 3 7 8
f 3 8 4
f 4 8 9
f 5 10 6
f 6 11 12
f 6 10 11
f 7 13 14
f 7 14 8
f 7 12 24
f 7 24 15
f 7 15 16
f 7 16 13
f 8 14 17
f 8 17 9
f 9 17 18
f 10 19 20
f 10 20 11
f 11 20 21
f 11 21 22
f 11 22 12
f 12 23 24
f 12 22 23
f 13 16 25
f 13 25 14
f 14 26 17
f 14 25 27
f 14 27 28
f 14 28 26
f 15 24 29
f 15 29 30
f 15 30 16
f 16 30 25
f 17 26 31
f 17 31 18
f 19 32 20
f 20 32 33
f 20 33 34
f 20 34 35
f 20 35 21
f 21 35 22
f 22 35 36
f 22 36 37
f 22 37 38
f 22 38 24
f 22 24 39
f 22 39 23
f 23 39 24
f 24 38 37
f 24 37 40
f 24 40 29
f 25 30 27
f 26 28 41
f 26 41 31
f 27 30 42
f 27 42 28
f 28 42 43
f 28 43 44
f 28 44 41
f 29 40 45
f 29 45 46
f 29 46 42
f 29 42 30
f 31 41 47
f 33 48 49
f 33 49 34
f 34 49 50
f 34 50 51
f 34 51 35
f 35 51 36
f 36 51 52
f 36 52 37
f 37 52 53
f 37 53 45
f 37 45 40
f 41 44 54
f 41 54 59
f 41 59 73
f 41 73 72
f 41 72 64
f 41 64 49
f 41 49 63
f 41 63 76
f 41 76 80
f 41 80 69
f 41 69 55
f 41 55 56
f 41 56 47
f 42 46 43
f 43 57 58
f 43 58 44
f 43 46 57
f 44 58 59
f 44 59 54
f 45 53 60
f 45 60 46
f 46 60 61
f 46 61 57
f 48 62 63
f 48 63 49
f 49 64 65
f 49 65 50
f 50 65 66
f 50 66 52
f 50 52 51
f 52 66 53
f 53 66 67
f 53 67 68
f 53 68 60
f 55 69 70
f 55 70 71
f 55 71 56
f 57 61 72
f 57 72 73
f 57 73 58
f 58 73 59
f 60 68 61
f 61 68 67
f 61 67 74
f 61 74 72
f 62 75 63
f 63 75 77
f 63 77 78
f 63 78 76
f 64 72 79
f 64 79 65
f 65 79 66
f 66 79 67
f 67 79 72
f 67 72 74
f 69 80 70
f 70 80 76
f 70 76 78

