# https://github.com/mikedh/trimesh
v 165.08088007 -123.45555382 130.66448066
v 175.76062538 -124.19627210 130.75568933
v 165.08088007 -123.43577163 131.02688392
v 165.08088007 -122.48405438 128.73770782
v 175.76062538 -124.14791932 130.66991690
v 175.76062538 -123.96987964 133.64162255
v 165.08088007 -123.20278511 133.75457067
v 165.08088007 -122.35217314 128.50879021
v 175.76062538 -122.39613723 128.70267549
v 168.35014553 -123.23575542 133.78416676
v 175.76062538 -120.24871141 134.55064930
v 165.08088007 -120.24871141 134.43347238
v 175.74912437 -122.38514345 128.69844669
v 165.08088007 -121.31033337 128.50879021
v 175.76062538 -121.48177899 128.69723924
v 175.76062538 -105.45196669 134.67929968
v 165.08088007 -105.45196669 134.58084636
v 165.08088007 -103.38806934 128.56918984
v 175.76062538 -103.51335652 128.77999031
v 175.76062538 -101.98356717 133.60115397
v 165.08088007 -102.66713324 133.63255847
v 165.08088007 -102.45392891 130.66448066
v 175.76062538 -101.74179224 130.81125368
v 175.76062538 -103.43203343 128.86696467
v 175.74912437 -103.50895680 128.78179872
v 175.76062538 -101.81432693 133.54256275
v 175.76062538 -101.74619196 130.99426647
f 1 2 3
f 1 3 7
f 1 7 12
f 1 12 17
f 1 17 21
f 1 21 22
f 1 22 18
f 1 18 14
f 1 14 8
f 1 8 4
f 1 4 2
f 2 5 9
f 2 9 15
f 2 15 19
f 2 19 24
f 2 24 23
f 2 23 27
f 2 27 26
f 2 26 20
f 2 20 16
f 2 16 11
f 2 11 6
f 2 6 3
f 2 4 5
f 3 6 7
f 4 8 5
f 5 8 9
f 6 10 7
f 6 11 10
f 7 10 12
f 8 13 9
f 8 14 15
f 8 15 13
f 9 13 15
f 10 11 12
f 11 16 17
f 11 17 12
f 14 18 15
f 15 18 19
f 16 20 17
f 17 20 21
f 18 22 23
f 18 23 24
f 18 24 25
f 18 25 19
f 19 25 24
f 20 26 21
f 21 26 22
f 22 26 27
f 22 27 23

