# https://github.com/mikedh/trimesh
v 175.76062538 -124.19605156 130.75590987
v 175.76062538 -123.96484036 133.64171627
v 175.76062538 -124.14700409 130.67011538
v 177.55700009 -136.40844217 132.34376666
v 177.55700009 -136.40844217 132.58782966
v 175.76062538 -120.24436683 134.55064930
v 175.76062538 -122.39537638 128.70285743
v 177.82941866 -136.40844217 131.66558170
v 178.73067700 -136.40844217 133.66316352
v 179.45066478 -120.24436683 135.28874319
v 175.76062538 -105.44657456 134.67859947
v 179.45066478 -136.40844217 134.29549879
v 181.79086216 -136.40844217 135.09793441
v 183.14992264 -136.40844217 135.46550376
v 175.76062538 -121.47752262 128.69768032
v 180.15425563 -136.40844217 128.17924148
v 178.30463221 -136.40844217 130.49483793
v 179.45066478 -105.44657456 135.32868248
v 183.14992264 -135.04917219 135.49064500
v 183.14992264 -64.83670631 135.49064500
v 183.07003304 -64.83670631 135.46328184
v 179.45066478 -64.83670631 134.22228044
v 177.59488838 -64.83670631 132.52348242
v 175.76062538 -101.97834044 133.60103819
v 184.91453999 -136.40844217 134.39090318
v 179.90128844 -109.14601987 128.18663499
v 179.26426674 -120.35647691 128.26576925
v 175.76062538 -103.51277209 128.77976978
v 180.19624591 -64.83670631 128.18663499
v 183.14992264 -135.04917219 127.93591728
v 183.14992264 -136.40844217 127.95293172
v 185.93766718 -135.04917219 133.79185248
v 185.87827651 -64.83670631 133.82883106
v 177.59488838 -64.83670631 132.49168095
v 175.76062538 -101.74011616 130.99479025
v 175.76062538 -101.81018083 133.54261237
v 185.90489535 -136.40844217 133.75856791
v 183.14992264 -64.83670631 127.93666159
v 175.76062538 -103.42869229 128.86704186
v 178.34559700 -64.83670631 130.64201343
v 185.28425957 -135.04917219 128.56381424
v 185.28425957 -64.83670631 128.56381424
v 185.25558974 -136.40844217 128.58822220
v 186.08516246 -136.40844217 131.77873382
v 186.22240275 -135.04917219 130.66419947
v 186.21726424 -64.83670631 130.73224071
v 185.93766718 -64.83670631 133.79185248
v 175.76062538 -101.74011616 130.81137497
v 186.22341722 -64.83670631 130.66419947
v 186.16093904 -136.40844217 130.66419947
f 1 2 6
f 1 6 11
f 1 11 24
f 1 24 36
f 1 36 35
f 1 35 48
f 1 48 39
f 1 39 28
f 1 28 15
f 1 15 7
f 1 7 3
f 1 3 4
f 1 4 5
f 1 5 2
f 2 5 6
f 3 7 4
f 4 8 17
f 4 17 16
f 4 16 31
f 4 31 43
f 4 43 50
f 4 50 44
f 4 44 37
f 4 37 25
f 4 25 14
f 4 14 13
f 4 13 12
f 4 12 9
f 4 9 5
f 4 7 8
f 5 9 6
f 6 10 11
f 6 9 12
f 6 12 13
f 6 13 14
f 6 14 10
f 7 15 16
f 7 16 17
f 7 17 8
f 10 18 11
f 10 14 19
f 10 19 18
f 11 18 20
f 11 20 21
f 11 21 22
f 11 22 23
f 11 23 24
f 14 25 19
f 15 26 27
f 15 27 16
f 15 28 29
f 15 29 26
f 16 30 31
f 16 27 26
f 16 26 30
f 18 19 20
f 19 25 32
f 19 32 33
f 19 33 20
f 20 33 47
f 20 47 46
f 20 46 49
f 20 49 42
f 20 42 38
f 20 38 29
f 20 29 40
f 20 40 34
f 20 34 23
f 20 23 22
f 20 22 21
f 23 34 48
f 23 48 35
f 23 35 36
f 23 36 24
f 25 37 32
f 26 29 38
f 26 38 30
f 28 39 34
f 28 34 40
f 28 40 29
f 30 41 31
f 30 38 42
f 30 42 41
f 31 41 43
f 32 37 44
f 32 44 45
f 32 45 46
f 32 46 47
f 32 47 33
f 34 39 48
f 41 45 43
f 41 42 49
f 41 49 45
f 43 45 50
f 44 50 45
f 45 49 46

