# https://github.com/mikedh/trimesh
v 94.34482029 -124.69132297 5.30906506
v 135.04821285 -124.69132297 5.38887195
v 135.04821285 -127.65042491 5.45585461
v 94.34482029 -127.65042491 5.38459905
v 38.85995246 -127.65042491 5.39029993
v 38.85995246 -124.69132297 5.31618841
v 135.59164958 -124.69132297 5.46867885
v 137.80615179 -127.65042491 5.85347767
v 137.60236439 -131.34929683 6.09860476
v 137.23554488 -133.78195443 6.43922446
v 134.72214861 -131.65094761 6.07865166
v 122.68502993 -133.95628908 6.35656161
v 123.22846667 -131.34929683 5.96463944
v 94.34482029 -131.34929683 5.86202900
v 38.85995246 -131.34929683 5.86915235
v 10.05781939 -131.34929683 5.97889166
v 9.78610102 -127.65042491 5.71523392
v 9.75892533 -124.69132297 5.67533323
v 137.83332197 -124.69132297 5.81784988
v 138.49903556 -131.34929683 8.56414997
v 137.91483252 -135.02867326 8.43873598
v 137.72464124 -136.40844217 9.01450347
v 136.13508632 -136.40844217 8.53992396
v 134.87159564 -136.40844217 8.44016396
v 94.34482029 -136.40844217 8.18933046
v 94.34482029 -135.57231950 7.54800278
v 67.28168091 -133.96316984 6.35228870
v 65.97743496 -133.96316984 6.35228870
v 10.56049533 -133.93794039 6.36796338
v -0.29464872 -132.92977665 6.55893756
v -0.29464872 -131.34929683 6.34373737
v -0.29464872 -130.45927486 6.22829717
v -0.29464872 -127.65042491 5.99172141
v -0.29464872 -126.51724966 5.96606742
v -0.29464872 -124.69132297 5.93898545
v 137.96918391 -124.69132297 6.36226249
v 138.45828028 -124.69132297 8.56414997
v 138.26806695 -136.40844217 13.85438522
v 137.94201373 -136.40844217 9.76984336
v 38.85995246 -136.40844217 8.20643312
v 38.85995246 -135.55741119 7.55655411
v -0.29464872 -136.40844217 9.03445657
v -0.29464872 -133.31744796 6.66154801
v -0.29464872 -124.69132297 10.52946168
v 138.26806695 -124.69132297 9.04585834
v 137.43933227 -136.40844217 18.83820608
v -0.29464872 -136.40844217 16.72467683
v -0.29464872 -124.70967167 10.63920099
v -0.28106363 -124.69132297 10.63635055
v 137.52084282 -124.69132297 10.91140454
v 135.19765988 -136.40844217 19.04200450
v 10.32953776 -136.40844217 19.56931445
v 10.15292054 -124.69132297 11.01687094
v 137.01817239 -124.69132297 10.93135764
v 122.92957260 -136.40844217 19.69188351
v 65.73288677 -136.40844217 19.86717751
v 65.52909938 -124.69132297 11.03967449
v 135.04821285 -124.69132297 10.96414050
v 67.53981419 -136.40844217 19.86717751
v 123.11978593 -124.69132297 11.03254562
v 67.75718668 -124.69132297 11.03967449
f 1 2 3
f 1 3 4
f 1 4 5
f 1 5 6
f 1 6 18
f 1 18 35
f 1 35 44
f 1 44 49
f 1 49 53
f 1 53 57
f 1 57 61
f 1 61 60
f 1 60 58
f 1 58 54
f 1 54 50
f 1 50 45
f 1 45 37
f 1 37 36
f 1 36 19
f 1 19 7
f 1 7 2
f 2 7 8
f 2 8 3
f 3 8 9
f 3 9 10
f 3 10 11
f 3 11 12
f 3 12 13
f 3 13 14
f 3 14 4
f 4 14 5
f 5 15 16
f 5 16 17
f 5 17 6
f 5 14 15
f 6 17 18
f 7 19 8
f 8 19 20
f 8 20 9
f 9 20 21
f 9 21 10
f 10 21 22
f 10 22 23
f 10 23 24
f 10 24 12
f 10 12 11
f 12 14 13
f 12 24 25
f 12 25 26
f 12 26 27
f 12 27 14
f 14 27 28
f 14 28 15
f 15 28 29
f 15 29 16
f 16 29 30
f 16 30 31
f 16 31 32
f 16 32 33
f 16 33 17
f 17 33 34
f 17 34 35
f 17 35 18
f 19 36 20
f 20 37 38
f 20 38 39
f 20 39 21
f 20 36 37
f 21 39 22
f 22 39 38
f 22 38 46
f 22 46 51
f 22 51 55
f 22 55 59
f 22 59 56
f 22 56 52
f 22 52 47
f 22 47 42
f 22 42 40
f 22 40 25
f 22 25 24
f 22 24 23
f 25 40 26
f 26 40 41
f 26 41 28
f 26 28 27
f 28 41 29
f 29 42 43
f 29 43 30
f 29 41 40
f 29 40 42
f 30 43 42
f 30 42 47
f 30 47 48
f 30 48 44
f 30 44 35
f 30 35 34
f 30 34 33
f 30 33 32
f 30 32 31
f 37 45 46
f 37 46 38
f 44 48 49
f 45 50 46
f 46 50 51
f 47 49 48
f 47 52 49
f 49 52 53
f 50 54 55
f 50 55 51
f 52 56 53
f 53 56 57
f 54 58 55
f 55 58 60
f 55 60 59
f 56 59 61
f 56 61 57
f 59 60 61

