# https://github.com/mikedh/trimesh
v -186.22341722 -132.60837677 130.66427666
v -185.28441395 -135.05186274 128.56398516
v -186.22130007 -135.05186274 130.66427666
v -185.93660860 -135.05186274 133.79227150
v -186.03435069 -132.60837677 132.73109613
v -185.28441395 -132.60837677 128.56398516
v -184.55997131 -132.60837677 128.35099033
v -183.14933821 -135.05186274 127.93640797
v -183.14933821 -138.75094417 127.98129280
v -185.20581449 -138.75094417 128.62940752
v -186.05347126 -138.75094417 130.66427666
v -185.84740130 -138.75094417 133.70022479
v -183.14933821 -135.05186274 135.49090964
v -185.93660860 -132.60837677 133.79227150
v -183.14933821 -138.75094417 135.42244938
v -183.14933821 -132.60837677 127.93640797
v -179.44855865 -146.15219454 127.87327368
v -182.56724131 -146.15219454 128.18743995
v -183.42977331 -142.46541909 128.22167283
v -185.08471752 -141.24059961 128.73438322
v -185.54147211 -142.46541909 130.42541834
v -185.31414236 -145.17972474 131.49952270
v -185.31414236 -145.17972474 132.99049199
v -185.61369804 -142.45003662 133.41800885
v -183.14933821 -142.45003662 135.17750423
v -183.14933821 -132.60837677 135.49090964
v -179.44855865 -146.15219454 135.52285997
v -175.74989625 -153.54729192 135.60653729
v -179.44855865 -149.84821050 135.44526947
v -182.14659969 -132.60837677 128.02084615
v -164.52006501 -160.94854230 127.94705992
v -175.74989625 -153.54729192 127.83523653
v -179.81183855 -150.20827055 128.09919750
v -181.90654495 -149.21425427 128.44075449
v -184.85102528 -143.70870856 129.03333793
v -184.45374957 -146.30915086 130.42541834
v -182.60123712 -150.20827055 130.30370386
v -181.76419922 -152.41478931 131.29717982
v -181.76419922 -152.41478931 133.10916305
v -182.47163844 -149.84821050 133.76716886
v -183.43826400 -146.30915086 134.15436050
v -180.70409897 -132.60837677 134.65262019
v -164.52006501 -160.94854230 135.44831288
v -179.58027449 -153.60884386 134.07220488
v -175.83699741 -157.37870669 134.13382297
v -172.05123384 -157.24946087 135.51981655
v -180.19423902 -132.60837677 128.18667909
v -164.52006501 -161.03470618 127.96607574
v -164.65178085 -160.94854230 127.95162504
v -172.05123384 -157.24946087 127.88087670
v -164.52006501 -157.96341696 128.16994583
v -175.43972171 -157.02479963 128.41489099
v -178.69862191 -153.54729192 128.36164228
v -181.28620690 -151.68236323 128.83022869
v -180.45978786 -153.60884386 130.30370386
v -178.40969613 -156.20619864 130.66427666
v -178.43519023 -156.23082161 133.33889114
v -179.44855865 -132.60837677 134.22206542
v -164.65178085 -160.94854230 135.44222605
v -164.52006501 -163.74593534 133.75271264
v -164.52006501 -156.96324770 134.13686639
v -174.66430190 -159.64678841 133.20653022
v -171.73468578 -160.90853685 133.63936755
v -168.35044325 -160.94854230 134.79106793
v -178.34384373 -132.60837677 130.64145658
v -164.52006501 -157.87110009 128.18591824
v -164.52006501 -163.09352015 128.57615881
v -164.65178085 -163.08429067 128.58376734
v -168.07426452 -161.03470618 128.27492154
v -172.05123384 -159.72064632 128.47650356
v -177.84460265 -155.64303485 128.66743916
v -174.00359451 -159.16977748 128.75872502
v -176.39784556 -158.05574486 130.66427666
v -178.22274675 -132.60837677 133.10003281
v -164.65178085 -163.73670586 133.74282706
v -164.52006501 -164.04444346 130.66427666
v -164.52006501 -155.96924244 130.46649339
v -177.59391802 -132.60837677 132.52342177
v -174.55170663 -159.56369000 130.66427666
v -170.29006790 -162.84732345 132.32488316
v -170.29006790 -162.84732345 132.59417010
v -168.35044325 -163.18892454 133.07797358
v -178.08891375 -132.60837677 131.26903376
v -164.52006501 -155.98770141 130.44291245
v -164.52006501 -163.13967859 128.65679272
v -166.65725790 -162.84424696 128.77241486
v -169.12374591 -162.32415409 129.85945924
v -164.65178085 -164.01983151 130.66427666
v -177.59391802 -132.60837677 132.49071610
v -168.07426452 -163.13967859 130.92138995
f 1 2 3
f 1 3 4
f 1 4 5
f 1 5 14
f 1 14 26
f 1 26 42
f 1 42 58
f 1 58 74
f 1 74 78
f 1 78 89
f 1 89 83
f 1 83 65
f 1 65 47
f 1 47 30
f 1 30 16
f 1 16 7
f 1 7 6
f 1 6 2
f 2 6 7
f 2 7 8
f 2 8 9
f 2 9 10
f 2 10 3
f 3 10 11
f 3 11 12
f 3 12 4
f 4 13 26
f 4 26 14
f 4 14 5
f 4 12 15
f 4 15 13
f 7 16 8
f 8 16 17
f 8 17 9
f 9 17 18
f 9 18 19
f 9 19 10
f 10 19 20
f 10 20 11
f 11 20 21
f 11 21 22
f 11 22 23
f 11 23 24
f 11 24 12
f 12 24 25
f 12 25 15
f 13 15 27
f 13 27 28
f 13 28 26
f 15 25 29
f 15 29 27
f 16 30 31
f 16 31 32
f 16 32 17
f 17 32 18
f 18 32 33
f 18 33 34
f 18 34 35
f 18 35 20
f 18 20 19
f 20 35 21
f 21 35 22
f 22 35 36
f 22 36 37
f 22 37 38
f 22 38 39
f 22 39 23
f 23 39 40
f 23 40 41
f 23 41 24
f 24 41 25
f 25 41 29
f 26 28 43
f 26 43 42
f 27 29 28
f 28 44 45
f 28 45 46
f 28 46 43
f 28 29 44
f 29 41 40
f 29 40 44
f 30 47 31
f 31 48 49
f 31 49 50
f 31 50 32
f 31 47 51
f 31 51 66
f 31 66 84
f 31 84 77
f 31 77 61
f 31 61 43
f 31 43 60
f 31 60 76
f 31 76 85
f 31 85 67
f 31 67 48
f 32 50 52
f 32 52 53
f 32 53 33
f 33 53 34
f 34 53 54
f 34 54 35
f 35 54 36
f 36 54 37
f 37 54 38
f 38 54 55
f 38 55 56
f 38 56 57
f 38 57 39
f 39 57 44
f 39 44 40
f 42 43 58
f 43 46 59
f 43 59 60
f 43 61 58
f 44 57 45
f 45 57 62
f 45 62 63
f 45 63 46
f 46 63 64
f 46 64 59
f 47 65 66
f 47 66 51
f 48 67 68
f 48 68 49
f 49 68 69
f 49 69 50
f 50 69 70
f 50 70 52
f 52 71 53
f 52 70 72
f 52 72 71
f 53 71 54
f 54 71 55
f 55 71 56
f 56 71 73
f 56 73 57
f 57 73 62
f 58 61 74
f 59 64 75
f 59 75 60
f 60 75 76
f 61 77 78
f 61 78 74
f 62 73 79
f 62 79 80
f 62 80 81
f 62 81 63
f 63 81 82
f 63 82 64
f 64 82 75
f 65 83 77
f 65 77 84
f 65 84 66
f 67 85 68
f 68 85 86
f 68 86 69
f 69 86 70
f 70 86 72
f 71 72 73
f 72 86 87
f 72 87 80
f 72 80 79
f 72 79 73
f 75 82 76
f 76 82 88
f 76 88 86
f 76 86 85
f 77 83 89
f 77 89 78
f 80 87 86
f 80 86 90
f 80 90 88
f 80 88 81
f 81 88 82
f 86 88 90

