# https://github.com/mikedh/trimesh
v 183.14923897 0.02677873 148.09155047
v 180.27101905 0.02677873 147.88833647
v 183.14923897 -1.85238564 148.09155047
v 184.20734336 0.02677873 147.79955371
v 179.35921903 0.02677873 146.73416608
v 180.27101905 -1.85238564 147.88833647
v 180.33981562 -5.55357044 147.84296095
v 183.14923897 -5.55357044 148.00474152
v 185.18969322 -5.55357044 147.47401876
v 185.23408736 -1.85238564 147.51545218
v 185.23408736 0.02677873 147.51545218
v 178.42129639 0.02677873 145.54645198
v 178.42129639 -1.85238564 145.54645198
v 178.48922185 -5.55357044 145.59182751
v 178.64249520 -9.25475800 145.63917685
v 180.49308898 -9.25475800 147.74825676
v 180.75870398 -12.95594555 147.59436590
v 183.14923897 -9.25475800 147.82520219
v 185.01463080 -11.25454243 147.32407552
v 185.09300972 -9.25475800 147.39115742
v 185.81061570 -12.67661038 145.75755570
v 186.07797294 -9.25475800 145.46358513
v 186.15372747 -5.55357044 145.46358513
v 186.18683010 -1.85238564 145.46358513
v 186.18683010 0.02677873 145.46358513
v 177.57829296 0.02677873 143.69779893
v 177.54258798 -9.25475800 143.78855550
v 177.52604769 -12.95594555 143.80236664
v 177.55042808 -16.65078439 143.72344741
v 178.90898132 -12.95594555 145.65101418
v 177.58526193 -18.77753899 143.64255436
v 179.12059779 -20.14881860 144.92891475
v 179.66228125 -24.05315951 144.86972808
v 181.04087029 -15.71755230 147.44442266
v 182.07109878 -15.71755230 147.44442266
v 183.24242696 -12.67661038 147.54504276
v 184.53739933 -13.71776787 147.18596961
v 185.39521184 -27.75434706 144.01741798
v 185.72787014 -24.05315951 144.46330008
v 185.90293257 -20.35197195 144.82237875
v 185.98042934 -16.65078439 145.12226522
v 186.42196686 -24.05315951 141.76233693
v 186.06751948 0.02677873 143.84774217
v 186.40714676 -42.54639710 134.36576194
v 177.57829296 0.02677873 143.57153036
v 177.52604769 -12.95594555 143.43145065
v 177.55304145 -41.04814733 136.33870976
v 177.59571539 -64.82970425 132.52500412
v 180.05766034 -27.75434706 144.41595075
v 180.66117140 -30.75719532 143.98584808
v 183.14923897 -24.05315951 145.72006989
v 183.14923897 -20.35197195 146.44611142
v 183.24242696 -16.83489160 147.01235170
v 185.12523020 -29.99537438 143.72542122
v 185.93775539 -64.82970425 133.79360575
v 186.30265624 -27.75434706 141.76233693
v 186.22339517 -64.82970425 130.66451374
v 186.41411574 -35.14402475 138.06306253
v 185.95169334 0.02677873 142.27924855
v 186.22339517 -53.64996252 130.66451374
v 186.21556610 -49.94877497 130.66451374
v 179.45066478 0.02677873 141.81758149
v 180.61239960 -47.06654127 128.42719145
v 180.23182959 -49.94877497 128.21016631
v 178.38210693 -49.94877497 130.56980955
v 177.57045286 -47.58711932 132.40465146
v 177.55304145 -40.03873204 136.03881776
v 177.55304145 -41.04814733 136.03881776
v 177.59571539 -64.82970425 132.49343423
v 179.45066478 -64.82970425 134.22370842
v 183.14923897 -27.75434706 144.82040494
v 183.14923897 -64.82970425 135.49231556
v 185.28461243 -64.82970425 128.56529735
v 183.14923897 0.02677873 140.52727349
v 185.83238272 -46.37455619 130.52443403
v 185.15745068 -47.70139618 128.67775478
v 185.28461243 -53.64996252 128.56529735
v 185.26022102 -49.94877497 128.58699821
v 183.14923897 -47.02845449 128.42127554
v 183.14923897 -49.94877497 127.98130383
v 183.14923897 -53.64996252 127.93592830
v 180.19612461 -53.64996252 128.18649164
v 180.19612461 -64.82970425 128.18649164
v 178.38559142 -64.82970425 130.58954212
v 178.34553084 -64.82970425 130.64281288
v 178.34553084 -53.64996252 130.64281288
v 177.61138456 -64.82970425 132.45397461
v 183.19539741 -64.82970425 127.94973944
v 183.14923897 -64.82970425 127.93790211
f 1 2 6
f 1 6 3
f 1 3 4
f 1 4 11
f 1 11 25
f 1 25 43
f 1 43 59
f 1 59 74
f 1 74 62
f 1 62 45
f 1 45 26
f 1 26 12
f 1 12 5
f 1 5 2
f 2 5 6
f 3 6 7
f 3 7 8
f 3 8 9
f 3 9 10
f 3 10 4
f 4 10 11
f 5 12 13
f 5 13 6
f 6 13 14
f 6 14 7
f 7 14 15
f 7 15 16
f 7 16 8
f 8 16 17
f 8 17 18
f 8 18 19
f 8 19 20
f 8 20 9
f 9 20 21
f 9 21 22
f 9 22 23
f 9 23 10
f 10 23 24
f 10 24 25
f 10 25 11
f 12 26 27
f 12 27 28
f 12 28 13
f 13 28 14
f 14 28 29
f 14 29 15
f 15 30 16
f 15 29 31
f 15 31 30
f 16 30 31
f 16 31 17
f 17 31 32
f 17 32 33
f 17 33 34
f 17 34 18
f 18 34 35
f 18 35 36
f 18 36 19
f 19 36 37
f 19 37 38
f 19 38 39
f 19 39 40
f 19 40 41
f 19 41 20
f 20 41 21
f 21 41 22
f 22 41 42
f 22 42 23
f 23 42 24
f 24 42 25
f 25 42 44
f 25 44 43
f 26 45 46
f 26 46 28
f 26 28 27
f 28 46 68
f 28 68 47
f 28 47 48
f 28 48 29
f 29 48 31
f 31 33 32
f 31 48 33
f 33 48 49
f 33 49 34
f 34 49 50
f 34 50 51
f 34 51 35
f 35 37 36
f 35 51 52
f 35 52 53
f 35 53 37
f 37 53 52
f 37 52 51
f 37 51 54
f 37 54 38
f 38 54 55
f 38 55 39
f 39 56 40
f 39 55 56
f 40 56 41
f 41 56 42
f 42 56 55
f 42 55 57
f 42 57 58
f 42 58 44
f 43 44 59
f 44 58 57
f 44 57 60
f 44 60 61
f 44 61 59
f 45 62 63
f 45 63 64
f 45 64 65
f 45 65 66
f 45 66 46
f 46 66 67
f 46 67 68
f 47 68 69
f 47 69 48
f 48 69 87
f 48 87 85
f 48 85 84
f 48 84 83
f 48 83 89
f 48 89 88
f 48 88 73
f 48 73 57
f 48 57 55
f 48 55 72
f 48 72 70
f 48 70 49
f 49 70 50
f 50 71 51
f 50 70 72
f 50 72 71
f 51 71 54
f 54 71 72
f 54 72 55
f 57 73 77
f 57 77 60
f 59 61 75
f 59 75 76
f 59 76 74
f 60 77 61
f 61 78 76
f 61 76 75
f 61 77 78
f 62 74 63
f 63 79 80
f 63 80 64
f 63 74 79
f 64 80 81
f 64 81 82
f 64 82 65
f 65 82 83
f 65 83 84
f 65 84 85
f 65 85 86
f 65 86 66
f 66 86 85
f 66 85 87
f 66 87 69
f 66 69 68
f 66 68 67
f 73 88 81
f 73 81 77
f 74 76 79
f 76 78 80
f 76 80 79
f 77 81 78
f 78 81 80
f 81 88 89
f 81 89 83
f 81 83 82

