# https://github.com/mikedh/trimesh
v 138.47260417 126.86580870 8.56302523
v 137.81660525 126.86580870 5.84247837
v 137.54199234 126.86580870 10.95047271
v 153.54538428 121.49753637 11.37983106
v 153.54538428 121.42321533 11.26457281
v 153.17924842 119.34221532 8.72894639
v 151.71468295 118.40463451 6.70626744
v 153.17924842 116.18071537 6.34910193
v 153.54538428 112.84769261 5.59550428
v 135.04004195 126.86580870 5.43591805
v 135.04004195 126.86580870 11.03406182
v 153.36231635 121.50897122 11.37983106
v 155.52865323 119.44512900 11.37983106
v 155.52865323 118.74193513 10.07275120
v 154.18613305 117.16975853 7.60551888
v 155.39134677 114.70571849 6.71006619
v 153.54538428 109.14878761 5.26873432
v 123.94902785 86.95533558 -1.55922961
v 123.94902785 90.08254200 -1.07667769
v 94.33742127 126.86580870 5.36372520
v 123.15573350 126.86580870 11.07585913
v 150.41794629 120.40559055 11.37983106
v 94.33742127 126.86580870 11.09738907
v 38.85187528 126.86580870 11.09232223
v 10.12509977 126.86580870 11.05939603
v 155.52865323 117.42130326 11.37983106
v 155.55916455 105.44988261 7.23568352
v 155.55916455 105.44988261 6.45042224
v 155.54391441 109.14878761 6.47068960
v 155.46763059 112.84769261 6.59987478
v 153.54538428 105.44988261 5.16107908
v 153.53013413 68.46651700 5.26620365
v 123.94902785 83.25071316 -1.35024857
v 120.24186373 86.95533558 -1.43764194
v -0.29464872 105.44988261 3.34484500
v 9.78947524 126.86580870 5.70315951
v 38.85187528 126.86580870 5.37006013
v 150.23486734 119.97108816 11.37983106
v -0.29464872 126.86580870 10.66296388
v -0.29464872 105.44988261 10.72502856
v 10.17087227 68.46651700 11.00113561
v 149.13644875 68.46651700 11.37983106
v 145.68862535 105.44988261 11.37983106
v 155.55916455 68.46651700 7.23315285
v 155.55916455 72.15399266 7.23568352
v 154.65907507 68.46651700 11.37983106
v 155.55916455 72.15399266 6.45042224
v 155.54391441 68.46651700 6.44535539
v 121.00465779 80.96390783 -0.89048916
v 123.94902785 81.00964173 -0.86769664
v 125.82550167 81.31836073 -0.72330542
v 38.85187528 68.46651700 5.30039794
v -0.29464872 68.46651700 5.92734109
v 119.95200067 83.02775005 -1.14506627
v -0.29464872 126.86580870 5.97926657
v -0.29464872 68.46651700 10.61356906
v 9.74370826 68.46651700 5.67783082
f 1 2 10
f 1 10 20
f 1 20 37
f 1 37 36
f 1 36 55
f 1 55 39
f 1 39 25
f 1 25 24
f 1 24 23
f 1 23 21
f 1 21 11
f 1 11 3
f 1 3 4
f 1 4 2
f 2 4 5
f 2 5 6
f 2 6 7
f 2 7 8
f 2 8 9
f 2 9 10
f 3 11 4
f 4 11 12
f 4 12 22
f 4 22 38
f 4 38 43
f 4 43 42
f 4 42 46
f 4 46 26
f 4 26 13
f 4 13 14
f 4 14 5
f 5 14 6
f 6 14 7
f 7 14 15
f 7 15 16
f 7 16 8
f 8 16 9
f 9 16 17
f 9 17 18
f 9 18 10
f 10 18 19
f 10 19 20
f 11 21 12
f 12 21 23
f 12 23 24
f 12 24 25
f 12 25 22
f 13 26 45
f 13 45 27
f 13 27 28
f 13 28 14
f 14 28 29
f 14 29 30
f 14 30 16
f 14 16 15
f 16 30 17
f 17 30 29
f 17 29 31
f 17 31 18
f 18 31 32
f 18 32 33
f 18 33 34
f 18 34 35
f 18 35 36
f 18 36 37
f 18 37 19
f 19 37 20
f 22 25 38
f 25 39 40
f 25 40 41
f 25 41 42
f 25 42 43
f 25 43 38
f 26 44 45
f 26 46 44
f 27 45 44
f 27 44 47
f 27 47 28
f 28 47 31
f 28 31 29
f 31 47 48
f 31 48 32
f 32 49 50
f 32 50 51
f 32 51 33
f 32 48 44
f 32 44 46
f 32 46 42
f 32 42 41
f 32 41 56
f 32 56 53
f 32 53 57
f 32 57 52
f 32 52 49
f 33 51 50
f 33 50 49
f 33 49 53
f 33 53 54
f 33 54 34
f 34 54 53
f 34 53 35
f 35 53 56
f 35 56 40
f 35 40 39
f 35 39 55
f 35 55 36
f 40 56 41
f 44 48 47
f 49 52 57
f 49 57 53

