# https://github.com/mikedh/trimesh
v 94.33543644 -142.35296717 124.53966099
v 38.83102625 -142.36250541 124.53966099
v -112.82195591 -142.35296717 124.63052783
v 94.33543644 -142.46019236 126.96564182
v 96.91643838 -143.40369459 126.96564182
v 96.91643838 -143.35127290 124.53966099
v 9.55368238 -142.95099789 124.53966099
v -142.15144028 -142.93908888 124.62933693
v -112.82195591 -142.45781056 126.96564182
v -142.12537279 -143.00580138 126.96564182
v 94.33543644 -143.27265139 130.66380251
v 96.57751682 -143.81111501 130.66380251
v 101.81772320 -157.84931102 133.99130632
v 101.81772320 -157.82787480 133.91120170
v 101.81772320 -157.21554225 130.66380251
v 101.81772320 -158.45210534 128.34303997
v 101.81772320 -160.94429696 127.80738268
v 96.96857338 -144.29954977 124.53966099
v -0.32709526 -143.19641168 124.53966099
v -142.82928341 -146.15319798 124.62933693
v -164.52006501 -160.94667876 127.94847135
v -164.52006501 -157.96368161 128.17086106
v -164.52006501 -157.86837646 128.18760535
v -164.52006501 -155.96707015 130.46771737
v -112.82195591 -143.27265139 130.66380251
v -141.70823771 -143.43705084 130.66380251
v 67.11768394 -143.97789626 132.84348189
v 81.66510034 -144.04937237 132.77174114
v 94.33543644 -144.15182293 132.66413553
v 96.23859525 -144.21853543 132.59837134
v 101.81772320 -160.87520265 135.54207427
v 101.81772320 -163.54608453 128.28325233
v 96.21252776 -148.04497708 124.53966099
v 96.65573033 -147.29921953 124.53966099
v 96.91643838 -146.37001913 124.53966099
v -0.32709526 -146.94660260 124.53966099
v -141.23896763 -148.76451277 124.62933693
v -153.54431467 -160.94667876 126.75640165
v -164.52006501 -161.03244567 127.96760296
v -164.52006501 -156.96537588 134.13598424
v -85.60419791 -143.97789626 132.84228548
v 66.04878426 -143.97789626 132.84348189
v -141.08254060 -143.98027807 132.83989265
v 94.33543644 -146.15319798 133.64695955
v 96.60358431 -146.15319798 133.05630580
v 101.81772320 -160.94429696 135.56837884
v 81.74331385 -148.65729861 124.53966099
v 94.33543644 -148.45239750 124.53966099
v 101.81772320 -163.57228435 128.32630119
v -149.84227805 -166.23602083 129.70249741
v -149.84227805 -164.38475441 127.75238622
v -149.84227805 -160.94667876 126.72412051
v 10.49222529 -148.72401111 124.53966099
v -153.54431467 -164.37521618 127.76433934
v -164.52006501 -163.09338783 128.57619189
v -164.52006501 -157.00349574 134.14913377
v -155.96888958 -158.84047134 136.36229070
v -112.82195591 -146.15319798 133.64695955
v -141.73430520 -146.15319798 133.44250502
v 94.33543644 -149.85336004 134.53294017
v 94.33543644 -160.94429696 135.64967988
v 101.81772320 -164.16555146 134.12044188
v 67.30017847 -148.73830192 124.53966099
v 101.81772320 -164.98039230 130.66380251
v -149.84227805 -166.69109933 131.54978313
v -153.54431467 -166.68156110 131.58565350
v -153.54431467 -166.22173002 129.73836778
v 65.89235722 -148.73830192 124.53966099
v -164.52006501 -163.13627129 128.65749293
v -164.52006501 -160.94667876 135.44642177
v -156.28173263 -160.94667876 136.45555588
v -153.54431467 -160.94667876 136.72696549
v -153.54431467 -158.68559910 136.45196664
v -112.82195591 -149.85336004 134.53294017
v -149.84227805 -158.65701747 136.46750899
v -149.84227805 -160.94667876 136.75446648
v -149.84227805 -163.32449978 136.49979013
v 101.81772320 -164.22511856 134.09294089
v -149.84227805 -166.69109933 132.89967477
v -153.54431467 -166.68156110 132.88413241
v -155.73424903 -166.61484860 131.91923807
v -164.52006501 -164.04165367 130.66380251
v -164.52006501 -163.74622204 133.75217784
v -156.02102458 -163.12198048 136.38859527
v -153.54431467 -163.30543434 136.48783701
v -149.84227805 -165.17338440 134.74935332
v -153.54431467 -165.15194818 134.73500737
v -155.73424903 -166.61484860 132.75141312
f 1 2 3
f 1 3 4
f 1 4 5
f 1 5 6
f 1 6 18
f 1 18 35
f 1 35 34
f 1 34 33
f 1 33 48
f 1 48 47
f 1 47 63
f 1 63 68
f 1 68 53
f 1 53 36
f 1 36 19
f 1 19 7
f 1 7 2
f 2 7 8
f 2 8 3
f 3 9 4
f 3 8 10
f 3 10 9
f 4 11 12
f 4 12 5
f 4 9 11
f 5 13 14
f 5 14 15
f 5 15 6
f 5 12 13
f 6 15 16
f 6 16 17
f 6 17 18
f 7 19 8
f 8 20 21
f 8 21 22
f 8 22 23
f 8 23 24
f 8 24 10
f 8 19 20
f 9 25 11
f 9 10 26
f 9 26 25
f 10 24 26
f 11 27 28
f 11 28 29
f 11 29 30
f 11 30 12
f 11 25 42
f 11 42 27
f 12 30 13
f 13 31 46
f 13 46 62
f 13 62 78
f 13 78 64
f 13 64 49
f 13 49 32
f 13 32 17
f 13 17 16
f 13 16 15
f 13 15 14
f 13 30 31
f 17 32 33
f 17 33 34
f 17 34 35
f 17 35 18
f 19 36 20
f 20 36 37
f 20 37 38
f 20 38 21
f 21 39 55
f 21 55 69
f 21 69 82
f 21 82 83
f 21 83 70
f 21 70 56
f 21 56 40
f 21 40 24
f 21 24 23
f 21 23 22
f 21 38 39
f 24 40 26
f 25 41 42
f 25 26 43
f 25 43 41
f 26 40 43
f 27 42 58
f 27 58 44
f 27 44 28
f 28 44 29
f 29 44 30
f 30 44 45
f 30 45 46
f 30 46 31
f 32 47 48
f 32 48 33
f 32 49 50
f 32 50 51
f 32 51 52
f 32 52 47
f 36 53 37
f 37 52 38
f 37 53 52
f 38 52 54
f 38 54 39
f 39 54 55
f 40 56 57
f 40 57 43
f 41 58 42
f 41 43 58
f 43 57 59
f 43 59 58
f 44 60 46
f 44 46 45
f 44 58 74
f 44 74 60
f 46 60 61
f 46 61 62
f 47 52 63
f 49 64 50
f 50 65 66
f 50 66 67
f 50 67 54
f 50 54 51
f 50 64 65
f 51 54 52
f 52 53 68
f 52 68 63
f 54 67 55
f 55 67 69
f 56 70 57
f 57 70 71
f 57 71 72
f 57 72 73
f 57 73 59
f 58 59 73
f 58 73 75
f 58 75 74
f 60 74 75
f 60 75 76
f 60 76 61
f 61 76 77
f 61 77 62
f 62 77 78
f 64 78 79
f 64 79 65
f 65 79 80
f 65 80 66
f 66 80 88
f 66 88 81
f 66 81 67
f 67 81 82
f 67 82 69
f 70 83 84
f 70 84 71
f 71 84 72
f 72 84 85
f 72 85 76
f 72 76 73
f 73 76 75
f 76 85 77
f 77 85 86
f 77 86 78
f 78 86 79
f 79 86 80
f 80 86 87
f 80 87 88
f 81 88 82
f 82 88 83
f 83 88 84
f 84 88 87
f 84 87 85
f 85 87 86

