# https://github.com/mikedh/trimesh
v -112.84503513 136.03012164 7.90799668
v -141.96832825 136.03012164 8.71543297
v -141.56287061 137.91185527 9.46154890
v -112.84503513 137.98716872 9.40022302
v -57.35280411 137.97516047 9.41044492
v -57.35280411 136.03012164 7.92843496
v -142.17804810 136.03012164 9.23669469
v -142.20601221 138.98697410 12.08828475
v -141.33915768 141.10447302 13.20234494
v -112.84503513 139.83724424 11.47503697
v -57.35280411 139.82524701 11.49548077
v -1.86056757 137.93696343 9.45132700
v -1.86056757 136.03012164 7.99998274
v -142.61146985 136.03012164 13.63161508
v -143.08683778 138.75011715 15.97217083
v -141.89841796 141.55744540 15.97217083
v -112.84503513 141.81284953 15.97217083
v -85.93081349 141.10774800 13.20234494
v -84.30897192 141.10774800 13.20234494
v -28.92858634 141.09137311 13.22278874
v -1.86056757 139.78703894 11.53636285
v -0.29464872 138.08213204 10.36097678
v -0.29464872 137.57240442 9.78861108
v -0.29464872 136.03012164 9.04250066
v -142.26192942 142.60745607 112.30279626
v -142.79322558 142.44918755 93.66013782
v -142.90508205 142.44918755 89.96022387
v -142.98897439 142.44918755 86.26030992
v -143.05887366 142.44918755 82.56039596
v -143.10081983 142.44918755 78.86048339
v -141.66073399 136.03012164 17.32130713
v -140.72398020 140.53580683 104.11597034
v -140.87777181 140.45503509 101.05996435
v -141.05953857 140.35679679 97.36005040
v -141.22731224 140.25966118 93.66013782
v -143.12878395 142.44918755 75.16056944
v -143.11480189 142.44918755 71.46065548
v -143.07285572 142.44918755 67.76074153
v -143.00295645 142.44918755 64.06082757
v -142.91906410 142.44918755 60.36091362
v -142.09416677 141.81066621 19.67208479
v -140.61213476 144.30800737 43.55798888
v -112.84503513 142.29965231 19.67208479
v -57.35280411 141.80084127 15.97217083
v -1.86056757 141.76155257 15.97217083
v -1.86056757 140.99313482 13.38631707
v -0.29464872 140.79011930 13.75426684
v -0.29464872 136.03012164 15.67576884
v -142.27591148 142.74607473 112.30279626
v -127.63738014 142.08462854 112.30279626
v -142.26192942 146.02819750 108.45979226
v -140.61213476 136.88912505 36.52611075
v -112.84503513 136.03012164 17.92433302
v -112.84503513 141.72552782 112.30279626
v -85.09192859 140.60020370 106.62005994
v -142.26192942 145.92995921 104.75987831
v -142.23396530 145.83064028 101.05996435
v -142.16406604 145.63198037 93.66013782
v -142.06620266 145.43551481 86.26030992
v -142.15008398 141.91436280 23.37199874
v -142.01027442 145.33727652 82.56039596
v -141.87045384 145.14190262 75.16056944
v -141.77257943 145.04475598 71.46065548
v -141.54888855 144.85047374 64.06082757
v -141.40906797 144.75333813 60.36091362
v -141.25527636 144.65509983 56.67122157
v -141.08750269 144.55686154 52.97130761
v -140.90573593 144.45972593 49.27139366
v -140.72398020 144.36148764 45.57147971
v -141.95434619 146.49099481 112.29257987
v -112.84503513 147.18081311 112.30279626
v -85.11989271 144.30909903 43.52732870
v -85.07794653 144.30909903 43.52732870
v -57.35280411 142.28219679 19.67208479
v -1.86056757 142.22652217 19.67208479
v -0.29464872 141.21252522 15.97217083
v -0.29464872 140.95166280 14.29596684
v -1.74871662 136.03012164 17.60749274
v -0.29464872 140.55218172 88.49865495
v -3.03500533 140.49869042 97.36005040
v -3.45445054 140.56527060 99.88457828
v -141.95434619 146.48990315 112.30279626
v -85.11989271 136.88803339 36.55677093
v -85.06396448 136.88803339 36.55677093
v -57.35280411 136.03012164 17.87322904
v -57.35280411 141.74626935 112.30279626
v -29.59969481 136.89894998 36.36257690
v -29.50182592 140.54563177 103.95244201
v -1.86056757 141.82267446 112.30279626
v -57.35280411 147.15461329 112.30279626
v -29.48784386 144.36367096 46.19494663
v -3.39852231 144.34402109 50.26280760
v -2.95111850 144.41496791 52.97130761
v -0.29464872 144.35930432 61.63850903
v -0.29464872 141.55635374 19.67208479
v -0.29464872 141.34351329 17.01468876
v -15.60429680 136.03012164 17.68925691
v -0.29464872 140.73554737 90.75744378
v -0.29464872 140.75738056 91.00274179
v -1.76269868 141.87724639 112.30279626
v -1.86056757 147.06184431 112.30279626
v -2.41982234 144.51102288 56.67122157
v -0.29464872 144.38768746 62.25175406
v -1.60890155 144.55249490 60.54488713
v -0.29464872 142.75808298 112.30279626
v -0.29464872 146.02492252 112.30279626
v -0.29464872 145.96270898 109.79871217
v -0.29464872 145.10479723 83.70512185
v -0.29464872 144.97926746 79.94388339
f 1 2 3
f 1 3 4
f 1 4 5
f 1 5 6
f 1 6 13
f 1 13 24
f 1 24 48
f 1 48 78
f 1 78 97
f 1 97 85
f 1 85 53
f 1 53 31
f 1 31 14
f 1 14 7
f 1 7 2
f 2 7 3
f 3 7 8
f 3 8 9
f 3 9 10
f 3 10 4
f 4 10 5
f 5 11 21
f 5 21 12
f 5 12 6
f 5 10 11
f 6 12 13
f 7 14 15
f 7 15 8
f 8 15 16
f 8 16 9
f 9 16 17
f 9 17 18
f 9 18 10
f 10 18 19
f 10 19 11
f 11 20 21
f 11 19 20
f 12 21 22
f 12 22 23
f 12 23 13
f 13 23 24
f 14 25 26
f 14 26 27
f 14 27 28
f 14 28 29
f 14 29 30
f 14 30 15
f 14 31 32
f 14 32 33
f 14 33 34
f 14 34 35
f 14 35 25
f 15 30 36
f 15 36 37
f 15 37 38
f 15 38 39
f 15 39 40
f 15 40 41
f 15 41 16
f 16 41 42
f 16 42 43
f 16 43 17
f 17 19 18
f 17 43 44
f 17 44 19
f 19 44 20
f 20 44 45
f 20 45 46
f 20 46 21
f 21 46 47
f 21 47 22
f 22 47 77
f 22 77 76
f 22 76 96
f 22 96 95
f 22 95 94
f 22 94 103
f 22 103 109
f 22 109 108
f 22 108 107
f 22 107 106
f 22 106 105
f 22 105 99
f 22 99 98
f 22 98 79
f 22 79 48
f 22 48 24
f 22 24 23
f 25 49 27
f 25 27 26
f 25 35 34
f 25 34 33
f 25 33 32
f 25 32 50
f 25 50 54
f 25 54 86
f 25 86 89
f 25 89 100
f 25 100 105
f 25 105 106
f 25 106 101
f 25 101 90
f 25 90 71
f 25 71 82
f 25 82 49
f 27 49 51
f 27 51 28
f 28 51 29
f 29 51 30
f 30 51 36
f 31 52 32
f 31 53 52
f 32 54 50
f 32 52 55
f 32 55 54
f 36 51 37
f 37 51 56
f 37 56 38
f 38 56 39
f 39 56 57
f 39 57 58
f 39 58 40
f 40 58 59
f 40 59 60
f 40 60 41
f 41 60 61
f 41 61 62
f 41 62 63
f 41 63 64
f 41 64 65
f 41 65 66
f 41 66 67
f 41 67 68
f 41 68 69
f 41 69 42
f 42 69 70
f 42 70 71
f 42 71 72
f 42 72 43
f 43 72 73
f 43 73 74
f 43 74 44
f 44 74 45
f 45 75 76
f 45 76 77
f 45 77 46
f 45 74 75
f 46 77 47
f 48 79 80
f 48 80 81
f 48 81 78
f 49 82 51
f 51 82 70
f 51 70 56
f 52 53 83
f 52 83 55
f 53 84 83
f 53 85 84
f 54 55 86
f 55 83 84
f 55 84 87
f 55 87 88
f 55 88 89
f 55 89 86
f 56 70 57
f 57 70 58
f 58 70 59
f 59 70 61
f 59 61 60
f 61 70 62
f 62 70 63
f 63 70 64
f 64 70 65
f 65 70 66
f 66 70 67
f 67 70 68
f 68 70 69
f 70 82 71
f 71 73 72
f 71 90 73
f 73 90 91
f 73 91 75
f 73 75 74
f 75 91 92
f 75 92 93
f 75 93 94
f 75 94 95
f 75 95 96
f 75 96 76
f 78 81 88
f 78 88 87
f 78 87 84
f 78 84 97
f 79 98 89
f 79 89 81
f 79 81 80
f 81 89 88
f 84 85 97
f 89 98 99
f 89 99 100
f 90 101 91
f 91 101 92
f 92 101 93
f 93 102 94
f 93 101 102
f 94 102 104
f 94 104 101
f 94 101 103
f 99 105 100
f 101 106 107
f 101 107 108
f 101 108 109
f 101 109 103
f 101 104 102

