# https://github.com/mikedh/trimesh
v 138.44415487 -75.15915379 8.56306934
v 146.55114633 -103.23675877 11.48472958
v 146.55114633 -102.83918533 10.96060088
v 146.55114633 -102.00039416 8.82781873
v 146.55114633 -102.49493780 5.66560203
v 137.84044533 -75.15915379 5.80805803
v 137.50983801 -75.15915379 10.89743902
v 146.55114633 -105.44766622 12.17012059
v 146.55114633 -105.44766622 4.80819200
v 135.03748372 -75.15915379 5.37128963
v 125.82369326 -81.31673427 -0.72333299
v 123.94069154 -79.15915822 0.28728423
v 123.94069154 -76.94824526 2.13784492
v 135.03748372 -75.15915379 10.93909850
v 123.12136278 -124.68648218 11.03182888
v 135.03748372 -124.68648218 10.96329143
v 137.00674856 -124.68648218 10.92969259
v 137.50983801 -124.68648218 10.91088077
v 146.55114633 -106.28160557 11.71050453
v 123.94069154 -79.55187984 11.26163966
v 10.16969791 -75.15915379 11.00092059
v 10.15532440 -124.68648218 11.01570210
v 38.86039629 -124.68648218 11.02779856
v 65.52435232 -124.68648218 11.03854975
v 67.75233486 -124.68648218 11.03854975
v 146.55114633 -105.86463589 4.89151095
v 137.82606630 -124.68648218 5.81746394
v 142.44014553 -105.44766622 3.91449258
v 123.94069154 -86.95067673 -1.55924615
v 126.03930145 -86.95067673 -0.96658552
v 125.96742838 -83.25128104 -0.87385514
v 124.14193173 -75.15915379 4.80819200
v 123.94069154 -83.25128104 -1.35093775
v 123.94069154 -81.00643292 -0.86847955
v 121.00837384 -80.96279412 -0.89132169
v 9.75284953 -75.15915379 5.66426226
v 119.94468986 -75.15915379 4.80819200
v 38.86039629 -75.15915379 5.29871635
v 123.78256637 -75.15915379 10.99823004
v 138.27166171 -124.68648218 9.04418777
v 146.55114633 -108.01252484 10.29940279
v 67.73796135 -75.15915379 11.02242297
v 65.53872583 -75.15915379 11.02242297
v -0.29464872 -75.15915379 10.61387230
v -0.29464872 -105.44766622 10.72407473
v -0.28027521 -124.68648218 10.63403491
v 146.55114633 -108.25979114 5.79596156
v 137.96981244 -124.68648218 6.36040447
v 135.59808927 -124.68648218 5.46670504
v 120.24653912 -86.95067673 -1.43829253
v 135.03748372 -124.68648218 5.38741641
v 123.94069154 -90.08280113 -1.07678244
v 9.76722304 -124.68648218 5.67501345
v -0.29464872 -105.44766622 3.34601936
v 119.95906889 -83.02825177 -1.14531989
v -0.29464872 -75.15915379 5.92766638
v 138.45852287 -124.68648218 8.56306934
v 146.55114633 -108.41979088 9.38285572
v -0.29464872 -123.94951303 10.61387230
v -0.29464872 -124.68648218 10.52920807
v 146.55114633 -108.41009827 6.21794846
v 94.34442333 -124.68648218 5.30812777
v 38.86039629 -124.68648218 5.31484313
v -0.29464872 -124.68648218 5.93841757
v 146.55114633 -108.66221639 8.77003247
f 1 2 3
f 1 3 4
f 1 4 5
f 1 5 6
f 1 6 10
f 1 10 32
f 1 32 37
f 1 37 38
f 1 38 36
f 1 36 56
f 1 56 44
f 1 44 21
f 1 21 43
f 1 43 42
f 1 42 39
f 1 39 14
f 1 14 7
f 1 7 2
f 2 8 19
f 2 19 41
f 2 41 58
f 2 58 65
f 2 65 61
f 2 61 47
f 2 47 26
f 2 26 9
f 2 9 5
f 2 5 4
f 2 4 3
f 2 7 8
f 5 9 6
f 6 9 11
f 6 11 12
f 6 12 13
f 6 13 10
f 7 14 8
f 8 15 16
f 8 16 17
f 8 17 18
f 8 18 19
f 8 14 20
f 8 20 21
f 8 21 22
f 8 22 23
f 8 23 24
f 8 24 25
f 8 25 15
f 9 26 27
f 9 27 28
f 9 28 29
f 9 29 30
f 9 30 31
f 9 31 11
f 10 13 32
f 11 31 33
f 11 33 34
f 11 34 12
f 12 34 35
f 12 35 36
f 12 36 13
f 13 37 32
f 13 36 38
f 13 38 37
f 14 39 20
f 15 25 24
f 15 24 23
f 15 23 22
f 15 22 46
f 15 46 60
f 15 60 64
f 15 64 53
f 15 53 63
f 15 63 62
f 15 62 51
f 15 51 49
f 15 49 27
f 15 27 48
f 15 48 57
f 15 57 40
f 15 40 18
f 15 18 17
f 15 17 16
f 18 40 41
f 18 41 19
f 20 39 42
f 20 42 43
f 20 43 21
f 21 44 45
f 21 45 22
f 22 45 46
f 26 47 27
f 27 49 29
f 27 29 28
f 27 47 48
f 29 50 33
f 29 33 31
f 29 31 30
f 29 49 51
f 29 51 52
f 29 52 53
f 29 53 54
f 29 54 50
f 33 50 55
f 33 55 35
f 33 35 34
f 35 55 56
f 35 56 36
f 40 57 41
f 41 57 58
f 44 56 54
f 44 54 64
f 44 64 60
f 44 60 59
f 44 59 45
f 45 59 46
f 46 59 60
f 47 61 57
f 47 57 48
f 50 54 55
f 51 62 52
f 52 62 63
f 52 63 53
f 53 64 54
f 54 56 55
f 57 61 65
f 57 65 58

