# https://github.com/mikedh/trimesh
v 155.55916455 68.46651149 7.23298745
v 155.55916455 68.44640952 7.23631205
v 155.55916455 68.44640952 6.45166276
v 155.54391441 68.46651149 6.44584609
v 154.65907507 68.46651149 11.37899853
v 154.93366593 1.76189096 11.37899853
v 155.55916455 0.02677873 7.23631205
v 155.55916455 0.02677873 6.45166276
v 153.54538428 1.85567992 5.19988260
v 153.54538428 68.44640952 5.26554755
v 153.53013413 68.46651149 5.26720710
v 149.13644875 68.46651149 11.37899853
v 154.93366593 0.02677873 11.37899853
v 153.54538428 0.02677873 5.19988260
v 141.05084940 0.14736571 2.94982980
v 138.74720606 0.24785624 2.90328543
v 135.04004195 0.27465151 2.88915450
v 12.96269124 0.28135033 2.88915450
v 9.25551609 0.28135033 2.88915450
v -0.29464872 0.27465151 2.88915450
v 38.85187528 68.44640952 5.29796101
v 38.85187528 68.46651149 5.30128561
v 145.21569436 1.00487222 11.37899853
v 10.17087227 68.46651149 11.00080481
v 145.21569436 0.02677873 11.37899853
v 141.05084940 0.02677873 2.94982980
v 140.02870360 0.02677873 2.92904968
v 138.74720606 0.02677873 2.90328543
v 136.80972063 0.02677873 2.89580370
v 135.04004195 0.02677873 2.88915450
v -0.29464872 0.02677873 2.88915450
v -0.29464872 68.46651149 5.92884074
v 9.75896392 68.44640952 5.66618094
v 9.74370826 68.46651149 5.67865232
v 10.00305449 1.85567992 11.00080481
v -0.29464872 68.46651149 10.61346982
v -0.29464872 1.85567992 10.70406650
v 10.00305449 0.02677873 11.00080481
v -0.29464872 0.02677873 10.70406650
f 1 2 7
f 1 7 8
f 1 8 3
f 1 3 4
f 1 4 11
f 1 11 22
f 1 22 34
f 1 34 32
f 1 32 36
f 1 36 24
f 1 24 12
f 1 12 5
f 1 5 2
f 2 6 13
f 2 13 7
f 2 5 6
f 3 8 14
f 3 14 9
f 3 9 10
f 3 10 4
f 4 10 11
f 5 12 23
f 5 23 25
f 5 25 13
f 5 13 6
f 7 13 25
f 7 25 38
f 7 38 39
f 7 39 31
f 7 31 30
f 7 30 29
f 7 29 28
f 7 28 27
f 7 27 26
f 7 26 14
f 7 14 8
f 9 14 26
f 9 26 15
f 9 15 10
f 10 15 16
f 10 16 17
f 10 17 18
f 10 18 19
f 10 19 20
f 10 20 21
f 10 21 11
f 11 21 22
f 12 24 23
f 15 26 27
f 15 27 16
f 16 27 28
f 16 28 29
f 16 29 17
f 17 29 30
f 17 30 31
f 17 31 20
f 17 20 19
f 17 19 18
f 20 31 39
f 20 39 37
f 20 37 36
f 20 36 32
f 20 32 33
f 20 33 21
f 21 33 22
f 22 33 34
f 23 24 35
f 23 35 38
f 23 38 25
f 24 36 37
f 24 37 35
f 32 34 33
f 35 37 39
f 35 39 38

