# https://github.com/mikedh/trimesh
v 135.04519149 -142.47699729 124.53966099
v 135.04519149 -142.58604191 126.96468249
v 137.94913708 -143.18339999 126.96468249
v 137.97858982 -143.11701829 124.53966099
v 109.15120249 -142.69745730 124.53966099
v 109.15120249 -142.80174934 126.96468249
v 134.89793881 -143.51051178 130.86647619
v 137.60160354 -143.59347788 130.66319052
v 106.44752673 -143.51762411 130.66319052
v 120.81999097 -143.43702879 130.66319052
v 123.23503867 -143.43702879 130.66319052
v 161.99355780 -156.54558333 130.60699213
v 138.15529525 -144.14104968 124.53966099
v 161.99355780 -158.16934357 128.24893675
v 161.99355780 -160.94986552 127.85791878
v 108.10861290 -142.81834477 124.53966099
v 106.12355759 -143.14783836 126.96468249
v 137.14804674 -144.07467901 132.74263574
v 122.58121205 -143.97748827 132.84068658
v 161.99355780 -157.40605331 134.11418414
v 161.99355780 -157.11449211 133.04157943
v 105.36370770 -146.15119110 130.66319052
v 106.97177673 -144.03201609 132.78448819
v 121.53861142 -143.97748827 132.84068658
v 138.30255897 -146.15119110 124.53966099
v 161.99355780 -163.30845570 128.42471592
v 153.54678469 -160.94986552 126.76737889
v 106.09411587 -143.08620924 124.53966099
v 101.82361154 -157.22116595 130.66319052
v 134.89793881 -145.94022521 133.38476287
v 153.54678469 -158.69320763 136.44832226
v 155.96183239 -158.85202749 136.35624798
v 161.99355780 -159.78360969 135.17841395
v 101.82361154 -157.83036687 133.91209488
v 101.82361154 -157.85170385 133.99221604
v 106.42397336 -146.15119110 133.35845830
v 120.79642657 -146.15119110 133.44215768
v 137.94913708 -147.23922238 124.53966099
v 157.24593228 -163.92240920 128.04685300
v 161.99355780 -164.48420566 130.66319052
v 153.54678469 -166.21937027 129.75560276
v 153.54678469 -164.36804872 127.76943375
v 149.84764813 -160.94986552 126.72433002
v 137.20106388 -148.62119667 124.53966099
v 105.65233576 -146.15119110 124.53966099
v 101.82361154 -158.45379245 128.34101102
v 135.04519149 -149.85145240 134.38203208
v 123.26449142 -146.15119110 133.44215768
v 149.84764813 -158.65764601 136.46865027
v 149.84764813 -160.94986552 136.75563533
v 153.54678469 -160.94986552 136.71975944
v 156.27991319 -160.94986552 136.44832226
v 161.99355780 -160.94986552 135.56106252
v 101.82361154 -160.87638253 135.54193092
v 101.82361154 -160.94986552 135.56943191
v 109.15120249 -149.85145240 134.15722748
v 161.99355780 -164.40359931 131.53251507
v 155.72622148 -166.61049299 132.74143933
v 155.72622148 -166.61049299 131.94266463
v 153.54678469 -166.67923443 131.60426133
v 149.84764813 -166.23595467 129.70179720
v 149.84764813 -164.38701492 127.75149856
v 101.82361154 -163.54787088 128.28122339
v 106.87753016 -148.66860114 124.53966099
v 121.35012931 -148.73260104 124.53966099
v 122.74614079 -148.73260104 124.53966099
v 101.82361154 -160.94986552 127.80650053
v 149.84764813 -163.32505113 136.49974051
v 153.54678469 -163.29897260 136.48539456
v 156.01484954 -163.11408524 136.38374897
v 161.99355780 -163.18756824 134.41790796
v 101.82361154 -164.23056583 134.09385612
v 161.99355780 -163.97455522 133.93960138
v 153.54678469 -165.14792338 134.72761386
v 153.54678469 -166.67923443 132.87775888
v 149.84764813 -166.69107728 131.55045577
v 101.82361154 -164.97962042 130.66319052
v 101.82361154 -163.57394941 128.32426674
v 149.84764813 -165.17400190 134.74913278
v 147.60342854 -166.62707738 132.77133315
v 149.84764813 -166.69107728 132.89928331
v 147.60342854 -166.62707738 131.87211478
f 1 2 3
f 1 3 4
f 1 4 13
f 1 13 25
f 1 25 38
f 1 38 44
f 1 44 66
f 1 66 65
f 1 65 64
f 1 64 45
f 1 45 28
f 1 28 16
f 1 16 5
f 1 5 6
f 1 6 2
f 2 7 8
f 2 8 3
f 2 6 9
f 2 9 10
f 2 10 11
f 2 11 7
f 3 8 12
f 3 12 4
f 4 12 14
f 4 14 15
f 4 15 13
f 5 16 17
f 5 17 6
f 6 17 9
f 7 18 8
f 7 11 19
f 7 19 18
f 8 18 20
f 8 20 21
f 8 21 12
f 9 17 22
f 9 22 23
f 9 23 10
f 10 23 24
f 10 24 19
f 10 19 11
f 12 21 20
f 12 20 33
f 12 33 53
f 12 53 71
f 12 71 73
f 12 73 57
f 12 57 40
f 12 40 26
f 12 26 15
f 12 15 14
f 13 15 25
f 15 26 27
f 15 27 25
f 16 28 17
f 17 28 29
f 17 29 22
f 18 30 31
f 18 31 32
f 18 32 20
f 18 19 30
f 19 24 30
f 20 32 33
f 22 29 34
f 22 34 35
f 22 35 23
f 23 35 36
f 23 36 37
f 23 37 24
f 24 37 30
f 25 27 38
f 26 39 27
f 26 40 41
f 26 41 39
f 27 39 42
f 27 42 43
f 27 43 44
f 27 44 38
f 28 45 46
f 28 46 29
f 29 46 67
f 29 67 63
f 29 63 78
f 29 78 77
f 29 77 72
f 29 72 55
f 29 55 54
f 29 54 35
f 29 35 34
f 30 47 31
f 30 37 48
f 30 48 47
f 31 49 50
f 31 50 51
f 31 51 32
f 31 47 49
f 32 52 53
f 32 53 33
f 32 51 52
f 35 54 36
f 36 54 55
f 36 55 56
f 36 56 49
f 36 49 47
f 36 47 37
f 37 47 48
f 39 41 42
f 40 57 58
f 40 58 59
f 40 59 41
f 41 59 60
f 41 60 61
f 41 61 42
f 42 61 62
f 42 62 43
f 43 62 63
f 43 63 64
f 43 64 65
f 43 65 66
f 43 66 44
f 45 64 67
f 45 67 46
f 49 56 55
f 49 55 50
f 50 68 69
f 50 69 51
f 50 55 68
f 51 69 70
f 51 70 52
f 52 70 53
f 53 70 71
f 55 72 68
f 57 73 58
f 58 73 70
f 58 70 74
f 58 74 75
f 58 75 60
f 58 60 59
f 60 75 81
f 60 81 76
f 60 76 61
f 61 76 77
f 61 77 78
f 61 78 63
f 61 63 62
f 63 67 64
f 68 79 69
f 68 72 79
f 69 79 74
f 69 74 70
f 70 73 71
f 72 77 80
f 72 80 81
f 72 81 79
f 74 79 75
f 75 79 81
f 76 81 80
f 76 80 82
f 76 82 77
f 77 82 80

