# https://github.com/mikedh/trimesh
v -183.14929411 -8.21299266 147.87455290
v -180.44985266 -8.21299266 147.77305065
v -184.54770944 -8.21299266 147.56224466
v -185.01418972 -11.25705104 147.32410860
v -183.14929411 -9.26014738 147.82575353
v -180.75845036 -12.96172087 147.59347273
v -180.49291255 -9.26014738 147.74767785
v -178.64237390 -9.26014738 145.63960689
v -178.60033951 -8.21299266 145.62593910
v -185.11978293 -8.21299266 147.41389480
v -185.09311998 -9.26014738 147.39047375
v -184.53745446 -13.72882092 147.18552302
v -183.24259237 -12.68166620 147.54467336
v -185.93790977 -132.60530027 133.79341830
v -184.09557511 -132.60530027 134.91577069
v -183.14929411 -132.60530027 135.49158228
v -182.07074592 -15.72572458 147.44512838
v -181.04141061 -15.72572458 147.44512838
v -175.94909647 -120.44125141 134.57418062
v -175.94909647 -120.24642885 134.58980017
v -177.58536117 -18.78195662 143.64279144
v -177.55050527 -16.65111520 143.72477063
v -177.52691882 -12.96172087 143.80285183
v -177.54230129 -9.26014738 143.78918403
v -177.54845427 -8.21299266 143.77552175
v -185.82925109 -8.21299266 146.02608179
v -185.81079213 -12.68166620 145.75671766
v -185.97994416 -16.65111520 145.12234793
v -186.22293204 -132.60530027 130.66449169
v -186.07735544 -9.26014738 145.46393248
v -186.09887987 -8.21299266 145.46393248
v -186.42183454 -24.05426219 141.76309778
v -180.70616099 -132.60530027 134.65421357
v -179.45025679 -132.60530027 134.22283730
v -175.94909647 -124.02105530 133.64116493
v -175.94909647 -105.44014590 134.71472346
v -177.54845427 -8.21299266 143.50420587
v -175.94909647 -101.76291971 133.53966820
v -175.94909647 -101.68986676 130.81869129
v -185.28485502 -127.64957585 128.56422775
v -185.28381850 -132.60530027 128.56422775
v -186.41363056 -35.15897717 138.06225757
v -186.40644104 -42.56212140 134.36532638
v -186.22293204 -53.65465997 130.66449169
v -186.03223353 -8.21299266 143.05136030
v -185.97892969 -8.21299266 142.14371741
v -177.59459065 -132.60530027 132.52466781
v -175.94909647 -124.04541363 133.62555090
v -177.57100420 -47.60307518 132.40364802
v -178.38196358 -49.95308647 130.57079646
v -179.13140411 -46.10540157 130.65278116
v -180.61287375 -47.07949783 128.42564217
v -179.65940324 -8.21299266 141.39223140
v -175.94909647 -101.70204041 130.79331849
v -175.94909647 -103.28495717 128.85896468
v -175.94909647 -103.41888941 128.75551620
v -183.14929411 -90.64603108 127.93570776
v -184.56000439 -132.60530027 128.35147000
v -185.28485502 -53.65465997 128.56422775
v -186.21576458 -49.95308647 130.66449169
v -183.70804715 -8.21299266 140.62902935
v -185.15771533 -47.71266563 128.67744052
v -185.83231656 -46.38545624 130.52590611
v -177.59459065 -132.60530027 132.49148798
v -175.94909647 -124.27676818 130.77965621
v -180.23250222 -49.95308647 128.20898092
v -183.14929411 -49.95308647 127.98060362
v -183.14929411 -47.03079219 128.41978691
v -183.10725972 -8.21299266 140.24450621
v -181.12753038 -9.96636813 139.82679222
v -180.44882716 -8.21299266 141.11115675
v -175.94909647 -121.40316850 128.67548876
v -180.19559532 -53.65465997 128.18750611
v -183.14929411 -83.24288960 127.93570776
v -179.90032910 -109.14171939 128.18750611
v -183.14929411 -132.60530027 127.93765952
v -185.26024307 -49.95308647 128.58764880
v -183.14929411 -53.65465997 127.93765952
v -178.09079935 -132.60530027 131.26958511
v -175.94909647 -122.45032322 128.67548876
v -179.26468576 -120.35601379 128.26558730
v -180.19559532 -132.60530027 128.18750611
v -182.14661072 -132.60530027 128.02159598
v -178.34608218 -132.60530027 130.64302239
f 1 2 9
f 1 9 25
f 1 25 37
f 1 37 53
f 1 53 71
f 1 71 69
f 1 69 61
f 1 61 46
f 1 46 45
f 1 45 31
f 1 31 26
f 1 26 10
f 1 10 3
f 1 3 4
f 1 4 5
f 1 5 6
f 1 6 7
f 1 7 2
f 2 7 8
f 2 8 9
f 3 10 11
f 3 11 4
f 4 12 13
f 4 13 5
f 4 11 14
f 4 14 15
f 4 15 16
f 4 16 12
f 5 13 17
f 5 17 18
f 5 18 6
f 6 18 19
f 6 19 7
f 7 19 20
f 7 20 8
f 8 21 22
f 8 22 9
f 8 20 21
f 9 22 23
f 9 23 24
f 9 24 25
f 10 26 27
f 10 27 11
f 11 27 28
f 11 28 14
f 12 16 13
f 13 16 17
f 14 29 41
f 14 41 58
f 14 58 76
f 14 76 83
f 14 83 82
f 14 82 84
f 14 84 79
f 14 79 64
f 14 64 47
f 14 47 34
f 14 34 33
f 14 33 16
f 14 16 15
f 14 28 30
f 14 30 31
f 14 31 32
f 14 32 29
f 16 33 19
f 16 19 18
f 16 18 17
f 19 33 34
f 19 34 35
f 19 35 48
f 19 48 65
f 19 65 80
f 19 80 72
f 19 72 56
f 19 56 55
f 19 55 54
f 19 54 39
f 19 39 38
f 19 38 36
f 19 36 20
f 20 36 23
f 20 23 22
f 20 22 21
f 23 36 24
f 24 36 25
f 25 36 38
f 25 38 39
f 25 39 37
f 26 31 30
f 26 30 27
f 27 30 28
f 29 40 41
f 29 32 42
f 29 42 43
f 29 43 44
f 29 44 59
f 29 59 40
f 31 45 32
f 32 45 46
f 32 46 43
f 32 43 42
f 34 47 35
f 35 47 48
f 37 49 50
f 37 50 51
f 37 51 52
f 37 52 53
f 37 39 54
f 37 54 55
f 37 55 56
f 37 56 49
f 40 57 58
f 40 58 41
f 40 59 74
f 40 74 57
f 43 46 60
f 43 60 44
f 44 60 59
f 46 61 62
f 46 62 63
f 46 63 60
f 47 64 65
f 47 65 48
f 49 56 50
f 50 66 52
f 50 52 51
f 50 56 66
f 52 66 67
f 52 67 68
f 52 68 69
f 52 69 70
f 52 70 53
f 53 70 71
f 56 72 73
f 56 73 66
f 57 74 75
f 57 75 76
f 57 76 58
f 59 60 77
f 59 77 78
f 59 78 74
f 60 63 62
f 60 62 77
f 61 69 62
f 62 68 67
f 62 67 77
f 62 69 68
f 64 79 80
f 64 80 65
f 66 73 78
f 66 78 67
f 67 78 77
f 69 71 70
f 72 80 81
f 72 81 75
f 72 75 73
f 73 75 78
f 74 78 75
f 75 81 82
f 75 82 83
f 75 83 76
f 79 84 80
f 80 84 82
f 80 82 81

