# https://github.com/mikedh/trimesh
v -121.06629794 -108.45743658 8.00660437
v -121.06629794 -106.47482924 8.89206673
v -121.06629794 -108.40561034 5.18780268
v -115.41547335 -138.79252646 12.66514390
v -121.06629794 -105.43818312 9.20771059
v -121.06629794 -105.43818312 3.49304048
v -114.85985193 -133.51855583 6.56692652
v -115.35636938 -134.86619248 8.53329130
v -115.13175224 -137.61333612 9.74632859
v -115.39183176 -138.80548302 12.32747388
v -115.27361280 -139.34972471 12.66514390
v -115.49821890 -135.06057396 12.66514390
v -121.06629794 -102.30230958 8.14607761
v -115.01353328 -8.21299266 10.69969435
v -115.91199079 -8.21299266 8.47181656
v -112.83831977 -105.43818312 3.29208699
v -112.83831977 -127.64849521 5.38416900
v -112.83831977 -131.34156700 5.86130674
v -121.06629794 -104.59589643 3.83529767
v -115.61644889 -8.21299266 6.01912867
v -113.76041887 -8.21299266 5.47959544
v -112.83831977 -8.21299266 5.21808243
v -112.83831977 -133.71291526 6.47975368
v -112.83831977 -135.56593495 7.54781533
v -112.83831977 -137.97616392 9.39673302
v -112.83831977 -139.82918360 11.47321202
v -112.83831977 -140.59370888 12.66514390
v -112.83831977 -132.49484422 12.66514390
v -112.83831977 -8.21299266 11.01167178
v -121.06629794 -102.30230958 6.03381093
v -115.68737366 -8.21299266 6.57426490
v -121.06629794 -102.35413582 4.98685470
v -57.35854359 -105.43818312 3.29300773
v -57.35854359 -127.64849521 5.39150737
v -1.85512582 -105.43818312 3.29575893
v -57.35854359 -131.34156700 5.87048108
v -84.46596684 -133.95912299 6.35312674
v -85.76636442 -133.95912299 6.35312674
v -100.30719778 -133.82954636 6.41093505
v -57.35854359 -8.21299266 5.22634155
v -57.35854359 -135.55298941 7.55791042
v -57.35854359 -137.96319633 9.40682811
v -57.35854359 -139.81621602 11.48422234
v -57.35854359 -140.56779575 12.66514390
v -57.35854359 -132.52076836 12.66514390
v -84.04037416 -8.21299266 11.02268210
v -86.23923476 -8.21299266 11.02268210
v -1.85512582 -127.64849521 5.42453833
v -0.29464872 -105.43818312 3.34530813
v -1.85512582 -8.21299266 5.25937803
v -1.85512582 -131.34156700 5.90443278
v -29.05712093 -133.93320987 6.36872974
v -1.85512582 -137.92432665 9.44261027
v -1.85512582 -139.77734633 11.52918436
v -1.85512582 -140.51595849 12.66514390
v -1.85512582 -132.62443187 12.66514390
v -28.67882245 -8.21299266 10.99882549
v -0.29464872 -130.44746510 6.22742054
v -0.29464872 -8.21299266 5.84662447
v -0.29464872 -131.34156700 6.34395239
v -0.29464872 -132.92246584 6.55958263
v -0.29464872 -133.31121778 6.66051700
v -1.85512582 -133.63517590 6.50636150
v -4.01851853 -133.73883941 6.45956902
v -1.85512582 -135.48819559 7.59369258
v -0.29464872 -137.56149885 9.78486746
v -0.88573803 -140.24383764 12.66514390
v -1.06306648 -140.29567491 12.66514390
v -1.19310623 -133.15571701 12.66514390
v -1.85512582 -8.21299266 10.97129693
v -0.29464872 -8.21299266 10.61527822
v -0.29464872 -136.88768053 9.27561399
v -0.29464872 -139.66071524 12.66514390
v -0.30646952 -134.67183305 12.66514390
v -1.29949889 -8.21299266 10.84559073
v -0.29464872 -134.67183305 12.66330792
v -0.29464872 -136.65441834 12.66514390
f 1 2 5
f 1 5 13
f 1 13 30
f 1 30 32
f 1 32 19
f 1 19 6
f 1 6 3
f 1 3 4
f 1 4 2
f 2 4 5
f 3 6 7
f 3 7 8
f 3 8 9
f 3 9 10
f 3 10 4
f 4 10 11
f 4 11 27
f 4 27 44
f 4 44 55
f 4 55 68
f 4 68 67
f 4 67 73
f 4 73 77
f 4 77 74
f 4 74 69
f 4 69 56
f 4 56 45
f 4 45 28
f 4 28 12
f 4 12 5
f 5 12 14
f 5 14 15
f 5 15 13
f 6 16 17
f 6 17 18
f 6 18 7
f 6 19 20
f 6 20 21
f 6 21 22
f 6 22 16
f 7 18 23
f 7 23 24
f 7 24 9
f 7 9 8
f 9 24 25
f 9 25 26
f 9 26 27
f 9 27 11
f 9 11 10
f 12 28 29
f 12 29 14
f 13 15 30
f 14 29 47
f 14 47 46
f 14 46 57
f 14 57 70
f 14 70 75
f 14 75 71
f 14 71 59
f 14 59 50
f 14 50 40
f 14 40 22
f 14 22 21
f 14 21 20
f 14 20 31
f 14 31 15
f 15 31 19
f 15 19 32
f 15 32 30
f 16 33 17
f 16 22 33
f 17 34 18
f 17 33 35
f 17 35 34
f 18 34 36
f 18 36 37
f 18 37 38
f 18 38 39
f 18 39 23
f 19 31 20
f 22 40 35
f 22 35 33
f 23 39 24
f 24 41 42
f 24 42 25
f 24 39 38
f 24 38 37
f 24 37 41
f 25 42 26
f 26 43 27
f 26 42 43
f 27 43 44
f 28 45 46
f 28 46 47
f 28 47 29
f 34 48 36
f 34 35 48
f 35 49 48
f 35 40 50
f 35 50 49
f 36 51 52
f 36 52 37
f 36 48 51
f 37 52 41
f 41 53 42
f 41 52 53
f 42 53 43
f 43 54 55
f 43 55 44
f 43 53 54
f 45 56 46
f 46 56 57
f 48 58 51
f 48 49 58
f 49 50 59
f 49 59 71
f 49 71 76
f 49 76 77
f 49 77 73
f 49 73 66
f 49 66 72
f 49 72 62
f 49 62 61
f 49 61 60
f 49 60 58
f 51 58 60
f 51 60 61
f 51 61 62
f 51 62 63
f 51 63 64
f 51 64 52
f 52 64 65
f 52 65 53
f 53 65 66
f 53 66 54
f 54 67 68
f 54 68 55
f 54 66 67
f 56 69 70
f 56 70 57
f 62 72 65
f 62 65 63
f 63 65 64
f 65 72 66
f 66 73 67
f 69 74 70
f 70 74 76
f 70 76 75
f 71 75 76
f 74 77 76

