# https://github.com/mikedh/trimesh
v 161.99356883 -164.48510986 130.66430974
v 164.65022606 -164.02063647 130.66430974
v 168.35015655 -163.19065576 133.07800666
v 161.99356883 -164.40265100 131.53302781
v 161.99356883 -163.30883062 128.42404328
v 164.65022606 -163.08347468 128.58379491
v 166.65869139 -162.84436825 128.77244794
v 168.07574212 -163.13843255 130.92142303
v 170.29002379 -162.84711394 132.32491624
v 170.29002379 -162.84711394 132.59420318
v 164.65022606 -163.73482027 133.74286015
v 171.73545766 -160.90956235 133.63940615
v 168.35015655 -160.94803506 134.79110652
v 161.99356883 -163.97391567 133.93912171
v 161.99356883 -160.94803506 127.85732333
v 164.65022606 -160.94803506 127.95165260
v 168.07574212 -161.03323961 128.27494911
v 169.12610565 -162.32493699 129.85948681
v 172.05009808 -159.71954363 128.47653665
v 174.00414585 -159.16714206 128.75875258
v 174.54825522 -159.56289606 130.66430974
v 174.66418060 -159.64808958 133.20656882
v 164.65022606 -160.94803506 135.44226465
v 175.83755978 -157.37798995 134.13386157
v 172.05009808 -157.24882131 135.51985515
v 161.99356883 -163.18791007 134.41836007
v 161.99356883 -158.16949795 128.24832475
v 180.15256852 -136.41118786 128.17909813
v 183.14988956 -136.41118786 127.95317431
v 179.44995906 -146.15116904 127.87330125
v 175.74765779 -153.54960756 127.83526410
v 172.05009808 -157.24882131 127.88090427
v 175.44011867 -157.02621107 128.41491855
v 176.39822047 -158.05406878 130.66430974
v 177.84365434 -155.64381776 128.66747224
v 178.43507996 -156.22920066 133.33892973
v 161.99356883 -160.94803506 135.56169657
v 179.58006498 -153.60732215 134.07224348
v 175.74765779 -153.54960756 135.60657589
v 161.99356883 -156.54525252 130.60649592
v 178.30260327 -136.41118786 130.49467253
v 185.25534715 -136.41118786 128.58835452
v 183.14988956 -138.75274155 127.98132037
v 182.56793600 -146.15116904 128.18746751
v 178.69767360 -153.54960756 128.36166985
v 179.81190471 -150.21042079 128.09922507
v 178.40905658 -156.20446742 130.66430974
v 181.28573274 -151.68351002 128.83026177
v 180.46010764 -153.60732215 130.30373694
v 181.76360377 -152.41455775 131.29720739
v 181.76360377 -152.41455775 133.10919613
v 183.14988956 -136.41118786 135.46584559
v 181.78961613 -136.41118786 135.09843062
v 179.44995906 -136.41118786 134.29512939
v 161.99356883 -159.78276062 135.17830368
v 182.47330349 -149.85039382 133.76720194
v 179.44995906 -149.85039382 135.44530806
v 179.44995906 -146.15116904 135.52289856
v 161.99356883 -157.11415027 133.04149673
v 177.55504834 -136.41118786 132.58811636
v 177.55504834 -136.41118786 132.34393206
v 177.82709199 -136.41118786 131.66538873
v 186.15904242 -136.41118786 130.66430974
v 185.20566012 -138.75274155 128.62943508
v 183.43140529 -142.46569476 128.22170040
v 185.08502627 -141.24270574 128.73441079
v 184.85081577 -143.70792566 129.03260465
v 181.90554151 -149.21827908 128.44078205
v 184.45338568 -146.30782764 130.42544591
v 182.60104966 -150.21042079 130.30373694
v 185.31449522 -145.18102591 131.49955578
v 185.31449522 -145.18102591 132.99053058
v 184.91469437 -136.41118786 134.39021401
v 183.14988956 -138.75274155 135.42172712
v 178.72842752 -136.41118786 133.66298709
v 161.99356883 -157.40547991 134.11484023
v 183.43850659 -146.30782764 134.15439909
v 183.14988956 -142.45195529 135.17754282
v 186.08333200 -136.41118786 131.77873382
v 185.84676175 -138.75274155 133.70026339
v 186.05258911 -138.75274155 130.66430974
v 185.54160443 -142.46569476 130.42544591
v 185.61493305 -142.45195529 133.41804194
v 185.90355007 -136.41118786 133.75807721
f 1 2 3
f 1 3 4
f 1 4 14
f 1 14 26
f 1 26 37
f 1 37 55
f 1 55 76
f 1 76 59
f 1 59 40
f 1 40 27
f 1 27 15
f 1 15 5
f 1 5 6
f 1 6 7
f 1 7 2
f 2 7 8
f 2 8 9
f 2 9 10
f 2 10 3
f 3 11 4
f 3 10 12
f 3 12 13
f 3 13 11
f 4 11 14
f 5 15 16
f 5 16 6
f 6 16 17
f 6 17 7
f 7 18 9
f 7 9 8
f 7 17 19
f 7 19 20
f 7 20 18
f 9 18 20
f 9 20 21
f 9 21 22
f 9 22 10
f 10 22 12
f 11 13 23
f 11 23 14
f 12 22 24
f 12 24 25
f 12 25 13
f 13 25 23
f 14 23 26
f 15 27 28
f 15 28 29
f 15 29 30
f 15 30 31
f 15 31 32
f 15 32 16
f 16 32 17
f 17 32 19
f 19 32 33
f 19 33 20
f 20 34 21
f 20 33 35
f 20 35 34
f 21 34 22
f 22 34 36
f 22 36 24
f 23 37 26
f 23 25 37
f 24 36 38
f 24 38 39
f 24 39 25
f 25 39 37
f 27 40 41
f 27 41 28
f 28 41 62
f 28 62 61
f 28 61 60
f 28 60 75
f 28 75 54
f 28 54 53
f 28 53 52
f 28 52 73
f 28 73 84
f 28 84 79
f 28 79 63
f 28 63 42
f 28 42 29
f 29 42 43
f 29 43 30
f 30 43 44
f 30 44 31
f 31 45 33
f 31 33 32
f 31 44 46
f 31 46 45
f 33 45 35
f 34 35 47
f 34 47 36
f 35 45 48
f 35 48 49
f 35 49 47
f 36 47 50
f 36 50 51
f 36 51 38
f 37 39 52
f 37 52 53
f 37 53 54
f 37 54 55
f 38 51 56
f 38 56 57
f 38 57 39
f 39 57 58
f 39 58 52
f 40 59 60
f 40 60 61
f 40 61 62
f 40 62 41
f 42 63 64
f 42 64 43
f 43 64 65
f 43 65 44
f 44 65 66
f 44 66 67
f 44 67 68
f 44 68 46
f 45 46 68
f 45 68 48
f 47 49 50
f 48 68 67
f 48 67 69
f 48 69 70
f 48 70 50
f 48 50 49
f 50 70 71
f 50 71 72
f 50 72 51
f 51 72 56
f 52 58 74
f 52 74 73
f 54 75 76
f 54 76 55
f 56 72 77
f 56 77 57
f 57 77 78
f 57 78 74
f 57 74 58
f 59 76 60
f 60 76 75
f 63 79 80
f 63 80 81
f 63 81 64
f 64 81 66
f 64 66 65
f 66 81 82
f 66 82 67
f 67 82 71
f 67 71 69
f 69 71 70
f 71 82 81
f 71 81 72
f 72 81 83
f 72 83 77
f 73 74 80
f 73 80 84
f 74 78 80
f 77 83 78
f 78 83 80
f 79 84 80
f 80 83 81

