# https://github.com/mikedh/trimesh
v 157.31583154 123.47421126 126.88023328
v 157.24871104 123.58320075 123.26237019
v 157.24871104 123.47421126 126.88023328
v 160.97443336 123.09881285 126.88023328
v 157.24871104 123.64376026 119.55405377
v 153.55082052 123.57109325 52.97399403
v 150.57318243 123.17146883 19.66700692
v 154.07628347 123.24412481 82.56136357
v 154.16631778 123.20780233 86.25837195
v 154.26125904 123.17146883 89.95537894
v 154.53135095 123.02614584 101.05770936
v 154.61647831 122.96560838 104.75471774
v 154.70323764 122.90504887 108.46303140
v 154.79327195 122.83239289 112.16003978
v 154.88493824 122.73552192 115.85704540
v 154.97987950 122.63863993 119.55405377
v 155.07646377 122.52965045 123.26237019
v 155.17304803 122.40855348 126.88023328
v 155.66577224 122.46910196 19.66700692
v 155.76235650 122.57809145 23.37531783
v 155.85729776 122.68706990 27.07232896
v 155.95223903 122.78395189 30.76933458
v 156.04390531 122.85661890 34.46634295
v 156.13230765 122.92927488 38.17465662
v 156.30418331 123.05037185 45.56867337
v 153.55082052 123.53477078 19.66700692
v 153.55082052 123.60741573 23.37531783
v 157.24871104 123.65586775 97.36070098
v 157.24871104 123.72852373 104.75471774
v 157.24871104 123.74063122 108.46303140
v 157.24871104 123.69219023 115.85704540
v 161.65377614 120.38620533 126.88023328
v 159.10830274 122.10580001 80.52631317
v 153.55082052 123.63164174 49.26567899
v 150.92840169 122.96560838 34.46634295
v 150.75488302 123.07459786 27.07232896
v 153.55082052 123.68008274 45.56867337
v 153.55082052 123.71640521 41.87166499
v 153.55082052 123.72852373 38.17465662
v 153.55082052 123.72852373 34.46634295
v 153.55082052 123.70429772 30.76933458
v 150.60101422 123.07459786 15.96999854
v 149.76288466 120.24089337 15.96999854
v 145.69830694 105.44270413 11.37983106
v 151.01516102 122.89294137 38.17465662
v 151.10519533 122.82028539 41.87166499
v 151.19850462 122.73552192 45.56867337
v 151.38838715 122.51754296 52.97399403
v 151.48497141 122.39644598 56.67100241
v 151.65357210 122.16635953 63.12663408
v 145.22686457 1.00767856 11.37983106
v 155.04209304 1.73426592 126.88023328
v 155.53809223 122.28745650 15.96999854
v 153.55082052 123.26835082 15.96999854
v 161.68815789 120.20457089 126.88023328
v 155.53809223 119.44164452 11.37983106
v 151.01843600 122.67496241 12.90611938
v 150.31617940 120.60418429 11.91120441
v 150.25070191 119.97448444 11.37983106
v 145.22686457 0.75337160 11.37983106
v 155.04209304 0.02678424 126.88023328
v 155.43823298 122.14213352 14.00278470
v 153.55082052 122.56597293 13.12092812
v 161.95006787 105.75755406 126.88023328
v 155.53154227 117.41930740 11.37983106
v 153.55082052 121.48820765 11.37983106
v 159.40295146 101.74921332 79.90449269
v 159.40622644 1.85536841 79.54270556
v 159.40622644 0.02678424 79.54270556
v 155.43332603 0.02678424 13.98016861
v 153.37402688 121.51242263 11.37983106
v 150.42422058 120.41043134 11.37983106
v 145.22850757 0.02678424 11.37983106
v 161.12994517 0.02678424 126.88023328
v 154.94386578 0.02678424 11.37983106
f 1 2 3
f 1 3 18
f 1 18 52
f 1 52 61
f 1 61 74
f 1 74 64
f 1 64 55
f 1 55 32
f 1 32 4
f 1 4 2
f 2 5 34
f 2 34 6
f 2 6 7
f 2 7 8
f 2 8 9
f 2 9 10
f 2 10 11
f 2 11 12
f 2 12 13
f 2 13 3
f 2 4 5
f 3 13 14
f 3 14 15
f 3 15 16
f 3 16 17
f 3 17 18
f 4 19 20
f 4 20 21
f 4 21 22
f 4 22 23
f 4 23 24
f 4 24 25
f 4 25 26
f 4 26 27
f 4 27 28
f 4 28 29
f 4 29 30
f 4 30 31
f 4 31 5
f 4 32 33
f 4 33 19
f 5 31 37
f 5 37 34
f 6 34 7
f 7 35 36
f 7 36 11
f 7 11 10
f 7 10 9
f 7 9 8
f 7 34 37
f 7 37 38
f 7 38 39
f 7 39 40
f 7 40 41
f 7 41 27
f 7 27 26
f 7 26 42
f 7 42 43
f 7 43 44
f 7 44 35
f 11 36 35
f 11 35 12
f 12 35 13
f 13 35 45
f 13 45 46
f 13 46 14
f 14 46 47
f 14 47 15
f 15 47 16
f 16 47 48
f 16 48 17
f 17 48 49
f 17 49 18
f 18 49 50
f 18 50 44
f 18 44 51
f 18 51 52
f 19 26 20
f 19 33 53
f 19 53 26
f 20 26 21
f 21 26 22
f 22 26 23
f 23 26 24
f 24 26 25
f 26 54 42
f 26 53 54
f 27 41 28
f 28 41 29
f 29 41 40
f 29 40 30
f 30 40 39
f 30 39 38
f 30 38 31
f 31 38 37
f 32 55 33
f 33 55 56
f 33 56 53
f 35 44 45
f 42 54 57
f 42 57 58
f 42 58 44
f 42 44 43
f 44 50 49
f 44 49 48
f 44 48 47
f 44 47 46
f 44 46 45
f 44 58 59
f 44 59 72
f 44 72 71
f 44 71 66
f 44 66 56
f 44 56 65
f 44 65 75
f 44 75 73
f 44 73 60
f 44 60 51
f 51 60 61
f 51 61 52
f 53 56 62
f 53 62 54
f 54 63 57
f 54 62 63
f 55 64 56
f 56 66 62
f 56 64 67
f 56 67 68
f 56 68 69
f 56 69 70
f 56 70 65
f 57 63 71
f 57 71 72
f 57 72 58
f 58 72 59
f 60 73 61
f 61 73 75
f 61 75 70
f 61 70 69
f 61 69 74
f 62 66 63
f 63 66 71
f 64 74 69
f 64 69 68
f 64 68 67
f 65 70 75

