# https://github.com/mikedh/trimesh
v 135.04174009 164.97837438 130.66385213
v 135.04174009 164.22947417 134.09334337
v 142.43236056 164.92075904 130.66385213
v 142.43236056 163.55369307 128.27693394
v -0.29464872 164.97837438 130.66385213
v 135.04174009 160.94806814 135.64902930
v 142.43236056 164.16743706 134.04758742
v -0.29464872 164.22947417 134.09334337
v 38.85189458 160.94806814 135.65447657
v 142.43236056 160.94806814 127.79759083
v 137.19325687 148.61566119 124.52606487
v 122.73334963 148.72644805 124.52606487
v 67.32464707 148.73088085 124.52606487
v 65.92755496 148.73088085 124.52606487
v -0.29464872 163.54926027 128.28128955
v -0.29464872 164.37792878 129.66267390
v 94.34442333 149.85200374 134.53346945
v 135.04174009 149.85200374 134.38203759
v 142.43236056 160.94806814 135.52156982
v -0.29464872 162.32843251 134.99647076
v 12.96376084 160.94806814 135.63377915
v 38.85189458 149.85200374 134.52148326
v 142.43236056 158.46208465 128.33685390
v 137.97563463 143.11858411 124.52606487
v 138.29696835 146.15184168 124.52606487
v 10.51884688 148.71536605 124.52606487
v -0.29464872 147.17325971 124.52606487
v 94.34442333 146.15184168 133.64777002
v 134.88805874 145.93913355 133.38522049
v 137.62636987 146.15184168 133.28172238
v 142.43236056 160.93034798 135.51503090
v -0.29464872 160.94806814 135.62179847
v -0.29464872 158.80329980 135.31567078
v 10.01589527 146.15184168 133.42770698
v 38.85189458 146.15184168 133.63469768
v 142.43236056 157.24125689 130.65404925
v 137.94769256 143.18283762 126.96418628
v 136.03367229 142.67767511 124.52606487
v -0.29464872 143.16290105 124.52606487
v 67.14302366 143.97383838 132.84486576
v 122.57966829 143.97827118 132.84051015
v 66.09520734 143.97383838 132.84486576
v 137.15135480 144.07354325 132.74246483
v 142.43236056 157.87050464 133.98875912
v -0.29464872 146.56173211 133.12811822
v 10.67252823 143.98934215 132.82852396
v 142.43236056 157.86385545 133.96806170
v 137.59842781 143.59495548 130.66385213
v 135.04174009 142.58682482 126.96418628
v 135.04174009 142.47383258 124.52606487
v 9.56882778 142.95019293 124.52606487
v -0.29464872 143.19170321 125.71462252
v 94.34442333 143.27147152 130.66385213
v 134.88805874 143.51076540 130.86757336
v 38.85189458 143.28475888 130.66385213
v -0.29464872 144.48786648 132.41781753
v -0.29464872 144.42361297 132.38513392
v -0.29464872 144.39481081 132.32085836
v -0.29464872 143.75448106 130.24115951
v 10.04383733 143.45093366 130.66385213
v 94.34442333 142.45610139 126.96418628
v 94.34442333 142.34531453 124.52606487
v 38.85189458 142.35861293 124.52606487
v 9.61074087 143.01666284 126.96418628
v -0.29464872 143.24930753 126.96418628
v 38.85189458 142.46939979 126.96418628
v -0.29464872 143.48860141 129.07439093
f 1 2 3
f 1 3 4
f 1 4 5
f 1 5 8
f 1 8 2
f 2 6 7
f 2 7 3
f 2 8 9
f 2 9 6
f 3 7 19
f 3 19 31
f 3 31 44
f 3 44 47
f 3 47 36
f 3 36 23
f 3 23 10
f 3 10 4
f 4 10 11
f 4 11 12
f 4 12 13
f 4 13 14
f 4 14 15
f 4 15 16
f 4 16 5
f 5 16 15
f 5 15 27
f 5 27 39
f 5 39 52
f 5 52 65
f 5 65 67
f 5 67 59
f 5 59 58
f 5 58 57
f 5 57 56
f 5 56 45
f 5 45 33
f 5 33 32
f 5 32 20
f 5 20 8
f 6 17 18
f 6 18 19
f 6 19 7
f 6 9 17
f 8 20 9
f 9 20 21
f 9 21 22
f 9 22 17
f 10 23 24
f 10 24 25
f 10 25 11
f 11 25 24
f 11 24 38
f 11 38 50
f 11 50 62
f 11 62 63
f 11 63 51
f 11 51 39
f 11 39 27
f 11 27 26
f 11 26 14
f 11 14 13
f 11 13 12
f 14 26 15
f 15 26 27
f 17 28 18
f 17 22 28
f 18 29 30
f 18 30 19
f 18 28 29
f 19 30 31
f 20 32 21
f 21 32 22
f 22 32 33
f 22 33 34
f 22 34 35
f 22 35 28
f 23 36 24
f 24 36 37
f 24 37 38
f 28 40 41
f 28 41 29
f 28 35 42
f 28 42 40
f 29 41 43
f 29 43 30
f 30 43 44
f 30 44 31
f 33 45 34
f 34 45 46
f 34 46 35
f 35 46 42
f 36 47 37
f 37 48 49
f 37 49 50
f 37 50 38
f 37 47 44
f 37 44 48
f 39 51 52
f 40 53 41
f 40 42 53
f 41 54 43
f 41 53 54
f 42 46 55
f 42 55 53
f 43 54 48
f 43 48 44
f 45 56 46
f 46 56 57
f 46 57 58
f 46 58 59
f 46 59 60
f 46 60 55
f 48 54 49
f 49 54 53
f 49 53 61
f 49 61 50
f 50 61 62
f 51 63 64
f 51 64 52
f 52 64 65
f 53 55 66
f 53 66 61
f 55 60 66
f 59 67 60
f 60 67 64
f 60 64 66
f 61 66 63
f 61 63 62
f 63 66 64
f 64 67 65

