# https://github.com/mikedh/trimesh
v 160.32588860 0.01466572 123.80093857
v 160.72304301 0.01466572 115.85460846
v 154.96496016 0.01466572 123.80093857
v 160.98875725 -105.49535738 123.80093857
v 159.40578536 0.01466572 79.53686959
v 160.72304301 -1.85105139 115.85460846
v 154.29220041 0.01466572 115.85460846
v 154.96496016 -0.99088465 123.80093857
v 160.85590565 -120.23939372 123.80093857
v 159.40295146 -101.73969714 79.89806679
v 155.55858013 0.01466572 6.45863173
v 159.40578536 -1.85105139 79.53686959
v 146.55115736 0.01466572 12.13291597
v 146.55115736 -105.44690536 12.17952099
v 154.29220041 -1.85105139 115.85460846
v 155.09075458 -122.51701367 123.80093857
v 160.29196998 -123.13489273 123.80093857
v 159.54711663 -122.67452133 97.36367272
v 159.45100652 -122.56547672 93.65849344
v 159.35489641 -122.44432461 89.95331692
v 159.25879732 -122.32318353 86.25978890
v 159.16126475 -122.18991290 82.55460962
v 159.10897538 -122.10510532 80.52724839
v 155.54868904 -109.14199506 6.48193700
v 155.55858013 -105.44690536 6.45863173
v 154.53953288 0.01466572 5.81780026
v 153.55018096 -105.44690536 5.16531340
v 146.55115736 0.01466572 5.40999942
v 146.55115736 -106.27072206 11.71345973
v 154.43918845 -101.73969714 115.85460846
v 146.55115736 -108.01529258 10.30362608
v 146.55115736 -108.41509344 9.39480883
v 146.55115736 -108.65739766 8.77728263
v 151.65342875 -122.16567586 63.11990011
v 151.48523606 -122.39587259 56.66496658
v 151.38771451 -122.51701367 52.97143994
v 151.19832819 -122.73509188 45.57273401
v 154.98050803 -122.63817680 119.55978774
v 155.39179888 -122.67452133 123.80093857
v 157.77474739 -123.51044552 123.80093857
v 157.24897569 -123.69217920 115.85460846
v 157.24897569 -123.71640521 112.16108457
v 157.24897569 -123.74064225 108.45590529
v 157.24897569 -123.72852373 104.76237865
v 157.24897569 -123.69217920 101.05719937
v 157.24897569 -123.65583467 97.36367272
v 153.55018096 -123.60737162 23.36496360
v 156.66949215 -123.23180780 60.37014448
v 156.57762738 -123.19546327 56.66496658
v 156.30342246 -123.05007413 45.57273401
v 156.13240689 -122.92893304 38.17402809
v 159.82131052 -122.92893304 108.45590529
v 159.73226863 -122.85624398 104.76237865
v 159.64040386 -122.77143641 101.05719937
v 155.85821299 -122.68662883 27.07014288
v 155.76210288 -122.57759524 23.36496360
v 155.66599277 -122.46856165 19.67143972
v 155.53737548 -122.28683900 15.96626044
v 155.54162082 -118.73711639 10.08225084
v 155.47094968 -112.84920329 6.61010219
v 153.55018096 -109.14199506 5.27017883
v 153.55018096 0.01466572 5.20026854
v 149.85137521 -105.44690536 4.76916243
v 146.55115736 -105.44690536 4.81576745
v 146.55115736 -108.40297492 6.22560110
v 150.60187431 -123.07431116 15.96626044
v 149.76374475 -120.23939372 15.96626044
v 150.57361247 -123.17123726 19.67143972
v 150.92836861 -122.96527757 34.46884881
v 151.01458762 -122.89258851 38.17402809
v 151.10504096 -122.81989945 41.86755473
v 151.58134617 -122.26260196 60.37014448
v 154.79253315 -122.83200695 112.16108457
v 154.88580936 -122.73509188 115.85460846
v 157.24897569 -123.58314561 123.25331714
v 157.24897569 -123.55891960 123.80093857
v 157.24897569 -123.64371615 119.55978774
v 153.55018096 -123.68006068 45.57273401
v 153.55018096 -123.71640521 41.86755473
v 153.55018096 -123.72852373 38.17402809
v 153.55018096 -123.72852373 34.46884881
v 153.55018096 -123.70429772 30.77532216
v 153.55018096 -123.53468256 19.67143972
v 156.04336500 -122.85624398 34.46884881
v 155.95150023 -122.78355492 30.77532216
v 155.43844249 -122.14144985 14.00880536
v 153.55018096 -123.26815233 15.96626044
v 153.55018096 -121.42665572 11.27070374
v 153.19259092 -119.34286591 8.73067761
v 154.18619921 -117.17427954 7.61212949
v 155.40170100 -114.70280740 6.71496763
v 153.55018096 -112.84920329 5.59641951
v 150.55665316 -112.84920329 5.71293482
v 151.14461636 -116.54429299 6.27220613
v 146.55115736 -105.85881371 4.89733314
v 146.55115736 -108.25759680 5.80615038
v 151.01882194 -122.67452133 12.90191263
v 150.31637789 -120.60283902 11.91153521
v 153.55018096 -123.63160866 49.26626066
v 153.55018096 -123.57102709 52.97143994
v 154.16640600 -123.21968928 86.25978890
v 150.75594160 -123.07431116 27.07014288
v 154.53105322 -123.02585914 101.05719937
v 154.61586080 -122.96527757 104.76237865
v 154.70349126 -122.90469601 108.45590529
v 153.55018096 -122.56547672 13.12329338
v 151.71985455 -118.39789710 6.71496763
v 153.19259092 -116.18084769 6.35376630
v 151.69018127 -118.39789710 6.71496763
v 151.00751941 -119.31865092 8.56755727
f 1 2 5
f 1 5 11
f 1 11 26
f 1 26 62
f 1 62 28
f 1 28 13
f 1 13 7
f 1 7 3
f 1 3 8
f 1 8 16
f 1 16 39
f 1 39 76
f 1 76 40
f 1 40 17
f 1 17 9
f 1 9 4
f 1 4 2
f 2 4 6
f 2 6 12
f 2 12 5
f 3 7 15
f 3 15 8
f 4 9 10
f 4 10 6
f 5 12 25
f 5 25 11
f 6 10 12
f 7 13 14
f 7 14 15
f 8 15 16
f 9 17 18
f 9 18 19
f 9 19 20
f 9 20 21
f 9 21 22
f 9 22 23
f 9 23 10
f 10 23 24
f 10 24 25
f 10 25 12
f 11 25 27
f 11 27 26
f 13 28 64
f 13 64 95
f 13 95 96
f 13 96 65
f 13 65 33
f 13 33 32
f 13 32 31
f 13 31 29
f 13 29 14
f 14 29 16
f 14 16 30
f 14 30 15
f 15 30 16
f 16 29 31
f 16 31 32
f 16 32 33
f 16 33 34
f 16 34 35
f 16 35 36
f 16 36 37
f 16 37 38
f 16 38 39
f 17 40 41
f 17 41 42
f 17 42 43
f 17 43 44
f 17 44 45
f 17 45 46
f 17 46 47
f 17 47 48
f 17 48 49
f 17 49 50
f 17 50 51
f 17 51 52
f 17 52 53
f 17 53 54
f 17 54 18
f 18 54 55
f 18 55 56
f 18 56 19
f 19 56 57
f 19 57 20
f 20 57 21
f 21 57 22
f 22 57 23
f 23 57 58
f 23 58 59
f 23 59 24
f 24 59 60
f 24 60 61
f 24 61 27
f 24 27 25
f 26 27 62
f 27 61 63
f 27 63 62
f 28 62 64
f 33 65 66
f 33 66 67
f 33 67 68
f 33 68 69
f 33 69 70
f 33 70 71
f 33 71 37
f 33 37 36
f 33 36 35
f 33 35 72
f 33 72 34
f 34 72 35
f 37 71 73
f 37 73 74
f 37 74 38
f 38 74 39
f 39 74 73
f 39 73 75
f 39 75 76
f 40 76 75
f 40 75 77
f 40 77 41
f 41 78 79
f 41 79 42
f 41 77 78
f 42 79 43
f 43 79 80
f 43 80 81
f 43 81 44
f 44 81 82
f 44 82 45
f 45 82 46
f 46 82 47
f 47 82 68
f 47 68 83
f 47 83 49
f 47 49 48
f 49 83 50
f 50 83 51
f 51 83 84
f 51 84 52
f 52 84 53
f 53 84 85
f 53 85 54
f 54 85 55
f 55 85 83
f 55 83 56
f 56 83 57
f 57 83 58
f 58 86 59
f 58 83 87
f 58 87 86
f 59 86 88
f 59 88 89
f 59 89 90
f 59 90 91
f 59 91 60
f 60 91 61
f 61 91 92
f 61 92 63
f 62 63 64
f 63 92 64
f 64 92 93
f 64 93 94
f 64 94 95
f 65 96 66
f 66 97 87
f 66 87 83
f 66 83 68
f 66 68 67
f 66 96 98
f 66 98 97
f 68 82 81
f 68 81 80
f 68 80 79
f 68 79 78
f 68 78 99
f 68 99 100
f 68 100 101
f 68 101 103
f 68 103 102
f 68 102 69
f 69 102 103
f 69 103 104
f 69 104 105
f 69 105 70
f 70 105 73
f 70 73 71
f 73 105 75
f 75 101 77
f 75 105 104
f 75 104 103
f 75 103 101
f 77 101 100
f 77 100 99
f 77 99 78
f 83 85 84
f 86 87 106
f 86 106 88
f 87 97 106
f 88 106 97
f 88 97 107
f 88 107 89
f 89 107 90
f 90 107 91
f 91 107 108
f 91 108 92
f 92 108 107
f 92 107 94
f 92 94 93
f 94 107 109
f 94 109 96
f 94 96 95
f 96 109 110
f 96 110 98
f 97 98 110
f 97 110 109
f 97 109 107

