# https://github.com/mikedh/trimesh
v -175.39594507 101.83386652 130.79640601
v -175.39594507 101.84180586 131.25339216
v -175.39594507 103.51359911 128.78157267
v -162.52595665 83.54740736 130.66370327
v -175.39594507 101.90137296 133.55168196
v -165.68954068 105.44747876 126.64660169
v -165.66942769 105.38791166 126.64660169
v -164.62769819 102.46128382 126.64660169
v -160.68373226 83.54740736 128.12592661
v -175.39594507 121.47841580 128.69834193
v -160.94324940 83.54740736 133.41819631
v -175.39594507 102.32627095 133.69773272
v -175.39594507 122.37188917 128.69834193
v -162.11291253 120.06076961 126.64660169
v -161.57559571 101.20247956 126.64660169
v -161.26490290 101.19057055 126.64660169
v -158.12508176 83.54740736 128.12592661
v -157.94415304 83.54740736 133.41819631
v -175.39594507 105.44747876 134.66745683
v -175.39594507 123.96029730 130.47604265
v -161.15525181 123.15020904 126.64660169
v -161.20093609 123.00327613 126.64660169
v -158.57284945 102.17139870 126.64660169
v -157.06141983 83.54740736 130.46033489
v -158.37180774 102.26273418 126.64660169
v -156.72696414 120.24741024 126.64660169
v -168.34870101 105.44747876 134.57872920
v -157.86556461 83.54740736 133.19677145
v -156.93713609 101.75048141 130.66370327
v -157.94415304 101.75048141 133.41819631
v -164.65146107 120.24741024 134.43974666
v -175.39594507 120.24741024 134.53711383
v -175.39594507 124.11118885 130.74615110
v -157.63346024 123.15417871 126.64660169
v -156.97004024 83.54740736 130.66370327
v -157.64625139 123.14623937 126.96461081
v -156.74524668 120.24741024 126.96461081
v -157.57497377 120.24741024 130.66370327
v -158.63315535 122.54264009 132.93372571
v -160.95056021 120.24741024 133.82179041
v -160.95056021 122.99533679 133.45117765
v -164.65146107 123.22962449 133.77154101
v -175.39594507 120.52934500 134.47193958
v -160.95056021 123.78556568 130.66370327
v -175.39594507 123.89279086 133.65219179
v -158.05198470 122.95959874 130.66370327
f 1 2 5
f 1 5 12
f 1 12 19
f 1 19 32
f 1 32 43
f 1 43 45
f 1 45 33
f 1 33 20
f 1 20 13
f 1 13 10
f 1 10 3
f 1 3 4
f 1 4 2
f 2 4 5
f 3 6 7
f 3 7 8
f 3 8 9
f 3 9 4
f 3 10 6
f 4 9 17
f 4 17 24
f 4 24 35
f 4 35 28
f 4 28 18
f 4 18 11
f 4 11 5
f 5 11 12
f 6 10 13
f 6 13 14
f 6 14 22
f 6 22 21
f 6 21 34
f 6 34 26
f 6 26 25
f 6 25 23
f 6 23 16
f 6 16 15
f 6 15 8
f 6 8 7
f 8 15 9
f 9 15 16
f 9 16 17
f 11 18 19
f 11 19 12
f 13 20 21
f 13 21 22
f 13 22 14
f 16 23 17
f 17 23 25
f 17 25 26
f 17 26 24
f 18 27 19
f 18 28 29
f 18 29 30
f 18 30 31
f 18 31 27
f 19 27 31
f 19 31 32
f 20 33 21
f 21 33 34
f 24 26 35
f 26 34 36
f 26 36 37
f 26 37 29
f 26 29 35
f 28 35 29
f 29 37 38
f 29 38 30
f 30 38 39
f 30 39 40
f 30 40 31
f 31 40 41
f 31 41 42
f 31 42 32
f 32 42 43
f 33 44 34
f 33 45 44
f 34 44 36
f 36 44 46
f 36 46 37
f 37 46 38
f 38 46 39
f 39 46 44
f 39 44 41
f 39 41 40
f 41 44 42
f 42 44 45
f 42 45 43

