# https://github.com/mikedh/trimesh
v 154.93968660 101.75016163 130.66467914
v 155.19113208 102.15392113 126.88023880
v 154.96430957 99.23869506 130.66467914
v 155.11025006 99.23869506 132.86004975
v 155.11025006 101.75016163 132.86004975
v 155.28608437 122.26486247 129.13910757
v 155.17707283 122.41386842 126.96414769
v 155.17530854 122.41627228 126.88023880
v 155.17530854 121.04637240 126.88023880
v 157.25015556 100.40431133 126.88023880
v 157.25015556 99.23869506 127.43058937
v 155.24388458 99.23869506 128.24326894
v 155.79776375 99.23869506 133.13295901
v 157.25015556 101.75016163 133.71355075
v 158.33857279 122.69024564 133.11028228
v 155.20695562 103.98525098 132.74438350
v 157.16399168 122.98104598 130.48929142
v 157.25015556 123.48093765 126.96414769
v 157.25015556 123.48334150 126.88023880
v 157.83041098 100.47880880 126.88023880
v 158.84497030 99.23869506 127.52811092
v 157.25015556 99.23869506 133.67953289
v 160.95146441 105.45127200 134.29565868
v 160.95146441 120.24847985 134.08700844
v 160.95146441 123.07477429 133.56311130
v 160.95146441 123.78856498 130.66467914
v 172.90116214 123.55783897 130.68584520
v 160.97608739 123.09881285 126.88023880
v 160.83893531 101.98087662 126.88023880
v 160.14790406 99.23869506 127.84562383
v 172.90116214 103.55024136 128.78455543
v 158.44583105 99.23869506 133.65761149
v 172.90116214 105.45127200 134.60258581
v 164.64925570 105.45127200 134.58066441
v 164.64925570 120.24847985 134.42946963
v 164.64925570 123.19975272 133.75059549
v 172.90116214 123.37519006 133.72564722
v 172.90116214 123.42566000 133.09364826
v 172.90116214 122.29610156 128.69836950
v 161.65656594 120.38546653 126.88023880
v 161.95020019 105.76129216 126.88023880
v 160.77563011 99.23869506 129.59194211
v 172.90116214 103.15850114 129.22453266
v 172.90116214 102.45193304 130.69794167
v 172.90116214 121.50300569 128.69836950
v 160.31143239 99.23869506 133.42325764
v 172.90116214 102.49759527 133.61149716
v 172.90116214 120.24847985 134.45743926
v 168.34881128 120.24847985 134.46348749
v 168.34881128 123.23579953 133.78461335
v 161.68996630 120.20522148 126.88023880
v 161.13785143 99.23869506 130.66467914
v 160.70705407 99.23869506 132.26433467
f 1 2 3
f 1 3 4
f 1 4 5
f 1 5 6
f 1 6 7
f 1 7 8
f 1 8 9
f 1 9 2
f 2 10 11
f 2 11 12
f 2 12 3
f 2 9 8
f 2 8 19
f 2 19 28
f 2 28 40
f 2 40 51
f 2 51 41
f 2 41 29
f 2 29 20
f 2 20 10
f 3 12 11
f 3 11 21
f 3 21 30
f 3 30 42
f 3 42 52
f 3 52 53
f 3 53 46
f 3 46 32
f 3 32 22
f 3 22 13
f 3 13 4
f 4 13 14
f 4 14 5
f 5 14 15
f 5 15 16
f 5 16 6
f 6 15 17
f 6 17 18
f 6 18 7
f 6 16 15
f 7 18 8
f 8 18 19
f 10 20 11
f 11 20 21
f 13 22 14
f 14 22 23
f 14 23 24
f 14 24 15
f 15 24 25
f 15 25 26
f 15 26 17
f 17 26 18
f 18 26 19
f 19 26 27
f 19 27 28
f 20 29 21
f 21 29 31
f 21 31 30
f 22 32 33
f 22 33 34
f 22 34 23
f 23 34 35
f 23 35 24
f 24 35 25
f 25 35 36
f 25 36 26
f 26 37 38
f 26 38 27
f 26 36 37
f 27 39 28
f 27 38 37
f 27 37 48
f 27 48 33
f 27 33 47
f 27 47 44
f 27 44 43
f 27 43 31
f 27 31 45
f 27 45 39
f 28 39 40
f 29 41 31
f 30 31 43
f 30 43 44
f 30 44 42
f 31 41 45
f 32 46 47
f 32 47 33
f 33 48 49
f 33 49 34
f 34 49 35
f 35 49 50
f 35 50 36
f 36 50 37
f 37 50 48
f 39 45 41
f 39 41 51
f 39 51 40
f 42 44 52
f 44 47 52
f 46 53 47
f 47 53 52
f 48 50 49

