# https://github.com/mikedh/trimesh
v -175.94718882 -124.27623889 130.77715311
v -160.60804389 -123.20653424 123.33280426
v -157.49419100 -123.20653424 123.33280426
v -160.95043892 -123.78693301 130.66351581
v -175.94718882 -124.05241569 133.62365428
v -175.94718882 -122.45956373 128.67486575
v -160.62706522 -123.14927176 123.33280426
v -157.64636166 -123.14927176 126.96473762
v -156.53358610 -120.30192704 123.33280426
v -158.05342922 -122.95927896 130.66351581
v -158.63358540 -122.54284960 132.93291524
v -160.95043892 -122.99572273 133.45096814
v -164.65017093 -123.22996632 133.77182771
v -175.94718882 -124.02377893 133.64036548
v -175.94718882 -121.41067780 128.67486575
v -164.85179706 -105.45096325 123.33280426
v -161.51158479 -120.24467558 123.33280426
v -156.51646139 -120.24988026 123.33280426
v -156.74663606 -120.24988026 126.96473762
v -157.57597722 -120.24988026 130.66351581
v -160.95043892 -120.24988026 133.82196132
v -157.94500211 -101.75253241 133.41754573
v -164.65017093 -120.24988026 134.44028146
v -175.94718882 -120.44768007 134.57285740
v -175.94718882 -103.42865921 128.75508064
v -163.91592541 -102.69730273 123.33280426
v -159.02924015 -103.48331935 123.33280426
v -156.96918015 -97.68973001 130.66351581
v -156.93684939 -101.75253241 130.66351581
v -157.94500211 -97.68973001 133.41754573
v -175.94718882 -120.24988026 134.58845489
v -160.95043892 -101.75253241 133.84758223
v -168.34990294 -105.45096325 134.57842596
v -175.94718882 -105.45096325 134.71323484
v -175.94718882 -103.29853123 128.85868901
v -175.94718882 -101.70828162 130.79163689
v -160.78114354 -97.68973001 128.11002036
v -160.95804745 -102.58018645 123.33280426
v -158.12571029 -97.68973001 128.11002036
v -157.84989544 -97.68973001 133.15016643
v -161.31375189 -97.68973001 133.27048601
v -175.94718882 -101.77074878 133.53786531
v -175.94718882 -101.69526992 130.81837152
v -162.67000052 -97.68973001 130.46854990
f 1 2 3
f 1 3 4
f 1 4 5
f 1 5 14
f 1 14 24
f 1 24 31
f 1 31 34
f 1 34 42
f 1 42 43
f 1 43 36
f 1 36 35
f 1 35 25
f 1 25 15
f 1 15 6
f 1 6 2
f 2 7 17
f 2 17 16
f 2 16 26
f 2 26 38
f 2 38 27
f 2 27 18
f 2 18 9
f 2 9 3
f 2 6 7
f 3 8 4
f 3 9 8
f 4 8 10
f 4 10 11
f 4 11 12
f 4 12 13
f 4 13 5
f 5 13 14
f 6 15 16
f 6 16 17
f 6 17 7
f 8 9 18
f 8 18 19
f 8 19 10
f 10 19 20
f 10 20 11
f 11 21 12
f 11 20 22
f 11 22 21
f 12 21 23
f 12 23 13
f 13 23 24
f 13 24 14
f 15 25 16
f 16 25 26
f 18 27 28
f 18 28 29
f 18 29 19
f 19 29 20
f 20 29 22
f 21 22 23
f 22 29 30
f 22 30 23
f 23 31 24
f 23 30 32
f 23 32 33
f 23 33 34
f 23 34 31
f 25 35 26
f 26 35 36
f 26 36 37
f 26 37 38
f 27 38 39
f 27 39 28
f 28 39 37
f 28 37 44
f 28 44 41
f 28 41 30
f 28 30 40
f 28 40 29
f 29 40 30
f 30 41 34
f 30 34 33
f 30 33 32
f 34 41 42
f 36 43 37
f 37 39 38
f 37 43 44
f 41 44 42
f 42 44 43

