# https://github.com/mikedh/trimesh
v 146.55114633 0.02677873 11.44882612
v 146.55114633 0.01941830 12.12610688
v 146.55114633 0.02677873 5.40664725
v 9.99720474 0.02677873 11.00122383
v 146.55114633 -1.68065608 12.12520268
v 9.99720474 -1.85728708 11.00122383
v 10.16969791 -75.15914828 11.00122383
v 146.55114633 -1.68801376 5.40664725
v 141.04586526 0.02677873 2.94981326
v -0.29464872 0.02677873 10.70372466
v 123.78256637 -75.15914828 10.99851122
v 135.03748372 -75.15914828 10.93973254
v 137.50983801 -75.15914828 10.89723503
v 138.44415487 -75.15914828 8.56337258
v 146.55114633 -1.71009229 12.10983124
v 65.53872583 -75.15914828 11.02292469
v 67.73796135 -75.15914828 11.02292469
v -0.29464872 -1.85728708 10.70372466
v -0.29464872 -75.15914828 10.61330441
v 141.04586526 -0.14249460 2.94981326
v 146.55114633 -1.99711869 5.79095537
v 137.84044533 -75.15914828 5.80903942
v 140.03968636 0.02677873 2.92901109
v -0.29464872 0.02677873 2.88832198
v 146.55114633 -3.12314027 8.55885156
v 146.55114633 -3.07162278 8.72161904
v -0.29464872 -75.15914828 5.92839966
v 138.74601516 -0.24552682 2.90278922
v 135.03748372 -75.15914828 5.37228756
v 124.14193173 -75.15914828 4.80803763
v 138.74601516 0.02677873 2.90278922
v -0.29464872 -0.27496578 2.88832198
v 135.03748372 0.02677873 2.88832198
v 9.75284953 -75.15914828 5.66616991
v 135.03748372 -0.27496578 2.88832198
v 119.94468986 -75.15914828 4.80803763
v 38.86039629 -75.15914828 5.29813744
f 1 2 5
f 1 5 15
f 1 15 26
f 1 26 25
f 1 25 21
f 1 21 8
f 1 8 3
f 1 3 9
f 1 9 23
f 1 23 31
f 1 31 33
f 1 33 24
f 1 24 10
f 1 10 4
f 1 4 2
f 2 4 6
f 2 6 7
f 2 7 5
f 3 8 20
f 3 20 9
f 4 10 18
f 4 18 6
f 5 11 12
f 5 12 13
f 5 13 14
f 5 14 15
f 5 7 16
f 5 16 17
f 5 17 11
f 6 18 7
f 7 18 19
f 7 19 27
f 7 27 34
f 7 34 37
f 7 37 36
f 7 36 30
f 7 30 29
f 7 29 22
f 7 22 14
f 7 14 13
f 7 13 12
f 7 12 11
f 7 11 17
f 7 17 16
f 8 21 14
f 8 14 22
f 8 22 20
f 9 20 23
f 10 24 32
f 10 32 27
f 10 27 19
f 10 19 18
f 14 21 25
f 14 25 26
f 14 26 15
f 20 28 23
f 20 22 29
f 20 29 30
f 20 30 28
f 23 28 31
f 24 33 35
f 24 35 32
f 27 32 34
f 28 35 33
f 28 33 31
f 28 30 35
f 30 36 32
f 30 32 35
f 32 37 34
f 32 36 37

