# https://github.com/mikedh/trimesh
v -0.29464872 75.99847426 10.61409835
v -0.29464872 75.99847426 5.92856507
v -1.85163582 75.99847426 10.97157812
v -0.29464872 1.85183154 10.70374120
v -0.29464872 0.27739996 2.88832749
v -1.85163582 75.99847426 5.33822559
v -1.85163582 1.85183154 11.01312181
v -28.67297270 75.99847426 10.99891370
v -150.35310836 1.77764559 14.05554822
v -0.29464872 -1.84931742 10.70374120
v -0.29464872 -0.26664325 2.88832749
v -138.74913576 0.27739996 2.88832749
v -127.64456965 75.99847426 3.02935000
v -1.85163582 -1.84931742 11.01312181
v -84.03419912 75.99847426 11.02186611
v -127.87959614 75.99847426 11.03279924
v -141.61340671 75.99847426 11.01749396
v -143.06757385 75.99847426 8.66161087
v -143.12632496 75.99847426 8.56321820
v -150.35310836 5.47055197 12.25829688
v -150.35310836 -1.77512871 14.05554822
v -0.29464872 -3.00334997 10.69062475
v -1.85163582 -8.21298715 10.97157812
v -0.29464872 -8.21298715 5.84657485
v -1.85163582 -8.21298715 5.25951586
v -57.35975103 -8.21298715 5.22671647
v -112.83849620 -8.21298715 5.21797217
v -138.74913576 -0.26664325 2.88832749
v -142.43596635 0.26915738 2.89379130
v -144.90364526 0.17024093 2.93751831
v -142.09813644 75.99847426 5.65197834
v -142.14219977 75.99847426 5.76895678
v -150.35310836 7.48186499 5.65635601
v -150.35310836 8.08361176 6.39537064
v -150.35310836 8.98211062 8.54572960
v -150.35310836 -4.10792706 14.03149864
v -0.29464872 -8.21298715 10.61519001
v -150.35310836 -8.21298715 11.41761460
v -127.64456965 -8.21298715 5.38523309
v -142.43596635 -0.25840068 2.89379130
v -144.90364526 -0.15948423 2.93751831
v -150.35310836 1.85183154 4.59811929
v -150.35310836 2.35466186 4.60358310
v -150.35310836 -8.21298715 7.13001312
v -142.25970199 -8.21298715 5.64323404
v -150.35310836 -7.47110829 5.65635601
v -150.35310836 -1.84931742 4.59811929
f 1 2 6
f 1 6 13
f 1 13 31
f 1 31 32
f 1 32 19
f 1 19 18
f 1 18 17
f 1 17 16
f 1 16 15
f 1 15 8
f 1 8 3
f 1 3 4
f 1 4 10
f 1 10 22
f 1 22 37
f 1 37 24
f 1 24 11
f 1 11 5
f 1 5 2
f 2 5 6
f 3 7 4
f 3 8 9
f 3 9 7
f 4 7 14
f 4 14 10
f 5 11 28
f 5 28 12
f 5 12 13
f 5 13 6
f 7 9 21
f 7 21 14
f 8 15 9
f 9 15 16
f 9 16 17
f 9 17 18
f 9 18 19
f 9 19 20
f 9 20 35
f 9 35 34
f 9 34 33
f 9 33 43
f 9 43 42
f 9 42 47
f 9 47 46
f 9 46 44
f 9 44 38
f 9 38 36
f 9 36 21
f 10 14 23
f 10 23 22
f 11 24 25
f 11 25 26
f 11 26 27
f 11 27 28
f 12 28 40
f 12 40 29
f 12 29 13
f 13 29 30
f 13 30 31
f 14 21 23
f 19 32 33
f 19 33 34
f 19 34 35
f 19 35 20
f 21 36 23
f 22 23 37
f 23 36 38
f 23 38 44
f 23 44 45
f 23 45 39
f 23 39 27
f 23 27 26
f 23 26 25
f 23 25 24
f 23 24 37
f 27 39 40
f 27 40 28
f 29 40 41
f 29 41 30
f 30 41 47
f 30 47 42
f 30 42 43
f 30 43 31
f 31 43 33
f 31 33 32
f 39 45 40
f 40 45 41
f 41 46 47
f 41 45 46
f 44 46 45

