# https://github.com/mikedh/trimesh
v -0.52023603 0.00171686 0.76905663
v -0.57916883 0.00171686 0.76905663
v -0.52023603 -0.05479722 0.76905663
v -0.52023603 0.00171686 0.21671158
v -0.56930005 -0.00867761 0.76905663
v -0.61486017 0.00171686 0.71428710
v -0.62612845 -0.05479722 0.62994310
v -0.52201905 -0.05479722 0.76905663
v -0.52023603 -0.05479722 0.23768944
v -0.61712006 0.00171686 0.22914691
v -0.56103806 -0.01735719 0.76905663
v -0.62310145 0.00171686 0.69844556
v -0.62612845 -0.05479722 0.26277638
v -0.54250302 -0.03520870 0.76905663
v -0.55851902 -0.01989082 0.76905663
v -0.55979407 -0.01864613 0.76905663
v -0.62315330 0.00171686 0.69795897
v -0.62367161 0.00171686 0.69179537
v -0.62451128 0.00171686 0.68152269
v -0.62612845 0.00171686 0.63853970
v -0.62612845 -0.00195079 0.23239092
v -0.62612845 0.00078197 0.23157991
v -0.62612845 0.00171686 0.23130957
f 1 2 5
f 1 5 11
f 1 11 16
f 1 16 15
f 1 15 14
f 1 14 8
f 1 8 3
f 1 3 9
f 1 9 4
f 1 4 10
f 1 10 23
f 1 23 20
f 1 20 19
f 1 19 18
f 1 18 17
f 1 17 12
f 1 12 6
f 1 6 2
f 2 6 7
f 2 7 5
f 3 8 7
f 3 7 13
f 3 13 9
f 4 9 10
f 5 7 11
f 6 12 7
f 7 8 14
f 7 14 15
f 7 15 16
f 7 16 11
f 7 12 17
f 7 17 18
f 7 18 19
f 7 19 20
f 7 20 23
f 7 23 22
f 7 22 21
f 7 21 13
f 9 13 21
f 9 21 10
f 10 22 23
f 10 21 22

