# https://github.com/mikedh/trimesh
v 0.26922027 0.45410354 0.57829121
v 0.27322498 0.45399919 0.57829121
v 0.26922027 0.45413831 0.57824642
v 0.26922027 0.10675386 0.57829121
v 0.27898004 0.45382530 0.57829121
v 0.27898004 0.45733810 0.57318502
v 0.26922027 0.45744241 0.57337912
v 0.26922027 0.10675386 0.42576243
v 0.36284061 0.10675386 0.57829121
v 0.28807079 0.45681637 0.57222948
v 0.28222411 0.45337316 0.57829121
v 0.27898004 0.46029440 0.56318167
v 0.26922027 0.45869451 0.56913889
v 0.36284061 0.10675386 0.42576243
v 0.26922027 0.43852205 0.42576243
v 0.36284061 0.40989792 0.57829121
v 0.29032515 0.45799890 0.56318167
v 0.29399996 0.44968648 0.57829121
v 0.32965743 0.43413973 0.57829121
v 0.27898004 0.46206819 0.54628047
v 0.26922027 0.46119869 0.55603001
v 0.26922027 0.46043353 0.56318167
v 0.36284061 0.42819230 0.42576243
v 0.26922027 0.44029582 0.43119708
v 0.28273730 0.44154788 0.42576243
v 0.36284061 0.41619313 0.54642978
v 0.35537187 0.42301007 0.55577620
v 0.36097113 0.41163693 0.57829121
v 0.30112963 0.45479912 0.54628047
v 0.29268033 0.45886840 0.54628047
v 0.32938251 0.43761772 0.56482401
v 0.34315615 0.42648810 0.57829121
v 0.26922027 0.46196388 0.54628047
v 0.29169062 0.45817284 0.52936436
v 0.31496741 0.44499114 0.42576243
v 0.27898004 0.46043353 0.52936436
v 0.34660184 0.43017474 0.54628047
v 0.35609586 0.42363610 0.54628047
v 0.36284061 0.41793214 0.52936436
v 0.34715170 0.43497443 0.42576243
v 0.33350635 0.43765253 0.54628047
v 0.29588776 0.44426077 0.42576243
v 0.26922027 0.45782501 0.51574784
v 0.34739911 0.42767063 0.56212161
v 0.35076233 0.42054067 0.57829121
v 0.34633608 0.43532225 0.42576243
v 0.33713533 0.43900894 0.42576243
v 0.33098625 0.44130440 0.42576243
v 0.33017063 0.44158265 0.42576243
v 0.26922027 0.46126827 0.53912882
v 0.32901595 0.44186089 0.42576243
v 0.31279551 0.44530416 0.42576243
v 0.26922027 0.46029440 0.52936436
v 0.29805965 0.44453895 0.42576243
f 1 2 3
f 1 3 7
f 1 7 13
f 1 13 22
f 1 22 21
f 1 21 33
f 1 33 50
f 1 50 53
f 1 53 43
f 1 43 24
f 1 24 15
f 1 15 8
f 1 8 4
f 1 4 9
f 1 9 16
f 1 16 28
f 1 28 45
f 1 45 32
f 1 32 19
f 1 19 18
f 1 18 11
f 1 11 5
f 1 5 2
f 2 5 6
f 2 6 3
f 3 6 7
f 4 8 14
f 4 14 9
f 5 10 6
f 5 11 10
f 6 10 12
f 6 12 7
f 7 12 13
f 8 15 25
f 8 25 42
f 8 42 54
f 8 54 52
f 8 52 35
f 8 35 51
f 8 51 49
f 8 49 48
f 8 48 47
f 8 47 46
f 8 46 40
f 8 40 23
f 8 23 14
f 9 14 23
f 9 23 39
f 9 39 26
f 9 26 16
f 10 17 12
f 10 11 18
f 10 18 19
f 10 19 17
f 12 20 21
f 12 21 22
f 12 22 13
f 12 17 20
f 15 24 25
f 16 26 27
f 16 27 28
f 17 29 30
f 17 30 20
f 17 19 31
f 17 31 29
f 19 32 31
f 20 33 21
f 20 30 34
f 20 34 35
f 20 35 36
f 20 36 33
f 23 37 38
f 23 38 39
f 23 40 30
f 23 30 29
f 23 29 41
f 23 41 37
f 24 42 25
f 24 43 42
f 26 39 38
f 26 38 27
f 27 38 37
f 27 37 44
f 27 44 45
f 27 45 28
f 29 31 41
f 30 40 46
f 30 46 47
f 30 47 48
f 30 48 49
f 30 49 34
f 31 32 44
f 31 44 37
f 31 37 41
f 32 45 44
f 33 36 50
f 34 49 51
f 34 51 35
f 35 52 36
f 36 53 50
f 36 52 53
f 42 43 54
f 43 53 54
f 52 54 53

