# https://github.com/mikedh/trimesh
v 0.36284058 0.24057857 0.87445040
v 0.36284058 0.25958995 0.84972056
v 0.32959442 0.24057857 0.91674446
v 0.36284058 0.24057857 0.74542097
v 0.36284058 0.26766894 0.83883942
v 0.32882675 0.24057857 0.91749238
v 0.36284058 0.26801733 0.83830864
v 0.36284058 0.27327615 0.82984019
v 0.20349915 0.35557586 0.85963662
v 0.16176921 0.24057857 0.74542097
v 0.36284058 0.26534645 0.74542097
v 0.31191827 0.24057857 0.93319885
v 0.36284058 0.28050911 0.81681179
v 0.21599846 0.36992564 0.82113046
v 0.19444454 0.36358851 0.85063737
v 0.19444454 0.35711866 0.86197690
v 0.16176921 0.35338607 0.88441472
v 0.16176921 0.34789498 0.89237652
v 0.16176921 0.34485915 0.89674343
v 0.16176921 0.28470620 0.96991964
v 0.29506880 0.24057857 0.94398345
v 0.20471957 0.37272922 0.82706562
v 0.16176921 0.41003866 0.74542097
v 0.16176921 0.24057857 0.99187491
v 0.36278155 0.28805726 0.74542097
v 0.36284058 0.28701212 0.74918472
v 0.36284058 0.28634856 0.80235990
v 0.23763109 0.38981624 0.74542097
v 0.22070292 0.37256334 0.80986331
v 0.19444454 0.36999198 0.83695756
v 0.16176921 0.27994507 0.97445543
v 0.27892798 0.24057857 0.95117321
v 0.21076252 0.37440474 0.81601560
v 0.22698209 0.39341614 0.74542097
v 0.21135304 0.39753031 0.74542097
v 0.16176921 0.26370410 0.98330994
v 0.36284058 0.29094380 0.76742448
v 0.23985538 0.38830663 0.74542097
v 0.36284058 0.28731073 0.79953708
v 0.16176921 0.26519716 0.98273090
v 0.16907195 0.27050573 0.97739889
v 0.36284058 0.29154101 0.78219002
f 1 2 3
f 1 3 6
f 1 6 12
f 1 12 21
f 1 21 32
f 1 32 24
f 1 24 10
f 1 10 4
f 1 4 11
f 1 11 26
f 1 26 37
f 1 37 42
f 1 42 39
f 1 39 27
f 1 27 13
f 1 13 8
f 1 8 7
f 1 7 5
f 1 5 2
f 2 5 3
f 3 5 7
f 3 7 8
f 3 8 9
f 3 9 6
f 4 10 23
f 4 23 35
f 4 35 34
f 4 34 28
f 4 28 38
f 4 38 25
f 4 25 11
f 6 9 12
f 8 13 14
f 8 14 9
f 9 15 16
f 9 16 17
f 9 17 18
f 9 18 19
f 9 19 20
f 9 20 21
f 9 21 12
f 9 14 22
f 9 22 15
f 10 24 36
f 10 36 40
f 10 40 31
f 10 31 20
f 10 20 19
f 10 19 18
f 10 18 17
f 10 17 23
f 11 25 26
f 13 27 28
f 13 28 29
f 13 29 14
f 14 29 22
f 15 17 16
f 15 22 30
f 15 30 17
f 17 30 23
f 20 31 21
f 21 31 32
f 22 29 33
f 22 33 28
f 22 28 34
f 22 34 35
f 22 35 23
f 22 23 30
f 24 32 36
f 25 37 26
f 25 38 37
f 27 39 28
f 28 33 29
f 28 39 38
f 31 40 41
f 31 41 32
f 32 41 40
f 32 40 36
f 37 38 42
f 38 39 42

