# https://github.com/mikedh/trimesh
v -0.18495925 0.23830974 1.23357872
v -0.18495925 0.22823681 1.23343380
v -0.16592691 0.23389353 1.23183956
v -0.16592691 0.23984799 1.23183956
v -0.17834922 0.24535583 1.23273330
v -0.18495925 0.24525659 1.23324056
v -0.17907860 0.22823681 1.23261252
v -0.18495925 0.22406871 1.23239509
v -0.17447437 0.22262971 1.23014866
v -0.16041854 0.22823681 1.22860273
v -0.14371871 0.22823681 1.22299870
v -0.14371871 0.24515735 1.22256395
v -0.16041854 0.24535583 1.22867519
v -0.17326633 0.25111178 1.23019698
v -0.18453379 0.25389054 1.23128397
v -0.18495925 0.25354319 1.23138056
v -0.18495925 0.21990060 1.23099408
v -0.18495925 0.21136592 1.22751575
v -0.18495925 0.20585805 1.22524518
v -0.18495925 0.18283420 1.21538980
v -0.16061609 0.21131627 1.22154942
v -0.13223852 0.21776691 1.21524488
v -0.12897908 0.22823681 1.21691159
v -0.12052280 0.22823681 1.21328834
v -0.13081773 0.24515735 1.21645265
v -0.13469258 0.25418827 1.21459270
v -0.14371871 0.25647081 1.21686327
v -0.16061609 0.25959689 1.22012423
v -0.18495925 0.25389054 1.23128397
v -0.17806049 0.26178020 1.22268468
v -0.18285468 0.27160501 1.21517242
v -0.18495925 0.27175388 1.21526907
v -0.18495925 0.18089900 1.21452024
v -0.14508631 0.21181249 1.21681500
v -0.18495925 0.12696168 1.18959203
v -0.16218882 0.11148012 1.17536457
v -0.12681372 0.08071551 1.14869719
v -0.10734071 0.20114411 1.19807054
v -0.10734071 0.20873602 1.20154887
v -0.10844998 0.20982767 1.20244262
v -0.10734071 0.21027425 1.20215273
v -0.10990115 0.22823681 1.20811911
v -0.10734071 0.22823681 1.20683888
v -0.10734071 0.23042010 1.20637989
v -0.10734071 0.24178318 1.20229770
v -0.10734071 0.24277557 1.20150055
v -0.10734071 0.30698433 1.14898708
v -0.14371871 0.26495589 1.20843313
v -0.16061609 0.27676553 1.20345715
v -0.16061609 0.26808195 1.21191147
v -0.18291546 0.28827746 1.19821546
v -0.18495925 0.28847594 1.19843283
v -0.18495925 0.11311762 1.18290101
v -0.17752867 0.11559862 1.18198313
v -0.16061609 0.09555200 1.16705517
v -0.14352117 0.09307098 1.16024342
v -0.14901432 0.09872770 1.16480874
v -0.12681372 0.07228006 1.14415601
v -0.10734071 0.06429118 1.13161944
v -0.11811430 0.08428818 1.14664400
v -0.10734071 0.31715649 1.13831046
v -0.14371871 0.27319286 1.19997876
v -0.16061609 0.28520097 1.19415735
v -0.17164040 0.28663997 1.19630719
v -0.10734071 0.32306130 1.13174022
v -0.14371871 0.35144417 1.10830967
v -0.14371871 0.35819252 1.09985529
v -0.18495925 0.36231099 1.10388921
v -0.18495925 0.10517834 1.17828737
v -0.16061609 0.08711653 1.16205504
v -0.14005658 0.06845928 1.14599182
v -0.10990115 0.05496255 1.12717491
v -0.10734071 0.05585571 1.12669178
v -0.10990115 0.06344763 1.13219917
v -0.10734071 0.33432515 1.11768187
v -0.13080254 0.35660467 1.09772965
v -0.18495925 0.45123068 0.98680878
v -0.18495925 0.09272363 1.17014707
v -0.17366900 0.08508210 1.16304543
v -0.18495925 0.07624967 1.15879409
v -0.18495925 0.06349724 1.14983250
v -0.17752867 0.05565723 1.14309321
v -0.16061609 0.04692405 1.13311710
v -0.10734071 0.01586171 1.09678758
v -0.12301486 0.05178685 1.12881743
v -0.10734071 0.04384759 1.11830991
v -0.10734071 0.34161932 1.10746419
v -0.11952748 0.35461987 1.09514506
v -0.12774825 0.43093596 0.98680878
v -0.18495925 -0.05569084 0.98680878
v -0.18495925 0.05501217 1.14239270
v -0.17752867 0.04603088 1.13463884
v -0.10990115 0.01571285 1.09695668
v -0.10734071 0.00395283 1.08379207
v -0.10990115 0.04340101 1.11874472
v -0.10734071 0.42185543 0.98680878
v -0.10990115 0.42339364 0.98680878
v -0.11319098 0.42518001 0.98680878
v -0.12581842 0.43024125 0.98680878
v -0.10734071 -0.04095360 0.98680878
v -0.10734071 -0.02006343 1.03449123
v -0.10734071 -0.00229934 1.07408166
v -0.17752867 0.03754580 1.12265786
v -0.18495925 0.04687443 1.13393833
f 1 2 3
f 1 3 4
f 1 4 5
f 1 5 6
f 1 6 16
f 1 16 29
f 1 29 32
f 1 32 52
f 1 52 68
f 1 68 77
f 1 77 90
f 1 90 104
f 1 104 91
f 1 91 81
f 1 81 80
f 1 80 78
f 1 78 69
f 1 69 53
f 1 53 35
f 1 35 33
f 1 33 20
f 1 20 19
f 1 19 18
f 1 18 17
f 1 17 8
f 1 8 2
f 2 7 3
f 2 8 7
f 3 7 9
f 3 9 10
f 3 10 11
f 3 11 4
f 4 11 12
f 4 12 13
f 4 13 14
f 4 14 5
f 5 14 15
f 5 15 6
f 6 15 16
f 7 8 9
f 8 17 9
f 9 17 18
f 9 18 19
f 9 19 20
f 9 20 21
f 9 21 10
f 10 21 22
f 10 22 11
f 11 23 12
f 11 22 23
f 12 23 24
f 12 24 25
f 12 25 26
f 12 26 27
f 12 27 13
f 13 27 14
f 14 27 28
f 14 28 15
f 15 29 16
f 15 28 30
f 15 30 31
f 15 31 32
f 15 32 29
f 20 33 21
f 21 34 22
f 21 33 35
f 21 35 36
f 21 36 34
f 22 34 36
f 22 36 37
f 22 37 38
f 22 38 39
f 22 39 40
f 22 40 41
f 22 41 24
f 22 24 23
f 24 42 25
f 24 41 42
f 25 42 43
f 25 43 44
f 25 44 45
f 25 45 26
f 26 45 46
f 26 46 47
f 26 47 27
f 27 47 48
f 27 48 49
f 27 49 50
f 27 50 28
f 28 50 31
f 28 31 30
f 31 50 49
f 31 49 51
f 31 51 52
f 31 52 32
f 35 53 54
f 35 54 36
f 36 54 55
f 36 55 56
f 36 56 57
f 36 57 37
f 37 57 56
f 37 56 55
f 37 55 58
f 37 58 59
f 37 59 60
f 37 60 38
f 38 60 59
f 38 59 73
f 38 73 86
f 38 86 84
f 38 84 94
f 38 94 102
f 38 102 101
f 38 101 100
f 38 100 96
f 38 96 87
f 38 87 75
f 38 75 65
f 38 65 61
f 38 61 47
f 38 47 46
f 38 46 45
f 38 45 44
f 38 44 43
f 38 43 41
f 38 41 39
f 39 41 40
f 41 43 42
f 47 61 49
f 47 49 62
f 47 62 48
f 48 62 49
f 49 61 63
f 49 63 64
f 49 64 51
f 51 64 65
f 51 65 66
f 51 66 67
f 51 67 52
f 52 67 68
f 53 69 55
f 53 55 54
f 55 69 70
f 55 70 71
f 55 71 58
f 58 71 72
f 58 72 73
f 58 73 74
f 58 74 59
f 59 74 73
f 61 65 63
f 63 65 64
f 65 75 76
f 65 76 66
f 66 76 67
f 67 76 77
f 67 77 68
f 69 78 70
f 70 78 71
f 71 78 79
f 71 79 80
f 71 80 81
f 71 81 82
f 71 82 83
f 71 83 84
f 71 84 85
f 71 85 72
f 72 85 86
f 72 86 73
f 75 87 88
f 75 88 76
f 76 88 77
f 77 88 89
f 77 89 99
f 77 99 98
f 77 98 97
f 77 97 96
f 77 96 100
f 77 100 90
f 78 80 79
f 81 91 82
f 82 91 92
f 82 92 83
f 83 92 84
f 84 93 94
f 84 86 95
f 84 95 85
f 84 92 93
f 85 95 86
f 87 96 97
f 87 97 98
f 87 98 99
f 87 99 88
f 88 99 89
f 90 100 101
f 90 101 102
f 90 102 94
f 90 94 103
f 90 103 104
f 91 104 92
f 92 103 94
f 92 94 93
f 92 104 103

