# https://github.com/mikedh/trimesh
v 0.06157718 -0.31577559 0.11636341
v 0.06157718 -0.36653770 0.11636341
v 0.06157718 -0.31577559 0.10729006
v -0.32968632 -0.31577559 0.11636341
v 0.06157718 -0.35165208 0.11369693
v 0.00434552 -0.42777232 0.11636341
v 0.00264404 -0.42626316 0.11150099
v -0.03045752 -0.42486836 0.07862225
v -0.04820706 -0.42466258 0.06255086
v -0.10006359 -0.42450254 0.02929808
v -0.02860137 -0.31577559 0.05901564
v -0.32829422 -0.31577559 0.10667471
v -0.33347599 -0.44803145 0.11636341
v -0.00478060 -0.43611835 0.11636341
v -0.06831550 -0.43925097 0.06493984
v -0.16769750 -0.45722351 0.01304570
v -0.11792915 -0.43984551 0.03028746
v -0.11131658 -0.43053911 0.02684873
v -0.12728732 -0.43067632 0.01833042
v -0.13320383 -0.42470833 0.01317842
v -0.04066640 -0.31577559 0.05333275
v -0.32469788 -0.31577559 0.08958986
v -0.33065307 -0.46495213 0.11636341
v -0.32392449 -0.31577559 0.08724910
v -0.32160429 -0.32352713 0.08072164
v -0.30486017 -0.35960935 0.04680524
v -0.29074559 -0.41425864 0.02382027
v -0.28943081 -0.43115646 0.02628166
v -0.01344270 -0.44103453 0.11636341
v -0.01491216 -0.44048575 0.11376929
v -0.08266208 -0.45761222 0.07978053
v -0.22044344 -0.48994444 0.01437294
v -0.18850199 -0.47204052 0.01571222
v -0.13997108 -0.43595832 0.01510891
v -0.17751970 -0.46024180 0.01033095
v -0.17751970 -0.44803145 0.00481696
v -0.13320383 -0.41846595 0.01317842
v -0.04229056 -0.31577559 0.05260881
v -0.19495990 -0.44940339 -0.00158986
v -0.19894290 -0.43115646 -0.00453387
v -0.32798483 -0.47114880 0.11636341
v -0.28846404 -0.44423572 0.02900849
v -0.28714927 -0.45550853 0.03098726
v -0.28745865 -0.50732247 0.06431245
v -0.32160429 -0.31577559 0.08066133
v -0.30486017 -0.34662159 0.04682938
v -0.28633718 -0.41425864 0.01537436
v -0.08014853 -0.47563047 0.11636341
v -0.08200469 -0.47476157 0.11275577
v -0.11595700 -0.49163656 0.11293677
v -0.16727215 -0.50816854 0.09664821
v -0.17844779 -0.51034075 0.09050683
v -0.18471232 -0.50787125 0.08023902
v -0.19577196 -0.51852674 0.09114631
v -0.21298011 -0.53903739 0.11636341
v -0.21878063 -0.54143826 0.11636341
v -0.22821614 -0.54495957 0.11636341
v -0.23169643 -0.49197955 0.01193568
v -0.21131731 -0.47858018 0.00959498
v -0.19426383 -0.46582105 0.00694055
v -0.19979363 -0.47501311 0.01185123
v -0.05918936 -0.31577559 0.04680524
v -0.20029636 -0.41425864 -0.00426843
v -0.21491364 -0.33445697 -0.00372549
v -0.21011854 -0.32917496 -0.00191563
v -0.21131731 -0.46495213 0.00118525
v -0.21131731 -0.45585153 -0.00315836
v -0.20099241 -0.44469305 -0.00362894
v -0.21131731 -0.43115646 -0.00553530
v -0.21131731 -0.41425864 -0.00645227
v -0.32446589 -0.47755119 0.11636341
v -0.28424903 -0.43115646 0.01783575
v -0.27048247 -0.45649177 0.01369727
v -0.27137188 -0.49179659 0.02929808
v -0.27895121 -0.51070662 0.06030665
v -0.27291869 -0.52611816 0.07728296
v -0.28088472 -0.53478433 0.11636341
v -0.28664657 -0.52920508 0.11636341
v -0.28912145 -0.52648404 0.11636341
v -0.31564910 -0.31577559 0.06919900
v -0.30864982 -0.31577559 0.05636121
v -0.30764442 -0.31577559 0.05464789
v -0.30385473 -0.31577559 0.04824107
v -0.28548647 -0.39733795 0.01612243
v -0.27705639 -0.39733795 0.00843664
v -0.27790716 -0.41425864 0.00811088
v -0.27578029 -0.43115646 0.00961906
v -0.11413949 -0.49248258 0.11636341
v -0.12720996 -0.49886215 0.11636341
v -0.13977774 -0.50499016 0.11636341
v -0.15184279 -0.51077519 0.11636341
v -0.17833177 -0.51893833 0.10753137
v -0.17446475 -0.52143071 0.11636341
v -0.18451897 -0.52476910 0.11373311
v -0.23595015 -0.54720046 0.11636341
v -0.24526961 -0.54937272 0.11636341
v -0.25327432 -0.54109526 0.09809608
v -0.24515363 -0.49838194 0.02215522
v -0.24515363 -0.49227679 0.01180296
v -0.07570147 -0.31577559 0.04191869
v -0.22821614 -0.33121001 -0.00436492
v -0.22821614 -0.32274969 -0.00297742
v -0.22821614 -0.31577559 -0.00081765
v -0.22492917 -0.31577559 -0.00026262
v -0.22821614 -0.46495213 0.00079912
v -0.22821614 -0.45290188 -0.00253097
v -0.23784496 -0.44078299 -0.00343590
v -0.22821614 -0.41425864 -0.00689872
v -0.27280268 -0.44521896 0.01173055
v -0.25474378 -0.49127067 0.01293711
v -0.27199061 -0.54205567 0.11636341
v -0.27392412 -0.54047790 0.11636341
v -0.26205242 -0.52742152 0.07553342
v -0.25377702 -0.54109526 0.09809608
v -0.26062162 -0.54740625 0.11636341
v -0.26909037 -0.54356480 0.11636341
v -0.30281066 -0.31577559 0.04696210
v -0.28366895 -0.31577559 0.02704182
v -0.28003399 -0.31577559 0.02357896
v -0.29291110 -0.31577559 0.03629611
v -0.29101628 -0.31577559 0.03434149
v -0.26974776 -0.31577559 0.01421608
v -0.26847166 -0.31577559 0.01332324
v -0.26154972 -0.31577559 0.00905199
v -0.26259379 -0.39733795 -0.00002131
v -0.26062162 -0.41370988 -0.00075734
v -0.26205242 -0.43115646 0.00206604
v -0.26375391 -0.44972351 0.00759207
v -0.16932166 -0.51905266 0.11636341
v -0.25230756 -0.54850382 0.11636341
v -0.24515363 -0.48184996 0.00826774
v -0.23931442 -0.33260486 -0.00423225
v -0.24008784 -0.31577559 0.00031649
v -0.24414820 -0.44707110 -0.00082970
v -0.24921395 -0.43115646 -0.00230170
v -0.24074521 -0.43115646 -0.00397884
v -0.24600434 -0.41370988 -0.00448560
v -0.24515363 -0.39733795 -0.00477519
v -0.25799206 -0.31577559 0.00712149
v -0.24840188 -0.34662159 -0.00151745
v -0.25389304 -0.38782577 -0.00331522
v -0.25416373 -0.39733795 -0.00338763
v -0.25404771 -0.40769616 -0.00333936
v -0.25223021 -0.41896900 -0.00295328
v -0.24503761 -0.32805455 -0.00104692
v -0.24511493 -0.31577559 0.00118525
f 1 2 5
f 1 5 3
f 1 3 11
f 1 11 21
f 1 21 38
f 1 38 62
f 1 62 100
f 1 100 104
f 1 104 103
f 1 103 133
f 1 133 146
f 1 146 139
f 1 139 124
f 1 124 123
f 1 123 122
f 1 122 119
f 1 119 118
f 1 118 121
f 1 121 120
f 1 120 117
f 1 117 83
f 1 83 82
f 1 82 81
f 1 81 80
f 1 80 45
f 1 45 24
f 1 24 22
f 1 22 12
f 1 12 4
f 1 4 13
f 1 13 23
f 1 23 41
f 1 41 71
f 1 71 79
f 1 79 78
f 1 78 77
f 1 77 112
f 1 112 111
f 1 111 116
f 1 116 115
f 1 115 130
f 1 130 96
f 1 96 95
f 1 95 57
f 1 57 56
f 1 56 55
f 1 55 93
f 1 93 129
f 1 129 91
f 1 91 90
f 1 90 89
f 1 89 88
f 1 88 48
f 1 48 29
f 1 29 14
f 1 14 6
f 1 6 2
f 2 6 7
f 2 7 8
f 2 8 9
f 2 9 10
f 2 10 5
f 3 5 10
f 3 10 11
f 4 12 13
f 6 14 7
f 7 14 8
f 8 14 9
f 9 14 15
f 9 15 16
f 9 16 17
f 9 17 18
f 9 18 10
f 10 18 19
f 10 19 20
f 10 20 11
f 11 20 21
f 12 22 13
f 13 22 24
f 13 24 25
f 13 25 26
f 13 26 27
f 13 27 28
f 13 28 23
f 14 29 30
f 14 30 15
f 15 31 32
f 15 32 33
f 15 33 16
f 15 30 31
f 16 34 19
f 16 19 18
f 16 18 17
f 16 33 32
f 16 32 35
f 16 35 36
f 16 36 34
f 19 34 20
f 20 37 38
f 20 38 21
f 20 34 36
f 20 36 39
f 20 39 40
f 20 40 37
f 23 28 42
f 23 42 43
f 23 43 44
f 23 44 41
f 24 45 25
f 25 45 26
f 26 45 46
f 26 46 47
f 26 47 27
f 27 47 28
f 28 47 42
f 29 48 30
f 30 48 49
f 30 49 31
f 31 49 50
f 31 50 51
f 31 51 32
f 32 52 53
f 32 53 54
f 32 54 55
f 32 55 56
f 32 56 57
f 32 57 58
f 32 58 59
f 32 59 60
f 32 60 61
f 32 61 35
f 32 51 52
f 35 61 60
f 35 60 39
f 35 39 36
f 37 62 38
f 37 40 63
f 37 63 64
f 37 64 65
f 37 65 62
f 39 60 66
f 39 66 67
f 39 67 68
f 39 68 40
f 40 68 69
f 40 69 70
f 40 70 63
f 41 44 71
f 42 47 72
f 42 72 43
f 43 72 73
f 43 73 74
f 43 74 44
f 44 74 75
f 44 75 76
f 44 76 77
f 44 77 78
f 44 78 79
f 44 79 71
f 45 80 46
f 46 80 81
f 46 81 82
f 46 82 83
f 46 83 47
f 47 83 84
f 47 84 85
f 47 85 86
f 47 86 87
f 47 87 72
f 48 88 49
f 49 88 50
f 50 88 89
f 50 89 90
f 50 90 51
f 51 90 91
f 51 91 92
f 51 92 52
f 52 92 54
f 52 54 53
f 54 92 55
f 55 92 94
f 55 94 93
f 57 95 58
f 58 95 96
f 58 96 97
f 58 97 98
f 58 98 99
f 58 99 67
f 58 67 66
f 58 66 59
f 59 66 60
f 62 65 100
f 63 70 64
f 64 70 101
f 64 101 102
f 64 102 65
f 65 102 103
f 65 103 104
f 65 104 100
f 67 69 68
f 67 99 105
f 67 105 106
f 67 106 107
f 67 107 108
f 67 108 69
f 69 108 70
f 70 108 101
f 72 87 109
f 72 109 73
f 73 109 110
f 73 110 74
f 74 110 75
f 75 110 76
f 76 111 112
f 76 112 77
f 76 110 113
f 76 113 114
f 76 114 115
f 76 115 116
f 76 116 111
f 83 117 84
f 84 118 119
f 84 119 85
f 84 117 120
f 84 120 121
f 84 121 118
f 85 119 122
f 85 122 123
f 85 123 124
f 85 124 125
f 85 125 86
f 86 125 126
f 86 126 127
f 86 127 87
f 87 127 128
f 87 128 110
f 87 110 109
f 91 129 92
f 92 129 93
f 92 93 94
f 96 130 114
f 96 114 97
f 97 114 98
f 98 114 113
f 98 113 99
f 99 113 110
f 99 110 131
f 99 131 105
f 101 108 132
f 101 132 102
f 102 132 133
f 102 133 103
f 105 131 106
f 106 131 134
f 106 134 107
f 107 134 135
f 107 135 136
f 107 136 108
f 108 136 137
f 108 137 138
f 108 138 132
f 110 128 127
f 110 127 134
f 110 134 131
f 114 130 115
f 124 139 125
f 125 139 140
f 125 140 141
f 125 141 142
f 125 142 126
f 126 142 143
f 126 143 144
f 126 144 127
f 127 144 135
f 127 135 134
f 132 138 141
f 132 141 140
f 132 140 145
f 132 145 146
f 132 146 133
f 135 144 136
f 136 144 137
f 137 144 143
f 137 143 138
f 138 143 142
f 138 142 141
f 139 146 145
f 139 145 140

