# https://github.com/mikedh/trimesh
v 0.06157718 0.33128093 0.34169551
v -0.20095246 0.33128093 0.34169551
v 0.06157718 0.21812195 0.34169551
v 0.06157718 0.33128093 0.03494071
v -0.20095246 0.21812195 0.34169551
v -0.20095246 0.33128093 0.25553990
v 0.06157718 0.21812195 0.08142688
v 0.06157718 0.32969699 0.03515093
v 0.01650309 0.30397703 0.04737307
v 0.01511539 0.31278295 0.04698271
v 0.01416457 0.32969699 0.04668239
v 0.01429307 0.33128093 0.04674245
v -0.20095246 0.21812195 0.17307799
v -0.15482474 0.33128093 0.14620124
v -0.20095246 0.23683042 0.18244727
v -0.05917720 0.21812195 0.10406941
v 0.06157718 0.24837227 0.06379939
v 0.06157718 0.31298233 0.03785363
v 0.00666080 0.31278295 0.05022593
v 0.02534315 0.30221584 0.04650220
v 0.05160640 0.28769436 0.04764335
v 0.06157718 0.25310199 0.06142704
v -0.07606071 0.21812195 0.10761295
v -0.09199341 0.21812195 0.11247778
v -0.10008824 0.21812195 0.11596120
v 0.00570997 0.32969699 0.04938509
v 0.00583847 0.33128093 0.04938509
v 0.01349644 0.33128093 0.04698271
v -0.20095246 0.22230894 0.17433922
v -0.15580126 0.29587999 0.14506014
v -0.15634092 0.27896594 0.14490998
v -0.14793772 0.21812195 0.13962476
v -0.14364615 0.33128093 0.13860373
v -0.20095246 0.22842323 0.17620108
v 0.06157718 0.25048790 0.06265829
v 0.06157718 0.29465048 0.04370946
v 0.05800517 0.29435141 0.04421994
v 0.04225237 0.29844978 0.04509081
v -0.00996573 0.33128093 0.05590156
v 0.06157718 0.28589994 0.04704272
v 0.06157718 0.27615249 0.05124696
v 0.00439938 0.33128093 0.04986555
v -0.08240808 0.33128093 0.09965501
v -0.03011289 0.33128093 0.06689245
v -0.02245491 0.33128093 0.06226788
v 0.06157718 0.28799341 0.04623197
f 1 2 5
f 1 5 3
f 1 3 7
f 1 7 17
f 1 17 35
f 1 35 22
f 1 22 41
f 1 41 40
f 1 40 46
f 1 46 36
f 1 36 18
f 1 18 8
f 1 8 4
f 1 4 12
f 1 12 28
f 1 28 27
f 1 27 42
f 1 42 39
f 1 39 45
f 1 45 44
f 1 44 43
f 1 43 33
f 1 33 14
f 1 14 6
f 1 6 2
f 2 6 15
f 2 15 34
f 2 34 29
f 2 29 13
f 2 13 5
f 3 5 13
f 3 13 32
f 3 32 25
f 3 25 24
f 3 24 23
f 3 23 16
f 3 16 7
f 4 8 9
f 4 9 10
f 4 10 11
f 4 11 12
f 6 14 15
f 7 16 17
f 8 18 9
f 9 19 10
f 9 18 20
f 9 20 21
f 9 21 22
f 9 22 23
f 9 23 24
f 9 24 25
f 9 25 19
f 10 19 26
f 10 26 11
f 11 26 27
f 11 27 28
f 11 28 12
f 13 29 14
f 13 14 30
f 13 30 31
f 13 31 32
f 14 33 30
f 14 29 34
f 14 34 15
f 16 23 35
f 16 35 17
f 18 36 37
f 18 37 38
f 18 38 20
f 19 39 26
f 19 25 39
f 20 38 21
f 21 38 37
f 21 37 40
f 21 40 41
f 21 41 22
f 22 35 23
f 25 32 39
f 26 39 42
f 26 42 27
f 30 33 43
f 30 43 31
f 31 43 44
f 31 44 32
f 32 44 45
f 32 45 39
f 36 46 37
f 37 46 40

