# https://github.com/mikedh/trimesh
v -0.71684067 0.13686599 0.75249293
v -0.73053895 0.11451479 0.69485907
v -0.71684067 0.10429325 0.69731535
v -0.71684067 0.13686599 0.66627849
v -0.77152136 0.13686599 0.66627849
v -0.76526373 0.13090512 0.66627849
v -0.72467748 0.10319241 0.68154792
v -0.71684067 0.09689314 0.68154792
v -0.71684067 0.09521741 0.66627849
v -0.74638378 0.11559116 0.66627849
f 1 2 3
f 1 3 8
f 1 8 9
f 1 9 4
f 1 4 5
f 1 5 2
f 2 5 6
f 2 6 7
f 2 7 3
f 3 7 8
f 4 9 10
f 4 10 6
f 4 6 5
f 6 10 7
f 7 10 8
f 8 10 9

