# https://github.com/mikedh/trimesh
v -0.56788937 0.26135239 0.36004200
v -0.48258134 0.26135239 0.28699179
v -0.56788937 0.26135239 0.40365516
v -0.56788937 0.26152744 0.36010065
v -0.55419079 0.29589439 0.35642101
v -0.54572880 0.29589439 0.34756643
v -0.44175740 0.26135239 0.25885949
v -0.53507440 0.29589439 0.33910770
v -0.47779768 0.36350024 0.31513879
v -0.38279559 0.26135239 0.40365516
v -0.56788937 0.34268948 0.40365516
v -0.56788937 0.27899293 0.36615516
v -0.56788937 0.29589439 0.37279609
v -0.56788937 0.31026745 0.37927576
v -0.56788937 0.31304869 0.38069778
v -0.52608698 0.34200876 0.34951620
v -0.50664444 0.35348385 0.33551601
v -0.48624152 0.36350024 0.32201425
v -0.43164654 0.26135239 0.25390444
v -0.47504349 0.37318602 0.31697127
v -0.38279559 0.26135239 0.27083661
v -0.38279559 0.44907727 0.40365516
v -0.55882946 0.35684858 0.40365516
v -0.55841271 0.35570105 0.40177868
v -0.56788937 0.33117548 0.39315868
v -0.56788937 0.33028080 0.39246967
v -0.56180109 0.32641038 0.38178259
v -0.52307907 0.35326990 0.35293195
v -0.50379959 0.36350024 0.33853596
v -0.49533766 0.36350024 0.33044368
v -0.41283819 0.26135239 0.25787728
v -0.44134063 0.44015006 0.35139267
v -0.43777104 0.44015006 0.35139267
v -0.49194926 0.37322489 0.33339034
v -0.46062012 0.44365091 0.36439599
v -0.38968111 0.26135239 0.26629205
v -0.38708997 0.40770858 0.34980941
v -0.38279559 0.40354642 0.35218430
v -0.38279559 0.41002304 0.35765244
v -0.42650054 0.43769944 0.35370894
v -0.43173714 0.44349530 0.35973415
v -0.44114135 0.45633188 0.38616591
v -0.43458194 0.45808235 0.39743936
v -0.43217205 0.45891864 0.40365516
v -0.54853736 0.36968514 0.40365516
v -0.52414816 0.37198015 0.36873531
v -0.52692045 0.36350024 0.36533423
v -0.51996247 0.36350024 0.35687547
v -0.50834767 0.37312768 0.35042511
v -0.51150054 0.36350024 0.34699469
v -0.39734578 0.26135239 0.26230456
v -0.44741076 0.44475951 0.35936765
v -0.44728393 0.45446474 0.37804433
v -0.39734578 0.41132613 0.34693607
v -0.41278382 0.41581894 0.34495697
v -0.47448176 0.44137535 0.38311666
v -0.46467894 0.44816316 0.37804433
v -0.45744915 0.45691533 0.38423081
v -0.45241185 0.45691533 0.38423081
v -0.44728393 0.45845184 0.39273353
v -0.44775507 0.46004669 0.40365516
v -0.47756213 0.44442891 0.40365516
v -0.47649307 0.44380650 0.39411156
v -0.46768684 0.45226697 0.39411156
v -0.45922491 0.45775169 0.39411156
v -0.45964168 0.45802399 0.40365516
v -0.47373887 0.44810481 0.40365516
v -0.46808546 0.45288933 0.40365516
f 1 2 7
f 1 7 19
f 1 19 31
f 1 31 51
f 1 51 36
f 1 36 21
f 1 21 10
f 1 10 3
f 1 3 11
f 1 11 25
f 1 25 26
f 1 26 15
f 1 15 14
f 1 14 13
f 1 13 12
f 1 12 4
f 1 4 5
f 1 5 6
f 1 6 2
f 2 6 8
f 2 8 9
f 2 9 7
f 3 10 22
f 3 22 44
f 3 44 61
f 3 61 66
f 3 66 68
f 3 68 67
f 3 67 62
f 3 62 45
f 3 45 23
f 3 23 11
f 4 12 5
f 5 12 13
f 5 13 14
f 5 14 15
f 5 15 16
f 5 16 6
f 6 16 17
f 6 17 18
f 6 18 9
f 6 9 8
f 7 9 20
f 7 20 19
f 9 18 20
f 10 21 38
f 10 38 39
f 10 39 22
f 11 23 24
f 11 24 25
f 15 26 27
f 15 27 16
f 16 28 17
f 16 27 28
f 17 28 29
f 17 29 30
f 17 30 18
f 18 30 20
f 19 20 32
f 19 32 33
f 19 33 31
f 20 30 29
f 20 29 34
f 20 34 35
f 20 35 32
f 21 36 37
f 21 37 38
f 22 39 37
f 22 37 40
f 22 40 41
f 22 41 42
f 22 42 43
f 22 43 44
f 23 45 46
f 23 46 24
f 24 46 25
f 25 46 47
f 25 47 26
f 26 47 27
f 27 47 28
f 28 47 48
f 28 48 49
f 28 49 50
f 28 50 29
f 29 50 49
f 29 49 34
f 31 33 51
f 32 35 52
f 32 52 33
f 33 52 53
f 33 53 41
f 33 41 40
f 33 40 54
f 33 54 55
f 33 55 51
f 34 49 35
f 35 56 57
f 35 57 58
f 35 58 52
f 35 49 46
f 35 46 45
f 35 45 56
f 36 51 37
f 37 54 40
f 37 39 38
f 37 51 54
f 41 53 42
f 42 53 59
f 42 59 60
f 42 60 43
f 43 60 44
f 44 60 61
f 45 62 63
f 45 63 56
f 46 49 47
f 47 49 48
f 51 55 54
f 52 58 53
f 53 58 59
f 56 63 64
f 56 64 57
f 57 64 58
f 58 65 61
f 58 61 60
f 58 60 59
f 58 64 65
f 61 65 66
f 62 67 63
f 63 67 64
f 64 67 68
f 64 68 65
f 65 68 66

