# https://github.com/mikedh/trimesh
v -0.38279559 0.52567137 0.98680878
v -0.38279559 -0.06944036 0.98680878
v -0.33062201 0.51959715 0.98680878
v -0.24514903 0.60479578 0.88835142
v -0.26205489 0.60511549 0.88736012
v -0.29586657 0.58921071 0.90630104
v -0.29586657 0.59480537 0.89783956
v -0.31277243 0.58825160 0.90385820
v -0.32175115 0.59192811 0.89320171
v -0.37667497 0.61047036 0.81212751
v -0.38279559 0.60927151 0.80947224
v -0.38279559 -0.07255738 0.98192309
v -0.37939823 -0.07303693 0.98680878
v -0.32959741 0.51935741 0.98680878
v -0.20028245 0.60967115 0.87712849
v -0.21136428 0.61071016 0.87808439
v -0.22827014 0.61126963 0.87893407
v -0.24514903 0.61118972 0.87988997
v -0.24514903 0.61902224 0.86749872
v -0.26205489 0.61031053 0.87889867
v -0.31277243 0.59280724 0.89539672
v -0.26205489 0.61702412 0.86749872
v -0.26205489 0.62389755 0.85507205
v -0.27195032 0.62605550 0.84360130
v -0.38155527 0.61246848 0.80093998
v -0.38279559 0.61198898 0.80093998
v -0.37424827 -0.07847173 0.98680878
v -0.38279559 -0.12858388 0.88658124
v -0.35747724 -0.12051160 0.94627168
v -0.26194702 0.49641929 0.98680878
v -0.16064674 0.59408606 0.87854464
v -0.15002327 0.59240761 0.87677446
v -0.13875270 0.59032963 0.87429619
v -0.12680805 0.59448564 0.86289624
v -0.10734071 0.65698596 0.75303894
v -0.21136428 0.61774348 0.86749872
v -0.22827014 0.61934190 0.86749872
v -0.22827014 0.62517632 0.85840000
v -0.24514903 0.62485664 0.85776274
v -0.24514903 0.62901271 0.84930127
v -0.26205489 0.62725434 0.84661060
v -0.24514903 0.63428765 0.83368829
v -0.38279559 0.61350749 0.78561023
v -0.38279559 0.61214880 0.80037352
v -0.36349000 0.61662453 0.79991327
v -0.17755257 0.68631799 0.62512580
v -0.37017683 -0.08262776 0.98680878
v -0.38279559 -0.12858388 0.62512580
v -0.35475395 -0.12858388 0.93515494
v -0.34577526 -0.12858388 0.95020147
v -0.32320716 -0.12858388 0.98680878
v -0.35583247 -0.10220909 0.97855974
v -0.11319170 0.42512740 0.98680878
v -0.14411835 0.58409559 0.88130612
v -0.12680805 0.57858085 0.87907568
v -0.12680805 0.58705276 0.87132229
v -0.11629245 0.59264742 0.86020558
v -0.10734071 0.66122194 0.74457748
v -0.21136428 0.62413735 0.85602795
v -0.10734071 0.59584432 0.85004474
v -0.22827014 0.62981193 0.84993854
v -0.22827014 0.63692516 0.83368829
v -0.22827014 0.64036187 0.81680078
v -0.16064674 0.68479938 0.64774869
v -0.17755257 0.68527899 0.63082579
v -0.38279559 0.62022108 0.70085406
v -0.16064674 0.68775659 0.63082579
v -0.16064674 0.68767667 0.62512580
v -0.19421577 0.68136266 0.62512580
v -0.38279559 0.62038092 0.69848202
v -0.36594362 -0.08686372 0.98680878
v -0.10734071 -0.12858388 0.62512580
v -0.38279559 0.57306610 0.62512580
v -0.22611308 -0.12858388 0.98680878
v -0.10990221 0.42336905 0.98680878
v -0.12014817 0.55732113 0.89245825
v -0.11068413 0.56667222 0.88105828
v -0.10734071 0.57050856 0.87645582
v -0.10734071 0.57594339 0.87171175
v -0.11092680 0.58273690 0.86710927
v -0.10734071 0.58705276 0.86101986
v -0.10734071 0.59264742 0.85443479
v -0.10734071 0.66569762 0.73229244
v -0.10990221 0.66601738 0.73229244
v -0.21136428 0.62837327 0.84756650
v -0.12680805 0.67113244 0.71536953
v -0.12680805 0.67736654 0.69373794
v -0.13824041 0.67728662 0.69256963
v -0.14374087 0.68360054 0.66467161
v -0.14374087 0.68687741 0.64774869
v -0.14374087 0.68783651 0.63082579
v -0.14374087 0.68735697 0.62512580
v -0.20152276 0.67760629 0.62512580
v -0.38279559 0.61230864 0.66725607
v -0.38279559 0.61318782 0.66899084
v -0.38279559 0.61846276 0.68155911
v -0.38279559 0.61886240 0.68393115
v -0.10734071 0.68000398 0.62512580
v -0.10734071 -0.12858388 0.90768177
v -0.38279559 0.60615452 0.65883002
v -0.19389221 -0.12858388 0.97533801
v -0.10734071 -0.04090762 0.98680878
v -0.10785300 0.42217019 0.98680878
v -0.10734071 0.42185051 0.98680878
v -0.10734071 0.66961394 0.71536953
v -0.10990221 0.67033324 0.71536953
v -0.12680805 0.68543881 0.64774869
v -0.11766757 0.67664720 0.69242801
v -0.12680805 0.68647783 0.63082579
v -0.13802470 0.68703724 0.62512580
v -0.38279559 0.60727344 0.65999833
v -0.10903938 0.68080325 0.62512580
v -0.10990221 0.68128275 0.63082579
v -0.10734071 0.68000398 0.62611711
v -0.14800105 -0.12858388 0.94761703
v -0.17935910 -0.12858388 0.96928401
v -0.16838514 -0.12858388 0.96305296
v -0.15948731 -0.12858388 0.95685734
v -0.14899867 -0.12858388 0.94850211
v -0.10734071 0.67848547 0.64424374
v -0.10990221 0.67936460 0.64622635
v -0.10990221 0.68120283 0.62512580
v -0.12111885 0.68463954 0.62512580
v -0.12680805 0.68607819 0.62512580
v -0.10734071 0.67992407 0.63082579
f 1 2 13
f 1 13 27
f 1 27 47
f 1 47 71
f 1 71 51
f 1 51 74
f 1 74 102
f 1 102 104
f 1 104 103
f 1 103 75
f 1 75 53
f 1 53 30
f 1 30 14
f 1 14 3
f 1 3 4
f 1 4 5
f 1 5 6
f 1 6 7
f 1 7 8
f 1 8 9
f 1 9 10
f 1 10 11
f 1 11 26
f 1 26 44
f 1 44 43
f 1 43 66
f 1 66 70
f 1 70 97
f 1 97 96
f 1 96 95
f 1 95 94
f 1 94 111
f 1 111 100
f 1 100 73
f 1 73 48
f 1 48 28
f 1 28 12
f 1 12 2
f 2 12 13
f 3 14 15
f 3 15 16
f 3 16 4
f 4 16 17
f 4 17 18
f 4 18 5
f 5 18 19
f 5 19 20
f 5 20 7
f 5 7 6
f 7 21 8
f 7 20 22
f 7 22 23
f 7 23 21
f 8 21 9
f 9 21 23
f 9 23 24
f 9 24 10
f 10 24 25
f 10 25 11
f 11 25 26
f 12 27 13
f 12 28 29
f 12 29 27
f 14 30 15
f 15 31 32
f 15 32 33
f 15 33 34
f 15 34 35
f 15 35 36
f 15 36 16
f 15 30 31
f 16 36 37
f 16 37 17
f 17 37 18
f 18 37 38
f 18 38 19
f 19 38 39
f 19 39 20
f 20 39 22
f 22 39 23
f 23 39 40
f 23 40 41
f 23 41 24
f 24 41 42
f 24 42 25
f 25 43 44
f 25 44 26
f 25 42 45
f 25 45 46
f 25 46 43
f 27 29 47
f 28 48 72
f 28 72 99
f 28 99 115
f 28 115 119
f 28 119 118
f 28 118 117
f 28 117 116
f 28 116 101
f 28 101 74
f 28 74 51
f 28 51 50
f 28 50 49
f 28 49 29
f 29 49 50
f 29 50 51
f 29 51 52
f 29 52 47
f 30 53 54
f 30 54 32
f 30 32 31
f 32 54 33
f 33 54 55
f 33 55 56
f 33 56 57
f 33 57 34
f 34 57 35
f 35 58 85
f 35 85 59
f 35 59 36
f 35 57 60
f 35 60 82
f 35 82 81
f 35 81 79
f 35 79 78
f 35 78 104
f 35 104 102
f 35 102 99
f 35 99 72
f 35 72 98
f 35 98 114
f 35 114 125
f 35 125 120
f 35 120 105
f 35 105 83
f 35 83 58
f 36 59 38
f 36 38 37
f 38 59 61
f 38 61 39
f 39 61 40
f 40 61 62
f 40 62 42
f 40 42 41
f 42 62 63
f 42 63 64
f 42 64 65
f 42 65 45
f 43 46 66
f 45 65 46
f 46 65 64
f 46 64 67
f 46 67 68
f 46 68 92
f 46 92 110
f 46 110 124
f 46 124 123
f 46 123 122
f 46 122 112
f 46 112 98
f 46 98 72
f 46 72 48
f 46 48 73
f 46 73 93
f 46 93 69
f 46 69 70
f 46 70 66
f 47 52 71
f 51 71 52
f 53 75 76
f 53 76 54
f 54 76 55
f 55 77 78
f 55 78 79
f 55 79 56
f 55 76 77
f 56 80 81
f 56 81 57
f 56 79 80
f 57 81 82
f 57 82 60
f 58 83 84
f 58 84 62
f 58 62 61
f 58 61 85
f 59 85 61
f 62 84 86
f 62 86 87
f 62 87 88
f 62 88 89
f 62 89 64
f 62 64 63
f 64 89 90
f 64 90 67
f 67 91 68
f 67 90 91
f 68 91 92
f 69 93 94
f 69 94 95
f 69 95 96
f 69 96 97
f 69 97 70
f 73 100 93
f 74 101 102
f 75 103 76
f 76 103 104
f 76 104 77
f 77 104 78
f 79 81 80
f 83 105 106
f 83 106 84
f 84 106 87
f 84 87 86
f 87 107 90
f 87 90 89
f 87 89 88
f 87 106 108
f 87 108 107
f 90 109 91
f 90 107 109
f 91 109 110
f 91 110 92
f 93 100 111
f 93 111 94
f 98 112 113
f 98 113 114
f 99 102 115
f 101 116 102
f 102 116 117
f 102 117 118
f 102 118 119
f 102 119 115
f 105 108 106
f 105 120 121
f 105 121 108
f 107 113 109
f 107 108 113
f 108 121 113
f 109 113 122
f 109 122 123
f 109 123 124
f 109 124 110
f 112 122 113
f 113 121 120
f 113 120 125
f 113 125 114

