# https://github.com/mikedh/trimesh
v -0.04229286 -0.69537355 0.69842530
v -0.06059702 -0.69444460 0.69781657
v -0.05591115 -0.69399875 0.68144842
v -0.04236608 -0.69411022 0.68036622
v -0.02537981 -0.69362719 0.68543900
v -0.02537981 -0.69451891 0.69842530
v -0.01451935 -0.69381292 0.70877376
v -0.02537981 -0.69407302 0.71032941
v -0.04229286 -0.69425886 0.71269670
v -0.05918150 -0.69399875 0.71174979
v -0.06713772 -0.69306979 0.69172924
v -0.06430667 -0.69295833 0.68144842
v -0.06857763 -0.69336708 0.70816502
v -0.06857763 -0.69336708 0.70302462
v -0.09295878 -0.68582413 0.64769756
v -0.05852254 -0.69184362 0.66582427
v -0.05244557 -0.69325561 0.67238506
v -0.04805257 -0.69325561 0.67238506
v -0.04236608 -0.69221520 0.66582427
v -0.03677720 -0.69306979 0.67407598
v -0.02537981 -0.69277255 0.67698437
v -0.01634976 -0.69332989 0.68855030
v -0.01469018 -0.69377579 0.69842530
v -0.00624586 -0.69158352 0.69842530
v 0.00844628 -0.68667878 0.69842530
v -0.00871081 -0.68957705 0.71479345
v -0.02537981 -0.69162066 0.71878403
v -0.04229286 -0.69258675 0.72121897
v -0.05918150 -0.69258675 0.72020441
v -0.09295878 -0.68734760 0.69842530
v -0.07494749 -0.69091466 0.71438763
v -0.09295878 -0.68604711 0.71526691
v -0.10989623 -0.68181117 0.64769756
v -0.11143379 -0.67921016 0.62936793
v -0.09295878 -0.68352042 0.63072067
v -0.02537981 -0.69058029 0.66460680
v -0.07604574 -0.68277729 0.63072067
v -0.04229286 -0.68634436 0.64769756
v -0.00980906 -0.69124908 0.68232770
v 0.00844628 -0.68645582 0.68144842
v 0.02189373 -0.67984184 0.69842530
v 0.01903829 -0.67816973 0.70965304
v 0.00849509 -0.68140242 0.71526691
v 0.03482868 -0.67690640 0.66771811
v 0.03482868 -0.67690640 0.67569927
v 0.00288182 -0.67824412 0.72629174
v -0.00958942 -0.68028773 0.73204089
v -0.02537981 -0.68478376 0.73217616
v -0.04229286 -0.68753338 0.73217616
v -0.05918150 -0.68838797 0.73217616
v -0.07604574 -0.68593564 0.73217616
v -0.10538120 -0.67731515 0.74333626
v -0.10989623 -0.68259144 0.69842530
v -0.11668098 -0.67579170 0.73745184
v -0.10989623 -0.68088227 0.71526691
v -0.12134243 -0.67783536 0.64769756
v -0.18774995 -0.64818390 0.56998265
v -0.18774995 -0.64632608 0.55172066
v -0.18774995 -0.64554576 0.54833882
v -0.18774995 -0.63703677 0.51864617
v -0.18774995 -0.63150030 0.50092528
v -0.18774995 -0.62997690 0.49679942
v -0.18774995 -0.62340006 0.47921380
v -0.09295878 -0.67883860 0.61908711
v -0.02537981 -0.68392911 0.64769756
v 0.02535934 -0.66884329 0.63072067
v -0.00846676 -0.68757057 0.66460680
v -0.18774995 -0.61797511 0.46663333
v -0.18774995 -0.57528150 0.37112989
v -0.18774995 -0.53329388 0.28252544
v 0.03355959 -0.67623758 0.65642273
v 0.06157718 -0.66326974 0.66447153
v 0.06157718 -0.66282385 0.66629773
v 0.06157718 -0.66022283 0.67448181
v 0.06157718 -0.65602410 0.68070441
v 0.06157718 -0.65327443 0.68401862
v 0.06157718 -0.64528565 0.69227033
v 0.01415719 -0.67177874 0.72094842
v 0.04224798 -0.67170440 0.64769756
v 0.06040570 -0.66386427 0.64715646
v 0.06157718 -0.66338120 0.64790047
v 0.06157718 -0.66338120 0.64891502
v 0.00063651 -0.66033430 0.74123951
v -0.00470832 -0.67155582 0.73758712
v -0.01598368 -0.67675780 0.74110425
v -0.02537981 -0.67790969 0.74286280
v -0.04229286 -0.67965606 0.74523010
v -0.05918150 -0.68051069 0.74637993
v -0.07604574 -0.67958174 0.74617702
v -0.09295878 -0.67828124 0.74523010
v -0.09295878 -0.67393386 0.75368472
v -0.11055519 -0.67270765 0.74908540
v -0.11897510 -0.67660915 0.72615647
v -0.11985370 -0.67720369 0.71526691
v -0.12095195 -0.67798400 0.69842530
v -0.12737062 -0.66445877 0.74955887
v -0.13337438 -0.65851360 0.75551093
v -0.13727927 -0.66081736 0.74428318
v -0.12551579 -0.67159295 0.73197325
v -0.13903647 -0.66234083 0.73217616
v -0.16593137 -0.64049237 0.74915305
v -0.18569989 -0.62529508 0.75449637
v -0.18774995 -0.62373448 0.75294072
v 0.04224798 -0.66564778 0.63072067
v 0.02689689 -0.67489992 0.64776519
v -0.18774995 -0.31581276 0.28252544
v -0.03553252 -0.49896060 0.28252544
v 0.05113159 -0.65955403 0.62213077
v 0.06157718 -0.63443575 0.69896640
v 0.01972164 -0.62986539 0.74320100
v 0.01591439 -0.64112404 0.73961623
v 0.05469481 -0.66152332 0.63072067
v 0.06157718 -0.66300963 0.64607427
v -0.05027348 -0.62603822 0.80874124
v -0.05918150 -0.62863923 0.81178490
v -0.05918150 -0.63711108 0.80177462
v -0.07604574 -0.63019982 0.81462565
v -0.09295878 -0.62429184 0.82341847
v -0.10989623 -0.62436617 0.82321555
v -0.07604574 -0.67415678 0.75456401
v -0.12678488 -0.62217384 0.82064535
v -0.13676676 -0.62633546 0.80962051
v -0.15460722 -0.64394798 0.76024551
v -0.17051962 -0.62644691 0.77559911
v -0.17418047 -0.62904799 0.76599465
v -0.18262478 -0.62321428 0.76599465
v -0.18774995 -0.61927559 0.76565647
v 0.04366349 -0.31581276 0.28252544
v -0.18774995 -0.31581276 0.97350495
v -0.02501372 -0.49613666 0.28252544
v -0.02023024 -0.49446457 0.28252544
v -0.01471459 -0.49190073 0.28252544
v 0.06157718 -0.64825824 0.61157940
v 0.06157718 -0.64981883 0.61442016
v 0.06157718 -0.65791912 0.63072067
v 0.06157718 -0.61712047 0.70647410
v 0.04795887 -0.61712047 0.72088078
v 0.03951455 -0.61712047 0.72933541
v 0.03094819 -0.61712047 0.73785766
v -0.05290928 -0.60322371 0.82368901
v -0.04771089 -0.61712047 0.81171726
v -0.05879101 -0.61741775 0.82037480
v -0.06413583 -0.61206708 0.82700323
v -0.07604574 -0.62295417 0.82308027
v -0.10989623 -0.60753391 0.84140991
v -0.10989623 -0.61593145 0.83288765
v -0.12678488 -0.60641920 0.83951607
v -0.12678488 -0.61373918 0.83106145
v -0.13825550 -0.61091525 0.82754432
v -0.15204462 -0.59166781 0.84201863
v -0.14316101 -0.61686036 0.81638422
v -0.15546140 -0.61154691 0.81178490
v -0.18774995 -0.61214145 0.77816931
v 0.06157718 -0.32447037 0.28252544
v 0.06157718 -0.31581276 0.28259306
v -0.18774995 -0.32974673 0.97066421
v -0.08663774 -0.56640093 0.85825151
v -0.08483173 -0.55647995 0.85872498
v -0.08368467 -0.54518416 0.85967189
v -0.05676534 -0.53255069 0.83694587
v -0.01893675 -0.31581276 0.82314792
v 0.06123549 -0.45370310 0.28252544
v 0.06157718 -0.45351732 0.28252544
v 0.06157718 -0.60017680 0.71087051
v 0.04027113 -0.59961945 0.73332599
v 0.03426735 -0.59359997 0.74110425
v 0.03280302 -0.60485862 0.73975151
v -0.05066397 -0.59196505 0.82524466
v -0.09832800 -0.57583884 0.85967189
v -0.10989623 -0.57877424 0.86149810
v -0.07604574 -0.61451950 0.82896469
v -0.10989623 -0.58717177 0.85581657
v -0.12678488 -0.58074358 0.86305373
v -0.12678488 -0.58921543 0.85669586
v -0.12678488 -0.59798454 0.84817361
v -0.14076926 -0.59467752 0.84573868
v -0.13952459 -0.57855132 0.86170099
v -0.15082436 -0.57364657 0.85798097
v -0.16061098 -0.57933163 0.84587394
v -0.16959221 -0.57528150 0.84249210
v -0.18623681 -0.57502139 0.82544757
v -0.18774995 -0.57632186 0.82213336
v 0.06157718 -0.31581276 0.71851349
v -0.18774995 -0.34631882 0.96538851
v -0.12146446 -0.55696298 0.87570186
v -0.11033553 -0.55057197 0.87340219
v -0.09513087 -0.56640093 0.86210682
v -0.05012704 -0.58327028 0.82578576
v -0.04756445 -0.53255069 0.82842360
v 0.00136868 -0.58327028 0.77593729
v 0.06157718 -0.58423638 0.71364362
v 0.06157718 -0.56539765 0.71404945
v 0.06157718 -0.59683266 0.71168215
v 0.06157718 -0.58709745 0.71330544
v 0.00034364 -0.59274536 0.77478746
v -0.10989623 -0.56640093 0.86819416
v -0.12698014 -0.56484029 0.87232002
v -0.13571731 -0.55822631 0.87604004
v -0.14328302 -0.56595504 0.86772068
v -0.18774995 -0.45923956 0.91161710
v -0.15638880 -0.56238793 0.86251266
v -0.18774995 -0.56558348 0.83214363
v -0.18774995 -0.57275479 0.82605631
v -0.18774995 -0.35687147 0.96153321
v -0.13273984 -0.55822631 0.87604004
v -0.16934816 -0.43973203 0.92663252
v -0.17598648 -0.43204048 0.92947326
v -0.18774995 -0.42899358 0.92927037
v -0.18774995 -0.43694523 0.92487395
v -0.16895767 -0.43973203 0.92663252
f 1 2 3
f 1 3 4
f 1 4 5
f 1 5 6
f 1 6 7
f 1 7 8
f 1 8 9
f 1 9 10
f 1 10 2
f 2 11 12
f 2 12 3
f 2 10 13
f 2 13 14
f 2 14 11
f 3 12 15
f 3 15 16
f 3 16 17
f 3 17 4
f 4 17 18
f 4 18 19
f 4 19 20
f 4 20 21
f 4 21 5
f 5 22 6
f 5 21 22
f 6 23 7
f 6 22 23
f 7 23 24
f 7 24 25
f 7 25 26
f 7 26 27
f 7 27 28
f 7 28 8
f 8 28 9
f 9 28 29
f 9 29 10
f 10 29 13
f 11 14 15
f 11 15 12
f 13 30 14
f 13 29 31
f 13 31 32
f 13 32 30
f 14 30 33
f 14 33 15
f 15 33 34
f 15 34 35
f 15 35 16
f 16 19 17
f 16 35 19
f 17 19 18
f 19 36 21
f 19 21 20
f 19 35 37
f 19 37 38
f 19 38 36
f 21 39 22
f 21 36 39
f 22 39 23
f 23 39 40
f 23 40 24
f 24 40 25
f 25 41 42
f 25 42 43
f 25 43 26
f 25 40 44
f 25 44 45
f 25 45 41
f 26 43 46
f 26 46 47
f 26 47 48
f 26 48 27
f 27 49 28
f 27 48 49
f 28 49 50
f 28 50 29
f 29 50 51
f 29 51 52
f 29 52 31
f 30 32 53
f 30 53 33
f 31 52 54
f 31 54 32
f 32 55 53
f 32 54 55
f 33 56 57
f 33 57 58
f 33 58 34
f 33 53 56
f 34 58 35
f 35 58 59
f 35 59 60
f 35 60 61
f 35 61 62
f 35 62 63
f 35 63 64
f 35 64 37
f 36 38 65
f 36 65 66
f 36 66 67
f 36 67 39
f 37 64 68
f 37 68 69
f 37 69 38
f 38 69 70
f 38 70 66
f 38 66 65
f 39 67 71
f 39 71 40
f 40 71 44
f 41 45 72
f 41 72 73
f 41 73 74
f 41 74 42
f 42 74 75
f 42 75 76
f 42 76 77
f 42 77 78
f 42 78 46
f 42 46 43
f 44 71 79
f 44 79 80
f 44 80 81
f 44 81 82
f 44 82 45
f 45 82 72
f 46 78 83
f 46 83 84
f 46 84 85
f 46 85 47
f 47 85 48
f 48 85 86
f 48 86 87
f 48 87 49
f 49 87 88
f 49 88 50
f 50 88 89
f 50 89 90
f 50 90 52
f 50 52 51
f 52 90 91
f 52 91 92
f 52 92 54
f 53 55 93
f 53 93 94
f 53 94 95
f 53 95 56
f 54 92 96
f 54 96 97
f 54 97 98
f 54 98 99
f 54 99 93
f 54 93 55
f 56 95 57
f 57 95 94
f 57 94 93
f 57 93 99
f 57 99 100
f 57 100 101
f 57 101 102
f 57 102 103
f 57 103 127
f 57 127 153
f 57 153 182
f 57 182 203
f 57 203 202
f 57 202 200
f 57 200 209
f 57 209 208
f 57 208 204
f 57 204 184
f 57 184 156
f 57 156 129
f 57 129 106
f 57 106 70
f 57 70 69
f 57 69 68
f 57 68 63
f 57 63 62
f 57 62 61
f 57 61 60
f 57 60 59
f 57 59 58
f 63 68 64
f 66 104 105
f 66 105 67
f 66 70 104
f 67 105 79
f 67 79 71
f 70 106 128
f 70 128 154
f 70 154 163
f 70 163 162
f 70 162 132
f 70 132 131
f 70 131 130
f 70 130 107
f 70 107 108
f 70 108 104
f 72 82 81
f 72 81 113
f 72 113 135
f 72 135 134
f 72 134 133
f 72 133 163
f 72 163 154
f 72 154 155
f 72 155 183
f 72 183 192
f 72 192 191
f 72 191 194
f 72 194 193
f 72 193 164
f 72 164 136
f 72 136 109
f 72 109 77
f 72 77 76
f 72 76 75
f 72 75 74
f 72 74 73
f 77 109 110
f 77 110 111
f 77 111 78
f 78 111 83
f 79 105 104
f 79 104 112
f 79 112 80
f 80 112 113
f 80 113 81
f 83 111 114
f 83 114 84
f 84 114 85
f 85 114 115
f 85 115 86
f 86 115 116
f 86 116 87
f 87 116 117
f 87 117 88
f 88 117 118
f 88 118 119
f 88 119 120
f 88 120 91
f 88 91 89
f 89 91 90
f 91 120 119
f 91 119 121
f 91 121 92
f 92 121 122
f 92 122 97
f 92 97 96
f 97 123 98
f 97 122 124
f 97 124 123
f 98 123 101
f 98 101 99
f 99 101 100
f 101 123 125
f 101 125 102
f 102 125 126
f 102 126 127
f 102 127 103
f 104 108 112
f 106 129 161
f 106 161 183
f 106 183 155
f 106 155 128
f 107 130 108
f 108 130 131
f 108 131 132
f 108 132 133
f 108 133 134
f 108 134 135
f 108 135 112
f 109 136 137
f 109 137 110
f 110 137 138
f 110 138 139
f 110 139 140
f 110 140 141
f 110 141 114
f 110 114 111
f 112 135 113
f 114 141 140
f 114 140 142
f 114 142 115
f 115 142 143
f 115 143 144
f 115 144 117
f 115 117 116
f 117 144 118
f 118 145 146
f 118 146 119
f 118 144 145
f 119 146 147
f 119 147 148
f 119 148 121
f 121 148 122
f 122 148 149
f 122 149 150
f 122 150 151
f 122 151 152
f 122 152 124
f 123 124 125
f 124 153 126
f 124 126 125
f 124 152 153
f 126 153 127
f 128 155 154
f 129 156 157
f 129 157 158
f 129 158 159
f 129 159 160
f 129 160 161
f 132 162 133
f 133 162 163
f 136 164 137
f 137 164 165
f 137 165 166
f 137 166 167
f 137 167 138
f 138 167 139
f 139 167 168
f 139 168 140
f 140 168 157
f 140 157 143
f 140 143 142
f 143 157 169
f 143 169 170
f 143 170 171
f 143 171 144
f 144 171 172
f 144 172 145
f 145 172 173
f 145 173 174
f 145 174 175
f 145 175 146
f 146 175 147
f 147 175 176
f 147 176 148
f 148 176 149
f 149 176 150
f 150 176 177
f 150 177 178
f 150 178 179
f 150 179 180
f 150 180 181
f 150 181 153
f 150 153 152
f 150 152 151
f 153 181 182
f 156 184 185
f 156 185 186
f 156 186 187
f 156 187 157
f 157 168 158
f 157 187 169
f 158 168 159
f 159 168 188
f 159 188 160
f 160 188 189
f 160 189 161
f 161 189 188
f 161 188 190
f 161 190 166
f 161 166 191
f 161 191 192
f 161 192 183
f 164 193 166
f 164 166 165
f 166 193 194
f 166 194 191
f 166 190 195
f 166 195 167
f 167 195 168
f 168 195 190
f 168 190 188
f 169 187 196
f 169 196 170
f 170 172 171
f 170 196 185
f 170 185 197
f 170 197 173
f 170 173 172
f 173 197 198
f 173 198 177
f 173 177 174
f 174 176 175
f 174 177 176
f 177 198 199
f 177 199 200
f 177 200 201
f 177 201 178
f 178 180 179
f 178 201 180
f 180 201 200
f 180 200 202
f 180 202 203
f 180 203 181
f 181 203 182
f 184 204 185
f 185 205 197
f 185 196 186
f 185 204 205
f 186 196 187
f 197 205 198
f 198 205 210
f 198 210 206
f 198 206 207
f 198 207 208
f 198 208 209
f 198 209 200
f 198 200 199
f 204 208 207
f 204 207 206
f 204 206 210
f 204 210 205

