# https://github.com/mikedh/trimesh
v 0.27896735 0.00840537 1.28635699
v 0.26068098 0.00752801 1.28339161
v 0.25351603 -0.00020379 1.28180306
v 0.26316114 -0.00689372 1.28270325
v 0.27896735 -0.00848394 1.28492726
v 0.29355315 -0.00848394 1.28370936
v 0.29469481 0.00840537 1.28429181
v 0.29296263 0.02534952 1.28344457
v 0.29006910 0.03587792 1.28238555
v 0.27843589 0.02639140 1.28392115
v 0.26538542 0.02140137 1.28312687
v 0.25412622 0.01262770 1.28159122
v 0.25351603 0.00133160 1.28180306
v 0.21891168 0.01388891 1.26544083
v 0.22070292 0.00259281 1.26416992
v 0.23221801 -0.00848394 1.26771779
v 0.24680380 -0.00689372 1.27629602
v 0.27156619 -0.13345387 1.24748999
v 0.28282539 -0.14047281 1.24966104
v 0.25827953 -0.01144506 1.28010858
v 0.26953875 -0.01797047 1.28206780
v 0.27896735 -0.02010904 1.28259733
v 0.29065962 -0.02010904 1.28254438
v 0.30201725 -0.00848394 1.28095582
v 0.30315892 0.00840537 1.28127357
v 0.30142672 0.02534952 1.28084990
v 0.28371118 0.03587792 1.28238555
v 0.29577744 0.04180014 1.27947318
v 0.29587586 0.05912813 1.27407201
v 0.27245197 0.03269747 1.28132648
v 0.26207854 0.05912813 1.27078899
v 0.26068098 0.02639140 1.28005563
v 0.21891168 0.01898860 1.26544083
v 0.16176921 0.14379404 1.20809351
v 0.20176697 0.00840537 1.24913151
v 0.20247558 -0.00108116 1.24833723
v 0.25186257 -0.13806005 1.23250454
v 0.26888918 -0.17161933 1.23245158
v 0.27896735 -0.16059741 1.24150638
v 0.28829753 -0.15171407 1.24780769
v 0.29957642 -0.15434618 1.24865493
v 0.30695792 -0.15434618 1.24865493
v 0.29613176 -0.02559259 1.27968497
v 0.31278434 -0.00848394 1.27348952
v 0.31866984 -0.14370810 1.24711933
v 0.32969287 -0.16059741 1.23864697
v 0.33923956 -0.17167416 1.23186908
v 0.31278434 0.00840537 1.27444267
v 0.31278434 0.02534952 1.27417793
v 0.31278434 0.04223884 1.27290708
v 0.31367012 0.05945715 1.26893569
v 0.27896735 0.05912813 1.27386023
v 0.27843589 0.04180014 1.27968497
v 0.30861136 0.07047907 1.26681755
v 0.29587586 0.07267249 1.26777070
v 0.27896735 0.07316601 1.26771779
v 0.25343731 0.06784698 1.26496425
v 0.25052408 0.05912813 1.26655281
v 0.24517005 0.12679505 1.24113572
v 0.23109603 0.13907818 1.23356356
v 0.22656872 0.12844012 1.23562869
v 0.16176921 0.12679505 1.20872897
v 0.17682741 0.14500042 1.21296515
v 0.18676779 0.15158067 1.21402417
v 0.16176921 0.15722871 1.20179220
v 0.18509467 0.01334057 1.23202796
v 0.16176921 -0.00848394 1.19962115
v 0.16176921 -0.01555770 1.19755602
v 0.16176921 -0.02537324 1.19459069
v 0.20359757 -0.20123046 1.16281934
v 0.24050496 -0.12676396 1.22742112
v 0.25387035 -0.21943581 1.19702654
v 0.26869234 -0.20490443 1.21545390
v 0.27934134 -0.17737706 1.23483441
v 0.29587586 -0.17748673 1.23965308
v 0.29471450 -0.16021357 1.24616623
v 0.31278434 -0.17748673 1.24002374
v 0.31266625 -0.16021357 1.24553078
v 0.31020576 -0.14370810 1.24987283
v 0.32174053 -0.01950586 1.26528195
v 0.32235074 -0.00848394 1.26586439
v 0.32302001 0.00840537 1.26644689
v 0.35707319 -0.19443087 1.21561272
v 0.33016525 -0.17737706 1.23478145
v 0.35321516 -0.21592634 1.21322989
v 0.35557723 -0.20468510 1.21450074
v 0.32329559 0.02534952 1.26660576
v 0.32317747 0.04223884 1.26639398
v 0.32248853 0.05402845 1.26581149
v 0.31989026 0.06532455 1.26411701
v 0.33447606 0.08122682 1.24606031
v 0.32319715 0.08561365 1.24886676
v 0.27148745 0.13567840 1.23144547
v 0.27896735 0.11379905 1.24478941
v 0.26207854 0.12679505 1.23997079
v 0.26207854 0.11560863 1.24669572
v 0.24517005 0.13995556 1.23435783
v 0.21981714 0.13523971 1.23102185
v 0.22826153 0.15838025 1.21947824
v 0.16176921 0.00418304 1.20089206
v 0.19322414 0.15980599 1.20973508
v 0.17798877 0.16145104 1.20369851
v 0.18391362 0.16978602 1.19824443
v 0.16176921 0.15794157 1.20099792
v 0.16176921 -0.17748673 1.12802975
v 0.16812711 -0.18801511 1.13062437
v 0.17094194 -0.19931121 1.12771200
v 0.16176921 -0.26204295 1.08392051
v 0.18804726 -0.26555242 1.11066141
v 0.21979746 -0.28743176 1.12956535
v 0.27070011 -0.23648963 1.19707944
v 0.28597485 -0.22119055 1.21492436
v 0.27979408 -0.21082666 1.21767790
v 0.27934134 -0.19393735 1.22625613
v 0.27833747 -0.22886754 1.20608134
v 0.28524652 -0.18796028 1.23202796
v 0.31278434 -0.21132017 1.22567369
v 0.31278434 -0.19218263 1.23388126
v 0.30741064 -0.23627029 1.21391825
v 0.31294184 -0.22969005 1.21746607
v 0.32483092 -0.19004404 1.23276928
v 0.32239013 -0.23692832 1.21428896
v 0.32868897 -0.22897717 1.21693653
v 0.36284058 -0.19443087 1.21100588
v 0.36284058 -0.17748673 1.21291219
v 0.33079516 -0.00848394 1.25770979
v 0.35742753 0.00840537 1.23324585
v 0.34906183 0.02534952 1.24219479
v 0.34059774 0.02534952 1.25034940
v 0.33175965 0.02534952 1.25876886
v 0.36213196 -0.21071700 1.20798760
v 0.34193627 -0.22382267 1.21566573
v 0.36284058 -0.21652955 1.20586956
v 0.34719187 -0.22897717 1.21164133
v 0.35888414 -0.24021845 1.20025660
v 0.36284058 -0.23029324 1.20163338
v 0.36284058 -0.22722243 1.20279831
v 0.34087331 0.04223884 1.25056124
v 0.33162189 0.04223884 1.25903360
v 0.34042060 0.05912813 1.25003170
v 0.33943640 0.06993071 1.24902559
v 0.35506546 0.08451694 1.23102185
v 0.34660135 0.08725871 1.23382835
v 0.30528476 0.13578806 1.21460666
v 0.29587586 0.13847500 1.21720133
v 0.28276634 0.13266245 1.22895672
v 0.35065623 0.14944209 1.17785781
v 0.26207854 0.14593261 1.22535599
v 0.26207854 0.13743314 1.23276928
v 0.28735272 0.18596249 1.18029360
v 0.24517005 0.14845505 1.22800361
v 0.24517005 0.15827058 1.21953120
v 0.22826153 0.16687976 1.21201199
v 0.21135304 0.16419281 1.21058231
v 0.19444454 0.17121174 1.20025660
v 0.16176921 0.17055372 1.18341780
v 0.17265442 0.16770228 1.19485549
v 0.16176921 0.16556371 1.19178424
v 0.19444454 0.17653079 1.18876596
v 0.16176921 0.17620178 1.17182124
v 0.16176921 -0.19234713 1.12114594
v 0.16176921 -0.19316965 1.12072233
v 0.16176921 -0.27810972 1.07428321
v 0.16590283 -0.27432608 1.08164360
v 0.16176921 -0.28074182 1.07216512
v 0.16176921 -0.29730212 1.05702077
v 0.16176921 -0.29850851 1.05574991
v 0.16176921 -0.30196314 1.05199031
v 0.16456433 -0.30728218 1.04902498
v 0.18200429 -0.30750152 1.06607560
v 0.20538881 -0.30333401 1.09445801
v 0.24019000 -0.30284050 1.12734134
v 0.22826153 -0.29055738 1.13221297
v 0.25174446 -0.28869297 1.14756909
v 0.28197900 -0.24093130 1.20046839
v 0.26566101 -0.27427126 1.16636716
v 0.29587586 -0.23325434 1.21217087
v 0.29587586 -0.22475486 1.21656587
v 0.31868952 -0.23692832 1.21428896
v 0.31294184 -0.24356340 1.20872897
v 0.29599397 -0.24597617 1.20306306
v 0.30172198 -0.25464016 1.19829734
v 0.33364933 -0.23506394 1.21344172
v 0.31278434 -0.25540786 1.19909167
v 0.32969287 -0.25491435 1.19850917
v 0.32868897 -0.24356340 1.20798760
v 0.36284058 -0.21077183 1.20740515
v 0.36284058 0.00840537 1.22800361
v 0.34799891 -0.00848394 1.24108281
v 0.35780152 0.02534952 1.23372243
v 0.36284058 -0.24433111 1.19321392
v 0.36284058 -0.23736701 1.19861509
v 0.34547938 -0.24559230 1.20221582
v 0.35036099 -0.25151455 1.19517319
v 0.35945497 -0.25650457 1.18389433
v 0.36284058 -0.25008882 1.18760102
v 0.34931773 0.04223884 1.24224770
v 0.36284058 0.05249306 1.22879784
v 0.36284058 0.05912813 1.22858606
v 0.34888469 0.05912813 1.24198296
v 0.36284058 0.07146611 1.22705046
v 0.36284058 0.07607228 1.22636205
v 0.36284058 0.09021983 1.21984890
v 0.36284058 0.09104235 1.21942533
v 0.36284058 0.09230357 1.21852514
v 0.36284058 0.10930256 1.20496936
v 0.35642363 0.10239329 1.21492436
v 0.29587586 0.18316589 1.17812255
v 0.35919907 0.15509014 1.16657894
v 0.33967260 0.17006020 1.16435499
v 0.30821768 0.18853974 1.16610242
v 0.35888414 0.13814599 1.18262352
v 0.36284058 0.14521976 1.17351571
v 0.26207854 0.15519981 1.21688363
v 0.29587586 0.19095251 1.16965019
v 0.29587586 0.19939715 1.15720644
v 0.28062081 0.19166535 1.17351571
v 0.27607382 0.18716886 1.18167037
v 0.24517005 0.16671524 1.21158837
v 0.22826153 0.17367935 1.20353963
v 0.21135304 0.17274713 1.20210995
v 0.21135304 0.17954673 1.18876596
v 0.26207854 0.20828051 1.13803771
v 0.26207854 0.21469625 1.12109299
v 0.16176921 0.18327555 1.15397632
v 0.16176921 -0.30898207 1.04245890
v 0.16176921 -0.31040778 1.03954653
v 0.17682741 -0.31117549 1.05416136
v 0.19373592 -0.31057230 1.07121197
v 0.19891280 -0.30667900 1.08317919
v 0.23414704 -0.30591130 1.11606253
v 0.24556372 -0.30772086 1.12146364
v 0.25146890 -0.30497908 1.13057146
v 0.24595739 -0.29576673 1.13750817
v 0.26207854 -0.29083154 1.15021671
v 0.29044308 -0.25217258 1.19591451
v 0.27896735 -0.28512867 1.16112487
v 0.33908210 -0.25398214 1.19755602
v 0.27896735 -0.29258628 1.15270546
v 0.30347385 -0.27065210 1.18050538
v 0.31278434 -0.26390735 1.18903075
v 0.32250822 -0.27065210 1.18045247
v 0.32874803 -0.26451053 1.18717740
v 0.36284058 0.02534952 1.22869192
v 0.35780152 0.04223884 1.23382835
v 0.34547938 -0.25864313 1.18924253
v 0.33376743 -0.27004894 1.17939340
v 0.34792017 -0.26840386 1.17298617
v 0.36284058 -0.26094624 1.17277439
v 0.36284058 -0.25891733 1.17637512
v 0.36284058 -0.25529819 1.18241169
v 0.36284058 0.04223884 1.22879784
v 0.36284058 0.14253282 1.17595155
v 0.36284058 0.14812603 1.17070926
v 0.36284058 0.15744805 1.15868908
v 0.36284058 0.15942213 1.15545901
v 0.32508682 0.18859458 1.15048151
v 0.31949657 0.18464643 1.16176032
v 0.31201667 0.19418778 1.15424111
v 0.30453679 0.20296147 1.14666894
v 0.27896735 0.20065838 1.15853025
v 0.29587586 0.20394848 1.14873408
v 0.26207854 0.18777204 1.18267643
v 0.24517005 0.17340516 1.20316897
v 0.24517005 0.18700435 1.18188215
v 0.27896735 0.21047390 1.13803771
v 0.28022712 0.21765735 1.11950443
v 0.16176921 0.24052373 0.99188953
v 0.16176921 -0.31117549 1.03737548
v 0.17753604 -0.31748156 1.03658121
v 0.19444454 -0.31808477 1.05347297
v 0.24517005 -0.31303990 1.10420122
v 0.26207854 -0.31117549 1.12109299
v 0.26207854 -0.30607579 1.13221297
v 0.26207854 -0.29927620 1.14063237
v 0.27896735 -0.30103094 1.14047350
v 0.29587586 -0.29203791 1.15259960
v 0.31278434 -0.27070693 1.18061130
v 0.31278434 -0.28984450 1.15069329
v 0.32313810 -0.28814461 1.14825750
v 0.34315669 -0.27279069 1.16811459
v 0.35443557 -0.27021343 1.16266051
v 0.36284058 -0.26176878 1.17107992
v 0.36284058 0.18344005 1.10462484
v 0.35845107 0.18848492 1.10075932
v 0.33636572 0.18459160 1.14306817
v 0.33908210 0.20350984 1.09689380
v 0.29587586 0.20855468 1.13803771
v 0.32969287 0.21211898 1.08730946
v 0.31717388 0.21820570 1.08730946
v 0.30556034 0.22017979 1.09689380
v 0.26207854 0.19331042 1.17182124
v 0.28751019 0.21979594 1.11272654
v 0.28672282 0.21979594 1.11272654
v 0.27896735 0.23750779 1.01566507
v 0.27896735 0.23849483 1.00279768
v 0.27892798 0.24052373 0.95122219
v 0.16176921 0.24052373 0.74544976
v 0.16176921 -0.31561715 1.02080145
v 0.16176921 -0.31819444 1.00390968
v 0.16176921 -0.31956531 0.98749447
v 0.19444454 -0.31857827 1.03658121
v 0.21135304 -0.31786541 1.05347297
v 0.26207854 -0.31512364 1.10420122
v 0.27896735 -0.30980461 1.12109299
v 0.27896735 -0.30574678 1.13205410
v 0.29461609 -0.30020841 1.13681981
v 0.28815974 -0.30459524 1.13035962
v 0.31278434 -0.29450552 1.13803771
v 0.32603164 -0.28968001 1.13803771
v 0.36284058 -0.27454542 1.13846133
v 0.36284058 -0.27152948 1.14921065
v 0.34792017 -0.27536797 1.15620033
v 0.36284058 -0.26944572 1.15471764
v 0.36284058 -0.26845869 1.15720644
v 0.35933686 -0.27224233 1.15138170
v 0.36284058 0.19029447 1.08926867
v 0.36284058 0.19139118 1.08667401
v 0.35036099 0.19978102 1.08730946
v 0.34191657 0.20520971 1.08730946
v 0.29424210 0.21551877 1.11950443
v 0.36284058 0.24052373 0.87449439
v 0.30870979 0.22111201 1.08730946
v 0.29587586 0.22944698 1.05347297
v 0.28829753 0.23706910 1.01402356
v 0.32959442 0.24052373 0.91680324
v 0.32882675 0.24052373 0.91754456
v 0.31191827 0.24052373 0.93321843
v 0.29506880 0.24052373 0.94402069
v 0.36284058 0.24052373 0.74544976
v 0.16176921 -0.25491435 0.74544976
v 0.16176921 -0.31956531 0.98590592
v 0.26207854 -0.31457529 1.08730946
v 0.27896735 -0.31260120 1.10420122
v 0.29119109 -0.30596612 1.12109299
v 0.31278434 -0.29768597 1.12109299
v 0.36284058 -0.28068699 1.10420122
v 0.36284058 -0.27789038 1.12109299
v 0.36284058 0.19512000 1.07126493
v 0.36284058 -0.22009385 0.74544976
v 0.21170734 -0.24965014 0.74544976
v 0.16176921 -0.27564214 0.81794139
v 0.16176921 -0.31764607 0.97012613
v 0.27896735 -0.31183351 1.08730946
v 0.30483205 -0.30454040 1.07714262
v 0.30483205 -0.30454040 1.08333807
v 0.29475387 -0.30728218 1.10420122
v 0.36284058 -0.28244173 1.08730946
v 0.36284058 -0.25853347 0.88370807
v 0.36036042 -0.22080670 0.74544976
v 0.22475781 -0.24745675 0.74544976
v 0.22046669 -0.28754143 0.89249816
v 0.16176921 -0.31314956 0.95206943
v 0.16176921 -0.28962516 0.86723992
v 0.17753604 -0.31051746 0.95206943
v 0.36284058 -0.26335899 0.90139414
v 0.36284058 -0.26642979 0.91759752
v 0.17753604 -0.31419142 0.96901415
v 0.27896735 -0.30925626 1.07041769
v 0.30166292 -0.30377270 1.06591677
v 0.36284058 -0.26653946 0.91823294
v 0.36284058 -0.28008380 1.01974240
v 0.36284058 -0.28222239 1.03658121
v 0.36284058 -0.28320941 1.05347297
v 0.30416278 -0.30426624 1.09461688
v 0.36284058 -0.28309974 1.07041769
f 1 2 3
f 1 3 4
f 1 4 5
f 1 5 6
f 1 6 7
f 1 7 8
f 1 8 9
f 1 9 10
f 1 10 11
f 1 11 2
f 2 11 12
f 2 12 13
f 2 13 3
f 3 13 33
f 3 33 14
f 3 14 15
f 3 15 16
f 3 16 17
f 3 17 18
f 3 18 19
f 3 19 20
f 3 20 21
f 3 21 4
f 4 21 5
f 5 21 22
f 5 22 23
f 5 23 6
f 6 24 7
f 6 23 24
f 7 24 25
f 7 25 26
f 7 26 8
f 8 26 9
f 9 27 10
f 9 26 28
f 9 28 29
f 9 29 27
f 10 27 11
f 11 27 30
f 11 30 31
f 11 31 32
f 11 32 12
f 12 33 13
f 12 32 34
f 12 34 33
f 14 33 35
f 14 35 36
f 14 36 15
f 15 36 37
f 15 37 38
f 15 38 16
f 16 38 18
f 16 18 17
f 18 38 39
f 18 39 19
f 19 39 40
f 19 40 21
f 19 21 20
f 21 40 41
f 21 41 22
f 22 41 42
f 22 42 23
f 23 43 24
f 23 42 43
f 24 44 25
f 24 43 45
f 24 45 46
f 24 46 47
f 24 47 44
f 25 44 48
f 25 48 49
f 25 49 50
f 25 50 26
f 26 50 51
f 26 51 28
f 27 29 52
f 27 52 53
f 27 53 30
f 28 51 29
f 29 51 54
f 29 54 55
f 29 55 56
f 29 56 52
f 30 53 31
f 31 57 58
f 31 58 32
f 31 53 52
f 31 52 59
f 31 59 60
f 31 60 61
f 31 61 57
f 32 58 34
f 33 34 62
f 33 62 35
f 34 58 57
f 34 57 63
f 34 63 64
f 34 64 65
f 34 65 104
f 34 104 158
f 34 158 156
f 34 156 160
f 34 160 225
f 34 225 268
f 34 268 298
f 34 298 331
f 34 331 342
f 34 342 354
f 34 354 353
f 34 353 343
f 34 343 332
f 34 332 301
f 34 301 300
f 34 300 299
f 34 299 269
f 34 269 227
f 34 227 226
f 34 226 168
f 34 168 167
f 34 167 166
f 34 166 165
f 34 165 163
f 34 163 108
f 34 108 162
f 34 162 161
f 34 161 105
f 34 105 69
f 34 69 68
f 34 68 67
f 34 67 100
f 34 100 62
f 35 62 66
f 35 66 36
f 36 66 67
f 36 67 68
f 36 68 69
f 36 69 70
f 36 70 71
f 36 71 37
f 37 71 70
f 37 70 38
f 38 70 72
f 38 72 73
f 38 73 74
f 38 74 39
f 39 74 75
f 39 75 40
f 40 75 76
f 40 76 41
f 41 76 75
f 41 75 77
f 41 77 42
f 42 77 78
f 42 78 45
f 42 45 79
f 42 79 43
f 43 79 45
f 44 80 81
f 44 81 82
f 44 82 48
f 44 47 83
f 44 83 80
f 45 78 84
f 45 84 46
f 46 84 47
f 47 84 85
f 47 85 86
f 47 86 83
f 48 82 87
f 48 87 49
f 49 87 88
f 49 88 50
f 50 88 89
f 50 89 51
f 51 90 54
f 51 89 90
f 52 56 59
f 54 90 91
f 54 91 92
f 54 92 93
f 54 93 94
f 54 94 95
f 54 95 55
f 55 95 96
f 55 96 56
f 56 96 59
f 57 61 63
f 59 96 97
f 59 97 60
f 60 63 98
f 60 98 61
f 60 97 99
f 60 99 64
f 60 64 63
f 61 98 63
f 62 100 66
f 64 99 101
f 64 101 102
f 64 102 65
f 65 102 103
f 65 103 104
f 66 100 67
f 69 105 106
f 69 106 70
f 70 106 107
f 70 107 108
f 70 108 109
f 70 109 110
f 70 110 72
f 72 111 73
f 72 110 111
f 73 112 113
f 73 113 114
f 73 114 74
f 73 111 115
f 73 115 112
f 74 114 116
f 74 116 75
f 75 117 118
f 75 118 77
f 75 116 119
f 75 119 120
f 75 120 117
f 77 121 78
f 77 118 122
f 77 122 123
f 77 123 121
f 78 121 84
f 80 83 124
f 80 124 125
f 80 125 81
f 81 126 127
f 81 127 82
f 81 125 126
f 82 127 128
f 82 128 129
f 82 129 130
f 82 130 87
f 83 86 131
f 83 131 124
f 84 121 132
f 84 132 85
f 85 133 131
f 85 131 86
f 85 132 134
f 85 134 135
f 85 135 136
f 85 136 137
f 85 137 133
f 87 130 138
f 87 138 139
f 87 139 88
f 88 139 140
f 88 140 89
f 89 140 141
f 89 141 90
f 90 141 142
f 90 142 91
f 91 142 143
f 91 143 92
f 92 144 145
f 92 145 146
f 92 146 93
f 92 143 147
f 92 147 144
f 93 148 149
f 93 149 94
f 93 146 150
f 93 150 148
f 94 149 95
f 95 149 97
f 95 97 96
f 97 149 151
f 97 151 99
f 99 151 152
f 99 152 153
f 99 153 154
f 99 154 101
f 101 154 155
f 101 155 102
f 102 155 103
f 103 156 157
f 103 157 158
f 103 158 104
f 103 155 159
f 103 159 160
f 103 160 156
f 105 161 106
f 106 161 162
f 106 162 108
f 106 108 107
f 108 163 164
f 108 164 109
f 109 164 110
f 110 164 163
f 110 163 165
f 110 165 166
f 110 166 167
f 110 167 168
f 110 168 169
f 110 169 170
f 110 170 171
f 110 171 172
f 110 172 173
f 110 173 174
f 110 174 111
f 111 175 115
f 111 174 176
f 111 176 175
f 112 116 113
f 112 115 175
f 112 175 177
f 112 177 116
f 113 116 114
f 116 177 178
f 116 178 119
f 117 120 179
f 117 179 122
f 117 122 118
f 119 180 179
f 119 179 120
f 119 178 177
f 119 177 181
f 119 181 182
f 119 182 180
f 121 123 183
f 121 183 132
f 122 179 184
f 122 184 185
f 122 185 186
f 122 186 183
f 122 183 123
f 124 131 187
f 124 187 133
f 124 133 137
f 124 137 136
f 124 136 192
f 124 192 191
f 124 191 196
f 124 196 251
f 124 251 250
f 124 250 249
f 124 249 283
f 124 283 315
f 124 315 314
f 124 314 312
f 124 312 311
f 124 311 338
f 124 338 337
f 124 337 348
f 124 348 366
f 124 366 364
f 124 364 363
f 124 363 362
f 124 362 361
f 124 361 357
f 124 357 356
f 124 356 349
f 124 349 340
f 124 340 330
f 124 330 322
f 124 322 339
f 124 339 318
f 124 318 317
f 124 317 284
f 124 284 256
f 124 256 255
f 124 255 254
f 124 254 213
f 124 213 253
f 124 253 206
f 124 206 205
f 124 205 204
f 124 204 203
f 124 203 202
f 124 202 201
f 124 201 199
f 124 199 198
f 124 198 252
f 124 252 244
f 124 244 188
f 124 188 125
f 125 188 189
f 125 189 126
f 126 189 127
f 127 189 188
f 127 188 128
f 128 190 138
f 128 138 129
f 128 188 190
f 129 138 130
f 131 133 187
f 132 183 134
f 134 183 135
f 135 191 192
f 135 192 136
f 135 183 193
f 135 193 194
f 135 194 195
f 135 195 196
f 135 196 191
f 138 197 198
f 138 198 199
f 138 199 200
f 138 200 140
f 138 140 139
f 138 190 197
f 140 200 201
f 140 201 202
f 140 202 141
f 141 202 142
f 142 203 204
f 142 204 205
f 142 205 206
f 142 206 207
f 142 207 143
f 142 202 203
f 143 207 147
f 144 147 208
f 144 208 150
f 144 150 145
f 145 150 146
f 147 209 210
f 147 210 211
f 147 211 208
f 147 207 212
f 147 212 213
f 147 213 209
f 148 150 214
f 148 214 152
f 148 152 149
f 149 152 151
f 150 208 211
f 150 211 215
f 150 215 216
f 150 216 217
f 150 217 218
f 150 218 219
f 150 219 152
f 150 152 214
f 152 219 153
f 153 219 220
f 153 220 221
f 153 221 155
f 153 155 154
f 155 221 222
f 155 222 159
f 156 158 157
f 159 222 223
f 159 223 224
f 159 224 225
f 159 225 160
f 168 226 169
f 169 226 227
f 169 227 228
f 169 228 170
f 170 228 229
f 170 229 230
f 170 230 171
f 171 230 172
f 172 230 229
f 172 229 231
f 172 231 232
f 172 232 233
f 172 233 234
f 172 234 173
f 173 234 174
f 174 234 233
f 174 233 235
f 174 235 176
f 175 236 181
f 175 181 177
f 175 176 236
f 176 235 182
f 176 182 236
f 179 180 184
f 180 182 184
f 181 236 182
f 182 235 237
f 182 237 184
f 183 186 238
f 183 238 193
f 184 237 239
f 184 239 240
f 184 240 241
f 184 241 242
f 184 242 185
f 185 238 186
f 185 242 243
f 185 243 238
f 188 244 190
f 190 244 252
f 190 252 245
f 190 245 197
f 193 238 194
f 194 238 246
f 194 246 195
f 195 246 247
f 195 247 248
f 195 248 249
f 195 249 250
f 195 250 251
f 195 251 196
f 197 245 198
f 198 245 252
f 199 201 200
f 206 253 212
f 206 212 207
f 209 213 254
f 209 254 255
f 209 255 210
f 210 255 256
f 210 256 257
f 210 257 258
f 210 258 211
f 211 258 259
f 211 259 260
f 211 260 216
f 211 216 215
f 212 253 213
f 216 261 217
f 216 260 262
f 216 262 261
f 217 261 263
f 217 263 218
f 218 263 264
f 218 264 219
f 219 264 220
f 220 264 263
f 220 263 265
f 220 265 221
f 221 265 222
f 222 265 223
f 223 265 266
f 223 266 267
f 223 267 224
f 224 267 268
f 224 268 225
f 227 269 228
f 228 269 270
f 228 270 271
f 228 271 229
f 229 232 231
f 229 271 232
f 232 271 272
f 232 272 273
f 232 273 233
f 233 273 274
f 233 274 275
f 233 275 235
f 235 275 239
f 235 239 237
f 238 243 247
f 238 247 246
f 239 275 274
f 239 274 276
f 239 276 277
f 239 277 242
f 239 242 278
f 239 278 240
f 240 278 241
f 241 278 242
f 242 247 243
f 242 277 247
f 247 277 279
f 247 279 280
f 247 280 281
f 247 281 248
f 248 281 282
f 248 282 249
f 249 282 283
f 256 284 285
f 256 285 286
f 256 286 257
f 257 286 287
f 257 287 260
f 257 260 259
f 257 259 258
f 260 288 262
f 260 287 289
f 260 289 290
f 260 290 291
f 260 291 288
f 261 292 263
f 261 262 266
f 261 266 292
f 262 288 266
f 263 292 265
f 265 292 266
f 266 288 293
f 266 293 267
f 267 293 294
f 267 294 268
f 268 294 295
f 268 295 296
f 268 296 297
f 268 297 329
f 268 329 328
f 268 328 327
f 268 327 326
f 268 326 322
f 268 322 330
f 268 330 298
f 269 299 270
f 270 299 300
f 270 300 301
f 270 301 271
f 271 301 302
f 271 302 303
f 271 303 304
f 271 304 272
f 272 304 273
f 273 305 306
f 273 306 274
f 273 304 305
f 274 306 276
f 276 306 277
f 277 306 279
f 279 306 307
f 279 307 308
f 279 308 280
f 280 308 309
f 280 309 310
f 280 310 311
f 280 311 312
f 280 312 313
f 280 313 281
f 281 313 282
f 282 312 314
f 282 314 315
f 282 315 283
f 282 313 316
f 282 316 312
f 284 317 285
f 285 317 318
f 285 318 319
f 285 319 287
f 285 287 286
f 287 319 320
f 287 320 289
f 288 291 321
f 288 321 293
f 289 322 290
f 289 320 322
f 290 322 323
f 290 323 291
f 291 323 324
f 291 324 293
f 291 293 321
f 293 324 325
f 293 325 295
f 293 295 294
f 295 325 296
f 296 325 326
f 296 326 327
f 296 327 328
f 296 328 329
f 296 329 297
f 298 330 340
f 298 340 350
f 298 350 351
f 298 351 341
f 298 341 331
f 301 332 302
f 302 332 303
f 303 332 333
f 303 333 304
f 304 333 334
f 304 334 305
f 305 334 335
f 305 335 308
f 305 308 306
f 306 308 307
f 308 335 309
f 309 335 310
f 310 335 336
f 310 336 337
f 310 337 338
f 310 338 311
f 312 316 313
f 318 339 319
f 319 339 322
f 319 322 320
f 322 326 325
f 322 325 324
f 322 324 323
f 331 341 342
f 332 343 344
f 332 344 333
f 333 344 334
f 334 344 345
f 334 345 346
f 334 346 347
f 334 347 335
f 335 347 336
f 336 347 337
f 337 347 348
f 340 349 350
f 341 351 352
f 341 352 353
f 341 353 354
f 341 354 342
f 343 353 355
f 343 355 356
f 343 356 357
f 343 357 358
f 343 358 359
f 343 359 344
f 344 359 360
f 344 360 345
f 345 360 361
f 345 361 362
f 345 362 363
f 345 363 364
f 345 364 346
f 346 365 347
f 346 364 366
f 346 366 348
f 346 348 365
f 347 365 348
f 349 351 350
f 349 356 351
f 351 356 352
f 352 356 355
f 352 355 353
f 357 361 358
f 358 360 359
f 358 361 360

