# https://github.com/mikedh/trimesh
v -0.20095246 0.33128093 0.34172549
v -0.32701088 0.33128093 0.34172549
v -0.20095246 0.21812195 0.34172549
v -0.20095246 0.33128093 0.25553469
v -0.38279556 0.32231993 0.34172549
v -0.27925391 0.33128093 0.27825023
v -0.31278881 0.33030619 0.25884278
v -0.38279556 0.21812195 0.34172549
v -0.20095246 0.21812195 0.17307300
v -0.31278881 0.32452418 0.24442752
v -0.21332334 0.33128093 0.25639679
v -0.20095246 0.23683042 0.18243588
v -0.23416694 0.22277414 0.14684884
v -0.24660902 0.22834570 0.14438282
v -0.25321277 0.23685255 0.14877354
v -0.31278881 0.30541698 0.21537646
v -0.32343313 0.30563852 0.21509579
v -0.31278881 0.31242849 0.22504008
v -0.31278881 0.31980553 0.23598686
v -0.33078443 0.32597523 0.25830146
v -0.33715680 0.32012676 0.25232684
v -0.38279556 0.24100630 0.21194806
v -0.27507095 0.33128093 0.27560376
v -0.24493584 0.33128093 0.26355431
v -0.22708261 0.33128093 0.25806085
v -0.22670881 0.33128093 0.25796060
v -0.32588950 0.32388173 0.24549012
v -0.38279556 0.21812195 0.19209953
v -0.23373975 0.21812195 0.14646790
v -0.20095246 0.21842104 0.17315317
v -0.20095246 0.22842323 0.17620063
v -0.20095246 0.22230894 0.17433609
v -0.24573682 0.21812195 0.14073392
v -0.26207708 0.21812195 0.13690452
v -0.26207708 0.22825708 0.14121508
v -0.31278881 0.25541700 0.16437172
v -0.33847399 0.30489637 0.23263868
v -0.32930707 0.30857381 0.22622298
v -0.33078443 0.31726900 0.24067835
v -0.32544449 0.25516227 0.16455216
v -0.33671179 0.25292477 0.16667736
v -0.34157114 0.25742190 0.17794488
v -0.35823179 0.24009802 0.17864660
v -0.38279556 0.23601073 0.20635440
v -0.38279556 0.22538823 0.19588882
v -0.35721720 0.22377103 0.16340935
v -0.35812498 0.21812195 0.16242697
v -0.32969865 0.21812195 0.15039752
v -0.32969865 0.22825708 0.15338481
v -0.33051744 0.24644493 0.16116388
v -0.34249675 0.24165982 0.16274774
v -0.35376402 0.23503599 0.16737907
v -0.34765868 0.24651139 0.17267201
v -0.38279556 0.22728235 0.19717191
v -0.34751629 0.22894384 0.15945968
v -0.34637711 0.21812195 0.15512912
v -0.35203744 0.21812195 0.15845724
f 1 2 5
f 1 5 8
f 1 8 3
f 1 3 9
f 1 9 30
f 1 30 32
f 1 32 31
f 1 31 12
f 1 12 4
f 1 4 11
f 1 11 26
f 1 26 25
f 1 25 24
f 1 24 23
f 1 23 6
f 1 6 2
f 2 6 7
f 2 7 5
f 3 8 28
f 3 28 47
f 3 47 57
f 3 57 56
f 3 56 48
f 3 48 34
f 3 34 33
f 3 33 29
f 3 29 9
f 4 10 7
f 4 7 11
f 4 12 13
f 4 13 14
f 4 14 15
f 4 15 16
f 4 16 17
f 4 17 18
f 4 18 19
f 4 19 10
f 5 7 20
f 5 20 21
f 5 21 22
f 5 22 44
f 5 44 54
f 5 54 45
f 5 45 28
f 5 28 8
f 6 23 7
f 7 23 24
f 7 24 25
f 7 25 26
f 7 26 11
f 7 10 27
f 7 27 20
f 9 29 13
f 9 13 30
f 10 19 27
f 12 31 13
f 13 31 32
f 13 32 30
f 13 29 33
f 13 33 14
f 14 33 34
f 14 34 35
f 14 35 15
f 15 35 36
f 15 36 16
f 16 36 17
f 17 37 38
f 17 38 39
f 17 39 27
f 17 27 19
f 17 19 18
f 17 36 40
f 17 40 41
f 17 41 42
f 17 42 37
f 20 27 21
f 21 27 39
f 21 39 38
f 21 38 37
f 21 37 22
f 22 37 42
f 22 42 43
f 22 43 44
f 28 45 46
f 28 46 47
f 34 48 49
f 34 49 50
f 34 50 35
f 35 50 40
f 35 40 36
f 40 50 41
f 41 50 51
f 41 51 52
f 41 52 53
f 41 53 42
f 42 53 43
f 43 53 52
f 43 52 44
f 44 52 54
f 45 54 46
f 46 51 55
f 46 55 56
f 46 56 57
f 46 57 47
f 46 54 52
f 46 52 51
f 48 56 49
f 49 56 55
f 49 55 51
f 49 51 50

