# https://github.com/mikedh/trimesh
v -0.52023603 -0.05480445 0.76905660
v -0.52201905 -0.05480445 0.76905660
v -0.52023603 -0.05655233 0.76905660
v -0.52023603 -0.05480445 0.23763986
v -0.62612845 -0.05480445 0.62996025
v -0.62612845 -0.12858391 0.64972713
v -0.62350573 -0.12858391 0.65232803
v -0.62259349 -0.12858391 0.65321234
v -0.61537852 -0.12858391 0.65966258
v -0.57825660 -0.12858391 0.69118554
v -0.57736507 -0.12858391 0.69191380
v -0.56640783 -0.12858391 0.69524294
v -0.52023603 -0.12858391 0.70673894
v -0.52023603 -0.05927527 0.23816002
v -0.62612845 -0.05480445 0.26276459
v -0.62612845 -0.12858391 0.29694047
v -0.52023603 -0.12858391 0.26598969
v -0.52023603 -0.07533125 0.24164523
v -0.60018143 -0.12858391 0.27660138
v -0.62612845 -0.06719853 0.26676999
v -0.62612845 -0.12062453 0.29033418
v -0.62114220 -0.12858391 0.28976196
v -0.52754432 -0.12858391 0.26682199
v -0.58330498 -0.12858391 0.27337628
v -0.59843991 -0.12858391 0.27618525
v -0.61278693 -0.12858391 0.28180321
v -0.62612845 -0.06818080 0.26713410
v -0.62612845 -0.11550367 0.28658886
v -0.62441797 -0.11676764 0.28528843
v -0.62173309 -0.12680713 0.28918977
v -0.61982569 -0.12858391 0.28814940
v -0.62612845 -0.11164677 0.28419602
v -0.62612845 -0.10175172 0.28024265
f 1 2 3
f 1 3 13
f 1 13 17
f 1 17 18
f 1 18 14
f 1 14 4
f 1 4 15
f 1 15 5
f 1 5 2
f 2 5 6
f 2 6 7
f 2 7 8
f 2 8 9
f 2 9 10
f 2 10 11
f 2 11 3
f 3 12 13
f 3 11 12
f 4 14 15
f 5 15 20
f 5 20 27
f 5 27 33
f 5 33 32
f 5 32 28
f 5 28 21
f 5 21 16
f 5 16 6
f 6 16 22
f 6 22 31
f 6 31 26
f 6 26 19
f 6 19 25
f 6 25 24
f 6 24 23
f 6 23 17
f 6 17 13
f 6 13 12
f 6 12 11
f 6 11 10
f 6 10 9
f 6 9 8
f 6 8 7
f 14 18 15
f 15 18 19
f 15 19 20
f 16 21 22
f 17 23 18
f 18 23 24
f 18 24 25
f 18 25 19
f 19 26 20
f 20 26 27
f 21 28 29
f 21 29 30
f 21 30 22
f 22 30 31
f 26 31 29
f 26 29 32
f 26 32 33
f 26 33 27
f 28 32 29
f 29 31 30

