# https://github.com/mikedh/trimesh
v 0.36284064 0.41975320 0.44492088
v 0.39018261 0.47414391 0.31987943
v 0.36284064 0.43558075 0.41035686
v 0.36284064 0.12608898 0.44492088
v 0.44421602 0.40741755 0.44492088
v 0.37119416 0.50712750 0.25005204
v 0.36284064 0.50549541 0.25520535
v 0.45145053 0.40532997 0.44492088
v 0.36284064 0.12608898 0.13112095
v 0.45145053 0.12608898 0.44492088
v 0.39078982 0.49145177 0.26978187
v 0.38032840 0.50485013 0.24342635
v 0.37462058 0.50822820 0.23875156
v 0.36351723 0.51376976 0.22505847
v 0.36474035 0.50967052 0.24342635
v 0.36284064 0.50887347 0.24651833
v 0.45145053 0.42893850 0.36029611
v 0.40749690 0.49148972 0.23646938
v 0.39812845 0.49547506 0.24206439
v 0.39342688 0.49342545 0.25884948
v 0.36284064 0.19444741 0.09526862
v 0.45145053 0.12608898 0.15887522
v 0.39733039 0.49965022 0.22505847
v 0.38487381 0.50557131 0.22505847
v 0.37642488 0.50902529 0.22505847
v 0.36284064 0.51236541 0.20676422
v 0.36284064 0.51384568 0.22505847
v 0.37525382 0.50860777 0.21114451
v 0.36514803 0.51183401 0.20658015
v 0.36284064 0.50970851 0.24331592
v 0.45145053 0.42988742 0.35687285
v 0.45145053 0.43360708 0.34336381
v 0.43049295 0.47854676 0.22505847
v 0.40964817 0.49285610 0.22505847
v 0.36284064 0.26033872 0.07123208
v 0.40818218 0.27901298 0.09655696
v 0.41941564 0.29590334 0.10060594
v 0.42982505 0.29590334 0.10907216
v 0.43828265 0.29590334 0.11669164
v 0.45145053 0.29590334 0.13623743
v 0.41088861 0.49323569 0.20816296
v 0.39733039 0.49938452 0.20816296
v 0.36284064 0.51084721 0.20120599
v 0.37187077 0.50716545 0.19988086
v 0.40915373 0.49205905 0.19583183
v 0.45145053 0.44286827 0.22505847
v 0.44975032 0.44803029 0.22505847
v 0.44369555 0.46419948 0.22505847
v 0.43895059 0.47266363 0.22505847
v 0.41934625 0.48811165 0.20816296
v 0.36284064 0.26140149 0.07104801
v 0.41096668 0.29590334 0.09534223
v 0.42076886 0.31279369 0.09950167
v 0.42970361 0.31279369 0.10796784
v 0.43816121 0.31279369 0.11717018
v 0.45145053 0.31279369 0.13667913
v 0.45145053 0.29753542 0.13627426
v 0.36284064 0.50932895 0.19671524
v 0.39794628 0.49448819 0.19060490
v 0.42709256 0.47759789 0.19410178
v 0.41589379 0.48340510 0.18935340
v 0.40399241 0.48921234 0.18456818
v 0.45145053 0.42715460 0.19535328
v 0.43835203 0.46962715 0.20816296
v 0.42990310 0.47964750 0.20816296
v 0.36284064 0.27851957 0.06891309
v 0.37788217 0.27901298 0.07756328
v 0.41231991 0.31279369 0.09504776
v 0.41087127 0.32968401 0.09552625
v 0.41932023 0.32968401 0.10093725
v 0.42723134 0.32968401 0.10940341
v 0.42268592 0.37192885 0.11514566
v 0.43630489 0.38039300 0.13667913
v 0.44234232 0.38039300 0.14514530
v 0.44965492 0.38039300 0.15743964
v 0.45145053 0.37777404 0.15994270
v 0.39271556 0.49202106 0.18051914
v 0.38042381 0.49353932 0.17827377
v 0.36284064 0.50712750 0.19332877
v 0.43227994 0.46556588 0.19089937
v 0.44077225 0.42468746 0.16413898
v 0.42262521 0.47334681 0.18283813
v 0.41135704 0.47793949 0.17882588
v 0.39739110 0.48192483 0.17404066
v 0.45145053 0.41975320 0.18581969
v 0.36284064 0.31286960 0.07347746
v 0.37485480 0.32968401 0.08010317
v 0.39733039 0.32968401 0.08934230
v 0.40800002 0.34657437 0.09692505
v 0.40638656 0.35591150 0.09791891
v 0.42056067 0.38039300 0.11683887
v 0.42527091 0.39732130 0.12920684
v 0.42784723 0.38039300 0.12530509
v 0.44091103 0.39208341 0.14702258
v 0.44472782 0.39754904 0.15655623
v 0.45145053 0.39857385 0.16962354
v 0.45145053 0.38039300 0.16112059
v 0.38042381 0.48564452 0.16980761
v 0.38799666 0.43895887 0.13251970
v 0.37671981 0.44233693 0.13016387
v 0.36284064 0.49517142 0.17694860
v 0.36284064 0.49555099 0.17742714
v 0.36284064 0.47843289 0.15755010
v 0.36284064 0.48287375 0.16262978
v 0.42488927 0.42537068 0.14672811
v 0.45145053 0.41481892 0.18040869
v 0.45145053 0.41159269 0.17694860
v 0.44269795 0.41421164 0.16137823
v 0.43432707 0.39754904 0.14102264
v 0.42305895 0.40635478 0.13167311
v 0.41762001 0.41762767 0.13546446
v 0.40635185 0.42309332 0.13174668
v 0.36284064 0.32968401 0.07583323
v 0.37270353 0.33936276 0.08106020
v 0.39733039 0.34657437 0.09243430
v 0.36872193 0.35063562 0.08234849
v 0.38042381 0.36350266 0.09066742
v 0.38984431 0.37280183 0.09784524
v 0.40112116 0.36718437 0.10016423
v 0.40858120 0.39200749 0.11345245
v 0.41210306 0.38039300 0.11109662
v 0.45145053 0.40252125 0.17164806
v 0.36284064 0.45414119 0.13483869
v 0.36284064 0.46431332 0.14393058
v 0.36284064 0.47160084 0.15048267
v 0.40234425 0.40328036 0.11676531
v 0.39107608 0.40730370 0.11429908
v 0.38042381 0.41003651 0.11282667
v 0.36284064 0.43007719 0.11937877
v 0.36284064 0.44533540 0.12813935
v 0.41288376 0.41288320 0.12924367
v 0.36284064 0.34566341 0.07933016
v 0.36284064 0.35412756 0.08142829
v 0.36284064 0.36278151 0.08404176
v 0.36325700 0.36319903 0.08433623
v 0.38042381 0.37663539 0.09585756
v 0.39622008 0.37921636 0.10307217
v 0.39695739 0.39751108 0.11157517
v 0.37147175 0.38859147 0.09839740
v 0.36284064 0.39887749 0.10171026
v 0.36284064 0.36338878 0.08426261
v 0.36490516 0.38194920 0.09306003
v 0.36284064 0.38358129 0.09324410
v 0.36284064 0.38164555 0.09228707
f 1 2 3
f 1 3 7
f 1 7 16
f 1 16 30
f 1 30 27
f 1 27 26
f 1 26 43
f 1 43 58
f 1 58 79
f 1 79 102
f 1 102 101
f 1 101 104
f 1 104 103
f 1 103 125
f 1 125 124
f 1 124 123
f 1 123 130
f 1 130 129
f 1 129 140
f 1 140 143
f 1 143 144
f 1 144 141
f 1 141 134
f 1 134 133
f 1 133 132
f 1 132 113
f 1 113 86
f 1 86 66
f 1 66 51
f 1 51 35
f 1 35 21
f 1 21 9
f 1 9 4
f 1 4 10
f 1 10 8
f 1 8 5
f 1 5 2
f 2 6 7
f 2 7 3
f 2 5 8
f 2 8 6
f 4 9 22
f 4 22 10
f 6 11 12
f 6 12 13
f 6 13 14
f 6 14 15
f 6 15 16
f 6 16 7
f 6 8 11
f 8 10 22
f 8 22 40
f 8 40 57
f 8 57 56
f 8 56 76
f 8 76 97
f 8 97 96
f 8 96 122
f 8 122 107
f 8 107 106
f 8 106 85
f 8 85 63
f 8 63 46
f 8 46 32
f 8 32 31
f 8 31 17
f 8 17 18
f 8 18 19
f 8 19 20
f 8 20 11
f 9 21 22
f 11 20 12
f 12 20 19
f 12 19 23
f 12 23 24
f 12 24 13
f 13 24 25
f 13 25 14
f 14 26 27
f 14 27 15
f 14 25 28
f 14 28 29
f 14 29 26
f 15 27 30
f 15 30 16
f 17 31 18
f 18 31 32
f 18 32 33
f 18 33 34
f 18 34 19
f 19 34 23
f 21 35 22
f 22 35 36
f 22 36 37
f 22 37 38
f 22 38 39
f 22 39 40
f 23 34 41
f 23 41 24
f 24 28 25
f 24 41 42
f 24 42 28
f 26 29 43
f 28 42 29
f 29 44 43
f 29 42 45
f 29 45 44
f 32 46 47
f 32 47 48
f 32 48 49
f 32 49 33
f 33 50 34
f 33 49 50
f 34 50 41
f 35 51 37
f 35 37 36
f 37 51 52
f 37 52 53
f 37 53 38
f 38 53 39
f 39 53 54
f 39 54 55
f 39 55 56
f 39 56 57
f 39 57 40
f 41 50 45
f 41 45 42
f 43 44 58
f 44 45 59
f 44 59 58
f 45 50 60
f 45 60 61
f 45 61 62
f 45 62 59
f 46 63 47
f 47 64 48
f 47 63 64
f 48 64 49
f 49 64 65
f 49 65 50
f 50 65 60
f 51 66 67
f 51 67 52
f 52 67 53
f 53 67 66
f 53 66 68
f 53 68 69
f 53 69 70
f 53 70 54
f 54 70 71
f 54 71 55
f 55 71 72
f 55 72 73
f 55 73 74
f 55 74 56
f 56 74 75
f 56 75 76
f 58 59 77
f 58 77 78
f 58 78 79
f 59 62 77
f 60 65 64
f 60 64 80
f 60 80 81
f 60 81 82
f 60 82 61
f 61 82 62
f 62 82 83
f 62 83 84
f 62 84 77
f 63 85 64
f 64 85 81
f 64 81 80
f 66 86 87
f 66 87 88
f 66 88 69
f 66 69 68
f 69 88 89
f 69 89 70
f 70 89 90
f 70 90 72
f 70 72 71
f 72 90 91
f 72 91 92
f 72 92 93
f 72 93 94
f 72 94 73
f 73 94 74
f 74 94 75
f 75 94 95
f 75 95 96
f 75 96 97
f 75 97 76
f 77 98 78
f 77 84 99
f 77 99 100
f 77 100 98
f 78 101 102
f 78 102 79
f 78 98 103
f 78 103 104
f 78 104 101
f 81 105 82
f 81 85 106
f 81 106 107
f 81 107 108
f 81 108 94
f 81 94 109
f 81 109 92
f 81 92 110
f 81 110 105
f 82 105 111
f 82 111 112
f 82 112 83
f 83 112 99
f 83 99 84
f 86 113 87
f 87 113 114
f 87 114 115
f 87 115 88
f 88 115 90
f 88 90 89
f 90 115 114
f 90 114 116
f 90 116 117
f 90 117 118
f 90 118 119
f 90 119 120
f 90 120 121
f 90 121 91
f 91 121 120
f 91 120 110
f 91 110 92
f 92 109 94
f 92 94 93
f 94 108 95
f 95 122 96
f 95 108 122
f 98 100 123
f 98 123 124
f 98 124 125
f 98 125 103
f 99 112 126
f 99 126 127
f 99 127 100
f 100 128 129
f 100 129 130
f 100 130 123
f 100 127 128
f 105 110 111
f 107 122 108
f 110 120 131
f 110 131 111
f 111 131 112
f 112 131 126
f 113 132 114
f 114 132 116
f 116 133 134
f 116 134 117
f 116 132 133
f 117 134 135
f 117 135 136
f 117 136 118
f 118 136 137
f 118 137 119
f 119 137 120
f 120 138 126
f 120 126 131
f 120 137 136
f 120 136 138
f 126 138 127
f 127 138 139
f 127 139 128
f 128 139 140
f 128 140 129
f 134 141 135
f 135 141 136
f 136 141 142
f 136 142 139
f 136 139 138
f 139 142 143
f 139 143 140
f 141 144 142
f 142 144 143

