# https://github.com/mikedh/trimesh
v -0.38278323 -0.06946878 0.98680878
v -0.37423987 -0.07849938 0.98680878
v -0.38278323 -0.04308154 1.03702181
v -0.38278323 0.52571723 0.98680878
v -0.37017809 -0.08266243 0.98680878
v -0.38278323 -0.03430716 1.05351086
v -0.38278323 0.52514083 0.99190117
v -0.33062193 0.51963278 0.98680878
v -0.36595582 -0.08688951 0.98680878
v -0.30848579 -0.12858390 1.01731649
v -0.38278323 -0.02777438 1.06565334
v -0.38278323 0.52347557 1.00233065
v -0.34659748 0.51732709 1.00279677
v -0.32800462 0.51303599 1.00448646
v -0.32960958 0.51937660 0.98680878
v -0.38278323 0.52277109 1.00629269
v -0.32321440 -0.12858390 0.98680878
v -0.31495501 -0.12858390 1.00398539
v -0.30562154 -0.12858390 1.02035793
v -0.30672033 -0.12083426 1.03149824
v -0.37101762 -0.03302623 1.07745791
v -0.38278323 -0.02559681 1.06967365
v -0.33251085 0.51008981 1.01470620
v -0.26197890 0.49638382 0.98680878
v -0.27779395 0.50182782 0.98680878
v -0.38278323 0.51316407 1.02112703
v -0.34659748 0.51143478 1.01694358
v -0.25667017 -0.12858390 0.98680878
v -0.29594239 -0.12858390 1.02978525
v -0.29341149 -0.12858390 1.03187115
v -0.29927578 -0.11628692 1.04276675
v -0.35974584 -0.03731735 1.08309797
v -0.38278323 0.00514561 1.10585639
v -0.38278323 0.00412086 1.10474935
v -0.38278323 -0.00939298 1.08947219
v -0.38278323 -0.02354733 1.07314624
v -0.38278323 -0.02495635 1.07082730
v -0.26721355 0.49234890 0.99662065
v -0.34659748 0.50413345 1.02539204
v -0.26792960 0.40703868 1.09725644
v -0.25667017 0.49350173 0.98680878
v -0.38278323 0.50714368 1.02810721
v -0.37394360 0.50720772 1.02820043
v -0.37180773 0.50720772 1.02820043
v -0.25667017 -0.12858390 1.01518396
v -0.29146084 -0.12858390 1.03309471
v -0.28800400 -0.11852857 1.04523721
v -0.29454731 -0.11033059 1.04954882
v -0.35856062 -0.02072926 1.09768762
v -0.38165975 0.00476133 1.10585639
v -0.38278323 0.41965590 1.10585639
v -0.26565798 0.47627318 1.01443818
v -0.26079371 0.48254975 1.00363579
v -0.25667017 0.48344641 0.99953393
v -0.25667017 0.48786560 0.99413855
v -0.25667017 0.48978703 0.99169140
v -0.27759644 0.40127449 1.10585639
v -0.26370734 0.39563835 1.10585639
v -0.25667017 0.40358016 1.09341093
v -0.38232641 0.41959186 1.10585639
v -0.38041282 0.41927158 1.10585639
v -0.27897917 0.40159470 1.10585639
v -0.26839875 -0.07062164 1.06440647
v -0.26276904 -0.12858390 1.01999669
v -0.25667017 -0.05281665 1.06321785
v -0.28363355 -0.12858390 1.03224405
v -0.28721386 -0.11852857 1.04523721
v -0.29191764 -0.08797829 1.06381218
v -0.34659748 -0.02130567 1.09808383
v -0.36328909 0.00091854 1.10585639
v -0.25667017 0.47620913 1.00814554
v -0.26250976 0.39480577 1.10585639
v -0.25667017 0.39038655 1.10585639
v -0.27892979 -0.07619369 1.06766934
v -0.28452247 -0.08797829 1.06381218
v -0.26476908 -0.05915727 1.06688857
v -0.25667017 0.05087496 1.10585639
v -0.27897917 -0.05915727 1.07447469
v -0.27864582 -0.12858390 1.02987847
v -0.34659748 -0.00843229 1.10162636
f 1 2 3
f 1 3 6
f 1 6 11
f 1 11 22
f 1 22 37
f 1 37 36
f 1 36 35
f 1 35 34
f 1 34 33
f 1 33 51
f 1 51 42
f 1 42 26
f 1 26 16
f 1 16 12
f 1 12 7
f 1 7 4
f 1 4 8
f 1 8 15
f 1 15 25
f 1 25 24
f 1 24 41
f 1 41 28
f 1 28 17
f 1 17 9
f 1 9 5
f 1 5 2
f 2 5 3
f 3 5 6
f 4 7 8
f 5 9 10
f 5 10 6
f 6 10 11
f 7 12 8
f 8 13 14
f 8 14 15
f 8 12 16
f 8 16 13
f 9 17 18
f 9 18 10
f 10 18 17
f 10 17 28
f 10 28 45
f 10 45 64
f 10 64 79
f 10 79 66
f 10 66 46
f 10 46 30
f 10 30 29
f 10 29 19
f 10 19 20
f 10 20 21
f 10 21 22
f 10 22 11
f 13 16 23
f 13 23 14
f 14 23 24
f 14 24 25
f 14 25 15
f 16 26 27
f 16 27 23
f 19 29 20
f 20 29 30
f 20 30 31
f 20 31 32
f 20 32 21
f 21 32 33
f 21 33 34
f 21 34 35
f 21 35 36
f 21 36 37
f 21 37 22
f 23 38 24
f 23 27 39
f 23 39 40
f 23 40 38
f 24 38 41
f 26 42 43
f 26 43 44
f 26 44 27
f 27 44 39
f 28 41 56
f 28 56 55
f 28 55 54
f 28 54 71
f 28 71 59
f 28 59 73
f 28 73 77
f 28 77 65
f 28 65 45
f 30 46 31
f 31 46 47
f 31 47 48
f 31 48 49
f 31 49 32
f 32 49 33
f 33 49 50
f 33 50 70
f 33 70 77
f 33 77 73
f 33 73 72
f 33 72 58
f 33 58 57
f 33 57 62
f 33 62 61
f 33 61 60
f 33 60 51
f 38 40 52
f 38 52 53
f 38 53 54
f 38 54 55
f 38 55 56
f 38 56 41
f 39 44 57
f 39 57 40
f 40 57 58
f 40 58 59
f 40 59 52
f 42 51 43
f 43 51 44
f 44 51 60
f 44 60 61
f 44 61 62
f 44 62 57
f 45 63 64
f 45 65 63
f 46 66 67
f 46 67 47
f 47 67 75
f 47 75 68
f 47 68 49
f 47 49 48
f 49 69 70
f 49 70 50
f 49 68 69
f 52 59 53
f 53 59 71
f 53 71 54
f 58 72 59
f 59 72 73
f 63 74 75
f 63 75 67
f 63 67 64
f 63 65 76
f 63 76 77
f 63 77 78
f 63 78 74
f 64 67 79
f 65 77 76
f 66 79 67
f 68 75 69
f 69 80 70
f 69 75 78
f 69 78 77
f 69 77 80
f 70 80 77
f 74 78 75

