# https://github.com/mikedh/trimesh
v -0.71684067 0.13687006 0.38480604
v -0.72173458 0.13687006 0.39165156
v -0.71684067 0.14410796 0.39089930
v -0.71684067 0.13687006 0.75246944
v -0.72826728 0.13687006 0.40079142
v -0.71684067 0.14892104 0.39541282
v -0.71684067 0.14527772 0.76905660
v -0.81655951 0.13687006 0.64361851
v -0.72472030 0.14832400 0.40669660
v -0.73453055 0.13687006 0.41124773
v -0.80789416 0.26135239 0.64715410
v -0.71684067 0.15957078 0.40650855
v -0.71684067 0.26135239 0.76905660
v -0.71691922 0.14535082 0.76905660
v -0.79534510 0.21913124 0.76905660
v -0.80279821 0.22853809 0.76905660
v -0.80412272 0.23034147 0.76905660
v -0.81019522 0.23917562 0.76905660
v -0.81970242 0.13687006 0.63778855
v -0.77712771 0.13687006 0.48545743
v -0.80934213 0.26135239 0.64963653
v -0.79870125 0.26135239 0.63492999
v -0.71684067 0.16228804 0.40944233
v -0.82077993 0.26135239 0.76905660
v -0.71684067 0.26135239 0.53864168
v -0.81521258 0.24876523 0.76905660
v -0.82146465 0.13687006 0.63079261
v -0.82979326 0.24992281 0.72726898
v -0.77875527 0.13687006 0.48854167
v -0.82513508 0.24563370 0.66415500
v -0.81689626 0.26135239 0.66396694
v -0.72870500 0.26135239 0.55127952
v -0.72179071 0.26135239 0.54326803
v -0.82152074 0.26135239 0.76533295
v -0.82979326 0.25746535 0.72726898
v -0.82052179 0.13687006 0.62311963
v -0.83101675 0.24463451 0.71553385
v -0.82993918 0.21798583 0.67637910
v -0.82993918 0.21798583 0.66855568
v -0.83037691 0.22824563 0.66701356
v -0.78168486 0.13687006 0.49557523
v -0.82954631 0.24032102 0.66949599
v -0.82776159 0.25159216 0.67750748
v -0.82441669 0.26135239 0.68247235
v -0.82787385 0.26135239 0.73125593
v -0.83099428 0.26065783 0.71534578
v -0.81245132 0.13687006 0.58343832
v -0.83151061 0.24515849 0.69842010
v -0.83057897 0.22817254 0.68183293
v -0.82770550 0.22824563 0.65855072
v -0.80988090 0.13687006 0.57358380
v -0.83013001 0.25839143 0.69842010
v -0.82925446 0.26135239 0.69842010
v -0.82488812 0.26135239 0.68375118
v -0.82458507 0.26135239 0.68292370
v -0.83074731 0.26135239 0.71534578
v -0.83062386 0.26135239 0.71346515
f 1 2 3
f 1 3 6
f 1 6 12
f 1 12 23
f 1 23 25
f 1 25 13
f 1 13 7
f 1 7 4
f 1 4 8
f 1 8 19
f 1 19 27
f 1 27 36
f 1 36 47
f 1 47 51
f 1 51 41
f 1 41 29
f 1 29 20
f 1 20 10
f 1 10 5
f 1 5 2
f 2 5 3
f 3 5 6
f 4 7 8
f 5 9 6
f 5 10 11
f 5 11 9
f 6 9 11
f 6 11 12
f 7 13 24
f 7 24 26
f 7 26 18
f 7 18 17
f 7 17 16
f 7 16 15
f 7 15 14
f 7 14 8
f 8 14 15
f 8 15 16
f 8 16 17
f 8 17 18
f 8 18 19
f 10 20 21
f 10 21 11
f 11 22 23
f 11 23 12
f 11 21 31
f 11 31 44
f 11 44 55
f 11 55 54
f 11 54 53
f 11 53 57
f 11 57 56
f 11 56 45
f 11 45 34
f 11 34 24
f 11 24 13
f 11 13 25
f 11 25 33
f 11 33 32
f 11 32 22
f 18 26 19
f 19 26 24
f 19 24 28
f 19 28 27
f 20 29 30
f 20 30 21
f 21 30 31
f 22 32 23
f 23 32 33
f 23 33 25
f 24 34 35
f 24 35 28
f 27 28 37
f 27 37 38
f 27 38 39
f 27 39 40
f 27 40 36
f 28 35 37
f 29 41 42
f 29 42 30
f 30 42 43
f 30 43 31
f 31 43 44
f 34 45 35
f 35 46 37
f 35 45 46
f 36 40 47
f 37 46 48
f 37 48 38
f 38 48 49
f 38 49 39
f 39 49 40
f 40 49 48
f 40 48 42
f 40 42 50
f 40 50 51
f 40 51 47
f 41 51 50
f 41 50 42
f 42 48 52
f 42 52 53
f 42 53 43
f 43 53 54
f 43 54 55
f 43 55 44
f 45 56 46
f 46 57 52
f 46 52 48
f 46 56 57
f 52 57 53

