# https://github.com/mikedh/trimesh
v 0.36285263 -0.02682215 0.12207593
v 0.36285263 0.02537060 0.12160116
v 0.38043361 0.00845697 0.12413330
v 0.48569104 0.04226924 0.13875651
v 0.48569104 0.03747955 0.13885149
v 0.48569104 -0.02682215 0.14195337
v 0.36285263 -0.02682215 0.44492605
v 0.36285263 0.02634350 0.12163281
v 0.48569104 0.05445304 0.13907305
v 0.48569104 -0.02682215 0.44492605
v 0.36285263 0.12608897 0.44492605
v 0.36285263 0.12608897 0.13112841
v 0.48569104 0.05894339 0.13980102
v 0.48569104 0.12608897 0.44492605
v 0.48569104 0.07221984 0.14293459
v 0.48569104 0.12608897 0.15578528
f 1 2 3
f 1 3 4
f 1 4 5
f 1 5 6
f 1 6 10
f 1 10 7
f 1 7 11
f 1 11 12
f 1 12 8
f 1 8 2
f 2 8 9
f 2 9 4
f 2 4 3
f 4 9 13
f 4 13 15
f 4 15 16
f 4 16 14
f 4 14 10
f 4 10 6
f 4 6 5
f 7 10 14
f 7 14 11
f 8 12 9
f 9 12 13
f 11 14 16
f 11 16 12
f 12 15 13
f 12 16 15

