# https://github.com/mikedh/trimesh
v -0.42178079 0.21748186 1.28230236
v -0.41540217 0.21167053 1.27602246
v -0.40291262 0.21137997 1.26697935
v -0.38284013 0.22736116 1.25713243
v -0.39970102 0.22830552 1.26913966
v -0.38284013 0.24145367 1.25984536
v -0.38284013 0.24515843 1.26034774
v -0.39791682 0.24515843 1.27004394
v -0.42173620 0.22830552 1.28225212
v -0.43114796 0.21799036 1.28220188
v -0.44305763 0.16503446 1.26602478
v -0.43766039 0.16503446 1.26602478
v -0.40514290 0.20193651 1.26547217
v -0.38284013 0.22307530 1.25587644
v -0.38284013 0.25758019 1.25989555
v -0.38284013 0.26215661 1.25909175
v -0.40019169 0.25779810 1.26828557
v -0.42231607 0.23709517 1.28190041
v -0.42356501 0.23709517 1.28190041
v -0.42998820 0.22678003 1.28215165
v -0.43971223 0.22009699 1.28179993
v -0.43971223 0.21973376 1.28179993
v -0.44845492 0.15994954 1.26275924
v -0.44805348 0.14622023 1.25441950
v -0.44845492 0.17687509 1.26843629
v -0.46107826 0.18203266 1.26672816
v -0.43507323 0.14796363 1.25286209
v -0.43074651 0.15936839 1.25743386
v -0.39818445 0.19568933 1.25582615
v -0.38734529 0.20070161 1.24934531
v -0.38284013 0.20476956 1.24768742
v -0.38284013 0.21210637 1.25155581
v -0.40251117 0.18203266 1.25100320
v -0.38284013 0.27668498 1.25411808
v -0.41424244 0.25932358 1.26969228
v -0.38284013 0.27951800 1.25281180
v -0.38284013 0.28409446 1.25055106
v -0.38551648 0.28852559 1.24899364
v -0.39733694 0.27893687 1.25632858
v -0.42998820 0.24363294 1.27672579
v -0.43480563 0.23142912 1.28069471
v -0.44644768 0.22678003 1.27602246
v -0.49435401 0.22380172 1.25029982
v -0.49546917 0.21137997 1.25145533
v -0.47138214 0.19445442 1.26376399
v -0.46290712 0.19445442 1.26778320
v -0.46602950 0.17687509 1.26175444
v -0.45924945 0.14854476 1.25165628
v -0.42753488 0.06326324 1.16840962
v -0.41424244 0.06246417 1.16871109
v -0.48190906 0.19445442 1.25743386
v -0.38284013 0.13074752 1.20131643
v -0.38284013 0.14237021 1.20975664
v -0.38284013 0.01314037 1.11530660
v -0.39122597 0.18944213 1.24602948
v -0.38284013 0.15086930 1.21508203
v -0.38284013 0.19351007 1.24095533
v -0.43114796 0.25685376 1.26778320
v -0.39733694 0.28903409 1.24944578
v -0.40866674 0.28838032 1.24894336
v -0.38284013 0.29208506 1.24457254
v -0.38284013 0.33901168 1.19815136
v -0.49881457 0.53928524 1.02572972
v -0.44711674 0.24406880 1.26848652
v -0.44087197 0.25452922 1.26572336
v -0.45786668 0.23782160 1.26547217
v -0.50389960 0.21137997 1.24522567
v -0.51014439 0.23978292 1.23266583
v -0.51308834 0.22830552 1.23568018
v -0.49279282 0.19445442 1.24999839
v -0.49078559 0.18544683 1.24839079
v -0.48119541 0.17890907 1.25240990
v -0.45884800 0.13343527 1.23417301
v -0.52584557 0.20077425 1.21668968
v -0.44109500 0.08215013 1.18212498
v -0.41419784 -0.12858388 0.84858558
v -0.38284013 -0.02565039 1.06963894
v -0.38284013 -0.02354376 1.07310548
v -0.41424244 0.05396508 1.15961774
v -0.38284013 -0.00974180 1.08908158
v -0.51572009 0.53703332 1.02633259
v -0.38284013 0.50717759 1.02809096
v -0.48190906 0.52889746 1.03200964
v -0.38908490 0.52410311 1.01111006
v -0.49881457 0.54466076 1.01733974
v -0.51572009 0.54596830 1.01794262
v -0.56719491 0.27966330 1.17644793
v -0.52910178 0.54437018 1.01543064
v -0.67986854 0.37496940 1.04748339
v -0.55501761 0.28576522 1.17936181
v -0.52151884 0.22830552 1.22914905
v -0.51340061 0.21137997 1.23678546
v -0.57299365 0.26201132 1.17936181
v -0.51059047 0.19888556 1.23417301
v -0.57558074 0.21907999 1.16428998
v -0.45733139 0.11767198 1.21498155
v -0.52183104 0.21137997 1.22804382
v -0.67781671 0.28482086 1.08023946
v -0.67451589 0.27348874 1.07576817
v -0.46098906 -0.12851122 0.76905660
v -0.44435122 -0.12858388 0.79925049
v -0.42682123 -0.12858388 0.83014772
v -0.77804540 0.21958849 0.80889645
v -0.41312730 -0.12858388 0.84994204
v -0.38284013 -0.12858388 0.88661681
v -0.38284013 0.51320681 1.02115792
v -0.38284013 0.52279558 1.00628707
v -0.38284013 0.60923936 0.80949933
v -0.42218224 0.54131923 0.99493296
v -0.50720042 0.55795421 0.99438034
v -0.51572009 0.55439475 1.00432773
v -0.52754058 0.55897116 0.99633966
v -0.69325022 0.33821263 1.06200257
v -0.55925511 0.57553353 0.96167448
v -0.56054868 0.56027875 0.98011234
v -0.69378551 0.38949778 1.02869383
v -0.69115376 0.36944861 1.04356471
v -0.67915484 0.31278797 1.08134474
v -0.67951168 0.29586243 1.08169640
v -0.67732603 0.32244933 1.07978733
v -0.65872554 0.25431129 1.07777772
v -0.79557538 0.26956609 0.86079377
v -0.68892350 0.29477281 1.06943799
v -0.69302720 0.28845297 1.06160065
v -0.69003860 0.27799254 1.05496906
v -0.69235810 0.27174535 1.04346423
v -0.43725890 -0.12858388 0.76905660
v -0.45300466 -0.12858388 0.78000879
v -0.45211259 -0.12858388 0.78317389
v -0.79530771 0.21915263 0.76905660
v -0.38284013 -0.12858388 0.76905660
v -0.38284013 0.61163655 0.80216436
v -0.53262561 0.57909299 0.95207875
v -0.52383832 0.57495240 0.96082041
v -0.51572009 0.55868063 0.99588752
v -0.54953108 0.57604206 0.96272952
v -0.69369626 0.32964088 1.06260542
v -0.68758532 0.31278797 1.07194996
v -0.69726475 0.38041753 1.03165798
v -0.70926362 0.36966654 1.02728713
v -0.72839940 0.35753535 1.01251676
v -0.74427900 0.35579195 0.99493296
v -0.54953108 0.58025526 0.95207875
v -0.54953108 0.58519487 0.93519832
v -0.56144082 0.57713166 0.95207875
v -0.60332538 0.55424944 0.93519832
v -0.59248626 0.55839009 0.94449260
v -0.57745420 0.56027875 0.96298071
v -0.56554452 0.56594481 0.96795440
v -0.69378551 0.42320356 0.99478224
v -0.71069098 0.40642331 0.99488272
v -0.70636424 0.38187039 1.02090673
v -0.69414237 0.31278797 1.06350975
v -0.79334508 0.28881617 0.89073644
v -0.79936682 0.27900950 0.86687272
v -0.81105349 0.28830769 0.85757841
v -0.82737914 0.28961522 0.82215966
v -0.80275688 0.22859608 0.76905660
v -0.69383010 0.29971244 1.06315809
v -0.79468324 0.32114179 0.92675809
v -0.79160546 0.30893798 0.91826764
v -0.79767185 0.30007565 0.89792069
v -0.38284013 0.61192709 0.76905660
v -0.38284013 0.61199976 0.80095861
v -0.53262561 0.57560619 0.96202614
v -0.71408104 0.37714866 1.01603351
v -0.72536625 0.36879485 1.00910048
v -0.72973756 0.37620430 0.99784684
v -0.83041234 0.35855235 0.86255213
v -0.83183970 0.34656643 0.86466219
v -0.79374658 0.33283712 0.92570307
v -0.79468324 0.32157765 0.92675809
v -0.38284013 0.61214504 0.80040600
v -0.54226039 0.59180532 0.87621726
v -0.54854976 0.59006191 0.88289910
v -0.56643660 0.58541285 0.88445652
v -0.56643660 0.58345153 0.90138718
v -0.56643660 0.58127220 0.91826764
v -0.56674887 0.57843920 0.93359065
v -0.57495628 0.57487980 0.92685859
v -0.61291563 0.54575036 0.93519832
v -0.61055153 0.54298998 0.94589930
v -0.72665977 0.50695961 0.78302315
v -0.74534951 0.49192276 0.79442750
v -0.71033417 0.42298568 0.97780132
v -0.70029790 0.42647248 0.98443293
v -0.70507067 0.41768282 0.98905496
v -0.72603530 0.38746379 0.99277266
v -0.82867271 0.30385304 0.84275780
v -0.82920795 0.28612843 0.81090603
v -0.80409506 0.23041212 0.76905660
v -0.83081379 0.32964088 0.86310477
v -0.81212405 0.32027009 0.89385130
v -0.44805348 0.60299216 0.76905660
v -0.38284013 0.61352523 0.78302315
v -0.80895701 0.38383169 0.87109282
v -0.81190103 0.38949778 0.85983921
v -0.81399749 0.39291192 0.85064538
v -0.82728995 0.37024767 0.85064538
v -0.83139360 0.36174858 0.85064538
v -0.83607724 0.34656643 0.85064538
v -0.83531894 0.32964088 0.85064538
v -0.38284013 0.61345257 0.78563560
v -0.55167216 0.59057038 0.86757609
v -0.54324171 0.59209590 0.86757609
v -0.57816786 0.57713166 0.90138718
v -0.56643660 0.58199866 0.83371471
v -0.71747103 0.51095493 0.76905660
v -0.57638364 0.57582407 0.91826764
v -0.79682432 0.40736764 0.86250190
v -0.72594612 0.50652374 0.76905660
v -0.74534951 0.49192276 0.78623848
v -0.81029523 0.40373557 0.83371471
v -0.79539696 0.42349416 0.82743479
v -0.80842179 0.40133838 0.85064538
v -0.79999134 0.41020071 0.85064538
v -0.80289072 0.39683458 0.86682248
v -0.79767185 0.39291192 0.87887995
v -0.82581794 0.30879267 0.85401145
v -0.82902956 0.32005216 0.86049232
v -0.83027850 0.31373234 0.84928893
v -0.83380233 0.31278797 0.83371471
v -0.83844132 0.32964088 0.83371471
v -0.83317786 0.29586243 0.79990360
v -0.82974328 0.28518409 0.79990360
v -0.81520184 0.24871786 0.76905660
v -0.81016140 0.23920178 0.76905660
v -0.54953108 0.58534019 0.81683428
v -0.54145751 0.59187792 0.84160230
v -0.54266184 0.59216852 0.85064538
v -0.52919096 0.57698634 0.76905660
v -0.55889830 0.57538822 0.79065956
v -0.54953108 0.58127220 0.79990360
v -0.81542486 0.39530911 0.83371471
v -0.82309700 0.38041753 0.83371471
v -0.82769134 0.36908541 0.83371471
v -0.83607724 0.34656643 0.83371471
v -0.55109229 0.58948073 0.85064538
v -0.54805913 0.58897231 0.83507118
v -0.56728409 0.57923826 0.81653284
v -0.70453544 0.51654839 0.76905660
v -0.72795336 0.50478040 0.76905660
v -0.73504561 0.49795203 0.76905660
v -0.74329767 0.48923503 0.76905660
v -0.74445743 0.48778216 0.76905660
v -0.75043454 0.48342365 0.78156621
v -0.75940026 0.47129245 0.78302315
v -0.76533281 0.46279338 0.78302315
v -0.78049866 0.44354327 0.79990360
v -0.83580957 0.32964088 0.81683428
v -0.83273182 0.29586243 0.78302315
v -0.83005548 0.28344066 0.78302315
v -0.82238329 0.26433585 0.76905660
v -0.56184227 0.57698634 0.79990360
v -0.81381902 0.39269400 0.82165726
v -0.77916054 0.44216313 0.78779589
v -0.83170591 0.34569473 0.81788930
v -0.82952020 0.30675871 0.77282457
v -0.74896258 0.48095388 0.76905660
v -0.76305792 0.45981510 0.77086523
v -0.77407551 0.44790180 0.78252077
v -0.83014466 0.29586243 0.76955900
v -0.82960945 0.28380390 0.76965948
v -0.82929718 0.28315010 0.76905660
v -0.76747389 0.44797446 0.76905660
v -0.82858352 0.30327189 0.76905660
v -0.76109527 0.46163111 0.76905660
v -0.76252263 0.45887072 0.76905660
v -0.76395005 0.45581979 0.76905660
v -0.82992164 0.29586243 0.76905660
v -0.82983246 0.29397375 0.76905660
f 1 2 3
f 1 3 4
f 1 4 5
f 1 5 6
f 1 6 7
f 1 7 8
f 1 8 9
f 1 9 10
f 1 10 11
f 1 11 12
f 1 12 2
f 2 13 3
f 2 12 13
f 3 14 4
f 3 13 14
f 4 14 32
f 4 32 31
f 4 31 57
f 4 57 56
f 4 56 53
f 4 53 52
f 4 52 54
f 4 54 80
f 4 80 78
f 4 78 77
f 4 77 105
f 4 105 131
f 4 131 163
f 4 163 195
f 4 195 203
f 4 203 173
f 4 173 164
f 4 164 132
f 4 132 108
f 4 108 107
f 4 107 106
f 4 106 82
f 4 82 62
f 4 62 61
f 4 61 37
f 4 37 36
f 4 36 34
f 4 34 16
f 4 16 15
f 4 15 7
f 4 7 6
f 4 6 5
f 7 15 8
f 8 15 16
f 8 16 17
f 8 17 18
f 8 18 9
f 9 18 19
f 9 19 20
f 9 20 10
f 10 20 21
f 10 21 22
f 10 22 11
f 11 23 24
f 11 24 12
f 11 22 25
f 11 25 26
f 11 26 23
f 12 24 27
f 12 27 28
f 12 28 13
f 13 29 30
f 13 30 31
f 13 31 32
f 13 32 14
f 13 28 33
f 13 33 29
f 16 34 17
f 17 35 18
f 17 34 36
f 17 36 37
f 17 37 38
f 17 38 39
f 17 39 35
f 18 35 19
f 19 40 41
f 19 41 21
f 19 21 20
f 19 35 40
f 21 41 42
f 21 42 43
f 21 43 44
f 21 44 22
f 22 44 45
f 22 45 46
f 22 46 26
f 22 26 25
f 23 26 47
f 23 47 48
f 23 48 24
f 24 48 49
f 24 49 50
f 24 50 27
f 26 46 45
f 26 45 51
f 26 51 47
f 27 52 53
f 27 53 28
f 27 50 54
f 27 54 52
f 28 53 33
f 29 55 30
f 29 33 56
f 29 56 55
f 30 55 57
f 30 57 31
f 33 53 56
f 35 58 40
f 35 39 59
f 35 59 60
f 35 60 58
f 37 61 38
f 38 61 62
f 38 62 63
f 38 63 59
f 38 59 39
f 40 64 41
f 40 58 65
f 40 65 64
f 41 64 66
f 41 66 42
f 42 66 43
f 43 67 44
f 43 66 68
f 43 68 69
f 43 69 67
f 44 67 70
f 44 70 51
f 44 51 45
f 47 51 71
f 47 71 72
f 47 72 48
f 48 73 49
f 48 72 71
f 48 71 74
f 48 74 73
f 49 75 76
f 49 76 77
f 49 77 78
f 49 78 79
f 49 79 50
f 49 73 75
f 50 79 54
f 51 70 71
f 54 79 80
f 55 56 57
f 58 60 81
f 58 81 65
f 59 63 81
f 59 81 60
f 62 82 83
f 62 83 63
f 63 83 82
f 63 82 84
f 63 84 85
f 63 85 86
f 63 86 81
f 64 65 87
f 64 87 66
f 65 81 88
f 65 88 89
f 65 89 90
f 65 90 87
f 66 87 68
f 67 69 91
f 67 91 92
f 67 92 70
f 68 87 69
f 69 87 93
f 69 93 91
f 70 92 71
f 71 92 94
f 71 94 74
f 73 74 95
f 73 95 96
f 73 96 75
f 74 94 97
f 74 97 98
f 74 98 99
f 74 99 95
f 75 100 101
f 75 101 102
f 75 102 76
f 75 96 103
f 75 103 100
f 76 102 101
f 76 101 129
f 76 129 128
f 76 128 127
f 76 127 131
f 76 131 105
f 76 105 104
f 76 104 77
f 77 104 105
f 78 80 79
f 81 86 88
f 82 106 84
f 84 106 107
f 84 107 108
f 84 108 109
f 84 109 85
f 85 109 110
f 85 110 111
f 85 111 86
f 86 111 112
f 86 112 88
f 87 90 89
f 87 89 113
f 87 113 93
f 88 112 114
f 88 114 115
f 88 115 116
f 88 116 89
f 89 116 117
f 89 117 113
f 91 93 118
f 91 118 119
f 91 119 92
f 92 97 94
f 92 119 97
f 93 113 120
f 93 120 118
f 95 121 96
f 95 99 121
f 96 121 122
f 96 122 103
f 97 119 98
f 98 119 123
f 98 123 124
f 98 124 99
f 99 124 125
f 99 125 126
f 99 126 121
f 100 127 128
f 100 128 129
f 100 129 101
f 100 103 130
f 100 130 158
f 100 158 191
f 100 191 227
f 100 227 226
f 100 226 253
f 100 253 264
f 100 264 271
f 100 271 270
f 100 270 266
f 100 266 265
f 100 265 269
f 100 269 268
f 100 268 267
f 100 267 259
f 100 259 245
f 100 245 244
f 100 244 243
f 100 243 242
f 100 242 211
f 100 211 208
f 100 208 241
f 100 241 231
f 100 231 194
f 100 194 163
f 100 163 131
f 100 131 127
f 103 122 130
f 108 132 133
f 108 133 134
f 108 134 109
f 109 134 110
f 110 135 111
f 110 134 135
f 111 135 112
f 112 135 136
f 112 136 114
f 113 137 138
f 113 138 118
f 113 118 120
f 113 117 116
f 113 116 139
f 113 139 140
f 113 140 141
f 113 141 142
f 113 142 137
f 114 136 143
f 114 143 144
f 114 144 145
f 114 145 146
f 114 146 147
f 114 147 148
f 114 148 149
f 114 149 115
f 115 149 148
f 115 148 150
f 115 150 116
f 116 150 151
f 116 151 152
f 116 152 140
f 116 140 139
f 118 138 119
f 119 138 153
f 119 153 123
f 121 126 122
f 122 126 154
f 122 154 155
f 122 155 156
f 122 156 157
f 122 157 158
f 122 158 130
f 123 153 159
f 123 159 160
f 123 160 124
f 124 160 125
f 125 160 161
f 125 161 162
f 125 162 126
f 126 162 154
f 132 164 133
f 133 143 165
f 133 165 134
f 133 164 144
f 133 144 143
f 134 165 135
f 135 165 136
f 136 165 143
f 137 153 138
f 137 142 153
f 140 152 166
f 140 166 167
f 140 167 141
f 141 167 142
f 142 167 168
f 142 168 169
f 142 169 170
f 142 170 171
f 142 171 172
f 142 172 153
f 144 164 173
f 144 173 174
f 144 174 175
f 144 175 176
f 144 176 177
f 144 177 178
f 144 178 179
f 144 179 145
f 145 179 180
f 145 180 146
f 146 181 182
f 146 182 147
f 146 180 183
f 146 183 184
f 146 184 181
f 147 182 148
f 148 182 185
f 148 185 186
f 148 186 150
f 150 186 185
f 150 185 187
f 150 187 151
f 151 187 185
f 151 185 188
f 151 188 166
f 151 166 152
f 153 172 160
f 153 160 159
f 154 162 155
f 155 162 156
f 156 162 189
f 156 189 157
f 157 189 190
f 157 190 158
f 158 190 191
f 160 172 170
f 160 170 192
f 160 192 193
f 160 193 162
f 160 162 161
f 162 193 189
f 163 194 195
f 166 188 168
f 166 168 167
f 168 188 196
f 168 196 169
f 169 196 197
f 169 197 198
f 169 198 199
f 169 199 200
f 169 200 201
f 169 201 170
f 170 201 202
f 170 202 192
f 170 172 171
f 173 203 174
f 174 204 175
f 174 203 205
f 174 205 204
f 175 204 176
f 176 206 177
f 176 204 207
f 176 207 208
f 176 208 183
f 176 183 206
f 177 206 178
f 178 206 209
f 178 209 179
f 179 209 180
f 180 209 183
f 181 184 182
f 182 184 210
f 182 210 185
f 183 208 211
f 183 211 212
f 183 212 184
f 183 209 206
f 184 212 213
f 184 213 214
f 184 214 215
f 184 215 216
f 184 216 210
f 185 210 217
f 185 217 188
f 188 217 218
f 188 218 196
f 189 193 219
f 189 219 220
f 189 220 221
f 189 221 202
f 189 202 222
f 189 222 190
f 190 222 223
f 190 223 224
f 190 224 225
f 190 225 226
f 190 226 227
f 190 227 191
f 192 202 220
f 192 220 193
f 193 220 219
f 194 228 229
f 194 229 230
f 194 230 195
f 194 231 232
f 194 232 233
f 194 233 228
f 195 230 205
f 195 205 203
f 196 218 217
f 196 217 197
f 197 217 215
f 197 215 198
f 198 215 213
f 198 213 234
f 198 234 199
f 199 235 200
f 199 234 235
f 200 235 236
f 200 236 237
f 200 237 201
f 201 237 223
f 201 223 202
f 202 223 222
f 202 221 220
f 204 205 230
f 204 230 229
f 204 229 238
f 204 238 207
f 207 238 239
f 207 239 240
f 207 240 241
f 207 241 208
f 210 216 215
f 210 215 217
f 211 242 212
f 212 243 244
f 212 244 245
f 212 245 246
f 212 246 247
f 212 247 248
f 212 248 249
f 212 249 213
f 212 242 243
f 213 215 214
f 213 249 234
f 223 237 250
f 223 250 251
f 223 251 224
f 224 251 252
f 224 252 225
f 225 252 253
f 225 253 226
f 228 239 229
f 228 233 240
f 228 240 239
f 229 239 238
f 231 241 232
f 232 254 233
f 232 241 254
f 233 254 240
f 234 255 235
f 234 249 256
f 234 256 255
f 235 255 257
f 235 257 236
f 236 257 237
f 237 257 258
f 237 258 250
f 240 254 241
f 245 259 248
f 245 248 247
f 245 247 246
f 248 259 260
f 248 260 261
f 248 261 256
f 248 256 249
f 250 258 262
f 250 262 251
f 251 262 263
f 251 263 252
f 252 263 253
f 253 263 264
f 255 258 257
f 255 256 258
f 256 261 265
f 256 265 258
f 258 266 262
f 258 265 266
f 259 267 260
f 260 267 268
f 260 268 269
f 260 269 265
f 260 265 261
f 262 270 271
f 262 271 263
f 262 266 270
f 263 271 264

