# https://github.com/mikedh/trimesh
v 0.16173974 0.12680259 1.20874816
v 0.16173974 0.14377716 1.20809840
v 0.06157718 0.09296511 1.17767439
v 0.16173974 0.00423943 1.20093751
v 0.16173974 0.15723397 1.20180822
v 0.16062192 0.15689895 1.20167827
v 0.08308051 0.15315784 1.18100141
v 0.09299381 0.14366549 1.18536809
v 0.06157718 0.07604636 1.17534809
v 0.16173974 -0.00843566 1.19965088
v 0.06157718 0.11222901 1.17625781
v 0.16173974 0.15790403 1.20104146
v 0.06157718 0.29515245 1.07599245
v 0.06157718 0.28186313 1.08757203
v 0.06157718 0.27946210 1.08945647
v 0.06157718 0.26416267 1.10107505
v 0.06157718 0.15728982 1.16725148
v 0.06157718 0.14366549 1.17204703
v 0.06157718 0.05013780 1.16723848
v 0.06660738 0.03120891 1.16427537
v 0.07552052 0.02551350 1.16734243
v 0.16173974 -0.01552701 1.19755849
v 0.16173974 0.16560960 1.19181422
v 0.16173974 0.17057913 1.18343166
v 0.16173974 0.17621871 1.17186512
v 0.16173974 0.18336590 1.15373546
v 0.16173974 0.18576691 1.14592480
v 0.16173974 0.18783288 1.13843900
v 0.16173974 0.20039631 1.08618146
v 0.16173974 0.20050798 1.08570060
v 0.16173974 0.20251814 1.07599245
v 0.06157718 -0.06918678 1.07599245
v 0.06157718 0.00848308 1.15177307
v 0.06950980 0.01992975 1.16227393
v 0.08401203 -0.00039507 1.16372951
v 0.16173974 -0.02535439 1.19459538
v 0.16173974 -0.27528271 1.07599245
v 0.06760753 -0.08392785 1.07599245
v 0.06157718 -0.00614633 1.14292264
v 0.06157718 0.00831558 1.15170807
v 0.07286325 0.00848308 1.16019454
v 0.06430310 -0.00307527 1.14899187
v 0.16173974 -0.19236414 1.12120611
v 0.16173974 -0.17751137 1.12808105
v 0.16173974 -0.26204922 1.08394611
v 0.15415032 -0.26204922 1.07678522
v 0.15384636 -0.26283095 1.07599245
v 0.07040209 -0.09012581 1.07599245
v 0.07890340 -0.10871968 1.07599245
v 0.08201173 -0.11536431 1.07599245
v 0.15345415 -0.26204922 1.07599245
f 1 2 3
f 1 3 4
f 1 4 10
f 1 10 22
f 1 22 36
f 1 36 44
f 1 44 43
f 1 43 45
f 1 45 37
f 1 37 31
f 1 31 30
f 1 30 29
f 1 29 28
f 1 28 27
f 1 27 26
f 1 26 25
f 1 25 24
f 1 24 23
f 1 23 12
f 1 12 5
f 1 5 2
f 2 5 6
f 2 6 7
f 2 7 8
f 2 8 3
f 3 9 10
f 3 10 4
f 3 8 11
f 3 11 18
f 3 18 17
f 3 17 16
f 3 16 15
f 3 15 14
f 3 14 13
f 3 13 32
f 3 32 39
f 3 39 40
f 3 40 33
f 3 33 19
f 3 19 9
f 5 7 6
f 5 12 13
f 5 13 14
f 5 14 15
f 5 15 16
f 5 16 7
f 7 17 18
f 7 18 11
f 7 11 8
f 7 16 17
f 9 19 20
f 9 20 21
f 9 21 10
f 10 21 22
f 12 23 13
f 13 23 24
f 13 24 25
f 13 25 26
f 13 26 27
f 13 27 28
f 13 28 29
f 13 29 30
f 13 30 31
f 13 31 37
f 13 37 47
f 13 47 51
f 13 51 50
f 13 50 49
f 13 49 48
f 13 48 38
f 13 38 32
f 19 33 20
f 20 33 34
f 20 34 21
f 21 34 35
f 21 35 22
f 22 35 36
f 32 38 39
f 33 40 34
f 34 40 41
f 34 41 35
f 35 41 42
f 35 42 43
f 35 43 44
f 35 44 36
f 37 45 42
f 37 42 46
f 37 46 47
f 38 48 39
f 39 48 49
f 39 49 50
f 39 50 51
f 39 51 47
f 39 47 42
f 39 42 40
f 40 42 41
f 42 47 46
f 42 45 43

