# https://github.com/mikedh/trimesh
v -0.62612845 -0.12858391 0.64977725
v -0.62612845 0.00170411 0.63855329
v -0.78636507 0.00170411 0.60086699
v -0.80349668 0.00170411 0.59636102
v -0.67281215 -0.12858391 0.62126674
v -0.62612845 -0.12858391 0.29691878
v -0.62612845 0.00170411 0.23129544
v -0.80831965 0.00170411 0.59210082
v -0.68357528 -0.12858391 0.61299214
v -0.66160212 -0.12858391 0.33296652
v -0.64480564 -0.08756517 0.28168039
v -0.62612845 -0.12062506 0.29032365
v -0.62612845 -0.00195645 0.23240145
v -0.62718985 -0.00182890 0.23244241
v -0.62830716 0.00170411 0.23154121
v -0.81122455 0.00022458 0.58788160
v -0.81286324 0.00170411 0.58685751
v -0.74441122 -0.10197786 0.57202878
v -0.73321978 -0.12858391 0.55896145
v -0.67001895 -0.12858391 0.34218328
v -0.64298076 -0.06835678 0.26697454
v -0.62612845 -0.11549770 0.28655502
v -0.67702058 -0.12858391 0.35074462
v -0.72759614 -0.01773387 0.33423639
v -0.62612845 -0.11164583 0.28417914
v -0.63659364 0.00170411 0.23760381
v -0.64359526 -0.02074395 0.24936028
v -0.74416914 -0.11867359 0.55506993
v -0.81587992 0.00170411 0.57874677
v -0.73655300 -0.12858391 0.54687727
v -0.71135832 -0.01935370 0.31719563
v -0.68048415 -0.12858391 0.35856863
v -0.74564020 -0.05334465 0.41690049
v -0.76182214 -0.01914961 0.41788360
v -0.77496881 0.00170411 0.42796059
v -0.73530537 -0.00846129 0.34341221
v -0.72923483 -0.00846129 0.33255691
v -0.64653745 0.00170411 0.24591938
v -0.64542018 -0.00846129 0.24759887
v -0.81349638 -0.00311712 0.56318068
v -0.74416914 -0.11867359 0.55326754
v -0.81636406 0.00170411 0.57108661
v -0.73616193 -0.12858391 0.54273996
v -0.68119176 -0.12858391 0.36028911
v -0.77763166 0.00019908 0.43693157
v -0.77796683 0.00170411 0.43578460
v -0.70441259 -0.12858391 0.42865696
v -0.72759614 -0.11928583 0.48555509
v -0.76148694 -0.06881594 0.50230911
v -0.79353428 -0.01487683 0.50910902
v -0.79643925 -0.00360179 0.49960553
v -0.80077801 0.00170411 0.50513558
v -0.74960654 0.00170411 0.36946489
v -0.73986761 0.00170411 0.34947478
v -0.72936515 0.00170411 0.33251595
v -0.81614059 0.00170411 0.56318068
v -0.81258395 -0.00171412 0.55166998
v -0.74321943 -0.11710479 0.54196166
v -0.73387150 -0.12858391 0.52934494
v -0.71951450 -0.12858391 0.47953348
v -0.72981208 -0.12858391 0.51439331
v -0.73349909 -0.12858391 0.52754256
v -0.74366638 -0.10100851 0.50517655
v -0.75809790 -0.07955531 0.51246804
v -0.77910275 -0.05305130 0.53446536
v -0.80321738 0.00170411 0.51345115
v -0.81502332 0.00170411 0.55556150
v -0.81368257 0.00170411 0.54970373
f 1 2 3
f 1 3 4
f 1 4 5
f 1 5 9
f 1 9 19
f 1 19 30
f 1 30 43
f 1 43 59
f 1 59 62
f 1 62 61
f 1 61 60
f 1 60 47
f 1 47 44
f 1 44 32
f 1 32 23
f 1 23 20
f 1 20 10
f 1 10 6
f 1 6 12
f 1 12 22
f 1 22 25
f 1 25 13
f 1 13 7
f 1 7 2
f 2 7 15
f 2 15 26
f 2 26 38
f 2 38 55
f 2 55 54
f 2 54 53
f 2 53 35
f 2 35 46
f 2 46 52
f 2 52 66
f 2 66 68
f 2 68 67
f 2 67 56
f 2 56 42
f 2 42 29
f 2 29 17
f 2 17 8
f 2 8 4
f 2 4 3
f 4 8 9
f 4 9 5
f 6 10 11
f 6 11 12
f 7 13 14
f 7 14 15
f 8 16 9
f 8 17 16
f 9 16 18
f 9 18 19
f 10 20 11
f 11 21 22
f 11 22 12
f 11 20 23
f 11 23 24
f 11 24 21
f 13 25 14
f 14 25 21
f 14 21 15
f 15 21 27
f 15 27 26
f 16 17 28
f 16 28 18
f 17 29 28
f 18 28 19
f 19 28 30
f 21 31 27
f 21 25 22
f 21 24 31
f 23 32 33
f 23 33 24
f 24 33 34
f 24 34 35
f 24 35 36
f 24 36 37
f 24 37 31
f 26 27 39
f 26 39 38
f 27 31 39
f 28 40 41
f 28 41 30
f 28 29 42
f 28 42 40
f 30 41 43
f 31 38 39
f 31 37 38
f 32 44 33
f 33 45 46
f 33 46 34
f 33 44 47
f 33 47 48
f 33 48 49
f 33 49 50
f 33 50 51
f 33 51 52
f 33 52 45
f 34 46 35
f 35 53 36
f 36 53 54
f 36 54 37
f 37 54 55
f 37 55 38
f 40 56 57
f 40 57 41
f 40 42 56
f 41 57 58
f 41 58 43
f 43 58 59
f 45 52 46
f 47 60 48
f 48 60 61
f 48 61 62
f 48 62 63
f 48 63 49
f 49 63 64
f 49 64 65
f 49 65 57
f 49 57 50
f 50 66 52
f 50 52 51
f 50 57 66
f 56 67 57
f 57 65 58
f 57 67 68
f 57 68 66
f 58 65 62
f 58 62 59
f 62 64 63
f 62 65 64

