# https://github.com/mikedh/trimesh
v 0.19093885 0.45918782 0.42818414
v 0.20402662 0.45769424 0.42818414
v 0.22098401 0.47379154 0.40322625
v 0.19093885 0.46034949 0.42644382
v 0.19093885 -0.00730183 0.42818414
v 0.21657034 0.45559218 0.42818414
v 0.21135208 0.47390219 0.40338447
v 0.22484598 0.45874526 0.42193478
v 0.26922027 0.43905239 0.42818414
v 0.24515962 0.50432660 0.34733797
v 0.22825587 0.51113064 0.34120725
v 0.19093885 0.47307243 0.40544121
v 0.19093885 -0.00730183 0.04815964
v 0.26922027 -0.00730183 0.42818414
v 0.22955083 0.45183061 0.42818414
v 0.26922027 0.50875198 0.32119347
v 0.25784892 0.49331847 0.35631646
v 0.25513637 0.50803289 0.33638182
v 0.24515962 0.50952641 0.33891320
v 0.22825587 0.51732618 0.32645403
v 0.21135208 0.51821122 0.32645403
v 0.21135208 0.51113064 0.34053486
v 0.19093885 0.47794033 0.39670000
v 0.19093885 0.05941068 0.03625419
v 0.19444067 0.05918940 0.03704529
v 0.22148208 0.04668772 0.04673575
v 0.21775806 0.03540302 0.04784320
v 0.19477783 -0.00730183 0.04954402
v 0.26922027 -0.00730183 0.08241249
v 0.26922027 0.51267954 0.30956491
v 0.26206338 0.51561131 0.30956491
v 0.26128946 0.51002426 0.32578162
v 0.24515962 0.51422839 0.32645403
v 0.24515962 0.53187457 0.27574717
v 0.23684565 0.54105721 0.25074972
v 0.22825587 0.53364467 0.27574717
v 0.19444067 0.55184407 0.22504031
v 0.19444067 0.51588789 0.32645403
v 0.19093885 0.55173343 0.22504031
v 0.19093885 0.55051643 0.22852099
v 0.19093885 0.51494754 0.32665178
v 0.19093885 0.06311693 0.03585869
v 0.19093885 0.07611647 0.03483031
v 0.19444067 0.07611647 0.03574002
v 0.21135208 0.05918940 0.04194983
v 0.26922027 0.25506747 0.04634020
v 0.26922027 0.25058678 0.04689397
v 0.26922027 0.19443985 0.05456722
v 0.21135208 -0.00730183 0.05614933
v 0.26922027 0.51677296 0.29200343
v 0.26594067 0.52247068 0.27574717
v 0.24355046 0.53740630 0.25739461
v 0.23788012 0.54161039 0.24192943
v 0.21135208 0.55023986 0.22504031
v 0.19444067 0.55472058 0.20815122
v 0.19093885 0.55499710 0.20791388
v 0.19093885 0.52136433 0.30956491
v 0.19093885 0.29583622 0.02415102
v 0.19444067 0.29583622 0.02482341
v 0.26922027 0.26209276 0.04598426
v 0.26922027 0.52025795 0.27574717
v 0.26898273 0.52307916 0.25881852
v 0.26052320 0.52855551 0.25881852
v 0.23813299 0.54177631 0.23049862
v 0.21135208 0.55167809 0.20815122
v 0.24633199 0.53701906 0.24192943
v 0.19093885 0.55781831 0.15744438
v 0.19093885 0.29937653 0.02411146
v 0.19093885 0.31276328 0.02438835
v 0.19444067 0.31276328 0.02517940
v 0.26922027 0.27608800 0.04649842
v 0.26922027 0.52285786 0.25885808
v 0.26922027 0.51942820 0.15744438
v 0.24515962 0.53098950 0.14051573
v 0.19093885 0.55649072 0.14051573
v 0.25748878 0.52628752 0.15744438
v 0.19093885 0.31624826 0.02470474
v 0.19526824 0.32980097 0.02775034
v 0.20477756 0.32426924 0.02992577
v 0.20721428 0.31276328 0.02913467
v 0.26922027 0.28421962 0.04776409
v 0.21566617 0.31276328 0.03214071
v 0.26922027 0.51478155 0.14102990
v 0.25371109 0.52418551 0.13185361
v 0.22696087 0.53668715 0.12469458
v 0.22046297 0.54122315 0.13106255
v 0.24492973 0.52728325 0.12516919
v 0.19093885 0.55383544 0.12354753
v 0.19093885 0.32974565 0.02656373
v 0.19093885 0.34163884 0.02889739
v 0.20145963 0.33549862 0.03123099
v 0.26922027 0.32969034 0.05559560
v 0.26922027 0.34650676 0.05943220
v 0.26922027 0.50670525 0.11876161
v 0.25041617 0.52186218 0.12058104
v 0.19093885 0.54952075 0.11148386
v 0.23914444 0.52567902 0.11243313
v 0.19093885 0.34495787 0.02964888
v 0.21135208 0.41421498 0.05342017
v 0.26922027 0.42466988 0.08055349
v 0.26922027 0.50637338 0.11808922
v 0.19093885 0.54714210 0.10677705
v 0.22802596 0.52855551 0.10677705
v 0.22223303 0.52551309 0.09673065
v 0.25840062 0.51057743 0.11152342
v 0.19093885 0.41731271 0.04867380
v 0.19503069 0.41515535 0.04910891
v 0.19444067 0.49873959 0.07284064
v 0.20535226 0.51063274 0.08011839
v 0.23872301 0.50924989 0.09728437
v 0.26922027 0.47644676 0.10088368
v 0.26922027 0.49708010 0.11041592
v 0.19984283 0.53956364 0.10147696
v 0.19093885 0.54161039 0.09775903
v 0.22802596 0.51522406 0.09439704
v 0.20037920 0.52186218 0.08245204
v 0.21135208 0.52827899 0.09372461
v 0.26325109 0.49984593 0.10796365
v 0.19093885 0.49846296 0.07193092
v 0.19462457 0.51599854 0.07814073
v 0.21112988 0.51599854 0.08549759
v 0.26922027 0.49320787 0.10851738
v 0.25082230 0.49873959 0.09981575
v 0.19093885 0.53829132 0.09388283
v 0.19093885 0.52501520 0.08067216
v 0.19447133 0.53259367 0.08961112
v 0.19093885 0.53524890 0.09052084
v 0.19093885 0.51594322 0.07742884
v 0.19093885 0.52241534 0.07960422
v 0.19093885 0.52800234 0.08351993
f 1 2 3
f 1 3 4
f 1 4 12
f 1 12 23
f 1 23 41
f 1 41 57
f 1 57 40
f 1 40 39
f 1 39 56
f 1 56 67
f 1 67 75
f 1 75 88
f 1 88 96
f 1 96 102
f 1 102 114
f 1 114 124
f 1 124 127
f 1 127 130
f 1 130 125
f 1 125 129
f 1 129 128
f 1 128 119
f 1 119 106
f 1 106 98
f 1 98 90
f 1 90 89
f 1 89 77
f 1 77 69
f 1 69 68
f 1 68 58
f 1 58 43
f 1 43 42
f 1 42 24
f 1 24 13
f 1 13 5
f 1 5 14
f 1 14 9
f 1 9 15
f 1 15 6
f 1 6 2
f 2 6 3
f 3 7 4
f 3 6 8
f 3 8 9
f 3 9 10
f 3 10 11
f 3 11 7
f 4 7 12
f 5 13 28
f 5 28 49
f 5 49 29
f 5 29 14
f 6 15 8
f 7 11 12
f 8 15 9
f 9 16 17
f 9 17 10
f 9 14 29
f 9 29 48
f 9 48 47
f 9 47 46
f 9 46 60
f 9 60 71
f 9 71 81
f 9 81 92
f 9 92 93
f 9 93 100
f 9 100 111
f 9 111 122
f 9 122 112
f 9 112 101
f 9 101 94
f 9 94 83
f 9 83 73
f 9 73 72
f 9 72 61
f 9 61 50
f 9 50 30
f 9 30 16
f 10 17 18
f 10 18 19
f 10 19 11
f 11 19 20
f 11 20 21
f 11 21 22
f 11 22 12
f 12 22 23
f 13 24 25
f 13 25 26
f 13 26 27
f 13 27 28
f 16 18 17
f 16 30 31
f 16 31 32
f 16 32 18
f 18 32 31
f 18 31 33
f 18 33 19
f 19 33 20
f 20 33 34
f 20 34 35
f 20 35 36
f 20 36 37
f 20 37 21
f 21 38 22
f 21 37 39
f 21 39 40
f 21 40 38
f 22 38 23
f 23 38 41
f 24 42 25
f 25 42 43
f 25 43 44
f 25 44 45
f 25 45 26
f 26 29 27
f 26 45 46
f 26 46 47
f 26 47 48
f 26 48 29
f 27 29 49
f 27 49 28
f 30 50 51
f 30 51 52
f 30 52 34
f 30 34 31
f 31 34 33
f 34 52 35
f 35 52 53
f 35 53 54
f 35 54 37
f 35 37 36
f 37 54 55
f 37 55 56
f 37 56 39
f 38 40 57
f 38 57 41
f 43 58 59
f 43 59 44
f 44 59 60
f 44 60 46
f 44 46 45
f 50 61 51
f 51 61 62
f 51 62 63
f 51 63 52
f 52 63 53
f 53 64 65
f 53 65 54
f 53 63 66
f 53 66 64
f 54 65 55
f 55 67 56
f 55 65 67
f 58 68 59
f 59 68 69
f 59 69 70
f 59 70 60
f 60 70 71
f 61 72 62
f 62 72 73
f 62 73 63
f 63 73 66
f 64 74 75
f 64 75 67
f 64 67 65
f 64 66 73
f 64 73 76
f 64 76 74
f 69 77 70
f 70 77 78
f 70 78 79
f 70 79 80
f 70 80 71
f 71 80 82
f 71 82 81
f 73 83 84
f 73 84 74
f 73 74 76
f 74 85 86
f 74 86 75
f 74 84 87
f 74 87 85
f 75 86 88
f 77 89 78
f 78 89 90
f 78 90 91
f 78 91 79
f 79 92 81
f 79 81 82
f 79 82 80
f 79 91 93
f 79 93 92
f 83 94 84
f 84 95 87
f 84 94 95
f 85 96 88
f 85 88 86
f 85 87 97
f 85 97 96
f 87 95 97
f 90 98 91
f 91 98 99
f 91 99 93
f 93 99 100
f 94 101 95
f 95 101 97
f 96 97 103
f 96 103 102
f 97 104 103
f 97 101 105
f 97 105 104
f 98 106 107
f 98 107 99
f 99 107 108
f 99 108 109
f 99 109 100
f 100 109 110
f 100 110 111
f 101 112 105
f 102 103 113
f 102 113 114
f 103 104 113
f 104 105 110
f 104 110 115
f 104 115 116
f 104 116 117
f 104 117 114
f 104 114 113
f 105 112 118
f 105 118 110
f 106 119 108
f 106 108 107
f 108 119 120
f 108 120 109
f 109 120 116
f 109 116 121
f 109 121 110
f 110 121 116
f 110 116 115
f 110 118 122
f 110 122 123
f 110 123 111
f 111 123 122
f 112 122 118
f 114 117 124
f 116 125 117
f 116 120 125
f 117 126 127
f 117 127 124
f 117 125 126
f 119 128 120
f 120 128 129
f 120 129 125
f 125 130 126
f 126 130 127

