# https://github.com/mikedh/trimesh
v -0.10734071 -0.12858392 0.34172549
v -0.10734071 0.47732211 0.34172549
v -0.03406741 -0.12858392 0.34172549
v -0.10734071 -0.12858392 0.90767015
v -0.03406741 0.47732211 0.34172549
v -0.10734071 0.47732211 0.91461425
v -0.03406741 -0.12858392 0.92985742
v -0.10347479 -0.00041603 1.07949442
v -0.10734071 0.00397286 1.08372863
v -0.03406741 0.47732211 0.84915334
v -0.09255838 0.47732211 0.90631520
v -0.10734071 0.34162194 1.10744021
v -0.10304444 0.33776683 1.11192848
v -0.03406741 0.30591763 1.13149055
v -0.03406741 -0.01631099 1.07492149
v -0.10734071 0.01583478 1.09676999
v -0.08052309 0.47732211 0.89691523
v -0.03406741 0.42180841 0.94213663
v -0.09021300 0.47732211 0.90453683
v -0.10734071 0.33432686 1.11768701
v -0.09843976 0.32222772 1.13072837
v -0.04227264 0.30692588 1.13259144
v -0.09669686 0.30568036 1.14766523
v -0.03406741 0.30271488 1.13436981
v -0.03406741 -0.01435378 1.07678451
v -0.03406741 -0.00913454 1.08135749
v -0.03406741 -0.00581320 1.08406740
v -0.10734071 0.04388817 1.11827983
v -0.10734071 0.32305807 1.13174461
v -0.10734071 0.31718643 1.13826531
v -0.04227264 0.29749567 1.14105987
v -0.10734071 0.30698519 1.14893553
v -0.10734071 0.24281228 1.20143973
v -0.03406741 0.29654670 1.13962027
v -0.03406741 0.00053291 1.08855562
v -0.10734071 0.05586870 1.12666351
v -0.10734071 0.24174473 1.20228656
v -0.03406741 0.28770958 1.14664899
v -0.03406741 0.00563353 1.09185830
v -0.10734071 0.06429064 1.13157520
v -0.10734071 0.23041661 1.20635137
v -0.09725632 0.23913509 1.19949196
v -0.06641496 0.25414041 1.18077677
v -0.03406741 0.28670134 1.14732652
v -0.03406741 0.01536028 1.09634663
v -0.10734071 0.20111770 1.19805235
v -0.10734071 0.19536468 1.19525779
v -0.10734071 0.22822216 1.20685949
v -0.05057113 0.23699997 1.18035331
v -0.06013911 0.24364261 1.18255514
v -0.05513994 0.24826875 1.17857499
v -0.03406741 0.25680934 1.16544893
v -0.03406741 0.26042721 1.16367056
v -0.03406741 0.27406841 1.15571025
v -0.03406741 0.19056060 1.16206154
v -0.03561666 0.18961165 1.16265437
v -0.05459484 0.20787898 1.17840558
v -0.06586986 0.20129563 1.18111549
v -0.07608336 0.21131893 1.18949927
v -0.09654623 0.21446236 1.19932260
v -0.10734071 0.20870932 1.20152438
v -0.05917800 0.22822216 1.18501094
v -0.10734071 0.21025136 1.20211721
v -0.05038465 0.21914779 1.18052271
v -0.05035595 0.22822216 1.18052271
v -0.04190685 0.22822216 1.17518761
v -0.03406741 0.23842340 1.16985250
v -0.03406741 0.24459159 1.16925972
v -0.03406741 0.25271698 1.16722729
v -0.03406741 0.21161549 1.16705794
v -0.05980918 0.21262375 1.18255514
v -0.03406741 0.22294361 1.16909032
v -0.03406741 0.22822216 1.17002190
f 1 2 5
f 1 5 3
f 1 3 7
f 1 7 4
f 1 4 9
f 1 9 16
f 1 16 28
f 1 28 36
f 1 36 40
f 1 40 47
f 1 47 46
f 1 46 61
f 1 61 63
f 1 63 48
f 1 48 41
f 1 41 37
f 1 37 33
f 1 33 32
f 1 32 30
f 1 30 29
f 1 29 20
f 1 20 12
f 1 12 6
f 1 6 2
f 2 6 11
f 2 11 19
f 2 19 17
f 2 17 10
f 2 10 5
f 3 5 10
f 3 10 18
f 3 18 14
f 3 14 24
f 3 24 34
f 3 34 38
f 3 38 44
f 3 44 54
f 3 54 53
f 3 53 52
f 3 52 69
f 3 69 68
f 3 68 67
f 3 67 73
f 3 73 72
f 3 72 70
f 3 70 55
f 3 55 45
f 3 45 39
f 3 39 35
f 3 35 27
f 3 27 26
f 3 26 25
f 3 25 15
f 3 15 7
f 4 7 8
f 4 8 9
f 6 12 13
f 6 13 14
f 6 14 11
f 7 15 8
f 8 15 9
f 9 15 16
f 10 17 18
f 11 14 19
f 12 20 13
f 13 20 21
f 13 21 14
f 14 21 22
f 14 22 23
f 14 23 24
f 14 18 17
f 14 17 19
f 15 25 16
f 16 25 26
f 16 26 27
f 16 27 28
f 20 29 21
f 21 29 30
f 21 30 23
f 21 23 22
f 23 31 24
f 23 30 32
f 23 32 33
f 23 33 31
f 24 31 34
f 27 35 28
f 28 35 36
f 31 33 37
f 31 37 38
f 31 38 34
f 35 39 36
f 36 39 40
f 37 41 42
f 37 42 43
f 37 43 38
f 38 43 44
f 39 45 46
f 39 46 47
f 39 47 40
f 41 48 49
f 41 49 50
f 41 50 42
f 42 50 43
f 43 50 51
f 43 51 52
f 43 52 53
f 43 53 54
f 43 54 44
f 45 55 56
f 45 56 57
f 45 57 58
f 45 58 59
f 45 59 60
f 45 60 61
f 45 61 46
f 48 62 49
f 48 63 60
f 48 60 64
f 48 64 62
f 49 62 65
f 49 65 66
f 49 66 67
f 49 67 68
f 49 68 69
f 49 69 50
f 50 69 51
f 51 69 52
f 55 70 64
f 55 64 56
f 56 64 57
f 57 64 71
f 57 71 58
f 58 71 59
f 59 71 64
f 59 64 60
f 60 63 61
f 62 64 65
f 64 70 72
f 64 72 73
f 64 73 66
f 64 66 65
f 66 73 67

