# https://github.com/mikedh/trimesh
v 0.31279551 0.44529322 0.42572527
v 0.29805965 0.44456002 0.42572527
v 0.31496741 0.44500807 0.42572527
v 0.26922027 0.50875663 0.32118816
v 0.29588776 0.44423410 0.42572527
v 0.32901595 0.44187158 0.42572527
v 0.36284061 0.50549788 0.25516473
v 0.36284061 0.50887882 0.24650286
v 0.26922027 0.51266704 0.30955229
v 0.26922027 0.43853141 0.42572527
v 0.28273730 0.44154566 0.42572527
v 0.33017063 0.44158643 0.42572527
v 0.33098625 0.44130128 0.42572527
v 0.33713533 0.43902018 0.42572527
v 0.35089980 0.43816478 0.41553924
v 0.36284061 0.43559853 0.41037185
v 0.36284061 0.50969350 0.24326861
v 0.26922027 0.51678119 0.29200550
v 0.26922027 0.10675386 0.42572527
v 0.34633608 0.43531338 0.42572527
v 0.34702338 0.43502828 0.42572527
v 0.36284061 0.42818499 0.42572527
v 0.36284061 0.51380764 0.22505268
v 0.26922027 0.52028430 0.27575987
v 0.26922027 0.10675386 0.07516165
v 0.36284061 0.10675386 0.42572527
v 0.34660184 0.51596649 0.20813791
v 0.26922027 0.52289127 0.25884508
v 0.36284061 0.51234117 0.20676240
v 0.26922027 0.14968739 0.06374880
v 0.31192491 0.17779376 0.06687154
v 0.31279551 0.16064480 0.07267088
v 0.32214289 0.10675386 0.09787578
v 0.36284061 0.10675386 0.13460503
v 0.26922027 0.51942890 0.15743073
v 0.36284061 0.51083406 0.20118608
v 0.26922027 0.16064480 0.06107215
v 0.30570252 0.18357797 0.06408338
v 0.31279551 0.24516763 0.05207575
v 0.32969409 0.24516763 0.05675984
v 0.32162971 0.20227484 0.06430640
v 0.32823701 0.19575742 0.06910205
v 0.32943749 0.10675386 0.10140743
v 0.32486462 0.16064480 0.07854460
v 0.35165127 0.10675386 0.11958617
v 0.36284061 0.19445393 0.09527350
v 0.36058625 0.50985641 0.19594439
v 0.26922027 0.51478523 0.14103635
v 0.36284061 0.50932688 0.19672507
v 0.26922027 0.17693835 0.05746613
v 0.26922027 0.19445393 0.05456646
v 0.27316081 0.25123695 0.04709422
v 0.26922027 0.25506595 0.04635073
v 0.31279551 0.26207220 0.05088612
v 0.32969409 0.26207220 0.05464084
v 0.34793063 0.26174630 0.06140673
v 0.35445547 0.25588062 0.06482687
v 0.33278239 0.21135850 0.06690868
v 0.34348604 0.19445393 0.07783825
v 0.33045472 0.17763083 0.07597951
v 0.34319281 0.10675386 0.11047820
v 0.36026550 0.19445393 0.09263404
v 0.36284061 0.26036134 0.07122105
v 0.26922027 0.50639404 0.11809920
v 0.26922027 0.50667920 0.11876836
v 0.36284061 0.50712725 0.19334212
v 0.26922027 0.25054448 0.04690838
v 0.26922027 0.26207220 0.04597896
v 0.26922027 0.27616609 0.04649943
v 0.31279551 0.27897675 0.05307949
v 0.32969409 0.27897675 0.05605349
v 0.34725251 0.27848794 0.06174132
v 0.35578424 0.27254081 0.06404620
v 0.35578424 0.26712318 0.06404620
v 0.36284061 0.26142044 0.07103516
v 0.35194450 0.19445393 0.08419524
v 0.26922027 0.49710671 0.11040388
v 0.36284061 0.49555885 0.17743102
v 0.36284061 0.49519224 0.17694779
v 0.36284061 0.48284986 0.16263528
v 0.36284061 0.47845058 0.15754224
v 0.33712618 0.47262563 0.13248604
v 0.26922027 0.28423141 0.04776338
v 0.32668829 0.32655392 0.06296813
v 0.33796012 0.32052532 0.06449229
v 0.36284061 0.27852867 0.06891617
v 0.36284061 0.32969044 0.07583081
v 0.36284061 0.31286733 0.07348874
v 0.26922027 0.49323700 0.10854509
v 0.36284061 0.44533394 0.12813653
v 0.36284061 0.42993650 0.11932596
v 0.36284061 0.39885658 0.10170482
v 0.36284061 0.38358136 0.09326602
v 0.36284061 0.38166687 0.09226227
v 0.36284061 0.47160729 0.15047889
v 0.36284061 0.46431594 0.14393607
v 0.36284061 0.45413246 0.13482810
v 0.26922027 0.32969044 0.05560739
v 0.31993433 0.33783721 0.06452948
v 0.33127034 0.33119759 0.06538452
v 0.34660184 0.34659501 0.07426942
v 0.35744296 0.35738948 0.08058922
v 0.36284061 0.35413076 0.08144427
v 0.36284061 0.34565812 0.07932527
v 0.26922027 0.47645462 0.10088701
v 0.36284061 0.36358103 0.08434394
v 0.26922027 0.34651352 0.05943643
v 0.32969409 0.34659501 0.06973403
v 0.26922027 0.42468187 0.08055203
v 0.27232688 0.42362279 0.08092380
v 0.34580455 0.36321441 0.07925090
v 0.35090897 0.36863204 0.08244801
v 0.36284061 0.36280708 0.08404654
v 0.27837519 0.43001803 0.08519898
f 1 2 5
f 1 5 11
f 1 11 10
f 1 10 19
f 1 19 26
f 1 26 22
f 1 22 21
f 1 21 20
f 1 20 14
f 1 14 13
f 1 13 12
f 1 12 6
f 1 6 3
f 1 3 4
f 1 4 2
f 2 4 5
f 3 6 4
f 4 7 8
f 4 8 9
f 4 9 18
f 4 18 24
f 4 24 28
f 4 28 35
f 4 35 48
f 4 48 65
f 4 65 64
f 4 64 77
f 4 77 89
f 4 89 105
f 4 105 109
f 4 109 107
f 4 107 98
f 4 98 83
f 4 83 69
f 4 69 68
f 4 68 53
f 4 53 67
f 4 67 51
f 4 51 50
f 4 50 37
f 4 37 30
f 4 30 25
f 4 25 19
f 4 19 10
f 4 10 11
f 4 11 5
f 4 6 12
f 4 12 7
f 7 12 13
f 7 13 14
f 7 14 15
f 7 15 16
f 7 16 22
f 7 22 26
f 7 26 34
f 7 34 46
f 7 46 63
f 7 63 75
f 7 75 86
f 7 86 88
f 7 88 87
f 7 87 104
f 7 104 103
f 7 103 113
f 7 113 106
f 7 106 94
f 7 94 93
f 7 93 92
f 7 92 91
f 7 91 90
f 7 90 97
f 7 97 96
f 7 96 95
f 7 95 81
f 7 81 80
f 7 80 79
f 7 79 78
f 7 78 66
f 7 66 49
f 7 49 36
f 7 36 29
f 7 29 23
f 7 23 17
f 7 17 8
f 8 17 9
f 9 17 18
f 14 20 15
f 15 20 21
f 15 21 16
f 16 21 22
f 17 23 18
f 18 23 24
f 19 25 33
f 19 33 43
f 19 43 61
f 19 61 45
f 19 45 34
f 19 34 26
f 23 27 28
f 23 28 24
f 23 29 27
f 25 30 31
f 25 31 32
f 25 32 33
f 27 35 28
f 27 29 35
f 29 36 35
f 30 37 31
f 31 38 39
f 31 39 40
f 31 40 41
f 31 41 42
f 31 42 32
f 31 37 38
f 32 43 33
f 32 42 44
f 32 44 43
f 34 45 46
f 35 36 47
f 35 47 48
f 36 49 47
f 37 50 38
f 38 50 39
f 39 50 51
f 39 51 52
f 39 52 53
f 39 53 54
f 39 54 55
f 39 55 40
f 40 55 56
f 40 56 57
f 40 57 41
f 41 57 58
f 41 58 42
f 42 58 57
f 42 57 59
f 42 59 60
f 42 60 44
f 43 44 59
f 43 59 61
f 44 60 59
f 45 61 46
f 46 62 63
f 46 61 62
f 47 49 64
f 47 64 65
f 47 65 48
f 49 66 64
f 51 67 52
f 52 67 53
f 53 68 54
f 54 69 70
f 54 70 71
f 54 71 55
f 54 68 69
f 55 71 72
f 55 72 73
f 55 73 74
f 55 74 56
f 56 74 57
f 57 75 63
f 57 63 76
f 57 76 59
f 57 74 75
f 59 76 61
f 61 76 62
f 62 76 63
f 64 66 78
f 64 78 79
f 64 79 80
f 64 80 81
f 64 81 82
f 64 82 77
f 69 83 70
f 70 83 84
f 70 84 71
f 71 84 85
f 71 85 72
f 72 85 73
f 73 86 74
f 73 85 87
f 73 87 88
f 73 88 86
f 74 86 75
f 77 82 90
f 77 90 91
f 77 91 92
f 77 92 93
f 77 93 94
f 77 94 89
f 81 95 82
f 82 95 96
f 82 96 97
f 82 97 90
f 83 98 84
f 84 98 99
f 84 99 100
f 84 100 85
f 85 100 101
f 85 101 102
f 85 102 103
f 85 103 104
f 85 104 87
f 89 94 105
f 94 106 105
f 98 107 99
f 99 108 100
f 99 107 109
f 99 109 110
f 99 110 108
f 100 108 101
f 101 108 111
f 101 111 102
f 102 111 112
f 102 112 113
f 102 113 103
f 105 106 112
f 105 112 114
f 105 114 110
f 105 110 109
f 106 113 112
f 108 110 111
f 110 114 112
f 110 112 111

