# https://github.com/mikedh/trimesh
v 0.48570117 0.39338840 0.44492291
v 0.49543359 0.39055889 0.44492291
v 0.48811901 0.42199769 0.34879503
v 0.48570117 0.42325526 0.34649882
v 0.48570117 -0.37859120 0.44492291
v 0.50395709 0.38749363 0.44492291
v 0.49109568 0.42317665 0.33752272
v 0.51569087 0.38120587 0.44492291
v 0.48570117 0.42427699 0.34100184
v 0.48570117 -0.27099194 0.26682715
v 0.49076039 -0.27075614 0.26703592
v 0.49119727 -0.37733365 0.44492291
v 0.49109568 0.42317665 0.33223447
v 0.48570117 0.42435560 0.32872057
v 0.52644937 0.37413213 0.44492291
v 0.53498305 0.36650823 0.44492291
v 0.54415672 0.35801975 0.44492291
v 0.50726894 0.40580670 0.35192624
v 0.50741120 0.40604249 0.34336761
v 0.50743151 0.40604249 0.33428713
v 0.48570117 -0.15380381 0.11301558
v 0.58947651 -0.25370058 0.28408356
v 0.58947651 -0.33740637 0.42063871
v 0.54949028 -0.36318618 0.44492291
v 0.53353030 -0.36711605 0.44492291
v 0.49732318 -0.37591890 0.44492291
v 0.51569087 -0.14987398 0.11833864
v 0.53259563 -0.13918479 0.11047589
v 0.58947651 -0.15254626 0.14843296
v 0.49822735 0.41398078 0.32764204
v 0.48830188 0.42184049 0.32096214
v 0.48570117 0.42325526 0.32343232
v 0.55254817 0.34819513 0.44492291
v 0.55255828 0.34819513 0.44481853
v 0.58947651 0.30190149 0.34336761
v 0.58947651 0.29655691 0.32562415
v 0.48570117 -0.14743747 0.10477012
v 0.58947651 -0.35061067 0.44332252
v 0.56472893 -0.35862755 0.44460978
v 0.56504386 -0.35870617 0.44492291
v 0.51478669 -0.14044234 0.10584864
v 0.50854902 -0.13556932 0.09791629
v 0.54617838 -0.13698406 0.11318957
v 0.58947651 -0.13698406 0.13006324
v 0.58947651 -0.15034555 0.14578886
v 0.49409259 0.41052254 0.31316894
v 0.48570117 0.41453098 0.30979420
v 0.48570117 0.41861801 0.31469975
v 0.48570117 0.42223348 0.31974444
v 0.55889760 0.33986385 0.44492291
v 0.58947651 0.29639971 0.35996299
v 0.55894838 0.33978524 0.44481853
v 0.55896869 0.33970664 0.44492291
v 0.58947651 0.29246986 0.32023153
v 0.48570117 -0.13879180 0.09488944
v 0.58947651 -0.35147524 0.44492291
v 0.48570117 -0.12904576 0.09050572
v 0.48570117 -0.12676646 0.08956638
v 0.49877593 -0.12676646 0.09245405
v 0.51478669 -0.12653066 0.09624631
v 0.51981550 -0.13203246 0.09962104
v 0.57906342 -0.12118606 0.11305040
v 0.55745502 -0.13494055 0.11538143
v 0.58947651 -0.12983174 0.12387042
v 0.48942957 0.40423477 0.30189660
v 0.48570117 0.40596392 0.30029621
v 0.48570117 0.41115131 0.30603674
v 0.58947651 0.28916879 0.31664803
v 0.58947651 0.28979755 0.37447089
v 0.58947651 0.27274200 0.40633957
v 0.58947651 0.27965855 0.39371039
v 0.58947651 0.28736106 0.37958517
v 0.58947651 0.25065627 0.44492291
v 0.58947651 0.26016649 0.42843191
v 0.48570117 -0.10955372 0.09095801
v 0.52603286 -0.11647026 0.09753354
v 0.52603286 -0.12079308 0.09753354
v 0.58136956 -0.10986811 0.11197188
v 0.58947651 -0.10986811 0.11593807
v 0.58947651 -0.12676646 0.12171338
v 0.54061118 0.21913887 0.20079360
v 0.52470199 0.23729476 0.19915844
v 0.51936850 0.21788132 0.18391993
v 0.48570117 0.40109090 0.29702585
v 0.58947651 0.14455034 0.20649937
v 0.58946637 0.14462894 0.20653414
v 0.57736688 0.15681146 0.19661865
v 0.57433942 0.16805083 0.20114154
v 0.55944617 0.18832885 0.19762763
v 0.54432941 0.20789950 0.19574889
v 0.51569087 0.16058412 0.15653930
v 0.53342872 0.04363180 0.12856725
v 0.53259563 0.02531871 0.12449665
v 0.51569087 -0.11285479 0.09600273
v 0.48570117 0.17402421 0.16408899
v 0.49877593 0.16058412 0.15789617
v 0.57932755 -0.09674241 0.11301558
v 0.56640516 -0.10986811 0.10779692
v 0.58947651 -0.09218378 0.11739930
v 0.53894507 0.20011840 0.18447657
v 0.52767865 0.20656337 0.18071914
v 0.52084155 0.18439900 0.16669832
v 0.51540643 0.19335906 0.16979471
v 0.51451243 0.21182934 0.17936227
v 0.50810203 0.22000344 0.18259783
v 0.50653750 0.22000344 0.18259783
v 0.48570117 0.23941689 0.19540100
v 0.58947651 0.13008848 0.19870615
v 0.58092256 0.14368577 0.19345267
v 0.57224667 0.14368577 0.18499845
v 0.56749219 0.16247046 0.18990399
v 0.55481364 0.17748247 0.18576386
v 0.56291045 0.17748247 0.19421808
v 0.54929724 0.19422363 0.19105210
v 0.49847117 0.17866142 0.16269736
v 0.50390631 0.18707130 0.16534145
v 0.50957508 0.18707130 0.16534145
v 0.51540643 0.17826843 0.16245378
v 0.52714020 0.17315964 0.16377588
v 0.54450214 0.03891599 0.12971536
v 0.48570117 0.18141232 0.16701144
v 0.49262966 0.18502778 0.16624603
v 0.56063480 0.15689006 0.18106702
v 0.54298841 0.18887904 0.18134537
v 0.53303251 0.19445942 0.17776187
v 0.49847117 0.19335906 0.16941201
v 0.48570117 0.19107974 0.17160387
v 0.55745502 0.16812943 0.18315453
v 0.53036065 0.16058412 0.16165360
v 0.54636124 0.17748247 0.17897957
f 1 2 3
f 1 3 4
f 1 4 9
f 1 9 14
f 1 14 32
f 1 32 49
f 1 49 48
f 1 48 47
f 1 47 67
f 1 67 66
f 1 66 84
f 1 84 107
f 1 107 127
f 1 127 121
f 1 121 95
f 1 95 75
f 1 75 58
f 1 58 57
f 1 57 55
f 1 55 37
f 1 37 21
f 1 21 10
f 1 10 5
f 1 5 12
f 1 12 26
f 1 26 25
f 1 25 24
f 1 24 40
f 1 40 56
f 1 56 73
f 1 73 53
f 1 53 50
f 1 50 33
f 1 33 17
f 1 17 16
f 1 16 15
f 1 15 8
f 1 8 6
f 1 6 2
f 2 6 3
f 3 7 4
f 3 6 8
f 3 8 7
f 4 7 9
f 5 10 11
f 5 11 12
f 7 13 14
f 7 14 9
f 7 8 15
f 7 15 16
f 7 16 17
f 7 17 18
f 7 18 19
f 7 19 20
f 7 20 13
f 10 21 11
f 11 22 23
f 11 23 24
f 11 24 25
f 11 25 26
f 11 26 12
f 11 21 27
f 11 27 28
f 11 28 29
f 11 29 22
f 13 30 31
f 13 31 14
f 13 20 30
f 14 31 32
f 17 33 34
f 17 34 18
f 18 34 19
f 19 34 35
f 19 35 20
f 20 35 36
f 20 36 30
f 21 37 27
f 22 29 45
f 22 45 44
f 22 44 64
f 22 64 80
f 22 80 79
f 22 79 99
f 22 99 108
f 22 108 85
f 22 85 68
f 22 68 54
f 22 54 36
f 22 36 35
f 22 35 51
f 22 51 69
f 22 69 72
f 22 72 71
f 22 71 70
f 22 70 74
f 22 74 73
f 22 73 56
f 22 56 38
f 22 38 23
f 23 38 39
f 23 39 24
f 24 39 40
f 27 37 41
f 27 41 28
f 28 41 42
f 28 42 43
f 28 43 44
f 28 44 45
f 28 45 29
f 30 36 46
f 30 46 31
f 31 47 48
f 31 48 49
f 31 49 32
f 31 46 47
f 33 50 34
f 34 50 35
f 35 50 52
f 35 52 53
f 35 53 51
f 36 54 46
f 37 55 42
f 37 42 41
f 38 56 40
f 38 40 39
f 42 57 58
f 42 58 59
f 42 59 60
f 42 60 61
f 42 61 62
f 42 62 63
f 42 63 43
f 42 55 57
f 43 63 44
f 44 63 64
f 46 65 66
f 46 66 67
f 46 67 47
f 46 54 68
f 46 68 65
f 50 53 52
f 51 53 69
f 53 70 71
f 53 71 72
f 53 72 69
f 53 73 74
f 53 74 70
f 58 75 76
f 58 76 77
f 58 77 59
f 59 77 60
f 60 77 62
f 60 62 61
f 62 77 78
f 62 78 79
f 62 79 80
f 62 80 64
f 62 64 63
f 65 68 81
f 65 81 82
f 65 82 66
f 66 82 83
f 66 83 84
f 68 85 86
f 68 86 87
f 68 87 88
f 68 88 89
f 68 89 90
f 68 90 81
f 75 91 92
f 75 92 93
f 75 93 94
f 75 94 76
f 75 95 96
f 75 96 91
f 76 94 93
f 76 93 97
f 76 97 98
f 76 98 77
f 77 98 78
f 78 98 97
f 78 97 99
f 78 99 79
f 81 90 82
f 82 90 100
f 82 100 101
f 82 101 83
f 83 101 102
f 83 102 103
f 83 103 104
f 83 104 105
f 83 105 84
f 84 105 106
f 84 106 107
f 85 108 109
f 85 109 86
f 86 109 87
f 87 109 110
f 87 110 111
f 87 111 112
f 87 112 113
f 87 113 89
f 87 89 88
f 89 113 112
f 89 112 114
f 89 114 90
f 90 114 100
f 91 96 115
f 91 115 116
f 91 116 117
f 91 117 118
f 91 118 119
f 91 119 120
f 91 120 92
f 92 120 93
f 93 120 97
f 95 121 122
f 95 122 115
f 95 115 96
f 97 120 99
f 99 120 123
f 99 123 110
f 99 110 109
f 99 109 108
f 100 114 112
f 100 112 124
f 100 124 125
f 100 125 101
f 101 125 119
f 101 119 102
f 102 118 117
f 102 117 103
f 102 119 118
f 103 117 104
f 104 117 105
f 105 117 116
f 105 116 106
f 106 116 107
f 107 116 126
f 107 126 122
f 107 122 127
f 110 123 128
f 110 128 111
f 111 128 112
f 112 128 124
f 115 122 116
f 116 122 126
f 119 128 123
f 119 123 129
f 119 129 120
f 119 125 124
f 119 124 130
f 119 130 128
f 120 129 123
f 121 127 122
f 124 128 130

