# https://github.com/mikedh/trimesh
v -0.16064674 0.68766036 0.62512580
v -0.17755257 0.68628947 0.62512580
v -0.14374087 0.68733776 0.62512580
v -0.20025550 0.69386965 0.57497038
v -0.20618737 0.69386965 0.57497038
v -0.19445842 0.68564431 0.61389076
v -0.19421577 0.68137032 0.62512580
v -0.13802470 0.68701517 0.62512580
v -0.19453933 0.69467608 0.56323601
v -0.20823657 0.69443411 0.56318053
v -0.22889029 0.69217620 0.54501029
v -0.24514903 0.68878926 0.54625862
v -0.21163391 0.69088593 0.58037985
v -0.25757901 0.67919303 0.55957422
v -0.20152276 0.67758028 0.62512580
v -0.12680805 0.68612813 0.62512580
v -0.19445842 0.69524053 0.54625862
v -0.18356534 0.69403095 0.55763236
v -0.21136428 0.69419224 0.52936446
v -0.22360553 0.69338583 0.52936446
v -0.22365945 0.69322452 0.53851893
v -0.23207192 0.69241815 0.52936446
v -0.24514903 0.68895060 0.52936446
v -0.26054494 0.68120908 0.54625862
v -0.30328143 0.64193712 0.58007470
v -0.31007613 0.63080871 0.59699661
v -0.29681029 0.63903402 0.59735724
v -0.30675967 0.62750246 0.60770456
v -0.38279559 0.57307003 0.62512580
v -0.12111885 0.68459601 0.62512580
v -0.10990221 0.68096717 0.61389076
v -0.12680805 0.68532176 0.61389076
v -0.18467084 0.69362774 0.53430233
v -0.18318786 0.69411157 0.54625862
v -0.19896127 0.69378903 0.51840683
v -0.21136428 0.69378903 0.51799072
v -0.22101706 0.69338583 0.51954420
v -0.22729945 0.69112791 0.51333026
v -0.24514903 0.68677331 0.51244255
v -0.25925073 0.68032204 0.51244255
v -0.26059888 0.68120908 0.52936446
v -0.26906529 0.67483843 0.52936446
v -0.26898440 0.67451594 0.54625862
v -0.38279559 -0.12858391 0.62512580
v -0.38279559 0.57452152 0.58276556
v -0.10990221 0.68112846 0.62512580
v -0.10903938 0.68080587 0.62512580
v -0.10734071 0.67975758 0.61389076
v -0.10734071 0.67967691 0.61117217
v -0.10734071 0.67258051 0.50989040
v -0.17755257 0.68911186 0.49554839
v -0.19445842 0.68999889 0.49554839
v -0.21136428 0.69201494 0.50955751
v -0.21136428 0.68870865 0.49554839
v -0.22827014 0.68645073 0.49554839
v -0.24563435 0.68120908 0.49493809
v -0.25706670 0.67870919 0.50015337
v -0.26769016 0.67395139 0.51244255
v -0.38279559 0.57444090 0.58054629
v -0.38279559 0.57065081 0.49554839
v -0.38279559 -0.12858391 0.34172549
v -0.10734071 -0.12858391 0.62512580
v -0.10734071 0.67999945 0.62512580
v -0.10734071 0.67096772 0.49554839
v -0.17755257 0.68427342 0.47865422
v -0.19445842 0.68419280 0.47865422
v -0.21184962 0.68080587 0.47729493
v -0.22827014 0.67983821 0.48117864
v -0.24034962 0.67806412 0.48428562
v -0.25159320 0.67508041 0.48889059
v -0.30503403 0.60919704 0.43562819
v -0.27208514 0.66040377 0.48570040
v -0.27507805 0.66314558 0.49554839
v -0.28351748 0.65604918 0.49554839
v -0.37381687 0.57629562 0.48450754
v -0.38279559 0.57048953 0.49516002
v -0.10734071 -0.12858391 0.34172549
v -0.38279559 0.32227774 0.34172549
v -0.10734071 0.67000002 0.49324589
v -0.16690216 0.67758028 0.46836238
v -0.17755257 0.67830598 0.46777982
v -0.19445842 0.67782215 0.46861204
v -0.20653790 0.67693512 0.46947201
v -0.21780847 0.67580616 0.47074808
v -0.22827014 0.67387078 0.47271769
v -0.30152884 0.59064965 0.40400365
v -0.30729892 0.59395596 0.41529417
v -0.31856950 0.58952074 0.42369964
v -0.32428567 0.57823104 0.41493354
v -0.38279559 0.56476405 0.48212183
v -0.38279559 0.56548980 0.48375854
v -0.10734071 0.55799025 0.34172549
v -0.38279559 0.39372531 0.34943744
v -0.32215559 0.41453060 0.34172549
v -0.10734071 0.66395200 0.48095671
v -0.15075127 0.66032315 0.45216173
v -0.16064674 0.66185532 0.45074696
v -0.17755257 0.67088705 0.45931886
v -0.17755257 0.66241983 0.45038632
v -0.19445842 0.66959680 0.46015109
v -0.19445842 0.66112957 0.45160691
v -0.24514903 0.58911753 0.38805267
v -0.26205489 0.58734345 0.38932876
v -0.27896074 0.59371399 0.40017541
v -0.29025827 0.59242373 0.40175664
v -0.27985052 0.58266626 0.39074355
v -0.29586657 0.58427911 0.39726264
v -0.30886279 0.57936000 0.39981478
v -0.31371615 0.58444034 0.40946861
v -0.32013337 0.57186039 0.40367075
v -0.33960069 0.56000624 0.41767988
v -0.38279559 0.40348283 0.35221154
v -0.10734071 0.62218014 0.42325580
v -0.11416238 0.55637745 0.34172549
v -0.26205489 0.57887612 0.38317028
v -0.38279559 0.39727353 0.35013096
v -0.25172802 0.48952637 0.34172549
v -0.31039968 0.42896526 0.34172549
v -0.31927054 0.41880455 0.34172549
v -0.10734071 0.62863142 0.43171674
v -0.27478147 0.57661820 0.38452959
v -0.28605202 0.57363448 0.38605533
v -0.14250056 0.54936168 0.34172549
f 1 2 7
f 1 7 15
f 1 15 29
f 1 29 44
f 1 44 62
f 1 62 63
f 1 63 47
f 1 47 46
f 1 46 30
f 1 30 16
f 1 16 8
f 1 8 3
f 1 3 4
f 1 4 5
f 1 5 2
f 2 5 6
f 2 6 7
f 3 8 9
f 3 9 4
f 4 9 5
f 5 9 10
f 5 10 11
f 5 11 12
f 5 12 13
f 5 13 6
f 6 13 14
f 6 14 7
f 7 14 15
f 8 16 9
f 9 17 10
f 9 16 18
f 9 18 17
f 10 17 19
f 10 19 20
f 10 20 21
f 10 21 22
f 10 22 11
f 11 22 12
f 12 22 23
f 12 23 24
f 12 24 14
f 12 14 13
f 14 24 25
f 14 25 26
f 14 26 27
f 14 27 15
f 15 27 28
f 15 28 29
f 16 30 31
f 16 31 32
f 16 32 33
f 16 33 34
f 16 34 18
f 17 18 34
f 17 34 33
f 17 33 35
f 17 35 36
f 17 36 19
f 19 36 37
f 19 37 20
f 20 37 22
f 20 22 21
f 22 38 39
f 22 39 23
f 22 37 38
f 23 39 40
f 23 40 41
f 23 41 24
f 24 41 42
f 24 42 43
f 24 43 29
f 24 29 25
f 25 29 26
f 26 29 27
f 27 29 28
f 29 43 45
f 29 45 59
f 29 59 60
f 29 60 76
f 29 76 91
f 29 91 90
f 29 90 112
f 29 112 116
f 29 116 93
f 29 93 78
f 29 78 61
f 29 61 44
f 30 46 31
f 31 46 47
f 31 47 48
f 31 48 49
f 31 49 50
f 31 50 32
f 32 51 33
f 32 50 51
f 33 51 35
f 35 52 36
f 35 51 52
f 36 52 53
f 36 53 37
f 37 53 54
f 37 54 38
f 38 54 55
f 38 55 39
f 39 55 56
f 39 56 57
f 39 57 40
f 40 57 58
f 40 58 42
f 40 42 41
f 42 59 45
f 42 45 43
f 42 58 60
f 42 60 59
f 44 61 77
f 44 77 62
f 47 63 48
f 48 63 62
f 48 62 77
f 48 77 92
f 48 92 113
f 48 113 120
f 48 120 95
f 48 95 79
f 48 79 64
f 48 64 50
f 48 50 49
f 50 64 51
f 51 65 52
f 51 64 65
f 52 65 66
f 52 66 54
f 52 54 53
f 54 66 55
f 55 66 67
f 55 67 68
f 55 68 69
f 55 69 56
f 56 69 57
f 57 69 70
f 57 70 71
f 57 71 72
f 57 72 73
f 57 73 58
f 58 73 74
f 58 74 75
f 58 75 60
f 60 75 76
f 61 78 94
f 61 94 119
f 61 119 118
f 61 118 117
f 61 117 123
f 61 123 114
f 61 114 92
f 61 92 77
f 64 79 80
f 64 80 65
f 65 80 81
f 65 81 66
f 66 81 82
f 66 82 83
f 66 83 67
f 67 83 84
f 67 84 68
f 68 84 85
f 68 85 69
f 69 85 86
f 69 86 70
f 70 86 71
f 71 86 87
f 71 87 88
f 71 88 75
f 71 75 73
f 71 73 72
f 73 75 74
f 75 88 89
f 75 89 90
f 75 90 91
f 75 91 76
f 78 93 94
f 79 95 80
f 80 95 96
f 80 96 97
f 80 97 81
f 81 97 98
f 81 98 82
f 82 98 99
f 82 99 100
f 82 100 83
f 83 100 101
f 83 101 102
f 83 102 103
f 83 103 84
f 84 103 104
f 84 104 105
f 84 105 86
f 84 86 85
f 86 105 106
f 86 106 107
f 86 107 108
f 86 108 109
f 86 109 87
f 87 109 88
f 88 109 89
f 89 109 110
f 89 110 111
f 89 111 90
f 90 111 112
f 92 99 98
f 92 98 97
f 92 97 96
f 92 96 113
f 92 114 115
f 92 115 103
f 92 103 102
f 92 102 99
f 93 116 117
f 93 117 118
f 93 118 119
f 93 119 94
f 95 120 96
f 96 120 113
f 99 102 101
f 99 101 100
f 103 115 121
f 103 121 106
f 103 106 105
f 103 105 104
f 106 121 107
f 107 121 122
f 107 122 108
f 108 122 112
f 108 112 110
f 108 110 109
f 110 112 111
f 112 122 117
f 112 117 116
f 114 123 115
f 115 123 121
f 117 122 121
f 117 121 123

