# https://github.com/mikedh/trimesh
v -0.71684067 0.00171687 0.32391917
v -0.72605955 0.00171687 0.32978422
v -0.72942138 0.00520948 0.33249889
v -0.71684067 0.00657212 0.32479055
v -0.71684067 0.00171687 0.60728449
v -0.72938197 0.00171687 0.33253242
v -0.74443158 0.05189659 0.36819187
v -0.71684067 0.05927868 0.33829689
v -0.71684067 0.04227871 0.33209671
v -0.74290822 0.00846394 0.35347897
v -0.77476710 0.04227871 0.40703518
v -0.76531190 0.04116743 0.39319370
v -0.76003274 0.04606236 0.38692648
v -0.71684067 0.09521017 0.66627005
v -0.80310659 0.01284294 0.60798829
v -0.78636290 0.00171687 0.60088320
v -0.73987467 0.00171687 0.34945724
v -0.74854199 0.05819386 0.37707321
v -0.71684067 0.10944519 0.36383496
v -0.71684067 0.10296268 0.36028243
v -0.71684067 0.07524677 0.34577065
v -0.71684067 0.07024599 0.34339112
v -0.75777396 0.05918608 0.39037848
v -0.76143788 0.01555499 0.38447993
v -0.78023014 0.04227871 0.41548086
v -0.77895632 0.05374873 0.41782686
v -0.71684067 0.13687006 0.66627005
v -0.74638827 0.11558368 0.66627005
v -0.82002091 0.09298761 0.64703270
v -0.83285115 0.08037983 0.64093306
v -0.82002091 0.04524212 0.62521475
v -0.81417708 0.01472152 0.60704988
v -0.82002091 0.03678844 0.61988594
v -0.80350051 0.00171687 0.59635875
v -0.74961884 0.00171687 0.36946540
v -0.74842378 0.09298761 0.39654516
v -0.74584987 0.10521172 0.39989661
v -0.71684067 0.12509574 0.37459313
v -0.78327685 0.05930514 0.42714392
v -0.77675009 0.06502031 0.42094373
v -0.77816839 0.01611063 0.41879879
v -0.78548308 0.02537133 0.42794826
v -0.77963918 0.02537133 0.41625169
v -0.78750542 0.04227871 0.42794826
v -0.79714454 0.05918608 0.44909592
v -0.79219365 0.05918608 0.44061675
v -0.77153657 0.13687006 0.66627005
v -0.71684067 0.13687006 0.38481506
v -0.76527250 0.13090352 0.66627005
v -0.76816159 0.13365526 0.66627005
v -0.82002091 0.10989497 0.65058525
v -0.83786770 0.09288176 0.64291043
v -0.84413178 0.08717982 0.63811784
v -0.83786770 0.07528645 0.63583886
v -0.83193191 0.04790127 0.62424283
v -0.83143286 0.03084836 0.60825640
v -0.82544455 0.01957677 0.60011237
v -0.81988961 0.01228730 0.59548737
v -0.81287696 0.00171687 0.58687413
v -0.80832010 0.00171687 0.59213591
v -0.77499037 0.00171687 0.42794826
v -0.78036145 0.01223438 0.42794826
v -0.78078170 0.07324910 0.43220461
v -0.79534540 0.06908179 0.45211224
v -0.78112313 0.09298761 0.44819104
v -0.74286881 0.11648331 0.40435403
v -0.71684067 0.12628641 0.37549804
v -0.81145871 0.03427481 0.48747006
v -0.80298837 0.04227871 0.46176441
v -0.79735460 0.04227871 0.44782237
v -0.79348062 0.04227871 0.43937671
v -0.81265373 0.05631527 0.48442023
v -0.84621978 0.08579071 0.57008336
v -0.79340182 0.13687006 0.65799196
v -0.72173900 0.13687006 0.39165203
v -0.83736865 0.10927320 0.64371477
v -0.84597026 0.09846464 0.64002817
v -0.83731614 0.05911994 0.62752725
v -0.84666633 0.06470280 0.62414229
v -0.84321254 0.05343122 0.61955079
v -0.84270038 0.03713240 0.60115132
v -0.84589155 0.03320323 0.58989044
v -0.82859633 0.01679857 0.58885149
v -0.81587115 0.00171687 0.57876362
v -0.77799767 0.00171687 0.43579066
v -0.84589155 0.03320323 0.58754442
v -0.77860173 0.10255256 0.45207872
v -0.74625695 0.12210586 0.41561492
v -0.73995348 0.12735799 0.41042015
v -0.72826576 0.13687006 0.40080149
v -0.72436547 0.13025527 0.38960764
v -0.81265373 0.04554640 0.48442023
v -0.84706026 0.04227871 0.58385783
v -0.84524804 0.05142032 0.57202720
v -0.84671883 0.07608023 0.56880981
v -0.84951601 0.07608023 0.58007069
v -0.84719159 0.08837048 0.58007069
v -0.84721789 0.10444440 0.61747290
v -0.84207002 0.09682418 0.58007069
v -0.78170094 0.13687006 0.49554706
v -0.77877246 0.13687006 0.48854252
v -0.77826030 0.13601011 0.48633056
v -0.81132736 0.13687006 0.64783706
v -0.83203697 0.12160313 0.64227364
v -0.84597026 0.10322729 0.64002817
v -0.84797956 0.09288176 0.63181711
v -0.84776944 0.07608023 0.62705806
v -0.84830789 0.05911994 0.61388685
v -0.84667942 0.04840399 0.60825640
v -0.84750682 0.04256975 0.59612414
v -0.85099996 0.05918608 0.59699552
v -0.81635701 0.00171687 0.57112231
v -0.80078215 0.00171687 0.50516573
v -0.81367803 0.00171687 0.54970653
v -0.81503068 0.00171687 0.55557157
v -0.81613378 0.00171687 0.56317937
v -0.80321165 0.00171687 0.51347732
v -0.74281631 0.13337744 0.42168105
v -0.73452984 0.13687006 0.41125801
v -0.84631180 0.06269192 0.56944658
v -0.84826849 0.05790282 0.57862956
v -0.85072424 0.07608023 0.59699552
v -0.84719159 0.10503974 0.63081168
v -0.84246401 0.11349342 0.63081168
v -0.83311382 0.12330976 0.61388685
v -0.84214882 0.11001404 0.61264680
v -0.83822228 0.10989497 0.59699552
v -0.82901652 0.11895722 0.58751091
v -0.81137990 0.13500469 0.57229532
v -0.80986970 0.13687006 0.57356887
v -0.77713093 0.13687006 0.48545919
v -0.81656712 0.13687006 0.64364774
v -0.81969264 0.13687006 0.63778269
v -0.83400682 0.12399769 0.63081168
v -0.85033019 0.07608023 0.61388685
v -0.82577285 0.13245137 0.63081168
v -0.82146547 0.13687006 0.63081168
v -0.82051996 0.13687006 0.62313686
v -0.82436771 0.13176343 0.61388685
v -0.81244362 0.13687006 0.58342214
v -0.83067118 0.12054477 0.59699552
f 1 2 3
f 1 3 4
f 1 4 9
f 1 9 8
f 1 8 22
f 1 22 21
f 1 21 20
f 1 20 19
f 1 19 38
f 1 38 67
f 1 67 48
f 1 48 27
f 1 27 14
f 1 14 5
f 1 5 16
f 1 16 34
f 1 34 60
f 1 60 59
f 1 59 84
f 1 84 112
f 1 112 116
f 1 116 115
f 1 115 114
f 1 114 117
f 1 117 113
f 1 113 85
f 1 85 61
f 1 61 35
f 1 35 17
f 1 17 6
f 1 6 2
f 2 6 3
f 3 7 8
f 3 8 9
f 3 9 4
f 3 6 10
f 3 10 11
f 3 11 12
f 3 12 13
f 3 13 7
f 5 14 15
f 5 15 16
f 6 17 10
f 7 18 19
f 7 19 20
f 7 20 21
f 7 21 22
f 7 22 8
f 7 13 23
f 7 23 18
f 10 17 24
f 10 24 25
f 10 25 11
f 11 25 26
f 11 26 13
f 11 13 12
f 13 26 23
f 14 27 47
f 14 47 50
f 14 50 49
f 14 49 28
f 14 28 29
f 14 29 30
f 14 30 31
f 14 31 15
f 15 32 16
f 15 31 33
f 15 33 32
f 16 32 34
f 17 35 24
f 18 23 36
f 18 36 37
f 18 37 19
f 19 37 38
f 23 26 39
f 23 39 40
f 23 40 37
f 23 37 36
f 24 41 42
f 24 42 43
f 24 43 44
f 24 44 25
f 24 35 41
f 25 44 45
f 25 45 46
f 25 46 26
f 26 46 39
f 27 48 75
f 27 75 90
f 27 90 119
f 27 119 131
f 27 131 101
f 27 101 100
f 27 100 130
f 27 130 140
f 27 140 138
f 27 138 137
f 27 137 133
f 27 133 132
f 27 132 103
f 27 103 74
f 27 74 47
f 28 49 29
f 29 49 50
f 29 50 47
f 29 47 51
f 29 51 52
f 29 52 30
f 30 53 54
f 30 54 55
f 30 55 31
f 30 52 53
f 31 55 33
f 32 56 57
f 32 57 58
f 32 58 59
f 32 59 60
f 32 60 34
f 32 33 55
f 32 55 56
f 35 61 62
f 35 62 41
f 37 40 63
f 37 63 64
f 37 64 65
f 37 65 66
f 37 66 67
f 37 67 38
f 39 63 40
f 39 46 63
f 41 62 42
f 42 62 68
f 42 68 69
f 42 69 70
f 42 70 71
f 42 71 43
f 43 71 44
f 44 71 45
f 45 64 46
f 45 71 70
f 45 70 72
f 45 72 73
f 45 73 64
f 46 64 63
f 47 74 51
f 48 67 75
f 51 74 76
f 51 76 77
f 51 77 52
f 52 77 53
f 53 78 54
f 53 77 79
f 53 79 78
f 54 78 55
f 55 80 56
f 55 78 80
f 56 81 57
f 56 80 81
f 57 81 82
f 57 82 83
f 57 83 58
f 58 83 59
f 59 83 84
f 61 85 62
f 62 85 86
f 62 86 68
f 64 87 65
f 64 73 87
f 65 87 66
f 66 88 89
f 66 89 90
f 66 90 91
f 66 91 67
f 66 87 88
f 67 91 90
f 67 90 75
f 68 92 69
f 68 86 93
f 68 93 94
f 68 94 92
f 69 92 70
f 70 92 72
f 72 92 95
f 72 95 73
f 73 95 96
f 73 96 97
f 73 97 98
f 73 98 99
f 73 99 100
f 73 100 101
f 73 101 102
f 73 102 87
f 74 103 104
f 74 104 76
f 76 104 105
f 76 105 77
f 77 105 106
f 77 106 107
f 77 107 79
f 78 79 80
f 79 107 108
f 79 108 109
f 79 109 80
f 80 109 81
f 81 109 82
f 82 110 111
f 82 111 86
f 82 86 112
f 82 112 84
f 82 84 83
f 82 109 110
f 85 113 86
f 86 114 115
f 86 115 116
f 86 116 112
f 86 111 93
f 86 113 117
f 86 117 114
f 87 102 88
f 88 118 89
f 88 102 118
f 89 118 119
f 89 119 90
f 92 94 120
f 92 120 95
f 93 121 94
f 93 111 121
f 94 121 120
f 95 120 96
f 96 120 121
f 96 121 111
f 96 111 122
f 96 122 98
f 96 98 97
f 98 123 124
f 98 124 125
f 98 125 126
f 98 126 127
f 98 127 99
f 98 122 123
f 99 127 128
f 99 128 100
f 100 128 129
f 100 129 130
f 101 131 102
f 102 131 119
f 102 119 118
f 103 132 104
f 104 133 134
f 104 134 124
f 104 124 105
f 104 132 133
f 105 124 123
f 105 123 106
f 106 123 135
f 106 135 107
f 107 135 108
f 108 135 111
f 108 111 110
f 108 110 109
f 111 135 122
f 122 135 123
f 124 134 125
f 125 134 136
f 125 136 137
f 125 137 138
f 125 138 139
f 125 139 140
f 125 140 129
f 125 129 141
f 125 141 127
f 125 127 126
f 127 141 128
f 128 141 129
f 129 140 130
f 133 137 136
f 133 136 134
f 138 140 139

