# https://github.com/mikedh/trimesh
v -0.38281130 0.00171687 0.15961619
v -0.47100182 0.00171687 0.18243759
v -0.46581137 0.00715559 0.17849241
v -0.48185604 0.01249266 0.18037392
v -0.48185604 0.02537785 0.17673223
v -0.38281130 0.02568283 0.15336461
v -0.38281130 0.00171687 0.76905660
v -0.47292655 0.00171687 0.18298386
v -0.48185604 0.00405502 0.18468332
v -0.49084862 0.01602529 0.18243759
v -0.51138958 0.09300610 0.18007048
v -0.49876842 0.09300610 0.17418306
v -0.48185604 0.07610539 0.17023783
v -0.46495944 0.04227858 0.16981300
v -0.38281130 0.04052496 0.15039051
v -0.38281130 0.03595033 0.15130094
v -0.38281130 0.26135239 0.76905660
v -0.54396801 0.00171687 0.76905660
v -0.47515102 0.00171687 0.18371218
v -0.48191914 0.00171687 0.18620068
v -0.49684368 0.00171687 0.19421248
v -0.50586784 0.00171687 0.20009990
v -0.50654623 0.00212351 0.20040334
v -0.54396801 0.08756737 0.20094966
v -0.54396801 0.09562380 0.19888599
v -0.51399272 0.10990680 0.17934216
v -0.52244891 0.10990680 0.18371218
v -0.49876842 0.10990680 0.17363680
v -0.48185604 0.09300610 0.16950951
v -0.51457642 0.12680751 0.17855308
v -0.38281130 0.05917927 0.14899454
v -0.38281130 0.04227858 0.15014774
v -0.46379193 0.05953507 0.16744589
v -0.54396801 0.26135239 0.76905660
v -0.38281130 0.26135239 0.27087047
v -0.54396801 0.00171687 0.24185818
v -0.50632531 0.00171687 0.20052478
v -0.54396801 0.03724648 0.22146460
v -0.54396801 0.05493503 0.21405980
v -0.54396801 0.07610539 0.20531967
v -0.54396801 0.02100654 0.22856593
v -0.54396801 0.10606921 0.19755069
v -0.53257739 0.10990680 0.18978170
v -0.49876842 0.12680751 0.17345474
v -0.51162621 0.14370823 0.17970632
v -0.52303261 0.12680751 0.18365151
v -0.38281130 0.10700954 0.15008707
v -0.54396801 0.26135239 0.35821087
v -0.38281130 0.24729811 0.22741274
v -0.38699209 0.26135239 0.26807851
v -0.54396801 0.10929687 0.19718653
v -0.54396801 0.10990680 0.19712586
v -0.49876842 0.14370823 0.17563970
v -0.38281130 0.12680751 0.15093683
v -0.38281130 0.10990680 0.15020846
v -0.49378305 0.17217258 0.18164856
v -0.52008245 0.14370823 0.18565446
v -0.50504746 0.16609848 0.18383361
v -0.54396801 0.11471017 0.19748997
v -0.53257739 0.12680751 0.19038868
v -0.54354203 0.26135239 0.34400820
v -0.54396801 0.26130155 0.34425098
v -0.44806280 0.25449046 0.23087235
v -0.41283395 0.26135239 0.25788172
v -0.39734145 0.26135239 0.26231245
v -0.38968987 0.26135239 0.26631835
v -0.38281130 0.24099530 0.21193546
v -0.44806280 0.25118657 0.22243572
v -0.47562433 0.18838708 0.18219482
v -0.38281130 0.12985727 0.15160448
v -0.48185604 0.21133646 0.19087423
v -0.46495944 0.21133646 0.18668627
v -0.53268784 0.14253915 0.19494080
v -0.54152265 0.13613467 0.19918948
v -0.52713451 0.15674592 0.19700442
v -0.49121148 0.22101943 0.19882527
v -0.54396801 0.12685834 0.19900737
v -0.54310033 0.12680751 0.19803628
v -0.48258175 0.26135239 0.28701542
v -0.46137817 0.25477001 0.23002262
v -0.46618998 0.25194900 0.22468144
v -0.48344943 0.24368922 0.22358894
v -0.49015446 0.23652234 0.21691246
v -0.54396801 0.14739333 0.21442396
v -0.43165526 0.26135239 0.25393653
v -0.38281130 0.23598862 0.20635153
v -0.45479937 0.23741184 0.19906804
v -0.46533807 0.24236768 0.20677636
v -0.46495944 0.19977283 0.18346940
v -0.38281130 0.14411485 0.15573172
v -0.48185604 0.22450123 0.19645821
v -0.46533807 0.22958413 0.19512291
v -0.38281130 0.15949068 0.16210468
v -0.38281130 0.15796581 0.16143703
v -0.54396801 0.13933690 0.20647287
v -0.48344943 0.23359964 0.20677636
v -0.47123844 0.23611569 0.20028201
v -0.44175222 0.26135239 0.25891353
v -0.47889006 0.24063949 0.21151058
v -0.38281130 0.22727141 0.19718653
v -0.45997404 0.23741184 0.19906804
v -0.38281130 0.22536531 0.19591189
v -0.38281130 0.21253096 0.18905338
f 1 2 3
f 1 3 4
f 1 4 5
f 1 5 6
f 1 6 16
f 1 16 15
f 1 15 32
f 1 32 31
f 1 31 47
f 1 47 55
f 1 55 54
f 1 54 70
f 1 70 90
f 1 90 94
f 1 94 93
f 1 93 103
f 1 103 102
f 1 102 100
f 1 100 86
f 1 86 67
f 1 67 49
f 1 49 35
f 1 35 17
f 1 17 7
f 1 7 18
f 1 18 36
f 1 36 37
f 1 37 22
f 1 22 21
f 1 21 20
f 1 20 19
f 1 19 8
f 1 8 2
f 2 4 3
f 2 8 4
f 4 8 9
f 4 9 10
f 4 10 5
f 5 11 12
f 5 12 13
f 5 13 14
f 5 14 15
f 5 15 16
f 5 16 6
f 5 10 11
f 7 17 34
f 7 34 18
f 8 19 9
f 9 19 20
f 9 20 21
f 9 21 10
f 10 21 22
f 10 22 23
f 10 23 24
f 10 24 25
f 10 25 11
f 11 26 12
f 11 25 27
f 11 27 26
f 12 28 29
f 12 29 13
f 12 26 30
f 12 30 28
f 13 29 31
f 13 31 32
f 13 32 33
f 13 33 14
f 14 33 32
f 14 32 15
f 17 35 50
f 17 50 66
f 17 66 65
f 17 65 64
f 17 64 85
f 17 85 98
f 17 98 79
f 17 79 61
f 17 61 48
f 17 48 34
f 18 34 48
f 18 48 62
f 18 62 84
f 18 84 95
f 18 95 77
f 18 77 59
f 18 59 52
f 18 52 51
f 18 51 42
f 18 42 25
f 18 25 24
f 18 24 40
f 18 40 39
f 18 39 38
f 18 38 41
f 18 41 36
f 22 37 23
f 23 38 39
f 23 39 40
f 23 40 24
f 23 37 36
f 23 36 41
f 23 41 38
f 25 42 43
f 25 43 27
f 26 27 30
f 27 43 30
f 28 30 44
f 28 44 29
f 29 44 31
f 30 45 44
f 30 43 46
f 30 46 45
f 31 44 47
f 35 49 50
f 42 51 43
f 43 51 52
f 43 52 46
f 44 45 53
f 44 53 54
f 44 54 55
f 44 55 47
f 45 56 53
f 45 46 57
f 45 57 58
f 45 58 56
f 46 52 59
f 46 59 60
f 46 60 57
f 48 61 62
f 49 63 64
f 49 64 65
f 49 65 66
f 49 66 50
f 49 67 68
f 49 68 63
f 53 56 69
f 53 69 70
f 53 70 54
f 56 58 71
f 56 71 72
f 56 72 69
f 57 73 58
f 57 60 74
f 57 74 73
f 58 73 75
f 58 75 76
f 58 76 71
f 59 77 78
f 59 78 60
f 60 78 74
f 61 79 80
f 61 80 62
f 62 80 81
f 62 81 82
f 62 82 83
f 62 83 76
f 62 76 84
f 63 80 85
f 63 85 64
f 63 68 80
f 67 86 87
f 67 87 68
f 68 87 88
f 68 88 81
f 68 81 80
f 69 72 89
f 69 89 70
f 70 89 72
f 70 72 90
f 71 76 91
f 71 91 72
f 72 91 92
f 72 92 93
f 72 93 94
f 72 94 90
f 73 74 75
f 74 95 84
f 74 84 76
f 74 76 75
f 74 78 77
f 74 77 95
f 76 83 96
f 76 96 97
f 76 97 91
f 79 98 80
f 80 98 85
f 81 88 99
f 81 99 82
f 82 99 83
f 83 99 96
f 86 100 87
f 87 101 88
f 87 100 102
f 87 102 103
f 87 103 93
f 87 93 92
f 87 92 101
f 88 101 97
f 88 97 99
f 91 97 92
f 92 97 101
f 96 99 97

