# https://github.com/mikedh/trimesh
v 0.61392975 0.27607479 0.71881267
v 0.80309272 0.26699738 0.71881267
v 0.70647510 0.32104930 0.60499236
v 0.69521236 0.32129686 0.60566252
v 0.69179163 0.32129686 0.60566252
v 0.61392975 0.30999135 0.63080700
v 0.61392975 -0.09428407 0.71881267
v 0.82001014 0.26390279 0.71881267
v 0.71482910 0.32286479 0.59370683
v 0.70116953 0.32265849 0.59839797
v 0.70168147 0.32529916 0.58011595
v 0.61392975 0.31432375 0.61389211
v 0.61392975 0.31362233 0.61710889
v 0.61392975 -0.09428407 0.44495768
v 0.63787472 -0.09428407 0.71881267
v 0.82001014 0.26481054 0.71535463
v 0.83334396 0.25746608 0.71881267
v 0.71971580 0.32414387 0.58094695
v 0.71857560 0.32723845 0.56320106
v 0.70168147 0.32608314 0.56320106
v 0.70147201 0.32406136 0.54663466
v 0.61392975 0.29418838 0.51248320
v 0.70042488 -0.09428407 0.44495768
v 0.61392975 0.24710956 0.44495768
v 0.64287783 -0.09428407 0.70905511
v 0.72253152 -0.01588814 0.71881267
v 0.83387913 0.25791997 0.71535463
v 0.81838121 0.26774006 0.69704581
v 0.73232825 0.32356622 0.56320106
v 0.72918676 0.32228713 0.57588053
v 0.83506594 0.25593944 0.71881267
v 0.71857560 0.32645448 0.54628617
v 0.73258423 0.32340117 0.54628617
v 0.70696378 0.32261723 0.53618013
v 0.61392975 0.29245542 0.50733636
v 0.76111341 -0.01918903 0.50369067
v 0.76036877 -0.03045328 0.50505781
v 0.76250959 -0.03631234 0.51634333
v 0.75708767 -0.04204762 0.51141094
v 0.74636015 -0.05318811 0.50141212
v 0.74803558 -0.05483854 0.51248320
v 0.73819229 -0.06329706 0.51248320
v 0.72997796 -0.06989881 0.52939810
v 0.69816766 -0.09428407 0.53811019
v 0.70040159 -0.09296371 0.44495768
v 0.78235902 0.16058523 0.49972332
v 0.78140497 0.14370946 0.50074197
v 0.61392975 0.28857686 0.49883870
v 0.71857560 0.32286479 0.53585845
v 0.66786992 0.27590974 0.48122685
v 0.61714103 0.24649063 0.44495768
v 0.64788087 -0.09428407 0.69825211
v 0.72425351 -0.01427895 0.71881267
v 0.84234947 0.24937891 0.71535463
v 0.83436780 0.25891019 0.69843974
v 0.74077531 0.31919255 0.56320106
v 0.74100802 0.31948138 0.54628617
v 0.84179102 0.24913136 0.71881267
v 0.72951252 0.32203957 0.53685029
v 0.61392975 0.29035111 0.50165338
v 0.79048032 0.14449341 0.51385033
v 0.79485512 0.15068258 0.52039111
v 0.79408720 0.13941831 0.52226756
v 0.79655383 0.12679244 0.53331184
v 0.76369640 -0.02500684 0.51141094
v 0.77232960 -0.00841990 0.52939810
v 0.76839696 -0.02533692 0.52939810
v 0.78010185 -0.00520155 0.56320106
v 0.76311465 -0.03684874 0.52939810
v 0.74733750 -0.05413709 0.52939810
v 0.73840175 -0.06259562 0.52939810
v 0.75580779 -0.04530725 0.52939810
v 0.69770228 -0.09428407 0.54540156
v 0.69937769 -0.05917094 0.44495768
v 0.76928123 0.16058523 0.49160095
v 0.79075958 0.15938865 0.51385033
v 0.79485512 0.15295193 0.52039111
v 0.76078760 0.17750224 0.48712427
v 0.76928123 0.17750224 0.49278044
v 0.78033455 0.17750224 0.50122448
v 0.81747372 0.22825330 0.56448777
v 0.67924906 0.27364039 0.48369305
v 0.66828881 0.22486989 0.44495768
v 0.63377918 0.24034275 0.44495768
v 0.65365190 -0.09428407 0.68334770
v 0.72492831 -0.01489788 0.71535463
v 0.78517474 0.04369276 0.71881267
v 0.84760850 0.24067285 0.71881267
v 0.84760850 0.24092041 0.71535463
v 0.84314063 0.24508777 0.69760874
v 0.83278544 0.25800247 0.68152486
v 0.81272659 0.27124725 0.61793989
v 0.81105111 0.27021571 0.60668117
v 0.74924562 0.31102288 0.54628617
v 0.74640667 0.30801082 0.53572442
v 0.73526027 0.31329223 0.53328503
v 0.82498996 0.22825330 0.58011595
v 0.82422203 0.21133625 0.58011595
v 0.80085878 0.12679244 0.54628617
v 0.80918950 0.11119578 0.58140266
v 0.77879870 -0.00338605 0.55119176
v 0.79674002 0.02788980 0.61389211
v 0.79362180 0.01943128 0.61389211
v 0.77588997 -0.01361879 0.56320106
v 0.76202091 -0.03511577 0.54628617
v 0.78070687 -0.00437632 0.58011595
v 0.74542932 -0.05223910 0.54331065
v 0.76104358 -0.03400173 0.55550760
v 0.74387025 -0.05067117 0.55459618
v 0.72818615 -0.06857845 0.54121975
v 0.67024349 -0.09428407 0.63300513
v 0.69874941 -0.04225392 0.44495768
v 0.68488041 0.17750224 0.44495768
v 0.68308863 0.19425421 0.44495768
v 0.68306536 0.19441925 0.44495768
v 0.67938865 0.21141880 0.44495768
v 0.75101416 0.19441925 0.48369305
v 0.75946122 0.19441925 0.48873266
v 0.69097720 0.10991669 0.44495768
v 0.77824025 0.18670344 0.50320816
v 0.79664690 0.25655834 0.55317544
v 0.80756059 0.24512903 0.55952857
v 0.81451836 0.24512903 0.56797262
v 0.67573526 0.21942342 0.44495768
v 0.65418712 -0.09428407 0.68190015
v 0.79385450 0.03453282 0.67085588
v 0.79224887 0.05045957 0.71881267
v 0.84839971 0.23832096 0.71881267
v 0.85088960 0.22825330 0.71881267
v 0.85072676 0.22825330 0.71535463
v 0.84630535 0.23939374 0.70270197
v 0.82887609 0.25428897 0.63648998
v 0.82966723 0.25548555 0.64772189
v 0.81817181 0.26357271 0.61295389
v 0.81661268 0.25924029 0.59700403
v 0.81186561 0.25395891 0.57113578
v 0.74449854 0.22041368 0.48664176
v 0.72860503 0.23848600 0.48548908
v 0.81954474 0.24512903 0.58011595
v 0.82412896 0.24512903 0.59700403
v 0.85140155 0.21133625 0.71535463
v 0.84702680 0.19520322 0.69739429
v 0.84670099 0.18282490 0.70235350
v 0.81165613 0.11763250 0.58786302
v 0.81084170 0.10636824 0.59300987
v 0.81174925 0.10059171 0.60429540
v 0.78363890 0.00845586 0.56320106
v 0.79320293 0.02483647 0.59703084
v 0.80297638 0.04228988 0.63080700
v 0.81042282 0.05557594 0.66463678
v 0.79189982 0.02009147 0.63080700
v 0.79788022 0.02854997 0.63080700
v 0.77975282 -0.00239579 0.59700403
v 0.75929831 -0.03235129 0.56676632
v 0.77856601 -0.00086914 0.60855762
v 0.77696037 0.00078131 0.61984315
v 0.67934213 0.21162508 0.44495768
v 0.74724442 0.21133625 0.48522101
v 0.73472505 0.22693293 0.48361263
v 0.77500569 0.00267931 0.63080700
v 0.79571612 0.03267607 0.65959716
v 0.80027706 0.04493059 0.68152486
v 0.79445952 0.05351288 0.71881267
v 0.85112230 0.22478736 0.71881267
v 0.85165754 0.21133625 0.71881267
v 0.84963302 0.19441925 0.71535463
v 0.84456013 0.16219440 0.71881267
v 0.84400168 0.16025513 0.71648051
v 0.84079039 0.14370946 0.71535463
v 0.81261025 0.06428201 0.67629760
v 0.80877067 0.05887681 0.68176612
v 0.80113805 0.04101080 0.66498526
v 0.79708905 0.03086060 0.64772189
v 0.84074383 0.14370946 0.71881267
v 0.83038861 0.12130473 0.71881267
v 0.84937704 0.19413042 0.71881267
v 0.84621232 0.17308731 0.71881267
v 0.83906841 0.13999596 0.71881267
v 0.83241311 0.12538957 0.71881267
f 1 2 3
f 1 3 4
f 1 4 5
f 1 5 6
f 1 6 13
f 1 13 12
f 1 12 22
f 1 22 35
f 1 35 60
f 1 60 48
f 1 48 24
f 1 24 14
f 1 14 7
f 1 7 15
f 1 15 26
f 1 26 53
f 1 53 87
f 1 87 127
f 1 127 163
f 1 163 175
f 1 175 179
f 1 179 178
f 1 178 174
f 1 174 167
f 1 167 177
f 1 177 176
f 1 176 165
f 1 165 164
f 1 164 129
f 1 129 128
f 1 128 88
f 1 88 58
f 1 58 31
f 1 31 17
f 1 17 8
f 1 8 2
f 2 8 3
f 3 9 10
f 3 10 4
f 3 8 9
f 4 10 5
f 5 10 11
f 5 11 12
f 5 12 13
f 5 13 6
f 7 14 23
f 7 23 44
f 7 44 73
f 7 73 111
f 7 111 125
f 7 125 85
f 7 85 52
f 7 52 25
f 7 25 15
f 8 16 9
f 8 17 16
f 9 18 19
f 9 19 10
f 9 16 18
f 10 19 11
f 11 19 20
f 11 20 12
f 12 20 21
f 12 21 22
f 14 24 51
f 14 51 84
f 14 84 83
f 14 83 124
f 14 124 157
f 14 157 116
f 14 116 115
f 14 115 114
f 14 114 113
f 14 113 119
f 14 119 112
f 14 112 74
f 14 74 45
f 14 45 23
f 15 25 26
f 16 17 27
f 16 27 28
f 16 28 29
f 16 29 30
f 16 30 18
f 17 31 27
f 18 30 29
f 18 29 19
f 19 32 20
f 19 29 33
f 19 33 32
f 20 32 21
f 21 32 34
f 21 34 22
f 22 34 35
f 23 36 37
f 23 37 38
f 23 38 39
f 23 39 40
f 23 40 41
f 23 41 42
f 23 42 43
f 23 43 44
f 23 45 46
f 23 46 47
f 23 47 36
f 24 48 34
f 24 34 49
f 24 49 50
f 24 50 51
f 25 52 26
f 26 52 53
f 27 31 54
f 27 54 55
f 27 55 28
f 28 55 56
f 28 56 29
f 29 56 57
f 29 57 33
f 31 58 54
f 32 33 59
f 32 59 49
f 32 49 34
f 33 57 59
f 34 48 60
f 34 60 35
f 36 47 61
f 36 61 37
f 37 61 62
f 37 62 63
f 37 63 64
f 37 64 65
f 37 65 38
f 38 65 66
f 38 66 67
f 38 67 68
f 38 68 69
f 38 69 41
f 38 41 39
f 39 41 40
f 41 70 71
f 41 71 43
f 41 43 42
f 41 69 72
f 41 72 70
f 43 73 44
f 43 71 73
f 45 74 75
f 45 75 46
f 46 76 77
f 46 77 62
f 46 62 61
f 46 61 47
f 46 75 78
f 46 78 79
f 46 79 80
f 46 80 81
f 46 81 76
f 49 59 50
f 50 59 82
f 50 82 83
f 50 83 84
f 50 84 51
f 52 85 53
f 53 85 86
f 53 86 87
f 54 58 88
f 54 88 89
f 54 89 90
f 54 90 55
f 55 90 91
f 55 91 92
f 55 92 57
f 55 57 56
f 57 92 93
f 57 93 94
f 57 94 95
f 57 95 59
f 59 95 96
f 59 96 83
f 59 83 82
f 62 77 81
f 62 81 97
f 62 97 98
f 62 98 64
f 62 64 63
f 64 98 99
f 64 99 65
f 65 99 66
f 66 99 100
f 66 100 101
f 66 101 67
f 67 101 68
f 68 101 102
f 68 102 103
f 68 103 104
f 68 104 69
f 69 105 72
f 69 104 106
f 69 106 105
f 70 107 71
f 70 72 105
f 70 105 108
f 70 108 107
f 71 107 109
f 71 109 110
f 71 110 73
f 73 110 111
f 74 112 75
f 75 112 78
f 76 81 77
f 78 113 114
f 78 114 115
f 78 115 116
f 78 116 117
f 78 117 118
f 78 118 79
f 78 112 119
f 78 119 113
f 79 118 80
f 80 118 120
f 80 120 121
f 80 121 122
f 80 122 81
f 81 122 123
f 81 123 97
f 83 96 124
f 85 125 126
f 85 126 86
f 86 126 87
f 87 126 127
f 88 128 89
f 89 128 129
f 89 129 130
f 89 130 131
f 89 131 90
f 90 131 132
f 90 132 91
f 91 132 133
f 91 133 134
f 91 134 92
f 92 134 93
f 93 134 135
f 93 135 136
f 93 136 94
f 94 136 95
f 95 136 121
f 95 121 137
f 95 137 138
f 95 138 124
f 95 124 96
f 97 123 139
f 97 139 140
f 97 140 131
f 97 131 130
f 97 130 141
f 97 141 98
f 98 141 142
f 98 142 143
f 98 143 144
f 98 144 100
f 98 100 99
f 100 144 145
f 100 145 101
f 101 145 146
f 101 146 147
f 101 147 148
f 101 148 102
f 102 149 150
f 102 150 103
f 102 148 149
f 103 151 106
f 103 106 104
f 103 150 152
f 103 152 151
f 105 106 153
f 105 153 108
f 106 151 153
f 107 108 109
f 108 154 109
f 108 153 155
f 108 155 156
f 108 156 154
f 109 125 111
f 109 111 110
f 109 154 156
f 109 156 125
f 116 157 117
f 117 157 158
f 117 158 118
f 118 158 137
f 118 137 121
f 118 121 120
f 121 136 123
f 121 123 122
f 123 136 139
f 124 138 159
f 124 159 137
f 124 137 158
f 124 158 157
f 125 156 160
f 125 160 126
f 126 160 156
f 126 156 161
f 126 161 162
f 126 162 127
f 127 162 163
f 129 164 130
f 130 164 141
f 131 140 132
f 132 135 134
f 132 134 133
f 132 140 135
f 135 140 139
f 135 139 136
f 137 159 138
f 141 165 166
f 141 166 143
f 141 143 142
f 141 164 165
f 143 166 167
f 143 167 168
f 143 168 169
f 143 169 146
f 143 146 145
f 143 145 144
f 146 169 147
f 147 169 148
f 148 169 149
f 149 169 150
f 150 170 171
f 150 171 162
f 150 162 172
f 150 172 173
f 150 173 152
f 150 169 174
f 150 174 170
f 151 155 153
f 151 152 173
f 151 173 161
f 151 161 155
f 155 161 156
f 161 173 172
f 161 172 162
f 162 171 163
f 163 171 175
f 165 176 166
f 166 176 177
f 166 177 167
f 167 174 169
f 167 169 168
f 170 178 179
f 170 179 171
f 170 174 178
f 171 179 175

