# https://github.com/mikedh/trimesh
v -0.10734071 0.47732211 0.34172549
v -0.10734071 0.55800899 0.34172549
v 0.06157718 0.47732211 0.34172549
v -0.10734071 0.47732211 0.91466572
v -0.07519737 0.57696030 0.34172549
v -0.10734071 0.56183893 0.34654860
v 0.06157718 0.57503539 0.34172549
v 0.06157718 0.47732211 0.78730206
v -0.09255873 0.47732211 0.90630941
v -0.10153704 0.54040714 0.89279351
v -0.10734071 0.53479117 0.89632669
v -0.05829896 0.58432254 0.34172549
v -0.10734071 0.62218543 0.42326963
v -0.10734071 0.62865469 0.43173812
v 0.06119689 0.57547201 0.34172549
v 0.06157718 0.60819520 0.50728144
v 0.06157718 0.54661836 0.72678889
v 0.00074624 0.60974310 0.74142646
v -0.03278602 0.60986217 0.77580511
v -0.06742609 0.59190308 0.82543825
v -0.08439063 0.59186337 0.84226304
v -0.09861041 0.56128330 0.87849243
v -0.09021081 0.47732211 0.90457084
v -0.10734071 0.55185728 0.88954072
v -0.10734071 0.54941646 0.89099887
v -0.05576917 0.58511631 0.34172549
v -0.10734071 0.66397754 0.48097868
v 0.05661680 0.58055210 0.34172549
v 0.05283036 0.61057652 0.48159559
v 0.05456650 0.61160844 0.49561624
v 0.05625303 0.61186643 0.51249712
v 0.06157718 0.60859212 0.51249712
v 0.06157718 0.55566737 0.71534803
v 0.00337524 0.61305706 0.73222891
v -0.00737226 0.62222514 0.73379921
v -0.01711118 0.62542009 0.74047305
v -0.03357968 0.62577725 0.75785867
v -0.04226036 0.62202671 0.77019685
v -0.09298864 0.59390733 0.84495500
v -0.10499279 0.58985910 0.85706886
v -0.10555496 0.57255485 0.87400582
v -0.05122213 0.62528117 0.77417872
v -0.06400342 0.64451027 0.76032631
v -0.10734071 0.57053075 0.87647346
v -0.10734071 0.56521251 0.88034316
v -0.04323591 0.58882719 0.34172549
v -0.10734071 0.66999033 0.49326078
v -0.09298864 0.66429505 0.48030569
v -0.01909533 0.60916761 0.36774782
v -0.00838089 0.59547502 0.34172549
v -0.00871158 0.59543532 0.34172549
v -0.02116216 0.59384783 0.34172549
v -0.02534543 0.59303419 0.34172549
v -0.03174433 0.59156571 0.34172549
v -0.04226036 0.58908519 0.34172549
v 0.04608423 0.58817233 0.34172549
v 0.04393472 0.61561697 0.47705290
v 0.04226471 0.61809750 0.49561624
v 0.06157718 0.60726257 0.52696644
v -0.01155554 0.64480797 0.54631495
v -0.01137365 0.64480797 0.56319583
v -0.00292445 0.64036282 0.56319583
v -0.02446908 0.63931105 0.71534803
v -0.00938949 0.63085738 0.71534803
v 0.06157718 0.56378368 0.70071046
v 0.06157718 0.56582765 0.69611168
v -0.00094030 0.62474538 0.71534803
v -0.01228306 0.62875391 0.72920044
v -0.05272678 0.64117645 0.75539104
v -0.04226036 0.62897220 0.76178446
v -0.10734071 0.59265713 0.85443297
v -0.10734071 0.58704122 0.86105073
v -0.10734071 0.57594824 0.87170643
v -0.05867926 0.64750679 0.74950236
v -0.07597449 0.65552383 0.74871720
v -0.07607370 0.64681222 0.76335476
v -0.07559419 0.66306471 0.47716506
v -0.10734071 0.67096273 0.49561624
v 0.01010484 0.59660615 0.34172549
v 0.00848445 0.59654665 0.34172549
v 0.04476144 0.58900576 0.34172549
v 0.02735048 0.62438818 0.47867929
v 0.06157718 0.60690535 0.52937799
v -0.05108985 0.65927441 0.49561624
v -0.05953907 0.66248921 0.49561624
v -0.10734071 0.68005140 0.62612055
v -0.10734071 0.67997204 0.63077541
v -0.06616944 0.65998883 0.72617198
v -0.03362928 0.64256556 0.72398476
v 0.06157718 0.57130466 0.68153020
v 0.05226818 0.57650388 0.69409271
v 0.05443421 0.57860739 0.68153020
v 0.04608423 0.58704122 0.68153020
v 0.06157718 0.58215950 0.64328184
v 0.06157718 0.58622758 0.62640096
v -0.04244225 0.64566124 0.73065859
v -0.04821284 0.64413325 0.74411842
v -0.10734071 0.59583223 0.85000244
v -0.05998550 0.65518653 0.73200458
v -0.07027005 0.65844098 0.73744459
v -0.09298864 0.65709157 0.75281124
v -0.08154667 0.66030632 0.74277244
v -0.09313744 0.64768537 0.76733663
v -0.09298864 0.67072461 0.49561624
v -0.07607370 0.66830357 0.49561624
v -0.06311053 0.66123902 0.47867929
v -0.06722766 0.65951256 0.47004256
v -0.10734071 0.67262964 0.50991732
v 0.02534979 0.59557424 0.34172549
v 0.03631225 0.59301435 0.34172549
v 0.02409316 0.62268156 0.46314440
v -0.05466135 0.65816314 0.47867929
v -0.10734071 0.67981326 0.61395062
v -0.10734071 0.67850356 0.64417916
v -0.07597449 0.66135809 0.73200458
v -0.10734071 0.65699236 0.75297948
v -0.09298864 0.66090167 0.74434275
v -0.10734071 0.66123902 0.74456708
v -0.10734071 0.66967284 0.71534803
v -0.09298864 0.66409656 0.73222891
v -0.10734071 0.66572382 0.73222891
v -0.10734071 0.67969419 0.61120257
v 0.02639146 0.59549488 0.34172549
f 1 2 5
f 1 5 12
f 1 12 26
f 1 26 46
f 1 46 55
f 1 55 54
f 1 54 53
f 1 53 52
f 1 52 51
f 1 51 50
f 1 50 80
f 1 80 79
f 1 79 109
f 1 109 123
f 1 123 110
f 1 110 81
f 1 81 56
f 1 56 28
f 1 28 15
f 1 15 7
f 1 7 3
f 1 3 8
f 1 8 23
f 1 23 9
f 1 9 4
f 1 4 11
f 1 11 25
f 1 25 24
f 1 24 45
f 1 45 44
f 1 44 73
f 1 73 72
f 1 72 71
f 1 71 98
f 1 98 116
f 1 116 118
f 1 118 121
f 1 121 119
f 1 119 114
f 1 114 87
f 1 87 86
f 1 86 113
f 1 113 122
f 1 122 108
f 1 108 78
f 1 78 47
f 1 47 27
f 1 27 14
f 1 14 13
f 1 13 6
f 1 6 2
f 2 6 5
f 3 7 16
f 3 16 32
f 3 32 59
f 3 59 83
f 3 83 95
f 3 95 94
f 3 94 90
f 3 90 66
f 3 66 65
f 3 65 33
f 3 33 17
f 3 17 8
f 4 9 10
f 4 10 11
f 5 6 13
f 5 13 14
f 5 14 12
f 7 15 16
f 8 17 18
f 8 18 19
f 8 19 20
f 8 20 21
f 8 21 22
f 8 22 10
f 8 10 23
f 9 23 10
f 10 22 24
f 10 24 25
f 10 25 11
f 12 14 27
f 12 27 26
f 15 28 16
f 16 29 30
f 16 30 31
f 16 31 32
f 16 28 29
f 17 33 18
f 18 33 34
f 18 34 35
f 18 35 36
f 18 36 37
f 18 37 19
f 19 37 38
f 19 38 21
f 19 21 20
f 21 39 40
f 21 40 41
f 21 41 22
f 21 38 42
f 21 42 43
f 21 43 39
f 22 41 44
f 22 44 45
f 22 45 24
f 26 27 46
f 27 47 48
f 27 48 49
f 27 49 50
f 27 50 51
f 27 51 52
f 27 52 53
f 27 53 54
f 27 54 55
f 27 55 46
f 28 56 29
f 29 57 30
f 29 56 57
f 30 57 58
f 30 58 31
f 31 59 32
f 31 58 60
f 31 60 61
f 31 61 62
f 31 62 63
f 31 63 64
f 31 64 59
f 33 65 34
f 34 65 66
f 34 66 67
f 34 67 35
f 35 67 68
f 35 68 36
f 36 68 69
f 36 69 37
f 37 69 70
f 37 70 38
f 38 70 42
f 39 43 40
f 40 43 71
f 40 71 72
f 40 72 41
f 41 72 73
f 41 73 44
f 42 70 69
f 42 69 43
f 43 69 74
f 43 74 75
f 43 75 76
f 43 76 71
f 47 77 48
f 47 78 77
f 48 77 49
f 49 79 80
f 49 80 50
f 49 77 79
f 56 81 57
f 57 82 58
f 57 81 82
f 58 82 60
f 59 64 67
f 59 67 83
f 60 82 84
f 60 84 85
f 60 85 61
f 61 85 86
f 61 86 87
f 61 87 88
f 61 88 63
f 61 63 62
f 63 88 89
f 63 89 64
f 64 89 68
f 64 68 67
f 66 90 91
f 66 91 67
f 67 91 90
f 67 90 92
f 67 92 93
f 67 93 94
f 67 94 95
f 67 95 83
f 68 96 97
f 68 97 69
f 68 89 96
f 69 97 74
f 71 76 98
f 74 97 99
f 74 99 100
f 74 100 75
f 75 101 76
f 75 100 102
f 75 102 101
f 76 101 103
f 76 103 98
f 77 78 104
f 77 104 105
f 77 105 106
f 77 106 107
f 77 107 79
f 78 108 104
f 79 107 109
f 81 110 82
f 82 111 112
f 82 112 84
f 82 110 111
f 84 112 85
f 85 112 106
f 85 106 105
f 85 105 86
f 86 105 113
f 87 114 88
f 88 114 115
f 88 115 100
f 88 100 99
f 88 99 89
f 89 99 96
f 90 94 92
f 92 94 93
f 96 99 97
f 98 103 101
f 98 101 116
f 100 115 102
f 101 102 117
f 101 117 118
f 101 118 116
f 102 115 119
f 102 119 120
f 102 120 121
f 102 121 117
f 104 108 122
f 104 122 105
f 105 122 113
f 106 112 110
f 106 110 123
f 106 123 107
f 107 123 109
f 110 112 111
f 114 119 115
f 117 121 118
f 119 121 120

