# https://github.com/mikedh/trimesh
v 0.59521678 0.12678930 1.00646280
v 0.59521678 0.13541323 1.00587152
v 0.59521678 0.10987316 1.00581521
v 0.74969785 0.10987316 0.91351714
v 0.59521678 0.14370547 1.00522390
v 0.59521678 0.10220285 1.00542102
v 0.73546167 0.09295702 0.92131658
v 0.75813872 0.10987316 0.90625267
v 0.74496086 0.15465120 0.91036356
v 0.74838759 0.09295702 0.91334818
v 0.74203806 0.16592864 0.90892755
v 0.73604120 0.17869867 0.90721000
v 0.59521678 0.15427805 1.00063434
v 0.59521678 0.09295702 1.00488604
v 0.59521678 0.00845922 0.99995858
v 0.59521678 -0.00841548 0.99891679
v 0.81054789 0.12678930 0.83999965
v 0.80122512 0.12566986 0.85219156
v 0.79568185 0.13056227 0.86004731
v 0.80334164 0.14370547 0.85064293
v 0.79555583 0.14370547 0.85990653
v 0.79479995 0.15266108 0.85923076
v 0.76065841 0.16796022 0.89265293
v 0.75758440 0.09138151 0.90169125
v 0.75035296 0.17749630 0.89836875
v 0.59521678 -0.02470971 0.99722736
v 0.59521678 -0.03963571 0.99528457
v 0.59521678 -0.05518365 0.99280675
v 0.59521678 -0.06368318 0.99027265
v 0.74586795 0.08188690 0.91168694
v 0.74705220 0.18893958 0.89544046
v 0.59521678 0.15726326 0.99902941
v 0.76075919 0.08466480 0.89276555
v 0.79883139 0.10987316 0.84760200
v 0.81263922 0.11617526 0.82811748
v 0.81425182 0.12678930 0.83155261
v 0.81583920 0.14370547 0.83287598
v 0.81090066 0.14370547 0.84132304
v 0.81034634 0.16062162 0.84078805
v 0.81629276 0.17749630 0.83101763
v 0.80848174 0.17749630 0.83946467
v 0.75881906 0.17749630 0.89073826
v 0.59521678 -0.07056572 0.98435969
v 0.76353082 0.19055655 0.87896871
v 0.75992772 0.20183397 0.87522384
v 0.74866478 0.20585571 0.87905318
v 0.73546167 0.19221499 0.89876296
v 0.59521678 0.16178251 0.99531271
v 0.59521678 -0.08267237 0.97002787
v 0.59521678 -0.08681850 0.96357998
v 0.79588340 0.09983957 0.84402609
v 0.80676837 0.11028778 0.83374884
v 0.79810072 0.09743482 0.83372069
v 0.80913690 0.10560268 0.81682659
v 0.81342034 0.11406073 0.81682659
v 0.83193992 0.12890384 0.74919389
v 0.83010052 0.13213780 0.76608800
v 0.83760915 0.14370547 0.74919389
v 0.82944543 0.14946855 0.79514583
v 0.82218879 0.14370547 0.81682659
v 0.82475882 0.16062162 0.81682659
v 0.81672111 0.16062162 0.83231285
v 0.81417622 0.19051508 0.82811748
v 0.82428012 0.17749630 0.81682659
v 0.83272099 0.19441245 0.79874991
v 0.83136039 0.21132857 0.79646920
v 0.82972261 0.22156947 0.79317486
v 0.82291947 0.23284690 0.78692404
v 0.81163135 0.23674427 0.79151360
v 0.73546167 0.20821899 0.88226305
v 0.61174580 0.18752988 0.96253817
v 0.60023092 0.18209848 0.97388538
v 0.73546167 0.20063160 0.89071011
v 0.74548998 0.22061588 0.86061046
v 0.73546167 0.21667706 0.87136636
v 0.59521678 0.17077958 0.98759774
v 0.59521678 -0.09113045 0.95271143
v 0.59521678 -0.09137921 0.95206384
v 0.79369130 0.06878517 0.77079017
v 0.79953694 0.09241802 0.81533428
v 0.81069905 0.10328084 0.79990433
v 0.79366610 0.05220071 0.71993895
v 0.84058240 0.14370547 0.73227164
v 0.82826118 0.11866292 0.73829720
v 0.83221706 0.12529672 0.73252506
v 0.84461384 0.16024845 0.73275031
v 0.84148950 0.16062162 0.74919389
v 0.83453515 0.16062162 0.78301025
v 0.83803751 0.17749630 0.78301025
v 0.83080607 0.16062162 0.79841202
v 0.82805963 0.16062162 0.80685908
v 0.83959972 0.19441245 0.78301025
v 0.84410990 0.21132857 0.77084650
v 0.83854144 0.21132857 0.78301025
v 0.84642799 0.22256455 0.76068188
v 0.84098550 0.22820325 0.76622877
v 0.83249425 0.22762281 0.78196844
v 0.82926907 0.23736618 0.77563316
v 0.81835890 0.23906609 0.78196844
v 0.81881244 0.24793878 0.76479278
v 0.81238727 0.25386773 0.75828855
v 0.80308965 0.23815394 0.79418851
v 0.71207913 0.22061588 0.87691325
v 0.59521678 0.18748843 0.96954923
v 0.59521678 0.18325938 0.97481455
v 0.70167290 0.22223287 0.87936290
v 0.59521678 0.18102048 0.97726420
v 0.73546167 0.22239870 0.86291932
v 0.59521678 -0.14291542 0.71881269
v 0.59876949 -0.14129845 0.71881269
v 0.60139000 -0.13984730 0.71881269
v 0.61688595 -0.12910886 0.71881269
v 0.79225506 0.05045936 0.71881269
v 0.79444718 0.05352748 0.71881269
v 0.82871474 0.11799954 0.72703448
v 0.83907058 0.13997394 0.71881269
v 0.84073355 0.14370547 0.71881269
v 0.83138560 0.12330657 0.71881269
v 0.83239342 0.12537963 0.71881269
v 0.84557129 0.16563841 0.72292358
v 0.84557129 0.16563841 0.72742867
v 0.85262640 0.21132857 0.73227164
v 0.85015715 0.21132857 0.74919389
v 0.84632721 0.19918045 0.76093530
v 0.84690678 0.21132857 0.76239944
v 0.85151775 0.22824472 0.73227164
v 0.84804064 0.22820325 0.74891233
v 0.84622644 0.23782227 0.74308387
v 0.84388316 0.23384198 0.75434659
v 0.83216666 0.23989531 0.76608800
v 0.82906745 0.25399211 0.74173234
v 0.82365017 0.25154588 0.75299507
v 0.81881244 0.25540179 0.74809578
v 0.81999669 0.26029421 0.73227164
v 0.80308965 0.26340376 0.73227164
v 0.80308965 0.25822113 0.74919389
v 0.80308965 0.25457257 0.75989349
v 0.70167290 0.23512727 0.85196632
v 0.71742085 0.23371759 0.84934772
v 0.70167290 0.22915687 0.86750887
v 0.71805076 0.22455469 0.86801571
v 0.59521678 0.19354176 0.95701942
v 0.67327618 0.21962082 0.89254028
v 0.66259282 0.23744911 0.86030074
v 0.59521678 0.28065161 0.71881269
v 0.83037772 0.12127498 0.71881269
v 0.82871474 0.11799954 0.72140311
v 0.84456346 0.16219713 0.71881269
v 0.84937603 0.19412221 0.71881269
v 0.85164372 0.21132857 0.71881269
v 0.85111465 0.22476198 0.71881269
v 0.85088780 0.22824472 0.71881269
v 0.84841855 0.23831977 0.71881269
v 0.84753664 0.23977093 0.73227164
v 0.83965010 0.24822899 0.73227164
v 0.83647531 0.24470481 0.74803946
v 0.83118399 0.25565055 0.73227164
v 0.81999669 0.26390131 0.71881269
v 0.80308965 0.26696943 0.71881269
v 0.65095192 0.24744125 0.83372069
v 0.65568890 0.23744911 0.86030074
v 0.65042278 0.24051722 0.85190998
v 0.59521678 0.27007901 0.75606416
v 0.59521678 0.28023701 0.72038946
v 0.84758704 0.24068308 0.71881269
v 0.84179182 0.24914113 0.71881269
v 0.83506433 0.25594077 0.71881269
v 0.83332571 0.25743338 0.71881269
v 0.59521678 0.27708594 0.73227164
v 0.59521678 0.27277400 0.74787052
f 1 2 5
f 1 5 13
f 1 13 32
f 1 32 48
f 1 48 76
f 1 76 107
f 1 107 105
f 1 105 104
f 1 104 142
f 1 142 163
f 1 163 170
f 1 170 169
f 1 169 164
f 1 164 145
f 1 145 109
f 1 109 78
f 1 78 77
f 1 77 50
f 1 50 49
f 1 49 43
f 1 43 29
f 1 29 28
f 1 28 27
f 1 27 26
f 1 26 16
f 1 16 15
f 1 15 14
f 1 14 6
f 1 6 3
f 1 3 4
f 1 4 2
f 2 4 5
f 3 6 7
f 3 7 4
f 4 8 9
f 4 9 5
f 4 7 10
f 4 10 8
f 5 9 11
f 5 11 12
f 5 12 13
f 6 14 7
f 7 14 15
f 7 15 16
f 7 16 10
f 8 17 18
f 8 18 19
f 8 19 20
f 8 20 21
f 8 21 22
f 8 22 23
f 8 23 9
f 8 10 24
f 8 24 17
f 9 23 25
f 9 25 11
f 10 16 26
f 10 26 27
f 10 27 28
f 10 28 29
f 10 29 30
f 10 30 24
f 11 25 12
f 12 25 31
f 12 31 13
f 13 31 32
f 17 24 33
f 17 33 34
f 17 34 35
f 17 35 36
f 17 36 37
f 17 37 38
f 17 38 19
f 17 19 18
f 19 38 20
f 20 38 39
f 20 39 21
f 21 39 22
f 22 39 40
f 22 40 41
f 22 41 23
f 23 41 42
f 23 42 25
f 24 30 33
f 25 42 31
f 29 43 30
f 30 43 33
f 31 42 44
f 31 44 45
f 31 45 46
f 31 46 47
f 31 47 32
f 32 47 48
f 33 43 49
f 33 49 50
f 33 50 51
f 33 51 34
f 34 52 35
f 34 51 52
f 35 52 53
f 35 53 54
f 35 54 55
f 35 55 56
f 35 56 57
f 35 57 58
f 35 58 59
f 35 59 36
f 36 59 60
f 36 60 61
f 36 61 37
f 37 61 62
f 37 62 38
f 38 62 39
f 39 62 40
f 40 63 41
f 40 62 64
f 40 64 65
f 40 65 66
f 40 66 63
f 41 63 42
f 42 63 44
f 44 63 67
f 44 67 45
f 45 67 68
f 45 68 69
f 45 69 46
f 46 70 71
f 46 71 72
f 46 72 73
f 46 73 47
f 46 69 74
f 46 74 75
f 46 75 70
f 47 73 76
f 47 76 48
f 50 77 53
f 50 53 51
f 51 53 52
f 53 77 78
f 53 78 79
f 53 79 80
f 53 80 54
f 54 81 56
f 54 56 55
f 54 80 79
f 54 79 82
f 54 82 81
f 56 83 58
f 56 58 57
f 56 81 84
f 56 84 85
f 56 85 83
f 58 83 86
f 58 86 87
f 58 87 88
f 58 88 59
f 59 88 89
f 59 89 90
f 59 90 60
f 60 90 91
f 60 91 61
f 61 91 89
f 61 89 92
f 61 92 65
f 61 65 64
f 61 64 62
f 63 66 67
f 65 92 93
f 65 93 94
f 65 94 66
f 66 94 67
f 67 94 95
f 67 95 96
f 67 96 97
f 67 97 98
f 67 98 68
f 68 98 69
f 69 98 99
f 69 99 100
f 69 100 101
f 69 101 102
f 69 102 74
f 70 75 103
f 70 103 71
f 71 104 105
f 71 105 72
f 71 103 106
f 71 106 104
f 72 105 107
f 72 107 76
f 72 76 73
f 74 102 108
f 74 108 75
f 75 108 103
f 78 109 110
f 78 110 111
f 78 111 112
f 78 112 113
f 78 113 82
f 78 82 79
f 81 82 84
f 82 113 114
f 82 114 115
f 82 115 84
f 83 85 116
f 83 116 117
f 83 117 86
f 84 115 85
f 85 115 118
f 85 118 119
f 85 119 116
f 86 117 120
f 86 120 121
f 86 121 122
f 86 122 123
f 86 123 124
f 86 124 89
f 86 89 87
f 87 89 88
f 89 124 92
f 89 91 90
f 92 124 125
f 92 125 93
f 93 125 95
f 93 95 94
f 95 126 127
f 95 127 128
f 95 128 129
f 95 129 96
f 95 125 123
f 95 123 126
f 96 129 97
f 97 129 98
f 98 129 130
f 98 130 131
f 98 131 132
f 98 132 100
f 98 100 99
f 100 132 101
f 101 132 131
f 101 131 133
f 101 133 134
f 101 134 135
f 101 135 136
f 101 136 137
f 101 137 138
f 101 138 139
f 101 139 140
f 101 140 141
f 101 141 108
f 101 108 102
f 103 108 141
f 103 141 106
f 104 106 143
f 104 143 144
f 104 144 142
f 106 141 140
f 106 140 143
f 109 145 159
f 109 159 158
f 109 158 168
f 109 168 167
f 109 167 166
f 109 166 165
f 109 165 153
f 109 153 152
f 109 152 151
f 109 151 150
f 109 150 149
f 109 149 148
f 109 148 117
f 109 117 116
f 109 116 119
f 109 119 118
f 109 118 146
f 109 146 114
f 109 114 113
f 109 113 112
f 109 112 111
f 109 111 110
f 114 146 147
f 114 147 115
f 115 147 146
f 115 146 118
f 117 148 120
f 120 148 149
f 120 149 122
f 120 122 121
f 122 149 150
f 122 150 151
f 122 151 152
f 122 152 126
f 122 126 123
f 123 125 124
f 126 152 153
f 126 153 154
f 126 154 128
f 126 128 127
f 128 154 155
f 128 155 156
f 128 156 130
f 128 130 129
f 130 156 131
f 131 156 155
f 131 155 157
f 131 157 134
f 131 134 133
f 134 157 158
f 134 158 135
f 135 158 159
f 135 159 160
f 135 160 136
f 136 160 144
f 136 144 137
f 137 144 138
f 138 144 140
f 138 140 139
f 140 144 143
f 142 144 161
f 142 161 162
f 142 162 163
f 144 160 161
f 145 164 160
f 145 160 159
f 153 165 154
f 154 165 166
f 154 166 155
f 155 166 167
f 155 167 157
f 157 167 168
f 157 168 158
f 160 162 161
f 160 164 169
f 160 169 170
f 160 170 163
f 160 163 162

