# https://github.com/mikedh/trimesh
v -0.38278323 0.24515049 1.26039147
v -0.38278323 0.25761338 1.25992256
v -0.38278323 0.24141985 1.25986204
v -0.25667017 0.16065716 1.22277120
v -0.25667017 0.16602768 1.22339138
v -0.25667017 0.19976762 1.22631085
v -0.25667017 0.21846193 1.22753611
v -0.25667017 0.22821906 1.22756639
v -0.25667017 0.23375355 1.22688569
v -0.25667017 0.24535548 1.22485870
v -0.38278323 0.26216396 1.25912082
v -0.38278323 0.22731712 1.25713923
v -0.25667017 0.14975215 1.21951896
v -0.38278323 0.22301251 1.25588370
v -0.25667017 0.25052104 1.22298298
v -0.38278323 0.27671765 1.25415924
v -0.26207769 0.14462763 1.21849032
v -0.25667017 0.14532456 1.21806675
v -0.38278323 0.21206652 1.25158771
v -0.25667017 0.26138504 1.21892901
v -0.38007947 0.27962838 1.25217766
v -0.38278323 0.27950539 1.25282807
v -0.31279450 0.13757626 1.21380104
v -0.27897917 0.13618238 1.21364978
v -0.26207769 0.12683523 1.20826463
v -0.25667017 0.12683523 1.20758393
v -0.38278323 0.20472816 1.24773035
v -0.25667017 0.26942030 1.21552545
v -0.38278323 0.28409698 1.25057419
v -0.37421518 0.28569585 1.24714045
v -0.32969598 0.12683523 1.20700910
v -0.31279450 0.12683523 1.20767468
v -0.29589300 0.13646936 1.21349851
v -0.26207769 0.11351146 1.20035330
v -0.25667017 0.11383941 1.20002053
v -0.38278323 0.19669290 1.24288980
v -0.25667017 0.27110115 1.21467836
v -0.38278323 0.29209125 1.24459914
v -0.25667017 0.29020543 1.19956673
v -0.34659748 0.32747105 1.20301564
v -0.25667017 0.27319197 1.21330184
v -0.38278323 0.14237283 1.20979242
v -0.36351131 0.12851609 1.20297024
v -0.38278323 0.01311156 1.11534086
v -0.32969598 0.11625819 1.19920368
v -0.26207769 0.10506621 1.19425722
v -0.38278323 0.19349519 1.24095357
v -0.38278323 0.15081806 1.21510193
v -0.25667017 0.10539417 1.19431774
v -0.35780754 0.33755612 1.19660186
v -0.36907931 0.33870404 1.19784228
v -0.38041282 0.33907297 1.19822045
v -0.38278323 0.33903201 1.19815993
v -0.25667017 0.30894071 1.18431895
v -0.34659748 0.33591627 1.19499844
v -0.25667017 0.36207190 1.13659397
v -0.26802839 0.37338689 1.13077019
v -0.27897917 0.38408690 1.12503716
v -0.38278323 0.13068889 1.20133659
v -0.38278323 0.00511727 1.10585639
v -0.38165975 0.00470732 1.10585639
v -0.36328909 0.00089465 1.10585639
v -0.38041282 0.01286557 1.11541649
v -0.25667017 0.09498112 1.18586185
v -0.27897917 0.39199918 1.11658128
v -0.27897917 0.40159235 1.10585639
v -0.38278323 0.36637651 1.16940394
v -0.25667017 0.37047614 1.12783560
v -0.25675661 0.37051715 1.12785072
v -0.26834936 0.39044131 1.11450889
v -0.38278323 0.41971268 1.10585639
v -0.25667017 0.05086913 1.10585639
v -0.25667017 0.05189404 1.10845821
v -0.25667017 0.08100139 1.16920732
v -0.25667017 0.08653589 1.17766315
v -0.27759644 0.40126436 1.10585639
v -0.38278323 0.37535470 1.15910262
v -0.25667017 0.37822444 1.11969737
v -0.26370734 0.39564785 1.10585639
v -0.25667017 0.39035933 1.10585639
v -0.26250976 0.39482793 1.10585639
f 1 2 11
f 1 11 16
f 1 16 22
f 1 22 29
f 1 29 38
f 1 38 53
f 1 53 67
f 1 67 77
f 1 77 71
f 1 71 60
f 1 60 44
f 1 44 59
f 1 59 42
f 1 42 48
f 1 48 47
f 1 47 36
f 1 36 27
f 1 27 19
f 1 19 14
f 1 14 12
f 1 12 3
f 1 3 4
f 1 4 5
f 1 5 6
f 1 6 7
f 1 7 8
f 1 8 2
f 2 8 9
f 2 9 10
f 2 10 11
f 3 12 4
f 4 13 18
f 4 18 26
f 4 26 35
f 4 35 49
f 4 49 64
f 4 64 75
f 4 75 74
f 4 74 73
f 4 73 72
f 4 72 80
f 4 80 78
f 4 78 68
f 4 68 56
f 4 56 54
f 4 54 39
f 4 39 41
f 4 41 37
f 4 37 28
f 4 28 20
f 4 20 15
f 4 15 10
f 4 10 9
f 4 9 8
f 4 8 7
f 4 7 6
f 4 6 5
f 4 12 14
f 4 14 13
f 10 15 16
f 10 16 11
f 13 14 17
f 13 17 18
f 14 19 17
f 15 20 16
f 16 21 22
f 16 20 21
f 17 23 24
f 17 24 25
f 17 25 26
f 17 26 18
f 17 19 23
f 19 27 23
f 20 28 21
f 21 29 22
f 21 28 30
f 21 30 29
f 23 31 32
f 23 32 33
f 23 33 24
f 23 27 31
f 24 33 32
f 24 32 34
f 24 34 25
f 25 34 35
f 25 35 26
f 27 36 31
f 28 37 30
f 29 30 38
f 30 39 40
f 30 40 38
f 30 37 41
f 30 41 39
f 31 42 43
f 31 43 44
f 31 44 45
f 31 45 46
f 31 46 34
f 31 34 32
f 31 36 47
f 31 47 48
f 31 48 42
f 34 46 49
f 34 49 35
f 38 40 50
f 38 50 51
f 38 51 52
f 38 52 53
f 39 54 40
f 40 55 50
f 40 54 56
f 40 56 57
f 40 57 58
f 40 58 55
f 42 59 43
f 43 59 44
f 44 60 61
f 44 61 62
f 44 62 63
f 44 63 45
f 45 63 46
f 46 63 62
f 46 62 64
f 46 64 49
f 50 55 58
f 50 58 65
f 50 65 66
f 50 66 51
f 51 66 67
f 51 67 52
f 52 67 53
f 56 68 69
f 56 69 70
f 56 70 57
f 57 70 58
f 58 70 65
f 60 71 66
f 60 66 76
f 60 76 79
f 60 79 81
f 60 81 80
f 60 80 72
f 60 72 62
f 60 62 61
f 62 72 73
f 62 73 74
f 62 74 75
f 62 75 64
f 65 70 76
f 65 76 66
f 66 71 77
f 66 77 67
f 68 78 69
f 69 78 70
f 70 79 76
f 70 78 79
f 78 80 81
f 78 81 79

