# https://github.com/mikedh/trimesh
v 0.06157718 0.57099492 0.17430652
v 0.06157718 0.56477681 0.15722257
v 0.05915476 0.56512876 0.15739218
v 0.05915476 0.57092452 0.17430652
v 0.06157718 0.56878925 0.19122085
v 0.06157718 0.56379129 0.15549207
v 0.06157718 0.55893412 0.14780683
v 0.05915476 0.55900452 0.14772203
v 0.04849025 0.55867598 0.14807827
v -0.10988219 0.52554404 0.12919600
v -0.11924687 0.52455853 0.13150325
v -0.16060510 0.53087053 0.20548862
v -0.14370732 0.53378012 0.20548862
v 0.06157718 0.56297001 0.20548862
v 0.06157718 0.54304862 0.12995944
v 0.05915476 0.54330671 0.12967102
v 0.05915476 0.55175398 0.13925637
v 0.04225697 0.54316594 0.12968800
v -0.09298441 0.51353020 0.10858323
v -0.09298441 0.52197742 0.11988210
v -0.10988219 0.51906782 0.12073034
v -0.10988219 0.51062060 0.11170482
v -0.13912837 0.51017476 0.12933170
v -0.20444481 0.50822719 0.19783730
v -0.17174228 0.52559099 0.19668365
v -0.17289440 0.52622453 0.20548862
v 0.06157718 0.33130440 0.20548862
v 0.06157718 0.50923617 0.09289042
v -0.09298441 0.50475445 0.10011757
v 0.06157718 0.49590830 0.07964055
v -0.10592362 0.49389033 0.09621557
v -0.11088662 0.49921682 0.10264543
v -0.11717896 0.48926782 0.09889610
v -0.14787268 0.48666328 0.11750693
v -0.15614432 0.49421887 0.12875490
v -0.15038371 0.50548187 0.13457399
v -0.21803396 0.48905664 0.18458748
v -0.22196297 0.49262326 0.19585238
v -0.22379454 0.49421887 0.20548862
v -0.21375040 0.50238452 0.20548862
v -0.20541968 0.50888421 0.20548862
v 0.06157718 0.33130440 0.03495416
v -0.16689745 0.33130440 0.20548862
v -0.09298441 0.49630719 0.09436636
v 0.06157718 0.49041760 0.07570464
v 0.06157718 0.48337824 0.07090345
v -0.09298441 0.48185302 0.08919199
v -0.11088662 0.48293240 0.09397620
v -0.12228966 0.47800484 0.09614775
v -0.15460816 0.44276105 0.09684331
v -0.14943838 0.45402408 0.09960865
v -0.15416503 0.47540030 0.11409692
v -0.16078236 0.48187650 0.12329211
v -0.22358778 0.47779366 0.17910771
v -0.22843258 0.48185302 0.19110209
v -0.23741324 0.47467288 0.19763373
v -0.22494668 0.49267017 0.20548862
v 0.06134085 0.33130440 0.03500505
v 0.06157718 0.34388139 0.03351209
v -0.22397181 0.38093195 0.20548862
v -0.15868490 0.33130440 0.15739218
v 0.06157718 0.46685915 0.06197975
v 0.06157718 0.46409034 0.06067343
v 0.06157718 0.44806405 0.05353108
v -0.10988219 0.46495854 0.08888663
v 0.06157718 0.43412612 0.04872994
v 0.06157718 0.39740408 0.03741409
v 0.04225697 0.38043918 0.03719354
v -0.12745945 0.46521668 0.09411189
v -0.15460816 0.43487697 0.09684331
v -0.23764955 0.42711020 0.16494172
v -0.23602477 0.43839667 0.16655340
v -0.16940850 0.45740296 0.11463981
v -0.16010288 0.46380876 0.11163699
v -0.14376640 0.44827523 0.09484142
v -0.12677998 0.44806405 0.08968398
v 0.04225697 0.36352123 0.03629440
v -0.16542039 0.46866594 0.11782926
v -0.17091511 0.47708972 0.12909422
v -0.23487266 0.46925256 0.18636882
v -0.23773820 0.47176328 0.20548862
v -0.23741324 0.47467288 0.20382605
v -0.23611341 0.47669085 0.20548862
v -0.23714736 0.45796609 0.18188997
v -0.23826994 0.46413730 0.19169587
v -0.23986518 0.44806405 0.19122085
v -0.23868351 0.46228360 0.20548862
v 0.01428110 0.33130440 0.04672799
v 0.06157718 0.34662675 0.03327460
v 0.05915476 0.34662675 0.03381749
v -0.23053004 0.39733368 0.20548862
v -0.23552258 0.40890170 0.17430652
v -0.22967333 0.39733368 0.17430652
v -0.22237656 0.38672770 0.17430652
v -0.22101764 0.38804171 0.16451760
v -0.15522854 0.33130440 0.14734880
v 0.06157718 0.38043918 0.03381749
v 0.06157718 0.36352123 0.03217185
v 0.05915476 0.36352123 0.03259597
v -0.15156537 0.42359050 0.09862466
v -0.22429677 0.39733368 0.16176925
v -0.23764955 0.41960155 0.16494172
v 0.00583219 0.33130440 0.04939154
v 0.00438466 0.33130440 0.04986661
v -0.00997255 0.33130440 0.05590620
v -0.23921527 0.43210816 0.17303415
v -0.23821084 0.44806405 0.17841214
v 0.06157718 0.36000156 0.03229061
v 0.01348348 0.33130440 0.04696553
v -0.24021968 0.43114608 0.19122085
v -0.23986518 0.44541254 0.20548862
v -0.23980609 0.44806405 0.20548862
v -0.23735416 0.42089209 0.20548862
v -0.23844719 0.41828754 0.19122085
v -0.23865399 0.41734894 0.17430652
v -0.15481495 0.33130440 0.14617817
v -0.08243806 0.33130440 0.09965954
v -0.08338340 0.33130440 0.10025332
v -0.14364821 0.33130440 0.13859471
v -0.02246864 0.33130440 0.06226818
v -0.03011991 0.33130440 0.06688273
v -0.23832902 0.42687554 0.20548862
v -0.23874258 0.42987902 0.20548862
f 1 2 3
f 1 3 4
f 1 4 5
f 1 5 14
f 1 14 27
f 1 27 42
f 1 42 59
f 1 59 89
f 1 89 108
f 1 108 98
f 1 98 97
f 1 97 67
f 1 67 66
f 1 66 64
f 1 64 63
f 1 63 62
f 1 62 46
f 1 46 45
f 1 45 30
f 1 30 28
f 1 28 15
f 1 15 7
f 1 7 6
f 1 6 2
f 2 6 3
f 3 6 7
f 3 7 8
f 3 8 9
f 3 9 10
f 3 10 4
f 4 10 11
f 4 11 12
f 4 12 13
f 4 13 5
f 5 13 14
f 7 15 16
f 7 16 17
f 7 17 8
f 8 17 18
f 8 18 9
f 9 18 19
f 9 19 20
f 9 20 10
f 10 20 19
f 10 19 21
f 10 21 11
f 11 21 22
f 11 22 23
f 11 23 24
f 11 24 25
f 11 25 12
f 12 25 26
f 12 26 41
f 12 41 40
f 12 40 39
f 12 39 57
f 12 57 83
f 12 83 81
f 12 81 87
f 12 87 112
f 12 112 111
f 12 111 123
f 12 123 122
f 12 122 113
f 12 113 91
f 12 91 60
f 12 60 43
f 12 43 27
f 12 27 14
f 12 14 13
f 15 28 16
f 16 18 17
f 16 28 18
f 18 28 19
f 19 29 22
f 19 22 21
f 19 28 30
f 19 30 29
f 22 29 31
f 22 31 32
f 22 32 23
f 23 32 33
f 23 33 34
f 23 34 35
f 23 35 36
f 23 36 24
f 24 37 38
f 24 38 39
f 24 39 40
f 24 40 41
f 24 41 25
f 24 36 37
f 25 41 26
f 27 43 61
f 27 61 96
f 27 96 116
f 27 116 119
f 27 119 118
f 27 118 117
f 27 117 121
f 27 121 120
f 27 120 105
f 27 105 104
f 27 104 103
f 27 103 109
f 27 109 88
f 27 88 58
f 27 58 42
f 29 44 31
f 29 30 45
f 29 45 46
f 29 46 44
f 31 44 47
f 31 47 48
f 31 48 49
f 31 49 33
f 31 33 32
f 33 49 50
f 33 50 51
f 33 51 52
f 33 52 34
f 34 52 53
f 34 53 35
f 35 53 54
f 35 54 37
f 35 37 36
f 37 54 55
f 37 55 38
f 38 55 56
f 38 56 39
f 39 56 57
f 42 58 59
f 43 60 61
f 44 46 62
f 44 62 63
f 44 63 64
f 44 64 47
f 47 65 48
f 47 64 66
f 47 66 67
f 47 67 68
f 47 68 65
f 48 69 49
f 48 65 69
f 49 69 50
f 50 70 102
f 50 102 71
f 50 71 72
f 50 72 73
f 50 73 74
f 50 74 51
f 50 69 75
f 50 75 76
f 50 76 68
f 50 68 77
f 50 77 70
f 51 74 52
f 52 74 78
f 52 78 53
f 53 78 79
f 53 79 54
f 54 72 80
f 54 80 55
f 54 79 78
f 54 78 73
f 54 73 72
f 55 80 56
f 56 81 82
f 56 82 83
f 56 83 57
f 56 80 84
f 56 84 85
f 56 85 86
f 56 86 87
f 56 87 81
f 58 88 59
f 59 88 90
f 59 90 89
f 60 91 92
f 60 92 93
f 60 93 94
f 60 94 61
f 61 94 95
f 61 95 96
f 65 76 69
f 65 68 76
f 67 97 68
f 68 97 98
f 68 98 99
f 68 99 77
f 69 76 75
f 70 100 101
f 70 101 102
f 70 77 103
f 70 103 104
f 70 104 105
f 70 105 100
f 71 102 106
f 71 106 107
f 71 107 72
f 72 107 84
f 72 84 80
f 73 78 74
f 77 99 108
f 77 108 89
f 77 89 90
f 77 90 88
f 77 88 109
f 77 109 103
f 81 83 82
f 84 107 85
f 85 106 86
f 85 107 106
f 86 106 110
f 86 110 111
f 86 111 112
f 86 112 87
f 91 113 114
f 91 114 115
f 91 115 92
f 92 115 102
f 92 102 93
f 93 102 95
f 93 95 94
f 95 102 101
f 95 101 116
f 95 116 96
f 98 108 99
f 100 117 118
f 100 118 119
f 100 119 116
f 100 116 101
f 100 105 120
f 100 120 121
f 100 121 117
f 102 115 106
f 106 115 110
f 110 115 114
f 110 114 122
f 110 122 123
f 110 123 111
f 113 122 114

