# https://github.com/mikedh/trimesh
v -0.05680785 -0.21061302 0.86875083
v -0.21774011 -0.21061302 1.01327831
v -0.21770716 -0.21135418 1.01327831
v -0.21813543 -0.22479804 1.01287570
v -0.20469421 -0.29587749 0.99244458
v -0.18861747 -0.31279040 0.97493223
v -0.18901280 -0.31576534 0.97473093
v -0.18021671 -0.31576534 0.96627666
v -0.15461909 -0.31576534 0.94121587
v -0.12091720 -0.31576534 0.90719756
v -0.05680785 -0.31576534 0.84147579
v -0.05680785 -0.21061302 0.06922001
v -0.22824932 -0.21061302 1.02052481
v -0.22824932 -0.21135418 1.02052481
v -0.23085188 -0.27897490 1.01458670
v -0.22245114 -0.27897490 1.00935313
v -0.21316088 -0.29587749 0.99959046
v -0.20680264 -0.31279040 0.99113619
v -0.19708412 -0.31279040 0.98268197
v -0.19747945 -0.31576534 0.98227936
v -0.05680785 -0.31576534 0.04768185
v -0.05680785 -0.21538940 0.06599936
v -0.25266093 -0.25321953 0.03016945
v -0.05693963 -0.21061302 0.06922001
v -0.24587444 -0.21061302 1.02736871
v -0.24475434 -0.21172476 1.02706678
v -0.24514966 -0.27897490 1.01780735
v -0.23375099 -0.29090554 1.01287570
v -0.21523635 -0.31279040 0.99767821
v -0.21003118 -0.31576534 0.99244458
v -0.05917984 -0.31576534 0.04687664
v -0.05680785 -0.31017575 0.04285078
v -0.05680785 -0.24820640 0.04395792
v -0.24514966 -0.27514554 0.01587769
v -0.25595536 -0.25321953 0.03016945
v -0.16064786 -0.21061302 0.07395040
v -0.25954626 -0.21061302 1.02656355
v -0.26205002 -0.22825680 1.02424869
v -0.26205002 -0.27897490 1.01690156
v -0.26205002 -0.29385989 1.01368086
v -0.24514966 -0.29362312 1.01398279
v -0.22824932 -0.31279040 1.00301241
v -0.21602702 -0.31576534 0.99707430
v -0.07571781 -0.31576534 0.04194499
v -0.22495489 -0.31576534 -0.00022564
v -0.05680785 -0.29546574 0.03419531
v -0.05680785 -0.26216494 0.03620824
v -0.22824932 -0.31279040 0.00017697
v -0.24514966 -0.28359684 0.01225444
v -0.25608712 -0.28480123 0.01285840
v -0.26178647 -0.26105318 0.02634495
v -0.26725520 -0.25473273 0.03137717
v -0.26178647 -0.24886521 0.03781856
v -0.17563747 -0.21061302 0.07686912
v -0.16137265 -0.21061302 0.07405108
v -0.27819265 -0.21061302 1.02082674
v -0.27895037 -0.21135418 1.02082674
v -0.30998379 -0.22825680 1.01368086
v -0.29588368 -0.22825680 1.01790803
v -0.31235577 -0.24516970 1.01408347
v -0.29588368 -0.26207230 1.01720349
v -0.27895037 -0.27897490 1.01569379
v -0.29499418 -0.27914989 1.01388217
v -0.27895037 -0.29121437 1.01247315
v -0.26205002 -0.30231120 1.01035954
v -0.24514966 -0.30207442 1.01005761
v -0.22824932 -0.31576534 1.00150271
v -0.24514966 -0.31279040 1.00492466
v -0.22824932 -0.31576534 -0.00082950
v -0.05680785 -0.28018957 0.03157852
v -0.06283664 -0.28791000 0.03057206
v -0.05680785 -0.29458046 0.03369203
v -0.24514966 -0.29587749 0.00702087
v -0.26751877 -0.29587749 0.01507258
v -0.26185235 -0.27908812 0.01728676
v -0.24514966 -0.31279040 0.00178729
v -0.25905210 -0.29587749 0.01104672
v -0.27970810 -0.26105318 0.03449724
v -0.28853714 -0.25260188 0.04647403
v -0.27895037 -0.25015193 0.04305214
v -0.27453584 -0.26599427 0.02855913
v -0.27895037 -0.24281239 0.05603540
v -0.17599985 -0.21061302 0.07696980
v -0.29578485 -0.21141594 1.01488863
v -0.29532362 -0.21061302 1.01468733
v -0.30645877 -0.21709819 1.01267440
v -0.32082241 -0.24516970 1.01106408
v -0.35057098 -0.22825680 0.99254526
v -0.31074151 -0.26207230 1.01388217
v -0.30754590 -0.27362204 1.01287570
v -0.28873478 -0.28868205 1.01156731
v -0.27895037 -0.29966567 1.00915182
v -0.26205002 -0.31279040 1.00391825
v -0.24514966 -0.31576534 1.00311304
v -0.24007625 -0.31576534 0.00037832
v -0.25799788 -0.31576534 0.00712154
v -0.26112758 -0.31279040 0.00913447
v -0.26959422 -0.31279040 0.01436805
v -0.27842326 -0.29587749 0.02352680
v -0.28583573 -0.27897490 0.03188045
v -0.27740200 -0.27897490 0.02584166
v -0.24511671 -0.31576534 0.00118343
v -0.29137031 -0.26207230 0.04335406
v -0.30481156 -0.25306511 0.06378518
v -0.29482946 -0.25015193 0.05734379
v -0.27990577 -0.23772718 0.07143429
v -0.26926478 -0.23675956 0.06479165
v -0.38862152 -0.21061302 0.25048327
v -0.17636224 -0.21061302 0.07717105
v -0.30352673 -0.21061302 1.01046022
v -0.37185291 -0.21999078 0.97724709
v -0.37699221 -0.23126261 0.97925997
v -0.31917519 -0.26207230 1.00985636
v -0.37699221 -0.24160799 0.97925997
v -0.38173619 -0.24641526 0.97452963
v -0.33788748 -0.27008096 0.99405496
v -0.37149055 -0.28684975 0.96003662
v -0.31393709 -0.28008664 1.00391825
v -0.29206215 -0.30856988 0.99787946
v -0.30003464 -0.28489391 1.00945375
v -0.27891743 -0.31363451 0.99989239
v -0.27750081 -0.31576534 0.99878530
v -0.26554211 -0.31576534 1.00120078
v -0.26205002 -0.31576534 1.00190532
v -0.26155587 -0.31576534 0.00913447
v -0.26847413 -0.31576534 0.01336158
v -0.26975895 -0.31576534 0.01426737
v -0.28688992 -0.29587749 0.03117591
v -0.29413765 -0.27897490 0.04033467
v -0.29980404 -0.26207230 0.05271417
v -0.30655759 -0.26207230 0.06116840
v -0.39336548 -0.21061302 0.25662266
v -0.39072995 -0.21061302 0.25320071
v -0.26135818 -0.21061302 0.14087994
v -0.19589814 -0.21061302 0.08844341
v -0.19523925 -0.21061302 0.08804081
v -0.35646800 -0.21061302 0.97805225
v -0.36058601 -0.21590409 0.98107160
v -0.36645009 -0.21061302 0.96989991
v -0.38117613 -0.21061302 0.95731920
v -0.39250891 -0.21061302 0.94735524
v -0.38931333 -0.21941432 0.96094246
v -0.38173619 -0.22668182 0.97412707
v -0.39303603 -0.22825680 0.96486764
v -0.39336548 -0.22880237 0.96466633
v -0.39336548 -0.23414490 0.96516957
v -0.39336548 -0.24432559 0.96597473
v -0.39336548 -0.24522115 0.96597473
v -0.35860937 -0.30693316 0.94594622
v -0.29324815 -0.31576534 0.98902263
v -0.39336548 -0.24679612 0.96496826
v -0.39336548 -0.25818121 0.95731920
v -0.39336548 -0.26311197 0.95379658
v -0.39336548 -0.28006605 0.94020941
v -0.39336548 -0.28956734 0.93024546
v -0.39303603 -0.29020556 0.92994351
v -0.39336548 -0.31576534 0.89974975
v -0.36312272 -0.31576534 0.93105063
v -0.28082818 -0.31576534 0.99747691
v -0.27783027 -0.31576534 0.02161455
v -0.28003753 -0.31576534 0.02362748
v -0.28369435 -0.31576534 0.02704948
v -0.28721937 -0.30772580 0.03087399
v -0.29291871 -0.31576534 0.03630881
v -0.29502712 -0.29587749 0.03963014
v -0.30346085 -0.29587749 0.04858764
v -0.30257132 -0.27897490 0.04969478
v -0.30846834 -0.27897490 0.05814900
v -0.39336548 -0.21061302 0.94655007
v -0.31581489 -0.27897490 0.07294394
v -0.31789039 -0.29706129 0.07445359
v -0.32134952 -0.30348470 0.08109623
v -0.32161309 -0.31279040 0.08069373
v -0.32161309 -0.31576534 0.08069373
v -0.39336548 -0.31576534 0.25913879
v -0.39336548 -0.21737613 0.95460174
v -0.39336548 -0.22234809 0.95933213
v -0.39336548 -0.22825680 0.96456571
v -0.39336548 -0.29060701 0.92903770
v -0.29104088 -0.31576534 0.03439656
v -0.30280195 -0.31576534 0.04697732
v -0.30382324 -0.31279040 0.04828571
v -0.30912724 -0.29587749 0.05704186
v -0.31729738 -0.31279040 0.07223940
v -0.31565018 -0.31576534 0.06922001
v -0.30385617 -0.31576534 0.04828571
v -0.30764475 -0.31576534 0.05472700
v -0.30883074 -0.31279040 0.05673993
v -0.30863306 -0.31576534 0.05643800
f 1 2 3
f 1 3 4
f 1 4 5
f 1 5 6
f 1 6 7
f 1 7 8
f 1 8 9
f 1 9 10
f 1 10 11
f 1 11 21
f 1 21 32
f 1 32 46
f 1 46 72
f 1 72 70
f 1 70 47
f 1 47 33
f 1 33 22
f 1 22 12
f 1 12 24
f 1 24 36
f 1 36 55
f 1 55 54
f 1 54 83
f 1 83 109
f 1 109 136
f 1 136 135
f 1 135 134
f 1 134 108
f 1 108 133
f 1 133 132
f 1 132 169
f 1 169 141
f 1 141 140
f 1 140 139
f 1 139 137
f 1 137 110
f 1 110 85
f 1 85 56
f 1 56 37
f 1 37 25
f 1 25 13
f 1 13 2
f 2 13 3
f 3 13 14
f 3 14 4
f 4 14 15
f 4 15 16
f 4 16 17
f 4 17 5
f 5 17 18
f 5 18 19
f 5 19 6
f 6 19 7
f 7 19 20
f 7 20 30
f 7 30 43
f 7 43 67
f 7 67 94
f 7 94 124
f 7 124 123
f 7 123 122
f 7 122 159
f 7 159 150
f 7 150 158
f 7 158 157
f 7 157 175
f 7 175 174
f 7 174 185
f 7 185 189
f 7 189 187
f 7 187 186
f 7 186 181
f 7 181 164
f 7 164 180
f 7 180 162
f 7 162 161
f 7 161 160
f 7 160 127
f 7 127 126
f 7 126 125
f 7 125 96
f 7 96 102
f 7 102 95
f 7 95 69
f 7 69 45
f 7 45 44
f 7 44 31
f 7 31 21
f 7 21 11
f 7 11 10
f 7 10 9
f 7 9 8
f 12 22 23
f 12 23 35
f 12 35 24
f 13 25 26
f 13 26 14
f 14 26 15
f 15 26 27
f 15 27 28
f 15 28 29
f 15 29 16
f 16 29 17
f 17 29 18
f 18 29 30
f 18 30 20
f 18 20 19
f 21 31 32
f 22 33 23
f 23 33 34
f 23 34 35
f 24 35 36
f 25 37 38
f 25 38 27
f 25 27 26
f 27 38 39
f 27 39 40
f 27 40 41
f 27 41 28
f 28 41 42
f 28 42 43
f 28 43 29
f 29 43 30
f 31 44 32
f 32 44 45
f 32 45 46
f 33 47 34
f 34 48 49
f 34 49 50
f 34 50 51
f 34 51 35
f 34 47 48
f 35 51 52
f 35 52 53
f 35 53 54
f 35 54 55
f 35 55 36
f 37 56 57
f 37 57 58
f 37 58 59
f 37 59 60
f 37 60 61
f 37 61 38
f 38 61 39
f 39 61 62
f 39 62 40
f 40 62 63
f 40 63 64
f 40 64 92
f 40 92 65
f 40 65 41
f 41 65 66
f 41 66 42
f 42 67 43
f 42 66 68
f 42 68 67
f 45 69 70
f 45 70 71
f 45 71 72
f 45 72 46
f 47 70 69
f 47 69 48
f 48 69 73
f 48 73 49
f 49 73 50
f 50 74 75
f 50 75 51
f 50 73 76
f 50 76 77
f 50 77 74
f 51 75 52
f 52 78 79
f 52 79 80
f 52 80 53
f 52 75 81
f 52 81 78
f 53 80 82
f 53 82 83
f 53 83 54
f 56 84 57
f 56 85 84
f 57 84 86
f 57 86 58
f 58 87 60
f 58 60 59
f 58 86 88
f 58 88 87
f 60 87 89
f 60 89 61
f 61 89 90
f 61 90 63
f 61 63 62
f 63 90 91
f 63 91 64
f 64 91 92
f 65 92 93
f 65 93 94
f 65 94 68
f 65 68 66
f 67 68 94
f 69 95 76
f 69 76 73
f 70 72 71
f 74 77 96
f 74 96 97
f 74 97 98
f 74 98 99
f 74 99 100
f 74 100 101
f 74 101 75
f 75 101 81
f 76 95 102
f 76 102 77
f 77 102 96
f 78 81 100
f 78 100 103
f 78 103 79
f 79 103 104
f 79 104 105
f 79 105 82
f 79 82 80
f 81 101 100
f 82 106 107
f 82 107 83
f 82 105 108
f 82 108 106
f 83 107 109
f 84 85 86
f 85 110 86
f 86 110 111
f 86 111 112
f 86 112 88
f 87 113 89
f 87 88 112
f 87 112 114
f 87 114 113
f 89 113 90
f 90 113 115
f 90 115 116
f 90 116 117
f 90 117 118
f 90 118 119
f 90 119 120
f 90 120 92
f 90 92 91
f 92 120 119
f 92 119 121
f 92 121 122
f 92 122 93
f 93 122 123
f 93 123 124
f 93 124 94
f 96 125 97
f 97 125 126
f 97 126 98
f 98 126 127
f 98 127 99
f 99 127 128
f 99 128 100
f 100 129 103
f 100 128 129
f 103 129 167
f 103 167 130
f 103 130 104
f 104 130 131
f 104 131 132
f 104 132 133
f 104 133 108
f 104 108 105
f 106 108 107
f 107 108 134
f 107 134 135
f 107 135 136
f 107 136 109
f 110 137 138
f 110 138 111
f 111 138 137
f 111 137 139
f 111 139 140
f 111 140 141
f 111 141 142
f 111 142 143
f 111 143 112
f 112 143 144
f 112 144 145
f 112 145 146
f 112 146 147
f 112 147 148
f 112 148 114
f 113 114 115
f 114 148 115
f 115 148 117
f 115 117 116
f 117 149 150
f 117 150 119
f 117 119 118
f 117 148 151
f 117 151 152
f 117 152 153
f 117 153 154
f 117 154 155
f 117 155 156
f 117 156 157
f 117 157 158
f 117 158 149
f 119 150 159
f 119 159 121
f 121 159 122
f 127 160 128
f 128 160 161
f 128 161 162
f 128 162 163
f 128 163 164
f 128 164 165
f 128 165 129
f 129 165 166
f 129 166 167
f 130 167 131
f 131 167 168
f 131 168 132
f 132 168 170
f 132 170 171
f 132 171 172
f 132 172 173
f 132 173 174
f 132 174 175
f 132 175 157
f 132 157 179
f 132 179 155
f 132 155 154
f 132 154 153
f 132 153 152
f 132 152 151
f 132 151 148
f 132 148 147
f 132 147 146
f 132 146 145
f 132 145 178
f 132 178 177
f 132 177 176
f 132 176 169
f 141 169 142
f 142 169 176
f 142 176 177
f 142 177 178
f 142 178 143
f 143 178 144
f 144 178 145
f 149 158 150
f 155 179 156
f 156 179 157
f 162 180 163
f 163 180 164
f 164 181 166
f 164 166 165
f 166 181 182
f 166 182 183
f 166 183 168
f 166 168 167
f 168 183 171
f 168 171 170
f 171 173 172
f 171 183 173
f 173 183 184
f 173 184 174
f 174 184 185
f 181 186 182
f 182 186 183
f 183 186 187
f 183 187 188
f 183 188 185
f 183 185 184
f 185 188 189
f 187 189 188

