# https://github.com/mikedh/trimesh
v 0.01009224 0.59661880 0.34172549
v 0.00847733 0.59654084 0.34172549
v 0.02535701 0.59555389 0.34172549
v 0.03516184 0.59217743 0.29946487
v 0.02535701 0.59230728 0.29882475
v 0.01585978 0.59204758 0.29971825
v -0.00840238 0.59547599 0.34172549
v 0.02635671 0.59547599 0.34172549
v 0.02535701 0.59028141 0.29036995
v 0.03650759 0.59248915 0.30957328
v 0.04496665 0.58978796 0.30957328
v 0.06153874 0.57560680 0.25885785
v 0.05746300 0.57695742 0.25885785
v 0.05415629 0.57565876 0.24892280
v 0.06153874 0.56295808 0.20548862
v 0.00843887 0.58352852 0.27575410
v 0.00951547 0.58924249 0.29351716
v -0.10583544 0.55952968 0.26365869
v -0.09299304 0.56498394 0.27575410
v -0.02539739 0.59303455 0.34172549
v -0.02116786 0.59383971 0.34172549
v 0.03631534 0.59300854 0.34172549
v 0.02535701 0.58532063 0.27575410
v 0.04473596 0.58900879 0.34172549
v 0.06061594 0.58028191 0.30977329
v 0.05915483 0.58082732 0.29266367
v 0.06153874 0.57776253 0.27380710
v 0.06153874 0.33130691 0.20548862
v -0.14370898 0.53379065 0.20548862
v -0.14370898 0.53480356 0.20814240
v -0.09299304 0.56121789 0.26149829
v -0.16058867 0.53088171 0.20548862
v -0.16058867 0.53158298 0.20814240
v -0.17323883 0.52641439 0.20814240
v -0.10687359 0.56020498 0.27575410
v -0.05831086 0.58430767 0.34172549
v -0.05581159 0.58511283 0.34172549
v -0.04327678 0.58882694 0.34172549
v -0.04227709 0.58908669 0.34172549
v -0.03178014 0.59155407 0.34172549
v 0.04608171 0.58817764 0.34172549
v 0.05773216 0.58100918 0.32648285
v 0.06153874 0.57965855 0.30907984
v 0.06153874 0.57965855 0.30759960
v 0.06153874 0.57934690 0.29266367
v 0.06153874 0.57921705 0.28896970
v 0.06153874 0.33130691 0.34172549
v -0.16689452 0.33130691 0.20548862
v -0.17289277 0.52620659 0.20548862
v -0.19442494 0.51535000 0.20814240
v -0.14247858 0.54934832 0.34172549
v 0.05661710 0.58054162 0.34172549
v 0.06153874 0.57729502 0.32648285
v 0.06153874 0.57500945 0.34172549
v -0.32700161 0.33130691 0.34172549
v -0.27924631 0.33130691 0.27824786
v -0.22399323 0.38094087 0.20548862
v -0.20542173 0.50888275 0.20548862
v -0.20572933 0.50911650 0.20814240
v -0.25171590 0.48955903 0.34172549
v 0.06119269 0.57545099 0.34172549
v -0.33038520 0.36317550 0.34172549
v -0.23875814 0.42987358 0.20548862
v -0.23833520 0.42688673 0.20548862
v -0.23741237 0.42127660 0.20548862
v -0.23733549 0.42088700 0.20548862
v -0.23052977 0.39735566 0.20548862
v -0.21372698 0.50238955 0.20548862
v -0.21418838 0.50311682 0.20814240
v -0.21514966 0.50457128 0.22503867
v -0.22618489 0.49610417 0.22503867
v -0.31039106 0.42899050 0.34172549
v -0.33042365 0.36353912 0.34172549
v -0.23983473 0.44543129 0.20548862
v -0.22380096 0.49423408 0.20548862
v -0.22430083 0.49467565 0.20814240
v -0.31927307 0.41883516 0.34172549
v -0.33123113 0.38044740 0.34172549
v -0.23979629 0.44805453 0.20548862
v -0.22495450 0.49267576 0.20548862
v -0.32215686 0.41462756 0.34172549
v -0.23610507 0.47667654 0.20548862
v -0.32938550 0.39855042 0.34172549
v -0.23837365 0.46540432 0.20548862
v -0.23868124 0.46231358 0.20548862
v -0.32434854 0.41086149 0.34172549
v -0.23771998 0.47176766 0.20548862
f 1 2 7
f 1 7 21
f 1 21 20
f 1 20 40
f 1 40 39
f 1 39 38
f 1 38 37
f 1 37 36
f 1 36 51
f 1 51 60
f 1 60 72
f 1 72 77
f 1 77 81
f 1 81 86
f 1 86 83
f 1 83 78
f 1 78 73
f 1 73 62
f 1 62 55
f 1 55 47
f 1 47 54
f 1 54 61
f 1 61 52
f 1 52 41
f 1 41 24
f 1 24 22
f 1 22 8
f 1 8 3
f 1 3 4
f 1 4 5
f 1 5 6
f 1 6 2
f 2 6 7
f 3 8 4
f 4 9 5
f 4 8 10
f 4 10 11
f 4 11 12
f 4 12 13
f 4 13 14
f 4 14 15
f 4 15 9
f 5 9 6
f 6 9 16
f 6 16 17
f 6 17 18
f 6 18 19
f 6 19 20
f 6 20 21
f 6 21 7
f 8 22 10
f 9 23 16
f 9 15 23
f 10 22 11
f 11 22 24
f 11 24 25
f 11 25 26
f 11 26 27
f 11 27 12
f 12 27 46
f 12 46 45
f 12 45 44
f 12 44 43
f 12 43 53
f 12 53 54
f 12 54 47
f 12 47 28
f 12 28 15
f 12 15 13
f 13 15 14
f 15 16 23
f 15 28 48
f 15 48 57
f 15 57 67
f 15 67 66
f 15 66 65
f 15 65 64
f 15 64 63
f 15 63 74
f 15 74 79
f 15 79 85
f 15 85 84
f 15 84 87
f 15 87 82
f 15 82 80
f 15 80 75
f 15 75 68
f 15 68 58
f 15 58 49
f 15 49 32
f 15 32 29
f 15 29 16
f 16 29 30
f 16 30 31
f 16 31 17
f 17 31 18
f 18 32 33
f 18 33 34
f 18 34 35
f 18 35 36
f 18 36 37
f 18 37 38
f 18 38 19
f 18 31 32
f 19 38 39
f 19 39 40
f 19 40 20
f 24 41 25
f 25 41 42
f 25 42 43
f 25 43 44
f 25 44 45
f 25 45 26
f 26 45 46
f 26 46 27
f 28 47 55
f 28 55 56
f 28 56 48
f 29 32 30
f 30 32 31
f 32 49 33
f 33 49 34
f 34 49 50
f 34 50 51
f 34 51 35
f 35 51 36
f 41 52 42
f 42 52 43
f 43 52 53
f 48 56 57
f 49 58 50
f 50 58 59
f 50 59 60
f 50 60 51
f 52 61 53
f 53 61 54
f 55 62 63
f 55 63 64
f 55 64 56
f 56 64 65
f 56 65 66
f 56 66 67
f 56 67 57
f 58 68 69
f 58 69 59
f 59 69 70
f 59 70 60
f 60 70 71
f 60 71 72
f 62 73 63
f 63 73 74
f 68 75 69
f 69 75 76
f 69 76 71
f 69 71 70
f 71 76 72
f 72 76 77
f 73 78 74
f 74 78 79
f 75 80 76
f 76 80 77
f 77 80 82
f 77 82 81
f 78 83 84
f 78 84 85
f 78 85 79
f 81 82 86
f 82 87 83
f 82 83 86
f 83 87 84

