# https://github.com/mikedh/trimesh
v -0.39340158 -0.24522427 0.96606664
v -0.39340158 -0.24432246 0.96599743
v -0.39394336 -0.24516962 0.96565143
v -0.40864372 -0.25637404 0.94613709
v -0.39340158 -0.24680017 0.96502863
v -0.39340158 -0.23413830 0.96516702
v -0.45902944 -0.23276279 0.91229841
v -0.45902944 -0.24134374 0.91229841
v -0.45570652 -0.25261189 0.90870002
v -0.39340158 -0.28006725 0.94025511
v -0.39340158 -0.26310580 0.95381827
v -0.39340158 -0.25818677 0.95734745
v -0.39340158 -0.22880027 0.96468264
v -0.39340158 -0.22825370 0.96461343
v -0.45527311 -0.22272437 0.90856161
v -0.49150029 -0.22272437 0.87707570
v -0.49276445 -0.22825370 0.87845971
v -0.53567364 -0.22825370 0.83680145
v -0.49319785 -0.24117065 0.87894412
v -0.53567364 -0.24516962 0.83693985
v -0.52487406 -0.25427890 0.84268343
v -0.50934299 -0.28993260 0.82745948
v -0.49327010 -0.30724023 0.82787469
v -0.40434558 -0.28603383 0.92503116
v -0.39340158 -0.28956822 0.93029034
v -0.39340158 -0.22272437 0.95970025
v -0.52909997 -0.22272437 0.84046905
v -0.57674069 -0.22272437 0.79341319
v -0.57739086 -0.22825370 0.79417439
v -0.54390871 -0.24516962 0.82849747
v -0.54170546 -0.25443375 0.82607548
v -0.57565714 -0.27134966 0.77535204
v -0.50453918 -0.30120075 0.82206189
v -0.49843509 -0.31263291 0.81617991
v -0.49229487 -0.31577559 0.81908630
v -0.48434877 -0.31577559 0.82635229
v -0.47885873 -0.31577559 0.83105787
v -0.39340158 -0.29060668 0.92911394
v -0.39340158 -0.22272437 0.26251252
v -0.59339150 -0.22272437 0.77625164
v -0.59386102 -0.22825370 0.77680524
v -0.59331924 -0.23978603 0.77618245
v -0.57645176 -0.24516962 0.79320559
v -0.57500702 -0.25376879 0.79154479
v -0.64608885 -0.27342659 0.69279671
v -0.49655691 -0.31577559 0.81438072
v -0.66006683 -0.30505398 0.63992809
v -0.68386911 -0.31577559 0.59993062
v -0.39340158 -0.31577559 0.89970405
v -0.39340158 -0.26536488 0.25981372
v -0.69633014 -0.22272437 0.41835040
v -0.59794247 -0.22272437 0.77057726
v -0.64666676 -0.22825370 0.71217265
v -0.60931988 -0.23293586 0.75832890
v -0.60931988 -0.23800974 0.75832890
v -0.64641391 -0.24516962 0.71113465
v -0.64384946 -0.25522626 0.70815907
v -0.65757460 -0.26207643 0.68746833
v -0.66093366 -0.27239725 0.67584277
v -0.65092878 -0.27854600 0.68124035
v -0.68755323 -0.31577559 0.59543263
v -0.39340158 -0.31577559 0.25912171
v -0.39340158 -0.28241745 0.25939852
v -0.72486396 -0.22272437 0.43495835
v -0.64533034 -0.22272437 0.71078865
v -0.74570454 -0.22272437 0.56941351
v -0.74902748 -0.22707860 0.56408513
v -0.74794393 -0.24516962 0.55917195
v -0.66310079 -0.26207643 0.67902596
v -0.67585074 -0.26900858 0.65549803
v -0.67642865 -0.28759151 0.63937449
v -0.69539105 -0.30826047 0.59231864
v -0.69553550 -0.31577559 0.58269987
v -0.55636969 -0.31577559 0.36991056
v -0.71247525 -0.23984068 0.43475075
v -0.72695888 -0.22272437 0.43668835
v -0.74646304 -0.22272437 0.56823712
v -0.75859897 -0.22825370 0.54920718
v -0.76141626 -0.23792776 0.53972681
v -0.75570943 -0.24420405 0.54574719
v -0.74519889 -0.25537200 0.55640395
v -0.67855964 -0.27897414 0.64311127
v -0.69719697 -0.31577559 0.57923988
v -0.65407112 -0.31577559 0.47585542
v -0.70738250 -0.25110886 0.43917954
v -0.72374433 -0.23211604 0.44084033
v -0.74660751 -0.22272437 0.46658265
v -0.74411534 -0.23698036 0.46997343
v -0.74610186 -0.22825370 0.46734384
v -0.75513158 -0.22272437 0.55439716
v -0.75845450 -0.22272437 0.54809998
v -0.76163292 -0.22272437 0.54028040
v -0.76177744 -0.22825370 0.54076480
v -0.76235529 -0.22825370 0.52941603
v -0.76159684 -0.23851076 0.52941603
v -0.75740703 -0.24696414 0.52941603
v -0.74895522 -0.26041854 0.52941603
v -0.74718541 -0.25822320 0.54630079
v -0.69770262 -0.31577559 0.57785589
v -0.67697044 -0.31577559 0.50069814
v -0.72627263 -0.27016549 0.48775778
v -0.73143758 -0.25810479 0.47869261
v -0.74346516 -0.25305826 0.48803458
v -0.73988944 -0.24916860 0.47869261
v -0.75166412 -0.22825370 0.47869261
v -0.75198922 -0.22272437 0.47869261
v -0.74642691 -0.24071518 0.47869261
v -0.76192191 -0.22272437 0.53453683
v -0.76134399 -0.22690553 0.51301570
v -0.76127174 -0.23789129 0.51896687
v -0.76195804 -0.22272437 0.52941603
v -0.76105506 -0.22272437 0.50706452
v -0.75693750 -0.24417672 0.51301570
v -0.74819678 -0.25895194 0.51253130
v -0.74256220 -0.26887195 0.52941603
v -0.72724785 -0.28778281 0.53827362
v -0.70268703 -0.31577559 0.56304714
v -0.68448314 -0.31577559 0.50927891
v -0.68661418 -0.31577559 0.51177010
v -0.69965307 -0.31577559 0.52920844
v -0.72963164 -0.27316242 0.49903734
v -0.74599347 -0.25605520 0.49931415
v -0.74985818 -0.24651779 0.49447015
v -0.75993532 -0.23165145 0.50768730
v -0.75794880 -0.22690553 0.49709975
v -0.75986312 -0.22272437 0.50132094
v -0.76069389 -0.22272437 0.50450412
v -0.74100912 -0.26741445 0.51253130
v -0.72648931 -0.28696296 0.52450286
v -0.71175287 -0.30577364 0.53391403
v -0.72724785 -0.28778281 0.53578242
v -0.70405956 -0.31577559 0.54754638
v -0.73255732 -0.27637798 0.51253130
v -0.70926064 -0.30356006 0.52263447
f 1 2 3
f 1 3 4
f 1 4 5
f 1 5 12
f 1 12 11
f 1 11 10
f 1 10 25
f 1 25 38
f 1 38 49
f 1 49 62
f 1 62 63
f 1 63 50
f 1 50 39
f 1 39 26
f 1 26 14
f 1 14 13
f 1 13 6
f 1 6 2
f 2 6 3
f 3 6 7
f 3 7 8
f 3 8 9
f 3 9 4
f 4 10 11
f 4 11 12
f 4 12 5
f 4 9 10
f 6 13 7
f 7 13 14
f 7 14 15
f 7 15 16
f 7 16 17
f 7 17 18
f 7 18 19
f 7 19 8
f 8 19 20
f 8 20 21
f 8 21 9
f 9 21 22
f 9 22 23
f 9 23 10
f 10 24 25
f 10 23 24
f 14 26 15
f 15 26 39
f 15 39 51
f 15 51 64
f 15 64 76
f 15 76 87
f 15 87 106
f 15 106 126
f 15 126 127
f 15 127 112
f 15 112 111
f 15 111 108
f 15 108 92
f 15 92 91
f 15 91 90
f 15 90 77
f 15 77 66
f 15 66 65
f 15 65 52
f 15 52 40
f 15 40 28
f 15 28 27
f 15 27 16
f 16 27 18
f 16 18 17
f 18 20 19
f 18 27 28
f 18 28 29
f 18 29 20
f 20 29 30
f 20 30 31
f 20 31 21
f 21 31 22
f 22 31 32
f 22 32 33
f 22 33 23
f 23 33 34
f 23 34 35
f 23 35 36
f 23 36 37
f 23 37 24
f 24 37 25
f 25 37 38
f 28 40 29
f 29 40 41
f 29 41 30
f 30 41 42
f 30 42 43
f 30 43 44
f 30 44 31
f 31 44 32
f 32 44 45
f 32 45 34
f 32 34 33
f 34 46 35
f 34 45 47
f 34 47 48
f 34 48 46
f 35 46 48
f 35 48 61
f 35 61 73
f 35 73 83
f 35 83 99
f 35 99 117
f 35 117 132
f 35 132 120
f 35 120 119
f 35 119 118
f 35 118 100
f 35 100 84
f 35 84 74
f 35 74 62
f 35 62 49
f 35 49 37
f 35 37 36
f 37 49 38
f 39 50 51
f 40 52 53
f 40 53 41
f 41 54 55
f 41 55 42
f 41 53 54
f 42 55 44
f 42 44 43
f 44 55 56
f 44 56 57
f 44 57 58
f 44 58 45
f 45 58 59
f 45 59 60
f 45 60 48
f 45 48 47
f 48 60 59
f 48 59 61
f 50 63 51
f 51 63 62
f 51 62 64
f 52 65 53
f 53 56 55
f 53 55 54
f 53 65 66
f 53 66 56
f 56 58 57
f 56 66 67
f 56 67 68
f 56 68 58
f 58 68 69
f 58 69 70
f 58 70 59
f 59 70 71
f 59 71 61
f 61 72 73
f 61 71 72
f 62 74 75
f 62 75 64
f 64 75 76
f 66 77 78
f 66 78 67
f 67 78 68
f 68 78 79
f 68 79 80
f 68 80 81
f 68 81 70
f 68 70 69
f 70 82 71
f 70 81 82
f 71 82 72
f 72 81 73
f 72 82 81
f 73 81 83
f 74 84 85
f 74 85 75
f 75 85 86
f 75 86 76
f 76 86 88
f 76 88 89
f 76 89 87
f 77 90 78
f 78 90 91
f 78 91 92
f 78 92 93
f 78 93 79
f 79 93 94
f 79 94 95
f 79 95 96
f 79 96 97
f 79 97 98
f 79 98 80
f 80 98 81
f 81 98 83
f 83 98 99
f 84 100 85
f 85 100 101
f 85 101 102
f 85 102 103
f 85 103 104
f 85 104 88
f 85 88 86
f 87 89 105
f 87 105 106
f 88 104 103
f 88 103 107
f 88 107 105
f 88 105 89
f 92 108 94
f 92 94 93
f 94 109 110
f 94 110 95
f 94 108 111
f 94 111 112
f 94 112 109
f 95 110 96
f 96 110 113
f 96 113 114
f 96 114 97
f 97 115 116
f 97 116 117
f 97 117 98
f 97 114 115
f 98 117 99
f 100 118 101
f 101 118 119
f 101 119 120
f 101 120 121
f 101 121 103
f 101 103 102
f 103 121 122
f 103 122 123
f 103 123 107
f 105 107 123
f 105 123 113
f 105 113 124
f 105 124 125
f 105 125 126
f 105 126 106
f 109 112 110
f 110 112 127
f 110 127 124
f 110 124 113
f 113 123 122
f 113 122 114
f 114 122 128
f 114 128 129
f 114 129 115
f 115 129 130
f 115 130 131
f 115 131 116
f 116 131 132
f 116 132 117
f 120 130 133
f 120 133 134
f 120 134 121
f 120 132 130
f 121 134 133
f 121 133 122
f 122 133 128
f 124 127 126
f 124 126 125
f 128 133 129
f 129 133 130
f 130 132 131

