# https://github.com/mikedh/trimesh
v -0.03406741 -0.12858392 0.34172552
v -0.03406741 0.47732211 0.34172552
v 0.06157718 -0.12858392 0.34172552
v -0.03406741 -0.12858392 0.92990267
v 0.06157718 0.47732211 0.34172552
v -0.03406741 0.47732211 0.84913878
v 0.06157718 -0.12858392 1.04855276
v -0.02111945 -0.12858392 0.96827984
v -0.03406741 -0.01631099 1.07490128
v 0.06157718 0.47732211 0.78727706
v -0.01003455 0.47732211 0.83702828
v -0.03406741 0.42180841 0.94209498
v -0.02536053 0.42121532 0.94111305
v -0.00845234 0.41961397 0.93857638
v 0.01435407 0.42210494 0.92572948
v 0.02535469 0.42584146 0.91509186
v 0.03870525 0.42400289 0.91214608
v 0.04997738 0.42246083 0.90936392
v 0.06157718 -0.00610974 1.14290007
v -0.01939679 -0.00237326 1.09699473
v -0.02563205 -0.00895660 1.08758453
v -0.03406741 -0.01435378 1.07686513
v -0.00610241 -0.12858392 0.98800030
v -0.02029556 -0.12858392 0.97040735
v -0.02119434 -0.12751634 0.96942542
v -0.01879760 -0.12235639 0.97949022
v -0.01013755 -0.12858392 0.98407257
v -0.00837743 -0.12858392 0.98595462
v 0.00155590 0.47732211 0.82999111
v 0.05003354 0.43936403 0.87524178
v 0.05461168 0.42530769 0.89807171
v 0.05981708 0.41919881 0.90273589
v 0.06157718 0.41979189 0.89888997
v -0.03406741 0.30591763 1.13144419
v -0.02978888 0.30544313 1.13087137
v 0.02535469 0.31783881 1.08979387
v 0.02535469 0.42080018 0.92352011
v 0.04350807 0.41902084 0.91795583
v 0.03437989 0.32151604 1.07940180
v 0.06157718 0.37299668 0.97924475
v 0.06157718 0.39179777 0.94806841
v 0.06157718 0.40781136 0.92041064
v 0.06157718 0.41006511 0.91648294
v 0.06157718 0.00830246 1.15165562
v 0.06153038 0.00848038 1.15173745
v -0.03066892 0.00444734 1.09363979
v -0.03406741 0.00053291 1.08856651
v -0.03406741 -0.00581320 1.08406599
v -0.03406741 -0.00913454 1.08128382
v 0.06157718 0.41783469 0.90249039
v -0.03406741 0.30271488 1.13438997
v -0.00845234 0.29387779 1.13594471
v 0.00845586 0.29103093 1.13324438
v -0.01851675 0.30372317 1.12882569
v 0.01787426 0.30467211 1.11319662
v 0.02424996 0.30858653 1.10452290
v 0.03697322 0.30704448 1.09912224
v 0.06157718 0.36884500 0.98546365
v 0.06157718 0.00848038 1.15173745
v 0.06157718 0.05017498 1.16720286
v -0.03406741 0.19056060 1.16212952
v -0.03406741 0.01536028 1.09634008
v -0.03406741 0.00563353 1.09183956
v -0.03406741 0.29654670 1.13962692
v -0.00845234 0.28409171 1.14437293
v 0.01836111 0.28859924 1.13070771
v 0.02914639 0.30182527 1.11041445
v 0.00845586 0.29945288 1.12342503
v -0.00845234 0.30235905 1.12669818
v 0.00926101 0.27875386 1.14232725
v 0.03653321 0.29055644 1.11516047
v 0.05241155 0.30645141 1.08128382
v 0.06157718 0.35793206 1.00035627
v 0.06157718 0.07609324 1.17530380
v 0.05917109 0.07609324 1.17481286
v -0.03406741 0.21161549 1.16712103
v -0.02188714 0.28610822 1.14551852
v -0.03406741 0.28770958 1.14666411
v -0.03406741 0.27406841 1.15566515
v -0.03406741 0.26042721 1.16368426
v -0.00845234 0.27566976 1.14928261
v 0.00415859 0.27300082 1.14772786
v 0.02454018 0.27810145 1.13381720
v 0.02962388 0.28314275 1.12645268
v 0.01542136 0.26570577 1.14592768
v 0.04843261 0.27893179 1.10877793
v 0.04824535 0.29945288 1.09257604
v 0.03492290 0.27187397 1.13046222
v 0.03940741 0.27810145 1.12088841
v 0.06157718 0.27946557 1.08938477
v 0.06157718 0.28183795 1.08750270
v 0.06157718 0.29607224 1.07514678
v 0.06157718 0.30034253 1.07056443
v 0.06157718 0.31291614 1.05534446
v 0.06157718 0.09299645 1.17767676
v 0.05917109 0.09299645 1.17751315
v -0.03406741 0.22822216 1.16998502
v -0.03406741 0.22294361 1.16908488
v -0.03406741 0.27940626 1.15214660
v -0.03406741 0.25680934 1.16540267
v -0.03406741 0.25271698 1.16728469
v 0.06157718 0.14376539 1.17203070
v 0.06157718 0.15734728 1.16720286
v 0.05058593 0.27015400 1.11246014
v 0.06157718 0.26416372 1.10100426
v -0.03406741 0.23842340 1.16982136
v 0.06157718 0.11227204 1.17620390
v -0.03406741 0.24459159 1.16924854
f 1 2 5
f 1 5 3
f 1 3 7
f 1 7 23
f 1 23 28
f 1 28 27
f 1 27 24
f 1 24 8
f 1 8 4
f 1 4 9
f 1 9 22
f 1 22 49
f 1 49 48
f 1 48 47
f 1 47 63
f 1 63 62
f 1 62 61
f 1 61 76
f 1 76 98
f 1 98 97
f 1 97 106
f 1 106 108
f 1 108 101
f 1 101 100
f 1 100 80
f 1 80 79
f 1 79 99
f 1 99 78
f 1 78 64
f 1 64 51
f 1 51 34
f 1 34 12
f 1 12 6
f 1 6 2
f 2 6 11
f 2 11 29
f 2 29 10
f 2 10 5
f 3 5 10
f 3 10 33
f 3 33 50
f 3 50 43
f 3 43 42
f 3 42 41
f 3 41 40
f 3 40 58
f 3 58 73
f 3 73 94
f 3 94 93
f 3 93 92
f 3 92 91
f 3 91 90
f 3 90 105
f 3 105 103
f 3 103 102
f 3 102 107
f 3 107 95
f 3 95 74
f 3 74 60
f 3 60 59
f 3 59 44
f 3 44 19
f 3 19 7
f 4 8 9
f 6 12 13
f 6 13 14
f 6 14 15
f 6 15 16
f 6 16 17
f 6 17 18
f 6 18 11
f 7 19 20
f 7 20 21
f 7 21 22
f 7 22 23
f 8 24 25
f 8 25 9
f 9 25 24
f 9 24 26
f 9 26 27
f 9 27 28
f 9 28 22
f 10 29 30
f 10 30 18
f 10 18 31
f 10 31 32
f 10 32 33
f 11 18 29
f 12 34 13
f 13 34 14
f 14 34 35
f 14 35 36
f 14 36 15
f 15 36 37
f 15 37 16
f 16 37 17
f 17 37 36
f 17 36 38
f 17 38 18
f 18 38 36
f 18 36 39
f 18 39 40
f 18 40 41
f 18 41 42
f 18 42 43
f 18 43 32
f 18 32 31
f 18 30 29
f 19 44 45
f 19 45 20
f 20 46 47
f 20 47 48
f 20 48 21
f 20 45 46
f 21 48 49
f 21 49 22
f 22 28 23
f 24 27 26
f 32 43 50
f 32 50 33
f 34 51 35
f 35 51 52
f 35 52 53
f 35 53 54
f 35 54 55
f 35 55 36
f 36 55 56
f 36 56 39
f 39 56 57
f 39 57 40
f 40 57 58
f 44 59 45
f 45 59 60
f 45 60 61
f 45 61 62
f 45 62 46
f 46 63 47
f 46 62 63
f 51 64 65
f 51 65 52
f 52 65 53
f 53 66 67
f 53 67 55
f 53 55 68
f 53 68 69
f 53 69 54
f 53 65 70
f 53 70 66
f 54 69 55
f 55 67 56
f 55 69 68
f 56 67 57
f 57 67 71
f 57 71 72
f 57 72 73
f 57 73 58
f 60 74 75
f 60 75 61
f 61 75 76
f 64 77 65
f 64 78 77
f 65 77 79
f 65 79 80
f 65 80 81
f 65 81 82
f 65 82 70
f 66 70 83
f 66 83 84
f 66 84 71
f 66 71 67
f 70 82 85
f 70 85 83
f 71 86 87
f 71 87 72
f 71 84 88
f 71 88 89
f 71 89 86
f 72 87 86
f 72 86 90
f 72 90 91
f 72 91 92
f 72 92 93
f 72 93 94
f 72 94 73
f 74 95 96
f 74 96 75
f 75 96 97
f 75 97 98
f 75 98 76
f 77 78 99
f 77 99 79
f 80 100 82
f 80 82 81
f 82 100 101
f 82 101 102
f 82 102 103
f 82 103 85
f 83 88 84
f 83 85 88
f 85 103 88
f 86 89 104
f 86 104 90
f 88 103 104
f 88 104 89
f 90 104 105
f 95 106 97
f 95 97 96
f 95 107 106
f 101 108 102
f 102 108 107
f 103 105 104
f 106 107 108

