# https://github.com/mikedh/trimesh
v 0.19093885 -0.54315796 0.56017974
v 0.20438675 -0.52645436 0.55725999
v 0.19093885 -0.54241070 0.56316032
v 0.19093885 -0.54256455 0.54628049
v 0.19791185 -0.53612487 0.54628049
v 0.20557447 -0.52766318 0.54628049
v 0.19093885 -0.53955352 0.57049013
v 0.25220157 -0.47102474 0.51245999
v 0.25711331 -0.46256306 0.51245999
v 0.25491414 -0.45931027 0.52267914
v 0.19093885 -0.53792712 0.53271579
v 0.23733607 -0.49095918 0.50224084
v 0.23733607 -0.49095918 0.50613385
v 0.19093885 -0.53254238 0.57471770
v 0.25901365 -0.46335427 0.49554974
v 0.26746553 -0.45135404 0.49554974
v 0.26922027 -0.44847488 0.49554974
v 0.26922027 -0.44572758 0.50017268
v 0.26922027 -0.44201323 0.50625551
v 0.26922027 -0.43700212 0.50829325
v 0.26922027 -0.43113390 0.51063515
v 0.26604794 -0.43113390 0.51504519
v 0.25609418 -0.44803534 0.52392611
v 0.23911380 -0.46495869 0.54041057
v 0.23760425 -0.47465117 0.53898110
v 0.19093885 -0.53076214 0.57563012
v 0.19093885 -0.51684976 0.49518478
v 0.19401157 -0.51561902 0.49591471
v 0.20742117 -0.51008043 0.49922985
v 0.22328280 -0.49245370 0.48350575
v 0.23454688 -0.48876132 0.49095721
v 0.26922027 -0.44069450 0.45087139
v 0.26922027 -0.44513415 0.46188130
v 0.26922027 -0.44988147 0.47863949
v 0.26922027 -0.31862629 0.53019142
v 0.24870742 -0.44803534 0.53238123
v 0.23063127 -0.46495869 0.54886569
v 0.19093885 -0.51658603 0.57803283
v 0.19093885 -0.51034418 0.48374905
v 0.21169692 -0.49577246 0.47818328
v 0.21756647 -0.48895914 0.47222210
v 0.23668473 -0.40579275 0.35187343
v 0.26922027 -0.40522132 0.38462943
v 0.26922027 -0.40660596 0.38697132
v 0.19093885 -0.31862629 0.59217540
v 0.19093885 -0.34662681 0.59171918
v 0.19093885 -0.43113390 0.58825198
v 0.19093885 -0.44803534 0.58721789
v 0.19616476 -0.44803534 0.58259495
v 0.20558980 -0.44803534 0.57413982
v 0.22218705 -0.46495869 0.55686460
v 0.26922027 -0.31862629 0.28471906
v 0.19093885 -0.50953094 0.48235001
v 0.19093885 -0.49322294 0.45439943
v 0.19093885 -0.41229838 0.32243256
v 0.19093885 -0.39135293 0.28934200
v 0.23919042 -0.39124303 0.33246923
v 0.26922027 -0.39150678 0.36501234
v 0.19093885 -0.31862629 0.29077145
v 0.19093885 -0.38042966 0.28429327
v 0.26512076 -0.31862629 0.28353291
v 0.25512867 -0.31862629 0.28149516
v 0.19093885 -0.37311082 0.28505362
v 0.26206338 -0.31862629 0.28265090
f 1 2 3
f 1 3 7
f 1 7 14
f 1 14 26
f 1 26 38
f 1 38 48
f 1 48 47
f 1 47 46
f 1 46 45
f 1 45 59
f 1 59 63
f 1 63 60
f 1 60 56
f 1 56 55
f 1 55 54
f 1 54 53
f 1 53 39
f 1 39 27
f 1 27 11
f 1 11 4
f 1 4 5
f 1 5 6
f 1 6 2
f 2 7 3
f 2 6 8
f 2 8 9
f 2 9 10
f 2 10 7
f 4 11 12
f 4 12 5
f 5 12 6
f 6 12 13
f 6 13 8
f 7 10 14
f 8 13 15
f 8 15 16
f 8 16 17
f 8 17 9
f 9 17 18
f 9 18 19
f 9 19 10
f 10 19 20
f 10 20 21
f 10 21 22
f 10 22 23
f 10 23 24
f 10 24 25
f 10 25 26
f 10 26 14
f 11 27 28
f 11 28 29
f 11 29 30
f 11 30 31
f 11 31 12
f 12 31 32
f 12 32 33
f 12 33 34
f 12 34 15
f 12 15 13
f 15 34 16
f 16 34 17
f 17 34 33
f 17 33 32
f 17 32 44
f 17 44 43
f 17 43 58
f 17 58 52
f 17 52 35
f 17 35 21
f 17 21 20
f 17 20 19
f 17 19 18
f 21 35 22
f 22 35 23
f 23 35 36
f 23 36 24
f 24 37 26
f 24 26 25
f 24 36 35
f 24 35 37
f 26 37 38
f 27 39 28
f 28 39 40
f 28 40 30
f 28 30 29
f 30 40 41
f 30 41 42
f 30 42 43
f 30 43 44
f 30 44 31
f 31 44 32
f 35 45 46
f 35 46 47
f 35 47 48
f 35 48 49
f 35 49 50
f 35 50 51
f 35 51 37
f 35 52 61
f 35 61 64
f 35 64 62
f 35 62 59
f 35 59 45
f 37 51 38
f 38 50 49
f 38 49 48
f 38 51 50
f 39 53 40
f 40 53 54
f 40 54 41
f 41 54 42
f 42 54 55
f 42 55 56
f 42 56 57
f 42 57 43
f 43 57 58
f 52 58 57
f 52 57 56
f 52 56 60
f 52 60 61
f 59 62 63
f 60 62 64
f 60 64 61
f 60 63 62

