# https://github.com/mikedh/trimesh
v 0.06157718 0.29510049 1.07594715
v 0.16173974 0.20246459 1.07594715
v 0.06157718 0.29608777 1.07513816
v 0.06157718 -0.06919062 1.07594715
v 0.16173974 0.34479151 0.89677369
v 0.11871348 0.35565114 0.94411534
v 0.10246587 0.37259874 0.94463311
v 0.06157718 0.30028350 1.07060786
v 0.16173974 -0.27527672 1.07594715
v 0.06157718 -0.11320502 1.05636977
v 0.06760753 -0.08391693 1.07594715
v 0.16173974 0.34783550 0.89240519
v 0.11419317 0.36733347 0.93515182
v 0.11742896 0.37087109 0.92437619
v 0.11658570 0.47239213 0.74539686
v 0.06853906 0.50941359 0.74539686
v 0.06157718 0.51476114 0.74539686
v 0.08567895 0.37276328 0.96171882
v 0.06956862 0.35672065 0.99637564
v 0.06157718 0.31295308 1.05536663
v 0.15384636 -0.26285394 1.07594715
v 0.10328953 -0.30078039 1.00941644
v 0.16173974 -0.27807390 1.07429682
v 0.06157718 -0.19152596 1.02113051
v 0.06813703 -0.11707169 1.06148256
v 0.07040209 -0.09008716 1.07594715
v 0.16173974 0.35334760 0.88444478
v 0.12141978 0.46794956 0.74539686
v 0.06157718 0.37301008 0.97925755
v 0.06822527 0.37226968 0.97786609
v 0.06157718 -0.27996608 0.74539686
v 0.06157718 0.35795471 1.00038819
v 0.08201173 -0.11534402 1.07594715
v 0.08369825 -0.22138992 1.02892907
v 0.08606137 -0.26713201 1.00974001
v 0.10038712 -0.28950942 1.01229641
v 0.08632612 -0.30110945 0.99275138
v 0.08037421 -0.30974779 0.98149035
v 0.09760237 -0.30900739 0.99812302
v 0.11455598 -0.30752651 1.01436741
v 0.08911086 -0.27889659 1.00682767
v 0.16173974 -0.28070653 1.07219349
v 0.07890340 -0.10868016 1.07594715
v 0.06157718 -0.21127073 1.01206989
v 0.16173974 0.41003154 0.74539686
v 0.13235284 0.45289417 0.74918289
v 0.13114678 0.45552682 0.74539686
v 0.06157718 0.36889660 0.98547056
v 0.10052439 -0.27034053 0.74539686
v 0.16173974 -0.28983847 0.86803861
v 0.16173974 -0.31312087 0.95204338
v 0.15282661 -0.32134785 0.97673353
v 0.14370753 -0.32192376 0.97424186
v 0.06157718 -0.31221591 0.88683938
v 0.06650933 -0.25586102 0.99556664
v 0.06640147 -0.29000301 0.97864273
v 0.07620691 -0.29559737 0.98569705
v 0.06909796 -0.30127399 0.97566567
v 0.06378341 -0.30793786 0.96440464
v 0.08490434 -0.32101877 0.97696005
v 0.10246587 -0.32027836 0.99307497
v 0.16173974 -0.29732505 1.05701696
v 0.06157718 -0.29386970 0.97175021
v 0.16173974 -0.25487379 0.74539686
v 0.16147499 -0.25503833 0.74539686
v 0.16173974 -0.27560581 0.81794642
v 0.16173974 -0.31764573 0.97006753
v 0.15450333 -0.32200602 0.98585885
v 0.14370753 -0.32365141 0.98585885
v 0.12680297 -0.32570817 0.98585885
v 0.10990819 -0.32455639 0.96896729
v 0.12599893 -0.32274644 0.96851427
v 0.10990819 -0.32217056 0.95722087
v 0.08674776 -0.32151241 0.94230324
v 0.08073702 -0.32151241 0.94230324
v 0.06157718 -0.31501307 0.90376329
v 0.06157718 -0.29559737 0.97087649
v 0.06157718 -0.30168535 0.96657272
v 0.06157718 -0.29683143 0.97022930
v 0.06157718 -0.30917191 0.95935660
v 0.06157718 -0.31303861 0.95230225
v 0.08170776 -0.32249964 0.96569900
v 0.09617078 -0.32282871 0.98178157
v 0.11372252 -0.32332235 0.99737877
v 0.06157718 -0.31155774 0.95566761
v 0.16173974 -0.30193215 1.05196892
v 0.16173974 -0.26598021 0.78426038
v 0.16173974 -0.31953793 0.98585885
v 0.15462100 -0.32208830 0.99673158
v 0.14370753 -0.32299326 0.99883493
v 0.12680297 -0.32389824 0.99928795
v 0.10881979 -0.32439185 0.98679727
v 0.09152300 -0.32356915 0.97039110
v 0.07956036 -0.32241735 0.95204338
v 0.09263102 -0.32282871 0.95142856
v 0.06157718 -0.31600031 0.92084900
v 0.06157718 -0.31616485 0.93854955
v 0.07110807 -0.31953793 0.95204338
v 0.16173974 -0.31040598 1.03957531
v 0.16173974 -0.30900739 1.04248762
v 0.16173974 -0.31953793 0.98744446
v 0.16173974 -0.31822159 1.00388300
v 0.16173974 -0.31558895 1.02080691
v 0.16173974 -0.31114638 1.03737488
f 1 2 3
f 1 3 8
f 1 8 20
f 1 20 32
f 1 32 48
f 1 48 29
f 1 29 17
f 1 17 31
f 1 31 54
f 1 54 76
f 1 76 96
f 1 96 97
f 1 97 81
f 1 81 85
f 1 85 80
f 1 80 78
f 1 78 79
f 1 79 77
f 1 77 63
f 1 63 44
f 1 44 24
f 1 24 10
f 1 10 4
f 1 4 11
f 1 11 26
f 1 26 43
f 1 43 33
f 1 33 21
f 1 21 9
f 1 9 2
f 2 5 6
f 2 6 7
f 2 7 8
f 2 8 3
f 2 9 23
f 2 23 42
f 2 42 62
f 2 62 86
f 2 86 100
f 2 100 99
f 2 99 104
f 2 104 103
f 2 103 102
f 2 102 101
f 2 101 88
f 2 88 67
f 2 67 51
f 2 51 50
f 2 50 66
f 2 66 87
f 2 87 64
f 2 64 45
f 2 45 27
f 2 27 12
f 2 12 5
f 4 10 11
f 5 12 13
f 5 13 6
f 6 13 7
f 7 13 14
f 7 14 15
f 7 15 16
f 7 16 17
f 7 17 18
f 7 18 8
f 8 19 20
f 8 18 19
f 9 21 22
f 9 22 23
f 10 24 11
f 11 24 25
f 11 25 26
f 12 27 13
f 13 27 14
f 14 27 15
f 15 28 47
f 15 47 45
f 15 45 64
f 15 64 65
f 15 65 49
f 15 49 31
f 15 31 17
f 15 17 16
f 15 27 28
f 17 29 30
f 17 30 18
f 18 30 19
f 19 32 20
f 19 30 32
f 21 33 34
f 21 34 35
f 21 35 36
f 21 36 22
f 22 37 38
f 22 38 39
f 22 39 40
f 22 40 23
f 22 36 41
f 22 41 37
f 23 40 42
f 24 33 43
f 24 43 25
f 24 44 34
f 24 34 33
f 25 43 26
f 27 45 46
f 27 46 28
f 28 46 47
f 29 48 30
f 30 48 32
f 31 49 50
f 31 50 51
f 31 51 52
f 31 52 53
f 31 53 54
f 34 44 35
f 35 44 55
f 35 55 56
f 35 56 57
f 35 57 41
f 35 41 36
f 37 41 57
f 37 57 58
f 37 58 38
f 38 58 59
f 38 59 60
f 38 60 39
f 39 60 40
f 40 60 61
f 40 61 62
f 40 62 42
f 44 63 55
f 45 47 46
f 49 65 66
f 49 66 50
f 51 67 52
f 52 67 68
f 52 68 69
f 52 69 70
f 52 70 53
f 53 70 71
f 53 71 72
f 53 72 73
f 53 73 54
f 54 73 74
f 54 74 75
f 54 75 76
f 55 63 56
f 56 63 77
f 56 77 58
f 56 58 57
f 58 78 59
f 58 77 79
f 58 79 78
f 59 78 80
f 59 80 60
f 60 81 82
f 60 82 83
f 60 83 84
f 60 84 61
f 60 80 85
f 60 85 81
f 61 84 62
f 62 84 86
f 64 87 65
f 65 87 66
f 67 88 68
f 68 89 69
f 68 88 89
f 69 89 70
f 70 89 90
f 70 90 91
f 70 91 84
f 70 84 92
f 70 92 93
f 70 93 71
f 71 93 94
f 71 94 95
f 71 95 73
f 71 73 72
f 73 95 74
f 74 95 75
f 75 95 94
f 75 94 76
f 76 94 96
f 81 97 98
f 81 98 82
f 82 94 93
f 82 93 92
f 82 92 83
f 82 98 94
f 83 92 84
f 84 91 99
f 84 99 100
f 84 100 86
f 88 101 89
f 89 101 102
f 89 102 103
f 89 103 90
f 90 103 104
f 90 104 91
f 91 104 99
f 94 98 96
f 96 98 97

