# https://github.com/mikedh/trimesh
v -0.56790750 0.26135239 0.36008730
v -0.56860216 0.26135239 0.36040757
v -0.56790750 0.26154583 0.36012733
v -0.56790750 0.26135239 0.76901659
v -0.58331884 0.26135239 0.36913545
v -0.56790750 0.27898135 0.36617280
v -0.56790750 0.54363661 0.76901659
v -0.82076682 0.26135239 0.76901659
v -0.56790750 0.29589187 0.37281879
v -0.59412477 0.26135239 0.37790337
v -0.56790750 0.31026029 0.37930465
v -0.65095897 0.52509583 0.68790334
v -0.65095897 0.52733400 0.69843284
v -0.65095897 0.52943399 0.71532810
v -0.66786258 0.52741689 0.71532810
v -0.66786258 0.52874316 0.73226340
v -0.59934765 0.53949188 0.76901659
v -0.56790750 0.52128266 0.69843284
v -0.63981852 0.52501293 0.68806349
v -0.82238772 0.26436422 0.76901659
v -0.82151293 0.26135239 0.76533325
v -0.59538548 0.26135239 0.37894432
v -0.59571996 0.26135239 0.37922456
v -0.56790750 0.31305107 0.38070591
v -0.56790750 0.47306553 0.54629545
v -0.66230520 0.52451555 0.68910442
v -0.67357428 0.52376949 0.69262761
v -0.67823111 0.52451555 0.70391780
v -0.68046953 0.52531688 0.71532810
v -0.68257926 0.52603527 0.73226340
v -0.66786258 0.52863266 0.74915864
v -0.65095897 0.53064977 0.76901659
v -0.82930868 0.28320896 0.76901659
v -0.83072374 0.26135239 0.71532810
v -0.82786786 0.26135239 0.73126249
v -0.57307890 0.31705767 0.38815264
v -0.61226334 0.26135239 0.39832181
v -0.69407987 0.38992213 0.55382225
v -0.57534301 0.42316290 0.45293113
v -0.56790750 0.41575768 0.44448351
v -0.56790750 0.44079185 0.47687276
v -0.64357491 0.47392214 0.57103779
v -0.66791402 0.52089583 0.68269864
v -0.68553803 0.51387738 0.68085698
v -0.68422586 0.52150371 0.69835278
v -0.68893418 0.52269188 0.71532810
v -0.69104390 0.52329977 0.73226340
v -0.69029781 0.52338266 0.74915864
v -0.68185884 0.52553794 0.74915864
v -0.66845433 0.52689188 0.76901659
v -0.82984898 0.29406818 0.76901659
v -0.83062085 0.26135239 0.71348644
v -0.82992614 0.29589187 0.76901659
v -0.69588088 0.38044449 0.55198059
v -0.79869182 0.26135239 0.63493550
v -0.66014403 0.45789580 0.57035718
v -0.65996394 0.44051558 0.55402243
v -0.80787688 0.26135239 0.64718657
v -0.80761960 0.26295503 0.64782715
v -0.81111864 0.26919978 0.65787622
v -0.79719955 0.29152607 0.65303184
v -0.74427608 0.47408792 0.73987027
v -0.72690939 0.49011425 0.72401595
v -0.69516046 0.50998133 0.68606167
v -0.56790750 0.43521030 0.46590285
v -0.56790750 0.43275106 0.46229959
v -0.56790750 0.42482085 0.45112951
v -0.65484393 0.46916948 0.57720336
v -0.65944937 0.47342475 0.58845352
v -0.69727019 0.51266160 0.69843284
v -0.71425099 0.50981554 0.73226340
v -0.70164404 0.51744188 0.73226340
v -0.71618062 0.51094843 0.74915864
v -0.70164404 0.51868528 0.74915864
v -0.70455137 0.51653004 0.76901659
v -0.70164404 0.51752477 0.76901659
v -0.82925723 0.26135239 0.69843284
v -0.82858826 0.30335241 0.76901659
v -0.80934339 0.26135239 0.64962877
v -0.81688181 0.26135239 0.66396172
v -0.82442025 0.26135239 0.68245842
v -0.81322836 0.29036557 0.68754301
v -0.76398412 0.45587870 0.76901659
v -0.76254330 0.45886292 0.76901659
v -0.76107679 0.46165369 0.76901659
v -0.74579408 0.47676820 0.74915864
v -0.74085422 0.48522343 0.74915864
v -0.72963658 0.49389977 0.73526611
v -0.72351325 0.49923266 0.73070199
v -0.71201262 0.50843398 0.72201414
v -0.72464528 0.50509054 0.74915864
v -0.72577732 0.50641688 0.76605391
v -0.72593170 0.50652738 0.76901659
v -0.71733840 0.51100372 0.76605391
v -0.71749276 0.51100372 0.76901659
v -0.82761056 0.26687872 0.69843284
v -0.82488338 0.26135239 0.68373958
v -0.82562949 0.31037082 0.76901659
v -0.82205325 0.27898135 0.69843284
v -0.76748315 0.44800368 0.76901659
v -0.74895865 0.48096819 0.76901659
v -0.74862421 0.48038792 0.76605391
v -0.74304115 0.48881553 0.76605391
v -0.73238953 0.49663527 0.74915864
v -0.73457645 0.49796159 0.76605391
v -0.73506531 0.49796159 0.76901659
v -0.72796423 0.50478659 0.76901659
v -0.74329843 0.48928532 0.76901659
v -0.74445621 0.48779321 0.76901659
f 1 2 3
f 1 3 6
f 1 6 9
f 1 9 11
f 1 11 24
f 1 24 40
f 1 40 67
f 1 67 66
f 1 66 65
f 1 65 41
f 1 41 25
f 1 25 18
f 1 18 7
f 1 7 4
f 1 4 8
f 1 8 21
f 1 21 35
f 1 35 34
f 1 34 52
f 1 52 77
f 1 77 97
f 1 97 81
f 1 81 80
f 1 80 79
f 1 79 58
f 1 58 55
f 1 55 37
f 1 37 23
f 1 23 22
f 1 22 10
f 1 10 5
f 1 5 2
f 2 5 6
f 2 6 3
f 4 7 17
f 4 17 32
f 4 32 50
f 4 50 76
f 4 76 75
f 4 75 95
f 4 95 93
f 4 93 107
f 4 107 106
f 4 106 108
f 4 108 109
f 4 109 101
f 4 101 85
f 4 85 84
f 4 84 83
f 4 83 100
f 4 100 98
f 4 98 78
f 4 78 53
f 4 53 51
f 4 51 33
f 4 33 20
f 4 20 8
f 5 9 6
f 5 10 11
f 5 11 9
f 7 12 13
f 7 13 14
f 7 14 15
f 7 15 16
f 7 16 17
f 7 18 19
f 7 19 12
f 8 20 21
f 10 22 11
f 11 22 23
f 11 23 24
f 12 25 26
f 12 26 13
f 12 19 25
f 13 26 27
f 13 27 15
f 13 15 14
f 15 27 28
f 15 28 29
f 15 29 16
f 16 29 30
f 16 30 31
f 16 31 17
f 17 31 32
f 18 25 19
f 20 33 34
f 20 34 35
f 20 35 21
f 23 36 24
f 23 37 38
f 23 38 36
f 24 36 39
f 24 39 40
f 25 41 42
f 25 42 43
f 25 43 26
f 26 43 27
f 27 43 44
f 27 44 45
f 27 45 28
f 28 45 46
f 28 46 29
f 29 46 30
f 30 46 47
f 30 47 48
f 30 48 49
f 30 49 31
f 31 49 50
f 31 50 32
f 33 51 34
f 34 51 53
f 34 53 52
f 36 38 39
f 37 54 38
f 37 55 54
f 38 56 57
f 38 57 39
f 38 54 55
f 38 55 58
f 38 58 59
f 38 59 60
f 38 60 61
f 38 61 62
f 38 62 63
f 38 63 64
f 38 64 56
f 39 65 66
f 39 66 67
f 39 67 40
f 39 57 56
f 39 56 42
f 39 42 65
f 41 65 42
f 42 56 68
f 42 68 69
f 42 69 44
f 42 44 43
f 44 64 45
f 44 69 64
f 45 70 46
f 45 64 70
f 46 70 71
f 46 71 72
f 46 72 47
f 47 72 73
f 47 73 74
f 47 74 48
f 48 74 75
f 48 75 76
f 48 76 50
f 48 50 49
f 52 53 77
f 53 78 77
f 56 69 68
f 56 64 69
f 58 79 59
f 59 79 60
f 60 79 80
f 60 80 81
f 60 81 82
f 60 82 62
f 60 62 61
f 62 83 84
f 62 84 85
f 62 85 86
f 62 86 87
f 62 87 88
f 62 88 63
f 62 82 83
f 63 88 64
f 64 88 89
f 64 89 90
f 64 90 70
f 70 90 71
f 71 90 91
f 71 91 73
f 71 73 72
f 73 91 92
f 73 92 93
f 73 93 94
f 73 94 74
f 74 94 95
f 74 95 75
f 77 78 96
f 77 96 97
f 78 98 96
f 81 97 82
f 82 97 96
f 82 96 99
f 82 99 83
f 83 99 96
f 83 96 100
f 85 101 102
f 85 102 87
f 85 87 86
f 87 102 103
f 87 103 104
f 87 104 88
f 88 104 89
f 89 104 91
f 89 91 90
f 91 105 106
f 91 106 107
f 91 107 92
f 91 104 108
f 91 108 105
f 92 107 93
f 93 95 94
f 96 98 100
f 101 109 102
f 102 109 103
f 103 109 108
f 103 108 104
f 105 108 106

