# https://github.com/mikedh/trimesh
v -0.38279559 0.61196912 0.76905663
v -0.44806310 0.60302240 0.76905663
v -0.38279559 0.48068662 0.76905663
v -0.38279559 0.61857297 0.71534010
v -0.39734578 0.61946353 0.71534010
v -0.41425155 0.61586019 0.71534010
v -0.44806310 0.60329641 0.76607777
v -0.52914919 0.57704539 0.76905663
v -0.56788937 0.48068662 0.76905663
v -0.38279559 0.48068662 0.43827426
v -0.38279559 0.62021711 0.70080200
v -0.38279559 0.62038152 0.69843834
v -0.39734578 0.62062812 0.69843834
v -0.44806310 0.60320053 0.59702777
v -0.46496887 0.59754203 0.59702777
v -0.53723065 0.57146914 0.76905663
v -0.47491667 0.59284261 0.58537138
v -0.56788937 0.54364251 0.76905663
v -0.56788937 0.48068662 0.63811654
v -0.54969707 0.48068662 0.51701963
v -0.54424300 0.49353812 0.51831478
v -0.41291068 0.53188707 0.47479760
v -0.39734578 0.53766887 0.47084737
v -0.38279559 0.55062996 0.47314628
v -0.38279559 0.61891551 0.68390023
v -0.44806310 0.59984379 0.58012601
v -0.46551246 0.59578830 0.57989936
v -0.38279559 0.61847707 0.68153658
v -0.47151013 0.59048603 0.57410354
v -0.55853954 0.49111306 0.53622028
v -0.49162309 0.57663438 0.58588944
v -0.56788937 0.52129621 0.69843834
v -0.56788937 0.49422316 0.65194231
v -0.56401169 0.48068662 0.54629011
v -0.54978767 0.48068662 0.51711676
v -0.55551354 0.48542715 0.52495245
v -0.52664865 0.50848584 0.51957756
v -0.41274760 0.54908176 0.48311897
v -0.42423557 0.54316295 0.48551500
v -0.54971516 0.49585358 0.53010068
v -0.38279559 0.56482417 0.48211523
v -0.38279559 0.57068816 0.49558481
v -0.46023959 0.59340435 0.56973240
v -0.40611577 0.55808332 0.48693967
v -0.56007971 0.48068662 0.53006830
v -0.56013408 0.48068662 0.53019782
v -0.56788937 0.51528151 0.68108327
v -0.56788937 0.49504519 0.65288129
v -0.56788937 0.50363571 0.66398724
f 1 2 8
f 1 8 16
f 1 16 18
f 1 18 9
f 1 9 3
f 1 3 10
f 1 10 24
f 1 24 41
f 1 41 42
f 1 42 28
f 1 28 25
f 1 25 12
f 1 12 11
f 1 11 4
f 1 4 5
f 1 5 2
f 2 5 6
f 2 6 7
f 2 7 8
f 3 9 19
f 3 19 34
f 3 34 46
f 3 46 45
f 3 45 35
f 3 35 20
f 3 20 10
f 4 11 5
f 5 11 12
f 5 12 13
f 5 13 6
f 6 8 7
f 6 13 14
f 6 14 15
f 6 15 8
f 8 15 17
f 8 17 16
f 9 18 32
f 9 32 47
f 9 47 49
f 9 49 48
f 9 48 33
f 9 33 19
f 10 20 21
f 10 21 22
f 10 22 23
f 10 23 24
f 12 25 13
f 13 25 14
f 14 26 27
f 14 27 15
f 14 25 28
f 14 28 26
f 15 27 17
f 16 17 18
f 17 27 29
f 17 29 30
f 17 30 31
f 17 31 18
f 18 31 30
f 18 30 32
f 19 33 34
f 20 35 36
f 20 36 21
f 21 37 38
f 21 38 39
f 21 39 22
f 21 36 30
f 21 30 40
f 21 40 29
f 21 29 37
f 22 39 38
f 22 38 23
f 23 38 24
f 24 38 41
f 26 42 41
f 26 41 43
f 26 43 27
f 26 28 42
f 27 43 29
f 29 43 44
f 29 44 37
f 29 40 30
f 30 36 45
f 30 45 46
f 30 46 34
f 30 34 32
f 32 34 47
f 33 48 34
f 34 48 49
f 34 49 47
f 35 45 36
f 37 44 38
f 38 44 41
f 41 44 43

