# https://github.com/mikedh/trimesh
v 0.11658046 0.19456522 0.06341150
v 0.07593102 0.19456522 0.07934084
v 0.06157718 0.28591241 0.04702488
v 0.06157718 0.29465882 0.04370951
v 0.11296776 0.30038922 0.02838992
v 0.11658046 0.31196314 0.02362637
v 0.11658046 0.19456522 0.40951207
v 0.06157718 0.19456522 0.08589546
v 0.06157718 0.31301873 0.03787888
v 0.08391014 0.32089802 0.03048584
v 0.11658046 0.32304694 0.02149226
v 0.11658046 0.51143399 0.40951207
v 0.06157718 0.19456522 0.40951207
v 0.06157718 0.32971982 0.03513506
v 0.10989886 0.32971982 0.02210201
v 0.11658046 0.32971982 0.02042523
v 0.08098124 0.55399730 0.40951207
v 0.11658046 0.56391243 0.20807105
v 0.06157718 0.57337514 0.40951207
v 0.06157718 0.34389505 0.03349642
v 0.06157718 0.34660944 0.03326775
v 0.06157718 0.36003066 0.03231505
v 0.11658046 0.33993653 0.02023471
v 0.06157718 0.36353676 0.03220072
v 0.08022208 0.55490212 0.40951207
v 0.11658046 0.56526965 0.20147829
v 0.07252292 0.56259290 0.40951207
v 0.06157718 0.57492080 0.39407818
v 0.10989886 0.34660944 0.02175902
v 0.11658046 0.34660944 0.02038713
v 0.06157718 0.38042637 0.03383941
v 0.08267721 0.39249040 0.02999047
v 0.07989366 0.38042637 0.02957123
v 0.09298763 0.38042637 0.02682747
v 0.11658046 0.56677764 0.18455815
v 0.06157718 0.57963336 0.30905830
v 0.11658046 0.56790861 0.16763802
v 0.11658046 0.35686386 0.02122550
v 0.08695750 0.40376269 0.03101941
v 0.06157718 0.39739138 0.03742160
v 0.09274534 0.39780609 0.02880911
v 0.06157718 0.57967105 0.30761018
v 0.11658046 0.56738084 0.15742498
v 0.06157718 0.57921866 0.28897517
v 0.06157718 0.57933174 0.29263359
v 0.10989886 0.38042637 0.02499826
v 0.11658046 0.37375348 0.02362637
v 0.09822090 0.40738191 0.03014289
v 0.08347943 0.45869165 0.04698679
v 0.08859964 0.46996395 0.04839682
v 0.09986304 0.47422406 0.04721545
v 0.06157718 0.43411121 0.04873981
v 0.07608714 0.57133933 0.17434511
v 0.07608714 0.57250805 0.19122710
v 0.11658046 0.56632524 0.15075598
v 0.06157718 0.57096232 0.17434511
v 0.10372876 0.40738191 0.03014289
v 0.10957583 0.39784380 0.02835178
v 0.11658046 0.39192488 0.02789450
v 0.06157718 0.44802253 0.05354146
v 0.07601178 0.48142477 0.05994365
v 0.08159502 0.49201845 0.06261123
v 0.09373601 0.48067076 0.05167415
v 0.10989886 0.49661788 0.05937204
v 0.11658046 0.49797511 0.05971498
v 0.10969427 0.48067076 0.05053088
v 0.10392260 0.47422406 0.04721545
v 0.11658046 0.56300761 0.14100022
v 0.06157718 0.56477952 0.15727250
v 0.10969427 0.46593003 0.04531005
v 0.11658046 0.46363034 0.04565300
v 0.06157718 0.46408273 0.06066773
v 0.06157718 0.46683487 0.06200152
v 0.07032086 0.48677816 0.06615532
v 0.09298763 0.49428049 0.06047716
v 0.06291243 0.49450664 0.07743539
v 0.06157718 0.49590161 0.07964569
v 0.06157718 0.50920968 0.09290745
v 0.06157718 0.54302660 0.12998691
v 0.06157718 0.55147141 0.13947591
v 0.06157718 0.55889830 0.14782164
v 0.11658046 0.50589208 0.06634584
v 0.11658046 0.48112314 0.05155982
v 0.11519138 0.47222595 0.04797763
v 0.11658046 0.56093410 0.13623667
v 0.06157718 0.56376161 0.15551953
v 0.11658046 0.55882291 0.13189231
v 0.11658046 0.47079335 0.04774897
v 0.06157718 0.48338514 0.07091887
v 0.06157718 0.49043508 0.07572056
v 0.11658046 0.55795582 0.13067285
f 1 2 3
f 1 3 4
f 1 4 5
f 1 5 6
f 1 6 11
f 1 11 16
f 1 16 23
f 1 23 30
f 1 30 38
f 1 38 47
f 1 47 59
f 1 59 71
f 1 71 88
f 1 88 83
f 1 83 65
f 1 65 82
f 1 82 91
f 1 91 87
f 1 87 85
f 1 85 68
f 1 68 55
f 1 55 43
f 1 43 37
f 1 37 35
f 1 35 26
f 1 26 18
f 1 18 12
f 1 12 7
f 1 7 13
f 1 13 8
f 1 8 2
f 2 8 3
f 3 8 13
f 3 13 19
f 3 19 28
f 3 28 36
f 3 36 42
f 3 42 45
f 3 45 44
f 3 44 56
f 3 56 69
f 3 69 86
f 3 86 81
f 3 81 80
f 3 80 79
f 3 79 78
f 3 78 77
f 3 77 90
f 3 90 89
f 3 89 73
f 3 73 72
f 3 72 60
f 3 60 52
f 3 52 40
f 3 40 31
f 3 31 24
f 3 24 22
f 3 22 21
f 3 21 20
f 3 20 14
f 3 14 9
f 3 9 4
f 4 9 6
f 4 6 5
f 6 9 10
f 6 10 11
f 7 12 17
f 7 17 25
f 7 25 27
f 7 27 19
f 7 19 13
f 9 14 10
f 10 14 15
f 10 15 11
f 11 15 16
f 12 18 17
f 14 20 15
f 15 20 21
f 15 21 22
f 15 22 16
f 16 22 24
f 16 24 23
f 17 18 25
f 18 26 19
f 18 19 27
f 18 27 25
f 19 26 28
f 23 29 30
f 23 24 29
f 24 31 32
f 24 32 33
f 24 33 34
f 24 34 30
f 24 30 29
f 26 35 28
f 28 35 37
f 28 37 36
f 30 34 38
f 31 39 32
f 31 40 39
f 32 39 41
f 32 41 34
f 32 34 33
f 34 41 38
f 36 37 42
f 37 43 44
f 37 44 45
f 37 45 42
f 38 46 47
f 38 41 46
f 39 48 41
f 39 40 49
f 39 49 50
f 39 50 51
f 39 51 48
f 40 52 49
f 41 48 46
f 43 53 54
f 43 54 44
f 43 55 53
f 44 54 53
f 44 53 56
f 46 48 47
f 47 48 57
f 47 57 58
f 47 58 59
f 48 51 67
f 48 67 57
f 49 52 50
f 50 52 60
f 50 60 61
f 50 61 62
f 50 62 63
f 50 63 51
f 51 63 64
f 51 64 65
f 51 65 66
f 51 66 67
f 53 55 56
f 55 68 56
f 56 68 69
f 57 67 70
f 57 70 58
f 58 70 71
f 58 71 59
f 60 72 61
f 61 72 73
f 61 73 74
f 61 74 62
f 62 75 63
f 62 74 76
f 62 76 77
f 62 77 78
f 62 78 79
f 62 79 80
f 62 80 81
f 62 81 75
f 63 75 64
f 64 75 82
f 64 82 65
f 65 83 66
f 66 83 67
f 67 83 84
f 67 84 70
f 68 85 69
f 69 85 87
f 69 87 86
f 70 84 88
f 70 88 71
f 73 89 74
f 74 89 90
f 74 90 76
f 75 81 82
f 76 90 77
f 81 86 87
f 81 87 91
f 81 91 82
f 83 88 84

