# https://github.com/mikedh/trimesh
v 0.19093885 0.19452754 0.40951207
v 0.19093885 0.19452754 0.03923489
v 0.06158984 0.19452754 0.40951207
v 0.19093885 -0.46215607 0.40951207
v 0.17752909 0.19452754 0.03911637
v 0.19093885 -0.12259818 0.00972180
v 0.17752909 -0.10994949 0.00746978
v 0.06158984 0.19452754 0.08589485
v 0.06158984 -0.51938966 0.40951207
v 0.16067511 -0.48186290 0.40951207
v 0.16981753 -0.30471134 0.08079823
v 0.18903944 -0.28989630 0.07799309
v 0.19093885 -0.28731064 0.07613617
v 0.13429880 0.10333118 0.03038491
v 0.12680249 0.12674172 0.03492846
v 0.16054847 0.19452754 0.04215854
v 0.16061179 -0.09303798 0.00932666
v 0.19093885 -0.12686099 0.00932666
v 0.17752909 -0.12686099 0.00592894
v 0.16061179 -0.10994949 0.00774631
v 0.07593662 0.19452754 0.07933641
v 0.08658591 0.13372996 0.04812442
v 0.07597461 0.12758033 0.05065297
v 0.06158984 0.12709115 0.05812013
v 0.06158984 -0.39842345 0.13986400
v 0.07503757 -0.51631484 0.40951207
v 0.14958261 -0.48899090 0.40951207
v 0.06928873 -0.39010749 0.13061893
v 0.06158984 -0.39283286 0.12931512
v 0.12091437 -0.33902354 0.09751046
v 0.16061179 -0.30610899 0.08012660
v 0.19093885 -0.27417280 0.06203150
v 0.11463370 0.07230346 0.02991080
v 0.09299322 0.09298861 0.03670633
v 0.14341591 -0.07535775 0.01213180
v 0.13226012 -0.08052905 0.01268496
v 0.09299322 0.10983023 0.03943246
v 0.10991053 0.12674172 0.03899786
v 0.14888618 0.19452754 0.04599091
v 0.08153352 0.12247891 0.04603041
v 0.19093885 -0.14027839 0.00901062
v 0.17752909 -0.14377250 0.00667958
v 0.16061179 -0.14377250 0.00723270
v 0.16061179 -0.12686099 0.00707468
v 0.06158984 0.10983023 0.05310252
v 0.14145320 -0.49332356 0.40951207
v 0.12640995 -0.50003228 0.40951207
v 0.12434594 -0.50087083 0.40951207
v 0.10991053 -0.50611203 0.40951207
v 0.10416169 -0.50806872 0.40951207
v 0.09351239 -0.51142310 0.40951207
v 0.09261335 -0.51170260 0.40951207
v 0.09210684 -0.51184239 0.40951207
v 0.14466952 -0.49164638 0.40951207
v 0.06158984 -0.37794793 0.11991203
v 0.06750329 -0.37200795 0.11513145
v 0.06800980 -0.37200795 0.11513145
v 0.17752909 -0.27452220 0.06250561
v 0.14370714 -0.18136915 0.01612218
v 0.19093885 -0.26201329 0.05614469
v 0.09299322 0.07607709 0.03496797
v 0.06158984 0.05916560 0.04077577
v 0.14370714 -0.14377250 0.01011685
v 0.12985421 -0.16068401 0.01260590
v 0.12162348 -0.14377250 0.01426531
v 0.12342158 -0.09303798 0.01497644
v 0.06158984 -0.02539194 0.03575811
v 0.06158984 -0.01085643 0.03635074
v 0.06158984 -0.00848044 0.03646925
v 0.06158984 0.04225408 0.03927439
v 0.07844382 0.10983023 0.04452908
v 0.06158984 0.07579757 0.04441056
v 0.06158984 0.08103874 0.04571437
v 0.19093885 -0.14377250 0.00916864
v 0.19093885 -0.15376565 0.01098606
v 0.19093885 -0.15767906 0.01177625
v 0.17868140 -0.16208165 0.01063046
v 0.16061179 -0.16068401 0.00905012
v 0.14370714 -0.16068401 0.01035393
v 0.06158984 -0.15551272 0.04417349
v 0.06323599 -0.15774895 0.04314626
v 0.08221731 -0.15376565 0.02991080
v 0.12638463 -0.17752563 0.01671485
v 0.13172828 -0.17186516 0.01292199
v 0.14370714 -0.17291341 0.01232937
v 0.16061179 -0.17200494 0.01225031
v 0.17381893 -0.17060728 0.01284298
v 0.18508870 -0.16858071 0.01390971
v 0.19093885 -0.16620470 0.01513446
v 0.12140820 -0.16068401 0.01434431
v 0.10991053 -0.14377250 0.01782109
v 0.10991053 -0.12686099 0.01825569
v 0.06158984 -0.04230345 0.03631123
v 0.09299322 -0.14377250 0.02461661
v 0.07320150 -0.14377250 0.03315055
v 0.06158984 -0.14621838 0.04188201
v 0.10991053 -0.16068401 0.01944098
v 0.06158984 -0.14377250 0.04136840
f 1 2 5
f 1 5 16
f 1 16 39
f 1 39 21
f 1 21 8
f 1 8 3
f 1 3 9
f 1 9 26
f 1 26 53
f 1 53 52
f 1 52 51
f 1 51 50
f 1 50 49
f 1 49 48
f 1 48 47
f 1 47 46
f 1 46 54
f 1 54 27
f 1 27 10
f 1 10 4
f 1 4 13
f 1 13 32
f 1 32 60
f 1 60 89
f 1 89 76
f 1 76 75
f 1 75 74
f 1 74 41
f 1 41 18
f 1 18 6
f 1 6 2
f 2 6 7
f 2 7 5
f 3 8 24
f 3 24 45
f 3 45 73
f 3 73 72
f 3 72 62
f 3 62 70
f 3 70 69
f 3 69 68
f 3 68 67
f 3 67 93
f 3 93 98
f 3 98 96
f 3 96 80
f 3 80 55
f 3 55 29
f 3 29 25
f 3 25 9
f 4 10 11
f 4 11 12
f 4 12 13
f 5 14 15
f 5 15 16
f 5 7 17
f 5 17 14
f 6 18 7
f 7 18 19
f 7 19 20
f 7 20 17
f 8 21 22
f 8 22 23
f 8 23 24
f 9 25 26
f 10 27 11
f 11 27 28
f 11 28 29
f 11 29 30
f 11 30 31
f 11 31 32
f 11 32 13
f 11 13 12
f 14 33 34
f 14 34 15
f 14 17 35
f 14 35 36
f 14 36 33
f 15 37 38
f 15 38 16
f 15 34 37
f 16 38 37
f 16 37 40
f 16 40 39
f 17 20 35
f 18 41 19
f 19 41 42
f 19 42 43
f 19 43 44
f 19 44 20
f 20 36 35
f 20 44 36
f 21 39 22
f 22 40 23
f 22 39 40
f 23 40 24
f 24 40 45
f 25 29 28
f 25 28 46
f 25 46 47
f 25 47 48
f 25 48 49
f 25 49 50
f 25 50 51
f 25 51 52
f 25 52 53
f 25 53 26
f 27 54 28
f 28 54 46
f 29 55 56
f 29 56 57
f 29 57 30
f 30 57 32
f 30 32 31
f 32 58 59
f 32 59 60
f 32 57 56
f 32 56 58
f 33 61 34
f 33 36 61
f 34 61 62
f 34 62 37
f 36 44 63
f 36 63 64
f 36 64 65
f 36 65 66
f 36 66 67
f 36 67 68
f 36 68 69
f 36 69 70
f 36 70 61
f 37 71 40
f 37 62 71
f 40 71 72
f 40 72 73
f 40 73 45
f 41 74 42
f 42 74 75
f 42 75 76
f 42 76 77
f 42 77 78
f 42 78 43
f 43 78 79
f 43 79 64
f 43 64 44
f 44 64 63
f 55 80 81
f 55 81 82
f 55 82 83
f 55 83 56
f 56 83 84
f 56 84 59
f 56 59 58
f 59 84 85
f 59 85 86
f 59 86 60
f 60 86 87
f 60 87 88
f 60 88 89
f 61 70 62
f 62 72 71
f 64 79 84
f 64 84 90
f 64 90 65
f 65 90 91
f 65 91 66
f 66 91 92
f 66 92 67
f 67 92 91
f 67 91 94
f 67 94 95
f 67 95 93
f 76 89 88
f 76 88 77
f 77 88 87
f 77 87 86
f 77 86 78
f 78 86 85
f 78 85 84
f 78 84 79
f 80 96 81
f 81 96 95
f 81 95 82
f 82 95 94
f 82 94 90
f 82 90 97
f 82 97 83
f 83 97 90
f 83 90 84
f 90 94 91
f 93 95 98
f 95 96 98

