# https://github.com/mikedh/trimesh
v 0.48569104 -0.02682215 0.44492193
v 0.48569104 -0.02682215 0.14194949
v 0.36285263 -0.02682215 0.44492193
v 0.48569104 -0.37858080 0.44492193
v 0.36285263 -0.02682215 0.12205894
v 0.48569104 -0.09826678 0.09619416
v 0.36285263 -0.05344312 0.09902031
v 0.36285263 -0.40398334 0.44492193
v 0.44805187 -0.38792214 0.44492193
v 0.42614173 -0.32297582 0.31541900
v 0.48569104 -0.27098924 0.26680173
v 0.48569104 -0.10960192 0.09097111
v 0.45794866 -0.11735561 0.08091856
v 0.44805187 -0.10720197 0.08428130
v 0.48186698 -0.09767603 0.09580062
v 0.44805187 -0.11565717 0.08020304
v 0.43114428 -0.11384799 0.07948757
v 0.36285263 -0.06163987 0.09562179
v 0.36285263 -0.40280183 0.44238195
v 0.36594313 -0.40350333 0.44492193
v 0.44090881 -0.38958363 0.44492193
v 0.41424874 -0.32382505 0.31420266
v 0.41424874 -0.31769594 0.30572416
v 0.43114428 -0.30820691 0.29624397
v 0.44805187 -0.29125956 0.27925120
v 0.43114428 -0.39165128 0.44492193
v 0.42936455 -0.39202050 0.44492193
v 0.42247403 -0.39331277 0.44492193
v 0.39746143 -0.39796498 0.44492193
v 0.45640944 -0.15217331 0.09826906
v 0.48569104 -0.15387175 0.11304385
v 0.48569104 -0.12680771 0.08954012
v 0.45794866 -0.12126936 0.08091856
v 0.44789550 -0.12688154 0.08020304
v 0.41424874 -0.12355854 0.07970223
v 0.41424874 -0.11388490 0.07970223
v 0.36285263 -0.09490685 0.08249260
v 0.36285263 -0.09154693 0.08367316
v 0.43139683 -0.12765693 0.07966645
v 0.39578990 -0.39826037 0.44492193
v 0.36285263 -0.40254335 0.44195266
v 0.36352605 -0.21937188 0.16645484
v 0.36285263 -0.39353433 0.42699900
v 0.36285263 -0.36923945 0.38979375
v 0.36285263 -0.35066753 0.36199713
v 0.36285263 -0.34084621 0.34736545
v 0.36285263 -0.21933496 0.16649062
v 0.38043361 -0.16852989 0.09866260
v 0.39734118 -0.17340364 0.10903714
v 0.39734118 -0.16660994 0.10059440
v 0.44927843 -0.14397657 0.08954012
v 0.46495940 -0.14220430 0.09193701
v 0.48569104 -0.13888130 0.09490627
v 0.48569104 -0.14752111 0.10477999
v 0.48569104 -0.12913383 0.09050602
v 0.45342713 -0.13253066 0.08184864
v 0.44214741 -0.13581676 0.08095434
v 0.36285263 -0.11248186 0.08231372
v 0.36285263 -0.10986039 0.08177713
v 0.43720503 -0.13581676 0.08095434
v 0.36285263 -0.14297967 0.08961168
v 0.36285263 -0.10727582 0.08177713
v 0.36352605 -0.18983406 0.12796173
v 0.36285263 -0.18972329 0.12806906
v 0.36352605 -0.16679455 0.10105944
v 0.36352605 -0.15833934 0.09483472
v 0.36285263 -0.15785936 0.09472739
v 0.36285263 -0.16620380 0.10080901
v 0.36285263 -0.15815474 0.09487050
f 1 2 5
f 1 5 3
f 1 3 8
f 1 8 20
f 1 20 40
f 1 40 29
f 1 29 28
f 1 28 27
f 1 27 26
f 1 26 21
f 1 21 9
f 1 9 4
f 1 4 11
f 1 11 31
f 1 31 54
f 1 54 53
f 1 53 55
f 1 55 32
f 1 32 12
f 1 12 6
f 1 6 2
f 2 6 7
f 2 7 5
f 3 5 7
f 3 7 18
f 3 18 38
f 3 38 37
f 3 37 62
f 3 62 59
f 3 59 58
f 3 58 61
f 3 61 67
f 3 67 69
f 3 69 68
f 3 68 64
f 3 64 47
f 3 47 46
f 3 46 45
f 3 45 44
f 3 44 43
f 3 43 41
f 3 41 19
f 3 19 8
f 4 9 10
f 4 10 11
f 6 12 13
f 6 13 14
f 6 14 15
f 6 15 7
f 7 15 14
f 7 14 16
f 7 16 17
f 7 17 18
f 8 19 20
f 9 21 10
f 10 22 23
f 10 23 24
f 10 24 25
f 10 25 11
f 10 21 26
f 10 26 27
f 10 27 28
f 10 28 29
f 10 29 19
f 10 19 22
f 11 25 30
f 11 30 31
f 12 32 13
f 13 32 33
f 13 33 16
f 13 16 14
f 16 33 34
f 16 34 17
f 17 35 36
f 17 36 37
f 17 37 38
f 17 38 18
f 17 34 39
f 17 39 35
f 19 29 40
f 19 40 20
f 19 41 22
f 22 42 23
f 22 41 43
f 22 43 44
f 22 44 45
f 22 45 46
f 22 46 47
f 22 47 42
f 23 42 48
f 23 48 24
f 24 48 49
f 24 49 30
f 24 30 25
f 30 49 50
f 30 50 48
f 30 48 51
f 30 51 52
f 30 52 53
f 30 53 54
f 30 54 31
f 32 55 56
f 32 56 33
f 33 56 34
f 34 56 57
f 34 57 39
f 35 58 59
f 35 59 62
f 35 62 36
f 35 39 60
f 35 60 61
f 35 61 58
f 36 62 37
f 39 57 60
f 42 47 63
f 42 63 48
f 47 64 63
f 48 63 65
f 48 65 66
f 48 66 60
f 48 60 57
f 48 57 51
f 48 50 49
f 51 57 52
f 52 57 53
f 53 57 56
f 53 56 55
f 60 66 61
f 61 66 67
f 63 64 65
f 64 68 65
f 65 68 69
f 65 69 66
f 66 69 67

