# https://github.com/mikedh/trimesh
v 0.26922027 0.36029284 0.74539685
v 0.36279479 0.28803779 0.74539685
v 0.36284061 0.33629182 0.68853596
v 0.36284061 0.33654377 0.68822312
v 0.36284061 0.34303227 0.67973855
v 0.36284061 0.35115856 0.66862802
v 0.36284061 0.35758403 0.65981164
v 0.36284061 0.36463946 0.64854943
v 0.33063800 0.37944326 0.64854943
v 0.32975824 0.37982123 0.64854943
v 0.26922027 0.40577505 0.64854943
v 0.26922027 -0.23777984 0.74539685
v 0.36284061 0.26529667 0.74539685
v 0.36284061 0.29131352 0.73316768
v 0.36284061 0.32703158 0.69935262
v 0.36284061 -0.19784112 0.64854943
v 0.26922027 -0.22297604 0.64854943
v 0.27395809 -0.23708690 0.74539685
v 0.36284061 -0.22007828 0.74539685
v 0.36036630 -0.22077123 0.74539685
v 0.32969409 -0.20710135 0.64854943
v 0.29538372 -0.23330719 0.74539685
v 0.28314967 -0.23563802 0.74539685
v 0.28214163 -0.23582698 0.74539685
v 0.28136269 -0.23595299 0.74539685
f 1 2 3
f 1 3 4
f 1 4 5
f 1 5 6
f 1 6 7
f 1 7 8
f 1 8 9
f 1 9 10
f 1 10 11
f 1 11 17
f 1 17 12
f 1 12 18
f 1 18 25
f 1 25 24
f 1 24 23
f 1 23 22
f 1 22 20
f 1 20 19
f 1 19 13
f 1 13 2
f 2 13 14
f 2 14 15
f 2 15 3
f 3 15 14
f 3 14 13
f 3 13 19
f 3 19 16
f 3 16 8
f 3 8 7
f 3 7 6
f 3 6 5
f 3 5 4
f 8 16 21
f 8 21 17
f 8 17 11
f 8 11 10
f 8 10 9
f 12 17 18
f 16 19 20
f 16 20 21
f 17 21 20
f 17 20 22
f 17 22 23
f 17 23 24
f 17 24 25
f 17 25 18

