# https://github.com/mikedh/trimesh
v -0.67865186 0.00171687 0.29762392
v -0.71206710 0.00171687 0.32014342
v -0.67865186 0.05917927 0.29813153
v -0.67865186 0.00171687 0.61534260
v -0.71683694 0.00171687 0.32392744
v -0.67954153 0.05917927 0.29882372
v -0.67865186 0.06985340 0.29933134
v -0.67865186 0.08937181 0.75179780
v -0.70223201 0.00171687 0.61035877
v -0.71683694 0.00657106 0.32480420
v -0.69708089 0.05917927 0.31409821
v -0.68799721 0.05917927 0.30560725
v -0.71683694 0.00171687 0.60726696
v -0.67865186 0.07613081 0.30025426
v -0.67865186 0.09694536 0.76347287
v -0.70834015 0.00171687 0.60906667
v -0.71683694 0.04227858 0.33209535
v -0.71489314 0.04227858 0.32978803
v -0.70553283 0.05917927 0.32378897
v -0.67865186 0.10990680 0.30934514
v -0.67865186 0.09216741 0.30426900
v -0.67865186 0.09859732 0.76596477
v -0.67865186 0.10096088 0.76905660
v -0.71683694 0.14525852 0.76905660
v -0.71683694 0.05928093 0.33832514
v -0.71219791 0.05917927 0.33223379
v -0.68966814 0.10990680 0.32286605
v -0.68121246 0.10990680 0.31243694
v -0.67865186 0.12030138 0.31465198
v -0.67865186 0.26135239 0.76905660
v -0.71683694 0.26135239 0.76905660
v -0.71683694 0.07026003 0.34340125
v -0.67865186 0.12723956 0.31820527
v -0.71683694 0.07526671 0.34575473
v -0.70904292 0.11450686 0.35364575
v -0.69192969 0.13102633 0.33675616
v -0.67865186 0.26135239 0.49333124
v -0.71683694 0.26135239 0.53860096
v -0.67865186 0.14370823 0.32724997
v -0.71683694 0.10299404 0.36029087
v -0.71683694 0.10947475 0.36384416
v -0.71683694 0.12510473 0.37459628
v -0.69538752 0.14015018 0.34801590
v -0.68966814 0.14495353 0.34280134
v -0.68063677 0.14370823 0.32988031
v -0.67865186 0.20681267 0.39799257
v -0.67956022 0.20638061 0.39826946
v -0.70952891 0.16830954 0.40366859
v -0.71683694 0.16226089 0.40943691
v -0.67865186 0.15077348 0.33209535
v -0.71683694 0.12629922 0.37551920
v -0.69280444 0.15143426 0.35267668
v -0.67865186 0.20538945 0.39614671
v -0.67865186 0.16007522 0.34044789
v -0.71683694 0.15956693 0.40648353
v -0.67865186 0.15588180 0.33647927
v -0.71683694 0.14408943 0.39088600
v -0.71683694 0.14889281 0.39540836
f 1 2 3
f 1 3 7
f 1 7 14
f 1 14 21
f 1 21 20
f 1 20 29
f 1 29 33
f 1 33 39
f 1 39 50
f 1 50 56
f 1 56 54
f 1 54 53
f 1 53 46
f 1 46 37
f 1 37 30
f 1 30 23
f 1 23 22
f 1 22 15
f 1 15 8
f 1 8 4
f 1 4 9
f 1 9 16
f 1 16 13
f 1 13 5
f 1 5 2
f 2 5 6
f 2 6 3
f 3 6 7
f 4 8 9
f 5 10 11
f 5 11 12
f 5 12 6
f 5 13 24
f 5 24 31
f 5 31 38
f 5 38 49
f 5 49 55
f 5 55 58
f 5 58 57
f 5 57 51
f 5 51 42
f 5 42 41
f 5 41 40
f 5 40 34
f 5 34 32
f 5 32 25
f 5 25 17
f 5 17 10
f 6 12 7
f 7 12 14
f 8 15 13
f 8 13 16
f 8 16 9
f 10 17 18
f 10 18 11
f 11 18 19
f 11 19 20
f 11 20 21
f 11 21 14
f 11 14 12
f 13 15 22
f 13 22 23
f 13 23 24
f 17 25 26
f 17 26 19
f 17 19 18
f 19 27 28
f 19 28 20
f 19 26 27
f 20 28 29
f 23 30 31
f 23 31 24
f 25 32 27
f 25 27 26
f 27 33 28
f 27 32 34
f 27 34 35
f 27 35 36
f 27 36 33
f 28 33 29
f 30 37 38
f 30 38 31
f 33 36 39
f 34 40 35
f 35 40 41
f 35 41 42
f 35 42 43
f 35 43 36
f 36 43 44
f 36 44 45
f 36 45 39
f 37 46 47
f 37 47 38
f 38 47 48
f 38 48 49
f 39 45 50
f 42 51 43
f 43 51 52
f 43 52 44
f 44 50 45
f 44 52 50
f 46 53 47
f 47 53 54
f 47 54 52
f 47 52 48
f 48 52 49
f 49 52 55
f 50 52 56
f 51 57 52
f 52 54 56
f 52 57 58
f 52 58 55

