# https://github.com/mikedh/trimesh
v 0.45146253 0.40533343 0.44492747
v 0.45271237 0.40496133 0.44492747
v 0.45146253 0.40536445 0.44483681
v 0.45146253 0.12608898 0.44492747
v 0.48174711 0.39454198 0.44492747
v 0.48569104 0.39339460 0.44489725
v 0.48569104 0.42325717 0.34649307
v 0.47684152 0.42359830 0.35477401
v 0.45146253 0.42893201 0.36030473
v 0.45146253 0.12608898 0.15887235
v 0.48569104 0.12608898 0.44492747
v 0.48186773 0.39447997 0.44492747
v 0.48569104 0.38756474 0.44492747
v 0.48569104 0.42431151 0.34099259
v 0.48223295 0.42502472 0.34322904
v 0.46496293 0.42989327 0.34338016
v 0.45146253 0.43361448 0.34338016
v 0.48186773 0.12608898 0.15585008
v 0.45146253 0.29586836 0.13620553
v 0.48569104 0.12608898 0.15578966
v 0.48569104 0.42434255 0.32872230
v 0.45146253 0.44288646 0.22505941
v 0.45146253 0.31276877 0.13668911
v 0.48569104 0.12683322 0.15585008
v 0.48569104 0.42325717 0.32343338
v 0.45146253 0.42716442 0.19535076
v 0.48569104 0.42226487 0.31974623
v 0.45639824 0.42241991 0.20027707
v 0.45146253 0.37776560 0.15993011
v 0.45755426 0.32294005 0.14769003
v 0.45902865 0.31276877 0.14608827
v 0.48569104 0.16159536 0.16147145
v 0.45146253 0.41978406 0.18583072
v 0.48569104 0.41866772 0.31469909
v 0.45146253 0.41159743 0.17694532
v 0.45146253 0.41485350 0.18042089
v 0.45850258 0.41116330 0.19408147
v 0.45650548 0.40573656 0.18280851
v 0.45146253 0.38040147 0.16110880
v 0.46517737 0.31276877 0.15742166
v 0.48569104 0.17319307 0.16385902
v 0.48569104 0.41451237 0.30977284
v 0.45146253 0.40251153 0.17165642
v 0.48569104 0.40601566 0.30028300
v 0.48569104 0.40108508 0.29701897
v 0.45408953 0.39897641 0.17473910
v 0.45146253 0.39860429 0.16963150
v 0.48569104 0.23946130 0.19541123
v 0.48569104 0.19111681 0.17162619
v 0.48569104 0.18147272 0.16700217
v 0.48569104 0.17406135 0.16410078
f 1 2 3
f 1 3 9
f 1 9 17
f 1 17 22
f 1 22 26
f 1 26 33
f 1 33 36
f 1 36 35
f 1 35 43
f 1 43 47
f 1 47 39
f 1 39 29
f 1 29 23
f 1 23 19
f 1 19 10
f 1 10 4
f 1 4 11
f 1 11 13
f 1 13 12
f 1 12 5
f 1 5 2
f 2 5 6
f 2 6 7
f 2 7 8
f 2 8 3
f 3 8 9
f 4 10 18
f 4 18 20
f 4 20 11
f 5 12 6
f 6 12 13
f 6 13 11
f 6 11 20
f 6 20 24
f 6 24 32
f 6 32 41
f 6 41 51
f 6 51 50
f 6 50 49
f 6 49 48
f 6 48 45
f 6 45 44
f 6 44 42
f 6 42 34
f 6 34 27
f 6 27 25
f 6 25 21
f 6 21 14
f 6 14 7
f 7 14 15
f 7 15 16
f 7 16 8
f 8 16 17
f 8 17 9
f 10 19 18
f 14 21 22
f 14 22 16
f 14 16 15
f 16 22 17
f 18 19 20
f 19 23 20
f 20 23 24
f 21 25 22
f 22 25 27
f 22 27 28
f 22 28 26
f 23 29 30
f 23 30 31
f 23 31 24
f 24 31 32
f 26 28 33
f 27 34 28
f 28 35 36
f 28 36 33
f 28 34 37
f 28 37 38
f 28 38 35
f 29 39 40
f 29 40 30
f 30 40 31
f 31 40 41
f 31 41 32
f 34 42 37
f 35 38 43
f 37 42 44
f 37 44 45
f 37 45 40
f 37 40 38
f 38 46 43
f 38 40 46
f 39 47 46
f 39 46 40
f 40 48 49
f 40 49 50
f 40 50 51
f 40 51 41
f 40 45 48
f 43 46 47

