# https://github.com/mikedh/trimesh
v -0.38279559 0.00170411 0.76905660
v -0.52021225 0.00170411 0.76905660
v -0.38279559 -0.12858391 0.76905660
v -0.38279559 0.00170411 0.15958116
v -0.52021225 -0.05655879 0.76905660
v -0.52021225 0.00170411 0.21673441
v -0.43723759 -0.12858391 0.76905660
v -0.38279559 -0.12858391 0.21041055
v -0.38279559 -0.02278468 0.16154990
v -0.47100322 0.00170411 0.18243054
v -0.47448740 -0.12858391 0.75658788
v -0.46437116 -0.12858391 0.76678956
v -0.46096770 -0.12853289 0.76905660
v -0.52021225 -0.12858391 0.70677270
v -0.50632936 0.00170411 0.20050714
v -0.52021225 -0.07532078 0.24167184
v -0.46119641 -0.12858391 0.76863898
v -0.39396109 -0.12858391 0.21488496
v -0.38279559 -0.09449091 0.18487656
v -0.38279559 -0.02537385 0.16178854
v -0.39334230 -0.02537385 0.16453287
v -0.47292692 0.00170411 0.18296743
v -0.38279559 -0.03880443 0.16345903
v -0.52021225 -0.12858391 0.26601265
v -0.50587197 0.00170411 0.20014923
v -0.49684539 0.00170411 0.19418336
v -0.50883150 -0.06928786 0.23266334
v -0.38279559 -0.08819016 0.18076010
v -0.47514659 0.00170411 0.18368335
v -0.38279559 -0.04030946 0.16369762
v -0.38976394 -0.08560098 0.18213224
v -0.48191318 0.00170411 0.18624870
v -0.38279559 -0.07607331 0.17574874
v -0.38279559 -0.04930145 0.16632262
v -0.38279559 -0.05468388 0.16817204
v -0.38279559 -0.05724755 0.16906694
f 1 2 5
f 1 5 13
f 1 13 7
f 1 7 3
f 1 3 8
f 1 8 19
f 1 19 28
f 1 28 33
f 1 33 36
f 1 36 35
f 1 35 34
f 1 34 30
f 1 30 23
f 1 23 20
f 1 20 9
f 1 9 4
f 1 4 10
f 1 10 22
f 1 22 29
f 1 29 32
f 1 32 26
f 1 26 25
f 1 25 15
f 1 15 6
f 1 6 2
f 2 6 16
f 2 16 24
f 2 24 14
f 2 14 5
f 3 7 17
f 3 17 12
f 3 12 11
f 3 11 14
f 3 14 24
f 3 24 18
f 3 18 8
f 4 9 10
f 5 11 12
f 5 12 13
f 5 14 11
f 6 15 16
f 7 13 17
f 8 18 19
f 9 20 21
f 9 21 10
f 10 21 23
f 10 23 22
f 12 17 13
f 15 25 16
f 16 25 26
f 16 26 27
f 16 27 24
f 18 24 19
f 19 24 28
f 20 23 21
f 22 23 30
f 22 30 29
f 24 27 31
f 24 31 28
f 26 32 27
f 27 32 31
f 28 31 33
f 29 30 34
f 29 34 35
f 29 35 32
f 31 32 33
f 32 35 36
f 32 36 33

