# https://github.com/mikedh/trimesh
v 0.36284061 0.10675386 0.57829121
v 0.36284061 0.10675386 0.13459274
v 0.26922027 0.10675386 0.57829121
v 0.36284061 -0.27318584 0.57829121
v 0.35165127 0.10675386 0.11960874
v 0.36284061 -0.09490351 0.08250309
v 0.26922027 0.10675386 0.07516296
v 0.26922027 -0.24746783 0.57829121
v 0.35308085 -0.27067940 0.57829121
v 0.26922027 -0.43114443 0.51061012
v 0.26922027 -0.43697451 0.50828151
v 0.26922027 -0.44198738 0.50625666
v 0.36284061 -0.28490058 0.56983740
v 0.34319281 0.10675386 0.11049685
v 0.35945908 -0.09877210 0.08032639
v 0.30555587 -0.04978805 0.06407683
v 0.32214289 0.10675386 0.09789211
v 0.32943749 0.10675386 0.10138495
v 0.36284061 -0.10727211 0.08179442
v 0.27898004 -0.05921435 0.06134324
v 0.26922027 -0.05839704 0.06144453
v 0.26922027 -0.44569251 0.50018205
v 0.36284061 -0.40629819 0.47117587
v 0.36284061 -0.40057704 0.47917409
v 0.36284061 -0.39202253 0.48939966
v 0.36284061 -0.39175011 0.48970339
v 0.36284061 -0.38145201 0.49815720
v 0.36284061 -0.37295200 0.50473800
v 0.36284061 -0.32483975 0.54062874
v 0.36284061 -0.31753845 0.54599463
v 0.36284061 -0.31105447 0.55075304
v 0.36284061 -0.29198393 0.56467399
v 0.36284061 -0.28539097 0.56948306
v 0.35945908 -0.10672724 0.08032639
v 0.30555587 -0.05262139 0.06407683
v 0.36284061 -0.10988749 0.08179442
v 0.29577780 -0.05861499 0.06326688
v 0.26922027 -0.07561502 0.06114078
v 0.26922027 -0.44847134 0.49552488
v 0.36284061 -0.40635269 0.47092277
v 0.36284061 -0.11250290 0.08230062
v 0.35467540 -0.11800610 0.08144008
v 0.34805893 -0.11141314 0.07875709
v 0.32969409 -0.10994198 0.07516296
v 0.29588776 -0.10994198 0.06913899
v 0.26922027 -0.10945161 0.06837968
v 0.26922027 -0.44988802 0.47861725
v 0.36284061 -0.40727899 0.46176026
v 0.36284061 -0.14301576 0.08964075
v 0.36284061 -0.15789078 0.09475354
v 0.26922027 -0.14263435 0.07754221
v 0.26922027 -0.12726894 0.07298627
v 0.26922027 -0.44514766 0.46186150
v 0.36284061 -0.40673410 0.45082598
v 0.36284061 -0.40727899 0.46115279
v 0.36284061 -0.15816322 0.09490536
v 0.26922027 -0.15522090 0.08285747
v 0.26922027 -0.15064397 0.08073132
v 0.26922027 -0.44067969 0.45087661
v 0.36284061 -0.40662511 0.45047163
v 0.36284061 -0.16622733 0.10082816
v 0.26922027 -0.22540048 0.12705015
v 0.26922027 -0.43888162 0.44743434
v 0.36284061 -0.40281102 0.44237217
v 0.36284061 -0.18971134 0.12806256
v 0.36284061 -0.21935241 0.16648437
v 0.26922027 -0.40520847 0.38456229
v 0.26922027 -0.40657065 0.38694152
v 0.36284061 -0.40253860 0.44191658
v 0.36284061 -0.34085901 0.34735540
v 0.36284061 -0.35066672 0.36198504
v 0.36284061 -0.36902893 0.38952321
v 0.36284061 -0.39354819 0.42698320
f 1 2 5
f 1 5 14
f 1 14 18
f 1 18 17
f 1 17 7
f 1 7 3
f 1 3 8
f 1 8 9
f 1 9 4
f 1 4 13
f 1 13 33
f 1 33 32
f 1 32 31
f 1 31 30
f 1 30 29
f 1 29 28
f 1 28 27
f 1 27 26
f 1 26 25
f 1 25 24
f 1 24 23
f 1 23 40
f 1 40 48
f 1 48 55
f 1 55 54
f 1 54 60
f 1 60 64
f 1 64 69
f 1 69 73
f 1 73 72
f 1 72 71
f 1 71 70
f 1 70 66
f 1 66 65
f 1 65 61
f 1 61 56
f 1 56 50
f 1 50 49
f 1 49 41
f 1 41 36
f 1 36 19
f 1 19 6
f 1 6 2
f 2 6 5
f 3 7 21
f 3 21 38
f 3 38 46
f 3 46 52
f 3 52 51
f 3 51 58
f 3 58 57
f 3 57 62
f 3 62 67
f 3 67 68
f 3 68 63
f 3 63 59
f 3 59 53
f 3 53 47
f 3 47 39
f 3 39 22
f 3 22 12
f 3 12 11
f 3 11 10
f 3 10 8
f 4 9 10
f 4 10 11
f 4 11 12
f 4 12 13
f 5 6 14
f 6 15 16
f 6 16 17
f 6 17 18
f 6 18 14
f 6 19 15
f 7 17 16
f 7 16 20
f 7 20 21
f 8 10 9
f 12 22 23
f 12 23 24
f 12 24 25
f 12 25 26
f 12 26 27
f 12 27 28
f 12 28 29
f 12 29 30
f 12 30 31
f 12 31 32
f 12 32 33
f 12 33 13
f 15 19 36
f 15 36 34
f 15 34 35
f 15 35 16
f 16 35 20
f 20 35 37
f 20 37 38
f 20 38 21
f 22 39 23
f 23 39 40
f 34 36 41
f 34 41 42
f 34 42 43
f 34 43 44
f 34 44 35
f 35 38 37
f 35 44 45
f 35 45 38
f 38 45 46
f 39 47 48
f 39 48 40
f 41 49 42
f 42 49 45
f 42 45 43
f 43 45 44
f 45 49 50
f 45 50 51
f 45 51 52
f 45 52 46
f 47 53 54
f 47 54 55
f 47 55 48
f 50 56 57
f 50 57 58
f 50 58 51
f 53 59 60
f 53 60 54
f 56 61 62
f 56 62 57
f 59 63 64
f 59 64 60
f 61 65 62
f 62 65 66
f 62 66 67
f 63 68 64
f 64 67 69
f 64 68 67
f 66 70 67
f 67 70 71
f 67 71 72
f 67 72 73
f 67 73 69

