# https://github.com/mikedh/trimesh
v 0.06157718 0.21812195 0.34172549
v 0.06157718 -0.12858391 0.34172549
v 0.06157718 0.21812195 0.08141943
v -0.38279556 0.21812195 0.34172549
v 0.06157718 -0.12858391 0.04163329
v -0.38279556 -0.12858391 0.34172549
v 0.06157718 0.10989516 0.05310373
v -0.26204589 0.21133446 0.13405716
v -0.26204589 0.21812195 0.13690971
v -0.38279556 0.21812195 0.19206975
v -0.00845415 -0.04224682 0.04112285
v 0.00842296 -0.04224682 0.03848047
v 0.02534357 -0.04224682 0.03673888
v 0.04226417 -0.04224682 0.03559783
v 0.05914130 -0.04224682 0.03613835
v 0.06157718 -0.04224682 0.03631849
v -0.10993436 -0.12858391 0.07042944
v -0.10993436 -0.12678521 0.07003908
v -0.38279556 -0.12858391 0.21032630
v 0.06157718 0.08108219 0.04571699
v -0.20632531 0.10460090 0.09685339
v -0.32968485 0.19443356 0.14300524
v -0.32968485 0.21812195 0.15039197
v -0.38279556 0.21252228 0.18900697
v -0.35808886 0.21812195 0.16243286
v -0.00845415 -0.02534592 0.04133307
v 0.00842296 -0.02534592 0.03781987
v -0.10993436 -0.10988434 0.06778706
v -0.12681147 -0.10988434 0.07154041
v -0.12681147 -0.09298343 0.07078977
v 0.02534357 -0.02534592 0.03574799
v 0.04226417 -0.02534592 0.03496726
v 0.06157718 -0.02534592 0.03574799
v -0.12681147 -0.12858391 0.07436299
v -0.38279556 -0.09447668 0.18489324
v -0.20867417 -0.12858391 0.11183699
v 0.06157718 0.07578794 0.04442583
v -0.20754324 0.09296033 0.09664322
v -0.34660543 0.12679606 0.13871136
v -0.34660543 0.14369694 0.14003255
v -0.32968485 0.17749872 0.13895156
v 0.05914130 0.05915854 0.04112285
v 0.04226417 0.04229159 0.04103276
v 0.04226417 0.02539069 0.03851050
v -0.34316913 0.19443356 0.14678868
v -0.33934135 0.20542932 0.14853026
v -0.34564850 0.21116476 0.15237376
v -0.34634447 0.21812195 0.15513627
v -0.38279556 0.15947791 0.16207254
v -0.35199917 0.21812195 0.15846929
v -0.35487003 0.18530436 0.14907073
v -0.38279556 0.14410418 0.15567674
v -0.38279556 0.15795071 0.16141194
v 0.04226417 0.00845587 0.03664879
v -0.37413950 0.03163520 0.14826003
v -0.38279556 0.04052683 0.15036194
v -0.37600991 0.04229159 0.14744927
v -0.37744533 0.05915854 0.14645838
v -0.36348256 0.05915854 0.14207441
v 0.04226417 -0.00844504 0.03562786
v 0.06157718 -0.01082065 0.03634852
v -0.13864284 -0.12858391 0.07928748
v -0.38279556 -0.04027845 0.16366401
v -0.38279556 -0.08819825 0.18071944
v -0.20702125 -0.12858391 0.11096622
v 0.06157718 0.05915854 0.04076252
v -0.37696686 0.07605943 0.14636828
v -0.37500946 0.12679606 0.14798979
v -0.37335654 0.13894569 0.14838015
v -0.36465699 0.14423994 0.14609805
v -0.34817136 0.17878836 0.14537739
v -0.37105117 0.15021295 0.14928095
v -0.37957672 0.14423994 0.15345475
v -0.38279556 0.12985042 0.15159304
v 0.05914130 0.04229159 0.03923116
v 0.06157718 0.04229159 0.03929122
v -0.38279556 0.04229159 0.15012169
v -0.38279556 0.05915854 0.14901072
v 0.05914130 -0.00844504 0.03634852
v 0.06157718 -0.00844504 0.03646865
v -0.18248855 -0.12858391 0.09910547
v -0.38279556 -0.04927189 0.16630640
v -0.38279556 -0.07608254 0.17573494
v -0.19427642 -0.12858391 0.10451036
v -0.38279556 0.10697654 0.15009171
v -0.38279556 0.10989516 0.15018175
v -0.38279556 0.12679606 0.15093244
v -0.38279556 -0.05466796 0.16816806
v -0.38049018 -0.05982646 0.16888872
v -0.38040317 -0.07608254 0.17459388
f 1 2 5
f 1 5 16
f 1 16 33
f 1 33 61
f 1 61 80
f 1 80 76
f 1 76 66
f 1 66 37
f 1 37 20
f 1 20 7
f 1 7 3
f 1 3 9
f 1 9 23
f 1 23 48
f 1 48 50
f 1 50 25
f 1 25 10
f 1 10 4
f 1 4 6
f 1 6 2
f 2 6 19
f 2 19 36
f 2 36 65
f 2 65 84
f 2 84 81
f 2 81 62
f 2 62 34
f 2 34 17
f 2 17 5
f 3 7 8
f 3 8 9
f 4 10 24
f 4 24 49
f 4 49 53
f 4 53 52
f 4 52 74
f 4 74 87
f 4 87 86
f 4 86 85
f 4 85 78
f 4 78 77
f 4 77 56
f 4 56 63
f 4 63 82
f 4 82 88
f 4 88 83
f 4 83 64
f 4 64 35
f 4 35 19
f 4 19 6
f 5 11 12
f 5 12 13
f 5 13 14
f 5 14 15
f 5 15 16
f 5 17 18
f 5 18 11
f 7 20 21
f 7 21 8
f 8 21 22
f 8 22 23
f 8 23 9
f 10 25 24
f 11 26 27
f 11 27 12
f 11 18 28
f 11 28 29
f 11 29 30
f 11 30 26
f 12 27 31
f 12 31 13
f 13 31 14
f 14 31 32
f 14 32 15
f 15 33 16
f 15 32 33
f 17 34 18
f 18 34 29
f 18 29 28
f 19 35 36
f 20 37 21
f 21 38 39
f 21 39 40
f 21 40 41
f 21 41 22
f 21 37 42
f 21 42 43
f 21 43 44
f 21 44 27
f 21 27 26
f 21 26 38
f 22 41 45
f 22 45 46
f 22 46 23
f 23 46 47
f 23 47 48
f 24 25 49
f 25 50 51
f 25 51 52
f 25 52 53
f 25 53 49
f 26 30 38
f 27 44 54
f 27 54 31
f 29 34 55
f 29 55 56
f 29 56 57
f 29 57 58
f 29 58 30
f 30 58 59
f 30 59 38
f 31 54 60
f 31 60 32
f 32 60 33
f 33 60 61
f 34 62 63
f 34 63 55
f 35 64 36
f 36 64 65
f 37 66 42
f 38 59 67
f 38 67 39
f 39 67 68
f 39 68 69
f 39 69 40
f 40 69 70
f 40 70 41
f 41 70 71
f 41 71 45
f 42 66 43
f 43 66 44
f 44 66 54
f 45 71 51
f 45 51 47
f 45 47 46
f 47 51 50
f 47 50 48
f 51 71 72
f 51 72 52
f 52 72 73
f 52 73 74
f 54 66 75
f 54 75 76
f 54 76 60
f 55 63 56
f 56 77 57
f 57 77 58
f 58 77 78
f 58 78 67
f 58 67 59
f 60 76 79
f 60 79 61
f 61 79 80
f 62 81 82
f 62 82 63
f 64 83 84
f 64 84 65
f 66 76 75
f 67 78 85
f 67 85 86
f 67 86 87
f 67 87 68
f 68 87 69
f 69 87 72
f 69 72 71
f 69 71 70
f 72 87 74
f 72 74 73
f 76 80 79
f 81 84 82
f 82 84 88
f 83 88 89
f 83 89 90
f 83 90 84
f 84 90 89
f 84 89 88

