# https://github.com/mikedh/trimesh
v 0.26922027 -0.24749519 0.57829121
v 0.34652854 -0.26885325 0.57829121
v 0.26922027 -0.22300458 0.64854943
v 0.26922027 0.45411745 0.57829121
v 0.35308085 -0.27063309 0.57829121
v 0.36284061 -0.27319607 0.57829121
v 0.32969409 -0.20712843 0.64854943
v 0.26922027 0.40570583 0.64854943
v 0.26922027 0.41204205 0.64049614
v 0.27322498 0.45397505 0.57829121
v 0.36284061 -0.19780208 0.64854943
v 0.36284061 0.40983506 0.57829121
v 0.33063800 0.37943538 0.64854943
v 0.32601930 0.40841117 0.62445834
v 0.31279551 0.41916140 0.61875708
v 0.31279551 0.42564001 0.61031179
v 0.28222411 0.45340552 0.57829121
v 0.27898004 0.45148329 0.58165420
v 0.27898004 0.45376151 0.57829121
v 0.36284061 0.36462715 0.64854943
v 0.36262066 0.41004862 0.57829121
v 0.36284061 0.40955028 0.58009994
v 0.33127034 0.41510338 0.61502272
v 0.32524034 0.42435852 0.60807668
v 0.33729114 0.40520746 0.62198253
v 0.29399996 0.44963226 0.57829121
v 0.36284061 0.39559633 0.61352348
v 0.35647157 0.40712969 0.60701758
v 0.34660184 0.41040460 0.61057313
v 0.36097113 0.41161488 0.57829121
v 0.36284061 0.40848238 0.58487276
v 0.36100779 0.41125891 0.58009994
v 0.33651218 0.42186675 0.60337263
v 0.33039975 0.42699270 0.59744442
v 0.32969409 0.43368492 0.58009994
v 0.32965743 0.43411202 0.57829121
v 0.36284061 0.39588110 0.61314523
v 0.35903752 0.40919431 0.59701115
v 0.34605199 0.41816469 0.59744442
v 0.36284061 0.40563463 0.59701115
v 0.35076233 0.42051409 0.57829121
v 0.34004951 0.42400258 0.59210077
v 0.34267960 0.42635195 0.58009994
v 0.34315615 0.42649435 0.57829121
f 1 2 3
f 1 3 8
f 1 8 9
f 1 9 4
f 1 4 10
f 1 10 19
f 1 19 17
f 1 17 26
f 1 26 36
f 1 36 44
f 1 44 41
f 1 41 30
f 1 30 21
f 1 21 12
f 1 12 6
f 1 6 5
f 1 5 2
f 2 5 3
f 3 5 6
f 3 6 7
f 3 7 11
f 3 11 20
f 3 20 13
f 3 13 8
f 4 9 10
f 6 11 7
f 6 12 22
f 6 22 31
f 6 31 40
f 6 40 37
f 6 37 27
f 6 27 20
f 6 20 11
f 8 13 14
f 8 14 15
f 8 15 9
f 9 15 16
f 9 16 17
f 9 17 18
f 9 18 19
f 9 19 10
f 12 21 22
f 13 20 14
f 14 23 24
f 14 24 15
f 14 20 25
f 14 25 23
f 15 24 16
f 16 24 17
f 17 19 18
f 17 24 26
f 20 27 28
f 20 28 29
f 20 29 25
f 21 30 22
f 22 30 32
f 22 32 31
f 23 25 29
f 23 29 24
f 24 33 34
f 24 34 26
f 24 29 33
f 26 35 36
f 26 34 35
f 27 37 28
f 28 38 39
f 28 39 33
f 28 33 29
f 28 37 40
f 28 40 38
f 30 41 32
f 31 32 38
f 31 38 40
f 32 41 38
f 33 42 35
f 33 35 34
f 33 39 42
f 35 42 43
f 35 43 44
f 35 44 36
f 38 41 44
f 38 44 43
f 38 43 39
f 39 43 42

