# https://github.com/mikedh/trimesh
v 0.06158984 -0.32671509 0.71805277
v 0.14948132 -0.32671509 0.63351818
v 0.06158984 -0.32671509 0.40951209
v 0.06158984 -0.56541634 0.71409635
v 0.06827572 -0.57988611 0.70757278
v 0.15648376 -0.32671509 0.62669259
v 0.12985421 -0.41425866 0.65097477
v 0.19093885 -0.32671509 0.40951209
v 0.06158984 -0.51937026 0.40951209
v 0.06158984 -0.58426983 0.71373392
v 0.06755395 -0.59115863 0.70681773
v 0.10117329 -0.58901620 0.67278041
v 0.10174311 -0.57774364 0.67338444
v 0.19093885 -0.43116751 0.58824582
v 0.19093885 -0.34662338 0.59171901
v 0.17307184 -0.32671509 0.60987024
v 0.15579997 -0.38044101 0.62596775
v 0.19093885 -0.32671509 0.45408982
v 0.19093885 -0.46221644 0.40951209
v 0.07503757 -0.51637086 0.40951209
v 0.06158984 -0.56343873 0.47625786
v 0.06158984 -0.58710451 0.71334131
v 0.06158984 -0.59686082 0.71171041
v 0.11600125 -0.60018985 0.65375333
v 0.12576416 -0.58331401 0.64732036
v 0.11796398 -0.58331401 0.65577684
v 0.06158984 -0.60018985 0.71089496
v 0.07268232 -0.61709870 0.69528068
v 0.19093885 -0.44807635 0.58721896
v 0.19093885 -0.32760506 0.59147740
v 0.19091352 -0.32671509 0.59156800
v 0.19093885 -0.47048961 0.42077733
v 0.16067511 -0.48192695 0.40951209
v 0.09351239 -0.51145972 0.40951209
v 0.06757927 -0.55793427 0.47024772
v 0.06158984 -0.56403201 0.47716391
v 0.12358618 -0.60018985 0.64529685
v 0.13421015 -0.58331401 0.63795783
v 0.06973193 -0.63400755 0.69213971
v 0.06158984 -0.61709870 0.70654592
v 0.15073492 -0.56640516 0.62041064
v 0.19093885 -0.51656865 0.57803763
v 0.19093885 -0.47790573 0.43119691
v 0.14958261 -0.48904647 0.40951209
v 0.10416169 -0.50809774 0.40951209
v 0.07608857 -0.56225213 0.48087874
v 0.06158984 -0.57286546 0.49090569
v 0.13827486 -0.59623459 0.62669259
v 0.14088337 -0.58331401 0.62950135
v 0.06764258 -0.64247840 0.68999538
v 0.12071178 -0.61142946 0.64209547
v 0.06158984 -0.63443600 0.69896529
v 0.19093885 -0.53074174 0.57565170
v 0.18334127 -0.53258753 0.58504443
v 0.19093885 -0.48621186 0.44312659
v 0.18284741 -0.48855206 0.43923056
v 0.15419182 -0.49148553 0.41754574
v 0.14466952 -0.49168332 0.40951209
v 0.10991053 -0.50612009 0.40951209
v 0.10609907 -0.57665594 0.51857046
v 0.07159334 -0.57629340 0.50105348
v 0.06158984 -0.64827950 0.61147093
v 0.12358618 -0.61396744 0.63080003
v 0.14083273 -0.59844298 0.61388707
v 0.18759592 -0.54316789 0.57420202
v 0.18986252 -0.53258753 0.57658795
v 0.06158984 -0.64531305 0.69229071
v 0.06158984 -0.65332245 0.68407585
v 0.06683218 -0.65882692 0.67130052
v 0.07066897 -0.64626889 0.68153890
v 0.10150252 -0.62563550 0.65622987
v 0.10406038 -0.62837126 0.64771298
v 0.19093885 -0.53252162 0.57471545
v 0.19093885 -0.48960680 0.44850249
v 0.18896348 -0.49204585 0.45052600
v 0.12313033 -0.57813919 0.53285587
v 0.14409970 -0.50302179 0.42760291
v 0.14274478 -0.49395761 0.41156581
v 0.14289673 -0.49260624 0.40951209
v 0.12434594 -0.50091230 0.40951209
v 0.11736883 -0.57438164 0.52156043
v 0.11099950 -0.58080898 0.52808401
v 0.10347790 -0.62659138 0.60379970
v 0.06158984 -0.64982865 0.61434009
v 0.13347572 -0.60688086 0.61388707
v 0.09609556 -0.63680915 0.64771298
v 0.11555807 -0.62240533 0.63080003
v 0.15016510 -0.58927988 0.59700431
v 0.18943198 -0.54465114 0.56320859
v 0.19093885 -0.54240980 0.56317839
v 0.19093885 -0.53954222 0.57048721
v 0.06158984 -0.65605820 0.68075366
v 0.06158984 -0.66021125 0.67450190
v 0.06158984 -0.66284813 0.66637764
v 0.06866827 -0.66024425 0.66003528
v 0.10709940 -0.63087629 0.63080003
v 0.19093885 -0.49326541 0.45442203
v 0.18760857 -0.54221203 0.53596665
v 0.13500791 -0.59158714 0.57187649
v 0.19093885 -0.50951502 0.48235860
v 0.19093885 -0.51033904 0.48377809
v 0.13163964 -0.50588935 0.42177399
v 0.14145320 -0.49333132 0.40951209
v 0.12640995 -0.50008831 0.40951209
v 0.10604842 -0.62893159 0.61388707
v 0.08533231 -0.64277509 0.62167911
v 0.06158984 -0.65793695 0.63080003
v 0.13943983 -0.59478430 0.58314172
v 0.12502974 -0.61456072 0.61388707
v 0.14170646 -0.59735524 0.59700431
v 0.19093885 -0.54254162 0.54629564
v 0.19093885 -0.54313495 0.56021863
v 0.06158984 -0.66324363 0.66450514
v 0.06158984 -0.66340845 0.64895126
v 0.06866827 -0.66024425 0.65242445
v 0.11450706 -0.62303162 0.61388707
v 0.09575369 -0.63931418 0.63080003
v 0.19093885 -0.51683233 0.49522453
v 0.19093885 -0.53792712 0.53273506
v 0.18944465 -0.54392600 0.54629564
v 0.06689548 -0.65895874 0.64115921
v 0.06158984 -0.66301291 0.64608209
v 0.13052531 -0.60579318 0.59700431
v 0.06158984 -0.66340845 0.64789419
f 1 2 6
f 1 6 16
f 1 16 31
f 1 31 18
f 1 18 8
f 1 8 3
f 1 3 9
f 1 9 21
f 1 21 36
f 1 36 47
f 1 47 62
f 1 62 84
f 1 84 107
f 1 107 122
f 1 122 124
f 1 124 114
f 1 114 113
f 1 113 94
f 1 94 93
f 1 93 92
f 1 92 68
f 1 68 67
f 1 67 52
f 1 52 40
f 1 40 27
f 1 27 23
f 1 23 22
f 1 22 10
f 1 10 4
f 1 4 5
f 1 5 2
f 2 5 7
f 2 7 6
f 3 8 19
f 3 19 33
f 3 33 44
f 3 44 58
f 3 58 79
f 3 79 103
f 3 103 104
f 3 104 80
f 3 80 59
f 3 59 45
f 3 45 34
f 3 34 20
f 3 20 9
f 4 10 5
f 5 10 11
f 5 11 12
f 5 12 13
f 5 13 14
f 5 14 15
f 5 15 7
f 6 7 17
f 6 17 15
f 6 15 16
f 7 15 17
f 8 18 30
f 8 30 15
f 8 15 14
f 8 14 29
f 8 29 42
f 8 42 53
f 8 53 73
f 8 73 91
f 8 91 90
f 8 90 112
f 8 112 111
f 8 111 119
f 8 119 118
f 8 118 101
f 8 101 100
f 8 100 97
f 8 97 74
f 8 74 55
f 8 55 43
f 8 43 32
f 8 32 19
f 9 20 21
f 10 22 11
f 11 22 23
f 11 23 12
f 12 24 25
f 12 25 26
f 12 26 13
f 12 23 27
f 12 27 28
f 12 28 24
f 13 26 29
f 13 29 14
f 15 30 31
f 15 31 16
f 18 31 30
f 19 32 33
f 20 34 35
f 20 35 36
f 20 36 21
f 24 37 38
f 24 38 25
f 24 28 39
f 24 39 37
f 25 38 29
f 25 29 26
f 27 40 28
f 28 40 39
f 29 38 41
f 29 41 42
f 32 43 33
f 33 43 44
f 34 45 46
f 34 46 35
f 35 46 47
f 35 47 36
f 37 48 49
f 37 49 38
f 37 39 50
f 37 50 51
f 37 51 48
f 38 49 41
f 39 40 52
f 39 52 50
f 41 49 53
f 41 53 54
f 41 54 42
f 42 54 53
f 43 55 44
f 44 55 56
f 44 56 57
f 44 57 58
f 45 59 60
f 45 60 46
f 46 60 61
f 46 61 47
f 47 61 62
f 48 51 63
f 48 63 64
f 48 64 65
f 48 65 66
f 48 66 49
f 49 66 53
f 50 52 67
f 50 67 68
f 50 68 69
f 50 69 70
f 50 70 51
f 51 70 71
f 51 71 69
f 51 69 72
f 51 72 63
f 53 66 73
f 55 74 56
f 56 74 75
f 56 75 57
f 57 75 76
f 57 76 77
f 57 77 58
f 58 77 78
f 58 78 79
f 59 80 60
f 60 81 82
f 60 82 62
f 60 62 61
f 60 80 81
f 62 82 83
f 62 83 84
f 63 85 64
f 63 72 86
f 63 86 87
f 63 87 85
f 64 85 88
f 64 88 89
f 64 89 90
f 64 90 65
f 65 90 91
f 65 91 66
f 66 91 73
f 68 92 69
f 69 92 93
f 69 93 94
f 69 94 95
f 69 95 96
f 69 96 86
f 69 86 72
f 69 71 70
f 74 97 75
f 75 97 76
f 76 98 99
f 76 99 83
f 76 83 81
f 76 81 77
f 76 97 100
f 76 100 101
f 76 101 98
f 77 81 78
f 78 81 102
f 78 102 79
f 79 102 103
f 80 104 102
f 80 102 81
f 81 83 82
f 83 105 106
f 83 106 107
f 83 107 84
f 83 99 98
f 83 98 108
f 83 108 105
f 85 87 96
f 85 96 109
f 85 109 110
f 85 110 88
f 86 96 87
f 88 110 111
f 88 111 112
f 88 112 89
f 89 112 90
f 94 113 95
f 95 113 114
f 95 114 124
f 95 124 115
f 95 115 96
f 96 116 109
f 96 115 117
f 96 117 116
f 98 118 119
f 98 119 111
f 98 111 120
f 98 120 110
f 98 110 108
f 98 101 118
f 102 104 103
f 105 116 117
f 105 117 121
f 105 121 106
f 105 108 116
f 106 121 107
f 107 121 122
f 108 110 123
f 108 123 116
f 109 116 110
f 110 116 123
f 110 120 111
f 115 124 121
f 115 121 117
f 121 124 122

