# https://github.com/mikedh/trimesh
v -0.39336548 -0.22270604 0.95973290
v -0.39336548 -0.12859312 0.87324362
v -0.45481287 -0.22148057 0.90817480
v -0.45528194 -0.22270604 0.90861237
v -0.39336548 -0.22270604 0.26256797
v -0.68353574 -0.12859312 0.61297359
v -0.49075041 -0.21948111 0.87630649
v -0.39336548 -0.12859312 0.21472906
v -0.49150811 -0.22270604 0.87710868
v -0.39354589 -0.22270604 0.26264093
v -0.58665595 -0.18480842 0.30223932
v -0.59405275 -0.15503763 0.28269535
v -0.39336548 -0.20075803 0.24739955
v -0.68375221 -0.12859312 0.61275481
v -0.59300638 -0.21817273 0.77581557
v -0.57622829 -0.21836622 0.79280714
v -0.39336548 -0.12900775 0.21487494
v -0.39397886 -0.12859312 0.21487494
v -0.52906933 -0.22270604 0.84050022
v -0.58330035 -0.20118190 0.32076232
v -0.69630872 -0.22270604 0.41840916
v -0.59632589 -0.18939704 0.31346981
v -0.59639804 -0.17353956 0.29742624
v -0.61032564 -0.13742945 0.28276826
v -0.59989800 -0.14332649 0.28028883
v -0.39336548 -0.17297750 0.23201235
v -0.39336548 -0.18082793 0.23609615
v -0.60083613 -0.16144143 0.29224855
v -0.69374691 -0.13421373 0.60648325
v -0.73322043 -0.12859312 0.55900894
v -0.59340325 -0.22270604 0.77625312
v -0.57673345 -0.22270604 0.79339054
v -0.68927275 -0.14372270 0.61807835
v -0.64532505 -0.22270604 0.71076629
v -0.59794957 -0.22270604 0.77056495
v -0.60018667 -0.12859312 0.27664255
v -0.72484946 -0.22270604 0.43496318
v -0.60765559 -0.16783601 0.30202053
v -0.65874751 -0.14963815 0.33556613
v -0.61981521 -0.12859312 0.28816474
v -0.61277922 -0.12859312 0.28182025
v -0.72759166 -0.22083560 0.43591120
v -0.73654000 -0.12859312 0.54697628
v -0.76150862 -0.21703939 0.53982961
v -0.75815297 -0.21138192 0.54580948
v -0.74869955 -0.21243232 0.56411370
v -0.74415328 -0.21879926 0.57191670
v -0.74415328 -0.22065130 0.57191670
v -0.74570475 -0.22270604 0.56936432
v -0.72694220 -0.22270604 0.43671338
v -0.67000504 -0.12859312 0.34220232
v -0.66874216 -0.12859312 0.34081673
v -0.66156192 -0.12859312 0.33301374
v -0.72834941 -0.22270604 0.43882821
v -0.74660680 -0.22270604 0.46653978
v -0.74765317 -0.21134505 0.46500835
v -0.67700490 -0.12859312 0.35073455
v -0.73614309 -0.12859312 0.54281955
v -0.76093131 -0.21955484 0.50373164
v -0.76158077 -0.21717759 0.52940131
v -0.76197768 -0.22270604 0.52940131
v -0.76194160 -0.22270604 0.53457900
v -0.76165293 -0.22270604 0.54026716
v -0.75844166 -0.22270604 0.54807016
v -0.75512214 -0.22270604 0.55441465
v -0.74646250 -0.22270604 0.56819752
v -0.75198298 -0.22270604 0.47871829
v -0.75270464 -0.21134505 0.47871829
v -0.74617381 -0.20017754 0.46690440
v -0.68043270 -0.12859312 0.35861051
v -0.73386995 -0.12859312 0.52940131
v -0.76093131 -0.22036567 0.50373164
v -0.76107563 -0.22270604 0.50701328
v -0.75984887 -0.22270604 0.50132510
v -0.73347304 -0.12859312 0.52757818
v -0.72979268 -0.12859312 0.51445164
v -0.70439102 -0.12859312 0.42861868
v -0.68115431 -0.12859312 0.36028774
v -0.76071484 -0.22270604 0.50453381
f 1 2 3
f 1 3 4
f 1 4 9
f 1 9 19
f 1 19 32
f 1 32 31
f 1 31 35
f 1 35 34
f 1 34 49
f 1 49 66
f 1 66 65
f 1 65 64
f 1 64 63
f 1 63 62
f 1 62 61
f 1 61 73
f 1 73 79
f 1 79 74
f 1 74 67
f 1 67 55
f 1 55 54
f 1 54 50
f 1 50 37
f 1 37 21
f 1 21 10
f 1 10 5
f 1 5 13
f 1 13 27
f 1 27 26
f 1 26 17
f 1 17 8
f 1 8 2
f 2 6 7
f 2 7 3
f 2 8 18
f 2 18 36
f 2 36 41
f 2 41 40
f 2 40 53
f 2 53 52
f 2 52 51
f 2 51 57
f 2 57 70
f 2 70 78
f 2 78 77
f 2 77 76
f 2 76 75
f 2 75 71
f 2 71 58
f 2 58 43
f 2 43 30
f 2 30 14
f 2 14 6
f 3 7 4
f 4 7 9
f 5 10 11
f 5 11 12
f 5 12 13
f 6 14 15
f 6 15 16
f 6 16 7
f 7 16 9
f 8 17 18
f 9 16 19
f 10 20 11
f 10 21 20
f 11 20 22
f 11 22 23
f 11 23 12
f 12 24 25
f 12 25 18
f 12 18 26
f 12 26 27
f 12 27 13
f 12 23 28
f 12 28 24
f 14 29 15
f 14 30 29
f 15 31 32
f 15 32 16
f 15 29 33
f 15 33 30
f 15 30 34
f 15 34 35
f 15 35 31
f 16 32 19
f 17 26 18
f 18 25 36
f 20 21 37
f 20 37 22
f 22 37 23
f 23 38 28
f 23 37 38
f 24 39 40
f 24 40 41
f 24 41 36
f 24 36 25
f 24 28 38
f 24 38 37
f 24 37 42
f 24 42 39
f 29 30 33
f 30 43 44
f 30 44 45
f 30 45 46
f 30 46 34
f 34 46 47
f 34 47 48
f 34 48 49
f 37 50 42
f 39 51 52
f 39 52 53
f 39 53 40
f 39 42 51
f 42 50 54
f 42 54 55
f 42 55 56
f 42 56 57
f 42 57 51
f 43 58 59
f 43 59 60
f 43 60 44
f 44 60 61
f 44 61 62
f 44 62 63
f 44 63 64
f 44 64 45
f 45 64 65
f 45 65 46
f 46 65 47
f 47 65 48
f 48 65 66
f 48 66 49
f 55 67 56
f 56 67 68
f 56 68 69
f 56 69 57
f 57 69 70
f 58 71 59
f 59 68 72
f 59 72 73
f 59 73 61
f 59 61 60
f 59 71 68
f 67 74 72
f 67 72 68
f 68 71 69
f 69 71 75
f 69 75 76
f 69 76 77
f 69 77 78
f 69 78 70
f 72 74 79
f 72 79 73

