# https://github.com/mikedh/trimesh
v -0.56788937 0.26135239 0.40366980
v -0.56788937 0.34269593 0.40366980
v -0.38279559 0.26135239 0.40366980
v -0.56788937 0.26135239 0.76905660
v -0.55882946 0.35684355 0.40366980
v -0.56788937 0.41577414 0.44447895
v -0.56078637 0.40868960 0.43399948
v -0.38279559 0.44907152 0.40366980
v -0.38279559 0.26135239 0.76905660
v -0.56788937 0.48067291 0.76905660
v -0.54853736 0.36970307 0.40366980
v -0.56788937 0.42483379 0.45109570
v -0.47373887 0.44810548 0.40366980
v -0.47756213 0.44443436 0.40366980
v -0.43217205 0.45892549 0.40366980
v -0.38279559 0.46152318 0.41479306
v -0.38279559 0.48067291 0.76905660
v -0.56788937 0.48067291 0.63811680
v -0.46808546 0.45289290 0.40366980
v -0.56788937 0.43277707 0.46229048
v -0.44775507 0.46004186 0.40366980
v -0.38279559 0.47725943 0.43210388
v -0.38279559 0.46998169 0.42366306
v -0.38279559 0.48067291 0.43829142
v -0.56401169 0.48067291 0.54630514
v -0.56788937 0.47307314 0.54630514
v -0.45964168 0.45802384 0.40366980
v -0.56788937 0.43522446 0.46590288
v -0.54969707 0.48067291 0.51701267
v -0.56029714 0.48067291 0.53085417
v -0.56788937 0.44080622 0.47688306
v -0.56013408 0.48067291 0.53021037
v -0.56007971 0.48067291 0.53006731
v -0.54978767 0.48067291 0.51711997
f 1 2 5
f 1 5 11
f 1 11 14
f 1 14 13
f 1 13 19
f 1 19 27
f 1 27 21
f 1 21 15
f 1 15 8
f 1 8 3
f 1 3 9
f 1 9 4
f 1 4 10
f 1 10 18
f 1 18 26
f 1 26 31
f 1 31 28
f 1 28 20
f 1 20 12
f 1 12 6
f 1 6 2
f 2 6 7
f 2 7 5
f 3 8 16
f 3 16 23
f 3 23 22
f 3 22 24
f 3 24 17
f 3 17 9
f 4 9 17
f 4 17 10
f 5 7 11
f 6 12 7
f 7 12 13
f 7 13 14
f 7 14 11
f 8 15 16
f 10 17 24
f 10 24 29
f 10 29 34
f 10 34 33
f 10 33 32
f 10 32 30
f 10 30 25
f 10 25 18
f 12 19 13
f 12 20 19
f 15 21 22
f 15 22 23
f 15 23 16
f 18 25 26
f 19 20 27
f 20 28 27
f 21 27 29
f 21 29 24
f 21 24 22
f 25 30 31
f 25 31 26
f 27 28 29
f 28 31 32
f 28 32 33
f 28 33 34
f 28 34 29
f 30 32 31

