# https://github.com/mikedh/trimesh
v 0.46274773 0.07820623 1.13365041
v 0.46274773 0.07607096 1.13365041
v 0.49655554 0.09293965 1.10173046
v 0.46274773 0.09293965 1.13352857
v 0.46274773 -0.02535479 1.13023909
v 0.47745354 -0.04222349 1.11639091
v 0.53906494 0.07607096 1.06006392
v 0.53931134 0.09293965 1.06026698
v 0.53945399 0.10986174 1.06042944
v 0.51371231 0.10986174 1.08499888
v 0.53864995 0.12678382 1.05998269
v 0.53019477 0.12678382 1.06737386
v 0.46274773 0.11039557 1.12841165
v 0.46274773 -0.04222349 1.12922386
v 0.46783121 -0.04222349 1.12483793
v 0.48590871 -0.04222349 1.10818757
v 0.47697373 -0.05914558 1.11582237
v 0.48542891 -0.05914558 1.10790328
v 0.53880560 0.05914887 1.05982026
v 0.54744233 0.05914887 1.05137325
v 0.59521678 0.12678382 1.00645787
v 0.59104102 0.12678382 1.01051895
v 0.55649405 0.12678382 1.04365725
v 0.54803887 0.12678382 1.05149509
v 0.57252260 0.14370591 1.02615404
v 0.56406743 0.14370591 1.03378884
v 0.46274773 0.11872315 1.12118293
v 0.55332985 0.14370591 1.04223586
v 0.52764005 0.13836773 1.06477476
v 0.56117552 0.15464922 1.03086488
v 0.54146405 0.15235379 1.04528165
v 0.46274773 -0.05914558 1.12780250
v 0.46700124 -0.05914558 1.12426934
v 0.46274773 -0.14359586 1.11858388
v 0.49385818 -0.05914558 1.09945627
v 0.46274773 -0.15843604 1.11671577
v 0.46274773 -0.16057132 1.11643147
v 0.47744059 -0.17749339 1.09965928
v 0.59521678 0.10986174 1.00580810
v 0.59521678 0.13543171 1.00588933
v 0.59521678 0.14370591 1.00523957
v 0.59031482 0.14370591 1.00986918
v 0.58185963 0.14370591 1.01770702
v 0.57892883 0.15609053 1.01486427
v 0.46274773 0.12262004 1.11590355
v 0.53258087 0.15352820 1.04719035
v 0.59521678 0.17077057 0.98757393
v 0.59521678 0.18101992 0.97725883
v 0.59521678 0.18326195 0.97478157
v 0.57138141 0.16735413 1.00917881
v 0.56011216 0.16975632 1.01250887
v 0.54116575 -0.10206469 1.04515984
v 0.57629633 -0.07606766 1.01275253
v 0.59521678 -0.00944696 0.99882307
v 0.59521678 -0.00843271 0.99890429
v 0.59521678 0.00651425 0.99983835
v 0.59521678 0.00848938 0.99996019
v 0.59521678 0.09293965 1.00487407
v 0.59521678 0.10217475 1.00540200
v 0.46274773 -0.18800966 1.11265474
v 0.46274773 -0.20413101 1.10932465
v 0.48589577 -0.17749339 1.09072496
v 0.57547931 -0.08711771 1.01189970
v 0.59521678 0.15427554 1.00065056
v 0.59521678 0.15726493 0.99902613
v 0.59521678 0.16180239 0.99528996
v 0.46274773 0.13350996 1.09425811
v 0.51568347 0.14963131 1.05819586
v 0.51568347 0.15443570 1.04974884
v 0.59521678 0.18747914 0.96954280
v 0.58696905 0.18513033 0.97632478
v 0.57569977 0.18603781 0.97762433
v 0.59521678 -0.05519530 0.99281270
v 0.59521678 -0.03960778 0.99528996
v 0.59521678 -0.02535479 0.99715805
v 0.46274773 -0.21357960 1.10644130
v 0.51992402 -0.16057132 1.05689628
v 0.51146885 -0.16057132 1.06635858
v 0.57411767 -0.09843470 1.01019406
v 0.59196177 -0.06806037 0.99459958
v 0.49878606 0.24780075 0.83374082
v 0.48187564 0.25228484 0.82192311
v 0.46274773 0.25543439 0.81189227
v 0.57427332 0.18603781 0.97762433
v 0.59521678 0.19351129 0.95699412
v 0.59521678 -0.06368305 0.99029485
v 0.46274773 -0.22094632 1.10128371
v 0.52505940 -0.17060713 1.04637814
v 0.52682306 -0.16057132 1.04844929
v 0.57271710 -0.10985845 1.00796046
v 0.57785248 -0.10985845 0.99951347
v 0.49878606 0.25255174 0.82192311
v 0.46274773 0.29440321 0.71885329
v 0.59521678 0.27006102 0.75605264
v 0.56640168 0.27646689 0.74918944
v 0.53258087 0.28810413 0.72539160
v 0.59521678 -0.07056932 0.98436568
v 0.57608882 -0.12032131 0.99658949
v 0.46274773 -0.22660482 1.09454236
v 0.52183033 -0.18267146 1.03659098
v 0.52397010 -0.18566085 1.02712868
v 0.53258087 0.29029280 0.71885329
v 0.46274773 -0.19163962 0.71885329
v 0.59521678 0.27278352 0.74788991
v 0.58351954 0.27358426 0.75052960
v 0.58331205 0.27924276 0.73229541
v 0.54165855 0.28751695 0.72417329
v 0.59521678 -0.08263364 0.97003014
v 0.56264093 -0.14450335 0.98534035
v 0.55850410 -0.15283093 0.97932996
v 0.57186121 -0.13019698 0.98586827
v 0.57672428 -0.12176264 0.98586827
v 0.59521678 -0.09138827 0.95203962
v 0.59521678 -0.08679744 0.96357303
v 0.46274773 -0.23039491 1.08934420
v 0.50833053 -0.20407763 1.03029632
v 0.51047030 -0.20653320 1.01969695
v 0.51985917 -0.19361476 1.02079344
v 0.58331205 0.28271257 0.71885329
v 0.48188864 -0.19601694 0.71885329
v 0.46274773 -0.23685415 0.91829217
v 0.59521678 0.27705407 0.73229541
v 0.59521678 0.28063066 0.71885329
v 0.59521678 -0.14290189 0.71885329
v 0.51197460 -0.20904214 1.00276231
v 0.46274773 -0.23514592 1.07785139
v 0.47390028 -0.23712106 1.04621568
v 0.50281912 -0.21496755 1.01969695
v 0.50533492 -0.21747651 1.00276231
v 0.49883791 -0.19804546 0.71885329
v 0.46274773 -0.23850901 0.92560209
v 0.49728176 -0.22740555 0.98586827
v 0.48924152 -0.23583993 0.98586827
v 0.48908593 -0.23589329 0.96897424
v 0.53692519 -0.18555409 0.71885329
v 0.46274773 -0.23850901 1.06749565
v 0.46274773 -0.24021725 1.06172896
v 0.46496529 -0.24528852 1.03659098
v 0.47550832 -0.23850901 1.03659098
v 0.49687975 -0.22617778 1.00276231
v 0.51583906 -0.19569664 0.71885329
v 0.46274773 -0.24747715 0.96897424
v 0.46274773 -0.24411411 0.95203962
v 0.48802251 -0.23461210 1.00276231
v 0.47956735 -0.24128487 1.00276231
v 0.48078635 -0.24117811 0.98586827
v 0.48063075 -0.24043074 0.96897424
v 0.53055787 -0.18918405 0.71885329
v 0.46274773 -0.24662306 1.03659098
v 0.46343503 -0.24955905 1.01876290
v 0.47776478 -0.24043074 1.01969695
v 0.51982027 -0.19436209 0.71885329
v 0.46274773 -0.25019966 0.98704599
v 0.46496529 -0.24688997 0.96897424
v 0.46526355 -0.24971919 1.00276231
v 0.46274773 -0.25035979 0.98875164
v 0.46335724 -0.24998611 0.98733025
v 0.46274773 -0.24987933 1.01920962
v 0.46274773 -0.24998611 1.01811313
v 0.46274773 -0.25030642 0.98793943
v 0.46274773 -0.25089360 1.00568626
v 0.46274773 -0.25094702 1.00276231
f 1 2 3
f 1 3 4
f 1 4 13
f 1 13 27
f 1 27 45
f 1 45 67
f 1 67 83
f 1 83 93
f 1 93 103
f 1 103 121
f 1 121 131
f 1 131 143
f 1 143 142
f 1 142 153
f 1 153 160
f 1 160 156
f 1 156 162
f 1 162 161
f 1 161 159
f 1 159 158
f 1 158 149
f 1 149 137
f 1 137 136
f 1 136 126
f 1 126 115
f 1 115 99
f 1 99 87
f 1 87 76
f 1 76 61
f 1 61 60
f 1 60 37
f 1 37 36
f 1 36 34
f 1 34 32
f 1 32 14
f 1 14 5
f 1 5 2
f 2 5 6
f 2 6 3
f 3 7 8
f 3 8 9
f 3 9 10
f 3 10 4
f 3 6 7
f 4 10 11
f 4 11 12
f 4 12 13
f 5 14 15
f 5 15 6
f 6 16 7
f 6 15 17
f 6 17 18
f 6 18 16
f 7 19 20
f 7 20 21
f 7 21 8
f 7 16 19
f 8 21 9
f 9 21 22
f 9 22 23
f 9 23 10
f 10 23 24
f 10 24 11
f 11 24 25
f 11 25 26
f 11 26 12
f 12 26 13
f 13 26 28
f 13 28 29
f 13 29 30
f 13 30 31
f 13 31 27
f 14 32 33
f 14 33 17
f 14 17 15
f 16 18 20
f 16 20 19
f 17 33 34
f 17 34 18
f 18 35 20
f 18 34 36
f 18 36 37
f 18 37 38
f 18 38 35
f 20 39 21
f 20 35 39
f 21 40 22
f 21 39 59
f 21 59 58
f 21 58 57
f 21 57 56
f 21 56 55
f 21 55 54
f 21 54 75
f 21 75 74
f 21 74 73
f 21 73 86
f 21 86 97
f 21 97 108
f 21 108 114
f 21 114 113
f 21 113 124
f 21 124 123
f 21 123 122
f 21 122 104
f 21 104 94
f 21 94 85
f 21 85 70
f 21 70 49
f 21 49 48
f 21 48 47
f 21 47 66
f 21 66 65
f 21 65 64
f 21 64 41
f 21 41 40
f 22 40 23
f 23 40 41
f 23 41 42
f 23 42 43
f 23 43 24
f 24 43 25
f 25 43 44
f 25 44 26
f 26 44 30
f 26 30 28
f 27 31 46
f 27 46 45
f 28 30 29
f 30 44 47
f 30 47 48
f 30 48 49
f 30 49 50
f 30 50 31
f 31 50 51
f 31 51 46
f 32 34 33
f 35 38 52
f 35 52 53
f 35 53 54
f 35 54 55
f 35 55 56
f 35 56 57
f 35 57 58
f 35 58 59
f 35 59 39
f 37 60 38
f 38 60 61
f 38 61 62
f 38 62 63
f 38 63 53
f 38 53 52
f 41 64 42
f 42 64 43
f 43 64 44
f 44 64 65
f 44 65 66
f 44 66 47
f 45 46 68
f 45 68 69
f 45 69 67
f 46 51 68
f 49 70 50
f 50 70 51
f 51 69 68
f 51 70 71
f 51 71 72
f 51 72 69
f 53 63 73
f 53 73 74
f 53 74 75
f 53 75 54
f 61 76 77
f 61 77 62
f 62 77 78
f 62 78 63
f 63 79 80
f 63 80 73
f 63 78 77
f 63 77 79
f 67 69 81
f 67 81 82
f 67 82 83
f 69 72 84
f 69 84 81
f 70 85 72
f 70 72 71
f 72 85 81
f 72 81 84
f 73 80 86
f 76 87 88
f 76 88 89
f 76 89 77
f 77 89 79
f 79 90 80
f 79 89 90
f 80 90 91
f 80 91 86
f 81 92 93
f 81 93 82
f 81 85 92
f 82 93 83
f 85 94 95
f 85 95 96
f 85 96 92
f 86 91 98
f 86 98 97
f 87 99 88
f 88 99 100
f 88 100 101
f 88 101 98
f 88 98 90
f 88 90 89
f 90 98 91
f 92 96 93
f 93 96 102
f 93 102 119
f 93 119 123
f 93 123 124
f 93 124 135
f 93 135 148
f 93 148 152
f 93 152 141
f 93 141 130
f 93 130 120
f 93 120 103
f 94 104 105
f 94 105 95
f 95 105 104
f 95 104 106
f 95 106 107
f 95 107 102
f 95 102 96
f 97 98 108
f 98 109 110
f 98 110 111
f 98 111 112
f 98 112 113
f 98 113 114
f 98 114 108
f 98 101 109
f 99 115 100
f 100 115 101
f 101 115 116
f 101 116 117
f 101 117 118
f 101 118 110
f 101 110 109
f 102 107 106
f 102 106 119
f 103 120 121
f 104 122 106
f 106 122 123
f 106 123 119
f 110 124 111
f 110 118 117
f 110 117 125
f 110 125 124
f 111 124 112
f 112 124 113
f 115 126 127
f 115 127 117
f 115 117 116
f 117 127 128
f 117 128 129
f 117 129 125
f 120 130 131
f 120 131 121
f 124 125 129
f 124 129 132
f 124 132 133
f 124 133 134
f 124 134 135
f 126 136 127
f 127 136 137
f 127 137 138
f 127 138 139
f 127 139 128
f 128 139 129
f 129 139 140
f 129 140 133
f 129 133 132
f 130 141 142
f 130 142 143
f 130 143 131
f 133 140 144
f 133 144 145
f 133 145 146
f 133 146 134
f 134 146 147
f 134 147 148
f 134 148 135
f 137 149 138
f 138 149 150
f 138 150 151
f 138 151 139
f 139 151 140
f 140 151 144
f 141 152 153
f 141 153 154
f 141 154 142
f 142 154 153
f 144 151 145
f 145 151 150
f 145 150 155
f 145 155 146
f 146 155 156
f 146 156 157
f 146 157 147
f 147 157 152
f 147 152 148
f 149 158 150
f 150 158 159
f 150 159 155
f 152 157 153
f 153 157 160
f 155 159 161
f 155 161 162
f 155 162 156
f 156 160 157

