# https://github.com/mikedh/trimesh
v 0.06158984 0.51475948 0.74536398
v 0.11659640 0.47237157 0.74536398
v 0.06158984 0.54652756 0.72678774
v 0.06158984 -0.27989978 0.74536398
v 0.12143355 0.46797712 0.74536398
v 0.06885820 0.54240778 0.72501230
v 0.06158984 0.55559108 0.71534608
v 0.06158984 -0.32668219 0.71804210
v 0.19093885 -0.25106135 0.74536398
v 0.19093885 0.40215226 0.74536398
v 0.12005330 0.52620332 0.67579348
v 0.06158984 0.55961931 0.70817861
v 0.11457039 0.53773871 0.66461486
v 0.06158984 -0.32668219 0.40954495
v 0.14948132 -0.32668219 0.63351198
v 0.17443942 -0.29042814 0.69351489
v 0.18570917 -0.28713232 0.68887905
v 0.19093885 -0.27980827 0.69187098
v 0.19093885 0.41103267 0.73155509
v 0.12218063 0.52931603 0.66461486
v 0.19093885 0.41963841 0.71797635
v 0.06158984 0.56373905 0.70068235
v 0.11767273 0.54030214 0.64771541
v 0.08734567 0.57701391 0.61388363
v 0.08542096 0.57554910 0.62351698
v 0.10611172 0.54469653 0.66461486
v 0.19093885 -0.32668219 0.40954495
v 0.06158984 0.57335185 0.40954495
v 0.15648376 -0.32668219 0.62670617
v 0.17307184 -0.32668219 0.60987248
v 0.19091352 -0.32668219 0.59155927
v 0.19093885 -0.28319566 0.68450624
v 0.13624884 0.54222466 0.57449542
v 0.19093885 0.42293423 0.71126918
v 0.19093885 0.42366664 0.70952662
v 0.06158984 0.56575319 0.69614515
v 0.11973674 0.55916153 0.57390361
v 0.10433896 0.57738008 0.55973306
v 0.08367351 0.59129578 0.54921200
v 0.06248888 0.60640163 0.52938638
v 0.06158984 0.60685940 0.52938638
v 0.07608857 0.58232382 0.61388363
v 0.06158984 0.58214076 0.64330971
v 0.06158984 0.57124621 0.68151431
v 0.19093885 0.47035743 0.40954495
v 0.19093885 -0.32668219 0.45409507
v 0.06158984 0.60484526 0.49358191
v 0.19093885 -0.31276649 0.59264425
v 0.15043102 0.52107647 0.58008474
v 0.13694529 0.54314018 0.56321817
v 0.12938568 0.55156287 0.56321817
v 0.12093969 0.56062634 0.56321817
v 0.19093885 0.42641317 0.70114266
v 0.10444026 0.57747164 0.54628584
v 0.06471751 0.60658474 0.51248693
v 0.07608857 0.59807055 0.52938638
v 0.06158984 0.60722558 0.52692052
v 0.06158984 0.58616898 0.62637739
v 0.07692432 0.59697193 0.51393359
v 0.08464854 0.59184508 0.52050925
v 0.12042053 0.56035171 0.55003396
v 0.14401105 0.53252031 0.56321817
v 0.19093885 0.46413201 0.51633371
v 0.06158984 0.60814109 0.50725929
v 0.19093885 0.42714557 0.69844663
v 0.19093885 0.43071602 0.68503228
v 0.19093885 0.46230098 0.53454828
v 0.19093885 0.46303339 0.53001107
v 0.06158984 0.60859888 0.51248693
f 1 2 3
f 1 3 7
f 1 7 12
f 1 12 22
f 1 22 36
f 1 36 44
f 1 44 43
f 1 43 58
f 1 58 41
f 1 41 57
f 1 57 69
f 1 69 64
f 1 64 47
f 1 47 28
f 1 28 14
f 1 14 8
f 1 8 4
f 1 4 9
f 1 9 10
f 1 10 5
f 1 5 2
f 2 5 6
f 2 6 3
f 3 6 7
f 4 8 9
f 5 10 6
f 6 11 7
f 6 10 11
f 7 11 13
f 7 13 12
f 8 14 27
f 8 27 46
f 8 46 31
f 8 31 30
f 8 30 29
f 8 29 15
f 8 15 16
f 8 16 9
f 9 16 17
f 9 17 18
f 9 18 32
f 9 32 48
f 9 48 46
f 9 46 27
f 9 27 45
f 9 45 63
f 9 63 68
f 9 68 67
f 9 67 66
f 9 66 65
f 9 65 53
f 9 53 35
f 9 35 34
f 9 34 21
f 9 21 19
f 9 19 10
f 10 19 11
f 11 20 13
f 11 19 21
f 11 21 20
f 12 13 22
f 13 23 24
f 13 24 25
f 13 25 26
f 13 26 22
f 13 20 23
f 14 28 45
f 14 45 27
f 15 29 16
f 16 29 30
f 16 30 31
f 16 31 17
f 17 31 18
f 18 31 32
f 20 33 23
f 20 21 34
f 20 34 35
f 20 35 33
f 22 26 36
f 23 33 37
f 23 37 38
f 23 38 24
f 24 38 39
f 24 39 40
f 24 40 41
f 24 41 42
f 24 42 43
f 24 43 25
f 25 43 44
f 25 44 36
f 25 36 26
f 28 47 45
f 31 46 48
f 31 48 32
f 33 49 50
f 33 50 51
f 33 51 52
f 33 52 37
f 33 35 53
f 33 53 49
f 37 52 38
f 38 54 55
f 38 55 56
f 38 56 39
f 38 52 54
f 39 56 57
f 39 57 40
f 40 57 41
f 41 58 42
f 42 58 43
f 45 47 59
f 45 59 60
f 45 60 54
f 45 54 61
f 45 61 51
f 45 51 50
f 45 50 62
f 45 62 63
f 47 64 59
f 49 62 50
f 49 53 65
f 49 65 66
f 49 66 67
f 49 67 68
f 49 68 62
f 51 61 54
f 51 54 52
f 54 60 55
f 55 60 59
f 55 59 64
f 55 64 69
f 55 69 56
f 56 69 57
f 62 68 63

