# https://github.com/mikedh/trimesh
v 0.19409585 -0.26299608 0.05607163
v 0.19444067 -0.26299608 0.05607163
v 0.19093885 -0.26299608 0.05664832
v 0.19093885 -0.26204488 0.05614373
v 0.19444067 -0.26204488 0.05556708
v 0.21135208 -0.25130648 0.04850299
v 0.21091533 -0.26299608 0.05780162
v 0.19093885 -0.26299608 0.71411306
v 0.19093885 -0.16622527 0.01512877
v 0.19093885 -0.15761452 0.01181294
v 0.22825587 -0.24111878 0.04547553
v 0.22825587 -0.24957932 0.05217915
v 0.21114520 -0.26264565 0.05758535
v 0.22825587 -0.25651301 0.06068492
v 0.21147470 -0.26299608 0.05830621
v 0.19291581 -0.26299608 0.71425722
v 0.19093885 -0.25108121 0.74532479
v 0.19093885 -0.15373467 0.01102002
v 0.19444067 -0.15633792 0.01210126
v 0.23774220 -0.23814007 0.04655677
v 0.23679968 -0.25368446 0.06428907
v 0.22675398 -0.26299608 0.07373182
v 0.21169692 -0.24967946 0.74532479
v 0.19444067 -0.25095603 0.74532479
v 0.19402689 -0.26299608 0.71389681
v 0.19093885 -0.00730186 0.74532479
v 0.19093885 -0.14369714 0.00921802
v 0.19444067 -0.14369714 0.00986672
v 0.20318372 -0.15253318 0.01354293
v 0.20372777 -0.14369714 0.01311045
v 0.22276175 -0.15773969 0.02831988
v 0.26922027 -0.07561214 0.06118946
v 0.26922027 -0.10945439 0.06839777
v 0.26922027 -0.12722658 0.07301106
v 0.26922027 -0.14257074 0.07755219
v 0.25374941 -0.23691353 0.08072386
v 0.24001797 -0.24432276 0.05758535
v 0.22705280 -0.26299608 0.07430852
v 0.26922027 -0.26299608 0.20513832
v 0.19444067 -0.26299608 0.71375265
v 0.20398831 -0.26299608 0.70971603
v 0.22476168 -0.24747670 0.74532479
v 0.19093885 -0.00730186 0.04821466
v 0.26922027 -0.00730186 0.74532479
v 0.19093885 -0.14019277 0.00907380
v 0.19093885 -0.12682609 0.00936213
v 0.19545214 -0.12682609 0.01051548
v 0.20371245 -0.13245811 0.01311045
v 0.21217966 -0.14369714 0.01952579
v 0.26922027 -0.05836561 0.06147783
v 0.26922027 -0.15060576 0.08072386
v 0.26922027 -0.15516146 0.08288634
v 0.26922027 -0.22539914 0.12707293
v 0.26922027 -0.23310877 0.14055236
v 0.26922027 -0.23365944 0.14163361
v 0.26922027 -0.26299608 0.56591138
v 0.21053986 -0.26299608 0.70121029
v 0.26922027 -0.23776456 0.74532479
v 0.19460925 -0.00730186 0.04951212
v 0.19093885 -0.01105654 0.04684510
v 0.26922027 -0.00730186 0.08238175
v 0.19093885 -0.12257076 0.00972256
v 0.19093885 -0.11233299 0.01130839
v 0.19093885 -0.11065589 0.01159672
v 0.20175849 -0.12119405 0.01455207
v 0.26922027 -0.04907902 0.06371237
v 0.21135208 -0.00730186 0.05614373
v 0.19093885 -0.10212024 0.01440796
v 0.26922027 -0.01593765 0.07827305
f 1 2 7
f 1 7 15
f 1 15 22
f 1 22 38
f 1 38 39
f 1 39 56
f 1 56 57
f 1 57 41
f 1 41 40
f 1 40 25
f 1 25 16
f 1 16 8
f 1 8 3
f 1 3 4
f 1 4 5
f 1 5 6
f 1 6 2
f 2 6 7
f 3 8 17
f 3 17 26
f 3 26 43
f 3 43 60
f 3 60 68
f 3 68 64
f 3 64 63
f 3 63 62
f 3 62 46
f 3 46 45
f 3 45 27
f 3 27 18
f 3 18 10
f 3 10 9
f 3 9 4
f 4 9 5
f 5 9 6
f 6 9 10
f 6 10 11
f 6 11 12
f 6 12 13
f 6 13 7
f 7 13 12
f 7 12 14
f 7 14 15
f 8 16 17
f 10 18 19
f 10 19 11
f 11 20 12
f 11 19 20
f 12 20 21
f 12 21 14
f 14 21 22
f 14 22 15
f 16 23 24
f 16 24 17
f 16 25 23
f 17 24 23
f 17 23 42
f 17 42 58
f 17 58 44
f 17 44 26
f 18 27 19
f 19 27 28
f 19 28 29
f 19 29 20
f 20 29 30
f 20 30 31
f 20 31 32
f 20 32 33
f 20 33 34
f 20 34 35
f 20 35 36
f 20 36 37
f 20 37 21
f 21 38 22
f 21 37 36
f 21 36 39
f 21 39 38
f 23 25 40
f 23 40 41
f 23 41 42
f 26 44 61
f 26 61 67
f 26 67 59
f 26 59 43
f 27 45 28
f 28 45 46
f 28 46 47
f 28 47 48
f 28 48 30
f 28 30 29
f 30 48 32
f 30 32 49
f 30 49 31
f 31 49 32
f 32 50 66
f 32 66 69
f 32 69 61
f 32 61 44
f 32 44 58
f 32 58 56
f 32 56 39
f 32 39 55
f 32 55 54
f 32 54 53
f 32 53 52
f 32 52 51
f 32 51 35
f 32 35 34
f 32 34 33
f 32 48 50
f 35 51 36
f 36 51 52
f 36 52 53
f 36 53 54
f 36 54 55
f 36 55 39
f 41 57 58
f 41 58 42
f 43 59 60
f 46 62 47
f 47 62 63
f 47 63 64
f 47 64 48
f 48 64 65
f 48 65 50
f 50 65 64
f 50 64 66
f 56 58 57
f 59 67 66
f 59 66 68
f 59 68 60
f 61 69 67
f 64 68 66
f 66 67 69

