# https://github.com/mikedh/trimesh
v 0.36284064 -0.21630374 0.44495768
v 0.36284064 -0.21630374 0.62032567
v 0.36284064 -0.09428407 0.44495768
v 0.71095129 -0.21630374 0.44495768
v 0.36284064 -0.21311437 0.71881267
v 0.49877931 -0.21630374 0.65144799
v 0.36284064 -0.09428407 0.71881267
v 0.70038698 -0.09428407 0.44495768
v 0.70900879 -0.19228203 0.44495768
v 0.69813779 -0.09428407 0.53811019
v 0.69766070 -0.09428407 0.54540156
v 0.70379483 -0.21630374 0.47865342
v 0.51571622 -0.21630374 0.65337806
v 0.60019656 -0.21630374 0.66133958
v 0.60888654 -0.21630374 0.66163445
v 0.61709941 -0.21630374 0.66182210
v 0.62602799 -0.21630374 0.66109832
v 0.63403637 -0.21630374 0.66040135
v 0.51040001 -0.20417941 0.70878704
v 0.49884743 -0.19803960 0.71881267
v 0.63785316 -0.09428407 0.71881267
v 0.70788422 -0.17946489 0.44495768
v 0.67022761 -0.09428407 0.63300513
v 0.66866003 -0.21133455 0.63080700
v 0.67251089 -0.21630374 0.61389211
v 0.67748632 -0.21630374 0.59333154
v 0.68065562 -0.21630374 0.58011595
v 0.68345002 -0.21630374 0.56818706
v 0.68460872 -0.21630374 0.56320106
v 0.68852770 -0.21630374 0.54628617
v 0.69319646 -0.21630374 0.52583283
v 0.70270432 -0.21630374 0.48363943
v 0.64460067 -0.21630374 0.65785474
v 0.51585257 -0.19573419 0.71881267
v 0.61686086 -0.12911611 0.71881267
v 0.62749333 -0.15350810 0.70763437
v 0.62981066 -0.14372503 0.70918914
v 0.64398728 -0.17174834 0.69173813
v 0.64500962 -0.16061547 0.69374861
v 0.64282860 -0.09428407 0.70905511
v 0.65414263 -0.09428407 0.68190015
v 0.65363144 -0.09428407 0.68334770
v 0.65683484 -0.17752979 0.66573584
v 0.66293485 -0.21133455 0.64514847
v 0.66767174 -0.21630374 0.63118229
v 0.65376779 -0.21630374 0.65174286
v 0.64599789 -0.19040666 0.67678011
v 0.63403637 -0.18260647 0.68769035
v 0.51983972 -0.19439634 0.71881267
v 0.53691299 -0.18558081 0.71881267
v 0.53057440 -0.18920018 0.71881267
v 0.63403637 -0.17414932 0.69353416
v 0.66245773 -0.21630374 0.64404940
v 0.65121186 -0.16061547 0.68152486
v 0.64787220 -0.09428407 0.69825211
f 1 2 5
f 1 5 7
f 1 7 3
f 1 3 8
f 1 8 22
f 1 22 9
f 1 9 4
f 1 4 12
f 1 12 32
f 1 32 31
f 1 31 30
f 1 30 29
f 1 29 28
f 1 28 27
f 1 27 26
f 1 26 25
f 1 25 45
f 1 45 53
f 1 53 46
f 1 46 33
f 1 33 18
f 1 18 17
f 1 17 16
f 1 16 15
f 1 15 14
f 1 14 13
f 1 13 6
f 1 6 2
f 2 6 5
f 3 7 21
f 3 21 40
f 3 40 55
f 3 55 42
f 3 42 41
f 3 41 23
f 3 23 11
f 3 11 10
f 3 10 8
f 4 9 10
f 4 10 11
f 4 11 12
f 5 6 13
f 5 13 14
f 5 14 15
f 5 15 16
f 5 16 17
f 5 17 18
f 5 18 19
f 5 19 20
f 5 20 34
f 5 34 49
f 5 49 51
f 5 51 50
f 5 50 35
f 5 35 21
f 5 21 7
f 8 10 22
f 9 22 10
f 11 23 24
f 11 24 25
f 11 25 26
f 11 26 27
f 11 27 28
f 11 28 29
f 11 29 30
f 11 30 31
f 11 31 32
f 11 32 12
f 18 33 19
f 19 33 34
f 19 34 20
f 21 35 36
f 21 36 37
f 21 37 38
f 21 38 39
f 21 39 40
f 23 41 24
f 24 41 42
f 24 42 43
f 24 43 44
f 24 44 45
f 24 45 25
f 33 46 47
f 33 47 38
f 33 38 48
f 33 48 49
f 33 49 34
f 35 50 36
f 36 50 51
f 36 51 38
f 36 38 37
f 38 52 48
f 38 47 46
f 38 46 53
f 38 53 44
f 38 44 39
f 38 51 52
f 39 54 40
f 39 44 54
f 40 54 55
f 42 55 43
f 43 55 54
f 43 54 44
f 44 53 45
f 48 52 51
f 48 51 49

