# https://github.com/mikedh/trimesh
v 0.06152850 -0.31577565 0.28250921
v 0.06152850 -0.45348946 0.28250921
v 0.06152850 -0.31577565 0.11636341
v -0.41090527 -0.31577565 0.28250921
v 0.06152850 -0.39849893 0.13983367
v 0.06123620 -0.45364779 0.28250921
v -0.01100749 -0.49486431 0.24194457
v -0.01110492 -0.49417826 0.22502910
v 0.01792896 -0.47430883 0.21427803
v 0.06152850 -0.36651786 0.11636341
v -0.32969811 -0.31577565 0.11636341
v -0.35702697 -0.31577565 0.17132244
v -0.35551681 -0.31991841 0.16523942
v -0.43472667 -0.39733789 0.28250921
v 0.06152850 -0.39290488 0.12929401
v 0.01422665 -0.45483520 0.17070438
v -0.01470979 -0.49185620 0.28250921
v -0.01383292 -0.49254224 0.27575929
v -0.02537829 -0.50117081 0.25884379
v -0.01193306 -0.49415186 0.25884379
v -0.02537829 -0.50264850 0.24194457
v -0.02537829 -0.50127636 0.22502910
v -0.01310221 -0.49246307 0.21188709
v 0.00872191 -0.47792387 0.20843894
v 0.00331459 -0.47552263 0.19578486
v 0.01456766 -0.47114240 0.20300648
v 0.06152850 -0.36715114 0.11647728
v 0.00433760 -0.42776214 0.11636341
v -0.33344911 -0.44805373 0.11636341
v -0.33544642 -0.44805373 0.11924232
v -0.34090245 -0.44805373 0.12770006
v -0.43609068 -0.41451585 0.28250921
v -0.43102439 -0.39733789 0.27575929
v 0.06152850 -0.37799621 0.11987666
v 0.02012112 -0.44272355 0.15741601
v 0.01710082 -0.43979461 0.14868173
v -0.00365159 -0.43755170 0.11907966
v -0.00477203 -0.43615322 0.11636341
v 0.00292487 -0.45810719 0.16336894
v -0.02026324 -0.49441575 0.28250921
v -0.03643649 -0.50655379 0.24194457
v -0.02537829 -0.49789882 0.27575929
v -0.26149771 -0.58244284 0.28250921
v -0.05918617 -0.51381022 0.22502910
v -0.04569224 -0.50900776 0.22502910
v -0.03721592 -0.50584134 0.22502910
v -0.08783033 -0.52299286 0.20812990
v -0.07609014 -0.51821680 0.20812990
v -0.09888854 -0.52502468 0.19706978
v -0.00788975 -0.48721207 0.20699137
v -0.09318893 -0.52032780 0.19134456
v -0.01792494 -0.48982443 0.20061553
v -0.00184916 -0.47243537 0.18451331
v -0.33398497 -0.46494145 0.12104769
v -0.33062369 -0.46494145 0.11636341
v -0.33983072 -0.46494145 0.12950544
v -0.43438568 -0.42092789 0.28250921
v -0.34587133 -0.46494145 0.14050051
v -0.01344320 -0.44106117 0.11636341
v -0.08018216 -0.47562821 0.11636341
v -0.27206879 -0.58436910 0.28250921
v -0.22822568 -0.55943333 0.14433903
v -0.21916478 -0.55816676 0.14824259
v -0.17756254 -0.54779665 0.17433146
v -0.09630668 -0.52563156 0.20812990
v -0.16704021 -0.54199153 0.16362919
v -0.10414972 -0.52291369 0.18579822
v -0.17269109 -0.53937922 0.15235759
v -0.13824990 -0.52286093 0.15162569
v -0.10395485 -0.50602600 0.15143054
v -0.08120516 -0.49198811 0.14590047
v -0.33827185 -0.47356998 0.13184761
v -0.32799310 -0.47114240 0.11636341
v -0.43165769 -0.43116605 0.28250921
v -0.35541939 -0.47404494 0.16510926
v -0.11413620 -0.49246307 0.11636341
v -0.27893752 -0.58531903 0.28250921
v -0.24512963 -0.56341777 0.15741601
v -0.24410662 -0.56043607 0.13893907
v -0.23777374 -0.55787652 0.13223797
v -0.22822568 -0.55650439 0.13588128
v -0.21263702 -0.55265187 0.14176920
v -0.20157883 -0.54178045 0.13085546
v -0.16937851 -0.51906122 0.11636341
v -0.15188997 -0.51077571 0.11636341
v -0.13888319 -0.50557745 0.11823389
v -0.13274516 -0.50855916 0.12950544
v -0.12719170 -0.49887515 0.11636341
v -0.32443691 -0.47755442 0.11636341
v -0.28911887 -0.52647598 0.11636341
v -0.35468868 -0.48987718 0.18343983
v -0.42751694 -0.44232775 0.28250921
v -0.37237207 -0.47417691 0.19876133
v -0.27050991 -0.55795568 0.14894199
v -0.26076700 -0.55935417 0.14219206
v -0.25428796 -0.55824592 0.13150603
v -0.29535435 -0.58027909 0.28250921
v -0.24902680 -0.55824592 0.13150603
v -0.24527576 -0.54935351 0.11636341
v -0.23592258 -0.54718978 0.11636341
v -0.22822568 -0.54494687 0.11636341
v -0.22822568 -0.54953820 0.12360129
v -0.21297802 -0.54378587 0.12456095
v -0.17449353 -0.52143604 0.11636341
v -0.13980877 -0.50499693 0.11636341
v -0.28663443 -0.52919384 0.11636341
v -0.28648830 -0.54014443 0.13370176
v -0.39663189 -0.49850575 0.28250921
v -0.40242892 -0.49130207 0.28250921
v -0.40481594 -0.48808284 0.28250921
v -0.38927601 -0.47401859 0.23257602
v -0.42610419 -0.44565256 0.28250921
v -0.27849909 -0.54916879 0.14131374
v -0.27455323 -0.54389138 0.12360129
v -0.26558975 -0.55566001 0.13767043
v -0.30392809 -0.57552941 0.28250921
v -0.30568182 -0.57436840 0.28250921
v -0.28911887 -0.54265122 0.14497337
v -0.26062087 -0.54740086 0.11636341
v -0.25229069 -0.54850910 0.11636341
v -0.26909718 -0.54357473 0.11636341
v -0.21877507 -0.54143739 0.11636341
v -0.21297802 -0.53903618 0.11636341
v -0.28088612 -0.53476150 0.11636341
v -0.27391995 -0.54048747 0.11636341
v -0.27197136 -0.54204428 0.11636341
v -0.38835043 -0.50668569 0.28250921
v -0.40934639 -0.47961265 0.28250921
v -0.42069687 -0.45815999 0.28250921
v -0.31396331 -0.56800914 0.28250921
v -0.34777120 -0.54141100 0.28250921
v -0.36857230 -0.52497193 0.28250921
v -0.37076446 -0.52317758 0.28250921
v -0.37324890 -0.52096107 0.28250921
v -0.37992281 -0.51499763 0.28250921
f 1 2 5
f 1 5 15
f 1 15 34
f 1 34 27
f 1 27 10
f 1 10 3
f 1 3 11
f 1 11 12
f 1 12 4
f 1 4 14
f 1 14 32
f 1 32 57
f 1 57 74
f 1 74 92
f 1 92 112
f 1 112 129
f 1 129 128
f 1 128 110
f 1 110 109
f 1 109 108
f 1 108 127
f 1 127 135
f 1 135 134
f 1 134 133
f 1 133 132
f 1 132 131
f 1 131 130
f 1 130 117
f 1 117 116
f 1 116 97
f 1 97 77
f 1 77 61
f 1 61 43
f 1 43 40
f 1 40 17
f 1 17 6
f 1 6 2
f 2 6 21
f 2 21 7
f 2 7 8
f 2 8 9
f 2 9 5
f 3 10 28
f 3 28 38
f 3 38 59
f 3 59 60
f 3 60 76
f 3 76 88
f 3 88 105
f 3 105 85
f 3 85 84
f 3 84 104
f 3 104 123
f 3 123 122
f 3 122 101
f 3 101 100
f 3 100 99
f 3 99 120
f 3 120 119
f 3 119 121
f 3 121 126
f 3 126 125
f 3 125 124
f 3 124 106
f 3 106 90
f 3 90 89
f 3 89 73
f 3 73 55
f 3 55 29
f 3 29 11
f 4 12 13
f 4 13 14
f 5 9 16
f 5 16 15
f 6 17 18
f 6 18 19
f 6 19 20
f 6 20 21
f 7 21 8
f 8 21 22
f 8 22 23
f 8 23 9
f 9 23 24
f 9 24 25
f 9 25 26
f 9 26 16
f 10 27 28
f 11 29 30
f 11 30 31
f 11 31 32
f 11 32 33
f 11 33 14
f 11 14 13
f 11 13 12
f 14 33 32
f 15 16 35
f 15 35 36
f 15 36 37
f 15 37 38
f 15 38 28
f 15 28 34
f 16 26 25
f 16 25 39
f 16 39 37
f 16 37 35
f 17 40 19
f 17 19 18
f 19 41 21
f 19 21 20
f 19 40 42
f 19 42 43
f 19 43 41
f 21 41 44
f 21 44 45
f 21 45 46
f 21 46 22
f 22 46 47
f 22 47 48
f 22 48 49
f 22 49 23
f 23 50 24
f 23 49 51
f 23 51 52
f 23 52 50
f 24 50 25
f 25 53 39
f 25 50 52
f 25 52 53
f 27 34 28
f 29 54 30
f 29 55 54
f 30 54 56
f 30 56 31
f 31 56 32
f 32 56 58
f 32 58 57
f 35 37 36
f 37 59 38
f 37 39 53
f 37 53 52
f 37 52 60
f 37 60 59
f 40 43 42
f 41 43 44
f 43 61 62
f 43 62 63
f 43 63 64
f 43 64 65
f 43 65 47
f 43 47 44
f 44 47 45
f 45 47 46
f 47 65 64
f 47 64 63
f 47 63 49
f 47 49 48
f 49 66 51
f 49 63 66
f 51 66 67
f 51 67 52
f 52 67 66
f 52 66 68
f 52 68 69
f 52 69 70
f 52 70 71
f 52 71 60
f 54 72 56
f 54 55 72
f 55 73 72
f 56 72 58
f 57 58 74
f 58 75 74
f 58 72 75
f 60 71 76
f 61 77 62
f 62 78 79
f 62 79 80
f 62 80 81
f 62 81 63
f 62 77 78
f 63 81 82
f 63 82 66
f 66 82 68
f 68 82 69
f 69 82 83
f 69 83 84
f 69 84 85
f 69 85 86
f 69 86 87
f 69 87 70
f 70 87 71
f 71 87 88
f 71 88 76
f 72 73 89
f 72 89 90
f 72 90 91
f 72 91 75
f 74 75 92
f 75 91 93
f 75 93 92
f 77 94 95
f 77 95 96
f 77 96 79
f 77 79 78
f 77 97 94
f 79 96 98
f 79 98 80
f 80 98 99
f 80 99 100
f 80 100 101
f 80 101 102
f 80 102 81
f 81 102 103
f 81 103 82
f 82 103 83
f 83 103 84
f 84 103 104
f 85 105 86
f 86 105 88
f 86 88 87
f 90 106 107
f 90 107 91
f 91 108 109
f 91 109 110
f 91 110 111
f 91 111 93
f 91 107 108
f 92 111 112
f 92 93 111
f 94 113 114
f 94 114 115
f 94 115 96
f 94 96 95
f 94 97 116
f 94 116 117
f 94 117 118
f 94 118 113
f 96 119 120
f 96 120 99
f 96 99 98
f 96 115 121
f 96 121 119
f 101 122 102
f 102 122 103
f 103 123 104
f 103 122 123
f 106 124 107
f 107 124 125
f 107 125 126
f 107 126 114
f 107 114 113
f 107 113 118
f 107 118 108
f 108 118 127
f 110 128 111
f 111 128 129
f 111 129 112
f 114 126 115
f 115 126 121
f 117 130 118
f 118 130 131
f 118 131 132
f 118 132 133
f 118 133 134
f 118 134 135
f 118 135 127

