# https://github.com/mikedh/trimesh
v 0.36284064 -0.40401083 0.44497891
v 0.36284064 -0.21631570 0.44497891
v 0.36597421 -0.40350606 0.44497891
v 0.37379091 -0.40601115 0.45274903
v 0.36284064 -0.40662810 0.45051988
v 0.36284064 -0.21631570 0.62031592
v 0.71097674 -0.21631570 0.44497891
v 0.39579476 -0.39825283 0.44497891
v 0.38942432 -0.40578682 0.47000885
v 0.36352933 -0.40672156 0.45100817
v 0.36284064 -0.40675895 0.45085956
v 0.39748209 -0.39795372 0.44497891
v 0.53260436 -0.39180317 0.48121819
v 0.49878933 -0.39591601 0.47867061
v 0.36284064 -0.31165884 0.55038492
v 0.49878933 -0.21631570 0.65143882
v 0.70381432 -0.21631570 0.47867061
v 0.71187203 -0.22839250 0.44584932
v 0.71197533 -0.22755123 0.44497891
v 0.38942432 -0.40578682 0.47026362
v 0.36352933 -0.40726370 0.46175046
v 0.49878933 -0.39711246 0.49556955
v 0.36284064 -0.40728239 0.46117725
v 0.42248174 -0.39331743 0.44497891
v 0.43115935 -0.39279397 0.44682591
v 0.51049721 -0.38967195 0.46898982
v 0.54661932 -0.39045714 0.48385069
v 0.53260436 -0.39307441 0.49556955
v 0.36284064 -0.32485731 0.54066166
v 0.51569682 -0.21631570 0.65337073
v 0.36284064 -0.37299626 0.50476205
v 0.48811453 -0.33884099 0.55520409
v 0.49878933 -0.34852485 0.54966311
v 0.58329239 -0.30879855 0.59250486
v 0.70271237 -0.21631570 0.48363840
v 0.70484735 -0.22826161 0.47867061
v 0.71204427 -0.22839250 0.44497891
v 0.71011590 -0.27077345 0.47017869
v 0.38043684 -0.40599246 0.47070943
v 0.36284064 -0.40728239 0.46181415
v 0.49878933 -0.39193404 0.50788284
v 0.48188185 -0.39193404 0.50805267
v 0.36284064 -0.40632899 0.47124018
v 0.36352933 -0.40632899 0.47124018
v 0.54420887 -0.38955979 0.50484697
v 0.42940315 -0.39200881 0.44497891
v 0.43115935 -0.39165360 0.44497891
v 0.44806682 -0.39111146 0.44977685
v 0.53260436 -0.38727901 0.47276872
v 0.55113028 -0.38613864 0.47839462
v 0.67571551 -0.33801842 0.45353452
v 0.66049528 -0.35544191 0.48622843
v 0.65092244 -0.36062034 0.49556955
v 0.63401489 -0.36890210 0.51248970
v 0.55605446 -0.38840073 0.49556955
v 0.54758352 -0.39056931 0.49556955
v 0.58329239 -0.29737605 0.60095433
v 0.60019993 -0.29883425 0.60173983
v 0.60019993 -0.25075139 0.63717239
v 0.60019993 -0.21631570 0.66135314
v 0.36284064 -0.38146497 0.49818082
v 0.36352933 -0.38152105 0.49828696
v 0.36352933 -0.39184055 0.48983750
v 0.49878933 -0.35867608 0.54121364
v 0.62430429 -0.33846708 0.57193318
v 0.60019993 -0.30982676 0.59329037
v 0.69317393 -0.21631570 0.52582203
v 0.70105952 -0.22826161 0.49556955
v 0.70247137 -0.24516166 0.49556955
v 0.71321500 -0.24531122 0.44497891
v 0.71021918 -0.28204639 0.47070943
v 0.71459243 -0.27898044 0.44497891
v 0.71414478 -0.26208040 0.44497891
v 0.69293293 -0.24144140 0.53652185
v 0.69592874 -0.26208040 0.52938864
v 0.69789154 -0.29589919 0.52938864
v 0.70164494 -0.29589919 0.51248970
v 0.70209259 -0.31278052 0.51248970
v 0.36284064 -0.40638507 0.47094296
v 0.63401489 -0.35875086 0.54386736
v 0.63401489 -0.35338550 0.55231683
v 0.62661144 -0.33846708 0.57193318
v 0.48188185 -0.38413832 0.51650213
v 0.43690995 -0.38941023 0.50459221
v 0.36284064 -0.40060838 0.47924382
v 0.63401489 -0.36585487 0.52938864
v 0.44093883 -0.38959718 0.44497891
v 0.44806682 -0.38791465 0.44497891
v 0.54947743 -0.37701562 0.46378852
v 0.66782992 -0.33480291 0.44497891
v 0.66913846 -0.33446642 0.44497891
v 0.68108734 -0.33029748 0.44497891
v 0.68473740 -0.32898886 0.44497891
v 0.69530891 -0.32334306 0.44497891
v 0.68577047 -0.33584982 0.46020069
v 0.68081183 -0.34072916 0.46480755
v 0.66679690 -0.35097387 0.47981702
v 0.68577047 -0.34214994 0.48000809
v 0.67082574 -0.35282465 0.49556955
v 0.66235478 -0.35635795 0.49556955
v 0.65092244 -0.36273285 0.51248970
v 0.61710742 -0.29946985 0.60167614
v 0.61710742 -0.29101984 0.60806632
v 0.61710742 -0.25157396 0.63770313
v 0.61710742 -0.24312393 0.64366871
v 0.60887747 -0.21631570 0.66162913
v 0.36284064 -0.39174709 0.48975257
v 0.36284064 -0.39206489 0.48943414
v 0.38043684 -0.39318657 0.49104760
v 0.48188185 -0.37568830 0.52401749
v 0.68852523 -0.21631570 0.54628757
v 0.71028807 -0.29589919 0.47104912
v 0.71459243 -0.27911129 0.44497891
v 0.69355272 -0.26208040 0.53928173
v 0.68463410 -0.21631570 0.56318650
v 0.68067410 -0.21631570 0.58008542
v 0.67750611 -0.21631570 0.59331160
v 0.67251304 -0.21631570 0.61390451
v 0.69455132 -0.29589919 0.54202037
v 0.69437918 -0.30913505 0.54085273
v 0.69668629 -0.31395828 0.53076857
v 0.69534332 -0.32521253 0.52605556
v 0.69672076 -0.33039095 0.51081255
v 0.70498511 -0.31278052 0.49556955
v 0.71021918 -0.30481656 0.47083682
v 0.64617043 -0.35680661 0.54098011
v 0.65147339 -0.35091779 0.54649986
v 0.65092244 -0.34214994 0.55908914
v 0.63294742 -0.34375769 0.56390831
v 0.65092244 -0.33484030 0.56753860
v 0.65092244 -0.32639029 0.57560593
v 0.63401489 -0.30920981 0.59244118
v 0.63401489 -0.24175923 0.64290444
v 0.65147339 -0.35908739 0.52932494
v 0.70439970 -0.31304224 0.44497891
v 0.69827031 -0.32691372 0.46175046
v 0.69207203 -0.33730802 0.47527385
v 0.68473740 -0.34443070 0.49556955
v 0.69327724 -0.33824275 0.48654688
v 0.67106679 -0.35217032 0.51248970
v 0.66263025 -0.35667576 0.51248970
v 0.66080522 -0.35587188 0.52365659
v 0.61710742 -0.21631570 0.66184143
v 0.63401489 -0.21631570 0.66039781
v 0.62602601 -0.21631570 0.66111961
v 0.71059795 -0.30548957 0.46175046
v 0.71207868 -0.29821732 0.44497891
v 0.66765774 -0.21631570 0.63118558
v 0.68966160 -0.31395828 0.54641494
v 0.69293293 -0.32038927 0.53732858
v 0.66245807 -0.21631570 0.64405084
v 0.66166607 -0.22465354 0.64224631
v 0.68924840 -0.33039095 0.53076857
v 0.69179656 -0.33648544 0.51535573
v 0.69899344 -0.32968057 0.49556955
v 0.69320836 -0.33814928 0.50408270
v 0.70746438 -0.31137843 0.47733313
v 0.65746500 -0.35409588 0.53492962
v 0.66108070 -0.33949528 0.55652033
v 0.66214813 -0.32410951 0.57380140
v 0.64710015 -0.23916064 0.64122728
v 0.64300238 -0.22016680 0.65640660
v 0.71049466 -0.30509699 0.44497891
v 0.69796041 -0.33087703 0.48000809
v 0.69327724 -0.33822406 0.49556955
v 0.68559830 -0.34261732 0.51081255
v 0.68001987 -0.34095349 0.52938864
v 0.66700350 -0.34996435 0.52932494
v 0.64458641 -0.21631570 0.65787145
v 0.71066685 -0.30541479 0.44801478
v 0.71169991 -0.30023635 0.44497891
v 0.70670685 -0.31392088 0.46175046
v 0.67671411 -0.30507830 0.57206056
v 0.67995097 -0.31154667 0.56250714
v 0.67340836 -0.31633252 0.56768721
v 0.67764383 -0.32291305 0.55641418
v 0.68077740 -0.32900756 0.54522608
v 0.65378049 -0.21631570 0.65173604
v 0.65839478 -0.23592647 0.63865848
v 0.67705846 -0.33874752 0.53887836
v 0.66717562 -0.34213125 0.54522608
v 0.67234086 -0.33418598 0.55015139
v 0.66724455 -0.32913842 0.56210378
f 1 2 7
f 1 7 19
f 1 19 37
f 1 37 70
f 1 70 73
f 1 73 72
f 1 72 113
f 1 113 147
f 1 147 171
f 1 171 163
f 1 163 135
f 1 135 94
f 1 94 93
f 1 93 92
f 1 92 91
f 1 91 90
f 1 90 88
f 1 88 87
f 1 87 47
f 1 47 46
f 1 46 24
f 1 24 12
f 1 12 8
f 1 8 3
f 1 3 4
f 1 4 5
f 1 5 11
f 1 11 23
f 1 23 40
f 1 40 79
f 1 79 43
f 1 43 85
f 1 85 108
f 1 108 107
f 1 107 61
f 1 61 31
f 1 31 29
f 1 29 15
f 1 15 6
f 1 6 2
f 2 6 16
f 2 16 30
f 2 30 60
f 2 60 106
f 2 106 143
f 2 143 145
f 2 145 144
f 2 144 169
f 2 169 178
f 2 178 151
f 2 151 148
f 2 148 118
f 2 118 117
f 2 117 116
f 2 116 115
f 2 115 111
f 2 111 67
f 2 67 35
f 2 35 17
f 2 17 7
f 3 8 4
f 4 9 10
f 4 10 11
f 4 11 5
f 4 8 12
f 4 12 13
f 4 13 14
f 4 14 9
f 6 15 16
f 7 17 18
f 7 18 19
f 9 20 21
f 9 21 10
f 9 14 22
f 9 22 20
f 10 21 23
f 10 23 11
f 12 24 25
f 12 25 26
f 12 26 13
f 13 26 27
f 13 27 14
f 14 27 28
f 14 28 22
f 15 29 16
f 16 29 31
f 16 31 32
f 16 32 33
f 16 33 34
f 16 34 30
f 17 35 36
f 17 36 18
f 18 37 19
f 18 36 38
f 18 38 37
f 20 39 40
f 20 40 21
f 20 22 39
f 21 40 23
f 22 41 42
f 22 42 43
f 22 43 44
f 22 44 39
f 22 28 45
f 22 45 41
f 24 46 25
f 25 46 47
f 25 47 48
f 25 48 26
f 26 48 49
f 26 49 27
f 27 50 51
f 27 51 52
f 27 52 53
f 27 53 54
f 27 54 55
f 27 55 56
f 27 56 28
f 27 49 50
f 28 56 45
f 30 34 57
f 30 57 58
f 30 58 59
f 30 59 60
f 31 61 62
f 31 62 32
f 32 62 33
f 33 62 63
f 33 63 64
f 33 64 34
f 34 65 66
f 34 66 58
f 34 58 57
f 34 64 65
f 35 67 68
f 35 68 36
f 36 68 69
f 36 69 38
f 37 38 70
f 38 71 72
f 38 72 73
f 38 73 70
f 38 69 74
f 38 74 75
f 38 75 76
f 38 76 77
f 38 77 78
f 38 78 71
f 39 44 79
f 39 79 40
f 41 45 80
f 41 80 81
f 41 81 82
f 41 82 42
f 42 83 84
f 42 84 85
f 42 85 43
f 42 82 65
f 42 65 83
f 43 79 44
f 45 56 86
f 45 86 80
f 47 87 48
f 48 87 49
f 49 87 88
f 49 88 89
f 49 89 90
f 49 90 50
f 50 90 91
f 50 91 51
f 51 91 92
f 51 92 93
f 51 93 94
f 51 94 95
f 51 95 96
f 51 96 97
f 51 97 52
f 52 97 98
f 52 98 99
f 52 99 100
f 52 100 53
f 53 100 101
f 53 101 54
f 54 86 56
f 54 56 55
f 54 101 86
f 58 66 65
f 58 65 102
f 58 102 103
f 58 103 104
f 58 104 59
f 59 104 105
f 59 105 60
f 60 105 106
f 61 107 63
f 61 63 62
f 63 107 108
f 63 108 85
f 63 85 109
f 63 109 84
f 63 84 110
f 63 110 64
f 64 110 83
f 64 83 65
f 65 82 102
f 67 111 74
f 67 74 68
f 68 74 69
f 71 112 72
f 71 78 112
f 72 112 113
f 74 114 75
f 74 111 115
f 74 115 116
f 74 116 117
f 74 117 118
f 74 118 114
f 75 114 76
f 76 119 78
f 76 78 77
f 76 114 118
f 76 118 119
f 78 119 120
f 78 120 121
f 78 121 122
f 78 122 123
f 78 123 124
f 78 124 125
f 78 125 112
f 80 86 126
f 80 126 81
f 81 126 127
f 81 127 128
f 81 128 129
f 81 129 82
f 82 129 130
f 82 130 131
f 82 131 132
f 82 132 133
f 82 133 104
f 82 104 103
f 82 103 102
f 83 110 84
f 84 109 85
f 86 101 134
f 86 134 126
f 88 90 89
f 94 135 136
f 94 136 137
f 94 137 95
f 95 137 96
f 96 137 98
f 96 98 97
f 98 138 99
f 98 137 139
f 98 139 138
f 99 138 140
f 99 140 141
f 99 141 101
f 99 101 100
f 101 141 142
f 101 142 134
f 104 133 105
f 105 143 106
f 105 133 144
f 105 144 145
f 105 145 143
f 112 125 113
f 113 125 146
f 113 146 147
f 118 148 119
f 119 148 120
f 120 149 150
f 120 150 121
f 120 148 151
f 120 151 152
f 120 152 149
f 121 150 122
f 122 150 153
f 122 153 154
f 122 154 123
f 123 155 124
f 123 154 156
f 123 156 155
f 124 157 125
f 124 155 157
f 125 157 146
f 126 134 158
f 126 158 127
f 127 158 159
f 127 159 128
f 128 159 160
f 128 160 130
f 128 130 129
f 130 160 131
f 131 161 133
f 131 133 132
f 131 160 161
f 133 161 162
f 133 162 144
f 134 142 158
f 135 163 136
f 136 164 139
f 136 139 137
f 136 163 164
f 138 139 165
f 138 165 156
f 138 156 140
f 139 164 155
f 139 155 165
f 140 156 166
f 140 166 167
f 140 167 168
f 140 168 142
f 140 142 141
f 142 168 158
f 144 162 169
f 146 170 171
f 146 171 147
f 146 157 155
f 146 155 172
f 146 172 170
f 149 152 173
f 149 173 150
f 150 173 174
f 150 174 175
f 150 175 176
f 150 176 177
f 150 177 153
f 151 178 152
f 152 178 169
f 152 169 179
f 152 179 173
f 153 177 180
f 153 180 154
f 154 180 167
f 154 167 166
f 154 166 156
f 155 156 165
f 155 164 172
f 158 168 167
f 158 167 180
f 158 180 181
f 158 181 159
f 159 181 180
f 159 180 182
f 159 182 183
f 159 183 160
f 160 179 161
f 160 183 176
f 160 176 175
f 160 175 179
f 161 179 162
f 162 179 169
f 163 171 170
f 163 170 164
f 164 170 172
f 173 179 175
f 173 175 174
f 176 183 182
f 176 182 180
f 176 180 177

