# https://github.com/mikedh/trimesh
v 0.36284064 0.04221558 1.22881376
v 0.36284064 0.05248595 1.22876383
v 0.36284064 0.02534690 1.22871389
v 0.40105386 0.04221558 1.19272031
v 0.40989336 0.05914163 1.18428353
v 0.38360953 0.05914163 1.20909464
v 0.45308368 0.09293635 1.14314798
v 0.36284064 0.05914163 1.22861407
v 0.36284064 0.00847822 1.22801500
v 0.40976626 0.04221558 1.18423359
v 0.45303480 0.07606768 1.14314798
v 0.46272501 -0.02531652 1.13021823
v 0.46167874 0.07606768 1.13471119
v 0.46157121 0.09293635 1.13471119
v 0.45929288 0.10986242 1.13246466
v 0.45066850 0.10986242 1.14095139
v 0.44222013 0.10986242 1.14878910
v 0.44463535 0.09293635 1.15093576
v 0.36284064 0.07142019 1.22706648
v 0.36284064 0.00291270 1.22756573
v 0.36675191 -0.17747887 1.20969371
v 0.37616833 -0.17747887 1.20125692
v 0.46272501 -0.04224257 1.12921978
v 0.46272501 0.07606768 1.13366281
v 0.46272501 0.09293635 1.13356299
v 0.46272501 0.11037880 1.12842102
v 0.45701455 0.11881313 1.13021823
v 0.43988314 0.11852625 1.14669243
v 0.40720437 0.10332149 1.18148791
v 0.42503979 0.10481328 1.16536316
v 0.40857330 0.09293635 1.18293563
v 0.39101164 0.09012491 1.19911031
v 0.36284064 0.07606768 1.22636759
v 0.36284064 -0.17747887 1.21288871
v 0.36554918 -0.19440491 1.20879513
v 0.37531762 -0.19440491 1.20035834
v 0.38376600 -0.19440491 1.19212124
v 0.41794081 -0.19440491 1.15862372
v 0.38461669 -0.17747887 1.19296994
v 0.46272501 -0.05916861 1.12782195
v 0.46272501 0.11869840 1.12118237
v 0.46083779 0.12110819 1.12113244
v 0.46272501 0.12265735 1.11589065
v 0.46272501 0.13350150 1.09427454
v 0.36284064 0.15943567 1.15542872
v 0.40256947 0.13321462 1.15987175
v 0.40987381 0.12196884 1.16671106
v 0.38887999 0.10142808 1.19721328
v 0.36284064 0.09023966 1.21982784
v 0.36284064 -0.19440491 1.21099167
v 0.37358687 -0.21133097 1.19861106
v 0.38204502 -0.21133097 1.19102297
v 0.39014137 -0.22280627 1.18143798
v 0.39120719 -0.21133097 1.18253625
v 0.39966535 -0.21133097 1.17434909
v 0.40833863 -0.21133097 1.16591230
v 0.44178007 -0.21133097 1.13181571
v 0.42609582 -0.19440491 1.15018693
v 0.46272501 -0.14356938 1.11858645
v 0.36284064 0.18341903 1.10460831
v 0.46272501 0.25542648 0.81191684
v 0.36284064 0.19139435 1.08668640
v 0.36284064 0.19024683 1.08928233
v 0.36284064 0.15742748 1.15872354
v 0.39129520 0.13659985 1.16486391
v 0.39613541 0.12604257 1.17140366
v 0.36284064 0.10928864 1.20500106
v 0.36284064 0.10917388 1.20510093
v 0.36284064 0.10848537 1.20565006
v 0.36284064 0.09230521 1.21852988
v 0.36284064 0.09104293 1.21942846
v 0.36284064 0.14250961 1.17594656
v 0.36284064 -0.21075722 1.20739734
v 0.37231571 -0.22074071 1.19751279
v 0.37016451 -0.23198650 1.19556587
v 0.38764795 -0.23405206 1.17914156
v 0.40501403 -0.23474057 1.16276724
v 0.40693057 -0.22343739 1.16461434
v 0.44062627 -0.22228987 1.13061761
v 0.45023822 -0.21133097 1.12253022
v 0.46272501 -0.18797876 1.11264577
v 0.46272501 -0.16061019 1.11643979
v 0.46272501 -0.15842988 1.11673935
v 0.46272501 0.29438508 0.71881269
v 0.39162766 0.27189351 0.82933955
v 0.36284064 0.28727042 0.79958616
v 0.37048718 0.15105870 1.16151916
v 0.36284064 0.14813250 1.17070477
v 0.36284064 0.14520630 1.17350039
v 0.36284064 -0.21655223 1.20584970
v 0.36412156 -0.22710950 1.20205568
v 0.36284064 -0.23737988 1.19861106
v 0.37638344 -0.24122411 1.18428353
v 0.42186189 -0.23387993 1.14544435
v 0.40998136 -0.24512571 1.15073607
v 0.43810351 -0.23353564 1.12752244
v 0.45676029 -0.22022433 1.11294528
v 0.45771859 -0.21133097 1.11409349
v 0.46272501 -0.20410155 1.10930096
v 0.44804793 0.29731128 0.71881269
v 0.46272501 -0.19165084 0.71881269
v 0.36284064 0.29151627 0.78221338
v 0.36284064 -0.22722426 1.20280451
v 0.36284064 -0.23032259 1.20160637
v 0.36284064 -0.24432243 1.19321952
v 0.40657856 -0.25413381 1.14714169
v 0.44207344 -0.23881430 1.11629003
v 0.46272501 -0.22097021 1.10126356
v 0.46272501 -0.21362602 1.10645541
v 0.45969377 -0.22406853 1.10420898
v 0.36284064 0.30293417 0.71881269
v 0.46272501 -0.23686350 0.91830019
v 0.39211659 -0.25447805 0.88994461
v 0.36284064 -0.21712599 0.73304040
v 0.36339798 -0.21299488 0.71881269
v 0.36284064 -0.25011744 1.18757835
v 0.36481582 -0.24633060 1.18972501
v 0.36284064 -0.25528133 1.18243638
v 0.36284064 -0.25895344 1.17639588
v 0.36284064 -0.26090423 1.17275156
v 0.36284064 -0.26176487 1.17110415
v 0.36284064 -0.26847792 1.15717600
v 0.36284064 -0.26945331 1.15467990
v 0.36284064 -0.27151887 1.14923842
v 0.37062409 -0.26991232 1.14444589
v 0.39733814 -0.26055998 1.13800601
v 0.40886666 -0.25545346 1.13800601
v 0.43770257 -0.25269939 1.09132912
v 0.44542737 -0.24179785 1.10420898
v 0.37074142 -0.25246989 1.17899180
v 0.45617361 -0.23634711 1.09482368
v 0.45388551 -0.23256025 1.10420898
v 0.46272501 -0.22659311 1.09452412
v 0.36284064 -0.21310964 0.71881269
v 0.46272501 -0.23847003 0.92558877
v 0.46272501 -0.24409292 0.95209724
v 0.46272501 -0.24747814 0.96902073
v 0.39505982 -0.25579771 0.90137670
v 0.38043162 -0.25987144 0.90137670
v 0.37979604 -0.25556822 0.88435337
v 0.36351531 -0.25860918 0.88445322
v 0.36284064 -0.25872392 0.88445322
v 0.36284064 -0.27341228 1.14244904
v 0.36440514 -0.27392869 1.13850521
v 0.37408556 -0.27146147 1.13316361
v 0.41408821 -0.26870744 1.07180973
v 0.43114140 -0.26101896 1.07041190
v 0.46272501 -0.24661749 1.03656493
v 0.46272501 -0.24254376 1.05268965
v 0.46272501 -0.24024870 1.06172551
v 0.44802837 -0.24535521 1.08743523
v 0.43988314 -0.25378955 1.08009671
v 0.46272501 -0.23514218 1.07785023
v 0.46272501 -0.23037995 1.08933226
v 0.45809992 -0.23806839 1.08354134
v 0.46272501 -0.25034697 0.98794109
v 0.45662344 -0.25361741 0.99393171
v 0.45326951 -0.25287151 0.98264939
v 0.38043162 -0.26262551 0.91830019
v 0.36351531 -0.26641235 0.91830019
v 0.36351531 -0.26319928 0.90137670
v 0.36284064 -0.26314190 0.90067779
v 0.36284064 -0.27450244 1.13845528
v 0.36284064 -0.27478933 1.13700756
v 0.36351531 -0.27765816 1.12113244
v 0.36284064 -0.28069910 1.10420898
v 0.38043162 -0.27737128 1.08728547
v 0.40835818 -0.27111723 1.06706715
v 0.41872307 -0.26939595 1.05348842
v 0.43114140 -0.26331403 1.05348842
v 0.46272501 -0.24988795 1.01919213
v 0.44100762 -0.25476494 1.07041190
v 0.46272501 -0.24719124 1.03351969
v 0.46272501 -0.23847003 1.06751641
v 0.46272501 -0.25092072 1.00276787
v 0.45679944 -0.25373218 1.00276787
v 0.40882754 -0.27146147 1.03656493
v 0.39733814 -0.27461720 1.03656493
v 0.39796394 -0.27237951 1.02034034
v 0.38043162 -0.27651064 1.01969136
v 0.36284064 -0.28012535 1.01974127
v 0.36284064 -0.26652712 0.91825028
v 0.36284064 -0.26641235 0.91760127
v 0.36284064 -0.26331403 0.90137670
v 0.36284064 -0.27788765 1.12108250
v 0.36284064 -0.28242039 1.08728547
v 0.36351531 -0.28224826 1.08728547
v 0.41027472 -0.27174837 1.05348842
v 0.45677006 -0.25367479 1.01250262
v 0.46272501 -0.25000270 1.01809386
v 0.46272501 -0.25092072 1.00566334
v 0.39733814 -0.27530572 1.05348842
v 0.38043162 -0.27926468 1.05348842
v 0.36284064 -0.28322367 1.05348842
v 0.38043162 -0.27834667 1.03656493
v 0.36284064 -0.28213351 1.03601580
v 0.36284064 -0.28247777 1.08638689
v 0.36284064 -0.28310890 1.07041190
v 0.36284064 -0.28219088 1.03656493
f 1 2 8
f 1 8 19
f 1 19 33
f 1 33 49
f 1 49 71
f 1 71 70
f 1 70 69
f 1 69 68
f 1 68 67
f 1 67 72
f 1 72 89
f 1 89 88
f 1 88 64
f 1 64 45
f 1 45 60
f 1 60 63
f 1 63 62
f 1 62 86
f 1 86 102
f 1 102 111
f 1 111 134
f 1 134 114
f 1 114 142
f 1 142 162
f 1 162 184
f 1 184 183
f 1 183 182
f 1 182 181
f 1 181 196
f 1 196 199
f 1 199 194
f 1 194 198
f 1 198 197
f 1 197 186
f 1 186 166
f 1 166 185
f 1 185 164
f 1 164 163
f 1 163 143
f 1 143 124
f 1 124 123
f 1 123 122
f 1 122 121
f 1 121 120
f 1 120 119
f 1 119 118
f 1 118 116
f 1 116 105
f 1 105 92
f 1 92 104
f 1 104 103
f 1 103 90
f 1 90 73
f 1 73 50
f 1 50 34
f 1 34 20
f 1 20 9
f 1 9 3
f 1 3 4
f 1 4 2
f 2 4 5
f 2 5 6
f 2 6 7
f 2 7 8
f 3 9 4
f 4 10 11
f 4 11 7
f 4 7 5
f 4 9 12
f 4 12 10
f 5 7 6
f 7 11 13
f 7 13 14
f 7 14 15
f 7 15 16
f 7 16 17
f 7 17 18
f 7 18 8
f 8 18 19
f 9 20 21
f 9 21 22
f 9 22 23
f 9 23 12
f 10 13 11
f 10 12 13
f 12 23 40
f 12 40 59
f 12 59 83
f 12 83 82
f 12 82 81
f 12 81 99
f 12 99 109
f 12 109 108
f 12 108 133
f 12 133 154
f 12 154 153
f 12 153 174
f 12 174 150
f 12 150 149
f 12 149 148
f 12 148 173
f 12 173 171
f 12 171 190
f 12 190 191
f 12 191 175
f 12 175 156
f 12 156 137
f 12 137 136
f 12 136 135
f 12 135 112
f 12 112 101
f 12 101 84
f 12 84 61
f 12 61 44
f 12 44 43
f 12 43 41
f 12 41 26
f 12 26 25
f 12 25 24
f 12 24 13
f 13 24 25
f 13 25 14
f 14 25 15
f 15 26 27
f 15 27 16
f 15 25 26
f 16 27 28
f 16 28 17
f 17 28 29
f 17 29 30
f 17 30 18
f 18 30 31
f 18 31 32
f 18 32 33
f 18 33 19
f 20 34 21
f 21 34 35
f 21 35 36
f 21 36 22
f 22 36 37
f 22 37 38
f 22 38 39
f 22 39 40
f 22 40 23
f 26 41 27
f 27 41 42
f 27 42 43
f 27 43 44
f 27 44 45
f 27 45 46
f 27 46 28
f 28 47 48
f 28 48 29
f 28 46 47
f 29 48 32
f 29 32 31
f 29 31 30
f 32 48 33
f 33 48 49
f 34 50 35
f 35 50 51
f 35 51 36
f 36 51 52
f 36 52 53
f 36 53 54
f 36 54 55
f 36 55 56
f 36 56 37
f 37 56 38
f 38 56 57
f 38 57 58
f 38 58 59
f 38 59 40
f 38 40 39
f 41 43 42
f 44 60 45
f 44 61 62
f 44 62 63
f 44 63 60
f 45 64 46
f 46 64 65
f 46 65 47
f 47 66 48
f 47 65 66
f 48 67 68
f 48 68 69
f 48 69 70
f 48 70 71
f 48 71 49
f 48 66 72
f 48 72 67
f 50 73 51
f 51 73 74
f 51 74 53
f 51 53 52
f 53 75 76
f 53 76 77
f 53 77 78
f 53 78 56
f 53 56 55
f 53 55 54
f 53 74 75
f 56 78 79
f 56 79 57
f 57 80 81
f 57 81 82
f 57 82 83
f 57 83 58
f 57 79 80
f 58 83 59
f 61 84 62
f 62 84 85
f 62 85 86
f 64 87 65
f 64 88 87
f 65 87 88
f 65 88 89
f 65 89 72
f 65 72 66
f 73 90 91
f 73 91 74
f 74 91 75
f 75 92 76
f 75 91 92
f 76 92 93
f 76 93 77
f 77 94 79
f 77 79 78
f 77 93 95
f 77 95 94
f 79 94 96
f 79 96 97
f 79 97 80
f 80 97 98
f 80 98 81
f 81 98 99
f 84 100 85
f 84 101 115
f 84 115 134
f 84 134 111
f 84 111 100
f 85 100 86
f 86 100 102
f 90 103 91
f 91 103 104
f 91 104 92
f 92 105 93
f 93 105 106
f 93 106 95
f 94 95 96
f 95 106 96
f 96 106 107
f 96 107 97
f 97 108 109
f 97 109 99
f 97 99 98
f 97 107 110
f 97 110 108
f 100 111 102
f 101 112 113
f 101 113 114
f 101 114 115
f 105 116 117
f 105 117 106
f 106 118 119
f 106 119 120
f 106 120 121
f 106 121 122
f 106 122 123
f 106 123 124
f 106 124 125
f 106 125 126
f 106 126 127
f 106 127 128
f 106 128 129
f 106 129 107
f 106 117 130
f 106 130 118
f 107 129 131
f 107 131 132
f 107 132 110
f 108 110 133
f 110 132 131
f 110 131 133
f 112 135 113
f 113 135 136
f 113 136 137
f 113 137 138
f 113 138 139
f 113 139 140
f 113 140 114
f 114 134 115
f 114 140 141
f 114 141 142
f 116 130 117
f 116 118 130
f 124 143 144
f 124 144 125
f 125 144 145
f 125 145 126
f 126 145 146
f 126 146 127
f 127 146 147
f 127 147 128
f 128 148 149
f 128 149 150
f 128 150 151
f 128 151 131
f 128 131 129
f 128 147 152
f 128 152 148
f 131 153 154
f 131 154 133
f 131 151 155
f 131 155 153
f 137 156 157
f 137 157 158
f 137 158 138
f 138 158 139
f 139 159 160
f 139 160 161
f 139 161 140
f 139 158 159
f 140 161 162
f 140 162 141
f 141 162 142
f 143 163 144
f 144 163 164
f 144 164 165
f 144 165 145
f 145 165 146
f 146 165 166
f 146 166 167
f 146 167 168
f 146 168 169
f 146 169 147
f 147 169 170
f 147 170 171
f 147 171 172
f 147 172 152
f 148 152 173
f 150 174 155
f 150 155 151
f 152 172 171
f 152 171 173
f 153 155 174
f 156 175 157
f 157 176 169
f 157 169 177
f 157 177 178
f 157 178 179
f 157 179 159
f 157 159 158
f 157 175 176
f 159 179 180
f 159 180 160
f 160 180 181
f 160 181 182
f 160 182 183
f 160 183 161
f 161 183 184
f 161 184 162
f 164 185 165
f 165 185 166
f 166 186 187
f 166 187 167
f 167 187 169
f 167 169 168
f 169 187 188
f 169 188 177
f 169 176 189
f 169 189 170
f 170 189 190
f 170 190 171
f 175 191 176
f 176 191 189
f 177 188 192
f 177 192 178
f 178 192 193
f 178 193 194
f 178 194 195
f 178 195 180
f 178 180 179
f 180 195 196
f 180 196 181
f 186 197 187
f 187 197 192
f 187 192 188
f 189 191 190
f 192 197 198
f 192 198 193
f 193 198 194
f 194 199 195
f 195 199 196

