# https://github.com/mikedh/trimesh
v -0.18774998 -0.31577565 0.97346897
v -0.18901348 -0.31577565 0.97466817
v -0.18774998 -0.32970152 0.97071790
v -0.18774998 -0.31577565 0.28252544
v -0.19750423 -0.31577565 0.98228654
v -0.19088347 -0.32970152 0.97346897
v -0.18774998 -0.34630815 0.96542738
v -0.18774998 -0.53333283 0.28252544
v -0.41093522 -0.31577565 0.28252544
v -0.20771334 -0.31577565 0.99061031
v -0.19932366 -0.32970152 0.98024086
v -0.18774998 -0.35685700 0.96154765
v -0.21953972 -0.57511047 0.31751351
v -0.22383564 -0.56128905 0.28252544
v -0.18774998 -0.57531939 0.37105365
v -0.20195176 -0.62625333 0.45217517
v -0.43479015 -0.39734651 0.28252544
v -0.55633915 -0.31577565 0.36985450
v -0.21003817 -0.31577565 0.99244436
v -0.21600190 -0.31577565 0.99710002
v -0.20169906 -0.33944964 0.97826572
v -0.18774998 -0.42895826 0.92931065
v -0.22858641 -0.58621635 0.32626049
v -0.22868749 -0.56449200 0.28252544
v -0.23444906 -0.59324895 0.33176263
v -0.23854282 -0.59042895 0.32047616
v -0.18774998 -0.61800221 0.46663596
v -0.18774998 -0.62339849 0.47926271
v -0.18774998 -0.62385109 0.48046188
v -0.18774998 -0.62997845 0.49675673
v -0.18774998 -0.63151032 0.50084807
v -0.18774998 -0.63704589 0.51855372
v -0.21296951 -0.64745549 0.49562808
v -0.24991434 -0.64477471 0.41507093
v -0.43610418 -0.41454499 0.28252544
v -0.67697844 -0.31577565 0.50070699
v -0.43443637 -0.42095088 0.28252544
v -0.43170722 -0.43115163 0.28252544
v -0.55831027 -0.35584739 0.38523228
v -0.55987696 -0.34662147 0.38382150
v -0.21787190 -0.32305190 0.99561870
v -0.22828317 -0.31577565 1.00154406
v -0.18774998 -0.43689605 0.92493716
v -0.24546678 -0.57434457 0.28252544
v -0.24981328 -0.59411932 0.31405699
v -0.18774998 -0.64554067 0.54825125
v -0.22363347 -0.65776063 0.51248725
v -0.22823264 -0.65601986 0.49548700
v -0.26209452 -0.64484435 0.41457712
v -0.27902546 -0.59962005 0.30961296
v -0.26709796 -0.59338818 0.29853812
v -0.26169019 -0.59680005 0.30890756
v -0.23384258 -0.66040655 0.50105970
v -0.25016705 -0.66152059 0.47869838
v -0.26209452 -0.66625543 0.47869838
v -0.27902546 -0.66712579 0.47869838
v -0.65362891 -0.36354145 0.49315916
v -0.66115941 -0.36354145 0.50162402
v -0.68445840 -0.31577565 0.50924239
v -0.42756290 -0.44232715 0.28252544
v -0.22828317 -0.32468821 0.99710002
v -0.24516354 -0.31577565 1.00316652
v -0.18774998 -0.45921225 0.91167555
v -0.26153858 -0.58245640 0.28252544
v -0.18774998 -0.64634140 0.55163719
v -0.23212420 -0.66106800 0.51248725
v -0.18774998 -0.64822140 0.56990716
v -0.28903241 -0.59269191 0.29973732
v -0.27902546 -0.59370155 0.29811485
v -0.27902546 -0.58531117 0.28252544
v -0.27215200 -0.58437121 0.28252544
v -0.26209452 -0.67032874 0.49562808
v -0.24440545 -0.66340060 0.49548700
v -0.27902546 -0.67140798 0.49562808
v -0.31283682 -0.66855320 0.51248725
v -0.33037421 -0.66378356 0.51185239
v -0.29484453 -0.66246059 0.47905107
v -0.65949159 -0.37217548 0.50388132
v -0.42614777 -0.44563452 0.28252544
v -0.42073998 -0.45816786 0.28252544
v -0.69962042 -0.31577565 0.52920533
v -0.68658113 -0.31577565 0.51171130
v -0.24516354 -0.32524526 0.99752329
v -0.26209452 -0.31577565 1.00196732
v -0.26209452 -0.32395708 0.99639463
v -0.27326388 -0.32235561 0.99519543
v -0.18774998 -0.56560605 0.83224703
v -0.21135220 -0.65455768 0.56320582
v -0.18774998 -0.62378146 0.75295958
v -0.29267130 -0.59509414 0.30961296
v -0.30500309 -0.57524974 0.28323083
v -0.30394176 -0.57552825 0.28252544
v -0.29540046 -0.58026308 0.28252544
v -0.34118980 -0.66120727 0.51707237
v -0.23268014 -0.66009319 0.55756258
v -0.26209452 -0.66712579 0.54634665
v -0.27902546 -0.66855320 0.54634665
v -0.29590585 -0.66942356 0.54634665
v -0.31283682 -0.66977170 0.54634665
v -0.31283682 -0.67053760 0.52941695
v -0.32971720 -0.66858802 0.52941695
v -0.34674924 -0.66280874 0.52984019
v -0.64336926 -0.38982655 0.50275266
v -0.66100778 -0.37356806 0.51248725
v -0.67662471 -0.35567329 0.52038777
v -0.40936846 -0.47964852 0.28252544
v -0.40487038 -0.48810849 0.28252544
v -0.40249500 -0.49134626 0.28252544
v -0.39668289 -0.49848327 0.28252544
v -0.40451661 -0.50589883 0.30284106
v -0.69254483 -0.33624667 0.54070342
v -0.70406799 -0.31577565 0.54754584
v -0.27755978 -0.31577565 0.99879298
v -0.28453434 -0.31984898 0.99279708
v -0.18774998 -0.57277787 0.82611002
v -0.18774998 -0.61932518 0.76572740
v -0.33133448 -0.66343542 0.56489879
v -0.31283682 -0.66660356 0.56320582
v -0.35246025 -0.65769101 0.52447912
v -0.40820604 -0.55954831 0.39997527
v -0.30576118 -0.57434457 0.28252544
v -0.37368712 -0.60989038 0.45104653
v -0.40820604 -0.59342304 0.46712974
v -0.35640239 -0.66019764 0.53576559
v -0.32971720 -0.66858802 0.54634665
v -0.34664817 -0.66465392 0.54634665
v -0.59207102 -0.45677526 0.53724694
v -0.40825658 -0.50965879 0.31412754
v -0.42549076 -0.54416020 0.39778850
v -0.67045880 -0.36542143 0.52941695
v -0.67773659 -0.35696142 0.52941695
v -0.69380833 -0.33899705 0.55198989
v -0.38839430 -0.50666474 0.28252544
v -0.37995412 -0.51498548 0.28252544
v -0.37085688 -0.52316690 0.28252544
v -0.70270341 -0.31577565 0.56306473
v -0.69380833 -0.33899705 0.55608123
v -0.28089545 -0.31577565 0.99745274
v -0.29327778 -0.31577565 0.98905844
v -0.36317477 -0.31577565 0.93107421
v -0.31344330 -0.44873306 0.85129295
v -0.30823765 -0.45966485 0.84564971
v -0.30035340 -0.45395526 0.85693621
v -0.27189930 -0.50833583 0.82639217
v -0.18774998 -0.57636379 0.82215975
v -0.18774998 -0.61215335 0.77821306
v -0.33805634 -0.65936210 0.57167067
v -0.34664817 -0.66172951 0.55960826
v -0.42013350 -0.55592759 0.41105011
v -0.40734687 -0.54210611 0.36668016
v -0.42296376 -0.59196082 0.48666945
v -0.31399924 -0.56800829 0.28252544
v -0.39784530 -0.60532966 0.47721702
v -0.41401815 -0.59540746 0.48010919
v -0.42417672 -0.61016889 0.53470748
v -0.41507949 -0.61486889 0.52920533
v -0.35675619 -0.66040655 0.54634665
v -0.35599807 -0.65995395 0.55558745
v -0.59207102 -0.45677526 0.53844612
v -0.67824199 -0.35723998 0.54634665
v -0.36863312 -0.52497727 0.28252544
v -0.69648695 -0.32945779 0.56235933
v -0.69769991 -0.31577565 0.57780769
v -0.58863431 -0.45332857 0.54973259
v -0.68390247 -0.34561185 0.56186555
v -0.69042217 -0.33492372 0.56736770
v -0.69173619 -0.31957043 0.58634308
v -0.69481914 -0.32364375 0.57505661
v -0.47881060 -0.31577565 0.83104785
v -0.48689704 -0.31852598 0.82166598
v -0.31950809 -0.45479080 0.84014757
v -0.28948726 -0.50896252 0.81009734
v -0.30192013 -0.57312607 0.72206287
v -0.18956942 -0.61138744 0.77757820
v -0.34159413 -0.64477471 0.59156307
v -0.34781059 -0.54140984 0.28252544
v -0.42417672 -0.61016889 0.54183206
v -0.35286459 -0.64066661 0.58599038
v -0.38778782 -0.62465181 0.57040094
v -0.39804747 -0.62096144 0.56412284
v -0.39284183 -0.62823772 0.55911447
v -0.42195297 -0.60797557 0.55311853
v -0.41548381 -0.61539113 0.54698152
v -0.47699117 -0.56108014 0.54634665
v -0.47537388 -0.55961796 0.55699826
v -0.69719450 -0.31577565 0.57921850
v -0.52616668 -0.50934546 0.55756258
v -0.57736385 -0.45875967 0.55770366
v -0.68754133 -0.31577565 0.59544279
v -0.69552668 -0.31577565 0.58267498
v -0.67571499 -0.32068451 0.60489521
v -0.48426897 -0.31577565 0.82632164
v -0.49225426 -0.31577565 0.81912651
v -0.49260804 -0.45952563 0.65885865
v -0.33547880 -0.58941930 0.67035674
v -0.30818711 -0.57761710 0.71077641
v -0.40598229 -0.60881111 0.57188229
v -0.42407565 -0.59304005 0.57329310
v -0.40962115 -0.61204889 0.56320582
v -0.41806136 -0.60487707 0.56320582
v -0.45349001 -0.57194234 0.56750878
v -0.45743213 -0.57559789 0.55622232
v -0.48755406 -0.53869429 0.56856689
v -0.68385192 -0.31577565 0.59995739
v -0.49649966 -0.31577565 0.81440030
v -0.44227011 -0.57692084 0.57413959
f 1 2 3
f 1 3 7
f 1 7 12
f 1 12 22
f 1 22 43
f 1 43 63
f 1 63 87
f 1 87 115
f 1 115 145
f 1 145 146
f 1 146 116
f 1 116 89
f 1 89 67
f 1 67 65
f 1 65 46
f 1 46 32
f 1 32 31
f 1 31 30
f 1 30 29
f 1 29 28
f 1 28 27
f 1 27 15
f 1 15 8
f 1 8 4
f 1 4 9
f 1 9 18
f 1 18 36
f 1 36 59
f 1 59 82
f 1 82 81
f 1 81 112
f 1 112 136
f 1 136 163
f 1 163 186
f 1 186 190
f 1 190 189
f 1 189 204
f 1 204 205
f 1 205 193
f 1 193 192
f 1 192 169
f 1 169 140
f 1 140 139
f 1 139 138
f 1 138 113
f 1 113 84
f 1 84 62
f 1 62 42
f 1 42 20
f 1 20 19
f 1 19 10
f 1 10 5
f 1 5 2
f 2 5 3
f 3 5 6
f 3 6 7
f 4 8 14
f 4 14 24
f 4 24 44
f 4 44 64
f 4 64 71
f 4 71 70
f 4 70 93
f 4 93 92
f 4 92 121
f 4 121 152
f 4 152 176
f 4 176 161
f 4 161 135
f 4 135 134
f 4 134 133
f 4 133 109
f 4 109 108
f 4 108 107
f 4 107 106
f 4 106 80
f 4 80 79
f 4 79 60
f 4 60 38
f 4 38 37
f 4 37 35
f 4 35 17
f 4 17 9
f 5 10 6
f 6 10 11
f 6 11 7
f 7 11 12
f 8 13 14
f 8 15 16
f 8 16 13
f 9 17 18
f 10 19 11
f 11 19 20
f 11 20 21
f 11 21 12
f 12 21 22
f 13 23 14
f 13 16 23
f 14 23 25
f 14 25 26
f 14 26 24
f 15 27 16
f 16 27 28
f 16 28 29
f 16 29 30
f 16 30 31
f 16 31 32
f 16 32 33
f 16 33 34
f 16 34 23
f 17 35 18
f 18 35 37
f 18 37 38
f 18 38 39
f 18 39 40
f 18 40 36
f 20 41 21
f 20 42 41
f 21 41 22
f 22 41 43
f 23 34 25
f 24 26 45
f 24 45 44
f 25 34 26
f 26 34 45
f 32 46 33
f 33 46 47
f 33 47 48
f 33 48 34
f 34 49 50
f 34 50 51
f 34 51 52
f 34 52 45
f 34 48 53
f 34 53 54
f 34 54 55
f 34 55 56
f 34 56 49
f 36 57 58
f 36 58 59
f 36 40 39
f 36 39 57
f 38 60 39
f 39 60 57
f 41 42 61
f 41 61 43
f 42 62 61
f 43 61 63
f 44 45 64
f 45 52 64
f 46 65 47
f 47 66 53
f 47 53 48
f 47 65 67
f 47 67 66
f 49 56 50
f 50 68 69
f 50 69 51
f 50 56 68
f 51 69 70
f 51 70 71
f 51 71 64
f 51 64 52
f 53 66 72
f 53 72 73
f 53 73 54
f 54 73 55
f 55 73 72
f 55 72 74
f 55 74 56
f 56 74 75
f 56 75 76
f 56 76 77
f 56 77 68
f 57 78 58
f 57 60 79
f 57 79 80
f 57 80 78
f 58 78 81
f 58 81 82
f 58 82 59
f 61 62 83
f 61 83 63
f 62 84 83
f 63 83 85
f 63 85 86
f 63 86 87
f 66 67 72
f 67 88 72
f 67 89 88
f 68 90 91
f 68 91 92
f 68 92 93
f 68 93 70
f 68 70 69
f 68 77 76
f 68 76 94
f 68 94 90
f 72 88 95
f 72 95 96
f 72 96 97
f 72 97 74
f 74 97 98
f 74 98 99
f 74 99 100
f 74 100 101
f 74 101 75
f 75 101 76
f 76 101 102
f 76 102 94
f 78 103 104
f 78 104 105
f 78 105 81
f 78 80 106
f 78 106 107
f 78 107 108
f 78 108 109
f 78 109 110
f 78 110 103
f 81 105 111
f 81 111 112
f 83 84 85
f 84 113 86
f 84 86 85
f 86 113 114
f 86 114 87
f 87 114 115
f 88 89 95
f 89 116 117
f 89 117 118
f 89 118 98
f 89 98 97
f 89 97 96
f 89 96 95
f 90 94 119
f 90 119 91
f 91 120 121
f 91 121 92
f 91 119 122
f 91 122 123
f 91 123 120
f 94 102 124
f 94 124 119
f 98 118 99
f 99 125 100
f 99 118 125
f 100 125 101
f 101 125 126
f 101 126 124
f 101 124 102
f 103 127 104
f 103 110 128
f 103 128 129
f 103 129 127
f 104 127 130
f 104 130 131
f 104 131 105
f 105 131 132
f 105 132 111
f 109 133 110
f 110 133 134
f 110 134 135
f 110 135 128
f 111 132 112
f 112 132 137
f 112 137 136
f 113 138 114
f 114 138 139
f 114 139 140
f 114 140 141
f 114 141 142
f 114 142 143
f 114 143 115
f 115 144 145
f 115 143 144
f 116 146 147
f 116 147 117
f 117 147 148
f 117 148 125
f 117 125 118
f 119 124 122
f 120 149 150
f 120 150 121
f 120 123 151
f 120 151 149
f 121 150 152
f 122 124 153
f 122 153 123
f 123 153 154
f 123 154 151
f 124 155 156
f 124 156 151
f 124 151 154
f 124 154 153
f 124 126 157
f 124 157 155
f 125 148 126
f 126 148 158
f 126 158 157
f 127 155 177
f 127 177 159
f 127 159 160
f 127 160 130
f 127 129 151
f 127 151 155
f 128 135 150
f 128 150 129
f 129 150 149
f 129 149 151
f 130 160 131
f 131 160 132
f 132 160 137
f 135 161 150
f 136 162 163
f 136 137 162
f 137 160 159
f 137 159 164
f 137 164 165
f 137 165 166
f 137 166 167
f 137 167 168
f 137 168 162
f 140 169 170
f 140 170 141
f 141 170 142
f 142 171 172
f 142 172 144
f 142 144 143
f 142 170 171
f 144 172 145
f 145 172 173
f 145 173 174
f 145 174 146
f 146 174 175
f 146 175 158
f 146 158 147
f 147 158 148
f 150 161 176
f 150 176 152
f 151 156 155
f 155 157 177
f 157 158 177
f 158 175 178
f 158 178 179
f 158 179 180
f 158 180 181
f 158 181 182
f 158 182 183
f 158 183 177
f 159 177 184
f 159 184 185
f 159 185 164
f 162 168 163
f 163 168 186
f 164 185 187
f 164 187 188
f 164 188 167
f 164 167 166
f 164 166 165
f 167 189 190
f 167 190 186
f 167 186 168
f 167 188 191
f 167 191 189
f 169 192 170
f 170 192 193
f 170 193 194
f 170 194 171
f 171 194 172
f 172 194 195
f 172 195 196
f 172 196 173
f 173 196 174
f 174 196 195
f 174 195 175
f 175 195 178
f 177 183 182
f 177 182 185
f 177 185 184
f 178 195 179
f 179 195 197
f 179 197 180
f 180 197 198
f 180 198 199
f 180 199 181
f 181 199 182
f 182 199 200
f 182 200 201
f 182 201 202
f 182 202 185
f 185 202 201
f 185 201 203
f 185 203 187
f 187 203 188
f 188 203 194
f 188 194 191
f 189 191 204
f 191 194 205
f 191 205 204
f 193 205 194
f 194 203 201
f 194 201 206
f 194 206 195
f 195 206 198
f 195 198 197
f 198 206 201
f 198 201 199
f 199 201 200

