# https://github.com/mikedh/trimesh
v -0.21135246 0.22822895 1.23539977
v -0.19444256 0.22822895 1.23475490
v -0.19444256 0.24512933 1.23396127
v -0.21135246 0.24512933 1.23353136
v -0.22859932 0.24576862 1.23230782
v -0.22824833 0.22822895 1.23409354
v -0.22824833 0.21308653 1.23283690
v -0.21135246 0.21332627 1.23325029
v -0.19444256 0.21732164 1.23204328
v -0.18496627 0.22403385 1.23240703
v -0.18496627 0.22822895 1.23343214
v -0.18496627 0.23833723 1.23356441
v -0.18496627 0.24524921 1.23325029
v -0.18496627 0.25351962 1.23139840
v -0.18496627 0.25391915 1.23128266
v -0.22319431 0.25451844 1.23148109
v -0.23446758 0.25184156 1.23073700
v -0.23919870 0.24057462 1.23166294
v -0.24084126 0.22822895 1.23205980
v -0.23973218 0.21628281 1.23177869
v -0.25667017 0.16062743 1.22278389
v -0.24515823 0.16062743 1.22172568
v -0.18496627 0.21987866 1.23100159
v -0.24515823 0.14688337 1.21716212
v -0.18496627 0.27173846 1.21526066
v -0.21135246 0.28180678 1.20912633
v -0.21135246 0.27337655 1.21669920
v -0.22824833 0.27429549 1.21757551
v -0.22859932 0.26091103 1.22685142
v -0.24515823 0.26202974 1.22314765
v -0.24496169 0.24576862 1.22911665
v -0.25667017 0.23378252 1.22688448
v -0.25667017 0.22822895 1.22757894
v -0.24929971 0.22822895 1.22991032
v -0.25667017 0.21848028 1.22752930
v -0.25667017 0.19974202 1.22630576
v -0.25667017 0.16602117 1.22337914
v -0.25667017 0.14972009 1.21952657
v -0.25667017 0.14532518 1.21807154
v -0.23290926 0.14960022 1.21540945
v -0.18496627 0.21140849 1.22752930
v -0.24515823 0.12682665 1.20611707
v -0.22140433 0.11891585 1.19692384
v -0.21135246 0.12127311 1.19586563
v -0.18496627 0.28847903 1.19842850
v -0.19444256 0.28935801 1.19943708
v -0.19444256 0.28080793 1.20788626
v -0.21135246 0.29067646 1.20067720
v -0.22824833 0.29167532 1.20142124
v -0.22824833 0.28276566 1.20987042
v -0.24515823 0.27341652 1.21648424
v -0.25667017 0.36207361 1.13658918
v -0.24515823 0.29163536 1.20100785
v -0.24515823 0.28188668 1.20945703
v -0.25667017 0.26139048 1.21893132
v -0.25667017 0.25052310 1.22298233
v -0.25531540 0.27177842 1.21506227
v -0.25667017 0.24532912 1.22485069
v -0.25667017 0.12682665 1.20758862
v -0.24515823 0.11460085 1.19932134
v -0.18496627 0.18284164 1.21539293
v -0.21135246 0.16550178 1.21582284
v -0.18496627 0.20589489 1.22523102
v -0.21135246 0.12974328 1.19996621
v -0.20057757 0.13297951 1.19814738
v -0.24515823 0.10613069 1.19442713
v -0.22752533 0.11080526 1.19340197
v -0.22824833 0.09538315 1.18420875
v -0.21135246 0.10992627 1.18903685
v -0.19570606 0.10948678 1.18420875
v -0.18496627 0.11308261 1.18290252
v -0.19473737 0.12714629 1.19340197
v -0.18496627 0.36231331 1.10386730
v -0.25664208 0.40358542 1.09338437
v -0.25667017 0.37050383 1.12782588
v -0.25667017 0.30897524 1.18432449
v -0.25667017 0.26942113 1.21552525
v -0.25667017 0.29019705 1.19956935
v -0.25667017 0.27317678 1.21330960
v -0.25667017 0.27109920 1.21468194
v -0.25667017 0.11384172 1.20001580
v -0.18496627 0.18092386 1.21453314
v -0.25667017 0.10541152 1.19431139
v -0.24515823 0.09386493 1.18597795
v -0.22824833 0.08691299 1.17852087
v -0.21135246 0.09905889 1.18194353
v -0.18496627 0.09270625 1.17015438
v -0.18496627 0.10517180 1.17828939
v -0.18496627 0.12694653 1.18961556
v -0.18496627 0.37030407 1.09331826
v -0.25667017 0.40973828 1.08503441
v -0.25667017 0.40354545 1.09341743
v -0.25667017 0.09498361 1.18586221
v -0.24515823 0.08543470 1.17941371
v -0.19444256 0.06270109 1.15100736
v -0.18496627 0.06350016 1.14984993
v -0.18496627 0.07624537 1.15879514
v -0.18496627 0.37545808 1.08548085
v -0.25667017 0.41788881 1.07283192
v -0.25667017 0.08655341 1.17764451
v -0.24515823 0.07964144 1.17096458
v -0.18496627 0.04687946 1.13394367
v -0.18496627 0.05502999 1.14240938
v -0.18496627 0.38436773 1.07078160
v -0.25667017 0.42196410 1.06648264
v -0.25667017 0.08099985 1.16919538
v -0.18496627 0.03433401 1.11426753
v -0.18496627 0.03836933 1.12116247
v -0.18496627 0.38688483 1.06648264
v -0.25667017 0.02997907 1.06648264
v -0.22824833 0.04783834 1.11833506
v -0.18622276 0.03377466 1.11282903
v -0.18496627 0.03365481 1.11304399
v -0.18496627 0.01383780 1.06648264
v -0.21239836 0.01791308 1.06648264
v -0.19289125 0.03125759 1.10419800
v -0.19749603 0.03529290 1.10980319
v -0.18496627 0.02949962 1.10423105
v -0.18496627 0.02630333 1.09682356
f 1 2 3
f 1 3 4
f 1 4 5
f 1 5 6
f 1 6 7
f 1 7 8
f 1 8 2
f 2 8 9
f 2 9 10
f 2 10 11
f 2 11 12
f 2 12 13
f 2 13 3
f 3 13 14
f 3 14 15
f 3 15 16
f 3 16 4
f 4 16 5
f 5 17 18
f 5 18 6
f 5 16 17
f 6 18 19
f 6 19 20
f 6 20 7
f 7 21 8
f 7 20 21
f 8 21 22
f 8 22 9
f 9 23 10
f 9 22 24
f 9 24 23
f 10 23 41
f 10 41 63
f 10 63 61
f 10 61 82
f 10 82 89
f 10 89 71
f 10 71 88
f 10 88 87
f 10 87 97
f 10 97 96
f 10 96 103
f 10 103 102
f 10 102 108
f 10 108 107
f 10 107 113
f 10 113 118
f 10 118 119
f 10 119 114
f 10 114 109
f 10 109 104
f 10 104 98
f 10 98 90
f 10 90 73
f 10 73 45
f 10 45 25
f 10 25 15
f 10 15 14
f 10 14 13
f 10 13 12
f 10 12 11
f 15 25 26
f 15 26 27
f 15 27 28
f 15 28 16
f 16 28 29
f 16 29 30
f 16 30 17
f 17 31 18
f 17 30 31
f 18 31 32
f 18 32 33
f 18 33 34
f 18 34 19
f 19 34 20
f 20 34 35
f 20 35 36
f 20 36 37
f 20 37 21
f 21 38 22
f 21 37 36
f 21 36 35
f 21 35 33
f 21 33 32
f 21 32 58
f 21 58 56
f 21 56 55
f 21 55 77
f 21 77 80
f 21 80 79
f 21 79 78
f 21 78 76
f 21 76 52
f 21 52 75
f 21 75 92
f 21 92 91
f 21 91 99
f 21 99 105
f 21 105 110
f 21 110 106
f 21 106 100
f 21 100 93
f 21 93 83
f 21 83 81
f 21 81 59
f 21 59 39
f 21 39 38
f 22 38 39
f 22 39 24
f 23 24 40
f 23 40 41
f 24 39 42
f 24 42 43
f 24 43 44
f 24 44 40
f 25 45 46
f 25 46 47
f 25 47 26
f 26 47 48
f 26 48 49
f 26 49 50
f 26 50 28
f 26 28 27
f 28 51 29
f 28 50 52
f 28 52 53
f 28 53 54
f 28 54 51
f 29 51 30
f 30 55 56
f 30 56 31
f 30 51 57
f 30 57 55
f 31 56 58
f 31 58 32
f 33 35 34
f 39 59 60
f 39 60 42
f 40 61 62
f 40 62 63
f 40 63 41
f 40 44 64
f 40 64 65
f 40 65 61
f 42 60 43
f 43 60 66
f 43 66 67
f 43 67 68
f 43 68 69
f 43 69 44
f 44 69 70
f 44 70 71
f 44 71 72
f 44 72 65
f 44 65 64
f 45 73 74
f 45 74 75
f 45 75 52
f 45 52 46
f 46 48 47
f 46 52 48
f 48 52 49
f 49 52 50
f 51 54 76
f 51 76 57
f 52 76 53
f 53 76 54
f 55 57 77
f 57 76 78
f 57 78 79
f 57 79 80
f 57 80 77
f 59 81 66
f 59 66 60
f 61 63 62
f 61 65 82
f 65 72 82
f 66 81 83
f 66 83 84
f 66 84 85
f 66 85 68
f 66 68 67
f 68 86 69
f 68 85 86
f 69 86 87
f 69 87 88
f 69 88 70
f 70 88 71
f 71 89 72
f 72 89 82
f 73 90 74
f 74 90 91
f 74 91 92
f 74 92 75
f 83 93 94
f 83 94 84
f 84 94 85
f 85 94 95
f 85 95 96
f 85 96 97
f 85 97 87
f 85 87 86
f 90 98 99
f 90 99 91
f 93 100 94
f 94 100 101
f 94 101 102
f 94 102 103
f 94 103 95
f 95 103 96
f 98 104 105
f 98 105 99
f 100 106 101
f 101 106 107
f 101 107 108
f 101 108 102
f 104 109 105
f 105 109 114
f 105 114 115
f 105 115 110
f 106 111 112
f 106 112 107
f 106 110 111
f 107 112 113
f 110 115 111
f 111 115 116
f 111 116 117
f 111 117 112
f 112 117 116
f 112 116 115
f 112 115 118
f 112 118 113
f 114 119 115
f 115 119 118

