# https://github.com/mikedh/trimesh
v -0.25667017 0.42191482 1.06648264
v -0.18496627 0.38689969 1.06648264
v -0.25667017 0.47623397 1.00813886
v -0.25667017 0.02998897 1.06648264
v -0.18496627 0.44249766 0.99783646
v -0.25667017 0.48792597 0.99413198
v -0.25667017 0.48354145 0.99943524
v -0.18496627 0.01385155 1.06648264
v -0.25667017 -0.03687471 1.06642806
v -0.21239836 0.01793158 1.06648264
v -0.18496627 0.45114487 0.98690238
v -0.24427378 0.48640357 0.98680878
v -0.25593310 0.48883943 0.99244741
v -0.25667017 0.48981374 0.99169092
v -0.25667017 -0.04198995 1.06625649
v -0.25667017 -0.05282943 1.06321488
v -0.25667017 -0.12858390 1.01518129
v -0.25257079 -0.12858390 1.01238146
v -0.23434823 -0.12858390 0.99569957
v -0.22609335 -0.12858390 0.98680878
v -0.21032059 -0.10233777 0.98680878
v -0.20481031 -0.09295982 0.98680878
v -0.18619468 -0.05867543 0.98680878
v -0.18496627 -0.05563063 0.98680878
v -0.18496627 0.45120575 0.98680878
v -0.25198818 0.49097077 0.98680878
v -0.25667017 0.49352840 0.98680878
v -0.25667017 -0.12858390 0.98680878
f 1 2 3
f 1 3 7
f 1 7 6
f 1 6 14
f 1 14 27
f 1 27 28
f 1 28 17
f 1 17 16
f 1 16 15
f 1 15 9
f 1 9 4
f 1 4 10
f 1 10 8
f 1 8 2
f 2 5 6
f 2 6 7
f 2 7 3
f 2 8 24
f 2 24 25
f 2 25 11
f 2 11 5
f 4 9 10
f 5 11 12
f 5 12 13
f 5 13 6
f 6 13 14
f 8 10 9
f 8 9 15
f 8 15 16
f 8 16 17
f 8 17 18
f 8 18 19
f 8 19 20
f 8 20 21
f 8 21 22
f 8 22 23
f 8 23 24
f 11 25 12
f 12 26 13
f 12 25 24
f 12 24 23
f 12 23 22
f 12 22 21
f 12 21 20
f 12 20 28
f 12 28 27
f 12 27 26
f 13 26 27
f 13 27 14
f 17 28 20
f 17 20 19
f 17 19 18

