# https://github.com/mikedh/trimesh
v 0.58949248 0.25064931 0.44492548
v 0.59983798 0.24981770 0.44492548
v 0.58949248 0.26018066 0.42843501
v 0.58949248 -0.35148715 0.44492548
v 0.60108330 0.24962582 0.44492548
v 0.60114713 0.25826154 0.42946568
v 0.58949248 0.27271847 0.40634037
v 0.58949248 -0.35084747 0.44376600
v 0.65095877 -0.33600678 0.44012650
v 0.65095877 -0.33862951 0.44492548
v 0.60738955 0.25346394 0.43613271
v 0.61714434 0.24649134 0.44492548
v 0.58949248 0.28736729 0.37957557
v 0.58949248 -0.33760595 0.42105940
v 0.66786599 -0.32545195 0.42978775
v 0.66917514 -0.33447153 0.44492548
v 0.66783410 -0.33479135 0.44492548
v 0.65677015 -0.33735008 0.44492548
v 0.59191920 -0.25367920 0.28411119
v 0.60180174 0.26804875 0.41088168
v 0.60849120 0.27041561 0.40241101
v 0.63378014 0.24035037 0.44492548
v 0.58949248 0.28979809 0.37448671
v 0.58949248 -0.33735008 0.42064070
v 0.66786599 -0.32007860 0.42131706
v 0.68475726 -0.31796760 0.42543967
v 0.69321889 -0.32123003 0.43635818
v 0.68475726 -0.32897023 0.44492548
v 0.69312305 -0.18593643 0.23354472
v 0.58949248 -0.25367920 0.28407900
v 0.58949248 -0.15254481 0.14841910
v 0.59225448 -0.15228895 0.14880559
v 0.62622857 -0.16924062 0.18252734
v 0.59474504 0.28915841 0.37229656
v 0.66861638 0.23337778 0.42798411
v 0.66829707 0.22486995 0.44492548
v 0.58949248 0.29638686 0.35996092
v 0.69709842 -0.30702896 0.41616378
v 0.70166450 -0.19003041 0.24433438
v 0.69890248 -0.31272219 0.42959451
v 0.69531033 -0.32334102 0.44492548
v 0.70166450 -0.18433721 0.23586368
v 0.67327825 -0.16802522 0.20082147
v 0.68475726 -0.17243904 0.21212643
v 0.70158468 -0.17531763 0.22430103
v 0.58949248 -0.13700044 0.13006057
v 0.60922556 -0.13540122 0.13189644
v 0.63405158 -0.13802395 0.14542380
v 0.63507337 -0.14742732 0.15798490
v 0.65095877 -0.15695865 0.17682651
v 0.67731746 0.22147963 0.43912806
v 0.67900976 0.22480599 0.42791970
v 0.67297492 0.23497702 0.41101050
v 0.58949248 0.30188815 0.34337381
v 0.67570498 0.21936866 0.44492548
v 0.70876906 -0.30255118 0.42791970
v 0.70284591 -0.19917792 0.25876355
v 0.70927994 -0.20250428 0.26791061
v 0.71250493 -0.18759960 0.24790946
v 0.72736858 -0.16936856 0.23299719
v 0.71006222 -0.30421436 0.43671246
v 0.70441053 -0.31304206 0.44492548
v 0.73014652 -0.15459180 0.21389785
v 0.71857173 -0.17192730 0.23009848
v 0.64409371 -0.13616885 0.14793598
v 0.69588505 -0.17039205 0.21515399
v 0.58949248 -0.12983596 0.12387667
v 0.58949248 -0.12682944 0.12171872
v 0.61577135 -0.12734117 0.12812812
v 0.62049707 -0.13335424 0.13398994
v 0.67932908 0.21162843 0.44492548
v 0.68335231 0.21130861 0.42791970
v 0.68646553 0.21130861 0.41101050
v 0.68035087 0.22653312 0.41101050
v 0.60767691 0.28627979 0.34337381
v 0.59923130 0.29421194 0.34337381
v 0.69396923 0.20363238 0.35010529
v 0.58949248 0.29657874 0.32562725
v 0.73195064 -0.16041295 0.22642675
v 0.74138608 -0.14825892 0.22504182
v 0.74507408 -0.13744822 0.21418774
v 0.71284016 -0.29410734 0.42791970
v 0.71049330 -0.30504598 0.44492548
v 0.74607989 -0.13981507 0.22504182
v 0.64912281 -0.12574197 0.14130114
v 0.66368313 -0.12158400 0.14593907
v 0.72925248 -0.13687250 0.19856688
v 0.73533524 -0.14282158 0.20839031
v 0.63405158 -0.12977200 0.13698530
v 0.58949248 -0.10987775 0.11592129
v 0.61714434 -0.10987775 0.12129999
v 0.63405158 -0.12132812 0.13002838
v 0.67937696 0.21143655 0.44492548
v 0.68304898 0.19442090 0.44492548
v 0.69345833 0.18700056 0.40340944
v 0.69448012 0.19045485 0.39410135
v 0.70340472 0.17746923 0.36028301
v 0.69730596 0.19480472 0.35970326
v 0.69396923 0.20363238 0.35371257
v 0.59571895 0.29152526 0.32646466
v 0.70350051 0.17746923 0.34337381
v 0.69717823 0.19454883 0.34401798
v 0.69531033 0.18898357 0.33258417
v 0.68980227 0.20024203 0.33883250
v 0.60416456 0.28256962 0.32646466
v 0.59233429 0.28794297 0.31760746
v 0.58949248 0.29248477 0.32021631
v 0.74052398 -0.13047564 0.20291497
v 0.74425985 -0.11915319 0.19927544
v 0.74671846 -0.12561402 0.20839031
v 0.75037452 -0.12676547 0.22504182
v 0.71169068 -0.30018436 0.44492548
v 0.64288035 -0.11857749 0.13189644
v 0.66872815 -0.11051745 0.14307261
v 0.67493862 -0.11653050 0.15028717
v 0.72564434 -0.11742606 0.18313926
v 0.73512770 -0.12561402 0.19560377
v 0.58949248 -0.09222242 0.11740287
v 0.61714434 -0.09299005 0.12181537
v 0.63405158 -0.09299005 0.12516496
v 0.63405158 -0.10987775 0.12568028
v 0.68485304 0.17746923 0.44492548
v 0.69641191 0.17746923 0.39410135
v 0.69095180 0.10985442 0.44492548
v 0.74421193 -0.03247574 0.23618577
v 0.70155272 0.16058150 0.37719216
v 0.70493739 0.16058150 0.36028301
v 0.74028449 -0.02531126 0.25886017
v 0.75080560 -0.07603836 0.22504182
v 0.60892221 0.27073542 0.31783292
v 0.74421193 -0.03247574 0.23180550
v 0.74060380 -0.02620682 0.22571819
v 0.72917266 -0.01443660 0.21473526
v 0.69432049 0.17056061 0.31683447
v 0.66245380 0.20676684 0.31480536
v 0.62535051 0.25333599 0.31828382
v 0.74529761 -0.06522767 0.19760067
v 0.61211530 0.27412578 0.32646466
v 0.58949248 0.28922239 0.31664123
v 0.58949248 0.14458935 0.20649005
v 0.73523946 -0.11102919 0.18793828
v 0.74558497 -0.10987775 0.19740738
v 0.75051824 -0.10987775 0.20813267
v 0.75257776 -0.10987775 0.22504182
v 0.71657603 -0.27894678 0.42791970
v 0.71210580 -0.29820132 0.44492548
v 0.64594569 -0.10987775 0.13025381
v 0.65440726 -0.10987775 0.13460191
v 0.67881818 -0.10527201 0.14703417
v 0.72944406 -0.10610361 0.18117460
v 0.58949248 0.13006848 0.19869572
v 0.63405158 -0.08070807 0.12951305
v 0.64784555 -0.09299005 0.12960970
v 0.64540286 -0.08288301 0.13105903
v 0.69334657 -0.06746657 0.14890223
v 0.69789667 0.16058150 0.39410135
v 0.71879524 -0.02531126 0.36028301
v 0.73102464 0.00840020 0.29264632
v 0.70295767 0.14369379 0.37719216
v 0.71320740 -0.24510736 0.44492548
v 0.75102912 -0.07603836 0.20813267
v 0.74735709 -0.07603836 0.24195099
v 0.75197109 -0.09299005 0.22504182
v 0.74295070 -0.03752925 0.22053271
v 0.69705054 0.14062331 0.29686554
v 0.72933228 -0.06477989 0.18056263
v 0.71258474 -0.06388432 0.16362128
v 0.69283568 0.15188177 0.30137465
v 0.66128831 0.18802405 0.29979648
v 0.65595591 0.19934647 0.30353260
v 0.74651096 -0.05940652 0.20925992
v 0.74679834 -0.07603836 0.19550712
v 0.73967781 -0.07603836 0.18706867
v 0.73977359 -0.09299005 0.18664994
v 0.74719747 -0.09299005 0.19512064
v 0.75205090 -0.09299005 0.20813267
v 0.74964011 -0.10987775 0.24195099
v 0.71464428 -0.27894678 0.44482886
v 0.71461233 -0.27907472 0.44492548
v 0.66786599 -0.09299005 0.13782271
v 0.69344237 -0.08486603 0.14880559
v 0.68458165 -0.09145479 0.14571363
v 0.73132799 -0.09299005 0.17959643
v 0.70195185 -0.07603836 0.15476405
v 0.69349028 -0.07603836 0.14880559
v 0.71416528 -0.26212304 0.44492548
v 0.73123219 -0.07603836 0.17914550
v 0.71311160 -0.07603836 0.16320255
v 0.71461233 -0.27894678 0.44492548
f 1 2 3
f 1 3 7
f 1 7 13
f 1 13 23
f 1 23 37
f 1 37 54
f 1 54 78
f 1 78 107
f 1 107 139
f 1 139 140
f 1 140 151
f 1 151 118
f 1 118 90
f 1 90 68
f 1 68 67
f 1 67 46
f 1 46 31
f 1 31 30
f 1 30 24
f 1 24 14
f 1 14 8
f 1 8 4
f 1 4 10
f 1 10 18
f 1 18 17
f 1 17 16
f 1 16 28
f 1 28 41
f 1 41 62
f 1 62 83
f 1 83 112
f 1 112 146
f 1 146 179
f 1 179 189
f 1 189 186
f 1 186 160
f 1 160 124
f 1 124 122
f 1 122 94
f 1 94 93
f 1 93 71
f 1 71 55
f 1 55 36
f 1 36 22
f 1 22 12
f 1 12 5
f 1 5 2
f 2 5 6
f 2 6 7
f 2 7 3
f 4 8 9
f 4 9 10
f 5 11 6
f 5 12 11
f 6 11 13
f 6 13 7
f 8 14 9
f 9 15 16
f 9 16 17
f 9 17 18
f 9 18 10
f 9 14 19
f 9 19 15
f 11 12 20
f 11 20 13
f 12 21 13
f 12 13 20
f 12 22 21
f 13 21 23
f 14 24 19
f 15 25 26
f 15 26 16
f 15 19 25
f 16 26 27
f 16 27 28
f 19 29 26
f 19 26 25
f 19 24 30
f 19 30 31
f 19 31 32
f 19 32 33
f 19 33 29
f 21 34 23
f 21 22 35
f 21 35 34
f 22 36 35
f 23 34 37
f 26 38 27
f 26 29 39
f 26 39 38
f 27 38 40
f 27 40 41
f 27 41 28
f 29 42 39
f 29 33 43
f 29 43 44
f 29 44 45
f 29 45 42
f 31 46 47
f 31 47 32
f 32 47 33
f 33 47 48
f 33 48 49
f 33 49 50
f 33 50 43
f 34 35 37
f 35 36 51
f 35 51 52
f 35 52 53
f 35 53 54
f 35 54 37
f 36 55 51
f 38 56 40
f 38 39 57
f 38 57 58
f 38 58 59
f 38 59 60
f 38 60 56
f 39 42 58
f 39 58 57
f 40 56 41
f 41 56 61
f 41 61 62
f 42 59 58
f 42 45 63
f 42 63 64
f 42 64 59
f 43 50 48
f 43 48 65
f 43 65 66
f 43 66 44
f 44 66 45
f 45 66 63
f 46 67 47
f 47 67 68
f 47 68 69
f 47 69 70
f 47 70 48
f 48 70 65
f 48 50 49
f 51 55 71
f 51 71 52
f 52 71 72
f 52 72 73
f 52 73 74
f 52 74 53
f 53 75 76
f 53 76 54
f 53 74 77
f 53 77 75
f 54 76 78
f 56 60 79
f 56 79 80
f 56 80 81
f 56 81 61
f 59 64 63
f 59 63 60
f 60 63 79
f 61 82 83
f 61 83 62
f 61 81 84
f 61 84 82
f 63 66 65
f 63 65 85
f 63 85 86
f 63 86 87
f 63 87 88
f 63 88 81
f 63 81 79
f 65 70 89
f 65 89 85
f 68 90 91
f 68 91 69
f 69 91 92
f 69 92 70
f 70 92 89
f 71 93 72
f 72 93 94
f 72 94 95
f 72 95 96
f 72 96 73
f 73 96 97
f 73 97 98
f 73 98 74
f 74 98 99
f 74 99 77
f 75 100 76
f 75 77 100
f 76 100 78
f 77 99 98
f 77 98 101
f 77 101 102
f 77 102 103
f 77 103 104
f 77 104 105
f 77 105 100
f 78 100 106
f 78 106 107
f 79 81 80
f 81 88 108
f 81 108 109
f 81 109 110
f 81 110 111
f 81 111 84
f 82 84 111
f 82 111 83
f 83 111 112
f 85 113 86
f 85 89 113
f 86 113 114
f 86 114 115
f 86 115 116
f 86 116 87
f 87 116 117
f 87 117 108
f 87 108 88
f 89 92 113
f 90 118 119
f 90 119 91
f 91 119 120
f 91 120 121
f 91 121 92
f 92 121 113
f 94 122 95
f 95 123 97
f 95 97 96
f 95 122 124
f 95 124 123
f 97 125 101
f 97 101 98
f 97 123 126
f 97 126 127
f 97 127 128
f 97 128 129
f 97 129 125
f 100 105 130
f 100 130 106
f 101 125 131
f 101 131 132
f 101 132 102
f 102 132 103
f 103 133 134
f 103 134 135
f 103 135 136
f 103 136 104
f 103 132 137
f 103 137 133
f 104 136 130
f 104 130 138
f 104 138 105
f 105 138 130
f 106 139 107
f 106 130 140
f 106 140 139
f 108 117 109
f 109 117 116
f 109 116 141
f 109 141 142
f 109 142 143
f 109 143 110
f 110 143 111
f 111 143 144
f 111 144 145
f 111 145 112
f 112 145 146
f 113 121 147
f 113 147 148
f 113 148 114
f 114 116 115
f 114 148 149
f 114 149 116
f 116 149 150
f 116 150 141
f 118 151 119
f 119 151 152
f 119 152 120
f 120 153 121
f 120 152 154
f 120 154 155
f 120 155 153
f 121 153 147
f 123 156 126
f 123 124 156
f 124 157 158
f 124 158 159
f 124 159 156
f 124 160 157
f 125 129 161
f 125 161 131
f 126 156 159
f 126 159 127
f 127 159 158
f 127 158 128
f 128 158 129
f 129 162 163
f 129 163 161
f 129 158 162
f 130 136 140
f 131 161 164
f 131 164 132
f 132 164 137
f 133 165 134
f 133 137 166
f 133 166 167
f 133 167 165
f 134 165 168
f 134 168 135
f 135 168 169
f 135 169 170
f 135 170 136
f 136 170 140
f 137 171 161
f 137 161 172
f 137 172 173
f 137 173 166
f 137 164 171
f 140 170 169
f 140 169 167
f 140 167 155
f 140 155 151
f 141 150 174
f 141 174 142
f 142 174 175
f 142 175 143
f 143 175 176
f 143 176 144
f 144 176 163
f 144 163 177
f 144 177 178
f 144 178 145
f 145 178 146
f 146 178 179
f 147 153 180
f 147 180 181
f 147 181 182
f 147 182 148
f 148 182 149
f 149 182 181
f 149 181 150
f 150 181 183
f 150 183 174
f 151 155 154
f 151 154 152
f 153 155 180
f 155 167 184
f 155 184 185
f 155 185 180
f 157 160 177
f 157 177 158
f 158 177 162
f 160 186 177
f 161 163 176
f 161 176 172
f 161 171 164
f 162 177 163
f 165 169 168
f 165 167 169
f 166 173 167
f 167 173 187
f 167 187 188
f 167 188 184
f 172 176 175
f 172 175 173
f 173 175 174
f 173 174 187
f 174 188 187
f 174 183 188
f 177 186 178
f 178 186 189
f 178 189 179
f 180 185 181
f 181 185 184
f 181 184 188
f 181 188 183

