# https://github.com/mikedh/trimesh
v -0.05680785 -0.12858391 0.90586898
v -0.27862094 -0.12858391 1.02978619
v -0.20225637 -0.15157231 0.99484004
v -0.20018088 -0.16062954 0.99663453
v -0.22824932 -0.19443364 1.01864116
v -0.22782103 -0.21060499 1.02024679
v -0.21774011 -0.21060499 1.01325757
v -0.05680785 -0.14371947 0.89963534
v -0.05680785 -0.12858391 0.07245038
v -0.28362844 -0.12858391 1.03214740
v -0.25012421 -0.20195725 1.02846388
v -0.22824932 -0.21060499 1.02043570
v -0.05680785 -0.21060499 0.86875050
v -0.05680785 -0.21060499 0.06923916
v -0.05740086 -0.12858391 0.07226153
v -0.29143622 -0.12858391 1.03309189
v -0.25012421 -0.20633332 1.02846388
v -0.24587444 -0.21060499 1.02733049
v -0.24370011 -0.21060499 1.02648043
v -0.05693963 -0.21060499 0.06923916
v -0.09301351 -0.12858391 0.06820019
v -0.07611313 -0.12858391 0.06829462
v -0.07433414 -0.12858391 0.06857801
v -0.27819265 -0.21060499 1.02081351
v -0.25954626 -0.21060499 1.02657491
v -0.25447287 -0.20633332 1.02846388
v -0.29337992 -0.12858391 1.03186407
v -0.35646800 -0.21060499 0.97812252
v -0.30352673 -0.21060499 1.01042411
v -0.29532362 -0.21060499 1.01476878
v -0.16064786 -0.21060499 0.07396159
v -0.10991386 -0.12858391 0.07046698
v -0.16137265 -0.21060499 0.07405602
v -0.29591662 -0.12858391 1.02969171
v -0.38117613 -0.21060499 0.95734374
v -0.36546176 -0.21060499 0.97075551
v -0.17599985 -0.21060499 0.07688953
v -0.12681421 -0.12858391 0.07443383
v -0.30560222 -0.12858391 1.02034127
v -0.39336548 -0.21060499 0.94657653
v -0.20703326 -0.12858391 0.11098562
v -0.19431680 -0.12858391 0.10456307
v -0.18314873 -0.12858391 0.09946282
v -0.18252279 -0.12858391 0.09917949
v -0.13864117 -0.12858391 0.07934517
v -0.19589814 -0.21060499 0.08841227
v -0.19589814 -0.21058894 0.08841227
v -0.39336548 -0.12858391 0.21478514
v -0.30846834 -0.12858391 1.01722443
v -0.39336548 -0.12858391 0.87318962
v -0.39336548 -0.21060499 0.25662608
v -0.26135818 -0.21060499 0.14083152
v -0.39336548 -0.12952335 0.21506848
v -0.39336548 -0.12900948 0.21487962
v -0.39336548 -0.20740926 0.25322593
v -0.38862152 -0.21060499 0.25048690
v -0.39102642 -0.20565082 0.24840902
v -0.39336548 -0.20075283 0.24737008
v -0.39336548 -0.18083171 0.23613064
v -0.39336548 -0.17296282 0.23197488
v -0.39336548 -0.20407704 0.24992020
f 1 2 3
f 1 3 4
f 1 4 5
f 1 5 6
f 1 6 7
f 1 7 8
f 1 8 13
f 1 13 14
f 1 14 9
f 1 9 15
f 1 15 23
f 1 23 22
f 1 22 21
f 1 21 32
f 1 32 38
f 1 38 45
f 1 45 44
f 1 44 43
f 1 43 42
f 1 42 41
f 1 41 48
f 1 48 50
f 1 50 49
f 1 49 39
f 1 39 34
f 1 34 27
f 1 27 16
f 1 16 10
f 1 10 2
f 2 10 5
f 2 5 4
f 2 4 3
f 5 10 11
f 5 11 12
f 5 12 6
f 6 12 19
f 6 19 18
f 6 18 25
f 6 25 24
f 6 24 30
f 6 30 29
f 6 29 28
f 6 28 36
f 6 36 35
f 6 35 40
f 6 40 51
f 6 51 56
f 6 56 52
f 6 52 46
f 6 46 37
f 6 37 33
f 6 33 31
f 6 31 20
f 6 20 14
f 6 14 13
f 6 13 7
f 7 13 8
f 9 14 15
f 10 16 11
f 11 16 17
f 11 17 18
f 11 18 19
f 11 19 12
f 14 20 21
f 14 21 22
f 14 22 23
f 14 23 15
f 16 24 25
f 16 25 26
f 16 26 17
f 16 27 28
f 16 28 29
f 16 29 30
f 16 30 24
f 17 26 18
f 18 26 25
f 20 31 21
f 21 31 33
f 21 33 32
f 27 34 35
f 27 35 36
f 27 36 28
f 32 33 37
f 32 37 38
f 34 39 40
f 34 40 35
f 37 41 42
f 37 42 43
f 37 43 44
f 37 44 45
f 37 45 38
f 37 46 47
f 37 47 48
f 37 48 41
f 39 49 40
f 40 49 50
f 40 50 48
f 40 48 54
f 40 54 53
f 40 53 60
f 40 60 59
f 40 59 58
f 40 58 61
f 40 61 55
f 40 55 51
f 46 52 53
f 46 53 54
f 46 54 48
f 46 48 47
f 51 55 56
f 52 56 57
f 52 57 58
f 52 58 59
f 52 59 60
f 52 60 53
f 55 61 57
f 55 57 56
f 57 61 58

