# https://github.com/mikedh/trimesh
v 0.17743700 0.19456418 0.03914988
v 0.17752435 0.19456418 0.03914988
v 0.16055061 0.19456418 0.04214408
v 0.12681420 0.31279584 0.02049355
v 0.14371514 0.31279584 0.01903485
v 0.17752435 0.27899441 0.02329587
v 0.19093885 0.19456418 0.03926502
v 0.14889752 0.19456418 0.04598284
v 0.11658046 0.31198929 0.02360294
v 0.11658046 0.32302425 0.02149165
v 0.11658046 0.32973320 0.02041681
v 0.12681420 0.32973320 0.01784482
v 0.14371514 0.32973320 0.01738422
v 0.17752435 0.29589512 0.02156840
v 0.19093885 0.27899441 0.02536876
v 0.19093885 0.26575980 0.02728812
v 0.19093885 0.19456418 0.40951207
v 0.14049073 0.19456418 0.05024387
v 0.12674868 0.19456418 0.05769102
v 0.11658046 0.19456418 0.06341074
v 0.11658046 0.33996161 0.02022483
v 0.12681420 0.34663391 0.01826713
v 0.11658046 0.34663391 0.02037842
v 0.14371514 0.34663391 0.01872773
v 0.16061610 0.32973320 0.01995616
v 0.17752435 0.31279584 0.02149165
v 0.19093885 0.29589512 0.02414039
v 0.19093885 0.28247722 0.02502330
v 0.19093885 0.47036469 0.40951207
v 0.11658046 0.19456418 0.40951207
v 0.11658046 0.35686231 0.02122293
v 0.11658046 0.37376302 0.02364134
v 0.12681420 0.36353461 0.02153005
v 0.14371514 0.36353461 0.02275843
v 0.16061610 0.34663391 0.02248970
v 0.17752435 0.32973320 0.02295036
v 0.19093885 0.31279584 0.02440911
v 0.19093885 0.29941458 0.02414039
v 0.11658046 0.51146164 0.40951207
v 0.19093885 0.47307763 0.40544300
v 0.11658046 0.39194688 0.02790236
v 0.11658046 0.46361911 0.04567573
v 0.16174430 0.36467111 0.02721138
v 0.17752435 0.34663391 0.02632847
v 0.12681420 0.46020961 0.04621317
v 0.16964159 0.49060156 0.06429366
v 0.18309250 0.42142230 0.04782546
v 0.19093885 0.31631528 0.02471618
v 0.18913375 0.34663391 0.02936106
v 0.19093885 0.32980651 0.02655879
v 0.11658046 0.56392351 0.20805467
v 0.19093885 0.47795355 0.39669066
v 0.19093885 0.51498109 0.32667194
v 0.19093885 0.52136010 0.30955113
v 0.19093885 0.55054223 0.22851519
v 0.19093885 0.55175207 0.22502194
v 0.11658046 0.47080463 0.04774867
v 0.18598211 0.35506593 0.03062789
v 0.14350408 0.49925357 0.06122266
v 0.17617780 0.49723721 0.06794044
v 0.19093885 0.49848368 0.07189439
v 0.19093885 0.41731628 0.04866997
v 0.19093885 0.34502083 0.02962979
v 0.19093885 0.34168467 0.02890041
v 0.19093885 0.41123054 0.04705769
v 0.16061610 0.56275036 0.19124096
v 0.16061610 0.56637981 0.17435051
v 0.11658046 0.56527999 0.20145203
v 0.19093885 0.55501490 0.20790114
v 0.11658046 0.48114304 0.05154904
v 0.13771756 0.50801550 0.06371786
v 0.18909736 0.52561281 0.08033959
v 0.19093885 0.52242331 0.07961027
v 0.19093885 0.51593430 0.07742219
v 0.17752435 0.56458340 0.15742166
v 0.16061610 0.56780955 0.15742166
v 0.14371514 0.56744296 0.17435051
v 0.11658046 0.56678308 0.18456158
v 0.19093885 0.55780114 0.15742166
v 0.18842773 0.55981749 0.15742166
v 0.11658046 0.49797042 0.05972556
v 0.13212760 0.50801550 0.06371786
v 0.16061610 0.54724278 0.09289233
v 0.16061610 0.53569459 0.08444708
v 0.17752435 0.53573123 0.08544513
v 0.17752435 0.52729923 0.07976380
v 0.17752435 0.54529974 0.09392878
v 0.19093885 0.52803244 0.08352577
v 0.19093885 0.52502618 0.08068511
v 0.17752435 0.56396016 0.14053115
v 0.16061610 0.56810287 0.14053115
v 0.14371514 0.56879943 0.15742166
v 0.12681420 0.56905606 0.15742166
v 0.11658046 0.56791954 0.16767108
v 0.19093885 0.55651799 0.14053115
v 0.18737233 0.55904760 0.14053115
v 0.11658046 0.50588920 0.06636660
v 0.12086029 0.50643910 0.06529171
v 0.16061610 0.55571146 0.10141433
v 0.19093885 0.53833416 0.09389038
v 0.19093885 0.53525465 0.09051227
v 0.17352110 0.55985417 0.11139508
v 0.17850697 0.55420837 0.10613600
v 0.18856602 0.54218356 0.09676945
v 0.18478841 0.55732456 0.11980193
v 0.17850697 0.56110060 0.12471554
v 0.16061610 0.56579325 0.12360230
v 0.14371514 0.56846948 0.14053115
v 0.12681420 0.56641645 0.14053115
v 0.11658046 0.56634313 0.15074223
v 0.11658046 0.56736966 0.15742166
v 0.19093885 0.55384174 0.12352551
v 0.14233221 0.55340180 0.10640468
v 0.11658046 0.55794776 0.13070394
v 0.11702446 0.55864435 0.13116459
v 0.13577417 0.55769113 0.11546417
v 0.14704877 0.55978080 0.11185573
v 0.16061610 0.56077064 0.10985958
v 0.19093885 0.54163366 0.09776754
v 0.19093885 0.54955241 0.11147187
v 0.19093885 0.54716946 0.10678859
v 0.14233221 0.56293368 0.12210515
v 0.12681420 0.56073401 0.12740262
v 0.11658046 0.56300700 0.14099180
v 0.11658046 0.55882765 0.13189397
v 0.11658046 0.56095395 0.13627013
f 1 2 7
f 1 7 17
f 1 17 30
f 1 30 20
f 1 20 19
f 1 19 18
f 1 18 8
f 1 8 3
f 1 3 4
f 1 4 5
f 1 5 6
f 1 6 2
f 2 6 7
f 3 8 9
f 3 9 4
f 4 9 10
f 4 10 11
f 4 11 12
f 4 12 5
f 5 12 13
f 5 13 14
f 5 14 6
f 6 14 15
f 6 15 16
f 6 16 7
f 7 16 15
f 7 15 28
f 7 28 27
f 7 27 38
f 7 38 37
f 7 37 48
f 7 48 50
f 7 50 64
f 7 64 63
f 7 63 65
f 7 65 62
f 7 62 61
f 7 61 74
f 7 74 73
f 7 73 89
f 7 89 88
f 7 88 101
f 7 101 100
f 7 100 119
f 7 119 121
f 7 121 120
f 7 120 112
f 7 112 95
f 7 95 79
f 7 79 69
f 7 69 56
f 7 56 55
f 7 55 54
f 7 54 53
f 7 53 52
f 7 52 40
f 7 40 29
f 7 29 17
f 8 18 9
f 9 18 19
f 9 19 20
f 9 20 30
f 9 30 39
f 9 39 51
f 9 51 68
f 9 68 78
f 9 78 94
f 9 94 111
f 9 111 110
f 9 110 124
f 9 124 126
f 9 126 125
f 9 125 114
f 9 114 97
f 9 97 81
f 9 81 70
f 9 70 57
f 9 57 42
f 9 42 41
f 9 41 32
f 9 32 31
f 9 31 23
f 9 23 21
f 9 21 11
f 9 11 10
f 11 21 12
f 12 22 13
f 12 21 23
f 12 23 22
f 13 22 24
f 13 24 25
f 13 25 26
f 13 26 14
f 14 27 28
f 14 28 15
f 14 26 27
f 17 29 39
f 17 39 30
f 22 23 31
f 22 31 32
f 22 32 33
f 22 33 24
f 24 33 34
f 24 34 35
f 24 35 36
f 24 36 25
f 25 36 26
f 26 36 37
f 26 37 38
f 26 38 27
f 29 40 39
f 32 41 33
f 33 41 42
f 33 42 34
f 34 43 44
f 34 44 35
f 34 42 45
f 34 45 46
f 34 46 47
f 34 47 43
f 35 44 36
f 36 48 37
f 36 44 49
f 36 49 50
f 36 50 48
f 39 40 52
f 39 52 53
f 39 53 54
f 39 54 55
f 39 55 56
f 39 56 51
f 42 57 45
f 43 58 44
f 43 47 58
f 44 58 49
f 45 57 59
f 45 59 46
f 46 59 60
f 46 60 61
f 46 61 47
f 47 61 62
f 47 62 58
f 49 63 64
f 49 64 50
f 49 58 62
f 49 62 65
f 49 65 63
f 51 56 66
f 51 66 67
f 51 67 68
f 56 69 67
f 56 67 66
f 57 70 71
f 57 71 59
f 59 71 72
f 59 72 73
f 59 73 74
f 59 74 60
f 60 74 61
f 67 69 75
f 67 75 76
f 67 76 77
f 67 77 68
f 68 77 78
f 69 79 80
f 69 80 75
f 70 81 82
f 70 82 71
f 71 82 83
f 71 83 84
f 71 84 85
f 71 85 86
f 71 86 72
f 72 86 85
f 72 85 87
f 72 87 88
f 72 88 89
f 72 89 73
f 75 80 90
f 75 90 91
f 75 91 76
f 76 92 77
f 76 91 92
f 77 92 93
f 77 93 78
f 78 93 94
f 79 95 80
f 80 95 96
f 80 96 90
f 81 97 98
f 81 98 82
f 82 98 83
f 83 99 87
f 83 87 85
f 83 85 84
f 83 98 99
f 87 100 101
f 87 101 88
f 87 99 102
f 87 102 103
f 87 103 104
f 87 104 100
f 90 96 105
f 90 105 106
f 90 106 107
f 90 107 91
f 91 107 108
f 91 108 92
f 92 108 93
f 93 108 109
f 93 109 110
f 93 110 111
f 93 111 94
f 95 112 96
f 96 112 105
f 97 113 99
f 97 99 98
f 97 114 115
f 97 115 116
f 97 116 113
f 99 113 117
f 99 117 118
f 99 118 102
f 100 104 119
f 102 120 121
f 102 121 103
f 102 118 107
f 102 107 106
f 102 106 105
f 102 105 120
f 103 121 119
f 103 119 104
f 105 112 120
f 107 118 122
f 107 122 109
f 107 109 108
f 109 122 123
f 109 123 124
f 109 124 110
f 113 116 117
f 114 125 115
f 115 125 123
f 115 123 116
f 116 123 117
f 117 123 122
f 117 122 118
f 123 125 126
f 123 126 124

