# https://github.com/mikedh/trimesh
v -0.05680786 -0.31577563 0.04770604
v -0.05680786 -0.31016866 0.04282040
v -0.04226467 -0.30769501 0.04471486
v -0.03076917 -0.30575273 0.04640984
v -0.04226467 -0.31577563 0.05269135
v -0.05680786 -0.31577563 0.84146943
v -0.05680786 -0.29457547 0.03364743
v -0.04226467 -0.29587644 0.03713715
v -0.02521843 -0.29646278 0.04282040
v -0.01949386 -0.30250950 0.04890252
v 0.06157718 -0.31577563 0.10733052
v -0.02615708 -0.31231251 0.05638051
v -0.02859059 -0.31577563 0.05907258
v -0.04064233 -0.31577563 0.05338928
v 0.06157718 -0.31577563 0.94027857
v 0.06157718 -0.31306377 0.95224337
v 0.06157718 -0.31161620 0.95563337
v 0.06157718 -0.30923419 0.95932253
v 0.06157718 -0.30168494 0.96650137
v 0.05249204 -0.30122686 0.95822572
v 0.06157718 -0.29686588 0.97019053
v 0.01466815 -0.18908772 0.97966260
v 0.00068120 -0.16763104 0.97647204
v -0.01599423 -0.13365948 0.97537522
v -0.02029345 -0.12858391 0.97038991
v -0.05680786 -0.12858391 0.90587984
v -0.05680786 -0.28019160 0.03155358
v -0.03782638 -0.27288058 0.02995827
v -0.03076917 -0.27288058 0.02995827
v -0.02521843 -0.27870741 0.03374715
v 0.00844530 -0.26205145 0.03823391
v 0.00844530 -0.27419985 0.04461514
v 0.01751885 -0.27101159 0.04710777
v 0.02879416 -0.26624750 0.05079693
v 0.03485480 -0.25497861 0.04660928
v 0.04828552 -0.26498321 0.06704911
v 0.05074221 -0.25371431 0.06445671
v 0.06157718 -0.27916549 0.09147717
v 0.06157718 -0.29389749 0.97168611
v 0.04872587 -0.22195990 0.99591478
v 0.01150458 -0.17754398 0.98235472
v -0.00838078 -0.12858391 0.98594411
v -0.01013059 -0.12858391 0.98404970
v -0.05680786 -0.12858391 0.07253297
v -0.03782638 -0.26870284 0.02995827
v -0.05680786 -0.26214307 0.03623978
v 0.06157718 -0.12858391 0.04172364
v -0.03076917 -0.26870284 0.02995827
v 0.06157718 -0.14371902 0.04142453
v -0.00845031 -0.26205145 0.03374715
v 0.02535248 -0.24515731 0.03992894
v 0.02404301 -0.26119023 0.04451542
v 0.03612949 -0.24515731 0.04531308
v 0.06157718 -0.14621101 0.04192307
v 0.06157718 -0.15548265 0.04421632
v 0.06157718 -0.21135065 1.01206724
v 0.05567880 -0.21135065 1.00698221
v 0.04604899 -0.21135065 0.99850713
v 0.03551533 -0.16579871 1.00977400
v 0.03266462 -0.15452982 1.01216696
v 0.06157718 -0.12858391 1.04855982
v 0.06157718 -0.12937180 0.04162392
v 0.06157718 -0.19300893 1.02044255
f 1 2 3
f 1 3 4
f 1 4 5
f 1 5 14
f 1 14 13
f 1 13 11
f 1 11 15
f 1 15 6
f 1 6 26
f 1 26 44
f 1 44 46
f 1 46 27
f 1 27 7
f 1 7 2
f 2 7 8
f 2 8 3
f 3 8 4
f 4 8 9
f 4 9 10
f 4 10 11
f 4 11 12
f 4 12 13
f 4 13 14
f 4 14 5
f 6 15 16
f 6 16 17
f 6 17 18
f 6 18 19
f 6 19 20
f 6 20 21
f 6 21 22
f 6 22 23
f 6 23 24
f 6 24 25
f 6 25 26
f 7 27 28
f 7 28 29
f 7 29 8
f 8 29 30
f 8 30 9
f 9 30 31
f 9 31 32
f 9 32 10
f 10 32 33
f 10 33 11
f 11 13 12
f 11 33 34
f 11 34 35
f 11 35 36
f 11 36 37
f 11 37 38
f 11 38 55
f 11 55 54
f 11 54 49
f 11 49 62
f 11 62 47
f 11 47 61
f 11 61 63
f 11 63 56
f 11 56 39
f 11 39 21
f 11 21 19
f 11 19 18
f 11 18 17
f 11 17 16
f 11 16 15
f 19 21 20
f 21 39 40
f 21 40 22
f 22 40 41
f 22 41 23
f 23 41 42
f 23 42 24
f 24 42 43
f 24 43 25
f 25 43 42
f 25 42 61
f 25 61 47
f 25 47 44
f 25 44 26
f 27 45 28
f 27 46 47
f 27 47 45
f 28 45 48
f 28 48 29
f 29 48 49
f 29 49 50
f 29 50 31
f 29 31 30
f 31 50 51
f 31 51 35
f 31 35 52
f 31 52 32
f 32 52 33
f 33 52 35
f 33 35 34
f 35 51 53
f 35 53 54
f 35 54 55
f 35 55 37
f 35 37 36
f 37 55 38
f 39 56 40
f 40 56 57
f 40 57 58
f 40 58 41
f 41 58 59
f 41 59 42
f 42 59 60
f 42 60 61
f 44 47 46
f 45 47 62
f 45 62 48
f 48 62 49
f 49 51 50
f 49 54 53
f 49 53 51
f 56 63 57
f 57 63 59
f 57 59 58
f 59 63 61
f 59 61 60

