# https://github.com/mikedh/trimesh
v 0.36286517 0.30293024 0.71881267
v 0.44807720 0.29729457 0.71881267
v 0.36286517 0.31339650 0.71117282
v 0.36286517 -0.09428406 0.71881267
v 0.53257644 0.29030031 0.71881267
v 0.36286517 0.32703281 0.69935117
v 0.36286517 -0.09428406 0.44495768
v 0.61392975 -0.09428406 0.71881267
v 0.58330550 0.28270219 0.71881267
v 0.36286517 0.39561694 0.61351682
v 0.36286517 0.33629141 0.68852135
v 0.61392975 -0.09428406 0.44495768
v 0.36286517 0.41976982 0.44495768
v 0.61392975 0.27606015 0.71881267
v 0.60021519 0.27973341 0.71881267
v 0.36286517 0.39586853 0.61314153
v 0.61392975 0.24707670 0.44495768
v 0.36286517 0.41790806 0.52939810
v 0.44434133 0.40739147 0.44495768
v 0.61392975 0.30997485 0.63080700
v 0.36286517 0.40568063 0.59700403
v 0.55889952 0.33986402 0.44495768
v 0.61392975 0.28858947 0.49883870
v 0.36286517 0.41619721 0.54644701
v 0.44807720 0.40160483 0.49556831
v 0.46496232 0.39939086 0.47865342
v 0.45272245 0.40497619 0.44495768
v 0.61392975 0.31359779 0.61710889
v 0.48809025 0.38827046 0.50122448
v 0.46496232 0.39742842 0.49556831
v 0.36286517 0.40849847 0.58486069
v 0.55253381 0.34826723 0.44495768
v 0.61392975 0.29035062 0.50165338
v 0.36286517 0.40955517 0.58011595
v 0.49153113 0.38937745 0.48993896
v 0.48187197 0.39345325 0.47865342
v 0.49541450 0.39053478 0.44495768
v 0.61392975 0.31430222 0.61389211
v 0.54402980 0.35812964 0.44495768
v 0.61392975 0.29417485 0.51248320
v 0.61392975 0.29246401 0.50733636
v 0.51566678 0.37881059 0.47865342
v 0.50074789 0.38610672 0.47865342
v 0.50394304 0.38751564 0.44495768
v 0.53496052 0.36653285 0.44495768
v 0.52657943 0.37403031 0.44495768
v 0.52643193 0.37413094 0.44495768
v 0.51566678 0.38122588 0.44495768
f 1 2 3
f 1 3 6
f 1 6 11
f 1 11 10
f 1 10 16
f 1 16 21
f 1 21 31
f 1 31 34
f 1 34 24
f 1 24 18
f 1 18 13
f 1 13 7
f 1 7 4
f 1 4 8
f 1 8 14
f 1 14 15
f 1 15 9
f 1 9 5
f 1 5 2
f 2 5 3
f 3 5 6
f 4 7 12
f 4 12 8
f 5 9 10
f 5 10 11
f 5 11 6
f 7 13 19
f 7 19 27
f 7 27 37
f 7 37 44
f 7 44 48
f 7 48 47
f 7 47 46
f 7 46 45
f 7 45 39
f 7 39 32
f 7 32 22
f 7 22 17
f 7 17 12
f 8 12 17
f 8 17 23
f 8 23 33
f 8 33 41
f 8 41 40
f 8 40 38
f 8 38 28
f 8 28 20
f 8 20 14
f 9 15 10
f 10 15 16
f 13 18 19
f 14 20 21
f 14 21 15
f 15 21 16
f 17 22 23
f 18 24 25
f 18 25 26
f 18 26 19
f 19 26 27
f 20 28 29
f 20 29 21
f 21 29 30
f 21 30 31
f 22 32 33
f 22 33 23
f 24 34 30
f 24 30 25
f 25 30 26
f 26 30 35
f 26 35 36
f 26 36 37
f 26 37 27
f 28 38 29
f 29 35 30
f 29 38 35
f 30 34 31
f 32 39 40
f 32 40 41
f 32 41 33
f 35 42 43
f 35 43 44
f 35 44 36
f 35 38 42
f 36 44 37
f 38 40 39
f 38 39 45
f 38 45 46
f 38 46 47
f 38 47 48
f 38 48 42
f 42 48 44
f 42 44 43

