# https://github.com/mikedh/trimesh
v -0.61712389 0.00171687 0.22914951
v -0.60966197 0.00171687 0.22970940
v -0.62829044 0.00171687 0.23155706
v -0.61712389 0.00847716 0.22562215
v -0.60308337 0.00171687 0.23088517
v -0.54396801 0.02100654 0.22858962
v -0.63042617 0.00847716 0.22987738
v -0.63656976 0.00171687 0.23760391
v -0.61712389 0.02537785 0.22063908
v -0.54396801 0.08756737 0.20093076
v -0.54396801 0.07610539 0.20529795
v -0.54396801 0.05493503 0.21403229
v -0.54396801 0.03724648 0.22147893
v -0.54396801 0.00171687 0.24185914
v -0.63250918 0.02537785 0.22780574
v -0.63887686 0.00847716 0.23637216
v -0.64652335 0.00171687 0.24594637
v -0.54396801 0.11471017 0.19751541
v -0.54396801 0.10990680 0.19706751
v -0.54396801 0.09562380 0.19891516
v -0.54396801 0.00171687 0.76905663
v -0.64097307 0.02537785 0.23558831
v -0.62923966 0.04227858 0.23032528
v -0.54396801 0.12685834 0.19902713
v -0.64726165 0.00847716 0.24482658
v -0.65514547 0.00171687 0.25770417
v -0.65572554 0.00847716 0.25636041
v -0.54396801 0.26135239 0.76905663
v -0.57918148 0.00171687 0.76905663
v -0.63770355 0.04227858 0.23833177
v -0.64674747 0.02537785 0.24404271
v -0.67863866 0.07613081 0.30025622
v -0.67863866 0.09216741 0.30428747
v -0.67863866 0.10990680 0.30932652
v -0.65985203 0.10251117 0.28368332
v -0.65869183 0.14985855 0.30182392
v -0.65598922 0.16060893 0.30423147
v -0.54396801 0.13933690 0.20647372
v -0.64753852 0.16060893 0.29745673
v -0.64428215 0.17074934 0.30008823
v -0.66051120 0.00171687 0.26548671
v -0.66081440 0.00847716 0.26481483
v -0.67863866 0.05917927 0.29812861
v -0.67863866 0.26135239 0.76905663
v -0.54396801 0.26135239 0.35820538
v -0.60201548 0.02339552 0.76905663
v -0.62591738 0.01660982 0.72426497
v -0.61485634 0.00171687 0.71429884
v -0.67863866 0.06985340 0.29936036
v -0.67863866 0.12030138 0.31464553
v -0.66306879 0.16060893 0.31268589
v -0.67419578 0.10990680 0.30395153
v -0.66094626 0.17087642 0.31587728
v -0.54396801 0.14739333 0.21442426
v -0.62991199 0.20711763 0.31531741
v -0.61712389 0.21817297 0.31985255
v -0.67863866 0.00171687 0.29762472
v -0.67863866 0.26135239 0.49330814
v -0.67863866 0.10096088 0.76905663
v -0.54396801 0.26130155 0.34420800
v -0.55026983 0.26135239 0.34745540
v -0.60888418 0.03010497 0.76905663
v -0.67445946 0.08624581 0.75455533
v -0.67863866 0.00171687 0.61530935
v -0.67863866 0.12723956 0.31822885
v -0.67863866 0.14370823 0.32729915
v -0.65979927 0.18645558 0.33435382
v -0.64118401 0.20073857 0.32108430
v -0.67863866 0.15077348 0.33211425
v -0.67771579 0.15407737 0.33312207
v -0.67863866 0.15588180 0.33648144
v -0.67863866 0.16007522 0.34045671
v -0.67863866 0.20538945 0.39611030
v -0.67863866 0.20681267 0.39795796
v -0.62819812 0.22267138 0.33082651
v -0.61223280 0.26135239 0.39834988
v -0.67770264 0.09974096 0.76905663
v -0.67863866 0.09859732 0.76592121
v -0.58332112 0.26135239 0.36912336
v -0.66922553 0.09102377 0.76905663
v -0.66977925 0.09158289 0.76905663
v -0.67863866 0.09694536 0.76345766
v -0.67863866 0.08937181 0.75175586
v -0.59570051 0.26135239 0.37920146
v -0.59538412 0.26135239 0.37892152
f 1 2 5
f 1 5 14
f 1 14 21
f 1 21 29
f 1 29 48
f 1 48 64
f 1 64 57
f 1 57 41
f 1 41 26
f 1 26 17
f 1 17 8
f 1 8 3
f 1 3 4
f 1 4 2
f 2 4 6
f 2 6 5
f 3 7 4
f 3 8 7
f 4 7 9
f 4 9 10
f 4 10 11
f 4 11 12
f 4 12 13
f 4 13 6
f 5 6 14
f 6 13 12
f 6 12 11
f 6 11 10
f 6 10 20
f 6 20 19
f 6 19 18
f 6 18 24
f 6 24 38
f 6 38 54
f 6 54 60
f 6 60 45
f 6 45 28
f 6 28 21
f 6 21 14
f 7 15 9
f 7 8 16
f 7 16 15
f 8 17 16
f 9 18 19
f 9 19 20
f 9 20 10
f 9 15 18
f 15 16 22
f 15 22 23
f 15 23 24
f 15 24 18
f 16 17 25
f 16 25 22
f 17 26 27
f 17 27 25
f 21 28 44
f 21 44 59
f 21 59 77
f 21 77 81
f 21 81 80
f 21 80 62
f 21 62 46
f 21 46 29
f 22 30 23
f 22 25 27
f 22 27 31
f 22 31 32
f 22 32 33
f 22 33 34
f 22 34 35
f 22 35 30
f 23 30 35
f 23 35 36
f 23 36 37
f 23 37 24
f 24 37 39
f 24 39 40
f 24 40 38
f 26 41 27
f 27 41 42
f 27 42 43
f 27 43 31
f 28 45 61
f 28 61 79
f 28 79 85
f 28 85 84
f 28 84 76
f 28 76 58
f 28 58 44
f 29 46 47
f 29 47 48
f 31 43 49
f 31 49 32
f 32 49 43
f 32 43 57
f 32 57 64
f 32 64 83
f 32 83 82
f 32 82 78
f 32 78 59
f 32 59 44
f 32 44 58
f 32 58 74
f 32 74 73
f 32 73 72
f 32 72 71
f 32 71 69
f 32 69 66
f 32 66 65
f 32 65 50
f 32 50 34
f 32 34 33
f 34 50 51
f 34 51 36
f 34 36 52
f 34 52 35
f 35 52 36
f 36 51 37
f 37 40 39
f 37 51 53
f 37 53 40
f 38 40 55
f 38 55 56
f 38 56 54
f 40 53 55
f 41 57 42
f 42 57 43
f 45 60 61
f 46 62 47
f 47 62 63
f 47 63 64
f 47 64 48
f 50 65 51
f 51 65 66
f 51 66 53
f 53 67 68
f 53 68 55
f 53 66 69
f 53 69 70
f 53 70 71
f 53 71 72
f 53 72 73
f 53 73 74
f 53 74 67
f 54 56 60
f 55 68 75
f 55 75 56
f 56 75 60
f 58 76 75
f 58 75 74
f 59 78 77
f 60 75 61
f 61 75 79
f 62 80 63
f 63 80 81
f 63 81 77
f 63 77 78
f 63 78 82
f 63 82 83
f 63 83 64
f 67 74 68
f 68 74 75
f 69 71 70
f 75 76 84
f 75 84 85
f 75 85 79

