# https://github.com/mikedh/trimesh
v 0.26922027 -0.26302111 0.56594605
v 0.21053986 -0.26302111 0.70119507
v 0.26922027 -0.31862629 0.53018463
v 0.26922027 -0.26302111 0.20511015
v 0.20398831 -0.26302111 0.70970049
v 0.19093885 -0.27983439 0.69185199
v 0.19093885 -0.28325801 0.68450643
v 0.19093885 -0.31862629 0.59217108
v 0.26922027 -0.31862629 0.28475179
v 0.26922027 -0.26837698 0.21148922
v 0.22705280 -0.26302111 0.07430716
v 0.19444067 -0.26302111 0.71375991
v 0.19291581 -0.26302111 0.71427538
v 0.19093885 -0.26302111 0.71414651
v 0.19093885 -0.31862629 0.29074424
v 0.26512076 -0.31862629 0.28352752
v 0.19093885 -0.29542842 0.10671789
v 0.19093885 -0.29240760 0.08983596
v 0.19093885 -0.29148230 0.08700078
v 0.19093885 -0.28734565 0.07611127
v 0.21663930 -0.26868179 0.06966782
v 0.22675398 -0.26302111 0.07372718
v 0.26922027 -0.30793091 0.26683887
v 0.26922027 -0.27147947 0.21535529
v 0.26922027 -0.30078430 0.25627152
v 0.19093885 -0.26302111 0.05665195
v 0.19093885 -0.29777435 0.12411536
v 0.25512867 -0.31862629 0.28153003
v 0.26206338 -0.31862629 0.28268985
v 0.19093885 -0.27423359 0.06206451
v 0.19444067 -0.27414650 0.06193561
v 0.20536758 -0.27205097 0.06296657
v 0.21091533 -0.26302111 0.05774730
v 0.19444067 -0.26302111 0.05600758
f 1 2 3
f 1 3 9
f 1 9 23
f 1 23 25
f 1 25 24
f 1 24 10
f 1 10 4
f 1 4 11
f 1 11 22
f 1 22 33
f 1 33 34
f 1 34 26
f 1 26 14
f 1 14 13
f 1 13 12
f 1 12 5
f 1 5 2
f 2 5 3
f 3 5 6
f 3 6 7
f 3 7 8
f 3 8 15
f 3 15 28
f 3 28 29
f 3 29 16
f 3 16 9
f 4 10 11
f 5 12 6
f 6 12 13
f 6 13 14
f 6 14 26
f 6 26 30
f 6 30 20
f 6 20 19
f 6 19 18
f 6 18 17
f 6 17 27
f 6 27 15
f 6 15 8
f 6 8 7
f 9 16 17
f 9 17 18
f 9 18 19
f 9 19 20
f 9 20 21
f 9 21 22
f 9 22 11
f 9 11 23
f 10 24 11
f 11 24 25
f 11 25 23
f 15 27 28
f 16 29 17
f 17 29 28
f 17 28 27
f 20 30 31
f 20 31 32
f 20 32 21
f 21 32 33
f 21 33 22
f 26 34 30
f 30 34 31
f 31 34 33
f 31 33 32

