# https://github.com/mikedh/trimesh
v 0.19093885 0.40216516 0.74539685
v 0.21135208 0.39750374 0.74539685
v 0.19444067 0.41093422 0.73089623
v 0.19093885 0.41107265 0.73154829
v 0.19093885 -0.00730183 0.74539685
v 0.19444067 0.41938014 0.71748238
v 0.22697619 0.39339616 0.74539685
v 0.19093885 0.41767249 0.72114635
v 0.19093885 -0.00730183 0.42818414
v 0.26922027 -0.00730183 0.74539685
v 0.20319905 0.42279541 0.70714254
v 0.19444067 0.42348776 0.70903662
v 0.19093885 0.42293388 0.71127226
v 0.19093885 0.41965706 0.71797919
v 0.23761958 0.38979623 0.74539685
v 0.22401842 0.42427230 0.69223826
v 0.26922027 -0.00730183 0.42818414
v 0.19093885 0.45920994 0.42818414
v 0.26922027 0.36030465 0.74539685
v 0.22909109 0.42750303 0.68261258
v 0.21135208 0.43161063 0.68152581
v 0.19093885 0.42371849 0.70953343
v 0.23984941 0.38827319 0.74539685
v 0.23836286 0.39002702 0.74409272
v 0.23528247 0.42187240 0.68894690
v 0.26922027 0.43904119 0.42818414
v 0.19093885 0.46419444 0.51248645
v 0.26922027 0.46193295 0.54630053
v 0.26922027 0.46128682 0.53915890
v 0.20402662 0.45773304 0.42818414
v 0.25611717 0.37447352 0.74539685
v 0.26922027 0.45745612 0.57340769
v 0.23962718 0.42491850 0.67767553
v 0.19093885 0.43073370 0.68503452
v 0.19093885 0.42722609 0.69844838
v 0.19093885 0.42639539 0.70114977
v 0.26922027 0.46045605 0.56319205
v 0.26206338 0.46054837 0.56319205
v 0.22955083 0.45182553 0.42818414
v 0.26922027 0.44028735 0.43119603
v 0.19093885 0.46410214 0.51633673
v 0.26922027 0.46119455 0.55605041
v 0.26922027 0.46031758 0.52937797
v 0.21657034 0.45561007 0.42818414
v 0.19093885 0.46230219 0.53453237
v 0.19093885 0.46304059 0.52999898
v 0.22909109 0.45196395 0.42818414
v 0.26922027 0.45782535 0.51577782
f 1 2 3
f 1 3 4
f 1 4 8
f 1 8 14
f 1 14 13
f 1 13 22
f 1 22 36
f 1 36 35
f 1 35 34
f 1 34 45
f 1 45 46
f 1 46 41
f 1 41 27
f 1 27 18
f 1 18 9
f 1 9 5
f 1 5 10
f 1 10 19
f 1 19 31
f 1 31 23
f 1 23 15
f 1 15 7
f 1 7 2
f 2 6 3
f 2 7 6
f 3 6 8
f 3 8 4
f 5 9 17
f 5 17 10
f 6 11 12
f 6 12 13
f 6 13 14
f 6 14 8
f 6 7 11
f 7 15 16
f 7 16 11
f 9 18 30
f 9 30 44
f 9 44 47
f 9 47 39
f 9 39 26
f 9 26 17
f 10 17 26
f 10 26 40
f 10 40 48
f 10 48 43
f 10 43 29
f 10 29 28
f 10 28 42
f 10 42 37
f 10 37 32
f 10 32 19
f 11 16 20
f 11 20 21
f 11 21 12
f 12 22 13
f 12 21 22
f 15 23 24
f 15 24 25
f 15 25 16
f 16 25 20
f 18 27 28
f 18 28 29
f 18 29 30
f 19 32 31
f 20 25 33
f 20 33 32
f 20 32 21
f 21 34 35
f 21 35 36
f 21 36 22
f 21 32 37
f 21 37 38
f 21 38 34
f 23 31 32
f 23 32 33
f 23 33 24
f 24 33 25
f 26 39 40
f 27 41 28
f 28 41 42
f 29 43 30
f 30 43 44
f 34 38 45
f 37 42 38
f 38 42 46
f 38 46 45
f 39 47 48
f 39 48 40
f 41 46 42
f 43 48 44
f 44 48 47

