# https://github.com/mikedh/trimesh
v 0.25172565 -0.00329789 0.21303030
v 0.24684580 -0.00329789 0.19335589
v 0.14829335 -0.00329789 0.21303030
v 0.23786893 -0.07901632 0.21303030
v 0.23786893 -0.07900225 0.21301710
v 0.24479220 -0.00329789 0.18703528
v 0.14787653 -0.00329789 0.08916471
v 0.14787653 -0.00331195 0.21303030
v 0.23624232 -0.08533440 0.21303030
v 0.24433471 -0.00329789 0.18575532
v 0.24451771 -0.00329789 0.18620397
v 0.14787653 -0.00329789 0.08850494
v 0.14787653 -0.14585567 0.21303030
v 0.19363520 -0.10649785 0.14645931
v 0.19176460 -0.10649785 0.14304169
v 0.24123399 -0.00329789 0.17961944
v 0.22187727 -0.12062557 0.21303030
v 0.21358154 -0.12472037 0.19513728
v 0.21275807 -0.12241266 0.19054526
v 0.23589665 -0.00329789 0.17281059
v 0.14787653 -0.02405326 0.08029737
v 0.14787653 -0.14637632 0.20729028
v 0.15243104 -0.14513803 0.21303030
v 0.20698359 -0.12501587 0.18173071
v 0.19283205 -0.11067706 0.14771287
v 0.18717958 -0.11218271 0.13990117
v 0.18519714 -0.10905885 0.13532235
v 0.18803354 -0.10665264 0.13792185
v 0.19284223 -0.09780170 0.14123390
v 0.23640499 -0.00329789 0.17332522
v 0.22168411 -0.12108994 0.21303030
v 0.22027101 -0.12401680 0.21303030
v 0.21443553 -0.12578980 0.20023072
v 0.21072481 -0.12704216 0.19305240
v 0.20787824 -0.12722508 0.18715404
v 0.14787653 -0.03092013 0.07822568
v 0.14787653 -0.02692384 0.07928131
v 0.14787653 -0.14639040 0.20710554
v 0.14787653 -0.14677032 0.20041546
v 0.15318335 -0.14496917 0.21303030
v 0.20492999 -0.12960316 0.18530667
v 0.19232374 -0.13047559 0.16254454
v 0.18549196 -0.11677001 0.14186729
v 0.18406868 -0.11402608 0.13792185
v 0.18257422 -0.10665264 0.13237977
v 0.14787653 -0.03780106 0.07874031
v 0.15285802 -0.04466793 0.08532484
v 0.18596979 -0.10447157 0.13447784
v 0.17887368 -0.11699515 0.13475495
v 0.18028680 -0.11336472 0.13358056
v 0.15716855 -0.03780106 0.08796392
v 0.15373233 -0.03780106 0.08421642
v 0.15041811 -0.03092013 0.08090437
v 0.21684495 -0.12767537 0.21303030
v 0.21117212 -0.12922323 0.20023072
v 0.20613978 -0.13054595 0.18988549
v 0.14787653 -0.03281977 0.07825208
v 0.14787653 -0.14705174 0.19335589
v 0.20995217 -0.13171388 0.21303030
v 0.17872118 -0.13745503 0.16232022
v 0.17511213 -0.13852446 0.15962835
v 0.17275355 -0.13803196 0.15454811
v 0.16588110 -0.13813045 0.14760731
v 0.16501696 -0.13061631 0.13487371
v 0.17758255 -0.10649785 0.12867185
v 0.14788669 -0.04509007 0.08168289
v 0.15024529 -0.03780106 0.08077240
v 0.14787653 -0.04507600 0.08166970
v 0.17516297 -0.11329436 0.13021572
v 0.17283488 -0.11095850 0.12755024
v 0.21675344 -0.12775980 0.21303030
v 0.21332739 -0.13071480 0.21303030
v 0.20689210 -0.13096810 0.19335589
v 0.14787653 -0.14682660 0.18667900
v 0.16146892 -0.14316803 0.15900817
v 0.16834135 -0.14131060 0.15900817
v 0.16146892 -0.14209860 0.15213335
v 0.16823969 -0.13921396 0.15221251
v 0.16120459 -0.13896066 0.14531130
v 0.16330902 -0.13659667 0.14304169
v 0.15873417 -0.13769424 0.14140545
v 0.15459647 -0.13599159 0.13701137
v 0.16146892 -0.13130580 0.13412156
v 0.15459647 -0.12854780 0.12941079
v 0.15849018 -0.12408716 0.12786693
v 0.15459647 -0.12511438 0.12732592
v 0.14787653 -0.12604308 0.12678490
v 0.20268324 -0.13257223 0.19335589
v 0.14787653 -0.14681253 0.18648107
v 0.15459647 -0.14397011 0.15900817
v 0.15459647 -0.14339318 0.15213335
v 0.14787653 -0.14288660 0.14659126
v 0.14787653 -0.14260518 0.14585231
v 0.15459647 -0.14081809 0.14527171
v 0.14787653 -0.13938281 0.13929418
v 0.14787653 -0.13932652 0.13918862
v 0.15459647 -0.13824303 0.14044218
v 0.14787653 -0.13687809 0.13574461
v 0.15459647 -0.13255816 0.13284161
v 0.14787653 -0.12947652 0.12879061
v 0.14787653 -0.12611344 0.12682449
v 0.14787653 -0.14399824 0.15272714
v 0.14787653 -0.14392789 0.15198819
v 0.14787653 -0.13344467 0.13222142
f 1 2 6
f 1 6 11
f 1 11 10
f 1 10 16
f 1 16 30
f 1 30 20
f 1 20 12
f 1 12 7
f 1 7 3
f 1 3 8
f 1 8 13
f 1 13 23
f 1 23 40
f 1 40 59
f 1 59 72
f 1 72 71
f 1 71 54
f 1 54 32
f 1 32 31
f 1 31 17
f 1 17 9
f 1 9 4
f 1 4 5
f 1 5 2
f 2 5 6
f 3 7 8
f 4 9 5
f 5 9 10
f 5 10 11
f 5 11 6
f 7 12 21
f 7 21 37
f 7 37 36
f 7 36 57
f 7 57 46
f 7 46 68
f 7 68 87
f 7 87 101
f 7 101 100
f 7 100 104
f 7 104 98
f 7 98 96
f 7 96 95
f 7 95 93
f 7 93 92
f 7 92 103
f 7 103 102
f 7 102 89
f 7 89 74
f 7 74 58
f 7 58 39
f 7 39 38
f 7 38 22
f 7 22 13
f 7 13 8
f 9 14 15
f 9 15 16
f 9 16 10
f 9 17 18
f 9 18 19
f 9 19 14
f 12 20 21
f 13 22 23
f 14 19 15
f 15 19 24
f 15 24 25
f 15 25 26
f 15 26 27
f 15 27 28
f 15 28 29
f 15 29 16
f 16 29 30
f 17 31 18
f 18 31 32
f 18 32 33
f 18 33 34
f 18 34 35
f 18 35 24
f 18 24 19
f 20 30 36
f 20 36 37
f 20 37 21
f 22 38 23
f 23 38 39
f 23 39 40
f 24 35 41
f 24 41 42
f 24 42 25
f 25 42 26
f 26 42 43
f 26 43 44
f 26 44 27
f 27 45 46
f 27 46 47
f 27 47 48
f 27 48 28
f 27 44 49
f 27 49 50
f 27 50 45
f 28 48 29
f 29 48 30
f 30 51 52
f 30 52 53
f 30 53 36
f 30 48 51
f 32 54 33
f 33 54 55
f 33 55 34
f 34 55 56
f 34 56 41
f 34 41 35
f 36 53 52
f 36 52 57
f 39 58 59
f 39 59 40
f 41 56 42
f 42 56 60
f 42 60 61
f 42 61 62
f 42 62 63
f 42 63 64
f 42 64 49
f 42 49 43
f 43 49 44
f 45 50 65
f 45 65 66
f 45 66 46
f 46 57 67
f 46 67 47
f 46 66 68
f 47 67 48
f 48 67 52
f 48 52 51
f 49 64 69
f 49 69 50
f 50 69 70
f 50 70 65
f 52 67 57
f 54 71 55
f 55 71 72
f 55 72 73
f 55 73 56
f 56 73 60
f 58 74 75
f 58 75 59
f 59 75 76
f 59 76 72
f 60 73 61
f 61 73 76
f 61 76 62
f 62 76 77
f 62 77 78
f 62 78 63
f 63 78 77
f 63 77 79
f 63 79 80
f 63 80 64
f 64 80 81
f 64 81 82
f 64 82 83
f 64 83 84
f 64 84 85
f 64 85 70
f 64 70 69
f 65 70 68
f 65 68 66
f 68 70 85
f 68 85 86
f 68 86 87
f 72 76 88
f 72 88 73
f 73 88 76
f 74 89 75
f 75 89 90
f 75 90 91
f 75 91 77
f 75 77 76
f 77 91 92
f 77 92 93
f 77 93 94
f 77 94 79
f 79 81 80
f 79 94 81
f 81 94 95
f 81 95 96
f 81 96 97
f 81 97 82
f 82 97 96
f 82 96 98
f 82 98 99
f 82 99 83
f 83 99 84
f 84 99 100
f 84 100 86
f 84 86 85
f 86 100 101
f 86 101 87
f 89 102 90
f 90 102 91
f 91 102 103
f 91 103 92
f 93 95 94
f 98 104 99
f 99 104 100

