# https://github.com/mikedh/trimesh
v 0.15459200 -0.14015712 0.27182729
v 0.15060209 -0.14010603 0.27182729
v 0.15725193 -0.13964619 0.27182729
v 0.15459200 -0.13983779 0.27581781
v 0.14772051 -0.13992720 0.27182729
v 0.15039051 -0.13757682 0.29467754
v 0.15751893 -0.13958231 0.27182729
v 0.15751893 -0.13956954 0.27212534
v 0.15751893 -0.13944180 0.27368180
v 0.15751893 -0.13926296 0.27581781
v 0.15751893 -0.13757682 0.29456164
v 0.15459200 -0.13728303 0.29870118
v 0.14373061 -0.13964619 0.27182729
v 0.13397752 -0.13516259 0.30330435
v 0.12711612 -0.13465163 0.30330435
v 0.12711612 -0.13557134 0.29643271
v 0.12711612 -0.13640164 0.28956108
v 0.12402797 -0.13739800 0.27907976
v 0.15751893 -0.00967309 0.27182729
v 0.15751893 -0.13084505 0.34281210
v 0.15588670 -0.13084505 0.34284522
v 0.12692972 -0.13841989 0.27182729
v 0.12024462 -0.13292718 0.31017598
v 0.11337313 -0.13333593 0.30330435
v 0.12024462 -0.13583959 0.28956108
v 0.12024462 -0.13663157 0.28268944
v 0.12167535 -0.13762793 0.27449315
v 0.10605832 -0.00967309 0.27182729
v 0.15751893 -0.00967309 0.42429480
v 0.15751893 -0.13065345 0.34382215
v 0.15751893 -0.12969541 0.34796169
v 0.14084901 -0.12072822 0.37887577
v 0.10605832 -0.11878661 0.37155707
v 0.10605832 -0.12020451 0.36513250
v 0.12024462 -0.13084505 0.32181636
v 0.12024462 -0.13172644 0.31704762
v 0.12065269 -0.13778121 0.27182729
v 0.11337313 -0.13222462 0.31017598
v 0.10613389 -0.13127937 0.31065617
v 0.10605832 -0.13245455 0.30330435
v 0.10605832 -0.13251842 0.30287383
v 0.10605832 -0.13433229 0.28956108
v 0.10605832 -0.13514981 0.28268944
v 0.10605832 -0.13583959 0.27581781
v 0.11709603 -0.13738522 0.27202599
v 0.10605832 -0.13619726 0.27182729
v 0.10605832 -0.00967309 0.41732380
v 0.10605832 -0.04467322 0.43749165
v 0.10605832 -0.04817323 0.43898189
v 0.10605832 -0.05114952 0.43971043
v 0.10605832 -0.05840501 0.44075360
v 0.10650164 -0.05840501 0.44067081
v 0.11337313 -0.07214959 0.43949518
v 0.11929753 -0.07900910 0.43818708
v 0.12253680 -0.08588139 0.43689554
v 0.15751893 -0.09275368 0.41485665
v 0.15751893 -0.12808593 0.35433658
v 0.10605832 -0.11867166 0.37203726
v 0.15751893 -0.11905486 0.38867820
v 0.15751893 -0.11796910 0.39265216
v 0.11058726 -0.10989608 0.40964082
v 0.11383157 -0.12972096 0.32338939
v 0.11643105 -0.13058959 0.32074009
v 0.10605832 -0.13002754 0.31684892
v 0.11728243 -0.13742354 0.27182729
v 0.10605832 -0.13125381 0.31073896
v 0.10605832 -0.06527731 0.44098542
v 0.10650164 -0.06527731 0.44093574
v 0.11337313 -0.07900910 0.43964421
v 0.11910106 -0.08588139 0.43798839
v 0.11804816 -0.09030111 0.43757443
v 0.12030003 -0.09265149 0.43639880
v 0.12711612 -0.09275368 0.43331899
v 0.15751893 -0.09962596 0.41386316
v 0.13073826 -0.09671355 0.43062000
v 0.10605832 -0.10967892 0.40844864
v 0.15751893 -0.11689610 0.39626183
v 0.10650164 -0.10624277 0.42008903
v 0.10605832 -0.10621723 0.42008903
v 0.10605832 -0.10831213 0.41321738
v 0.10605832 -0.07214959 0.44091917
v 0.10650164 -0.07214959 0.44090263
v 0.10650164 -0.07900910 0.44038932
v 0.11337313 -0.08588139 0.43891564
v 0.11337313 -0.09087594 0.43777314
v 0.11337313 -0.09431208 0.43658094
v 0.12398767 -0.10315152 0.43052067
v 0.12661234 -0.09925552 0.43154727
v 0.15751893 -0.10575737 0.41146223
v 0.11337313 -0.10661322 0.42008903
v 0.15751893 -0.11543989 0.39955691
v 0.12163504 -0.10315152 0.43052067
v 0.11970558 -0.10418621 0.42763954
v 0.11337313 -0.10436503 0.42649704
v 0.10605832 -0.10416065 0.42598372
v 0.10605832 -0.07259668 0.44088606
v 0.10605832 -0.07900910 0.44040588
v 0.10605832 -0.07944341 0.44033964
v 0.10650164 -0.08588139 0.43929647
v 0.10605832 -0.08625184 0.43923025
v 0.10650164 -0.09116973 0.43793872
v 0.10605832 -0.09120805 0.43793872
v 0.10605832 -0.09142521 0.43785593
v 0.10605832 -0.09464420 0.43656439
v 0.11970558 -0.10030297 0.43252420
v 0.15751893 -0.11195265 0.40565030
v 0.15751893 -0.10919352 0.40909440
v 0.10605832 -0.09903838 0.43313684
v 0.11705573 -0.10303657 0.43037164
v 0.10605832 -0.10247452 0.42941125
v 0.10605832 -0.08588139 0.43931304
f 1 2 5
f 1 5 13
f 1 13 22
f 1 22 37
f 1 37 65
f 1 65 46
f 1 46 28
f 1 28 19
f 1 19 7
f 1 7 3
f 1 3 4
f 1 4 2
f 2 4 6
f 2 6 5
f 3 7 8
f 3 8 9
f 3 9 4
f 4 9 10
f 4 10 11
f 4 11 12
f 4 12 6
f 5 6 13
f 6 12 14
f 6 14 15
f 6 15 16
f 6 16 17
f 6 17 18
f 6 18 13
f 7 19 29
f 7 29 56
f 7 56 74
f 7 74 89
f 7 89 107
f 7 107 106
f 7 106 91
f 7 91 77
f 7 77 60
f 7 60 59
f 7 59 57
f 7 57 31
f 7 31 30
f 7 30 20
f 7 20 11
f 7 11 10
f 7 10 9
f 7 9 8
f 11 20 12
f 12 20 21
f 12 21 14
f 13 18 22
f 14 21 15
f 15 23 24
f 15 24 25
f 15 25 16
f 15 21 23
f 16 25 17
f 17 25 18
f 18 25 26
f 18 26 27
f 18 27 22
f 19 28 47
f 19 47 29
f 20 30 21
f 21 30 31
f 21 31 32
f 21 32 33
f 21 33 34
f 21 34 35
f 21 35 36
f 21 36 23
f 22 27 37
f 23 38 24
f 23 36 38
f 24 38 39
f 24 39 40
f 24 40 41
f 24 41 42
f 24 42 25
f 25 42 43
f 25 43 26
f 26 43 27
f 27 44 45
f 27 45 37
f 27 43 44
f 28 46 44
f 28 44 43
f 28 43 42
f 28 42 41
f 28 41 40
f 28 40 66
f 28 66 64
f 28 64 34
f 28 34 33
f 28 33 58
f 28 58 76
f 28 76 80
f 28 80 79
f 28 79 95
f 28 95 110
f 28 110 108
f 28 108 104
f 28 104 103
f 28 103 102
f 28 102 100
f 28 100 111
f 28 111 98
f 28 98 97
f 28 97 96
f 28 96 81
f 28 81 67
f 28 67 51
f 28 51 50
f 28 50 49
f 28 49 48
f 28 48 47
f 29 47 48
f 29 48 49
f 29 49 50
f 29 50 51
f 29 51 52
f 29 52 53
f 29 53 54
f 29 54 55
f 29 55 56
f 31 57 32
f 32 58 33
f 32 57 59
f 32 59 60
f 32 60 61
f 32 61 58
f 34 62 63
f 34 63 35
f 34 64 62
f 35 63 39
f 35 39 38
f 35 38 36
f 37 45 65
f 39 66 40
f 39 63 66
f 44 46 65
f 44 65 45
f 51 67 68
f 51 68 52
f 52 68 53
f 53 68 69
f 53 69 54
f 54 69 70
f 54 70 55
f 55 70 71
f 55 71 72
f 55 72 73
f 55 73 56
f 56 73 75
f 56 75 74
f 58 61 76
f 60 77 61
f 61 77 78
f 61 78 79
f 61 79 80
f 61 80 76
f 62 64 63
f 63 64 66
f 67 81 82
f 67 82 68
f 68 82 69
f 69 82 83
f 69 83 84
f 69 84 70
f 70 84 71
f 71 84 85
f 71 85 86
f 71 86 72
f 72 87 88
f 72 88 75
f 72 75 73
f 72 86 87
f 74 75 89
f 75 88 89
f 77 90 78
f 77 91 87
f 77 87 92
f 77 92 93
f 77 93 94
f 77 94 90
f 78 95 79
f 78 90 95
f 81 96 82
f 82 96 83
f 83 96 97
f 83 97 98
f 83 98 99
f 83 99 84
f 84 99 85
f 85 99 100
f 85 100 101
f 85 101 86
f 86 101 102
f 86 102 103
f 86 103 104
f 86 104 105
f 86 105 87
f 87 105 104
f 87 104 92
f 87 91 106
f 87 106 107
f 87 107 89
f 87 89 88
f 90 94 95
f 92 104 108
f 92 108 109
f 92 109 93
f 93 109 94
f 94 109 95
f 95 109 110
f 98 111 99
f 99 111 100
f 100 102 101
f 108 110 109

