# https://github.com/mikedh/trimesh
v 0.07932548 0.03092125 0.45847277
v 0.07932548 0.02462708 0.45765298
v 0.07932548 0.03779307 0.45755764
v 0.07758007 0.03779307 0.45963573
v 0.07815633 0.03092125 0.45929256
v 0.07706475 0.02462708 0.45847277
v 0.07932548 0.02462708 0.27182729
v 0.07646633 0.04466490 0.45885407
v 0.07932548 0.04415809 0.45437380
v 0.07213883 0.04466490 0.46194258
v 0.07213883 0.03779307 0.46186633
v 0.07280929 0.02462708 0.45843464
v 0.06503530 0.04527524 0.46413503
v 0.07213883 0.03092125 0.46020767
v 0.02271888 0.02462708 0.27182729
v 0.07932548 0.08029373 0.27182729
v 0.07567951 0.04823432 0.45801521
v 0.07180083 0.05093182 0.45984543
v 0.07932548 0.08026649 0.42497571
v 0.06503530 0.05116615 0.46381093
v 0.06259173 0.04862668 0.46478325
v 0.05395889 0.04789100 0.46482138
v 0.04938759 0.04843050 0.46464980
v 0.02271888 0.02462708 0.45241012
v 0.06259173 0.04797274 0.46478325
v 0.05839721 0.04785285 0.46484046
v 0.02271888 0.08029373 0.27182729
v 0.07932548 0.08029373 0.42240196
v 0.06928523 0.05554210 0.45879685
v 0.05507263 0.06189622 0.46480233
v 0.07664918 0.08029373 0.42356492
v 0.02271888 0.08029373 0.41437563
v 0.02271888 0.07210858 0.44758671
v 0.02464159 0.06983069 0.45464072
v 0.03091952 0.06876804 0.45799613
v 0.03509187 0.06875169 0.45797709
v 0.04466113 0.06646290 0.46131343
v 0.05152641 0.06259375 0.46533612
v 0.06128406 0.05320427 0.46464980
v 0.05152641 0.05839764 0.46600342
v 0.04466113 0.05839764 0.46659442
v 0.04466113 0.05282825 0.46546959
v 0.04009537 0.05408164 0.46512642
v 0.02271888 0.02959158 0.45359214
v 0.05634706 0.05839764 0.46501203
v 0.02271888 0.06990154 0.45422129
v 0.02732343 0.06874624 0.45793896
v 0.04466113 0.06343298 0.46586995
v 0.03900380 0.06301336 0.46550772
v 0.03871013 0.05839764 0.46560306
v 0.03527473 0.05839764 0.46444010
v 0.02271888 0.03092125 0.45387812
v 0.02271888 0.06739477 0.45706196
v 0.02271888 0.05839764 0.45952132
v 0.03091952 0.05839764 0.46274331
v 0.02271888 0.06433759 0.45868247
v 0.02271888 0.05706251 0.45933068
v 0.02271888 0.05189638 0.45830119
f 1 2 7
f 1 7 16
f 1 16 28
f 1 28 19
f 1 19 9
f 1 9 3
f 1 3 4
f 1 4 5
f 1 5 2
f 2 5 6
f 2 6 12
f 2 12 24
f 2 24 15
f 2 15 7
f 3 8 4
f 3 9 8
f 4 10 11
f 4 11 5
f 4 8 10
f 5 11 6
f 6 11 13
f 6 13 14
f 6 14 12
f 7 15 27
f 7 27 16
f 8 9 17
f 8 17 18
f 8 18 10
f 9 19 17
f 10 18 20
f 10 20 21
f 10 21 13
f 10 13 11
f 12 14 22
f 12 22 23
f 12 23 24
f 13 21 25
f 13 25 26
f 13 26 14
f 14 26 22
f 15 24 44
f 15 44 52
f 15 52 58
f 15 58 57
f 15 57 54
f 15 54 56
f 15 56 53
f 15 53 46
f 15 46 33
f 15 33 32
f 15 32 27
f 16 27 32
f 16 32 31
f 16 31 28
f 17 29 18
f 17 19 29
f 18 30 20
f 18 29 30
f 19 28 31
f 19 31 32
f 19 32 33
f 19 33 34
f 19 34 35
f 19 35 36
f 19 36 37
f 19 37 38
f 19 38 30
f 19 30 29
f 20 30 39
f 20 39 21
f 21 39 40
f 21 40 25
f 22 26 41
f 22 41 42
f 22 42 23
f 23 42 24
f 24 42 43
f 24 43 44
f 25 40 41
f 25 41 26
f 30 38 40
f 30 40 45
f 30 45 39
f 33 46 34
f 34 46 47
f 34 47 35
f 35 47 48
f 35 48 36
f 36 48 37
f 37 48 38
f 38 48 40
f 39 45 40
f 40 48 41
f 41 48 49
f 41 49 50
f 41 50 43
f 41 43 42
f 43 50 51
f 43 51 44
f 44 51 52
f 46 53 47
f 47 53 49
f 47 49 48
f 49 54 55
f 49 55 51
f 49 51 50
f 49 53 56
f 49 56 54
f 51 55 57
f 51 57 58
f 51 58 52
f 54 57 55

