# https://github.com/mikedh/trimesh
v 0.06121348 0.08030413 0.27182728
v 0.06121348 0.15346291 0.27182728
v 0.10605832 0.08030413 0.27182728
v 0.06121348 0.08030413 0.41936771
v 0.07235006 0.14975196 0.27182728
v 0.06121348 0.17770365 0.35065903
v 0.07460635 0.17919010 0.34043736
v 0.08184930 0.18569726 0.35443875
v 0.08588341 0.18569726 0.35443875
v 0.08965852 0.18557254 0.35471811
v 0.10382397 0.17893023 0.34737232
v 0.10605832 0.17173702 0.33434051
v 0.10605832 0.13267326 0.27182728
v 0.10605832 0.08030413 0.43948236
v 0.10193203 0.08030413 0.43775684
v 0.06121348 0.08183216 0.41974567
v 0.07901797 0.14742352 0.27182728
v 0.06121348 0.17872233 0.35404434
v 0.06137590 0.17881589 0.35420867
v 0.08097576 0.18600912 0.35825133
v 0.08588341 0.18648728 0.35825133
v 0.09227038 0.18593635 0.35869503
v 0.09424133 0.18509436 0.35670657
v 0.09962746 0.18165369 0.35139854
v 0.10605832 0.17966828 0.35172721
v 0.10605832 0.17954353 0.35136567
v 0.10605832 0.17849365 0.34848980
v 0.10605832 0.17696563 0.34507162
v 0.10605832 0.17338980 0.33772583
v 0.08360956 0.14501192 0.27182728
v 0.10605832 0.09275713 0.43971244
v 0.09962746 0.09962811 0.43917013
v 0.09513244 0.09962811 0.43788832
v 0.09569870 0.09502321 0.43759251
v 0.06121348 0.09275713 0.42235861
v 0.06121348 0.17877432 0.35825133
v 0.06136712 0.17884708 0.35825133
v 0.07754304 0.18483449 0.35825133
v 0.08108989 0.18599872 0.36319783
v 0.08637944 0.18616503 0.36535062
v 0.09224403 0.18591556 0.36475901
v 0.09645373 0.18559332 0.36221181
v 0.09645373 0.18559332 0.36129153
v 0.09909631 0.18415884 0.35869503
v 0.10605832 0.17973065 0.35194084
v 0.10605832 0.09997114 0.43895649
v 0.09962746 0.10477354 0.43805265
v 0.09527290 0.10453446 0.43775684
v 0.06121348 0.09962811 0.42166840
v 0.06121348 0.17854564 0.36152160
v 0.06167439 0.17873273 0.36198174
v 0.06527392 0.17648745 0.37887543
v 0.08442165 0.18522951 0.36778279
v 0.08900446 0.18555175 0.36863733
v 0.08961024 0.18555175 0.36863733
v 0.09419305 0.18517752 0.36679677
v 0.09909631 0.18417962 0.36475901
v 0.10605832 0.18136263 0.36510412
v 0.10605832 0.18145619 0.35864574
v 0.10605832 0.18145619 0.35828420
v 0.10605832 0.10098983 0.43866069
v 0.10441219 0.10386920 0.43782259
v 0.09962746 0.10820384 0.43612992
v 0.09275324 0.11337007 0.43391140
v 0.08839868 0.11765273 0.43105196
v 0.08738467 0.11337007 0.43208726
v 0.06149881 0.15868111 0.39642647
v 0.06121348 0.15908651 0.39581843
v 0.06121348 0.17835852 0.36242545
v 0.06121348 0.17482429 0.37872753
v 0.06121348 0.17363927 0.38324676
v 0.06567338 0.17348334 0.38617193
v 0.06822817 0.17185136 0.38926144
v 0.09264349 0.18211106 0.37198978
v 0.09962746 0.18090526 0.37118453
v 0.06893929 0.17185136 0.38926144
v 0.10605832 0.17961631 0.36975481
v 0.10605832 0.10576106 0.43529182
v 0.09688830 0.11724734 0.43082190
v 0.09275324 0.11776708 0.43119986
v 0.06527392 0.16343155 0.39509535
v 0.06527392 0.15999087 0.39737961
v 0.06121348 0.16752711 0.39011599
v 0.06121348 0.17310913 0.38447928
v 0.06364975 0.17125885 0.38875200
v 0.06567338 0.16871212 0.39121703
v 0.09567675 0.17847286 0.37532579
v 0.10605832 0.17939800 0.36998489
v 0.09962746 0.17753734 0.37461915
v 0.10605832 0.10820384 0.43318832
v 0.10463606 0.11114557 0.43146280
v 0.10605832 0.17542718 0.37366600
f 1 2 5
f 1 5 17
f 1 17 30
f 1 30 13
f 1 13 3
f 1 3 14
f 1 14 15
f 1 15 4
f 1 4 16
f 1 16 35
f 1 35 49
f 1 49 68
f 1 68 83
f 1 83 84
f 1 84 71
f 1 71 70
f 1 70 69
f 1 69 50
f 1 50 36
f 1 36 18
f 1 18 6
f 1 6 2
f 2 6 7
f 2 7 8
f 2 8 9
f 2 9 10
f 2 10 11
f 2 11 12
f 2 12 5
f 3 13 12
f 3 12 29
f 3 29 28
f 3 28 27
f 3 27 26
f 3 26 25
f 3 25 45
f 3 45 60
f 3 60 59
f 3 59 58
f 3 58 77
f 3 77 88
f 3 88 92
f 3 92 90
f 3 90 78
f 3 78 61
f 3 61 46
f 3 46 31
f 3 31 14
f 4 15 16
f 5 12 17
f 6 18 7
f 7 18 8
f 8 18 19
f 8 19 20
f 8 20 21
f 8 21 9
f 9 21 10
f 10 21 22
f 10 22 23
f 10 23 24
f 10 24 11
f 11 24 25
f 11 25 26
f 11 26 27
f 11 27 28
f 11 28 29
f 11 29 12
f 12 13 30
f 12 30 17
f 14 31 32
f 14 32 33
f 14 33 34
f 14 34 15
f 15 34 35
f 15 35 16
f 18 36 19
f 19 36 37
f 19 37 38
f 19 38 20
f 20 38 39
f 20 39 21
f 21 39 40
f 21 40 41
f 21 41 42
f 21 42 43
f 21 43 22
f 22 43 23
f 23 43 44
f 23 44 24
f 24 44 25
f 25 44 45
f 31 46 32
f 32 47 48
f 32 48 33
f 32 46 47
f 33 48 35
f 33 35 34
f 35 48 49
f 36 50 51
f 36 51 37
f 37 51 39
f 37 39 38
f 39 51 52
f 39 52 53
f 39 53 40
f 40 53 54
f 40 54 55
f 40 55 41
f 41 55 56
f 41 56 42
f 42 56 57
f 42 57 58
f 42 58 59
f 42 59 60
f 42 60 43
f 43 60 44
f 44 60 45
f 46 61 47
f 47 62 63
f 47 63 64
f 47 64 48
f 47 61 62
f 48 64 65
f 48 65 66
f 48 66 49
f 49 66 65
f 49 65 67
f 49 67 68
f 50 69 51
f 51 69 70
f 51 70 52
f 52 70 71
f 52 71 72
f 52 72 53
f 53 72 54
f 54 72 73
f 54 73 76
f 54 76 55
f 55 74 75
f 55 75 56
f 55 76 74
f 56 75 77
f 56 77 57
f 57 77 58
f 61 78 62
f 62 78 79
f 62 79 63
f 63 79 80
f 63 80 64
f 64 80 65
f 65 80 73
f 65 73 81
f 65 81 82
f 65 82 67
f 67 82 81
f 67 81 83
f 67 83 68
f 71 84 72
f 72 84 85
f 72 85 73
f 73 85 86
f 73 86 81
f 73 80 76
f 74 87 75
f 74 76 87
f 75 88 77
f 75 87 89
f 75 89 88
f 76 80 79
f 76 79 87
f 78 90 79
f 79 90 91
f 79 91 92
f 79 92 89
f 79 89 87
f 81 86 85
f 81 85 83
f 83 85 84
f 88 89 92
f 90 92 91

