# https://github.com/mikedh/trimesh
v 0.15751893 0.14153374 0.36862752
v 0.15751893 0.14348419 0.36691193
v 0.11774590 0.17275666 0.36961835
v 0.11337313 0.17007529 0.37445320
v 0.10605832 0.14153374 0.39534308
v 0.15751893 0.14153374 0.34282022
v 0.15751893 0.14461382 0.36555414
v 0.15751893 0.14572781 0.36404038
v 0.11014394 0.17875657 0.36872844
v 0.11280890 0.17510973 0.37062752
v 0.10970062 0.17162314 0.37537063
v 0.10605832 0.17390193 0.37480183
v 0.10605832 0.14153374 0.30161845
v 0.15748870 0.14153374 0.34273766
v 0.15751893 0.14380471 0.34689361
v 0.11435046 0.17707972 0.36513212
v 0.15751893 0.14674798 0.35826057
v 0.10650164 0.17952660 0.36966422
v 0.10605832 0.17939759 0.36998532
v 0.10605832 0.17543024 0.37367338
v 0.10704572 0.17510582 0.37352661
v 0.11091472 0.17917481 0.36513212
v 0.10650164 0.18119171 0.36513212
v 0.10605832 0.18136761 0.36511377
v 0.10605832 0.14940592 0.30804046
v 0.10650164 0.14925738 0.30815055
v 0.11080891 0.15194659 0.31284779
v 0.10699535 0.14153374 0.30216891
v 0.15683379 0.14317540 0.34452664
v 0.15540811 0.14153374 0.33931565
v 0.15751893 0.14432457 0.34792113
v 0.15339805 0.14602878 0.34452664
v 0.11449655 0.17729080 0.35826057
v 0.15751893 0.14565354 0.35213214
v 0.11894992 0.17331562 0.35138901
v 0.10605832 0.17961649 0.36976514
v 0.11106081 0.17924125 0.35826057
v 0.10650164 0.18129334 0.35826057
v 0.10605832 0.18146532 0.35864589
v 0.10605832 0.15333028 0.31148082
v 0.10650164 0.15322865 0.31159091
v 0.10650164 0.15666444 0.31514137
v 0.11040086 0.16522065 0.32698539
v 0.13722184 0.14153374 0.32093035
v 0.15197236 0.14491479 0.34012298
v 0.15444086 0.14153374 0.33781105
v 0.15751893 0.14455909 0.34861838
v 0.14454673 0.15137592 0.34081105
v 0.14556435 0.15209903 0.34452664
v 0.11033537 0.17884257 0.35424222
v 0.12578615 0.16663951 0.34452664
v 0.11812373 0.17256514 0.34618719
v 0.10605832 0.18146141 0.35828809
v 0.10605832 0.15370553 0.31183862
v 0.10605832 0.15677387 0.31501293
v 0.10650164 0.16314511 0.32242576
v 0.14767516 0.14153374 0.32931566
v 0.10650164 0.16602193 0.32586612
v 0.10638074 0.16968832 0.33120556
v 0.10858727 0.17138471 0.33503125
v 0.11296508 0.16658088 0.33104960
v 0.11756454 0.16547471 0.33350831
v 0.15143837 0.14153374 0.33346244
v 0.12446625 0.16558024 0.34021472
v 0.14843586 0.14153374 0.33008630
v 0.10626990 0.17960087 0.35172847
v 0.10605832 0.17973765 0.35193030
v 0.10841095 0.17804127 0.34966425
v 0.12034538 0.17026290 0.34415050
v 0.11622450 0.17151761 0.34160004
v 0.11371066 0.17365959 0.34415050
v 0.10605832 0.16324282 0.32232484
v 0.10605832 0.16605320 0.32572851
v 0.10605832 0.17000493 0.33155418
v 0.10605832 0.17174040 0.33433400
v 0.10638074 0.17317881 0.33745326
v 0.10605832 0.17697419 0.34507710
v 0.11164519 0.17243225 0.33960922
v 0.11371066 0.17036062 0.33745326
v 0.12001289 0.16687795 0.33782023
v 0.10605832 0.17954613 0.35135232
v 0.10605832 0.17849860 0.34848077
v 0.10605832 0.17302247 0.33695785
f 1 2 3
f 1 3 4
f 1 4 5
f 1 5 13
f 1 13 28
f 1 28 44
f 1 44 57
f 1 57 65
f 1 65 63
f 1 63 46
f 1 46 30
f 1 30 14
f 1 14 6
f 1 6 15
f 1 15 31
f 1 31 47
f 1 47 34
f 1 34 17
f 1 17 8
f 1 8 7
f 1 7 2
f 2 7 3
f 3 7 8
f 3 8 9
f 3 9 10
f 3 10 4
f 4 10 11
f 4 11 5
f 5 11 12
f 5 12 20
f 5 20 19
f 5 19 36
f 5 36 24
f 5 24 39
f 5 39 53
f 5 53 67
f 5 67 81
f 5 81 82
f 5 82 77
f 5 77 83
f 5 83 75
f 5 75 74
f 5 74 73
f 5 73 72
f 5 72 55
f 5 55 54
f 5 54 40
f 5 40 25
f 5 25 13
f 6 14 15
f 8 16 9
f 8 17 16
f 9 18 19
f 9 19 20
f 9 20 21
f 9 21 11
f 9 11 10
f 9 16 22
f 9 22 23
f 9 23 24
f 9 24 18
f 11 21 20
f 11 20 12
f 13 25 26
f 13 26 27
f 13 27 28
f 14 29 15
f 14 30 29
f 15 29 32
f 15 32 31
f 16 17 33
f 16 33 22
f 17 34 35
f 17 35 33
f 18 24 36
f 18 36 19
f 22 33 37
f 22 37 23
f 23 37 38
f 23 38 39
f 23 39 24
f 25 40 41
f 25 41 26
f 26 41 27
f 27 41 42
f 27 42 43
f 27 43 44
f 27 44 28
f 29 45 32
f 29 30 45
f 30 46 45
f 31 32 48
f 31 48 49
f 31 49 47
f 32 45 48
f 33 35 50
f 33 50 37
f 34 47 49
f 34 49 51
f 34 51 35
f 35 51 52
f 35 52 50
f 37 50 38
f 38 53 39
f 38 50 53
f 40 54 41
f 41 54 42
f 42 54 55
f 42 55 56
f 42 56 43
f 43 57 44
f 43 56 58
f 43 58 59
f 43 59 60
f 43 60 61
f 43 61 62
f 43 62 57
f 45 46 63
f 45 63 48
f 48 64 51
f 48 51 49
f 48 63 65
f 48 65 64
f 50 66 67
f 50 67 53
f 50 52 68
f 50 68 66
f 51 64 69
f 51 69 52
f 52 69 70
f 52 70 71
f 52 71 68
f 55 72 56
f 56 72 58
f 57 62 64
f 57 64 65
f 58 72 73
f 58 73 59
f 59 74 75
f 59 75 60
f 59 73 74
f 60 76 77
f 60 77 78
f 60 78 70
f 60 70 79
f 60 79 61
f 60 75 76
f 61 79 80
f 61 80 62
f 62 80 64
f 64 70 69
f 64 80 70
f 66 68 81
f 66 81 67
f 68 71 82
f 68 82 81
f 70 80 79
f 70 78 71
f 71 78 82
f 75 83 76
f 76 83 77
f 77 82 78

