# https://github.com/mikedh/trimesh
v -0.21643791 0.20898764 0.27067861
v -0.22330442 0.20877591 0.26893429
v -0.22330442 0.20890294 0.27067861
v -0.18895569 0.20746324 0.27067861
v -0.31261761 0.19734299 0.14528172
v -0.32635062 0.19619969 0.13154254
v -0.32635062 0.19789347 0.14528172
v -0.32635062 0.19844395 0.15215130
v -0.28513539 0.20576948 0.27067861
v -0.18249403 0.20699745 0.27067861
v -0.31261761 0.19636907 0.13841213
v -0.32635062 0.19509875 0.12467295
v -0.33323332 0.19526814 0.13154254
v -0.30575110 0.20335586 0.27067861
v -0.29211525 0.20517666 0.27067861
v -0.28707872 0.20564244 0.27067861
v -0.33323332 0.19581860 0.13841213
v -0.33323332 0.19611502 0.14528172
v -0.33323332 0.19636907 0.15215130
v -0.18132805 0.20687042 0.27067861
v -0.18132805 0.19797816 0.21397759
v -0.18132805 0.19687721 0.20708647
v -0.30575110 0.19581860 0.13841213
v -0.32635062 0.19336265 0.11855709
v -0.33323332 0.19293921 0.11948308
v -0.33323332 0.19416718 0.12467295
v -0.31948412 0.19450593 0.12467295
v -0.30565392 0.19192295 0.11799718
v -0.30575110 0.19044090 0.11093378
v -0.33694188 0.19251577 0.12060288
v -0.33786497 0.19323561 0.13154254
v -0.31203459 0.20111162 0.27067861
v -0.33788117 0.19353201 0.15215130
v -0.33770302 0.19327796 0.15902089
v -0.33093368 0.19370140 0.22084718
v -0.18132805 -0.10969432 0.27067861
v -0.18132805 0.18192974 0.13154254
v -0.31261761 0.19052559 0.11093378
v -0.30575110 0.18802728 0.10406419
v -0.31261761 0.18802728 0.10406419
v -0.32635062 0.19204998 0.11513306
v -0.33323332 0.18993277 0.11093378
v -0.33323332 0.19183825 0.11605905
v -0.18132805 0.18027830 0.12467295
v -0.18132805 0.17689078 0.11097685
v -0.33773541 0.18641821 0.10598079
v -0.33895002 0.18756149 0.11093378
v -0.34008363 0.18891650 0.11804025
v -0.34380838 0.18595242 0.12008605
v -0.34384078 0.18603712 0.12467295
v -0.31459335 0.19933317 0.27067861
v -0.34107149 0.18891650 0.15215130
v -0.34081238 0.18891650 0.15902089
v -0.33026970 0.19302388 0.22771677
v -0.34319299 0.18434334 0.15902089
v -0.18208919 -0.10990604 0.27067861
v -0.18132805 -0.19002114 0.25836073
v -0.30575110 0.18603712 0.10001565
v -0.31261761 0.18603712 0.09997259
v -0.18132805 0.17405372 0.10397806
v -0.33323332 0.18701103 0.10492558
v -0.33323332 0.18463976 0.10148002
v -0.33757346 0.18002425 0.09960650
v -0.34372742 0.17210589 0.10031715
v -0.34244805 0.18231083 0.11067536
v -0.34322539 0.18476678 0.11549914
v -0.34450476 0.18231083 0.11780337
v -0.34484484 0.18205675 0.12467295
v -0.34434283 0.18133691 0.15215130
v -0.34329016 0.18476678 0.15215130
v -0.31548405 0.19806283 0.27067861
v -0.32989722 0.19251577 0.23150689
v -0.34418086 0.18091347 0.15902089
v -0.34380838 0.17968548 0.16384468
v -0.18895569 -0.11109168 0.27067861
v -0.20270490 -0.19577994 0.25724093
v -0.18132805 -0.19506009 0.25749934
v -0.19621087 -0.11223497 0.27067861
v -0.20270490 -0.11287013 0.27067861
v -0.23013853 -0.11494499 0.27067861
v -0.23018712 -0.11494499 0.27067861
v -0.23689168 -0.11481795 0.27067861
v -0.18132805 0.17197885 0.10033867
v -0.18132805 0.17172479 0.10005873
v -0.18132805 0.16837960 0.09648396
v -0.18132805 0.16494974 0.09290919
v -0.18132805 0.16024953 0.08870991
v -0.31477148 0.17888094 0.09359830
v -0.31948412 0.17892329 0.09357676
v -0.32413196 0.17875391 0.09366291
v -0.32871502 0.17841516 0.09383518
v -0.32639921 0.18116753 0.09654856
v -0.33323332 0.18120987 0.09820673
v -0.33323332 0.17689078 0.09478271
v -0.33681232 0.17193650 0.09366291
v -0.33948442 0.17430778 0.09766837
v -0.34129821 0.16829491 0.09579485
v -0.34429422 0.16829491 0.09924040
v -0.34537928 0.16829491 0.10406419
v -0.34413229 0.18019361 0.11280730
v -0.34589751 0.17519700 0.11780337
v -0.34580033 0.17519700 0.12467295
v -0.34533067 0.17519700 0.15215130
v -0.31734642 0.19492937 0.27067861
v -0.33243979 0.18891650 0.22084718
v -0.33107943 0.18891650 0.22771677
v -0.33002680 0.18891650 0.23198065
v -0.32312790 0.18646055 0.25930825
v -0.32188090 0.18878948 0.26178476
v -0.32259348 0.19103372 0.25752087
v -0.34487723 0.17519700 0.15902089
v -0.34395414 0.17519700 0.16496449
v -0.34337114 0.17519700 0.16838851
v -0.20270490 -0.20954178 0.25459215
v -0.24299704 -0.11392873 0.27067861
v -0.24392014 -0.11371701 0.27067861
v -0.18132805 -0.20179280 0.25575503
v -0.18132805 0.15580340 0.08603960
v -0.18132805 0.09800366 0.06422489
v -0.32639921 0.17574748 0.09277998
v -0.18132805 0.09304940 0.06260978
v -0.33323332 0.17346090 0.09312453
v -0.33323332 0.16829491 0.09178938
v -0.33786497 0.16829491 0.09316760
v -0.34267477 0.16143516 0.09465350
v -0.34471530 0.16143516 0.09807752
v -0.34602704 0.16143516 0.10406419
v -0.34588129 0.16829491 0.13841213
v -0.34581650 0.16829491 0.14528172
v -0.34657767 0.14771566 0.10406419
v -0.34675581 0.14081357 0.10406419
v -0.31872295 0.19061028 0.27067861
v -0.33106325 0.18205675 0.22771677
v -0.31901446 0.18900119 0.27067861
v -0.31961367 0.18891650 0.26893429
v -0.32309551 0.18205675 0.25920059
v -0.32202666 0.18205675 0.26264615
v -0.31914402 0.18375053 0.27067861
v -0.34533067 0.16829491 0.15215130
v -0.34382460 0.17045448 0.16438305
v -0.20957141 -0.20954178 0.25388150
v -0.20957141 -0.21381854 0.25239560
v -0.20270490 -0.21441137 0.25278323
v -0.19582220 -0.21458073 0.25271862
v -0.19582220 -0.20954178 0.25429066
v -0.24923196 -0.11168449 0.27067861
v -0.25054373 -0.11104933 0.27067861
v -0.18132805 -0.20877959 0.25385996
v -0.32635062 0.16829491 0.09086338
v -0.18132805 0.09177907 0.06222217
v -0.33323332 0.16143516 0.09038962
v -0.33924152 0.16143516 0.09232775
v -0.34411607 0.14081357 0.09303840
v -0.33812408 0.12023432 0.08584579
v -0.34448858 0.13395382 0.09252156
v -0.34568697 0.14081357 0.09717307
v -0.34607562 0.13395382 0.09717307
v -0.34654527 0.13395382 0.10406419
v -0.34623759 0.12709407 0.10406419
v -0.34607562 0.12709407 0.09717307
v -0.32986485 0.17828814 0.23139921
v -0.32294975 0.17849985 0.25872682
v -0.31979180 0.18205675 0.26893429
v -0.31894969 0.17519700 0.26893429
v -0.31914402 0.18205675 0.27067861
v -0.34356549 0.12345248 0.13513885
v -0.34165451 0.16829491 0.17273854
v -0.34269096 0.12078480 0.13783069
v -0.21345811 -0.21331041 0.25198645
v -0.20270490 -0.21788358 0.24948841
v -0.19582220 -0.21801061 0.25009138
v -0.18895569 -0.21432667 0.25243867
v -0.18208919 -0.20954178 0.25366615
v -0.18895569 -0.21775654 0.25009138
v -0.25287575 -0.10893212 0.27067861
v -0.18132805 -0.20954178 0.25362308
v -0.32635062 0.16143516 0.08965744
v -0.18132805 0.08661309 0.06121003
v -0.18132805 0.08610496 0.06112388
v -0.32635062 0.11333223 0.08184032
v -0.33323332 0.11333223 0.08283093
v -0.33744391 0.12709407 0.08640568
v -0.33852895 0.11333223 0.08528589
v -0.33323332 0.10647248 0.08188339
v -0.33687711 0.07645049 0.07985913
v -0.33893382 0.10647248 0.08481212
v -0.33707143 0.07213139 0.07966532
v -0.34456955 0.12709407 0.09232775
v -0.34578411 0.12023432 0.09717307
v -0.34528210 0.11333223 0.10406419
v -0.34450476 0.12023432 0.09232775
v -0.34431043 0.11333223 0.09237082
v -0.34409989 0.10647248 0.09243543
v -0.34079620 0.12023432 0.14528172
v -0.31851243 -0.00345289 0.14528172
v -0.32160559 0.17578983 0.26144020
v -0.31637475 -0.00819543 0.14971788
v -0.31736262 0.16812555 0.26932192
v -0.31689298 0.16812555 0.27067861
v -0.31830191 0.17519700 0.27067861
v -0.34429422 0.10592200 0.10449489
v -0.33352481 0.01716870 0.08343390
v -0.33911195 0.09275298 0.13154254
v -0.21961204 -0.20585784 0.25162035
v -0.21830030 -0.20954178 0.25000524
v -0.21993595 -0.21305636 0.24500918
v -0.21601685 -0.21449604 0.24770102
v -0.21222733 -0.21970437 0.24434160
v -0.20978193 -0.21767187 0.24791637
v -0.25577459 -0.10545990 0.27067861
v -0.20764426 -0.22012781 0.24535373
v -0.20270490 -0.22059360 0.24604285
v -0.19582220 -0.22101704 0.24666735
v -0.18895569 -0.22101704 0.24666735
v -0.18132805 -0.21377620 0.25220179
v -0.18132805 -0.21682497 0.24955301
v -0.32635062 0.10647248 0.08080665
v -0.18132805 -0.10639147 0.05214390
v -0.19264805 -0.10965198 0.05248844
v -0.31261761 -0.02403214 0.06396647
v -0.31261761 -0.01717239 0.06433255
v -0.31452857 -0.00137803 0.06642143
v -0.32635062 0.02402846 0.07139596
v -0.31775129 -0.01027029 0.06579693
v -0.32635062 0.01716870 0.07072839
v -0.33026970 0.02402846 0.07270958
v -0.33051263 0.01716870 0.07249424
v -0.33046404 0.01026661 0.07247271
v -0.33699047 0.06527164 0.07970838
v -0.34528210 0.11333223 0.09717307
v -0.34471530 0.10647248 0.09717307
v -0.33673136 0.05451623 0.07992373
v -0.34380838 0.10185697 0.09299532
v -0.31985659 -0.00345289 0.13841213
v -0.32320887 -0.02864765 0.09514881
v -0.31703873 -0.01039733 0.14538939
v -0.28158877 -0.04740610 0.23757969
v -0.26668974 -0.07166929 0.26839593
v -0.26738610 -0.06497891 0.27067861
v -0.31582413 -0.01276860 0.14777975
v -0.26542655 -0.15457910 0.20708647
v -0.26707841 -0.14771935 0.20700033
v -0.26508647 -0.14771935 0.21397759
v -0.33449650 0.02402846 0.08343390
v -0.33240739 0.01026661 0.08343390
v -0.33124138 0.00340686 0.07656431
v -0.32992962 -0.00070052 0.08761165
v -0.32779194 -0.00345289 0.09717307
v -0.22840572 -0.18892019 0.25332159
v -0.22722352 -0.19319695 0.25228793
v -0.23980671 -0.17664039 0.25116812
v -0.24179866 -0.18023964 0.24658122
v -0.22136107 -0.20954178 0.24658122
v -0.22050276 -0.21364916 0.24145594
v -0.21617880 -0.21754483 0.24180050
v -0.22636521 -0.20539205 0.24376016
v -0.22425991 -0.20916069 0.24145594
v -0.22508582 -0.21102383 0.23458636
v -0.21370103 -0.22029720 0.23975470
v -0.20978193 -0.22076298 0.24180050
v -0.20270490 -0.22211799 0.24145594
v -0.25624422 -0.10469771 0.27067861
v -0.23522364 -0.18019730 0.25267555
v -0.19582220 -0.22288018 0.24145594
v -0.18895569 -0.22283784 0.24145594
v -0.18208919 -0.22046656 0.24580596
v -0.18132805 -0.22008547 0.24602131
v -0.31666626 -0.00595119 0.06616302
v -0.18132805 -0.11333592 0.05184240
v -0.18132805 -0.14081726 0.05072261
v -0.20851876 -0.14081726 0.05233769
v -0.30575110 -0.03775164 0.06308355
v -0.31261761 -0.03089189 0.06392341
v -0.31867438 -0.02403214 0.06521549
v -0.31865818 -0.01717239 0.06534470
v -0.21196822 -0.14081726 0.05259611
v -0.20915034 -0.14771935 0.05220849
v -0.32118455 -0.01027029 0.06678753
v -0.32209145 -0.01717239 0.06672292
v -0.32210764 -0.02403214 0.06683060
v -0.33031829 0.00340686 0.07251577
v -0.33527384 0.03088820 0.08343390
v -0.33261793 0.01716870 0.07656431
v -0.33201872 0.01026661 0.07656431
v -0.33004298 -0.00082755 0.07281726
v -0.32361373 -0.03093423 0.09026041
v -0.32314410 -0.03508396 0.08793466
v -0.32223718 -0.03093423 0.09732381
v -0.32089304 -0.03089189 0.10406419
v -0.32774335 -0.01027029 0.09030348
v -0.30205873 -0.10194534 0.11285037
v -0.30257695 -0.09737217 0.11547761
v -0.30149191 -0.09961642 0.11778183
v -0.27525668 -0.14581386 0.17758385
v -0.26568566 -0.16829860 0.19334730
v -0.26537798 -0.08585457 0.26206471
v -0.26492452 -0.07899482 0.26893429
v -0.26434153 -0.07912185 0.27067861
v -0.26474639 -0.07725871 0.27067861
v -0.26592860 -0.07179632 0.27067861
v -0.26367754 -0.16829860 0.20021688
v -0.26340223 -0.15457910 0.21397759
v -0.26137792 -0.09732984 0.26615631
v -0.26375851 -0.09275667 0.26206471
v -0.32649637 -0.02403214 0.07656431
v -0.33119279 0.00340686 0.08343390
v -0.32746804 -0.01717239 0.08343390
v -0.24654366 -0.16330199 0.25088817
v -0.24743436 -0.17194019 0.24498764
v -0.24746676 -0.17879994 0.23826880
v -0.24636552 -0.17651336 0.24283417
v -0.22165258 -0.21462308 0.23458636
v -0.22709396 -0.20657770 0.23917326
v -0.24816311 -0.17977386 0.23458636
v -0.22600891 -0.21216713 0.22771677
v -0.22777414 -0.20759394 0.23458636
v -0.26131313 -0.18565969 0.17680860
v -0.21410589 -0.22046656 0.23458636
v -0.20957141 -0.22173690 0.23458636
v -0.22257567 -0.21521590 0.22771677
v -0.20270490 -0.22292253 0.23458636
v -0.25847908 -0.09965875 0.27067861
v -0.24762871 -0.15872882 0.25205105
v -0.19582220 -0.22360004 0.23458636
v -0.18895569 -0.22347301 0.23458636
v -0.18208919 -0.22279549 0.23458636
v -0.18208919 -0.22182157 0.24145594
v -0.18132805 -0.22169456 0.24145594
v -0.18132805 -0.22038189 0.24565522
v -0.18132805 -0.14771935 0.05072261
v -0.20270490 -0.14771935 0.05184240
v -0.23705363 -0.14081726 0.05513722
v -0.24392014 -0.13395751 0.05591247
v -0.24392014 -0.14081726 0.05593399
v -0.31261761 -0.03775164 0.06420335
v -0.31823712 -0.03089189 0.06530164
v -0.26296497 -0.15457910 0.05909963
v -0.20816248 -0.15457910 0.05227311
v -0.22330442 -0.15457910 0.05371593
v -0.31731402 -0.03775164 0.06562464
v -0.32167038 -0.03089189 0.06751971
v -0.32466638 -0.02403214 0.07027616
v -0.32401860 -0.03089189 0.07096527
v -0.32337082 -0.03622725 0.07204201
v -0.32607531 -0.02403214 0.08343390
v -0.32461779 -0.03089189 0.08343390
v -0.32341939 -0.03614256 0.08343390
v -0.30176722 -0.11325122 0.09740996
v -0.30082795 -0.11333592 0.10406419
v -0.30141094 -0.10609506 0.11071843
v -0.29941900 -0.11333592 0.11093378
v -0.29974290 -0.10647617 0.11780337
v -0.27081936 -0.16143885 0.17960812
v -0.26897317 -0.16846798 0.17975886
v -0.26832539 -0.17287176 0.17756232
v -0.26756425 -0.17744493 0.17465513
v -0.26516744 -0.17520069 0.18647771
v -0.26296497 -0.17558180 0.19369185
v -0.26123216 -0.17210957 0.20407160
v -0.26309453 -0.08437253 0.27067861
v -0.25387981 -0.17050050 0.22993485
v -0.25452759 -0.16592733 0.23210986
v -0.25383123 -0.16300558 0.23669676
v -0.26081110 -0.10190300 0.26434739
v -0.26173419 -0.08975022 0.27067861
v -0.32507125 -0.03089189 0.07656431
v -0.25038177 -0.16829860 0.24145594
v -0.24816311 -0.17460789 0.24091757
v -0.25941837 -0.09728749 0.27067861
v -0.25049515 -0.17520069 0.23458636
v -0.26179896 -0.17956215 0.19162451
v -0.26975051 -0.18731112 0.13154254
v -0.26251153 -0.18062074 0.18647771
v -0.26552373 -0.18159465 0.17252319
v -0.26588001 -0.18307670 0.16586895
v -0.21757153 -0.21864576 0.22771677
v -0.21723145 -0.21881515 0.22084718
v -0.21413829 -0.22033954 0.22771677
v -0.20957141 -0.22169456 0.22771677
v -0.20270490 -0.22304957 0.22771677
v -0.22302911 -0.21538528 0.22084718
v -0.19582220 -0.22355770 0.22771677
v -0.18895569 -0.22334597 0.22771677
v -0.18208919 -0.22283784 0.22771677
v -0.18132805 -0.22275314 0.22771677
v -0.18132805 -0.22266847 0.23458636
v -0.18132805 -0.15457910 0.05139017
v -0.19582220 -0.15999914 0.05225157
v -0.20270490 -0.15919461 0.05233769
v -0.20270490 -0.15457910 0.05199315
v -0.26638204 -0.15457910 0.05991794
v -0.22330442 -0.16143885 0.05410355
v -0.26155605 -0.15860180 0.05927190
v -0.20673736 -0.15839007 0.05244538
v -0.29807486 -0.09961642 0.06538776
v -0.30150811 -0.09961642 0.06667985
v -0.31650431 -0.04304465 0.06599074
v -0.31587270 -0.04761782 0.06635683
v -0.30484421 -0.09961642 0.07010388
v -0.32272303 -0.04046166 0.07656431
v -0.32359754 -0.03698944 0.07656431
v -0.30918435 -0.08928444 0.07318335
v -0.30743532 -0.09961642 0.07656431
v -0.30685233 -0.09961642 0.08343390
v -0.29946759 -0.12023801 0.09717307
v -0.29886840 -0.12023801 0.10406419
v -0.28111911 -0.16266683 0.13154254
v -0.27720003 -0.16143885 0.15215130
v -0.27574252 -0.16143885 0.15891322
v -0.26884362 -0.17515834 0.17252319
v -0.26814724 -0.17896932 0.17006822
v -0.25277858 -0.17494661 0.22767370
v -0.25454379 -0.17249067 0.22536948
v -0.25310247 -0.16825625 0.23447868
v -0.26855211 -0.17964682 0.16586895
v -0.27319995 -0.18261092 0.13154254
v -0.26960476 -0.18726877 0.12467295
v -0.26513506 -0.19069864 0.12467295
v -0.25080284 -0.19713495 0.09030348
v -0.21379819 -0.22012781 0.22084718
v -0.26170180 -0.19260413 0.12467295
v -0.25744263 -0.19421321 0.09030348
v -0.20957141 -0.22127112 0.22084718
v -0.20270490 -0.22275314 0.22084718
v -0.19582220 -0.22317660 0.22084718
v -0.18132805 -0.22152517 0.20708647
v -0.18132805 -0.15999914 0.05220849
v -0.18208919 -0.16355606 0.05272532
v -0.18208919 -0.16012618 0.05220849
v -0.18895569 -0.16359840 0.05268226
v -0.19582220 -0.16342902 0.05272532
v -0.20270490 -0.16262448 0.05298374
v -0.26411481 -0.16110010 0.06062859
v -0.26913512 -0.16829860 0.06510781
v -0.25766934 -0.16270918 0.05989642
v -0.21643791 -0.16829860 0.05614937
v -0.22361213 -0.16889142 0.05731225
v -0.25766934 -0.16829860 0.06181301
v -0.26451965 -0.16829860 0.06293280
v -0.30367820 -0.10507881 0.07135289
v -0.26829300 -0.17219425 0.06596920
v -0.30427739 -0.10698430 0.07628435
v -0.30286846 -0.11109168 0.08343390
v -0.30157289 -0.11469093 0.09030348
v -0.27514332 -0.17930807 0.12671876
v -0.27506234 -0.17913871 0.13154254
v -0.27658462 -0.17520069 0.13154254
v -0.27919196 -0.16829860 0.13154254
v -0.27791259 -0.16829860 0.13841213
v -0.27026874 -0.17520069 0.16586895
v -0.27507854 -0.16554623 0.15656593
v -0.27483562 -0.17863055 0.13498810
v -0.27324854 -0.18180638 0.12452221
v -0.26732133 -0.18443171 0.08343390
v -0.26388807 -0.18824269 0.08343390
v -0.26087587 -0.19222303 0.09030348
v -0.24142616 -0.19950622 0.09290919
v -0.21225971 -0.21970437 0.21184565
v -0.21331236 -0.21995845 0.21643256
v -0.25660050 -0.19387445 0.08343390
v -0.25080284 -0.19620338 0.08343390
v -0.19517442 -0.22021251 0.20025995
v -0.18895569 -0.22063595 0.20021688
v -0.18132805 -0.22093235 0.20021688
v -0.18132805 -0.22021251 0.19472552
v -0.18132805 -0.16347136 0.05281147
v -0.18208919 -0.16829860 0.05438351
v -0.18895569 -0.16829860 0.05416816
v -0.24783923 -0.19243476 0.07307568
v -0.25039797 -0.18942832 0.07143904
v -0.25766934 -0.17456554 0.06476326
v -0.25114292 -0.18167935 0.06739050
v -0.25766934 -0.18206044 0.06846724
v -0.26451965 -0.17329520 0.06534470
v -0.26934565 -0.17473490 0.07006081
v -0.26835778 -0.17918103 0.07258037
v -0.25766934 -0.18752283 0.07158978
v -0.26187995 -0.18621016 0.07240810
v -0.30277130 -0.11066823 0.07839476
v -0.27128900 -0.17520069 0.07656431
v -0.26882742 -0.18007026 0.07656431
v -0.26634964 -0.18350014 0.07656431
v -0.26293260 -0.18714174 0.07656431
v -0.26003376 -0.19167256 0.08343390
v -0.24392014 -0.19666916 0.08343390
v -0.23912654 -0.19950622 0.09290919
v -0.18132805 -0.21961968 0.19168912
v -0.18895569 -0.22000078 0.19621142
v -0.19245373 -0.21987376 0.19677132
v -0.25528875 -0.19298522 0.07833016
v -0.25242231 -0.19205365 0.07374325
v -0.25039797 -0.19340866 0.07626282
v -0.18132805 -0.16834094 0.05464193
v -0.18132805 -0.16897610 0.05496495
v -0.18208919 -0.17329520 0.05761371
v -0.18895569 -0.17321051 0.05744146
v -0.24709429 -0.19243476 0.07307568
v -0.25760458 -0.19074098 0.07626282
v -0.24445456 -0.19357805 0.07634895
v -0.23705363 -0.19582228 0.08343390
v -0.23692407 -0.19836294 0.09049730
v -0.18132805 -0.19120677 0.09799140
v -0.18132805 -0.21809531 0.18645617
v -0.18132805 -0.21953499 0.19132303
v -0.18132805 -0.17321051 0.05772139
v -0.18208919 -0.17608992 0.06282513
v -0.18132805 -0.17625930 0.06342809
v -0.18132805 -0.18815800 0.09030348
v -0.18132805 -0.18841206 0.09090645
v -0.18132805 -0.19103741 0.09753917
f 1 2 3
f 1 3 9
f 1 9 16
f 1 16 15
f 1 15 14
f 1 14 32
f 1 32 51
f 1 51 71
f 1 71 104
f 1 104 132
f 1 132 134
f 1 134 138
f 1 138 165
f 1 165 200
f 1 200 199
f 1 199 239
f 1 239 300
f 1 300 299
f 1 299 298
f 1 298 360
f 1 360 365
f 1 365 369
f 1 369 322
f 1 322 262
f 1 262 210
f 1 210 175
f 1 175 147
f 1 147 146
f 1 146 116
f 1 116 115
f 1 115 82
f 1 82 81
f 1 81 80
f 1 80 79
f 1 79 78
f 1 78 75
f 1 75 56
f 1 56 36
f 1 36 20
f 1 20 10
f 1 10 4
f 1 4 5
f 1 5 6
f 1 6 7
f 1 7 8
f 1 8 2
f 2 8 3
f 3 8 9
f 4 10 11
f 4 11 5
f 5 11 6
f 6 11 12
f 6 12 26
f 6 26 13
f 6 13 7
f 7 13 17
f 7 17 8
f 8 14 15
f 8 15 16
f 8 16 9
f 8 17 18
f 8 18 19
f 8 19 14
f 10 20 21
f 10 21 11
f 11 22 23
f 11 23 12
f 11 21 22
f 12 24 25
f 12 25 26
f 12 23 27
f 12 27 28
f 12 28 29
f 12 29 24
f 13 26 30
f 13 30 31
f 13 31 17
f 14 19 32
f 17 31 18
f 18 31 19
f 19 31 33
f 19 33 34
f 19 34 35
f 19 35 32
f 20 36 57
f 20 57 77
f 20 77 117
f 20 117 148
f 20 148 176
f 20 176 215
f 20 215 216
f 20 216 267
f 20 267 329
f 20 329 328
f 20 328 386
f 20 386 385
f 20 385 426
f 20 426 464
f 20 464 465
f 20 465 487
f 20 487 504
f 20 504 503
f 20 503 502
f 20 502 510
f 20 510 509
f 20 509 508
f 20 508 507
f 20 507 505
f 20 505 494
f 20 494 493
f 20 493 466
f 20 466 427
f 20 427 387
f 20 387 330
f 20 330 270
f 20 270 269
f 20 269 218
f 20 218 179
f 20 179 178
f 20 178 150
f 20 150 121
f 20 121 119
f 20 119 118
f 20 118 87
f 20 87 86
f 20 86 85
f 20 85 84
f 20 84 83
f 20 83 60
f 20 60 45
f 20 45 44
f 20 44 37
f 20 37 22
f 20 22 21
f 22 28 23
f 22 37 28
f 23 28 27
f 24 29 38
f 24 38 39
f 24 39 40
f 24 40 41
f 24 41 42
f 24 42 43
f 24 43 25
f 25 43 30
f 25 30 26
f 28 37 29
f 29 39 38
f 29 37 44
f 29 44 45
f 29 45 39
f 30 43 42
f 30 42 46
f 30 46 47
f 30 47 48
f 30 48 49
f 30 49 31
f 31 49 50
f 31 50 33
f 32 35 51
f 33 50 52
f 33 52 53
f 33 53 34
f 34 53 35
f 35 54 51
f 35 53 55
f 35 55 54
f 36 56 57
f 39 58 59
f 39 59 40
f 39 45 60
f 39 60 58
f 40 59 61
f 40 61 42
f 40 42 41
f 42 61 46
f 46 61 62
f 46 62 63
f 46 63 64
f 46 64 65
f 46 65 66
f 46 66 47
f 47 66 49
f 47 49 48
f 49 66 67
f 49 67 68
f 49 68 50
f 50 53 52
f 50 68 69
f 50 69 55
f 50 55 70
f 50 70 53
f 51 54 72
f 51 72 71
f 53 70 55
f 54 55 72
f 55 69 73
f 55 73 74
f 55 74 72
f 56 75 57
f 57 76 77
f 57 75 78
f 57 78 79
f 57 79 80
f 57 80 81
f 57 81 82
f 57 82 76
f 58 60 83
f 58 83 84
f 58 84 85
f 58 85 86
f 58 86 87
f 58 87 88
f 58 88 89
f 58 89 59
f 59 89 90
f 59 90 91
f 59 91 92
f 59 92 62
f 59 62 61
f 62 92 91
f 62 91 93
f 62 93 63
f 63 93 94
f 63 94 95
f 63 95 96
f 63 96 64
f 64 96 95
f 64 95 97
f 64 97 98
f 64 98 99
f 64 99 100
f 64 100 66
f 64 66 65
f 66 100 67
f 67 100 99
f 67 99 101
f 67 101 68
f 68 101 102
f 68 102 103
f 68 103 69
f 69 103 73
f 71 72 104
f 72 105 106
f 72 106 107
f 72 107 108
f 72 108 109
f 72 109 110
f 72 110 104
f 72 74 105
f 73 103 111
f 73 111 74
f 74 111 112
f 74 112 113
f 74 113 105
f 76 114 77
f 76 82 115
f 76 115 116
f 76 116 114
f 77 114 117
f 87 118 88
f 88 118 119
f 88 119 89
f 89 120 90
f 89 119 121
f 89 121 120
f 90 120 91
f 91 120 122
f 91 122 95
f 91 95 94
f 91 94 93
f 95 122 123
f 95 123 124
f 95 124 97
f 97 124 125
f 97 125 98
f 98 125 126
f 98 126 99
f 99 126 127
f 99 127 101
f 101 128 129
f 101 129 102
f 101 127 130
f 101 130 131
f 101 131 128
f 102 129 103
f 103 129 111
f 104 110 132
f 105 113 106
f 106 113 133
f 106 133 107
f 107 133 108
f 108 134 135
f 108 135 109
f 108 133 136
f 108 136 137
f 108 137 138
f 108 138 134
f 109 135 132
f 109 132 110
f 111 129 139
f 111 139 140
f 111 140 112
f 112 140 113
f 113 140 133
f 114 141 142
f 114 142 143
f 114 143 144
f 114 144 145
f 114 145 117
f 114 116 146
f 114 146 147
f 114 147 141
f 117 145 148
f 120 149 123
f 120 123 122
f 120 121 150
f 120 150 149
f 123 149 151
f 123 151 124
f 124 151 152
f 124 152 125
f 125 153 126
f 125 152 154
f 125 154 153
f 126 153 155
f 126 155 156
f 126 156 127
f 127 156 157
f 127 157 130
f 128 131 129
f 129 131 158
f 129 158 159
f 129 159 139
f 130 157 131
f 131 157 160
f 131 160 158
f 132 135 134
f 133 140 161
f 133 161 136
f 136 161 162
f 136 162 137
f 137 163 138
f 137 162 164
f 137 164 163
f 138 163 165
f 139 159 166
f 139 166 140
f 140 167 161
f 140 166 168
f 140 168 167
f 141 169 142
f 141 147 169
f 142 169 170
f 142 170 143
f 143 170 171
f 143 171 144
f 144 172 173
f 144 173 145
f 144 171 174
f 144 174 172
f 145 173 148
f 147 175 169
f 148 173 176
f 149 177 151
f 149 150 178
f 149 178 177
f 151 177 178
f 151 178 179
f 151 179 180
f 151 180 181
f 151 181 152
f 152 181 182
f 152 182 154
f 153 154 183
f 153 183 155
f 154 182 184
f 154 184 185
f 154 185 183
f 155 183 186
f 155 186 185
f 155 185 187
f 155 187 188
f 155 188 157
f 155 157 156
f 157 188 160
f 158 160 189
f 158 189 159
f 159 189 190
f 159 190 166
f 160 188 191
f 160 191 192
f 160 192 193
f 160 193 189
f 161 167 168
f 161 168 194
f 161 194 195
f 161 195 162
f 162 196 164
f 162 195 197
f 162 197 196
f 163 164 200
f 163 200 165
f 164 196 198
f 164 198 199
f 164 199 200
f 166 190 201
f 166 201 202
f 166 202 203
f 166 203 168
f 168 203 195
f 168 195 194
f 169 204 205
f 169 205 206
f 169 206 207
f 169 207 208
f 169 208 209
f 169 209 170
f 169 175 210
f 169 210 204
f 170 209 211
f 170 211 212
f 170 212 213
f 170 213 171
f 171 213 214
f 171 214 174
f 172 215 173
f 172 174 215
f 173 215 176
f 174 214 216
f 174 216 215
f 179 217 180
f 179 218 219
f 179 219 220
f 179 220 221
f 179 221 222
f 179 222 217
f 180 217 181
f 181 217 184
f 181 184 182
f 183 185 186
f 184 223 185
f 184 217 224
f 184 224 223
f 185 223 225
f 185 225 226
f 185 226 187
f 187 191 188
f 187 226 227
f 187 227 228
f 187 228 229
f 187 229 191
f 189 193 230
f 189 230 190
f 190 230 231
f 190 231 201
f 191 229 192
f 192 229 232
f 192 232 193
f 193 233 230
f 193 232 233
f 195 234 235
f 195 235 236
f 195 236 197
f 195 203 234
f 196 197 237
f 196 237 238
f 196 238 239
f 196 239 198
f 197 236 240
f 197 240 241
f 197 241 242
f 197 242 243
f 197 243 237
f 198 239 199
f 201 231 244
f 201 244 202
f 202 245 203
f 202 244 246
f 202 246 245
f 203 245 247
f 203 247 248
f 203 248 234
f 204 249 250
f 204 250 251
f 204 251 252
f 204 252 253
f 204 253 205
f 204 210 249
f 205 253 206
f 206 254 255
f 206 255 208
f 206 208 207
f 206 253 256
f 206 256 257
f 206 257 258
f 206 258 254
f 208 255 259
f 208 259 260
f 208 260 261
f 208 261 211
f 208 211 209
f 210 262 251
f 210 251 263
f 210 263 249
f 211 261 212
f 212 261 264
f 212 264 213
f 213 264 214
f 214 264 265
f 214 265 266
f 214 266 216
f 216 266 267
f 217 222 268
f 217 268 224
f 218 269 219
f 219 269 270
f 219 270 271
f 219 271 220
f 220 272 273
f 220 273 274
f 220 274 275
f 220 275 221
f 220 271 276
f 220 276 277
f 220 277 272
f 221 275 224
f 221 224 222
f 222 224 268
f 223 224 275
f 223 275 225
f 225 275 278
f 225 278 226
f 226 278 279
f 226 279 227
f 227 279 228
f 228 279 280
f 228 280 281
f 228 281 229
f 229 281 232
f 230 233 231
f 231 233 282
f 231 282 244
f 232 283 284
f 232 284 233
f 232 281 285
f 232 285 283
f 233 284 282
f 234 248 235
f 235 286 287
f 235 287 288
f 235 288 289
f 235 289 236
f 235 248 290
f 235 290 286
f 236 289 291
f 236 291 292
f 236 292 293
f 236 293 294
f 236 294 295
f 236 295 241
f 236 241 240
f 237 243 296
f 237 296 297
f 237 297 238
f 238 297 298
f 238 298 299
f 238 299 300
f 238 300 239
f 241 295 301
f 241 301 302
f 241 302 243
f 241 243 242
f 243 302 303
f 243 303 304
f 243 304 296
f 244 282 284
f 244 284 246
f 245 246 305
f 245 305 306
f 245 306 247
f 246 285 305
f 246 284 285
f 247 306 307
f 247 307 290
f 247 290 248
f 249 263 250
f 250 263 251
f 251 308 309
f 251 309 252
f 251 262 308
f 252 310 256
f 252 256 253
f 252 309 311
f 252 311 310
f 254 258 312
f 254 312 255
f 255 312 259
f 256 313 257
f 256 310 314
f 256 314 313
f 257 313 258
f 258 315 312
f 258 313 316
f 258 316 317
f 258 317 315
f 259 318 319
f 259 319 260
f 259 312 320
f 259 320 318
f 260 319 261
f 261 319 321
f 261 321 264
f 262 322 323
f 262 323 308
f 264 321 324
f 264 324 265
f 265 324 325
f 265 325 326
f 265 326 327
f 265 327 266
f 266 327 328
f 266 328 329
f 266 329 267
f 270 330 331
f 270 331 277
f 270 277 271
f 271 277 276
f 272 277 332
f 272 332 333
f 272 333 334
f 272 334 273
f 273 335 336
f 273 336 274
f 273 334 337
f 273 337 335
f 274 336 280
f 274 280 279
f 274 279 275
f 275 279 278
f 277 331 338
f 277 338 339
f 277 339 332
f 280 285 281
f 280 336 340
f 280 340 341
f 280 341 285
f 283 285 284
f 285 341 342
f 285 342 343
f 285 343 344
f 285 344 305
f 286 290 307
f 286 307 287
f 287 289 288
f 287 307 345
f 287 345 346
f 287 346 347
f 287 347 348
f 287 348 349
f 287 349 291
f 287 291 289
f 291 349 350
f 291 350 351
f 291 351 352
f 291 352 293
f 291 293 292
f 293 352 353
f 293 353 294
f 294 353 295
f 295 353 354
f 295 354 355
f 295 355 356
f 295 356 357
f 295 357 358
f 295 358 359
f 295 359 301
f 296 304 297
f 297 304 360
f 297 360 298
f 301 359 361
f 301 361 302
f 302 361 362
f 302 362 363
f 302 363 364
f 302 364 303
f 303 364 365
f 303 365 360
f 303 360 304
f 305 345 307
f 305 307 306
f 305 344 366
f 305 366 345
f 308 323 309
f 309 367 368
f 309 368 311
f 309 323 322
f 309 322 369
f 309 369 367
f 310 311 368
f 310 368 370
f 310 370 314
f 312 315 320
f 313 314 371
f 313 371 316
f 314 370 371
f 315 317 372
f 315 372 320
f 316 371 373
f 316 373 317
f 317 373 374
f 317 374 375
f 317 375 372
f 318 320 376
f 318 376 377
f 318 377 378
f 318 378 379
f 318 379 319
f 319 379 380
f 319 380 321
f 320 381 376
f 320 372 381
f 321 380 324
f 324 382 325
f 324 380 382
f 325 382 383
f 325 383 384
f 325 384 326
f 326 384 385
f 326 385 386
f 326 386 328
f 326 328 327
f 330 387 388
f 330 388 389
f 330 389 390
f 330 390 338
f 330 338 331
f 332 339 334
f 332 334 333
f 334 339 337
f 335 337 391
f 335 391 336
f 336 391 340
f 337 339 392
f 337 392 393
f 337 393 391
f 338 390 394
f 338 394 392
f 338 392 339
f 340 395 396
f 340 396 397
f 340 397 341
f 340 391 395
f 341 344 343
f 341 343 342
f 341 397 398
f 341 398 399
f 341 399 344
f 344 400 401
f 344 401 366
f 344 399 402
f 344 402 403
f 344 403 400
f 345 366 346
f 346 366 347
f 347 366 401
f 347 401 400
f 347 400 403
f 347 403 404
f 347 404 348
f 348 404 403
f 348 403 405
f 348 405 406
f 348 406 349
f 349 351 350
f 349 406 351
f 351 406 407
f 351 407 408
f 351 408 409
f 351 409 352
f 352 409 354
f 352 354 353
f 354 409 355
f 355 410 356
f 355 409 410
f 356 358 357
f 356 410 411
f 356 411 371
f 356 371 358
f 358 412 413
f 358 413 359
f 358 371 412
f 359 413 361
f 361 414 362
f 361 413 370
f 361 370 414
f 362 414 363
f 363 414 367
f 363 367 364
f 364 369 365
f 364 367 369
f 367 414 370
f 367 370 368
f 370 413 412
f 370 412 371
f 371 411 373
f 372 375 415
f 372 415 416
f 372 416 417
f 372 417 418
f 372 418 381
f 373 411 374
f 374 411 375
f 375 411 415
f 376 381 418
f 376 418 377
f 377 419 420
f 377 420 378
f 377 418 421
f 377 421 422
f 377 422 419
f 378 420 379
f 379 423 424
f 379 424 380
f 379 420 423
f 380 424 382
f 382 424 425
f 382 425 383
f 383 425 426
f 383 426 384
f 384 426 385
f 387 427 428
f 387 428 429
f 387 429 430
f 387 430 388
f 388 430 431
f 388 431 389
f 389 431 432
f 389 432 394
f 389 394 390
f 391 393 433
f 391 433 434
f 391 434 396
f 391 396 395
f 392 435 393
f 392 394 432
f 392 432 431
f 392 431 436
f 392 436 437
f 392 437 438
f 392 438 435
f 393 435 439
f 393 439 433
f 396 440 399
f 396 399 398
f 396 398 397
f 396 434 441
f 396 441 440
f 399 440 403
f 399 403 402
f 403 440 442
f 403 442 443
f 403 443 444
f 403 444 405
f 405 445 446
f 405 446 447
f 405 447 448
f 405 448 406
f 405 444 443
f 405 443 445
f 406 448 407
f 407 448 449
f 407 449 450
f 407 450 451
f 407 451 408
f 408 451 409
f 409 451 410
f 410 451 450
f 410 450 411
f 411 452 415
f 411 450 449
f 411 449 452
f 415 452 416
f 416 452 446
f 416 446 445
f 416 445 417
f 417 445 453
f 417 453 454
f 417 454 455
f 417 455 456
f 417 456 418
f 418 456 422
f 418 422 421
f 419 457 458
f 419 458 459
f 419 459 420
f 419 422 460
f 419 460 461
f 419 461 457
f 420 459 423
f 422 456 460
f 423 459 458
f 423 458 424
f 424 462 463
f 424 463 425
f 424 458 457
f 424 457 462
f 425 464 426
f 425 463 465
f 425 465 464
f 427 466 428
f 428 430 429
f 428 466 467
f 428 467 468
f 428 468 430
f 430 468 431
f 431 468 436
f 433 439 434
f 434 439 441
f 435 438 439
f 436 468 469
f 436 469 470
f 436 470 437
f 437 471 438
f 437 470 472
f 437 472 473
f 437 473 471
f 438 471 439
f 439 471 474
f 439 474 441
f 440 441 475
f 440 475 476
f 440 476 442
f 441 474 477
f 441 477 478
f 441 478 476
f 441 476 475
f 442 479 443
f 442 476 480
f 442 480 479
f 443 479 445
f 445 481 454
f 445 454 453
f 445 479 480
f 445 480 481
f 446 452 447
f 447 452 448
f 448 452 449
f 454 481 482
f 454 482 455
f 455 482 483
f 455 483 484
f 455 484 456
f 456 484 460
f 457 485 486
f 457 486 487
f 457 487 465
f 457 465 488
f 457 488 489
f 457 489 462
f 457 461 485
f 460 490 461
f 460 484 490
f 461 490 491
f 461 491 492
f 461 492 469
f 461 469 485
f 462 489 463
f 463 489 488
f 463 488 465
f 466 493 467
f 467 493 494
f 467 494 495
f 467 495 468
f 468 495 496
f 468 496 469
f 469 491 470
f 469 496 497
f 469 497 485
f 469 492 491
f 470 491 477
f 470 477 473
f 470 473 472
f 471 473 474
f 473 477 474
f 476 478 482
f 476 482 481
f 476 481 480
f 477 491 478
f 478 491 498
f 478 498 483
f 478 483 482
f 483 498 484
f 484 498 490
f 485 497 499
f 485 499 500
f 485 500 501
f 485 501 486
f 486 501 502
f 486 502 503
f 486 503 504
f 486 504 487
f 490 498 491
f 494 505 495
f 495 505 506
f 495 506 497
f 495 497 496
f 497 506 507
f 497 507 500
f 497 500 499
f 500 508 509
f 500 509 510
f 500 510 502
f 500 502 501
f 500 507 508
f 505 507 506

