# https://github.com/mikedh/trimesh
v -0.03142740 -0.12214919 0.27070014
v -0.06942563 -0.11881865 0.27070014
v -0.03142740 0.03042857 0.27070014
v -0.03142740 -0.11033547 0.33667437
v -0.07214269 -0.11857969 0.27070014
v -0.09072669 0.03042857 0.27070014
v -0.03142740 0.03042857 0.45508777
v -0.03142740 -0.11008157 0.33786326
v -0.07988747 -0.11774332 0.27070014
v -0.07791934 -0.11798229 0.27070014
v -0.07644470 -0.11814657 0.27070014
v -0.09072669 -0.11560759 0.27070014
v -0.09072669 0.03042857 0.45700829
v -0.03157835 0.03042857 0.45510608
v -0.03142740 0.03041363 0.45508777
v -0.03142740 -0.10903611 0.34252736
v -0.08274968 -0.11729526 0.27070014
v -0.08708652 -0.11641409 0.27070014
v -0.03142740 -0.10457049 0.35829387
v -0.09072669 -0.07237025 0.42212811
v -0.09072669 -0.04466550 0.45755700
v -0.05202598 0.03042857 0.45634984
v -0.03779044 0.03042857 0.45569136
v -0.03142740 -0.03088033 0.45075291
v -0.03142740 -0.10261398 0.36513456
v -0.09072669 -0.07096634 0.42695682
v -0.03142740 -0.10146398 0.36910362
v -0.04466437 0.03042857 0.45613032
v -0.09072669 -0.05143113 0.45669735
v -0.03142740 -0.05152075 0.44883239
v -0.03142740 -0.03779532 0.45020418
v -0.09072669 -0.06932348 0.43244399
v -0.03142740 -0.09847695 0.37896225
v -0.09072669 -0.06829294 0.43588264
v -0.09072669 -0.05877924 0.45309411
v -0.08588475 -0.05819677 0.45314896
v -0.07901081 -0.05794287 0.45272829
v -0.03142740 -0.06421564 0.44559495
v -0.03142740 -0.05880911 0.44766178
v -0.03142740 -0.05839093 0.44780810
v -0.03142740 -0.05202854 0.44875923
v -0.03142740 -0.09844707 0.37905371
v -0.09072669 -0.06676956 0.44071136
v -0.09072669 -0.06170654 0.45095410
v -0.08588475 -0.06163186 0.45080777
v -0.07901081 -0.06137796 0.45058828
v -0.03142740 -0.06765074 0.44292451
v -0.03142740 -0.09613212 0.38574807
v -0.09072669 -0.06348382 0.44793614
v -0.09072669 -0.06175134 0.45091750
v -0.03142740 -0.06996568 0.43948588
f 1 2 5
f 1 5 11
f 1 11 10
f 1 10 9
f 1 9 17
f 1 17 18
f 1 18 12
f 1 12 6
f 1 6 3
f 1 3 7
f 1 7 15
f 1 15 24
f 1 24 31
f 1 31 30
f 1 30 41
f 1 41 40
f 1 40 39
f 1 39 38
f 1 38 47
f 1 47 51
f 1 51 48
f 1 48 42
f 1 42 33
f 1 33 27
f 1 27 25
f 1 25 19
f 1 19 16
f 1 16 8
f 1 8 4
f 1 4 2
f 2 4 5
f 3 6 13
f 3 13 22
f 3 22 28
f 3 28 23
f 3 23 14
f 3 14 7
f 4 8 9
f 4 9 10
f 4 10 11
f 4 11 5
f 6 12 20
f 6 20 26
f 6 26 32
f 6 32 34
f 6 34 43
f 6 43 49
f 6 49 50
f 6 50 44
f 6 44 35
f 6 35 29
f 6 29 21
f 6 21 13
f 7 14 15
f 8 16 9
f 9 16 17
f 12 18 16
f 12 16 19
f 12 19 20
f 13 21 22
f 14 23 21
f 14 21 15
f 15 21 24
f 16 18 17
f 19 25 20
f 20 25 27
f 20 27 26
f 21 23 28
f 21 28 22
f 21 29 30
f 21 30 31
f 21 31 24
f 26 27 32
f 27 33 34
f 27 34 32
f 29 35 36
f 29 36 37
f 29 37 38
f 29 38 39
f 29 39 40
f 29 40 41
f 29 41 30
f 33 42 43
f 33 43 34
f 35 44 45
f 35 45 46
f 35 46 38
f 35 38 36
f 36 38 37
f 38 46 45
f 38 45 47
f 42 48 43
f 43 48 49
f 44 50 45
f 45 50 47
f 47 50 51
f 48 51 49
f 49 51 50

