# https://github.com/mikedh/trimesh
v 0.04918100 0.15693234 0.27182729
v 0.05153826 0.15667159 0.27182729
v 0.04918100 0.15732348 0.27086655
v 0.04918100 -0.13016337 0.27182729
v 0.05508380 0.15562856 0.27182729
v 0.05543159 0.15820354 0.26598281
v 0.05153826 0.15856209 0.26694355
v 0.04918100 0.15823614 0.26849140
v 0.04918100 -0.13127160 0.26662330
v 0.05292943 -0.13097825 0.27182729
v 0.14787652 0.12824885 0.27182729
v 0.07208694 0.17254530 0.17228446
v 0.06548856 0.17300163 0.17967678
v 0.06527603 0.17443580 0.17273814
v 0.05840714 0.17466395 0.17959672
v 0.04918100 0.15980069 0.26205981
v 0.04918100 0.15869247 0.26729048
v 0.04918100 -0.13257539 0.25971135
v 0.05840714 -0.13234722 0.26891839
v 0.05851341 -0.13182571 0.27182729
v 0.14787652 0.14252541 0.12491489
v 0.14725822 0.14288396 0.12494157
v 0.13478603 0.14976147 0.12467469
v 0.11813068 0.15875767 0.12467469
v 0.11336787 0.16126747 0.12467469
v 0.10469240 0.16576556 0.12467469
v 0.10293412 0.16482030 0.14111394
v 0.10023874 0.16631968 0.13865873
v 0.09276122 0.16856872 0.14525044
v 0.08147732 0.17143707 0.15899429
v 0.08024072 0.17094815 0.16587956
v 0.07589333 0.17186080 0.16972250
v 0.14787652 -0.13994183 0.27182729
v 0.06527603 0.17479435 0.16587956
v 0.05840714 0.17557662 0.17273814
v 0.07681111 0.17215415 0.16587956
v 0.07214491 0.17339275 0.16587956
v 0.05153826 0.17397947 0.18648199
v 0.04918100 0.17404465 0.18648199
v 0.04918100 -0.13371621 0.25282608
v 0.06128608 -0.13215166 0.27182729
v 0.04918100 -0.15663041 0.10161706
v 0.08589233 -0.13492222 0.27182729
v 0.14787652 0.14105864 0.11770937
v 0.14465944 0.14448111 0.12035139
v 0.14465944 0.14448111 0.12280661
v 0.11836254 0.15888804 0.11778943
v 0.11336787 0.16156082 0.11778943
v 0.10500155 0.16589594 0.11778943
v 0.09962044 0.16807980 0.12467469
v 0.09276122 0.16948138 0.13839186
v 0.09276122 0.17010068 0.13153328
v 0.08831722 0.17153485 0.13153328
v 0.07803804 0.17248010 0.15899429
v 0.14373201 -0.13964848 0.27182729
v 0.14772195 -0.14030038 0.26891839
v 0.14787652 -0.14030038 0.26891839
v 0.05840714 0.17564180 0.16587956
v 0.08487794 0.17225195 0.13153328
v 0.08550590 0.17234973 0.12467469
v 0.07902345 0.17336015 0.12467469
v 0.05153826 0.17538105 0.17273814
v 0.05153826 0.17489213 0.17959672
v 0.04918100 0.17463135 0.18197187
v 0.04918100 -0.15728231 0.09270357
v 0.14084340 -0.14750384 0.20022583
v 0.13397452 -0.14740607 0.20022583
v 0.12692208 -0.13840987 0.27182729
v 0.14787652 0.13825548 0.11373300
v 0.14367404 0.14379661 0.11576121
v 0.11783120 0.15862728 0.11263882
v 0.10438325 0.16550480 0.11290569
v 0.09962044 0.16817758 0.11778943
v 0.09276122 0.17058960 0.12467469
v 0.08894517 0.17166524 0.12467469
v 0.14772195 -0.14577632 0.21396968
v 0.14787652 -0.14574372 0.21415649
v 0.05153826 0.17538105 0.16587956
v 0.07214491 0.17417505 0.12467469
v 0.06527603 0.17469655 0.12467469
v 0.05840714 0.17479435 0.12467469
v 0.08458812 0.17218675 0.11925722
v 0.04918100 0.17512030 0.17508660
v 0.14084340 -0.14789499 0.17959672
v 0.14084340 -0.14825353 0.18648199
v 0.14084340 -0.14792758 0.19334057
v 0.04918100 -0.15614149 0.08608518
v 0.14434064 -0.14427695 0.14863970
v 0.14787652 -0.14391841 0.15197558
v 0.14772195 -0.14642822 0.20708442
v 0.14607960 0.13920073 0.11298576
v 0.14787652 0.09542581 0.06711066
v 0.13909479 0.14526338 0.11322594
v 0.11638206 0.15771463 0.10807533
v 0.11380261 0.16009405 0.11058391
v 0.10174583 0.16449436 0.10834220
v 0.09952383 0.16625449 0.11074404
v 0.09276122 0.17032884 0.11778943
v 0.10660525 0.16361430 0.11074404
v 0.14787652 -0.14639562 0.20708442
v 0.04918100 0.17502250 0.16822802
v 0.05153826 0.17443580 0.13153328
v 0.07871430 0.17244750 0.11730907
v 0.07214491 0.17300163 0.11778943
v 0.06527603 0.17319720 0.11778943
v 0.05880324 0.17290385 0.11725569
v 0.05153826 0.17404465 0.12467469
v 0.08648165 0.17146966 0.11730907
v 0.08079139 0.17166524 0.11466705
v 0.14787652 -0.14681935 0.18648199
v 0.14772195 -0.14685195 0.18648199
v 0.14787652 -0.14398360 0.15272282
v 0.14772195 -0.14708012 0.19334057
v 0.14772195 -0.14681935 0.20022583
v 0.04918100 -0.15405541 0.08181524
v 0.14787652 -0.14258202 0.14583756
v 0.14787652 -0.14287537 0.14658480
v 0.14787652 0.09206853 0.06353459
v 0.10912675 0.15745387 0.10121675
v 0.11180281 0.15901842 0.10580693
v 0.09717624 0.16517885 0.10695448
v 0.10670186 0.16019184 0.10372534
v 0.09952383 0.16315797 0.10441921
v 0.09276122 0.16801460 0.11093085
v 0.14787652 -0.14675417 0.20041264
v 0.04918100 0.17391428 0.13164003
v 0.04918100 0.17365352 0.12702316
v 0.07621214 0.17179560 0.11432011
v 0.06136337 0.17179560 0.11432011
v 0.05678411 0.17166524 0.11458698
v 0.05153826 0.17261050 0.11923054
v 0.04918100 0.17225195 0.12008452
v 0.04918100 0.17336015 0.12467469
v 0.08589233 0.16915543 0.11093085
v 0.07871430 0.17016586 0.11157134
v 0.14787652 -0.14704752 0.19334057
v 0.14787652 -0.14704752 0.19355406
v 0.04918100 -0.15297979 0.08024070
v 0.14787652 -0.13932253 0.13916579
v 0.14787652 0.08649480 0.05993184
v 0.06878292 0.09624067 0.03185700
v 0.09962044 0.15341211 0.09200971
v 0.09962044 0.15683457 0.09491860
v 0.10454749 0.15872507 0.09966890
v 0.09962044 0.15957253 0.09836123
v 0.09276122 0.16361430 0.10292473
v 0.07214491 0.16983993 0.11087748
v 0.06527603 0.16977473 0.11087748
v 0.05840714 0.16622189 0.10548668
v 0.05880324 0.17000290 0.11159803
v 0.05153826 0.16583075 0.10602043
v 0.05153826 0.16863391 0.11093085
v 0.05153826 0.17111113 0.11581459
v 0.04918100 0.17166524 0.11872348
v 0.08589233 0.16605891 0.10567349
v 0.07902345 0.16638486 0.10524650
v 0.04918100 -0.15024182 0.07733181
v 0.14787652 -0.13687792 0.13572316
v 0.14787652 0.08581031 0.05966495
v 0.09115751 0.04291545 0.01037391
v 0.09296410 0.05178126 0.01603159
v 0.09080006 0.05601859 0.01747267
v 0.06527603 0.09672960 0.03148338
v 0.06197200 0.12371816 0.05248613
v 0.06796175 0.13036751 0.05958491
v 0.07214491 0.12935708 0.06043889
v 0.08739943 0.04751133 0.01165490
v 0.08541895 0.04500153 0.00989355
v 0.09276122 0.15784500 0.09393117
v 0.09276122 0.16019184 0.09737382
v 0.07214491 0.16641745 0.10529987
v 0.06527603 0.16631968 0.10537994
v 0.05840714 0.16394025 0.10204405
v 0.05153826 0.16364689 0.10260448
v 0.04918100 0.16553740 0.10647411
v 0.08589233 0.16387505 0.10223086
v 0.08896449 0.15800798 0.09377106
v 0.07902345 0.16403803 0.10180387
v 0.04918100 -0.14841650 0.07562383
v 0.14787652 -0.13342286 0.13222714
v 0.14787652 0.08349608 0.05899777
v 0.09541796 0.03776546 0.01186839
v 0.09197868 0.03776546 0.00981348
v 0.08589233 0.03776546 0.00735827
v 0.07655027 0.03502749 0.00412912
v 0.05840714 0.09725112 0.03118983
v 0.04997320 0.11716659 0.04538738
v 0.05840714 0.12407670 0.05211251
v 0.06527603 0.09275302 0.02958862
v 0.05840714 0.09275302 0.02884139
v 0.06338249 0.13082385 0.05905116
v 0.07902345 0.04464298 0.00887943
v 0.05973068 0.15813836 0.09358425
v 0.05782749 0.16009405 0.09651982
v 0.05515143 0.15800798 0.09377106
v 0.05153826 0.16019184 0.09758731
v 0.04918100 0.15989848 0.09801430
v 0.04918100 0.16455955 0.10495295
v 0.08437558 0.15804058 0.09371768
v 0.06527603 0.15813836 0.09358425
v 0.04918100 -0.14036557 0.07023305
v 0.14787652 -0.12947887 0.12878451
v 0.14787652 0.07903058 0.05846405
v 0.14787652 0.06524295 0.05795698
v 0.14787652 0.05839802 0.05785023
v 0.09521508 0.03088794 0.01208190
v 0.08698401 0.01716550 0.00613067
v 0.08354474 0.01716550 0.00372884
v 0.07902345 0.01716550 0.00138036
v 0.07963208 0.02453194 0.00282147
v 0.07793177 0.03088794 0.00348865
v 0.07214491 0.01716550 -0.00080798
v 0.07214491 0.02404301 0.00087331
v 0.07214491 0.03088794 0.00276809
v 0.07214491 0.03512528 0.00410246
v 0.05307434 0.09692517 0.03148338
v 0.04918100 0.11716659 0.04538738
v 0.05153826 0.12414190 0.05200577
v 0.05451381 0.08264861 0.02497176
v 0.06028136 0.13082385 0.05905116
v 0.05153826 0.15768203 0.09414468
v 0.04918100 0.12391373 0.05221926
v 0.04918100 0.15823614 0.09574590
v 0.04918100 -0.13397697 0.06617661
v 0.07597062 -0.00040315 0.00415582
v 0.14787652 -0.12612161 0.12683635
v 0.14787652 0.05298727 0.05867754
v 0.09103192 0.01716550 0.00957329
v 0.09897316 0.03088794 0.01552452
v 0.08325492 0.01221107 0.00386227
v 0.07935192 0.01005981 0.00255460
v 0.07214491 0.01028798 -0.00046104
v 0.06527603 0.01716550 -0.00011412
v 0.06527603 0.01028798 -0.00024755
v 0.06832886 0.03466895 0.00428925
v 0.04918100 0.09685998 0.03241745
v 0.05194402 0.08532139 0.02659967
v 0.05108420 0.09327455 0.03025580
v 0.04918100 0.09523024 0.03153679
v 0.04993455 0.08163817 0.02539874
v 0.04918100 0.15732348 0.09457167
v 0.04918100 -0.12054787 0.05937139
v 0.06882156 -0.00692212 0.00436932
v 0.07152661 -0.00297814 0.00354201
v 0.07214491 0.00344305 0.00146042
v 0.08186375 0.00768039 0.00479632
v 0.14569316 -0.04303725 0.07898641
v 0.14787652 -0.04502554 0.08165512
v 0.14787652 -0.03778947 0.07874622
v 0.09005617 0.01028798 0.01050736
v 0.08567980 0.01005981 0.00677116
v 0.06527603 0.00344305 0.00119357
v 0.05490991 0.01397120 0.00439602
v 0.05809800 0.01661138 0.00308833
v 0.04918100 0.04428444 0.01261563
v 0.04918100 0.04695721 0.01322942
v 0.05799172 0.01077690 0.00303497
v 0.05490991 0.01338449 0.00439602
v 0.05996254 0.00344305 0.00335522
v 0.04918100 0.05152050 0.01461718
v 0.04918100 0.07821571 0.02427788
v 0.04918100 0.08131222 0.02547881
v 0.04918100 -0.11722320 0.05779687
v 0.06851242 -0.00692212 0.00436932
v 0.06584602 -0.00340187 0.00340859
v 0.06118947 -0.00108764 0.00391563
v 0.05559582 0.01856707 0.00476964
v 0.04918100 0.01700252 0.00970674
v 0.04918100 0.02039239 0.00973342
v 0.05542193 0.00882121 0.00474294
v 0.04918100 0.01256962 0.01013374
v 0.04918100 0.01501423 0.00989355
v 0.04918100 -0.11334441 0.05598214
v 0.04918100 0.00810412 0.01165490
v 0.04918100 0.00914715 0.01128128
f 1 2 3
f 1 3 8
f 1 8 17
f 1 17 16
f 1 16 39
f 1 39 64
f 1 64 83
f 1 83 101
f 1 101 126
f 1 126 127
f 1 127 133
f 1 133 132
f 1 132 154
f 1 154 175
f 1 175 198
f 1 198 197
f 1 197 223
f 1 223 241
f 1 241 222
f 1 222 217
f 1 217 236
f 1 236 239
f 1 239 262
f 1 262 261
f 1 261 260
f 1 260 256
f 1 256 255
f 1 255 269
f 1 269 268
f 1 268 272
f 1 272 271
f 1 271 275
f 1 275 274
f 1 274 273
f 1 273 263
f 1 263 242
f 1 242 224
f 1 224 201
f 1 201 179
f 1 179 157
f 1 157 138
f 1 138 115
f 1 115 87
f 1 87 65
f 1 65 42
f 1 42 40
f 1 40 18
f 1 18 9
f 1 9 4
f 1 4 10
f 1 10 20
f 1 20 41
f 1 41 43
f 1 43 68
f 1 68 55
f 1 55 33
f 1 33 11
f 1 11 5
f 1 5 2
f 2 5 6
f 2 6 7
f 2 7 3
f 3 7 8
f 4 9 10
f 5 11 6
f 6 12 13
f 6 13 14
f 6 14 15
f 6 15 7
f 6 11 12
f 7 16 17
f 7 17 8
f 7 15 16
f 9 18 10
f 10 18 19
f 10 19 20
f 11 21 22
f 11 22 23
f 11 23 24
f 11 24 25
f 11 25 26
f 11 26 27
f 11 27 28
f 11 28 29
f 11 29 30
f 11 30 31
f 11 31 32
f 11 32 12
f 11 33 57
f 11 57 77
f 11 77 100
f 11 100 125
f 11 125 137
f 11 137 136
f 11 136 110
f 11 110 112
f 11 112 89
f 11 89 117
f 11 117 116
f 11 116 139
f 11 139 158
f 11 158 180
f 11 180 202
f 11 202 226
f 11 226 248
f 11 248 249
f 11 249 227
f 11 227 205
f 11 205 204
f 11 204 203
f 11 203 181
f 11 181 159
f 11 159 140
f 11 140 118
f 11 118 92
f 11 92 69
f 11 69 44
f 11 44 21
f 12 32 14
f 12 14 13
f 14 34 35
f 14 35 15
f 14 32 36
f 14 36 37
f 14 37 34
f 15 35 38
f 15 38 16
f 16 38 39
f 18 40 19
f 19 41 20
f 19 40 42
f 19 42 43
f 19 43 41
f 21 44 45
f 21 45 46
f 21 46 22
f 22 46 23
f 23 46 47
f 23 47 24
f 24 47 48
f 24 48 25
f 25 48 26
f 26 49 50
f 26 50 28
f 26 28 27
f 26 48 49
f 28 50 51
f 28 51 29
f 29 51 30
f 30 51 52
f 30 52 53
f 30 53 54
f 30 54 36
f 30 36 31
f 31 36 32
f 33 55 42
f 33 42 56
f 33 56 57
f 34 58 35
f 34 37 59
f 34 59 60
f 34 60 61
f 34 61 58
f 35 58 62
f 35 62 63
f 35 63 38
f 36 54 37
f 37 54 59
f 38 63 39
f 39 63 64
f 42 65 66
f 42 66 67
f 42 67 56
f 42 55 68
f 42 68 43
f 44 69 70
f 44 70 45
f 45 70 71
f 45 71 47
f 45 47 46
f 47 71 48
f 48 71 49
f 49 72 73
f 49 73 50
f 49 71 72
f 50 73 74
f 50 74 52
f 50 52 51
f 52 74 53
f 53 75 59
f 53 59 54
f 53 74 75
f 56 67 66
f 56 66 57
f 57 66 76
f 57 76 77
f 58 78 62
f 58 61 79
f 58 79 80
f 58 80 81
f 58 81 78
f 59 75 60
f 60 75 82
f 60 82 61
f 61 82 79
f 62 78 83
f 62 83 64
f 62 64 63
f 65 84 85
f 65 85 86
f 65 86 66
f 65 87 88
f 65 88 89
f 65 89 84
f 66 86 90
f 66 90 76
f 69 91 70
f 69 92 91
f 70 91 92
f 70 92 93
f 70 93 94
f 70 94 71
f 71 94 95
f 71 95 72
f 72 96 97
f 72 97 98
f 72 98 73
f 72 95 99
f 72 99 96
f 73 98 74
f 74 98 75
f 75 98 82
f 76 90 77
f 77 90 100
f 78 101 83
f 78 81 102
f 78 102 101
f 79 82 103
f 79 103 80
f 80 103 104
f 80 104 105
f 80 105 81
f 81 105 106
f 81 106 107
f 81 107 102
f 82 98 108
f 82 108 109
f 82 109 103
f 84 110 111
f 84 111 85
f 84 89 112
f 84 112 110
f 85 111 113
f 85 113 114
f 85 114 86
f 86 114 90
f 87 115 139
f 87 139 116
f 87 116 117
f 87 117 88
f 88 117 89
f 90 114 100
f 92 118 119
f 92 119 93
f 93 119 94
f 94 119 120
f 94 120 95
f 95 120 99
f 96 121 97
f 96 99 122
f 96 122 123
f 96 123 121
f 97 121 124
f 97 124 98
f 98 124 108
f 99 120 122
f 100 114 125
f 101 102 126
f 102 107 127
f 102 127 126
f 103 109 104
f 104 109 128
f 104 128 105
f 105 128 129
f 105 129 106
f 106 129 130
f 106 130 131
f 106 131 107
f 107 131 132
f 107 132 133
f 107 133 127
f 108 124 109
f 109 124 134
f 109 134 135
f 109 135 128
f 110 136 113
f 110 113 111
f 113 136 137
f 113 137 114
f 114 137 125
f 115 138 139
f 118 140 141
f 118 141 142
f 118 142 143
f 118 143 119
f 119 143 144
f 119 144 120
f 120 144 122
f 121 134 124
f 121 123 145
f 121 145 146
f 121 146 134
f 122 144 123
f 123 144 145
f 128 135 147
f 128 147 129
f 129 147 148
f 129 148 149
f 129 149 150
f 129 150 130
f 130 150 149
f 130 149 151
f 130 151 152
f 130 152 153
f 130 153 131
f 131 153 154
f 131 154 132
f 134 155 135
f 134 146 155
f 135 155 156
f 135 156 147
f 138 157 158
f 138 158 139
f 140 159 160
f 140 160 161
f 140 161 162
f 140 162 141
f 141 163 164
f 141 164 165
f 141 165 166
f 141 166 142
f 141 162 160
f 141 160 167
f 141 167 168
f 141 168 163
f 142 166 165
f 142 165 143
f 143 165 169
f 143 169 145
f 143 145 144
f 145 170 146
f 145 169 170
f 146 170 155
f 147 156 171
f 147 171 148
f 148 171 172
f 148 172 149
f 149 172 173
f 149 173 174
f 149 174 151
f 151 175 152
f 151 174 175
f 152 175 153
f 153 175 154
f 155 170 176
f 155 176 156
f 156 176 170
f 156 170 177
f 156 177 178
f 156 178 171
f 157 179 180
f 157 180 158
f 159 181 160
f 160 182 183
f 160 183 184
f 160 184 185
f 160 185 168
f 160 168 167
f 160 162 161
f 160 181 182
f 163 186 187
f 163 187 188
f 163 188 164
f 163 168 189
f 163 189 190
f 163 190 186
f 164 188 191
f 164 191 165
f 165 191 169
f 168 185 192
f 168 192 189
f 169 177 170
f 169 191 177
f 171 178 193
f 171 193 173
f 171 173 172
f 173 193 194
f 173 194 195
f 173 195 174
f 174 195 196
f 174 196 197
f 174 197 198
f 174 198 175
f 177 199 178
f 177 191 199
f 178 199 200
f 178 200 193
f 179 201 202
f 179 202 180
f 181 203 182
f 182 203 204
f 182 204 205
f 182 205 206
f 182 206 207
f 182 207 208
f 182 208 183
f 183 208 209
f 183 209 184
f 184 209 210
f 184 210 211
f 184 211 185
f 185 211 212
f 185 212 213
f 185 213 214
f 185 214 215
f 185 215 190
f 185 190 189
f 185 189 192
f 186 190 216
f 186 216 217
f 186 217 187
f 187 218 188
f 187 217 218
f 188 218 191
f 190 215 219
f 190 219 216
f 191 200 199
f 191 218 220
f 191 220 193
f 191 193 200
f 193 195 194
f 193 220 195
f 195 221 196
f 195 220 218
f 195 218 222
f 195 222 221
f 196 221 197
f 197 221 223
f 201 224 202
f 202 224 225
f 202 225 226
f 205 227 228
f 205 228 229
f 205 229 206
f 206 229 228
f 206 228 207
f 207 228 230
f 207 230 208
f 208 230 209
f 209 230 231
f 209 231 232
f 209 232 212
f 209 212 210
f 210 212 211
f 212 233 213
f 212 232 234
f 212 234 233
f 213 233 235
f 213 235 214
f 214 235 215
f 215 235 219
f 216 236 217
f 216 219 237
f 216 237 238
f 216 238 239
f 216 239 236
f 217 222 218
f 219 235 240
f 219 240 237
f 221 241 223
f 221 222 241
f 224 242 243
f 224 243 225
f 225 243 244
f 225 244 245
f 225 245 231
f 225 231 230
f 225 230 246
f 225 246 247
f 225 247 248
f 225 248 226
f 227 249 228
f 228 249 250
f 228 250 230
f 230 250 251
f 230 251 246
f 231 245 232
f 232 245 252
f 232 252 234
f 233 234 253
f 233 253 254
f 233 254 255
f 233 255 256
f 233 256 235
f 234 257 258
f 234 258 253
f 234 252 259
f 234 259 257
f 235 256 260
f 235 260 261
f 235 261 240
f 237 240 238
f 238 240 239
f 239 240 262
f 240 261 262
f 242 263 264
f 242 264 243
f 243 264 252
f 243 252 245
f 243 245 244
f 246 251 247
f 247 251 249
f 247 249 248
f 249 251 250
f 252 264 265
f 252 265 266
f 252 266 259
f 253 267 254
f 253 258 268
f 253 268 269
f 253 269 255
f 253 255 267
f 254 267 255
f 257 259 270
f 257 270 258
f 258 271 272
f 258 272 268
f 258 270 271
f 259 266 270
f 263 273 264
f 264 273 265
f 265 273 266
f 266 273 270
f 270 274 275
f 270 275 271
f 270 273 274

