# https://github.com/mikedh/trimesh
v 0.15752397 0.05150624 0.44879078
v 0.15752397 0.04463940 0.44743964
v 0.19069041 -0.09978841 0.42647980
v 0.19069041 -0.08395264 0.42902617
v 0.16146562 0.04463940 0.44790735
v 0.16146562 0.05150624 0.44854828
v 0.18207653 0.09273529 0.44482400
v 0.18140444 0.09909763 0.44442558
v 0.15752397 0.05840110 0.44830577
v 0.15752397 -0.09962024 0.41386924
v 0.19069041 -0.10393654 0.42507670
v 0.19069041 0.00343838 0.44187923
v 0.16833918 0.04463940 0.44747429
v 0.19069041 0.01030521 0.44281463
v 0.19069041 0.07852514 0.44381932
v 0.18658641 0.08586845 0.44430434
v 0.18598248 0.09273529 0.44426969
v 0.18569677 0.09646300 0.44423504
v 0.17583287 0.09979832 0.44451220
v 0.17866737 0.10307759 0.44414845
v 0.15752397 0.08191652 0.44569011
v 0.15752397 -0.10575835 0.41146145
v 0.19069041 -0.10446907 0.42485152
v 0.17520624 0.04463940 0.44634835
v 0.19069041 0.08586845 0.44361144
v 0.19069041 0.10119972 0.44099580
v 0.19069041 0.10635685 0.43988719
v 0.19069041 0.10820669 0.43947144
v 0.18894685 0.10649699 0.44049346
v 0.18140444 0.10582432 0.44286660
v 0.19069041 0.09273529 0.44272801
v 0.17853749 0.10307759 0.44414845
v 0.17396270 0.10223675 0.44400986
v 0.17583287 0.10582432 0.44310911
v 0.15752397 0.08855913 0.44459881
v 0.15752397 -0.10917775 0.40908833
v 0.19069041 -0.10657116 0.42259963
v 0.19069041 0.11257905 0.43824157
v 0.18886893 0.11341989 0.43855337
v 0.18652796 0.11709154 0.43761797
v 0.18163823 0.11398044 0.43929823
v 0.15752397 0.09576231 0.44276266
v 0.15752397 0.09318373 0.44352485
v 0.15752397 0.09102559 0.44406183
v 0.17520624 0.11249496 0.43952341
v 0.16775150 0.10711361 0.44028558
v 0.16146562 0.09960213 0.44212174
v 0.15752397 -0.11195252 0.40565853
v 0.19069041 -0.10780439 0.42114457
v 0.19069041 0.11532578 0.43687312
v 0.18363828 0.11709154 0.43761797
v 0.19069041 0.11613860 0.43604164
v 0.19069041 0.11768013 0.43333940
v 0.15982597 0.14551184 0.36386008
v 0.15752397 0.14570804 0.36403331
v 0.15752397 0.09988240 0.44080526
v 0.16965090 0.11114963 0.43855337
v 0.17905698 0.11669915 0.43683848
v 0.15752397 0.10246097 0.43943680
v 0.19069041 -0.11032690 0.41783603
v 0.15752397 -0.11542798 0.39956112
v 0.16146562 -0.11568023 0.40053116
v 0.19069041 0.11916561 0.42705143
v 0.19069041 0.12493936 0.39271886
v 0.19069041 0.12516358 0.39086538
v 0.19069041 0.12575217 0.38573801
v 0.15994285 0.14570804 0.35828234
v 0.15752397 0.14674506 0.35828234
v 0.15752397 0.10492743 0.43725420
v 0.16506961 0.10980428 0.43689045
v 0.15752397 0.10422673 0.43834551
v 0.19069041 -0.11043901 0.41762817
v 0.15752397 -0.11688544 0.39625258
v 0.15754344 -0.11688544 0.39628722
v 0.16146562 -0.11727782 0.39710137
v 0.16833918 -0.11775430 0.39796748
v 0.19069041 0.12575217 0.38398847
v 0.19069041 0.12376218 0.31954992
v 0.19069041 0.12123967 0.27182729
v 0.18157004 0.12491133 0.27182729
v 0.17956350 0.12564006 0.27182729
v 0.17520624 0.12709750 0.27182729
v 0.17232630 0.12791032 0.27182729
v 0.15752397 0.14565198 0.35215028
v 0.19069041 -0.11133591 0.41357478
v 0.16833918 -0.11937992 0.39261493
v 0.17520624 -0.11887541 0.39261493
v 0.17520624 -0.12355607 0.37477307
v 0.18207653 -0.12826476 0.35140543
v 0.18949231 -0.12554606 0.35180384
v 0.15752397 -0.11797852 0.39264956
v 0.16146562 -0.11862316 0.39261493
v 0.19069041 -0.13246895 0.27182729
v 0.16543001 0.12939580 0.27182729
v 0.16122211 0.12992833 0.27182729
v 0.15807918 0.13006846 0.27182729
v 0.15752397 0.13001241 0.27182729
v 0.19069041 -0.12509760 0.35114560
v 0.16146562 -0.12753603 0.35828234
v 0.16833918 -0.12770421 0.35828234
v 0.17520624 -0.12736787 0.35828234
v 0.17520624 -0.12874124 0.35140543
v 0.16146562 -0.13160008 0.33766893
v 0.18207653 -0.12921771 0.34452852
v 0.18894685 -0.12731181 0.34452852
v 0.19069041 -0.12647097 0.34452852
v 0.15752397 -0.11904358 0.38866546
v 0.15752397 -0.12806856 0.35433288
v 0.19069041 -0.13246895 0.27284929
v 0.15752397 -0.13958803 0.27182729
v 0.15752397 -0.12969419 0.34797563
v 0.16146562 -0.12916166 0.35140543
v 0.16146562 -0.13019869 0.34615680
v 0.16146562 -0.13081530 0.34272701
v 0.15752397 -0.13084333 0.34281363
v 0.15752397 -0.13757002 0.29455400
v 0.15841684 -0.13754200 0.29434613
v 0.18894685 -0.12918968 0.33079203
v 0.18536234 -0.13050699 0.32701579
v 0.18850852 -0.13005855 0.32440014
v 0.19069041 -0.12946996 0.32426155
v 0.19069041 -0.12854504 0.33079203
v 0.19069041 -0.13244092 0.27582871
v 0.15752397 -0.13944790 0.27368077
v 0.15752397 -0.13064714 0.34381831
f 1 2 3
f 1 3 4
f 1 4 5
f 1 5 6
f 1 6 7
f 1 7 8
f 1 8 9
f 1 9 21
f 1 21 35
f 1 35 44
f 1 44 43
f 1 43 42
f 1 42 56
f 1 56 59
f 1 59 71
f 1 71 69
f 1 69 55
f 1 55 68
f 1 68 84
f 1 84 97
f 1 97 110
f 1 110 124
f 1 124 116
f 1 116 115
f 1 115 125
f 1 125 111
f 1 111 108
f 1 108 107
f 1 107 91
f 1 91 73
f 1 73 61
f 1 61 48
f 1 48 36
f 1 36 22
f 1 22 10
f 1 10 2
f 2 10 3
f 3 10 11
f 3 11 23
f 3 23 37
f 3 37 49
f 3 49 60
f 3 60 72
f 3 72 85
f 3 85 98
f 3 98 106
f 3 106 122
f 3 122 121
f 3 121 123
f 3 123 109
f 3 109 93
f 3 93 79
f 3 79 78
f 3 78 77
f 3 77 66
f 3 66 65
f 3 65 64
f 3 64 63
f 3 63 53
f 3 53 52
f 3 52 50
f 3 50 38
f 3 38 28
f 3 28 27
f 3 27 26
f 3 26 31
f 3 31 25
f 3 25 15
f 3 15 14
f 3 14 12
f 3 12 4
f 4 12 5
f 5 13 6
f 5 12 14
f 5 14 13
f 6 13 15
f 6 15 16
f 6 16 17
f 6 17 7
f 7 17 18
f 7 18 8
f 8 19 9
f 8 18 20
f 8 20 19
f 9 19 21
f 10 22 11
f 11 22 23
f 13 24 15
f 13 14 24
f 14 15 24
f 15 25 18
f 15 18 17
f 15 17 16
f 18 26 27
f 18 27 28
f 18 28 29
f 18 29 30
f 18 30 20
f 18 25 31
f 18 31 26
f 19 20 32
f 19 32 33
f 19 33 21
f 20 30 34
f 20 34 32
f 21 33 35
f 22 36 23
f 23 36 37
f 28 38 29
f 29 38 39
f 29 39 30
f 30 39 40
f 30 40 41
f 30 41 34
f 32 34 33
f 33 34 42
f 33 42 43
f 33 43 44
f 33 44 35
f 34 41 45
f 34 45 46
f 34 46 47
f 34 47 42
f 36 48 49
f 36 49 37
f 38 50 39
f 39 50 40
f 40 51 41
f 40 50 52
f 40 52 53
f 40 53 54
f 40 54 55
f 40 55 51
f 41 51 45
f 42 47 56
f 45 57 46
f 45 51 58
f 45 58 57
f 46 59 56
f 46 56 47
f 46 57 59
f 48 60 49
f 48 61 62
f 48 62 60
f 51 55 58
f 53 63 54
f 54 64 65
f 54 65 66
f 54 66 67
f 54 67 68
f 54 68 55
f 54 63 64
f 55 69 70
f 55 70 57
f 55 57 58
f 57 70 71
f 57 71 59
f 60 62 72
f 61 73 74
f 61 74 75
f 61 75 62
f 62 75 76
f 62 76 72
f 66 77 67
f 67 77 78
f 67 78 79
f 67 79 68
f 68 80 81
f 68 81 82
f 68 82 83
f 68 83 84
f 68 79 80
f 69 71 70
f 72 76 86
f 72 86 87
f 72 87 88
f 72 88 89
f 72 89 90
f 72 90 85
f 73 91 74
f 74 91 75
f 75 91 92
f 75 92 86
f 75 86 76
f 79 93 110
f 79 110 97
f 79 97 96
f 79 96 95
f 79 95 94
f 79 94 83
f 79 83 82
f 79 82 81
f 79 81 80
f 83 94 84
f 84 94 95
f 84 95 96
f 84 96 97
f 85 90 98
f 86 92 99
f 86 99 100
f 86 100 88
f 86 88 87
f 88 100 101
f 88 101 89
f 89 101 102
f 89 102 103
f 89 103 104
f 89 104 105
f 89 105 90
f 90 105 106
f 90 106 98
f 91 107 92
f 92 107 108
f 92 108 99
f 93 109 110
f 99 108 111
f 99 111 112
f 99 112 100
f 100 112 113
f 100 113 102
f 100 102 101
f 102 113 114
f 102 114 103
f 103 114 115
f 103 115 116
f 103 116 117
f 103 117 104
f 104 118 105
f 104 117 119
f 104 119 120
f 104 120 118
f 105 118 121
f 105 121 122
f 105 122 106
f 109 123 110
f 110 123 120
f 110 120 119
f 110 119 124
f 111 125 112
f 112 125 113
f 113 125 115
f 113 115 114
f 116 124 117
f 117 124 119
f 118 120 121
f 120 123 121

