# https://github.com/mikedh/trimesh
v -0.03142746 0.05901313 0.09923671
v -0.03142746 0.05901313 0.02148960
v -0.09130927 0.05901313 0.09923671
v -0.03142746 -0.15335518 0.09923671
v -0.08651403 0.05901313 0.03536464
v -0.03142746 0.04404368 0.00722425
v -0.03364335 0.04098956 0.00466781
v -0.09130927 0.05901313 0.03689655
v -0.09130927 -0.14868798 0.09923671
v -0.03142746 -0.15384986 0.09716815
v -0.03142746 0.03860220 0.00256996
v -0.03779375 0.03662348 0.00279438
v -0.04349175 0.03531150 0.00362376
v -0.04807009 0.03432214 0.00443361
v -0.05153462 0.03331127 0.00503858
v -0.05592536 0.02840749 0.00403358
v -0.06857587 0.02705249 0.01140041
v -0.06908588 0.02247133 0.01092230
v -0.09130927 -0.01030661 0.03450599
v -0.09130927 -0.14877401 0.09716815
v -0.06526962 -0.15488224 0.06968148
v -0.04876769 -0.15817292 0.06092908
v -0.04754250 -0.15795785 0.06550532
v -0.04296416 -0.15823746 0.06813006
v -0.04056654 -0.15797935 0.07270629
v -0.03808099 -0.15757072 0.07629703
v -0.03779375 -0.15632325 0.08342969
v -0.03142746 -0.15557048 0.08979153
v -0.03142746 -0.15546294 0.09029892
v -0.03142746 0.03827958 0.00236505
v -0.04533247 0.03159064 0.00238456
v -0.03779375 0.03090239 0.00036479
v -0.05153462 0.02989153 0.00332127
v -0.05153462 0.02404140 0.00242359
v -0.05628881 0.02404140 0.00388721
v -0.05972403 0.02404140 0.00543863
v -0.06587928 0.02447155 0.00913670
v -0.06908588 0.01905158 0.01092230
v -0.09130927 -0.08588512 0.03446696
v -0.09130927 -0.14905362 0.09029892
v -0.07214005 -0.15337668 0.06968148
v -0.06526962 -0.15483922 0.06281227
v -0.04876769 -0.15817292 0.05750424
v -0.09130927 -0.14909662 0.08342969
v -0.03142746 -0.16066783 0.05594304
v -0.04501591 -0.15849555 0.06305619
v -0.03779375 -0.15933434 0.06281227
v -0.03142746 -0.16002261 0.06281227
v -0.03598235 -0.15812992 0.07383815
v -0.03142746 -0.15679643 0.08342969
v -0.03142746 0.03090239 -0.00044509
v -0.04466418 0.02404140 0.00103805
v -0.05204462 0.01664270 0.00353595
v -0.05467087 0.01399724 0.00446289
v -0.05577295 0.01857841 0.00409212
v -0.05819987 0.01664270 0.00540937
v -0.09130927 -0.13397662 0.03676972
v -0.06580308 0.01692231 0.00927330
v -0.09130927 -0.12855665 0.03631112
v -0.09130927 -0.09274611 0.03470115
v -0.07214005 -0.15322613 0.06281227
v -0.05124737 -0.15752770 0.05550396
v -0.04788836 -0.15797935 0.05291823
v -0.09130927 -0.14886003 0.07655071
v -0.03142746 -0.16062481 0.05543565
v -0.03142746 -0.15896871 0.06971076
v -0.03142746 -0.15769976 0.07783869
v -0.03142746 -0.15688245 0.08292230
v -0.03142746 0.02404140 0.00043308
v -0.03779375 0.02404140 0.00046234
v -0.04822837 0.00672760 0.00438484
v -0.07901049 -0.14083761 0.03650626
v -0.09130927 -0.13548217 0.03708195
v -0.07567493 -0.15118288 0.05227426
v -0.05840505 -0.15585009 0.05594304
v -0.09130927 -0.14845140 0.06968148
v -0.09130927 -0.14778465 0.06281227
v -0.04125828 -0.15802237 0.04562945
v -0.04281175 -0.15825896 0.04908358
v -0.03142746 -0.16000109 0.04908358
v -0.07838324 -0.15006448 0.04962024
v -0.07337697 -0.15090329 0.04769802
v -0.03142746 -0.01669443 0.00862931
v -0.03779375 -0.01030661 0.00737060
v -0.07214005 -0.14083761 0.03619403
v -0.07214005 -0.14580594 0.03770643
v -0.07901049 -0.14526824 0.03796988
v -0.08584575 -0.14113872 0.03764788
v -0.09130927 -0.13933207 0.03801866
v -0.09130927 -0.14707488 0.05594304
v -0.03142746 -0.15862460 0.04496594
v -0.03142746 -0.15995809 0.04882013
v -0.07901049 -0.14780615 0.04221435
v -0.08353020 -0.14460149 0.03848702
v -0.08588092 -0.14776315 0.04908358
v -0.03142746 -0.13356798 0.03322776
v -0.03779375 -0.12832006 0.03221299
v -0.03142746 -0.13397662 0.03332533
v -0.03142746 -0.14034293 0.03522804
v -0.03142746 -0.14083761 0.03539392
v -0.03142746 -0.14679529 0.03747225
v -0.03142746 -0.14722545 0.03762837
v -0.03142746 -0.15066670 0.03896514
v -0.03142746 -0.15425851 0.04147279
v -0.03142746 -0.15458113 0.04171673
v -0.03142746 -0.15836651 0.04474152
v -0.09130927 -0.14034293 0.03856508
v -0.09130927 -0.14599950 0.04898601
v -0.09095754 -0.14485958 0.04412680
v -0.08584575 -0.14563387 0.04198018
v -0.08810854 -0.14361213 0.03954082
v -0.09130927 -0.14496712 0.04493668
v -0.09130927 -0.14292389 0.04112153
v -0.09130927 -0.14479506 0.04431220
f 1 2 5
f 1 5 8
f 1 8 3
f 1 3 9
f 1 9 4
f 1 4 10
f 1 10 29
f 1 29 28
f 1 28 50
f 1 50 68
f 1 68 67
f 1 67 66
f 1 66 48
f 1 48 45
f 1 45 65
f 1 65 80
f 1 80 92
f 1 92 91
f 1 91 106
f 1 106 105
f 1 105 104
f 1 104 103
f 1 103 102
f 1 102 101
f 1 101 100
f 1 100 99
f 1 99 98
f 1 98 96
f 1 96 83
f 1 83 69
f 1 69 51
f 1 51 30
f 1 30 11
f 1 11 6
f 1 6 2
f 2 6 7
f 2 7 5
f 3 8 19
f 3 19 39
f 3 39 60
f 3 60 59
f 3 59 57
f 3 57 73
f 3 73 89
f 3 89 107
f 3 107 113
f 3 113 114
f 3 114 112
f 3 112 108
f 3 108 90
f 3 90 77
f 3 77 76
f 3 76 64
f 3 64 44
f 3 44 40
f 3 40 20
f 3 20 9
f 4 9 10
f 5 7 8
f 6 11 7
f 7 11 12
f 7 12 13
f 7 13 8
f 8 13 14
f 8 14 15
f 8 15 16
f 8 16 17
f 8 17 18
f 8 18 19
f 9 20 21
f 9 21 22
f 9 22 23
f 9 23 24
f 9 24 25
f 9 25 26
f 9 26 27
f 9 27 28
f 9 28 29
f 9 29 10
f 11 30 12
f 12 31 13
f 12 30 32
f 12 32 31
f 13 31 14
f 14 31 33
f 14 33 15
f 15 33 16
f 16 33 32
f 16 32 34
f 16 34 35
f 16 35 36
f 16 36 37
f 16 37 17
f 17 37 18
f 18 37 36
f 18 36 38
f 18 38 39
f 18 39 19
f 20 40 21
f 21 41 42
f 21 42 43
f 21 43 22
f 21 40 44
f 21 44 41
f 22 43 45
f 22 45 46
f 22 46 23
f 23 46 24
f 24 46 47
f 24 47 48
f 24 48 25
f 25 48 49
f 25 49 26
f 26 50 27
f 26 49 50
f 27 50 28
f 30 51 32
f 31 32 33
f 32 51 52
f 32 52 34
f 34 52 53
f 34 53 54
f 34 54 55
f 34 55 35
f 35 55 36
f 36 55 56
f 36 56 57
f 36 57 58
f 36 58 38
f 38 58 57
f 38 57 59
f 38 59 60
f 38 60 39
f 41 61 42
f 41 44 61
f 42 62 43
f 42 61 62
f 43 62 63
f 43 63 45
f 44 64 61
f 45 48 47
f 45 47 46
f 45 63 65
f 48 66 49
f 49 66 67
f 49 67 68
f 49 68 50
f 51 69 70
f 51 70 52
f 52 70 71
f 52 71 53
f 53 71 54
f 54 71 57
f 54 57 55
f 55 57 56
f 57 72 73
f 57 71 72
f 61 74 75
f 61 75 62
f 61 64 76
f 61 76 77
f 61 77 74
f 62 75 74
f 62 74 63
f 63 78 79
f 63 79 80
f 63 80 65
f 63 74 81
f 63 81 82
f 63 82 78
f 69 83 84
f 69 84 70
f 70 84 71
f 71 84 72
f 72 85 86
f 72 86 87
f 72 87 88
f 72 88 89
f 72 89 73
f 72 84 85
f 74 77 90
f 74 90 81
f 78 91 92
f 78 92 80
f 78 80 79
f 78 82 93
f 78 93 94
f 78 94 87
f 78 87 91
f 81 90 95
f 81 95 93
f 81 93 82
f 83 96 84
f 84 96 97
f 84 97 85
f 85 96 98
f 85 98 99
f 85 99 86
f 85 97 96
f 86 99 100
f 86 100 101
f 86 101 102
f 86 102 103
f 86 103 104
f 86 104 105
f 86 105 106
f 86 106 91
f 86 91 87
f 87 94 88
f 88 94 89
f 89 94 107
f 90 108 95
f 93 95 109
f 93 109 110
f 93 110 94
f 94 111 107
f 94 110 111
f 95 108 112
f 95 112 109
f 107 111 113
f 109 112 114
f 109 114 111
f 109 111 110
f 111 114 113

