# https://github.com/mikedh/trimesh
v -0.05959040 -0.16147697 0.24143922
v -0.06018621 -0.16834101 0.24143922
v -0.06513151 -0.20954845 0.22770943
v -0.06099653 -0.16889045 0.23396323
v -0.06037688 -0.16147697 0.23458227
v -0.05985256 -0.15460520 0.24143922
v -0.06050796 -0.15002401 0.24831205
v -0.06043646 -0.15460520 0.24831205
v -0.06075820 -0.16127577 0.24847078
v -0.06105611 -0.16834101 0.24631210
v -0.06616823 -0.20954845 0.24143922
v -0.06510768 -0.20954845 0.23458227
v -0.06679980 -0.21642022 0.22770943
v -0.06772928 -0.21654405 0.22136040
v -0.06623973 -0.20954845 0.22083660
v -0.06158043 -0.16697130 0.23007445
v -0.06641848 -0.16834101 0.20709095
v -0.06783653 -0.16834101 0.20072604
v -0.06147318 -0.16147697 0.22966176
v -0.06160426 -0.15603682 0.23023317
v -0.06098461 -0.15408671 0.23397911
v -0.06021005 -0.15002401 0.24143922
v -0.09543483 -0.15001627 0.11726798
v -0.06148510 -0.15002401 0.25215322
v -0.06156852 -0.15886137 0.25204211
v -0.06771736 -0.21488801 0.24143922
v -0.06721687 -0.21706252 0.23501082
v -0.06793186 -0.20954845 0.24570894
v -0.06849192 -0.21330935 0.24512166
v -0.06852767 -0.22005731 0.22770943
v -0.06867067 -0.21991803 0.22399525
v -0.06850384 -0.22006505 0.23301088
v -0.06908774 -0.21891976 0.21942394
v -0.06822976 -0.21433857 0.21636053
v -0.08263666 -0.17669083 0.14960044
v -0.08217191 -0.16834101 0.14767986
v -0.07017213 -0.17521279 0.19334529
v -0.06895666 -0.17521279 0.19802770
v -0.06811060 -0.17521279 0.20147205
v -0.08195742 -0.16147697 0.14696560
v -0.08361380 -0.15002401 0.14079115
v -0.06196175 -0.15002401 0.23162996
v -0.06119910 -0.15002401 0.23502669
v -0.09585190 -0.15001627 0.09923672
v -0.18132802 -0.15001627 0.11726798
v -0.18132802 -0.15002401 0.26139106
v -0.10185776 -0.15002401 0.25870860
v -0.07215025 -0.15002401 0.25570868
v -0.06527451 -0.15002401 0.25401031
v -0.06527451 -0.15460520 0.25375635
v -0.07542725 -0.19988308 0.25181989
v -0.07274607 -0.20237488 0.25007391
v -0.07215025 -0.20954845 0.24842316
v -0.06883750 -0.21977873 0.23759805
v -0.07215025 -0.21463264 0.24620100
v -0.07154252 -0.21837807 0.24170905
v -0.07215025 -0.22225505 0.22770943
v -0.07168551 -0.22189908 0.22136040
v -0.07321081 -0.22232469 0.21396377
v -0.08205275 -0.22041328 0.18158370
v -0.08267240 -0.21909775 0.17701239
v -0.07511743 -0.21418381 0.19521825
v -0.07580857 -0.21125092 0.19063107
v -0.08851142 -0.20268441 0.14656878
v -0.08317289 -0.16834101 0.14423551
v -0.08297032 -0.16147697 0.14352123
v -0.08562766 -0.15002401 0.13387070
v -0.10874542 -0.16656890 0.09923672
v -0.18132802 -0.15001627 0.09923672
v -0.08894041 -0.20663104 0.14794969
v -0.09090661 -0.20268441 0.14312442
v -0.18132802 -0.16834101 0.26072441
v -0.17519109 -0.17521279 0.26005777
v -0.17129444 -0.19270176 0.25875621
v -0.09276557 -0.16834101 0.25712134
v -0.08588983 -0.16834101 0.25634358
v -0.08588983 -0.17521279 0.25599438
v -0.07215025 -0.15460520 0.25540709
v -0.07215025 -0.16147697 0.25488330
v -0.07740537 -0.20446427 0.25156593
v -0.07902599 -0.18895633 0.25353413
v -0.07902599 -0.19581264 0.25281987
v -0.07943115 -0.20899902 0.25091516
v -0.07341338 -0.22059127 0.23959800
v -0.07154252 -0.22120260 0.23501082
v -0.07700021 -0.21943824 0.24416930
v -0.07918091 -0.21685357 0.24707399
v -0.07902599 -0.22552069 0.22083660
v -0.07902599 -0.22555165 0.21396377
v -0.09002480 -0.22642609 0.17963137
v -0.08532975 -0.22269614 0.17944090
v -0.08126627 -0.22134190 0.18648833
v -0.08705763 -0.22202290 0.17275854
v -0.08836843 -0.22081569 0.16740948
v -0.08660480 -0.21699288 0.16542541
v -0.08268432 -0.21161462 0.17020306
v -0.08338739 -0.20941689 0.16628253
v -0.11176026 -0.16980358 0.09923672
v -0.18132802 -0.19147135 0.09923672
v -0.09327797 -0.20768347 0.14550531
v -0.09591149 -0.20625959 0.14172763
v -0.08817777 -0.21458620 0.15902876
v -0.08971498 -0.21966266 0.16282230
v -0.18132802 -0.19003200 0.25835940
v -0.17843234 -0.19219103 0.25861336
v -0.17386839 -0.19270176 0.25875621
v -0.09276557 -0.17521279 0.25662928
v -0.18132802 -0.20954845 0.25362937
v -0.12362897 -0.21299208 0.25175640
v -0.09964132 -0.21190095 0.25155006
v -0.09276557 -0.21128188 0.25145482
v -0.08199317 -0.20633698 0.25180402
v -0.09276557 -0.19581264 0.25401031
v -0.08588983 -0.18208456 0.25526424
v -0.07902599 -0.16834101 0.25547059
v -0.08588983 -0.18895633 0.25448649
v -0.08588983 -0.19581264 0.25362937
v -0.08588983 -0.21642022 0.24828030
v -0.08588983 -0.21015979 0.25118499
v -0.07902599 -0.22324557 0.23458227
v -0.08158801 -0.22006505 0.24515340
v -0.07918091 -0.22100142 0.24170905
v -0.07902599 -0.22468493 0.22770943
v -0.08588983 -0.22607786 0.22083660
v -0.09964132 -0.22895657 0.18648833
v -0.09964132 -0.22907265 0.17963137
v -0.09213400 -0.22771068 0.18605977
v -0.09344480 -0.22784224 0.17963137
v -0.08884509 -0.22689814 0.18807559
v -0.08942898 -0.22668145 0.18348841
v -0.09471985 -0.22734697 0.17456802
v -0.09256299 -0.22554391 0.17248871
v -0.11293999 -0.17099531 0.09923672
v -0.18006489 -0.19194340 0.09923672
v -0.18132802 -0.21956206 0.19131359
v -0.09231274 -0.21805304 0.15882241
v -0.09798494 -0.21929895 0.15637803
v -0.13458010 -0.18773366 0.09923672
v -0.13135077 -0.18627108 0.09923672
v -0.13038554 -0.18569843 0.09923672
v -0.11905308 -0.17659799 0.09923672
v -0.11531134 -0.17331687 0.09923672
v -0.09231274 -0.22210802 0.16542541
v -0.09429086 -0.22063771 0.16096521
v -0.18132802 -0.19506200 0.25748641
v -0.18132802 -0.20180222 0.25574042
v -0.18132802 -0.20879782 0.25385159
v -0.18132802 -0.21336353 0.25234369
v -0.18132802 -0.21378140 0.25220083
v -0.09276557 -0.21642022 0.24861363
v -0.08588983 -0.22025078 0.24539149
v -0.08588983 -0.22182944 0.24143922
v -0.08588983 -0.22374856 0.23458227
v -0.08588983 -0.22511830 0.22770943
v -0.09276557 -0.22504089 0.22770943
v -0.18132802 -0.22268840 0.23458227
v -0.10650514 -0.22862382 0.18648833
v -0.10650514 -0.22880181 0.17963137
v -0.12025663 -0.22740113 0.17301251
v -0.11338088 -0.22757912 0.17309186
v -0.10614765 -0.22751722 0.17220300
v -0.10023713 -0.22754044 0.17248871
v -0.09835435 -0.22644931 0.16999671
v -0.17541750 -0.19267082 0.09923672
v -0.17909966 -0.19250056 0.10022083
v -0.15770978 -0.21977098 0.16963164
v -0.15508818 -0.22123356 0.17226649
v -0.15457578 -0.22323783 0.17963137
v -0.18132802 -0.21963944 0.19167866
v -0.10002264 -0.22117166 0.15882241
v -0.10257274 -0.21997993 0.15544155
v -0.14084811 -0.19020224 0.09923672
v -0.13902491 -0.18960636 0.09923672
v -0.18132802 -0.21684583 0.24955011
v -0.09276557 -0.22029720 0.24548673
v -0.09276557 -0.22205384 0.24143922
v -0.09276557 -0.22395751 0.23458227
v -0.18132802 -0.22169013 0.24145509
v -0.18132802 -0.22276578 0.22770943
v -0.12025663 -0.22795057 0.17963137
v -0.12545217 -0.22707612 0.17399660
v -0.12025663 -0.22666597 0.16956815
v -0.10363330 -0.22674338 0.16929832
v -0.10291831 -0.22674338 0.16929832
v -0.10023713 -0.22505637 0.16655236
v -0.17520300 -0.19269402 0.09923672
v -0.12710855 -0.22487065 0.16588571
v -0.13397237 -0.22354738 0.16588571
v -0.15314581 -0.22040554 0.16817136
v -0.14771195 -0.22302888 0.17275854
v -0.14771195 -0.22451468 0.17963137
v -0.15457578 -0.22414323 0.18648833
v -0.18132802 -0.22093951 0.20021812
v -0.18132802 -0.22021210 0.19471033
v -0.10650514 -0.22215444 0.15902876
v -0.10650514 -0.22018114 0.15517171
v -0.15458769 -0.19245413 0.09923672
v -0.14750937 -0.19168802 0.09923672
v -0.14604365 -0.19141717 0.09923672
v -0.18132802 -0.22009601 0.24602640
v -0.18132802 -0.22037460 0.24564546
v -0.18132802 -0.22151989 0.20709095
v -0.14771195 -0.22498673 0.18648833
v -0.13102903 -0.22681302 0.18199638
v -0.12748987 -0.22713029 0.17969486
v -0.12748987 -0.22636419 0.17212364
v -0.12025663 -0.22532722 0.16588571
v -0.11338088 -0.22220088 0.15902876
v -0.16832726 -0.19287975 0.09923672
v -0.16765994 -0.19289523 0.09923672
v -0.16145152 -0.19284106 0.09923672
v -0.15984281 -0.19275594 0.09923672
v -0.15550525 -0.19250830 0.09923672
f 1 2 3
f 1 3 4
f 1 4 5
f 1 5 6
f 1 6 7
f 1 7 8
f 1 8 9
f 1 9 2
f 2 9 10
f 2 10 11
f 2 11 12
f 2 12 3
f 3 13 14
f 3 14 15
f 3 15 4
f 3 12 13
f 4 15 16
f 4 16 5
f 5 16 17
f 5 17 18
f 5 18 19
f 5 19 20
f 5 20 21
f 5 21 6
f 6 22 7
f 6 21 22
f 7 22 23
f 7 23 24
f 7 24 8
f 8 24 25
f 8 25 9
f 9 25 10
f 10 25 11
f 11 26 27
f 11 27 12
f 11 25 28
f 11 28 29
f 11 29 26
f 12 27 13
f 13 30 31
f 13 31 14
f 13 27 32
f 13 32 30
f 14 33 34
f 14 34 15
f 14 31 33
f 15 34 35
f 15 35 36
f 15 36 37
f 15 37 38
f 15 38 39
f 15 39 17
f 15 17 16
f 17 39 18
f 18 20 19
f 18 39 38
f 18 38 37
f 18 37 40
f 18 40 41
f 18 41 20
f 20 42 43
f 20 43 21
f 20 41 42
f 21 43 22
f 22 43 44
f 22 44 23
f 23 44 69
f 23 69 45
f 23 45 46
f 23 46 47
f 23 47 48
f 23 48 49
f 23 49 24
f 24 49 25
f 25 49 50
f 25 50 51
f 25 51 52
f 25 52 53
f 25 53 28
f 26 54 27
f 26 29 54
f 27 54 32
f 28 53 29
f 29 53 55
f 29 55 56
f 29 56 54
f 30 57 58
f 30 58 31
f 30 32 57
f 31 58 59
f 31 59 33
f 32 54 57
f 33 59 60
f 33 60 61
f 33 61 34
f 34 61 62
f 34 62 63
f 34 63 35
f 35 64 44
f 35 44 65
f 35 65 36
f 35 63 64
f 36 65 40
f 36 40 37
f 40 65 66
f 40 66 67
f 40 67 41
f 41 67 44
f 41 44 42
f 42 44 43
f 44 68 98
f 44 98 133
f 44 133 142
f 44 142 141
f 44 141 140
f 44 140 139
f 44 139 138
f 44 138 173
f 44 173 172
f 44 172 199
f 44 199 198
f 44 198 197
f 44 197 213
f 44 213 212
f 44 212 211
f 44 211 210
f 44 210 209
f 44 209 186
f 44 186 164
f 44 164 134
f 44 134 99
f 44 99 69
f 44 67 66
f 44 66 65
f 44 64 70
f 44 70 71
f 44 71 68
f 45 69 99
f 45 99 135
f 45 135 169
f 45 169 194
f 45 194 193
f 45 193 202
f 45 202 179
f 45 179 156
f 45 156 178
f 45 178 201
f 45 201 200
f 45 200 174
f 45 174 149
f 45 149 148
f 45 148 108
f 45 108 147
f 45 147 146
f 45 146 145
f 45 145 104
f 45 104 72
f 45 72 46
f 46 72 47
f 47 72 73
f 47 73 74
f 47 74 75
f 47 75 48
f 48 75 76
f 48 76 77
f 48 77 78
f 48 78 50
f 48 50 49
f 50 78 79
f 50 79 51
f 51 80 53
f 51 53 52
f 51 79 81
f 51 81 82
f 51 82 80
f 53 80 83
f 53 83 55
f 54 84 85
f 54 85 57
f 54 56 86
f 54 86 84
f 55 83 87
f 55 87 86
f 55 86 56
f 57 88 89
f 57 89 58
f 57 85 88
f 58 89 59
f 59 89 90
f 59 90 91
f 59 91 92
f 59 92 60
f 60 92 91
f 60 91 93
f 60 93 61
f 61 93 94
f 61 94 95
f 61 95 70
f 61 70 96
f 61 96 62
f 62 96 63
f 63 96 97
f 63 97 64
f 64 97 70
f 68 71 98
f 70 100 101
f 70 101 71
f 70 97 96
f 70 95 102
f 70 102 103
f 70 103 100
f 71 101 98
f 72 104 105
f 72 105 106
f 72 106 74
f 72 74 73
f 74 107 75
f 74 106 108
f 74 108 109
f 74 109 110
f 74 110 111
f 74 111 112
f 74 112 113
f 74 113 107
f 75 107 77
f 75 77 76
f 77 107 114
f 77 114 82
f 77 82 81
f 77 81 115
f 77 115 78
f 78 115 79
f 79 115 81
f 80 82 116
f 80 116 117
f 80 117 112
f 80 112 83
f 82 114 116
f 83 118 87
f 83 112 119
f 83 119 118
f 84 120 85
f 84 86 121
f 84 121 122
f 84 122 120
f 85 120 123
f 85 123 88
f 86 87 121
f 87 118 121
f 88 124 125
f 88 125 126
f 88 126 89
f 88 123 124
f 89 126 127
f 89 127 128
f 89 128 129
f 89 129 130
f 89 130 90
f 90 130 128
f 90 128 131
f 90 131 132
f 90 132 93
f 90 93 91
f 93 132 94
f 94 103 95
f 94 132 103
f 95 103 102
f 98 101 133
f 99 134 135
f 100 103 136
f 100 136 101
f 101 136 137
f 101 137 138
f 101 138 139
f 101 139 140
f 101 140 141
f 101 141 142
f 101 142 133
f 103 132 143
f 103 143 144
f 103 144 137
f 103 137 136
f 104 145 105
f 105 145 146
f 105 146 147
f 105 147 106
f 106 147 108
f 107 113 117
f 107 117 116
f 107 116 114
f 108 148 109
f 109 148 149
f 109 149 150
f 109 150 110
f 110 150 118
f 110 118 111
f 111 118 119
f 111 119 112
f 112 117 113
f 118 150 151
f 118 151 121
f 120 122 152
f 120 152 153
f 120 153 123
f 121 151 152
f 121 152 122
f 123 153 154
f 123 154 124
f 124 154 155
f 124 155 156
f 124 156 125
f 125 157 158
f 125 158 126
f 125 156 157
f 126 158 159
f 126 159 160
f 126 160 161
f 126 161 162
f 126 162 131
f 126 131 128
f 126 128 127
f 128 130 129
f 131 162 163
f 131 163 143
f 131 143 132
f 134 164 165
f 134 165 166
f 134 166 135
f 135 166 167
f 135 167 168
f 135 168 169
f 137 144 170
f 137 170 171
f 137 171 172
f 137 172 173
f 137 173 138
f 143 163 144
f 144 163 170
f 149 174 175
f 149 175 150
f 150 175 151
f 151 175 176
f 151 176 152
f 152 176 153
f 153 177 154
f 153 176 177
f 154 177 155
f 155 177 178
f 155 178 156
f 156 179 180
f 156 180 157
f 157 180 158
f 158 180 159
f 159 180 181
f 159 181 182
f 159 182 160
f 160 182 161
f 161 182 183
f 161 183 184
f 161 184 162
f 162 184 163
f 163 184 185
f 163 185 171
f 163 171 170
f 164 186 187
f 164 187 165
f 165 187 188
f 165 188 189
f 165 189 166
f 166 189 167
f 167 189 190
f 167 190 168
f 168 190 191
f 168 191 192
f 168 192 193
f 168 193 194
f 168 194 169
f 171 185 184
f 171 184 195
f 171 195 196
f 171 196 197
f 171 197 198
f 171 198 199
f 171 199 172
f 174 200 175
f 175 200 201
f 175 201 176
f 176 201 178
f 176 178 177
f 179 202 192
f 179 192 203
f 179 203 204
f 179 204 180
f 180 204 205
f 180 205 181
f 181 206 182
f 181 205 192
f 181 192 191
f 181 191 206
f 182 206 187
f 182 187 207
f 182 207 183
f 183 207 184
f 184 207 208
f 184 208 195
f 186 209 207
f 186 207 187
f 187 206 190
f 187 190 188
f 188 190 189
f 190 206 191
f 192 205 204
f 192 204 203
f 192 202 193
f 195 208 210
f 195 210 211
f 195 211 196
f 196 211 212
f 196 212 213
f 196 213 197
f 207 209 210
f 207 210 208

