# https://github.com/mikedh/trimesh
v 0.27328329 0.03171990 0.40199179
v 0.25803623 0.03171990 0.40213212
v 0.25731671 -0.04767544 0.40213212
v 0.27328329 0.03132347 0.40190251
v 0.27328329 0.03171990 0.27182729
v 0.19070171 0.03171990 0.40213212
v 0.27328329 0.02365911 0.39967018
v 0.27328329 0.03060834 0.40169840
v 0.19070171 -0.04767544 0.40213212
v 0.27328329 -0.04767544 0.37362196
v 0.27328329 -0.04633845 0.37536956
v 0.27328329 -0.04377330 0.37764017
v 0.27328329 -0.04165122 0.37878823
v 0.27328329 -0.03778794 0.38054859
v 0.27328329 -0.02986706 0.38353355
v 0.27328329 -0.02774498 0.38418411
v 0.27328329 -0.04767544 0.27182729
v 0.19070171 0.03171990 0.27182729
v 0.19070171 -0.04767544 0.27182729
f 1 2 3
f 1 3 4
f 1 4 8
f 1 8 7
f 1 7 16
f 1 16 15
f 1 15 14
f 1 14 13
f 1 13 12
f 1 12 11
f 1 11 10
f 1 10 17
f 1 17 5
f 1 5 18
f 1 18 6
f 1 6 2
f 2 6 9
f 2 9 3
f 3 7 8
f 3 8 4
f 3 9 19
f 3 19 17
f 3 17 10
f 3 10 11
f 3 11 12
f 3 12 13
f 3 13 14
f 3 14 15
f 3 15 16
f 3 16 7
f 5 17 19
f 5 19 18
f 6 18 19
f 6 19 9

