# https://github.com/mikedh/trimesh
v -0.09072669 0.03042857 0.27070014
v -0.09072669 0.14370485 0.27070014
v -0.03142740 0.03042857 0.27070014
v -0.09072669 0.03042857 0.45700446
v -0.03142740 0.14370485 0.27070014
v -0.09072669 0.14370485 0.40779662
v -0.03142740 0.03042857 0.45508675
v -0.05202598 0.03042857 0.45635162
v -0.06526876 0.07830069 0.47746693
v -0.06983783 0.08181597 0.47875219
v -0.07441852 0.08432213 0.47820137
v -0.07841863 0.08632928 0.47705888
v -0.08915916 0.08294707 0.47155054
v -0.09072669 0.08122825 0.47018368
v -0.03142740 0.14370485 0.39565787
v -0.08588475 0.14370485 0.40855146
v -0.09072669 0.11884284 0.44541654
v -0.08763226 0.12266863 0.44256037
v -0.08305158 0.12399933 0.44468209
v -0.07901081 0.12480884 0.44598778
v -0.07407018 0.12342269 0.45065966
v -0.07192207 0.12525241 0.44804830
v -0.03142740 0.05834011 0.46355325
v -0.03587456 0.05619990 0.46443051
v -0.05153250 0.07902149 0.47550840
v -0.05877219 0.07950942 0.47734452
v -0.03157835 0.03042857 0.45510714
v -0.04466437 0.03042857 0.45612721
v -0.06130347 0.08213756 0.47858899
v -0.06526876 0.08173835 0.47875219
v -0.03779044 0.03042857 0.45569878
v -0.06526876 0.08589680 0.47911942
v -0.07213688 0.08632928 0.47881342
v -0.07573641 0.08889089 0.47854818
v -0.08647693 0.08549759 0.47326425
v -0.08980939 0.08751583 0.47189738
v -0.09072669 0.08679503 0.47128533
v -0.09072669 0.08420015 0.47087731
v -0.06496105 0.12509716 0.44821152
v -0.06245880 0.12363339 0.45092488
v -0.05840643 0.12325635 0.45002721
v -0.04466437 0.11777829 0.45288340
v -0.04041461 0.11712402 0.45165934
v -0.03799364 0.11440716 0.45414827
v -0.03583392 0.11608163 0.44900716
v -0.03296011 0.11114694 0.45445430
v -0.03142740 0.10974969 0.45445430
v -0.07214269 0.12877878 0.44070384
v -0.09072669 0.11833275 0.44617139
v -0.08592538 0.12027335 0.44761988
v -0.09072669 0.10791998 0.46137034
v -0.09072669 0.10740987 0.46210476
v -0.08717941 0.10875167 0.46306363
v -0.08259873 0.11000475 0.46485893
v -0.07901081 0.12256882 0.44941518
v -0.06948949 0.12378864 0.45119009
v -0.07637503 0.11715729 0.45837135
v -0.07214269 0.11529430 0.46251280
v -0.03142740 0.05870605 0.46365526
v -0.03362195 0.06077974 0.46502215
v -0.03962503 0.08074032 0.47210139
v -0.05153250 0.08589680 0.47661007
v -0.05692018 0.08589680 0.47814016
v -0.03142740 0.07899931 0.46906159
v -0.06035133 0.08589680 0.47877259
v -0.06526876 0.09107546 0.47885421
v -0.07214269 0.09055427 0.47869101
v -0.06038617 0.09036576 0.47877259
v -0.07573641 0.08967823 0.47854818
v -0.08588475 0.09274993 0.47397831
v -0.08992551 0.09274993 0.47195858
v -0.09072669 0.09274993 0.47150975
v -0.06703949 0.12378864 0.45119009
v -0.06496105 0.12190347 0.45386266
v -0.05840643 0.11777829 0.45916699
v -0.05840643 0.12079455 0.45445430
v -0.05140477 0.11868760 0.45486232
v -0.04903024 0.11649193 0.45743290
v -0.04466437 0.11579332 0.45633120
v -0.03779044 0.11090297 0.45902419
v -0.03428380 0.10998257 0.45794291
v -0.03142740 0.10526965 0.46008505
v -0.09072669 0.11397469 0.45253659
v -0.09072669 0.10488154 0.46561379
v -0.09072669 0.10437143 0.46626663
v -0.08507776 0.10604590 0.46775591
v -0.08297610 0.10332905 0.47185657
v -0.07901081 0.10763165 0.46924522
v -0.07901081 0.11078099 0.46581780
v -0.06526876 0.11805551 0.45963622
v -0.06526876 0.11549390 0.46306363
v -0.07214269 0.11185665 0.46693986
v -0.03496887 0.08589680 0.47144855
v -0.03924186 0.09274993 0.47218299
v -0.03142740 0.08589680 0.47018368
v -0.06526876 0.09451312 0.47809935
v -0.07214269 0.09399192 0.47811975
v -0.05153250 0.09274993 0.47585522
v -0.05822065 0.09269449 0.47765054
v -0.07901081 0.09962524 0.47487598
v -0.07841863 0.09228419 0.47716090
v -0.08964103 0.09667552 0.47179536
v -0.09072669 0.09552224 0.47128533
v -0.05840643 0.11470657 0.46259440
v -0.05361094 0.11717947 0.45835095
v -0.04466437 0.11235566 0.46043187
v -0.03779044 0.10770928 0.46245159
v -0.03426058 0.10314053 0.46481814
v -0.03198475 0.10553579 0.46035027
v -0.03142740 0.10440469 0.46094190
v -0.09072669 0.10035714 0.46922481
v -0.08755679 0.10125536 0.47067330
v -0.08551319 0.09922604 0.47261143
v -0.07901081 0.10419400 0.47246860
v -0.07214269 0.10846335 0.47038769
v -0.06526876 0.11205625 0.46685826
v -0.03580489 0.09274993 0.47099972
v -0.04073973 0.09656463 0.47181576
v -0.03142740 0.09274993 0.46883718
v -0.07214269 0.09962524 0.47610004
v -0.05840643 0.09962524 0.47463115
v -0.06526876 0.09962524 0.47583482
v -0.04466437 0.09762919 0.47236660
v -0.09072669 0.09774008 0.47059170
v -0.05840643 0.11126892 0.46598102
v -0.04466437 0.10909544 0.46385929
v -0.03779044 0.10427162 0.46575659
v -0.03818522 0.09915950 0.46920441
v -0.03154932 0.09900425 0.46573620
v -0.03142740 0.09891554 0.46571580
v -0.07214269 0.10502569 0.47303986
v -0.06526876 0.10816394 0.47030609
v -0.04466437 0.10106684 0.47048968
v -0.05200276 0.09985812 0.47299903
v -0.05460371 0.10317379 0.47171376
v -0.05840643 0.10377261 0.47212180
v -0.06526876 0.10472628 0.47279504
v -0.05840643 0.10721026 0.46942882
v -0.04466437 0.10565777 0.46704188
v -0.05002302 0.10230883 0.47112213
f 1 2 5
f 1 5 3
f 1 3 7
f 1 7 27
f 1 27 31
f 1 31 28
f 1 28 8
f 1 8 4
f 1 4 14
f 1 14 38
f 1 38 37
f 1 37 72
f 1 72 103
f 1 103 124
f 1 124 111
f 1 111 85
f 1 85 84
f 1 84 52
f 1 52 51
f 1 51 83
f 1 83 49
f 1 49 17
f 1 17 6
f 1 6 2
f 2 6 16
f 2 16 15
f 2 15 5
f 3 5 15
f 3 15 47
f 3 47 82
f 3 82 110
f 3 110 130
f 3 130 119
f 3 119 95
f 3 95 64
f 3 64 59
f 3 59 23
f 3 23 7
f 4 8 9
f 4 9 10
f 4 10 11
f 4 11 12
f 4 12 13
f 4 13 14
f 6 17 18
f 6 18 19
f 6 19 20
f 6 20 21
f 6 21 22
f 6 22 16
f 7 23 24
f 7 24 25
f 7 25 26
f 7 26 27
f 8 28 9
f 9 26 29
f 9 29 30
f 9 30 10
f 9 28 31
f 9 31 26
f 10 30 32
f 10 32 33
f 10 33 34
f 10 34 11
f 11 34 12
f 12 34 35
f 12 35 13
f 13 35 36
f 13 36 37
f 13 37 38
f 13 38 14
f 15 16 39
f 15 39 40
f 15 40 41
f 15 41 42
f 15 42 43
f 15 43 44
f 15 44 45
f 15 45 46
f 15 46 47
f 16 22 48
f 16 48 39
f 17 49 18
f 18 49 50
f 18 50 19
f 19 50 51
f 19 51 52
f 19 52 53
f 19 53 54
f 19 54 55
f 19 55 20
f 20 55 21
f 21 56 22
f 21 55 57
f 21 57 58
f 21 58 56
f 22 56 48
f 23 59 60
f 23 60 24
f 24 60 25
f 25 61 62
f 25 62 63
f 25 63 29
f 25 29 26
f 25 60 64
f 25 64 61
f 26 31 27
f 29 65 32
f 29 32 30
f 29 63 65
f 32 66 67
f 32 67 33
f 32 65 68
f 32 68 66
f 33 67 69
f 33 69 34
f 34 69 70
f 34 70 36
f 34 36 35
f 36 71 72
f 36 72 37
f 36 70 71
f 39 73 40
f 39 48 73
f 40 73 74
f 40 74 75
f 40 75 76
f 40 76 41
f 41 76 77
f 41 77 42
f 42 77 78
f 42 78 79
f 42 79 43
f 43 79 44
f 44 79 80
f 44 80 81
f 44 81 45
f 45 81 46
f 46 81 47
f 47 81 82
f 48 56 73
f 49 83 50
f 50 83 51
f 52 84 53
f 53 84 54
f 54 84 85
f 54 85 86
f 54 86 87
f 54 87 88
f 54 88 89
f 54 89 55
f 55 89 57
f 56 58 90
f 56 90 73
f 57 89 58
f 58 91 90
f 58 89 92
f 58 92 91
f 59 64 60
f 61 93 62
f 61 64 93
f 62 68 63
f 62 93 94
f 62 94 68
f 63 68 65
f 64 95 93
f 66 68 96
f 66 96 97
f 66 97 67
f 67 97 69
f 68 94 98
f 68 98 99
f 68 99 96
f 69 97 100
f 69 100 101
f 69 101 70
f 70 101 102
f 70 102 71
f 71 102 103
f 71 103 72
f 73 90 74
f 74 90 75
f 75 90 91
f 75 91 104
f 75 104 105
f 75 105 76
f 76 105 77
f 77 105 78
f 78 105 106
f 78 106 79
f 79 106 80
f 80 106 107
f 80 107 81
f 81 107 108
f 81 108 109
f 81 109 82
f 82 109 110
f 85 111 112
f 85 112 87
f 85 87 86
f 87 113 100
f 87 100 114
f 87 114 88
f 87 112 113
f 88 115 92
f 88 92 89
f 88 114 115
f 91 92 116
f 91 116 104
f 92 115 116
f 93 117 94
f 93 95 117
f 94 117 118
f 94 118 98
f 95 119 117
f 96 120 97
f 96 99 121
f 96 121 122
f 96 122 120
f 97 120 100
f 98 118 99
f 99 118 123
f 99 123 121
f 100 120 114
f 100 113 101
f 101 113 102
f 102 113 112
f 102 112 124
f 102 124 103
f 104 116 125
f 104 125 126
f 104 126 106
f 104 106 105
f 106 126 107
f 107 126 127
f 107 127 108
f 108 127 128
f 108 128 129
f 108 129 130
f 108 130 110
f 108 110 109
f 111 124 112
f 114 120 131
f 114 131 115
f 115 132 116
f 115 131 132
f 116 132 125
f 117 119 118
f 118 119 128
f 118 128 133
f 118 133 123
f 119 130 129
f 119 129 128
f 120 122 131
f 121 123 134
f 121 134 135
f 121 135 136
f 121 136 137
f 121 137 122
f 122 137 131
f 123 133 134
f 125 132 138
f 125 138 139
f 125 139 126
f 126 139 127
f 127 139 133
f 127 133 128
f 131 137 132
f 132 137 136
f 132 136 135
f 132 135 138
f 133 139 140
f 133 140 134
f 134 140 135
f 135 140 139
f 135 139 138

