# https://github.com/mikedh/trimesh
v 0.14787653 -0.00329788 0.08850075
v 0.27555096 0.02017107 0.18235966
v 0.23589644 -0.00329788 0.17280368
v 0.14787653 -0.00329788 0.19047444
v 0.14787653 0.03894337 0.06503925
v 0.15234584 0.04032809 0.06572739
v 0.15692903 0.04245514 0.06688294
v 0.17102019 0.05585985 0.06661029
v 0.18562375 0.06166999 0.07303720
v 0.27442651 0.03533166 0.16968760
v 0.28484544 0.02345443 0.19047444
v 0.28249691 0.02141304 0.19047444
v 0.28169983 0.02072781 0.19047444
v 0.24123401 -0.00329788 0.17962010
v 0.23640886 -0.00329788 0.17333601
v 0.28854615 0.02786557 0.19047444
v 0.24590260 -0.00329788 0.19047444
v 0.14787653 0.12789410 0.19047444
v 0.14787653 0.04452509 0.06227373
v 0.15181920 0.05407541 0.05907976
v 0.15462321 0.04471067 0.06462377
v 0.17274245 0.06044229 0.06583125
v 0.18207961 0.06528169 0.07002498
v 0.18615039 0.06528169 0.07259575
v 0.19695360 0.06528169 0.08217770
v 0.27572175 0.06074208 0.15475638
v 0.26880428 0.04011396 0.16152087
v 0.24479239 -0.00329788 0.18703377
v 0.24452195 -0.00329788 0.18620282
v 0.24432267 -0.00329788 0.18574839
v 0.28887351 0.02850797 0.19047444
v 0.25754560 0.09351866 0.19047444
v 0.14787653 0.13146298 0.17937341
v 0.14787653 0.04466785 0.06220882
v 0.14787653 0.05824386 0.05785930
v 0.14787653 0.05841517 0.05784630
v 0.15228891 0.05841517 0.05900185
v 0.14787653 0.04940732 0.06006652
v 0.14787653 0.04956435 0.06000159
v 0.14787653 0.05300475 0.05867727
v 0.16146951 0.06528169 0.06175440
v 0.16834429 0.06528169 0.06409146
v 0.17311251 0.06528169 0.06577932
v 0.17654278 0.06528169 0.06712962
v 0.18207961 0.07213394 0.06990814
v 0.18649199 0.07213394 0.07233607
v 0.19390764 0.07213394 0.07886686
v 0.19733791 0.07213394 0.08199592
v 0.29328589 0.05153437 0.19047444
v 0.29291584 0.04648084 0.19047444
v 0.29204758 0.04035665 0.19047444
v 0.29137860 0.03780133 0.19047444
v 0.28941438 0.03044944 0.19047444
v 0.27550826 0.06528169 0.15495114
v 0.27761481 0.06528169 0.15900204
v 0.26257002 0.09073493 0.19047444
v 0.14787653 0.14254078 0.12488097
v 0.14787653 0.14188410 0.13151562
v 0.14787653 0.13900045 0.15254916
v 0.15103637 0.13735876 0.15521081
v 0.14787653 0.13154864 0.17908777
v 0.14787653 0.06505328 0.05795018
v 0.15542029 0.06528169 0.06000159
v 0.15110752 0.08137020 0.05940436
v 0.17258586 0.07052080 0.06603901
v 0.17500557 0.07254793 0.06710366
v 0.16653664 0.08588126 0.06549369
v 0.18606498 0.07651652 0.07269962
v 0.29244612 0.05841517 0.19047444
v 0.27483928 0.06872209 0.15556137
v 0.26621380 0.08777991 0.19047444
v 0.17954605 0.12428239 0.12641304
v 0.17025158 0.12969281 0.12464727
v 0.15385459 0.13915748 0.12464727
v 0.14787653 0.14105612 0.11770100
v 0.14787653 0.13865783 0.15383454
v 0.14787653 0.07905756 0.05846951
v 0.14787653 0.08349725 0.05900185
v 0.16552606 0.08972137 0.06596109
v 0.16146951 0.08588126 0.06377984
v 0.16766108 0.07901474 0.06514313
v 0.18437120 0.08108469 0.07403694
v 0.18879782 0.07881488 0.07675052
v 0.19303940 0.07653080 0.07946411
v 0.29132168 0.06064215 0.19047444
v 0.19151642 0.08111324 0.08107408
v 0.18693324 0.08383986 0.07862018
v 0.17783802 0.08839375 0.07388113
v 0.17997305 0.09027812 0.07846437
v 0.17829351 0.12334020 0.12184279
v 0.27540862 0.06929311 0.15900204
v 0.29005490 0.06274065 0.19047444
v 0.26984333 0.08431095 0.19047444
v 0.17568878 0.12610966 0.12433566
v 0.14787653 0.14087054 0.11742834
v 0.14787653 0.08583843 0.05965105
v 0.14838893 0.08636663 0.05994966
v 0.16146951 0.09056362 0.06536385
v 0.15459474 0.09501758 0.06753213
v 0.16211002 0.09440374 0.06966145
v 0.14787653 0.13827240 0.11372800
v 0.16481439 0.09614535 0.07319301
v 0.16803115 0.09144871 0.06970039
v 0.17325484 0.09020673 0.07198552
v 0.17978803 0.08381131 0.07245294
v 0.14787653 0.08650938 0.05993668
v 0.15459474 0.09157719 0.06446799
v 0.16024544 0.09704472 0.07192060
v 0.14787653 0.09207683 0.06353316
v 0.14787653 0.09551723 0.06718156
f 1 2 3
f 1 3 15
f 1 15 14
f 1 14 30
f 1 30 29
f 1 29 28
f 1 28 17
f 1 17 4
f 1 4 18
f 1 18 33
f 1 33 61
f 1 61 76
f 1 76 59
f 1 59 58
f 1 58 57
f 1 57 75
f 1 75 95
f 1 95 101
f 1 101 110
f 1 110 109
f 1 109 106
f 1 106 96
f 1 96 78
f 1 78 77
f 1 77 62
f 1 62 36
f 1 36 35
f 1 35 40
f 1 40 39
f 1 39 38
f 1 38 34
f 1 34 19
f 1 19 5
f 1 5 6
f 1 6 7
f 1 7 8
f 1 8 9
f 1 9 10
f 1 10 2
f 2 11 12
f 2 12 13
f 2 13 14
f 2 14 15
f 2 15 3
f 2 10 16
f 2 16 11
f 4 17 13
f 4 13 12
f 4 12 11
f 4 11 16
f 4 16 31
f 4 31 53
f 4 53 52
f 4 52 51
f 4 51 50
f 4 50 49
f 4 49 69
f 4 69 85
f 4 85 92
f 4 92 93
f 4 93 71
f 4 71 56
f 4 56 32
f 4 32 18
f 5 19 6
f 6 19 20
f 6 20 21
f 6 21 8
f 6 8 7
f 8 21 20
f 8 20 22
f 8 22 9
f 9 22 23
f 9 23 24
f 9 24 25
f 9 25 26
f 9 26 27
f 9 27 10
f 10 27 26
f 10 26 16
f 13 17 28
f 13 28 29
f 13 29 30
f 13 30 14
f 16 26 31
f 18 32 33
f 19 34 20
f 20 35 36
f 20 36 37
f 20 37 22
f 20 34 38
f 20 38 39
f 20 39 40
f 20 40 35
f 22 41 42
f 22 42 43
f 22 43 44
f 22 44 23
f 22 37 41
f 23 44 45
f 23 45 46
f 23 46 24
f 24 46 47
f 24 47 25
f 25 47 48
f 25 48 26
f 26 49 50
f 26 50 51
f 26 51 52
f 26 52 53
f 26 53 31
f 26 48 54
f 26 54 55
f 26 55 49
f 32 56 57
f 32 57 58
f 32 58 59
f 32 59 60
f 32 60 61
f 32 61 33
f 36 62 37
f 37 62 63
f 37 63 41
f 41 63 64
f 41 64 42
f 42 64 65
f 42 65 43
f 43 65 66
f 43 66 44
f 44 66 45
f 45 66 67
f 45 67 68
f 45 68 46
f 46 68 47
f 47 68 48
f 48 68 54
f 49 55 69
f 54 68 70
f 54 70 55
f 55 70 69
f 56 71 70
f 56 70 72
f 56 72 73
f 56 73 74
f 56 74 57
f 57 74 75
f 59 76 60
f 60 76 61
f 62 77 64
f 62 64 63
f 64 77 78
f 64 78 79
f 64 79 80
f 64 80 67
f 64 67 81
f 64 81 66
f 64 66 65
f 66 81 67
f 67 80 79
f 67 79 68
f 68 82 83
f 68 83 84
f 68 84 70
f 68 79 82
f 69 70 85
f 70 84 83
f 70 83 86
f 70 86 87
f 70 87 88
f 70 88 89
f 70 89 90
f 70 90 72
f 70 71 91
f 70 91 92
f 70 92 85
f 71 93 91
f 72 90 94
f 72 94 73
f 73 94 75
f 73 75 74
f 75 94 90
f 75 90 95
f 78 96 79
f 79 96 97
f 79 97 98
f 79 98 99
f 79 99 100
f 79 100 101
f 79 101 102
f 79 102 103
f 79 103 104
f 79 104 88
f 79 88 105
f 79 105 82
f 82 86 83
f 82 105 88
f 82 88 87
f 82 87 86
f 88 104 89
f 89 104 90
f 90 101 95
f 90 104 101
f 91 93 92
f 96 106 97
f 97 106 107
f 97 107 98
f 98 107 99
f 99 108 100
f 99 107 109
f 99 109 110
f 99 110 101
f 99 101 108
f 100 108 101
f 101 104 102
f 102 104 103
f 106 109 107

