# https://github.com/mikedh/trimesh
v 0.01162267 -0.16318701 0.05728296
v 0.01162267 -0.16309143 0.05596528
v 0.02404898 -0.16250428 0.06284123
v 0.03091653 -0.16229945 0.06969324
v 0.02404898 -0.16277737 0.06969324
v 0.01162267 -0.16305046 0.06284123
v 0.01717774 -0.16244965 0.05596528
v 0.01162267 -0.16184885 0.05040700
v 0.03778777 -0.16096129 0.06969324
v 0.03778777 -0.16115246 0.07656919
v 0.03091653 -0.16197174 0.07656919
v 0.01717774 -0.16265447 0.06969324
v 0.01162267 -0.16299584 0.06413495
v 0.01162267 -0.16139824 0.04896951
v 0.01769244 -0.15995084 0.04849035
v 0.02457838 -0.16025123 0.05543819
v 0.04254873 -0.15903597 0.06969324
v 0.04319578 -0.15921348 0.07656919
v 0.04791999 -0.15798455 0.09032111
v 0.03778777 -0.15929541 0.06432662
v 0.04181713 -0.15854439 0.06571619
v 0.04448253 -0.15881749 0.09032111
v 0.03778777 -0.16060626 0.08344515
v 0.02404898 -0.16180788 0.07656919
v 0.03778777 -0.15956850 0.09032111
v 0.04917732 -0.13372006 0.25282855
v 0.04917732 -0.13258671 0.25970452
v 0.01162267 -0.16239503 0.06969324
v 0.01162267 -0.15898134 0.04453728
v 0.01574394 -0.15853074 0.04508831
v 0.02032476 -0.15791628 0.04578311
v 0.02264091 -0.15909059 0.05035908
v 0.04917732 -0.15615481 0.08608053
v 0.04743838 -0.15730182 0.08344515
v 0.04917732 -0.15730182 0.09271692
v 0.04917732 -0.15666004 0.10160535
v 0.04823616 -0.13776186 0.06602764
v 0.04482812 -0.15458452 0.06969324
v 0.04876189 -0.15249534 0.07834208
v 0.04917732 -0.15300056 0.08023478
v 0.04917732 -0.15405198 0.08181600
v 0.02715923 -0.15076119 0.04597477
v 0.02884303 -0.14617319 0.04434562
v 0.03488339 -0.13832171 0.04504040
v 0.03582088 -0.13397950 0.04379457
v 0.04037229 -0.12711115 0.04738829
v 0.04331710 -0.15835323 0.09542418
v 0.04917732 -0.13127585 0.26660443
v 0.01162267 -0.12839470 0.26337009
v 0.03091653 -0.13554979 0.23457252
v 0.03778777 -0.13488071 0.24144848
v 0.01162267 -0.12862683 0.26205240
v 0.01162267 -0.15534919 0.04194981
v 0.01769244 -0.15521263 0.04324354
v 0.02257841 -0.15332828 0.04410602
v 0.04917732 -0.13397950 0.06617139
v 0.04917732 -0.13994662 0.06995677
v 0.04917732 -0.14841257 0.07563483
v 0.04917732 -0.12055687 0.05936730
v 0.04917732 -0.15024231 0.07733585
v 0.02392030 -0.14756598 0.04194981
v 0.02921803 -0.13236824 0.03782902
v 0.03379517 -0.12895455 0.03921860
v 0.03652675 -0.12683806 0.04178211
v 0.04745308 -0.11336082 0.05344967
v 0.04917732 -0.11336082 0.05598924
v 0.04917732 -0.13103007 0.26777838
v 0.01162267 -0.12704288 0.27024606
v 0.01162267 -0.15433873 0.04125504
v 0.01717774 -0.14883587 0.03964984
v 0.02068505 -0.14437076 0.03876338
v 0.01717774 -0.14084784 0.03699050
v 0.02430633 -0.13437548 0.03713424
v 0.02404898 -0.12711115 0.03533738
v 0.03126947 -0.12683806 0.03754153
v 0.03452678 -0.12436655 0.03864359
v 0.04917732 -0.05005739 0.03828422
v 0.04917732 -0.13029271 0.27120438
v 0.04917732 -0.13015616 0.27182729
v 0.01162267 -0.12667421 0.27182729
v 0.01162267 -0.15111621 0.03953005
v 0.01208590 -0.15026961 0.03917066
v 0.01717774 -0.14539486 0.03833214
v 0.01162267 -0.14172174 0.03636759
v 0.01162267 -0.14084784 0.03612801
v 0.01717774 -0.13397950 0.03536134
v 0.01162267 -0.14730654 0.03799673
v 0.01162267 -0.08721197 0.02781456
v 0.02103798 -0.10440330 0.03174369
v 0.04917732 -0.02369006 0.03337282
v 0.04917732 -0.02369006 0.27182729
v 0.01162267 -0.02369006 0.27182729
v 0.01162267 -0.14973708 0.03888317
v 0.01162267 -0.13397950 0.03459469
v 0.01162267 -0.08022074 0.02711978
v 0.01162267 -0.07901912 0.02707186
v 0.01162267 -0.07316123 0.02714374
v 0.01162267 -0.07215078 0.02719165
v 0.01162267 -0.06647040 0.02750310
v 0.01162267 -0.06528243 0.02757498
v 0.01162267 -0.06085830 0.02807809
v 0.01162267 -0.05871450 0.02836559
v 0.01162267 -0.05138190 0.02985099
v 0.01162267 -0.05033049 0.03013849
v 0.01162267 -0.04675294 0.03128849
v 0.01162267 -0.02369006 0.03885921
f 1 2 3
f 1 3 4
f 1 4 5
f 1 5 6
f 1 6 13
f 1 13 28
f 1 28 52
f 1 52 49
f 1 49 68
f 1 68 80
f 1 80 92
f 1 92 106
f 1 106 105
f 1 105 104
f 1 104 103
f 1 103 102
f 1 102 101
f 1 101 100
f 1 100 99
f 1 99 98
f 1 98 97
f 1 97 96
f 1 96 95
f 1 95 88
f 1 88 94
f 1 94 85
f 1 85 84
f 1 84 87
f 1 87 93
f 1 93 81
f 1 81 69
f 1 69 53
f 1 53 29
f 1 29 14
f 1 14 8
f 1 8 2
f 2 7 3
f 2 8 7
f 3 9 4
f 3 7 9
f 4 9 10
f 4 10 11
f 4 11 5
f 5 11 12
f 5 12 13
f 5 13 6
f 7 8 14
f 7 14 15
f 7 15 16
f 7 16 9
f 9 17 18
f 9 18 19
f 9 19 10
f 9 16 20
f 9 20 21
f 9 21 17
f 10 19 22
f 10 22 23
f 10 23 11
f 11 24 12
f 11 23 25
f 11 25 26
f 11 26 24
f 12 24 27
f 12 27 28
f 12 28 13
f 14 29 30
f 14 30 15
f 15 30 31
f 15 31 32
f 15 32 16
f 16 32 20
f 17 21 33
f 17 33 34
f 17 34 19
f 17 19 18
f 19 34 35
f 19 35 36
f 19 36 22
f 20 32 21
f 21 37 38
f 21 38 39
f 21 39 40
f 21 40 41
f 21 41 33
f 21 32 31
f 21 31 42
f 21 42 43
f 21 43 44
f 21 44 45
f 21 45 46
f 21 46 37
f 22 36 47
f 22 47 23
f 23 47 25
f 24 26 27
f 25 47 26
f 26 47 36
f 26 36 35
f 26 35 33
f 26 33 41
f 26 41 40
f 26 40 60
f 26 60 58
f 26 58 57
f 26 57 56
f 26 56 59
f 26 59 66
f 26 66 77
f 26 77 90
f 26 90 91
f 26 91 79
f 26 79 78
f 26 78 67
f 26 67 48
f 26 48 27
f 27 48 49
f 27 49 50
f 27 50 51
f 27 51 28
f 28 51 50
f 28 50 52
f 29 53 30
f 30 53 54
f 30 54 31
f 31 54 55
f 31 55 42
f 33 35 34
f 37 56 57
f 37 57 58
f 37 58 38
f 37 46 59
f 37 59 56
f 38 58 60
f 38 60 39
f 39 60 40
f 42 55 43
f 43 55 61
f 43 61 62
f 43 62 63
f 43 63 44
f 44 63 45
f 45 63 64
f 45 64 46
f 46 65 66
f 46 66 59
f 46 64 65
f 48 67 68
f 48 68 49
f 49 52 50
f 53 69 54
f 54 69 70
f 54 70 55
f 55 70 71
f 55 71 61
f 61 71 62
f 62 71 72
f 62 72 73
f 62 73 74
f 62 74 75
f 62 75 63
f 63 75 76
f 63 76 64
f 64 76 77
f 64 77 65
f 65 77 66
f 67 78 68
f 68 78 79
f 68 79 80
f 69 81 82
f 69 82 70
f 70 82 83
f 70 83 71
f 71 83 72
f 72 84 85
f 72 85 86
f 72 86 74
f 72 74 73
f 72 83 87
f 72 87 84
f 74 86 88
f 74 88 89
f 74 89 75
f 75 89 90
f 75 90 76
f 76 90 77
f 79 91 92
f 79 92 80
f 81 93 82
f 82 93 83
f 83 93 87
f 85 94 86
f 86 94 88
f 88 95 89
f 89 95 90
f 90 95 96
f 90 96 97
f 90 97 98
f 90 98 99
f 90 99 100
f 90 100 101
f 90 101 102
f 90 102 103
f 90 103 104
f 90 104 105
f 90 105 106
f 90 106 92
f 90 92 91

