# https://github.com/mikedh/trimesh
v -0.05704222 0.17693264 0.27070014
v -0.05318471 0.17517221 0.27070014
v -0.05704222 0.18593410 0.20022491
v -0.05704222 -0.11901944 0.27070014
v -0.05138135 0.17434181 0.27070014
v -0.05564017 0.18510370 0.20022491
v -0.05704222 0.18596731 0.19743880
v -0.03142160 0.16324775 0.27070014
v -0.05704222 -0.12762229 0.25544366
v -0.05650046 -0.11908586 0.27070014
v -0.05152934 0.18254609 0.20022491
v -0.05704222 0.18590088 0.19336033
v -0.03142160 0.16620396 0.19336033
v -0.04700215 0.17952347 0.20022491
v -0.03142160 -0.12214172 0.27070014
v -0.05704222 -0.13064493 0.24832732
v -0.05152934 0.18238000 0.19336033
v -0.05567027 0.18503727 0.19336033
v -0.05704222 0.18546907 0.19131271
v -0.03142160 0.16351347 0.14577823
v -0.03142160 0.16344705 0.14527471
v -0.03142160 0.16241737 0.13891365
v -0.03142160 0.16108873 0.13203229
v -0.03142160 0.16477569 0.15876889
v -0.04714260 0.17939059 0.19336033
v -0.03142160 -0.12636010 0.25468838
v -0.03142160 -0.12981454 0.24117741
v -0.05704222 -0.13164140 0.24424885
v -0.03142160 0.16431066 0.15218964
v -0.05704222 0.18437295 0.18647897
v -0.03142160 0.16095586 0.13152877
v -0.03142160 -0.13130924 0.23483313
v -0.05704222 -0.13247179 0.23973401
v -0.03142160 -0.13263788 0.22771680
v -0.05704222 0.18414045 0.18577405
v -0.03142160 0.15912900 0.12528519
v -0.03142160 0.15892970 0.12463063
v -0.03142160 0.15112403 0.09923671
v -0.05704222 -0.13333540 0.23458138
v -0.03142160 -0.15336448 0.09923671
v -0.03241984 0.15122367 0.09923671
v -0.03356606 0.15132331 0.09923671
v -0.03807067 0.15168868 0.09923671
v -0.04465955 0.15188798 0.09923671
v -0.05704222 0.15215370 0.09923671
v -0.05704222 -0.15020898 0.09923671
v -0.05575053 -0.15040828 0.09923671
v -0.04940996 -0.15130510 0.09923671
v -0.04465955 -0.15196943 0.09923671
v -0.03760416 -0.15279981 0.09923671
f 1 2 3
f 1 3 7
f 1 7 12
f 1 12 19
f 1 19 30
f 1 30 35
f 1 35 45
f 1 45 46
f 1 46 39
f 1 39 33
f 1 33 28
f 1 28 16
f 1 16 9
f 1 9 4
f 1 4 10
f 1 10 15
f 1 15 8
f 1 8 5
f 1 5 2
f 2 5 3
f 3 6 7
f 3 5 8
f 3 8 6
f 4 9 10
f 6 11 7
f 6 8 11
f 7 11 12
f 8 13 14
f 8 14 11
f 8 15 26
f 8 26 27
f 8 27 32
f 8 32 34
f 8 34 40
f 8 40 38
f 8 38 37
f 8 37 36
f 8 36 31
f 8 31 23
f 8 23 22
f 8 22 21
f 8 21 20
f 8 20 29
f 8 29 24
f 8 24 13
f 9 16 15
f 9 15 10
f 11 14 17
f 11 17 18
f 11 18 12
f 12 18 20
f 12 20 21
f 12 21 22
f 12 22 23
f 12 23 19
f 13 24 25
f 13 25 14
f 14 25 17
f 15 16 26
f 16 27 26
f 16 28 27
f 17 25 29
f 17 29 20
f 17 20 18
f 19 23 30
f 23 31 30
f 24 29 25
f 27 28 32
f 28 33 34
f 28 34 32
f 30 31 36
f 30 36 37
f 30 37 38
f 30 38 35
f 33 39 34
f 34 39 40
f 35 38 41
f 35 41 42
f 35 42 43
f 35 43 44
f 35 44 45
f 38 40 50
f 38 50 49
f 38 49 48
f 38 48 47
f 38 47 46
f 38 46 45
f 38 45 44
f 38 44 43
f 38 43 42
f 38 42 41
f 39 46 47
f 39 47 48
f 39 48 49
f 39 49 50
f 39 50 40

