# https://github.com/mikedh/trimesh
v 0.30893009 -0.00329789 0.27182729
v 0.28895409 -0.09068262 0.27182729
v 0.28892255 -0.09062680 0.27157405
v 0.28168578 -0.11673616 0.26556543
v 0.27604144 -0.12023881 0.25701293
v 0.29024693 -0.00329789 0.24196836
v 0.14787652 -0.00329789 0.27182729
v 0.28337279 -0.11370798 0.27182729
v 0.28203266 -0.11789441 0.27014672
v 0.28209571 -0.11850842 0.27182729
v 0.28107091 -0.12148079 0.27182729
v 0.28078710 -0.12021090 0.26828773
v 0.27613602 -0.12576490 0.26207191
v 0.27537924 -0.12469038 0.25783020
v 0.28498095 -0.00329789 0.23507341
v 0.29019963 -0.00329789 0.24190505
v 0.26916729 -0.12710456 0.25048057
v 0.14787652 -0.00329789 0.21922309
v 0.14787652 -0.13994294 0.27182729
v 0.27774421 -0.12710456 0.27182729
v 0.27388142 -0.12919777 0.26207191
v 0.26948262 -0.13186313 0.25519999
v 0.26845779 -0.13105375 0.25120000
v 0.24895479 -0.08470998 0.22296409
v 0.24960120 -0.07900248 0.22229646
v 0.23787102 -0.07901643 0.21303030
v 0.27826448 -0.00329789 0.23023889
v 0.26435854 -0.12752319 0.24671655
v 0.14787652 -0.00331184 0.21303030
v 0.14828645 -0.00329789 0.21303030
v 0.14787652 -0.14029180 0.26900715
v 0.15061987 -0.14009644 0.27182729
v 0.27507968 -0.13074674 0.27182729
v 0.27504815 -0.13071883 0.27161434
v 0.27044435 -0.13236550 0.26207191
v 0.26451619 -0.13438894 0.25519999
v 0.26451619 -0.13215618 0.24974964
v 0.21333853 -0.13071883 0.21303030
v 0.26070073 -0.13009087 0.24505900
v 0.23624709 -0.08533795 0.21303030
v 0.25172966 -0.00329789 0.21303030
v 0.22029151 -0.12402055 0.21303030
v 0.22169472 -0.12109005 0.21303030
v 0.22189967 -0.12062955 0.21303030
v 0.14787652 -0.14585975 0.21303030
v 0.14787652 -0.14574812 0.21416411
v 0.15460877 -0.14016622 0.27182729
v 0.27332961 -0.13173754 0.27182729
v 0.27162684 -0.13247714 0.27182729
v 0.26451619 -0.13483549 0.26207191
v 0.25764205 -0.13570069 0.25519999
v 0.15243301 -0.14513411 0.21303030
v 0.15318979 -0.14496665 0.21303030
v 0.20996452 -0.13172358 0.21303030
v 0.21675983 -0.12776043 0.21303030
v 0.21685443 -0.12767670 0.21303030
v 0.25764205 -0.13575651 0.26207191
v 0.25764205 -0.13535181 0.26894384
v 0.26052731 -0.13494713 0.27182729
v 0.26740146 -0.13395634 0.27182729
v 0.26451619 -0.13464012 0.26894384
v 0.26451619 -0.13452848 0.27182729
f 1 2 3
f 1 3 4
f 1 4 5
f 1 5 6
f 1 6 16
f 1 16 15
f 1 15 27
f 1 27 41
f 1 41 30
f 1 30 18
f 1 18 7
f 1 7 19
f 1 19 32
f 1 32 47
f 1 47 59
f 1 59 62
f 1 62 60
f 1 60 49
f 1 49 48
f 1 48 33
f 1 33 20
f 1 20 11
f 1 11 10
f 1 10 8
f 1 8 2
f 2 8 4
f 2 4 3
f 4 8 9
f 4 9 10
f 4 10 11
f 4 11 12
f 4 12 13
f 4 13 14
f 4 14 5
f 5 15 16
f 5 16 6
f 5 14 17
f 5 17 15
f 7 18 29
f 7 29 45
f 7 45 46
f 7 46 31
f 7 31 19
f 8 10 9
f 11 20 13
f 11 13 12
f 13 20 21
f 13 21 14
f 14 21 22
f 14 22 23
f 14 23 17
f 15 17 24
f 15 24 25
f 15 25 26
f 15 26 27
f 17 23 28
f 17 28 24
f 18 30 29
f 19 31 32
f 20 33 21
f 21 33 34
f 21 34 22
f 22 35 36
f 22 36 23
f 22 34 33
f 22 33 35
f 23 36 37
f 23 37 38
f 23 38 39
f 23 39 28
f 24 28 40
f 24 40 25
f 25 40 26
f 26 40 44
f 26 44 43
f 26 43 42
f 26 42 56
f 26 56 55
f 26 55 38
f 26 38 54
f 26 54 53
f 26 53 52
f 26 52 45
f 26 45 29
f 26 29 30
f 26 30 41
f 26 41 27
f 28 39 42
f 28 42 43
f 28 43 44
f 28 44 40
f 31 46 32
f 32 46 47
f 33 48 35
f 35 48 49
f 35 49 50
f 35 50 36
f 36 50 51
f 36 51 52
f 36 52 53
f 36 53 54
f 36 54 37
f 37 54 38
f 38 55 39
f 39 55 56
f 39 56 42
f 45 57 58
f 45 58 59
f 45 59 47
f 45 47 46
f 45 52 51
f 45 51 57
f 49 60 50
f 50 60 61
f 50 61 57
f 50 57 51
f 57 61 62
f 57 62 59
f 57 59 58
f 60 62 61

