# https://github.com/mikedh/trimesh
v -0.03142160 0.05903464 0.02148671
v -0.11333014 0.08627193 0.02944742
v -0.10649221 0.08627193 0.02875485
v -0.09999176 0.08627193 0.02862546
v -0.09275763 0.08627193 0.02877768
v -0.08589035 0.08627193 0.02919627
v -0.07940457 0.08627193 0.02966050
v -0.07902305 0.08627193 0.02969856
v -0.03142160 0.06527340 0.02449291
v -0.03142160 0.05903464 0.09923671
v -0.12710874 0.05903464 0.04377059
v -0.11335949 0.07685246 0.03238510
v -0.11751215 0.08176082 0.03166970
v -0.11997733 0.08626394 0.03112936
v -0.11997733 0.08627193 0.03112936
v -0.03142160 0.08627193 0.03464545
v -0.18131336 0.05903464 0.09923671
v -0.03142160 0.08627193 0.09923671
v -0.13161357 0.05903464 0.04511004
v -0.12209034 0.08422700 0.03249166
v -0.12289739 0.08627193 0.03215678
v -0.18131336 0.08627193 0.09923671
v -0.18131336 0.05903464 0.06648826
v -0.16575925 0.05903464 0.05897658
v -0.17377108 0.07214672 0.05852757
v -0.17849600 0.07599129 0.05945604
v -0.17905360 0.08057172 0.05910595
v -0.17905360 0.08439231 0.05910595
v -0.17597213 0.08627193 0.05803287
v -0.18131336 0.08627193 0.06117605
v -0.18131336 0.07175479 0.06285038
v -0.17720471 0.07214672 0.06004969
v -0.18131336 0.07831617 0.06135109
v -0.18131336 0.07881741 0.06126738
v -0.18131336 0.08565872 0.06111516
v -0.18131336 0.08612263 0.06111516
f 1 2 3
f 1 3 4
f 1 4 5
f 1 5 6
f 1 6 7
f 1 7 8
f 1 8 9
f 1 9 16
f 1 16 18
f 1 18 10
f 1 10 17
f 1 17 23
f 1 23 24
f 1 24 19
f 1 19 11
f 1 11 12
f 1 12 13
f 1 13 2
f 2 13 14
f 2 14 15
f 2 15 21
f 2 21 29
f 2 29 30
f 2 30 22
f 2 22 18
f 2 18 16
f 2 16 8
f 2 8 7
f 2 7 6
f 2 6 5
f 2 5 4
f 2 4 3
f 8 16 9
f 10 18 22
f 10 22 17
f 11 19 12
f 12 19 13
f 13 19 20
f 13 20 14
f 14 20 21
f 14 21 15
f 17 22 30
f 17 30 36
f 17 36 35
f 17 35 34
f 17 34 33
f 17 33 31
f 17 31 23
f 19 24 20
f 20 24 21
f 21 24 25
f 21 25 26
f 21 26 27
f 21 27 28
f 21 28 29
f 23 31 26
f 23 26 32
f 23 32 24
f 24 32 25
f 25 32 26
f 26 31 33
f 26 33 27
f 27 33 34
f 27 34 35
f 27 35 36
f 27 36 28
f 28 36 29
f 29 36 30

