# https://github.com/mikedh/trimesh
v 0.19069364 -0.04767544 0.40214488
v 0.25731155 -0.04767544 0.40214488
v 0.19069364 -0.04767544 0.42916240
v 0.19069364 0.03171990 0.40214488
v 0.25453635 -0.04767544 0.41050744
v 0.25803008 0.03171990 0.40214488
v 0.19510365 -0.04767544 0.43104143
v 0.19069364 -0.03810664 0.43329714
v 0.19069364 0.03171990 0.43754611
v 0.24745664 -0.04767544 0.43015270
v 0.22804345 0.03171990 0.43213332
v 0.22736448 0.02212779 0.43808783
v 0.22816871 0.01717627 0.43894271
v 0.22922340 0.01030477 0.43960291
v 0.23336971 0.00343327 0.43680975
v 0.24126024 -0.04465944 0.43791855
v 0.24716002 -0.04767544 0.43075365
v 0.19652750 -0.04767544 0.43160854
v 0.19582216 -0.03778794 0.43507460
v 0.19069364 -0.03084648 0.43562478
v 0.21643509 0.03171990 0.43700018
v 0.19069364 0.03029741 0.43828250
v 0.22393668 0.03171990 0.43526928
v 0.22596040 0.02670620 0.43681820
v 0.22352799 0.02426542 0.43924741
v 0.22309951 0.01709854 0.44245532
v 0.22449042 0.01030477 0.44303934
v 0.22765453 -0.01854930 0.44475333
v 0.23147784 -0.02404494 0.44262461
v 0.22804345 -0.02404494 0.44491838
v 0.24129321 -0.04767544 0.43791009
v 0.22330387 -0.04767544 0.43995416
v 0.21965853 -0.02771389 0.44424125
v 0.19069364 0.00343327 0.44187976
v 0.22350821 0.03171990 0.43551473
v 0.21643509 0.01887860 0.44339908
v 0.22139222 0.02880496 0.43791855
v 0.19069364 0.02404777 0.44083444
v 0.21643509 0.01544285 0.44482951
v 0.22067368 0.01475881 0.44450788
v 0.22330387 -0.02404494 0.44537546
v 0.22756224 -0.02865445 0.44456712
v 0.23704140 -0.04767544 0.43971717
v 0.22106260 0.01030477 0.44462638
v 0.21643509 0.01030477 0.44532468
v 0.22714695 -0.04767544 0.44049164
v 0.22330387 -0.02853785 0.44453327
v 0.21869612 -0.02404494 0.44460944
v 0.19069364 0.01030477 0.44281504
v 0.19069364 0.01717627 0.44251880
v 0.20956631 0.01500755 0.44468140
v 0.20956631 0.01030477 0.44521040
v 0.21643509 0.00343327 0.44536276
v 0.20445757 0.00477803 0.44446979
v 0.23017265 -0.04767544 0.44088946
f 1 2 5
f 1 5 10
f 1 10 17
f 1 17 31
f 1 31 43
f 1 43 55
f 1 55 46
f 1 46 32
f 1 32 18
f 1 18 7
f 1 7 3
f 1 3 8
f 1 8 20
f 1 20 34
f 1 34 49
f 1 49 50
f 1 50 38
f 1 38 22
f 1 22 9
f 1 9 4
f 1 4 6
f 1 6 2
f 2 6 5
f 3 7 8
f 4 9 21
f 4 21 35
f 4 35 23
f 4 23 11
f 4 11 6
f 5 6 10
f 6 11 12
f 6 12 13
f 6 13 14
f 6 14 15
f 6 15 16
f 6 16 17
f 6 17 10
f 7 18 8
f 8 18 19
f 8 19 20
f 9 22 21
f 11 23 24
f 11 24 12
f 12 24 25
f 12 25 26
f 12 26 13
f 13 26 27
f 13 27 14
f 14 27 28
f 14 28 29
f 14 29 16
f 14 16 15
f 16 29 28
f 16 28 30
f 16 30 31
f 16 31 17
f 18 32 19
f 19 32 20
f 20 32 33
f 20 33 34
f 21 22 36
f 21 36 37
f 21 37 35
f 22 38 39
f 22 39 36
f 23 35 24
f 24 35 25
f 25 35 37
f 25 37 40
f 25 40 26
f 26 40 27
f 27 40 28
f 28 40 30
f 30 41 42
f 30 42 43
f 30 43 31
f 30 40 44
f 30 44 45
f 30 45 41
f 32 46 33
f 33 47 41
f 33 41 48
f 33 48 34
f 33 46 47
f 34 48 49
f 36 39 40
f 36 40 37
f 38 50 51
f 38 51 39
f 39 51 52
f 39 52 45
f 39 45 40
f 40 45 44
f 41 47 42
f 41 45 53
f 41 53 52
f 41 52 54
f 41 54 49
f 41 49 48
f 42 47 55
f 42 55 43
f 45 52 53
f 46 55 47
f 49 52 50
f 49 54 52
f 50 52 51

