# https://github.com/mikedh/trimesh
v 0.29656814 0.03091391 0.41031979
v 0.30575663 0.07900852 0.39970511
v 0.29262875 0.10649603 0.40039649
v 0.29572583 0.03487485 0.40998088
v 0.29262875 0.03091391 0.41031979
v 0.29666059 0.02582616 0.41029268
v 0.31724610 -0.01716362 0.40340600
v 0.32067701 -0.01716362 0.40169790
v 0.31998879 -0.01030028 0.40137255
v 0.31043048 0.07900852 0.39700737
v 0.30989634 0.08390847 0.39660068
v 0.29772891 0.10649603 0.39771231
v 0.29262875 0.10711066 0.40020669
v 0.29262875 0.03431144 0.40992666
v 0.29320912 0.03487485 0.40998088
v 0.29262875 0.02457983 0.40949286
v 0.29389737 0.02582616 0.41029268
v 0.29262875 0.03106757 0.41030624
v 0.31622402 -0.02761229 0.40298576
v 0.31699956 -0.02404403 0.40331111
v 0.32043049 -0.02404403 0.40169790
v 0.32513002 -0.02404403 0.39825457
v 0.32487836 -0.01716362 0.39826813
v 0.32457018 -0.01030028 0.39794277
v 0.31421066 0.07905974 0.39214061
v 0.32398467 -0.00341986 0.39726495
v 0.31590557 0.08139874 0.38857527
v 0.31153989 0.08607673 0.39300823
v 0.30870990 0.08850110 0.39555684
v 0.30202269 0.10238144 0.39567885
v 0.29650136 0.11095208 0.39692604
v 0.29262875 0.11284717 0.39795633
v 0.29262875 -0.03135127 0.39239819
v 0.30050241 -0.03090738 0.39710227
v 0.30575663 -0.03090738 0.39947464
v 0.30622915 -0.02389037 0.40158945
v 0.31093896 -0.02607572 0.40271464
v 0.31552038 -0.02761229 0.40298576
v 0.31298828 -0.03030982 0.40138610
v 0.31262875 -0.03623414 0.39772586
v 0.31949059 -0.03594391 0.39733273
v 0.32371245 -0.03514148 0.39660068
v 0.32461642 -0.03090738 0.39746830
v 0.32839658 -0.03155615 0.39227619
v 0.32856607 -0.02404403 0.39356404
v 0.32831441 -0.01716362 0.39313023
v 0.32833495 -0.01091490 0.39192372
v 0.31623942 0.07682317 0.38953778
v 0.32680953 -0.00341986 0.39261510
v 0.31721529 0.08580357 0.37880109
v 0.31650650 0.09015718 0.37646939
v 0.31491945 0.08580357 0.38606734
v 0.31152962 0.09333275 0.38631136
v 0.31026614 0.09142058 0.39097476
v 0.33755426 0.00916293 0.36295361
v 0.32301395 0.06895253 0.37561532
v 0.30116496 0.10649603 0.39416052
v 0.30239762 0.11003014 0.38933443
v 0.29882802 0.11175451 0.39201861
v 0.29367651 0.11556178 0.39261510
v 0.29262875 0.11434960 0.39558395
v 0.29262875 -0.03468050 0.39086632
v 0.30176589 -0.03476587 0.39638378
v 0.30575663 -0.03556830 0.39710227
v 0.30575663 -0.03899997 0.39357760
v 0.31262875 -0.03966581 0.39390295
v 0.31949059 -0.03937558 0.39402497
v 0.32397439 -0.04202189 0.39009360
v 0.33039966 -0.04215847 0.38328826
v 0.32886396 -0.03778778 0.38818214
v 0.32979361 -0.03428782 0.38915821
v 0.33002473 -0.02971226 0.38976824
v 0.33019936 -0.02404403 0.39013426
v 0.33002987 -0.01716362 0.38970045
v 0.32974737 -0.00903688 0.38907686
v 0.33075919 -0.00341986 0.38445412
v 0.31894615 0.08587186 0.37199576
v 0.31685061 0.09061815 0.37199576
v 0.31106737 0.09889854 0.37886887
v 0.31025586 0.09775466 0.38439989
v 0.34399493 0.05597706 0.28710539
v 0.30909511 0.09599614 0.38898196
v 0.30327077 0.10649603 0.39073074
v 0.33781106 0.00344348 0.36397035
v 0.33872528 0.01100681 0.35894092
v 0.34366623 0.02109695 0.33464779
v 0.32232570 0.07900852 0.36513621
v 0.32096977 0.07900852 0.37199576
v 0.34129334 0.01030682 0.35138999
v 0.30243871 0.11006428 0.38574198
v 0.29888454 0.11294962 0.38574198
v 0.30869962 0.10234729 0.37886887
v 0.30890506 0.10267168 0.37199576
v 0.29389223 0.11624471 0.38574198
v 0.29262875 0.11622763 0.39261510
v 0.29262875 -0.03717316 0.38970045
v 0.29262875 -0.03829998 0.38907686
v 0.29262875 -0.03911948 0.38861594
v 0.29580286 -0.04106580 0.38909043
v 0.30038428 -0.04168043 0.38971402
v 0.30575663 -0.04197067 0.39014783
v 0.31262875 -0.04210725 0.39045962
v 0.31949059 -0.04231213 0.39058163
v 0.31949059 -0.04519746 0.38574198
v 0.32438016 -0.04857792 0.37682186
v 0.32654759 -0.04675110 0.37901799
v 0.32630619 -0.04343895 0.38564709
v 0.33734881 -0.04308041 0.35652787
v 0.33256197 -0.03778778 0.37886887
v 0.33069756 -0.03778778 0.38473880
v 0.32896156 -0.04753646 0.37370387
v 0.33220244 -0.04996083 0.35826310
v 0.33571040 -0.04507795 0.35860201
v 0.33366108 -0.03090738 0.37886887
v 0.33171964 -0.02404403 0.38574198
v 0.33086705 -0.01091490 0.38636558
v 0.31475510 0.09406690 0.37199576
v 0.33954194 0.06526476 0.28269955
v 0.31131903 0.09924001 0.37199576
v 0.34509920 0.05179418 0.27182729
v 0.34417983 0.05652339 0.27182729
v 0.34378434 0.05795753 0.27182729
v 0.34294717 0.05957946 0.27582643
v 0.33974738 0.00344348 0.35826310
v 0.34380490 0.02181401 0.33078420
v 0.34239247 0.01030682 0.34451688
v 0.34366623 0.01718723 0.33485114
v 0.34122145 0.00344348 0.35138999
v 0.30240276 0.11003014 0.38179706
v 0.29936732 0.11202767 0.37924845
v 0.33085165 0.07648171 0.27582643
v 0.33703038 0.06920863 0.28269955
v 0.33713823 0.06936228 0.27707363
v 0.29262875 0.11675689 0.38574198
v 0.29830928 0.11194231 0.37199576
v 0.29292151 0.11592031 0.37886887
v 0.29262875 -0.04313163 0.38556575
v 0.29262875 -0.04355846 0.38502349
v 0.29841201 -0.04379748 0.38637914
v 0.30575663 -0.04485600 0.38574198
v 0.30575663 -0.04755353 0.38059054
v 0.31949059 -0.04753646 0.38091589
v 0.31949059 -0.04888523 0.37747256
v 0.31949059 -0.05060960 0.37199576
v 0.31949059 -0.05253885 0.36513621
v 0.32636268 -0.05305104 0.35826310
v 0.33722554 -0.04275602 0.35138999
v 0.33827332 -0.03778778 0.35138999
v 0.33765185 -0.03778778 0.35698879
v 0.33572066 -0.03090738 0.37199576
v 0.33565905 -0.04618770 0.35138999
v 0.33222298 -0.05016570 0.35138999
v 0.32578231 -0.05385347 0.35172890
v 0.33390249 -0.02404403 0.37886887
v 0.33922350 0.06593061 0.27520284
v 0.34474995 0.04820885 0.27182729
v 0.34377922 0.01698235 0.33112311
v 0.34386654 0.01868965 0.32392465
v 0.34389733 0.01884331 0.31705154
v 0.34362000 0.01332874 0.30600305
v 0.34269037 0.05995507 0.27182729
v 0.34358404 0.01326044 0.33463423
v 0.30174533 0.10951794 0.37199576
v 0.33063592 0.07634513 0.27182729
v 0.33914131 0.06516233 0.27182729
v 0.33186859 0.07489393 0.27182729
v 0.29262875 0.11602276 0.37886887
v 0.29262875 0.11494715 0.37215844
v 0.29262875 0.11585202 0.37749967
v 0.29262875 0.11598860 0.37857064
v 0.29262875 -0.04716086 0.37846218
v 0.29888454 -0.04753646 0.38007539
v 0.31262875 -0.05049009 0.37199576
v 0.31262875 -0.05238519 0.36513621
v 0.31949059 -0.05409249 0.35826310
v 0.32310640 -0.05501443 0.34965476
v 0.33673248 -0.04140726 0.34779753
v 0.34242843 0.01075072 0.30354934
v 0.34362000 0.01332874 0.30737225
v 0.33098518 -0.04926083 0.34633344
v 0.31745669 -0.04936327 0.31705154
v 0.32222299 -0.04646087 0.32270457
v 0.32310640 -0.05501443 0.34774330
v 0.31678898 -0.05537296 0.32643260
v 0.34443149 0.04576741 0.27182729
v 0.32670168 0.07837682 0.27182729
v 0.29262875 0.11463984 0.37076213
v 0.31835550 0.08259384 0.27182729
v 0.31733342 0.08308896 0.27182729
v 0.31288555 0.08488162 0.27182729
v 0.29262875 -0.04731451 0.37787926
v 0.29461129 -0.04815109 0.37572378
v 0.29888454 -0.04839011 0.37663206
v 0.30575663 -0.05359737 0.35826310
v 0.30575663 -0.05185593 0.36513621
v 0.31262875 -0.05385347 0.35826310
v 0.30728205 -0.05528760 0.34965476
v 0.31949059 -0.05480955 0.35305742
v 0.31262875 -0.05523638 0.34962765
v 0.31262875 -0.05556077 0.34451688
v 0.31262875 -0.05588516 0.33765732
v 0.29262875 -0.05766074 0.30348155
v 0.31719989 -0.05561198 0.33078420
v 0.33666571 0.00002888 0.29988910
v 0.33884341 0.00276056 0.30262750
v 0.33612643 0.01515555 0.28141168
v 0.34254656 0.04004796 0.27182729
v 0.31950598 -0.05113886 0.32456181
v 0.31633702 -0.04832182 0.31337775
v 0.29262875 -0.05766074 0.30311553
v 0.29262875 -0.05706319 0.29643221
v 0.29262875 -0.05443395 0.28969466
v 0.29262875 0.09258154 0.27182729
v 0.29262875 -0.04854377 0.37297183
v 0.29888454 -0.05270958 0.35826310
v 0.30529953 -0.05470712 0.35172890
v 0.30270065 -0.05489492 0.34665879
v 0.29888454 -0.05381932 0.35138999
v 0.29262875 -0.05284616 0.35138999
v 0.33161693 0.00482639 0.28417719
v 0.33154501 0.01184339 0.27760233
v 0.33306531 0.02111402 0.27182729
v 0.33697388 0.01973111 0.27879529
v 0.34015827 0.03468704 0.27182729
v 0.29262875 -0.05141203 0.28604798
v 0.29262875 -0.03080493 0.27182729
v 0.29262875 -0.05189008 0.35826310
v 0.33579258 0.02597982 0.27182729
f 1 2 3
f 1 3 4
f 1 4 15
f 1 15 5
f 1 5 17
f 1 17 6
f 1 6 7
f 1 7 8
f 1 8 9
f 1 9 2
f 2 10 11
f 2 11 3
f 2 9 10
f 3 11 12
f 3 12 13
f 3 13 32
f 3 32 61
f 3 61 95
f 3 95 134
f 3 134 167
f 3 167 170
f 3 170 169
f 3 169 168
f 3 168 187
f 3 187 213
f 3 213 226
f 3 226 225
f 3 225 212
f 3 212 211
f 3 211 210
f 3 210 202
f 3 202 219
f 3 219 227
f 3 227 214
f 3 214 191
f 3 191 171
f 3 171 138
f 3 138 137
f 3 137 98
f 3 98 97
f 3 97 96
f 3 96 62
f 3 62 33
f 3 33 16
f 3 16 5
f 3 5 18
f 3 18 14
f 3 14 15
f 3 15 4
f 5 16 17
f 5 15 18
f 6 17 38
f 6 38 19
f 6 19 20
f 6 20 7
f 7 20 21
f 7 21 8
f 8 21 22
f 8 22 23
f 8 23 24
f 8 24 9
f 9 24 10
f 10 25 11
f 10 24 26
f 10 26 25
f 11 25 27
f 11 27 28
f 11 28 29
f 11 29 30
f 11 30 31
f 11 31 12
f 12 31 13
f 13 31 32
f 14 18 15
f 16 33 34
f 16 34 35
f 16 35 36
f 16 36 17
f 17 36 37
f 17 37 38
f 19 38 39
f 19 39 40
f 19 40 41
f 19 41 42
f 19 42 43
f 19 43 21
f 19 21 20
f 21 43 22
f 22 43 44
f 22 44 45
f 22 45 23
f 23 45 24
f 24 45 46
f 24 46 47
f 24 47 26
f 25 48 27
f 25 26 48
f 26 47 49
f 26 49 48
f 27 50 51
f 27 51 52
f 27 52 53
f 27 53 54
f 27 54 28
f 27 48 55
f 27 55 56
f 27 56 50
f 28 54 57
f 28 57 29
f 29 57 30
f 30 57 31
f 31 57 58
f 31 58 59
f 31 59 60
f 31 60 32
f 32 60 61
f 33 62 63
f 33 63 34
f 34 63 35
f 35 63 64
f 35 64 39
f 35 39 37
f 35 37 36
f 37 39 38
f 39 64 40
f 40 64 65
f 40 65 66
f 40 66 67
f 40 67 41
f 41 67 68
f 41 68 42
f 42 68 69
f 42 69 70
f 42 70 71
f 42 71 44
f 42 44 43
f 44 71 72
f 44 72 45
f 45 72 73
f 45 73 74
f 45 74 46
f 46 74 75
f 46 75 47
f 47 75 49
f 48 49 75
f 48 75 76
f 48 76 55
f 50 77 51
f 50 56 77
f 51 78 79
f 51 79 58
f 51 58 80
f 51 80 53
f 51 53 52
f 51 77 81
f 51 81 78
f 53 82 54
f 53 80 58
f 53 58 82
f 54 82 58
f 54 58 83
f 54 83 57
f 55 76 75
f 55 75 84
f 55 84 85
f 55 85 56
f 56 86 81
f 56 81 87
f 56 87 88
f 56 88 77
f 56 85 89
f 56 89 86
f 57 83 58
f 58 90 91
f 58 91 60
f 58 60 59
f 58 79 92
f 58 92 93
f 58 93 90
f 60 91 94
f 60 94 95
f 60 95 61
f 62 96 63
f 63 96 97
f 63 97 98
f 63 98 99
f 63 99 64
f 64 99 100
f 64 100 65
f 65 100 66
f 66 100 101
f 66 101 102
f 66 102 103
f 66 103 67
f 67 103 68
f 68 103 104
f 68 104 105
f 68 105 106
f 68 106 107
f 68 107 69
f 69 108 109
f 69 109 110
f 69 110 71
f 69 71 70
f 69 107 106
f 69 106 111
f 69 111 112
f 69 112 113
f 69 113 108
f 71 110 114
f 71 114 72
f 72 114 115
f 72 115 73
f 73 115 74
f 74 116 75
f 74 115 116
f 75 116 84
f 77 88 87
f 77 87 81
f 78 117 79
f 78 81 118
f 78 118 117
f 79 119 92
f 79 117 119
f 81 120 121
f 81 121 122
f 81 122 123
f 81 123 118
f 81 86 120
f 84 124 85
f 84 116 115
f 84 115 124
f 85 124 89
f 86 125 120
f 86 89 126
f 86 126 127
f 86 127 125
f 89 124 128
f 89 128 126
f 90 129 91
f 90 93 129
f 91 130 94
f 91 129 130
f 92 119 93
f 93 131 129
f 93 119 132
f 93 132 133
f 93 133 131
f 94 134 95
f 94 130 135
f 94 135 136
f 94 136 134
f 98 137 99
f 99 137 100
f 100 137 138
f 100 138 139
f 100 139 101
f 101 139 140
f 101 140 102
f 102 140 103
f 103 140 104
f 104 140 141
f 104 141 142
f 104 142 105
f 105 111 106
f 105 142 143
f 105 143 144
f 105 144 145
f 105 145 146
f 105 146 111
f 108 147 148
f 108 148 128
f 108 128 149
f 108 149 150
f 108 150 109
f 108 113 151
f 108 151 147
f 109 150 114
f 109 114 110
f 111 146 112
f 112 152 151
f 112 151 113
f 112 146 153
f 112 153 152
f 114 150 154
f 114 154 115
f 115 154 124
f 117 118 132
f 117 132 119
f 118 123 155
f 118 155 133
f 118 133 132
f 120 156 185
f 120 185 207
f 120 207 224
f 120 224 228
f 120 228 222
f 120 222 226
f 120 226 213
f 120 213 190
f 120 190 189
f 120 189 188
f 120 188 186
f 120 186 164
f 120 164 166
f 120 166 165
f 120 165 161
f 120 161 122
f 120 122 121
f 120 125 157
f 120 157 158
f 120 158 159
f 120 159 160
f 120 160 156
f 122 161 123
f 123 161 155
f 124 154 150
f 124 150 128
f 125 127 157
f 126 162 127
f 126 128 162
f 127 162 157
f 128 150 149
f 128 148 162
f 129 163 130
f 129 131 164
f 129 164 163
f 130 163 135
f 131 133 164
f 133 155 165
f 133 165 166
f 133 166 164
f 134 136 167
f 135 168 169
f 135 169 136
f 135 163 164
f 135 164 168
f 136 169 170
f 136 170 167
f 138 171 172
f 138 172 139
f 139 172 140
f 140 172 141
f 141 172 173
f 141 173 143
f 141 143 142
f 143 173 144
f 144 173 145
f 145 174 175
f 145 175 146
f 145 173 174
f 146 175 176
f 146 176 153
f 147 151 177
f 147 177 178
f 147 178 160
f 147 160 148
f 148 160 179
f 148 179 162
f 151 152 180
f 151 180 181
f 151 181 182
f 151 182 177
f 152 153 183
f 152 183 184
f 152 184 180
f 153 176 183
f 155 161 165
f 156 160 185
f 157 159 158
f 157 162 159
f 159 162 179
f 159 179 160
f 160 178 185
f 164 186 168
f 168 186 188
f 168 188 189
f 168 189 190
f 168 190 187
f 171 191 192
f 171 192 172
f 172 192 193
f 172 193 194
f 172 194 195
f 172 195 174
f 172 174 173
f 174 194 196
f 174 196 175
f 174 195 194
f 175 196 197
f 175 197 198
f 175 198 176
f 176 198 199
f 176 199 200
f 176 200 201
f 176 201 202
f 176 202 203
f 176 203 183
f 177 182 204
f 177 204 205
f 177 205 178
f 178 205 206
f 178 206 207
f 178 207 185
f 180 184 208
f 180 208 181
f 181 209 182
f 181 208 184
f 181 184 209
f 182 209 206
f 182 206 204
f 183 203 184
f 184 203 210
f 184 210 211
f 184 211 212
f 184 212 209
f 187 190 213
f 191 214 192
f 192 214 194
f 192 194 193
f 194 214 215
f 194 215 216
f 194 216 197
f 194 197 196
f 197 217 202
f 197 202 200
f 197 200 199
f 197 199 198
f 197 216 218
f 197 218 217
f 200 202 201
f 202 210 203
f 202 217 219
f 204 206 205
f 206 209 220
f 206 220 221
f 206 221 222
f 206 222 223
f 206 223 207
f 207 223 224
f 209 212 225
f 209 225 221
f 209 221 220
f 214 227 215
f 215 227 216
f 216 227 218
f 217 218 219
f 218 227 219
f 221 225 222
f 222 228 223
f 222 225 226
f 223 228 224

