# https://github.com/mikedh/trimesh
v -0.29731478 0.19581387 0.36500555
v -0.29707748 0.20316147 0.36500555
v -0.29614408 0.18940608 0.36500555
v -0.29552708 0.19198472 0.36882731
v -0.28839214 0.18895559 0.38860328
v -0.29578021 0.19581387 0.36929679
v -0.29579602 0.20126633 0.36928856
v -0.29682434 0.20320808 0.36574683
v -0.29538470 0.20584887 0.36843196
v -0.29660287 0.20473041 0.36500555
v -0.29451458 0.18201963 0.36500555
v -0.29244213 0.18208178 0.37201486
v -0.28223806 0.17050114 0.39764703
v -0.28905659 0.18336334 0.38391669
v -0.28595581 0.18208178 0.39262273
v -0.28802827 0.18147595 0.38602525
v -0.28840797 0.19581387 0.38877625
v -0.28277595 0.17520796 0.39842950
v -0.28114647 0.17520796 0.40186414
v -0.28638298 0.18895559 0.39262273
v -0.28858198 0.20615178 0.38235174
v -0.28685757 0.21074209 0.37888415
v -0.28787007 0.21225665 0.37404929
v -0.28893003 0.21325860 0.36946976
v -0.29448295 0.20855955 0.36500555
v -0.28752204 0.20268768 0.38715365
v -0.29296420 0.17520796 0.36500555
v -0.29293256 0.17520796 0.36513733
v -0.28872438 0.17120794 0.37595194
v -0.28605074 0.14954572 0.36503850
v -0.27999158 0.14954572 0.38577814
v -0.27791912 0.14954572 0.39262273
v -0.27722303 0.14954572 0.39467363
v -0.27462852 0.15887390 0.40927704
v -0.27518223 0.16344869 0.41029837
v -0.27795078 0.16834190 0.40636954
v -0.28312399 0.18895559 0.39805886
v -0.26879083 0.20268768 0.41783482
v -0.26849025 0.20694401 0.41747242
v -0.28315563 0.18208178 0.39829772
v -0.27538788 0.16834190 0.41057841
v -0.27812479 0.17520796 0.40636954
v -0.28488004 0.20917316 0.38524278
v -0.28239627 0.21363143 0.38354604
v -0.26124457 0.21318870 0.42374868
v -0.26086489 0.21961202 0.41625342
v -0.28946791 0.21356928 0.36513733
v -0.29339135 0.20967023 0.36500555
v -0.26883829 0.22072271 0.39806709
v -0.26996153 0.22138292 0.39262273
v -0.29293256 0.17508369 0.36500555
v -0.28616148 0.14996513 0.36500555
v -0.28386755 0.14954572 0.36500555
v -0.27579922 0.14954572 0.39853657
v -0.27415391 0.14954572 0.40291842
v -0.27277754 0.14954572 0.40646838
v -0.27197071 0.14954572 0.40817334
v -0.26953438 0.14954572 0.41332120
v -0.26866426 0.14954572 0.41483673
v -0.26798400 0.15104475 0.41670642
v -0.26850608 0.15460204 0.41743124
v -0.27298321 0.16834190 0.41401307
v -0.26926544 0.16146809 0.41834549
v -0.27484999 0.19265270 0.40983713
v -0.26943947 0.17520796 0.41868319
v -0.26619631 0.20268768 0.42127771
v -0.26205140 0.20956150 0.42454762
v -0.26780997 0.21969747 0.40264661
v -0.25463169 0.21370909 0.43072505
v -0.25281237 0.21828388 0.42874826
v -0.25453678 0.22014796 0.42416874
v -0.25945687 0.21810522 0.42009988
v -0.25602389 0.22144505 0.42009988
v -0.25322369 0.22626838 0.41547094
v -0.25784321 0.22354214 0.41357652
v -0.28946791 0.21357706 0.36500555
v -0.28953120 0.21353045 0.36500555
v -0.26328537 0.22197320 0.40636954
v -0.25480573 0.22702954 0.41089140
v -0.25888735 0.22540622 0.40636954
v -0.26451937 0.22396156 0.39262273
v -0.25545435 0.22716157 0.40636954
v -0.13571075 0.14954572 0.36500555
v -0.26643362 0.14954572 0.41823018
v -0.26529456 0.14954572 0.41971277
v -0.26580080 0.15460204 0.42086588
v -0.26955021 0.16834190 0.41866673
v -0.26637033 0.16146809 0.42178014
v -0.26675003 0.17520796 0.42211783
v -0.26276332 0.20268768 0.42535480
v -0.25869751 0.20956150 0.42798226
v -0.25524868 0.20956150 0.43126041
v -0.24907877 0.20268768 0.43884629
v -0.24808211 0.20754984 0.43792379
v -0.24668993 0.21212462 0.43690247
v -0.25061335 0.21617125 0.43202641
v -0.24822448 0.22028000 0.43088153
v -0.24863582 0.22716157 0.41763716
v -0.28513318 0.21468774 0.36500555
v -0.25086648 0.22751109 0.41319764
v -0.26451937 0.22287418 0.38575344
v -0.25526451 0.22700624 0.40097460
v -0.25765337 0.22539070 0.39262273
v -0.24390556 0.22855187 0.41323059
v -0.25077155 0.22765867 0.40636954
v -0.13571075 0.19527795 0.36500555
v -0.13571075 0.14954572 0.42666441
v -0.26173499 0.14954572 0.42421815
v -0.25252760 0.14954572 0.43516454
v -0.24909460 0.14954572 0.43920869
v -0.26654436 0.16834190 0.42210136
v -0.26331703 0.17520796 0.42574191
v -0.25997894 0.18208178 0.42933305
v -0.26312717 0.18208178 0.42589842
v -0.25300221 0.19581387 0.43597173
v -0.25939359 0.20268768 0.42878946
v -0.25251179 0.20268768 0.43555990
v -0.24956921 0.19581387 0.43937342
v -0.24354168 0.19623329 0.44304692
v -0.24390556 0.20268768 0.44169613
v -0.24420613 0.20972462 0.43916751
v -0.24211787 0.21425277 0.43820383
v -0.24390556 0.22083922 0.43166401
v -0.24063076 0.22678099 0.42361689
v -0.24521863 0.22603535 0.42221667
v -0.24332021 0.22748779 0.41999281
v -0.27826718 0.21559648 0.36500555
v -0.25765337 0.22353438 0.38575344
v -0.23703956 0.22888586 0.41323059
v -0.25077155 0.22701400 0.40110638
v -0.25077155 0.22641593 0.39767173
v -0.25077155 0.22532079 0.39262273
v -0.25077155 0.22347225 0.38575344
v -0.23703956 0.22830332 0.42009988
v -0.16477258 0.20619061 0.38888333
v -0.16477258 0.20619061 0.38986348
v -0.16524718 0.20592654 0.39444300
v -0.13571075 0.19487406 0.36685053
v -0.18195339 0.21057121 0.36500555
v -0.13585314 0.14954572 0.42681267
v -0.13571075 0.15116902 0.42524773
v -0.24203877 0.14954572 0.44655570
v -0.23703956 0.14954572 0.44914198
v -0.24101044 0.19422939 0.44437302
v -0.23703956 0.20268768 0.44302222
v -0.23703956 0.20956150 0.44117722
v -0.23703956 0.21503726 0.43872273
v -0.23703956 0.21847028 0.43578228
v -0.23703956 0.22135183 0.43234765
v -0.23703956 0.22478487 0.42747984
v -0.23703956 0.22702954 0.42404519
v -0.27138536 0.21596152 0.36500555
v -0.24390556 0.21596152 0.36500555
v -0.23022103 0.22760430 0.41986102
v -0.23017357 0.22800041 0.41323059
v -0.23017357 0.22717712 0.40856870
v -0.23703956 0.22761206 0.40712730
v -0.24390556 0.22281982 0.38575344
v -0.18896178 0.21150325 0.36500555
v -0.23689717 0.21571297 0.36500555
v -0.23703956 0.21572076 0.36500555
v -0.23254660 0.22708391 0.42413580
v -0.20957559 0.22171690 0.40636954
v -0.20530411 0.22024891 0.40636954
v -0.20539904 0.22022563 0.41094906
v -0.16785754 0.20722362 0.39234269
v -0.17024639 0.20685082 0.39949202
v -0.16681339 0.20494013 0.39949202
v -0.16148197 0.20122748 0.39911314
v -0.15770093 0.19954204 0.39657627
v -0.13571075 0.19316531 0.37305267
v -0.18209578 0.21061005 0.36500555
v -0.22642416 0.22679653 0.40959003
v -0.21644158 0.22372856 0.40636954
v -0.13860586 0.14980202 0.42929187
v -0.13809962 0.14954572 0.42901183
v -0.15790658 0.17878079 0.42366630
v -0.13571075 0.15287000 0.42362512
v -0.13621700 0.15236515 0.42471236
v -0.23697629 0.14954572 0.44914198
v -0.23017357 0.18895559 0.44553436
v -0.23703956 0.19506824 0.44461188
v -0.23703956 0.19850126 0.44401060
v -0.23017357 0.19462552 0.44474367
v -0.23017357 0.20268768 0.44271747
v -0.23017357 0.20956150 0.44061714
v -0.23017357 0.21441589 0.43826149
v -0.23017357 0.21784891 0.43514808
v -0.23017357 0.22091689 0.43171342
v -0.22797454 0.22626059 0.42199429
v -0.22613939 0.22693633 0.41741476
v -0.22606029 0.22692857 0.41323059
v -0.18883521 0.21148773 0.36500555
v -0.23022103 0.22454409 0.42664795
v -0.22363979 0.22146059 0.42682092
v -0.22262729 0.22599653 0.41323059
v -0.21644158 0.22404699 0.41323059
v -0.20935409 0.22127417 0.41323882
v -0.20691778 0.21945669 0.41552860
v -0.18695259 0.21233432 0.40752266
v -0.17556200 0.20714595 0.40575180
v -0.17168603 0.20617509 0.40305021
v -0.17807743 0.20650130 0.41037250
v -0.17348955 0.20497119 0.40762149
v -0.16860108 0.20256341 0.40606478
v -0.16377591 0.20016340 0.40450808
v -0.14438026 0.19230318 0.38899040
v -0.13571075 0.18928957 0.38112449
v -0.14319373 0.15224087 0.43123570
v -0.14184902 0.14954572 0.43196877
v -0.13887481 0.14954572 0.42966252
v -0.13571075 0.15789527 0.41851022
v -0.13639102 0.15926226 0.41786777
v -0.13841602 0.16384480 0.41533091
v -0.13571075 0.18404683 0.38906453
v -0.16553195 0.19870320 0.40907937
v -0.18624068 0.19863330 0.42978606
v -0.18891431 0.19599251 0.43379728
v -0.19158793 0.19334395 0.43775905
v -0.23017357 0.14954572 0.44881253
v -0.22329175 0.18895559 0.44515550
v -0.22329175 0.19365463 0.44455422
v -0.21908356 0.19282356 0.44428241
v -0.22329175 0.20268768 0.44177027
v -0.22329175 0.20956150 0.43934871
v -0.21970054 0.21310327 0.43738017
v -0.22617103 0.22017127 0.43075799
v -0.21413182 0.21934795 0.42259555
v -0.21150565 0.22061397 0.41801604
v -0.20935409 0.21833824 0.42022344
v -0.20269376 0.21488190 0.42005870
v -0.20497187 0.21366249 0.42452291
v -0.17010401 0.20038865 0.41136912
v -0.13571075 0.18490897 0.38796084
v -0.15920385 0.19812068 0.40115580
v -0.13571075 0.18705266 0.38474858
v -0.14591482 0.14954572 0.43339368
v -0.19081274 0.20006243 0.43153222
v -0.21664723 0.19539446 0.44289867
v -0.17511903 0.14954572 0.44129255
v -0.14781326 0.14954572 0.43404438
v -0.18207995 0.14954572 0.44235505
f 1 2 10
f 1 10 25
f 1 25 48
f 1 48 77
f 1 77 76
f 1 76 99
f 1 99 127
f 1 127 152
f 1 152 153
f 1 153 161
f 1 161 160
f 1 160 159
f 1 159 193
f 1 193 172
f 1 172 139
f 1 139 106
f 1 106 83
f 1 83 53
f 1 53 52
f 1 52 51
f 1 51 27
f 1 27 11
f 1 11 3
f 1 3 4
f 1 4 5
f 1 5 6
f 1 6 7
f 1 7 2
f 2 8 9
f 2 9 10
f 2 7 8
f 3 11 12
f 3 12 13
f 3 13 4
f 4 14 15
f 4 15 5
f 4 13 16
f 4 16 14
f 5 17 6
f 5 15 18
f 5 18 19
f 5 19 20
f 5 20 17
f 6 17 7
f 7 9 8
f 7 17 9
f 9 21 22
f 9 22 23
f 9 23 24
f 9 24 25
f 9 25 10
f 9 17 26
f 9 26 21
f 11 27 28
f 11 28 13
f 11 13 12
f 13 18 15
f 13 15 16
f 13 28 29
f 13 29 30
f 13 30 31
f 13 31 32
f 13 32 33
f 13 33 34
f 13 34 35
f 13 35 36
f 13 36 18
f 14 16 15
f 17 20 37
f 17 37 38
f 17 38 39
f 17 39 26
f 18 36 19
f 19 37 40
f 19 40 20
f 19 36 41
f 19 41 42
f 19 42 37
f 20 40 37
f 21 43 44
f 21 44 22
f 21 26 39
f 21 39 45
f 21 45 46
f 21 46 43
f 22 44 23
f 23 44 24
f 24 47 48
f 24 48 25
f 24 44 49
f 24 49 50
f 24 50 47
f 27 51 28
f 28 51 30
f 28 30 29
f 30 51 52
f 30 52 53
f 30 53 83
f 30 83 107
f 30 107 140
f 30 140 176
f 30 176 211
f 30 211 210
f 30 210 237
f 30 237 241
f 30 241 240
f 30 240 242
f 30 242 220
f 30 220 180
f 30 180 143
f 30 143 142
f 30 142 110
f 30 110 109
f 30 109 108
f 30 108 85
f 30 85 84
f 30 84 59
f 30 59 58
f 30 58 57
f 30 57 56
f 30 56 55
f 30 55 54
f 30 54 33
f 30 33 32
f 30 32 31
f 33 54 34
f 34 54 55
f 34 55 56
f 34 56 57
f 34 57 58
f 34 58 59
f 34 59 60
f 34 60 61
f 34 61 35
f 35 62 41
f 35 41 36
f 35 61 63
f 35 63 62
f 37 42 64
f 37 64 38
f 38 64 42
f 38 42 65
f 38 65 66
f 38 66 39
f 39 66 67
f 39 67 45
f 41 62 42
f 42 62 65
f 43 46 44
f 44 46 68
f 44 68 49
f 45 67 69
f 45 69 70
f 45 70 71
f 45 71 72
f 45 72 46
f 46 72 71
f 46 71 73
f 46 73 74
f 46 74 75
f 46 75 68
f 47 76 77
f 47 77 48
f 47 50 76
f 49 68 78
f 49 78 79
f 49 79 80
f 49 80 50
f 50 81 76
f 50 80 79
f 50 79 82
f 50 82 81
f 59 84 60
f 60 84 61
f 61 84 85
f 61 85 86
f 61 86 63
f 62 63 87
f 62 87 65
f 63 86 88
f 63 88 87
f 65 87 89
f 65 89 66
f 66 89 90
f 66 90 67
f 67 90 91
f 67 91 69
f 68 75 78
f 69 91 92
f 69 92 93
f 69 93 94
f 69 94 95
f 69 95 96
f 69 96 97
f 69 97 70
f 70 97 71
f 71 97 74
f 71 74 73
f 74 97 98
f 74 98 79
f 74 79 75
f 75 79 78
f 76 81 99
f 79 98 100
f 79 100 82
f 81 101 99
f 81 82 102
f 81 102 103
f 81 103 101
f 82 100 104
f 82 104 105
f 82 105 102
f 83 106 138
f 83 138 171
f 83 171 208
f 83 208 236
f 83 236 234
f 83 234 215
f 83 215 212
f 83 212 178
f 83 178 141
f 83 141 107
f 85 108 86
f 86 108 109
f 86 109 110
f 86 110 88
f 87 88 111
f 87 111 89
f 88 110 111
f 89 111 112
f 89 112 113
f 89 113 114
f 89 114 90
f 90 114 113
f 90 113 115
f 90 115 116
f 90 116 91
f 91 116 117
f 91 117 93
f 91 93 92
f 93 117 118
f 93 118 119
f 93 119 120
f 93 120 94
f 94 120 121
f 94 121 95
f 95 97 96
f 95 121 122
f 95 122 97
f 97 123 124
f 97 124 125
f 97 125 98
f 97 122 123
f 98 125 124
f 98 124 126
f 98 126 104
f 98 104 100
f 99 101 127
f 101 103 128
f 101 128 127
f 102 105 104
f 102 104 129
f 102 129 130
f 102 130 131
f 102 131 103
f 103 131 132
f 103 132 133
f 103 133 128
f 104 126 134
f 104 134 129
f 106 135 136
f 106 136 137
f 106 137 138
f 106 139 135
f 107 141 140
f 110 142 111
f 111 142 112
f 112 142 113
f 113 142 118
f 113 118 115
f 115 118 116
f 116 118 117
f 118 142 119
f 119 142 143
f 119 143 144
f 119 144 120
f 120 144 145
f 120 145 146
f 120 146 122
f 120 122 121
f 122 146 147
f 122 147 148
f 122 148 123
f 123 148 149
f 123 149 150
f 123 150 124
f 124 150 151
f 124 151 134
f 124 134 126
f 127 128 152
f 128 133 153
f 128 153 152
f 129 134 154
f 129 154 155
f 129 155 156
f 129 156 157
f 129 157 131
f 129 131 130
f 131 157 132
f 132 158 133
f 132 157 158
f 133 158 159
f 133 159 160
f 133 160 161
f 133 161 153
f 134 151 162
f 134 162 154
f 135 139 163
f 135 163 164
f 135 164 136
f 136 164 165
f 136 165 166
f 136 166 137
f 137 166 165
f 137 165 167
f 137 167 168
f 137 168 169
f 137 169 170
f 137 170 171
f 137 171 138
f 139 172 173
f 139 173 174
f 139 174 163
f 140 175 176
f 140 141 177
f 140 177 175
f 141 178 179
f 141 179 177
f 143 180 181
f 143 181 182
f 143 182 144
f 144 182 183
f 144 183 145
f 145 183 184
f 145 184 185
f 145 185 146
f 146 185 186
f 146 186 147
f 147 186 187
f 147 187 148
f 148 187 188
f 148 188 189
f 148 189 149
f 149 189 162
f 149 162 150
f 150 162 151
f 154 162 190
f 154 190 191
f 154 191 155
f 155 191 192
f 155 192 173
f 155 173 156
f 156 173 172
f 156 172 193
f 156 193 159
f 156 159 157
f 157 159 158
f 162 194 195
f 162 195 190
f 162 189 194
f 163 174 196
f 163 196 197
f 163 197 164
f 164 197 165
f 165 197 191
f 165 191 198
f 165 198 199
f 165 199 167
f 167 199 200
f 167 200 201
f 167 201 202
f 167 202 168
f 168 202 203
f 168 203 204
f 168 204 205
f 168 205 206
f 168 206 169
f 169 206 170
f 170 206 207
f 170 207 208
f 170 208 171
f 173 192 196
f 173 196 174
f 175 209 210
f 175 210 211
f 175 211 176
f 175 177 209
f 177 179 178
f 177 178 212
f 177 212 213
f 177 213 214
f 177 214 215
f 177 215 216
f 177 216 217
f 177 217 218
f 177 218 219
f 177 219 209
f 180 220 181
f 181 184 182
f 181 220 221
f 181 221 222
f 181 222 184
f 182 184 183
f 184 222 185
f 185 222 223
f 185 223 186
f 186 224 225
f 186 225 226
f 186 226 187
f 186 223 224
f 187 226 188
f 188 226 189
f 189 227 194
f 189 226 227
f 190 195 228
f 190 228 229
f 190 229 198
f 190 198 191
f 191 197 196
f 191 196 192
f 194 227 195
f 195 227 226
f 195 226 228
f 198 229 199
f 199 229 230
f 199 230 231
f 199 231 203
f 199 203 201
f 199 201 200
f 201 203 202
f 203 231 232
f 203 232 217
f 203 217 233
f 203 233 216
f 203 216 205
f 203 205 204
f 205 216 206
f 206 216 234
f 206 234 235
f 206 235 207
f 207 236 208
f 207 235 236
f 209 219 210
f 210 219 237
f 212 215 213
f 213 215 214
f 215 234 216
f 216 233 217
f 217 232 226
f 217 226 238
f 217 238 218
f 218 238 219
f 219 238 226
f 219 226 239
f 219 239 223
f 219 223 240
f 219 240 241
f 219 241 237
f 220 242 221
f 221 242 223
f 221 223 222
f 223 242 240
f 223 239 224
f 224 239 226
f 224 226 225
f 226 232 228
f 228 232 230
f 228 230 229
f 230 232 231
f 234 236 235

