# https://github.com/mikedh/trimesh
v -0.03141630 0.12768995 0.42020886
v -0.03142160 0.12768995 0.42017980
v -0.03142160 0.12750807 0.42020886
v -0.03070086 0.12762932 0.42020886
v 0.02087992 0.13063027 0.41672299
v 0.00343371 0.14675663 0.40485654
v 0.00343371 0.15021228 0.40206785
v -0.00343984 0.14990914 0.40200975
v -0.00343984 0.15369823 0.39858198
v -0.03142160 0.17124926 0.37492169
v -0.03142160 -0.07828468 0.42020886
v -0.02509391 0.12671994 0.42020886
v 0.02271887 0.12832651 0.41723135
v 0.02271887 0.13308560 0.41364381
v 0.01030197 0.15309197 0.39794291
v 0.01030197 0.14957569 0.40137067
v 0.01030197 0.14615038 0.40465318
v 0.00343371 0.15369823 0.39864008
v 0.00343371 0.15715387 0.39499444
v -0.00343984 0.15712357 0.39489277
v -0.03142160 0.17394710 0.37149391
v -0.03142160 -0.09610854 0.38574239
v -0.02832135 -0.09689667 0.39066617
v -0.02692226 -0.09565385 0.39524136
v -0.01544868 -0.09083412 0.42020886
v -0.02476003 0.12662900 0.42020886
v 0.02271887 0.12726557 0.41737659
v 0.02271887 0.13429812 0.41242376
v 0.01030197 0.15651731 0.39448609
v 0.01030197 0.15966982 0.39105833
v 0.01030197 0.16309515 0.38716578
v 0.01030197 0.16603548 0.38373802
v 0.00343371 0.15985169 0.39156669
v 0.00343371 0.16603548 0.38370896
v 0.00658696 0.17179489 0.37550266
v 0.00696323 0.17179489 0.37550266
v -0.03142160 0.17737242 0.36498698
v -0.03142160 -0.09844261 0.37906115
v -0.02955615 -0.09777574 0.38574239
v -0.02439966 -0.09847293 0.39281578
v -0.02234343 -0.09732105 0.39814625
v -0.01209405 -0.09553259 0.41505268
v -0.01000071 -0.09401696 0.41968598
v -0.01003781 -0.09365321 0.42020886
v -0.02448976 0.12644713 0.42020886
v 0.02271887 0.12023303 0.41824806
v 0.02271887 0.14066378 0.40548108
v 0.02063084 0.14427097 0.40293931
v 0.01534716 0.15882107 0.39011424
v 0.01557505 0.15212196 0.39696977
v 0.01717552 0.14499850 0.40362195
v 0.01469002 0.16533829 0.38288107
v 0.00967662 0.16946082 0.37821873
v 0.00862730 0.17212833 0.37200227
v -0.02404459 0.18085839 0.35139211
v -0.03142160 0.18194964 0.35139211
v -0.03142160 0.18182840 0.35188595
v -0.03142160 0.17988838 0.35840741
v -0.03142160 0.17755429 0.36452220
v 0.02271887 0.16573236 0.37702773
v 0.02271887 0.16761174 0.37332400
v 0.02271887 0.16821800 0.37200227
v 0.02271887 0.17012771 0.36645394
v 0.02271887 0.17046113 0.36526294
v -0.03142160 -0.09847293 0.37897401
v -0.03142160 -0.10144356 0.36909739
v -0.03142160 -0.10259544 0.36513222
v -0.02805637 -0.10335327 0.36957669
v -0.02404459 -0.10086763 0.38574239
v -0.01412378 -0.09638135 0.41047748
v -0.01677887 -0.10177701 0.39207504
v -0.00751521 -0.09635104 0.41711514
v -0.00414998 -0.09504759 0.42020886
v -0.02077475 0.12374931 0.42020886
v 0.02271887 0.07700716 0.42020886
v 0.02271887 0.15891201 0.38555357
v 0.01992600 0.15763886 0.38877799
v 0.01730801 0.16151889 0.38582954
v 0.02271887 0.16518674 0.37788467
v 0.02271887 0.16267077 0.38115267
v 0.02271887 0.16330733 0.38035382
v 0.01369899 0.17173428 0.36850189
v 0.01096441 0.17273459 0.36578582
v -0.01695906 0.17961557 0.35176975
v -0.01194566 0.17906995 0.34973632
v -0.02404459 0.18161619 0.34453658
v -0.03142160 0.18255590 0.34503041
v 0.02271887 0.17127959 0.35977271
v -0.03142160 -0.10456576 0.35827669
v -0.03142160 -0.10902174 0.34251769
v -0.01885631 -0.10271669 0.38574239
v -0.01422448 -0.10311076 0.38943159
v 0.01030197 -0.10120106 0.40635255
v 0.01717552 -0.09998856 0.41322260
v 0.02271887 -0.09889729 0.41877094
v 0.02271887 -0.09841230 0.42019434
v 0.00114960 -0.09571446 0.42020886
v 0.02271887 -0.09838199 0.42020886
v -0.01717634 0.18028244 0.34453658
v 0.02271887 0.17137053 0.35826216
v 0.02271887 0.17161301 0.35393389
v -0.03091814 0.18219215 0.32391189
v -0.03142160 0.18228308 0.32391189
v -0.03142160 0.18258620 0.34453658
v -0.03142160 -0.11008268 0.33786987
v -0.02821536 -0.11011299 0.34195124
v 0.02150527 -0.10298952 0.40267787
v 0.01717552 -0.10186794 0.40635255
v -0.02105033 -0.10999175 0.34831293
v 0.02271887 -0.12235930 0.30330173
v 0.02271887 -0.10368669 0.39970036
v 0.02271887 -0.10335327 0.40134162
v 0.02271887 -0.10086763 0.41190089
v 0.02271887 -0.10050386 0.41322260
v 0.02261288 -0.09838199 0.42020886
v 0.02271887 0.17161301 0.35102900
v -0.00858043 0.17837275 0.34453658
v -0.03142160 0.18185870 0.31704183
v 0.02271887 0.17140083 0.34453658
v 0.02271887 0.17112802 0.33971447
v -0.03142160 -0.11032517 0.33666434
v -0.03066906 -0.11041611 0.33717270
v -0.03142160 -0.12187431 0.27182729
v -0.03081215 -0.12199555 0.27182729
v -0.02404459 -0.12302619 0.27182729
v -0.02362062 -0.11035550 0.34436229
v 0.02271887 -0.10271669 0.40431913
v 0.02271887 -0.10232263 0.40597492
v -0.01950815 -0.12357182 0.27195801
v -0.00324905 -0.12545120 0.27182729
v 0.00343371 -0.12614839 0.27182729
v 0.02271887 -0.12263212 0.30179118
v 0.02271887 0.17146146 0.34627951
v -0.03142160 0.18046431 0.31043322
v 0.02271887 0.17085521 0.33797154
v 0.02271887 0.16943051 0.33079647
v -0.03142160 0.16348923 0.27182729
v -0.01939156 -0.12360212 0.27182729
v 0.00631668 -0.12639090 0.27182729
v 0.02271887 -0.12351119 0.29662049
v -0.03142160 0.17997932 0.30876291
v 0.02271887 0.15463793 0.27182729
v -0.03142160 0.17897901 0.30594517
v 0.01318494 -0.12675465 0.27182729
v 0.02271887 -0.12587558 0.28136984
v 0.02271887 -0.12487527 0.28823989
v 0.02271887 -0.12387494 0.29439825
v 0.02271887 -0.12708809 0.27182729
v 0.02005849 -0.12702746 0.27182729
f 1 2 3
f 1 3 11
f 1 11 25
f 1 25 44
f 1 44 73
f 1 73 97
f 1 97 115
f 1 115 98
f 1 98 75
f 1 75 74
f 1 74 45
f 1 45 26
f 1 26 12
f 1 12 4
f 1 4 5
f 1 5 6
f 1 6 7
f 1 7 8
f 1 8 9
f 1 9 10
f 1 10 2
f 2 10 21
f 2 21 37
f 2 37 59
f 2 59 58
f 2 58 57
f 2 57 56
f 2 56 87
f 2 87 104
f 2 104 103
f 2 103 118
f 2 118 134
f 2 134 141
f 2 141 143
f 2 143 137
f 2 137 123
f 2 123 121
f 2 121 105
f 2 105 90
f 2 90 89
f 2 89 67
f 2 67 66
f 2 66 65
f 2 65 38
f 2 38 22
f 2 22 11
f 2 11 3
f 4 12 5
f 5 12 13
f 5 13 14
f 5 14 15
f 5 15 16
f 5 16 17
f 5 17 7
f 5 7 6
f 7 17 16
f 7 16 15
f 7 15 18
f 7 18 9
f 7 9 8
f 9 18 19
f 9 19 20
f 9 20 10
f 10 20 21
f 11 22 23
f 11 23 24
f 11 24 25
f 12 26 13
f 13 26 27
f 13 27 46
f 13 46 75
f 13 75 98
f 13 98 96
f 13 96 95
f 13 95 114
f 13 114 113
f 13 113 128
f 13 128 127
f 13 127 112
f 13 112 111
f 13 111 110
f 13 110 132
f 13 132 140
f 13 140 147
f 13 147 146
f 13 146 145
f 13 145 148
f 13 148 142
f 13 142 136
f 13 136 135
f 13 135 120
f 13 120 119
f 13 119 133
f 13 133 116
f 13 116 101
f 13 101 100
f 13 100 88
f 13 88 64
f 13 64 63
f 13 63 62
f 13 62 61
f 13 61 60
f 13 60 79
f 13 79 81
f 13 81 80
f 13 80 76
f 13 76 47
f 13 47 28
f 13 28 14
f 14 28 15
f 15 29 18
f 15 28 29
f 18 29 19
f 19 29 30
f 19 30 31
f 19 31 32
f 19 32 33
f 19 33 20
f 20 33 34
f 20 34 21
f 21 34 35
f 21 35 36
f 21 36 37
f 22 38 39
f 22 39 23
f 23 39 40
f 23 40 41
f 23 41 24
f 24 41 25
f 25 41 42
f 25 42 43
f 25 43 44
f 26 45 46
f 26 46 27
f 28 47 48
f 28 48 49
f 28 49 50
f 28 50 51
f 28 51 29
f 29 51 50
f 29 50 49
f 29 49 30
f 30 49 31
f 31 49 52
f 31 52 32
f 32 34 33
f 32 52 53
f 32 53 36
f 32 36 35
f 32 35 34
f 36 54 55
f 36 55 56
f 36 56 57
f 36 57 58
f 36 58 59
f 36 59 37
f 36 53 52
f 36 52 60
f 36 60 61
f 36 61 62
f 36 62 63
f 36 63 64
f 36 64 54
f 38 65 39
f 39 65 66
f 39 66 67
f 39 67 68
f 39 68 69
f 39 69 40
f 40 70 42
f 40 42 41
f 40 69 71
f 40 71 70
f 42 70 71
f 42 71 72
f 42 72 43
f 43 72 44
f 44 72 73
f 45 74 46
f 46 74 75
f 47 76 48
f 48 76 77
f 48 77 49
f 49 78 52
f 49 77 78
f 52 79 60
f 52 78 80
f 52 80 81
f 52 81 79
f 54 64 82
f 54 82 83
f 54 83 55
f 55 84 85
f 55 85 86
f 55 86 56
f 55 83 84
f 56 86 87
f 64 88 83
f 64 83 82
f 67 89 68
f 68 89 90
f 68 90 69
f 69 91 71
f 69 90 91
f 71 91 92
f 71 92 72
f 72 92 93
f 72 93 94
f 72 94 95
f 72 95 96
f 72 96 97
f 72 97 73
f 76 80 77
f 77 80 78
f 83 88 85
f 83 85 84
f 85 99 86
f 85 88 100
f 85 100 101
f 85 101 99
f 86 99 102
f 86 102 103
f 86 103 104
f 86 104 87
f 90 105 106
f 90 106 91
f 91 106 92
f 92 107 108
f 92 108 93
f 92 106 109
f 92 109 110
f 92 110 111
f 92 111 112
f 92 112 107
f 93 108 94
f 94 108 113
f 94 113 114
f 94 114 95
f 96 98 115
f 96 115 97
f 99 101 116
f 99 116 117
f 99 117 102
f 102 118 103
f 102 117 119
f 102 119 120
f 102 120 118
f 105 121 106
f 106 121 122
f 106 122 123
f 106 123 124
f 106 124 125
f 106 125 126
f 106 126 109
f 107 127 108
f 107 112 127
f 108 127 128
f 108 128 113
f 109 126 125
f 109 125 129
f 109 129 130
f 109 130 131
f 109 131 132
f 109 132 110
f 116 133 117
f 117 133 119
f 118 120 135
f 118 135 136
f 118 136 134
f 121 123 122
f 123 137 142
f 123 142 148
f 123 148 149
f 123 149 144
f 123 144 139
f 123 139 131
f 123 131 130
f 123 130 138
f 123 138 125
f 123 125 124
f 125 138 129
f 129 138 130
f 131 139 132
f 132 139 140
f 134 136 142
f 134 142 141
f 137 143 142
f 139 144 145
f 139 145 146
f 139 146 147
f 139 147 140
f 141 142 143
f 144 149 145
f 145 149 148

