# https://github.com/mikedh/trimesh
v 0.10605832 -0.13618473 0.27182729
v 0.09275305 -0.13546060 0.27182729
v 0.10605832 0.02460589 0.27182729
v 0.10605832 -0.13583840 0.27582865
v 0.08876392 -0.13516149 0.27182729
v 0.09275305 -0.13506704 0.27582865
v 0.02271888 0.02460589 0.27182729
v 0.10605832 0.02460589 0.41658874
v 0.10605832 -0.13519297 0.28226005
v 0.08588424 -0.13490962 0.27182729
v 0.08588424 -0.13450033 0.27582865
v 0.09962186 -0.13475219 0.28269856
v 0.09275305 -0.13424844 0.28269856
v 0.02271888 -0.12708576 0.27182729
v 0.02271888 0.02460589 0.45241825
v 0.08425269 0.02460589 0.45384339
v 0.08928602 0.00669129 0.45097484
v 0.10605832 -0.04818595 0.43897077
v 0.10605832 -0.13514576 0.28269856
v 0.08189510 -0.13446883 0.27182729
v 0.09275305 -0.13333540 0.28956847
v 0.05851503 -0.13183990 0.27182729
v 0.06128866 -0.13215473 0.27182729
v 0.10605832 -0.13432715 0.28956847
v 0.09962186 -0.13387063 0.28956847
v 0.02271888 -0.12588935 0.28136477
v 0.02271888 -0.03779611 0.44565796
v 0.07280738 0.02460589 0.45842942
v 0.08050013 0.02460589 0.45727834
v 0.08430163 0.02403917 0.45387992
v 0.09016705 -0.00344667 0.45181529
v 0.10605832 -0.05114548 0.43970160
v 0.02404859 -0.12485037 0.28956847
v 0.10605832 -0.13251680 0.30286979
v 0.10605832 -0.13245383 0.30330829
v 0.10605832 -0.13125744 0.31074460
v 0.09275305 -0.13221771 0.29643838
v 0.02762983 -0.12365396 0.29978198
v 0.02271888 -0.12488185 0.28823468
v 0.02271888 -0.07900914 0.43937273
v 0.07557286 0.02060738 0.45788130
v 0.07706572 0.02460589 0.45848424
v 0.07213845 -0.08587273 0.44026801
v 0.08040224 0.02403917 0.45731489
v 0.09039546 -0.01031026 0.45185184
v 0.10605832 -0.06526621 0.44098056
v 0.10605832 -0.05838688 0.44074305
v 0.02271888 -0.12389009 0.29439203
v 0.02404859 -0.12341783 0.29837511
v 0.02271888 -0.12352802 0.29662109
v 0.10605832 -0.13002954 0.31684713
v 0.09275305 -0.11902576 0.36513749
v 0.08588424 -0.11823866 0.36513749
v 0.10359468 -0.13047033 0.31326601
v 0.04466319 -0.11990732 0.33078794
v 0.02404859 -0.12261498 0.30330829
v 0.02271888 -0.08502265 0.43807548
v 0.08588424 -0.01031026 0.45280194
v 0.07558101 0.02060738 0.45788130
v 0.08588424 -0.00344667 0.45360586
v 0.07213845 -0.09176030 0.43851399
v 0.09275305 -0.09231128 0.43822164
v 0.07900726 -0.08587273 0.44015838
v 0.08994678 -0.01544221 0.45143162
v 0.10605832 -0.07900914 0.44041418
v 0.10605832 -0.07212981 0.44092577
v 0.02271888 -0.12264646 0.30179179
v 0.10605832 -0.12020642 0.36513749
v 0.10605832 -0.11866369 0.37204394
v 0.09275305 -0.11271314 0.39261714
v 0.08588424 -0.11364193 0.38574722
v 0.04002960 -0.10322061 0.41039486
v 0.02271888 -0.10271686 0.40431060
v 0.02271888 -0.10336229 0.40133242
v 0.02271888 -0.10369288 0.39970630
v 0.02271888 -0.12237884 0.30330829
v 0.02271888 -0.08845444 0.43690613
v 0.09962186 -0.08587273 0.43962852
v 0.10605832 -0.08587273 0.43931791
v 0.07213845 -0.09519210 0.43650417
v 0.08588424 -0.09558565 0.43697921
v 0.09275305 -0.09574307 0.43708885
v 0.09962186 -0.09174456 0.43813030
v 0.10605832 -0.10967491 0.40843986
v 0.08588424 -0.10704595 0.41322686
v 0.07377000 -0.10326784 0.42406159
v 0.08588424 -0.11205198 0.39261714
v 0.04466319 -0.10345674 0.41143631
v 0.04466319 -0.10257518 0.41487125
v 0.02271888 -0.10087502 0.41189309
v 0.02271888 -0.10233905 0.40597326
v 0.02271888 -0.09198069 0.43347119
v 0.10605832 -0.08625053 0.43922656
v 0.03475154 -0.09616811 0.43036510
v 0.07213845 -0.09823034 0.43306921
v 0.08588424 -0.09908042 0.43354427
v 0.09275305 -0.09930081 0.43365388
v 0.10605832 -0.09464112 0.43657725
v 0.10605832 -0.09119358 0.43794758
v 0.10605832 -0.09903319 0.43314229
v 0.10605832 -0.10830534 0.41322686
v 0.08588424 -0.10369288 0.42563292
v 0.08588424 -0.10521986 0.42009677
v 0.07900726 -0.10471611 0.42009677
v 0.02404859 -0.09687651 0.42532230
v 0.06919350 -0.10300022 0.42325767
v 0.07900726 -0.10348823 0.42464626
v 0.08588424 -0.10251221 0.42906786
v 0.03092556 -0.09596346 0.42989006
v 0.03092556 -0.09730155 0.42645510
v 0.02271888 -0.10051295 0.41322686
v 0.02271888 -0.09545971 0.42839184
v 0.02404859 -0.09550694 0.42875725
v 0.09275305 -0.10273260 0.42954290
v 0.10605832 -0.10246499 0.42941500
v 0.10605832 -0.10621163 0.42009677
v 0.09275305 -0.10386604 0.42610796
v 0.02271888 -0.09678206 0.42504822
v 0.02271888 -0.09698671 0.42446357
v 0.02404859 -0.09862389 0.42009677
v 0.02271888 -0.09889151 0.41876299
v 0.10605832 -0.10416513 0.42598006
f 1 2 5
f 1 5 10
f 1 10 20
f 1 20 23
f 1 23 22
f 1 22 14
f 1 14 7
f 1 7 3
f 1 3 8
f 1 8 18
f 1 18 32
f 1 32 47
f 1 47 46
f 1 46 66
f 1 66 65
f 1 65 79
f 1 79 93
f 1 93 99
f 1 99 98
f 1 98 100
f 1 100 115
f 1 115 122
f 1 122 116
f 1 116 101
f 1 101 84
f 1 84 69
f 1 69 68
f 1 68 51
f 1 51 36
f 1 36 35
f 1 35 34
f 1 34 24
f 1 24 19
f 1 19 9
f 1 9 4
f 1 4 2
f 2 4 6
f 2 6 5
f 3 7 15
f 3 15 28
f 3 28 42
f 3 42 29
f 3 29 16
f 3 16 8
f 4 9 6
f 5 6 11
f 5 11 10
f 6 9 12
f 6 12 13
f 6 13 11
f 7 14 26
f 7 26 39
f 7 39 48
f 7 48 50
f 7 50 67
f 7 67 76
f 7 76 75
f 7 75 74
f 7 74 73
f 7 73 91
f 7 91 90
f 7 90 111
f 7 111 121
f 7 121 119
f 7 119 118
f 7 118 112
f 7 112 92
f 7 92 77
f 7 77 57
f 7 57 40
f 7 40 27
f 7 27 15
f 8 16 17
f 8 17 18
f 9 19 12
f 10 11 20
f 11 13 21
f 11 21 22
f 11 22 23
f 11 23 20
f 12 19 24
f 12 24 25
f 12 25 13
f 13 25 21
f 14 22 26
f 15 27 28
f 16 29 30
f 16 30 31
f 16 31 17
f 17 31 32
f 17 32 18
f 21 33 22
f 21 25 34
f 21 34 35
f 21 35 36
f 21 36 37
f 21 37 38
f 21 38 33
f 22 33 39
f 22 39 26
f 24 34 25
f 27 40 28
f 28 41 42
f 28 40 43
f 28 43 41
f 29 42 44
f 29 44 45
f 29 45 31
f 29 31 30
f 31 45 46
f 31 46 47
f 31 47 32
f 33 48 39
f 33 38 49
f 33 49 50
f 33 50 48
f 36 51 52
f 36 52 53
f 36 53 54
f 36 54 55
f 36 55 56
f 36 56 37
f 37 56 38
f 38 56 49
f 40 57 43
f 41 58 59
f 41 59 42
f 41 43 58
f 42 59 58
f 42 58 60
f 42 60 45
f 42 45 44
f 43 57 61
f 43 61 62
f 43 62 63
f 43 63 58
f 45 60 64
f 45 64 65
f 45 65 66
f 45 66 46
f 49 56 50
f 50 56 67
f 51 68 52
f 52 68 69
f 52 69 70
f 52 70 71
f 52 71 72
f 52 72 73
f 52 73 74
f 52 74 53
f 53 74 75
f 53 75 55
f 53 55 54
f 55 75 56
f 56 76 67
f 56 75 76
f 57 77 61
f 58 64 60
f 58 63 78
f 58 78 79
f 58 79 65
f 58 65 64
f 61 77 80
f 61 80 81
f 61 81 82
f 61 82 62
f 62 83 78
f 62 78 63
f 62 82 83
f 69 84 70
f 70 84 85
f 70 85 86
f 70 86 87
f 70 87 71
f 71 87 88
f 71 88 72
f 72 88 89
f 72 89 90
f 72 90 91
f 72 91 73
f 77 92 80
f 78 83 93
f 78 93 79
f 80 92 94
f 80 94 95
f 80 95 96
f 80 96 81
f 81 96 97
f 81 97 82
f 82 98 99
f 82 99 83
f 82 97 100
f 82 100 98
f 83 99 93
f 84 101 102
f 84 102 103
f 84 103 85
f 85 103 104
f 85 104 86
f 86 105 106
f 86 106 88
f 86 88 87
f 86 104 103
f 86 103 107
f 86 107 108
f 86 108 109
f 86 109 110
f 86 110 105
f 88 106 89
f 89 111 90
f 89 106 111
f 92 112 113
f 92 113 109
f 92 109 94
f 94 109 108
f 94 108 95
f 95 108 96
f 96 108 114
f 96 114 97
f 97 114 115
f 97 115 100
f 101 116 117
f 101 117 102
f 102 117 114
f 102 114 108
f 102 108 107
f 102 107 103
f 105 118 119
f 105 119 120
f 105 120 106
f 105 110 109
f 105 109 113
f 105 113 112
f 105 112 118
f 106 120 121
f 106 121 111
f 114 117 116
f 114 116 122
f 114 122 115
f 119 121 120

