# https://github.com/mikedh/trimesh
v -0.31914805 0.18373427 0.27070014
v -0.31913007 0.18208221 0.27070014
v -0.30115470 0.19581702 0.35138961
v -0.31900438 0.18901440 0.27070014
v -0.31850158 0.17680208 0.27070014
v -0.31830404 0.17518242 0.27070014
v -0.29941282 0.19581702 0.35825758
v -0.29930509 0.20268441 0.35825758
v -0.30074168 0.20268441 0.35138961
v -0.31871705 0.19060168 0.27070014
v -0.30934329 0.17783868 0.30732010
v -0.30004133 0.18891722 0.35138961
v -0.31690336 0.16812065 0.27070014
v -0.29810193 0.18891722 0.35825758
v -0.29621641 0.18972706 0.36500554
v -0.29731179 0.19581702 0.36500554
v -0.29707836 0.20313793 0.36500554
v -0.29623435 0.20712230 0.36384242
v -0.29706040 0.20802932 0.35825758
v -0.30203460 0.20485476 0.33764442
v -0.31034890 0.20129149 0.29643658
v -0.31735230 0.19491000 0.27070014
v -0.30885844 0.17327120 0.30552926
v -0.26594017 -0.07181720 0.27070014
v -0.29855087 0.18204981 0.35138961
v -0.29451045 0.18201742 0.36500554
v -0.29614458 0.18937072 0.36499632
v -0.26475499 -0.07725929 0.27070014
v -0.26434196 -0.07910571 0.27070014
v -0.29659351 0.20472519 0.36500554
v -0.29447453 0.20854761 0.36500554
v -0.28953624 0.21353619 0.36500554
v -0.29354075 0.21146301 0.35825758
v -0.29767096 0.20877437 0.35138961
v -0.31112106 0.20177739 0.28955938
v -0.31548471 0.19808454 0.27070014
v -0.29296611 0.17518242 0.36500554
v -0.26075047 -0.06673144 0.29162716
v -0.25114324 -0.06524134 0.32390848
v -0.25455517 -0.06297380 0.31463117
v -0.26306699 -0.08435345 0.27070014
v -0.26101984 -0.08215070 0.27905433
v -0.28946441 0.21356858 0.36500554
v -0.29009292 0.21379534 0.35825758
v -0.29409743 0.21220806 0.35138961
v -0.30336347 0.20721948 0.31704973
v -0.29815581 0.20922787 0.34452163
v -0.31183937 0.20184217 0.28269140
v -0.31458684 0.19934790 0.27070014
v -0.24744403 -0.04846157 0.34818639
v -0.24803661 -0.02287079 0.36343625
v -0.24773134 -0.02157505 0.36500554
v -0.25432172 -0.08266899 0.30008289
v -0.23736989 -0.06524134 0.36500554
v -0.26268989 -0.08587594 0.27070014
v -0.26172017 -0.08976315 0.27070014
v -0.28937462 0.21360098 0.36500554
v -0.28513666 0.21466997 0.36500554
v -0.28513666 0.21489671 0.35825758
v -0.29064959 0.21376295 0.35138961
v -0.29420518 0.21266158 0.34452163
v -0.30392015 0.20744624 0.31017253
v -0.31225238 0.20155065 0.27582343
v -0.31203691 0.20112952 0.27070014
v -0.26143286 -0.09070256 0.27070014
v -0.25940367 -0.09727842 0.27070014
v -0.25433967 -0.08966596 0.29327953
v -0.23731604 -0.06537092 0.36500554
v -0.27825897 0.21557699 0.36500554
v -0.28513666 0.21463757 0.35138961
v -0.29075733 0.21343901 0.34452163
v -0.29212211 0.21266158 0.33761673
v -0.29887409 0.20909829 0.31017253
v -0.30402788 0.20715470 0.30330455
v -0.30575180 0.20475758 0.28269140
v -0.30575180 0.20410971 0.27582343
v -0.30575180 0.20336467 0.27070014
v -0.25846988 -0.09964312 0.27070014
v -0.25362139 -0.09468694 0.28955938
v -0.23507135 -0.07010035 0.36500554
v -0.27139922 0.21596570 0.36500554
v -0.28513666 0.21389253 0.34452163
v -0.28993130 0.21314748 0.33987836
v -0.21644950 0.20971378 0.27582343
v -0.22330923 0.20890395 0.27070014
v -0.29887409 0.20838564 0.30330455
v -0.30359690 0.20663641 0.29643658
v -0.29240942 0.20582657 0.27550957
v -0.29210416 0.20517871 0.27070014
v -0.25622520 -0.10469651 0.27070014
v -0.23027671 -0.07285379 0.36500554
v -0.25575831 -0.10547393 0.27070014
v -0.25286717 -0.10894004 0.27070014
v -0.25053271 -0.11104561 0.27070014
v -0.24631271 -0.10249376 0.29188562
v -0.24378071 0.21593330 0.36500554
v -0.19583436 0.21156020 0.29643658
v -0.20269411 0.21097712 0.28955938
v -0.28513666 0.20647444 0.27634037
v -0.29038023 0.20634486 0.27758658
v -0.19583436 0.21100952 0.28955938
v -0.18895668 0.21084754 0.28955938
v -0.19583436 0.21010250 0.28269140
v -0.18895668 0.20990813 0.28269140
v -0.21644950 0.20896874 0.27070014
v -0.28513666 0.20576178 0.27070014
v -0.28707606 0.20563220 0.27070014
v -0.23015102 -0.07291858 0.36500554
v -0.24922180 -0.11166108 0.27070014
v -0.24173356 -0.10362752 0.29371339
v -0.23690300 0.21570654 0.36500554
v -0.18895668 0.21369816 0.34452163
v -0.18895668 0.21350379 0.33764442
v -0.18207897 0.21220806 0.31017253
v -0.18895668 0.21194893 0.30330455
v -0.18895668 0.21149541 0.29643658
v -0.18207897 0.21113909 0.29643658
v -0.18207897 0.21045883 0.28955938
v -0.18207897 0.20948702 0.28269140
v -0.18895668 0.20861240 0.27582343
v -0.18895668 0.20747864 0.27070014
v -0.22851689 -0.07333969 0.36500554
v -0.24390642 -0.11373425 0.27070014
v -0.24299057 -0.11392862 0.27070014
v -0.22282438 -0.07476500 0.36500554
v -0.18895668 0.21266158 0.35973456
v -0.18457505 0.21314748 0.35569131
v -0.18319233 0.21324466 0.35138961
v -0.18895668 0.21149541 0.36500554
v -0.18231243 0.21330945 0.34452163
v -0.17521924 0.21217567 0.31704973
v -0.17521924 0.21181935 0.31017253
v -0.18207897 0.21172217 0.30330455
v -0.17521924 0.21120388 0.30330455
v -0.17521924 0.21055599 0.29643658
v -0.17521924 0.20984334 0.28955938
v -0.17521924 0.20874198 0.28269140
v -0.18207897 0.20812650 0.27582343
v -0.18428774 0.20715470 0.27070014
v -0.23702871 -0.11480324 0.27070014
v -0.22241137 -0.07482979 0.36500554
v -0.18209693 0.21058839 0.36500554
v -0.18220468 0.21220806 0.35809142
v -0.14086668 0.20799693 0.33764442
v -0.14772641 0.20929266 0.33764442
v -0.14772641 0.21016728 0.33077645
v -0.15460410 0.21094473 0.33077645
v -0.16148181 0.21139823 0.32390848
v -0.16834154 0.21162499 0.31704973
v -0.15460410 0.21081515 0.32390848
v -0.16148181 0.21100952 0.31704973
v -0.16834154 0.21110670 0.31017253
v -0.16834154 0.20977855 0.29643658
v -0.16834154 0.20896874 0.28955938
v -0.16834154 0.20773777 0.28269140
v -0.17484214 0.20705751 0.27534341
v -0.17687131 0.20640965 0.27116170
v -0.18249199 0.20702512 0.27070014
v -0.23016898 -0.11496521 0.27070014
v -0.14023816 -0.08260421 0.36500554
v -0.14366804 -0.08237745 0.36500554
v -0.17521924 -0.07998034 0.36500554
v -0.18195328 0.21055599 0.36500554
v -0.13711357 0.20618289 0.34129073
v -0.13571289 0.20640965 0.33908448
v -0.13571289 0.20686315 0.33727517
v -0.14086668 0.20883916 0.33077645
v -0.14772641 0.20974618 0.32390848
v -0.15460410 0.21010250 0.31704973
v -0.16148181 0.20877437 0.29643658
v -0.16148181 0.20796453 0.28955938
v -0.15670512 0.20637725 0.28495303
v -0.16173320 0.20670120 0.28267294
v -0.15961423 0.20585896 0.28037438
v -0.16419338 0.20621528 0.27882355
v -0.15460410 0.20401253 0.27582343
v -0.16153568 0.20385058 0.27070014
v -0.17645829 0.20621528 0.27070014
v -0.17805651 0.20644204 0.27070014
v -0.13571289 -0.10978227 0.27070014
v -0.13571289 -0.08263660 0.36500554
v -0.13792165 -0.08263660 0.36500554
v -0.13571289 0.20456323 0.34429085
v -0.13571289 0.20524349 0.34272155
v -0.13571289 0.19526632 0.36500554
v -0.13571289 0.20744624 0.33249344
v -0.13571289 0.20764059 0.33077645
v -0.13571289 0.20728427 0.32572701
v -0.13571289 0.20712230 0.32396386
v -0.13571289 0.20232809 0.28440840
v -0.15449636 0.20666880 0.28983631
v -0.13571289 0.20210133 0.28269140
v -0.13571289 0.20112952 0.27753119
v -0.13571289 0.20077320 0.27582343
v -0.15449636 0.20550263 0.28267294
v -0.13571289 0.19999576 0.27255560
v -0.15632802 0.20300835 0.27070014
v -0.13571289 0.19950985 0.27070014
v -0.13571289 0.19957464 0.27089400
v -0.15460410 0.20271680 0.27070014
f 1 2 3
f 1 3 4
f 1 4 10
f 1 10 22
f 1 22 36
f 1 36 49
f 1 49 64
f 1 64 77
f 1 77 89
f 1 89 107
f 1 107 106
f 1 106 85
f 1 85 105
f 1 105 121
f 1 121 139
f 1 139 158
f 1 158 179
f 1 179 178
f 1 178 177
f 1 177 197
f 1 197 200
f 1 200 198
f 1 198 180
f 1 180 159
f 1 159 140
f 1 140 124
f 1 124 123
f 1 123 109
f 1 109 94
f 1 94 93
f 1 93 92
f 1 92 90
f 1 90 78
f 1 78 66
f 1 66 65
f 1 65 56
f 1 56 55
f 1 55 41
f 1 41 29
f 1 29 28
f 1 28 24
f 1 24 13
f 1 13 6
f 1 6 5
f 1 5 2
f 2 5 3
f 3 5 6
f 3 6 7
f 3 7 8
f 3 8 4
f 4 8 9
f 4 9 10
f 6 11 12
f 6 12 7
f 6 13 11
f 7 12 14
f 7 14 15
f 7 15 16
f 7 16 8
f 8 17 18
f 8 18 19
f 8 19 9
f 8 16 17
f 9 19 20
f 9 20 21
f 9 21 22
f 9 22 10
f 11 23 12
f 11 13 23
f 12 23 24
f 12 24 25
f 12 25 14
f 13 24 23
f 14 26 27
f 14 27 15
f 14 25 28
f 14 28 29
f 14 29 26
f 15 27 26
f 15 26 37
f 15 37 52
f 15 52 54
f 15 54 68
f 15 68 80
f 15 80 91
f 15 91 108
f 15 108 122
f 15 122 125
f 15 125 141
f 15 141 162
f 15 162 161
f 15 161 160
f 15 160 182
f 15 182 181
f 15 181 185
f 15 185 163
f 15 163 142
f 15 142 129
f 15 129 111
f 15 111 96
f 15 96 81
f 15 81 69
f 15 69 58
f 15 58 57
f 15 57 43
f 15 43 32
f 15 32 31
f 15 31 30
f 15 30 17
f 15 17 16
f 17 30 18
f 18 31 19
f 18 30 31
f 19 31 32
f 19 32 33
f 19 33 34
f 19 34 20
f 20 35 21
f 20 34 35
f 21 35 22
f 22 35 36
f 24 28 25
f 26 29 38
f 26 38 37
f 29 39 40
f 29 40 38
f 29 41 42
f 29 42 39
f 32 43 44
f 32 44 45
f 32 45 33
f 33 45 34
f 34 46 35
f 34 45 47
f 34 47 46
f 35 46 48
f 35 48 36
f 36 48 49
f 37 38 40
f 37 40 50
f 37 50 51
f 37 51 52
f 39 42 53
f 39 53 54
f 39 54 50
f 39 50 40
f 41 55 42
f 42 55 56
f 42 56 53
f 43 57 44
f 44 58 59
f 44 59 60
f 44 60 61
f 44 61 45
f 44 57 58
f 45 61 62
f 45 62 47
f 46 47 62
f 46 62 48
f 48 62 63
f 48 63 49
f 49 63 64
f 50 54 51
f 51 54 52
f 53 56 65
f 53 65 66
f 53 66 67
f 53 67 54
f 54 67 68
f 58 69 59
f 59 69 70
f 59 70 60
f 60 70 71
f 60 71 61
f 61 71 72
f 61 72 73
f 61 73 74
f 61 74 62
f 62 74 63
f 63 74 75
f 63 75 76
f 63 76 64
f 64 76 77
f 66 78 67
f 67 78 79
f 67 79 68
f 68 79 80
f 69 81 70
f 70 82 83
f 70 83 71
f 70 81 84
f 70 84 85
f 70 85 82
f 71 83 72
f 72 83 73
f 73 83 86
f 73 86 76
f 73 76 87
f 73 87 74
f 74 87 75
f 75 87 76
f 76 88 89
f 76 89 77
f 76 86 88
f 78 90 79
f 79 90 80
f 80 90 92
f 80 92 93
f 80 93 94
f 80 94 95
f 80 95 91
f 81 96 97
f 81 97 98
f 81 98 84
f 82 85 99
f 82 99 83
f 83 99 100
f 83 100 86
f 84 98 101
f 84 101 102
f 84 102 103
f 84 103 104
f 84 104 105
f 84 105 85
f 85 106 99
f 86 100 88
f 88 100 89
f 89 100 107
f 91 95 108
f 94 109 95
f 95 109 110
f 95 110 108
f 96 111 112
f 96 112 113
f 96 113 114
f 96 114 115
f 96 115 97
f 97 116 101
f 97 101 98
f 97 115 116
f 99 106 100
f 100 106 107
f 101 116 102
f 102 116 117
f 102 117 118
f 102 118 104
f 102 104 103
f 104 118 119
f 104 119 120
f 104 120 105
f 105 120 121
f 108 110 122
f 109 123 110
f 110 123 124
f 110 124 125
f 110 125 122
f 111 126 127
f 111 127 128
f 111 128 112
f 111 129 126
f 112 130 131
f 112 131 113
f 112 128 130
f 113 131 114
f 114 131 132
f 114 132 133
f 114 133 116
f 114 116 115
f 116 133 117
f 117 133 132
f 117 132 134
f 117 134 135
f 117 135 118
f 118 135 136
f 118 136 119
f 119 136 137
f 119 137 138
f 119 138 120
f 120 138 139
f 120 139 121
f 124 140 141
f 124 141 125
f 126 129 127
f 127 129 142
f 127 142 143
f 127 143 144
f 127 144 145
f 127 145 146
f 127 146 128
f 128 146 147
f 128 147 130
f 130 147 148
f 130 148 131
f 131 148 149
f 131 149 132
f 132 149 150
f 132 150 151
f 132 151 152
f 132 152 134
f 134 152 135
f 135 153 136
f 135 152 151
f 135 151 153
f 136 153 154
f 136 154 137
f 137 154 155
f 137 155 156
f 137 156 157
f 137 157 138
f 138 157 158
f 138 158 139
f 140 159 160
f 140 160 161
f 140 161 162
f 140 162 141
f 142 163 144
f 142 144 143
f 144 164 165
f 144 165 166
f 144 166 167
f 144 167 146
f 144 146 145
f 144 163 164
f 146 167 168
f 146 168 150
f 146 150 147
f 147 150 148
f 148 150 149
f 150 168 169
f 150 169 153
f 150 153 151
f 153 169 170
f 153 170 171
f 153 171 154
f 154 171 155
f 155 171 172
f 155 172 173
f 155 173 174
f 155 174 175
f 155 175 156
f 156 175 157
f 157 175 176
f 157 176 177
f 157 177 178
f 157 178 179
f 157 179 158
f 159 180 181
f 159 181 182
f 159 182 160
f 163 183 184
f 163 184 164
f 163 185 183
f 164 184 165
f 165 184 183
f 165 183 185
f 165 185 181
f 165 181 180
f 165 180 198
f 165 198 199
f 165 199 196
f 165 196 194
f 165 194 193
f 165 193 192
f 165 192 190
f 165 190 189
f 165 189 188
f 165 188 187
f 165 187 186
f 165 186 166
f 166 186 167
f 167 186 187
f 167 187 188
f 167 188 168
f 168 188 189
f 168 189 190
f 168 190 191
f 168 191 171
f 168 171 169
f 169 171 170
f 171 191 192
f 171 192 172
f 172 192 193
f 172 193 194
f 172 194 195
f 172 195 176
f 172 176 174
f 172 174 173
f 174 176 175
f 176 195 194
f 176 194 196
f 176 196 197
f 176 197 177
f 190 192 191
f 196 199 197
f 197 199 200
f 198 200 199

