# https://github.com/mikedh/trimesh
v 0.02271888 0.08030337 0.27182729
v 0.02271888 0.15465795 0.27182729
v 0.06120971 0.08030337 0.27182729
v 0.02271888 0.08030337 0.41438272
v 0.03486336 0.15663418 0.27182729
v 0.02271888 0.16943632 0.33078576
v 0.06120971 0.15346257 0.27182729
v 0.06120971 0.08030337 0.41936345
v 0.06120971 0.08182652 0.41974659
v 0.05839873 0.09275846 0.42204540
v 0.05152954 0.09963190 0.42208961
v 0.03092196 0.11337877 0.41959922
v 0.02404900 0.12024257 0.41861191
v 0.02271888 0.12024257 0.41824353
v 0.03746710 0.15693303 0.27182729
v 0.03092196 0.17160535 0.33566335
v 0.02271888 0.17086307 0.33796216
v 0.05828569 0.15463867 0.27182729
v 0.06120971 0.17770758 0.35064980
v 0.06120971 0.09275846 0.42236959
v 0.05839873 0.09963190 0.42228117
v 0.03092196 0.12024257 0.41949608
v 0.02271888 0.12833067 0.41722674
v 0.02271888 0.12728952 0.41737411
v 0.04406123 0.15751144 0.27182729
v 0.06120971 0.17871979 0.35403906
v 0.02271888 0.17112335 0.33971573
v 0.05507529 0.15565088 0.27182729
v 0.05152954 0.15667275 0.27182729
v 0.06120971 0.09963190 0.42166226
v 0.05152954 0.10650534 0.42138228
v 0.03092196 0.12527473 0.41765409
v 0.06120971 0.16752756 0.39011263
v 0.02271888 0.13308327 0.41364592
v 0.06120971 0.15908279 0.39581544
v 0.04466035 0.15752108 0.27182729
v 0.02271888 0.17147039 0.34628797
v 0.02271888 0.17161500 0.35103293
v 0.06120971 0.17877764 0.35825354
v 0.02271888 0.17140291 0.34453438
v 0.03539090 0.12431071 0.41716781
v 0.06120971 0.17310923 0.38448350
v 0.02271888 0.13430757 0.41242284
v 0.02271888 0.17161500 0.35393591
v 0.02271888 0.17139327 0.35825354
v 0.06120971 0.17854627 0.36152492
v 0.06120971 0.17363944 0.38326042
v 0.06036566 0.17304174 0.38417405
v 0.02271888 0.16575378 0.37702711
v 0.02271888 0.16519465 0.37788181
v 0.02271888 0.16330517 0.38035744
v 0.02271888 0.16267856 0.38115318
v 0.02271888 0.15891890 0.38554449
v 0.02271888 0.14068936 0.40548221
v 0.02271888 0.17127759 0.35977134
v 0.02271888 0.17047746 0.36526784
v 0.06120971 0.17835346 0.36242381
v 0.06120971 0.17481552 0.37873649
v 0.02271888 0.17013041 0.36646145
v 0.02271888 0.16822166 0.37200217
v 0.02271888 0.16762397 0.37331367
f 1 2 5
f 1 5 15
f 1 15 25
f 1 25 36
f 1 36 29
f 1 29 28
f 1 28 18
f 1 18 7
f 1 7 3
f 1 3 8
f 1 8 4
f 1 4 14
f 1 14 24
f 1 24 23
f 1 23 34
f 1 34 43
f 1 43 54
f 1 54 53
f 1 53 52
f 1 52 51
f 1 51 50
f 1 50 49
f 1 49 61
f 1 61 60
f 1 60 59
f 1 59 56
f 1 56 55
f 1 55 45
f 1 45 44
f 1 44 38
f 1 38 37
f 1 37 40
f 1 40 27
f 1 27 17
f 1 17 6
f 1 6 2
f 2 6 5
f 3 7 19
f 3 19 26
f 3 26 39
f 3 39 46
f 3 46 57
f 3 57 58
f 3 58 47
f 3 47 42
f 3 42 33
f 3 33 35
f 3 35 30
f 3 30 20
f 3 20 9
f 3 9 8
f 4 8 9
f 4 9 10
f 4 10 11
f 4 11 12
f 4 12 13
f 4 13 14
f 5 6 16
f 5 16 15
f 6 17 16
f 7 18 19
f 9 20 10
f 10 20 11
f 11 20 21
f 11 21 22
f 11 22 12
f 12 22 13
f 13 22 23
f 13 23 24
f 13 24 14
f 15 16 26
f 15 26 25
f 16 17 26
f 17 27 26
f 18 28 19
f 19 28 29
f 19 29 26
f 20 30 21
f 21 30 31
f 21 31 22
f 22 32 23
f 22 31 32
f 23 33 34
f 23 32 35
f 23 35 33
f 25 26 36
f 26 37 38
f 26 38 39
f 26 29 36
f 26 27 40
f 26 40 37
f 30 35 31
f 31 41 32
f 31 35 41
f 32 41 35
f 33 42 43
f 33 43 34
f 38 44 39
f 39 44 45
f 39 45 46
f 42 47 48
f 42 48 49
f 42 49 50
f 42 50 51
f 42 51 52
f 42 52 53
f 42 53 54
f 42 54 43
f 45 55 46
f 46 55 56
f 46 56 57
f 47 58 56
f 47 56 59
f 47 59 60
f 47 60 48
f 48 60 61
f 48 61 49
f 56 58 57

