# https://github.com/mikedh/trimesh
v 0.15807829 0.13006832 0.27182729
v 0.15459492 0.12977707 0.27182729
v 0.16122182 0.12993593 0.27182729
v 0.17563240 0.13145837 0.24872155
v 0.17520759 0.13194821 0.24146019
v 0.15168013 0.12944610 0.27182729
v 0.17361949 0.13102150 0.25383315
v 0.16543063 0.12941962 0.27182729
v 0.21464226 0.12273411 0.27182729
v 0.17963207 0.13099503 0.24669919
v 0.18033136 0.13124656 0.24146019
v 0.17990657 0.13100826 0.23633266
v 0.14788305 0.12789718 0.19048743
v 0.14788305 0.12825463 0.27182729
v 0.21464226 0.12269439 0.27142123
v 0.21464226 -0.00329788 0.27182729
v 0.21464226 0.12256200 0.27018712
v 0.21464226 0.12245610 0.26929537
v 0.21464226 0.12148967 0.26206587
v 0.21464226 0.11998046 0.25520262
v 0.18354679 0.11614126 0.19048743
v 0.18033789 0.11735922 0.19048743
v 0.14788305 -0.00329788 0.19048743
v 0.14788305 -0.00329788 0.27182729
v 0.21464226 -0.00329788 0.19048743
v 0.21464226 0.10096976 0.19048743
f 1 2 6
f 1 6 14
f 1 14 24
f 1 24 16
f 1 16 9
f 1 9 8
f 1 8 3
f 1 3 4
f 1 4 5
f 1 5 2
f 2 5 6
f 3 7 4
f 3 8 7
f 4 7 9
f 4 9 10
f 4 10 11
f 4 11 5
f 5 11 12
f 5 12 13
f 5 13 6
f 6 13 14
f 7 8 9
f 9 15 12
f 9 12 11
f 9 11 10
f 9 16 25
f 9 25 26
f 9 26 20
f 9 20 19
f 9 19 18
f 9 18 17
f 9 17 15
f 12 15 17
f 12 17 18
f 12 18 19
f 12 19 20
f 12 20 21
f 12 21 22
f 12 22 13
f 13 22 21
f 13 21 26
f 13 26 25
f 13 25 23
f 13 23 24
f 13 24 14
f 16 24 23
f 16 23 25
f 20 26 21

