# https://github.com/mikedh/trimesh
v -0.03142160 0.16346722 0.27182729
v 0.01162267 0.15445661 0.27182729
v 0.01162267 0.16983341 0.17273749
v -0.03142160 0.16620957 0.19335096
v -0.03142160 -0.12186878 0.27182729
v 0.01162267 -0.12666791 0.27182729
v 0.01162267 0.16993135 0.16585737
v 0.00343178 0.16940899 0.16585737
v -0.00343609 0.16888663 0.16585737
v -0.01030396 0.16790722 0.15900413
v -0.01717604 0.16696046 0.15900413
v -0.03142160 0.16477310 0.15876225
v -0.03142160 -0.12621085 0.25519138
v -0.03091599 -0.12630879 0.25519138
v -0.03081066 -0.12196672 0.27182729
v 0.00631797 -0.12637409 0.27182729
v 0.00343178 -0.12692909 0.26892473
v 0.00343178 -0.12849614 0.26207149
v 0.01162267 -0.12702703 0.27024164
v 0.01162267 0.16967017 0.16454047
v -0.03142160 0.15367306 0.06313939
v -0.03142160 0.16431604 0.15215089
v -0.03142160 -0.12989997 0.24083989
v -0.02404391 -0.12725555 0.25519138
v -0.02404391 -0.12301143 0.27182729
v -0.02773065 -0.12245643 0.27182729
v 0.00343178 -0.12614555 0.27182729
v -0.00343609 -0.12624349 0.26892473
v -0.00343609 -0.12800644 0.26207149
v 0.01030387 -0.12862674 0.26207149
v 0.01162267 -0.12839820 0.26338839
v 0.01162267 -0.12719025 0.26948912
v -0.01665779 -0.13117321 0.24186115
v -0.01717604 -0.13244644 0.23457791
v 0.01162267 -0.16215535 0.07101390
v 0.01162267 0.16464250 0.14199198
v 0.01162267 0.16372840 0.13828316
v 0.01162267 0.16340192 0.13707377
v -0.03142160 0.15292218 0.06053247
v -0.03142160 -0.13127116 0.23503479
v -0.02404391 -0.13100997 0.23987237
v -0.01998639 -0.12353379 0.27182729
v -0.00325070 -0.12545996 0.27182729
v -0.02404391 -0.13202204 0.23457791
v 0.00343178 -0.16310212 0.06284377
v 0.00343178 -0.16192681 0.06969700
v 0.01030387 -0.16231859 0.06969700
v 0.01162267 -0.16238387 0.06969700
v 0.01162267 0.16176957 0.13153742
v -0.03142160 0.15187747 0.05749555
v -0.03142160 -0.13260968 0.22769779
v -0.00343609 -0.16267769 0.06284377
v -0.00343609 -0.16329800 0.05596364
v 0.00343178 -0.16359182 0.05596364
v 0.01162267 -0.16300418 0.06416067
v 0.01162267 0.16131251 0.13022052
v 0.01162267 0.15680720 0.11804594
v 0.01162267 0.15328130 0.11054769
v 0.01162267 0.12363771 0.05271172
v -0.03142160 0.15106131 0.05596364
v 0.01162267 0.15925573 0.12441543
v -0.03142160 -0.15680122 0.08345723
v -0.01030396 -0.16098004 0.06969700
v -0.01717604 -0.16146975 0.06284377
v -0.01717604 -0.16235123 0.05596364
v -0.00343609 -0.16244917 0.04908352
v -0.02404391 -0.16107798 0.04908352
v 0.00343178 -0.16248181 0.04908352
v 0.01030387 -0.16323270 0.05596364
v 0.01162267 -0.16316742 0.05728055
v 0.01162267 -0.16303682 0.06284377
v 0.01162267 0.12141770 0.04913729
v -0.03142160 0.15008188 0.05424361
v -0.03142160 -0.15774799 0.07757151
v -0.02404391 -0.16081682 0.06284377
v -0.02404391 -0.16169829 0.05596364
v -0.00343609 -0.15973946 0.04370844
v -0.02404391 -0.15911915 0.04446097
v -0.03142160 -0.16068622 0.05596364
v -0.03091599 -0.16009858 0.04908352
v -0.03091599 -0.15866211 0.04494471
v 0.00343178 -0.15970682 0.04370844
v 0.01030387 -0.16169829 0.04908352
v 0.01162267 -0.16306948 0.05596364
v 0.01162267 -0.16182887 0.05040043
v 0.01162267 0.11789180 0.04459533
v -0.03142160 0.14704570 0.04991668
v -0.03142160 -0.16003328 0.06284377
v -0.00343609 -0.15536473 0.04026838
v -0.03142160 -0.15836827 0.04475657
v -0.03142160 -0.15458121 0.04171965
v -0.03091599 -0.15458121 0.04166590
v -0.02365627 -0.15392826 0.04061776
v -0.03142160 -0.16000064 0.04908352
v -0.03142160 -0.15993534 0.04884165
v -0.03142160 -0.15859681 0.04497158
v 0.00343178 -0.15533209 0.04026838
v 0.01030387 -0.15911915 0.04435346
v 0.01162267 -0.16140447 0.04897602
v 0.01162267 0.11328855 0.04107464
v -0.03142160 0.13731685 0.03913962
v -0.03142160 0.14061421 0.04223031
v -0.03142160 0.14074481 0.04236467
v -0.03142160 0.14094069 0.04257968
v -0.03142160 0.14394423 0.04599286
v -0.00343609 -0.15193679 0.03844085
v -0.03091599 -0.15069621 0.03895148
v -0.02110716 -0.15118591 0.03876336
v -0.03142160 -0.15425475 0.04147778
v 0.00343178 -0.15190415 0.03846773
v 0.00750194 -0.15147973 0.03862897
v 0.00999629 -0.15409150 0.04072526
v 0.01162267 -0.15533209 0.04196153
v 0.01162267 -0.15895593 0.04454158
v 0.01162267 0.10963207 0.03879024
v 0.00847103 0.11080738 0.03825273
v -0.03142160 0.13415009 0.03750021
v -0.02365627 -0.14828031 0.03760771
v -0.01717604 -0.14769267 0.03717770
v -0.01030396 -0.14769267 0.03712396
v -0.01030396 -0.14083677 0.03497392
v -0.03142160 -0.15066355 0.03897836
v -0.03091599 -0.14726825 0.03760771
v 0.00343178 -0.14769267 0.03736584
v 0.01030387 -0.14083677 0.03591456
v -0.00343609 -0.14083677 0.03524268
v 0.00999629 -0.14785591 0.03790335
v 0.01162267 -0.14730091 0.03798397
v 0.01162267 -0.14808443 0.03827959
v 0.01162267 -0.14971678 0.03889775
v 0.01162267 -0.15112061 0.03951586
v 0.01162267 -0.15432003 0.04126278
v 0.01162267 0.04306456 0.01051727
v -0.01358621 0.03444572 -0.00251734
v -0.01717604 0.03480484 -0.00270546
v -0.02137682 0.03487014 -0.00273235
v -0.03142160 0.03088718 -0.00042107
v -0.03091599 -0.14083677 0.03537705
v -0.01717604 -0.14083677 0.03510831
v -0.03091599 -0.13398087 0.03330764
v -0.01344717 0.02729600 -0.00249045
v -0.03142160 -0.14723561 0.03763457
v -0.03142160 -0.14677854 0.03747334
v -0.03142160 -0.14083677 0.03540391
v 0.01162267 -0.14083677 0.03612957
v 0.01162267 -0.14171823 0.03637144
v 0.01030387 -0.13398087 0.03440952
v 0.01162267 -0.13398087 0.03459766
v 0.01162267 0.03777573 0.00887786
v 0.01162267 0.03088718 0.00737283
v -0.00343609 0.02403128 -0.00020606
v -0.01340503 0.03088718 -0.00251734
v -0.01685161 0.03065865 -0.00267859
v -0.02137682 0.03278072 -0.00273235
v -0.03142160 0.02403128 0.00043896
v -0.03142160 -0.14034707 0.03524268
v -0.03142160 -0.13398087 0.03333453
v -0.03142160 -0.13355645 0.03322702
v -0.01434884 0.02729600 -0.00249045
v -0.01081378 0.02461893 -0.00160356
v -0.00343609 0.01717538 0.00092272
v 0.00395846 0.01694685 0.00309963
v 0.00660027 0.01453097 0.00452404
v 0.00983196 0.01694685 0.00592154
v 0.01162267 0.01717538 0.00691593
v 0.01162267 0.02386805 0.00643219
v 0.00377728 0.02380275 0.00288462
v 0.00722807 0.02135422 0.00428215
v 0.00722807 0.01910157 0.00428215
v -0.01892882 0.02821012 -0.00230233
v -0.03142160 -0.01664705 0.00863598
f 1 2 3
f 1 3 4
f 1 4 12
f 1 12 22
f 1 22 21
f 1 21 39
f 1 39 50
f 1 50 60
f 1 60 73
f 1 73 87
f 1 87 105
f 1 105 104
f 1 104 103
f 1 103 102
f 1 102 101
f 1 101 117
f 1 117 137
f 1 137 155
f 1 155 171
f 1 171 158
f 1 158 157
f 1 157 156
f 1 156 144
f 1 144 143
f 1 143 142
f 1 142 122
f 1 122 109
f 1 109 91
f 1 91 90
f 1 90 96
f 1 96 95
f 1 95 94
f 1 94 79
f 1 79 88
f 1 88 74
f 1 74 62
f 1 62 51
f 1 51 40
f 1 40 23
f 1 23 13
f 1 13 5
f 1 5 15
f 1 15 26
f 1 26 25
f 1 25 42
f 1 42 43
f 1 43 27
f 1 27 16
f 1 16 6
f 1 6 2
f 2 6 19
f 2 19 32
f 2 32 31
f 2 31 35
f 2 35 48
f 2 48 55
f 2 55 71
f 2 71 70
f 2 70 84
f 2 84 85
f 2 85 99
f 2 99 114
f 2 114 113
f 2 113 132
f 2 132 131
f 2 131 130
f 2 130 129
f 2 129 128
f 2 128 146
f 2 146 145
f 2 145 148
f 2 148 165
f 2 165 166
f 2 166 150
f 2 150 149
f 2 149 133
f 2 133 115
f 2 115 100
f 2 100 86
f 2 86 72
f 2 72 59
f 2 59 58
f 2 58 57
f 2 57 61
f 2 61 56
f 2 56 49
f 2 49 38
f 2 38 37
f 2 37 36
f 2 36 20
f 2 20 7
f 2 7 3
f 3 7 8
f 3 8 4
f 4 8 9
f 4 9 10
f 4 10 11
f 4 11 12
f 5 13 14
f 5 14 15
f 6 16 17
f 6 17 18
f 6 18 19
f 7 10 8
f 7 20 21
f 7 21 10
f 8 10 9
f 10 22 11
f 10 21 22
f 11 22 12
f 13 23 14
f 14 23 24
f 14 24 25
f 14 25 26
f 14 26 15
f 16 27 17
f 17 27 28
f 17 28 29
f 17 29 18
f 18 30 31
f 18 31 32
f 18 32 19
f 18 29 33
f 18 33 34
f 18 34 35
f 18 35 30
f 20 36 21
f 21 36 37
f 21 37 38
f 21 38 39
f 23 40 41
f 23 41 24
f 24 41 29
f 24 29 42
f 24 42 25
f 27 43 28
f 28 43 42
f 28 42 29
f 29 41 33
f 30 35 31
f 33 41 44
f 33 44 34
f 34 44 52
f 34 52 45
f 34 45 46
f 34 46 47
f 34 47 48
f 34 48 35
f 38 49 39
f 39 49 50
f 40 51 44
f 40 44 41
f 44 51 52
f 45 53 54
f 45 54 55
f 45 55 48
f 45 48 47
f 45 47 46
f 45 52 53
f 49 56 50
f 50 57 58
f 50 58 59
f 50 59 60
f 50 56 61
f 50 61 57
f 51 62 63
f 51 63 52
f 52 63 64
f 52 64 65
f 52 65 53
f 53 66 54
f 53 65 67
f 53 67 66
f 54 66 68
f 54 68 69
f 54 69 70
f 54 70 71
f 54 71 55
f 59 72 73
f 59 73 60
f 62 74 64
f 62 64 63
f 64 74 75
f 64 75 76
f 64 76 65
f 65 76 67
f 66 77 68
f 66 67 78
f 66 78 77
f 67 76 79
f 67 79 80
f 67 80 81
f 67 81 78
f 68 77 82
f 68 82 83
f 68 83 69
f 69 84 70
f 69 83 85
f 69 85 84
f 72 86 87
f 72 87 73
f 74 88 75
f 75 88 76
f 76 88 79
f 77 89 97
f 77 97 82
f 77 78 89
f 78 81 90
f 78 90 91
f 78 91 92
f 78 92 93
f 78 93 89
f 79 94 80
f 80 94 95
f 80 95 96
f 80 96 81
f 81 96 90
f 82 97 98
f 82 98 83
f 83 99 85
f 83 98 99
f 86 100 101
f 86 101 102
f 86 102 103
f 86 103 104
f 86 104 105
f 86 105 87
f 89 106 97
f 89 93 107
f 89 107 108
f 89 108 106
f 91 109 92
f 92 109 93
f 93 109 107
f 97 106 110
f 97 110 111
f 97 111 112
f 97 112 98
f 98 112 113
f 98 113 114
f 98 114 99
f 100 115 116
f 100 116 101
f 101 116 117
f 106 108 118
f 106 118 119
f 106 119 120
f 106 120 121
f 106 121 110
f 107 109 122
f 107 122 142
f 107 142 123
f 107 123 118
f 107 118 108
f 110 124 125
f 110 125 111
f 110 121 126
f 110 126 124
f 111 127 128
f 111 128 129
f 111 129 130
f 111 130 131
f 111 131 132
f 111 132 112
f 111 125 127
f 112 132 113
f 115 133 134
f 115 134 116
f 116 134 117
f 117 134 135
f 117 135 136
f 117 136 137
f 118 123 138
f 118 138 119
f 119 138 140
f 119 140 139
f 119 139 121
f 119 121 120
f 121 139 140
f 121 140 141
f 121 141 126
f 123 142 143
f 123 143 144
f 123 144 138
f 124 126 125
f 125 145 146
f 125 146 128
f 125 128 127
f 125 126 141
f 125 141 147
f 125 147 148
f 125 148 145
f 133 149 134
f 134 149 150
f 134 150 151
f 134 151 152
f 134 152 135
f 135 152 153
f 135 153 154
f 135 154 136
f 136 154 137
f 137 154 155
f 138 144 156
f 138 156 140
f 140 156 157
f 140 157 158
f 140 158 159
f 140 159 141
f 141 159 153
f 141 153 152
f 141 152 151
f 141 151 160
f 141 160 147
f 147 160 161
f 147 161 148
f 148 161 162
f 148 162 163
f 148 163 164
f 148 164 165
f 150 166 167
f 150 167 151
f 151 167 168
f 151 168 169
f 151 169 162
f 151 162 161
f 151 161 160
f 153 159 154
f 154 159 170
f 154 170 155
f 155 170 171
f 158 171 170
f 158 170 159
f 162 169 163
f 163 169 164
f 164 169 165
f 165 169 166
f 166 169 168
f 166 168 167

