# https://github.com/mikedh/trimesh
v -0.28605029 0.14952977 0.36503793
v -0.28563816 0.14771151 0.36500557
v -0.28409265 0.14071125 0.36500557
v -0.28409265 0.14084762 0.36514580
v -0.23344433 -0.04040941 0.40243761
v -0.27595300 0.14066579 0.39300948
v -0.27960334 0.14771151 0.38576039
v -0.27998603 0.14952977 0.38578197
v -0.28385714 0.14952977 0.36500557
v -0.26778392 0.06959485 0.36500557
v -0.24772182 -0.02156777 0.36501636
v -0.23557858 -0.05838738 0.37888887
v -0.23363566 -0.06188752 0.38240553
v -0.22690905 -0.05536453 0.41021528
v -0.22668825 -0.04106853 0.42342976
v -0.27464299 0.13827934 0.39555528
v -0.27754265 0.14771151 0.39263192
v -0.27791064 0.14952977 0.39263192
v -0.13570968 0.14952977 0.36500557
v -0.26694493 0.06598107 0.36500557
v -0.23737432 -0.06525128 0.36501636
v -0.23734487 -0.06525128 0.36514580
v -0.23735959 -0.05838738 0.37201733
v -0.23423915 -0.06316030 0.37888887
v -0.22696792 -0.06222844 0.40343003
v -0.22748310 -0.05795554 0.40597584
v -0.21997637 -0.04840972 0.43763666
v -0.21919626 -0.03820478 0.44790621
v -0.21969670 -0.03297730 0.45040886
v -0.27579109 0.14952977 0.39854338
v -0.27720411 0.14952977 0.39468152
v -0.13569496 0.06593562 0.36501636
v -0.13570968 0.06593562 0.36500557
v -0.13570968 0.14952977 0.42665516
v -0.26693020 0.06593562 0.36500557
v -0.23506341 -0.07009238 0.36501636
v -0.23506341 -0.07009238 0.36514580
v -0.23420971 -0.06934234 0.37009719
v -0.23524004 -0.06559220 0.37224387
v -0.22758612 -0.06352394 0.39950345
v -0.22090366 -0.06304665 0.41881277
v -0.21277873 -0.05443268 0.45058146
v -0.21800400 -0.05102346 0.44023642
v -0.21467750 -0.05188713 0.44800329
v -0.21732694 -0.04463684 0.44757180
v -0.21311727 -0.03463646 0.46497176
v -0.21364717 -0.03090904 0.46596419
v -0.21966727 -0.00527169 0.46428136
v -0.27275896 0.14952977 0.40648285
v -0.27414254 0.14952977 0.40292304
v -0.13569496 -0.08266105 0.36501636
v -0.13569496 0.06593562 0.46172477
v -0.13585687 0.14952977 0.42680618
v -0.13570968 0.14832518 0.42769075
v -0.14014012 -0.08261559 0.36501636
v -0.14368741 -0.08236558 0.36501636
v -0.17523038 -0.07995640 0.36501636
v -0.21467750 -0.07566078 0.36501636
v -0.22281715 -0.07477438 0.36501636
v -0.23014723 -0.07291067 0.36501636
v -0.23016196 -0.07288794 0.36514580
v -0.22627614 -0.06825140 0.39422845
v -0.21383851 -0.06261481 0.43383953
v -0.21301423 -0.06184206 0.43735619
v -0.21366187 -0.05609184 0.44599685
v -0.21174840 -0.06066019 0.44193003
v -0.20999683 -0.05863739 0.44790621
v -0.20820110 -0.05659185 0.45311649
v -0.20589021 -0.05468269 0.45769031
v -0.21036480 -0.05227351 0.45511214
v -0.21251380 -0.04677329 0.45712937
v -0.21354413 -0.04986432 0.45255555
v -0.20929032 -0.03061357 0.46950243
v -0.21160121 -0.02402241 0.47085085
v -0.20795087 -0.05009160 0.45908187
v -0.20307887 -0.05218259 0.46168163
v -0.20028225 -0.04968250 0.46547876
v -0.21273458 -0.01963588 0.47147652
v -0.21439783 -0.02402241 0.46742050
v -0.21988805 0.02038840 0.47167070
v -0.26952076 0.14952977 0.41334360
v -0.13569496 -0.08245650 0.36867326
v -0.13570968 0.14277951 0.43223222
v -0.13570968 0.13523376 0.43830548
v -0.13570968 0.12914261 0.44293323
v -0.13570968 0.12571066 0.44532803
v -0.13570968 0.10314160 0.45792764
v -0.13570968 0.10027786 0.45929761
v -0.13570968 0.09889144 0.45975068
v -0.13570968 0.09275485 0.46173556
v -0.13570968 0.08589094 0.46247989
v -0.13569496 -0.01029461 0.46477760
v -0.13809417 0.14952977 0.42899600
v -0.13744653 -0.08243377 0.36858697
v -0.18615193 -0.07566078 0.39642906
v -0.20483044 -0.07545623 0.38076585
v -0.20956998 -0.07441073 0.38576039
v -0.21641435 -0.07338796 0.38576039
v -0.21641435 -0.07247884 0.39263192
v -0.22371500 -0.07004692 0.39222201
v -0.22133052 -0.06943326 0.39950345
v -0.20956998 -0.06486491 0.43383953
v -0.20951110 -0.06288756 0.44006382
v -0.20718549 -0.06238753 0.44523093
v -0.20131258 -0.05641003 0.45968596
v -0.20447719 -0.06116021 0.44981557
v -0.20680280 -0.02813621 0.47182172
v -0.19583709 -0.05413721 0.46422743
v -0.19583709 -0.05070526 0.46591025
v -0.19583709 -0.04463684 0.46802456
v -0.20817168 -0.02402241 0.47223164
v -0.21009987 -0.01727215 0.47241501
v -0.21313200 -0.01506752 0.47174620
v -0.21676761 0.01772921 0.47263078
v -0.22986758 0.12023318 0.47324565
v -0.23390061 0.12848351 0.47192959
v -0.23329712 0.12023318 0.47114211
v -0.22705624 0.04636668 0.46514436
v -0.21507492 0.01029710 0.47274942
v -0.26863762 0.14952977 0.41485383
v -0.13569496 -0.07331978 0.41324650
v -0.18210420 -0.06913779 0.43211356
v -0.13887427 0.14952977 0.42965405
v -0.14184753 0.14952977 0.43196252
v -0.19814798 0.13802932 0.46529537
v -0.19583709 0.13405190 0.46652513
v -0.19623450 0.12668798 0.46995550
v -0.19878089 0.12414242 0.47176778
v -0.20269618 0.12023318 0.47286808
v -0.20956998 0.12023318 0.47422729
v -0.15460896 -0.00343070 0.46828347
v -0.14773516 -0.01029461 0.46728025
v -0.13569496 -0.01715851 0.46498255
v -0.13569496 -0.01531753 0.46492861
v -0.18210420 -0.07577441 0.39694685
v -0.20956998 -0.07343341 0.39263192
v -0.20260786 -0.07518348 0.38541519
v -0.18896327 -0.06891051 0.43132608
v -0.19741202 -0.06856959 0.42963246
v -0.20269618 -0.06891051 0.42486446
v -0.20631707 -0.06875141 0.42377495
v -0.20899593 -0.06720590 0.42642862
v -0.19989956 -0.06206934 0.45160626
v -0.20269618 -0.06516037 0.44071105
v -0.20238708 -0.06293301 0.44755022
v -0.19583709 -0.06097839 0.45621244
v -0.19583709 -0.05754644 0.46079707
v -0.20463910 -0.02813621 0.47182172
v -0.20247538 -0.02427242 0.47224241
v -0.18896327 -0.04463684 0.46841292
v -0.18210420 -0.04463684 0.46853157
v -0.18896327 -0.05806918 0.46112068
v -0.18896327 -0.05461451 0.46456185
v -0.18896327 -0.05115983 0.46611522
v -0.20269618 -0.01715851 0.47292202
v -0.20956998 0.01029710 0.47379578
v -0.22328816 0.12023318 0.47515499
v -0.23079488 0.12655160 0.47291123
v -0.23390061 0.13396099 0.47190801
v -0.26641505 0.14952977 0.41824104
v -0.23367981 0.13752930 0.47169226
v -0.13569496 -0.07179699 0.42009646
v -0.16835658 -0.06559220 0.44757180
v -0.18210420 -0.06538765 0.44757180
v -0.18896327 -0.06513764 0.44757180
v -0.18896327 -0.06679679 0.44071105
v -0.18896327 -0.06816048 0.43476723
v -0.14591000 0.14952977 0.43338646
v -0.20269618 0.13889299 0.46601812
v -0.21422120 0.13700656 0.47141179
v -0.21092413 0.13243819 0.47240422
v -0.21641435 0.12709708 0.47490690
v -0.21641435 0.12023318 0.47519816
v -0.15460896 -0.01029461 0.46835899
v -0.14773516 -0.01715851 0.46707530
v -0.13569496 -0.02402241 0.46483153
v -0.19541023 -0.06797866 0.43324621
v -0.20269618 -0.06825140 0.42829484
v -0.19583709 -0.06625132 0.44071105
v -0.20269618 -0.06693317 0.43383953
v -0.19583709 -0.06431943 0.44757180
v -0.19583709 -0.06252391 0.45278208
v -0.18896327 -0.06152386 0.45732355
v -0.17523038 -0.04463684 0.46840213
v -0.16835658 -0.04463684 0.46801379
v -0.18210420 -0.05143256 0.46628782
v -0.16835658 -0.05152348 0.46624468
v -0.17985218 -0.06193297 0.45804630
v -0.18210420 -0.05486452 0.46470208
v -0.19583709 0.00343320 0.47300833
v -0.20269618 0.00343320 0.47366635
v -0.22328816 0.12709708 0.47478823
v -0.26528168 0.14952977 0.41972970
v -0.23407724 0.14462049 0.46524144
v -0.22328816 0.13396099 0.47320249
v -0.23014723 0.13771113 0.47178934
v -0.23014723 0.14114308 0.46882283
v -0.13569496 -0.06497854 0.44757180
v -0.16148277 -0.06552402 0.44757180
v -0.16835658 -0.06341030 0.45444332
v -0.17523038 -0.06338757 0.45444332
v -0.18211890 -0.06302392 0.45500426
v -0.18896327 -0.06304665 0.45388238
v -0.14782347 0.14952977 0.43403369
v -0.20956998 0.13975666 0.46716159
v -0.21647322 0.13441555 0.47281415
v -0.21647322 0.13989304 0.46874733
v -0.21881355 0.13759748 0.47175699
v -0.18896327 0.02404763 0.47237187
v -0.19583709 0.01029710 0.47320249
v -0.16148277 -0.04463684 0.46725867
v -0.15460896 -0.01715851 0.46798144
v -0.14773516 -0.03090904 0.46640648
v -0.13569496 -0.04463684 0.46405485
v -0.16176243 -0.05193258 0.46573767
v -0.15460896 -0.05015979 0.46552191
v -0.13569496 -0.05136438 0.46346153
v -0.14374629 -0.04829608 0.46482074
v -0.17318444 -0.05500088 0.46478837
v -0.16835658 -0.05504634 0.46483153
v -0.17536287 -0.05218259 0.46599656
v -0.16423524 -0.05504634 0.46482074
v -0.17523038 -0.06200116 0.45813259
v -0.17536287 -0.05770553 0.46218863
v -0.26171966 0.14952977 0.42420644
v -0.23014723 0.14468868 0.46538168
v -0.23014723 0.14598417 0.46131485
v -0.23702105 0.14952977 0.44913596
v -0.24202554 0.14952977 0.44654700
v -0.24907597 0.14952977 0.43920082
v -0.25252023 0.14952977 0.43515557
v -0.22328816 0.13775659 0.47183251
v -0.13569496 -0.06291028 0.45337538
v -0.16835658 -0.06195570 0.45805707
v -0.17511264 0.14952977 0.44128278
v -0.22528995 0.14448412 0.46510121
v -0.22071232 0.14414320 0.46431373
v -0.19951685 0.14425685 0.45779818
v -0.20216628 0.14271132 0.46082942
v -0.13569496 -0.05777372 0.46030083
v -0.16835658 -0.05850102 0.46149824
v -0.16450018 -0.06186479 0.45794920
v -0.13569496 -0.05863739 0.45944865
v -0.18208947 0.14952977 0.44235073
v -0.23014723 0.14952977 0.44880156
v -0.13569496 -0.06166024 0.45594276
v -0.13569496 -0.06120567 0.45679496
f 1 2 3
f 1 3 4
f 1 4 5
f 1 5 6
f 1 6 7
f 1 7 8
f 1 8 18
f 1 18 31
f 1 31 30
f 1 30 50
f 1 50 49
f 1 49 81
f 1 81 120
f 1 120 160
f 1 160 193
f 1 193 225
f 1 225 231
f 1 231 230
f 1 230 229
f 1 229 228
f 1 228 245
f 1 245 244
f 1 244 235
f 1 235 204
f 1 204 168
f 1 168 124
f 1 124 123
f 1 123 93
f 1 93 53
f 1 53 34
f 1 34 19
f 1 19 9
f 1 9 2
f 2 9 19
f 2 19 33
f 2 33 35
f 2 35 20
f 2 20 10
f 2 10 3
f 3 10 11
f 3 11 4
f 4 11 5
f 5 11 12
f 5 12 13
f 5 13 14
f 5 14 15
f 5 15 16
f 5 16 6
f 6 16 17
f 6 17 8
f 6 8 7
f 8 17 18
f 10 20 11
f 11 21 22
f 11 22 23
f 11 23 12
f 11 20 21
f 12 23 22
f 12 22 24
f 12 24 13
f 13 24 25
f 13 25 26
f 13 26 14
f 14 26 25
f 14 25 27
f 14 27 15
f 15 27 28
f 15 28 29
f 15 29 16
f 16 30 31
f 16 31 18
f 16 18 17
f 16 29 30
f 19 32 51
f 19 51 33
f 19 34 52
f 19 52 32
f 20 35 21
f 21 36 37
f 21 37 22
f 21 35 36
f 22 37 38
f 22 38 39
f 22 39 24
f 24 39 25
f 25 39 38
f 25 38 40
f 25 40 41
f 25 41 42
f 25 42 43
f 25 43 27
f 27 43 42
f 27 42 44
f 27 44 45
f 27 45 28
f 28 46 29
f 28 45 46
f 29 46 47
f 29 47 48
f 29 48 49
f 29 49 50
f 29 50 30
f 32 52 92
f 32 92 134
f 32 134 133
f 32 133 176
f 32 176 214
f 32 214 217
f 32 217 240
f 32 240 243
f 32 243 247
f 32 247 246
f 32 246 233
f 32 233 198
f 32 198 162
f 32 162 121
f 32 121 82
f 32 82 51
f 33 51 35
f 34 53 54
f 34 54 52
f 35 51 55
f 35 55 56
f 35 56 57
f 35 57 58
f 35 58 59
f 35 59 60
f 35 60 36
f 36 60 37
f 37 60 61
f 37 61 62
f 37 62 38
f 38 62 40
f 40 62 41
f 41 62 63
f 41 63 64
f 41 64 65
f 41 65 42
f 42 65 66
f 42 66 67
f 42 67 68
f 42 68 69
f 42 69 70
f 42 70 71
f 42 71 72
f 42 72 45
f 42 45 44
f 45 72 46
f 46 73 74
f 46 74 47
f 46 72 71
f 46 71 75
f 46 75 76
f 46 76 77
f 46 77 73
f 47 74 78
f 47 78 79
f 47 79 48
f 48 79 80
f 48 80 81
f 48 81 49
f 51 82 55
f 52 54 83
f 52 83 84
f 52 84 85
f 52 85 86
f 52 86 87
f 52 87 88
f 52 88 89
f 52 89 90
f 52 90 91
f 52 91 92
f 53 93 54
f 54 93 83
f 55 82 94
f 55 94 56
f 56 94 95
f 56 95 57
f 57 95 96
f 57 96 58
f 58 96 59
f 59 96 97
f 59 97 98
f 59 98 99
f 59 99 60
f 60 99 61
f 61 99 100
f 61 100 62
f 62 100 101
f 62 101 63
f 63 101 102
f 63 102 103
f 63 103 64
f 64 103 104
f 64 104 66
f 64 66 65
f 66 104 67
f 67 104 68
f 68 105 69
f 68 104 106
f 68 106 105
f 69 76 75
f 69 75 71
f 69 71 70
f 69 105 76
f 73 107 74
f 73 77 107
f 74 107 78
f 76 105 77
f 77 105 108
f 77 108 109
f 77 109 110
f 77 110 107
f 78 107 111
f 78 111 112
f 78 112 113
f 78 113 80
f 78 80 79
f 80 114 115
f 80 115 116
f 80 116 117
f 80 117 118
f 80 118 81
f 80 113 119
f 80 119 114
f 81 118 117
f 81 117 116
f 81 116 120
f 82 121 122
f 82 122 94
f 83 93 84
f 84 93 123
f 84 123 124
f 84 124 85
f 85 124 86
f 86 124 125
f 86 125 126
f 86 126 87
f 87 126 88
f 88 126 127
f 88 127 128
f 88 128 89
f 89 128 90
f 90 128 91
f 91 128 129
f 91 129 130
f 91 130 131
f 91 131 132
f 91 132 133
f 91 133 134
f 91 134 92
f 94 122 135
f 94 135 95
f 95 136 97
f 95 97 137
f 95 137 96
f 95 135 122
f 95 122 138
f 95 138 139
f 95 139 140
f 95 140 141
f 95 141 136
f 96 137 97
f 97 136 99
f 97 99 98
f 99 141 101
f 99 101 100
f 99 136 141
f 101 141 142
f 101 142 102
f 102 104 103
f 102 142 104
f 104 143 106
f 104 142 144
f 104 144 145
f 104 145 143
f 105 106 143
f 105 143 146
f 105 146 147
f 105 147 108
f 107 148 149
f 107 149 111
f 107 110 150
f 107 150 151
f 107 151 148
f 108 147 152
f 108 152 153
f 108 153 109
f 109 154 150
f 109 150 110
f 109 153 154
f 111 149 155
f 111 155 156
f 111 156 112
f 112 156 119
f 112 119 113
f 114 157 115
f 114 119 157
f 115 157 158
f 115 158 159
f 115 159 116
f 116 159 120
f 119 156 157
f 120 159 161
f 120 161 160
f 121 162 122
f 122 162 163
f 122 163 164
f 122 164 165
f 122 165 166
f 122 166 167
f 122 167 138
f 124 168 169
f 124 169 125
f 125 169 170
f 125 170 126
f 126 170 171
f 126 171 127
f 127 171 128
f 128 171 172
f 128 172 130
f 128 130 129
f 130 172 173
f 130 173 131
f 131 174 132
f 131 173 174
f 132 174 175
f 132 175 176
f 132 176 133
f 138 167 177
f 138 177 139
f 139 178 141
f 139 141 140
f 139 177 179
f 139 179 178
f 141 178 180
f 141 180 144
f 141 144 142
f 143 145 181
f 143 181 182
f 143 182 146
f 144 181 145
f 144 180 179
f 144 179 181
f 146 182 183
f 146 183 147
f 147 183 152
f 148 151 184
f 148 184 149
f 149 184 185
f 149 185 155
f 150 154 186
f 150 186 151
f 151 186 187
f 151 187 184
f 152 183 188
f 152 188 153
f 153 188 189
f 153 189 186
f 153 186 154
f 155 174 190
f 155 190 191
f 155 191 156
f 155 185 174
f 156 191 173
f 156 173 157
f 157 173 172
f 157 172 192
f 157 192 159
f 157 159 158
f 159 192 161
f 160 161 194
f 160 194 193
f 161 192 195
f 161 195 196
f 161 196 197
f 161 197 194
f 162 198 199
f 162 199 163
f 163 199 200
f 163 200 201
f 163 201 164
f 164 201 202
f 164 202 165
f 165 202 203
f 165 203 181
f 165 181 179
f 165 179 166
f 166 179 167
f 167 179 177
f 168 204 169
f 169 205 170
f 169 204 205
f 170 206 171
f 170 205 207
f 170 207 208
f 170 208 206
f 171 206 172
f 172 206 195
f 172 195 192
f 173 209 174
f 173 191 210
f 173 210 209
f 174 185 211
f 174 211 212
f 174 212 213
f 174 213 175
f 174 209 210
f 174 210 190
f 175 213 214
f 175 214 176
f 178 179 180
f 181 203 182
f 182 203 183
f 183 203 188
f 184 187 185
f 185 187 215
f 185 215 216
f 185 216 217
f 185 217 218
f 185 218 211
f 186 189 219
f 186 219 220
f 186 220 221
f 186 221 187
f 187 221 220
f 187 220 222
f 187 222 215
f 188 203 202
f 188 202 201
f 188 201 223
f 188 223 189
f 189 224 219
f 189 223 224
f 190 210 191
f 193 194 225
f 194 197 226
f 194 226 227
f 194 227 228
f 194 228 229
f 194 229 230
f 194 230 231
f 194 231 225
f 195 206 208
f 195 208 232
f 195 232 196
f 196 232 197
f 197 232 226
f 198 233 200
f 198 200 199
f 200 233 234
f 200 234 223
f 200 223 201
f 204 235 236
f 204 236 237
f 204 237 238
f 204 238 239
f 204 239 205
f 205 239 237
f 205 237 236
f 205 236 207
f 207 236 208
f 208 236 226
f 208 226 232
f 211 214 213
f 211 213 212
f 211 218 214
f 214 218 217
f 215 217 216
f 215 222 217
f 217 222 240
f 219 224 223
f 219 223 220
f 220 223 241
f 220 241 222
f 222 241 234
f 222 234 242
f 222 242 243
f 222 243 240
f 223 234 241
f 226 236 235
f 226 235 227
f 227 235 244
f 227 244 245
f 227 245 228
f 233 246 242
f 233 242 234
f 237 239 238
f 242 246 247
f 242 247 243

