# https://github.com/mikedh/trimesh
v -0.18132802 0.20688481 0.27070014
v -0.10138816 0.19633441 0.27070014
v -0.08884548 0.19930389 0.19718704
v -0.08884548 0.19930389 0.19453520
v -0.09276279 0.19912922 0.19099382
v -0.12710614 0.19409857 0.14527471
v -0.14084106 0.19315532 0.13943394
v -0.14649804 0.19291077 0.14012209
v -0.18132802 0.19801129 0.21397086
v -0.18132802 -0.10969678 0.27070014
v -0.09963632 0.19602001 0.27070014
v -0.08629071 0.19857027 0.19977175
v -0.07901571 0.19692832 0.20022491
v -0.07901571 0.19731260 0.19336033
v -0.08629071 0.19884974 0.19268898
v -0.08588925 0.19780169 0.18647897
v -0.12710614 0.19326012 0.14010529
v -0.13397968 0.19326012 0.13966891
v -0.14084106 0.19193259 0.13599327
v -0.14835937 0.19189766 0.13805768
v -0.18132802 0.17687559 0.11098538
v -0.15458813 0.19050026 0.13841013
v -0.18132802 0.19685845 0.20710628
v -0.18132802 -0.15001185 0.26140191
v -0.06942926 -0.11881483 0.27070014
v -0.09502558 0.19455272 0.27070014
v -0.09315209 0.19381910 0.27070014
v -0.07159473 0.19395883 0.20059416
v -0.07215434 0.19479727 0.19336033
v -0.07901571 0.19612481 0.18647897
v -0.11721555 0.19224701 0.14242147
v -0.12177764 0.19291077 0.14092770
v -0.12369980 0.17250871 0.09923671
v -0.12710614 0.17296286 0.09923671
v -0.12917429 0.17303273 0.09923671
v -0.18132802 0.17404584 0.10398653
v -0.18132802 0.17890181 0.11914231
v -0.18132802 0.18008961 0.12394248
v -0.18132802 0.18026428 0.12466419
v -0.18132802 0.18173156 0.13079028
v -0.18132802 0.18190623 0.13152877
v -0.18132802 0.18312896 0.13765486
v -0.18132802 -0.15001185 0.09923671
v -0.10185046 -0.15001185 0.25871650
v -0.05705689 -0.11898952 0.27070014
v -0.06281120 -0.11902445 0.27070014
v -0.06815187 0.19270117 0.19856332
v -0.05705689 0.17694546 0.27070014
v -0.06800589 0.19280597 0.19336033
v -0.06833436 0.19263130 0.18914760
v -0.07209352 0.19360948 0.18671394
v -0.07435630 0.19291077 0.18177950
v -0.07904004 0.19367934 0.17954726
v -0.08133933 0.19277103 0.17521703
v -0.07676509 0.19193259 0.17719752
v -0.05705689 0.15214156 0.09923671
v -0.12233725 0.17222922 0.09923671
v -0.13397968 0.17289298 0.09923671
v -0.18132802 0.17380129 0.10355015
v -0.05705689 -0.15001185 0.09923671
v -0.18132802 0.17097156 0.09923671
v -0.09840761 -0.15001185 0.25838082
v -0.07215434 -0.15001185 0.25571219
v -0.06528080 -0.15001185 0.25401703
v -0.06148515 -0.15001185 0.25215403
v -0.06049974 -0.15001185 0.24832732
v -0.05705689 -0.12761848 0.25544366
v -0.05908854 0.18714649 0.20022491
v -0.05705689 0.18592376 0.20022491
v -0.05705689 0.18595869 0.19743880
v -0.05911287 0.18721635 0.19336033
v -0.06976989 0.19186272 0.18458240
v -0.05705689 0.18588882 0.19336033
v -0.05705689 0.18546960 0.19131271
v -0.05705689 0.18438662 0.18647897
v -0.06028076 0.18651766 0.18647897
v -0.06573093 0.19015090 0.18671394
v -0.06504966 0.18735611 0.17981580
v -0.07209352 0.19102428 0.17954726
v -0.06717863 0.18648273 0.17409252
v -0.06260438 0.18494558 0.17763390
v -0.06133916 0.18581896 0.18221589
v -0.05705689 0.18414207 0.18577405
v -0.18132802 0.17174013 0.10005912
v -0.18132802 0.17198467 0.10034445
v -0.05705689 -0.15001185 0.10032766
v -0.06020777 -0.15001185 0.24144596
v -0.05705689 -0.13163601 0.24424885
v -0.05705689 -0.13062290 0.24832732
v -0.05705689 -0.13331290 0.23458138
v -0.05705689 -0.13247445 0.23973401
f 1 2 3
f 1 3 4
f 1 4 5
f 1 5 6
f 1 6 7
f 1 7 8
f 1 8 9
f 1 9 23
f 1 23 42
f 1 42 41
f 1 41 40
f 1 40 39
f 1 39 38
f 1 38 37
f 1 37 21
f 1 21 36
f 1 36 59
f 1 59 85
f 1 85 84
f 1 84 61
f 1 61 43
f 1 43 24
f 1 24 10
f 1 10 25
f 1 25 46
f 1 46 45
f 1 45 48
f 1 48 27
f 1 27 26
f 1 26 11
f 1 11 2
f 2 11 3
f 3 12 13
f 3 13 14
f 3 14 15
f 3 15 4
f 3 11 12
f 4 15 5
f 5 15 16
f 5 16 17
f 5 17 6
f 6 17 18
f 6 18 7
f 7 18 19
f 7 19 8
f 8 19 20
f 8 20 21
f 8 21 22
f 8 22 23
f 8 23 9
f 10 24 25
f 11 13 12
f 11 26 13
f 13 26 27
f 13 27 28
f 13 28 29
f 13 29 14
f 14 29 30
f 14 30 16
f 14 16 15
f 16 30 31
f 16 31 32
f 16 32 17
f 17 19 18
f 17 32 33
f 17 33 34
f 17 34 19
f 19 34 35
f 19 35 36
f 19 36 20
f 20 36 21
f 21 37 22
f 22 37 38
f 22 38 39
f 22 39 40
f 22 40 41
f 22 41 42
f 22 42 23
f 24 43 60
f 24 60 86
f 24 86 87
f 24 87 66
f 24 66 65
f 24 65 64
f 24 64 63
f 24 63 62
f 24 62 44
f 24 44 45
f 24 45 46
f 24 46 25
f 27 47 28
f 27 48 47
f 28 47 29
f 29 47 49
f 29 49 50
f 29 50 51
f 29 51 30
f 30 51 52
f 30 52 53
f 30 53 31
f 31 53 54
f 31 54 55
f 31 55 56
f 31 56 32
f 32 56 57
f 32 57 33
f 33 57 56
f 33 56 60
f 33 60 43
f 33 43 61
f 33 61 58
f 33 58 35
f 33 35 34
f 35 58 36
f 36 58 59
f 44 62 45
f 45 62 63
f 45 63 64
f 45 64 65
f 45 65 66
f 45 66 67
f 45 67 89
f 45 89 88
f 45 88 91
f 45 91 90
f 45 90 86
f 45 86 60
f 45 60 56
f 45 56 83
f 45 83 75
f 45 75 74
f 45 74 73
f 45 73 70
f 45 70 69
f 45 69 48
f 47 48 68
f 47 68 69
f 47 69 49
f 48 69 68
f 49 69 70
f 49 70 71
f 49 71 50
f 50 72 51
f 50 71 73
f 50 73 74
f 50 74 75
f 50 75 76
f 50 76 77
f 50 77 78
f 50 78 72
f 51 72 52
f 52 55 54
f 52 54 53
f 52 72 79
f 52 79 56
f 52 56 55
f 56 79 80
f 56 80 78
f 56 78 81
f 56 81 82
f 56 82 83
f 58 61 84
f 58 84 85
f 58 85 59
f 66 87 88
f 66 88 89
f 66 89 67
f 70 73 71
f 72 78 80
f 72 80 79
f 75 83 82
f 75 82 76
f 76 82 77
f 77 82 78
f 78 82 81
f 86 90 87
f 87 90 91
f 87 91 88

