# https://github.com/mikedh/trimesh
v -0.09073250 0.09273357 0.47151289
v -0.09073250 0.08678437 0.47127701
v -0.09073250 0.09551830 0.47127701
v -0.13569494 0.08586668 0.46249046
v -0.13569494 -0.01716842 0.46498687
v -0.13569494 -0.02403531 0.46482961
v -0.13569494 -0.04463601 0.46406300
v -0.12710824 -0.04463601 0.46339467
v -0.12023800 -0.04463601 0.46266738
v -0.11336776 -0.04463601 0.46178282
v -0.10650193 -0.04463601 0.46078032
v -0.09963168 -0.04463601 0.45954196
v -0.09499284 -0.04903462 0.45816601
v -0.09073250 -0.04466765 0.45753698
v -0.09073250 0.09773343 0.47058903
v -0.13569494 0.09273357 0.46174351
v -0.13569494 -0.05137633 0.46347331
v -0.13397849 -0.05150290 0.46335536
v -0.12710824 -0.05150290 0.46260841
v -0.09963168 -0.05023711 0.45861809
v -0.09073250 -0.05143961 0.45669174
v -0.09073250 0.10032829 0.46921305
v -0.13569494 0.10314467 0.45793011
v -0.13569494 0.10026500 0.45930607
v -0.13569494 0.09887264 0.45975820
v -0.13569494 -0.05776855 0.46030857
v -0.13397849 -0.05776855 0.46030857
v -0.12710824 -0.05732552 0.45987613
v -0.11336776 -0.05602809 0.45863775
v -0.10832842 -0.05542684 0.45820532
v -0.10622465 -0.05200921 0.45914883
v -0.09963168 -0.05368639 0.45743869
v -0.09073250 -0.05874953 0.45309456
v -0.09073250 0.10434717 0.46626454
v -0.13569494 0.12912496 0.44293206
v -0.13569494 0.12570733 0.44533016
v -0.13569494 -0.05862295 0.45946333
v -0.13569494 -0.06121783 0.45680968
v -0.13397849 -0.06121783 0.45677037
v -0.09073250 -0.06175578 0.45091267
v -0.13569494 0.15788997 0.41849880
v -0.13569494 0.15285847 0.42360952
v -0.13569494 0.15114966 0.42524103
v -0.13569494 0.14833329 0.42769812
v -0.13569494 0.14276382 0.43223881
v -0.13569494 0.13523239 0.43829309
v -0.09073250 0.19383835 0.36306693
v -0.13569494 0.18402848 0.38905307
v -0.13569494 -0.06166085 0.45594478
v -0.13569494 -0.06289499 0.45336977
v -0.13397849 -0.06286334 0.45333045
v -0.09073250 -0.06349624 0.44794452
v -0.09073250 0.19469274 0.36171061
v -0.13569494 0.18703472 0.38472860
v -0.13569494 0.18488290 0.38795230
v -0.13569494 -0.06498354 0.44757104
v -0.13397849 -0.06498354 0.44757104
v -0.09073250 -0.06675564 0.44071084
v -0.13569494 0.18928150 0.38111177
v -0.09073250 0.19681295 0.35827069
v -0.09073250 -0.07235675 0.42211562
v -0.09073250 -0.07096438 0.42697083
v -0.13569494 -0.10976077 0.27070014
v -0.13554970 -0.10979240 0.27070014
v -0.13045314 -0.11074175 0.27070014
v -0.12629843 -0.11137465 0.27070014
v -0.12335404 -0.11181766 0.27070014
v -0.11760610 -0.11254551 0.27070014
v -0.09073250 -0.11561504 0.27070014
v -0.09073250 -0.06931886 0.43245505
v -0.09073250 -0.06827458 0.43587531
v -0.13569494 0.19314216 0.37303287
v -0.09073250 0.19738255 0.35624606
v -0.13569494 0.20640127 0.33908576
v -0.13569494 0.20523043 0.34274191
v -0.09275704 0.19693952 0.35827069
v -0.13569494 0.19950274 0.27070014
v -0.09073250 0.19247762 0.27070014
v -0.09963168 0.19728760 0.35827069
v -0.09073250 0.19861669 0.35141051
v -0.13569494 0.20687595 0.33729700
v -0.13569494 0.19956603 0.27089671
v -0.10138335 0.19633828 0.27070014
v -0.09315314 0.19380669 0.27070014
v -0.09073250 0.19551550 0.28960988
v -0.09073250 0.19880655 0.34453067
v -0.13569494 0.20766707 0.33079064
v -0.13569494 0.19997741 0.27256753
v -0.12023800 0.19975590 0.27738342
v -0.10650193 0.19804709 0.27583054
v -0.09963168 0.19678129 0.27583054
v -0.09963168 0.19599017 0.27070014
v -0.09501924 0.19456617 0.27070014
v -0.09275704 0.19627498 0.28957057
v -0.09073250 0.19636991 0.29643075
v -0.09275704 0.19700281 0.29643075
v -0.09963168 0.19849010 0.29643075
v -0.12993820 0.20627471 0.32632857
v -0.09963168 0.19814202 0.28957057
v -0.13569494 0.20728732 0.32573887
v -0.13569494 0.20076853 0.27583054
v -0.13569494 0.20114826 0.27754067
v -0.13569494 0.20209760 0.28269072
v -0.11482455 0.19943945 0.27846454
v -0.11024733 0.19921793 0.27991914
v -0.10683642 0.19886984 0.28239588
v -0.09963168 0.19750912 0.28269072
v -0.13569494 0.20712910 0.32396978
v -0.13569494 0.20231912 0.28440085
f 1 2 14
f 1 14 21
f 1 21 33
f 1 33 40
f 1 40 52
f 1 52 58
f 1 58 71
f 1 71 70
f 1 70 62
f 1 62 61
f 1 61 69
f 1 69 78
f 1 78 85
f 1 85 95
f 1 95 86
f 1 86 80
f 1 80 73
f 1 73 60
f 1 60 53
f 1 53 47
f 1 47 34
f 1 34 22
f 1 22 15
f 1 15 3
f 1 3 4
f 1 4 5
f 1 5 6
f 1 6 7
f 1 7 2
f 2 7 8
f 2 8 9
f 2 9 10
f 2 10 11
f 2 11 12
f 2 12 13
f 2 13 14
f 3 15 16
f 3 16 4
f 4 16 25
f 4 25 24
f 4 24 23
f 4 23 36
f 4 36 35
f 4 35 46
f 4 46 45
f 4 45 44
f 4 44 43
f 4 43 42
f 4 42 41
f 4 41 48
f 4 48 55
f 4 55 54
f 4 54 59
f 4 59 72
f 4 72 75
f 4 75 74
f 4 74 81
f 4 81 87
f 4 87 100
f 4 100 108
f 4 108 109
f 4 109 103
f 4 103 102
f 4 102 101
f 4 101 88
f 4 88 82
f 4 82 77
f 4 77 63
f 4 63 56
f 4 56 50
f 4 50 49
f 4 49 38
f 4 38 37
f 4 37 26
f 4 26 17
f 4 17 7
f 4 7 6
f 4 6 5
f 7 17 18
f 7 18 8
f 8 18 9
f 9 18 19
f 9 19 10
f 10 19 11
f 11 19 13
f 11 13 12
f 13 19 20
f 13 20 21
f 13 21 14
f 15 22 23
f 15 23 24
f 15 24 25
f 15 25 16
f 17 26 27
f 17 27 18
f 18 27 28
f 18 28 19
f 19 28 29
f 19 29 30
f 19 30 31
f 19 31 20
f 20 31 21
f 21 31 32
f 21 32 33
f 22 34 35
f 22 35 36
f 22 36 23
f 26 37 27
f 27 37 38
f 27 38 39
f 27 39 40
f 27 40 28
f 28 33 29
f 28 40 33
f 29 33 30
f 30 33 32
f 30 32 31
f 34 41 42
f 34 42 43
f 34 43 44
f 34 44 45
f 34 45 46
f 34 46 35
f 34 47 48
f 34 48 41
f 38 49 39
f 39 49 50
f 39 50 51
f 39 51 52
f 39 52 40
f 47 53 54
f 47 54 55
f 47 55 48
f 50 56 57
f 50 57 58
f 50 58 51
f 51 58 52
f 53 59 54
f 53 60 59
f 56 61 62
f 56 62 57
f 56 63 64
f 56 64 65
f 56 65 66
f 56 66 67
f 56 67 68
f 56 68 69
f 56 69 61
f 57 62 70
f 57 70 71
f 57 71 58
f 59 60 72
f 60 73 74
f 60 74 75
f 60 75 76
f 60 76 72
f 63 77 83
f 63 83 92
f 63 92 93
f 63 93 84
f 63 84 78
f 63 78 69
f 63 69 68
f 63 68 67
f 63 67 66
f 63 66 65
f 63 65 64
f 72 76 79
f 72 79 75
f 73 80 81
f 73 81 74
f 75 79 76
f 77 82 83
f 78 84 85
f 80 86 87
f 80 87 81
f 82 88 89
f 82 89 83
f 83 89 90
f 83 90 91
f 83 91 92
f 84 93 85
f 85 93 94
f 85 94 95
f 86 96 97
f 86 97 98
f 86 98 87
f 86 95 96
f 87 98 99
f 87 99 100
f 88 101 89
f 89 101 102
f 89 102 103
f 89 103 104
f 89 104 90
f 90 104 105
f 90 105 91
f 91 105 106
f 91 106 107
f 91 107 96
f 91 96 94
f 91 94 93
f 91 93 92
f 94 96 95
f 96 107 99
f 96 99 97
f 97 99 98
f 99 107 106
f 99 106 100
f 100 106 105
f 100 105 108
f 103 109 105
f 103 105 104
f 105 109 108

