# https://github.com/mikedh/trimesh
v 0.10605832 -0.00965830 0.27182729
v 0.10605832 0.13266795 0.27182729
v 0.15751893 -0.00965830 0.27182729
v 0.10605832 -0.00965830 0.41732435
v 0.15751893 0.13001857 0.27182729
v 0.10605832 0.14153374 0.30162492
v 0.15751893 -0.00965830 0.42428890
v 0.15751893 -0.00962869 0.42430651
v 0.12996244 0.05463717 0.45123019
v 0.10798778 0.04605260 0.43825322
v 0.10605832 0.04417288 0.43645478
v 0.10699535 0.14153374 0.30217150
v 0.13722184 0.14153374 0.32093167
v 0.14767516 0.14153374 0.32932437
v 0.14843586 0.14153374 0.33008253
v 0.15143837 0.14153374 0.33346783
v 0.15444086 0.14153374 0.33782287
v 0.15540811 0.14153374 0.33932156
v 0.15748870 0.14153374 0.34274212
v 0.15751893 0.14153374 0.34283027
v 0.10605832 0.14153374 0.39533758
v 0.15751893 0.04466131 0.44743936
v 0.13144354 0.05463717 0.45123019
v 0.13383143 0.05845582 0.45152993
v 0.13397752 0.06527908 0.45195308
v 0.12950401 0.05841142 0.45144175
v 0.12606826 0.05841142 0.44989016
v 0.10688955 0.05154377 0.43888796
v 0.10605832 0.05154377 0.43844717
v 0.15751893 0.14153374 0.36862550
v 0.10605832 0.12115279 0.41959885
v 0.15751893 0.10422046 0.43835900
v 0.15751893 0.10493091 0.43724822
v 0.15751893 0.05154377 0.44877936
v 0.13884903 0.06079438 0.45131834
v 0.13397752 0.07213193 0.45156519
v 0.13017403 0.07605419 0.45114201
v 0.12982139 0.07213193 0.45130071
v 0.12949897 0.06527908 0.45145940
v 0.13932258 0.06527908 0.45149466
v 0.13826969 0.07213193 0.45128306
v 0.12606322 0.06527908 0.44987253
v 0.12024462 0.07213193 0.44705144
v 0.11574591 0.07213193 0.44472407
v 0.11231017 0.07213193 0.44283748
v 0.10650164 0.07213193 0.43964613
v 0.12024462 0.05841142 0.44668118
v 0.10605832 0.07213193 0.43939928
v 0.10605832 0.12051634 0.42033938
v 0.10605832 0.11971709 0.42125623
v 0.10605832 0.11502518 0.42642234
v 0.10605832 0.11392991 0.42756838
v 0.10605832 0.11274583 0.42876734
v 0.10605832 0.10818713 0.43319291
v 0.10605832 0.10574496 0.43529109
v 0.10605832 0.10097905 0.43865874
v 0.15751893 0.10245915 0.43943455
v 0.15751893 0.05841142 0.44832094
v 0.13744350 0.07561016 0.45101860
v 0.13397752 0.07596539 0.45112438
v 0.12638564 0.07213193 0.44990779
v 0.13397752 0.07939921 0.45010175
v 0.13397752 0.08588204 0.44782725
v 0.12711612 0.08588204 0.44729831
v 0.10605832 0.09995778 0.43895848
v 0.10605832 0.09274970 0.43969902
v 0.15751893 0.08193018 0.44569381
v 0.10605832 0.07901439 0.43955796
v 0.12711612 0.09069236 0.44520012
v 0.15751893 0.09988377 0.44080983
v 0.15751893 0.08857582 0.44458301
v 0.15751893 0.09103279 0.44407170
v 0.15751893 0.09317893 0.44352511
v 0.15751893 0.09575430 0.44274931
f 1 2 5
f 1 5 3
f 1 3 7
f 1 7 4
f 1 4 11
f 1 11 29
f 1 29 48
f 1 48 68
f 1 68 66
f 1 66 65
f 1 65 56
f 1 56 55
f 1 55 54
f 1 54 53
f 1 53 52
f 1 52 51
f 1 51 50
f 1 50 49
f 1 49 31
f 1 31 21
f 1 21 6
f 1 6 2
f 2 6 5
f 3 5 20
f 3 20 30
f 3 30 33
f 3 33 32
f 3 32 57
f 3 57 70
f 3 70 74
f 3 74 73
f 3 73 72
f 3 72 71
f 3 71 67
f 3 67 58
f 3 58 34
f 3 34 22
f 3 22 8
f 3 8 7
f 4 7 8
f 4 8 9
f 4 9 10
f 4 10 11
f 5 6 12
f 5 12 13
f 5 13 14
f 5 14 15
f 5 15 16
f 5 16 17
f 5 17 18
f 5 18 19
f 5 19 20
f 6 21 30
f 6 30 20
f 6 20 19
f 6 19 18
f 6 18 17
f 6 17 16
f 6 16 15
f 6 15 14
f 6 14 13
f 6 13 12
f 8 22 9
f 9 22 23
f 9 23 24
f 9 24 25
f 9 25 26
f 9 26 27
f 9 27 28
f 9 28 10
f 10 28 29
f 10 29 11
f 21 31 32
f 21 32 33
f 21 33 30
f 22 34 23
f 23 34 24
f 24 35 25
f 24 34 35
f 25 36 37
f 25 37 38
f 25 38 39
f 25 39 26
f 25 35 40
f 25 40 41
f 25 41 36
f 26 39 27
f 27 39 42
f 27 42 43
f 27 43 44
f 27 44 45
f 27 45 46
f 27 46 47
f 27 47 29
f 27 29 28
f 29 47 48
f 31 49 32
f 32 49 50
f 32 50 51
f 32 51 52
f 32 52 53
f 32 53 54
f 32 54 55
f 32 55 56
f 32 56 57
f 34 58 41
f 34 41 40
f 34 40 35
f 36 41 59
f 36 59 60
f 36 60 37
f 37 61 38
f 37 60 62
f 37 62 63
f 37 63 64
f 37 64 56
f 37 56 65
f 37 65 66
f 37 66 61
f 38 61 39
f 39 61 42
f 41 58 67
f 41 67 59
f 42 61 43
f 43 61 66
f 43 66 44
f 44 66 68
f 44 68 45
f 45 68 46
f 46 68 48
f 46 48 47
f 56 64 69
f 56 69 57
f 57 69 70
f 59 62 60
f 59 67 71
f 59 71 72
f 59 72 73
f 59 73 74
f 59 74 62
f 62 74 63
f 63 74 70
f 63 70 69
f 63 69 64

