# https://github.com/mikedh/trimesh
v 0.07932548 0.02462708 0.27182729
v 0.07932548 0.08029373 0.27182729
v 0.10605571 0.02462708 0.27182729
v 0.07932548 0.02462708 0.45765550
v 0.10605571 0.08029373 0.27182729
v 0.07932548 0.08029373 0.42241189
v 0.10605571 0.02462708 0.41658364
v 0.08050564 0.02462708 0.45727182
v 0.07932548 0.03092125 0.45847766
v 0.10605571 0.08029373 0.43947646
v 0.07932548 0.08026649 0.42498802
v 0.07938305 0.08029373 0.42500628
v 0.10605571 0.03904101 0.43258852
v 0.08426069 0.02462708 0.45383698
v 0.08159683 0.03092125 0.45686986
v 0.10605571 0.05153672 0.43845332
v 0.07932548 0.03779307 0.45756415
v 0.10605571 0.07901310 0.43956781
v 0.10193169 0.08029373 0.43775903
v 0.07932548 0.04415809 0.45438509
v 0.08873012 0.08029373 0.43079802
v 0.10605571 0.03925899 0.43280776
v 0.10605571 0.04409815 0.43640703
v 0.10605571 0.04416354 0.43644356
v 0.10605571 0.04447961 0.43653493
v 0.10605571 0.07214128 0.43940336
v 0.09849850 0.08029373 0.43616950
v 0.09226275 0.08029373 0.43282603
f 1 2 5
f 1 5 3
f 1 3 7
f 1 7 14
f 1 14 8
f 1 8 4
f 1 4 9
f 1 9 17
f 1 17 20
f 1 20 11
f 1 11 6
f 1 6 2
f 2 6 12
f 2 12 21
f 2 21 28
f 2 28 27
f 2 27 19
f 2 19 10
f 2 10 5
f 3 5 10
f 3 10 18
f 3 18 26
f 3 26 16
f 3 16 25
f 3 25 24
f 3 24 23
f 3 23 22
f 3 22 13
f 3 13 7
f 4 8 9
f 6 11 12
f 7 13 14
f 8 15 9
f 8 14 16
f 8 16 15
f 9 15 18
f 9 18 10
f 9 10 17
f 10 19 20
f 10 20 17
f 11 20 12
f 12 20 21
f 13 22 14
f 14 23 24
f 14 24 25
f 14 25 16
f 14 22 23
f 15 16 26
f 15 26 18
f 19 27 20
f 20 27 28
f 20 28 21

