# https://github.com/mikedh/trimesh
v -0.18132802 -0.19146916 0.09923671
v -0.18132802 -0.19122256 0.09797495
v -0.18007679 -0.19193771 0.09923671
v -0.18132802 0.05903463 0.09923671
v -0.18132802 -0.19104994 0.09751844
v -0.17520401 -0.19174042 0.09573678
v -0.17542430 -0.19267754 0.09923671
v -0.09130927 0.05903463 0.09923671
v -0.18132802 0.05903463 0.06649453
v -0.18132802 -0.18843587 0.09089265
v -0.16833099 -0.18966892 0.09029664
v -0.16833099 -0.19198704 0.09528026
v -0.17511588 -0.19270219 0.09923671
v -0.18132802 -0.17625348 0.06341939
v -0.09130927 0.05903463 0.03689088
v -0.09130927 -0.14868277 0.09923671
v -0.16575802 0.05903463 0.05897474
v -0.15384481 -0.02407206 0.04369419
v -0.18132802 -0.02407206 0.05767493
v -0.16145799 -0.18959494 0.09029664
v -0.16145799 -0.19183907 0.09562899
v -0.16145799 -0.19280083 0.09906552
v -0.16766132 -0.19289948 0.09923671
v -0.16833099 -0.19277617 0.09871680
v -0.15459379 -0.18937299 0.09029664
v -0.18132802 -0.17322022 0.05771933
v -0.15459379 -0.18666033 0.08512917
v -0.09130927 -0.01031137 0.03450052
v -0.13764038 -0.02725330 0.03874229
v -0.14030147 -0.02458994 0.03938903
v -0.14772078 -0.02407206 0.04084732
v -0.12711939 0.05903463 0.04377028
v -0.11175206 -0.16979237 0.09923671
v -0.09130927 -0.14905269 0.09029664
v -0.13162209 0.05903463 0.04511446
v -0.15434707 -0.03092775 0.04342156
v -0.18132802 -0.10638961 0.05213970
v -0.15459379 -0.19164178 0.09635180
v -0.15459379 -0.19245559 0.09923671
v -0.15985429 -0.19275152 0.09923671
v -0.16122889 -0.19282548 0.09923671
v -0.14772078 -0.18609312 0.08591539
v -0.14772078 -0.18826325 0.09029664
v -0.14750931 -0.19169111 0.09923671
v -0.14772078 -0.17795507 0.07394458
v -0.14772078 -0.18039647 0.07738111
v -0.14772078 -0.18384898 0.08248520
v -0.18132802 -0.16897856 0.05496120
v -0.09130927 -0.14034745 0.03856475
v -0.09130927 -0.14291215 0.04111997
v -0.09130927 -0.08587187 0.03446247
v -0.11337338 -0.08587187 0.03562277
v -0.12024638 -0.07899152 0.03607295
v -0.12711939 -0.07213584 0.03671967
v -0.14030147 -0.03117435 0.03910370
v -0.14772078 -0.03092775 0.04038446
v -0.14469843 -0.10648825 0.03864084
v -0.11294161 -0.17097608 0.09923671
v -0.09130927 -0.14910200 0.08342992
v -0.18132802 -0.11336860 0.05184171
v -0.14405518 -0.18559992 0.08668258
v -0.14084778 -0.19018680 0.09923671
v -0.14605541 -0.19141983 0.09923671
v -0.18132802 -0.16836204 0.05463151
v -0.09130927 -0.13933635 0.03801948
v -0.09130927 -0.14478638 0.04430923
v -0.09130927 -0.09275222 0.03469707
v -0.10650037 -0.11336860 0.03581300
v -0.11337338 -0.11336860 0.03618074
v -0.13398358 -0.12022428 0.03770245
v -0.13398358 -0.10648825 0.03746785
v -0.12024638 -0.08587187 0.03612367
v -0.14084778 -0.10648825 0.03812727
v -0.14453101 -0.10148212 0.03869157
v -0.18132802 -0.14084066 0.05070676
v -0.14458388 -0.11336860 0.03866620
v -0.18132802 -0.14772101 0.05070676
v -0.11530311 -0.17329418 0.09923671
v -0.09130927 -0.14885540 0.07655686
v -0.13903260 -0.18959494 0.09923671
v -0.18132802 -0.16345455 0.05280545
v -0.12437019 -0.13763476 0.03863450
v -0.09130927 -0.13546462 0.03708109
v -0.09130927 -0.14495900 0.04493058
v -0.13039729 -0.18567388 0.09923671
v -0.13135774 -0.18626574 0.09923671
v -0.13458277 -0.18772074 0.09923671
v -0.09130927 -0.12853494 0.03630755
v -0.12024638 -0.12710463 0.03730934
v -0.12711939 -0.12710463 0.03757564
v -0.12711939 -0.12022428 0.03724594
v -0.13433605 -0.12752386 0.03822871
v -0.13913834 -0.12550167 0.03851403
v -0.14120024 -0.11997767 0.03844429
v -0.14084778 -0.11336860 0.03824773
v -0.14439003 -0.11753626 0.03873594
v -0.14372034 -0.12209849 0.03886275
v -0.18132802 -0.15457669 0.05138520
v -0.11903921 -0.17657407 0.09923671
v -0.09130927 -0.14707982 0.05595033
v -0.09130927 -0.14779499 0.06282339
v -0.09130927 -0.14846083 0.06968379
v -0.18132802 -0.16002672 0.05220945
v -0.14084778 -0.13396031 0.04005477
v -0.14084778 -0.14084066 0.04170329
v -0.13684734 -0.13008858 0.03883740
v -0.12683743 -0.13378769 0.03833017
v -0.09130927 -0.13396031 0.03677041
v -0.09130927 -0.14599475 0.04898214
v -0.14120024 -0.12752386 0.03904029
f 1 2 3
f 1 3 7
f 1 7 13
f 1 13 23
f 1 23 41
f 1 41 40
f 1 40 39
f 1 39 44
f 1 44 63
f 1 63 62
f 1 62 80
f 1 80 87
f 1 87 86
f 1 86 85
f 1 85 99
f 1 99 78
f 1 78 58
f 1 58 33
f 1 33 16
f 1 16 8
f 1 8 4
f 1 4 9
f 1 9 19
f 1 19 37
f 1 37 60
f 1 60 75
f 1 75 77
f 1 77 98
f 1 98 103
f 1 103 81
f 1 81 64
f 1 64 48
f 1 48 26
f 1 26 14
f 1 14 10
f 1 10 5
f 1 5 2
f 2 5 6
f 2 6 3
f 3 6 7
f 4 8 15
f 4 15 32
f 4 32 35
f 4 35 17
f 4 17 9
f 5 10 6
f 6 11 12
f 6 12 13
f 6 13 7
f 6 10 14
f 6 14 11
f 8 16 34
f 8 34 59
f 8 59 79
f 8 79 102
f 8 102 101
f 8 101 100
f 8 100 109
f 8 109 84
f 8 84 66
f 8 66 50
f 8 50 49
f 8 49 65
f 8 65 83
f 8 83 108
f 8 108 88
f 8 88 67
f 8 67 51
f 8 51 28
f 8 28 15
f 9 17 18
f 9 18 19
f 11 20 12
f 11 14 20
f 12 21 22
f 12 22 23
f 12 23 24
f 12 24 13
f 12 20 25
f 12 25 21
f 13 24 23
f 14 26 27
f 14 27 25
f 14 25 20
f 15 28 29
f 15 29 30
f 15 30 31
f 15 31 32
f 16 33 34
f 17 35 31
f 17 31 18
f 18 31 36
f 18 36 19
f 19 36 37
f 21 38 39
f 21 39 22
f 21 25 38
f 22 40 41
f 22 41 23
f 22 39 40
f 25 27 42
f 25 42 43
f 25 43 44
f 25 44 38
f 26 45 46
f 26 46 47
f 26 47 42
f 26 42 27
f 26 48 49
f 26 49 50
f 26 50 45
f 28 51 52
f 28 52 53
f 28 53 54
f 28 54 29
f 29 55 56
f 29 56 30
f 29 54 57
f 29 57 55
f 30 56 31
f 31 56 36
f 31 35 32
f 33 58 59
f 33 59 34
f 36 56 37
f 37 56 60
f 38 44 39
f 42 47 50
f 42 50 61
f 42 61 43
f 43 61 62
f 43 62 63
f 43 63 44
f 45 50 46
f 46 50 47
f 48 64 65
f 48 65 49
f 50 66 61
f 51 67 68
f 51 68 52
f 52 68 69
f 52 69 70
f 52 70 71
f 52 71 72
f 52 72 53
f 53 72 71
f 53 71 73
f 53 73 54
f 54 73 57
f 55 57 74
f 55 74 56
f 56 74 57
f 56 57 75
f 56 75 60
f 57 73 76
f 57 76 77
f 57 77 75
f 58 78 79
f 58 79 59
f 61 80 62
f 61 66 80
f 64 81 82
f 64 82 65
f 65 82 83
f 66 84 85
f 66 85 86
f 66 86 87
f 66 87 80
f 67 88 68
f 68 88 89
f 68 89 90
f 68 90 69
f 69 90 91
f 69 91 70
f 70 91 90
f 70 90 92
f 70 92 93
f 70 93 94
f 70 94 95
f 70 95 73
f 70 73 71
f 73 95 76
f 76 95 96
f 76 96 77
f 77 96 97
f 77 97 98
f 78 99 100
f 78 100 101
f 78 101 102
f 78 102 79
f 81 103 104
f 81 104 105
f 81 105 82
f 82 105 104
f 82 104 106
f 82 106 107
f 82 107 90
f 82 90 108
f 82 108 83
f 84 109 85
f 85 109 99
f 88 108 90
f 88 90 89
f 90 107 92
f 92 107 106
f 92 106 93
f 93 106 110
f 93 110 97
f 93 97 94
f 94 96 95
f 94 97 96
f 97 110 98
f 98 110 103
f 99 109 100
f 103 110 104
f 104 110 106

