# https://github.com/mikedh/trimesh
v -0.03142740 0.14372133 0.39565404
v -0.03142740 0.16783777 0.37751819
v -0.08818380 0.15194713 0.40346705
v -0.08588475 0.14372133 0.40855426
v -0.03142740 0.14372133 0.27070015
v -0.03142740 0.17126833 0.37492735
v -0.09072669 0.17120360 0.38866418
v -0.09072669 0.15991402 0.39754320
v -0.09072669 0.15194713 0.40346705
v -0.09072669 0.14372133 0.40779860
v -0.09072669 0.14372133 0.27070015
v -0.03142740 0.16325289 0.27070015
v -0.03142740 0.17394913 0.37148640
v -0.06177954 0.19241808 0.36174377
v -0.06526876 0.19310851 0.36244546
v -0.09072669 0.17159736 0.38824587
v -0.07214269 0.19385286 0.36313365
v -0.09072669 0.19250438 0.27070015
v -0.05138735 0.17434828 0.27070015
v -0.03947409 0.17973685 0.29643310
v -0.03453345 0.17850704 0.30013043
v -0.03297172 0.17953729 0.30470488
v -0.03142740 0.17899789 0.30594633
v -0.03142740 0.17739048 0.36498231
v -0.03142740 0.17989328 0.35839727
v -0.03142740 0.18184590 0.35189319
v -0.06526876 0.19466737 0.35826234
v -0.03142740 0.17757387 0.36452352
v -0.07214269 0.19636107 0.35826234
v -0.09072669 0.19385827 0.36303919
v -0.07901081 0.19660380 0.35826234
v -0.09072669 0.19684113 0.35826234
v -0.09072669 0.19471051 0.36168980
v -0.09072669 0.19551421 0.28960516
v -0.04519849 0.18450512 0.30374681
v -0.04466437 0.18215875 0.29643310
v -0.05422633 0.17896013 0.27843218
v -0.05318712 0.17518974 0.27070015
v -0.03720987 0.18107456 0.30277525
v -0.03142740 0.18000117 0.30876655
v -0.03142740 0.18194839 0.35139392
v -0.03142740 0.18256329 0.34502477
v -0.06526876 0.19529306 0.35139392
v -0.07214269 0.19740211 0.35139392
v -0.07901081 0.19808175 0.35139392
v -0.08588475 0.19842157 0.35139392
v -0.09072669 0.19863733 0.35139392
v -0.09072669 0.19739670 0.35623825
v -0.09072669 0.19638265 0.29643310
v -0.03779044 0.18331845 0.31016993
v -0.03142740 0.18048123 0.31043981
v -0.03142740 0.18258487 0.34451200
v -0.03142740 0.18230438 0.32392026
v -0.03142740 0.18186208 0.31705184
v -0.03779044 0.18392796 0.31705184
v -0.07901081 0.19780665 0.34451200
v -0.08588475 0.19852405 0.34451200
v -0.09072669 0.19882072 0.34451200
v -0.09072669 0.19674405 0.30330151
f 1 2 3
f 1 3 4
f 1 4 10
f 1 10 11
f 1 11 5
f 1 5 12
f 1 12 23
f 1 23 40
f 1 40 51
f 1 51 54
f 1 54 53
f 1 53 52
f 1 52 42
f 1 42 41
f 1 41 26
f 1 26 25
f 1 25 28
f 1 28 24
f 1 24 13
f 1 13 6
f 1 6 2
f 2 6 3
f 3 7 8
f 3 8 9
f 3 9 4
f 3 6 7
f 4 9 10
f 5 11 18
f 5 18 38
f 5 38 19
f 5 19 12
f 6 13 14
f 6 14 15
f 6 15 7
f 7 16 30
f 7 30 33
f 7 33 32
f 7 32 48
f 7 48 47
f 7 47 58
f 7 58 59
f 7 59 49
f 7 49 34
f 7 34 18
f 7 18 11
f 7 11 10
f 7 10 9
f 7 9 8
f 7 15 17
f 7 17 16
f 12 19 20
f 12 20 21
f 12 21 22
f 12 22 23
f 13 24 14
f 14 25 26
f 14 26 27
f 14 27 15
f 14 24 28
f 14 28 25
f 15 27 29
f 15 29 17
f 16 17 30
f 17 29 31
f 17 31 32
f 17 32 33
f 17 33 30
f 18 34 35
f 18 35 36
f 18 36 37
f 18 37 38
f 19 38 20
f 20 36 39
f 20 39 22
f 20 22 21
f 20 38 36
f 22 39 40
f 22 40 23
f 26 41 27
f 27 41 42
f 27 42 43
f 27 43 44
f 27 44 29
f 29 44 45
f 29 45 46
f 29 46 47
f 29 47 31
f 31 47 48
f 31 48 32
f 34 49 50
f 34 50 35
f 35 50 39
f 35 39 36
f 36 38 37
f 39 50 51
f 39 51 40
f 42 52 43
f 43 52 53
f 43 53 54
f 43 54 55
f 43 55 44
f 44 56 57
f 44 57 45
f 44 55 50
f 44 50 49
f 44 49 56
f 45 57 58
f 45 58 46
f 46 58 47
f 49 59 57
f 49 57 56
f 50 55 54
f 50 54 51
f 57 59 58

