# https://github.com/mikedh/trimesh
v 0.22041772 0.12365583 0.27182729
v 0.21986585 0.12365583 0.27182729
v 0.22750233 0.12258701 0.27182729
v 0.23018471 0.12245029 0.26206587
v 0.23018471 0.12243787 0.25520262
v 0.21927547 0.12363097 0.27182729
v 0.22330549 0.12292256 0.26206587
v 0.23018471 0.12199046 0.27182729
v 0.23018471 0.12216445 0.26893708
v 0.23705113 0.12141876 0.25520262
v 0.23705113 0.12112048 0.24833141
v 0.23018471 0.12120748 0.24833141
v 0.22330549 0.12190345 0.25520262
v 0.21692678 0.12294742 0.26945461
v 0.21647758 0.12309656 0.27182729
v 0.21643908 0.12185374 0.26206587
v 0.23416339 0.12064821 0.27182729
v 0.24978285 0.11800101 0.24833141
v 0.24391753 0.11984038 0.24833141
v 0.23705113 0.11929354 0.24146019
v 0.24391753 0.11882127 0.24146019
v 0.21465508 0.10097442 0.19048743
v 0.21465508 0.11997709 0.25520262
v 0.21465508 0.12149332 0.26206587
v 0.21465508 0.12246272 0.26929537
v 0.21465508 0.12256215 0.27018712
v 0.21465508 0.12269886 0.27142123
v 0.21465508 0.12273614 0.27182729
v 0.23705113 0.11957939 0.27182729
v 0.28179185 0.10312450 0.23913529
v 0.28179185 0.10312450 0.23782952
v 0.25286311 0.11619892 0.24146019
v 0.24942350 0.11771517 0.24146019
v 0.24016989 0.11827443 0.27182729
v 0.25079678 0.11419799 0.26893708
v 0.25779153 0.11111581 0.26837178
v 0.31733032 0.08309029 0.27182729
v 0.31774103 0.08327672 0.26893708
v 0.30867994 0.08908067 0.25520262
v 0.30561252 0.09118103 0.24833141
v 0.29556318 0.09622686 0.24505902
v 0.23705113 0.11756603 0.23634062
v 0.24391753 0.11734232 0.23669095
v 0.24805020 0.11705647 0.23743938
v 0.25079678 0.09490948 0.19048743
v 0.21465508 -0.00328546 0.19048743
v 0.24391753 0.11401157 0.22772573
v 0.25766318 0.10360919 0.20294797
v 0.26209104 0.10337306 0.20329034
v 0.21465508 -0.00328546 0.27182729
v 0.26857242 0.10341034 0.20942108
v 0.29556318 0.09622686 0.24384083
v 0.29825840 0.09478520 0.24151593
v 0.29530650 0.09613987 0.23926268
v 0.29425408 0.09566760 0.23458898
v 0.24829406 0.11476969 0.27182729
v 0.31834425 0.08260559 0.27182729
v 0.32669944 0.07836759 0.27182729
v 0.32118066 0.08152435 0.26893708
v 0.33062677 0.07634180 0.27182729
v 0.30905215 0.08925467 0.24833141
v 0.26443975 0.10390747 0.20712006
v 0.25754767 0.09351753 0.19048743
v 0.24591970 -0.00328546 0.19048743
v 0.26667293 0.10255280 0.20484293
v 0.26440124 0.09957004 0.20029662
v 0.30893664 -0.00328546 0.27182729
v 0.27162701 0.09976889 0.20674585
v 0.29919531 0.09213800 0.23450140
v 0.29682095 0.09067148 0.22772573
v 0.30468844 0.09103189 0.24146019
v 0.32938184 0.07698806 0.27182729
v 0.33185888 0.07490013 0.27182729
v 0.33054978 0.07629209 0.27028266
v 0.31679129 0.08318972 0.24986011
v 0.26672427 0.09546875 0.19730290
v 0.26257876 0.09073361 0.19048743
v 0.28498763 -0.00328546 0.23506670
v 0.28170202 0.02072576 0.19048743
v 0.28879945 0.02046477 0.19649875
v 0.31056659 0.01969422 0.21640376
v 0.31276129 0.01852598 0.22075898
v 0.27466877 0.09591616 0.20407061
v 0.27008689 0.09796681 0.20188902
v 0.29021124 -0.00328546 0.24189811
v 0.31684263 0.01984336 0.22298834
v 0.32776471 0.01541893 0.27182729
v 0.30319965 0.09013706 0.23673076
v 0.31691964 0.07642880 0.23718460
v 0.29558886 0.08947837 0.22411894
v 0.30811523 0.08809884 0.24146019
v 0.33709531 0.06789065 0.27182729
v 0.34249861 0.06023490 0.26893708
v 0.33750601 0.06279510 0.25689853
v 0.32915082 0.07475099 0.26206587
v 0.32447910 0.07703778 0.25520262
v 0.32349085 0.07619266 0.25048911
v 0.31589287 0.08228246 0.24528196
v 0.26622373 0.08777571 0.19048743
v 0.28249775 0.02140931 0.19048743
v 0.28484646 0.02345996 0.19048743
v 0.28854277 0.02787196 0.19048743
v 0.31514848 0.02281369 0.21840222
v 0.26986871 0.08430825 0.19048743
v 0.29005721 0.06272053 0.19048743
v 0.26691679 0.08711702 0.19048743
v 0.31758702 0.02467792 0.22075898
v 0.33559371 0.03716822 0.24112579
v 0.33662045 0.03447131 0.24515457
v 0.33560652 0.02904020 0.25520262
v 0.33114016 0.01894853 0.27182729
v 0.31810040 0.07780832 0.24146019
v 0.33632526 0.06141558 0.25232037
v 0.33799373 0.05684201 0.25023433
v 0.29553752 0.06194998 0.19660225
v 0.33913599 0.06515645 0.27182729
v 0.34267829 0.05997391 0.27182729
v 0.34378205 0.05797297 0.27182729
v 0.34438526 0.05680473 0.26893708
v 0.34421841 0.05587261 0.26371400
v 0.33922584 0.05884294 0.25484433
v 0.28887646 0.02850579 0.19048743
v 0.31608540 0.02738726 0.21739105
v 0.29131500 0.06063260 0.19048743
v 0.33746752 0.03904488 0.24318795
v 0.34477030 0.04575609 0.26206587
v 0.33735201 0.03247038 0.25520262
v 0.33633808 0.02799624 0.26206587
v 0.33306531 0.02111103 0.27182729
v 0.34334567 0.05425695 0.25913585
v 0.34237026 0.05179617 0.25542555
v 0.33864827 0.05146062 0.24810051
v 0.33714667 0.04912412 0.24419912
v 0.29244442 0.05840796 0.19048743
v 0.34417991 0.05653131 0.27182729
v 0.34575855 0.05153518 0.26893708
v 0.34493715 0.05179617 0.26168369
v 0.28941551 0.03045701 0.19048743
v 0.29603806 0.03264437 0.19620415
v 0.31616241 0.03092929 0.21729551
v 0.33518298 0.04466241 0.23966078
v 0.33192305 0.03780206 0.23613361
v 0.30304565 0.03301722 0.20297186
v 0.30014507 0.03780206 0.19895901
v 0.30350769 0.03780206 0.20239063
v 0.33762152 0.04466241 0.24310037
v 0.34396171 0.04702376 0.25786989
v 0.34489865 0.04512225 0.26893708
v 0.34333283 0.04169208 0.26893708
v 0.33798089 0.03142641 0.26206587
v 0.34014992 0.03470745 0.27182729
v 0.33578621 0.02598287 0.27182729
v 0.34396171 0.04967096 0.25786989
v 0.29327866 0.05153518 0.19048743
v 0.34509117 0.05182103 0.27182729
v 0.34474462 0.04821686 0.27182729
v 0.34442375 0.04578094 0.27182729
v 0.29137917 0.03780206 0.19048743
v 0.29309898 0.03780206 0.19211168
v 0.29670544 0.03780206 0.19554330
v 0.30694730 0.03780206 0.20635571
v 0.29204655 0.04036226 0.19048743
v 0.29290646 0.04647692 0.19048743
v 0.34253710 0.04005156 0.27182729
f 1 2 6
f 1 6 15
f 1 15 28
f 1 28 50
f 1 50 67
f 1 67 87
f 1 87 111
f 1 111 129
f 1 129 152
f 1 152 151
f 1 151 164
f 1 164 157
f 1 157 156
f 1 156 155
f 1 155 135
f 1 135 118
f 1 118 117
f 1 117 116
f 1 116 92
f 1 92 73
f 1 73 60
f 1 60 72
f 1 72 58
f 1 58 57
f 1 57 37
f 1 37 56
f 1 56 34
f 1 34 29
f 1 29 17
f 1 17 8
f 1 8 3
f 1 3 4
f 1 4 5
f 1 5 2
f 2 5 7
f 2 7 6
f 3 8 9
f 3 9 10
f 3 10 4
f 4 10 5
f 5 10 11
f 5 11 12
f 5 12 13
f 5 13 7
f 6 14 15
f 6 7 14
f 7 13 16
f 7 16 14
f 8 17 18
f 8 18 10
f 8 10 9
f 10 18 19
f 10 19 11
f 11 20 12
f 11 19 21
f 11 21 20
f 12 20 22
f 12 22 13
f 13 22 23
f 13 23 24
f 13 24 16
f 14 16 24
f 14 24 25
f 14 25 26
f 14 26 27
f 14 27 15
f 15 27 28
f 17 29 18
f 18 30 31
f 18 31 32
f 18 32 33
f 18 33 19
f 18 29 34
f 18 34 35
f 18 35 36
f 18 36 37
f 18 37 38
f 18 38 39
f 18 39 40
f 18 40 41
f 18 41 30
f 19 33 21
f 20 42 22
f 20 21 43
f 20 43 42
f 21 33 44
f 21 44 43
f 22 45 63
f 22 63 77
f 22 77 99
f 22 99 106
f 22 106 104
f 22 104 105
f 22 105 124
f 22 124 134
f 22 134 154
f 22 154 163
f 22 163 162
f 22 162 158
f 22 158 138
f 22 138 122
f 22 122 102
f 22 102 101
f 22 101 100
f 22 100 79
f 22 79 64
f 22 64 46
f 22 46 50
f 22 50 28
f 22 28 27
f 22 27 26
f 22 26 25
f 22 25 24
f 22 24 23
f 22 42 47
f 22 47 48
f 22 48 49
f 22 49 45
f 30 41 52
f 30 52 31
f 31 51 33
f 31 33 32
f 31 52 53
f 31 53 54
f 31 54 55
f 31 55 51
f 33 51 44
f 34 56 35
f 35 56 36
f 36 56 37
f 37 57 38
f 38 57 58
f 38 58 59
f 38 59 39
f 39 59 60
f 39 60 40
f 40 60 61
f 40 61 53
f 40 53 52
f 40 52 41
f 42 43 47
f 43 44 49
f 43 49 47
f 44 51 62
f 44 62 49
f 45 49 63
f 46 64 78
f 46 78 85
f 46 85 67
f 46 67 50
f 47 49 48
f 49 62 65
f 49 65 66
f 49 66 63
f 51 68 65
f 51 65 62
f 51 55 69
f 51 69 70
f 51 70 68
f 53 61 71
f 53 71 54
f 54 71 55
f 55 71 69
f 58 72 59
f 59 72 60
f 60 73 74
f 60 74 61
f 61 74 75
f 61 75 71
f 63 66 76
f 63 76 77
f 64 79 80
f 64 80 81
f 64 81 82
f 64 82 78
f 65 68 83
f 65 83 84
f 65 84 66
f 66 84 76
f 67 85 86
f 67 86 87
f 68 70 83
f 69 71 88
f 69 88 70
f 70 88 89
f 70 89 90
f 70 90 83
f 71 75 91
f 71 91 88
f 73 92 93
f 73 93 74
f 74 93 94
f 74 94 95
f 74 95 75
f 75 95 96
f 75 96 97
f 75 97 98
f 75 98 91
f 76 84 99
f 76 99 77
f 78 82 86
f 78 86 85
f 79 100 80
f 80 100 101
f 80 101 81
f 81 101 102
f 81 102 103
f 81 103 86
f 81 86 82
f 83 104 84
f 83 90 89
f 83 89 105
f 83 105 104
f 84 104 106
f 84 106 99
f 86 103 107
f 86 107 108
f 86 108 109
f 86 109 110
f 86 110 111
f 86 111 87
f 88 91 89
f 89 112 113
f 89 113 114
f 89 114 115
f 89 115 105
f 89 91 112
f 91 98 112
f 92 116 93
f 93 116 117
f 93 117 118
f 93 118 119
f 93 119 120
f 93 120 94
f 94 120 121
f 94 121 113
f 94 113 112
f 94 112 97
f 94 97 95
f 95 97 96
f 97 112 98
f 102 122 103
f 103 123 107
f 103 122 123
f 105 115 124
f 107 123 108
f 108 125 109
f 108 123 125
f 109 125 126
f 109 126 127
f 109 127 128
f 109 128 110
f 110 128 129
f 110 129 111
f 113 121 114
f 114 121 130
f 114 130 131
f 114 131 132
f 114 132 133
f 114 133 115
f 115 134 124
f 115 133 134
f 118 135 119
f 119 135 136
f 119 136 120
f 120 136 137
f 120 137 130
f 120 130 121
f 122 138 139
f 122 139 123
f 123 140 141
f 123 141 142
f 123 142 125
f 123 139 143
f 123 143 144
f 123 144 145
f 123 145 140
f 125 146 147
f 125 147 126
f 125 142 141
f 125 141 146
f 126 147 137
f 126 137 136
f 126 136 148
f 126 148 149
f 126 149 150
f 126 150 127
f 127 150 128
f 128 150 149
f 128 149 151
f 128 151 152
f 128 152 129
f 130 137 153
f 130 153 131
f 131 153 146
f 131 146 132
f 132 146 133
f 133 146 141
f 133 141 134
f 134 141 154
f 135 155 136
f 136 155 156
f 136 156 157
f 136 157 148
f 137 147 153
f 138 158 159
f 138 159 139
f 139 159 160
f 139 160 143
f 140 145 161
f 140 161 141
f 141 161 154
f 143 160 144
f 144 160 162
f 144 162 163
f 144 163 145
f 145 163 154
f 145 154 161
f 146 153 147
f 148 157 164
f 148 164 151
f 148 151 149
f 158 162 159
f 159 162 160

