# https://github.com/mikedh/trimesh
v 0.19070171 0.03173770 0.27182729
v 0.19070171 0.12125419 0.27182729
v 0.27328329 0.03173770 0.27182729
v 0.19070171 0.03173770 0.43754693
v 0.21953857 0.12371096 0.27209667
v 0.21927180 0.12363073 0.27182729
v 0.19070171 0.12377112 0.31955818
v 0.23017758 0.13283607 0.37200323
v 0.23704118 0.13415972 0.37887244
v 0.27328329 0.10149979 0.27182729
v 0.27328329 0.03173770 0.40198867
v 0.21643419 0.03173770 0.43699131
v 0.19070171 0.04619751 0.44054377
v 0.22015298 0.12371096 0.27209667
v 0.21987003 0.12366081 0.27182729
v 0.23704118 0.13351795 0.37200323
v 0.19070171 0.12575659 0.38399067
v 0.23017758 0.13315697 0.37887244
v 0.23704118 0.13412963 0.38574165
v 0.24391289 0.13399928 0.38574165
v 0.24391289 0.13346782 0.37887244
v 0.23017758 0.13330737 0.39261086
v 0.27328329 0.12140460 0.38574165
v 0.25954801 0.10921103 0.27182729
v 0.26057472 0.13022890 0.39261086
v 0.27328329 0.03266024 0.40219071
v 0.22393646 0.03173770 0.43525718
v 0.22350798 0.03173770 0.43550974
v 0.20269079 0.07214898 0.44317023
v 0.19582720 0.07214898 0.44364165
v 0.19070171 0.06702487 0.44318708
v 0.22041977 0.12366081 0.27182729
v 0.19070171 0.12577664 0.38574165
v 0.23704118 0.13403939 0.39261086
v 0.24391289 0.13373857 0.39261086
v 0.25078457 0.13298650 0.39948006
v 0.25078457 0.13315697 0.39261086
v 0.25713887 0.13183332 0.39261086
v 0.25618492 0.13140213 0.38712222
v 0.23017758 0.12198621 0.27182729
v 0.22750165 0.12258786 0.27182729
v 0.22330587 0.13187343 0.39261086
v 0.23017758 0.13259541 0.39948006
v 0.23704118 0.13368842 0.39948006
v 0.27328329 0.12221684 0.39042214
v 0.25649211 0.11086558 0.27182729
v 0.27328329 0.12232715 0.39247616
v 0.25667806 0.13180323 0.39948006
v 0.26010582 0.12982780 0.39948006
v 0.27328329 0.12234720 0.39806582
v 0.27328329 0.03779438 0.40315037
v 0.25614450 0.07901789 0.41847140
v 0.25226400 0.09962463 0.42210804
v 0.27328329 0.03998040 0.40347026
v 0.27328329 0.05113110 0.40503604
v 0.27328329 0.05841115 0.40582735
v 0.20956250 0.07214898 0.44113305
v 0.24882816 0.09962463 0.42397688
v 0.20269079 0.07901789 0.44251362
v 0.19070171 0.08587678 0.44360798
v 0.19582720 0.07901789 0.44349012
v 0.19070171 0.07854659 0.44382686
v 0.19070171 0.07214898 0.44370902
v 0.19070171 0.12518501 0.39085988
v 0.24391289 0.13341768 0.39948006
v 0.24391289 0.13259541 0.40634927
v 0.25138282 0.13192357 0.40698906
v 0.25556242 0.13136202 0.40510339
v 0.24827842 0.11477636 0.27182729
v 0.24016174 0.11827598 0.27182729
v 0.23704118 0.11957958 0.27182729
v 0.23415508 0.12065253 0.27182729
v 0.19070171 0.12494435 0.39271187
v 0.19070171 0.11918850 0.42705792
v 0.19070171 0.11767433 0.43333784
v 0.23729180 0.13176313 0.40656813
v 0.27328329 0.12213662 0.39948006
v 0.24812482 0.10389640 0.42382535
v 0.27328329 0.11336245 0.40808341
v 0.26887734 0.11747377 0.41025529
v 0.20956250 0.07901789 0.44025757
v 0.19070171 0.10636319 0.43988716
v 0.19070171 0.10120899 0.44099836
v 0.19070171 0.09275572 0.44271567
v 0.23704118 0.10649354 0.42688954
v 0.24391289 0.13115144 0.41069304
v 0.24949916 0.13114141 0.41070987
v 0.25408298 0.13048962 0.40968286
v 0.19070171 0.11615013 0.43603165
v 0.27328329 0.12019126 0.40377332
v 0.24168968 0.11148729 0.42414524
v 0.25410724 0.12334996 0.41660257
v 0.27328329 0.11396411 0.40791505
v 0.27328329 0.11943919 0.40533910
v 0.19070171 0.10820827 0.43948310
v 0.19070171 0.11260036 0.43823721
v 0.24952341 0.12473377 0.41742755
v 0.25180319 0.12761169 0.41365622
v 0.19111401 0.11577911 0.43648623
v 0.19070171 0.11534792 0.43687347
f 1 2 6
f 1 6 15
f 1 15 32
f 1 32 41
f 1 41 40
f 1 40 72
f 1 72 71
f 1 71 70
f 1 70 69
f 1 69 46
f 1 46 24
f 1 24 10
f 1 10 3
f 1 3 11
f 1 11 27
f 1 27 28
f 1 28 12
f 1 12 4
f 1 4 13
f 1 13 31
f 1 31 63
f 1 63 62
f 1 62 60
f 1 60 84
f 1 84 83
f 1 83 82
f 1 82 95
f 1 95 96
f 1 96 100
f 1 100 89
f 1 89 75
f 1 75 74
f 1 74 73
f 1 73 64
f 1 64 33
f 1 33 17
f 1 17 7
f 1 7 2
f 2 5 6
f 2 7 8
f 2 8 9
f 2 9 5
f 3 10 23
f 3 23 45
f 3 45 47
f 3 47 50
f 3 50 77
f 3 77 90
f 3 90 94
f 3 94 93
f 3 93 79
f 3 79 56
f 3 56 55
f 3 55 54
f 3 54 51
f 3 51 26
f 3 26 11
f 4 12 13
f 5 14 32
f 5 32 15
f 5 15 6
f 5 9 16
f 5 16 14
f 7 17 18
f 7 18 8
f 8 18 9
f 9 19 20
f 9 20 21
f 9 21 16
f 9 18 22
f 9 22 19
f 10 24 25
f 10 25 23
f 11 26 27
f 12 28 29
f 12 29 30
f 12 30 13
f 13 30 31
f 14 16 32
f 16 21 32
f 17 33 18
f 18 33 22
f 19 22 34
f 19 34 20
f 20 34 35
f 20 35 36
f 20 36 37
f 20 37 21
f 21 37 38
f 21 38 39
f 21 39 40
f 21 40 41
f 21 41 32
f 22 42 43
f 22 43 44
f 22 44 34
f 22 33 42
f 23 25 45
f 24 46 25
f 25 47 45
f 25 46 39
f 25 39 38
f 25 38 48
f 25 48 49
f 25 49 50
f 25 50 47
f 26 51 27
f 27 52 53
f 27 53 28
f 27 51 54
f 27 54 55
f 27 55 56
f 27 56 52
f 28 57 29
f 28 53 58
f 28 58 57
f 29 57 59
f 29 59 60
f 29 60 61
f 29 61 30
f 30 61 62
f 30 62 63
f 30 63 31
f 33 64 43
f 33 43 42
f 34 44 65
f 34 65 35
f 35 65 36
f 36 48 37
f 36 65 66
f 36 66 67
f 36 67 68
f 36 68 48
f 37 48 38
f 39 46 69
f 39 69 70
f 39 70 71
f 39 71 72
f 39 72 40
f 43 64 73
f 43 73 74
f 43 74 75
f 43 75 44
f 44 75 76
f 44 76 66
f 44 66 65
f 48 68 49
f 49 77 50
f 49 68 77
f 52 56 53
f 53 78 58
f 53 56 79
f 53 79 80
f 53 80 78
f 57 81 59
f 57 58 78
f 57 78 81
f 59 82 83
f 59 83 84
f 59 84 60
f 59 81 78
f 59 78 85
f 59 85 82
f 60 62 61
f 66 76 75
f 66 75 86
f 66 86 87
f 66 87 67
f 67 87 88
f 67 88 68
f 68 88 77
f 75 89 86
f 77 88 90
f 78 91 85
f 78 80 92
f 78 92 91
f 79 93 80
f 80 93 94
f 80 94 92
f 82 85 95
f 85 91 96
f 85 96 95
f 86 89 87
f 87 97 98
f 87 98 88
f 87 89 99
f 87 99 97
f 88 98 92
f 88 92 94
f 88 94 90
f 89 100 99
f 91 92 96
f 92 98 97
f 92 97 96
f 96 97 100
f 97 99 100

