# https://github.com/mikedh/trimesh
v 0.25078457 -0.13532488 0.27182729
v 0.20269079 -0.13420962 0.27182729
v 0.25366259 -0.13523909 0.27182729
v 0.25078457 -0.13478440 0.28956756
v 0.20269079 -0.13398657 0.27581554
v 0.19582720 -0.13324021 0.27581554
v 0.19582720 -0.13333458 0.27182729
v 0.25765626 -0.13507609 0.27182729
v 0.25765626 -0.13414957 0.29643530
v 0.25765626 -0.13361768 0.30330304
v 0.25765626 -0.13303432 0.31017078
v 0.25078457 -0.13418389 0.29643530
v 0.19070171 -0.12948267 0.32425377
v 0.26053429 -0.13494741 0.27182729
v 0.19070171 -0.13245954 0.27581554
v 0.19070171 -0.13248527 0.27182729
v 0.26452797 -0.13331742 0.30330304
v 0.26452797 -0.13273406 0.31017078
v 0.25078457 -0.12279116 0.39948445
v 0.25078457 -0.12594818 0.37199696
v 0.24391289 -0.12509887 0.37886469
v 0.19070171 -0.12856474 0.33079054
v 0.24659688 -0.12378630 0.39038264
v 0.24391289 -0.12241369 0.39948445
v 0.26452797 -0.13453562 0.27182729
v 0.26452797 -0.13438978 0.27581554
v 0.19070171 -0.04768321 0.27182729
v 0.27084182 -0.13171317 0.30330304
v 0.26975045 -0.13142150 0.31017078
v 0.27139156 -0.13291421 0.28269983
v 0.26810932 -0.13061508 0.32072889
v 0.25765626 -0.12215632 0.39948445
v 0.25078457 -0.12152149 0.40635219
v 0.24391289 -0.12115260 0.40635219
v 0.19070171 -0.12648007 0.34452601
v 0.26740598 -0.13396083 0.27182729
v 0.27328329 -0.04768321 0.27182729
v 0.19070171 -0.04768321 0.42915640
v 0.27328329 -0.13225364 0.28269983
v 0.27328329 -0.13092392 0.30083727
v 0.27328329 -0.13035772 0.30482552
v 0.26452797 -0.12167590 0.39261672
v 0.27139156 -0.13301716 0.27581554
v 0.27328329 -0.13231369 0.27871157
v 0.25765626 -0.12064644 0.40635219
v 0.25078457 -0.11924809 0.41321992
v 0.24391289 -0.11753231 0.41873068
v 0.23704118 -0.11748084 0.41873068
v 0.23212591 -0.11718058 0.41783703
v 0.19070171 -0.12604255 0.34666080
v 0.27162602 -0.13247670 0.27182729
v 0.27328329 -0.13177323 0.27182729
v 0.27328329 -0.04768321 0.37361873
v 0.19070171 -0.07719450 0.42955357
v 0.19215689 -0.07444068 0.43054649
v 0.19509959 -0.04768321 0.43102640
v 0.27328329 -0.12899367 0.30959157
v 0.27158560 -0.11336299 0.39261672
v 0.26962919 -0.11875909 0.39261672
v 0.26895818 -0.11793552 0.39804471
v 0.26507769 -0.11943682 0.39999747
v 0.27328329 -0.13195338 0.27346562
v 0.27328329 -0.13221075 0.27581554
v 0.26331531 -0.11831299 0.40635219
v 0.26198948 -0.11740363 0.41120099
v 0.25759159 -0.11810709 0.41338541
v 0.25526330 -0.11711195 0.41748950
v 0.25078457 -0.11736931 0.41818456
v 0.24391289 -0.11624548 0.42217281
v 0.23704118 -0.11627980 0.42215626
v 0.22997548 -0.11611680 0.42012077
v 0.22330587 -0.11503586 0.42008768
v 0.19070171 -0.11044617 0.41763845
v 0.19070171 -0.11135553 0.41358400
v 0.19070171 -0.12511603 0.35114551
v 0.24745382 -0.04768321 0.43014932
v 0.24739724 -0.04793200 0.43049683
v 0.26092235 -0.07653392 0.41628145
v 0.26743025 -0.09275656 0.40795742
v 0.27078525 -0.10649132 0.39948445
v 0.27192513 -0.10649132 0.39261672
v 0.27328329 -0.08786660 0.36686684
v 0.19070171 -0.07856712 0.42955357
v 0.19215689 -0.07746902 0.43054649
v 0.19517237 -0.07946790 0.43173799
v 0.19529363 -0.07215013 0.43177108
v 0.19653053 -0.04768321 0.43160561
v 0.27328329 -0.12867625 0.31041901
v 0.27222425 -0.11336299 0.37886469
v 0.26972619 -0.11373188 0.39999747
v 0.26773744 -0.11627122 0.40262873
v 0.26325871 -0.11359462 0.41338541
v 0.26186013 -0.11146706 0.41785357
v 0.25984711 -0.11604817 0.41576844
v 0.25573220 -0.11155285 0.42526743
v 0.25078457 -0.11597096 0.42161015
v 0.25078457 -0.11253084 0.42644238
v 0.23476140 -0.11055769 0.43099329
v 0.23017758 -0.11071212 0.43114224
v 0.23017758 -0.11344877 0.42697196
v 0.22330587 -0.11267667 0.42697196
v 0.20956250 -0.11095232 0.42571425
v 0.19582720 -0.11086654 0.41897890
v 0.20400856 -0.11037754 0.42447309
v 0.19943281 -0.10988854 0.42343051
v 0.19070171 -0.11035180 0.41783703
v 0.24715469 -0.04768321 0.43074507
v 0.25464081 -0.09399191 0.43081125
v 0.25589388 -0.07902179 0.42586318
v 0.25958034 -0.07890169 0.41967394
v 0.26132656 -0.08111504 0.41710889
v 0.26477858 -0.09275656 0.41321992
v 0.26750300 -0.09961964 0.40865247
v 0.26861864 -0.09961964 0.40522687
v 0.26873181 -0.10649132 0.40478006
v 0.26845695 -0.11169011 0.40430014
v 0.27328329 -0.09140110 0.36359019
v 0.19070171 -0.08051452 0.42938807
v 0.19245602 -0.08205013 0.43036445
v 0.20269079 -0.07902179 0.43445199
v 0.20269079 -0.07215013 0.43448508
v 0.19879414 -0.10344583 0.43076162
v 0.22330587 -0.04768321 0.43994618
v 0.27328329 -0.12275684 0.32574316
v 0.27328329 -0.11978855 0.33254471
v 0.26678349 -0.11373188 0.40650113
v 0.26224009 -0.10649132 0.41869757
v 0.26021901 -0.10649132 0.42213972
v 0.25650829 -0.10640553 0.42731947
v 0.26501302 -0.10649132 0.41321992
v 0.25461656 -0.10405492 0.43074507
v 0.25078457 -0.10873040 0.42988453
v 0.25078457 -0.10529027 0.43119188
v 0.21991854 -0.08935932 0.43728184
v 0.22330587 -0.10649132 0.43244960
v 0.22330587 -0.11038612 0.43084436
v 0.21870588 -0.11012018 0.43059612
v 0.21642610 -0.11137269 0.42745187
v 0.21413016 -0.10942529 0.43006657
v 0.20956250 -0.10876472 0.42913983
v 0.20210872 -0.10812988 0.42683957
v 0.19582720 -0.10918508 0.42240450
v 0.19070171 -0.10782962 0.42114678
v 0.24129356 -0.04768321 0.43791068
v 0.25483482 -0.09961964 0.43096020
v 0.25761584 -0.09961964 0.42697196
v 0.25637085 -0.09212172 0.42763391
v 0.26043728 -0.09961964 0.42222246
v 0.26516662 -0.09961964 0.41321992
v 0.26729281 -0.10649132 0.40820565
v 0.19070171 -0.08398038 0.42902400
v 0.20269079 -0.08589346 0.43372385
v 0.20956250 -0.08589346 0.43559386
v 0.19070171 -0.09979123 0.42649204
v 0.19070171 -0.10394339 0.42508539
v 0.19070171 -0.10447529 0.42485371
v 0.19070171 -0.10657711 0.42260309
v 0.20269079 -0.10427797 0.43125808
v 0.21974877 -0.08935932 0.43728184
v 0.22715404 -0.04768321 0.44049229
v 0.25078457 -0.09961964 0.43226756
v 0.23017758 -0.05153512 0.44049229
v 0.23017758 -0.04768321 0.44088946
v 0.23704118 -0.04768321 0.43971450
v 0.24133398 -0.05153512 0.43789414
v 0.23704118 -0.05153512 0.43951592
f 1 2 7
f 1 7 16
f 1 16 27
f 1 27 37
f 1 37 52
f 1 52 51
f 1 51 36
f 1 36 25
f 1 25 14
f 1 14 8
f 1 8 3
f 1 3 4
f 1 4 2
f 2 5 6
f 2 6 7
f 2 4 5
f 3 8 4
f 4 9 10
f 4 10 11
f 4 11 12
f 4 12 13
f 4 13 5
f 4 8 14
f 4 14 9
f 5 13 6
f 6 15 7
f 6 13 15
f 7 15 16
f 9 17 10
f 9 14 17
f 10 17 18
f 10 18 11
f 11 13 12
f 11 18 19
f 11 19 20
f 11 20 21
f 11 21 13
f 13 22 35
f 13 35 50
f 13 50 75
f 13 75 74
f 13 74 73
f 13 73 106
f 13 106 143
f 13 143 157
f 13 157 156
f 13 156 155
f 13 155 154
f 13 154 151
f 13 151 118
f 13 118 83
f 13 83 54
f 13 54 38
f 13 38 27
f 13 27 16
f 13 16 15
f 13 21 23
f 13 23 24
f 13 24 22
f 14 25 26
f 14 26 17
f 17 28 29
f 17 29 18
f 17 26 30
f 17 30 28
f 18 29 31
f 18 31 32
f 18 32 19
f 19 32 33
f 19 33 34
f 19 34 24
f 19 24 23
f 19 23 21
f 19 21 20
f 22 24 35
f 24 34 35
f 25 36 30
f 25 30 26
f 27 38 56
f 27 56 87
f 27 87 123
f 27 123 160
f 27 160 163
f 27 163 164
f 27 164 144
f 27 144 107
f 27 107 76
f 27 76 53
f 27 53 37
f 28 30 39
f 28 39 40
f 28 40 29
f 29 40 41
f 29 41 42
f 29 42 31
f 30 36 43
f 30 43 44
f 30 44 39
f 31 42 32
f 32 42 45
f 32 45 33
f 33 45 46
f 33 46 47
f 33 47 48
f 33 48 34
f 34 48 49
f 34 49 35
f 35 49 50
f 36 51 43
f 37 53 82
f 37 82 117
f 37 117 125
f 37 125 124
f 37 124 88
f 37 88 57
f 37 57 41
f 37 41 40
f 37 40 39
f 37 39 44
f 37 44 63
f 37 63 62
f 37 62 52
f 38 54 55
f 38 55 56
f 41 57 58
f 41 58 59
f 41 59 42
f 42 59 60
f 42 60 61
f 42 61 45
f 43 62 63
f 43 63 44
f 43 51 52
f 43 52 62
f 45 64 65
f 45 65 66
f 45 66 67
f 45 67 46
f 45 61 64
f 46 67 68
f 46 68 69
f 46 69 47
f 47 69 70
f 47 70 48
f 48 70 71
f 48 71 49
f 49 71 72
f 49 72 73
f 49 73 74
f 49 74 75
f 49 75 50
f 53 76 77
f 53 77 78
f 53 78 79
f 53 79 80
f 53 80 81
f 53 81 82
f 54 83 84
f 54 84 55
f 55 84 85
f 55 85 86
f 55 86 56
f 56 86 87
f 57 88 89
f 57 89 58
f 58 81 80
f 58 80 90
f 58 90 60
f 58 60 59
f 58 89 81
f 60 90 91
f 60 91 65
f 60 65 64
f 60 64 61
f 65 92 93
f 65 93 94
f 65 94 67
f 65 67 66
f 65 91 92
f 67 94 95
f 67 95 96
f 67 96 68
f 68 96 69
f 69 96 97
f 69 97 98
f 69 98 99
f 69 99 100
f 69 100 70
f 70 100 101
f 70 101 71
f 71 101 102
f 71 102 72
f 72 103 73
f 72 102 103
f 73 103 102
f 73 102 104
f 73 104 105
f 73 105 106
f 76 107 77
f 77 107 108
f 77 108 109
f 77 109 110
f 77 110 78
f 78 111 79
f 78 110 111
f 79 111 112
f 79 112 113
f 79 113 114
f 79 114 80
f 80 114 113
f 80 113 115
f 80 115 116
f 80 116 90
f 81 89 82
f 82 89 117
f 83 118 119
f 83 119 84
f 84 119 85
f 85 120 121
f 85 121 86
f 85 119 122
f 85 122 120
f 86 121 87
f 87 121 123
f 88 124 89
f 89 124 125
f 89 125 117
f 90 116 91
f 91 116 126
f 91 126 93
f 91 93 92
f 93 127 128
f 93 128 129
f 93 129 95
f 93 95 94
f 93 126 116
f 93 116 130
f 93 130 127
f 95 129 131
f 95 131 132
f 95 132 97
f 95 97 96
f 97 132 98
f 98 133 134
f 98 134 99
f 98 132 133
f 99 134 135
f 99 135 136
f 99 136 100
f 100 136 137
f 100 137 101
f 101 137 138
f 101 138 102
f 102 138 137
f 102 137 139
f 102 139 104
f 104 139 105
f 105 139 140
f 105 140 141
f 105 141 122
f 105 122 142
f 105 142 106
f 106 142 143
f 107 144 108
f 108 144 145
f 108 145 146
f 108 146 147
f 108 147 109
f 109 147 110
f 110 147 148
f 110 148 111
f 111 148 112
f 112 149 113
f 112 148 149
f 113 149 127
f 113 127 130
f 113 130 150
f 113 150 115
f 115 150 116
f 116 150 130
f 118 151 119
f 119 151 122
f 120 122 152
f 120 152 153
f 120 153 123
f 120 123 121
f 122 151 154
f 122 154 155
f 122 155 156
f 122 156 157
f 122 157 143
f 122 143 142
f 122 141 140
f 122 140 139
f 122 139 158
f 122 158 159
f 122 159 153
f 122 153 152
f 123 153 159
f 123 159 160
f 127 148 128
f 127 149 148
f 128 148 146
f 128 146 131
f 128 131 129
f 131 146 145
f 131 145 161
f 131 161 133
f 131 133 132
f 133 161 134
f 134 162 163
f 134 163 159
f 134 159 135
f 134 161 162
f 135 158 137
f 135 137 136
f 135 159 158
f 137 158 139
f 144 164 165
f 144 165 145
f 145 165 164
f 145 164 166
f 145 166 161
f 146 148 147
f 159 163 160
f 161 166 162
f 162 166 163
f 163 166 164

