# https://github.com/mikedh/trimesh
v 0.29262687 0.03091185 0.41031979
v 0.29262687 0.03106142 0.41030624
v 0.27328333 0.11335092 0.40809654
v 0.29260414 0.03091185 0.41031979
v 0.29262687 0.02455504 0.40949286
v 0.29262687 0.03430214 0.40992666
v 0.29201144 0.10649554 0.40072184
v 0.28196378 0.11691571 0.40302643
v 0.27328333 0.11394920 0.40792030
v 0.27328333 0.05838323 0.40583261
v 0.28916907 0.03091185 0.40957419
v 0.29176715 0.02373239 0.40893703
v 0.29262687 -0.03135994 0.39239819
v 0.29262687 0.10649554 0.40039649
v 0.28921832 0.11716499 0.39674981
v 0.27827118 0.11801257 0.40411094
v 0.29262687 0.10709383 0.40020669
v 0.29262687 0.11285234 0.39795633
v 0.27328333 0.11943352 0.40534458
v 0.27328333 0.05110406 0.40503278
v 0.27328333 0.03996095 0.40347379
v 0.27328333 0.03776723 0.40314845
v 0.27328333 0.03265685 0.40219949
v 0.28513940 0.02403154 0.40613085
v 0.28507693 0.01745037 0.40416517
v 0.27328333 -0.08784828 0.36687143
v 0.29262687 -0.03467545 0.39086632
v 0.29023710 0.11771343 0.39261510
v 0.28513940 0.11970772 0.39261510
v 0.27328333 0.12212581 0.39948820
v 0.27827118 0.12020629 0.39948820
v 0.28460729 0.11783807 0.39921708
v 0.29262687 0.11434806 0.39558395
v 0.29262687 0.11621772 0.39261510
v 0.27328333 0.12018137 0.40377204
v 0.27328333 0.03131070 0.40190125
v 0.28139379 0.01991831 0.40310777
v 0.28274585 0.01535636 0.40242995
v 0.27328333 -0.09138814 0.36359077
v 0.29262687 -0.04312627 0.38556575
v 0.29262687 -0.03911275 0.38861594
v 0.29262687 -0.03831503 0.38907686
v 0.29262687 -0.03716832 0.38970045
v 0.27328333 0.02365761 0.39966444
v 0.29262687 0.11674121 0.38574198
v 0.29045297 0.11761372 0.38574198
v 0.28513940 0.11953322 0.38574198
v 0.27827118 0.12125329 0.39261510
v 0.27328333 0.12235015 0.39806477
v 0.27328333 0.03061270 0.40169790
v 0.27328333 -0.11978189 0.33253298
v 0.29262687 -0.04355005 0.38502349
v 0.29262687 0.11599335 0.37857064
v 0.27827118 0.12087936 0.38574198
v 0.27328333 0.12222551 0.39041895
v 0.27328333 0.12232523 0.39246597
v 0.28885852 0.11689079 0.37459860
v 0.27328333 -0.12274840 0.32574122
v 0.27470924 -0.12314725 0.31984417
v 0.29262687 -0.04689049 0.37892310
v 0.29262687 0.11584379 0.37749967
v 0.29149448 0.11554465 0.37218555
v 0.27328333 0.10148486 0.27182729
v 0.27328333 -0.12868141 0.31042245
v 0.27515424 -0.12434383 0.31526209
v 0.28090335 -0.12030538 0.29682534
v 0.29262687 -0.04713978 0.37846218
v 0.29262687 0.11494635 0.37215844
v 0.29262687 0.09258534 0.27182729
v 0.28311132 0.09712236 0.27182729
v 0.27527354 0.10063731 0.27182729
v 0.27328333 -0.13177257 0.27182729
v 0.27328333 -0.12898056 0.30958195
v 0.27428127 -0.13005250 0.30330532
v 0.27573938 -0.12544069 0.31017843
v 0.27661993 -0.12661234 0.30330532
v 0.27703653 -0.12773414 0.29683891
v 0.28172328 -0.12369568 0.27933755
v 0.28218155 -0.11806182 0.29479188
v 0.29262687 -0.04731428 0.37787926
v 0.28916340 -0.09101422 0.29643221
v 0.28934329 -0.09305837 0.28898973
v 0.29089230 -0.08587891 0.28955910
v 0.29262687 -0.03081151 0.27182729
v 0.27334202 -0.13174765 0.27182729
v 0.27328333 -0.13194707 0.27346762
v 0.27328333 -0.13035164 0.30482364
v 0.27469220 -0.13045135 0.29941463
v 0.27954559 -0.12643783 0.28204884
v 0.27512395 -0.13075049 0.29483255
v 0.27588518 -0.13134878 0.28269955
v 0.28172328 -0.12369568 0.27916131
v 0.28939442 -0.09310822 0.28326891
v 0.28859531 -0.09622431 0.28631911
v 0.29262687 -0.04853579 0.37297183
v 0.29209854 -0.07899860 0.28269955
v 0.29222730 -0.07899860 0.27582643
v 0.29111195 -0.08587891 0.28269955
v 0.29262687 -0.05140258 0.28604798
v 0.29259089 -0.07214322 0.27582643
v 0.29154371 -0.06815464 0.27182729
v 0.27508607 -0.13075049 0.27182729
v 0.27567689 -0.13117428 0.27582643
v 0.27328333 -0.13219636 0.27582643
v 0.27328333 -0.13092500 0.30083805
v 0.27328333 -0.13224622 0.28269955
v 0.27328333 -0.13232100 0.27871395
v 0.27938464 -0.12643783 0.27645003
v 0.28129722 -0.12247418 0.27457924
v 0.28210390 -0.11851053 0.27182729
v 0.28409412 -0.11335029 0.27582643
v 0.29094531 -0.08587891 0.27582643
v 0.29262687 -0.04861057 0.37264647
v 0.29002121 -0.08587891 0.27182729
v 0.29102106 -0.07899860 0.27182729
v 0.29262687 -0.05441894 0.28969466
v 0.29262687 -0.05706138 0.29643221
v 0.29262687 -0.05765967 0.30311553
v 0.29262687 -0.05765967 0.30348155
v 0.29262687 -0.05284844 0.35138999
v 0.29262687 -0.05190115 0.35826310
v 0.27775422 -0.12708598 0.27182729
v 0.28108133 -0.12147704 0.27182729
v 0.28337832 -0.11369930 0.27182729
v 0.28895888 -0.09069014 0.27182729
f 1 2 3
f 1 3 4
f 1 4 5
f 1 5 13
f 1 13 27
f 1 27 43
f 1 43 42
f 1 42 41
f 1 41 40
f 1 40 52
f 1 52 60
f 1 60 67
f 1 67 80
f 1 80 95
f 1 95 113
f 1 113 121
f 1 121 120
f 1 120 119
f 1 119 118
f 1 118 117
f 1 117 116
f 1 116 99
f 1 99 84
f 1 84 69
f 1 69 68
f 1 68 61
f 1 61 53
f 1 53 45
f 1 45 34
f 1 34 33
f 1 33 18
f 1 18 17
f 1 17 14
f 1 14 6
f 1 6 2
f 2 6 3
f 3 7 8
f 3 8 9
f 3 9 19
f 3 19 35
f 3 35 30
f 3 30 49
f 3 49 56
f 3 56 55
f 3 55 63
f 3 63 72
f 3 72 86
f 3 86 104
f 3 104 107
f 3 107 106
f 3 106 105
f 3 105 87
f 3 87 73
f 3 73 64
f 3 64 58
f 3 58 51
f 3 51 39
f 3 39 26
f 3 26 44
f 3 44 50
f 3 50 36
f 3 36 23
f 3 23 22
f 3 22 21
f 3 21 20
f 3 20 10
f 3 10 11
f 3 11 4
f 3 6 7
f 4 11 5
f 5 11 12
f 5 12 13
f 6 14 7
f 7 14 8
f 8 15 16
f 8 16 9
f 8 14 17
f 8 17 18
f 8 18 15
f 9 16 19
f 10 20 11
f 11 20 21
f 11 21 22
f 11 22 23
f 11 23 24
f 11 24 12
f 12 24 25
f 12 25 26
f 12 26 13
f 13 26 27
f 15 28 29
f 15 29 30
f 15 30 31
f 15 31 32
f 15 32 16
f 15 18 33
f 15 33 34
f 15 34 28
f 16 32 19
f 19 32 35
f 23 36 24
f 24 37 38
f 24 38 25
f 24 36 37
f 25 38 26
f 26 39 40
f 26 40 41
f 26 41 42
f 26 42 43
f 26 43 27
f 26 38 37
f 26 37 44
f 28 34 45
f 28 45 46
f 28 46 29
f 29 47 48
f 29 48 49
f 29 49 30
f 29 46 47
f 30 35 31
f 31 35 32
f 36 50 37
f 37 50 44
f 39 51 40
f 40 51 52
f 45 53 46
f 46 53 47
f 47 54 55
f 47 55 56
f 47 56 48
f 47 53 57
f 47 57 54
f 48 56 49
f 51 58 59
f 51 59 60
f 51 60 52
f 53 61 62
f 53 62 57
f 54 57 63
f 54 63 55
f 57 62 63
f 58 64 65
f 58 65 59
f 59 65 66
f 59 66 60
f 60 66 67
f 61 68 62
f 62 68 69
f 62 69 70
f 62 70 71
f 62 71 63
f 63 71 70
f 63 70 69
f 63 69 84
f 63 84 101
f 63 101 115
f 63 115 114
f 63 114 125
f 63 125 124
f 63 124 110
f 63 110 123
f 63 123 122
f 63 122 102
f 63 102 85
f 63 85 72
f 64 73 74
f 64 74 65
f 65 74 75
f 65 75 66
f 66 75 76
f 66 76 77
f 66 77 78
f 66 78 79
f 66 79 67
f 67 79 81
f 67 81 82
f 67 82 83
f 67 83 80
f 72 85 86
f 73 87 74
f 74 87 88
f 74 88 77
f 74 77 76
f 74 76 75
f 77 89 78
f 77 88 90
f 77 90 89
f 78 89 91
f 78 91 92
f 78 92 93
f 78 93 94
f 78 94 82
f 78 82 79
f 79 82 81
f 80 83 96
f 80 96 97
f 80 97 95
f 82 94 93
f 82 93 98
f 82 98 83
f 83 98 96
f 84 99 100
f 84 100 101
f 85 102 103
f 85 103 86
f 86 103 104
f 87 105 88
f 88 105 90
f 89 90 91
f 90 105 106
f 90 106 91
f 91 106 107
f 91 107 103
f 91 103 92
f 92 103 108
f 92 108 109
f 92 109 110
f 92 110 111
f 92 111 112
f 92 112 93
f 93 112 98
f 95 97 100
f 95 100 113
f 96 98 97
f 97 98 112
f 97 112 114
f 97 114 115
f 97 115 100
f 99 116 100
f 100 115 101
f 100 116 117
f 100 117 118
f 100 118 119
f 100 119 120
f 100 120 121
f 100 121 113
f 102 122 108
f 102 108 103
f 103 107 104
f 108 122 109
f 109 122 123
f 109 123 110
f 110 124 111
f 111 124 112
f 112 124 125
f 112 125 114

