# https://github.com/mikedh/trimesh
v -0.03142160 -0.07829117 0.42021373
v -0.01544868 -0.09081827 0.42021373
v -0.03142160 -0.07260307 0.43385001
v -0.03142160 0.12752069 0.42021373
v -0.01003781 -0.09365126 0.42021373
v -0.01414498 -0.08973376 0.42388334
v -0.03142160 -0.06994715 0.43950609
v -0.03142160 0.11293525 0.44850397
v -0.03141630 0.12769775 0.42021373
v -0.00414998 -0.09504561 0.42021373
v 0.01030197 -0.09101747 0.43264636
v -0.01030279 -0.09053055 0.42455367
v -0.01030279 -0.08169960 0.43587074
v -0.03142160 -0.06764535 0.44294085
v -0.02509391 0.12672389 0.42021373
v -0.03070086 0.12763134 0.42021373
v -0.03142160 0.10974813 0.45445362
v 0.01030197 -0.09416031 0.42697560
v 0.00114960 -0.09573172 0.42021373
v 0.02271887 -0.09677197 0.42506741
v 0.02271887 -0.09544400 0.42839941
v 0.01717552 -0.09161505 0.43334604
v 0.01717552 -0.08822876 0.43678079
v 0.01030197 -0.08752051 0.43608112
v -0.01030279 -0.07826904 0.43950120
v -0.03142160 -0.06421478 0.44560742
v -0.02476003 0.12663537 0.42021373
v -0.02077475 0.12375812 0.42021373
v -0.02448976 0.12645831 0.42021373
v -0.03142160 0.10527733 0.46009994
v 0.02271887 0.06988717 0.45422367
v 0.02271887 -0.09840978 0.42021373
v 0.02271887 -0.09199131 0.43349283
v 0.02271887 -0.08845007 0.43692759
v -0.03142160 -0.05881441 0.44766730
v -0.01083275 -0.07145217 0.44314633
v -0.01382701 -0.06872985 0.44416405
v 0.02271887 0.07701389 0.42021373
v 0.02271887 0.07210043 0.44758413
v -0.03142160 0.10439202 0.46094149
v 0.02271887 0.06738617 0.45707127
v 0.02271887 -0.08501951 0.43809207
v -0.01347194 -0.06872985 0.44416405
v -0.03142160 -0.05839389 0.44782387
v -0.03091814 -0.05839389 0.44782876
v -0.03142160 0.09912444 0.46555053
v 0.02271887 0.06433186 0.45869081
v -0.03142160 0.09890311 0.46572178
v 0.02271887 -0.07899942 0.43938376
v -0.01717634 -0.05839389 0.44727098
v -0.02404459 -0.05839389 0.44755966
v -0.03142160 0.08586696 0.47019379
v -0.02404459 -0.05151062 0.44865566
v 0.02271887 0.05840030 0.45952747
v -0.03142160 0.09773009 0.46632359
v -0.03142160 0.09275023 0.46884339
v 0.02271887 -0.03778836 0.44567104
v 0.01717552 -0.03778836 0.44659577
v -0.01030279 -0.05839389 0.44662514
v -0.01030279 -0.05151062 0.44767709
v -0.01717634 -0.05151062 0.44830827
f 1 2 3
f 1 3 7
f 1 7 14
f 1 14 26
f 1 26 35
f 1 35 44
f 1 44 52
f 1 52 56
f 1 56 55
f 1 55 48
f 1 48 46
f 1 46 40
f 1 40 30
f 1 30 17
f 1 17 8
f 1 8 4
f 1 4 9
f 1 9 16
f 1 16 15
f 1 15 27
f 1 27 29
f 1 29 28
f 1 28 38
f 1 38 32
f 1 32 19
f 1 19 10
f 1 10 5
f 1 5 2
f 2 5 6
f 2 6 7
f 2 7 3
f 4 8 9
f 5 10 11
f 5 11 12
f 5 12 6
f 6 12 13
f 6 13 14
f 6 14 7
f 8 15 16
f 8 16 9
f 8 17 15
f 10 18 11
f 10 19 20
f 10 20 21
f 10 21 18
f 11 18 21
f 11 21 22
f 11 22 23
f 11 23 24
f 11 24 25
f 11 25 13
f 11 13 12
f 13 25 14
f 14 25 26
f 15 17 27
f 17 28 29
f 17 29 27
f 17 30 31
f 17 31 28
f 19 32 20
f 20 32 38
f 20 38 39
f 20 39 31
f 20 31 41
f 20 41 47
f 20 47 54
f 20 54 57
f 20 57 49
f 20 49 42
f 20 42 34
f 20 34 33
f 20 33 21
f 21 33 22
f 22 33 23
f 23 33 34
f 23 34 26
f 23 26 25
f 23 25 24
f 26 34 36
f 26 36 37
f 26 37 35
f 28 31 39
f 28 39 38
f 30 40 41
f 30 41 31
f 34 42 43
f 34 43 37
f 34 37 36
f 35 37 44
f 37 43 45
f 37 45 44
f 40 46 41
f 41 46 48
f 41 48 47
f 42 49 50
f 42 50 51
f 42 51 45
f 42 45 43
f 44 45 52
f 45 51 53
f 45 53 52
f 47 48 55
f 47 55 56
f 47 56 52
f 47 52 54
f 49 57 58
f 49 58 59
f 49 59 50
f 50 59 60
f 50 60 61
f 50 61 52
f 50 52 53
f 50 53 51
f 52 61 60
f 52 60 58
f 52 58 54
f 54 58 57
f 58 60 59

