# https://github.com/mikedh/trimesh
v -0.12916306 0.17303588 0.09922831
v -0.12710874 0.17297644 0.09922831
v -0.12710874 0.17292547 0.09716554
v -0.13397603 0.17275562 0.09716554
v -0.13397603 0.17290848 0.09922831
v -0.12368977 0.17250932 0.09922831
v -0.12710874 0.17219508 0.09129716
v -0.13397603 0.17166852 0.08806409
v -0.12223708 0.17225453 0.09716554
v -0.05153924 0.16043235 0.04908197
v -0.05840652 0.16072960 0.04221167
v -0.05840652 0.15993126 0.03534140
v -0.18131336 0.17097210 0.09922831
v -0.12233979 0.17223755 0.09922831
v -0.04024049 0.15839404 0.06968440
v -0.04467195 0.15948114 0.06281412
v -0.04467195 0.15960004 0.05595224
v -0.13397603 0.16987651 0.07655468
v -0.13397603 0.17105703 0.08342497
v -0.06527381 0.16027098 0.03534140
v -0.04478934 0.15898005 0.04951978
v -0.05123109 0.15937073 0.04200961
v -0.05341747 0.15881020 0.03534140
v -0.05456202 0.15829213 0.03146002
v -0.05840652 0.15864883 0.03066859
v -0.06527381 0.15887814 0.02985190
v -0.18131336 0.16838175 0.09646671
v -0.18131336 0.08627193 0.09922831
v -0.13465102 0.16699740 0.06900242
v -0.13397603 0.16155341 0.05595224
v -0.13845151 0.15864033 0.05181828
v -0.12427672 0.14492423 0.02424453
v -0.03142160 0.15114956 0.09922831
v -0.04090081 0.15813926 0.07335529
v -0.03680685 0.15706065 0.06968440
v -0.03993235 0.15854691 0.06281412
v -0.04047527 0.15840254 0.05595224
v -0.04095950 0.15821569 0.05210455
v -0.07215577 0.15870829 0.02996978
v -0.04169319 0.15061450 0.03948377
v -0.04800288 0.15128545 0.03181363
v -0.05197945 0.15398620 0.03033181
v -0.05988856 0.15260185 0.02410981
v -0.06527381 0.15368895 0.02305739
v -0.06527381 0.15712859 0.02641675
v -0.03398950 0.15150626 0.05203720
v -0.07215577 0.15740037 0.02653463
v -0.18131336 0.16531579 0.09326733
v -0.03142160 0.08627193 0.09922831
v -0.18131336 0.08627193 0.06117231
v -0.13281681 0.16552812 0.06487689
v -0.09275763 0.15262733 0.02208072
v -0.12022678 0.14580749 0.02286374
v -0.09275763 0.15082683 0.01864560
v -0.09963960 0.14991808 0.02003481
v -0.11626489 0.14399000 0.01834248
v -0.12057895 0.14135719 0.01939493
v -0.12310283 0.13567541 0.01852771
v -0.12525985 0.14084761 0.02299845
v -0.18131336 0.15580369 0.08602658
v -0.18131336 0.16025400 0.08869555
v -0.18131336 0.16495060 0.09289687
v -0.03142160 0.15395223 0.07652100
v -0.03649870 0.15697572 0.06281412
v -0.03142160 0.15438537 0.06968440
v -0.03142160 0.15369744 0.06310880
v -0.03142160 0.15294157 0.06052401
v -0.03142160 0.15190543 0.05748458
v -0.03284495 0.15253391 0.05595224
v -0.03142160 0.14704747 0.04991549
v -0.03354929 0.14522148 0.04443441
v -0.03514872 0.14303030 0.03984580
v -0.04687300 0.14771841 0.03094642
v -0.03142160 0.13734003 0.03913857
v -0.05153924 0.14771841 0.02771336
v -0.05532505 0.14771841 0.02523804
v -0.05875869 0.14771841 0.02362150
v -0.06527381 0.14771841 0.02110406
v -0.07902305 0.14675021 0.01692802
v -0.07902305 0.15018986 0.01849405
v -0.08589035 0.15109860 0.01821620
v -0.07215577 0.15396922 0.02232489
v -0.03142160 0.15107312 0.05595224
v -0.03142160 0.15009643 0.05422625
v -0.03142160 0.08627193 0.03465100
v -0.17597213 0.08627193 0.05802343
v -0.18131336 0.08662864 0.06119758
v -0.12376314 0.13109771 0.01807307
v -0.12376314 0.12910186 0.01807307
v -0.12357238 0.12451567 0.01822462
v -0.09275763 0.14739567 0.01589243
v -0.09963960 0.14647844 0.01635549
v -0.11168669 0.14472040 0.01771945
v -0.10649221 0.14084761 0.01479788
v -0.11372634 0.14135719 0.01665017
v -0.11852463 0.13940381 0.01740792
v -0.12057895 0.13362011 0.01699537
v -0.18131336 0.09182633 0.06221634
v -0.18131336 0.09306629 0.06258678
v -0.18131336 0.09801768 0.06421174
v -0.03142160 0.14396452 0.04599202
v -0.03142160 0.14094104 0.04257372
v -0.03142160 0.14074570 0.04235480
v -0.03142160 0.14062680 0.04222852
v -0.04528824 0.14084761 0.02991924
v -0.03142160 0.13417215 0.03748835
v -0.05153924 0.14084761 0.02678721
v -0.07425411 0.12711452 0.01745002
v -0.08589035 0.14084761 0.01356864
v -0.08589035 0.14766745 0.01595978
v -0.03142160 0.12761560 0.03641066
v -0.07940457 0.08627193 0.02965825
v -0.07902305 0.12137328 0.01731532
v -0.07457693 0.12244339 0.01771104
v -0.12289739 0.08627193 0.03215883
v -0.12085775 0.12692767 0.01686066
v -0.11899419 0.12171300 0.01718902
v -0.09275763 0.14084761 0.01322344
v -0.09963960 0.14084761 0.01375387
v -0.10649221 0.14539983 0.01707957
v -0.11335949 0.13397682 0.01466319
v -0.03142160 0.13378148 0.03738732
v -0.07902305 0.12711452 0.01614501
v -0.08589035 0.13397682 0.01413276
v -0.09275763 0.13397682 0.01366967
v -0.08589035 0.08627193 0.02919518
v -0.08589035 0.09687962 0.02524646
v -0.09963960 0.12024372 0.01611974
v -0.09963960 0.12711452 0.01439375
v -0.11833387 0.10192444 0.02442976
v -0.11997733 0.08627193 0.03113165
v -0.11335949 0.12711452 0.01453689
v -0.11371166 0.11975113 0.01649021
v -0.09963960 0.13397682 0.01345919
v -0.10649221 0.13397682 0.01364443
v -0.10649221 0.12711452 0.01403172
v -0.08628653 0.08627193 0.02916992
v -0.09275763 0.08627193 0.02878262
v -0.10649221 0.12024372 0.01563983
v -0.11271385 0.09963135 0.02410981
v -0.11333014 0.08627193 0.02944776
v -0.11165735 0.11571698 0.01764367
v -0.09999176 0.08627193 0.02862265
v -0.10649221 0.08627193 0.02874895
v -0.10998455 0.09615772 0.02501912
f 1 2 3
f 1 3 4
f 1 4 5
f 1 5 13
f 1 13 28
f 1 28 49
f 1 49 33
f 1 33 14
f 1 14 6
f 1 6 2
f 2 6 3
f 3 7 8
f 3 8 4
f 3 6 9
f 3 9 10
f 3 10 11
f 3 11 12
f 3 12 7
f 4 8 13
f 4 13 5
f 6 14 15
f 6 15 16
f 6 16 17
f 6 17 9
f 7 18 19
f 7 19 8
f 7 12 20
f 7 20 18
f 8 19 13
f 9 17 10
f 10 17 21
f 10 21 22
f 10 22 12
f 10 12 11
f 12 22 23
f 12 23 24
f 12 24 25
f 12 25 26
f 12 26 20
f 13 27 48
f 13 48 62
f 13 62 61
f 13 61 60
f 13 60 100
f 13 100 99
f 13 99 98
f 13 98 87
f 13 87 50
f 13 50 28
f 13 19 18
f 13 18 29
f 13 29 30
f 13 30 31
f 13 31 32
f 13 32 27
f 14 33 34
f 14 34 15
f 15 34 33
f 15 33 35
f 15 35 36
f 15 36 16
f 16 36 17
f 17 36 37
f 17 37 38
f 17 38 21
f 18 20 26
f 18 26 39
f 18 39 29
f 21 38 23
f 21 23 22
f 23 38 24
f 24 40 41
f 24 41 42
f 24 42 43
f 24 43 44
f 24 44 45
f 24 45 25
f 24 38 46
f 24 46 40
f 25 45 26
f 26 45 47
f 26 47 39
f 27 32 48
f 28 50 86
f 28 86 115
f 28 115 131
f 28 131 141
f 28 141 144
f 28 144 143
f 28 143 138
f 28 138 137
f 28 137 126
f 28 126 112
f 28 112 85
f 28 85 49
f 29 51 30
f 29 39 47
f 29 47 51
f 30 51 47
f 30 47 52
f 30 52 31
f 31 53 32
f 31 52 54
f 31 54 55
f 31 55 53
f 32 53 56
f 32 56 57
f 32 57 58
f 32 58 59
f 32 59 60
f 32 60 61
f 32 61 62
f 32 62 48
f 33 49 85
f 33 85 111
f 33 111 122
f 33 122 106
f 33 106 74
f 33 74 104
f 33 104 103
f 33 103 102
f 33 102 101
f 33 101 70
f 33 70 84
f 33 84 83
f 33 83 68
f 33 68 67
f 33 67 66
f 33 66 65
f 33 65 63
f 33 63 35
f 35 64 36
f 35 63 65
f 35 65 64
f 36 64 37
f 37 64 38
f 38 64 66
f 38 66 67
f 38 67 68
f 38 68 69
f 38 69 46
f 40 46 70
f 40 70 71
f 40 71 72
f 40 72 41
f 41 73 43
f 41 43 42
f 41 72 74
f 41 74 73
f 43 73 75
f 43 75 76
f 43 76 77
f 43 77 78
f 43 78 79
f 43 79 44
f 44 79 80
f 44 80 81
f 44 81 82
f 44 82 45
f 45 82 81
f 45 81 47
f 46 69 83
f 46 83 84
f 46 84 70
f 47 81 54
f 47 54 52
f 50 87 88
f 50 88 89
f 50 89 90
f 50 90 86
f 53 55 56
f 54 81 91
f 54 91 92
f 54 92 93
f 54 93 56
f 54 56 55
f 56 93 94
f 56 94 95
f 56 95 96
f 56 96 57
f 57 96 58
f 58 96 97
f 58 97 88
f 58 88 98
f 58 98 99
f 58 99 100
f 58 100 60
f 58 60 59
f 64 65 66
f 68 83 69
f 70 101 71
f 71 101 102
f 71 102 103
f 71 103 72
f 72 103 104
f 72 104 74
f 73 105 75
f 73 74 106
f 73 106 105
f 75 105 76
f 76 105 107
f 76 107 77
f 77 107 85
f 77 85 108
f 77 108 78
f 78 108 109
f 78 109 79
f 79 109 110
f 79 110 80
f 80 110 81
f 81 110 91
f 85 107 105
f 85 105 111
f 85 112 113
f 85 113 114
f 85 114 108
f 86 90 115
f 87 98 88
f 88 97 116
f 88 116 89
f 89 116 90
f 90 116 117
f 90 117 115
f 91 110 118
f 91 118 119
f 91 119 92
f 92 119 94
f 92 94 120
f 92 120 93
f 93 120 94
f 94 119 121
f 94 121 95
f 95 121 96
f 96 121 97
f 97 121 116
f 105 106 122
f 105 122 111
f 108 114 123
f 108 123 109
f 109 123 124
f 109 124 125
f 109 125 118
f 109 118 110
f 112 126 127
f 112 127 113
f 113 127 128
f 113 128 129
f 113 129 124
f 113 124 123
f 113 123 114
f 115 117 130
f 115 130 131
f 116 121 132
f 116 132 117
f 117 132 133
f 117 133 130
f 118 125 134
f 118 134 135
f 118 135 119
f 119 135 121
f 121 135 132
f 124 129 125
f 125 129 136
f 125 136 134
f 126 137 127
f 127 137 138
f 127 138 139
f 127 139 128
f 128 139 129
f 129 139 136
f 130 133 140
f 130 140 141
f 130 141 131
f 132 135 136
f 132 136 139
f 132 139 133
f 133 139 142
f 133 142 140
f 134 136 135
f 138 143 139
f 139 143 144
f 139 144 145
f 139 145 142
f 140 142 145
f 140 145 141
f 141 145 144

