# https://github.com/mikedh/trimesh
v 0.04917732 -0.02367060 0.03335914
v 0.01162267 -0.02367060 0.03886683
v 0.01162267 0.00519297 0.01348462
v 0.01162267 0.00920234 0.01015921
v 0.04917732 -0.00428549 0.01917419
v 0.04917732 -0.02367060 0.27182728
v 0.01162267 -0.02367060 0.27182728
v 0.01162267 0.01077883 0.00922396
v 0.04917732 0.00295473 0.01465371
v 0.04917732 0.15694563 0.27182728
v 0.01162267 0.15447384 0.27182728
v 0.01162267 0.01720161 0.00691176
v 0.04917732 0.00811241 0.01164005
v 0.04917732 0.00462854 0.01366648
v 0.04465900 0.15751007 0.27182728
v 0.04917732 0.15737381 0.27073613
v 0.04465900 0.15766577 0.27143758
v 0.03746424 0.15692617 0.27182728
v 0.03920687 0.15869730 0.26738474
v 0.04465900 0.16037112 0.26205889
v 0.03778777 0.17366432 0.18648379
v 0.03094594 0.17236029 0.18596420
v 0.02463353 0.17088111 0.18596420
v 0.01162267 0.16983011 0.17274050
v 0.01162267 0.02387740 0.00641814
v 0.04917732 0.01700698 0.00971757
v 0.04917732 0.01502176 0.00987344
v 0.04917732 0.01260835 0.01013323
v 0.04917732 0.00914395 0.01127635
v 0.04406342 0.15751007 0.27182728
v 0.04917732 0.15824965 0.26847589
v 0.04465900 0.15893086 0.26800826
v 0.04465900 0.17415089 0.18648379
v 0.04917732 0.15867784 0.26730681
v 0.04917732 0.15980668 0.26205889
v 0.04917732 0.17403411 0.18648379
v 0.04465900 0.17463746 0.17959916
v 0.03778777 0.17401463 0.17959916
v 0.01162267 0.16984957 0.17141554
v 0.04917732 0.02041300 0.00974353
v 0.01162267 0.03092299 0.00737936
v 0.04917732 0.04431351 0.01260132
v 0.04917732 0.17463746 0.18196331
v 0.04917732 0.17481261 0.17959916
v 0.04917732 0.17514350 0.17507869
v 0.04917732 0.17504617 0.16822003
v 0.04917732 0.17391733 0.13164053
v 0.01162267 0.16992742 0.16585587
v 0.01162267 0.03779342 0.00888621
v 0.04917732 0.04699940 0.01322484
v 0.04917732 0.17364486 0.12701613
v 0.01162267 0.16967441 0.16455688
v 0.04917732 0.17335290 0.12467796
v 0.04647515 0.17255492 0.12467796
v 0.01162267 0.04308734 0.01052292
v 0.04465900 0.05153427 0.01426401
v 0.04917732 0.05153427 0.01460174
v 0.01162267 0.16465297 0.14200645
v 0.04917732 0.17224351 0.12007955
v 0.04763322 0.17200995 0.12065111
v 0.04917732 0.08133205 0.02546128
v 0.04917732 0.07821798 0.02426621
v 0.01162267 0.10965065 0.03878889
v 0.01162267 0.16373821 0.13831733
v 0.04917732 0.17165963 0.11872860
v 0.04729867 0.16529524 0.10680389
v 0.01162267 0.15328660 0.11054498
v 0.01162267 0.15640067 0.11719579
v 0.01162267 0.15678994 0.11805312
v 0.01162267 0.15926173 0.12439219
v 0.01162267 0.16177244 0.13153661
v 0.01162267 0.16342680 0.13709628
v 0.04917732 0.09524806 0.03154056
v 0.01162267 0.11329022 0.04107513
v 0.04917732 0.09686349 0.03242386
v 0.04917732 0.16552880 0.10646615
v 0.01162267 0.12364451 0.05271406
v 0.01162267 0.11790295 0.04460836
v 0.04917732 0.11716336 0.04538775
v 0.04917732 0.16455565 0.10493335
v 0.01162267 0.12140627 0.04912884
v 0.01162267 0.12076400 0.04827151
v 0.04917732 0.15824965 0.09573651
v 0.04917732 0.15733489 0.09456743
v 0.04917732 0.12393647 0.05222044
v 0.04917732 0.15990401 0.09799676
f 1 2 3
f 1 3 4
f 1 4 5
f 1 5 9
f 1 9 14
f 1 14 13
f 1 13 29
f 1 29 28
f 1 28 27
f 1 27 26
f 1 26 40
f 1 40 42
f 1 42 50
f 1 50 57
f 1 57 62
f 1 62 61
f 1 61 73
f 1 73 75
f 1 75 79
f 1 79 85
f 1 85 84
f 1 84 83
f 1 83 86
f 1 86 80
f 1 80 76
f 1 76 65
f 1 65 59
f 1 59 53
f 1 53 51
f 1 51 47
f 1 47 46
f 1 46 45
f 1 45 44
f 1 44 43
f 1 43 36
f 1 36 35
f 1 35 34
f 1 34 31
f 1 31 16
f 1 16 10
f 1 10 6
f 1 6 7
f 1 7 2
f 2 7 11
f 2 11 24
f 2 24 39
f 2 39 48
f 2 48 52
f 2 52 58
f 2 58 64
f 2 64 72
f 2 72 71
f 2 71 70
f 2 70 69
f 2 69 68
f 2 68 67
f 2 67 77
f 2 77 81
f 2 81 82
f 2 82 78
f 2 78 74
f 2 74 63
f 2 63 55
f 2 55 49
f 2 49 41
f 2 41 25
f 2 25 12
f 2 12 8
f 2 8 4
f 2 4 3
f 4 8 9
f 4 9 5
f 6 10 15
f 6 15 30
f 6 30 18
f 6 18 11
f 6 11 7
f 8 12 13
f 8 13 14
f 8 14 9
f 10 16 17
f 10 17 15
f 11 18 19
f 11 19 20
f 11 20 21
f 11 21 22
f 11 22 23
f 11 23 24
f 12 25 26
f 12 26 27
f 12 27 28
f 12 28 29
f 12 29 13
f 15 17 30
f 16 31 17
f 17 31 32
f 17 32 30
f 18 30 19
f 19 32 20
f 19 30 32
f 20 33 21
f 20 32 34
f 20 34 35
f 20 35 36
f 20 36 33
f 21 33 37
f 21 37 38
f 21 38 24
f 21 24 22
f 22 24 23
f 24 38 39
f 25 40 26
f 25 41 42
f 25 42 40
f 31 34 32
f 33 36 43
f 33 43 44
f 33 44 45
f 33 45 37
f 37 45 38
f 38 45 46
f 38 46 47
f 38 47 48
f 38 48 39
f 41 49 42
f 42 49 50
f 47 51 48
f 48 51 53
f 48 53 54
f 48 54 52
f 49 55 56
f 49 56 50
f 50 56 57
f 52 54 58
f 53 59 60
f 53 60 54
f 54 60 58
f 55 61 62
f 55 62 56
f 55 63 61
f 56 62 57
f 58 60 64
f 59 65 60
f 60 65 66
f 60 66 67
f 60 67 68
f 60 68 69
f 60 69 70
f 60 70 71
f 60 71 72
f 60 72 64
f 61 63 73
f 63 74 75
f 63 75 73
f 65 76 66
f 66 76 77
f 66 77 67
f 74 78 79
f 74 79 75
f 76 80 81
f 76 81 77
f 78 82 83
f 78 83 84
f 78 84 85
f 78 85 79
f 80 86 81
f 81 86 83
f 81 83 82

