# https://github.com/mikedh/trimesh
v -7.03033870 1.87661830 8.25444170
v -6.99954924 1.87661830 8.50741636
v -6.99907879 1.91031866 8.50741636
v -7.02093750 2.09727017 8.03374728
v -7.02281801 2.09727017 7.81751000
v -7.02928133 1.43512639 8.25444170
v -7.00671792 0.56908675 8.50741636
v -7.00178177 1.65577825 8.50741636
v -6.93362109 2.16297625 8.50741636
v -6.89025634 2.30041305 8.50741636
v -6.88520306 2.31415675 8.50741636
v -6.92868493 2.29231745 8.03374728
v -6.92139913 2.33863175 7.81751000
v -6.93221104 1.91916732 7.81751000
v -6.73372121 0.56908675 7.84681884
v -6.74688342 0.56908675 7.84884483
v -6.91940151 0.56908675 7.88510946
v -6.92668731 0.56908675 7.89557691
v -7.01376882 0.56908675 8.03374728
v -5.82988406 0.56908675 8.50741636
v -6.82209566 2.41017411 8.50741636
v -6.91540560 2.34559761 7.81751000
v -6.92539504 1.91653146 7.81751000
v -6.29232076 0.56908675 7.84681884
v -6.73372121 1.84254158 7.81751000
v -6.51302132 1.83331639 7.81751000
v -5.84845223 0.56908675 8.46784263
v -6.06832965 2.09727017 7.81751000
v -5.89851520 1.83519903 8.50741636
v -6.73889227 2.44575711 8.50741636
v -6.84019336 2.42693003 7.90192493
v -6.76004563 2.45968899 7.81751000
v -6.13590341 0.56908675 7.88510946
v -6.50608753 1.83331639 7.81751000
v -6.29232076 1.83877630 7.81751000
v -6.12121338 1.91540187 7.81751000
v -6.06915278 2.09256348 7.81751000
v -6.12755958 2.29137604 7.81751000
v -5.94058702 2.18199151 8.50741636
v -5.91978634 2.08258523 8.50741636
v -5.91520286 2.04304860 8.50741636
v -5.90086550 1.87661830 8.50741636
v -6.51302132 2.45611188 8.50741636
v -6.51642899 2.49207125 7.81751000
v -6.63195032 2.47757466 7.81751000
v -6.75346452 2.46175997 7.82223721
v -6.75311185 2.46175997 7.81751000
v -6.12885185 2.29476496 7.81751000
v -6.00710275 2.30963824 8.50741636
v -6.29232076 2.45592354 8.50741636
v -6.51278576 2.49207125 7.81751000
v -6.07820131 2.39567736 8.50741636
v -6.22498255 2.40546742 7.81751000
v -6.33509727 2.45309949 7.81751000
f 1 2 3
f 1 3 4
f 1 4 5
f 1 5 6
f 1 6 7
f 1 7 8
f 1 8 2
f 2 8 7
f 2 7 20
f 2 20 29
f 2 29 42
f 2 42 41
f 2 41 40
f 2 40 39
f 2 39 49
f 2 49 52
f 2 52 50
f 2 50 43
f 2 43 30
f 2 30 21
f 2 21 11
f 2 11 10
f 2 10 9
f 2 9 3
f 3 9 4
f 4 9 10
f 4 10 11
f 4 11 12
f 4 12 13
f 4 13 5
f 5 14 15
f 5 15 16
f 5 16 17
f 5 17 18
f 5 18 19
f 5 19 6
f 5 13 22
f 5 22 32
f 5 32 47
f 5 47 45
f 5 45 44
f 5 44 51
f 5 51 54
f 5 54 53
f 5 53 48
f 5 48 38
f 5 38 28
f 5 28 37
f 5 37 36
f 5 36 35
f 5 35 34
f 5 34 26
f 5 26 25
f 5 25 23
f 5 23 14
f 6 19 7
f 7 19 18
f 7 18 17
f 7 17 16
f 7 16 15
f 7 15 24
f 7 24 33
f 7 33 27
f 7 27 20
f 11 13 12
f 11 21 13
f 13 21 22
f 14 23 15
f 15 23 25
f 15 25 26
f 15 26 34
f 15 34 24
f 20 27 28
f 20 28 29
f 21 30 31
f 21 31 22
f 22 31 32
f 24 34 35
f 24 35 36
f 24 36 37
f 24 37 33
f 27 33 28
f 28 38 39
f 28 39 40
f 28 40 41
f 28 41 42
f 28 42 29
f 28 33 37
f 30 43 44
f 30 44 45
f 30 45 46
f 30 46 32
f 30 32 31
f 32 46 47
f 38 48 39
f 39 48 49
f 43 50 51
f 43 51 44
f 45 47 46
f 48 52 49
f 48 53 52
f 50 52 54
f 50 54 51
f 52 53 54

