# https://github.com/mikedh/trimesh
v 0.86424089 -2.31817864 6.09880742
v 0.76295263 -2.48874599 6.92984794
v 0.76295263 -2.48874599 6.09880742
v 0.76345993 -2.14426268 6.09880742
v 0.76345993 -2.14426268 7.81276700
v 0.86407179 -2.31817864 7.81276700
v 0.76295263 -2.48864449 7.81276700
v 0.55192135 -2.54891650 6.09880742
v 0.55192135 -2.54881501 8.03355823
v 0.71357675 -2.12924547 6.09880742
v 0.25651136 -1.51232095 7.21358188
v 0.27020809 -1.51232095 7.26890263
v 0.29540333 -1.51232095 7.37118454
v 0.75229962 -2.14426268 8.03355823
v 0.84141297 -2.31817864 8.03355823
v 0.75145412 -2.48864449 8.03355823
v 0.33108250 -2.54891650 6.09880742
v 0.55192135 -2.52344795 8.25434951
v 0.33108250 -2.54871351 8.25434951
v -0.55193464 -2.54881501 8.03355823
v 0.55192135 -2.08074388 6.09880742
v 0.16147964 -1.51232095 7.15211439
v 0.28289026 -1.51232095 7.42847224
v 0.70613649 -2.17105015 8.25434951
v 0.25955507 -1.51232095 7.53468806
v 0.70546017 -2.46327760 8.25434951
v 0.66809002 -2.20118623 8.36990833
v 0.74925589 -2.31817864 8.25434951
v 0.66809002 -2.43486657 8.36990833
v -0.55193464 -2.54881501 6.09880742
v 0.55192135 -2.46327760 8.40629712
v 0.32262772 -2.48417994 8.48325439
v 0.11024368 -2.50751763 8.47514069
v -0.33109580 -2.54871351 8.25434951
v -0.55193464 -2.52324513 8.25434951
v -0.75096014 -2.48864449 8.03355823
v -0.76245865 -2.48864449 7.81276700
v -0.76245865 -2.48874599 6.92984794
v -0.71274457 -2.50295158 6.09880742
v -0.55193464 -2.08074388 6.09880742
v 0.11024368 -1.51232095 7.11916784
v 0.11024368 -1.51232095 7.63524889
v 0.55192135 -2.17105015 8.40678888
v 0.24332191 -2.19459082 8.59389591
v 0.36507072 -2.31817864 8.55111454
v 0.55192135 -2.31817864 8.44834088
v 0.67113374 -2.31817864 8.37236705
v 0.24332191 -2.44115767 8.59389591
v 0.11024368 -2.44744861 8.59807564
v -0.11025697 -2.50751763 8.47514069
v -0.32247192 -2.48417994 8.48300855
v -0.55193464 -2.46307478 8.40605120
v -0.66793420 -2.43466359 8.36966251
v -0.70513521 -2.46317611 8.25434951
v -0.84058080 -2.31817864 8.03355823
v -0.86307051 -2.31817864 7.81276700
v -0.86323961 -2.31817864 6.09880742
v -0.78630108 -2.44846337 6.09880742
v -0.76245865 -2.48874599 6.09880742
v -0.76296595 -2.14426268 6.09880742
v -0.25652464 -1.51232095 7.21358188
v -0.11025697 -1.51232095 7.11916784
v -0.11025697 -1.51232095 7.63524889
v 0.11024368 -2.18799540 8.59807564
v 0.11024368 -2.31817864 8.61036915
v 0.25465129 -2.31817864 8.59807564
v -0.11025697 -2.31817864 8.61061507
v -0.11025697 -2.44744861 8.59807564
v -0.24316609 -2.44115767 8.59389591
v -0.36491490 -2.31817864 8.55086862
v -0.55193464 -2.31817864 8.44784913
v -0.67080883 -2.31817864 8.37212121
v -0.74859281 -2.31817864 8.25434951
v -0.66793420 -2.20138906 8.36966251
v -0.70581161 -2.17125313 8.25434951
v -0.75180564 -2.14426268 8.03355823
v -0.76296595 -2.14426268 7.81276700
v -0.83956619 -2.27708409 6.09880742
v -0.28188898 -1.51232095 7.31635553
v -0.29541664 -1.51232095 7.37118454
v -0.16250751 -1.51232095 7.60008948
v -0.55193464 -2.17125313 8.40654296
v -0.24316609 -2.19459082 8.59389591
v -0.11025697 -2.18799540 8.59807564
v -0.25449550 -2.31817864 8.59807564
v -0.25956837 -1.51232095 7.53468806
v -0.27208144 -1.51232095 7.47764623
f 1 2 3
f 1 3 8
f 1 8 17
f 1 17 30
f 1 30 39
f 1 39 59
f 1 59 58
f 1 58 57
f 1 57 78
f 1 78 60
f 1 60 40
f 1 40 21
f 1 21 10
f 1 10 4
f 1 4 5
f 1 5 6
f 1 6 7
f 1 7 2
f 2 8 3
f 2 7 9
f 2 9 8
f 4 10 11
f 4 11 12
f 4 12 13
f 4 13 5
f 5 13 14
f 5 14 6
f 6 14 15
f 6 15 16
f 6 16 7
f 7 16 9
f 8 9 20
f 8 20 17
f 9 16 18
f 9 18 19
f 9 19 34
f 9 34 20
f 10 21 11
f 11 22 41
f 11 41 62
f 11 62 61
f 11 61 79
f 11 79 80
f 11 80 87
f 11 87 86
f 11 86 81
f 11 81 63
f 11 63 42
f 11 42 25
f 11 25 23
f 11 23 13
f 11 13 12
f 11 21 22
f 13 23 14
f 14 24 15
f 14 23 25
f 14 25 24
f 15 26 16
f 15 24 27
f 15 27 28
f 15 28 29
f 15 29 26
f 16 26 18
f 17 20 30
f 18 26 29
f 18 29 31
f 18 31 32
f 18 32 19
f 19 32 33
f 19 33 50
f 19 50 34
f 20 34 35
f 20 35 36
f 20 36 37
f 20 37 38
f 20 38 39
f 20 39 30
f 21 40 62
f 21 62 41
f 21 41 22
f 24 25 27
f 25 42 43
f 25 43 27
f 27 43 44
f 27 44 45
f 27 45 46
f 27 46 47
f 27 47 28
f 28 47 29
f 29 47 46
f 29 46 45
f 29 45 48
f 29 48 31
f 31 48 32
f 32 48 33
f 33 48 49
f 33 49 68
f 33 68 50
f 34 50 51
f 34 51 35
f 35 51 52
f 35 52 53
f 35 53 54
f 35 54 36
f 36 54 55
f 36 55 56
f 36 56 37
f 37 56 57
f 37 57 38
f 38 57 58
f 38 58 59
f 38 59 39
f 40 60 61
f 40 61 62
f 42 63 84
f 42 84 64
f 42 64 44
f 42 44 43
f 44 64 65
f 44 65 66
f 44 66 45
f 45 66 48
f 48 66 65
f 48 65 49
f 49 65 67
f 49 67 68
f 50 68 69
f 50 69 51
f 51 69 52
f 52 69 53
f 53 69 70
f 53 70 71
f 53 71 72
f 53 72 73
f 53 73 55
f 53 55 54
f 55 73 74
f 55 74 75
f 55 75 76
f 55 76 56
f 56 76 77
f 56 77 57
f 57 77 78
f 60 79 61
f 60 78 77
f 60 77 80
f 60 80 79
f 63 81 82
f 63 82 83
f 63 83 84
f 64 84 67
f 64 67 65
f 67 84 83
f 67 83 85
f 67 85 69
f 67 69 68
f 69 85 70
f 70 85 83
f 70 83 74
f 70 74 71
f 71 74 72
f 72 74 73
f 74 83 82
f 74 82 86
f 74 86 75
f 75 86 76
f 76 86 87
f 76 87 80
f 76 80 77
f 81 86 82

