# https://github.com/mikedh/trimesh
v -5.90912182 2.70541774 1.97381348
v -5.90912182 2.61806744 2.12447746
v -5.90912182 2.98511942 1.97381348
v 5.85013402 2.71147295 1.97381348
v 5.85934967 2.71005583 1.97467806
v -5.90912182 1.67409079 3.75670664
v -5.90912182 2.46836065 2.94372616
v -5.76167009 2.43370392 3.07644903
v -5.58196358 2.21829121 3.52908941
v -5.85037155 2.99001511 1.97381348
v 5.85934967 2.73041189 1.97381348
v 5.85934967 1.67808472 3.76470438
v 0.01773662 1.67409079 3.81874450
v -5.90912182 1.67409079 4.06581618
v -5.90912182 2.24496025 3.35421543
v -5.85037155 2.25230378 3.36761747
v -5.85037155 2.02078671 3.78956282
v -5.63034608 2.03985428 3.85116871
v -5.55662022 1.99656569 3.96184304
v -5.40801703 2.07386685 3.83863126
v -5.40801703 2.22344467 3.53989738
v -5.05897179 2.99027271 1.97381348
v 5.85934967 2.98962855 1.97381348
v 5.85934967 1.67808472 3.79648014
v 0.01773662 1.67409079 4.18211065
v -5.90912182 1.79596902 4.02647498
v -5.83309237 1.67409079 4.06797798
v -0.55133394 1.90689618 4.18211065
v -5.40801703 1.87674874 4.03555376
v -5.90912182 2.01357198 3.77616111
v -5.85037155 1.95739967 3.90023715
v -5.40801703 2.00442459 3.97243486
v -5.90912182 1.92132582 3.92812195
v -5.90912182 1.84041729 4.01004690
v -5.18683976 2.00738780 3.97675810
v -5.18683976 2.07618589 3.83863126
v -0.33015672 1.91011715 4.18211065
v -1.96825056 2.99027271 1.97381348
v 5.85934967 2.47209699 2.95864123
v 5.85013402 2.99014374 1.97381348
v 5.40777950 2.07386685 3.83863126
v 5.58287818 2.21816241 3.52908941
v 5.76143256 2.43370392 3.07644903
v 5.85934967 1.84595715 4.01155992
v 5.85819755 1.67808472 4.06581618
v -0.93263425 1.67409079 4.18211065
v 5.85013402 1.67808472 4.06624847
v 0.93930837 1.67808472 4.18211065
v -0.87042819 1.77264976 4.18211065
v -0.78172690 1.85214116 4.18211065
v -5.85037155 1.84698787 4.01199221
v -5.90912182 1.95224638 3.88251218
v 0.33107103 1.91011715 4.18211065
v 5.85934967 2.25127322 3.36545568
v 5.40777950 2.22344467 3.53989738
v 5.40777950 2.00429579 3.97243486
v 5.55638269 1.99656569 3.96184304
v 5.18775403 2.00738780 3.97675810
v 5.85934967 2.01975599 3.78783365
v 5.85934967 1.95649791 3.89742725
v 5.85013402 1.95727087 3.90023715
v 5.85013402 1.84698787 4.01199221
v 5.40777950 1.87674874 4.03555376
v 0.66398879 1.89504335 4.18211065
v 0.87249441 1.83294479 4.18211065
v 0.44396357 1.90908643 4.18211065
v 5.18775403 2.07618589 3.83863126
v 0.55109629 1.90702514 4.18211065
v 5.85934967 1.95958992 3.89245556
f 1 2 6
f 1 6 14
f 1 14 26
f 1 26 34
f 1 34 33
f 1 33 52
f 1 52 30
f 1 30 15
f 1 15 7
f 1 7 3
f 1 3 10
f 1 10 22
f 1 22 38
f 1 38 40
f 1 40 23
f 1 23 11
f 1 11 4
f 1 4 5
f 1 5 2
f 2 5 6
f 3 7 8
f 3 8 9
f 3 9 10
f 4 11 5
f 5 11 23
f 5 23 39
f 5 39 54
f 5 54 59
f 5 59 69
f 5 69 60
f 5 60 44
f 5 44 24
f 5 24 12
f 5 12 6
f 6 13 25
f 6 25 46
f 6 46 27
f 6 27 14
f 6 12 13
f 7 15 8
f 8 15 16
f 8 16 17
f 8 17 18
f 8 18 19
f 8 19 9
f 9 19 20
f 9 20 10
f 10 20 21
f 10 21 22
f 12 24 25
f 12 25 13
f 14 27 28
f 14 28 29
f 14 29 26
f 15 30 16
f 16 30 17
f 17 31 19
f 17 19 18
f 17 30 31
f 19 32 20
f 19 31 33
f 19 33 34
f 19 34 32
f 20 32 35
f 20 35 21
f 21 35 36
f 21 36 37
f 21 37 22
f 22 37 53
f 22 53 38
f 23 40 41
f 23 41 42
f 23 42 43
f 23 43 39
f 24 44 45
f 24 45 25
f 25 45 47
f 25 47 48
f 25 48 65
f 25 65 64
f 25 64 68
f 25 68 66
f 25 66 53
f 25 53 37
f 25 37 28
f 25 28 50
f 25 50 49
f 25 49 46
f 26 29 34
f 27 46 49
f 27 49 50
f 27 50 28
f 28 37 35
f 28 35 32
f 28 32 29
f 29 32 51
f 29 51 34
f 30 52 31
f 31 52 33
f 32 34 51
f 35 37 36
f 38 53 40
f 39 43 54
f 40 53 55
f 40 55 41
f 41 56 57
f 41 57 42
f 41 55 58
f 41 58 56
f 42 57 43
f 43 57 59
f 43 59 54
f 44 60 61
f 44 61 57
f 44 57 62
f 44 62 45
f 45 62 63
f 45 63 47
f 47 63 64
f 47 64 65
f 47 65 48
f 53 66 58
f 53 58 67
f 53 67 55
f 55 67 58
f 56 63 62
f 56 62 57
f 56 58 68
f 56 68 63
f 57 61 69
f 57 69 59
f 58 66 68
f 60 69 61
f 63 68 64

