# https://github.com/mikedh/trimesh
v 6.09675039 0.14200636 6.09880742
v 6.11885058 -0.55314585 6.09880742
v 4.95922023 -0.33115151 6.55035909
v 4.95922023 -0.12886039 6.57360457
v 4.95922023 -0.01898511 6.60326855
v 4.95922023 0.04342012 6.71290378
v 4.95922023 0.04531331 6.72209789
v 4.95922023 0.08745436 6.92991920
v 6.06970943 0.14200636 7.87083975
v 6.96543304 0.14200636 6.09880742
v 6.11963094 -0.57425147 6.09880742
v 4.95922023 -0.46339451 6.57100244
v 4.95922023 0.08745436 7.37123589
v 4.95922023 0.08626235 7.37973611
v 4.95922023 0.05127335 7.59206775
v 4.95922023 0.04966064 7.59657804
v 4.95922023 0.00758968 7.70829506
v 4.95922023 0.00289178 7.70881544
v 4.95922023 -0.11041930 7.71679524
v 6.02264816 -0.07669243 7.87083975
v 6.97687332 0.14200636 7.87083975
v 7.37442410 0.03640829 7.15057757
v 7.61519037 -0.03055462 7.15057757
v 7.61519037 -0.11280333 6.94986866
v 6.97635352 0.10989220 6.09880742
v 4.95922023 -0.57425147 6.66953541
v 4.95922023 -0.46970514 6.57343104
v 6.95711290 -0.57425147 6.09880742
v 4.95922023 -0.33115151 7.71939730
v 6.02238826 -0.11041930 7.87083975
v 6.97765368 0.13969245 7.87083975
v 7.61519037 -0.13818612 7.31312227
v 7.61519037 -0.03118569 7.15213883
v 7.61519037 -0.33115151 6.92419459
v 4.95922023 -0.57425147 7.63665042
v 7.61519037 -0.45827588 7.01422734
v 7.17525853 -0.56148989 7.15057757
v 6.98519346 -0.57425147 7.87083975
v 4.95922023 -0.45806549 7.71089712
v 6.08244988 -0.57425147 7.87083975
v 6.08088981 -0.56878218 7.87083975
v 6.07334937 -0.54010385 7.87083975
v 6.02342852 -0.33115151 7.87083975
v 6.02160789 -0.30289387 7.87083975
v 6.99169429 0.09678008 7.87083975
v 7.61519037 -0.13986895 7.31346921
v 7.04551564 -0.11084001 7.87083975
v 4.96780028 -0.57425147 7.63977299
v 7.61519037 -0.45904720 7.15057757
v 7.61519037 -0.44249928 7.26090672
v 7.61519037 -0.44221882 7.26212104
v 7.61519037 -0.33199294 7.31364270
v 7.04837522 -0.33115151 7.87083975
f 1 2 3
f 1 3 4
f 1 4 5
f 1 5 6
f 1 6 7
f 1 7 8
f 1 8 9
f 1 9 21
f 1 21 10
f 1 10 25
f 1 25 28
f 1 28 11
f 1 11 2
f 2 11 3
f 3 12 27
f 3 27 26
f 3 26 35
f 3 35 39
f 3 39 29
f 3 29 19
f 3 19 18
f 3 18 17
f 3 17 16
f 3 16 15
f 3 15 14
f 3 14 13
f 3 13 8
f 3 8 7
f 3 7 6
f 3 6 5
f 3 5 4
f 3 11 12
f 8 13 9
f 9 13 14
f 9 14 15
f 9 15 16
f 9 16 17
f 9 17 18
f 9 18 19
f 9 19 20
f 9 20 30
f 9 30 44
f 9 44 43
f 9 43 42
f 9 42 41
f 9 41 40
f 9 40 38
f 9 38 53
f 9 53 47
f 9 47 45
f 9 45 31
f 9 31 21
f 10 21 22
f 10 22 23
f 10 23 24
f 10 24 25
f 11 26 27
f 11 27 12
f 11 28 38
f 11 38 40
f 11 40 48
f 11 48 35
f 11 35 26
f 19 29 20
f 20 29 30
f 21 31 32
f 21 32 33
f 21 33 23
f 21 23 22
f 23 33 32
f 23 32 46
f 23 46 52
f 23 52 51
f 23 51 50
f 23 50 49
f 23 49 36
f 23 36 34
f 23 34 24
f 24 34 25
f 25 34 28
f 28 34 36
f 28 36 37
f 28 37 38
f 29 39 40
f 29 40 41
f 29 41 42
f 29 42 43
f 29 43 44
f 29 44 30
f 31 45 32
f 32 45 47
f 32 47 46
f 35 48 39
f 36 49 37
f 37 49 38
f 38 49 50
f 38 50 51
f 38 51 52
f 38 52 53
f 39 48 40
f 46 53 52
f 46 47 53

