# https://github.com/mikedh/trimesh
v -9.21989796 1.14104244 1.97381380
v -9.19397359 1.20929047 1.97381380
v -8.88806808 1.14104244 1.97381380
v -7.96289860 1.14104244 3.52651113
v -9.10583142 1.41421516 1.97381380
v -5.90970215 2.70551084 1.97381380
v -5.90970215 1.14104244 3.84050517
v -7.75874555 1.14104244 3.77038602
v -7.92595638 1.28819101 3.48888131
v -8.02706074 1.21452642 3.40806935
v -8.99694975 1.65488866 1.97381380
v -5.90970215 2.98536386 1.97381380
v -5.90970215 1.14104244 4.07204231
v -7.75744933 1.15007000 3.76647894
v -7.55783305 1.14104244 3.98300528
v -7.55070385 1.14645901 3.98650113
v -8.14760837 1.52489246 3.05068785
v -8.59901340 1.75202475 2.39555681
v -8.81062003 1.72205333 2.15949574
v -8.89778971 1.84771625 1.97381380
v -5.96446704 2.87071434 2.18458250
v -5.90970215 2.46844816 2.94376103
v -6.06297963 2.97561393 1.97381380
v -5.90970215 1.59693192 4.07307073
v -6.36596832 1.14104244 4.07307073
v -7.55297256 1.14104244 3.98691236
v -7.38997411 1.14104244 4.02721554
v -7.38673356 1.21777634 4.00500743
v -7.17545132 1.37593840 3.99164192
v -7.30701680 1.33712012 3.96305932
v -7.45413625 1.29360749 3.90651195
v -7.69393530 1.29721848 3.70314553
v -8.68067448 2.03548859 1.97381380
v -8.79765785 1.95767141 1.97381380
v -5.90970215 2.24474640 3.35419470
v -5.90970215 2.01346144 3.77634928
v -6.94991067 2.76761993 1.97381380
v -6.95477181 1.21434589 4.07430444
v -5.90970215 1.65597203 4.07163107
v -6.51308843 1.43515896 4.07265916
v -7.02833121 1.14104244 4.07389320
v -7.24901137 1.14104244 4.05908769
v -7.17545132 1.21434589 4.05374128
v -6.95898419 1.44653360 4.01611149
v -6.73409166 1.61137603 3.99966136
v -6.88834096 1.57165501 3.97560303
v -7.03578479 1.52778131 3.92501828
v -7.81675098 2.49119762 1.97381380
v -6.94472579 1.65001370 3.83063516
v -6.85399118 1.77188519 3.73625173
v -5.90970215 1.95207448 3.88245330
v -7.17545132 2.71183007 1.97381380
v -6.51535648 1.82063385 3.85202047
v -6.44341703 1.77639892 3.96244279
v -6.73409166 1.43515896 4.06217231
v -5.90970215 1.79589845 4.02659868
v -6.07172877 1.65597203 4.06649028
v -6.29240827 1.65597203 4.04510498
v -6.51535648 1.67095766 4.00685832
v -6.29240827 1.79499570 3.98300528
v -6.59053648 1.75437177 3.93447738
v -6.73409166 1.72187271 3.88882779
v -7.55070385 2.45147659 2.21933332
v -7.61810654 2.57948669 1.97381380
v -6.73409166 1.79481509 3.77840546
v -5.90970215 1.92120031 3.92810287
v -7.46094173 2.62823535 1.97381380
v -7.29146218 2.43035218 2.40727771
v -5.90970215 1.84031383 4.01014822
v -6.07172877 1.82243934 4.00500743
f 1 2 5
f 1 5 11
f 1 11 20
f 1 20 34
f 1 34 33
f 1 33 48
f 1 48 64
f 1 64 67
f 1 67 52
f 1 52 37
f 1 37 23
f 1 23 12
f 1 12 6
f 1 6 3
f 1 3 7
f 1 7 13
f 1 13 25
f 1 25 41
f 1 41 42
f 1 42 27
f 1 27 26
f 1 26 15
f 1 15 8
f 1 8 4
f 1 4 2
f 2 4 5
f 3 6 7
f 4 8 9
f 4 9 10
f 4 10 5
f 5 10 11
f 6 12 22
f 6 22 35
f 6 35 36
f 6 36 51
f 6 51 66
f 6 66 69
f 6 69 56
f 6 56 39
f 6 39 24
f 6 24 13
f 6 13 7
f 8 14 9
f 8 15 14
f 9 14 15
f 9 15 16
f 9 16 17
f 9 17 18
f 9 18 19
f 9 19 11
f 9 11 10
f 11 19 20
f 12 21 22
f 12 23 21
f 13 24 25
f 15 26 16
f 16 26 27
f 16 27 28
f 16 28 29
f 16 29 30
f 16 30 31
f 16 31 32
f 16 32 17
f 17 33 18
f 17 32 31
f 17 31 33
f 18 33 34
f 18 34 20
f 18 20 19
f 21 23 22
f 22 23 35
f 23 36 35
f 23 37 36
f 24 38 25
f 24 39 40
f 24 40 38
f 25 38 41
f 27 42 28
f 28 42 43
f 28 43 44
f 28 44 29
f 29 44 45
f 29 45 46
f 29 46 30
f 30 46 47
f 30 47 31
f 31 47 33
f 33 47 49
f 33 49 50
f 33 50 48
f 36 37 52
f 36 52 53
f 36 53 54
f 36 54 51
f 38 40 55
f 38 55 42
f 38 42 41
f 39 56 57
f 39 57 40
f 40 57 55
f 42 55 43
f 43 55 44
f 44 55 45
f 45 55 58
f 45 58 59
f 45 59 60
f 45 60 54
f 45 54 61
f 45 61 46
f 46 50 49
f 46 49 47
f 46 61 62
f 46 62 50
f 48 63 64
f 48 50 63
f 50 62 61
f 50 61 65
f 50 65 63
f 51 54 66
f 52 61 53
f 52 67 68
f 52 68 61
f 53 61 54
f 54 60 66
f 55 57 58
f 56 69 70
f 56 70 57
f 57 70 58
f 58 70 59
f 59 70 60
f 60 70 66
f 61 68 64
f 61 64 63
f 61 63 65
f 64 68 67
f 66 70 69

