# https://github.com/mikedh/trimesh
v -2.20975805 -1.99283545 10.35851561
v -2.20975805 -1.99283545 10.34733755
v -2.27186944 -1.99283545 10.42822649
v -2.33274695 -2.07530881 10.45342807
v -2.39691501 -2.25858254 10.40404117
v -2.63672295 -2.67016340 10.37721373
v -2.63672295 -2.67016340 10.33392365
v -2.39691501 -2.25858254 10.31380299
v -2.32164093 -2.07740315 10.28839811
v -2.91848689 -1.99283545 9.73619830
v -2.39650378 -1.99283545 10.56744525
v -2.41583651 -2.01299559 10.57862333
v -2.46972119 -2.16013839 10.55118595
v -2.64577229 -2.43531104 10.57476165
v -2.60422751 -2.52092592 10.45525725
v -2.76834995 -2.75028021 10.46704527
v -2.83210678 -2.91417944 10.40973203
v -2.83210678 -2.91417944 10.30973833
v -2.75888921 -2.75028021 10.27376498
v -2.59600080 -2.53899171 10.29632445
v -3.09494923 -2.20202960 9.69290840
v -3.04929110 -2.05462492 9.65571582
v -3.02543378 -1.99283545 9.64413111
v -2.41295720 -1.99283545 10.57923295
v -2.62191497 -2.31827750 10.58085881
v -2.85185075 -2.68325438 10.57984257
v -2.90655807 -2.83039702 10.55687681
v -2.97689633 -2.98460883 10.48330425
v -3.04723459 -3.13489348 10.40973203
v -3.04723459 -3.13489348 10.30973833
v -2.99005886 -2.97125613 10.23616578
v -3.50134752 -2.68115987 9.66750368
v -3.28827656 -2.45835115 9.66973916
v -3.24179562 -2.31827750 9.63478222
v -3.08137513 -1.99283545 9.60267039
v -2.48781988 -1.99283545 10.58126544
v -3.05340445 -2.90789574 10.58126544
v -3.12703327 -3.05503854 10.55687681
v -3.41825796 -3.42603724 10.48330425
v -3.26812102 -3.35534598 10.40973203
v -3.26812102 -3.35534598 10.30973833
v -3.72182272 -2.90187392 9.66750368
v -3.64613707 -2.75682579 9.62380731
v -3.62886117 -2.55312987 9.50938380
v -3.42566187 -2.53480253 9.62502671
v -3.54618285 -2.41384185 9.47686550
v -3.41784672 -2.33163036 9.51812309
v -3.34092736 -2.16170932 9.48946646
v -3.16816681 -1.99283545 9.53844690
v -2.52895342 -1.99283545 10.58126544
v -2.68526039 -2.14207276 10.58146875
v -4.52598102 -4.00596822 10.58289130
v -3.27429122 -3.12860978 10.58126544
v -3.34791970 -3.27575259 10.55687681
v -3.48900746 -3.57108537 10.40973203
v -3.57250825 -3.49646663 10.55687681
v -3.48900746 -3.57108537 10.30973833
v -3.43183206 -3.41268422 10.23616578
v -3.94435443 -3.11499521 9.66933268
v -3.86784630 -2.97753983 9.62482339
v -3.84974761 -2.77384408 9.50938380
v -3.76706929 -2.63612682 9.47686550
v -3.48818498 -2.26669904 9.43987608
v -3.69344048 -2.48898401 9.43662435
v -3.62886117 -2.33163036 9.39394406
v -3.29485766 -2.01456651 9.45715147
v -3.28786499 -1.99283545 9.45288333
v -2.63548891 -1.99283545 10.57171324
v -6.41153730 -4.36178143 10.58370425
v -4.52598102 -3.90857124 10.58289130
v -5.18822909 -4.14944543 10.58329762
v -4.38941818 -3.98711713 10.57862333
v -4.08461938 -3.78080295 10.58085881
v -3.49517732 -3.34906228 10.58126544
v -5.18822909 -4.23060941 10.58329762
v -4.96734265 -4.21018772 10.58004588
v -3.65230726 -3.63470764 10.46724858
v -3.73210594 -3.76640308 10.37762002
v -3.71976588 -3.55118711 10.57984257
v -3.96738928 -3.75723941 10.57476165
v -3.73210594 -3.76640308 10.33351735
v -3.65230726 -3.64387132 10.27335869
v -4.07145685 -2.98539445 9.51791977
v -3.98877852 -2.85684086 9.47686550
v -6.18160135 -4.41571595 9.46873602
v -3.91391567 -2.70969806 9.43662435
v -3.41784672 -2.09180335 9.41243886
v -3.64572583 -2.10253794 9.29313760
v -3.84974761 -2.55312987 9.39191173
v -3.85632904 -2.32560854 9.28500811
v -3.77817531 -2.17925120 9.25818068
v -3.42771871 -1.99283545 9.37199439
v -2.63795698 -1.99283545 10.57130661
v -6.41153730 -4.25155518 10.55992522
v -6.41153730 -4.43823264 10.58370425
v -4.32689539 -4.07011391 10.45424100
v -4.24257179 -3.93344415 10.55159258
v -4.84476515 -4.19840563 10.57496496
v -4.52598102 -4.21725672 10.39428564
v -6.29225036 -4.43823264 10.58350092
v -6.07136359 -4.43168707 10.58146875
v -5.85047748 -4.42592712 10.57902997
v -5.66949055 -4.42042905 10.57598121
v -5.52223293 -4.40943258 10.57232286
v -3.88183164 -3.79886874 10.45566387
v -4.14385162 -4.00596822 10.40444780
v -4.41121899 -4.19683470 10.35709307
v -4.41121899 -4.19683470 10.34815048
v -4.14385162 -4.00596822 10.31360000
v -4.13603615 -2.91522661 9.43967293
v -4.07145685 -2.77384408 9.39394406
v -6.35148226 -4.66732506 9.65144768
v -6.29225036 -4.42147622 9.46589076
v -6.29225036 -2.70341436 8.50741636
v -6.14992889 -2.67330525 8.50741636
v -3.60253577 -1.99283545 9.27809801
v -3.72141148 -2.03210839 9.23236931
v -4.07721548 -2.54658446 9.28500811
v -3.99865051 -2.40415443 9.25818068
v -3.92502170 -2.25701162 9.22810118
v -3.85632904 -2.10253794 9.19944455
v -2.69307570 -1.99283545 10.55423468
v -6.41153730 -4.08425223 10.49814068
v -6.41153730 -4.50473488 10.51175755
v -4.76126436 -4.24527148 10.47090661
v -5.18822909 -4.44346916 10.40383784
v -5.06112700 -4.42121435 10.36522239
v -6.28731420 -4.56390626 10.44733091
v -6.35724089 -4.64114309 10.36379984
v -5.60943551 -4.47724387 10.48411718
v -5.40911585 -4.47253110 10.44875378
v -5.06112700 -4.42121435 10.34225662
v -4.30056999 -2.75734937 9.29293446
v -4.22365030 -2.62486847 9.25818068
v -6.35929773 -4.66208853 9.79981201
v -6.41153730 -4.66025573 9.79147938
v -6.41153730 -4.66444508 9.65490272
v -6.41153730 -4.61993545 9.61384863
v -6.41153730 -4.42566524 9.46365511
v -6.41153730 -2.71257819 8.50741636
v -6.05737891 -2.54318074 8.50741636
v -3.86003116 -1.99283545 9.16570702
v -4.14590813 -2.47772566 9.22810118
v -3.70413526 -1.99283545 9.22850781
v -3.75760887 -1.99283545 9.20635465
v -2.75971184 -1.99283545 10.53065898
v -6.41153730 -3.90281097 10.40038280
v -6.41153730 -4.56416780 10.44733091
v -6.41153730 -4.64114309 10.36379984
v -6.41153730 -1.99283545 8.50741636
v -6.03681181 -2.51097695 8.50741636
v -4.08873274 -1.99283545 9.09091506
v -5.97757990 -2.38242336 8.50741636
v -6.41153730 -1.99283545 9.16712957
v -5.91176623 -1.99283545 8.50741636
v -5.95331101 -2.26931714 8.50741636
v -5.91917047 -2.08290155 8.50741636
f 1 2 10
f 1 10 23
f 1 23 35
f 1 35 49
f 1 49 67
f 1 67 92
f 1 92 116
f 1 116 144
f 1 144 145
f 1 145 142
f 1 142 152
f 1 152 155
f 1 155 150
f 1 150 154
f 1 154 146
f 1 146 122
f 1 122 93
f 1 93 68
f 1 68 50
f 1 50 36
f 1 36 24
f 1 24 11
f 1 11 3
f 1 3 4
f 1 4 5
f 1 5 6
f 1 6 7
f 1 7 2
f 2 7 8
f 2 8 9
f 2 9 10
f 3 11 12
f 3 12 4
f 4 12 13
f 4 13 14
f 4 14 5
f 5 15 6
f 5 14 15
f 6 15 14
f 6 14 16
f 6 16 17
f 6 17 18
f 6 18 7
f 7 18 19
f 7 19 20
f 7 20 8
f 8 20 21
f 8 21 22
f 8 22 23
f 8 23 9
f 9 23 10
f 11 24 12
f 12 24 25
f 12 25 14
f 12 14 13
f 14 25 26
f 14 26 27
f 14 27 16
f 16 27 17
f 17 27 28
f 17 28 29
f 17 29 30
f 17 30 18
f 18 30 31
f 18 31 32
f 18 32 33
f 18 33 19
f 19 21 20
f 19 33 21
f 21 33 34
f 21 34 22
f 22 34 23
f 23 34 35
f 24 36 25
f 25 36 37
f 25 37 26
f 26 37 27
f 27 37 38
f 27 38 28
f 28 38 29
f 29 38 39
f 29 39 40
f 29 40 41
f 29 41 30
f 30 41 42
f 30 42 32
f 30 32 31
f 32 42 43
f 32 43 44
f 32 44 45
f 32 45 33
f 33 45 46
f 33 46 47
f 33 47 48
f 33 48 34
f 34 48 49
f 34 49 35
f 36 50 51
f 36 51 52
f 36 52 37
f 37 53 54
f 37 54 38
f 37 52 53
f 38 54 39
f 39 55 40
f 39 54 56
f 39 56 55
f 40 55 57
f 40 57 41
f 41 57 58
f 41 58 42
f 42 58 57
f 42 57 59
f 42 59 60
f 42 60 43
f 43 60 61
f 43 61 44
f 44 61 62
f 44 62 46
f 44 46 45
f 46 63 47
f 46 62 64
f 46 64 65
f 46 65 63
f 47 63 48
f 48 66 49
f 48 63 66
f 49 66 67
f 50 68 69
f 50 69 51
f 51 70 52
f 51 69 71
f 51 71 70
f 52 72 73
f 52 73 74
f 52 74 53
f 52 70 71
f 52 71 75
f 52 75 76
f 52 76 72
f 53 74 54
f 54 74 56
f 55 56 77
f 55 77 78
f 55 78 81
f 55 81 57
f 56 74 79
f 56 79 80
f 56 80 77
f 57 81 82
f 57 82 59
f 59 83 84
f 59 84 60
f 59 82 85
f 59 85 83
f 60 84 61
f 61 84 62
f 62 84 86
f 62 86 64
f 63 87 66
f 63 65 88
f 63 88 87
f 64 86 89
f 64 89 65
f 65 89 90
f 65 90 91
f 65 91 88
f 66 87 67
f 67 87 92
f 68 93 94
f 68 94 69
f 69 94 123
f 69 123 147
f 69 147 154
f 69 154 150
f 69 150 140
f 69 140 139
f 69 139 138
f 69 138 137
f 69 137 136
f 69 136 149
f 69 149 148
f 69 148 124
f 69 124 95
f 69 95 75
f 69 75 71
f 72 96 97
f 72 97 80
f 72 80 73
f 72 76 98
f 72 98 99
f 72 99 96
f 73 80 79
f 73 79 74
f 75 95 100
f 75 100 101
f 75 101 102
f 75 102 103
f 75 103 76
f 76 103 104
f 76 104 98
f 77 80 78
f 78 80 105
f 78 105 106
f 78 106 107
f 78 107 108
f 78 108 81
f 80 97 96
f 80 96 106
f 80 106 105
f 81 108 109
f 81 109 85
f 81 85 82
f 83 110 84
f 83 85 110
f 84 110 111
f 84 111 86
f 85 112 113
f 85 113 114
f 85 114 115
f 85 115 110
f 85 109 108
f 85 108 112
f 86 111 89
f 87 88 92
f 88 116 92
f 88 91 117
f 88 117 116
f 89 111 118
f 89 118 90
f 90 118 119
f 90 119 120
f 90 120 91
f 91 120 121
f 91 121 117
f 93 122 123
f 93 123 94
f 95 124 100
f 96 99 107
f 96 107 106
f 98 125 99
f 98 104 126
f 98 126 125
f 99 125 126
f 99 126 127
f 99 127 107
f 100 124 128
f 100 128 102
f 100 102 101
f 102 128 103
f 103 128 129
f 103 129 104
f 104 129 130
f 104 130 131
f 104 131 126
f 107 127 132
f 107 132 108
f 108 132 112
f 110 133 111
f 110 115 133
f 111 133 134
f 111 134 118
f 112 132 127
f 112 127 126
f 112 126 129
f 112 129 135
f 112 135 136
f 112 136 137
f 112 137 138
f 112 138 139
f 112 139 113
f 113 139 140
f 113 140 114
f 114 140 150
f 114 150 155
f 114 155 157
f 114 157 156
f 114 156 153
f 114 153 151
f 114 151 141
f 114 141 115
f 115 141 142
f 115 142 121
f 115 121 120
f 115 120 143
f 115 143 134
f 115 134 133
f 116 117 144
f 117 121 145
f 117 145 144
f 118 134 143
f 118 143 119
f 119 143 120
f 121 142 145
f 122 146 147
f 122 147 123
f 124 148 129
f 124 129 128
f 126 131 129
f 129 148 149
f 129 149 135
f 129 131 130
f 135 149 136
f 141 151 142
f 142 151 153
f 142 153 152
f 146 154 147
f 152 153 156
f 152 156 157
f 152 157 155

