# https://github.com/mikedh/trimesh
v -6.35119341 4.66732506 9.65144816
v -6.18155530 4.41569094 9.46873635
v -6.29211547 4.42157887 9.46589091
v -6.41153730 4.42560734 9.46365544
v -6.41153730 4.66422598 9.65490322
v -6.41153730 4.66298634 9.70368049
v -6.41153730 4.66019750 9.79147970
v -6.41153730 4.64129410 10.36380049
v -6.35921088 4.66205662 9.79981252
v -6.35752317 4.64129410 10.36380049
v -5.18820343 4.44327144 10.40383850
v -5.06118589 4.42126896 10.36522304
v -5.06118589 4.42126896 10.34225696
v -4.41132953 4.19690544 10.34815114
v -6.17902339 3.97811993 9.24598652
v -4.14379109 4.00601033 10.31360034
v -3.73235597 3.76646230 10.33351769
v -3.65260072 3.64374400 10.27335901
v -3.94419224 3.11475439 9.66933319
v -4.07120978 2.98552835 9.51792010
v -4.13619538 2.91518252 9.43967309
v -4.29992550 2.75744626 9.29293461
v -6.41153730 4.03885926 9.27403352
v -6.29211547 3.97966947 9.24537674
v -6.41153730 4.43831324 10.58370491
v -6.28705166 4.56413030 10.44733157
v -5.66968795 4.42064914 10.57598187
v -5.52241519 4.40949278 10.57232352
v -5.60934406 4.47705010 10.48411784
v -5.40890135 4.47271139 10.44895742
v -4.84470758 4.19845498 10.57496563
v -4.76115480 4.24524878 10.47090727
v -4.52568723 4.21704847 10.39428629
v -4.41132953 4.19690544 10.35709373
v -6.07774730 2.39579941 8.50741636
v -6.29211547 2.45622884 8.50741636
v -3.73235597 3.76646230 10.37762068
v -3.48887060 3.57091891 10.30973898
v -3.72180627 2.90185681 9.66750400
v -3.86781307 2.97747107 9.62482387
v -3.98892262 2.85692212 9.47686583
v -4.07120978 2.77387073 9.39394439
v -4.22354601 2.62512130 9.25818083
v -4.37039700 2.68214190 9.23216617
v -6.41153730 2.45622884 8.50741636
v -6.41153730 4.36176926 10.58370491
v -2.39719597 1.87672654 10.58289196
v -5.18820343 4.23068376 10.58329827
v -6.29211547 4.43831324 10.58350158
v -5.85029720 4.42591725 10.57903062
v -4.96750550 4.21023082 10.58004653
v -4.38938627 3.98710693 10.57862398
v -4.32651048 4.07015866 10.45424165
v -4.14379109 4.00601033 10.40444812
v -6.00685404 2.30995884 8.50741636
v -4.29992550 2.54640812 9.19924156
v -4.14590089 2.47792141 9.22810150
v -4.07711744 2.32576333 9.19680277
v -3.85641951 2.10232953 9.19944488
v -4.08471315 2.09768107 9.11794599
v -3.86401522 1.87672654 9.13014030
v -3.88173854 3.79900100 10.45566421
v -3.96740145 3.75716539 10.57476231
v -3.65217863 3.63475699 10.46724890
v -3.48887060 3.57091891 10.40973235
v -3.26817267 3.35554238 10.30973898
v -3.84966767 2.77387073 9.50938413
v -3.50110834 2.68121218 9.66750400
v -3.64627096 2.75682644 9.62380763
v -3.76695875 2.63627749 9.47686583
v -3.91423117 2.70972240 9.43662451
v -4.07711744 2.54640812 9.28500844
v -3.84966767 2.55322577 9.39191206
v -6.41153730 1.50144440 8.50741636
v -6.41153730 4.30226955 10.57090097
v -2.38960026 1.50144440 10.57598187
v -2.32039472 1.50144440 10.57923361
v -2.49509647 1.87672654 10.58289196
v -2.19928517 1.50144440 10.57699813
v -2.41576331 2.01307997 10.57862398
v -2.62211384 2.31832587 10.58085947
v -3.05338241 2.90774506 10.58126610
v -4.52568723 4.00601033 10.58289196
v -6.07141755 4.43180550 10.58146909
v -4.08471315 3.78102732 10.58085947
v -4.24253561 3.93349515 10.55159324
v -5.94018039 2.18228234 8.50741636
v -3.86401522 1.65608174 9.08319221
v -3.70956852 1.50144440 9.10229662
v -3.99862814 2.40416660 9.25818083
v -3.92520297 2.25696688 9.22810150
v -3.77793021 2.17918326 9.25818083
v -3.72138418 2.03229345 9.23236947
v -3.64584887 1.85937235 9.21509425
v -3.64289520 1.65608174 9.16123589
v -3.64289520 1.50144440 9.12587233
v -3.71969613 3.55108578 10.57984323
v -3.57242370 3.49623437 10.55687747
v -3.41839910 3.42588821 10.48330491
v -3.26817267 3.35554238 10.40973235
v -3.04747442 3.13458752 10.30973898
v -3.62896941 2.55322577 9.50938413
v -2.99008452 2.97127324 10.23616644
v -2.83184030 2.91425280 10.30973898
v -3.28842789 2.45839820 9.66973965
v -3.42557304 2.53494202 9.62502703
v -3.69311116 2.48907777 9.43662451
v -3.54626049 2.41408333 9.47686583
v -3.85641951 2.32576333 9.28500844
v -3.62896941 2.33165142 9.39394439
v -6.41153730 1.50144440 9.17099125
v -5.89334020 1.50144440 8.50741636
v -6.41153730 4.25144694 10.55992588
v -2.46555750 1.50144440 10.55708044
v -2.10602638 1.50144440 10.45586752
v -2.20477090 1.55660555 10.57476231
v -2.46977728 2.16027986 10.55118661
v -2.64574499 2.43546599 10.57476231
v -2.18620356 1.87672654 10.39266044
v -2.33305423 2.07536868 10.45342873
v -2.85167343 2.68338154 10.57984323
v -3.12722967 3.05494478 10.55687747
v -3.34792760 3.27558941 10.55687747
v -3.49520035 3.34903465 10.58126610
v -2.90653175 2.83058126 10.55687747
v -5.91950341 2.08280615 8.50741636
v -3.86190508 1.50144440 9.05555166
v -3.89903976 1.50144440 9.04498322
v -3.64584887 2.10232953 9.29313793
v -3.57411142 1.92135132 9.26834283
v -3.52769332 1.77415143 9.24578320
v -3.49098074 1.65608174 9.22749172
v -3.48844883 1.50144440 9.19050229
v -2.97700325 2.98459863 10.48330491
v -3.04747442 3.13458752 10.40973235
v -2.83184030 2.91425280 10.40973235
v -2.63646140 2.67036589 10.33392431
v -2.75883690 2.75031870 10.27376564
v -3.09515880 2.20180556 9.69290889
v -3.24200946 2.31832587 9.63478255
v -3.34117608 2.16182923 9.48926347
v -3.41755524 2.33165142 9.51812341
v -3.48802674 2.26688344 9.43987640
v -6.41153730 4.08441377 10.49814134
v -5.89291777 1.65608174 8.50741636
v -4.30498931 1.50144440 8.93238889
v -6.41153730 4.16095775 10.52659497
v -2.10096258 1.50144440 10.39144088
v -2.20645878 1.99045767 10.35587415
v -2.15835264 1.64058700 10.47050097
v -2.39719597 2.25851625 10.40404183
v -2.63646140 2.67036589 10.37721405
v -2.76812065 2.75031870 10.46704593
v -5.91486137 2.04344964 8.50741636
v -3.96824531 1.50144440 9.02567548
v -4.08049320 1.50144440 8.99437674
v -3.41755524 2.09179315 9.41243919
v -3.44160831 1.85937235 9.31772988
v -3.38042056 1.65608174 9.28175654
v -3.43865432 1.50144440 9.21224882
v -3.33611227 1.50144440 9.26001002
v -3.34033189 1.50144440 9.25797769
v -2.20645878 1.99045767 10.34896406
v -2.39719597 2.25851625 10.31380365
v -2.59595080 2.53928057 10.29632511
v -2.85589337 1.79057573 9.67664975
v -3.04916246 2.05491574 9.65571614
v -2.97784711 1.86928907 9.62157198
v -3.14115513 1.87672654 9.50409990
v -3.29475765 2.01462935 9.45715165
v -5.89840400 1.83551042 8.50741636
v -5.90051348 1.87672654 8.50741636
v -2.10855845 1.50144440 10.27457857
v -3.25129321 1.87672654 9.43012089
v -3.18546343 1.66754785 9.39475732
v -3.20782878 1.50144440 9.33439534
v -2.32123874 2.07722813 10.28839877
v -2.18620356 1.87672654 10.32213663
v -2.82719859 1.65608174 9.65104171
v -2.98544281 1.66754785 9.53072419
v -3.10148856 1.74874012 9.47605291
v -2.14822486 1.50144440 10.23697937
v -2.14822486 1.65608174 10.28230161
v -3.06224407 1.60154024 9.44759943
v -3.04198885 1.50144440 9.43357593
v -2.26469270 1.65608174 10.17194293
v -2.72128029 1.50144440 9.69656709
v -2.79850348 1.50144440 9.62705937
v -2.93733634 1.50144440 9.51344897
v -2.97573730 1.50144440 9.48296299
f 1 2 3
f 1 3 4
f 1 4 5
f 1 5 6
f 1 6 7
f 1 7 8
f 1 8 9
f 1 9 10
f 1 10 11
f 1 11 12
f 1 12 13
f 1 13 14
f 1 14 2
f 2 15 3
f 2 14 16
f 2 16 17
f 2 17 18
f 2 18 19
f 2 19 20
f 2 20 21
f 2 21 22
f 2 22 15
f 3 15 4
f 4 23 45
f 4 45 74
f 4 74 111
f 4 111 144
f 4 144 147
f 4 147 113
f 4 113 75
f 4 75 46
f 4 46 25
f 4 25 8
f 4 8 7
f 4 7 6
f 4 6 5
f 4 15 24
f 4 24 23
f 8 10 9
f 8 25 10
f 10 25 26
f 10 26 27
f 10 27 28
f 10 28 29
f 10 29 30
f 10 30 11
f 11 30 28
f 11 28 31
f 11 31 32
f 11 32 33
f 11 33 12
f 12 33 34
f 12 34 14
f 12 14 13
f 14 34 37
f 14 37 17
f 14 17 16
f 15 35 36
f 15 36 24
f 15 22 35
f 17 37 65
f 17 65 38
f 17 38 18
f 18 38 19
f 19 38 39
f 19 39 40
f 19 40 41
f 19 41 20
f 20 41 21
f 21 41 42
f 21 42 22
f 22 42 43
f 22 43 44
f 22 44 35
f 23 24 36
f 23 36 45
f 25 46 47
f 25 47 48
f 25 48 49
f 25 49 26
f 26 49 50
f 26 50 27
f 27 50 48
f 27 48 51
f 27 51 28
f 28 30 29
f 28 51 31
f 31 51 52
f 31 52 33
f 31 33 32
f 33 52 53
f 33 53 34
f 34 53 54
f 34 54 37
f 35 55 87
f 35 87 126
f 35 126 154
f 35 154 172
f 35 172 171
f 35 171 145
f 35 145 112
f 35 112 74
f 35 74 45
f 35 45 36
f 35 44 43
f 35 43 56
f 35 56 57
f 35 57 58
f 35 58 59
f 35 59 60
f 35 60 61
f 35 61 55
f 37 54 62
f 37 62 63
f 37 63 64
f 37 64 65
f 38 65 100
f 38 100 66
f 38 66 39
f 39 67 40
f 39 66 68
f 39 68 69
f 39 69 67
f 40 67 41
f 41 67 70
f 41 70 71
f 41 71 42
f 42 72 43
f 42 71 73
f 42 73 72
f 43 72 57
f 43 57 56
f 46 75 76
f 46 76 77
f 46 77 78
f 46 78 47
f 47 78 77
f 47 77 79
f 47 79 80
f 47 80 81
f 47 81 82
f 47 82 83
f 47 83 48
f 48 50 84
f 48 84 49
f 48 83 51
f 49 84 50
f 51 83 52
f 52 83 85
f 52 85 63
f 52 63 86
f 52 86 53
f 53 86 63
f 53 63 54
f 54 63 62
f 55 61 88
f 55 88 89
f 55 89 87
f 57 72 90
f 57 90 91
f 57 91 58
f 58 91 59
f 59 92 93
f 59 93 61
f 59 61 60
f 59 91 92
f 61 93 94
f 61 94 95
f 61 95 96
f 61 96 89
f 61 89 88
f 63 85 97
f 63 97 98
f 63 98 64
f 64 98 65
f 65 98 99
f 65 99 100
f 66 100 135
f 66 135 101
f 66 101 68
f 67 69 102
f 67 102 70
f 68 101 103
f 68 103 104
f 68 104 105
f 68 105 106
f 68 106 102
f 68 102 69
f 70 107 71
f 70 102 108
f 70 108 107
f 71 107 73
f 72 73 109
f 72 109 90
f 73 107 110
f 73 110 109
f 74 112 146
f 74 146 156
f 74 156 155
f 74 155 128
f 74 128 127
f 74 127 89
f 74 89 96
f 74 96 133
f 74 133 160
f 74 160 162
f 74 162 161
f 74 161 176
f 74 176 185
f 74 185 190
f 74 190 189
f 74 189 188
f 74 188 187
f 74 187 182
f 74 182 173
f 74 173 148
f 74 148 115
f 74 115 79
f 74 79 77
f 74 77 76
f 74 76 114
f 74 114 111
f 75 113 76
f 76 113 114
f 79 115 116
f 79 116 80
f 80 117 118
f 80 118 81
f 80 116 119
f 80 119 120
f 80 120 117
f 81 118 121
f 81 121 82
f 82 122 123
f 82 123 124
f 82 124 83
f 82 121 125
f 82 125 122
f 83 124 85
f 85 124 97
f 87 89 127
f 87 127 128
f 87 128 126
f 90 109 91
f 91 109 92
f 92 109 110
f 92 110 129
f 92 129 93
f 93 129 130
f 93 130 94
f 94 130 131
f 94 131 132
f 94 132 95
f 95 132 133
f 95 133 96
f 97 124 98
f 98 124 123
f 98 123 99
f 99 123 122
f 99 122 134
f 99 134 100
f 100 134 135
f 101 135 136
f 101 136 104
f 101 104 103
f 102 106 108
f 104 136 152
f 104 152 137
f 104 137 138
f 104 138 105
f 105 139 140
f 105 140 141
f 105 141 142
f 105 142 108
f 105 108 106
f 105 138 139
f 107 108 110
f 108 142 143
f 108 143 110
f 110 143 129
f 111 114 144
f 112 145 146
f 113 147 114
f 114 147 144
f 115 148 149
f 115 149 119
f 115 119 150
f 115 150 116
f 116 150 119
f 117 120 118
f 118 120 151
f 118 151 152
f 118 152 153
f 118 153 125
f 118 125 121
f 119 149 120
f 120 149 151
f 122 125 134
f 125 153 136
f 125 136 134
f 126 128 155
f 126 155 156
f 126 156 146
f 126 146 154
f 129 143 157
f 129 157 158
f 129 158 130
f 130 158 159
f 130 159 131
f 131 159 132
f 132 160 133
f 132 159 161
f 132 161 162
f 132 162 160
f 134 136 135
f 136 153 152
f 137 152 149
f 137 149 163
f 137 163 164
f 137 164 165
f 137 165 138
f 138 165 139
f 139 165 164
f 139 164 166
f 139 166 167
f 139 167 140
f 140 167 168
f 140 168 169
f 140 169 141
f 141 169 170
f 141 170 143
f 141 143 142
f 143 170 157
f 145 171 146
f 146 171 172
f 146 172 154
f 148 173 163
f 148 163 149
f 149 152 151
f 157 170 174
f 157 174 158
f 158 174 159
f 159 174 175
f 159 175 161
f 161 175 176
f 163 177 164
f 163 173 178
f 163 178 166
f 163 166 177
f 164 177 166
f 166 178 179
f 166 179 180
f 166 180 181
f 166 181 168
f 166 168 167
f 168 181 169
f 169 181 170
f 170 181 174
f 173 182 183
f 173 183 178
f 174 181 175
f 175 181 184
f 175 184 176
f 176 184 185
f 178 183 186
f 178 186 179
f 179 187 188
f 179 188 189
f 179 189 190
f 179 190 184
f 179 184 180
f 179 186 187
f 180 184 181
f 182 186 183
f 182 187 186
f 184 190 185

