# https://github.com/mikedh/trimesh
v 6.41732028 4.66368676 9.65883349
v 6.41732028 4.66306728 9.79203274
v 6.50526243 4.66058999 9.78140950
v 6.51325753 4.65997083 9.66251076
v 6.51325753 4.52588989 9.55750394
v 6.41732028 4.60887746 9.61613626
v 6.41732028 4.63953335 10.36242006
v 6.43541403 4.63953335 10.36242006
v 6.62560477 4.63829503 9.69560627
v 7.61695573 4.44104418 10.41206324
v 7.74150519 4.42029712 10.36568856
v 6.62560477 4.63829503 9.68641316
v 6.51325753 4.40636278 9.47435663
v 6.66137053 4.26392090 9.43615374
v 6.41732028 4.40295642 9.47905527
v 6.41732028 4.63179223 10.37324743
v 6.51073286 4.57946055 10.44638473
v 7.33713841 4.42432264 10.57937934
v 7.17556054 4.50390418 10.46211502
v 7.40488391 4.46426820 10.48009299
v 7.48399006 4.40295642 10.56548744
v 8.06550381 4.24936707 10.47662018
v 8.27967919 4.21499525 10.40001005
v 7.74150519 4.42029712 10.34505502
v 8.39202643 4.19579641 10.35547411
v 8.39202643 4.19579641 10.34995795
v 8.65964088 4.00442921 10.31931389
v 9.07158165 3.76537466 10.33688324
v 8.85235694 3.10766500 9.67558562
v 6.73416535 2.43818871 8.51193042
v 6.58352703 2.44716880 8.51193042
v 6.51325753 2.45119432 8.51193042
v 6.41732028 2.44623990 8.51193042
v 6.41732028 4.29240908 9.42164892
v 6.87512546 2.35179478 8.51193042
v 8.54939719 3.05254645 9.49601171
v 8.65669510 2.90545990 9.44636836
v 6.41732028 4.57915064 10.44638473
v 6.41732028 4.52774769 10.51012413
v 6.51325753 4.45869446 10.59511030
v 6.95465272 4.44228250 10.59041135
v 7.17556054 4.43361231 10.58571272
v 7.83786355 4.22985866 10.59143287
v 7.99649631 4.20911160 10.58244388
v 8.14376841 4.17628800 10.55976731
v 8.27967919 4.14687076 10.51053272
v 8.59273694 3.95890958 10.56181033
v 8.65964088 4.00442921 10.41471917
v 9.07158165 3.76537466 10.38203210
v 9.31521145 3.56936246 10.31563679
v 9.07494787 2.89338303 9.67374691
v 8.93188354 2.97265500 9.63615691
v 8.80396720 2.84569602 9.48334544
v 6.41732028 1.50024062 8.51193042
v 6.96096405 2.09725750 8.51193042
v 8.49343412 2.74846419 9.30540595
v 8.56202051 2.60788028 9.26516018
v 8.64238867 2.46079373 9.23492473
v 8.86329715 2.24000896 9.23492473
v 8.93861598 2.09075470 9.21204385
v 8.94156109 1.87678247 9.15116438
v 9.16667734 1.50024062 9.14850861
v 9.09724874 1.50024062 9.12358487
v 8.72654416 2.76704354 9.40591828
v 6.41732028 4.45869446 10.59511030
v 6.95465272 4.30510511 10.59878742
v 7.17556054 4.30510511 10.59797021
v 6.73416535 4.45002428 10.59306728
v 7.61695573 4.26484997 10.59470170
v 8.27967919 4.03632341 10.59429310
v 8.44630705 4.00226150 10.58632563
v 8.85993093 3.76970976 10.58244388
v 9.26555971 3.52570096 10.56855197
v 9.00720237 3.71675858 10.52932756
v 8.93693287 3.80501065 10.45823362
v 9.31521145 3.56936246 10.42146082
v 9.53611927 3.35415142 10.31563679
v 8.94871464 2.76704354 9.52093544
v 9.29585569 2.67259842 9.67374691
v 9.15405402 2.75187038 9.63513556
v 9.02697924 2.62491140 9.48334544
v 8.88012759 2.69829989 9.44309969
v 6.41732028 1.50024062 9.19631323
v 7.00430380 1.50024062 8.51193042
v 7.00177979 1.87678247 8.51193042
v 8.71770816 2.53634976 9.29723418
v 8.78966077 2.38709550 9.26516018
v 8.93861598 2.31556499 9.29723418
v 9.01014814 2.15980809 9.26516018
v 9.06989854 2.01272137 9.23921493
v 9.11407984 1.87678247 9.21898980
v 9.17887956 1.66931288 9.19263595
v 9.30511279 1.50024062 9.20366779
v 8.93272510 1.50024062 9.07394152
v 8.94871464 2.54625876 9.40387542
v 6.41732028 4.38778310 10.59347589
v 6.73416535 4.30510511 10.59674439
v 10.47655583 1.50024062 10.59286297
v 10.43994786 1.87678247 10.59429310
v 7.83786355 4.08432033 10.59797021
v 8.93693287 3.64306036 10.59388449
v 8.72065327 3.80934574 10.59225008
v 9.11828761 3.56936246 10.58755145
v 9.33961654 3.37861408 10.58898124
v 9.48688798 3.30491618 10.56855197
v 9.40105004 3.43992619 10.49500641
v 9.53611927 3.35415142 10.42146082
v 9.75660664 3.13336664 10.31563679
v 9.16962246 2.54625876 9.52093544
v 9.97204402 2.91289144 10.31563679
v 9.51045151 2.45026541 9.67538133
v 9.37496184 2.52984696 9.63615691
v 9.10061496 2.47751511 9.44309969
v 9.24788706 2.40164934 9.48334544
v 10.34821904 1.50024062 10.58244388
v 6.41732028 4.10506706 10.53075768
v 7.00472490 1.60676229 8.51193042
v 7.00262069 1.82816639 8.51193042
v 9.16962246 2.32423534 9.40591828
v 9.15110825 2.09075470 9.30520164
v 9.22432352 1.87678247 9.27190184
v 9.26345549 1.75199103 9.25249393
v 9.30974101 1.60459474 9.23002164
v 9.33667077 1.50024062 9.21633405
v 7.00430380 1.65599769 8.51193042
v 6.41732028 4.28869315 10.59102426
v 10.62466948 1.50024062 10.58796004
v 10.49843625 1.66373897 10.59265867
v 10.61204616 1.59530507 10.58264818
v 10.40502366 2.04399659 10.58652994
v 10.21272871 2.31835202 10.59225008
v 10.04568040 2.53480138 10.59388449
v 10.27921154 2.10964379 10.59429310
v 9.62195786 2.99897579 10.59449706
v 10.03011131 2.30627531 10.59470170
v 9.40105004 3.21945099 10.59449706
v 9.18014222 3.44023577 10.59368019
v 9.56052436 3.15782930 10.58898124
v 9.70779646 3.08413140 10.56855197
v 9.84244523 2.99866621 10.49500641
v 9.75660664 3.13336664 10.42146082
v 9.97204402 2.91289144 10.42146082
v 10.16812630 2.66981155 10.33647463
v 9.55337081 2.31835202 9.64392006
v 9.45533000 2.14711206 9.49580741
v 9.30805790 2.25456279 9.44616405
v 9.94343116 1.78047938 9.68212297
v 6.41732028 4.20415735 10.57018640
v 6.41732028 4.18124258 10.56119742
v 9.38211473 2.08332299 9.42410039
v 9.38295628 1.87678247 9.35341487
v 9.38337739 1.66931288 9.28579374
v 9.40483671 1.50024062 9.25004246
v 10.71555675 1.50024062 10.45823362
v 10.57964597 1.74270136 10.56058451
v 10.36168392 2.19108330 10.56221894
v 10.17233408 2.45831644 10.58244388
v 9.97246513 2.71595017 10.58775542
v 9.78101107 2.93735443 10.58898124
v 9.84286568 2.77757186 10.59368019
v 9.92828317 2.86303672 10.56855197
v 10.16812630 2.66981155 10.38264501
v 10.59900173 1.99042626 10.34914074
v 10.40712788 2.25796898 10.31910993
v 9.65014962 1.87678247 9.51378519
v 9.50161552 2.00002551 9.46352910
v 9.96867780 1.65599769 9.65985500
v 9.73472621 1.58570565 9.45372292
v 9.69433158 1.73279236 9.48252840
v 9.53990659 1.87678247 9.44003532
v 9.61396276 1.65785549 9.40653119
v 9.60680987 1.50024062 9.35790937
v 9.44144467 1.50024062 9.26904176
v 10.71513630 1.50024062 10.39653691
v 10.59900173 1.99042626 10.35710820
v 10.61835749 1.87678247 10.40184877
v 10.65286124 1.66373897 10.47702845
v 10.55019155 1.87678247 10.51237145
v 10.20809983 2.53480138 10.45864222
v 10.11973723 2.60540299 10.52994046
v 10.40712788 2.25796898 10.41512778
v 10.69620164 1.50024062 10.28295005
v 10.61835749 1.87678247 10.32605554
v 10.07555527 1.50024062 9.70582106
v 9.99771177 1.50024062 9.63615691
v 9.81425282 1.50024062 9.48906575
v 9.75155731 1.50024062 9.44228247
v 10.65580701 1.65599769 10.29091717
f 1 2 3
f 1 3 4
f 1 4 5
f 1 5 6
f 1 6 15
f 1 15 34
f 1 34 33
f 1 33 54
f 1 54 83
f 1 83 116
f 1 116 149
f 1 149 148
f 1 148 126
f 1 126 96
f 1 96 65
f 1 65 39
f 1 39 38
f 1 38 16
f 1 16 7
f 1 7 2
f 2 7 8
f 2 8 3
f 3 9 4
f 3 8 10
f 3 10 11
f 3 11 9
f 4 9 12
f 4 12 5
f 5 13 6
f 5 12 14
f 5 14 13
f 6 13 15
f 7 16 8
f 8 16 17
f 8 17 18
f 8 18 19
f 8 19 20
f 8 20 10
f 9 11 24
f 9 24 12
f 10 20 21
f 10 21 22
f 10 22 23
f 10 23 11
f 11 23 25
f 11 25 26
f 11 26 24
f 12 24 26
f 12 26 27
f 12 27 28
f 12 28 29
f 12 29 14
f 13 14 30
f 13 30 31
f 13 31 32
f 13 32 33
f 13 33 34
f 13 34 15
f 14 35 30
f 14 29 36
f 14 36 37
f 14 37 35
f 16 38 17
f 17 38 39
f 17 39 40
f 17 40 41
f 17 41 42
f 17 42 18
f 18 21 20
f 18 20 19
f 18 42 43
f 18 43 44
f 18 44 21
f 21 44 45
f 21 45 22
f 22 45 23
f 23 45 25
f 25 45 46
f 25 46 47
f 25 47 48
f 25 48 49
f 25 49 28
f 25 28 26
f 26 28 27
f 28 49 76
f 28 76 50
f 28 50 29
f 29 50 51
f 29 51 52
f 29 52 53
f 29 53 37
f 29 37 36
f 30 35 55
f 30 55 85
f 30 85 118
f 30 118 125
f 30 125 117
f 30 117 84
f 30 84 54
f 30 54 33
f 30 33 32
f 30 32 31
f 35 37 56
f 35 56 57
f 35 57 58
f 35 58 59
f 35 59 60
f 35 60 61
f 35 61 62
f 35 62 63
f 35 63 55
f 37 53 64
f 37 64 56
f 39 65 40
f 40 66 67
f 40 67 68
f 40 68 41
f 40 65 66
f 41 68 69
f 41 69 42
f 42 69 43
f 43 69 70
f 43 70 44
f 44 70 71
f 44 71 45
f 45 71 47
f 45 47 46
f 47 72 73
f 47 73 74
f 47 74 75
f 47 75 48
f 47 71 72
f 48 75 49
f 49 75 74
f 49 74 73
f 49 73 76
f 50 76 107
f 50 107 77
f 50 77 51
f 51 78 52
f 51 77 79
f 51 79 80
f 51 80 78
f 52 78 53
f 53 78 81
f 53 81 82
f 53 82 64
f 54 84 94
f 54 94 63
f 54 63 62
f 54 62 93
f 54 93 124
f 54 124 153
f 54 153 173
f 54 173 172
f 54 172 187
f 54 187 186
f 54 186 185
f 54 185 184
f 54 184 182
f 54 182 174
f 54 174 154
f 54 154 127
f 54 127 98
f 54 98 115
f 54 115 83
f 55 63 85
f 56 64 57
f 57 64 86
f 57 86 58
f 58 86 87
f 58 87 59
f 59 87 88
f 59 88 89
f 59 89 60
f 60 89 90
f 60 90 61
f 61 90 91
f 61 91 92
f 61 92 62
f 62 92 93
f 63 94 85
f 64 82 95
f 64 95 86
f 65 96 97
f 65 97 66
f 66 97 98
f 66 98 99
f 66 99 100
f 66 100 67
f 67 100 69
f 67 69 68
f 69 100 70
f 70 101 102
f 70 102 71
f 70 100 101
f 71 102 72
f 72 102 103
f 72 103 73
f 73 103 104
f 73 104 105
f 73 105 106
f 73 106 76
f 76 106 107
f 77 107 141
f 77 141 108
f 77 108 79
f 78 80 109
f 78 109 81
f 79 108 110
f 79 110 111
f 79 111 112
f 79 112 109
f 79 109 80
f 81 113 82
f 81 109 114
f 81 114 113
f 82 113 95
f 83 115 116
f 84 117 94
f 85 94 118
f 86 95 88
f 86 88 87
f 88 95 119
f 88 119 89
f 89 119 120
f 89 120 90
f 90 120 121
f 90 121 122
f 90 122 91
f 91 122 123
f 91 123 92
f 92 123 124
f 92 124 93
f 94 117 125
f 94 125 118
f 95 113 119
f 96 126 98
f 96 98 97
f 98 127 128
f 98 128 99
f 98 126 115
f 99 128 127
f 99 127 129
f 99 129 130
f 99 130 131
f 99 131 132
f 99 132 133
f 99 133 134
f 99 134 135
f 99 135 100
f 100 135 134
f 100 134 136
f 100 136 101
f 101 136 137
f 101 137 104
f 101 104 103
f 101 103 102
f 104 137 136
f 104 136 134
f 104 134 138
f 104 138 139
f 104 139 105
f 105 139 107
f 105 107 106
f 107 139 140
f 107 140 141
f 108 141 142
f 108 142 110
f 109 112 114
f 110 142 162
f 110 162 143
f 110 143 111
f 111 144 145
f 111 145 146
f 111 146 114
f 111 114 112
f 111 143 147
f 111 147 144
f 113 114 119
f 114 146 119
f 115 126 148
f 115 148 149
f 115 149 116
f 119 146 120
f 120 146 150
f 120 150 151
f 120 151 121
f 121 151 152
f 121 152 122
f 122 152 123
f 123 152 153
f 123 153 124
f 127 154 129
f 129 155 130
f 129 154 155
f 130 155 156
f 130 156 157
f 130 157 131
f 131 157 158
f 131 158 132
f 132 158 159
f 132 159 160
f 132 160 134
f 132 134 133
f 134 160 159
f 134 159 138
f 138 159 139
f 139 159 161
f 139 161 140
f 140 161 142
f 140 142 141
f 142 161 162
f 143 162 175
f 143 175 163
f 143 163 164
f 143 164 147
f 144 165 145
f 144 147 165
f 145 165 166
f 145 166 146
f 146 166 150
f 147 164 163
f 147 163 167
f 147 167 168
f 147 168 169
f 147 169 165
f 150 166 170
f 150 170 151
f 151 170 171
f 151 171 152
f 152 171 172
f 152 172 173
f 152 173 153
f 154 174 163
f 154 163 175
f 154 175 176
f 154 176 177
f 154 177 155
f 155 177 176
f 155 176 175
f 155 175 178
f 155 178 156
f 156 179 180
f 156 180 161
f 156 161 157
f 156 178 175
f 156 175 181
f 156 181 179
f 157 161 158
f 158 161 159
f 161 180 162
f 162 179 181
f 162 181 175
f 162 180 179
f 163 174 182
f 163 182 183
f 163 183 167
f 165 169 166
f 166 169 170
f 167 183 184
f 167 184 185
f 167 185 186
f 167 186 168
f 168 172 171
f 168 171 170
f 168 170 169
f 168 186 187
f 168 187 172
f 182 188 183
f 182 184 188
f 183 188 184

