# https://github.com/mikedh/trimesh
v 6.41689983 1.87243421 9.19435147
v 6.41689983 1.55963571 9.19587550
v 6.41689983 1.87243421 8.51179874
v 5.08686351 1.87243421 9.25313594
v 6.41689983 1.11801327 9.19798021
v 6.41689983 -0.22990190 8.51179874
v 5.91501928 1.87243421 8.51179874
v 6.41689983 -0.22990190 9.20204422
v 6.41689983 -0.11033876 9.20247965
v 6.41689983 0.11047242 9.20247965
v 6.41689983 0.33128355 9.20160881
v 6.41689983 0.77290587 9.19957681
v 6.41689983 0.99351118 9.19856072
v 3.62254129 1.87243421 9.25313594
v 4.13012059 -0.22990190 9.25313594
v 5.53638276 -0.22990190 8.51179874
v 4.52621065 0.13969436 8.51179874
v 4.52621065 0.33128355 8.51579030
v 4.30536929 0.33128355 8.54764996
v 4.19423602 0.44199782 8.58531563
v 3.86368623 1.87243421 9.15196858
v 3.69271176 1.87243421 9.21938921
v 3.54382202 1.74875526 9.25313594
v 2.81753814 -0.22990190 9.25313594
v 4.52621065 -0.22990190 8.51368559
v 4.52621065 -0.13935497 8.51179874
v 4.52229272 0.11417659 8.51179874
v 4.30536929 0.11047242 8.54278758
v 4.18853693 0.33128355 8.58263041
v 2.77800020 0.11047242 9.25313594
v 2.84318418 0.24546971 9.23499251
v 3.36536765 1.43492768 9.25313594
v 3.49716014 1.60182235 9.23063818
v 3.46759584 1.62795743 9.25313594
v 2.79830345 -0.19409469 9.25313594
v 2.83142972 -0.22990190 9.24087106
v 4.42505102 -0.22990190 8.52820027
v 4.30536929 -0.11033876 8.54278758
v 4.52193642 -0.11033876 8.51179874
v 4.52193642 0.11047242 8.51179874
v 4.18319382 0.11047242 8.58001774
v 3.86368623 0.11047242 8.73300241
v 3.28059301 0.11047242 9.01226489
v 3.86368623 -0.11033876 8.73300241
v 3.73189341 -0.11033876 8.79621386
v 3.62147273 -0.11033876 8.84919241
v 2.78084991 -0.11033876 9.25313594
v 2.83000487 0.25946332 9.25313594
v 2.79616634 -0.18401108 9.25313594
v 3.71372761 -0.22990190 8.81036567
v 4.30536929 -0.22990190 8.54540025
v 4.18604352 -0.22990190 8.58139661
v 4.18319382 -0.11033876 8.58001774
v 4.13546371 -0.22990190 8.60570869
f 1 2 5
f 1 5 13
f 1 13 12
f 1 12 11
f 1 11 10
f 1 10 9
f 1 9 8
f 1 8 6
f 1 6 3
f 1 3 7
f 1 7 21
f 1 21 22
f 1 22 14
f 1 14 4
f 1 4 2
f 2 4 5
f 3 6 16
f 3 16 26
f 3 26 39
f 3 39 40
f 3 40 27
f 3 27 17
f 3 17 7
f 4 8 9
f 4 9 10
f 4 10 11
f 4 11 12
f 4 12 13
f 4 13 5
f 4 14 23
f 4 23 34
f 4 34 32
f 4 32 48
f 4 48 30
f 4 30 47
f 4 47 49
f 4 49 35
f 4 35 24
f 4 24 15
f 4 15 8
f 6 8 15
f 6 15 24
f 6 24 36
f 6 36 50
f 6 50 54
f 6 54 52
f 6 52 51
f 6 51 37
f 6 37 25
f 6 25 16
f 7 17 18
f 7 18 19
f 7 19 20
f 7 20 21
f 14 22 23
f 16 25 26
f 17 27 18
f 18 27 28
f 18 28 19
f 19 28 29
f 19 29 20
f 20 29 30
f 20 30 31
f 20 31 32
f 20 32 33
f 20 33 22
f 20 22 21
f 22 33 23
f 23 33 34
f 24 35 36
f 25 37 38
f 25 38 39
f 25 39 26
f 27 40 28
f 28 40 39
f 28 39 38
f 28 38 53
f 28 53 41
f 28 41 29
f 29 41 42
f 29 42 43
f 29 43 30
f 30 43 44
f 30 44 45
f 30 45 46
f 30 46 47
f 30 48 31
f 31 48 32
f 32 34 33
f 35 49 50
f 35 50 36
f 37 51 38
f 38 51 52
f 38 52 53
f 41 53 44
f 41 44 42
f 42 44 43
f 44 53 52
f 44 52 45
f 45 52 46
f 46 52 47
f 47 52 54
f 47 54 50
f 47 50 49

