# https://github.com/mikedh/trimesh
v -9.07135530 -1.21870516 1.97375787
v -7.85088429 -2.64297934 1.97375787
v -9.07532357 -1.21870516 1.96863683
v -9.39785753 -1.21870516 1.97375787
v -9.16527124 -1.21884465 1.85312865
v -8.51336890 -2.64297934 1.97375787
v -7.87844176 -2.64297934 1.95327302
v -9.35641079 -1.21870516 1.65028037
v -9.26381738 -1.21870516 1.73010635
v -9.16549167 -1.21870516 1.85301746
v -9.98494435 -1.21870516 1.76200320
v -9.98494435 -2.64297934 1.76200320
v -9.37074091 -1.31881564 1.97375787
v -8.78740127 -2.48988561 1.97375787
v -7.90886538 -2.64297934 1.93089517
v -9.36677264 -1.21870516 1.64337752
v -8.16724575 -2.64297934 1.74107224
v -8.17893014 -2.64297934 1.73322321
v -10.07819903 -1.21870516 1.63113122
v -8.84516260 -2.44150360 1.97375787
v -8.89234099 -2.37903905 1.97375787
v -9.04732460 -2.09125607 1.97375787
v -9.25235342 -1.63518171 1.97375787
v -10.07819903 -2.64297934 1.63113122
v -9.55658899 -1.21870516 1.53109871
v -8.24198161 -2.64297934 1.69587106
v -10.10289100 -1.21870516 1.41024709
v -10.08988341 -2.64297934 1.52709095
v -9.78939569 -1.21870516 1.40540370
v -8.40247711 -2.64297934 1.64048307
v -10.10289100 -1.43510007 1.41030236
v -10.10311142 -1.21870516 1.40607155
v -10.10289100 -2.64297934 1.41030236
v -9.78939569 -1.43510007 1.40512538
v -10.04843733 -1.21870516 1.40512538
v -8.61698543 -2.64297934 1.59043917
v -10.10311142 -1.21954178 1.40512538
v -10.10289100 -2.64297934 1.40512538
v -9.78939569 -2.64270052 1.40512538
v -9.78939569 -2.64297934 1.40540370
f 1 2 3
f 1 3 10
f 1 10 9
f 1 9 8
f 1 8 16
f 1 16 25
f 1 25 29
f 1 29 35
f 1 35 32
f 1 32 27
f 1 27 19
f 1 19 11
f 1 11 4
f 1 4 13
f 1 13 23
f 1 23 22
f 1 22 21
f 1 21 20
f 1 20 14
f 1 14 6
f 1 6 2
f 2 5 3
f 2 6 12
f 2 12 24
f 2 24 28
f 2 28 33
f 2 33 38
f 2 38 40
f 2 40 36
f 2 36 30
f 2 30 26
f 2 26 18
f 2 18 17
f 2 17 15
f 2 15 7
f 2 7 8
f 2 8 9
f 2 9 5
f 3 5 10
f 4 11 12
f 4 12 13
f 5 9 10
f 6 14 12
f 7 15 8
f 8 15 17
f 8 17 18
f 8 18 16
f 11 19 24
f 11 24 12
f 12 14 20
f 12 20 21
f 12 21 22
f 12 22 23
f 12 23 13
f 16 18 26
f 16 26 25
f 19 27 28
f 19 28 24
f 25 26 29
f 26 30 29
f 27 31 28
f 27 32 31
f 28 31 33
f 29 34 35
f 29 30 36
f 29 36 34
f 31 32 33
f 32 37 33
f 32 35 37
f 33 37 38
f 34 39 38
f 34 38 37
f 34 37 35
f 34 36 39
f 36 40 39
f 38 39 40

