# https://github.com/mikedh/trimesh
v -4.96760222 -3.10645301 7.59750297
v -5.08693391 -3.10645301 7.56904551
v -4.90183659 -3.10645301 7.57583646
v -4.96760222 -0.83440164 7.59063112
v -5.15393754 -3.10645301 7.54471110
v -5.16320155 -0.83440164 7.53994126
v -4.80736202 -3.10645301 7.53977955
v -4.80970081 -0.83440164 7.53638405
v -5.19590079 -3.10645301 7.42061388
v -5.22062007 -0.83440164 7.37137923
v -4.75471286 -3.10645301 7.37137923
v -4.77103962 -0.83440164 7.41729924
v -5.20805399 -3.10645301 7.37137923
v -5.22098722 -0.83440164 7.15067209
v -4.75251159 -3.10645301 7.15067209
v -4.75673088 -0.83440164 7.21203353
v -4.75911573 -0.83440164 7.37137923
v -5.20819183 -3.10645301 7.21777352
v -5.19810206 -0.83440164 6.92988413
v -5.19466247 -3.10645301 7.00822303
v -5.20819183 -3.10645301 7.15067209
v -4.77860670 -3.10645301 6.92988413
v -4.75673088 -0.83440164 7.15067209
v -5.19030567 -0.83440164 6.90643903
v -5.18448124 -3.10645301 6.92988413
v -4.79704294 -3.10645301 6.87765820
v -4.78534835 -0.83440164 6.92988413
v -4.77723087 -0.83440164 6.99132642
v -5.14334342 -0.83440164 6.80004690
v -5.13233675 -3.10645301 6.79543875
v -4.83065973 -3.10645301 6.79608545
v -4.83524585 -0.83440164 6.80093616
v -4.96760222 -0.83440164 6.77991645
v -5.01965492 -3.10645301 6.77652095
v -4.96760222 -3.10645301 6.77158939
v -4.93306854 -0.83440164 6.78242270
f 1 2 5
f 1 5 9
f 1 9 13
f 1 13 18
f 1 18 21
f 1 21 20
f 1 20 25
f 1 25 30
f 1 30 34
f 1 34 35
f 1 35 31
f 1 31 26
f 1 26 22
f 1 22 15
f 1 15 11
f 1 11 7
f 1 7 3
f 1 3 4
f 1 4 2
f 2 4 6
f 2 6 5
f 3 7 8
f 3 8 4
f 4 8 12
f 4 12 17
f 4 17 16
f 4 16 23
f 4 23 28
f 4 28 27
f 4 27 32
f 4 32 36
f 4 36 33
f 4 33 29
f 4 29 24
f 4 24 19
f 4 19 14
f 4 14 10
f 4 10 6
f 5 6 10
f 5 10 9
f 7 11 12
f 7 12 8
f 9 10 13
f 10 14 13
f 11 15 16
f 11 16 17
f 11 17 12
f 13 14 18
f 14 19 20
f 14 20 21
f 14 21 18
f 15 22 23
f 15 23 16
f 19 24 25
f 19 25 20
f 22 26 27
f 22 27 28
f 22 28 23
f 24 29 30
f 24 30 25
f 26 31 32
f 26 32 27
f 29 33 34
f 29 34 30
f 31 35 36
f 31 36 32
f 33 36 35
f 33 35 34

