# https://github.com/mikedh/trimesh
v 5.85371408 0.61855820 8.51083679
v 6.13138507 0.61855820 7.93714982
v 6.72336594 0.61855820 8.51172621
v 5.89841782 0.77284270 8.51172621
v 5.91016998 1.65570324 8.51172621
v 5.91535485 1.87655629 8.51172621
v 6.06824675 2.09722542 7.81276548
v 6.14981966 0.61855820 7.89945138
v 6.99896364 0.61855820 8.51172621
v 5.93471127 2.08858254 8.51172621
v 5.96731741 2.24856778 8.51172621
v 6.06824675 2.09740933 7.81297072
v 6.12850510 2.29840227 7.81276548
v 6.12147657 1.91646072 7.81276548
v 6.25259266 0.61855820 7.88002061
v 6.99850240 0.61855820 8.41019358
v 7.01832006 0.99369583 8.25447362
v 7.03030251 1.21436497 8.25447362
v 7.00299574 1.16471438 8.51172621
v 6.03425819 2.35448887 8.51172621
v 6.21537804 2.40910457 7.81276548
v 6.29234247 1.84051369 7.81276548
v 6.29234247 0.61855820 7.87550499
v 6.99550662 0.61855820 8.03375636
v 7.00437881 1.60642047 8.51172621
v 7.00391756 1.38556742 8.51172621
v 7.00322669 1.21436497 8.51172621
v 7.02972612 2.09740933 7.81276548
v 7.03076310 1.87655629 8.25447362
v 6.07884678 2.37692365 8.51172621
v 6.32563949 2.45581300 7.81276548
v 6.51298118 1.83481312 7.81276548
v 6.73373569 0.61855820 7.87550499
v 6.89907062 0.61855820 7.89945138
v 7.00414786 1.65570324 8.51172621
v 6.93766831 1.91094407 7.81276548
v 6.92626225 2.33775483 7.81276548
v 7.02972612 2.09740933 7.81297072
v 7.02626976 2.09740933 8.03375636
v 7.00149818 1.87655629 8.51172621
v 7.00218971 1.82782523 8.51172621
v 6.16825426 2.40781739 8.51172621
v 6.51298118 2.49700444 7.81297072
v 6.51298118 2.49682054 7.81276548
v 6.29234247 2.43742381 8.51172621
v 6.73373569 1.83481312 7.81276548
v 6.84826084 2.43043607 7.81276548
v 6.84388265 2.42841312 7.92148207
v 6.87499057 2.35136282 8.51172621
v 6.96094234 2.09704168 8.51172621
v 6.75574179 2.46298464 7.83390670
v 6.75378299 2.46280073 7.81276548
v 6.36723296 2.44367609 8.51172621
v 6.51298118 2.45084789 8.51172621
v 6.58326318 2.44698621 8.51172621
v 6.73373569 2.43797552 8.51172621
v 6.78903946 2.45176742 7.81276548
v 6.76472912 2.46022639 7.81276548
f 1 2 8
f 1 8 15
f 1 15 23
f 1 23 33
f 1 33 34
f 1 34 24
f 1 24 16
f 1 16 9
f 1 9 3
f 1 3 4
f 1 4 5
f 1 5 6
f 1 6 7
f 1 7 2
f 2 7 8
f 3 9 19
f 3 19 27
f 3 27 26
f 3 26 25
f 3 25 35
f 3 35 41
f 3 41 40
f 3 40 50
f 3 50 49
f 3 49 56
f 3 56 55
f 3 55 54
f 3 54 53
f 3 53 45
f 3 45 42
f 3 42 30
f 3 30 20
f 3 20 11
f 3 11 10
f 3 10 6
f 3 6 5
f 3 5 4
f 6 10 7
f 7 10 11
f 7 11 12
f 7 12 13
f 7 13 21
f 7 21 31
f 7 31 44
f 7 44 52
f 7 52 58
f 7 58 57
f 7 57 47
f 7 47 37
f 7 37 28
f 7 28 36
f 7 36 46
f 7 46 32
f 7 32 22
f 7 22 14
f 7 14 8
f 8 14 15
f 9 16 17
f 9 17 18
f 9 18 19
f 11 20 13
f 11 13 12
f 13 20 21
f 14 22 23
f 14 23 15
f 16 24 17
f 17 24 18
f 18 25 26
f 18 26 27
f 18 27 19
f 18 24 28
f 18 28 29
f 18 29 25
f 20 30 21
f 21 30 31
f 22 32 23
f 23 32 46
f 23 46 33
f 24 34 28
f 25 29 35
f 28 37 38
f 28 38 29
f 28 34 33
f 28 33 36
f 29 38 39
f 29 39 40
f 29 40 41
f 29 41 35
f 30 42 31
f 31 43 44
f 31 42 45
f 31 45 43
f 33 46 36
f 37 47 48
f 37 48 49
f 37 49 39
f 37 39 38
f 39 50 40
f 39 49 50
f 43 51 52
f 43 52 44
f 43 45 53
f 43 53 54
f 43 54 55
f 43 55 56
f 43 56 51
f 47 57 48
f 48 57 51
f 48 51 56
f 48 56 49
f 51 57 58
f 51 58 52

