# https://github.com/mikedh/trimesh
v -2.10083740 1.50144423 10.39137804
v -2.10855434 1.50144423 10.27446837
v -2.10598197 1.50144423 10.45577080
v -1.98193932 1.33979982 10.36393209
v -1.98193932 1.33979982 10.34308337
v -2.14799638 1.50144423 10.23699385
v -1.95192891 0.24367341 9.66577204
v -2.19944275 1.50144423 10.57690305
v -1.96021763 1.21414331 10.40246202
v -1.75186026 0.03056007 9.93785778
v -1.75186026 0.03056007 9.86739532
v -1.82188434 0.10655707 9.79627291
v -2.72133638 1.50144423 9.69691286
v -1.85017973 0.10776339 9.75602748
v -1.92249028 0.11057810 9.65323655
v -2.37950457 0.24990597 9.44527974
v -3.33383270 1.49521169 9.25922685
v -3.20778930 1.50144423 9.33443976
v -3.04230402 1.50144423 9.43353596
v -2.97599555 1.50144423 9.48301811
v -2.93741069 1.50144423 9.51349914
v -2.79850578 1.50144423 9.62724195
v -2.32062731 1.50144423 10.57914609
v -2.19315478 1.43489659 10.57967413
v -2.00366117 0.87215679 10.57162506
v -1.93135062 0.99318902 10.44772174
v -1.76214957 0.03799893 10.36195257
v -1.75186026 -0.03015714 9.93785778
v -1.75186026 -0.03015714 9.86739532
v -1.92249028 -0.11037623 9.65323655
v -2.35663964 0.11057810 9.43393174
v -2.80307873 0.22899674 9.23534354
v -3.36841607 1.46545625 9.23534354
v -3.38813701 1.50144423 9.23534354
v -3.33983479 1.50144423 9.25803936
v -3.33583329 1.50144423 9.26015065
v -2.25374706 1.21414331 10.58336867
v -2.17257633 1.21414331 10.58336867
v -2.38979388 1.50144423 10.57584732
v -1.98251094 0.72498791 10.57558347
v -1.92677750 0.78831878 10.48361284
v -1.83960469 0.11098021 10.44627024
v -1.96536220 0.11057810 10.58336867
v -1.76214957 -0.03759600 10.36195257
v -1.89305165 -0.55248586 10.46223642
v -1.90276934 -0.55248586 10.25995335
v -1.82188434 -0.10635520 9.79627291
v -1.85017973 -0.10756152 9.75602748
v -1.95192891 -0.24347156 9.66577204
v -2.37950457 -0.24930199 9.44541166
v -2.35663964 -0.11037623 9.43406383
v -2.76820981 0.11057810 9.23534354
v -4.67172134 1.50144423 9.23534354
v -2.18257975 -0.55248586 10.57004131
v -2.07225612 -0.55248586 10.57861840
v -2.05167750 -0.33112946 10.58125755
v -2.04138836 -0.11037623 10.58336867
v -1.97165017 0.33133134 10.58125755
v -1.97736636 0.55188356 10.57861840
v -2.46582003 1.50144423 10.55697813
v -1.96536220 -0.11037623 10.58336867
v -1.83960469 -0.11097935 10.44627024
v -1.97736636 -0.55248586 10.57861840
v -2.50354738 -0.55248586 9.64875030
v -2.52355422 -0.55248586 9.62948517
v -2.53241439 -0.55248586 9.62104017
v -2.68103683 -0.55248586 9.49542166
v -2.79164635 -0.55248586 9.40925671
v -2.95341635 -0.55248586 9.29749309
v -3.04859200 -0.55248586 9.23534354
v -2.82365735 -0.26015872 9.23534354
v -2.77078217 -0.11037623 9.23534354
v -2.76878126 0.03578738 9.23534354
v -4.17269280 -0.55248586 9.23534354
v -2.63645021 -0.55248586 10.34215991
v -2.52612642 -0.55248586 10.41433788
v -2.85681158 1.50144423 10.36855045
v -2.31862656 -0.55248586 10.52214277
v -1.97165017 -0.33112946 10.58125755
v -2.53012775 1.50144423 10.53217134
v -2.76906715 1.50144423 10.41922007
f 1 2 6
f 1 6 13
f 1 13 22
f 1 22 21
f 1 21 20
f 1 20 19
f 1 19 18
f 1 18 36
f 1 36 35
f 1 35 34
f 1 34 53
f 1 53 77
f 1 77 81
f 1 81 80
f 1 80 60
f 1 60 39
f 1 39 23
f 1 23 8
f 1 8 3
f 1 3 4
f 1 4 5
f 1 5 2
f 2 5 7
f 2 7 6
f 3 8 9
f 3 9 4
f 4 9 10
f 4 10 11
f 4 11 5
f 5 11 12
f 5 12 7
f 6 7 13
f 7 12 14
f 7 14 15
f 7 15 16
f 7 16 17
f 7 17 18
f 7 18 19
f 7 19 20
f 7 20 21
f 7 21 22
f 7 22 13
f 8 23 24
f 8 24 25
f 8 25 26
f 8 26 9
f 9 26 27
f 9 27 10
f 10 27 44
f 10 44 28
f 10 28 29
f 10 29 11
f 11 29 30
f 11 30 15
f 11 15 14
f 11 14 12
f 15 30 31
f 15 31 16
f 16 31 32
f 16 32 33
f 16 33 17
f 17 33 34
f 17 34 35
f 17 35 36
f 17 36 18
f 23 37 38
f 23 38 24
f 23 39 37
f 24 38 40
f 24 40 25
f 25 40 26
f 26 41 27
f 26 40 41
f 27 42 43
f 27 43 61
f 27 61 44
f 27 41 40
f 27 40 42
f 28 44 45
f 28 45 29
f 29 45 46
f 29 46 47
f 29 47 48
f 29 48 30
f 30 49 50
f 30 50 51
f 30 51 31
f 30 48 49
f 31 51 52
f 31 52 32
f 32 52 73
f 32 73 72
f 32 72 71
f 32 71 70
f 32 70 74
f 32 74 53
f 32 53 34
f 32 34 33
f 37 39 54
f 37 54 55
f 37 55 56
f 37 56 57
f 37 57 61
f 37 61 43
f 37 43 38
f 38 43 58
f 38 58 59
f 38 59 40
f 39 60 54
f 40 59 42
f 42 59 43
f 43 59 58
f 44 61 62
f 44 62 63
f 44 63 45
f 45 63 55
f 45 55 54
f 45 54 78
f 45 78 76
f 45 76 75
f 45 75 74
f 45 74 70
f 45 70 69
f 45 69 68
f 45 68 67
f 45 67 66
f 45 66 65
f 45 65 64
f 45 64 46
f 46 49 47
f 46 64 49
f 47 49 48
f 49 64 65
f 49 65 66
f 49 66 67
f 49 67 68
f 49 68 69
f 49 69 70
f 49 70 50
f 50 70 71
f 50 71 72
f 50 72 51
f 51 72 73
f 51 73 52
f 53 74 75
f 53 75 76
f 53 76 77
f 54 60 78
f 55 63 79
f 55 79 56
f 56 79 61
f 56 61 57
f 60 80 78
f 61 79 63
f 61 63 62
f 76 78 81
f 76 81 77
f 78 80 81

