# https://github.com/mikedh/trimesh
v 9.35412694 -1.33329101 1.97381348
v 9.32022985 -1.43512112 1.97381348
v 9.02612518 -1.33329101 1.97381348
v 8.05474717 -1.33329101 3.57256175
v 9.12648603 -1.87673279 1.97381348
v 7.99958157 -1.46794916 3.57256175
v 7.97166682 -1.60407099 3.53766354
v 7.94009634 -1.75127482 3.49979159
v 9.00685035 -1.33329101 1.99681805
v 5.95912360 -3.20094040 1.97381348
v 5.95912360 -2.33402672 3.57256175
v 7.72641313 -1.33329101 3.57256175
v 8.61537470 -2.21400531 2.41043339
v 8.92310479 -2.31834445 1.97381348
v 7.93012665 -1.63376261 3.57256175
v 7.90221124 -1.69879164 3.57256175
v 7.84106396 -1.78744852 3.57256175
v 8.17504806 -1.99382669 3.07412670
v 8.15012383 -1.33329101 3.04298423
v 5.95912360 -3.46942042 1.97381348
v 5.95912360 -2.61651592 3.57256175
v 8.84467701 -2.44150229 1.97381348
v 7.79919151 -1.83094059 3.57256175
v 7.94109318 -1.98232637 3.28179499
v 8.39404840 -2.21128703 2.62936923
v 5.95912360 -3.33810792 2.23500276
v 6.07178075 -3.46440201 1.97381348
v 5.95912360 -2.65164409 3.51215501
v 5.96709896 -2.65080780 3.51027682
v 6.58621553 -2.46408461 3.57256175
v 8.72072104 -2.52158620 1.97381348
v 7.75067215 -1.86355972 3.57256175
v 7.64432962 -1.93297961 3.57256175
v 7.07605836 -2.26356114 3.57256175
v 5.95912360 -3.11207445 2.66551924
v 6.28812285 -3.43115566 1.97381348
v 5.95912360 -2.88311395 3.08993267
v 7.39641704 -3.16602147 1.97381348
v 6.73409889 -2.44631146 3.53985428
v 6.73409889 -2.42561095 3.57256175
v 8.27009178 -2.76141979 1.97381348
v 6.95708724 -2.33214474 3.57256175
v 6.90856789 -2.35870010 3.57256175
v 6.85107633 -2.43167472 3.51293736
v 7.55194348 -3.11562918 1.97381348
v 7.83109426 -2.99121691 1.97381348
f 1 2 5
f 1 5 14
f 1 14 22
f 1 22 31
f 1 31 41
f 1 41 46
f 1 46 45
f 1 45 38
f 1 38 36
f 1 36 27
f 1 27 20
f 1 20 10
f 1 10 3
f 1 3 9
f 1 9 19
f 1 19 12
f 1 12 4
f 1 4 2
f 2 4 6
f 2 6 7
f 2 7 8
f 2 8 5
f 3 10 11
f 3 11 9
f 4 12 11
f 4 11 21
f 4 21 30
f 4 30 40
f 4 40 43
f 4 43 42
f 4 42 34
f 4 34 33
f 4 33 32
f 4 32 23
f 4 23 17
f 4 17 16
f 4 16 15
f 4 15 6
f 5 13 14
f 5 8 13
f 6 15 7
f 7 15 8
f 8 15 16
f 8 16 17
f 8 17 18
f 8 18 13
f 9 11 19
f 10 20 26
f 10 26 35
f 10 35 37
f 10 37 28
f 10 28 21
f 10 21 11
f 11 12 19
f 13 22 14
f 13 18 22
f 17 23 18
f 18 23 24
f 18 24 25
f 18 25 22
f 20 27 26
f 21 28 29
f 21 29 30
f 22 25 31
f 23 32 24
f 24 32 33
f 24 33 34
f 24 34 31
f 24 31 25
f 26 27 35
f 27 36 35
f 28 37 36
f 28 36 29
f 29 36 38
f 29 38 39
f 29 39 30
f 30 39 40
f 31 34 42
f 31 42 43
f 31 43 44
f 31 44 41
f 35 36 37
f 38 45 44
f 38 44 39
f 39 44 40
f 40 44 43
f 41 44 46
f 44 45 46

