# https://github.com/mikedh/trimesh
v -9.02201347 -4.12219359 0.30650020
v -9.38325172 -4.12132473 0.30650020
v -9.60397201 -4.11944225 0.08576871
v -9.02201347 -4.12161457 0.22606097
v -9.02201347 -4.11669091 1.41015826
v -9.82469297 -4.11813913 1.41015826
v -9.82469297 -4.11915274 0.30650020
v -9.16242285 -4.11944225 0.08576871
v -9.82469297 -4.11799437 0.08576871
v -9.82469297 -4.04341807 -0.07301340
v -9.02201347 -4.11886290 0.08576871
v -9.02201347 -4.09221838 1.63088973
v -9.60397201 -4.09221838 1.63088973
v -9.82469297 -4.08917753 1.63088973
v -10.00304206 -4.03009564 1.63088973
v -10.02141743 -4.04674876 1.41015826
v -10.02163325 -4.04703827 1.18942677
v -10.02152534 -4.04703827 0.52723234
v -10.02141743 -4.04703827 0.30650020
v -9.16242285 -4.04341807 -0.07301340
v -10.01968761 -4.04515579 0.08576871
v -9.99028714 -4.02024866 -0.05681069
v -9.82469297 -3.86356648 -0.12142880
v -9.02201347 -4.09120476 0.02801265
v -9.02201347 -4.04240445 1.71418854
v -9.82469297 -4.01387712 1.76184199
v -9.96834486 -4.00055503 1.75497993
v -10.07470582 -3.86356648 1.63088973
v -10.10572754 -3.86356648 1.41015826
v -10.10475505 -3.86356648 0.08576871
v -9.16242285 -3.86356648 -0.12142880
v -9.02201347 -4.04182510 -0.07167902
v -10.01795844 -3.86356648 -0.07301340
v -10.01817491 -2.98067181 -0.07301340
v -9.82469297 -2.64297967 -0.12142880
v -9.02201347 -4.01387712 1.76184199
v -9.02201347 -3.91830373 1.77499433
v -9.82469297 -3.86356648 1.78242882
v -9.98499107 -3.86356648 1.76184199
v -10.07827272 -3.64287908 1.63088973
v -10.07827272 -2.64297967 1.63088973
v -10.08994658 -2.64297967 1.52700541
v -10.10302588 -2.64297967 1.41015826
v -10.12399501 -2.64297967 0.96869530
v -10.12399501 -3.20135921 0.96869530
v -10.12280604 -3.42204693 0.96869530
v -10.12388710 -3.42204693 0.74796381
v -10.12377919 -3.42204693 0.30650020
v -10.11232115 -3.42204693 0.08576871
v -9.16242285 -3.64287908 -0.12142880
v -9.02201347 -3.86356648 -0.11856989
v -9.02201347 -3.97637201 -0.08921548
v -10.06876098 -2.64297967 0.01085718
v -10.11351012 -3.20135921 0.08576871
v -10.11361868 -2.98067181 0.08576871
v -10.11372659 -2.75983966 0.08576871
v -10.01817491 -2.64297967 -0.07301340
v -9.02201347 -3.64287908 -0.11856989
v -9.61499710 -2.64297967 -0.07301340
v -9.02201347 -3.86356648 1.78242882
v -9.02201347 -2.64297967 1.82569817
v -9.04590139 -2.64297967 1.82493557
v -9.82469297 -2.75983966 1.78261899
v -10.02898353 -2.64297967 1.70027360
v -9.98499107 -2.64297967 1.76203280
v -10.12615713 -2.64297967 0.74796381
v -10.12615713 -3.20135921 0.74796381
v -10.12604856 -3.20135921 0.30650020
v -10.11372659 -2.64297967 0.08576871
v -10.12615713 -2.98067181 0.30650020
v -10.12032020 -2.64297967 0.20242506
v -9.02201347 -3.47852191 -0.07167902
v -9.56505980 -2.64297967 0.00170797
v -9.02201347 -2.64297967 1.58437986
v -9.82469297 -2.64297967 1.78261899
v -10.12626503 -2.64297967 0.52723234
v -10.12615713 -2.64297967 0.30650020
v -9.50896053 -2.64297967 0.08576871
f 1 2 3
f 1 3 4
f 1 4 11
f 1 11 24
f 1 24 32
f 1 32 52
f 1 52 51
f 1 51 58
f 1 58 72
f 1 72 74
f 1 74 61
f 1 61 60
f 1 60 37
f 1 37 36
f 1 36 25
f 1 25 12
f 1 12 5
f 1 5 6
f 1 6 2
f 2 7 3
f 2 6 7
f 3 8 4
f 3 7 9
f 3 9 10
f 3 10 20
f 3 20 8
f 4 8 11
f 5 12 6
f 6 12 13
f 6 13 14
f 6 14 15
f 6 15 16
f 6 16 17
f 6 17 7
f 7 18 19
f 7 19 9
f 7 17 18
f 8 20 11
f 9 19 21
f 9 21 22
f 9 22 10
f 10 23 31
f 10 31 20
f 10 22 23
f 11 20 24
f 12 25 13
f 13 25 26
f 13 26 14
f 14 26 27
f 14 27 15
f 15 27 28
f 15 28 29
f 15 29 16
f 16 29 17
f 17 29 18
f 18 29 19
f 19 30 21
f 19 29 30
f 20 31 32
f 20 32 24
f 21 30 22
f 22 30 33
f 22 33 23
f 23 33 34
f 23 34 57
f 23 57 35
f 23 35 50
f 23 50 31
f 25 36 26
f 26 36 37
f 26 37 38
f 26 38 27
f 27 38 39
f 27 39 28
f 28 39 40
f 28 40 29
f 29 40 41
f 29 41 42
f 29 42 43
f 29 43 44
f 29 44 45
f 29 45 46
f 29 46 47
f 29 47 48
f 29 48 30
f 30 48 49
f 30 49 33
f 31 50 58
f 31 58 51
f 31 51 52
f 31 52 32
f 33 53 34
f 33 49 54
f 33 54 55
f 33 55 56
f 33 56 53
f 34 53 57
f 35 58 50
f 35 57 53
f 35 53 69
f 35 69 71
f 35 71 77
f 35 77 76
f 35 76 66
f 35 66 44
f 35 44 43
f 35 43 42
f 35 42 41
f 35 41 64
f 35 64 65
f 35 65 75
f 35 75 62
f 35 62 61
f 35 61 74
f 35 74 78
f 35 78 73
f 35 73 59
f 35 59 58
f 37 60 38
f 38 60 61
f 38 61 62
f 38 62 63
f 38 63 39
f 39 64 40
f 39 63 65
f 39 65 64
f 40 64 41
f 44 66 67
f 44 67 45
f 45 67 46
f 46 67 47
f 47 67 68
f 47 68 48
f 48 68 49
f 49 68 54
f 53 56 69
f 54 68 70
f 54 70 55
f 55 70 56
f 56 70 71
f 56 71 69
f 58 59 72
f 59 73 72
f 62 75 63
f 63 75 65
f 66 76 67
f 67 76 70
f 67 70 68
f 70 76 77
f 70 77 71
f 72 73 78
f 72 78 74

