# https://github.com/mikedh/trimesh
v -6.51305619 -2.30243009 7.82409028
v -6.53050184 -2.30264195 7.82409028
v -6.30972759 -2.30793720 7.82409028
v -6.51305619 -0.83417932 7.31829328
v -6.73370542 -2.30560730 7.82409028
v -6.29228128 -2.30857248 7.82409028
v -6.38553661 -0.83417932 7.27793084
v -6.55849094 -0.83417932 7.31677334
v -6.14392681 -2.36427795 7.82409028
v -6.13062248 -2.37105579 7.82409028
v -6.92875007 -2.36809045 7.82409028
v -6.35265215 -0.83417932 7.18285114
v -6.07087866 -2.53880748 7.82409028
v -6.67810358 -0.83417932 7.30123635
v -7.01836546 -2.52694626 7.82409028
v -6.34185801 -0.83417932 7.15059496
v -6.12309191 -2.77582032 7.82409028
v -5.94034686 -2.88934929 7.10516614
v -5.92767024 -2.75972287 7.14248870
v -5.93733463 -2.61929440 7.11175246
v -6.09133719 -0.99367050 6.48841466
v -6.12296623 -0.83417932 6.48013951
v -6.13388605 -0.83417932 6.52573728
v -6.13426241 -0.99367050 6.66827234
v -6.79018566 -0.83417932 7.14265760
v -7.02225609 -2.53880748 7.82409028
v -6.12409598 -2.77751461 7.82409028
v -6.16451036 -2.88701939 7.75586257
v -6.27822422 -2.92620367 7.82273928
v -6.29228128 -2.95416217 7.59204851
v -6.07150637 -2.93107534 6.92986820
v -5.93495012 -2.89527965 6.92986820
v -5.90432515 -2.75972287 6.92986820
v -6.09209058 -0.83417932 6.32899150
v -6.94067396 -0.83417932 6.48013951
v -6.99025069 -0.99367050 6.48841466
v -6.99062705 -1.21437410 6.70914146
v -7.16810038 -2.75972287 7.15059496
v -7.06380021 -2.86075518 7.48041854
v -6.98585802 -2.74849709 7.82409028
v -6.27696880 -2.92514465 7.82409028
v -6.27847491 -2.92599213 7.82409028
v -6.50401885 -2.99334678 7.82409028
v -6.51305619 -2.99800659 7.81294420
v -6.29228128 -2.93086347 6.70914146
v -6.08418299 -2.89866890 6.71775431
v -5.94699902 -2.88447762 6.79712814
v -5.93783667 -2.75972287 6.78311110
v -6.12409598 -0.83417932 6.10910914
v -6.96803535 -0.83417932 6.27106553
v -7.18655076 -2.75972287 6.92986820
v -7.11212217 -2.90332871 7.15059496
v -7.08764734 -2.89040831 7.33315475
v -6.88733162 -2.90184595 7.82409028
v -6.89109658 -2.89633900 7.82409028
v -6.98108833 -2.76035847 7.82409028
v -6.51305619 -2.99588856 7.82409028
v -6.72265993 -2.97216612 7.82409028
v -6.73370542 -2.97301327 7.81294420
v -6.95447967 -2.94166584 6.92986820
v -6.73370542 -2.93700603 6.70914146
v -6.51305619 -2.94166584 6.70914146
v -6.51305619 -2.90587015 6.55275817
v -6.29228128 -2.89506811 6.56897059
v -6.16626782 -2.87960594 6.58974299
v -6.12899069 -0.83417932 6.09880742
v -6.91707753 -0.83417932 6.09880742
v -7.11977842 -2.75972287 6.74646398
v -7.09932054 -2.89400910 6.77264052
v -7.12078249 -2.90587015 6.92986820
v -6.95447967 -2.93912407 7.15059496
v -6.73408179 -2.97047149 7.82409028
v -6.95661350 -2.90947094 6.70306173
v -6.73370542 -2.90121034 6.56137102
v -6.51305619 -2.75972287 6.50006739
v -6.29228128 -2.75972287 6.53519456
v -6.14718972 -0.86404415 6.09880742
v -6.90013326 -0.86383237 6.09880742
v -6.88431874 -2.88786653 6.57961012
v -7.01723571 -2.75972287 6.63601617
v -6.73370542 -2.75972287 6.51881312
v -6.51305619 -0.91572526 6.09880742
v -6.30219636 -0.91297170 6.09880742
v -6.29228128 -0.91275992 6.09880742
v -6.18471754 -0.89412086 6.09880742
v -6.73370542 -0.91275992 6.09880742
f 1 2 5
f 1 5 11
f 1 11 15
f 1 15 26
f 1 26 40
f 1 40 56
f 1 56 55
f 1 55 54
f 1 54 72
f 1 72 58
f 1 58 57
f 1 57 43
f 1 43 42
f 1 42 41
f 1 41 27
f 1 27 17
f 1 17 13
f 1 13 10
f 1 10 9
f 1 9 6
f 1 6 3
f 1 3 4
f 1 4 2
f 2 4 5
f 3 6 4
f 4 7 12
f 4 12 16
f 4 16 23
f 4 23 22
f 4 22 34
f 4 34 49
f 4 49 66
f 4 66 67
f 4 67 50
f 4 50 35
f 4 35 25
f 4 25 14
f 4 14 8
f 4 8 5
f 4 6 9
f 4 9 10
f 4 10 7
f 5 8 11
f 7 10 13
f 7 13 12
f 8 14 11
f 11 14 15
f 12 13 16
f 13 17 18
f 13 18 19
f 13 19 20
f 13 20 21
f 13 21 22
f 13 22 23
f 13 23 24
f 13 24 16
f 14 25 15
f 15 25 26
f 16 24 23
f 17 27 28
f 17 28 18
f 18 28 29
f 18 29 30
f 18 30 31
f 18 31 32
f 18 32 33
f 18 33 19
f 19 33 20
f 20 33 34
f 20 34 21
f 21 34 22
f 25 35 36
f 25 36 37
f 25 37 26
f 26 38 39
f 26 39 40
f 26 37 38
f 27 41 28
f 28 41 42
f 28 42 29
f 29 42 43
f 29 43 44
f 29 44 30
f 30 44 31
f 31 44 45
f 31 45 46
f 31 46 47
f 31 47 32
f 32 47 33
f 33 47 48
f 33 48 49
f 33 49 34
f 35 50 36
f 36 50 51
f 36 51 38
f 36 38 37
f 38 51 52
f 38 52 53
f 38 53 39
f 39 53 54
f 39 54 55
f 39 55 56
f 39 56 40
f 43 57 44
f 44 57 58
f 44 58 59
f 44 59 60
f 44 60 61
f 44 61 62
f 44 62 45
f 45 63 64
f 45 64 65
f 45 65 46
f 45 62 63
f 46 65 47
f 47 65 66
f 47 66 48
f 48 66 49
f 50 67 51
f 51 68 69
f 51 69 70
f 51 70 52
f 51 67 68
f 52 70 71
f 52 71 59
f 52 59 53
f 53 59 54
f 54 59 72
f 58 72 59
f 59 71 60
f 60 71 70
f 60 70 69
f 60 69 73
f 60 73 61
f 61 73 74
f 61 74 63
f 61 63 62
f 63 75 64
f 63 74 75
f 64 75 76
f 64 76 65
f 65 76 77
f 65 77 66
f 66 77 85
f 66 85 84
f 66 84 83
f 66 83 82
f 66 82 86
f 66 86 78
f 66 78 67
f 67 78 79
f 67 79 80
f 67 80 68
f 68 80 69
f 69 80 79
f 69 79 73
f 73 79 74
f 74 79 81
f 74 81 75
f 75 82 83
f 75 83 84
f 75 84 85
f 75 85 76
f 75 81 78
f 75 78 86
f 75 86 82
f 76 85 77
f 78 81 79

