# https://github.com/mikedh/trimesh
v -9.77241853 2.83680311 1.40512670
v -9.48273482 2.83680311 1.07626759
v -10.10497482 2.83680311 1.40512670
v -9.78945820 0.70088944 1.40512670
v -9.78953650 -2.64244308 1.40497734
v -9.39185347 2.83680311 0.96854067
v -10.12380419 2.83680311 0.96854067
v -10.12388249 2.75956265 0.96854067
v -10.12396013 0.70035310 0.96854067
v -10.10497482 2.83465777 1.40512670
v -9.79078140 0.70035310 1.40512670
v -10.10302917 -2.64297967 1.40497734
v -9.78953650 -2.64297967 1.30546791
v -9.62815997 -2.64297967 1.10629971
v -9.52195035 -2.64297967 0.96854067
v -9.33147405 2.83680311 0.74785723
v -10.12598276 2.83680311 0.74785723
v -10.12613870 2.31757561 0.74785723
v -10.12621634 0.70035310 0.74785723
v -10.12396013 -2.64297967 0.96854067
v -10.10302917 0.70035310 1.40512670
v -9.51144638 -2.64297967 0.85184879
v -9.33147405 2.83680311 0.30663968
v -9.50210966 -2.64297967 0.74785723
v -10.12598276 2.83680311 0.60442048
v -10.12613870 2.31757561 0.52732313
v -10.12621634 0.70035310 0.52732313
v -10.12629464 -2.31792598 0.30663968
v -10.12621634 -2.64297967 0.74785723
v -9.35450528 2.83680311 0.18023605
v -9.50210966 -2.64297967 0.30663968
v -9.50568841 -2.64297967 0.18979845
v -9.50895659 -2.64297967 0.08580687
v -10.12590512 2.83680311 0.30663968
v -10.12613870 2.09711850 0.30663968
v -10.11376673 -2.64297967 0.08580687
v -10.12621634 -2.64297967 0.30663968
v -10.11376673 1.87612482 0.08580687
v -9.38096063 2.83680311 0.08580687
v -9.61508790 -2.64297967 -0.07286998
v -10.11337786 2.83680311 0.08580687
v -10.11353380 2.53856929 0.08580687
v -10.01821768 -2.53838308 -0.07286998
v -10.01813938 -2.64297967 -0.07286998
v -10.01798410 2.83680311 -0.07286998
v -10.01806174 2.53856929 -0.07286998
v -10.01821768 1.87612482 -0.07286998
v -9.47355338 2.83680311 -0.02998883
v -9.82470612 -2.64297967 -0.12128011
v -9.59260148 2.83680311 -0.07809959
v -9.89208907 2.83680311 -0.10439637
v -9.82470612 -2.53838308 -0.12128011
v -9.82470612 2.83680311 -0.12113074
f 1 2 6
f 1 6 16
f 1 16 23
f 1 23 30
f 1 30 39
f 1 39 48
f 1 48 50
f 1 50 53
f 1 53 51
f 1 51 45
f 1 45 41
f 1 41 34
f 1 34 25
f 1 25 17
f 1 17 7
f 1 7 3
f 1 3 10
f 1 10 21
f 1 21 11
f 1 11 4
f 1 4 5
f 1 5 2
f 2 5 6
f 3 7 8
f 3 8 9
f 3 9 20
f 3 20 10
f 4 11 5
f 5 12 13
f 5 13 14
f 5 14 15
f 5 15 6
f 5 11 12
f 6 15 16
f 7 17 8
f 8 17 18
f 8 18 19
f 8 19 9
f 9 19 29
f 9 29 20
f 10 20 12
f 10 12 21
f 11 21 12
f 12 20 29
f 12 29 37
f 12 37 36
f 12 36 44
f 12 44 49
f 12 49 40
f 12 40 33
f 12 33 32
f 12 32 31
f 12 31 24
f 12 24 22
f 12 22 15
f 12 15 14
f 12 14 13
f 15 22 16
f 16 22 24
f 16 24 31
f 16 31 23
f 17 25 26
f 17 26 18
f 18 26 27
f 18 27 19
f 19 27 28
f 19 28 29
f 23 31 32
f 23 32 33
f 23 33 30
f 25 34 26
f 26 35 27
f 26 34 35
f 27 35 28
f 28 36 37
f 28 37 29
f 28 35 38
f 28 38 36
f 30 33 39
f 33 40 39
f 34 41 42
f 34 42 38
f 34 38 35
f 36 43 44
f 36 38 47
f 36 47 43
f 38 42 45
f 38 45 46
f 38 46 47
f 39 40 48
f 40 49 50
f 40 50 48
f 41 45 42
f 43 49 44
f 43 47 52
f 43 52 49
f 45 51 46
f 46 51 47
f 47 51 52
f 49 52 50
f 50 52 53
f 51 53 52

