# https://github.com/mikedh/trimesh
v 4.52567111 -3.64283533 6.44110846
v 4.30382666 -3.42217524 6.46577484
v 4.52567111 -3.42217524 6.46381959
v 5.76753136 -3.50280264 6.58188730
v 5.62902552 -3.64283533 6.55782254
v 5.75696686 -3.76389684 6.58865551
v 4.52567111 -3.83954006 6.52007093
v -5.62870705 -3.76815725 6.58429377
v -5.62870705 -3.64275473 6.55992816
v -5.62870705 -3.48937790 6.57421665
v 4.30382666 -3.27571179 6.54278206
v 4.52567111 -3.27571179 6.54278206
v 4.74634206 -3.28768931 6.56083066
v 4.74634206 -3.42217524 6.49134365
v 5.77340054 -3.64283533 6.57842805
v 5.16303409 -3.17651524 6.77771435
v 5.62902552 -3.39339689 6.70928013
v 5.81096060 -3.47048733 6.70928013
v 5.97763846 -3.50352609 6.98527286
v 5.86143415 -3.64283533 6.70928013
v 5.97059546 -3.76341454 7.00482552
v 5.78983290 -3.77643693 6.70928013
v 5.62902552 -3.79806075 6.70928013
v 4.74634206 -3.90352750 6.70928013
v 4.52567111 -3.92796484 6.70928013
v -5.62870705 -3.79709615 6.70928013
v -5.74960539 -3.76261049 6.58970836
v -5.76134373 -3.64275473 6.58023289
v -5.75782223 -3.50481211 6.58324100
v -5.01834061 -3.10682049 6.77666142
v -4.96552038 -3.10682049 6.77169813
v 4.94940615 -3.17651524 6.72853193
v 5.26984806 -3.17651524 6.92616383
v -4.82936187 -3.10682049 6.79621409
v 5.86730200 -3.45079271 6.91879398
v 5.63019935 -3.33608168 6.90871687
v 5.99524466 -3.47973160 7.15086854
v 6.01872003 -3.64283533 7.15086854
v 5.98115996 -3.64283533 6.97233807
v 5.93772942 -3.64283533 6.86179056
v 5.98350632 -3.77394517 7.15086854
v 5.85791264 -3.78270714 6.93082635
v 5.84969581 -3.80159771 7.15086854
v 5.40835424 -3.84757858 7.15086854
v 4.74634206 -3.91019941 7.59215613
v 4.52567111 -3.92667882 7.59215613
v -5.18736483 -3.84894520 7.15071813
v -5.40803578 -3.83929891 7.15071813
v -5.62870705 -3.81100319 6.93007437
v -5.77190824 -3.77547233 6.70928013
v -5.96440783 -3.75810893 7.23013185
v -5.89632808 -3.64275473 6.93007437
v -5.82238047 -3.64275473 6.70928013
v -5.97027700 -3.51244894 7.19568914
v -5.78951444 -3.47346172 6.70928013
v -5.13102343 -3.10682049 6.79561249
v -4.79532233 -3.10682049 6.87773347
v -4.77771547 -3.10682049 6.93007437
v 5.32501596 -3.17651524 7.15086854
v 5.57855196 -3.27932903 7.15086854
v 5.55742427 -3.29018108 6.96842753
v 5.84969581 -3.39757703 7.15086854
v 5.98702782 -3.49203087 7.37136193
v 5.84969581 -3.41068002 7.37136193
v 6.00228766 -3.64283533 7.37136193
v 5.97646463 -3.76695151 7.37136193
v 5.84969581 -3.79564925 7.37136193
v 4.52567111 -3.89556925 7.81279990
v 5.62902552 -3.81236948 7.59215613
v 5.77692204 -3.77346287 7.73880076
v 4.30382666 -3.92466902 7.59215613
v -5.18736483 -3.83560107 7.37121152
v -5.62870705 -3.81220893 7.59200570
v -5.62870705 -3.81245008 7.15071813
v -5.86111569 -3.77989362 7.15462865
v -5.80594680 -3.78359146 6.93007437
v -5.96440783 -3.75810893 7.27675733
v -5.97262466 -3.64275473 7.18922174
v -5.94562780 -3.64275473 7.07867427
v -5.97027700 -3.51244894 7.29555792
v -5.68387463 -3.34251243 7.15071813
v -5.87050504 -3.45674117 7.13357198
v -5.82942348 -3.45440995 6.93007437
v -5.55475814 -3.29154770 6.99640282
v -5.18384366 -3.10682049 6.93007437
v -4.75071860 -3.10682049 7.15071813
v 5.32032063 -3.17651524 7.27660693
v -4.75306594 -3.10682049 7.37121152
v 5.57385794 -3.28286600 7.37136193
v 5.86143415 -3.46132333 7.58253023
v 5.96707396 -3.51984429 7.50251487
v 5.55038126 -3.29492379 7.51409604
v 5.96590012 -3.64283533 7.49920597
v 5.96120478 -3.75408967 7.48431590
v 5.85086964 -3.77788383 7.57155065
v 4.74634206 -3.78616383 7.93959112
v 4.52567111 -3.80714447 7.95042031
v 4.30382666 -3.80706420 7.95042031
v 4.30382666 -3.89355978 7.81279990
v 5.62902552 -3.78367174 7.75699976
v 5.62902552 -3.64283533 7.84002319
v 5.81096060 -3.64283533 7.77128817
v -5.62870705 -3.78343059 7.75624773
v -5.76603907 -3.77322139 7.73789835
v -5.78951444 -3.78343059 7.59200570
v -5.85289885 -3.77989362 7.35872791
v -5.97262466 -3.64275473 7.29886681
v -5.86463587 -3.64275473 7.59200570
v -5.77777609 -3.48535864 7.75173556
v -5.81416364 -3.45754522 7.59200570
v -5.86346335 -3.45682177 7.37000827
v -5.66861478 -3.34259303 7.37121152
v -5.57353948 -3.28069565 7.15071813
v -5.19323400 -3.10682049 7.00828485
v 5.31445179 -3.17651524 7.37136193
v -4.80588617 -3.10682049 7.53966487
v 5.62667785 -3.34878264 7.58944884
v 5.79570207 -3.47965133 7.75790217
v 5.92129706 -3.64283533 7.60960306
v 5.18650979 -3.17651524 7.56147354
v 4.86606755 -3.76124387 7.92695712
v 4.74634206 -3.64283533 7.95763974
v 4.52567111 -3.64283533 7.97764351
v 4.30382666 -3.64283533 7.97734275
v -5.40803578 -3.64275473 7.84002319
v 4.85432986 -3.31550273 7.92214417
v 4.76747008 -3.40231974 7.94575771
v -5.62870705 -3.64275473 7.83475899
v -5.78716677 -3.64275473 7.76602402
v -5.61579488 -3.35239988 7.57937173
v -5.62870705 -3.45754522 7.78091408
v -5.15215145 -3.10682049 7.54447782
v -5.19440751 -3.10682049 7.42054428
v -5.20731935 -3.10682049 7.37121152
v -5.20731935 -3.10682049 7.15071813
v -4.90096246 -3.10682049 7.57561158
v -4.96552038 -3.10682049 7.59742029
v 4.99048837 -3.17651524 7.62464355
v 4.70760718 -3.29741588 7.93673345
v 4.52567111 -3.42217524 7.97057453
v 4.30382666 -3.42217524 7.97057453
v -5.40803578 -3.45288278 7.78542624
v 4.30382666 -3.29018108 7.94350166
v -5.08641970 -3.10682049 7.56899379
v 4.52567111 -3.29018108 7.94350166
v 4.96466534 -3.17651524 7.62810287
f 1 2 3
f 1 3 4
f 1 4 5
f 1 5 6
f 1 6 7
f 1 7 8
f 1 8 9
f 1 9 10
f 1 10 2
f 2 11 3
f 2 10 11
f 3 12 13
f 3 13 14
f 3 14 4
f 3 11 12
f 4 15 5
f 4 14 13
f 4 13 16
f 4 16 17
f 4 17 18
f 4 18 19
f 4 19 20
f 4 20 15
f 5 15 6
f 6 15 20
f 6 20 21
f 6 21 22
f 6 22 23
f 6 23 24
f 6 24 25
f 6 25 7
f 7 25 8
f 8 26 27
f 8 27 9
f 8 25 26
f 9 27 28
f 9 28 29
f 9 29 10
f 10 29 30
f 10 30 31
f 10 31 11
f 11 31 12
f 12 31 32
f 12 32 13
f 13 32 16
f 16 33 17
f 16 32 34
f 16 34 33
f 17 33 18
f 18 35 19
f 18 33 36
f 18 36 35
f 19 37 38
f 19 38 39
f 19 39 40
f 19 40 20
f 19 35 37
f 20 40 21
f 21 40 39
f 21 39 38
f 21 38 41
f 21 41 42
f 21 42 22
f 22 42 43
f 22 43 23
f 23 43 24
f 24 43 25
f 25 43 44
f 25 44 45
f 25 45 46
f 25 46 47
f 25 47 26
f 26 47 48
f 26 48 49
f 26 49 50
f 26 50 27
f 27 50 51
f 27 51 52
f 27 52 53
f 27 53 28
f 28 53 29
f 29 53 54
f 29 54 55
f 29 55 56
f 29 56 30
f 30 56 85
f 30 85 114
f 30 114 135
f 30 135 134
f 30 134 133
f 30 133 132
f 30 132 144
f 30 144 137
f 30 137 136
f 30 136 116
f 30 116 88
f 30 88 86
f 30 86 58
f 30 58 57
f 30 57 34
f 30 34 31
f 31 34 32
f 33 34 57
f 33 57 58
f 33 58 59
f 33 59 60
f 33 60 61
f 33 61 36
f 35 36 62
f 35 62 37
f 36 61 62
f 37 63 38
f 37 62 64
f 37 64 63
f 38 65 66
f 38 66 41
f 38 63 65
f 41 66 67
f 41 67 43
f 41 43 42
f 43 67 45
f 43 45 44
f 45 68 46
f 45 67 69
f 45 69 70
f 45 70 68
f 46 68 99
f 46 99 71
f 46 71 47
f 47 72 73
f 47 73 48
f 47 71 72
f 48 73 74
f 48 74 49
f 49 74 75
f 49 75 76
f 49 76 50
f 50 76 51
f 51 76 75
f 51 75 77
f 51 77 107
f 51 107 78
f 51 78 79
f 51 79 52
f 52 79 54
f 52 54 53
f 54 78 107
f 54 107 80
f 54 80 81
f 54 81 82
f 54 82 83
f 54 83 55
f 54 79 78
f 55 83 84
f 55 84 85
f 55 85 56
f 58 86 59
f 59 87 60
f 59 86 88
f 59 88 87
f 60 87 89
f 60 89 62
f 60 62 61
f 62 89 64
f 63 64 90
f 63 90 91
f 63 91 65
f 64 89 92
f 64 92 90
f 65 91 93
f 65 93 94
f 65 94 66
f 66 94 95
f 66 95 67
f 67 95 69
f 68 96 97
f 68 97 98
f 68 98 99
f 68 70 100
f 68 100 96
f 69 95 70
f 70 101 96
f 70 96 100
f 70 95 94
f 70 94 102
f 70 102 101
f 71 99 73
f 71 73 72
f 73 103 104
f 73 104 105
f 73 105 106
f 73 106 75
f 73 75 74
f 73 99 103
f 75 106 77
f 77 106 105
f 77 105 104
f 77 104 108
f 77 108 107
f 80 107 108
f 80 108 109
f 80 109 110
f 80 110 111
f 80 111 112
f 80 112 81
f 81 112 113
f 81 113 83
f 81 83 82
f 83 113 84
f 84 113 85
f 85 113 114
f 87 88 115
f 87 115 89
f 88 116 115
f 89 115 92
f 90 92 117
f 90 117 118
f 90 118 91
f 91 119 93
f 91 118 119
f 92 115 120
f 92 120 117
f 93 119 94
f 94 119 102
f 96 121 122
f 96 122 123
f 96 123 97
f 96 101 121
f 97 123 98
f 98 123 124
f 98 124 125
f 98 125 103
f 98 103 99
f 101 122 121
f 101 102 118
f 101 118 126
f 101 126 127
f 101 127 122
f 102 119 118
f 103 125 128
f 103 128 104
f 104 129 108
f 104 128 129
f 108 129 109
f 109 130 110
f 109 129 128
f 109 128 131
f 109 131 132
f 109 132 130
f 110 130 112
f 110 112 111
f 112 130 132
f 112 132 133
f 112 133 134
f 112 134 113
f 113 134 135
f 113 135 114
f 115 116 120
f 116 136 120
f 117 120 118
f 118 120 126
f 120 136 137
f 120 137 138
f 120 138 139
f 120 139 126
f 122 127 140
f 122 140 123
f 123 140 141
f 123 141 124
f 124 141 125
f 125 142 128
f 125 141 143
f 125 143 142
f 126 139 127
f 127 139 140
f 128 142 131
f 131 142 137
f 131 137 144
f 131 144 132
f 137 142 143
f 137 143 145
f 137 145 146
f 137 146 138
f 138 146 139
f 139 146 145
f 139 145 140
f 140 145 143
f 140 143 141

