# https://github.com/mikedh/trimesh
v -7.03056965 -2.31814838 8.25444655
v -7.02844965 -2.09723529 8.25444655
v -7.02197711 -0.83439078 8.03378362
v -7.02789168 -2.53884992 8.03378362
v -6.99731672 -2.53884992 8.25444655
v -6.98437231 -2.28894728 8.50741636
v -6.99296485 -2.09956289 8.50741636
v -6.99374587 -2.05554954 8.50741636
v -6.99285299 -1.83294364 8.50741636
v -6.98682722 -1.61160731 8.50741636
v -6.96417499 -0.83439078 8.50741636
v -6.92846714 -0.83439078 7.87405550
v -7.02220082 -2.53884992 7.82415715
v -6.98582315 -2.74854808 7.82415715
v -6.91474170 -2.51493881 8.50741636
v -6.97723060 -2.31814838 8.50741636
v -6.98102451 -2.76039795 7.82415715
v -6.93248410 -2.77267090 8.03793066
v -6.90414101 -2.70051432 8.25444655
v -6.90391795 -2.54900681 8.50741636
v -5.89059116 -0.83439078 8.50741636
v -6.73374687 -0.83439078 7.82469227
v -7.01840692 -2.52700021 7.82415715
v -6.89108539 -2.89624688 7.82415715
v -6.88740268 -2.90174857 7.82415715
v -6.86675926 -2.88841759 7.96709644
v -6.82390971 -2.63745676 8.50741636
v -6.86274230 -2.65882873 8.40073029
v -6.82000394 -2.85519591 8.11431657
v -5.89326913 -1.65604375 8.50741636
v -6.07080497 -2.53884992 7.82415715
v -6.06656495 -0.83439078 8.03378362
v -6.51302658 -0.83439078 7.82462538
v -6.92880205 -2.36808666 7.82415715
v -6.73419298 -2.97051920 7.82415715
v -6.74133469 -2.92036937 8.03793066
v -6.73486281 -2.69035743 8.50741636
v -6.67282001 -2.89413082 8.17351229
v -5.90085695 -1.87674529 8.50741636
v -5.91960408 -2.08263474 8.50741636
v -5.95352683 -2.26905658 8.50741636
v -5.97774111 -2.38205243 8.50741636
v -6.12302808 -2.77584499 7.82415715
v -6.13061590 -2.37104905 7.82415715
v -6.29230628 -0.83439078 7.82469227
v -6.24778283 -0.83439078 7.83666519
v -6.12827283 -0.83439078 7.87412241
v -6.11108840 -0.83439078 7.91679681
v -6.45165361 -0.83439078 7.82462538
v -6.51302658 -2.30248980 7.82415715
v -6.53043407 -2.30270134 7.82415715
v -6.73374687 -2.30566389 7.82415715
v -6.72258821 -2.97221218 7.82415715
v -6.51302658 -2.95634206 8.03378362
v -6.69324039 -2.69734023 8.50741636
v -6.51302658 -2.90238319 8.18260909
v -6.51302658 -2.71723093 8.50741636
v -6.03699407 -2.51070685 8.50741636
v -6.05752630 -2.54287050 8.50741636
v -6.12146604 -2.73225472 8.03378362
v -6.19511361 -2.86069760 7.90315169
v -6.12414402 -2.77732610 7.82415715
v -6.14389522 -2.36427779 7.82415715
v -6.29230628 -2.30862627 7.82415715
v -6.30982563 -2.30799149 7.82415715
v -6.51302658 -2.99591158 7.82415715
v -6.33381685 -2.90725026 8.03378362
v -6.37119860 -2.88884067 8.16602086
v -6.29230628 -2.70305362 8.50741636
v -6.47218584 -2.71680785 8.50741636
v -6.15003219 -2.67300603 8.50741636
v -6.27690695 -2.92523644 7.82415715
v -6.22334550 -2.84271143 8.03378362
v -6.50398792 -2.99337244 7.82415715
v -6.27846965 -2.92608293 7.82415715
f 1 2 3
f 1 3 4
f 1 4 5
f 1 5 6
f 1 6 7
f 1 7 8
f 1 8 9
f 1 9 2
f 2 9 3
f 3 9 10
f 3 10 11
f 3 11 21
f 3 21 32
f 3 32 48
f 3 48 47
f 3 47 46
f 3 46 45
f 3 45 49
f 3 49 33
f 3 33 22
f 3 22 12
f 3 12 13
f 3 13 4
f 4 13 14
f 4 14 5
f 5 15 16
f 5 16 6
f 5 14 17
f 5 17 18
f 5 18 19
f 5 19 20
f 5 20 15
f 6 16 15
f 6 15 20
f 6 20 27
f 6 27 37
f 6 37 55
f 6 55 57
f 6 57 70
f 6 70 69
f 6 69 71
f 6 71 59
f 6 59 58
f 6 58 42
f 6 42 41
f 6 41 40
f 6 40 39
f 6 39 30
f 6 30 21
f 6 21 11
f 6 11 10
f 6 10 9
f 6 9 8
f 6 8 7
f 12 22 13
f 13 23 34
f 13 34 52
f 13 52 51
f 13 51 50
f 13 50 65
f 13 65 64
f 13 64 63
f 13 63 44
f 13 44 31
f 13 31 43
f 13 43 62
f 13 62 72
f 13 72 75
f 13 75 74
f 13 74 66
f 13 66 53
f 13 53 35
f 13 35 25
f 13 25 24
f 13 24 17
f 13 17 14
f 13 22 23
f 17 24 18
f 18 24 25
f 18 25 26
f 18 26 19
f 19 27 28
f 19 28 20
f 19 26 29
f 19 29 27
f 20 28 27
f 21 30 31
f 21 31 32
f 22 33 34
f 22 34 23
f 25 35 26
f 26 35 36
f 26 36 29
f 27 29 37
f 29 36 38
f 29 38 37
f 30 39 31
f 31 40 41
f 31 41 42
f 31 42 43
f 31 44 45
f 31 45 46
f 31 46 47
f 31 47 48
f 31 48 32
f 31 39 40
f 33 49 50
f 33 50 51
f 33 51 52
f 33 52 34
f 35 53 54
f 35 54 36
f 36 54 38
f 37 38 55
f 38 54 56
f 38 56 57
f 38 57 55
f 42 58 43
f 43 59 60
f 43 60 61
f 43 61 62
f 43 58 59
f 44 63 49
f 44 49 45
f 49 63 64
f 49 64 65
f 49 65 50
f 53 66 54
f 54 66 67
f 54 67 68
f 54 68 56
f 56 68 69
f 56 69 70
f 56 70 57
f 59 71 60
f 60 71 61
f 61 72 62
f 61 71 73
f 61 73 67
f 61 67 72
f 66 74 67
f 67 74 75
f 67 75 72
f 67 73 71
f 67 71 68
f 68 71 69

