# https://github.com/mikedh/trimesh
v -6.97759315 0.17308115 6.09880742
v -6.93809139 0.31248249 6.09880742
v -6.94905398 -0.77841883 6.09880742
v -7.41716508 -0.33109846 6.90776164
v -7.41716508 -0.11039112 6.93229512
v -7.41716508 0.00937042 7.02051807
v -6.95270839 0.56889856 6.46355985
v -6.94975012 0.56889856 6.45738587
v -6.90537537 0.51272601 6.30726061
v -6.73379293 0.40642387 6.09880742
v -6.91703476 -0.83417932 6.09880742
v -7.41716508 -0.47063717 6.99582216
v -7.41716508 -0.45813911 6.98753602
v -7.41716508 0.01417737 7.12466341
v -6.94261566 0.56889856 6.70986927
v -6.73379293 0.56889856 6.29003842
v -6.61406777 0.40765996 6.09880742
v -6.96802219 -0.83417932 6.27119152
v -6.12890318 -0.83417932 6.09880742
v -7.41716508 -0.48011370 7.16820624
v -7.41716508 -0.00724786 7.22815885
v -6.77816768 0.56889856 7.14903440
v -6.54985497 0.56889856 6.28808875
v -6.51313712 0.56889856 6.28776378
v -6.51313712 0.40834664 6.09880742
v -6.94070160 -0.83417932 6.48013211
v -6.12350841 -0.82511484 6.09880742
v -5.63938802 -0.46761564 6.58216528
v -6.12420455 -0.83417932 6.10904327
v -7.41716508 -0.47956429 7.17064332
v -6.79017513 -0.83417932 7.14269794
v -7.41716508 -0.10283735 7.33035451
v -7.02318647 0.04439243 7.75847149
v -6.67671459 0.56889856 7.29493535
v -6.29230694 0.56889856 6.29133825
v -6.29230694 0.40436382 6.09880742
v -6.11393745 -0.77896816 6.09880742
v -5.63938802 -0.46170996 6.58184033
v -5.63938802 -0.53944513 6.70369529
v -6.09218533 -0.83417932 6.32903205
v -5.63938802 -0.54219195 6.70905691
v -5.63938802 -0.61154924 6.91393562
v -5.63938802 -0.61402135 6.92758338
v -5.63938802 -0.64203899 7.15049666
v -7.35521441 -0.46596757 7.30257160
v -7.41716508 -0.35307305 7.33896561
v -7.00839445 -0.52062932 7.75847149
v -6.67810687 -0.83417932 7.30127181
v -7.41716508 -0.35156234 7.34010293
v -7.07365213 -0.11039112 7.75847149
v -6.29230694 -0.59026133 7.75863393
v -6.97272082 0.08216127 7.75847149
v -6.73379293 0.14575026 7.75847149
v -6.66418536 0.56889856 7.29542276
v -6.19938060 0.56889856 6.33634335
v -6.20164339 0.36055189 6.09880742
v -6.11150161 -0.59328285 6.09880742
v -5.63938802 -0.33109846 6.57517896
v -6.12298663 -0.83417932 6.48013211
v -5.63938802 -0.63393582 7.32499290
v -7.03710799 -0.48080039 7.75847149
v -6.97219904 -0.53257805 7.75847149
v -6.55855608 -0.83417932 7.31670677
v -6.73396664 -0.59039868 7.75847149
v -7.06703878 -0.42435313 7.75847149
v -7.07939431 -0.33109846 7.75847149
v -7.07922060 -0.31873775 7.75847149
v -6.29230694 0.14561292 7.75847149
v -6.51313712 0.14575026 7.75847149
v -6.51313712 -0.59081074 7.75847149
v -6.51313712 -0.83417932 7.31833148
v -6.38558135 -0.83417932 7.27803812
v -5.63938802 -0.56141973 7.57617650
v -6.07095499 -0.53628626 7.75847149
v -5.95244775 -0.49467190 7.75847149
v -5.87065901 -0.33109846 7.75847149
v -5.88162225 -0.11039112 7.75847149
v -5.90842107 -0.03361738 7.75847149
v -5.96636926 0.05043545 7.75847149
v -6.02692831 0.08147457 7.75847149
v -6.51313712 0.56889856 7.30078437
v -6.14160677 0.51245131 6.30888532
v -6.11428552 0.56889856 6.45852319
v -6.12281227 0.31069706 6.09880742
v -6.10297421 0.11059091 6.09880742
v -5.63938802 -0.14802262 6.59175122
v -6.13377551 -0.83417932 6.52562460
v -5.63938802 -0.62995299 7.37129778
v -6.39689201 0.56889856 7.26666500
v -6.50426164 0.56889856 7.29818483
v -6.35269163 -0.83417932 7.18282883
v -5.63938802 -0.45346951 7.71005445
v -5.63938802 -0.33109846 7.71785315
v -5.63938802 -0.11986766 7.71541608
v -5.63938802 -0.11039112 7.71509112
v -5.63938802 0.00071793 7.70826722
v -5.63938802 0.00579955 7.70712990
v -5.63938802 0.04370573 6.71750552
v -5.63938802 -0.03787495 6.60702372
v -6.11254517 0.56889856 6.46827154
v -6.34190209 -0.83417932 7.15049666
v -5.63938802 0.04768862 7.59729803
v -5.63938802 0.04947406 7.59209888
v -6.13186145 0.56889856 6.71571828
v -5.63938802 0.08738024 6.92969553
v -6.12907754 0.56889856 6.70986927
v -5.63938802 0.08738024 7.37129778
v -5.63938802 0.08586948 7.38072123
f 1 2 10
f 1 10 17
f 1 17 25
f 1 25 36
f 1 36 56
f 1 56 84
f 1 84 85
f 1 85 57
f 1 57 37
f 1 37 27
f 1 27 19
f 1 19 11
f 1 11 3
f 1 3 4
f 1 4 5
f 1 5 2
f 2 5 6
f 2 6 7
f 2 7 8
f 2 8 9
f 2 9 10
f 3 11 12
f 3 12 13
f 3 13 4
f 4 13 12
f 4 12 20
f 4 20 30
f 4 30 46
f 4 46 49
f 4 49 32
f 4 32 21
f 4 21 14
f 4 14 6
f 4 6 5
f 6 14 7
f 7 15 22
f 7 22 34
f 7 34 54
f 7 54 81
f 7 81 90
f 7 90 89
f 7 89 104
f 7 104 106
f 7 106 100
f 7 100 83
f 7 83 55
f 7 55 35
f 7 35 24
f 7 24 23
f 7 23 16
f 7 16 8
f 7 14 15
f 8 16 9
f 9 16 10
f 10 16 17
f 11 18 12
f 11 19 29
f 11 29 40
f 11 40 59
f 11 59 87
f 11 87 101
f 11 101 91
f 11 91 72
f 11 72 71
f 11 71 63
f 11 63 48
f 11 48 31
f 11 31 26
f 11 26 18
f 12 18 20
f 14 21 15
f 15 21 22
f 16 23 17
f 17 23 24
f 17 24 25
f 18 26 20
f 19 27 28
f 19 28 29
f 20 26 31
f 20 31 30
f 21 32 33
f 21 33 22
f 22 33 34
f 24 35 25
f 25 35 36
f 27 37 28
f 28 38 58
f 28 58 86
f 28 86 99
f 28 99 98
f 28 98 105
f 28 105 107
f 28 107 108
f 28 108 103
f 28 103 102
f 28 102 97
f 28 97 96
f 28 96 95
f 28 95 94
f 28 94 93
f 28 93 92
f 28 92 73
f 28 73 88
f 28 88 60
f 28 60 44
f 28 44 43
f 28 43 42
f 28 42 41
f 28 41 39
f 28 39 29
f 28 37 38
f 29 39 41
f 29 41 42
f 29 42 43
f 29 43 44
f 29 44 40
f 30 45 46
f 30 31 47
f 30 47 45
f 31 48 47
f 32 49 50
f 32 50 33
f 33 50 51
f 33 51 52
f 33 52 34
f 34 53 54
f 34 52 53
f 35 55 36
f 36 55 56
f 37 57 58
f 37 58 38
f 40 44 60
f 40 60 59
f 45 47 46
f 46 47 61
f 46 61 49
f 47 62 51
f 47 51 61
f 47 48 62
f 48 63 64
f 48 64 62
f 49 61 65
f 49 65 66
f 49 66 67
f 49 67 50
f 50 67 51
f 51 68 69
f 51 69 53
f 51 53 52
f 51 67 66
f 51 66 65
f 51 65 61
f 51 62 64
f 51 64 70
f 51 70 71
f 51 71 72
f 51 72 73
f 51 73 74
f 51 74 75
f 51 75 76
f 51 76 77
f 51 77 78
f 51 78 79
f 51 79 80
f 51 80 68
f 53 69 81
f 53 81 54
f 55 82 56
f 55 83 82
f 56 82 84
f 57 85 58
f 58 85 86
f 59 60 87
f 60 88 87
f 63 71 64
f 64 71 70
f 68 89 90
f 68 90 81
f 68 81 69
f 68 80 89
f 72 91 88
f 72 88 73
f 73 92 74
f 74 92 75
f 75 92 76
f 76 92 93
f 76 93 77
f 77 93 94
f 77 94 95
f 77 95 96
f 77 96 78
f 78 96 79
f 79 96 97
f 79 97 80
f 80 97 89
f 82 83 98
f 82 98 99
f 82 99 84
f 83 100 98
f 84 99 86
f 84 86 85
f 87 88 101
f 88 91 101
f 89 97 102
f 89 102 103
f 89 103 104
f 98 100 105
f 100 106 107
f 100 107 105
f 103 108 106
f 103 106 104
f 106 108 107

