# https://github.com/mikedh/trimesh
v 8.61991080 -2.22210190 1.97381314
v 8.66840778 -2.22210190 1.89443392
v 8.96476077 -2.22210190 1.97381314
v 8.93180064 1.04269304 1.97381314
v 8.76002870 -2.22210190 1.78070164
v 9.98508055 -2.22210190 1.76202359
v 9.00585220 -2.13901201 1.97381314
v 9.26895488 1.04269304 1.97381314
v 8.96519635 1.04269304 1.93312308
v 8.81810914 -2.22210190 1.73472997
v 8.99467182 1.04269304 1.89732443
v 9.06669089 1.04269304 1.81044097
v 9.08832589 1.04269304 1.78436986
v 9.16063578 1.04269304 1.70254494
v 9.19606399 1.04269304 1.66913672
v 9.43695068 -0.99524718 1.97381314
v 9.39890832 -1.21415721 1.97381314
v 9.32050028 -1.43498459 1.97381314
v 9.12651366 -1.87631991 1.97381314
v 10.07829904 -2.22210190 1.63111476
v 9.98508055 -0.33148646 1.76219072
v 9.53423482 -0.33148646 1.97381314
v 9.98508055 1.04269304 1.76202359
v 9.29712361 1.00370467 1.97381314
v 8.94036686 -2.22210190 1.63939740
v 9.33066474 1.04269304 1.58603270
v 10.10298311 -2.22210190 1.41032013
v 10.08381685 1.04269304 1.58191967
v 10.07829904 1.04269304 1.63111476
v 9.53365382 -0.29601344 1.97381314
v 9.34837884 0.87203917 1.97381314
v 9.38148438 0.77265082 1.97381314
v 9.40326480 0.69403502 1.97381314
v 9.42969120 0.55054511 1.97381314
v 9.50679184 0.11975580 1.97381314
v 9.52828142 -0.11065899 1.97381314
v 9.16252287 -2.22210190 1.57697233
v 9.38308196 1.04269304 1.56035112
v 9.78862520 1.04269304 1.40598404
v 10.10298311 -2.22210190 1.40598404
v 10.10312853 -0.33148646 1.40598404
v 10.10298311 1.04269304 1.41032013
v 9.78862520 -2.22146284 1.40598404
v 9.79065770 -2.22210190 1.40598404
v 10.10298311 1.04269304 1.40598404
v 10.10312853 -0.32701239 1.40598404
f 1 2 5
f 1 5 10
f 1 10 25
f 1 25 37
f 1 37 44
f 1 44 40
f 1 40 27
f 1 27 20
f 1 20 6
f 1 6 3
f 1 3 7
f 1 7 19
f 1 19 18
f 1 18 17
f 1 17 16
f 1 16 22
f 1 22 30
f 1 30 36
f 1 36 35
f 1 35 34
f 1 34 33
f 1 33 32
f 1 32 31
f 1 31 24
f 1 24 8
f 1 8 4
f 1 4 2
f 2 4 5
f 3 6 7
f 4 8 23
f 4 23 29
f 4 29 28
f 4 28 42
f 4 42 45
f 4 45 39
f 4 39 38
f 4 38 26
f 4 26 15
f 4 15 14
f 4 14 13
f 4 13 12
f 4 12 11
f 4 11 9
f 4 9 5
f 5 9 11
f 5 11 12
f 5 12 13
f 5 13 14
f 5 14 15
f 5 15 10
f 6 16 17
f 6 17 18
f 6 18 19
f 6 19 7
f 6 20 21
f 6 21 22
f 6 22 16
f 8 24 23
f 10 15 25
f 15 26 25
f 20 27 28
f 20 28 29
f 20 29 21
f 21 29 23
f 21 23 22
f 22 23 30
f 23 24 31
f 23 31 32
f 23 32 33
f 23 33 34
f 23 34 35
f 23 35 36
f 23 36 30
f 25 26 38
f 25 38 39
f 25 39 37
f 27 40 41
f 27 41 46
f 27 46 42
f 27 42 28
f 37 43 44
f 37 39 43
f 39 45 46
f 39 46 41
f 39 41 40
f 39 40 44
f 39 44 43
f 42 46 45

