# https://github.com/mikedh/trimesh
v -4.67235662 -0.33123050 6.09880742
v -4.67013068 -0.11047431 6.09880742
v -4.61782860 -0.49118177 6.09880742
v -5.63938802 -0.46754541 6.58211817
v -5.63938802 -0.33123050 6.57519327
v -4.64564893 -0.00429121 6.09880742
v -5.63938802 -0.14818418 6.59189433
v -4.52657846 -0.51120949 6.09880742
v -5.14307496 -0.83408910 6.80004583
v -5.63938802 -0.53944682 6.70370951
v -4.61449035 0.03179481 6.09880742
v -5.63938802 -0.14349300 6.59250535
v -5.63938802 -0.03776099 6.60716964
v -4.32293436 -0.50823243 6.09880742
v -4.96725086 -0.83408910 6.77988240
v -5.19018394 -0.83408910 6.90656565
v -5.54850865 -0.68090399 6.99943952
v -5.63938802 -0.61152860 6.91389779
v -5.63938802 -0.54215325 6.70920874
v -4.55439879 0.03964351 6.09880742
v -5.63938802 0.04370320 6.71755914
v -4.93275402 -0.83408910 6.78253011
v -4.22129770 -0.33123050 6.09880742
v -1.85027102 -0.33123050 6.50003877
v -1.85027102 -0.50038369 6.54484637
v -5.19797375 -0.83408910 6.92998776
v -5.56408828 -0.69082762 7.15056321
v -5.63938802 -0.61405466 6.92774741
v -4.52917485 0.04162826 6.09880742
v -5.63938802 0.04559772 6.72672437
v -5.63938802 0.08736729 6.92998776
v -4.83519748 -0.83408910 6.80106422
v -4.22278144 -0.29983566 6.09880742
v -1.85027102 -0.13717796 6.51938753
v -4.23316763 -0.11047431 6.09880742
v -4.23798963 -0.09811483 6.09880742
v -1.85027102 -0.56606025 6.70920874
v -5.22097143 -0.83408910 7.15056321
v -5.54887975 -0.68045294 7.37134232
v -5.63938802 -0.63399216 7.32490538
v -5.63938802 -0.64202131 7.15056321
v -5.22060066 -0.83408910 7.37134232
v -4.36262430 0.04379342 6.09880742
v -5.63938802 0.08736729 7.37134232
v -1.85027102 0.08736729 6.92998776
v -1.85027102 0.08700642 6.90310323
v -4.78512102 -0.83408910 6.92998776
v -1.85027102 -0.11047431 6.52223896
v -4.33369133 0.03883160 6.09880742
v -1.85027102 -0.57291659 6.92998776
v -5.52847846 -0.66701085 7.48865665
v -5.63938802 -0.63002274 7.37134232
v -5.16310548 -0.83408910 7.53998170
v -1.85027102 0.07627084 6.70920874
v -1.85027102 0.07094812 6.69026734
v -1.85027102 0.03251653 6.56704650
v -5.63938802 0.08592384 7.38071115
v -2.09768568 0.08736729 7.81290053
v -1.85027102 0.08736729 7.81290053
v -4.77696044 -0.83408910 6.99129266
v -1.85027102 0.01429311 6.55951066
v -1.85027102 -0.57291659 7.15056321
v -4.75655915 -0.83408910 7.15056321
v -5.63938802 -0.56136907 7.57623510
v -4.96725086 -0.83408910 7.59049206
v -5.63938802 -0.45356208 7.71004676
v -5.63938802 0.04956719 7.59212142
v -2.31839298 0.08285651 7.81290053
v -1.85027102 0.05227362 8.04467783
v -1.85027102 -0.57273614 7.81290053
v -4.75655915 -0.83408910 7.21186811
v -4.80960310 -0.83408910 7.53631560
v -1.85027102 -0.57129270 7.83958140
v -1.85027102 -0.51941905 8.04752926
v -1.85027102 -0.50850306 8.07563580
v -1.85027102 -0.48694167 8.11881401
v -5.63938802 -0.33123050 7.71798992
v -1.85027102 -0.33898900 8.17808220
v -1.85027102 -0.33123050 8.17950787
v -5.63938802 0.04767266 7.59721319
v -1.85027102 0.03287739 8.10842676
v -4.77065470 -0.83408910 7.41716824
v -4.75878476 -0.83408910 7.37134232
v -5.63938802 -0.11994688 7.71534222
v -1.85027102 -0.11471440 8.17584177
v -5.63938802 0.00581287 7.70719537
v -1.85027102 -0.00979430 8.15588208
v -5.63938802 -0.11047431 7.71513853
v -1.85027102 -0.11047431 8.17563813
v -5.63938802 0.00076083 7.70821376
f 1 2 6
f 1 6 11
f 1 11 20
f 1 20 29
f 1 29 43
f 1 43 49
f 1 49 36
f 1 36 35
f 1 35 33
f 1 33 23
f 1 23 14
f 1 14 8
f 1 8 3
f 1 3 4
f 1 4 5
f 1 5 2
f 2 5 7
f 2 7 6
f 3 8 9
f 3 9 4
f 4 9 10
f 4 10 19
f 4 19 18
f 4 18 28
f 4 28 41
f 4 41 40
f 4 40 52
f 4 52 64
f 4 64 66
f 4 66 77
f 4 77 84
f 4 84 88
f 4 88 90
f 4 90 86
f 4 86 80
f 4 80 67
f 4 67 57
f 4 57 44
f 4 44 31
f 4 31 30
f 4 30 21
f 4 21 13
f 4 13 12
f 4 12 7
f 4 7 5
f 6 7 12
f 6 12 13
f 6 13 11
f 8 14 15
f 8 15 9
f 9 15 22
f 9 22 32
f 9 32 47
f 9 47 60
f 9 60 63
f 9 63 71
f 9 71 83
f 9 83 82
f 9 82 72
f 9 72 65
f 9 65 53
f 9 53 42
f 9 42 38
f 9 38 26
f 9 26 16
f 9 16 17
f 9 17 18
f 9 18 19
f 9 19 10
f 11 13 21
f 11 21 20
f 14 22 15
f 14 23 24
f 14 24 25
f 14 25 22
f 16 26 17
f 17 27 28
f 17 28 18
f 17 26 27
f 20 21 30
f 20 30 31
f 20 31 29
f 22 25 32
f 23 33 24
f 24 34 48
f 24 48 61
f 24 61 56
f 24 56 55
f 24 55 54
f 24 54 46
f 24 46 45
f 24 45 59
f 24 59 69
f 24 69 81
f 24 81 87
f 24 87 89
f 24 89 85
f 24 85 79
f 24 79 78
f 24 78 76
f 24 76 75
f 24 75 74
f 24 74 73
f 24 73 70
f 24 70 62
f 24 62 50
f 24 50 37
f 24 37 25
f 24 33 35
f 24 35 36
f 24 36 34
f 25 37 32
f 26 38 27
f 27 39 40
f 27 40 41
f 27 41 28
f 27 38 42
f 27 42 39
f 29 31 43
f 31 44 58
f 31 58 59
f 31 59 45
f 31 45 46
f 31 46 43
f 32 37 47
f 34 36 48
f 36 49 48
f 37 50 47
f 39 51 52
f 39 52 40
f 39 42 53
f 39 53 51
f 43 46 54
f 43 54 55
f 43 55 56
f 43 56 49
f 44 57 58
f 47 50 60
f 48 49 61
f 49 56 61
f 50 62 71
f 50 71 63
f 50 63 60
f 51 64 52
f 51 53 64
f 53 65 66
f 53 66 64
f 57 67 68
f 57 68 58
f 58 68 69
f 58 69 59
f 62 70 71
f 65 72 73
f 65 73 74
f 65 74 75
f 65 75 76
f 65 76 66
f 66 76 78
f 66 78 79
f 66 79 77
f 67 80 81
f 67 81 69
f 67 69 68
f 70 73 72
f 70 72 82
f 70 82 83
f 70 83 71
f 77 79 84
f 79 85 84
f 80 86 81
f 81 86 87
f 84 85 88
f 85 89 88
f 86 90 87
f 87 90 89
f 88 89 90

