# https://github.com/mikedh/trimesh
v 8.05480178 -1.33341652 3.57256207
v 8.03244169 -1.33341652 3.60061170
v 7.70771008 -1.49786565 3.92475903
v 8.01295368 -1.43517656 3.57256207
v 7.72658289 -1.33341652 3.57256207
v 7.75878963 -1.33341652 3.94314394
v 7.73786525 -1.35062776 3.96100312
v 7.56062683 -1.60804288 3.99215218
v 7.73068539 -1.76947698 3.73256079
v 7.75899427 -1.65590787 3.76838477
v 7.90218032 -1.69874756 3.57256207
v 7.93007862 -1.63367148 3.57256207
v 7.99941510 -1.46796578 3.57256207
v 5.95912360 -2.33393115 3.57256207
v 5.95912360 -1.33341652 3.83777358
v 7.74135254 -1.33341652 3.96410220
v 7.62729652 -1.42864381 4.00706986
v 7.48985463 -1.75528093 3.93589498
v 7.39610713 -1.43517656 4.07420016
v 7.40821065 -1.67136034 4.01883617
v 7.34277203 -1.80013073 3.98133139
v 7.64411775 -1.93292121 3.57256207
v 7.75078861 -1.86357371 3.57256207
v 7.79920138 -1.83090999 3.57256207
v 7.84125411 -1.78731643 3.57256207
v 7.07137552 -1.99083651 3.95380681
v 6.79833868 -2.18166795 3.91320294
v 6.89003460 -2.23480928 3.76607330
v 5.95912360 -2.61672352 3.57256207
v 5.95912360 -1.33341652 4.08796211
v 7.68863265 -1.33341652 3.99745746
v 7.62257816 -1.33341652 4.02503433
v 7.49785499 -1.33341652 4.06190878
v 7.17538025 -1.65590787 4.06548062
v 7.39610713 -1.33341652 4.07582833
v 6.73392584 -1.33341652 4.10582163
v 6.73392584 -1.87663919 4.07220417
v 6.95465272 -1.87663919 4.04399662
v 6.72838698 -2.10377758 4.00875068
v 6.95465272 -2.02551034 3.98253943
v 7.07588860 -2.26345290 3.57256207
v 6.65105013 -2.22099008 3.96641336
v 6.90849683 -2.35842885 3.57256207
v 6.95711422 -2.33204670 3.57256207
v 6.58602209 -2.46420914 3.57256207
v 6.07153861 -2.46684730 3.79853533
v 5.95912360 -2.53556677 3.72147747
v 5.95912360 -2.09737051 4.07299178
v 6.51319831 -1.33341652 4.10913092
v 6.61494617 -1.33341652 4.10760770
v 6.07153861 -2.09737051 4.07293947
v 6.29226549 -2.09737051 4.06789672
v 6.51319831 -2.09737051 4.05014248
v 6.51319831 -2.24134202 3.98779208
v 5.95912360 -2.41722353 3.93426649
v 6.51319831 -2.33066478 3.83892899
v 6.73392584 -2.42564072 3.57256207
v 6.24836646 -2.44498777 3.75850951
v 5.95912360 -2.47727462 3.82831842
v 5.95912360 -2.22312571 4.03911179
v 6.29226549 -2.26734748 4.00643953
v 5.95912360 -2.31496113 4.01016895
v 6.07153861 -2.29247339 4.01153459
v 5.95912360 -2.40001229 3.95028761
f 1 2 3
f 1 3 4
f 1 4 13
f 1 13 12
f 1 12 11
f 1 11 25
f 1 25 24
f 1 24 23
f 1 23 22
f 1 22 41
f 1 41 44
f 1 44 43
f 1 43 57
f 1 57 45
f 1 45 29
f 1 29 14
f 1 14 5
f 1 5 15
f 1 15 30
f 1 30 49
f 1 49 50
f 1 50 36
f 1 36 35
f 1 35 33
f 1 33 32
f 1 32 31
f 1 31 16
f 1 16 6
f 1 6 2
f 2 6 7
f 2 7 3
f 3 8 9
f 3 9 10
f 3 10 11
f 3 11 12
f 3 12 13
f 3 13 4
f 3 7 8
f 5 14 15
f 6 16 7
f 7 16 17
f 7 17 8
f 8 18 9
f 8 17 19
f 8 19 20
f 8 20 21
f 8 21 18
f 9 22 23
f 9 23 24
f 9 24 25
f 9 25 11
f 9 11 10
f 9 18 26
f 9 26 27
f 9 27 28
f 9 28 22
f 14 29 47
f 14 47 59
f 14 59 55
f 14 55 64
f 14 64 62
f 14 62 60
f 14 60 48
f 14 48 30
f 14 30 15
f 16 31 17
f 17 31 32
f 17 32 33
f 17 33 19
f 18 21 26
f 19 34 20
f 19 33 35
f 19 35 36
f 19 36 37
f 19 37 34
f 20 34 38
f 20 38 39
f 20 39 21
f 21 40 26
f 21 39 40
f 22 28 41
f 26 40 42
f 26 42 27
f 27 42 43
f 27 43 28
f 28 43 44
f 28 44 41
f 29 45 46
f 29 46 47
f 30 48 49
f 34 37 38
f 36 50 51
f 36 51 37
f 37 51 52
f 37 52 53
f 37 53 38
f 38 53 39
f 39 53 54
f 39 54 42
f 39 42 40
f 42 54 55
f 42 55 56
f 42 56 57
f 42 57 43
f 45 57 56
f 45 56 58
f 45 58 46
f 46 58 55
f 46 55 59
f 46 59 47
f 48 60 51
f 48 51 49
f 49 51 50
f 51 60 52
f 52 61 53
f 52 60 62
f 52 62 63
f 52 63 61
f 53 61 54
f 54 61 64
f 54 64 55
f 55 58 56
f 61 63 62
f 61 62 64

