# https://github.com/mikedh/trimesh
v 2.53913384 3.20131348 0.23402844
v 2.09795759 3.42199725 0.32736141
v 2.31854580 3.42199725 0.31748317
v 2.53913384 3.42199725 0.31373664
v 2.76046704 3.20131348 0.23573129
v 2.76046704 2.99602311 0.32633956
v 2.53913384 2.99589020 0.32548814
v 2.31854580 2.99681927 0.33076842
v 2.09795759 2.99854449 0.34013542
v 1.87736955 3.00053487 0.34967347
v 1.65603618 3.00345432 0.35904046
v 2.31854580 3.20131348 0.24475810
v 1.65603618 3.42199725 0.34728896
v 1.47270948 3.53771368 0.40928372
v 1.65603618 3.54010214 0.40519635
v 2.53913384 3.53691752 0.40519635
v 2.76046704 3.42199725 0.31833526
v 1.87736955 3.53943890 0.40451535
v 2.09795759 3.53877533 0.40400409
v 2.31854580 3.53811176 0.40366326
v 3.64356503 3.41814907 0.33911357
v 3.64356503 3.20131348 0.26127863
v 3.64356503 2.99814608 0.33911357
v 3.20164345 2.99708476 0.33264168
v 3.86340791 2.90432587 0.52731327
v 3.64356503 2.90273324 0.52731327
v 2.76046704 2.90060994 0.52731327
v 2.53913384 2.90047736 0.52731327
v 2.31854580 2.90140642 0.52731327
v 2.09795759 2.90313131 0.52731327
v 1.87736955 2.90512203 0.52731327
v 1.65603618 2.90804148 0.52731327
v 1.65603618 3.20131348 0.30113307
v 2.09795759 3.20131348 0.26349273
v 1.43544797 2.92131160 0.52731327
v 1.43544797 3.01685735 0.37590182
v 1.41383633 3.44402573 0.37947860
v 1.32515395 3.53240543 0.41694851
v 0.77293852 3.56810243 0.74804409
v 0.55235048 3.54182736 0.62456450
v 0.55235048 3.56305968 0.74804409
v 1.65603618 3.55469940 0.52731327
v 1.87736955 3.55337259 0.52731327
v 2.76046704 3.53545780 0.40894354
v 3.13382755 3.53293642 0.41541542
v 3.86340791 3.41496412 0.34558544
v 7.61489626 3.20290578 0.49137643
v 7.61489626 3.20131348 0.49086585
v 3.86340791 2.99973872 0.34558544
v 4.08399595 2.90963379 0.52731327
v 7.61489626 2.26058708 1.97347263
v 0.77293852 2.90472395 0.74804409
v 1.43544797 3.20131348 0.33485578
v 0.55235048 2.91812665 0.74804409
v 0.00162521 3.00862966 0.73441867
v 0.55235048 3.01353982 0.59203402
v 1.21485993 3.05653512 0.40127940
v 0.33176211 3.04950198 0.61877362
v 1.21485993 3.37303014 0.40127940
v 0.00162521 3.41456604 0.68979586
v 0.41746384 3.53638653 0.63308006
v 0.99352656 3.56982765 0.74804409
v 0.00162521 3.57978023 0.96877425
v 0.00162521 3.59782793 1.18950507
v 0.00162521 3.55164737 0.80271555
v 1.21485993 3.57049122 0.74804409
v 0.99352656 3.58561914 0.96877425
v 1.43544797 3.56969474 0.74804409
v 2.09795759 3.55151478 0.52731327
v 2.98105541 3.53399807 0.41286048
v 1.21485993 3.58442491 0.96877425
v 3.28138291 3.53187477 0.42733734
v 7.61489626 3.38829098 0.56444235
v 2.31854580 3.54939149 0.52731327
v 7.61489626 2.99934064 0.56410217
v 7.61489626 2.56606770 1.97381314
v 7.54633487 2.28739297 1.97381314
v 0.00162521 2.71283645 1.97381314
v 1.09860396 3.31994935 0.41541542
v 1.09860396 3.08665870 0.41541542
v 0.00162521 3.20131348 0.65862741
v 0.00162521 2.92741599 0.96877425
v 0.00162521 2.96510337 0.85960176
v 0.20581839 3.08042172 0.63393149
v 0.00162521 3.28810055 0.67123098
v 0.00162521 3.60658596 1.29816699
v 0.00162521 3.61560981 1.41023525
v 0.55235048 3.60114546 1.18950507
v 0.33176211 3.61627338 1.41023525
v 0.77293852 3.60061447 1.18950507
v 1.87736955 3.56584655 0.74804409
v 0.99352656 3.59862409 1.18950507
v 2.53913384 3.54673720 0.52731327
v 2.76046704 3.54381808 0.52731327
v 2.98105541 3.54089862 0.52731327
v 3.20536959 3.53665203 0.51147439
v 3.42223149 3.53068054 0.46123049
v 7.61489626 3.46366573 0.74804409
v 7.61489626 3.38908713 0.56597543
v 7.61489626 2.58079771 1.97381314
v 0.00162521 2.99018421 1.97381314
v 0.00162521 3.60300327 1.63096607
v 0.33176211 3.60114546 1.63096607
v 0.55235048 3.61441558 1.41023525
v 0.11042891 3.60300327 1.63096607
v 1.65603618 3.57964765 0.96877425
v 2.09795759 3.56319259 0.74804409
v 1.21485993 3.59557173 1.18950507
v 1.87736955 3.57619721 0.96877425
v 2.53913384 3.55682270 0.74804409
v 3.42223149 3.53479423 0.57159590
v 2.76046704 3.55284160 0.74804409
v 7.61489626 3.46366573 0.75008777
v 1.65603618 3.58747694 1.18950507
v 0.77293852 3.61083256 1.41023525
v 0.99352656 3.60671887 1.41023525
v 1.21485993 3.60207420 1.41023525
v 7.61489626 3.34582601 1.76193938
v 7.39877918 2.66917742 1.97381314
v 0.00162521 3.55695561 1.76074712
v 5.85019126 2.99018421 1.97381314
v 0.55235048 3.59756244 1.63096607
v 0.33176211 3.55562847 1.76006611
v 0.77293852 3.55244352 1.75836259
v 0.99352656 3.55085121 1.75734075
v 1.21485993 3.54912599 1.75614850
v 1.65603618 3.54541038 1.75342381
v 1.87736955 3.54355258 1.75172031
v 2.09795759 3.54156187 1.75018721
v 2.31854580 3.53957148 1.74831394
v 2.76046704 3.53545780 1.74439700
v 2.93783180 3.53373258 1.74269350
v 3.08538749 3.53187477 1.74047939
v 0.11042891 3.55695561 1.76074712
v 4.21664677 3.53293642 1.52570985
v 7.61489626 3.45596903 0.96877425
v 0.77293852 3.59344843 1.63096607
v 0.99352656 3.58920216 1.63096607
v 1.21485993 3.58482298 1.63096607
v 1.65603618 3.57606463 1.63096607
v 4.08399595 3.53452873 1.54035713
v 5.97464466 2.98288558 1.97381314
v 6.06258221 2.97571953 1.97381314
v 6.17958268 2.95913189 1.97381314
v 6.50748442 2.88296065 1.97381314
v 7.61489626 3.41270824 1.63096607
v 2.53913384 3.53744818 1.74644068
v 3.42223149 3.54222544 1.60405605
v 3.20164345 3.54487972 1.62142800
v 2.99894092 3.54527780 1.65259581
v 2.31854580 3.56239611 1.63096607
v 1.87736955 3.57155287 1.63096607
v 3.86340791 3.53705011 1.56352061
v 3.64356503 3.53970406 1.58481016
v 7.61489626 3.44031012 1.41023525
v 2.76046704 3.55310709 1.63096607
f 1 2 3
f 1 3 4
f 1 4 5
f 1 5 6
f 1 6 7
f 1 7 8
f 1 8 9
f 1 9 10
f 1 10 11
f 1 11 12
f 1 12 13
f 1 13 2
f 2 13 14
f 2 14 3
f 3 14 15
f 3 15 4
f 4 16 17
f 4 17 5
f 4 15 18
f 4 18 19
f 4 19 20
f 4 20 16
f 5 17 21
f 5 21 22
f 5 22 23
f 5 23 24
f 5 24 6
f 6 24 25
f 6 25 26
f 6 26 7
f 7 26 27
f 7 27 28
f 7 28 29
f 7 29 30
f 7 30 31
f 7 31 32
f 7 32 8
f 8 32 9
f 9 32 10
f 10 32 11
f 11 33 34
f 11 34 12
f 11 32 35
f 11 35 36
f 11 36 33
f 12 34 13
f 13 33 37
f 13 37 38
f 13 38 14
f 13 34 33
f 14 39 15
f 14 38 40
f 14 40 41
f 14 41 39
f 15 39 42
f 15 42 18
f 16 20 43
f 16 43 44
f 16 44 17
f 17 44 45
f 17 45 21
f 18 42 19
f 19 42 20
f 20 42 43
f 21 45 46
f 21 46 22
f 22 46 47
f 22 47 48
f 22 48 49
f 22 49 23
f 23 49 25
f 23 25 24
f 25 49 50
f 25 50 51
f 25 51 26
f 26 51 27
f 27 51 28
f 28 51 29
f 29 51 30
f 30 51 31
f 31 51 32
f 32 52 35
f 32 51 52
f 33 36 53
f 33 53 37
f 35 52 54
f 35 54 55
f 35 55 56
f 35 56 36
f 36 57 53
f 36 56 58
f 36 58 57
f 37 53 59
f 37 59 38
f 38 59 60
f 38 60 61
f 38 61 40
f 39 62 42
f 39 41 63
f 39 63 64
f 39 64 62
f 40 61 65
f 40 65 41
f 41 65 63
f 42 62 66
f 42 66 67
f 42 67 90
f 42 90 68
f 42 68 43
f 43 69 45
f 43 45 70
f 43 70 44
f 43 68 71
f 43 71 69
f 44 70 45
f 45 72 73
f 45 73 46
f 45 69 74
f 45 74 72
f 46 73 47
f 47 73 99
f 47 99 98
f 47 98 113
f 47 113 136
f 47 136 155
f 47 155 146
f 47 146 118
f 47 118 100
f 47 100 76
f 47 76 51
f 47 51 75
f 47 75 48
f 48 75 49
f 49 75 50
f 50 75 51
f 51 76 77
f 51 77 78
f 51 78 52
f 52 78 54
f 53 79 59
f 53 57 80
f 53 80 81
f 53 81 79
f 54 78 82
f 54 82 83
f 54 83 55
f 55 83 82
f 55 82 78
f 55 78 101
f 55 101 120
f 55 120 102
f 55 102 87
f 55 87 86
f 55 86 64
f 55 64 63
f 55 63 65
f 55 65 60
f 55 60 85
f 55 85 81
f 55 81 84
f 55 84 58
f 55 58 56
f 57 58 84
f 57 84 80
f 59 79 60
f 60 65 61
f 60 79 85
f 62 64 86
f 62 86 87
f 62 87 88
f 62 88 66
f 66 88 89
f 66 89 67
f 67 89 90
f 68 90 71
f 69 91 74
f 69 71 91
f 71 90 92
f 71 92 91
f 72 74 93
f 72 93 94
f 72 94 95
f 72 95 96
f 72 96 97
f 72 97 98
f 72 98 99
f 72 99 73
f 74 91 107
f 74 107 93
f 76 100 119
f 76 119 145
f 76 145 144
f 76 144 143
f 76 143 142
f 76 142 121
f 76 121 101
f 76 101 78
f 76 78 77
f 79 81 85
f 80 84 81
f 87 102 89
f 87 89 88
f 89 103 104
f 89 104 90
f 89 102 105
f 89 105 103
f 90 104 92
f 91 106 107
f 91 92 106
f 92 104 108
f 92 108 106
f 93 107 94
f 94 107 106
f 94 106 95
f 95 106 108
f 95 108 109
f 95 109 110
f 95 110 96
f 96 111 98
f 96 98 97
f 96 110 112
f 96 112 111
f 98 111 112
f 98 112 114
f 98 114 115
f 98 115 116
f 98 116 117
f 98 117 113
f 100 118 119
f 101 121 134
f 101 134 120
f 102 120 134
f 102 134 105
f 103 122 115
f 103 115 104
f 103 105 123
f 103 123 124
f 103 124 125
f 103 125 126
f 103 126 127
f 103 127 128
f 103 128 129
f 103 129 130
f 103 130 131
f 103 131 132
f 103 132 133
f 103 133 122
f 104 115 108
f 105 134 123
f 108 115 114
f 108 114 112
f 108 112 109
f 109 112 110
f 113 135 136
f 113 117 135
f 115 122 137
f 115 137 116
f 116 137 138
f 116 138 139
f 116 139 140
f 116 140 141
f 116 141 135
f 116 135 117
f 118 121 142
f 118 142 143
f 118 143 144
f 118 144 145
f 118 145 119
f 118 146 133
f 118 133 132
f 118 132 121
f 121 132 131
f 121 131 147
f 121 147 130
f 121 130 129
f 121 129 127
f 121 127 126
f 121 126 125
f 121 125 124
f 121 124 123
f 121 123 134
f 122 133 137
f 127 129 128
f 130 147 131
f 133 148 149
f 133 149 150
f 133 150 151
f 133 151 152
f 133 152 140
f 133 140 139
f 133 139 138
f 133 138 137
f 133 146 135
f 133 135 141
f 133 141 153
f 133 153 154
f 133 154 148
f 135 146 155
f 135 155 136
f 140 152 154
f 140 154 153
f 140 153 141
f 148 151 156
f 148 156 149
f 148 154 151
f 149 156 150
f 150 156 151
f 151 154 152

