# https://github.com/mikedh/trimesh
v 6.96566070 0.14200638 6.09893918
v 6.09668854 0.14200638 6.09893918
v 6.93632867 0.30698189 6.09893918
v 6.95329728 0.56703517 6.47158044
v 6.95730437 0.61837437 6.71298026
v 6.94997186 0.31742693 6.50149191
v 6.93539039 0.14200638 6.51335099
v 6.09464222 0.17059031 6.09893918
v 6.16123691 0.14200638 7.15058340
v 6.84764958 0.35132666 6.09893918
v 6.90409692 0.50352566 6.31398532
v 6.94553774 0.61837437 6.48752442
v 6.65920578 0.61837437 7.29315692
v 6.74038127 0.14200638 7.36470721
v 6.85003673 0.14200638 7.15058340
v 6.10504487 0.61837437 6.53232570
v 6.12371896 0.30465042 6.09893918
v 6.11263399 0.31924548 6.49964711
v 6.11271887 0.61837437 6.71298026
v 6.17360099 0.14200638 7.23517878
v 6.73381596 0.39408598 6.09893918
v 6.76698533 0.61837437 6.37591650
v 6.51305553 0.61837437 7.32833909
v 6.51305553 0.14200638 7.44495423
v 6.72750595 0.14200638 7.37393101
v 6.11638579 0.61837437 6.48923739
v 6.29229510 0.39142812 6.09893918
v 6.14188115 0.50324589 6.31464419
v 6.12644760 0.61837437 6.76002164
v 6.28402365 0.14200638 7.37841110
v 6.36195926 0.61837437 7.29605581
v 6.29382950 0.61837437 7.15058340
v 6.51305553 0.39585792 6.09893918
v 6.73381596 0.61837437 6.36313493
v 6.40740783 0.61837437 7.30580669
v 6.47195554 0.14200638 7.44403183
v 6.29229510 0.61837437 6.36511149
v 6.42036803 0.39417925 6.09893918
v 6.51305553 0.61837437 6.36115844
f 1 2 8
f 1 8 17
f 1 17 27
f 1 27 38
f 1 38 33
f 1 33 21
f 1 21 10
f 1 10 3
f 1 3 4
f 1 4 5
f 1 5 6
f 1 6 7
f 1 7 15
f 1 15 14
f 1 14 25
f 1 25 24
f 1 24 36
f 1 36 30
f 1 30 20
f 1 20 9
f 1 9 2
f 2 9 8
f 3 10 11
f 3 11 12
f 3 12 4
f 4 12 5
f 5 13 14
f 5 14 15
f 5 15 7
f 5 7 6
f 5 12 22
f 5 22 34
f 5 34 39
f 5 39 37
f 5 37 26
f 5 26 16
f 5 16 19
f 5 19 29
f 5 29 32
f 5 32 31
f 5 31 35
f 5 35 23
f 5 23 13
f 8 16 17
f 8 9 18
f 8 18 19
f 8 19 16
f 9 20 19
f 9 19 18
f 10 21 22
f 10 22 11
f 11 22 12
f 13 23 24
f 13 24 25
f 13 25 14
f 16 26 17
f 17 26 28
f 17 28 27
f 19 20 29
f 20 30 31
f 20 31 32
f 20 32 29
f 21 33 34
f 21 34 22
f 23 35 36
f 23 36 24
f 26 37 28
f 27 28 37
f 27 37 38
f 30 36 31
f 31 36 35
f 33 38 37
f 33 37 39
f 33 39 34

