# https://github.com/mikedh/trimesh
v -9.53429732 -0.33130091 1.97381348
v -9.53260303 -0.27237410 1.97381348
v -9.53090873 -0.36491503 1.97381348
v -8.46059572 -0.33130091 3.38030627
v -8.45996011 -0.27237410 3.37963678
v -9.22086979 -0.27237410 1.97381348
v -9.49109509 -0.75113730 1.97381348
v -8.20900635 -0.52672558 3.68295216
v -8.22764228 -0.33130091 3.68295216
v -8.22700733 -0.30136119 3.68295216
v -8.22637172 -0.27237410 3.68295216
v -8.88287597 -1.66266548 1.97381348
v -7.91167363 -0.27237410 3.68295216
v -7.37079863 -1.66266548 3.68295216
v -9.41443267 -1.14715803 1.97381348
v -8.23865487 -0.77277559 3.59946945
v -8.18740490 -0.68145945 3.68295216
v -9.22616389 -1.66266548 1.97381348
v -7.82653974 -1.66266548 3.68295216
v -9.39897280 -1.21425023 1.97381348
v -9.06648494 -1.14321147 2.42334917
v -8.41358116 -0.95146124 3.31840493
v -8.17236877 -0.77277559 3.68295216
v -9.25242382 -1.63503925 1.97381348
v -7.88943658 -1.66266548 3.60666314
v -7.85576452 -1.59747854 3.68295216
v -9.37080671 -1.31863092 1.97381348
v -8.20837074 -0.99351291 3.55797895
v -8.10820071 -0.99351291 3.68295216
v -8.11307173 -0.97772652 3.68295216
v -8.13086084 -0.91648621 3.68295216
v -8.16114497 -0.81210545 3.68295216
f 1 2 6
f 1 6 12
f 1 12 18
f 1 18 24
f 1 24 27
f 1 27 20
f 1 20 15
f 1 15 7
f 1 7 3
f 1 3 4
f 1 4 5
f 1 5 2
f 2 5 11
f 2 11 13
f 2 13 6
f 3 7 4
f 4 7 8
f 4 8 9
f 4 9 5
f 5 9 10
f 5 10 11
f 6 13 14
f 6 14 12
f 7 15 16
f 7 16 17
f 7 17 8
f 8 17 23
f 8 23 32
f 8 32 31
f 8 31 30
f 8 30 29
f 8 29 26
f 8 26 19
f 8 19 14
f 8 14 13
f 8 13 11
f 8 11 10
f 8 10 9
f 12 14 19
f 12 19 25
f 12 25 18
f 15 20 21
f 15 21 16
f 16 22 23
f 16 23 17
f 16 21 22
f 18 25 24
f 19 26 24
f 19 24 25
f 20 27 21
f 21 27 22
f 22 28 29
f 22 29 30
f 22 30 31
f 22 31 32
f 22 32 23
f 22 27 28
f 24 26 29
f 24 29 27
f 27 29 28

