# https://github.com/mikedh/trimesh
v 1.84293341 -0.33112704 6.49095307
v 1.84293341 -0.47464175 6.53077756
v 1.84293341 -0.11042472 6.51246174
v 4.08551325 -0.18838810 6.59496734
v 4.08551325 -0.33183815 6.58186039
v 4.08441574 -0.46242362 6.58538930
v 1.84293341 -0.50127603 6.54102772
v 1.84293341 0.03554652 6.56236827
v 4.08551325 -0.07745513 6.61445947
v 4.08551325 -0.46274685 6.58606143
v 4.08551325 -0.52816886 6.70906356
v 1.84293341 -0.55693643 6.68116962
v 1.84293341 0.07924740 6.70906356
v 4.08441574 0.04369195 6.72502695
v 4.08551325 0.04311015 6.72435484
v 4.08551325 -0.57290405 6.92986261
v 1.84293341 -0.56695662 6.70906356
v 1.84293341 0.08745747 6.92986261
v 4.08441574 0.08745747 6.92986261
v 4.08551325 0.08719888 6.92885443
v 4.08551325 -0.57283940 7.15066168
v 2.31840597 -0.57296870 6.92986261
v 1.84293341 -0.57264547 6.89625545
v 1.84293341 0.08745747 6.96363781
v 3.20130097 0.08739282 7.59209175
v 4.08441574 0.08739282 7.37129268
v 4.08551325 0.08739282 7.37028448
v 4.08551325 0.08739282 7.14965346
v 2.09757251 0.08739282 7.81289078
v 4.08551325 -0.57277476 7.37129268
v 2.09757251 -0.57271011 7.81289078
v 2.09757251 -0.57290405 7.15066168
v 1.84293341 -0.57290405 7.15066168
v 1.84293341 -0.57290405 6.92986261
v 1.84293341 0.08739282 7.81289078
v 3.42191501 0.08622919 7.59209175
v 3.64274847 0.08344941 7.59209175
v 3.86358227 0.07982921 7.59209175
v 4.08551325 0.07530398 7.59108352
v 1.84293341 0.08700494 7.84649794
v 2.31840597 0.08454840 7.81289078
v 4.08551325 -0.55150613 7.59209175
v 4.08441574 -0.55157078 7.59209175
v 3.86358227 -0.55732431 7.59209175
v 3.42191501 -0.56857278 7.59209175
v 3.20130097 -0.57271011 7.59209175
v 2.31840597 -0.56618087 7.81289078
v 1.84293341 -0.52687593 8.05049340
v 1.84293341 -0.57271011 7.81289078
v 4.08441574 0.07523934 7.59209175
v 4.08551325 0.03173240 7.73088931
v 1.84293341 0.05784949 8.04898113
v 4.08551325 -0.48595483 7.73525825
v 1.84293341 -0.47903766 8.16862256
v 1.84293341 0.04821720 8.08846947
v 1.84293341 0.02869402 8.15669209
v 4.08441574 0.03153846 7.73156148
v 4.08551325 -0.11042472 7.76432845
v 4.08551325 -0.33112704 7.76802522
v 1.84293341 -0.33112704 8.20760685
v 1.84293341 -0.47341347 8.17500795
v 1.84293341 -0.00291799 8.17568008
v 1.84293341 -0.11042472 8.20290198
v 1.84293341 -0.14093776 8.20374206
f 1 2 7
f 1 7 12
f 1 12 17
f 1 17 23
f 1 23 34
f 1 34 33
f 1 33 49
f 1 49 48
f 1 48 54
f 1 54 61
f 1 61 60
f 1 60 64
f 1 64 63
f 1 63 62
f 1 62 56
f 1 56 55
f 1 55 52
f 1 52 40
f 1 40 35
f 1 35 24
f 1 24 18
f 1 18 13
f 1 13 8
f 1 8 3
f 1 3 4
f 1 4 5
f 1 5 6
f 1 6 2
f 2 6 7
f 3 8 9
f 3 9 4
f 4 9 15
f 4 15 20
f 4 20 28
f 4 28 27
f 4 27 39
f 4 39 51
f 4 51 58
f 4 58 59
f 4 59 53
f 4 53 42
f 4 42 30
f 4 30 21
f 4 21 16
f 4 16 11
f 4 11 10
f 4 10 5
f 5 10 6
f 6 10 11
f 6 11 7
f 7 11 12
f 8 13 14
f 8 14 15
f 8 15 9
f 11 16 17
f 11 17 12
f 13 18 19
f 13 19 14
f 14 19 20
f 14 20 15
f 16 21 22
f 16 22 23
f 16 23 17
f 18 24 19
f 19 25 26
f 19 26 27
f 19 27 28
f 19 28 20
f 19 24 29
f 19 29 25
f 21 30 22
f 22 31 32
f 22 32 33
f 22 33 34
f 22 34 23
f 22 30 31
f 24 35 29
f 25 36 26
f 25 29 36
f 26 37 38
f 26 38 39
f 26 39 27
f 26 36 37
f 29 35 40
f 29 40 41
f 29 41 37
f 29 37 36
f 30 42 43
f 30 43 44
f 30 44 45
f 30 45 46
f 30 46 31
f 31 47 48
f 31 48 49
f 31 49 33
f 31 33 32
f 31 46 45
f 31 45 44
f 31 44 43
f 31 43 47
f 37 41 38
f 38 50 39
f 38 41 50
f 39 50 51
f 40 52 41
f 41 52 50
f 42 53 54
f 42 54 48
f 42 48 43
f 43 48 47
f 50 52 55
f 50 55 56
f 50 56 51
f 51 57 58
f 51 56 57
f 53 59 60
f 53 60 61
f 53 61 54
f 56 62 57
f 57 62 63
f 57 63 58
f 58 63 64
f 58 64 60
f 58 60 59

