# https://github.com/mikedh/trimesh
v -2.53951086 3.20122202 0.23402844
v -2.53951086 3.42198475 0.31373664
v -2.31820842 3.42198475 0.31748317
v -2.09767433 3.42198475 0.32736141
v -1.65660632 3.42198475 0.34728896
v -2.31820842 3.20122202 0.24475810
v -1.65660632 3.00346123 0.35904046
v -1.87714041 3.00056810 0.34967347
v -2.09767433 2.99854284 0.34013542
v -2.31820842 2.99680676 0.33076842
v -2.53951086 2.99593856 0.32548814
v -2.76004495 2.99608332 0.32633956
v -2.76004495 3.20122202 0.23573129
v -2.53951086 3.53685074 0.40519635
v -2.31820842 3.53800812 0.40366326
v -2.09767433 3.53887600 0.40400409
v -1.87714041 3.53945469 0.40451535
v -1.65660632 3.54003338 0.40519635
v -2.76004495 3.42198475 0.31833526
v -1.47218753 3.53771894 0.40928372
v -1.65660632 3.20122202 0.30113307
v -2.09767433 3.20122202 0.26349273
v -1.32542109 3.53236596 0.41694851
v -1.41378830 3.44411883 0.37947860
v -1.43530388 3.01677083 0.37590182
v -1.43530388 2.92129021 0.52731327
v -1.65660632 2.90783619 0.52731327
v -1.87714041 2.90494273 0.52731327
v -7.84846425 2.13849385 1.97381314
v -2.98057871 2.99651725 0.32957617
v -3.20188131 2.99709595 0.33264168
v -3.42241540 2.99752988 0.33587762
v -3.64294949 2.99810858 0.33911357
v -3.20188131 3.20122202 0.24850528
v -3.64294949 3.41822342 0.33911357
v -2.09767433 3.55160690 0.52731327
v -1.87714041 3.55334298 0.52731327
v -2.76004495 3.53540417 0.40894354
v -1.65660632 3.55464479 0.52731327
v -0.77293326 3.56809914 0.74804409
v -3.13426116 3.53294465 0.41541542
v -0.55239917 3.56303566 0.74804409
v -0.55239917 3.54176946 0.62456450
v -1.43530388 3.20122202 0.33485578
v -1.21476979 3.37308706 0.40127940
v -0.41715887 3.53627205 0.63308006
v 0.00162521 3.41446208 0.68979586
v -1.21476979 3.05655453 0.40127940
v -0.33186541 3.04961022 0.61877362
v -0.55239917 3.01358818 0.59203402
v 0.00162521 3.00866946 0.73441867
v -0.55239917 2.91796281 0.74804409
v -7.84846425 2.46992730 1.97381314
v -7.84846425 2.99709595 0.51692444
v -3.86425176 2.99969990 0.34558544
v 0.00162521 2.71282411 1.97381314
v -3.64294949 3.20122202 0.26127863
v -3.86425176 3.41489602 0.34558544
v -1.87714041 3.56578437 0.74804409
v -1.43530388 3.58227661 0.96877425
v -1.65660632 3.56795438 0.74804409
v -2.31820842 3.54929213 0.52731327
v -1.43530388 3.56969013 0.74804409
v -0.99423587 3.58560368 0.96877425
v -1.21476979 3.57041358 0.74804409
v -0.99423587 3.56983489 0.74804409
v 0.00162521 3.60658037 1.29816699
v 0.00162521 3.59775589 1.18950507
v 0.00162521 3.57981708 0.96877425
v -7.84846425 3.38249056 0.51011173
v -7.84846425 3.38711977 0.51726461
v -3.28102760 3.53193202 0.42733734
v -2.53951086 3.54668818 0.52731327
v 0.00162521 3.55160690 0.80271555
v -1.09797148 3.31999409 0.41541542
v 0.00162521 3.20122202 0.65862741
v -1.09797148 3.08664521 0.41541542
v 0.00162521 3.48592779 0.74855467
v 0.00162521 3.28802258 0.67123098
v -0.20584570 3.08042468 0.63393149
v 0.00162521 2.96512443 0.85960176
v 0.00162521 2.92722156 0.96877425
v -7.84846425 3.34458770 1.76193938
v -7.81695891 2.49148269 1.97381314
v -7.84846425 2.99926596 0.51334766
v -7.84846425 3.00259336 0.50977090
v -7.84846425 3.20122202 0.42393164
v 0.00162521 2.99015197 1.97381314
v -7.84846425 3.25518286 0.42887042
v -1.65660632 3.57967233 0.96877425
v -0.99423587 3.59862376 1.18950507
v -1.21476979 3.58430187 0.96877425
v -0.77293326 3.60050459 1.18950507
v -0.33186541 3.61627338 1.41023525
v -0.55239917 3.60108328 1.18950507
v -0.77293326 3.58545925 0.96877425
v 0.00162521 3.61554993 1.41023525
v -7.84846425 3.46249157 0.74804409
v -3.20495506 3.53670598 0.51147439
v -2.98057871 3.54090159 0.52731327
v -7.84846425 3.40607121 1.63743794
v -7.61794072 2.57972998 1.97381314
v -7.46041666 2.62833832 1.97381314
v -7.17533617 2.71195624 1.97381314
v -6.94942310 2.76779791 1.97381314
v -6.06267630 2.97568532 1.97381314
v -5.85059460 2.99015197 1.97381314
v -2.93754788 3.53366810 1.74269350
v -3.08508284 3.53178726 1.74047939
v 0.00162521 3.55695956 1.76074712
v -1.21476979 3.59544112 1.18950507
v -2.53951086 3.55681480 0.74804409
v -1.87714041 3.57620017 0.96877425
v -0.55239917 3.61439255 1.41023525
v -0.33186541 3.60108328 1.63096607
v -0.11056281 3.60296379 1.63096607
v 0.00162521 3.60296379 1.63096607
v -7.84846425 3.43760879 1.41023525
v -4.21618421 3.53294465 1.52570985
v -1.21476979 3.60209591 1.41023525
v -0.99423587 3.60672512 1.41023525
v -0.77293326 3.61077597 1.41023525
v -1.43530388 3.59153503 1.18950507
v -7.84846425 3.40910942 1.63096607
v -0.11056281 3.55695956 1.76074712
v -0.33186541 3.55565742 1.76006611
v -0.77293326 3.55247477 1.75836259
v -0.99423587 3.55088345 1.75734075
v -1.21476979 3.54914738 1.75614850
v -1.65660632 3.54538604 1.75342381
v -2.09767433 3.54162470 1.75018721
v -2.53951086 3.53757419 1.74644068
v -2.76004495 3.53540417 1.74439700
v -0.55239917 3.59761113 1.63096607
v -0.99423587 3.58922026 1.63096607
v -1.21476979 3.58488023 1.63096607
v -1.65660632 3.57605575 1.63096607
v -2.09767433 3.56694175 1.63096607
v -2.99902086 3.54524161 1.65259581
v -3.42241540 3.54220340 1.60405605
v -3.64294949 3.53974420 1.58481016
v -3.86425176 3.53714025 1.56352061
v -4.08401733 3.53453597 1.54035713
v 0.00162521 3.58039577 1.69483474
v -2.53951086 3.55768300 1.63096607
v -3.20188131 3.54480735 1.62142800
v -2.76004495 3.55305347 1.63096607
f 1 2 3
f 1 3 4
f 1 4 5
f 1 5 6
f 1 6 7
f 1 7 8
f 1 8 9
f 1 9 10
f 1 10 11
f 1 11 12
f 1 12 13
f 1 13 2
f 2 14 15
f 2 15 16
f 2 16 17
f 2 17 18
f 2 18 3
f 2 13 19
f 2 19 14
f 3 18 20
f 3 20 4
f 4 20 5
f 5 21 22
f 5 22 6
f 5 20 23
f 5 23 24
f 5 24 21
f 6 22 7
f 7 25 26
f 7 26 27
f 7 27 8
f 7 22 21
f 7 21 25
f 8 27 9
f 9 27 10
f 10 27 11
f 11 27 28
f 11 28 29
f 11 29 12
f 12 30 32
f 12 32 31
f 12 31 13
f 12 29 30
f 13 31 32
f 13 32 33
f 13 33 34
f 13 34 35
f 13 35 19
f 14 36 37
f 14 37 15
f 14 19 38
f 14 38 36
f 15 37 39
f 15 39 16
f 16 39 17
f 17 39 18
f 18 39 40
f 18 40 20
f 19 41 38
f 19 35 41
f 20 40 42
f 20 42 43
f 20 43 23
f 21 24 44
f 21 44 25
f 23 45 24
f 23 43 46
f 23 46 47
f 23 47 45
f 24 45 44
f 25 44 48
f 25 48 49
f 25 49 50
f 25 50 26
f 26 50 51
f 26 51 52
f 26 52 29
f 26 29 27
f 27 29 28
f 29 53 83
f 29 83 101
f 29 101 124
f 29 124 118
f 29 118 98
f 29 98 71
f 29 71 70
f 29 70 89
f 29 89 87
f 29 87 86
f 29 86 85
f 29 85 54
f 29 54 55
f 29 55 33
f 29 33 32
f 29 32 30
f 29 52 56
f 29 56 88
f 29 88 107
f 29 107 106
f 29 106 105
f 29 105 104
f 29 104 103
f 29 103 102
f 29 102 84
f 29 84 53
f 33 57 34
f 33 55 57
f 34 57 35
f 35 57 58
f 35 58 41
f 36 59 60
f 36 60 91
f 36 91 61
f 36 61 37
f 36 38 41
f 36 41 62
f 36 62 59
f 37 61 92
f 37 92 63
f 37 63 39
f 39 63 64
f 39 64 65
f 39 65 66
f 39 66 40
f 40 66 67
f 40 67 68
f 40 68 69
f 40 69 42
f 41 58 70
f 41 70 71
f 41 71 72
f 41 72 73
f 41 73 62
f 42 69 74
f 42 74 43
f 43 74 46
f 44 45 75
f 44 75 76
f 44 76 77
f 44 77 48
f 45 47 75
f 46 74 78
f 46 78 47
f 47 78 74
f 47 74 69
f 47 69 68
f 47 68 67
f 47 67 97
f 47 97 117
f 47 117 144
f 47 144 110
f 47 110 88
f 47 88 56
f 47 56 82
f 47 82 81
f 47 81 51
f 47 51 76
f 47 76 79
f 47 79 75
f 48 77 80
f 48 80 49
f 49 80 51
f 49 51 50
f 51 81 52
f 51 80 76
f 52 81 82
f 52 82 56
f 53 84 83
f 54 85 55
f 55 85 86
f 55 86 87
f 55 87 57
f 57 87 89
f 57 89 58
f 58 89 70
f 59 62 73
f 59 73 90
f 59 90 60
f 60 90 91
f 61 91 92
f 63 92 93
f 63 93 64
f 64 93 94
f 64 94 95
f 64 95 65
f 65 95 96
f 65 96 66
f 66 96 97
f 66 97 67
f 71 98 72
f 72 99 100
f 72 100 73
f 72 98 99
f 73 100 90
f 75 79 76
f 76 80 77
f 83 84 102
f 83 102 103
f 83 103 104
f 83 104 105
f 83 105 106
f 83 106 107
f 83 107 108
f 83 108 109
f 83 109 101
f 88 110 125
f 88 125 107
f 90 111 114
f 90 114 91
f 90 100 112
f 90 112 113
f 90 113 111
f 91 93 92
f 91 114 94
f 91 94 93
f 94 114 115
f 94 115 116
f 94 116 117
f 94 117 97
f 94 97 95
f 95 97 96
f 98 118 119
f 98 119 120
f 98 120 121
f 98 121 122
f 98 122 123
f 98 123 113
f 98 113 112
f 98 112 99
f 99 112 100
f 101 109 124
f 107 125 126
f 107 126 127
f 107 127 128
f 107 128 129
f 107 129 130
f 107 130 131
f 107 131 132
f 107 132 133
f 107 133 108
f 108 133 115
f 108 115 134
f 108 134 109
f 109 134 135
f 109 135 136
f 109 136 137
f 109 137 138
f 109 138 139
f 109 139 140
f 109 140 141
f 109 141 142
f 109 142 143
f 109 143 124
f 110 144 125
f 111 122 114
f 111 113 123
f 111 123 122
f 114 134 115
f 114 122 134
f 115 126 116
f 115 133 132
f 115 132 131
f 115 131 130
f 115 130 129
f 115 129 128
f 115 128 127
f 115 127 126
f 116 125 144
f 116 144 117
f 116 126 125
f 118 124 119
f 119 124 143
f 119 143 121
f 119 121 120
f 121 143 142
f 121 142 137
f 121 137 136
f 121 136 135
f 121 135 134
f 121 134 122
f 137 142 141
f 137 141 138
f 138 141 145
f 138 145 139
f 139 146 140
f 139 145 147
f 139 147 146
f 140 146 147
f 140 147 145
f 140 145 141

