# https://github.com/mikedh/trimesh
v 10.09294302 2.82032304 1.51381032
v 10.10462016 2.82032304 1.41008785
v 9.56641524 2.82032304 1.51381032
v 10.09134018 1.04244375 1.51381032
v 10.10301733 -2.22210190 1.40592613
v 10.12392855 2.53848820 0.96862424
v 10.12385223 2.82032304 0.96862424
v 10.12392855 -2.22210190 0.96862424
v 9.36714505 2.82032304 0.84329243
v 9.52199707 -2.22210190 0.96862424
v 9.61220662 1.21075497 1.51381032
v 9.62716511 1.04244375 1.51381032
v 9.79079390 -2.22210190 1.40592613
v 10.12614199 2.31785738 0.74773286
v 10.12446283 2.82032304 0.90795925
v 10.12621832 1.04244375 0.74773286
v 10.12621832 -2.22210190 0.74773286
v 9.34676745 2.82032304 0.74773286
v 9.50207742 -2.22210190 0.74773286
v 9.78957335 -2.22210190 1.40528592
v 9.78865744 -2.22111477 1.40592613
v 10.12629464 1.65547163 0.30658967
v 10.12614199 2.31785738 0.52732116
v 10.12598934 2.82032304 0.74773286
v 10.12621832 -2.22210190 0.30658967
v 9.34661480 2.82032304 0.52732116
v 9.50207742 -2.22210190 0.30658967
v 10.11385490 1.87659593 0.08585820
v 10.12591302 2.82032304 0.30658967
v 10.12598934 2.75911901 0.52732116
v 10.12598934 2.82032304 0.68754755
v 10.10713825 -2.22210190 0.08585820
v 9.34676745 2.82032304 0.30658967
v 9.50597002 -2.22210190 0.18189809
v 10.01814991 1.87659593 -0.07292788
v 10.01814991 2.09722674 -0.07292788
v 10.01799726 2.82032304 -0.07292788
v 10.11370225 2.31785738 0.08585820
v 10.11347327 2.82032304 0.08585820
v 10.01158657 -2.22210190 -0.06732519
v 9.39912282 2.82032304 0.08585820
v 9.51222806 -2.22210190 0.08585820
v 9.82460348 1.87659593 -0.12126759
v 9.82460348 2.82032304 -0.12126759
v 9.82467981 -2.22210190 -0.11230396
v 9.47750257 2.82032304 -0.01914534
v 9.61846465 -2.22210190 -0.06940638
v 9.57221532 -2.22210190 -0.00393880
v 9.76415892 2.82032304 -0.11550568
v 9.73683635 -2.22210190 -0.09629730
v 9.49551408 2.82032304 -0.03595209
v 9.53107915 2.82032304 -0.06604475
f 1 2 7
f 1 7 15
f 1 15 24
f 1 24 31
f 1 31 29
f 1 29 39
f 1 39 37
f 1 37 44
f 1 44 49
f 1 49 52
f 1 52 51
f 1 51 46
f 1 46 41
f 1 41 33
f 1 33 26
f 1 26 18
f 1 18 9
f 1 9 3
f 1 3 11
f 1 11 12
f 1 12 4
f 1 4 5
f 1 5 2
f 2 6 7
f 2 5 8
f 2 8 6
f 3 9 10
f 3 10 11
f 4 12 13
f 4 13 5
f 5 13 20
f 5 20 10
f 5 10 19
f 5 19 27
f 5 27 34
f 5 34 42
f 5 42 48
f 5 48 47
f 5 47 50
f 5 50 45
f 5 45 40
f 5 40 32
f 5 32 25
f 5 25 17
f 5 17 8
f 6 14 15
f 6 15 7
f 6 8 17
f 6 17 16
f 6 16 14
f 9 18 10
f 10 20 21
f 10 21 11
f 10 18 19
f 11 21 12
f 12 21 13
f 13 21 20
f 14 22 23
f 14 23 31
f 14 31 24
f 14 24 15
f 14 16 22
f 16 17 22
f 17 25 22
f 18 26 19
f 19 26 27
f 22 28 29
f 22 29 23
f 22 25 28
f 23 29 30
f 23 30 31
f 25 32 28
f 26 33 27
f 27 33 34
f 28 35 36
f 28 36 37
f 28 37 38
f 28 38 29
f 28 32 35
f 29 38 39
f 29 31 30
f 32 40 35
f 33 41 42
f 33 42 34
f 35 43 44
f 35 44 36
f 35 40 43
f 36 44 37
f 37 39 38
f 40 45 43
f 41 46 47
f 41 47 48
f 41 48 42
f 43 49 44
f 43 45 49
f 45 50 49
f 46 51 47
f 47 51 52
f 47 52 50
f 49 50 52

