# https://github.com/mikedh/trimesh
v 7.60899419 0.14200636 8.51172621
v 8.27901134 0.13948210 8.51172621
v 6.97676146 0.14200636 7.87107588
v 5.41230376 0.14200636 8.51172621
v 8.28682879 0.11038303 8.51172621
v 6.99174496 0.09678008 7.87107588
v 6.06961732 0.14200636 7.87107588
v 4.95954527 0.13948210 8.51172621
v 8.28682879 -0.11041930 8.51172621
v 7.04842128 -0.33115151 7.87107588
v 7.04548998 -0.11084001 7.87107588
v 6.02271264 -0.07669243 7.87107588
v 4.95954527 0.11872711 8.51122441
v 4.95954527 -0.05958358 8.51172621
v 8.27901134 -0.13958849 8.51172621
v 6.98523031 -0.57425147 7.87107588
v 6.02238694 -0.11041930 7.87107588
v 4.95954527 0.11038303 8.51109899
v 4.95954527 -0.13846660 8.51166346
v 4.96768842 -0.13958849 8.51172621
v 6.99858530 -0.57425147 8.51172621
v 7.02138624 -0.57425147 8.03376277
v 6.08232025 -0.57425147 7.87107588
v 6.02173554 -0.30289387 7.87107588
v 4.95954527 -0.11041930 8.51109899
v 5.83770085 -0.57425147 8.51172621
v 6.02336404 -0.33115151 7.87107588
v 6.07320001 -0.54010385 7.87107588
f 1 2 3
f 1 3 7
f 1 7 4
f 1 4 8
f 1 8 14
f 1 14 20
f 1 20 26
f 1 26 21
f 1 21 15
f 1 15 9
f 1 9 5
f 1 5 2
f 2 5 6
f 2 6 3
f 3 6 11
f 3 11 10
f 3 10 16
f 3 16 23
f 3 23 28
f 3 28 27
f 3 27 24
f 3 24 17
f 3 17 12
f 3 12 7
f 4 7 8
f 5 9 10
f 5 10 11
f 5 11 6
f 7 12 8
f 8 13 18
f 8 18 25
f 8 25 19
f 8 19 14
f 8 12 13
f 9 15 16
f 9 16 10
f 12 17 18
f 12 18 13
f 14 19 20
f 15 21 22
f 15 22 16
f 16 22 21
f 16 21 26
f 16 26 23
f 17 24 18
f 18 24 25
f 19 26 20
f 19 25 24
f 19 24 27
f 19 27 28
f 19 28 23
f 19 23 26

