# https://github.com/mikedh/trimesh
v 9.35913877 0.83972468 1.97381348
v 9.17599432 0.83972468 1.97381348
v 9.34817487 0.87232564 1.97381348
v 7.73906014 0.83972468 3.96074652
v 9.02160684 0.83972468 1.97401579
v 9.02088833 0.84128541 1.97381348
v 9.29695188 1.00376973 1.97381348
v 7.72917533 0.88775903 3.95124662
v 7.62133721 0.97411677 3.99733212
v 7.61846184 0.83972468 4.02280050
v 9.01873148 0.83972468 1.97745176
v 7.52320560 2.29740148 1.97381348
v 9.09457735 1.45636742 1.97381348
v 7.69772262 1.03480996 3.91365037
v 7.55052422 1.14648541 3.98641724
v 7.52320560 1.11926014 4.00137474
v 7.52320560 0.98261382 4.02906643
v 7.52320560 0.83972468 4.03876866
v 7.52320560 0.83972468 3.77317059
v 7.52320560 2.61127200 1.97381348
v 8.92922662 1.79763650 1.97381348
v 7.92615838 1.28816058 3.48877440
v 7.75775200 1.15012699 3.76649999
v 7.52320560 1.26423013 3.87767144
v 7.52320560 1.15845059 3.98965119
v 8.14794394 1.52486400 3.05055758
v 7.69430771 1.29717785 3.70323370
v 7.54441357 2.60537618 1.97381348
v 7.52320560 2.60346870 1.98674966
v 8.89777392 1.84757841 1.97381348
v 8.59906406 1.75185648 2.39545581
v 7.52320560 1.33342039 3.79722398
v 8.73314171 2.00867530 1.97381348
v 7.61828222 2.57953801 1.97381348
v 7.52320560 2.45433682 2.23092230
v 7.52320560 2.43925019 2.25558203
v 8.86398474 1.89058373 1.97381348
v 8.79766442 1.95751975 1.97381348
v 7.52320560 1.41093432 3.69029750
v 8.62746111 2.07387721 1.97381348
v 7.76476145 2.52370029 1.97381348
v 7.52320560 2.20896288 2.57939345
v 7.52320560 1.62769555 3.39013515
v 7.85624353 2.47705338 1.97381348
v 7.52320560 2.16023495 2.64771335
v 7.52320560 2.00243272 2.86884292
v 7.52320560 1.91694204 2.98850360
v 7.52320560 1.87549727 3.04631262
f 1 2 6
f 1 6 12
f 1 12 20
f 1 20 28
f 1 28 34
f 1 34 41
f 1 41 44
f 1 44 40
f 1 40 33
f 1 33 38
f 1 38 37
f 1 37 30
f 1 30 21
f 1 21 13
f 1 13 7
f 1 7 3
f 1 3 4
f 1 4 10
f 1 10 18
f 1 18 19
f 1 19 11
f 1 11 5
f 1 5 2
f 2 5 6
f 3 7 8
f 3 8 4
f 4 8 9
f 4 9 10
f 5 11 12
f 5 12 6
f 7 13 14
f 7 14 8
f 8 14 15
f 8 15 9
f 9 15 16
f 9 16 17
f 9 17 10
f 10 17 18
f 11 19 12
f 12 19 18
f 12 18 17
f 12 17 16
f 12 16 25
f 12 25 24
f 12 24 32
f 12 32 39
f 12 39 43
f 12 43 48
f 12 48 47
f 12 47 46
f 12 46 45
f 12 45 42
f 12 42 36
f 12 36 35
f 12 35 29
f 12 29 20
f 13 21 22
f 13 22 14
f 14 22 23
f 14 23 15
f 15 24 25
f 15 25 16
f 15 23 22
f 15 22 26
f 15 26 27
f 15 27 24
f 20 29 28
f 21 30 31
f 21 31 22
f 22 31 26
f 24 27 32
f 26 31 33
f 26 33 27
f 27 33 32
f 28 29 35
f 28 35 36
f 28 36 34
f 30 37 31
f 31 37 38
f 31 38 33
f 32 33 40
f 32 40 39
f 34 36 41
f 36 42 41
f 39 40 44
f 39 44 43
f 41 42 45
f 41 45 46
f 41 46 47
f 41 47 48
f 41 48 44
f 43 44 48

