# https://github.com/mikedh/trimesh
v -0.11031719 0.41234140 12.85785291
v 0.11035398 0.41234140 12.85785291
v -0.13948346 0.41497578 12.85785291
v -0.11031719 0.42774221 12.73348276
v 0.11035398 0.42774221 12.73302184
v 0.22772795 0.43524005 12.75720486
v 0.23208264 0.43098449 12.85785291
v -0.22758990 0.43544262 12.75766578
v -0.23184330 0.43118714 12.85785291
v -0.11031719 0.52683431 12.44927343
v 0.11035398 0.52642908 12.44927343
v 0.24119711 0.63788229 12.22840049
v 0.25841331 0.60282518 12.44927343
v 0.22185420 0.66159149 12.11646744
v 0.23633606 0.44760116 12.85785291
v -0.25797143 0.60302784 12.44927343
v -0.24105904 0.63808495 12.22840049
v -0.22171613 0.66159149 12.11646744
v -0.26181975 0.55115140 12.85785291
v -0.11031719 0.60728332 12.22840049
v 0.11035398 0.60728332 12.22840049
v 0.28636431 0.77284213 12.22840049
v 0.25061538 0.85065667 11.85206526
v 0.25902093 0.77527377 12.02871708
v 0.47918571 2.06407876 10.50494977
v 0.26246418 0.55094874 12.85785291
v 0.11035398 0.66017297 12.11370360
v 0.11035398 0.72339733 12.00338228
v 0.11035398 0.83383742 11.82926399
v -0.28582117 0.77284213 12.22840049
v -0.48502272 2.08616677 10.50494977
v -0.25878159 0.77527377 12.02871708
v -0.25047732 0.85065667 11.85206526
v -0.11031719 0.83383742 11.82926399
v -0.11031719 0.72359998 12.00338228
v -0.11031719 0.66017297 12.11393390
v -0.25199639 0.74122987 12.85785291
v -0.51641694 2.31880010 10.50494977
v -0.48765579 2.09731211 10.68321399
v 0.48475566 2.08616677 10.50494977
v 0.11035398 0.91509697 11.71894266
v 0.11035398 1.02533441 11.58190509
v 0.41153620 1.98829062 10.50494977
v 0.44758899 1.98099545 10.54755818
v 0.46743824 2.03692479 10.50494977
v 0.26317307 0.58722171 12.85785291
v 0.51817539 2.27543470 10.50494977
v -0.46770521 2.03732994 10.50494977
v -0.11031719 1.02553707 11.58213539
v -0.11031719 0.91509697 11.71894266
v -0.44734965 1.98119810 10.54801876
v -0.33108963 1.97592934 10.50494977
v -0.11031719 0.84052462 12.85785291
v -0.45605899 2.44079085 10.60928251
v -0.45848948 2.25071246 10.83844665
v -0.47732610 2.32183980 10.68298370
v -0.50547961 2.35365472 10.50494977
v -0.11031719 1.11794196 11.47158409
v 0.11035398 1.11794196 11.47158409
v 0.33112642 1.97572685 10.50494977
v 0.25243827 0.74163518 12.85785291
v 0.51604864 2.31880010 10.50494977
v -0.11031719 1.96437885 10.50494977
v -0.05907368 0.84072728 12.85785291
v -0.11031719 2.30157554 10.90408661
v -0.22526064 2.20856267 11.01532877
v -0.33108963 2.39661481 10.74355656
v -0.33108963 2.44808602 10.63300528
v -0.36744619 2.47645593 10.50494977
v -0.47043961 2.45375994 10.50494977
v 0.11035398 1.96437885 10.50494977
v 0.13273504 0.82613701 12.85785291
v 0.45872882 2.25111778 10.83890724
v 0.47067895 2.45375994 10.50494977
v 0.45619708 2.44079085 10.60951280
v 0.47695779 2.32204246 10.68298370
v 0.11035398 0.84092994 12.85785291
v 0.11035398 2.30157554 10.90408661
v -0.11031719 2.41059719 10.74908425
v -0.11031719 2.44950446 10.63876325
v -0.33108963 2.48030609 10.50494977
v 0.33112642 2.48050875 10.50494977
v 0.33112642 2.44828868 10.63323556
v 0.33112642 2.39681747 10.74355656
v 0.22529744 2.20856267 11.01532877
v 0.11035398 2.41059719 10.74908425
v -0.11031719 2.48212985 10.50494977
v 0.11035398 2.44950446 10.63876325
v 0.27775620 2.48111672 10.50494977
v 0.11035398 2.48212985 10.50494977
f 1 2 7
f 1 7 15
f 1 15 26
f 1 26 46
f 1 46 61
f 1 61 72
f 1 72 77
f 1 77 64
f 1 64 53
f 1 53 37
f 1 37 19
f 1 19 9
f 1 9 3
f 1 3 4
f 1 4 5
f 1 5 2
f 2 5 6
f 2 6 7
f 3 8 4
f 3 9 8
f 4 8 10
f 4 10 11
f 4 11 5
f 5 11 6
f 6 12 13
f 6 13 7
f 6 11 14
f 6 14 12
f 7 13 15
f 8 9 16
f 8 16 17
f 8 17 18
f 8 18 10
f 9 19 16
f 10 20 11
f 10 18 20
f 11 20 21
f 11 21 14
f 12 22 13
f 12 14 23
f 12 23 24
f 12 24 25
f 12 25 22
f 13 22 26
f 13 26 15
f 14 27 28
f 14 28 29
f 14 29 23
f 14 21 27
f 16 30 17
f 16 19 30
f 17 30 31
f 17 31 32
f 17 32 33
f 17 33 18
f 18 33 34
f 18 34 35
f 18 35 36
f 18 36 20
f 19 37 38
f 19 38 39
f 19 39 31
f 19 31 30
f 20 36 27
f 20 27 21
f 22 25 40
f 22 40 26
f 23 29 41
f 23 41 42
f 23 42 43
f 23 43 44
f 23 44 45
f 23 45 24
f 24 45 25
f 25 45 43
f 25 43 60
f 25 60 71
f 25 71 63
f 25 63 52
f 25 52 48
f 25 48 31
f 25 31 38
f 25 38 57
f 25 57 70
f 25 70 69
f 25 69 81
f 25 81 87
f 25 87 90
f 25 90 89
f 25 89 82
f 25 82 74
f 25 74 62
f 25 62 47
f 25 47 40
f 26 40 47
f 26 47 46
f 27 36 28
f 28 35 34
f 28 34 29
f 28 36 35
f 29 34 50
f 29 50 41
f 31 39 38
f 31 48 32
f 32 48 33
f 33 49 50
f 33 50 34
f 33 48 51
f 33 51 52
f 33 52 49
f 37 53 54
f 37 54 55
f 37 55 38
f 38 55 56
f 38 56 54
f 38 54 57
f 41 50 42
f 42 50 49
f 42 49 58
f 42 58 59
f 42 59 43
f 43 45 44
f 43 59 60
f 46 47 62
f 46 62 61
f 48 52 51
f 49 52 58
f 52 63 58
f 53 64 65
f 53 65 66
f 53 66 67
f 53 67 54
f 54 67 68
f 54 68 69
f 54 69 70
f 54 70 57
f 54 56 55
f 58 63 71
f 58 71 59
f 59 71 60
f 61 62 73
f 61 73 72
f 62 74 75
f 62 75 76
f 62 76 73
f 64 77 65
f 65 78 86
f 65 86 79
f 65 79 67
f 65 67 66
f 65 77 78
f 67 79 68
f 68 79 80
f 68 80 81
f 68 81 69
f 72 73 75
f 72 75 77
f 73 76 75
f 74 82 75
f 75 82 83
f 75 83 84
f 75 84 77
f 77 84 85
f 77 85 78
f 78 85 84
f 78 84 86
f 79 86 88
f 79 88 80
f 80 87 81
f 80 88 90
f 80 90 87
f 82 89 88
f 82 88 83
f 83 88 86
f 83 86 84
f 88 89 90

