# https://github.com/mikedh/trimesh
v -10.10302654 -1.21837798 1.40607155
v -10.10302654 -1.21837798 1.41024709
v -10.10302654 -1.21424472 1.40512538
v -10.04839061 -1.21837798 1.40512538
v -10.07878858 -1.21837798 1.62684515
v -10.10302654 -1.21424472 1.41030236
v -10.10302654 0.70059047 1.40512538
v -9.78945096 -1.21424472 1.40512538
v -9.78945096 -1.21837798 1.40540370
v -10.07828391 -1.21837798 1.63113122
v -10.07828391 0.70059047 1.63113122
v -10.08636323 0.70059047 1.55915427
v -10.10302654 0.70059047 1.41030236
v -9.78945096 0.70059047 1.40512538
v -9.55686994 -1.21837798 1.53109871
v -9.98688736 -1.21837798 1.75949762
v -9.98506937 -0.33103829 1.76216967
v -9.98506937 -0.11047153 1.76216967
v -10.01546799 0.70059047 1.71936222
v -9.55909128 0.70059047 1.53054206
v -9.36690687 -1.21837798 1.64337752
v -9.98506937 -1.21837798 1.76200320
v -9.53434865 -0.33103829 1.97375787
v -9.98506937 0.70059047 1.76200320
v -9.37195619 0.70059047 1.64159637
v -9.35650422 -1.21837798 1.65028037
v -9.39791082 -1.21837798 1.97375787
v -9.39912282 -1.21424472 1.97375787
v -9.41447281 -1.14717283 1.97375787
v -9.49112470 -0.75094180 1.97375787
v -9.53111731 -0.36466816 1.97375787
v -9.52849132 -0.11047153 1.97375787
v -9.42982345 0.55066511 1.97375787
v -9.39558816 0.70059047 1.97375787
v -9.30903895 0.70059047 1.70505644
v -9.26399701 -1.21837798 1.73010635
v -9.07140860 -1.21837798 1.97375787
v -9.08069926 0.70059047 1.97375787
v -9.23470972 0.70059047 1.78003905
v -9.16563247 -1.21837798 1.85301746
v -9.17088380 0.70059047 1.85156990
v -9.13917317 0.70059047 1.89254091
f 1 2 6
f 1 6 13
f 1 13 7
f 1 7 3
f 1 3 4
f 1 4 9
f 1 9 15
f 1 15 21
f 1 21 26
f 1 26 36
f 1 36 40
f 1 40 37
f 1 37 27
f 1 27 22
f 1 22 16
f 1 16 10
f 1 10 5
f 1 5 2
f 2 5 6
f 3 7 14
f 3 14 8
f 3 8 4
f 4 8 9
f 5 10 11
f 5 11 12
f 5 12 13
f 5 13 6
f 7 13 12
f 7 12 11
f 7 11 19
f 7 19 24
f 7 24 34
f 7 34 38
f 7 38 42
f 7 42 41
f 7 41 39
f 7 39 35
f 7 35 25
f 7 25 20
f 7 20 14
f 8 15 9
f 8 14 15
f 10 16 17
f 10 17 18
f 10 18 11
f 11 18 19
f 14 20 15
f 15 20 21
f 16 22 17
f 17 22 23
f 17 23 18
f 18 23 24
f 18 24 19
f 20 25 21
f 21 25 26
f 22 27 28
f 22 28 29
f 22 29 30
f 22 30 31
f 22 31 23
f 23 32 24
f 23 31 30
f 23 30 29
f 23 29 28
f 23 28 27
f 23 27 37
f 23 37 38
f 23 38 34
f 23 34 33
f 23 33 32
f 24 33 34
f 24 32 33
f 25 35 36
f 25 36 26
f 35 39 36
f 36 39 41
f 36 41 40
f 37 40 41
f 37 41 42
f 37 42 38

