# https://github.com/mikedh/trimesh
v 4.45454657 -4.20203570 10.34267017
v 6.35101444 -4.66611438 9.65657941
v 5.06595722 -4.41971843 10.34578109
v 4.45454657 -4.20203570 10.36976112
v 4.45454657 -3.46318212 9.71413167
v 6.15739168 -4.25311755 9.44049903
v 6.29223588 -4.39835090 9.48495947
v 6.41670770 -4.40302518 9.47899686
v 6.41670770 -4.66344364 9.65904224
v 6.41670770 -4.66377724 9.71011339
v 6.35197443 -4.66511293 9.80007127
v 5.06595722 -4.41971843 10.36405776
v 4.45454657 -3.38372131 9.64828345
v 4.52619453 -4.21405499 10.39814863
v 4.66353642 -4.17532603 10.55875039
v 4.45454657 -4.17766318 10.40942573
v 6.29223588 -3.98535440 9.27458243
v 6.29223588 -4.28784008 9.42351857
v 4.45454657 -3.33731341 9.61419291
v 4.45454657 -3.22980725 9.53654911
v 4.45454657 -3.15802538 9.48508910
v 4.45454657 -3.11295285 9.45488705
v 4.45454657 -3.08056746 9.43570301
v 4.45454657 -2.97973912 9.37996531
v 4.45454657 -2.90261513 9.33900480
v 4.45454657 -2.79577681 9.28404482
v 4.45454657 -2.77674609 9.27458243
v 6.41670770 -4.35494766 9.45216499
v 6.41670770 -4.66310939 9.79216434
v 6.41670770 -4.63973864 10.36237268
v 6.37099133 -4.63973864 10.36237268
v 5.18850807 -4.44008485 10.41020347
v 4.74094696 -4.24844360 10.47605168
v 5.32354472 -4.40202341 10.56458370
v 4.81067429 -4.20871319 10.58221228
v 4.45454657 -4.02074445 10.59089693
v 4.45454657 -4.12224097 10.49121743
v 4.52619453 -4.14594564 10.50845713
v 6.32200942 -3.98668977 9.27458243
v 6.41670770 -4.29251436 9.42170370
v 4.45454657 -1.25530243 9.27458243
v 6.41670770 -4.57930822 10.44649757
v 6.29530930 -4.57897430 10.44649757
v 5.47068292 -4.42439271 10.57936060
v 5.62973021 -4.50318600 10.46231177
v 5.40210805 -4.46378919 10.47955146
v 4.96760880 -4.22907895 10.59115618
v 4.52619453 -4.03543448 10.59426710
v 4.45454657 -3.86215643 10.59400786
v 6.34698037 -3.98769121 9.27458243
v 6.41670770 -4.02842339 9.29350723
v 6.41670770 -2.32234973 9.27458243
v 4.45454657 -3.27922014 10.37092772
v 6.41670770 -4.10521346 10.53088170
v 6.41670770 -3.97767513 10.46153371
v 6.41670770 -3.88686288 10.41188854
v 6.41670770 -3.77635205 10.33489285
v 6.41670770 -4.45878132 10.59504483
v 6.29223588 -4.45878132 10.59504483
v 5.85062948 -4.44208774 10.59024883
v 5.62973021 -4.43340702 10.58571206
v 5.18850807 -4.26346756 10.59478560
v 4.96760880 -4.08417953 10.59802613
v 4.52408176 -3.85614678 10.59387823
v 4.45454657 -3.74296489 10.58013832
v 6.41670770 -3.98869299 9.27458243
v 4.45454657 -3.41410315 10.44222005
v 6.41670770 -4.16564388 10.55499137
v 4.45454657 -3.63011693 10.54047372
v 6.41670770 -4.36696696 10.59297089
v 6.07133661 -4.30520117 10.59685954
v 5.85062948 -4.30520117 10.59880387
v 5.62973021 -4.30520117 10.59802613
v 6.07133661 -4.44976701 10.59297089
v 6.41670770 -4.28850792 10.59115618
v 4.45454657 -3.72760701 10.57560157
v 6.41670770 -4.20403891 10.57015744
f 1 2 3
f 1 3 12
f 1 12 4
f 1 4 16
f 1 16 37
f 1 37 36
f 1 36 49
f 1 49 65
f 1 65 76
f 1 76 69
f 1 69 67
f 1 67 53
f 1 53 41
f 1 41 27
f 1 27 26
f 1 26 25
f 1 25 24
f 1 24 23
f 1 23 22
f 1 22 21
f 1 21 20
f 1 20 19
f 1 19 13
f 1 13 5
f 1 5 2
f 2 6 7
f 2 7 8
f 2 8 9
f 2 9 10
f 2 10 11
f 2 11 12
f 2 12 3
f 2 5 13
f 2 13 6
f 4 14 15
f 4 15 16
f 4 12 14
f 6 17 18
f 6 18 7
f 6 13 19
f 6 19 20
f 6 20 21
f 6 21 22
f 6 22 23
f 6 23 24
f 6 24 25
f 6 25 26
f 6 26 27
f 6 27 17
f 7 28 8
f 7 18 28
f 8 28 40
f 8 40 51
f 8 51 66
f 8 66 52
f 8 52 57
f 8 57 56
f 8 56 55
f 8 55 54
f 8 54 68
f 8 68 77
f 8 77 75
f 8 75 70
f 8 70 58
f 8 58 42
f 8 42 30
f 8 30 29
f 8 29 10
f 8 10 9
f 10 29 11
f 11 29 30
f 11 30 31
f 11 31 32
f 11 32 12
f 12 32 14
f 14 33 15
f 14 32 33
f 15 33 34
f 15 34 35
f 15 35 36
f 15 36 37
f 15 37 38
f 15 38 16
f 16 38 37
f 17 39 40
f 17 40 28
f 17 28 18
f 17 27 41
f 17 41 52
f 17 52 66
f 17 66 50
f 17 50 39
f 30 42 31
f 31 42 43
f 31 43 44
f 31 44 45
f 31 45 46
f 31 46 32
f 32 46 34
f 32 34 33
f 34 46 44
f 34 44 35
f 35 47 48
f 35 48 36
f 35 44 47
f 36 48 49
f 39 50 40
f 40 50 51
f 41 53 54
f 41 54 55
f 41 55 56
f 41 56 57
f 41 57 52
f 42 58 59
f 42 59 43
f 43 59 60
f 43 60 61
f 43 61 44
f 44 46 45
f 44 61 47
f 47 61 62
f 47 62 48
f 48 62 63
f 48 63 49
f 49 64 65
f 49 63 64
f 50 66 51
f 53 67 54
f 54 67 69
f 54 69 68
f 58 70 71
f 58 71 72
f 58 72 59
f 59 72 73
f 59 73 74
f 59 74 60
f 60 74 62
f 60 62 61
f 62 74 73
f 62 73 63
f 63 73 72
f 63 72 64
f 64 72 71
f 64 71 75
f 64 75 65
f 65 75 77
f 65 77 76
f 68 69 77
f 69 76 77
f 70 75 71

