# https://github.com/mikedh/trimesh
v -9.53265369 -0.27237410 1.97381348
v -9.52820510 -0.11038314 1.97381348
v -9.22082044 -0.27237410 1.97381348
v -8.09847381 -0.27237410 3.85606735
v -8.09677886 -0.11038314 3.85395394
v -9.42948591 0.55044580 1.97381348
v -8.17240694 0.02504736 3.73264073
v -8.44441404 0.11040041 3.35855711
v -8.42831396 0.33118395 3.33742249
v -8.62236243 0.33118395 3.08190434
v -8.88780225 1.14086199 1.97381348
v -7.46548573 -0.27237410 3.83937081
v -8.06902794 -0.27237410 3.89220750
v -7.98662071 -0.11038314 3.98963837
v -7.97285053 0.11040041 3.97674625
v -9.38139753 0.77261274 1.97381348
v -8.61304150 0.44918418 3.06964620
v -9.26234154 0.61753858 2.17459274
v -7.96014035 0.25855780 3.96279744
v -9.22018484 1.14086199 1.97381348
v -7.46548573 1.14086199 3.62421999
v -7.38985765 1.14072365 3.66479853
v -7.36846149 1.14072365 3.69206221
v -7.46548573 -0.27237410 4.13293134
v -7.98789126 -0.27237410 3.99069507
v -7.94848886 -0.27237410 4.00718007
v -7.83811819 -0.11038314 4.05135152
v -7.83811819 0.11040041 4.03845941
v -7.85146463 0.33187563 4.00654612
v -9.06087831 0.68324796 2.41531657
v -9.31106552 0.94912895 1.97381348
v -8.40967211 0.48902483 3.31248346
v -7.79574962 0.55182920 4.00295323
v -7.75274544 0.77261274 3.97378732
v -7.93387121 0.40574681 3.93426550
v -7.96352960 1.14086199 3.52636636
v -7.46548573 1.14086199 4.00147375
v -7.46548573 0.11040041 4.12828174
v -7.46548573 -0.11038314 4.13293134
v -7.46548573 0.98744783 4.04775862
v -7.46548573 0.92422849 4.05896004
v -7.46548573 0.33118395 4.11031726
v -7.46548573 0.26201617 4.11602359
v -7.55827324 -0.27237410 4.11792580
v -7.83811819 -0.27237410 4.05283097
v -7.77922580 -0.27237410 4.06804806
v -7.61695376 -0.11038314 4.10820384
v -7.61695376 0.11040041 4.10397698
v -7.61695376 0.33118395 4.08601252
v -7.61695376 0.55182920 4.06445515
v -7.72944247 0.88756961 3.95117325
v -7.69787791 1.03475864 3.91376486
v -7.99657724 0.55182920 3.78801361
v -7.61695376 0.77261274 4.03528927
v -7.62161422 0.97402934 3.99745812
v -7.90612029 0.55182920 3.89833657
v -7.75910086 1.14086199 3.77004914
v -7.55297716 1.14086199 3.98667943
v -7.61695376 -0.27237410 4.10820384
v -7.55806137 1.14086199 3.98287533
f 1 2 6
f 1 6 16
f 1 16 31
f 1 31 20
f 1 20 11
f 1 11 3
f 1 3 12
f 1 12 24
f 1 24 44
f 1 44 59
f 1 59 46
f 1 46 45
f 1 45 26
f 1 26 25
f 1 25 13
f 1 13 4
f 1 4 5
f 1 5 2
f 2 5 7
f 2 7 8
f 2 8 9
f 2 9 10
f 2 10 6
f 3 11 12
f 4 13 14
f 4 14 5
f 5 14 15
f 5 15 7
f 6 10 9
f 6 9 17
f 6 17 18
f 6 18 16
f 7 9 8
f 7 15 9
f 9 15 19
f 9 19 17
f 11 20 36
f 11 36 57
f 11 57 60
f 11 60 58
f 11 58 37
f 11 37 21
f 11 21 22
f 11 22 12
f 12 22 23
f 12 23 24
f 13 25 14
f 14 25 26
f 14 26 27
f 14 27 28
f 14 28 15
f 15 28 29
f 15 29 19
f 16 18 17
f 16 17 30
f 16 30 31
f 17 19 32
f 17 32 30
f 19 29 33
f 19 33 34
f 19 34 35
f 19 35 32
f 20 31 36
f 21 37 23
f 21 23 22
f 23 38 39
f 23 39 24
f 23 37 40
f 23 40 41
f 23 41 42
f 23 42 43
f 23 43 38
f 24 39 44
f 26 45 27
f 27 45 46
f 27 46 47
f 27 47 48
f 27 48 28
f 28 48 49
f 28 49 50
f 28 50 33
f 28 33 29
f 30 32 51
f 30 51 31
f 31 51 52
f 31 52 36
f 32 35 53
f 32 53 51
f 33 50 54
f 33 54 55
f 33 55 34
f 34 55 51
f 34 51 35
f 35 56 53
f 35 51 56
f 36 52 57
f 37 58 40
f 38 43 48
f 38 48 39
f 39 48 47
f 39 47 44
f 40 58 55
f 40 55 54
f 40 54 41
f 41 54 50
f 41 50 49
f 41 49 42
f 42 49 43
f 43 49 48
f 44 47 59
f 46 59 47
f 51 55 58
f 51 58 60
f 51 60 52
f 51 53 56
f 52 60 57

