# https://github.com/mikedh/trimesh
v 6.73376530 0.14200638 7.77232025
v 6.73376530 0.61837437 7.87553024
v 6.89914037 0.61837437 7.89948707
v 6.96129041 0.14200638 7.82754409
v 6.29226351 0.14200638 7.77239264
v 6.29226351 0.61837437 7.87553024
v 6.99548359 0.61837437 8.03374686
v 7.60924159 0.14200638 8.51172621
v 6.08903953 0.14200638 7.82218817
v 6.14989928 0.61837437 7.89948707
v 6.25269399 0.61837437 7.88001757
v 6.99849450 0.61837437 8.41018092
v 7.38644800 0.33062311 8.51172621
v 5.41248635 0.14200638 8.51172621
v 6.13140481 0.61837437 7.93712322
v 5.73829013 0.51788761 8.51172621
v 6.99892416 0.61837437 8.51172621
v 5.85377264 0.61837437 8.51078530
v 5.85205269 0.61403780 8.51172621
v 6.72322777 0.61837437 8.51172621
f 1 2 3
f 1 3 4
f 1 4 8
f 1 8 14
f 1 14 9
f 1 9 5
f 1 5 6
f 1 6 2
f 2 6 11
f 2 11 10
f 2 10 15
f 2 15 18
f 2 18 20
f 2 20 17
f 2 17 12
f 2 12 7
f 2 7 3
f 3 7 8
f 3 8 4
f 5 9 10
f 5 10 11
f 5 11 6
f 7 12 13
f 7 13 8
f 8 13 17
f 8 17 20
f 8 20 19
f 8 19 16
f 8 16 14
f 9 14 10
f 10 14 16
f 10 16 15
f 12 17 13
f 15 16 18
f 16 19 18
f 18 19 20

