# https://github.com/mikedh/trimesh
v 1.84293341 -0.33103165 8.20713073
v 1.84293341 -0.47346080 8.17493780
v 1.84293341 -0.14092555 8.20355370
v 0.22713801 -0.20898173 10.47092076
v 0.22713801 -0.23537700 10.47092076
v 1.84293341 -0.47902565 8.16867803
v 1.84293341 -0.11039428 8.20265951
v 0.22243883 -0.20416892 10.47092076
v 1.84293341 -0.00293321 8.17583208
v 1.83461951 0.02541727 8.17225506
v 0.11001996 -0.33614526 10.47092076
v 1.84293341 -0.52692815 8.05063726
v 0.11001996 -0.10911587 10.47092076
v 1.84293341 0.02865088 8.15660569
v -0.08662270 -0.32163162 10.47092076
v -0.11662516 -0.50933133 9.81320106
v -0.11011861 -0.57264987 9.57890799
v 0.12845521 -0.50933133 9.81990784
v 0.33088149 -0.54166737 9.57890799
v 1.84293341 -0.57272504 7.81276716
v 0.33088149 0.06677738 9.57890799
v 0.11724947 0.04331493 9.81409526
v 0.04820765 0.01391165 9.95806923
v -0.03457023 0.01391165 9.95806923
v 0.10242897 -0.10956708 10.47092076
v 1.84293341 0.04820293 8.08819567
v -0.27712028 -0.48519207 9.74836795
v -0.08662270 -0.12197511 10.47092076
v -1.84990008 -0.33103165 8.17940900
v -1.84990008 -0.33885247 8.17806763
v -1.82242799 -0.46985121 8.16688957
v -1.84990008 -0.48692165 8.11860013
v -1.84990008 -0.50850409 8.07567619
v -1.84990008 -0.51940811 8.04750737
v 0.11001996 -0.57264987 9.57890799
v -0.34290883 -0.51098574 9.58382621
v -1.84990008 -0.57129624 7.83959460
v -1.84990008 -0.57272504 7.81276716
v -0.32700389 -0.61671717 7.58920501
v -0.09927435 -0.61671717 7.79354082
v -0.09240631 -0.61671717 7.79398794
v 0.21304047 -0.61671717 7.70814006
v 0.32654378 -0.61671717 7.58920501
v 0.38437985 -0.61671717 7.37592679
v 1.84293341 -0.57280030 7.55880060
v 0.11001996 0.08738223 9.57890799
v 1.84293341 0.05782856 8.04884874
v 1.84293341 0.08700624 7.84674860
v -0.10903418 0.04331493 9.80828267
v -0.11011861 0.08738223 9.57890799
v -0.26952928 0.02902688 9.74031972
v -1.84990008 0.05226375 8.04437750
v -1.84990008 0.03286209 8.10831630
v -1.81736731 0.02015325 8.16420683
v -1.84990008 -0.00977641 8.15615859
v -1.84990008 -0.11039428 8.17583208
v -1.84990008 -0.32922683 8.17940900
v 0.09194619 -0.61671717 7.79398794
v -1.84990008 -0.57280030 7.59233489
v -0.38483998 -0.61671717 7.37190266
v 0.38437985 -0.61671717 7.37190266
v 1.84293341 -0.57295064 6.93014386
v 0.32618231 0.15152799 7.59367627
v 0.09013882 0.15152799 7.79175231
v 1.84293341 0.08738223 7.81276716
v 0.39197083 0.15152799 7.37190266
v 0.32762819 0.15152799 7.59188776
v -0.33820964 0.04699973 9.58114347
v -0.08987598 0.15152799 7.79130520
v -0.22940551 0.15152799 7.72915492
v -1.84990008 0.08738223 7.81276716
v -1.84990008 -0.57295064 6.95741847
v -1.84990008 -0.57295064 6.93014386
v -0.38447851 -0.61671717 7.36743137
v 0.32473640 -0.61671717 7.15683588
v 1.84293341 -0.57264987 6.89660956
v 1.84293341 0.08745743 7.18455761
v 1.84293341 0.08745743 6.93014386
v 0.39088640 0.15152799 7.34954644
v -0.32808833 0.15152799 7.59322912
v -0.39170801 0.15152799 7.39425890
v -0.39206948 0.15152799 7.37190266
v -1.84990008 0.08745743 7.15102331
v -1.65578779 -0.57144667 6.70926450
v -0.19868010 -0.61671717 7.04237210
v -0.32483505 -0.61671717 7.15683588
v -1.84990008 -0.56603224 6.70926450
v 0.09122324 -0.61671717 6.95831275
v 1.84293341 -0.56693466 6.70926450
v 1.84293341 0.07926062 6.70926450
v 0.20653392 0.15152799 7.01152054
v 0.32329049 0.15152799 7.15370605
v -0.32483505 0.15152799 7.15504742
v -1.84990008 0.08745743 6.93014386
v -0.08011614 -0.61671717 6.96099550
v -0.33061865 -0.57295064 6.26795288
v -1.84990008 -0.50030728 6.54516986
v -0.33170308 -0.50692490 6.03544834
v -0.11011861 -0.53948658 6.04707351
v -0.55184166 -0.56016661 6.26795288
v 1.65568910 -0.57114589 6.70926450
v 0.33052001 -0.57295064 6.26795288
v 0.55138152 -0.56625785 6.26795288
v 0.40245362 -0.52429616 6.09893984
v 0.34100280 -0.50700012 6.02963560
v 1.84293341 -0.55693306 6.68154287
v 1.65568910 0.08565263 6.70926450
v 1.84293341 0.03549409 6.56260778
v 0.55138152 0.03481730 6.11011808
v 0.55138152 0.07850861 6.26795288
v 0.33052001 0.08745743 6.26795288
v 0.11001996 0.15152799 6.98245745
v -0.11011861 0.15152799 6.98245745
v -1.84990008 0.08700624 6.90376352
v -0.11011861 -0.54745783 6.09893984
v -1.84990008 -0.33103165 6.50045756
v -0.25832356 -0.46293281 5.92277292
v -0.11011861 -0.47383683 5.91517180
v 0.11001996 -0.53948658 6.04707351
v 0.16171096 -0.54745783 6.09893984
v 0.55174300 -0.50045767 6.08463192
v 0.27449131 -0.46300798 5.92277292
v 1.84293341 -0.50128491 6.54159291
v 1.84293341 -0.11039428 6.51297693
v 0.22280031 0.00067640 5.93618665
v 0.51306512 0.03489249 6.09893984
v 0.30991590 0.03541889 6.04126093
v 0.11001996 0.04489412 6.04707351
v 0.11001996 0.05497094 6.09893984
v -0.33061865 0.08745743 6.26795288
v -1.65578779 0.08422383 6.70926450
v -1.84990008 0.07632780 6.70926450
v -1.84990008 -0.13716555 6.51968387
v -0.23735797 -0.11046948 5.93037406
v -0.26483012 -0.33110684 5.92009018
v -0.11011861 -0.33110684 5.90354663
v 0.11001996 -0.33110684 5.90309953
v 0.11001996 -0.47383683 5.91517180
v 0.28388967 -0.33110684 5.92009018
v 0.39413969 -0.33110684 5.95183602
v 1.84293341 -0.33103165 6.49151497
v 1.84293341 -0.47458882 6.53130904
v 0.35510033 -0.11046948 5.96659119
v 0.24521179 -0.11046948 5.93037406
v 0.11001996 -0.11046948 5.92366728
v 0.11001996 0.00120281 5.93573955
v -0.11011861 0.04489412 6.04707351
v -0.16180961 0.05497094 6.09893984
v -0.31507521 0.04797732 6.09893984
v -0.36821212 0.04421733 6.09893984
v -0.55184166 0.07174060 6.26795288
v -0.30965308 0.03541889 6.04528495
v -1.84990008 0.07098859 6.69093239
v -1.84990008 -0.11039428 6.52281371
v -0.22217601 0.00067640 5.93618665
v -0.11011861 -0.11046948 5.92411439
v -0.11011861 0.00120281 5.93573955
v -1.84990008 0.03256129 6.56707907
v -1.84990008 0.01428764 6.55992504
f 1 2 6
f 1 6 12
f 1 12 20
f 1 20 45
f 1 45 62
f 1 62 76
f 1 76 89
f 1 89 106
f 1 106 123
f 1 123 142
f 1 142 141
f 1 141 124
f 1 124 108
f 1 108 90
f 1 90 78
f 1 78 77
f 1 77 65
f 1 65 48
f 1 48 47
f 1 47 26
f 1 26 14
f 1 14 9
f 1 9 7
f 1 7 3
f 1 3 4
f 1 4 5
f 1 5 2
f 2 5 6
f 3 7 4
f 4 8 13
f 4 13 25
f 4 25 28
f 4 28 15
f 4 15 11
f 4 11 5
f 4 7 9
f 4 9 10
f 4 10 8
f 5 11 6
f 6 11 12
f 8 10 13
f 9 14 10
f 10 14 13
f 11 15 16
f 11 16 17
f 11 17 18
f 11 18 19
f 11 19 12
f 12 19 20
f 13 21 22
f 13 22 23
f 13 23 24
f 13 24 25
f 13 14 26
f 13 26 21
f 15 27 16
f 15 28 57
f 15 57 29
f 15 29 30
f 15 30 31
f 15 31 32
f 15 32 33
f 15 33 34
f 15 34 27
f 16 27 17
f 17 35 18
f 17 27 36
f 17 36 34
f 17 34 37
f 17 37 38
f 17 38 39
f 17 39 40
f 17 40 41
f 17 41 58
f 17 58 35
f 18 35 19
f 19 35 20
f 20 42 43
f 20 43 44
f 20 44 45
f 20 35 42
f 21 46 22
f 21 26 47
f 21 47 48
f 21 48 46
f 22 49 24
f 22 24 23
f 22 46 50
f 22 50 49
f 24 49 28
f 24 28 25
f 27 34 36
f 28 49 51
f 28 51 52
f 28 52 53
f 28 53 54
f 28 54 55
f 28 55 56
f 28 56 57
f 29 57 56
f 29 56 55
f 29 55 53
f 29 53 52
f 29 52 71
f 29 71 83
f 29 83 94
f 29 94 114
f 29 114 132
f 29 132 153
f 29 153 158
f 29 158 159
f 29 159 154
f 29 154 133
f 29 133 116
f 29 116 97
f 29 97 87
f 29 87 73
f 29 73 72
f 29 72 59
f 29 59 38
f 29 38 37
f 29 37 34
f 29 34 33
f 29 33 32
f 29 32 30
f 30 32 31
f 35 58 42
f 38 59 60
f 38 60 39
f 39 60 74
f 39 74 86
f 39 86 85
f 39 85 95
f 39 95 88
f 39 88 75
f 39 75 61
f 39 61 44
f 39 44 43
f 39 43 42
f 39 42 58
f 39 58 41
f 39 41 40
f 44 61 62
f 44 62 45
f 46 48 63
f 46 63 64
f 46 64 50
f 48 65 66
f 48 66 67
f 48 67 63
f 49 50 51
f 50 52 68
f 50 68 51
f 50 64 69
f 50 69 70
f 50 70 71
f 50 71 52
f 51 68 52
f 53 55 54
f 59 72 60
f 60 72 73
f 60 73 74
f 61 75 62
f 62 75 76
f 63 67 66
f 63 66 79
f 63 79 92
f 63 92 91
f 63 91 112
f 63 112 113
f 63 113 93
f 63 93 82
f 63 82 81
f 63 81 80
f 63 80 70
f 63 70 69
f 63 69 64
f 65 77 66
f 66 77 78
f 66 78 79
f 70 80 71
f 71 80 81
f 71 81 82
f 71 82 83
f 73 84 85
f 73 85 86
f 73 86 74
f 73 87 84
f 75 88 76
f 76 88 89
f 78 90 91
f 78 91 92
f 78 92 79
f 82 93 94
f 82 94 83
f 84 95 85
f 84 87 96
f 84 96 95
f 87 97 98
f 87 98 99
f 87 99 100
f 87 100 96
f 88 101 89
f 88 95 96
f 88 96 102
f 88 102 101
f 89 101 102
f 89 102 103
f 89 103 104
f 89 104 105
f 89 105 106
f 90 107 91
f 90 108 109
f 90 109 110
f 90 110 111
f 90 111 107
f 91 107 111
f 91 111 112
f 93 113 114
f 93 114 94
f 96 100 99
f 96 99 115
f 96 115 120
f 96 120 102
f 97 116 117
f 97 117 98
f 98 117 99
f 99 117 118
f 99 118 138
f 99 138 119
f 99 119 120
f 99 120 115
f 102 120 103
f 103 120 119
f 103 119 104
f 104 119 105
f 105 121 106
f 105 119 122
f 105 122 121
f 106 121 123
f 108 124 125
f 108 125 109
f 109 126 110
f 109 125 126
f 110 126 127
f 110 127 128
f 110 128 111
f 111 128 129
f 111 129 148
f 111 148 130
f 111 130 113
f 111 113 112
f 113 131 114
f 113 130 131
f 114 131 132
f 116 133 134
f 116 134 135
f 116 135 117
f 117 135 136
f 117 136 118
f 118 136 137
f 118 137 138
f 119 138 122
f 121 122 123
f 122 138 137
f 122 137 139
f 122 139 140
f 122 140 141
f 122 141 142
f 122 142 123
f 124 141 140
f 124 140 143
f 124 143 125
f 125 128 127
f 125 127 126
f 125 143 140
f 125 140 144
f 125 144 137
f 125 137 145
f 125 145 146
f 125 146 128
f 128 146 157
f 128 157 147
f 128 147 148
f 128 148 129
f 130 148 149
f 130 149 150
f 130 150 151
f 130 151 132
f 130 132 131
f 132 151 150
f 132 150 152
f 132 152 153
f 133 154 155
f 133 155 134
f 134 155 136
f 134 136 135
f 136 155 156
f 136 156 145
f 136 145 137
f 137 144 139
f 139 144 140
f 145 156 157
f 145 157 146
f 147 157 155
f 147 155 152
f 147 152 148
f 148 152 149
f 149 152 150
f 152 155 158
f 152 158 153
f 154 159 155
f 155 157 156
f 155 159 158

