# https://github.com/mikedh/trimesh
v 10.71553832 1.50024046 10.45828000
v 10.80670655 1.08398450 10.56630531
v 10.84450150 1.21416494 10.41375228
v 10.82344026 1.33992566 10.36711704
v 10.82344026 1.33992566 10.34432630
v 10.71525013 1.50024046 10.39649480
v 10.62465895 1.50024046 10.58791038
v 10.82776779 0.93672786 10.57987447
v 10.86787028 1.00362621 10.48054370
v 11.04299462 0.03992928 10.36487761
v 11.07501845 0.06544302 9.97559071
v 11.07501845 0.06544302 9.85122960
v 11.00491081 0.12751982 9.78667794
v 10.86383095 0.24584742 9.66363427
v 10.69620888 1.50024046 10.28306782
v 10.63302581 1.43494939 10.59159900
v 10.47665452 1.50024046 10.59291660
v 10.83728874 0.77259604 10.58632958
v 10.90826162 0.77259604 10.46223215
v 11.04299462 -0.03962546 10.36487761
v 10.98269613 0.11225175 10.44800435
v 11.07501845 -0.06513920 9.97559071
v 11.07501845 -0.06513920 9.85122960
v 10.89325905 0.11044367 9.65032878
v 9.99773283 1.50024046 9.63623273
v 10.07562962 1.50024046 9.70592223
v 10.42905107 0.25187430 9.44389486
v 9.46428378 1.43494939 9.26262284
v 9.44177959 1.50024046 9.26907796
v 9.54275761 1.50024046 9.32335412
v 9.60680593 1.50024046 9.35786971
v 9.75163627 1.50024046 9.44231389
v 9.81424229 1.50024046 9.48908105
v 9.85723002 1.50024046 9.52346472
v 10.66851192 1.21416494 10.59476092
v 10.34826905 1.50024046 10.58250903
v 10.46511423 1.41325254 10.59291660
v 10.50954491 1.21416494 10.59476092
v 10.70774917 0.77259604 10.59818602
v 10.84565494 0.55181164 10.59067684
v 10.98269613 -0.11214882 10.44800435
v 10.84565494 -0.55211048 10.59067684
v 10.92614877 -0.55211048 10.46223215
v 10.86238866 0.11044367 10.59528796
v 10.89845182 -0.55211048 10.27529545
v 11.00491081 -0.12741689 9.78667794
v 10.89325905 -0.11034074 9.65032878
v 10.45357394 0.11044367 9.43190647
v 10.06120475 0.16769897 9.25300599
v 9.44466482 1.43494939 9.25300599
v 9.43774091 1.44861035 9.25300599
v 9.41869901 1.48517324 9.25300599
v 9.41062100 1.50024046 9.25300599
v 10.25190806 1.50024046 10.54628105
v 10.57705485 -0.55211048 10.58066471
v 10.70774917 -0.55211048 10.59858115
v 10.70774917 0.55181164 10.59871306
v 10.85344475 0.33122812 10.59317980
v 10.86238866 -0.11034074 10.59528796
v 10.85344475 -0.33112519 10.59317980
v 10.86383095 -0.24574446 9.66363427
v 10.35432772 -0.55211048 9.71264102
v 10.42905107 -0.25157045 9.44389486
v 10.45357394 -0.11034074 9.43190647
v 10.07822666 0.11044367 9.25300599
v 8.12763016 1.50024046 9.25300599
v 10.46655718 -0.55211048 10.53323891
v 10.03321960 1.50024046 10.43759709
v 10.24382939 -0.55211048 9.61871159
v 9.99917578 -0.55211048 9.41293630
v 9.82347505 -0.55211048 9.28686263
v 9.76635065 -0.55211048 9.25300599
v 9.99657873 -0.27648153 9.25300599
v 10.07793781 -0.11034074 9.25300599
v 9.91377737 1.50024046 10.36619488
v 8.63886454 -0.49646242 9.25300599
v 8.62011148 -0.55211048 9.25366464
v 10.15554641 -0.55211048 10.35196707
v 10.24527234 -0.55211048 10.40980013
v 10.24642578 -0.55110600 10.41059069
v 8.76927001 -0.55211048 9.25300599
f 1 2 3
f 1 3 4
f 1 4 5
f 1 5 6
f 1 6 15
f 1 15 26
f 1 26 25
f 1 25 34
f 1 34 33
f 1 33 32
f 1 32 31
f 1 31 30
f 1 30 29
f 1 29 53
f 1 53 66
f 1 66 75
f 1 75 68
f 1 68 54
f 1 54 36
f 1 36 17
f 1 17 7
f 1 7 2
f 2 8 9
f 2 9 3
f 2 7 8
f 3 9 10
f 3 10 11
f 3 11 4
f 4 11 12
f 4 12 5
f 5 12 13
f 5 13 14
f 5 14 15
f 5 15 6
f 7 16 8
f 7 17 16
f 8 18 10
f 8 10 19
f 8 19 9
f 8 16 18
f 9 19 10
f 10 20 22
f 10 22 11
f 10 18 21
f 10 21 41
f 10 41 20
f 11 22 23
f 11 23 12
f 12 23 47
f 12 47 24
f 12 24 13
f 13 24 14
f 14 25 26
f 14 26 15
f 14 24 27
f 14 27 28
f 14 28 29
f 14 29 30
f 14 30 31
f 14 31 32
f 14 32 33
f 14 33 34
f 14 34 25
f 16 35 18
f 16 17 35
f 17 36 37
f 17 37 38
f 17 38 39
f 17 39 35
f 18 40 21
f 18 35 40
f 20 41 42
f 20 42 43
f 20 43 22
f 21 40 44
f 21 44 59
f 21 59 41
f 22 43 23
f 23 43 45
f 23 45 46
f 23 46 47
f 24 47 64
f 24 64 48
f 24 48 27
f 27 48 49
f 27 49 50
f 27 50 28
f 28 50 51
f 28 51 52
f 28 52 53
f 28 53 29
f 35 39 40
f 36 54 55
f 36 55 56
f 36 56 37
f 37 56 38
f 38 56 57
f 38 57 39
f 39 57 44
f 39 44 58
f 39 58 40
f 40 58 44
f 41 59 42
f 42 59 60
f 42 60 56
f 42 56 55
f 42 55 67
f 42 67 79
f 42 79 78
f 42 78 77
f 42 77 81
f 42 81 72
f 42 72 71
f 42 71 70
f 42 70 69
f 42 69 62
f 42 62 45
f 42 45 43
f 44 57 59
f 45 61 46
f 45 62 61
f 46 61 47
f 47 61 63
f 47 63 64
f 48 64 65
f 48 65 49
f 49 65 74
f 49 74 73
f 49 73 72
f 49 72 81
f 49 81 76
f 49 76 66
f 49 66 53
f 49 53 52
f 49 52 51
f 49 51 50
f 54 67 55
f 54 68 67
f 56 60 59
f 56 59 57
f 61 62 69
f 61 69 70
f 61 70 71
f 61 71 72
f 61 72 63
f 63 73 74
f 63 74 64
f 63 72 73
f 64 74 65
f 66 76 77
f 66 77 78
f 66 78 79
f 66 79 75
f 67 68 80
f 67 80 79
f 68 75 80
f 75 79 80
f 76 81 77

