# https://github.com/mikedh/trimesh
v 10.09306803 2.82032304 1.51397085
v 10.08651851 2.82032304 1.57055112
v 10.07827075 1.04286708 1.63109239
v 10.08384975 1.04286708 1.58193941
v 10.09136979 1.04286708 1.51397085
v 9.56618955 2.82032304 1.51397085
v 10.07827075 2.82032304 1.63109239
v 9.98512135 1.04286708 1.76203215
v 9.62707694 1.04286708 1.51397085
v 9.61203686 1.21078137 1.51397085
v 7.61610891 2.82032304 1.53845754
v 9.98512135 2.82032304 1.76203215
v 9.26878973 1.04286708 1.97376872
v 9.51403552 1.04286708 1.52333324
v 7.61489626 2.75959555 1.54633486
v 7.61489626 2.76081347 1.54619932
v 7.61489626 2.82032304 1.61146686
v 9.82453505 2.82032304 1.78264794
v 8.92918122 1.79769852 1.97376872
v 9.09461880 1.45630179 1.97376872
v 9.13998117 1.35276907 1.97376872
v 8.93160719 1.04286708 1.97376872
v 9.48832237 1.04286708 1.52778973
v 7.61489626 2.52521134 1.64905192
v 9.38304379 1.04286708 1.56033336
v 7.61489626 2.82032304 1.82657921
v 7.67772402 2.82032304 1.82590411
v 7.61489626 2.58071875 1.97376872
v 7.61829209 2.57950083 1.97376872
v 7.76480882 2.52381938 1.97376872
v 7.85626064 2.47701209 1.97376872
v 8.62765719 2.07384365 1.97376872
v 8.73342135 2.00859206 1.97376872
v 8.79794670 1.95743471 1.97376872
v 8.86392749 1.89079100 1.97376872
v 8.89788841 1.84781182 1.97376872
v 7.61610891 2.25985458 1.97376872
v 7.61489626 2.26055056 1.97345356
v 7.61489626 2.34807490 1.84408933
v 7.61489626 2.42376680 1.73507015
v 8.99443429 1.04286708 1.89733824
v 7.61489626 2.52294937 1.65022247
v 9.33040418 1.04286708 1.58603533
v 7.61489626 2.56592838 1.97376872
v 7.61489626 2.51999126 1.65269779
v 9.19577382 1.04286708 1.66912751
v 9.16060025 1.04286708 1.70261600
v 9.08806928 1.04286708 1.78440343
v 9.06648034 1.04286708 1.81041991
f 1 2 3
f 1 3 4
f 1 4 5
f 1 5 9
f 1 9 10
f 1 10 6
f 1 6 11
f 1 11 17
f 1 17 26
f 1 26 27
f 1 27 18
f 1 18 12
f 1 12 7
f 1 7 2
f 2 7 3
f 3 7 12
f 3 12 8
f 3 8 13
f 3 13 22
f 3 22 41
f 3 41 49
f 3 49 48
f 3 48 47
f 3 47 46
f 3 46 43
f 3 43 25
f 3 25 23
f 3 23 14
f 3 14 9
f 3 9 5
f 3 5 4
f 6 10 11
f 8 12 13
f 9 14 11
f 9 11 10
f 11 15 16
f 11 16 17
f 11 14 15
f 12 18 19
f 12 19 20
f 12 20 21
f 12 21 13
f 13 21 20
f 13 20 19
f 13 19 36
f 13 36 35
f 13 35 34
f 13 34 33
f 13 33 32
f 13 32 31
f 13 31 30
f 13 30 29
f 13 29 28
f 13 28 44
f 13 44 37
f 13 37 22
f 14 23 15
f 15 24 42
f 15 42 45
f 15 45 40
f 15 40 39
f 15 39 38
f 15 38 44
f 15 44 28
f 15 28 26
f 15 26 17
f 15 17 16
f 15 23 25
f 15 25 24
f 18 27 28
f 18 28 29
f 18 29 30
f 18 30 31
f 18 31 32
f 18 32 33
f 18 33 34
f 18 34 35
f 18 35 36
f 18 36 19
f 22 37 38
f 22 38 39
f 22 39 40
f 22 40 41
f 24 25 42
f 25 43 42
f 26 28 27
f 37 44 38
f 40 45 46
f 40 46 47
f 40 47 48
f 40 48 49
f 40 49 41
f 42 43 46
f 42 46 45

