# https://github.com/mikedh/trimesh
v -8.63207551 -0.57000273 9.23492195
v -7.55016628 -1.99135927 9.23492195
v -9.76730603 -0.57000273 9.23492195
v -10.17018314 -0.57000273 10.34127031
v -9.12085965 -1.99135927 9.23492195
v -10.27913127 -0.57000273 10.41281794
v -9.68962703 -1.99135927 10.36661567
v -9.63992595 -1.21431578 9.28878064
v -9.82457782 -0.99351579 9.35438803
v -9.96676966 -0.99351579 9.44520867
v -9.85848018 -0.57000273 9.29472102
v -9.54151074 -1.21431578 9.23492195
v -9.14291247 -1.99135927 9.24548251
v -9.23277000 -1.92374192 9.26752758
v -9.18932234 -1.88548094 9.23492195
v -10.48846919 -0.57000273 10.52159138
v -9.82293221 -1.99135927 10.43446708
v -9.77915557 -1.43497670 9.42250346
v -9.50464617 -1.35219408 9.24191824
v -9.58857860 -1.42941151 9.30541351
v -9.94340023 -1.12791577 9.46236957
v -10.07736339 -0.99351579 9.53088097
v -10.10567030 -0.77285496 9.50896796
v -9.99540556 -0.77285496 9.42395547
v -10.01877499 -0.57000273 9.40587059
v -9.51748268 -1.28012452 9.23492195
v -9.20610935 -1.99135927 9.27663599
v -9.36475856 -1.86071578 9.31597408
v -9.42729681 -1.65577661 9.28046428
v -9.27917987 -1.77654187 9.24495447
v -9.29958708 -1.71128962 9.23492195
v -10.50328095 -0.57000273 10.52700358
v -10.04642392 -1.99135927 10.52885185
v -9.74459523 -1.60429832 9.44639666
v -9.88974930 -1.43497670 9.50447956
v -9.91772656 -1.27511582 9.48256657
v -9.48390997 -1.36638537 9.23492195
v -9.43848772 -1.46962010 9.23492195
v -9.47271906 -1.49939413 9.25828710
v -9.62083535 -1.66899408 9.39293407
v -10.17939945 -1.17132444 9.66777197
v -10.20869333 -0.99351579 9.64137057
v -10.25609083 -0.57000273 9.59952444
v -10.12903973 -0.57000273 9.49114694
v -9.25482281 -1.99135927 9.30277337
v -9.37825371 -1.99135927 9.36917280
v -9.46778159 -1.99135927 9.41920320
v -9.55632250 -1.87657668 9.42870772
v -9.33447707 -1.65577661 9.23492195
v -10.62671119 -0.57000273 10.56951000
v -10.17149976 -1.99135927 10.57043379
v -9.70575541 -1.75149837 9.47477807
v -9.82062797 -1.66899408 9.52837290
v -9.98059380 -1.65577661 9.64915906
v -10.02206686 -1.43497670 9.61483724
v -9.35850448 -1.61403756 9.23492195
v -10.15339679 -1.31838532 9.69192916
v -10.54310775 -1.65577661 10.16992558
v -10.84756966 -1.21431578 10.31209685
v -10.76495319 -0.99351579 10.17005749
v -10.36536794 -0.57000273 9.70130173
v -10.27221920 -0.57000273 9.61351717
v -9.52044555 -1.99135927 9.45101698
v -10.73565931 -0.57000273 10.57914643
v -10.55331102 -1.21431578 10.58337064
v -10.31369160 -1.87657668 10.58284261
v -10.27978925 -1.99135927 10.58125854
v -9.66691623 -1.87657668 9.50223552
v -9.95129992 -1.79309842 9.67529628
v -9.54052312 -1.99135927 9.46448169
v -10.62144473 -1.87657668 10.31896122
v -10.65962592 -1.65577661 10.28041518
v -10.82518720 -1.34468104 10.34061003
v -10.84756966 -1.21431578 10.40687772
v -10.87686353 -0.99351579 10.28041518
v -10.89266292 -0.77285496 10.26787443
v -10.90154958 -0.57000273 10.26087814
v -10.82880805 -0.57000273 10.57914643
v -10.63428189 -1.21431578 10.58337064
v -10.40947357 -1.87657668 10.58284261
v -10.39367485 -1.99135927 10.57954253
v -9.63992595 -1.99135927 9.53616124
v -9.71990919 -1.99135927 9.59530021
v -9.82852767 -1.87059401 9.61945757
v -9.78277643 -1.99135927 9.64216261
v -9.84070619 -1.99135927 9.69021315
v -10.60103751 -1.99135927 10.34589031
v -10.82518720 -1.34468104 10.36780364
v -10.81860412 -0.88582885 10.57294202
v -10.86534364 -0.97306359 10.47459688
v -10.89727074 -0.77285496 10.46218839
v -10.62144473 -1.87657668 10.39737320
v -10.64975163 -1.64255929 10.47182482
v -10.60169615 -1.56019400 10.57545022
v -10.91175286 -0.57000273 10.44634755
v -10.91208250 -0.57000273 10.46218839
v -10.82255396 -0.77285496 10.57558216
v -10.61387468 -1.43497670 10.58046633
v -10.51973831 -1.87657668 10.50773072
v -10.49340600 -1.99135927 10.47842534
v -10.60103751 -1.99135927 10.36027932
v -10.59939191 -1.99135927 10.36212726
f 1 2 5
f 1 5 15
f 1 15 31
f 1 31 49
f 1 49 56
f 1 56 38
f 1 38 37
f 1 37 26
f 1 26 12
f 1 12 3
f 1 3 11
f 1 11 25
f 1 25 44
f 1 44 43
f 1 43 62
f 1 62 61
f 1 61 77
f 1 77 95
f 1 95 96
f 1 96 78
f 1 78 64
f 1 64 50
f 1 50 32
f 1 32 16
f 1 16 6
f 1 6 4
f 1 4 2
f 2 4 6
f 2 6 7
f 2 7 17
f 2 17 33
f 2 33 51
f 2 51 67
f 2 67 81
f 2 81 100
f 2 100 102
f 2 102 101
f 2 101 87
f 2 87 86
f 2 86 85
f 2 85 83
f 2 83 82
f 2 82 70
f 2 70 63
f 2 63 47
f 2 47 46
f 2 46 45
f 2 45 27
f 2 27 13
f 2 13 5
f 3 8 9
f 3 9 10
f 3 10 11
f 3 12 8
f 5 13 14
f 5 14 15
f 6 16 7
f 7 16 17
f 8 18 9
f 8 12 19
f 8 19 20
f 8 20 18
f 9 18 10
f 10 21 22
f 10 22 23
f 10 23 24
f 10 24 11
f 10 18 21
f 11 24 25
f 12 26 19
f 13 27 14
f 14 27 28
f 14 28 29
f 14 29 30
f 14 30 15
f 15 30 31
f 16 32 33
f 16 33 17
f 18 20 34
f 18 34 35
f 18 35 36
f 18 36 21
f 19 26 37
f 19 37 38
f 19 38 39
f 19 39 20
f 20 39 40
f 20 40 34
f 21 36 22
f 22 41 42
f 22 42 23
f 22 36 35
f 22 35 41
f 23 42 43
f 23 43 44
f 23 44 25
f 23 25 24
f 27 45 28
f 28 46 47
f 28 47 48
f 28 48 40
f 28 40 29
f 28 45 46
f 29 49 30
f 29 40 39
f 29 39 49
f 30 49 31
f 32 50 33
f 33 50 51
f 34 52 53
f 34 53 54
f 34 54 35
f 34 40 52
f 35 54 55
f 35 55 41
f 38 56 39
f 39 56 49
f 40 48 52
f 41 55 57
f 41 57 58
f 41 58 59
f 41 59 42
f 42 59 60
f 42 60 61
f 42 61 62
f 42 62 43
f 47 63 48
f 48 63 52
f 50 64 65
f 50 65 66
f 50 66 51
f 51 66 67
f 52 68 69
f 52 69 53
f 52 63 70
f 52 70 68
f 53 69 54
f 54 57 55
f 54 69 71
f 54 71 57
f 57 71 58
f 58 71 72
f 58 72 59
f 59 72 71
f 59 71 73
f 59 73 88
f 59 88 74
f 59 74 75
f 59 75 60
f 60 75 61
f 61 75 76
f 61 76 77
f 64 78 79
f 64 79 65
f 65 79 80
f 65 80 66
f 66 80 67
f 67 80 81
f 68 82 83
f 68 83 84
f 68 84 69
f 68 70 82
f 69 84 85
f 69 85 86
f 69 86 87
f 69 87 71
f 71 87 73
f 73 87 101
f 73 101 88
f 74 89 90
f 74 90 91
f 74 91 75
f 74 88 92
f 74 92 93
f 74 93 94
f 74 94 89
f 75 91 95
f 75 95 76
f 76 95 77
f 78 96 97
f 78 97 79
f 79 97 98
f 79 98 80
f 80 98 81
f 81 99 100
f 81 98 94
f 81 94 99
f 83 85 84
f 88 101 92
f 89 97 96
f 89 96 91
f 89 91 90
f 89 94 98
f 89 98 97
f 91 96 95
f 92 94 93
f 92 101 102
f 92 102 100
f 92 100 99
f 92 99 94

