# https://github.com/mikedh/trimesh
v -6.51307856 -0.91560189 6.09880742
v -6.29235958 -0.91262108 6.09880742
v -6.73379754 -0.91262108 6.09880742
v -6.64279907 -0.88799680 5.67985836
v -6.51307856 -0.88683045 5.68773814
v -6.18466227 -0.89382888 6.09880742
v -6.40223480 -0.88320162 5.71400465
v -6.51307856 -0.71951542 4.18211065
v -6.90018392 -0.86363185 6.09880742
v -6.74045299 -0.72573628 4.18211065
v -6.14727065 -0.86389101 6.09880742
v -6.36205993 -0.68789271 4.18211065
v -6.23766378 -0.61764895 4.18211065
v -6.94907109 -0.77848388 6.09880742
v -7.04732969 -0.63838515 5.60499911
v -6.91688276 -0.56788215 4.18211065
v -6.01755014 -0.57125174 5.60499911
v -6.12343208 -0.82514034 6.09880742
v -6.12778856 -0.49569431 4.18211065
v -6.97762868 0.17304733 6.09880742
v -7.11824072 -0.33110092 5.78492391
v -7.09730581 -0.50852482 5.76634983
v -7.10819667 -0.52796496 5.60499911
v -6.96262413 -0.50424800 4.18211065
v -6.93951131 -0.53949950 4.18211065
v -5.95208454 -0.46083164 5.60499911
v -6.11399338 -0.77900229 6.09880742
v -5.95014811 -0.46497888 5.73201584
v -6.04138871 -0.33110092 4.18211065
v -6.93818022 0.31249812 6.09880742
v -7.09186038 0.04551986 5.76916401
v -7.11412638 -0.11051986 5.78717534
v -7.16410250 -0.33110092 5.60499911
v -7.02409580 -0.33110092 4.18211065
v -5.92788277 -0.33110092 5.60499911
v -6.11145226 -0.59328396 6.09880742
v -5.93744254 -0.33110092 5.74552430
v -6.05312639 -0.21653356 4.18211065
v -5.93841043 -0.10105898 5.60293520
v -7.01526243 0.16604886 5.60499911
v -7.09827369 0.05575833 5.60499911
v -6.73379754 0.40645890 6.09880742
v -6.73161897 0.18445224 4.18211065
v -6.91990815 0.07571691 4.18211065
v -7.15405911 -0.11051986 5.60499911
v -7.01477816 -0.11051986 4.18211065
v -5.94131474 -0.11051986 5.74102160
v -6.10286038 0.11057960 6.09880742
v -6.07527067 -0.11051986 4.18211065
v -5.95547247 0.01000915 5.67516779
v -5.95547247 0.01000915 5.72601210
v -6.61412041 0.40775496 6.09880742
v -6.51307856 0.36744899 5.60499911
v -6.51307856 0.20142998 4.18211065
v -6.12270567 0.31081328 6.09880742
v -6.14315631 0.08751060 4.18211065
v -6.51307856 0.40840290 6.09880742
v -6.29235958 0.40438528 6.09880742
v -6.33410702 0.16527125 4.18211065
v -6.20148218 0.36058010 6.09880742
f 1 2 6
f 1 6 11
f 1 11 18
f 1 18 27
f 1 27 36
f 1 36 48
f 1 48 55
f 1 55 60
f 1 60 58
f 1 58 57
f 1 57 52
f 1 52 42
f 1 42 30
f 1 30 20
f 1 20 14
f 1 14 9
f 1 9 3
f 1 3 4
f 1 4 5
f 1 5 2
f 2 5 7
f 2 7 8
f 2 8 6
f 3 9 10
f 3 10 4
f 4 10 5
f 5 10 8
f 5 8 7
f 6 8 12
f 6 12 13
f 6 13 11
f 8 10 16
f 8 16 25
f 8 25 24
f 8 24 34
f 8 34 46
f 8 46 44
f 8 44 43
f 8 43 54
f 8 54 59
f 8 59 56
f 8 56 49
f 8 49 38
f 8 38 29
f 8 29 19
f 8 19 13
f 8 13 12
f 9 14 15
f 9 15 16
f 9 16 10
f 11 17 18
f 11 13 19
f 11 19 17
f 14 20 21
f 14 21 22
f 14 22 23
f 14 23 15
f 15 23 24
f 15 24 25
f 15 25 16
f 17 26 18
f 17 19 26
f 18 26 28
f 18 28 27
f 19 29 26
f 20 30 31
f 20 31 32
f 20 32 21
f 21 32 33
f 21 33 22
f 22 33 23
f 23 33 34
f 23 34 24
f 26 35 28
f 26 29 35
f 27 28 37
f 27 37 36
f 28 35 37
f 29 38 39
f 29 39 35
f 30 40 41
f 30 41 31
f 30 42 43
f 30 43 44
f 30 44 40
f 31 41 45
f 31 45 32
f 32 45 33
f 33 45 46
f 33 46 34
f 35 39 47
f 35 47 37
f 36 37 48
f 37 47 48
f 38 49 39
f 39 50 51
f 39 51 47
f 39 49 50
f 40 44 41
f 41 44 46
f 41 46 45
f 42 52 53
f 42 53 43
f 43 53 54
f 47 51 55
f 47 55 48
f 49 56 50
f 50 55 51
f 50 56 55
f 52 57 53
f 53 57 58
f 53 58 54
f 54 58 59
f 55 56 60
f 56 59 58
f 56 58 60

