# https://github.com/mikedh/trimesh
v 6.51319239 0.83972477 4.10031073
v 6.35929905 0.83972477 4.09843745
v 6.73369160 0.83972477 4.09968630
v 5.85951219 1.65587333 4.07304277
v 6.29236748 0.83972477 4.09760478
v 6.80078570 0.83972477 4.09885364
v 6.07154322 1.65587333 4.06658998
v 5.85951219 1.84591504 4.01163723
v 5.85951219 0.83972477 4.07658137
v 6.07154322 0.83972477 4.08907048
v 7.02144744 0.83972477 4.09489885
v 6.51319239 1.43510484 4.07283452
v 6.29236748 1.65587333 4.04515006
v 6.07154322 1.82255449 4.00497650
v 6.73369160 1.43510484 4.06221868
v 5.85951219 1.95640448 3.89756904
v 5.85951219 0.83972477 3.83803710
v 7.24227235 0.83972477 4.08157709
v 7.39600251 0.99356810 4.06992032
v 6.95451586 1.21433651 4.07449986
v 6.73369160 1.61146700 3.99977256
v 6.51547229 1.67081570 4.00684977
v 6.29236748 1.79519507 3.98312042
v 6.95891313 1.44646945 4.01600852
v 7.17534077 1.21433651 4.05368437
v 6.44332952 1.77646455 3.96251319
v 5.85951219 2.01954132 3.78787214
v 7.52302531 0.83972477 3.77309328
v 5.85951219 2.71004761 1.97464614
v 7.52302531 2.29734325 1.97381348
v 7.39600251 0.83972477 4.07158567
v 7.52302531 0.83972477 4.03869727
v 7.52302531 0.98262435 4.02912236
v 7.52302531 1.11921038 4.00143789
v 7.38655722 1.21770380 4.00497650
v 6.88823634 1.57169087 3.97562671
v 6.59054635 1.75436667 3.93441224
v 7.17534077 1.37596669 3.99165442
v 7.39942268 2.66900865 1.97381348
v 6.50765550 2.88283201 1.97381348
v 6.17983797 2.95901707 1.97381348
v 5.85951219 2.25083254 3.36573665
v 5.85951219 2.73046189 1.97381348
v 7.52302531 2.61113316 1.97381348
v 7.52302531 1.15835518 3.98957322
v 7.03545251 1.52770548 3.92504525
v 6.94458235 1.64998047 3.83054370
v 6.85371154 1.77204508 3.73625009
v 6.73369160 1.72174605 3.88882681
v 7.30659767 1.33724283 3.96292937
v 6.73369160 1.79477429 3.77850547
v 7.52302531 2.43919064 2.25544516
v 7.52302531 2.45434340 2.23109140
v 7.52302531 2.60355687 1.98671907
v 6.06291185 2.97564321 1.97381348
v 5.85951219 2.47223220 2.95858825
v 5.85951219 2.98974369 1.97381348
v 7.52302531 1.26421459 3.87779447
v 7.45381450 1.29367839 3.90651985
v 7.52302531 1.33345460 3.79703088
v 7.52302531 1.41090240 3.69045641
v 7.52302531 1.58516002 3.44899826
v 7.52302531 1.62767220 3.39009073
v 7.52302531 1.87558939 3.04622084
v 7.52302531 2.00249441 2.86887384
v 7.29291829 1.99112980 3.07203202
v 7.52302531 2.20895170 2.57933226
v 5.97513551 2.98279873 1.97381348
f 1 2 5
f 1 5 10
f 1 10 9
f 1 9 17
f 1 17 28
f 1 28 32
f 1 32 31
f 1 31 18
f 1 18 11
f 1 11 6
f 1 6 3
f 1 3 4
f 1 4 2
f 2 4 5
f 3 6 4
f 4 7 8
f 4 8 16
f 4 16 27
f 4 27 42
f 4 42 56
f 4 56 57
f 4 57 43
f 4 43 29
f 4 29 17
f 4 17 9
f 4 9 10
f 4 10 5
f 4 6 11
f 4 11 12
f 4 12 7
f 7 13 14
f 7 14 8
f 7 12 15
f 7 15 13
f 8 14 16
f 11 18 19
f 11 19 20
f 11 20 12
f 12 20 15
f 13 15 21
f 13 21 22
f 13 22 14
f 14 22 23
f 14 23 16
f 15 24 21
f 15 20 19
f 15 19 25
f 15 25 24
f 16 23 26
f 16 26 27
f 17 29 30
f 17 30 28
f 18 31 19
f 19 31 32
f 19 32 33
f 19 33 34
f 19 34 35
f 19 35 25
f 21 36 37
f 21 37 26
f 21 26 23
f 21 23 22
f 21 24 38
f 21 38 36
f 24 25 35
f 24 35 38
f 26 37 39
f 26 39 27
f 27 39 40
f 27 40 41
f 27 41 42
f 28 30 44
f 28 44 54
f 28 54 53
f 28 53 52
f 28 52 67
f 28 67 65
f 28 65 64
f 28 64 63
f 28 63 62
f 28 62 61
f 28 61 60
f 28 60 58
f 28 58 45
f 28 45 34
f 28 34 33
f 28 33 32
f 29 43 30
f 30 43 57
f 30 57 68
f 30 68 55
f 30 55 41
f 30 41 40
f 30 40 39
f 30 39 44
f 34 45 35
f 35 45 38
f 36 46 47
f 36 47 48
f 36 48 49
f 36 49 37
f 36 38 50
f 36 50 46
f 37 49 48
f 37 48 51
f 37 51 39
f 38 45 50
f 39 52 53
f 39 53 54
f 39 54 44
f 39 51 52
f 41 55 56
f 41 56 42
f 45 58 59
f 45 59 50
f 46 50 59
f 46 59 60
f 46 60 47
f 47 60 61
f 47 61 48
f 48 61 62
f 48 62 63
f 48 63 64
f 48 64 65
f 48 65 66
f 48 66 67
f 48 67 52
f 48 52 51
f 55 68 56
f 56 68 57
f 58 60 59
f 65 67 66

