# https://github.com/mikedh/trimesh
v 9.41032491 1.50024029 9.25280169
v 9.41821013 1.48520318 9.25280169
v 8.62971205 0.45174734 8.57607612
v 9.33685105 1.50024029 9.21631020
v 8.12794073 1.50024029 9.25280169
v 9.44437400 1.43496584 9.25280169
v 8.93256718 1.50024029 9.07382637
v 9.09707635 1.50024029 9.12344899
v 9.16696554 1.50024029 9.14840547
v 9.30495290 1.50024029 9.20354178
v 9.97983581 0.25797431 9.22653946
v 10.06119422 0.16741024 9.25280169
v 10.07839774 0.11033778 9.25280169
v 8.64512323 0.33110911 8.56889387
v 8.49996785 0.33110911 8.53392584
v 7.00433078 1.50024029 8.51172629
v 6.41689983 1.50024029 9.19614199
v 7.52832336 -1.99109114 9.25280169
v 10.07803980 -0.04208331 9.25280169
v 10.00205707 0.11033778 9.21580239
v 8.65049958 0.11033778 8.56649982
v 8.49996785 0.11033778 8.52921026
v 9.55153768 0.11033778 8.99931982
v 8.76088933 0.11033778 8.61945970
v 8.27918899 0.33110911 8.51578898
v 6.41689983 1.50024029 8.51172629
v 8.27918899 0.13938663 8.51172629
v 6.41689983 1.33893375 9.19693996
v 9.11033725 -1.99109114 9.25280169
v 6.41689983 0.89704927 9.19904384
v 6.41689983 0.77265181 9.19962417
v 6.41689983 0.55188044 9.20063993
v 6.41689983 0.45550653 9.20107518
v 6.41689983 0.23473524 9.20201824
v 6.41689983 0.11033778 9.20245366
v 6.41689983 -0.11043357 9.20245366
v 6.41689983 -1.99109114 9.19585166
v 10.07768120 -0.11043357 9.25280169
v 10.00169847 -0.11043357 9.21609256
v 9.38308591 -0.11043357 8.91850160
v 9.21140806 -0.11043357 8.83594221
v 8.65049958 -0.11043357 8.56649982
v 8.49996785 -0.11043357 8.52921026
v 8.28671496 0.11033778 8.51172629
v 8.76088933 -0.11043357 8.61945970
v 6.41689983 -1.99109114 8.51172629
v 9.07700537 -1.99109114 9.23589805
v 9.18488625 -1.87660415 9.25280169
v 9.44437400 -1.43506158 9.25280169
v 9.97947721 -0.25772839 9.22690217
v 8.62971205 -0.45184315 8.57607612
v 8.64512323 -0.33086317 8.56889387
v 8.49996785 -0.33086317 8.53392584
v 8.27918899 -0.33086317 8.51578898
v 8.27918899 -0.13982419 8.51172629
v 8.28671496 -0.11043357 8.51172629
v 6.99537042 -1.99109114 8.51172629
v 9.11392126 -1.87660415 9.21884934
v 9.30961205 -1.60457023 9.22980402
v 9.26409439 -1.75220669 9.25280169
v 9.04976636 -1.99109114 9.22523353
v 9.34007712 -1.63088527 9.25280169
v 8.94009314 -1.99109114 9.18359121
f 1 2 3
f 1 3 4
f 1 4 10
f 1 10 9
f 1 9 8
f 1 8 7
f 1 7 16
f 1 16 26
f 1 26 17
f 1 17 5
f 1 5 18
f 1 18 29
f 1 29 48
f 1 48 60
f 1 60 62
f 1 62 49
f 1 49 38
f 1 38 19
f 1 19 13
f 1 13 12
f 1 12 6
f 1 6 2
f 2 6 3
f 3 7 8
f 3 8 9
f 3 9 10
f 3 10 4
f 3 6 11
f 3 11 12
f 3 12 13
f 3 13 14
f 3 14 15
f 3 15 16
f 3 16 7
f 5 17 18
f 6 12 11
f 13 19 20
f 13 20 14
f 14 21 22
f 14 22 15
f 14 20 23
f 14 23 24
f 14 24 21
f 15 22 25
f 15 25 16
f 16 25 27
f 16 27 44
f 16 44 56
f 16 56 55
f 16 55 57
f 16 57 46
f 16 46 26
f 17 26 46
f 17 46 37
f 17 37 36
f 17 36 35
f 17 35 34
f 17 34 33
f 17 33 32
f 17 32 31
f 17 31 30
f 17 30 28
f 17 28 18
f 18 28 30
f 18 30 31
f 18 31 32
f 18 32 33
f 18 33 34
f 18 34 35
f 18 35 36
f 18 36 37
f 18 37 46
f 18 46 57
f 18 57 63
f 18 63 61
f 18 61 47
f 18 47 29
f 19 38 39
f 19 39 20
f 20 39 40
f 20 40 41
f 20 41 45
f 20 45 23
f 21 42 43
f 21 43 22
f 21 24 45
f 21 45 42
f 22 43 56
f 22 56 44
f 22 44 25
f 23 45 24
f 25 44 27
f 29 47 48
f 38 49 50
f 38 50 51
f 38 51 52
f 38 52 39
f 39 52 40
f 40 52 41
f 41 52 45
f 42 52 43
f 42 45 52
f 43 52 53
f 43 53 54
f 43 54 55
f 43 55 56
f 47 58 59
f 47 59 60
f 47 60 48
f 47 61 51
f 47 51 58
f 49 62 59
f 49 59 51
f 49 51 50
f 51 53 52
f 51 59 58
f 51 61 63
f 51 63 57
f 51 57 53
f 53 57 54
f 54 57 55
f 59 62 60

