# https://github.com/mikedh/trimesh
v 9.16228270 3.20130788 -0.12123800
v 9.16228270 3.36865393 -0.07299433
v 9.38302208 3.20130788 -0.12066555
v 9.82474626 2.98055206 -0.12123800
v 9.82474626 2.82032304 -0.12123800
v 8.94154399 3.20130788 -0.11685190
v 8.94154399 3.37123617 -0.07070588
v 9.38302208 3.36330061 -0.07223173
v 8.94154399 3.44398197 0.08565619
v 9.60376146 3.20130788 -0.11780531
v 9.82474626 3.20130788 -0.11303825
v 10.01033444 3.20130788 -0.06746467
v 10.01795449 2.98055206 -0.07299433
v 9.96485955 2.82032304 -0.08634208
v 9.76403061 2.82032304 -0.11570768
v 8.94154399 3.01034303 -0.07070588
v 8.77488323 3.03887431 -0.05392544
v 8.74661448 3.20130788 -0.06860890
v 8.77488323 3.35145963 -0.05392544
v 9.60376146 3.35687611 -0.06956165
v 8.72105003 3.45960173 0.30646993
v 8.94154399 3.45487777 0.30646993
v 9.16228270 3.43547891 0.08565619
v 8.70925116 3.39586267 0.06982918
v 7.61514168 3.46369567 0.74809738
v 9.82474626 3.34931823 -0.06479460
v 9.98009966 3.33420216 -0.04954002
v 10.09415633 3.20130788 0.08565619
v 10.11332983 2.98055206 0.08565619
v 10.08727387 2.82032304 0.04217959
v 10.01795449 2.82032304 -0.07299433
v 9.53075542 2.82032304 -0.06612963
v 7.61514168 2.99938407 0.56408573
v 7.61514168 3.20130788 0.49086255
v 7.61514168 3.20300843 0.49143499
v 7.61514168 3.38836763 0.56446735
v 8.50031066 3.45764918 0.52728366
v 8.72105003 3.44776074 0.74809738
v 9.16228270 3.43976202 0.74809738
v 7.61710838 3.46375851 0.74809738
v 7.83784710 3.46275081 0.74809738
v 9.38302208 3.42930674 0.96872030
v 9.16228270 3.44398197 0.52728366
v 9.16228270 3.44524134 0.30646993
v 9.38302208 3.42168570 0.08565619
v 7.61514168 3.38906048 0.56599254
v 7.61514168 3.46369567 0.75000421
v 9.60376146 3.40682163 0.08565619
v 9.82474626 3.39082419 0.08565619
v 10.00492651 3.34717684 0.08565619
v 10.10349765 3.20130788 0.30646993
v 10.12586630 2.98055206 0.30646993
v 10.12242507 2.82032304 0.24583192
v 10.11332983 2.82032304 0.08565619
v 7.61587928 2.82032304 1.53829765
v 7.61514168 2.90383864 0.74809738
v 8.27932585 3.45557062 0.74809738
v 8.50031066 3.45172868 0.74809738
v 8.05858648 3.45922372 0.74809738
v 9.38302208 3.42389026 1.18934322
v 9.16228270 3.43384153 0.96872030
v 9.60376146 3.41381298 1.41015759
v 7.61710838 3.45594863 0.96872030
v 7.61710838 3.44026571 1.41015759
v 8.50031066 3.43270783 1.41015759
v 8.72105003 3.42949558 1.41015759
v 9.60376146 3.41841061 1.18934322
v 9.82474626 3.40713680 1.41015759
v 9.38302208 3.43251899 0.74809738
v 9.60376146 3.42004832 0.96872030
v 9.82474626 3.40713680 1.18934322
v 9.38302208 3.43232982 0.52728366
v 9.38302208 3.42987359 0.30646993
v 7.61514168 3.45594863 0.96872030
v 9.82474626 3.39611467 0.30646993
v 10.00812231 3.34969624 0.30646993
v 10.00984293 3.35114478 0.52728366
v 10.01131812 3.35259332 0.74809738
v 10.01377633 3.35555357 1.18934322
v 10.01500477 3.35700211 1.41015759
v 10.10521827 3.20130788 0.52728366
v 10.12586630 2.98055206 0.74809738
v 10.12611173 2.82032304 0.74809738
v 10.12586630 2.82032304 0.30646993
v 10.10669280 3.20130788 0.74809738
v 10.10693888 3.20130788 0.96872030
v 7.61514168 2.82032304 1.61133066
v 9.82474626 3.38156545 1.63097133
v 7.61514168 3.44026571 1.41015759
v 7.61514168 3.44001370 1.41225457
v 7.61710838 3.41267929 1.63097133
v 8.50031066 3.40159432 1.63097133
v 8.72105003 3.39850807 1.63097133
v 9.60376146 3.38515571 1.63097133
v 9.99730646 3.34560230 1.63097133
v 9.82474626 3.40486941 0.96872030
v 9.60376146 3.41885146 0.74809738
v 9.60376146 3.41595438 0.52728366
v 9.82474626 3.40197200 0.74809738
v 10.10497218 3.20130788 1.41015759
v 10.12365417 2.98055206 0.96872030
v 10.12389960 2.82032304 0.96872030
v 7.61514168 2.82032304 1.82661407
v 9.82474626 3.33420216 1.75968382
v 9.96436738 3.32620344 1.75339092
v 7.61514168 3.41267929 1.63097133
v 7.61514168 3.34585398 1.76197227
v 8.72105003 3.34050066 1.76197227
v 8.94154399 3.33942980 1.76178145
v 9.16228270 3.33829610 1.76139983
v 9.38302208 3.33703640 1.76101821
v 9.60376146 3.33565070 1.76044641
v 10.06908339 3.20130788 1.63097133
v 10.10865950 2.98055206 1.41015759
v 10.07817863 2.98055206 1.63097133
v 10.10448067 2.82032304 1.41015759
v 7.61514168 3.20130788 1.78256569
v 7.67757795 2.82032304 1.82585148
v 9.82474626 3.20130788 1.78027789
v 9.60376146 3.20130788 1.78104050
v 9.38302208 3.20130788 1.78161294
v 8.94154399 3.20130788 1.78237554
v 8.72105003 3.20130788 1.78256569
v 9.98206635 3.20130788 1.76063724
v 10.07817863 2.82032304 1.63097133
v 10.08653628 2.82032304 1.57033333
v 9.98501607 2.98055206 1.76197227
v 10.01058052 2.82032304 1.72612296
v 9.82474626 2.82032304 1.78256569
v 9.82474626 2.98055206 1.78256569
v 9.98501607 2.82032304 1.76197227
f 1 2 3
f 1 3 4
f 1 4 5
f 1 5 6
f 1 6 7
f 1 7 2
f 2 8 3
f 2 7 9
f 2 9 8
f 3 8 10
f 3 10 4
f 4 10 11
f 4 11 12
f 4 12 13
f 4 13 14
f 4 14 5
f 5 14 31
f 5 31 30
f 5 30 54
f 5 54 53
f 5 53 84
f 5 84 83
f 5 83 102
f 5 102 116
f 5 116 126
f 5 126 125
f 5 125 128
f 5 128 131
f 5 131 129
f 5 129 118
f 5 118 103
f 5 103 87
f 5 87 55
f 5 55 32
f 5 32 15
f 5 15 6
f 6 15 16
f 6 16 17
f 6 17 18
f 6 18 19
f 6 19 7
f 7 19 9
f 8 20 10
f 8 9 20
f 9 21 22
f 9 22 23
f 9 23 20
f 9 19 24
f 9 24 25
f 9 25 21
f 10 20 11
f 11 20 26
f 11 26 27
f 11 27 12
f 12 27 28
f 12 28 29
f 12 29 13
f 13 30 31
f 13 31 14
f 13 29 30
f 15 32 16
f 16 32 17
f 17 33 34
f 17 34 18
f 17 32 33
f 18 34 19
f 19 34 35
f 19 35 36
f 19 36 24
f 20 23 26
f 21 37 58
f 21 58 38
f 21 38 39
f 21 39 22
f 21 25 40
f 21 40 41
f 21 41 37
f 22 39 42
f 22 42 43
f 22 43 44
f 22 44 23
f 23 44 45
f 23 45 26
f 24 36 46
f 24 46 25
f 25 46 36
f 25 36 35
f 25 35 34
f 25 34 33
f 25 33 56
f 25 56 87
f 25 87 103
f 25 103 117
f 25 117 107
f 25 107 106
f 25 106 90
f 25 90 89
f 25 89 74
f 25 74 47
f 25 47 40
f 26 45 48
f 26 48 49
f 26 49 27
f 27 50 28
f 27 49 50
f 28 50 51
f 28 51 52
f 28 52 29
f 29 52 53
f 29 53 54
f 29 54 30
f 32 55 56
f 32 56 33
f 37 57 58
f 37 41 59
f 37 59 57
f 38 58 60
f 38 60 61
f 38 61 39
f 39 61 60
f 39 60 62
f 39 62 42
f 40 47 63
f 40 63 41
f 41 63 64
f 41 64 65
f 41 65 66
f 41 66 59
f 42 62 67
f 42 67 43
f 43 67 68
f 43 68 69
f 43 69 44
f 44 69 70
f 44 70 71
f 44 71 72
f 44 72 73
f 44 73 48
f 44 48 45
f 47 74 63
f 48 73 49
f 49 75 50
f 49 73 75
f 50 75 76
f 50 76 51
f 51 76 77
f 51 77 78
f 51 78 79
f 51 79 80
f 51 80 81
f 51 81 52
f 52 82 83
f 52 83 84
f 52 84 53
f 52 81 85
f 52 85 86
f 52 86 82
f 55 87 56
f 57 66 58
f 57 59 66
f 58 66 60
f 60 66 62
f 62 88 68
f 62 68 67
f 62 66 88
f 63 74 89
f 63 89 64
f 64 89 90
f 64 90 91
f 64 91 65
f 65 92 93
f 65 93 66
f 65 91 92
f 66 93 94
f 66 94 88
f 68 71 70
f 68 70 69
f 68 88 95
f 68 95 80
f 68 80 71
f 71 96 97
f 71 97 72
f 71 80 79
f 71 79 78
f 71 78 77
f 71 77 76
f 71 76 96
f 72 97 73
f 73 97 98
f 73 98 75
f 75 98 99
f 75 99 76
f 76 99 96
f 80 95 100
f 80 100 86
f 80 86 85
f 80 85 81
f 82 86 100
f 82 100 101
f 82 101 102
f 82 102 83
f 88 94 104
f 88 104 105
f 88 105 95
f 90 106 91
f 91 106 107
f 91 107 108
f 91 108 109
f 91 109 110
f 91 110 111
f 91 111 112
f 91 112 104
f 91 104 92
f 92 104 93
f 93 104 94
f 95 105 113
f 95 113 100
f 96 99 98
f 96 98 97
f 100 114 101
f 100 113 115
f 100 115 114
f 101 114 102
f 102 114 116
f 103 118 119
f 103 119 120
f 103 120 121
f 103 121 122
f 103 122 123
f 103 123 117
f 104 112 119
f 104 119 105
f 105 124 113
f 105 119 124
f 107 117 123
f 107 123 108
f 108 123 122
f 108 122 109
f 109 122 121
f 109 121 110
f 110 121 120
f 110 120 111
f 111 120 119
f 111 119 112
f 113 124 115
f 114 115 125
f 114 125 126
f 114 126 116
f 115 124 127
f 115 127 128
f 115 128 125
f 118 129 130
f 118 130 119
f 119 130 124
f 124 130 127
f 127 131 128
f 127 130 129
f 127 129 131

