# https://github.com/mikedh/trimesh
v 6.35067492 4.66584197 9.65639222
v 5.06549631 4.41972666 10.34568437
v 5.06549631 4.41972666 10.36407092
v 6.35191653 4.66502147 9.79980758
v 6.41689983 4.66310708 9.79204425
v 6.41689983 4.66365419 9.65884385
v 6.41689983 4.60896168 9.61614613
v 6.41689983 4.40277186 9.47906399
v 6.29190031 4.39839663 9.48498859
v 6.15738050 4.25318861 9.44045231
v 3.95457218 3.10683891 9.67641319
v 3.73520206 3.76451337 10.33792121
v 4.14745241 4.00324485 10.32014755
v 4.41400816 4.19521476 10.35079160
v 5.18801261 4.44023618 10.41024163
v 4.41400816 4.19521476 10.35385613
v 4.52576257 4.21408362 10.39818811
v 6.37095580 4.63958928 10.36243651
v 6.41689983 4.63958928 10.36243651
v 6.41689983 4.29256700 9.42165715
v 6.29190031 4.28791805 9.42349570
v 6.14868860 3.81537710 9.21797472
v 4.31301500 2.74805756 9.30643454
v 4.15034982 2.90420382 9.44698965
v 4.25796554 3.05159962 9.49683780
v 4.00299942 2.84404252 9.48437568
v 3.87427443 2.97147557 9.63800566
v 3.73189078 2.89189830 9.67477877
v 3.49182525 3.56816790 10.31667441
v 3.73520206 3.76451337 10.37980156
v 5.32335983 4.40195169 10.56448468
v 5.40158792 4.46375366 10.47949784
v 4.74057981 4.24853999 10.47602470
v 4.14745241 4.00324485 10.41310187
v 4.21409151 3.95730345 10.56039864
v 4.52576257 4.14599170 10.50850780
v 4.66317946 4.17552573 10.55876421
v 6.29521126 4.57915459 10.44640183
v 6.41689983 4.63193238 10.37326421
v 5.62965060 4.50340577 10.46213279
v 5.47029636 4.42437561 10.57939810
v 5.62965060 4.43367318 10.58573114
v 6.41689983 2.44615617 8.51172612
v 6.29190031 3.84573131 9.20346973
v 6.07873822 2.37724392 8.51172612
v 6.03403645 2.35482016 8.51172612
v 4.39207115 2.66629251 9.23983425
v 4.24513429 2.60640460 9.26577984
v 4.07998590 2.76610592 9.40715216
v 3.92725455 2.69664672 9.44392529
v 3.77990382 2.62308568 9.48437568
v 3.85771836 2.76610592 9.52278321
v 3.65200689 2.75079212 9.63698431
v 3.51127872 2.67121485 9.67477877
v 3.05018727 3.13199706 10.31667441
v 3.27121319 3.35240712 10.31667441
v 3.49182525 3.56816790 10.41963921
v 3.54273570 3.52304700 10.56673168
v 3.79977149 3.71556370 10.52689435
v 3.86930767 3.80334464 10.45682093
v 4.81011632 4.20861450 10.58205403
v 3.94670802 3.76888860 10.58205403
v 4.36102804 4.00160418 10.58634405
v 5.85067619 4.44215024 10.59022580
v 6.29190031 4.45855826 10.59512873
v 6.41689983 4.52774374 10.51014189
v 6.41689983 4.57915459 10.44640183
v 4.96740055 4.22912402 10.59104300
v 5.18801261 4.26358007 10.59472013
v 6.41689983 1.87243438 8.51172612
v 6.36681712 2.44369500 8.51172612
v 6.29190031 2.43767894 8.51172612
v 6.16814240 2.40814507 8.51172612
v 5.96698381 2.24871714 8.51172612
v 3.86392672 1.87680977 9.15300885
v 3.86765187 2.08928921 9.21307161
v 3.94381061 2.23832568 9.23574836
v 4.08867780 2.31462128 9.21062016
v 4.16483654 2.45900880 9.23574836
v 4.08867780 2.53530456 9.29846706
v 3.85771836 2.54542263 9.40531345
v 3.70622862 2.47596360 9.44392529
v 3.55887789 2.39966767 9.48437568
v 3.63669244 2.54542263 9.52278321
v 3.43139484 2.52874156 9.63800566
v 3.29646148 2.44834395 9.67661750
v 2.83454229 2.91131394 10.31667441
v 3.05018727 3.13199706 10.41963921
v 3.27121319 3.35240712 10.41963921
v 3.40656074 3.43772689 10.49318544
v 3.69008643 3.56844162 10.58756987
v 3.32129591 3.30236355 10.56673168
v 3.46823244 3.37592459 10.58899998
v 4.52576257 4.03551344 10.59431152
v 4.08453878 3.80772020 10.59206452
v 6.07128792 4.44980714 10.59288174
v 5.62965060 4.30514623 10.59798897
v 6.41689983 4.45883165 10.59512873
v 5.85067619 4.30514623 10.59880617
v 4.96740055 4.08418939 10.59798897
v 6.41689983 1.87243438 9.19448075
v 5.91483176 1.87243438 8.51172612
v 5.93428556 2.08874227 8.51172612
v 3.86392672 1.87243438 9.15219165
v 3.69256964 1.87243438 9.21960914
v 3.69381125 1.87680977 9.22001773
v 3.73685753 2.01025889 9.24003856
v 3.79687408 2.15765452 9.26577984
v 3.86765187 2.31462128 9.29846706
v 4.01748614 2.38544776 9.26577984
v 3.63669244 2.32309868 9.40735646
v 3.49886168 2.25254559 9.44719396
v 3.35192482 2.14452834 9.49704193
v 3.25465713 2.31844973 9.64576898
v 3.05805176 2.04116004 9.66333834
v 3.10399513 2.18828212 9.70052006
v 2.39994089 2.25500676 10.32055616
v 2.63876465 2.66711301 10.33832982
v 2.83454229 2.91131394 10.41963921
v 2.96492276 2.99663372 10.49318544
v 3.18553449 3.21731716 10.49318544
v 3.86930767 3.64227605 10.59369894
v 3.10026998 3.08195382 10.56673168
v 3.24762071 3.15551486 10.58899998
v 3.40573268 3.21813766 10.59472013
v 3.62717247 3.43854739 10.59369894
v 4.29480314 3.87581212 10.59451583
v 6.07128792 4.30514623 10.59676315
v 2.54522195 1.87243438 10.59390292
v 6.41689983 4.38800517 10.59349430
v 2.36682844 1.87243438 10.59431152
v 3.18512062 2.99718083 10.59472013
v 2.52742395 2.10788451 10.59451583
v 6.41689983 3.88675036 10.41187604
v 2.64538721 1.87243438 10.57122633
v 3.86847961 1.87243438 9.15076169
v 3.58205684 1.87243438 9.27231735
v 3.65531817 2.08928921 9.30663884
v 3.42435841 2.08163231 9.42594732
v 3.30556758 1.99740610 9.46455900
v 3.15738912 1.87680977 9.51542866
v 2.98768751 1.87243438 9.63657570
v 2.91070103 1.92493894 9.72666978
v 2.20788841 1.98728803 10.35160880
v 2.63876465 2.66711301 10.37918865
v 2.87965792 2.86017649 10.56673168
v 3.02659478 2.93455802 10.58899998
v 6.41689983 4.20423894 10.57020483
v 6.41689983 4.28873855 10.59104300
v 2.36807005 1.87680977 10.59431152
v 2.36393103 1.87243438 10.59329034
v 2.96409502 2.77595060 10.59369894
v 2.76045322 2.53311695 10.59369894
v 6.41689983 4.00433874 10.47602470
v 6.41689983 4.10497264 10.53077577
v 3.42228907 1.87243438 9.35464825
v 3.42228907 1.87680977 9.35607837
v 3.26790192 1.87680977 9.44147366
v 3.15614718 1.87243438 9.51461145
v 2.97071758 1.87243438 9.65067208
v 2.18843477 1.87243438 10.32831933
v 2.20788841 1.98728803 10.35222172
v 2.39994089 2.25500676 10.41269326
v 2.59985755 2.53311695 10.45641232
v 2.68719173 2.60284954 10.52628144
v 2.83454229 2.71305441 10.58736557
v 2.44588443 2.18828212 10.55978573
v 2.63421177 2.45572746 10.58184972
v 2.40159653 2.04116004 10.58613975
v 2.59530450 2.31844973 10.59186021
v 2.25672935 1.87243438 10.50809920
v 3.26666031 1.87243438 9.44086092
v 2.18843477 1.87243438 10.39430669
v 2.18926267 1.87680977 10.39614542
v 2.25755725 1.87680977 10.50666907
v 2.18884880 1.87243438 10.39777983
f 1 2 3
f 1 3 4
f 1 4 5
f 1 5 6
f 1 6 7
f 1 7 8
f 1 8 9
f 1 9 10
f 1 10 11
f 1 11 12
f 1 12 13
f 1 13 14
f 1 14 2
f 2 14 16
f 2 16 3
f 3 15 4
f 3 16 17
f 3 17 15
f 4 18 19
f 4 19 5
f 4 15 18
f 5 19 39
f 5 39 67
f 5 67 66
f 5 66 98
f 5 98 130
f 5 130 149
f 5 149 148
f 5 148 155
f 5 155 154
f 5 154 134
f 5 134 101
f 5 101 70
f 5 70 43
f 5 43 20
f 5 20 8
f 5 8 7
f 5 7 6
f 8 20 21
f 8 21 9
f 9 21 10
f 10 21 22
f 10 22 23
f 10 23 24
f 10 24 25
f 10 25 11
f 11 25 24
f 11 24 26
f 11 26 27
f 11 27 28
f 11 28 29
f 11 29 12
f 12 29 57
f 12 57 30
f 12 30 16
f 12 16 14
f 12 14 13
f 15 31 32
f 15 32 18
f 15 17 33
f 15 33 31
f 16 30 34
f 16 34 35
f 16 35 36
f 16 36 37
f 16 37 17
f 17 37 33
f 18 38 39
f 18 39 19
f 18 32 40
f 18 40 41
f 18 41 42
f 18 42 38
f 20 43 44
f 20 44 21
f 21 44 45
f 21 45 22
f 22 45 46
f 22 46 23
f 23 47 48
f 23 48 49
f 23 49 24
f 23 46 47
f 24 49 26
f 26 49 50
f 26 50 51
f 26 51 52
f 26 52 27
f 27 52 28
f 28 53 54
f 28 54 55
f 28 55 56
f 28 56 29
f 28 52 53
f 29 56 89
f 29 89 57
f 30 57 58
f 30 58 59
f 30 59 60
f 30 60 34
f 31 41 32
f 31 33 37
f 31 37 61
f 31 61 41
f 32 41 40
f 34 60 35
f 35 60 59
f 35 59 58
f 35 58 62
f 35 62 63
f 35 63 37
f 35 37 36
f 37 63 61
f 38 64 65
f 38 65 66
f 38 66 67
f 38 67 39
f 38 42 64
f 41 61 68
f 41 68 42
f 42 68 69
f 42 69 64
f 43 70 102
f 43 102 103
f 43 103 74
f 43 74 46
f 43 46 45
f 43 45 73
f 43 73 72
f 43 72 71
f 43 71 44
f 44 71 72
f 44 72 73
f 44 73 45
f 46 74 75
f 46 75 76
f 46 76 77
f 46 77 78
f 46 78 79
f 46 79 48
f 46 48 47
f 48 79 80
f 48 80 49
f 49 81 50
f 49 80 81
f 50 81 82
f 50 82 51
f 51 82 83
f 51 83 84
f 51 84 52
f 52 84 53
f 53 84 54
f 54 84 85
f 54 85 86
f 54 86 87
f 54 87 55
f 55 87 119
f 55 119 88
f 55 88 89
f 55 89 56
f 57 89 90
f 57 90 58
f 58 91 62
f 58 90 92
f 58 92 93
f 58 93 91
f 61 63 94
f 61 94 68
f 62 95 63
f 62 91 95
f 63 95 94
f 64 96 65
f 64 69 97
f 64 97 96
f 65 98 66
f 65 96 97
f 65 97 99
f 65 99 98
f 68 94 69
f 69 94 100
f 69 100 97
f 70 101 135
f 70 135 129
f 70 129 131
f 70 131 151
f 70 151 171
f 70 171 176
f 70 176 173
f 70 173 161
f 70 161 160
f 70 160 142
f 70 142 159
f 70 159 172
f 70 172 156
f 70 156 137
f 70 137 105
f 70 105 104
f 70 104 136
f 70 136 102
f 74 103 104
f 74 104 75
f 75 104 105
f 75 105 106
f 75 106 107
f 75 107 76
f 76 107 108
f 76 108 77
f 77 108 109
f 77 109 110
f 77 110 79
f 77 79 78
f 79 110 80
f 80 110 109
f 80 109 81
f 81 109 111
f 81 111 82
f 82 111 83
f 83 111 112
f 83 112 86
f 83 86 85
f 83 85 84
f 86 112 113
f 86 113 114
f 86 114 115
f 86 115 116
f 86 116 117
f 86 117 118
f 86 118 87
f 87 118 145
f 87 145 119
f 88 119 120
f 88 120 123
f 88 123 121
f 88 121 90
f 88 90 89
f 90 121 123
f 90 123 92
f 91 93 122
f 91 122 95
f 92 123 93
f 93 123 124
f 93 124 125
f 93 125 126
f 93 126 122
f 94 95 122
f 94 122 127
f 94 127 100
f 97 100 99
f 98 99 128
f 98 128 129
f 98 129 130
f 99 100 131
f 99 131 129
f 99 129 128
f 100 127 122
f 100 122 125
f 100 125 132
f 100 132 133
f 100 133 131
f 101 134 135
f 102 136 103
f 103 136 104
f 105 137 106
f 106 137 107
f 107 137 138
f 107 138 108
f 108 138 111
f 108 111 109
f 111 138 112
f 112 138 139
f 112 139 140
f 112 140 113
f 113 140 141
f 113 141 114
f 114 141 142
f 114 142 115
f 115 142 143
f 115 143 117
f 115 117 116
f 117 144 118
f 117 143 144
f 118 144 162
f 118 162 145
f 119 146 120
f 119 145 146
f 120 146 123
f 122 126 125
f 123 146 147
f 123 147 124
f 124 147 125
f 125 147 132
f 129 135 148
f 129 148 149
f 129 149 130
f 131 133 150
f 131 150 151
f 132 147 152
f 132 152 153
f 132 153 133
f 133 153 150
f 134 154 135
f 135 154 155
f 135 155 148
f 137 156 157
f 137 157 138
f 138 157 139
f 139 157 158
f 139 158 140
f 140 158 141
f 141 159 142
f 141 158 159
f 142 160 143
f 143 160 144
f 144 161 173
f 144 173 162
f 144 160 161
f 145 162 163
f 145 163 164
f 145 164 165
f 145 165 146
f 146 166 147
f 146 165 167
f 146 167 168
f 146 168 166
f 147 166 153
f 147 153 152
f 150 169 151
f 150 153 170
f 150 170 169
f 151 169 171
f 153 166 170
f 156 172 158
f 156 158 157
f 158 172 159
f 162 173 174
f 162 174 175
f 162 175 167
f 162 167 163
f 163 167 164
f 164 167 165
f 166 168 170
f 167 175 171
f 167 171 169
f 167 169 168
f 168 169 170
f 171 175 174
f 171 174 176
f 173 176 174

