# https://github.com/mikedh/trimesh
v 4.95485750 -0.57432154 6.66786274
v 5.10064487 -1.47514679 6.80531673
v 4.99511100 -1.47514679 6.80531673
v 4.73459319 -0.57432154 6.69728303
v 5.18100119 -0.57432154 6.67244771
v 5.18838865 -0.57432154 6.67273433
v 5.41860325 -0.57432154 6.70158145
v 5.51690034 -0.57432154 6.71600508
v 5.62982167 -0.57432154 6.76558025
v 5.96662521 -0.57432154 6.92987549
v 5.11255495 -1.47514679 6.82795512
v 4.90480407 -1.47514679 6.83865339
v 4.68891235 -0.57432154 6.71906173
v 4.88475283 -1.47514679 6.84610401
v 6.06688210 -0.57432154 7.15062342
v 5.16607593 -1.47514679 6.92987549
v 4.59468552 -0.57432154 6.79223045
v 4.85007735 -1.47514679 6.93646642
v 4.52789771 -0.57432154 6.92987549
v 6.03492078 -0.57432154 7.33478697
v 5.20889225 -1.47514679 7.37137132
v 5.20889225 -1.47514679 7.15062342
v 5.17391542 -1.47514679 6.96989860
v 4.84253921 -1.47514679 6.95643020
v 4.52774703 -0.57432154 6.93207247
v 4.83032745 -1.47514679 7.11537636
v 4.82776463 -1.47514679 7.15062342
v 5.98727983 -0.57432154 7.37137132
v 5.14346153 -1.47514679 7.54903948
v 4.52684264 -0.57432154 7.15062342
v 4.82776463 -1.47514679 7.37137132
v 5.61595148 -0.57432154 7.57626282
v 5.60690559 -0.57432154 7.57845981
v 5.39945639 -0.57432154 7.62698422
v 4.96767230 -1.47514679 7.57349273
v 4.53558652 -0.57432154 7.37137132
v 4.83982571 -1.47514679 7.48179304
v 5.17994579 -0.57432154 7.64370030
v 4.96767230 -0.57432154 7.63968844
v 4.75419240 -0.57432154 7.58323583
v 4.94490722 -1.47514679 7.56136161
v 4.84253921 -1.47514679 7.50624631
f 1 2 3
f 1 3 4
f 1 4 13
f 1 13 17
f 1 17 19
f 1 19 25
f 1 25 30
f 1 30 36
f 1 36 40
f 1 40 39
f 1 39 38
f 1 38 34
f 1 34 33
f 1 33 32
f 1 32 28
f 1 28 20
f 1 20 15
f 1 15 10
f 1 10 9
f 1 9 8
f 1 8 7
f 1 7 6
f 1 6 5
f 1 5 2
f 2 5 6
f 2 6 7
f 2 7 8
f 2 8 9
f 2 9 10
f 2 10 11
f 2 11 16
f 2 16 23
f 2 23 22
f 2 22 21
f 2 21 29
f 2 29 35
f 2 35 41
f 2 41 42
f 2 42 37
f 2 37 31
f 2 31 27
f 2 27 26
f 2 26 24
f 2 24 18
f 2 18 14
f 2 14 12
f 2 12 3
f 3 12 4
f 4 12 14
f 4 14 13
f 10 15 16
f 10 16 11
f 13 14 17
f 14 18 19
f 14 19 17
f 15 20 21
f 15 21 22
f 15 22 23
f 15 23 16
f 18 24 19
f 19 24 26
f 19 26 27
f 19 27 25
f 20 28 29
f 20 29 21
f 25 27 30
f 27 31 30
f 28 32 29
f 29 32 33
f 29 33 34
f 29 34 35
f 30 31 36
f 31 37 36
f 34 38 35
f 35 39 40
f 35 40 41
f 35 38 39
f 36 37 42
f 36 42 40
f 40 42 41

