# https://github.com/mikedh/trimesh
v -6.41157941 1.64630994 9.16986774
v -3.38910522 1.50133879 9.23527215
v -6.41157941 1.64630994 8.50748759
v -8.00952100 1.64630994 9.23470218
v -3.36904148 1.46536314 9.23527215
v -4.18019376 0.44913997 8.57830684
v -3.43926492 1.50133879 9.21197444
v -4.67175786 1.50133879 9.23527215
v -3.48870808 1.50133879 9.19038681
v -3.64348607 1.50133879 9.12562360
v -3.71012649 1.50133879 9.10218344
v -3.86275519 1.50133879 9.05544556
v -3.89929999 1.50133879 9.04482990
v -3.96880689 1.50133879 9.02545078
v -4.08130778 1.50133879 8.99417344
v -4.30559267 1.50133879 8.93233133
v -5.89350272 1.50133879 8.50748759
v -7.00131328 1.64630994 8.50748759
v -9.33946652 1.64630994 9.23470218
v -2.80295437 0.22865552 9.23527215
v -2.82731768 0.25537012 9.22722129
v -4.16657886 0.33088334 8.57160960
v -4.30559267 0.33088334 8.52608306
v -4.30559267 0.46873067 8.55899894
v -2.76784265 0.11004271 9.23527215
v -5.25934179 -1.99221777 9.23527215
v -9.43835283 1.46928124 9.23470218
v -10.08756141 0.11004271 9.23470218
v -4.43672455 0.33088334 8.50748759
v -8.43802704 0.33088334 8.50748759
v -8.49965202 0.33088334 8.51233245
v -8.64368160 0.45804481 8.56911601
v -8.94105642 1.64630994 9.07981201
v -9.32011931 1.64630994 9.22522629
v -4.30559267 0.11004271 8.51988456
v -2.80582086 0.11004271 9.21696176
v -4.15941348 0.11004271 8.56861728
v -4.39229717 0.11004271 8.50748759
v -2.76855952 0.03524186 9.23527215
v -5.22494661 -1.99257390 9.23527215
v -10.08756141 -0.11079793 9.23470218
v -10.05101661 -0.20412091 9.23470218
v -9.43835283 -1.46932417 9.23470218
v -9.35809785 -1.61358290 9.23470218
v -9.33445140 -1.65525763 9.23470218
v -9.29933902 -1.71082393 9.23470218
v -9.24058086 -1.80343461 9.23470218
v -9.18827155 -1.88500309 9.23470218
v -9.12019772 -1.99114921 9.23470218
v -9.99512460 0.26605594 9.21888535
v -8.66732804 0.33088334 8.55793030
v -10.02521989 0.11004271 9.20435110
v -8.45450810 0.28600285 8.50748759
v -8.49965202 0.15278606 8.50748759
v -8.50395125 0.11004271 8.50748759
v -9.16175830 1.64630994 9.15675834
v -4.30559267 -0.11079793 8.51988456
v -3.70869341 -0.11079793 8.78477958
v -4.15941348 -0.11079793 8.56861728
v -4.39229717 -0.11079793 8.50748759
v -2.77070914 -0.11079793 9.23527215
v -2.80725394 -0.11079793 9.21760296
v -3.69077928 -1.99257390 9.23527215
v -5.26077487 -1.99257390 9.23505830
v -10.02521989 -0.11079793 9.20456478
v -8.66732804 -0.33092619 8.55793030
v -8.64368160 -0.45808762 8.56911601
v -9.99512460 -0.26609877 9.21917043
v -9.31653727 -1.65525763 9.22622379
v -9.16032522 -1.86042577 9.21361313
v -9.10371667 -1.99114921 9.22700744
v -6.41157941 -1.99257390 8.50748759
v -6.41157941 -1.99257390 9.16694664
v -8.67377755 0.11004271 8.55508043
v -9.57521702 0.11004271 8.98783250
v -8.50395125 -0.11079793 8.50748759
v -4.16657886 -0.33092619 8.57160960
v -4.30559267 -0.33092619 8.52608306
v -4.41451086 -0.22264303 8.50748759
v -2.82445153 -0.25968728 9.23527215
v -2.82946730 -0.25434435 9.22821863
v -4.18019376 -0.44918278 8.57830684
v -3.70439418 -1.99257390 9.22821863
v -3.61912276 -1.88215355 9.23527215
v -9.12449696 -0.11079793 8.77145650
v -8.67377755 -0.11079793 8.55508043
v -8.49965202 -0.33092619 8.51233245
v -8.82640625 -1.99114921 9.12206115
v -8.94535566 -1.99114921 9.16345541
v -6.99343070 -1.99114921 8.50748759
v -5.91213339 -1.99257390 8.50748759
v -8.49965202 -0.15354128 8.50748759
v -4.43672455 -0.33092619 8.50748759
v -3.36904148 -1.46540591 9.23527215
v -3.49085769 -1.65561392 9.22736374
v -3.64635222 -1.85864479 9.21489553
v -3.75813657 -1.99257390 9.20620347
v -3.86060558 -1.99257390 9.16552164
v -4.08919003 -1.99257390 9.09078397
v -3.56752999 -1.80236605 9.23527215
v -8.43802704 -0.33092619 8.50748759
v -3.47509318 -1.65561392 9.23527215
f 1 2 3
f 1 3 18
f 1 18 33
f 1 33 56
f 1 56 34
f 1 34 19
f 1 19 4
f 1 4 2
f 2 5 6
f 2 6 7
f 2 7 3
f 2 4 19
f 2 19 8
f 2 8 26
f 2 26 40
f 2 40 63
f 2 63 84
f 2 84 100
f 2 100 102
f 2 102 94
f 2 94 80
f 2 80 61
f 2 61 39
f 2 39 25
f 2 25 20
f 2 20 5
f 3 7 9
f 3 9 10
f 3 10 11
f 3 11 12
f 3 12 13
f 3 13 14
f 3 14 15
f 3 15 16
f 3 16 17
f 3 17 29
f 3 29 38
f 3 38 60
f 3 60 79
f 3 79 93
f 3 93 91
f 3 91 72
f 3 72 90
f 3 90 101
f 3 101 92
f 3 92 76
f 3 76 55
f 3 55 54
f 3 54 53
f 3 53 30
f 3 30 18
f 5 20 21
f 5 21 6
f 6 22 23
f 6 23 24
f 6 24 17
f 6 17 16
f 6 16 15
f 6 15 14
f 6 14 13
f 6 13 12
f 6 12 11
f 6 11 10
f 6 10 9
f 6 9 7
f 6 21 20
f 6 20 25
f 6 25 22
f 8 19 27
f 8 27 28
f 8 28 26
f 17 24 23
f 17 23 29
f 18 30 31
f 18 31 32
f 18 32 33
f 19 34 27
f 22 35 23
f 22 25 36
f 22 36 37
f 22 37 35
f 23 35 38
f 23 38 29
f 25 39 36
f 26 28 41
f 26 41 42
f 26 42 43
f 26 43 44
f 26 44 45
f 26 45 46
f 26 46 47
f 26 47 48
f 26 48 49
f 26 49 40
f 27 50 28
f 27 34 32
f 27 32 50
f 28 50 32
f 28 32 51
f 28 51 52
f 28 52 41
f 30 53 31
f 31 53 54
f 31 54 55
f 31 55 51
f 31 51 32
f 32 34 56
f 32 56 33
f 35 57 60
f 35 60 38
f 35 37 59
f 35 59 57
f 36 39 58
f 36 58 59
f 36 59 37
f 39 61 62
f 39 62 58
f 40 49 64
f 40 64 73
f 40 73 72
f 40 72 91
f 40 91 99
f 40 99 98
f 40 98 97
f 40 97 83
f 40 83 63
f 41 52 65
f 41 65 66
f 41 66 67
f 41 67 42
f 42 67 68
f 42 68 43
f 43 68 67
f 43 67 44
f 44 67 45
f 45 67 69
f 45 69 70
f 45 70 46
f 46 70 47
f 47 70 48
f 48 70 49
f 49 70 71
f 49 71 72
f 49 72 73
f 49 73 64
f 51 74 75
f 51 75 52
f 51 55 74
f 52 75 65
f 55 76 86
f 55 86 74
f 57 59 77
f 57 77 78
f 57 78 60
f 58 62 77
f 58 77 59
f 60 78 79
f 61 80 81
f 61 81 82
f 61 82 77
f 61 77 62
f 63 83 84
f 65 75 85
f 65 85 66
f 66 86 76
f 66 76 87
f 66 87 67
f 66 85 86
f 67 88 89
f 67 89 71
f 67 71 70
f 67 70 69
f 67 87 90
f 67 90 88
f 71 89 72
f 72 89 88
f 72 88 90
f 74 86 85
f 74 85 75
f 76 92 87
f 77 82 78
f 78 93 79
f 78 82 91
f 78 91 93
f 80 94 81
f 81 94 82
f 82 94 95
f 82 95 96
f 82 96 83
f 82 83 97
f 82 97 98
f 82 98 99
f 82 99 91
f 83 96 100
f 83 100 84
f 87 92 101
f 87 101 90
f 94 102 95
f 95 102 100
f 95 100 96

