# https://github.com/mikedh/trimesh
v -6.41153730 4.66418452 9.65490930
v -6.41153730 4.66300279 9.70368691
v -6.41153730 4.42576822 9.46366054
v -6.51305948 4.42931341 9.46183136
v -6.51305948 4.53951071 9.55044399
v -6.51305948 4.65945760 9.66080332
v -6.41153730 4.66034390 9.79148662
v -6.49724891 4.65709414 9.77786957
v -6.41153730 4.03904284 9.27403762
v -6.41153730 2.45609905 8.50741636
v -6.51305948 2.45639449 8.50741636
v -6.73898833 2.44605419 8.50741636
v -6.63164107 4.42576822 9.46345722
v -6.44898419 4.64114079 10.36381036
v -6.62373546 4.63641387 9.68925694
v -7.74589062 4.42192760 10.34145390
v -7.74589062 4.42192760 10.36645248
v -7.61732354 4.44438079 10.40547457
v -6.41153730 4.64114079 10.36381036
v -6.41153730 1.64631010 8.50741636
v -6.82220357 2.41030653 8.50741636
v -8.50647592 2.75803416 9.29171950
v -8.67082586 2.91609218 9.43906842
v -8.73490115 2.98611066 9.51629965
v -8.86263654 3.11610226 9.66852633
v -9.15388887 3.64463654 10.27153937
v -9.07483469 3.76753777 10.33230831
v -8.66292024 4.00713613 10.31259395
v -8.39496760 4.19739662 10.34714475
v -6.51888456 4.56432769 10.44734209
v -6.41153730 4.61543784 10.39185738
v -7.39638743 4.47303774 10.44957758
v -7.19708763 4.47746923 10.48433169
v -7.28487911 4.41335973 10.57253769
v -7.13758858 4.42074587 10.57599274
v -8.39496760 4.19739662 10.35832282
v -8.27929888 4.21807689 10.39592236
v -8.04463272 4.24614330 10.47132443
v -7.96183333 4.19857835 10.57518013
v -6.41153730 1.64631010 9.17018194
v -7.00194823 1.64631010 8.50741636
v -6.88544717 2.31428999 8.50741636
v -8.94127487 1.87674990 9.12831457
v -8.94959633 2.10364433 9.19822909
v -8.88177583 2.25874803 9.22729235
v -8.66083971 2.47943838 9.22729235
v -8.58345022 2.62656540 9.25757517
v -8.73490115 2.77487414 9.39252644
v -8.81811638 2.85848219 9.47585485
v -8.93836200 2.97842909 9.62300062
v -9.08523668 2.90368402 9.66649400
v -9.31823881 3.57225460 10.30873228
v -9.07483469 3.76753777 10.37945974
v -6.95493170 4.42606365 10.57904148
v -6.51305948 4.43847181 10.58371609
v -6.41153730 4.43847181 10.58351277
v -7.83784315 4.21069108 10.58026104
v -7.61732354 4.23107625 10.58330946
v -8.47984752 4.07095020 10.45567473
v -8.66292024 4.00713613 10.40567789
v -8.41743626 3.98763726 10.57883849
v -6.41153730 3.90284715 10.40039366
v -10.35801108 1.64631010 10.57843186
v -7.00194823 1.65605937 8.50741636
v -8.94169071 1.64631010 9.07994343
v -6.89043991 2.30069993 8.50741636
v -8.94127487 1.65605937 9.08156930
v -9.16221033 1.64631010 9.15697137
v -9.16221033 1.65605937 9.15920700
v -9.16054630 1.86079621 9.21367532
v -9.08565252 2.03421705 9.23156049
v -9.02906635 2.18134390 9.25757517
v -8.94959633 2.32669815 9.28358983
v -8.80813089 2.40587504 9.25757517
v -8.72907606 2.54738867 9.28358983
v -8.95666960 2.55418362 9.39049411
v -8.89301015 2.71135550 9.43581669
v -9.04030068 2.63779200 9.47585485
v -8.95666960 2.77487414 9.50756038
v -9.16013046 2.75773873 9.62178122
v -9.30575629 2.68269823 9.66649400
v -9.75969453 3.13648710 10.30852897
v -9.53875842 3.35717746 10.30873228
v -9.37565732 3.41449202 10.23495625
v -9.31823881 3.57225460 10.41116511
v -8.83933619 3.75778817 10.57518013
v -8.92421546 3.80062653 10.45669099
v -9.15472121 3.63577357 10.46888564
v -6.73399559 4.43167687 10.58148027
v -6.51305948 4.36195415 10.58371609
v -10.40918801 1.87674990 10.58290316
v -6.41153730 4.36195415 10.58351277
v -8.27929888 4.00654527 10.58290316
v -8.56431028 3.93416333 10.55282365
v -8.72075460 3.78201396 10.58107398
v -6.41153730 3.98616010 10.44530960
v -6.41153730 4.08424466 10.49815186
v -6.41153730 4.16105776 10.52660550
v -6.41153730 4.25146109 10.55993707
v -6.41153730 4.30227613 10.57091181
v -10.36258798 1.64631010 10.57883849
v -6.99986771 1.87674990 8.50741636
v -6.93371189 2.16332235 8.50741636
v -6.99945186 1.91042953 8.50741636
v -9.32031934 1.64631010 9.22546334
v -9.31699062 1.65605937 9.22627626
v -9.23294370 1.92401942 9.26753383
v -9.16054630 2.10364433 9.29151618
v -9.17718921 2.33260697 9.39252644
v -9.11352977 2.49066498 9.43581669
v -9.26082029 2.41591974 9.47585485
v -9.17718921 2.55418362 9.50756038
v -9.38065007 2.53616208 9.62300062
v -9.51878679 2.46023511 9.66832319
v -9.97480556 2.91579675 10.30852897
v -9.81711305 2.97311130 10.23495625
v -9.75969453 3.13648710 10.41116511
v -9.53875842 3.35717746 10.41116511
v -9.38855568 3.42778681 10.48473831
v -9.23502357 3.49810039 10.55831087
v -9.08773305 3.55186976 10.58005772
v -10.31349092 1.87674990 10.58290316
v -9.53293333 3.13057846 10.58148027
v -9.75345360 2.90988810 10.58148027
v -10.18492318 2.31842604 10.58107398
v -10.39046457 2.01501361 10.57883849
v -10.57353795 1.64631010 10.56156292
v -10.48158476 1.64631010 10.57924480
v -9.31199788 3.35097338 10.58148027
v -10.44788309 1.64631010 10.57924480
v -9.43016297 1.64631010 9.27911855
v -9.42725076 1.65605937 9.28054126
v -9.36483950 1.86079621 9.31590499
v -9.38855568 2.09359963 9.41061494
v -9.31865465 2.26879289 9.43886527
v -9.38855568 2.33260697 9.51609651
v -9.46594583 2.16450408 9.48825248
v -9.56621982 2.31842604 9.63295946
v -9.71184566 2.20468323 9.69128928
v -10.04720296 2.75183008 10.27113308
v -10.17036080 2.67294879 10.33190168
v -9.97480556 2.91579675 10.41116511
v -9.83042725 2.98640609 10.48473831
v -9.68022451 3.05701511 10.55831087
v -9.45928840 3.27741004 10.55831087
v -9.90074413 2.83277956 10.55831087
v -9.95483393 2.68565255 10.58005772
v -10.16037531 2.43719121 10.57538312
v -10.47367980 2.07794138 10.45648800
v -10.62138682 1.87674990 10.39734491
v -10.51986399 1.87674990 10.50770440
v -10.33679126 2.16214062 10.55322995
v -10.64926341 1.64631010 10.47071481
v -9.60075384 1.64631010 9.37484459
v -9.62072547 1.66935400 9.39293308
v -9.55623368 1.87674990 9.42870328
v -9.51213002 2.01737707 9.45593735
v -9.66690966 1.87674990 9.50227615
v -9.82876322 1.87084108 9.61934225
v -9.95108937 1.79343695 9.67523327
v -10.41002035 2.26140692 10.31239065
v -10.21196874 2.53911640 10.29409916
v -10.60058285 1.99344687 10.34633181
v -10.17036080 2.67294879 10.38006968
v -10.03846500 2.75271638 10.46908861
v -10.10212445 2.58461349 10.52721544
v -10.20364663 2.52227659 10.45709762
v -10.41002035 2.26140692 10.40608418
v -10.60058285 1.99344687 10.35974571
v -10.62138682 1.87674990 10.31889444
v -10.66216177 1.64631010 10.27987235
v -9.61781325 1.64631010 9.38460010
v -9.66441328 1.64631010 9.41183435
v -9.70560473 1.75178064 9.47483876
v -9.82085761 1.66935400 9.52829083
v -9.98063064 1.65605937 9.64901546
v -10.48491413 2.07912311 10.28535956
v -10.54316433 1.65605937 10.16991949
v -10.65966540 1.65605937 10.28027864
v -10.54441252 1.64631010 10.16890324
v -9.79381271 1.64631010 9.49943073
v -9.97688609 1.64631010 9.64271498
v -9.98229467 1.64631010 9.64738942
f 1 2 7
f 1 7 19
f 1 19 31
f 1 31 56
f 1 56 92
f 1 92 100
f 1 100 99
f 1 99 98
f 1 98 97
f 1 97 96
f 1 96 62
f 1 62 40
f 1 40 20
f 1 20 10
f 1 10 9
f 1 9 3
f 1 3 4
f 1 4 5
f 1 5 6
f 1 6 2
f 2 6 8
f 2 8 7
f 3 9 4
f 4 9 10
f 4 10 11
f 4 11 12
f 4 12 13
f 4 13 5
f 5 13 6
f 6 14 8
f 6 13 15
f 6 15 16
f 6 16 17
f 6 17 18
f 6 18 14
f 7 8 14
f 7 14 19
f 10 20 41
f 10 41 64
f 10 64 102
f 10 102 104
f 10 104 103
f 10 103 66
f 10 66 42
f 10 42 21
f 10 21 12
f 10 12 11
f 12 21 13
f 13 21 22
f 13 22 23
f 13 23 24
f 13 24 25
f 13 25 26
f 13 26 27
f 13 27 28
f 13 28 29
f 13 29 15
f 14 30 31
f 14 31 19
f 14 18 32
f 14 32 33
f 14 33 34
f 14 34 35
f 14 35 30
f 15 29 16
f 16 29 36
f 16 36 17
f 17 36 37
f 17 37 18
f 18 37 38
f 18 38 39
f 18 39 34
f 18 34 32
f 20 40 63
f 20 63 101
f 20 101 130
f 20 130 128
f 20 128 127
f 20 127 153
f 20 153 171
f 20 171 180
f 20 180 183
f 20 183 182
f 20 182 181
f 20 181 173
f 20 173 172
f 20 172 154
f 20 154 131
f 20 131 105
f 20 105 68
f 20 68 65
f 20 65 41
f 21 42 43
f 21 43 44
f 21 44 45
f 21 45 46
f 21 46 47
f 21 47 22
f 22 47 48
f 22 48 23
f 23 48 49
f 23 49 24
f 24 49 25
f 25 49 50
f 25 50 51
f 25 51 52
f 25 52 26
f 26 52 27
f 27 52 85
f 27 85 53
f 27 53 36
f 27 36 29
f 27 29 28
f 30 54 55
f 30 55 31
f 30 35 54
f 31 55 56
f 32 34 33
f 34 39 57
f 34 57 35
f 35 57 58
f 35 58 54
f 36 59 37
f 36 53 60
f 36 60 59
f 37 59 61
f 37 61 39
f 37 39 38
f 39 61 57
f 40 62 63
f 41 65 64
f 42 66 65
f 42 65 67
f 42 67 43
f 43 67 68
f 43 68 69
f 43 69 70
f 43 70 71
f 43 71 44
f 44 71 72
f 44 72 45
f 45 72 73
f 45 73 74
f 45 74 46
f 46 74 75
f 46 75 47
f 47 75 48
f 48 75 76
f 48 76 77
f 48 77 49
f 49 77 78
f 49 78 79
f 49 79 50
f 50 79 51
f 51 79 80
f 51 80 81
f 51 81 82
f 51 82 83
f 51 83 84
f 51 84 52
f 52 84 83
f 52 83 118
f 52 118 85
f 53 86 87
f 53 87 60
f 53 85 88
f 53 88 86
f 54 89 55
f 54 58 89
f 55 90 92
f 55 92 56
f 55 89 58
f 55 58 91
f 55 91 90
f 57 61 93
f 57 93 58
f 58 93 91
f 59 60 86
f 59 86 94
f 59 94 61
f 60 87 86
f 61 94 86
f 61 86 95
f 61 95 93
f 62 96 63
f 63 96 97
f 63 97 98
f 63 98 99
f 63 99 100
f 63 100 92
f 63 92 101
f 64 65 102
f 65 68 67
f 65 66 103
f 65 103 104
f 65 104 102
f 68 105 69
f 69 105 106
f 69 106 70
f 70 106 107
f 70 107 71
f 71 107 108
f 71 108 72
f 72 108 109
f 72 109 73
f 73 109 76
f 73 76 75
f 73 75 74
f 76 109 110
f 76 110 77
f 77 110 78
f 78 110 111
f 78 111 112
f 78 112 79
f 79 112 80
f 80 112 113
f 80 113 81
f 81 113 114
f 81 114 115
f 81 115 116
f 81 116 82
f 82 116 115
f 82 115 142
f 82 142 117
f 82 117 118
f 82 118 83
f 85 118 119
f 85 119 120
f 85 120 88
f 86 121 95
f 86 88 120
f 86 120 121
f 90 91 122
f 90 122 92
f 91 123 124
f 91 124 125
f 91 125 126
f 91 126 127
f 91 127 128
f 91 128 130
f 91 130 122
f 91 93 123
f 92 122 101
f 93 95 129
f 93 129 123
f 95 121 129
f 101 122 130
f 105 131 106
f 106 131 132
f 106 132 107
f 107 132 133
f 107 133 108
f 108 133 134
f 108 134 135
f 108 135 109
f 109 135 111
f 109 111 110
f 111 135 136
f 111 136 114
f 111 114 113
f 111 113 112
f 114 136 137
f 114 137 138
f 114 138 139
f 114 139 140
f 114 140 115
f 115 140 141
f 115 141 164
f 115 164 142
f 117 142 143
f 117 143 144
f 117 144 119
f 117 119 118
f 119 144 145
f 119 145 120
f 120 145 129
f 120 129 121
f 123 129 145
f 123 145 144
f 123 144 124
f 124 146 147
f 124 147 125
f 124 144 146
f 125 148 126
f 125 147 148
f 126 149 150
f 126 150 151
f 126 151 127
f 126 148 152
f 126 152 149
f 127 151 150
f 127 150 153
f 131 154 155
f 131 155 132
f 132 155 133
f 133 155 156
f 133 156 134
f 134 156 157
f 134 157 135
f 135 157 137
f 135 137 136
f 137 157 158
f 137 158 138
f 138 158 159
f 138 159 160
f 138 160 139
f 139 160 161
f 139 161 162
f 139 162 140
f 140 162 141
f 141 162 161
f 141 161 163
f 141 163 169
f 141 169 164
f 142 165 146
f 142 146 143
f 142 164 165
f 143 146 144
f 146 165 166
f 146 166 148
f 146 148 147
f 148 164 167
f 148 167 168
f 148 168 149
f 148 149 152
f 148 166 164
f 149 168 169
f 149 169 150
f 150 169 163
f 150 163 170
f 150 170 171
f 150 171 153
f 154 172 155
f 155 172 173
f 155 173 174
f 155 174 156
f 156 174 157
f 157 174 158
f 158 174 159
f 159 174 160
f 160 174 175
f 160 175 176
f 160 176 170
f 160 170 163
f 160 163 177
f 160 177 161
f 161 177 163
f 164 169 168
f 164 168 167
f 164 166 165
f 170 178 179
f 170 179 171
f 170 176 178
f 171 179 178
f 171 178 180
f 173 181 174
f 174 181 175
f 175 181 182
f 175 182 176
f 176 182 183
f 176 183 178
f 178 183 180

