# https://github.com/mikedh/trimesh
v 1.69256897 -0.83593744 4.18211065
v 1.69256897 -0.77489930 4.30969043
v 1.69256897 0.35634814 4.18211065
v 1.72087242 -0.83453693 4.18211065
v 3.75842608 -0.66507738 5.29130329
v 3.64287810 -0.66776168 5.29486790
v 3.50223645 -0.66682801 5.28454899
v 4.35104683 -0.51545819 6.09880742
v 1.69256897 -0.70289068 4.42751403
v 4.32303536 -0.50810560 6.09880742
v 1.87668706 0.34899556 4.18211065
v 1.69256897 0.23894022 4.41269207
v 4.33383148 0.03855314 6.09880742
v 4.30698693 0.04812317 6.04815079
v 4.52932914 0.04170426 6.09880742
v 1.87668706 -0.81072855 4.18211065
v 3.75842608 -0.66507738 5.26972719
v 4.52436864 -0.51534148 6.04890121
v 4.52699496 -0.51125666 6.09880742
v 1.69256897 -0.67546440 4.43914611
v 4.22791236 -0.34984999 6.09880742
v 2.91836911 0.22388493 4.81888326
v 2.09085915 0.29857781 4.18211065
v 4.52436864 0.04555561 6.04965180
v 1.69256897 0.11032836 4.45002808
v 4.23404011 -0.11048255 6.09880742
v 4.61511477 0.03190081 6.09880742
v 1.95546982 -0.79252219 4.18211065
v 3.12057816 -0.67908233 4.81306706
v 3.78527062 -0.55187098 5.24890166
v 4.01286482 -0.50997290 5.45453007
v 4.44967127 -0.48674810 5.90087129
v 4.61861620 -0.49129967 6.09880742
v 2.09144278 -0.74969049 4.18211065
v 4.55734094 -0.50752206 6.09880742
v 1.69256897 -0.55187098 4.46484972
v 4.22207674 -0.33106005 6.09880742
v 2.68493897 0.23298810 4.59393034
v 4.08552016 0.06609615 5.60443622
v 3.86405338 0.07484924 5.38229748
v 2.12324766 0.19225716 4.18211065
v 3.79081442 0.04287133 5.24496185
v 3.53695931 0.00762560 5.05040279
v 1.69256897 -0.11048255 4.46560015
v 4.67084623 -0.11048255 6.09880742
v 4.44967127 0.02968336 5.90087129
v 3.14158677 -0.55187098 4.79974627
v 3.53695931 -0.46235617 5.05040279
v 3.80948885 -0.33106005 5.23032758
v 3.91978484 -0.33106005 5.32413628
v 4.03212288 -0.33106005 5.43464266
v 4.36009240 -0.33106005 5.77272876
v 4.57747411 -0.33106005 5.99693124
v 4.64867037 -0.44975177 6.09880742
v 2.14425643 -0.55187098 4.18211065
v 2.44800740 -0.55187098 4.36897728
v 1.69256897 -0.51545819 4.46541261
v 1.69256897 -0.33106005 4.46560015
v 4.01286482 0.04042046 5.45453007
v 2.14367280 0.11032836 4.18211065
v 3.91978484 -0.11048255 5.32413628
v 3.80948885 -0.11048255 5.23032758
v 3.64958915 -0.11048255 5.12019641
v 3.53929348 -0.11048255 5.04890195
v 3.14771420 -0.11048255 4.79599398
v 2.45617752 -0.11048255 4.35978400
v 4.67318041 -0.33106005 6.09880742
v 4.57718262 -0.11048255 5.99805705
v 4.46688663 -0.11048255 5.88304762
v 4.36009240 -0.11048255 5.77272876
v 4.03212288 -0.11048255 5.43464266
v 4.23141412 0.03458509 5.67760692
v 3.14771420 -0.33106005 4.79599398
v 2.45646933 -0.33106005 4.35959647
v 3.53929348 -0.33106005 5.04890195
v 3.64958915 -0.33106005 5.12019641
v 2.14717424 -0.46784141 4.18211065
v 2.15155111 -0.11048255 4.18211065
v 2.15155111 -0.33106005 4.18211065
f 1 2 9
f 1 9 20
f 1 20 36
f 1 36 57
f 1 57 58
f 1 58 44
f 1 44 25
f 1 25 12
f 1 12 3
f 1 3 11
f 1 11 23
f 1 23 41
f 1 41 60
f 1 60 78
f 1 78 79
f 1 79 77
f 1 77 55
f 1 55 34
f 1 34 28
f 1 28 16
f 1 16 4
f 1 4 5
f 1 5 6
f 1 6 7
f 1 7 8
f 1 8 2
f 2 8 10
f 2 10 9
f 3 12 13
f 3 13 14
f 3 14 15
f 3 15 11
f 4 16 17
f 4 17 5
f 5 17 18
f 5 18 19
f 5 19 6
f 6 19 8
f 6 8 7
f 8 19 35
f 8 35 33
f 8 33 54
f 8 54 67
f 8 67 45
f 8 45 27
f 8 27 15
f 8 15 13
f 8 13 26
f 8 26 37
f 8 37 21
f 8 21 10
f 9 10 20
f 10 21 20
f 11 22 23
f 11 15 24
f 11 24 22
f 12 25 26
f 12 26 13
f 13 15 14
f 15 27 24
f 16 28 17
f 17 29 30
f 17 30 31
f 17 31 32
f 17 32 33
f 17 33 18
f 17 28 34
f 17 34 29
f 18 33 35
f 18 35 19
f 20 21 36
f 21 37 36
f 22 38 23
f 22 24 27
f 22 27 39
f 22 39 40
f 22 40 38
f 23 38 42
f 23 42 43
f 23 43 41
f 25 44 26
f 26 44 37
f 27 45 46
f 27 46 39
f 29 47 48
f 29 48 30
f 29 34 47
f 30 48 49
f 30 49 50
f 30 50 31
f 31 50 51
f 31 51 52
f 31 52 53
f 31 53 32
f 32 53 54
f 32 54 33
f 34 55 56
f 34 56 47
f 36 37 57
f 37 58 57
f 37 44 58
f 38 40 42
f 39 46 40
f 40 46 59
f 40 59 42
f 41 43 60
f 42 59 61
f 42 61 62
f 42 62 43
f 43 62 63
f 43 63 64
f 43 64 65
f 43 65 66
f 43 66 60
f 45 67 68
f 45 68 46
f 46 68 69
f 46 69 70
f 46 70 71
f 46 71 72
f 46 72 59
f 47 73 48
f 47 56 74
f 47 74 73
f 48 75 76
f 48 76 49
f 48 73 75
f 49 62 61
f 49 61 50
f 49 76 63
f 49 63 62
f 50 61 71
f 50 71 51
f 51 71 70
f 51 70 52
f 52 70 53
f 53 69 68
f 53 68 67
f 53 67 54
f 53 70 69
f 55 77 74
f 55 74 56
f 59 72 71
f 59 71 61
f 60 66 78
f 63 76 75
f 63 75 64
f 64 75 73
f 64 73 65
f 65 73 74
f 65 74 66
f 66 74 78
f 74 77 79
f 74 79 78

