# https://github.com/mikedh/trimesh
v -2.53904419 -3.64282250 0.25484689
v -2.53904419 -3.47165228 0.33342534
v -2.31837900 -3.47165228 0.33864180
v -1.87704829 -3.47143219 0.35294363
v -1.65638293 -3.47286329 0.35967474
v -2.31837900 -3.64282250 0.26443825
v -2.53904419 -3.86363754 0.25720245
v -2.76038019 -3.64282250 0.25686622
v -2.76038019 -3.47165228 0.33443534
v -1.87704829 -3.41033919 0.52726325
v -1.65638293 -3.41121989 0.52726325
v -3.86303615 -3.41066949 0.52726325
v -1.43571758 -3.42266806 0.52726325
v -1.43571758 -3.48420125 0.37582746
v -1.65638293 -3.64282250 0.30263326
v -1.87704829 -3.64282250 0.28984544
v -1.65638293 -3.86363754 0.30263326
v -2.31837900 -3.86363754 0.26814004
v -1.65638293 -4.04768704 0.35967474
v -2.53904419 -4.04625593 0.33578091
v -2.76038019 -4.04603584 0.33695869
v -2.76038019 -3.86363754 0.25939023
v -3.64237079 -3.64282250 0.27789918
v -3.86303615 -3.47165228 0.35025184
v -3.64237079 -3.47165228 0.34604538
v -6.85040191 -2.99920049 1.97364535
v 0.00162521 -3.21451187 1.97364535
v -0.55238568 -3.41980586 0.74802369
v -4.08437231 -3.41364158 0.52726325
v -0.55238568 -3.48144926 0.59187612
v -0.33172033 -3.50709727 0.61863019
v -1.21438158 -3.51150046 0.40140376
v -1.43571758 -3.64282250 0.33477156
v -1.43571758 -3.86363754 0.33477156
v -1.43571758 -4.03535816 0.37582746
v -1.43571758 -4.11230220 0.52726325
v -1.65638293 -4.12110858 0.52726325
v -4.08437231 -4.11923729 0.52726325
v -3.86303615 -4.04559565 0.35395363
v -3.86303615 -3.86363754 0.28883610
v -3.86303615 -3.64282250 0.28530275
v -4.08437231 -3.47517477 0.36169342
v -6.85040191 -3.44237190 0.74802369
v -6.85040191 -3.28209912 1.97364535
v 0.00162521 -3.49851130 1.97364535
v 0.00162521 -3.41650346 0.96878346
v 0.00162521 -3.44622436 0.85756203
v 0.00162521 -3.47858738 0.73691832
v -0.20562593 -3.52647079 0.63394201
v -1.09834785 -3.53010350 0.41536937
v -1.21438158 -3.64282250 0.38575506
v -1.21438158 -3.86363754 0.38575506
v -1.09834785 -3.97723758 0.41536937
v -1.21438158 -4.00167458 0.40140376
v -0.33172033 -4.00728878 0.61863019
v -0.55238568 -4.03844046 0.59187612
v -0.55238568 -4.11494431 0.74802369
v -0.77305087 -4.11945739 0.74802369
v 0.00162521 -4.11923729 0.96878346
v -0.33172033 -4.12275978 0.96878346
v -1.21438158 -4.12275978 0.74802369
v -4.30503734 -4.12331018 0.74802369
v -4.52570269 -4.12309009 0.74802369
v -6.85040191 -4.12286966 0.96878346
v -6.85040191 -4.11076121 0.85217778
v -6.85040191 -4.08830538 0.74802369
v -4.30503734 -4.11043090 0.52726325
v -4.08437231 -4.04493504 0.36236653
v -4.08437231 -3.86363754 0.30751283
v -4.08437231 -3.64282250 0.30684036
v -6.85040191 -3.50489567 0.61778864
v -6.85040191 -4.01389325 1.76197161
v -6.73839220 -3.33295496 1.97364535
v -2.49477702 -3.49851130 1.97364535
v 0.00162521 -4.01400346 1.76197161
v 0.00162521 -3.57600574 0.69619865
v 0.00162521 -3.64282250 0.66843523
v 0.00162521 -3.75532173 0.66944523
v 0.00162521 -3.86363754 0.67062301
v -0.20562593 -3.98219084 0.63394201
v 0.00162521 -4.03833025 0.73860078
v 0.00162521 -4.11681560 1.41013522
v -5.62969994 -4.12364049 0.96878346
v -6.85040191 -4.11670539 1.41013522
v -6.85040191 -4.04680633 0.67533415
v -6.85040191 -4.01026087 0.61778864
v -6.85040191 -3.92671204 0.60348615
v -6.85040191 -3.86363754 0.59793346
v -6.85040191 -3.64282250 0.59793346
v -5.85036563 -3.47638578 1.97364535
v -5.99993473 -3.47011129 1.97364535
v -6.07103065 -3.46449742 1.97364535
v -6.20249086 -3.44721528 1.97364535
v -6.40907120 -3.41011909 1.97364535
v -6.85040191 -4.09226839 1.63106344
v -4.74636805 -4.01400346 1.76197161
v -2.53904419 -3.49840109 1.97364535
v 0.00162521 -4.05264063 1.69752720
v 0.00162521 -3.93738940 0.69922733
v 0.00162521 -4.09237827 1.63106344
v -0.11105497 -4.11681560 1.41013522
v -3.64237079 -4.09237827 1.63106344
f 1 2 3
f 1 3 4
f 1 4 5
f 1 5 6
f 1 6 7
f 1 7 8
f 1 8 9
f 1 9 2
f 2 10 11
f 2 11 3
f 2 9 12
f 2 12 10
f 3 11 4
f 4 11 5
f 5 11 13
f 5 13 14
f 5 14 15
f 5 15 16
f 5 16 6
f 6 16 17
f 6 17 18
f 6 18 7
f 7 18 19
f 7 19 20
f 7 20 21
f 7 21 22
f 7 22 8
f 8 22 23
f 8 23 24
f 8 24 25
f 8 25 9
f 9 25 12
f 10 12 26
f 10 26 11
f 11 26 27
f 11 27 28
f 11 28 13
f 12 25 24
f 12 24 29
f 12 29 26
f 13 28 30
f 13 30 14
f 14 30 31
f 14 31 32
f 14 32 33
f 14 33 15
f 15 33 34
f 15 34 17
f 15 17 16
f 17 34 35
f 17 35 19
f 17 19 18
f 19 35 36
f 19 36 37
f 19 37 20
f 20 37 38
f 20 38 21
f 21 38 39
f 21 39 22
f 22 39 40
f 22 40 23
f 23 40 41
f 23 41 24
f 24 41 42
f 24 42 29
f 26 29 43
f 26 43 71
f 26 71 89
f 26 89 88
f 26 88 87
f 26 87 86
f 26 86 85
f 26 85 66
f 26 66 65
f 26 65 64
f 26 64 84
f 26 84 95
f 26 95 72
f 26 72 44
f 26 44 73
f 26 73 94
f 26 94 93
f 26 93 92
f 26 92 91
f 26 91 90
f 26 90 97
f 26 97 74
f 26 74 45
f 26 45 27
f 27 45 75
f 27 75 98
f 27 98 100
f 27 100 82
f 27 82 59
f 27 59 81
f 27 81 99
f 27 99 79
f 27 79 78
f 27 78 77
f 27 77 76
f 27 76 48
f 27 48 47
f 27 47 46
f 27 46 28
f 28 46 47
f 28 47 48
f 28 48 30
f 29 42 43
f 30 48 31
f 31 48 49
f 31 49 32
f 32 50 33
f 32 49 50
f 33 50 51
f 33 51 52
f 33 52 34
f 34 52 53
f 34 53 54
f 34 54 35
f 35 54 55
f 35 55 56
f 35 56 36
f 36 56 57
f 36 57 37
f 37 57 58
f 37 58 59
f 37 59 60
f 37 60 61
f 37 61 62
f 37 62 38
f 38 62 63
f 38 63 64
f 38 64 65
f 38 65 66
f 38 66 67
f 38 67 68
f 38 68 39
f 39 68 40
f 40 68 69
f 40 69 41
f 41 69 70
f 41 70 71
f 41 71 42
f 42 71 43
f 44 72 73
f 45 74 96
f 45 96 75
f 48 76 49
f 49 76 77
f 49 77 50
f 50 77 51
f 51 77 52
f 52 77 78
f 52 78 79
f 52 79 53
f 53 79 80
f 53 80 54
f 54 80 55
f 55 80 81
f 55 81 56
f 56 81 57
f 57 81 59
f 57 59 58
f 59 82 60
f 60 82 83
f 60 83 62
f 60 62 61
f 62 83 64
f 62 64 63
f 64 83 84
f 66 85 68
f 66 68 67
f 68 85 86
f 68 86 69
f 69 86 87
f 69 87 88
f 69 88 70
f 70 88 89
f 70 89 71
f 72 90 91
f 72 91 92
f 72 92 93
f 72 93 94
f 72 94 73
f 72 95 96
f 72 96 74
f 72 74 97
f 72 97 90
f 75 96 98
f 79 99 80
f 80 99 81
f 82 100 102
f 82 102 101
f 82 101 83
f 83 101 84
f 84 102 95
f 84 101 102
f 95 102 96
f 96 102 98
f 98 102 100

