# https://github.com/mikedh/trimesh
v 5.83754228 -0.57455776 8.51172621
v 6.99873401 -0.57455776 8.51172621
v 6.08457449 -0.57455776 7.81833662
v 6.06926661 -2.53885140 7.89280945
v 5.91548513 -1.87660514 8.51172621
v 7.02140401 -0.57455776 8.03375324
v 6.99709827 -1.87660514 8.51172621
v 7.03133686 -2.31794522 8.25447805
v 7.03040187 -2.09727510 8.25447805
v 7.02771403 -1.87660514 8.25447805
v 6.22842378 -0.57455776 7.71455001
v 6.10420594 -2.70258202 7.89280945
v 5.97110802 -2.31794522 8.51172621
v 5.93570087 -2.09727510 8.51172621
v 7.02689616 -2.53885140 8.03383248
v 7.02327398 -2.53885140 7.89280945
v 6.98073829 -0.57455776 7.85129482
v 6.99499471 -2.09727510 8.51172621
v 6.97314258 -2.31794522 8.51172621
v 7.00586255 -2.53885140 8.25447805
v 6.29234313 -0.57455776 7.70543898
v 6.12173450 -2.76471923 7.89280945
v 6.05594517 -2.51546141 8.51172621
v 6.96811826 -2.76519166 7.89280945
v 6.73370608 -0.57455776 7.70472594
v 6.96543041 -0.57455776 7.82618004
v 6.96309327 -2.35503861 8.51172621
v 6.90606757 -2.53979642 8.51172621
v 6.91202754 -2.70777972 8.25447805
v 6.93364609 -2.77558739 8.04294352
v 6.51296670 -0.57455776 7.70234915
v 6.51284958 -2.98798820 7.89280945
v 6.29117456 -2.92325198 7.89280945
v 6.18647237 -2.86725765 7.89280945
v 6.12161804 -2.73589515 8.03383248
v 6.08060161 -2.54381305 8.51172621
v 6.88012610 -2.89679037 7.89280945
v 6.65564677 -0.57455776 7.70353754
v 6.79984611 -2.93341117 7.89280945
v 6.73756249 -2.95774651 7.89280945
v 6.73370608 -2.63737336 8.51172621
v 6.87264751 -2.66407101 8.39668948
v 6.82602182 -2.85969715 8.12240761
v 6.86820681 -2.88993884 7.97536338
v 6.51284958 -2.96365286 8.03383248
v 6.32599809 -2.91167517 8.03383248
v 6.21556951 -2.84622997 8.03383248
v 6.16871023 -2.66076335 8.40595892
v 6.26032522 -2.64304349 8.51172621
v 6.74492462 -2.92348819 8.04294352
v 6.51284958 -2.66501603 8.51172621
v 6.67878393 -2.89419136 8.17778685
v 6.51284958 -2.90482331 8.19054234
v 6.36607886 -2.89206510 8.17232027
v 6.29234313 -2.65084021 8.51172621
f 1 2 6
f 1 6 17
f 1 17 26
f 1 26 25
f 1 25 38
f 1 38 31
f 1 31 21
f 1 21 11
f 1 11 3
f 1 3 4
f 1 4 5
f 1 5 14
f 1 14 13
f 1 13 23
f 1 23 36
f 1 36 49
f 1 49 55
f 1 55 51
f 1 51 41
f 1 41 28
f 1 28 27
f 1 27 19
f 1 19 18
f 1 18 7
f 1 7 2
f 2 7 8
f 2 8 9
f 2 9 10
f 2 10 6
f 3 11 4
f 4 12 13
f 4 13 14
f 4 14 5
f 4 11 12
f 6 9 8
f 6 8 15
f 6 15 16
f 6 16 17
f 6 10 9
f 7 18 8
f 8 18 19
f 8 19 20
f 8 20 15
f 11 21 22
f 11 22 12
f 12 22 13
f 13 22 23
f 15 24 16
f 15 20 24
f 16 24 25
f 16 25 26
f 16 26 17
f 19 27 20
f 20 27 28
f 20 28 29
f 20 29 30
f 20 30 24
f 21 31 32
f 21 32 33
f 21 33 34
f 21 34 22
f 22 35 23
f 22 34 35
f 23 35 34
f 23 34 36
f 24 30 37
f 24 37 25
f 25 37 39
f 25 39 40
f 25 40 38
f 28 41 42
f 28 42 29
f 29 42 43
f 29 43 44
f 29 44 30
f 30 44 37
f 31 38 32
f 32 40 45
f 32 45 46
f 32 46 33
f 32 38 40
f 33 46 34
f 34 47 36
f 34 46 47
f 36 48 49
f 36 47 48
f 37 44 39
f 39 44 40
f 40 50 45
f 40 44 50
f 41 51 52
f 41 52 42
f 42 52 43
f 43 52 50
f 43 50 44
f 45 50 52
f 45 52 53
f 45 53 54
f 45 54 46
f 46 54 47
f 47 54 48
f 48 54 49
f 49 54 55
f 51 53 52
f 51 55 53
f 53 55 54

