# https://github.com/mikedh/trimesh
v 4.96617079 -3.17629976 7.62821964
v 4.76256090 -3.17629976 7.57976851
v 4.99116346 -3.17629976 7.62469596
v 5.14333289 -1.47514696 7.54902408
v 4.96762624 -1.47514696 7.57351393
v 4.76142227 -3.17629976 7.57915186
v 4.94491150 -1.47514696 7.56135707
v 4.84241058 -1.47514696 7.50629897
v 5.18743359 -3.17629976 7.56170945
v 5.20875638 -1.47514696 7.37134053
v 5.31562299 -3.17629976 7.37134053
v 4.68353403 -3.17629976 7.41424179
v 4.82766823 -1.47514696 7.37134053
v 5.20875638 -1.47514696 7.15066758
v 5.32150729 -3.17629976 7.27655246
v 5.32574665 -3.17629976 7.15066758
v 4.68271156 -3.17629976 7.37134053
v 4.82766823 -1.47514696 7.15066758
v 4.67935817 -3.17629976 7.19444981
v 5.17376704 -1.47514696 6.96990079
v 5.26987734 -3.17629976 6.92594242
v 5.16598447 -1.47514696 6.92990658
v 4.83032548 -1.47514696 7.11543040
v 4.68555896 -3.17629976 6.91845450
v 4.67935817 -3.17629976 7.15066758
v 5.16395987 -3.17629976 6.77750569
v 5.10062415 -1.47514696 6.80534314
v 4.84241058 -1.47514696 6.95642254
v 4.75300705 -3.17629976 6.82895199
v 4.88467650 -1.47514696 6.84604208
v 4.94984667 -3.17629976 6.72826175
v 4.99508633 -1.47514696 6.80534314
v 4.93871071 -3.17629976 6.73178547
v 4.90473367 -1.47514696 6.83864225
f 1 2 6
f 1 6 12
f 1 12 17
f 1 17 19
f 1 19 25
f 1 25 24
f 1 24 29
f 1 29 33
f 1 33 31
f 1 31 26
f 1 26 21
f 1 21 16
f 1 16 15
f 1 15 11
f 1 11 9
f 1 9 3
f 1 3 4
f 1 4 5
f 1 5 2
f 2 5 7
f 2 7 8
f 2 8 6
f 3 9 4
f 4 10 14
f 4 14 20
f 4 20 22
f 4 22 27
f 4 27 32
f 4 32 34
f 4 34 30
f 4 30 28
f 4 28 23
f 4 23 18
f 4 18 13
f 4 13 8
f 4 8 7
f 4 7 5
f 4 9 11
f 4 11 10
f 6 8 12
f 8 13 12
f 10 11 15
f 10 15 16
f 10 16 14
f 12 13 17
f 13 18 25
f 13 25 19
f 13 19 17
f 14 16 20
f 16 21 22
f 16 22 20
f 18 23 24
f 18 24 25
f 21 26 27
f 21 27 22
f 23 28 24
f 24 28 30
f 24 30 29
f 26 31 27
f 27 31 32
f 29 30 33
f 30 34 33
f 31 33 32
f 32 33 34

