# https://github.com/mikedh/trimesh
v 10.59836809 -1.99109114 10.35772078
v 10.59795883 -1.99109114 10.34873179
v 10.51241370 -1.99109114 10.48417837
v 10.36178919 -2.19122921 10.56221828
v 10.40722263 -2.25768046 10.41512712
v 10.16818749 -2.66972946 10.38264435
v 10.16818749 -2.66972946 10.33647398
v 10.40722263 -2.25768046 10.31910927
v 9.77034260 -1.99109114 9.65352146
v 10.45101770 -1.99109114 10.56303549
v 10.20789059 -2.53473426 10.45864156
v 10.40517566 -2.04393802 10.58652928
v 10.17269004 -2.45808006 10.58244322
v 9.92833449 -2.86306567 10.56855132
v 10.11948062 -2.60537141 10.52994014
v 9.97213022 -2.91277301 10.42146016
v 9.70321627 -2.19096766 9.69907893
v 9.97213022 -2.91277301 10.31563613
v 9.51043309 -2.45023169 9.67538100
v 9.74864904 -2.04367648 9.66210183
v 9.71795104 -1.99109114 9.61531872
v 9.55300103 -2.31837587 9.64391974
v 10.41622707 -1.99109114 10.58898058
v 10.21239248 -2.31837587 10.59224941
v 9.97253948 -2.71603604 10.58775476
v 9.78139336 -2.93736529 10.58898058
v 9.70771881 -3.08439492 10.56855132
v 9.84238009 -2.99858397 10.49500575
v 9.75683561 -3.13357917 10.42146016
v 9.75683561 -3.13357917 10.31563613
v 9.29595701 -2.67260730 9.67374658
v 9.37495263 -2.52976356 9.63615658
v 9.24806800 -2.40157054 9.48334511
v 9.30782695 -2.25454091 9.44616372
v 9.45517669 -2.14701566 9.49580707
v 9.62503852 -1.99109114 9.54790189
v 10.36097067 -1.99109114 10.59429244
v 10.04580542 -2.53473426 10.59388384
v 9.84278936 -2.77777780 10.59367953
v 9.62176442 -2.99884551 10.59449674
v 9.40114874 -3.21965167 10.59449674
v 9.33975274 -3.37871574 10.58898058
v 9.48669322 -3.30520076 10.56855132
v 9.40114874 -3.43993441 10.49500575
v 9.53581002 -3.35412345 10.42146016
v 9.53581002 -3.35412345 10.31563613
v 9.07493207 -2.89341330 9.67374658
v 9.15392769 -2.75161607 9.63513506
v 9.16948165 -2.54650715 9.52093511
v 9.02704306 -2.62473112 9.48334511
v 9.10071826 -2.47770165 9.44309936
v 9.16948165 -2.32413138 9.40591797
v 9.38232068 -2.08318087 9.42410006
v 9.50142865 -1.99998603 9.46352877
v 9.15106285 -2.09076769 9.30520147
v 9.50429349 -1.99109114 9.46189435
v 10.26928593 -1.99109114 10.59388384
v 6.95472773 -4.30510675 10.59858246
v 7.83800962 -4.08430092 10.59796956
v 10.02984219 -2.30607973 10.59470105
v 10.27951882 -2.10960431 10.59429244
v 8.93658612 -3.64295047 10.59388384
v 9.18012314 -3.44019596 10.59367953
v 9.11831854 -3.56943549 10.58755079
v 9.26525901 -3.52574537 10.56855132
v 9.31519434 -3.56943549 10.42146016
v 9.31519434 -3.56943549 10.31563613
v 8.94886532 -2.76705176 9.52093511
v 8.85226943 -3.10794037 9.67558529
v 8.93208422 -2.97242207 9.63636087
v 8.80397115 -2.84553712 9.48334511
v 8.88010259 -2.69850748 9.44309936
v 8.94886532 -2.54650715 9.40387511
v 8.93863309 -2.31549804 9.29723401
v 9.01026131 -2.15983506 9.26515985
v 9.38232068 -1.99109114 9.39263897
v 9.18503495 -1.99109114 9.28967515
v 9.07002026 -2.01254388 9.23921460
v 10.17555488 -1.99109114 10.59143221
v 6.41689983 -4.28862472 10.59102360
v 6.73411205 -4.30510675 10.59674373
v 7.17575267 -4.30510675 10.59796956
v 6.41689983 -4.45867670 10.59510964
v 6.51308711 -4.45867670 10.59510964
v 7.61698468 -4.26481773 10.59470105
v 8.27965090 -4.03642474 10.59429244
v 8.72047299 -3.80933982 10.59224941
v 8.86004608 -3.76957388 10.58244322
v 8.59276983 -3.95872403 10.56180967
v 9.00739647 -3.71672667 10.52932690
v 9.07165731 -3.76538782 10.38203144
v 9.07165731 -3.76538782 10.33688258
v 8.65662141 -2.90544773 9.44636803
v 6.62564623 -4.63814732 9.68641283
v 6.66125538 -4.26377121 9.43615341
v 8.72620332 -2.76705176 9.40591797
v 8.71801741 -2.53630420 9.29723401
v 6.90642946 -2.54022838 8.51193042
v 9.07697839 -1.99109114 9.23594593
v 10.12725727 -1.99109114 10.58142172
v 6.41689983 -4.20412215 10.57018574
v 6.73411205 -4.45004336 10.59306662
v 6.41689983 -4.51204700 10.52932690
v 6.51063088 -4.57928289 10.44638407
v 6.95472773 -4.44245653 10.59041069
v 7.83800962 -4.22976062 10.59143221
v 7.17575267 -4.43382319 10.58571206
v 7.99641077 -4.20909285 10.58244322
v 8.44623796 -4.00215260 10.58632497
v 8.65948625 -4.00424563 10.41471851
v 8.93658612 -3.80489221 10.45823296
v 8.14376117 -4.17639064 10.55976665
v 8.27965090 -4.14682766 10.51053206
v 8.39221001 -4.19601190 10.35547345
v 8.39221001 -4.19601190 10.34995761
v 8.65948625 -4.00424563 10.31931357
v 7.74141373 -4.42021915 10.34505436
v 6.62564623 -4.63814732 9.69560594
v 6.51308711 -4.66012315 9.66251044
v 6.51308711 -4.52591292 9.55750361
v 6.51308711 -4.40635324 9.47435631
v 6.73411205 -2.63781207 8.51193042
v 6.96332291 -2.35552568 8.51193042
v 8.93986088 -1.99109114 9.18364681
v 9.04996441 -1.99109114 9.22532270
v 10.09942411 -1.99109114 10.57304564
v 6.41689983 -4.10496869 10.53075702
v 6.41689983 -4.57928289 10.44638407
v 6.43531863 -4.63971693 10.36241941
v 7.33701932 -4.42440489 10.57937902
v 7.48395980 -4.40295215 10.56548678
v 7.61698468 -4.44114847 10.41206259
v 8.06558342 -4.24938220 10.47661952
v 8.27965090 -4.21511006 10.40000939
v 7.74141373 -4.42021915 10.36568824
v 6.50530980 -4.66064657 9.78140917
v 6.41689983 -4.66378579 9.70990645
v 6.41689983 -4.66352424 9.65883316
v 6.41689983 -4.40295215 9.47905509
v 6.41689983 -4.35481442 9.45229263
v 6.41689983 -2.65534046 8.51193042
v 6.51308711 -2.66528202 8.51193042
v 6.97355579 -2.31837587 8.51193042
v 6.99524869 -2.09730833 8.51193042
v 6.99524869 -1.99109114 8.51193042
v 10.02001923 -1.99109114 10.54403601
v 6.41689983 -3.88677866 10.41185828
v 6.41689983 -3.97782219 10.46150180
v 6.41689983 -4.63971693 10.36241941
v 6.41689983 -4.66326270 9.79203240
v 7.40496418 -4.46417082 10.48009233
v 7.17575267 -4.50393708 10.46231901
v 6.41689983 -1.99109114 8.51193042
v 6.41689983 -1.99109114 9.19610877
f 1 2 9
f 1 9 21
f 1 21 36
f 1 36 56
f 1 56 76
f 1 76 77
f 1 77 99
f 1 99 125
f 1 125 124
f 1 124 145
f 1 145 153
f 1 153 154
f 1 154 146
f 1 146 126
f 1 126 100
f 1 100 79
f 1 79 57
f 1 57 37
f 1 37 23
f 1 23 10
f 1 10 3
f 1 3 4
f 1 4 5
f 1 5 6
f 1 6 7
f 1 7 2
f 2 7 8
f 2 8 9
f 3 10 4
f 4 11 5
f 4 10 12
f 4 12 13
f 4 13 14
f 4 14 15
f 4 15 11
f 5 11 6
f 6 16 18
f 6 18 7
f 6 11 15
f 6 15 14
f 6 14 16
f 7 17 8
f 7 18 19
f 7 19 17
f 8 17 20
f 8 20 9
f 9 20 22
f 9 22 21
f 10 23 12
f 12 23 24
f 12 24 13
f 13 24 25
f 13 25 14
f 14 26 27
f 14 27 28
f 14 28 16
f 14 25 26
f 16 28 29
f 16 29 30
f 16 30 18
f 17 19 20
f 18 30 31
f 18 31 19
f 19 31 32
f 19 32 33
f 19 33 34
f 19 34 35
f 19 35 22
f 19 22 20
f 21 22 36
f 22 35 36
f 23 37 24
f 24 37 38
f 24 38 25
f 25 38 26
f 26 38 39
f 26 39 40
f 26 40 41
f 26 41 42
f 26 42 27
f 27 29 28
f 27 42 43
f 27 43 44
f 27 44 29
f 29 44 45
f 29 45 46
f 29 46 30
f 30 46 47
f 30 47 31
f 31 47 48
f 31 48 49
f 31 49 32
f 32 49 33
f 33 49 50
f 33 50 51
f 33 51 52
f 33 52 34
f 34 53 54
f 34 54 35
f 34 52 55
f 34 55 53
f 35 54 36
f 36 54 56
f 37 57 58
f 37 58 59
f 37 59 60
f 37 60 40
f 37 40 61
f 37 61 38
f 38 61 40
f 38 40 39
f 40 60 59
f 40 59 41
f 41 62 63
f 41 63 42
f 41 59 62
f 42 63 62
f 42 62 64
f 42 64 65
f 42 65 43
f 43 65 44
f 44 65 66
f 44 66 45
f 45 66 67
f 45 67 46
f 46 67 47
f 47 68 48
f 47 67 69
f 47 69 70
f 47 70 68
f 48 68 49
f 49 68 50
f 50 68 71
f 50 71 72
f 50 72 51
f 51 72 73
f 51 73 52
f 52 73 74
f 52 74 75
f 52 75 55
f 53 76 56
f 53 56 54
f 53 55 76
f 55 77 76
f 55 75 78
f 55 78 77
f 57 79 80
f 57 80 81
f 57 81 58
f 58 82 59
f 58 81 83
f 58 83 84
f 58 84 82
f 59 82 85
f 59 85 86
f 59 86 62
f 62 86 87
f 62 87 64
f 64 87 88
f 64 88 65
f 65 88 89
f 65 89 90
f 65 90 91
f 65 91 66
f 66 91 92
f 66 92 67
f 67 92 69
f 68 70 71
f 69 93 71
f 69 71 70
f 69 92 94
f 69 94 95
f 69 95 93
f 71 96 72
f 71 93 96
f 72 96 73
f 73 96 97
f 73 97 74
f 74 97 98
f 74 98 75
f 75 98 78
f 77 78 99
f 78 98 99
f 79 100 101
f 79 101 80
f 80 101 127
f 80 127 148
f 80 148 147
f 80 147 154
f 80 154 153
f 80 153 141
f 80 141 140
f 80 140 139
f 80 139 138
f 80 138 137
f 80 137 150
f 80 150 149
f 80 149 128
f 80 128 103
f 80 103 83
f 80 83 81
f 82 84 102
f 82 102 85
f 83 103 84
f 84 103 104
f 84 104 105
f 84 105 102
f 85 106 86
f 85 102 105
f 85 105 107
f 85 107 106
f 86 108 109
f 86 109 87
f 86 106 108
f 87 109 88
f 88 109 89
f 89 110 111
f 89 111 90
f 89 109 112
f 89 112 113
f 89 113 114
f 89 114 110
f 90 111 91
f 91 111 110
f 91 110 114
f 91 114 115
f 91 115 92
f 92 115 116
f 92 116 94
f 93 95 98
f 93 98 96
f 94 117 135
f 94 135 118
f 94 118 119
f 94 119 120
f 94 120 95
f 94 116 115
f 94 115 117
f 95 120 121
f 95 121 122
f 95 122 98
f 96 98 97
f 98 122 142
f 98 142 141
f 98 141 153
f 98 153 145
f 98 145 144
f 98 144 143
f 98 143 123
f 98 123 124
f 98 124 125
f 98 125 99
f 100 126 127
f 100 127 101
f 103 128 104
f 104 128 149
f 104 149 129
f 104 129 107
f 104 107 105
f 106 107 130
f 106 130 108
f 107 129 130
f 108 112 109
f 108 130 131
f 108 131 112
f 112 131 132
f 112 132 133
f 112 133 134
f 112 134 114
f 112 114 113
f 114 134 135
f 114 135 117
f 114 117 115
f 118 135 119
f 119 135 136
f 119 136 137
f 119 137 138
f 119 138 120
f 120 138 121
f 121 138 139
f 121 139 140
f 121 140 141
f 121 141 142
f 121 142 122
f 123 143 124
f 124 143 144
f 124 144 145
f 126 146 147
f 126 147 148
f 126 148 127
f 129 149 150
f 129 150 136
f 129 136 132
f 129 132 151
f 129 151 152
f 129 152 130
f 130 152 151
f 130 151 131
f 131 151 132
f 132 136 135
f 132 135 134
f 132 134 133
f 136 150 137
f 146 154 147

