# https://github.com/mikedh/trimesh
v 6.38929235 -0.27226524 2.83830315
v 6.38929235 -0.19127451 2.83830315
v 6.47355377 -0.19127451 2.83830315
v 6.49883200 -0.27226524 2.83869762
v 5.85934967 -0.27226524 3.84020580
v 5.85934967 0.55190264 3.83257588
v 6.53343905 -0.11474697 2.90013276
v 5.85934967 0.83961579 3.83810092
v 6.62070941 -0.22436751 2.84580149
v 6.62522380 -0.27226524 2.84382820
v 5.85934967 -0.27226524 4.14474963
v 6.64011978 0.00989604 3.01589854
v 5.85934967 0.83961579 4.07660539
v 7.39651442 0.83961579 3.81468478
v 7.39651442 -0.27226524 3.84060059
v 5.85934967 -0.11028378 4.14474963
v 6.05254869 -0.27226524 4.18211031
v 5.85934967 0.33973739 4.13619853
v 6.07150703 0.55190264 4.13251516
v 6.07150703 0.83961579 4.08910305
v 7.39651442 0.83961579 4.07147481
v 7.39651442 -0.27226524 3.84231066
v 5.85934967 0.11004590 4.14435483
v 6.07526869 -0.11028378 4.18211031
v 7.02275616 -0.27226524 4.18211031
v 5.85934967 0.33113756 4.13672492
v 6.18014393 0.02263250 4.18211031
v 6.29720691 0.14879954 4.18211031
v 6.29239182 0.55190264 4.14396038
v 6.29239182 0.77266776 4.10870424
v 6.29239182 0.83961579 4.09778541
v 7.39651442 0.33113756 4.12172793
v 7.39606304 0.83961579 4.07160641
v 7.39651442 -0.27204753 4.14396038
v 7.39606304 -0.27226524 4.14409164
v 7.39606304 -0.11028378 4.14409164
v 7.02049863 -0.16863194 4.18211031
v 6.51312593 0.20159592 4.18211031
v 6.51312593 0.77266776 4.11120389
v 6.73371003 0.55190264 4.14396038
v 6.51312593 0.83961579 4.10028474
v 7.39606304 0.11048134 4.13975063
v 7.39651442 0.11048134 4.13961903
v 7.17532893 0.55190264 4.12278037
v 7.17532893 0.33113756 4.14396038
v 7.24228617 0.83961579 4.08173599
v 6.95459482 0.55190264 4.14053987
v 7.39651442 -0.11028378 4.14396038
v 7.01478145 -0.11028378 4.18211031
v 6.69654475 0.19147207 4.18211031
v 6.73371003 0.77266776 4.11054592
v 6.73371003 0.83961579 4.09962709
v 6.90900347 0.11309394 4.18211031
v 6.95685169 0.04614594 4.18211031
v 7.02155205 0.83961579 4.09489128
v 6.73160318 0.18461400 4.18211031
v 6.80066726 0.83961579 4.09883784
f 1 2 3
f 1 3 4
f 1 4 10
f 1 10 15
f 1 15 22
f 1 22 35
f 1 35 25
f 1 25 17
f 1 17 11
f 1 11 5
f 1 5 6
f 1 6 2
f 2 7 3
f 2 6 8
f 2 8 7
f 3 7 9
f 3 9 10
f 3 10 4
f 5 11 16
f 5 16 23
f 5 23 26
f 5 26 18
f 5 18 13
f 5 13 8
f 5 8 6
f 7 8 12
f 7 12 9
f 8 13 20
f 8 20 31
f 8 31 41
f 8 41 52
f 8 52 57
f 8 57 55
f 8 55 46
f 8 46 33
f 8 33 21
f 8 21 14
f 8 14 12
f 9 12 14
f 9 14 10
f 10 14 15
f 11 17 16
f 13 18 19
f 13 19 20
f 14 21 32
f 14 32 43
f 14 43 48
f 14 48 34
f 14 34 22
f 14 22 15
f 16 17 23
f 17 24 23
f 17 25 37
f 17 37 49
f 17 49 54
f 17 54 53
f 17 53 56
f 17 56 50
f 17 50 38
f 17 38 28
f 17 28 27
f 17 27 24
f 18 26 24
f 18 24 27
f 18 27 28
f 18 28 19
f 19 28 29
f 19 29 20
f 20 29 30
f 20 30 31
f 21 33 32
f 22 34 35
f 23 24 26
f 25 35 36
f 25 36 37
f 28 38 29
f 29 39 30
f 29 38 40
f 29 40 39
f 30 39 41
f 30 41 31
f 32 42 43
f 32 33 44
f 32 44 45
f 32 45 42
f 33 46 47
f 33 47 44
f 34 48 36
f 34 36 35
f 36 42 49
f 36 49 37
f 36 48 43
f 36 43 42
f 38 50 40
f 39 40 51
f 39 51 52
f 39 52 41
f 40 50 47
f 40 47 51
f 42 45 53
f 42 53 54
f 42 54 49
f 44 47 45
f 45 47 53
f 46 55 47
f 47 50 56
f 47 56 53
f 47 55 51
f 51 55 57
f 51 57 52

