# https://github.com/mikedh/trimesh
v 6.51306935 2.49698734 7.81276552
v 6.32561251 2.45579622 7.81276552
v 6.75372706 2.46278395 7.81276552
v 7.06659465 2.42949993 7.26741451
v 7.07077874 2.43115491 7.15047237
v 7.07305008 2.43225834 6.92994483
v 7.06946344 2.43097101 6.81371311
v 6.64517438 2.43041929 6.59574325
v 6.51306935 2.43133882 6.59460652
v 6.39291979 2.43023539 6.59616947
v 6.15644617 2.43097101 6.80632435
v 5.96050075 2.42894838 7.03395650
v 5.96050075 2.42894838 7.04276626
v 6.18489980 2.42655762 7.68317717
v 6.21538527 2.40908828 7.81276552
v 6.76472583 2.46020945 7.81276552
v 6.84829308 2.43041929 7.81276552
v 6.92624054 2.33773920 7.81276552
v 7.02977218 2.09739584 7.81276552
v 7.07113733 2.23329017 7.50911386
v 7.08883104 2.31144291 7.35309628
v 7.13724973 2.31806317 7.15047237
v 7.14777015 2.31806317 6.92994483
v 6.78899538 2.45175064 7.81276552
v 6.79234252 2.41092717 6.64732288
v 7.10054701 2.31806317 6.77762166
v 6.87794161 2.26381578 6.58224449
v 6.72479573 2.32964804 6.56633012
v 6.51306935 2.31806317 6.54373744
v 6.30851625 2.30905248 6.57414518
v 6.17294433 2.22942849 6.59361190
v 6.24575165 2.37653972 6.65911649
v 6.00915828 2.41221434 6.88674868
v 5.94412234 2.26510295 6.79538322
v 5.93300381 2.33038366 6.94813268
v 5.94101405 2.30574252 7.13001105
v 6.12859064 2.29838697 7.81276552
v 6.93771766 1.91093222 7.81276552
v 6.65916169 0.61837437 7.29313326
v 6.95732411 0.61837437 6.71296958
v 6.99605867 0.77284139 6.70913306
v 7.13139174 2.10787761 7.15047237
v 7.13964082 2.10364812 6.92994483
v 7.10784005 2.14244880 6.76938023
v 6.94548839 0.61837437 6.48746874
v 6.76687808 0.61837437 6.37592620
v 6.73376201 0.61837437 6.36313790
v 6.51306935 0.61837437 6.36114849
v 6.29237669 0.61837437 6.36512712
v 6.09105163 2.32082141 6.72717880
v 6.11639632 0.61837437 6.48931602
v 5.94412234 2.17977840 6.79538322
v 5.92642863 2.15679224 6.92994483
v 5.93647070 2.17223879 7.15047237
v 5.95739246 2.22391167 7.27153519
v 6.06821714 2.09721193 7.81276552
v 6.73376201 1.83480194 7.81276552
v 6.51306935 0.61837437 7.32823009
v 6.55694469 0.61837437 7.31771524
v 6.10503894 0.61837437 6.53222790
v 6.08842103 0.77284139 6.70913306
v 5.95739246 2.20037396 7.27153519
v 6.11269058 0.61837437 6.71296958
v 6.12643905 0.61837437 6.76000214
v 6.12153710 1.91644888 7.81276552
v 6.51306935 1.83480194 7.81276552
v 6.40738545 0.61837437 7.30577949
v 6.29237669 1.84050250 7.81276552
v 6.29381174 0.61837437 7.15047237
v 6.36195597 0.61837437 7.29611719
f 1 2 15
f 1 15 37
f 1 37 56
f 1 56 65
f 1 65 68
f 1 68 66
f 1 66 57
f 1 57 38
f 1 38 19
f 1 19 18
f 1 18 17
f 1 17 24
f 1 24 16
f 1 16 3
f 1 3 4
f 1 4 5
f 1 5 6
f 1 6 7
f 1 7 8
f 1 8 9
f 1 9 10
f 1 10 11
f 1 11 12
f 1 12 13
f 1 13 2
f 2 13 14
f 2 14 15
f 3 16 4
f 4 17 18
f 4 18 19
f 4 19 20
f 4 20 21
f 4 21 22
f 4 22 23
f 4 23 5
f 4 16 24
f 4 24 17
f 5 23 6
f 6 23 7
f 7 25 8
f 7 23 26
f 7 26 27
f 7 27 25
f 8 25 27
f 8 27 28
f 8 28 29
f 8 29 9
f 9 29 10
f 10 29 30
f 10 30 31
f 10 31 32
f 10 32 33
f 10 33 11
f 11 33 12
f 12 33 34
f 12 34 35
f 12 35 13
f 13 15 14
f 13 35 36
f 13 36 37
f 13 37 15
f 19 38 39
f 19 39 40
f 19 40 41
f 19 41 42
f 19 42 22
f 19 22 20
f 20 22 21
f 22 42 23
f 23 42 43
f 23 43 44
f 23 44 26
f 26 44 45
f 26 45 27
f 27 45 46
f 27 46 47
f 27 47 28
f 28 47 29
f 29 47 48
f 29 48 49
f 29 49 30
f 30 49 31
f 31 34 50
f 31 50 32
f 31 49 51
f 31 51 34
f 32 50 33
f 33 50 34
f 34 51 52
f 34 52 53
f 34 53 35
f 35 53 54
f 35 54 36
f 36 54 55
f 36 55 56
f 36 56 37
f 38 57 58
f 38 58 59
f 38 59 39
f 39 59 58
f 39 58 67
f 39 67 70
f 39 70 69
f 39 69 64
f 39 64 63
f 39 63 60
f 39 60 51
f 39 51 49
f 39 49 48
f 39 48 47
f 39 47 46
f 39 46 45
f 39 45 40
f 40 45 41
f 41 45 43
f 41 43 42
f 43 45 44
f 51 60 52
f 52 60 53
f 53 60 61
f 53 61 54
f 54 56 62
f 54 62 55
f 54 61 63
f 54 63 56
f 55 62 56
f 56 63 64
f 56 64 65
f 57 66 58
f 58 66 68
f 58 68 65
f 58 65 67
f 60 63 61
f 64 69 65
f 65 69 70
f 65 70 67

