# https://github.com/mikedh/trimesh
v 1.84713559 -0.22990206 10.45465716
v 1.96097842 -0.55224718 10.58992971
v 1.94949208 -0.22990206 10.59378876
v 1.91707495 -0.22990206 9.79982420
v 1.93443226 -0.99357599 10.29257363
v 1.90124924 -0.77310598 10.46217228
v 1.97910145 -0.92941805 10.57875855
v 1.96991245 -0.77310598 10.58505507
v 1.95332086 -0.33138838 10.59277316
v 2.14016610 -1.21443479 10.59480434
v 2.10545180 -0.22990206 10.59419505
v 2.09753895 -0.77310598 10.59764812
v 2.09753895 -0.55224718 10.59886671
v 2.09753895 -0.33138838 10.59703885
v 1.95281043 -0.22990206 9.68100359
v 1.96327575 -1.21443479 10.32263439
v 1.96327575 -1.21443479 10.40834764
v 1.94004778 -0.99940848 10.47903068
v 2.00181899 -1.07639800 10.56372833
v 2.19427992 -1.59082802 10.58180531
v 2.17411485 -1.43529368 10.59094529
v 2.36785193 -1.87701128 10.59439838
v 2.31833294 -1.43529368 10.59805410
v 2.21291322 -0.22990206 10.57469652
v 4.45454624 -3.86201891 10.59399206
v 4.45454624 -3.74303530 10.58018043
v 4.29450244 -3.87562822 10.59460135
v 1.95970227 -0.22990206 9.67206675
v 1.96097842 -0.23845644 9.67267605
v 2.20780830 -1.98744068 10.35167922
v 1.98344082 -1.33536282 10.34660159
v 1.98344082 -1.33536282 10.36264740
v 2.18917467 -1.87701128 10.39616088
v 2.15497096 -1.66120740 10.47537462
v 2.22797337 -1.73819684 10.55783810
v 2.40129008 -2.04110016 10.58627365
v 2.59553775 -2.31795131 10.59196089
v 2.76043118 -2.53297762 10.59358577
v 2.52713000 -2.10797992 10.59460135
v 3.18466201 -2.99685907 10.59460135
v 3.40545600 -3.21771787 10.59460135
v 2.31450416 -0.22990206 10.53062114
v 4.45454624 -4.02066418 10.59074199
v 4.45454624 -3.72787053 10.57571178
v 3.86925076 -3.64232671 10.59378876
v 4.08442923 -3.80758203 10.59196089
v 2.38342250 -0.22990206 9.45758047
v 2.39541926 -0.24234493 9.45290883
v 4.19393269 -0.44220664 8.58541768
v 3.34342932 -1.43529368 9.26401481
v 3.19180897 -1.65615248 9.40822435
v 3.07209533 -1.58266250 9.45494002
v 3.11242515 -1.73003132 9.48378186
v 2.86329827 -1.77785815 9.68344108
v 2.39975863 -2.25457101 10.32040022
v 2.63842020 -2.66673714 10.33827388
v 2.20780830 -1.98744068 10.35208552
v 2.25758258 -1.87701128 10.50665394
v 2.44570414 -2.18846898 10.55986897
v 2.63408100 -2.45521045 10.58180531
v 2.83445478 -2.71261981 10.58749222
v 3.02666025 -2.93425634 10.58891411
v 2.96412331 -2.77561141 10.59378876
v 3.24719894 -3.15511514 10.58891411
v 3.46799293 -3.37597394 10.58891411
v 3.62676025 -3.43857667 10.59378876
v 2.41532904 -0.22990206 10.47598390
v 4.36112345 -4.00161108 10.58627365
v 4.45454624 -4.12215016 10.49121743
v 4.45454624 -3.62988400 10.54037041
v 2.52381165 -0.22990206 10.41606573
v 3.68955248 -3.56844787 10.58749222
v 3.94659254 -3.76869844 10.58200830
v 2.39388782 -0.22990206 9.45229955
v 3.49683642 -1.60210429 9.23070446
v 4.18831717 -0.33138838 8.58257415
v 4.30522322 -0.33138838 8.54763886
v 4.30522322 -0.46009297 8.56916874
v 4.45454624 -2.31795131 9.10355631
v 4.45454624 -2.46726430 9.14885026
v 4.30522322 -2.31795131 9.14092885
v 4.08442923 -2.09748138 9.14092885
v 3.86746402 -2.08931570 9.21303363
v 3.73651933 -2.01038209 9.24004759
v 3.69363655 -1.87701128 9.22014258
v 3.42281315 -1.66781762 9.28737273
v 3.42204726 -1.87701128 9.35602442
v 3.26761931 -1.87701128 9.44153469
v 3.30514154 -1.99716166 9.46468944
v 3.15734997 -1.87701128 9.51546747
v 3.25434591 -2.31795131 9.64566223
v 3.29595221 -2.44782250 9.67673824
v 2.83471007 -2.91092639 10.31674416
v 2.63842020 -2.66673714 10.37909950
v 2.39975863 -2.25457101 10.41261298
v 2.59987712 -2.53297762 10.45648537
v 2.68717363 -2.60257928 10.52635580
v 2.87937927 -2.85998863 10.56677510
v 3.10017326 -3.08162516 10.56677510
v 3.32071195 -3.30248396 10.56677510
v 3.54252679 -3.52295390 10.56677510
v 4.21384247 -3.95728371 10.56027526
v 4.41421609 -4.19525161 10.35371040
v 4.45454624 -4.17736511 10.40936323
v 4.45454624 -0.22990206 9.19840954
v 3.71329104 -0.22990206 8.81046575
v 3.58311191 -1.87701128 9.27295163
v 4.13522453 -0.22990206 8.60572892
v 4.18576454 -0.22990206 8.58155856
v 4.30522322 -0.22990206 8.54540461
v 4.45454624 -0.33138838 8.52610897
v 4.45454624 -0.47253585 8.55840380
v 4.45454624 -2.53764368 9.17302062
v 4.31313607 -2.53492179 9.21303363
v 4.08825801 -2.31406299 9.21059631
v 3.94352932 -2.23785111 9.23578226
v 3.79624834 -2.15775092 9.26584284
v 3.65483818 -2.08931570 9.30666827
v 3.42383400 -2.08153904 9.42589502
v 3.49862316 -2.25223798 9.44722176
v 3.35159747 -2.14453048 9.49698419
v 3.55886309 -2.39921811 9.48439131
v 3.43098130 -2.52831157 9.63814697
v 3.51087538 -2.67062563 9.67470722
v 3.05014351 -3.13178486 10.31674416
v 2.83471007 -2.91092639 10.41951879
v 2.96488887 -2.99608134 10.49324862
v 3.05014351 -3.13178486 10.41951879
v 3.40622155 -3.43779894 10.49324862
v 3.49147619 -3.56805900 10.41951879
v 3.73498756 -3.76442092 10.37970878
v 3.79931156 -3.71542782 10.52696508
v 4.14696616 -4.00316655 10.41322228
v 3.86925076 -3.80330484 10.45689134
v 4.41421609 -4.19525161 10.35086693
v 4.45454624 -4.20225053 10.36975652
v 4.45454624 -0.22990206 8.52387480
v 4.45454624 -2.68617893 9.23050132
v 4.39200897 -2.66595957 9.23984444
v 4.24472799 -2.60607874 9.26584284
v 4.16432331 -2.45870991 9.23578226
v 4.01704233 -2.38521994 9.26584284
v 3.86746402 -2.31406299 9.29854389
v 3.63645984 -2.32261737 9.40741191
v 3.70588878 -2.47542998 9.44376884
v 3.77965708 -2.62279880 9.48439131
v 3.63645984 -2.54503147 9.52277943
v 3.65177496 -2.75033696 9.63692839
v 3.73141408 -2.89148443 9.67470722
v 3.27068220 -3.35225512 10.31674416
v 3.27068220 -3.35225512 10.41951879
v 3.49147619 -3.56805900 10.31674416
v 3.73498756 -3.76442092 10.33807089
v 4.45454624 -4.20225053 10.34274254
v 4.14696616 -4.00316655 10.32019690
v 4.45454624 -3.46346209 9.71411095
v 4.45454624 -2.73750539 9.25528096
v 4.45454624 -2.79544190 9.28412280
v 4.31313607 -2.74761507 9.30646512
v 4.08825801 -2.53492179 9.29854389
v 4.07957927 -2.76589043 9.40720875
v 3.85725383 -2.54503147 9.40538072
v 3.92668276 -2.69628878 9.44376884
v 4.00274807 -2.84365760 9.48439131
v 3.85725383 -2.76589043 9.52277943
v 3.87384542 -2.97119593 9.63794398
v 3.95425010 -3.10651058 9.67633211
v 4.21384247 -3.29898450 9.70029931
v 4.36112345 -3.34486734 9.66312976
v 4.45454624 -3.38375059 9.64809955
v 4.45454624 -2.90237168 9.33896303
v 4.32079363 -2.97858371 9.42569186
v 4.15002938 -2.90392714 9.44701861
v 4.25774610 -3.05129596 9.49678104
v 4.08442923 -3.14850509 9.64545909
v 4.45454624 -3.33709036 9.61397678
v 4.45454624 -2.97975031 9.37999178
v 4.45454624 -3.08045857 9.43584744
v 4.40477179 -3.09756733 9.46448630
v 4.45454624 -3.15822574 9.48520375
v 4.45454624 -3.22977172 9.53659106
v 4.45454624 -3.11273210 9.45494002
f 1 2 3
f 1 3 11
f 1 11 24
f 1 24 42
f 1 42 67
f 1 67 71
f 1 71 105
f 1 105 137
f 1 137 110
f 1 110 109
f 1 109 108
f 1 108 106
f 1 106 74
f 1 74 47
f 1 47 28
f 1 28 15
f 1 15 4
f 1 4 5
f 1 5 6
f 1 6 7
f 1 7 8
f 1 8 2
f 2 9 3
f 2 8 10
f 2 10 9
f 3 9 12
f 3 12 13
f 3 13 14
f 3 14 11
f 4 15 16
f 4 16 5
f 5 16 6
f 6 16 17
f 6 17 18
f 6 18 7
f 7 18 19
f 7 19 20
f 7 20 21
f 7 21 8
f 8 21 10
f 9 10 12
f 10 21 22
f 10 22 23
f 10 23 12
f 11 14 25
f 11 25 26
f 11 26 24
f 12 23 13
f 13 23 27
f 13 27 25
f 13 25 14
f 15 28 29
f 15 29 30
f 15 30 31
f 15 31 16
f 16 31 32
f 16 32 17
f 17 19 18
f 17 32 33
f 17 33 34
f 17 34 19
f 19 34 35
f 19 35 20
f 20 35 36
f 20 36 22
f 20 22 21
f 22 36 37
f 22 37 38
f 22 38 39
f 22 39 23
f 23 39 40
f 23 40 41
f 23 41 27
f 24 26 42
f 25 27 43
f 25 43 69
f 25 69 104
f 25 104 136
f 25 136 154
f 25 154 156
f 25 156 170
f 25 170 176
f 25 176 181
f 25 181 180
f 25 180 182
f 25 182 178
f 25 178 177
f 25 177 171
f 25 171 158
f 25 158 157
f 25 157 138
f 25 138 113
f 25 113 80
f 25 80 79
f 25 79 112
f 25 112 111
f 25 111 137
f 25 137 105
f 25 105 70
f 25 70 44
f 25 44 26
f 26 44 42
f 27 41 45
f 27 45 46
f 27 46 43
f 28 47 48
f 28 48 29
f 29 48 49
f 29 49 50
f 29 50 51
f 29 51 52
f 29 52 53
f 29 53 54
f 29 54 55
f 29 55 30
f 30 55 56
f 30 56 94
f 30 94 57
f 30 57 32
f 30 32 31
f 32 57 33
f 33 57 35
f 33 35 34
f 35 57 58
f 35 58 59
f 35 59 36
f 36 59 60
f 36 60 37
f 37 60 61
f 37 61 38
f 38 61 62
f 38 62 63
f 38 63 40
f 38 40 39
f 40 63 62
f 40 62 64
f 40 64 65
f 40 65 41
f 41 65 66
f 41 66 45
f 42 44 67
f 43 46 68
f 43 68 69
f 44 70 71
f 44 71 67
f 45 66 65
f 45 65 72
f 45 72 46
f 46 72 73
f 46 73 68
f 47 74 48
f 48 74 49
f 49 75 50
f 49 74 76
f 49 76 77
f 49 77 78
f 49 78 79
f 49 79 80
f 49 80 81
f 49 81 82
f 49 82 83
f 49 83 84
f 49 84 85
f 49 85 75
f 50 75 86
f 50 86 51
f 51 86 87
f 51 87 88
f 51 88 52
f 52 88 53
f 53 88 89
f 53 89 90
f 53 90 54
f 54 90 91
f 54 91 92
f 54 92 56
f 54 56 55
f 56 93 126
f 56 126 94
f 56 92 93
f 57 95 59
f 57 59 58
f 57 94 95
f 59 95 96
f 59 96 97
f 59 97 98
f 59 98 60
f 60 98 61
f 61 98 62
f 62 99 100
f 62 100 64
f 62 98 99
f 64 100 65
f 65 100 101
f 65 101 72
f 68 102 69
f 68 73 102
f 69 103 104
f 69 102 103
f 70 105 71
f 72 101 73
f 73 101 102
f 74 106 76
f 75 85 84
f 75 84 107
f 75 107 86
f 76 106 108
f 76 108 109
f 76 109 110
f 76 110 77
f 77 111 78
f 77 110 137
f 77 137 111
f 78 111 112
f 78 112 79
f 80 113 114
f 80 114 81
f 81 114 115
f 81 115 82
f 82 115 83
f 83 115 116
f 83 116 117
f 83 117 84
f 84 117 118
f 84 118 107
f 86 107 87
f 87 107 118
f 87 118 119
f 87 119 88
f 88 119 89
f 89 119 120
f 89 120 121
f 89 121 90
f 90 121 91
f 91 121 92
f 92 121 120
f 92 120 122
f 92 122 123
f 92 123 124
f 92 124 93
f 93 124 125
f 93 125 128
f 93 128 126
f 94 126 98
f 94 98 97
f 94 97 96
f 94 96 95
f 98 126 127
f 98 127 99
f 99 127 128
f 99 128 100
f 100 129 101
f 100 128 129
f 101 129 130
f 101 130 131
f 101 131 132
f 101 132 102
f 102 133 103
f 102 132 134
f 102 134 133
f 103 135 154
f 103 154 136
f 103 136 104
f 103 133 131
f 103 131 153
f 103 153 135
f 113 138 139
f 113 139 114
f 114 139 140
f 114 140 141
f 114 141 115
f 115 141 116
f 116 141 142
f 116 142 143
f 116 143 117
f 117 143 144
f 117 144 118
f 118 144 120
f 118 120 119
f 120 144 122
f 122 145 146
f 122 146 147
f 122 147 123
f 122 144 145
f 123 147 124
f 124 148 149
f 124 149 125
f 124 147 148
f 125 149 150
f 125 150 151
f 125 151 128
f 126 128 127
f 128 151 129
f 129 151 130
f 130 151 150
f 130 150 152
f 130 152 153
f 130 153 131
f 131 133 134
f 131 134 132
f 135 153 155
f 135 155 156
f 135 156 154
f 138 157 139
f 139 157 158
f 139 158 159
f 139 159 140
f 140 160 141
f 140 159 161
f 140 161 160
f 141 160 142
f 142 160 143
f 143 160 162
f 143 162 144
f 144 162 145
f 145 162 163
f 145 163 146
f 146 163 164
f 146 164 165
f 146 165 147
f 147 165 148
f 148 165 149
f 149 165 166
f 149 166 167
f 149 167 152
f 149 152 150
f 152 167 153
f 153 167 155
f 155 167 168
f 155 168 169
f 155 169 156
f 156 169 170
f 158 171 159
f 159 171 172
f 159 172 173
f 159 173 161
f 160 161 162
f 161 173 164
f 161 164 163
f 161 163 162
f 164 173 167
f 164 167 166
f 164 166 165
f 167 173 174
f 167 174 175
f 167 175 169
f 167 169 168
f 169 175 170
f 170 175 176
f 171 177 172
f 172 177 178
f 172 178 179
f 172 179 173
f 173 179 174
f 174 179 180
f 174 180 181
f 174 181 176
f 174 176 175
f 178 182 179
f 179 182 180

