# https://github.com/mikedh/trimesh
v 6.38933578 -0.28670516 2.83830315
v 6.38933578 -0.27237410 2.83830315
v 6.49887543 -0.27237410 2.83869762
v 6.63443682 -0.44870891 2.83988166
v 6.55980032 -0.44870891 2.83988166
v 6.41255256 -0.43385858 2.84935325
v 5.95927954 -1.33329085 3.83770647
v 5.95927954 -1.32269829 3.83744327
v 5.95927954 -1.21428042 3.83573318
v 5.95927954 -1.10191631 3.83402276
v 5.95927954 -0.27237410 3.83560159
v 6.62508760 -0.27237410 2.84382820
v 6.63443682 -0.37165331 2.83988166
v 7.55079991 -1.33256394 3.76443164
v 5.95927954 -1.33329085 4.08791902
v 7.49049879 -1.33329085 3.78205956
v 5.95927954 -0.27237410 4.15369518
v 7.55079991 -0.27237410 3.83796932
v 7.55079991 -1.33329085 3.89308986
v 5.95927954 -1.32664460 4.08883986
v 6.51305487 -1.33329085 4.10909901
v 6.51305487 -1.21428042 4.12843702
v 6.29226154 -1.21428042 4.11909700
v 5.95927954 -0.28680904 4.15382678
v 6.04139529 -0.33125621 4.18211031
v 6.05261383 -0.27237410 4.18211031
v 7.55079991 -0.27237410 4.11909700
v 7.55079991 -1.33329085 4.04621697
v 5.95927954 -0.99349844 4.12896339
v 6.07162415 -0.99349844 4.13975063
v 6.73384886 -1.33329085 4.10581012
v 6.51305487 -0.71964981 4.18211031
v 6.29506650 -0.71030338 4.18211031
v 6.73384886 -1.21428042 4.12514844
v 6.67370302 -0.69836082 4.18211031
v 5.95927954 -0.33125621 4.15422122
v 5.95927954 -0.37809192 4.15422122
v 5.95927954 -0.66440237 4.14764375
v 5.95927954 -0.77282025 4.14224996
v 6.08175176 -0.44403574 4.18211031
v 7.02273444 -0.27237410 4.18211031
v 7.55079991 -0.33125621 4.11909700
v 7.39607291 -0.27237410 4.14409164
v 7.55079991 -1.28022420 4.05542538
v 7.49782209 -1.33329085 4.06187161
v 6.12989936 -0.55629601 4.18211031
v 7.39607291 -1.33329085 4.07581614
v 6.95448625 -0.99349844 4.14396038
v 6.80505730 -0.63885561 4.18211031
v 7.02398065 -0.33125621 4.18211031
v 7.39607291 -0.33125621 4.14409164
v 7.55079991 -0.39720003 4.11883382
v 7.55079991 -0.77282025 4.10160037
v 7.39607291 -0.77282025 4.12685853
v 7.17527958 -0.99349844 4.13106827
v 6.93952776 -0.53968028 4.18211031
v 7.39607291 -0.55203823 4.14317114
v 7.55079991 -0.55203823 4.11791298
v 7.55079991 -0.61798205 4.11304557
f 1 2 3
f 1 3 4
f 1 4 5
f 1 5 6
f 1 6 7
f 1 7 8
f 1 8 9
f 1 9 10
f 1 10 2
f 2 10 11
f 2 11 17
f 2 17 26
f 2 26 41
f 2 41 43
f 2 43 27
f 2 27 18
f 2 18 12
f 2 12 3
f 3 12 13
f 3 13 4
f 4 13 14
f 4 14 5
f 5 7 6
f 5 14 7
f 7 15 20
f 7 20 29
f 7 29 39
f 7 39 38
f 7 38 37
f 7 37 36
f 7 36 24
f 7 24 17
f 7 17 11
f 7 11 10
f 7 10 9
f 7 9 8
f 7 14 16
f 7 16 19
f 7 19 28
f 7 28 45
f 7 45 47
f 7 47 31
f 7 31 21
f 7 21 15
f 12 18 13
f 13 18 14
f 14 18 27
f 14 27 42
f 14 42 52
f 14 52 58
f 14 58 59
f 14 59 53
f 14 53 44
f 14 44 28
f 14 28 19
f 14 19 16
f 15 21 22
f 15 22 23
f 15 23 20
f 17 24 25
f 17 25 26
f 20 23 30
f 20 30 29
f 21 31 34
f 21 34 22
f 22 32 33
f 22 33 30
f 22 30 23
f 22 34 35
f 22 35 32
f 24 36 25
f 25 37 38
f 25 38 39
f 25 39 40
f 25 40 46
f 25 46 33
f 25 33 32
f 25 32 35
f 25 35 49
f 25 49 56
f 25 56 50
f 25 50 41
f 25 41 26
f 25 36 37
f 27 43 51
f 27 51 42
f 28 44 45
f 29 30 46
f 29 46 40
f 29 40 39
f 30 33 46
f 31 47 34
f 34 48 35
f 34 47 48
f 35 48 49
f 41 50 43
f 42 51 52
f 43 50 51
f 44 53 45
f 45 53 54
f 45 54 47
f 47 54 55
f 47 55 48
f 48 55 49
f 49 55 56
f 50 56 57
f 50 57 51
f 51 57 52
f 52 57 58
f 53 59 54
f 54 59 57
f 54 57 55
f 55 57 56
f 57 59 58

