# https://github.com/mikedh/trimesh
v 0.84948794 1.65517554 4.72322860
v 0.71995791 1.84792105 8.69561523
v 0.75986448 1.65603503 8.69561523
v 0.70216624 1.51400060 8.69561523
v 0.74905644 1.49928145 4.72322860
v 0.76352260 1.85673106 4.72322860
v 0.48949763 2.47278655 10.24121824
v 0.54436912 2.31807435 10.24121824
v 0.68836526 1.52463700 8.85068488
v 0.52524727 2.31807435 10.46193804
v 0.51809734 2.27552846 10.50495011
v 0.48467560 2.08622089 10.50495011
v 0.47902216 2.06419588 10.50495011
v 0.55168535 1.48209127 8.69561523
v 0.43495868 1.42117329 7.44883255
v 0.43861679 1.42117329 7.37129774
v 0.55185161 1.45071900 4.72322860
v 0.76302377 1.85780553 4.72322860
v 0.47719310 2.46333189 10.02049860
v 0.33103539 2.51780348 10.24121824
v 0.47652801 2.45914171 10.46193804
v 0.55168535 1.51400060 8.87841638
v 0.46738276 2.03690637 10.50495011
v 0.41151358 1.98834392 10.50495011
v 0.33103539 1.97588098 10.50495011
v 0.47054201 2.45376981 10.50495011
v 0.51610202 2.31882642 10.50495011
v 0.33103539 1.51400060 8.88350980
v -0.55173066 1.48209127 8.69561523
v 0.11021917 1.42117329 7.80481363
v 0.24939324 1.42117329 7.76066971
v 0.38391157 1.42117329 7.64748019
v 0.38407784 1.42117329 7.15284196
v 0.33236560 1.44835538 4.72322860
v 0.32671218 1.42117329 7.08662606
v 0.55185161 1.94934354 4.72322860
v 0.33103539 2.50480330 10.02049860
v 0.11021917 2.51135710 10.02049860
v 0.11021917 2.51877038 10.24121824
v 0.11021917 2.49266277 10.46193804
v 0.33103539 2.49126605 10.46193804
v 0.11021917 1.96470735 10.50495011
v 0.33103539 2.48052207 10.50495011
v -0.33091445 1.51400060 8.88350980
v -0.70204534 1.51400060 8.69561523
v -0.43849585 1.42117329 7.37129774
v -0.38828010 1.42117329 7.59201732
v -0.32758892 1.42117329 7.66219483
v -0.11026450 1.42117329 7.80481363
v -0.55173066 1.51400060 8.87785035
v -0.68824432 1.52463700 8.85068488
v -0.33108073 1.44835538 4.72322860
v 0.11021917 1.42117329 6.94740294
v -0.55189697 1.94934354 4.72322860
v -0.11026450 2.51135710 10.02049860
v -0.11026450 2.51877038 10.24121824
v -0.11026450 2.49266277 10.46193804
v 0.11021917 2.48224104 10.50495011
v 0.27766038 2.48116673 10.50495011
v -0.11026450 1.96470735 10.50495011
v -0.75941097 1.65603503 8.69561523
v -0.84920073 1.65603503 4.72322860
v -0.74910184 1.50014094 4.72322860
v -0.74760535 1.49917404 4.72322860
v -0.55189697 1.45071900 4.72322860
v -0.43517030 1.42117329 7.29432886
v -0.11259239 1.96481476 10.50495011
v -0.33108073 1.97609581 10.50495011
v -0.46759438 2.03744361 10.50495011
v -0.48488722 2.08622089 10.50495011
v -0.11026450 1.42117329 6.94740294
v -0.24411771 1.42117329 6.98758524
v -0.38096391 1.42117329 7.09851096
v -0.76273656 1.85780553 4.72322860
v -0.47673963 2.46322447 10.02049860
v -0.33108073 2.50458847 10.02049860
v -0.33108073 2.51769607 10.24121824
v -0.33108073 2.49115863 10.46193804
v -0.11026450 2.48224104 10.50495011
v -0.52562515 2.31807435 10.46193804
v -0.54391564 2.31807435 10.24121824
v -0.71967070 1.84770622 8.69561523
v -0.48921043 2.47267897 10.24121824
v -0.51631364 2.31882642 10.50495011
v -0.47624080 2.45903430 10.46193804
v -0.47042110 2.45376981 10.50495011
v -0.36732919 2.47643948 10.50495011
v -0.33108073 2.48041466 10.50495011
v -0.50533934 2.35374404 10.50495011
f 1 2 3
f 1 3 4
f 1 4 5
f 1 5 17
f 1 17 34
f 1 34 52
f 1 52 65
f 1 65 64
f 1 64 63
f 1 63 62
f 1 62 74
f 1 74 54
f 1 54 36
f 1 36 18
f 1 18 6
f 1 6 7
f 1 7 8
f 1 8 2
f 2 8 3
f 3 9 4
f 3 8 10
f 3 10 11
f 3 11 12
f 3 12 13
f 3 13 9
f 4 14 15
f 4 15 16
f 4 16 5
f 4 9 14
f 5 16 17
f 6 18 7
f 7 18 19
f 7 19 20
f 7 20 21
f 7 21 8
f 8 21 10
f 9 22 14
f 9 13 23
f 9 23 24
f 9 24 25
f 9 25 22
f 10 21 26
f 10 26 27
f 10 27 11
f 11 27 26
f 11 26 43
f 11 43 59
f 11 59 58
f 11 58 79
f 11 79 88
f 11 88 87
f 11 87 86
f 11 86 89
f 11 89 84
f 11 84 70
f 11 70 69
f 11 69 68
f 11 68 67
f 11 67 60
f 11 60 42
f 11 42 25
f 11 25 24
f 11 24 23
f 11 23 13
f 11 13 12
f 14 22 28
f 14 28 44
f 14 44 29
f 14 29 49
f 14 49 30
f 14 30 31
f 14 31 32
f 14 32 15
f 15 32 31
f 15 31 30
f 15 30 49
f 15 49 48
f 15 48 47
f 15 47 46
f 15 46 66
f 15 66 73
f 15 73 72
f 15 72 71
f 15 71 53
f 15 53 35
f 15 35 33
f 15 33 16
f 16 33 17
f 17 33 35
f 17 35 34
f 18 36 19
f 19 37 20
f 19 36 37
f 20 37 38
f 20 38 39
f 20 39 40
f 20 40 41
f 20 41 21
f 21 41 26
f 22 25 42
f 22 42 28
f 26 41 43
f 28 42 60
f 28 60 44
f 29 45 46
f 29 46 47
f 29 47 48
f 29 48 49
f 29 44 50
f 29 50 51
f 29 51 45
f 34 35 53
f 34 53 71
f 34 71 52
f 36 54 55
f 36 55 38
f 36 38 37
f 38 55 56
f 38 56 39
f 39 56 57
f 39 57 40
f 40 57 79
f 40 79 58
f 40 58 41
f 41 58 59
f 41 59 43
f 44 60 50
f 45 51 61
f 45 61 62
f 45 62 63
f 45 63 64
f 45 64 46
f 46 64 65
f 46 65 66
f 50 60 67
f 50 67 68
f 50 68 51
f 51 68 69
f 51 69 70
f 51 70 61
f 52 71 72
f 52 72 73
f 52 73 65
f 54 74 75
f 54 75 76
f 54 76 55
f 55 76 77
f 55 77 56
f 56 77 57
f 57 77 78
f 57 78 79
f 61 80 81
f 61 81 82
f 61 82 62
f 61 70 80
f 62 82 81
f 62 81 83
f 62 83 74
f 65 73 66
f 70 84 80
f 74 83 75
f 75 83 77
f 75 77 76
f 77 83 85
f 77 85 78
f 78 85 86
f 78 86 87
f 78 87 88
f 78 88 79
f 80 84 89
f 80 89 86
f 80 86 85
f 80 85 81
f 81 85 83

