# https://github.com/mikedh/trimesh
v 9.50027127 -4.12056246 0.30643505
v 9.50027127 -4.11944719 0.08569766
v 9.60402597 -4.11944719 0.08569766
v 9.82471205 -4.11907543 0.30643505
v 9.82471205 -4.11796081 1.41012010
v 9.50027127 -4.11665999 1.41012010
v 9.50027127 -4.08376763 0.01112431
v 9.82471205 -4.11796081 0.08569766
v 9.82471205 -4.04344209 -0.07295683
v 10.02149771 -4.04697280 0.30643505
v 10.02162009 -4.04697280 1.18938270
v 10.02143586 -4.04678692 1.41012010
v 10.00311181 -4.03006209 1.63104371
v 9.82471205 -4.08915648 1.63104371
v 9.60402597 -4.09212988 1.63104371
v 9.50027127 -4.09212988 1.63104371
v 9.50027127 -4.04344209 -0.07295683
v 9.99036478 -4.02021280 -0.05692320
v 10.01972051 -4.04511434 0.08569766
v 9.82471205 -3.86355661 -0.12142946
v 10.10472215 -3.86355661 0.08569766
v 10.10570254 -3.86355661 1.41012010
v 10.07469266 -3.86355661 1.63104371
v 9.96836395 -4.00051489 1.75502139
v 9.82471205 -4.01389456 1.76191964
v 9.50027127 -4.05068939 1.70039664
v 9.50027127 -3.86355661 -0.12142946
v 10.01794265 -3.86355661 -0.07295683
v 9.82471205 -2.53913121 -0.12142946
v 10.01824926 -2.53913121 -0.07295683
v 10.01812688 -3.20125097 -0.07295683
v 10.11238234 -3.42201963 0.08569766
v 10.12378182 -3.42201963 0.30643505
v 10.12286263 -3.42201963 0.96864594
v 10.12396540 -3.20125097 0.96864594
v 10.12396540 -2.22228761 0.96864594
v 10.10306733 -2.22228761 1.41012010
v 10.08909450 -2.22228761 1.53484392
v 10.07830825 -2.22228761 1.63104371
v 10.07830825 -2.53913121 1.63104371
v 10.07824706 -3.64278795 1.63104371
v 10.12390421 -3.42201963 0.74809541
v 9.98503318 -3.86355661 1.76191964
v 9.82471205 -3.86355661 1.78242751
v 9.50027127 -4.01389456 1.76191964
v 9.50027127 -3.93417287 1.77291907
v 9.50027127 -3.64278795 -0.12142946
v 10.11366935 -2.98066819 0.08569766
v 10.11354696 -3.20125097 0.08569766
v 9.82471205 -2.31836288 -0.12087017
v 10.01751364 -2.31836288 -0.07258374
v 10.11311796 -2.31836288 0.08569766
v 10.11379239 -2.53913121 0.08569766
v 10.12604922 -3.20125097 0.30643505
v 10.12617160 -3.20125097 0.74809541
v 10.12623279 -2.98066819 0.74809541
v 10.12623279 -2.22228761 0.74809541
v 9.98503318 -2.22228761 1.76191964
v 9.89451570 -2.22228761 1.77366456
v 9.82471205 -2.75989986 1.78261373
v 9.50027127 -3.52571379 1.78261373
v 9.50027127 -3.86355661 1.78242751
v 9.50027127 -2.22228761 1.78317301
v 9.50027127 -3.42201963 -0.08041435
v 9.51222148 -2.22228761 0.08569766
v 9.57221927 -2.22228761 -0.00397630
v 9.61842781 -2.22228761 -0.06941427
v 9.73682977 -2.22228761 -0.09644733
v 10.12623279 -2.75989986 0.30643505
v 9.82471205 -2.22228761 -0.11229408
v 10.01163066 -2.22228761 -0.06755022
v 10.10717378 -2.22228761 0.08569766
v 10.12623279 -2.22228761 0.30643505
v 10.12629399 -2.31836288 0.30643505
v 9.82471205 -2.22228761 1.78261373
v 9.50027127 -2.22228761 1.52104807
v 9.50027127 -3.29045052 -0.02933151
v 9.50204847 -2.22228761 0.30643505
v 9.50590949 -2.22228761 0.18171123
v 9.50891250 -2.31836288 0.08569766
v 9.50027127 -3.14698812 0.08569766
f 1 2 3
f 1 3 4
f 1 4 5
f 1 5 6
f 1 6 16
f 1 16 26
f 1 26 45
f 1 45 46
f 1 46 62
f 1 62 61
f 1 61 63
f 1 63 76
f 1 76 81
f 1 81 77
f 1 77 64
f 1 64 47
f 1 47 27
f 1 27 17
f 1 17 7
f 1 7 2
f 2 7 3
f 3 8 4
f 3 7 9
f 3 9 8
f 4 8 10
f 4 10 11
f 4 11 5
f 5 11 12
f 5 12 13
f 5 13 14
f 5 14 15
f 5 15 16
f 5 16 6
f 7 17 9
f 8 9 18
f 8 18 19
f 8 19 10
f 9 17 27
f 9 27 20
f 9 20 18
f 10 19 21
f 10 21 22
f 10 22 11
f 11 22 12
f 12 22 13
f 13 23 24
f 13 24 14
f 13 22 23
f 14 24 25
f 14 25 15
f 15 25 26
f 15 26 16
f 18 20 28
f 18 28 21
f 18 21 19
f 20 27 47
f 20 47 29
f 20 29 30
f 20 30 31
f 20 31 28
f 21 28 32
f 21 32 33
f 21 33 22
f 22 34 35
f 22 35 36
f 22 36 37
f 22 37 38
f 22 38 39
f 22 39 40
f 22 40 41
f 22 41 23
f 22 33 42
f 22 42 34
f 23 41 43
f 23 43 24
f 24 43 44
f 24 44 25
f 25 45 26
f 25 44 46
f 25 46 45
f 28 31 53
f 28 53 48
f 28 48 49
f 28 49 32
f 29 47 50
f 29 50 51
f 29 51 30
f 30 51 52
f 30 52 53
f 30 53 31
f 32 49 54
f 32 54 33
f 33 54 55
f 33 55 42
f 34 42 55
f 34 55 35
f 35 55 56
f 35 56 57
f 35 57 36
f 36 57 73
f 36 73 72
f 36 72 71
f 36 71 70
f 36 70 68
f 36 68 67
f 36 67 66
f 36 66 65
f 36 65 79
f 36 79 78
f 36 78 76
f 36 76 63
f 36 63 75
f 36 75 59
f 36 59 58
f 36 58 39
f 36 39 38
f 36 38 37
f 39 58 43
f 39 43 40
f 40 43 41
f 43 58 59
f 43 59 60
f 43 60 44
f 44 61 62
f 44 62 46
f 44 60 63
f 44 63 61
f 47 64 65
f 47 65 66
f 47 66 67
f 47 67 68
f 47 68 50
f 48 53 69
f 48 69 54
f 48 54 49
f 50 68 70
f 50 70 71
f 50 71 51
f 51 71 72
f 51 72 52
f 52 72 73
f 52 73 53
f 53 73 74
f 53 74 69
f 54 69 55
f 55 69 56
f 56 69 74
f 56 74 57
f 57 74 73
f 59 75 60
f 60 75 63
f 64 77 78
f 64 78 79
f 64 79 80
f 64 80 65
f 65 80 79
f 76 78 81
f 77 81 78

