# https://github.com/mikedh/trimesh
v 4.45454657 -2.77656778 9.27458243
v 4.45454657 -2.73756379 9.25509277
v 6.08036474 -2.54401571 8.51180080
v 6.14893929 -3.81532479 9.21790578
v 6.29223588 -3.98532348 9.27458243
v 4.45454657 -1.25541248 9.27458243
v 4.45454657 -2.68604915 9.23037614
v 4.45454657 -2.53739250 9.17287817
v 6.05577739 -2.51568265 8.51180080
v 6.26015744 -2.64299743 8.51180080
v 6.29223588 -2.65109271 8.51180080
v 6.34698037 -3.98789881 9.27458243
v 6.41670770 -0.22990206 9.20200047
v 6.29223588 -0.22990206 9.20200047
v 4.45454657 -0.22990206 9.19819226
v 6.41670770 -2.32176660 9.27458243
v 4.45454657 -2.46747962 9.14875896
v 5.97087576 -2.31808702 8.51180080
v 4.45454657 -2.31808702 9.10350730
v 4.45454657 -0.47238912 8.55832188
v 4.45454657 -0.33145960 8.52613799
v 4.52619453 -0.33145960 8.51583315
v 4.52619453 -0.22990206 8.51366765
v 6.41670770 -2.65514027 8.51180080
v 6.41670770 -3.98900290 9.27458243
v 6.41670770 -0.22990206 8.51180080
v 4.45454657 -0.22990206 8.52389783
v 5.53656831 -0.22990206 8.51180080
v 4.45454657 -0.29871101 8.52539127
f 1 2 3
f 1 3 4
f 1 4 5
f 1 5 12
f 1 12 25
f 1 25 16
f 1 16 6
f 1 6 15
f 1 15 27
f 1 27 29
f 1 29 21
f 1 21 20
f 1 20 19
f 1 19 17
f 1 17 8
f 1 8 7
f 1 7 2
f 2 7 3
f 3 8 9
f 3 9 18
f 3 18 28
f 3 28 26
f 3 26 24
f 3 24 11
f 3 11 10
f 3 10 4
f 3 7 8
f 4 10 5
f 5 10 11
f 5 11 12
f 6 13 14
f 6 14 15
f 6 16 13
f 8 17 9
f 9 17 19
f 9 19 20
f 9 20 21
f 9 21 22
f 9 22 23
f 9 23 18
f 11 24 12
f 12 24 25
f 13 26 28
f 13 28 23
f 13 23 27
f 13 27 15
f 13 15 14
f 13 16 25
f 13 25 24
f 13 24 26
f 18 23 28
f 21 29 22
f 22 29 27
f 22 27 23

