# https://github.com/mikedh/trimesh
v -9.82467915 2.83686430 -0.12142815
v -10.01797555 2.83686430 -0.07298775
v -9.82467915 2.98056884 -0.12142815
v -9.16229915 3.20127137 -0.12142815
v -8.94180323 3.20127137 -0.11692230
v -8.94180323 3.01033876 -0.07073483
v -9.59236658 2.83686430 -0.07824500
v -10.11339760 2.83686430 0.08566277
v -10.01797555 2.98056884 -0.07298775
v -9.82467915 3.20127137 -0.11316723
v -9.60396017 3.20127137 -0.11786124
v -9.38301813 3.20127137 -0.12067740
v -10.01017192 3.20127137 -0.06754297
v -9.16229915 3.36868156 -0.07298775
v -8.94180323 3.37125426 -0.07073483
v -8.77481480 3.35140765 -0.05402480
v -8.74672305 3.20127137 -0.06866944
v -8.77481480 3.03882266 -0.05402480
v -9.47331256 2.83686430 -0.03018030
v -10.11785607 2.83686430 0.16282921
v -10.11339760 2.98056884 0.08566277
v -9.98007399 3.33419492 -0.04951896
v -9.82467915 3.34932514 -0.06472682
v -9.60396017 3.35685933 -0.06960837
v -9.38301813 3.36329107 -0.07223699
v -10.09422344 3.20127137 0.08566277
v -8.94180323 3.44402540 0.08566277
v -8.70926827 3.39587912 0.06989169
v -8.50014221 3.37376576 0.13203777
v -8.05870426 3.36476133 0.36672829
v -8.35054416 3.34350565 0.17390695
v -8.63636356 3.20127137 -0.00952766
v -8.35054416 3.04843967 0.17390695
v -8.50014221 3.01217649 0.13147454
v -8.70926827 2.98399921 0.06951598
v -8.94180323 2.91478083 0.08566277
v -8.50014221 2.91667975 0.30646005
v -8.05870426 2.92886947 0.52725734
v -7.84868664 2.90234602 0.73735193
v -7.84868664 2.90093695 0.74805395
v -7.84868664 2.83686430 1.53961887
v -10.12588275 2.83686430 0.30646005
v -10.12588275 2.98056884 0.30646005
v -9.82467915 3.39085611 0.08566277
v -10.00504429 3.34718112 0.08566277
v -9.60396017 3.40678248 0.08566277
v -9.38301813 3.42166728 0.08566277
v -9.16229915 3.43551115 0.08566277
v -10.10358780 3.20127137 0.30646005
v -8.94180323 3.45492876 0.30646005
v -8.72086119 3.45958429 0.30646005
v -8.50014221 3.44825225 0.30646005
v -8.05870426 3.44028906 0.52725734
v -7.84868664 3.38711944 0.51730606
v -7.84868664 3.38258663 0.51017161
v -7.92136829 3.33223480 0.40427912
v -7.84868664 3.25517595 0.42887437
v -7.84868664 3.20127137 0.42399284
v -7.92136829 3.06307970 0.40427912
v -7.84868664 3.00268186 0.50979590
v -7.84868664 2.99931301 0.51336345
v -7.84868664 2.99716898 0.51693035
v -7.84868664 2.83686430 1.79665236
v -10.12610515 2.83686430 0.74805395
v -10.12588275 2.98056884 0.74805395
v -10.10693164 3.20127137 0.96866372
v -10.10670925 3.20127137 0.74805395
v -9.82467915 3.39612388 0.30646005
v -9.60396017 3.41303032 0.30646005
v -9.38301813 3.42987556 0.30646005
v -10.00816574 3.34969262 0.30646005
v -9.16229915 3.44525055 0.30646005
v -10.01507715 3.35698204 1.41025762
v -10.01396253 3.35551179 1.18946034
v -10.01262486 3.35404154 0.96866372
v -10.01128719 3.35257161 0.74805395
v -10.00972647 3.35116255 0.52725734
v -8.94180323 3.44966098 0.52725734
v -9.16229915 3.44396420 0.52725734
v -9.60396017 3.41835962 1.18946034
v -9.38301813 3.42932418 0.96866372
v -9.16229915 3.43973768 0.74805395
v -8.72086119 3.45370394 0.52725734
v -8.50014221 3.45768536 0.52725734
v -7.84868664 3.46258566 0.74805395
v -9.82467915 2.83686430 1.78257096
v -7.84868664 3.20127137 1.78257096
v -8.72086119 3.20127137 1.78257096
v -8.94180323 3.20127137 1.78238343
v -9.38301813 3.20127137 1.78163201
v -9.60396017 3.20127137 1.78106878
v -9.82467915 3.20127137 1.78031803
v -9.82467915 2.98056884 1.78257096
v -10.12387591 2.83686430 0.96866372
v -10.12387591 2.98056884 0.96866372
v -10.10492547 3.20127137 1.41025762
v -9.82467915 3.39906406 0.52725734
v -9.82467915 3.40488356 0.96866372
v -9.60396017 3.41884948 0.74805395
v -9.38301813 3.43232588 0.52725734
v -9.82467915 3.40708877 1.18946034
v -9.60396017 3.42007464 0.96866372
v -9.38301813 3.43250945 0.74805395
v -9.99746437 3.34558848 1.63105423
v -9.82467915 3.40714996 1.41025762
v -8.94180323 3.44378063 0.74805395
v -9.60396017 3.41382680 1.41025762
v -9.38301813 3.42387249 1.18946034
v -9.16229915 3.43385699 0.96866372
v -8.50014221 3.45174382 0.74805395
v -8.27942324 3.45560286 0.74805395
v -8.05870426 3.45921681 0.74805395
v -7.84868664 3.43759365 1.41025762
v -8.72086119 3.42950808 1.41025762
v -8.50014221 3.43269336 1.41025762
v -9.92901879 2.83686430 1.76924030
v -7.84868664 3.33768649 1.76304478
v -8.72086119 3.34050428 1.76191832
v -8.94180323 3.33946303 1.76173013
v -9.16229915 3.33829906 1.76154261
v -9.82467915 3.33419492 1.75966540
v -9.96446805 3.32617054 1.75328169
v -9.98208083 3.20127137 1.76060367
v -9.38301813 3.33701272 1.76097938
v -9.60396017 3.33566517 1.76041616
v -9.98497923 2.98056884 1.76191832
v -10.10871542 2.98056884 1.41025762
v -10.10492547 2.83686430 1.41025762
v -10.07817139 2.98056884 1.63105423
v -10.06903075 3.20127137 1.63105423
v -9.82467915 3.38154538 1.63105423
v -7.84868664 3.40911008 1.63105423
v -8.72086119 3.39851300 1.63105423
v -9.60396017 3.38515933 1.63105423
v -8.50014221 3.40157557 1.63105423
v -9.98497923 2.83686430 1.76191832
v -7.84868664 3.34454723 1.76191832
v -7.84868664 3.40604719 1.63743794
v -10.07817139 2.83686430 1.63105423
f 1 2 9
f 1 9 3
f 1 3 4
f 1 4 5
f 1 5 6
f 1 6 7
f 1 7 19
f 1 19 41
f 1 41 63
f 1 63 86
f 1 86 116
f 1 116 136
f 1 136 139
f 1 139 128
f 1 128 94
f 1 94 64
f 1 64 42
f 1 42 20
f 1 20 8
f 1 8 2
f 2 8 21
f 2 21 9
f 3 10 11
f 3 11 12
f 3 12 4
f 3 9 13
f 3 13 10
f 4 12 14
f 4 14 15
f 4 15 5
f 5 15 16
f 5 16 17
f 5 17 18
f 5 18 6
f 6 18 7
f 7 18 19
f 8 20 21
f 9 21 13
f 10 22 23
f 10 23 24
f 10 24 11
f 10 13 22
f 11 24 25
f 11 25 12
f 12 25 14
f 13 21 26
f 13 26 22
f 14 25 27
f 14 27 15
f 15 27 16
f 16 27 28
f 16 28 29
f 16 29 30
f 16 30 31
f 16 31 32
f 16 32 17
f 17 32 18
f 18 32 33
f 18 33 34
f 18 34 35
f 18 35 19
f 19 35 36
f 19 36 37
f 19 37 38
f 19 38 39
f 19 39 40
f 19 40 41
f 20 42 43
f 20 43 21
f 21 43 26
f 22 44 23
f 22 26 45
f 22 45 44
f 23 44 46
f 23 46 47
f 23 47 48
f 23 48 24
f 24 48 27
f 24 27 25
f 26 49 45
f 26 43 49
f 27 48 50
f 27 50 51
f 27 51 52
f 27 52 28
f 28 52 53
f 28 53 54
f 28 54 29
f 29 54 55
f 29 55 30
f 30 55 56
f 30 56 31
f 31 56 32
f 32 56 57
f 32 57 58
f 32 58 59
f 32 59 33
f 33 59 60
f 33 60 61
f 33 61 34
f 34 61 62
f 34 62 37
f 34 37 35
f 35 37 36
f 37 62 38
f 38 62 39
f 39 62 61
f 39 61 60
f 39 60 58
f 39 58 57
f 39 57 55
f 39 55 54
f 39 54 85
f 39 85 113
f 39 113 132
f 39 132 138
f 39 138 137
f 39 137 117
f 39 117 87
f 39 87 63
f 39 63 41
f 39 41 40
f 42 64 43
f 43 64 65
f 43 65 66
f 43 66 67
f 43 67 49
f 44 68 69
f 44 69 70
f 44 70 46
f 44 45 68
f 45 49 71
f 45 71 68
f 46 70 72
f 46 72 47
f 47 72 48
f 48 72 50
f 49 73 74
f 49 74 75
f 49 75 76
f 49 76 77
f 49 77 71
f 49 67 73
f 50 78 51
f 50 72 79
f 50 79 80
f 50 80 81
f 50 81 82
f 50 82 78
f 51 78 106
f 51 106 83
f 51 83 84
f 51 84 85
f 51 85 52
f 52 85 53
f 53 85 54
f 55 57 56
f 58 60 59
f 63 87 88
f 63 88 89
f 63 89 90
f 63 90 91
f 63 91 92
f 63 92 93
f 63 93 86
f 64 94 95
f 64 95 65
f 65 95 96
f 65 96 66
f 66 96 73
f 66 73 67
f 68 97 69
f 68 71 97
f 69 97 98
f 69 98 99
f 69 99 70
f 70 100 72
f 70 99 100
f 71 77 101
f 71 101 98
f 71 98 97
f 72 100 102
f 72 102 103
f 72 103 79
f 73 96 104
f 73 104 105
f 73 105 101
f 73 101 74
f 74 101 75
f 75 101 77
f 75 77 76
f 78 82 106
f 79 103 105
f 79 105 80
f 80 105 107
f 80 107 81
f 81 107 82
f 82 107 108
f 82 108 109
f 82 109 106
f 83 106 84
f 84 106 110
f 84 110 111
f 84 111 112
f 84 112 85
f 85 112 114
f 85 114 115
f 85 115 113
f 86 93 116
f 87 117 88
f 88 118 89
f 88 117 118
f 89 118 119
f 89 119 120
f 89 120 90
f 90 120 91
f 91 120 92
f 92 121 122
f 92 122 123
f 92 123 93
f 92 120 124
f 92 124 125
f 92 125 121
f 93 123 126
f 93 126 116
f 94 127 95
f 94 128 127
f 95 127 96
f 96 129 130
f 96 130 104
f 96 127 129
f 98 101 99
f 99 101 100
f 100 101 102
f 101 105 102
f 102 105 103
f 104 130 122
f 104 122 131
f 104 131 105
f 105 131 107
f 106 109 110
f 107 131 114
f 107 114 108
f 108 114 110
f 108 110 109
f 110 114 111
f 111 114 112
f 113 115 132
f 114 133 115
f 114 131 134
f 114 134 133
f 115 133 135
f 115 135 132
f 116 126 136
f 117 137 118
f 118 137 138
f 118 138 119
f 119 138 120
f 120 138 132
f 120 132 124
f 121 134 131
f 121 131 122
f 121 125 132
f 121 132 135
f 121 135 133
f 121 133 134
f 122 130 123
f 123 130 129
f 123 129 126
f 124 132 125
f 126 129 139
f 126 139 136
f 127 128 139
f 127 139 129

