# https://github.com/mikedh/trimesh
v -9.22616389 -1.66266564 1.97381348
v -8.88300361 -1.66266564 1.97381348
v -9.04736145 -2.09138191 1.97381348
v -7.94019504 -1.75107973 3.49992582
v -7.88915431 -1.66266564 3.60666314
v -8.53823787 -2.27166810 1.97414805
v -8.62170116 -2.22105209 1.97381348
v -7.37104340 -1.66266564 3.68295216
v -5.94703916 -2.27166810 3.68295216
v -8.94784808 -2.27166810 1.97381348
v -8.61560170 -2.21395744 2.41029982
v -8.17517505 -1.99378655 3.07414677
v -7.88145004 -1.66266564 3.61603209
v -7.75176176 -1.78697001 3.68295216
v -7.82623641 -1.66308280 3.68295216
v -8.63839342 -2.27166810 1.97381348
v -7.82623641 -1.66266564 3.68295216
v -6.92644320 -2.27166810 3.68295216
v -8.66792680 -2.27166810 2.27662681
v -8.48783933 -2.27166810 2.45764566
v -8.39410433 -2.21121498 2.62946300
v -7.61854212 -1.86781273 3.68295216
v -7.94115832 -1.98228015 3.28176638
v -8.27982460 -2.27166810 2.63029929
f 1 2 7
f 1 7 16
f 1 16 10
f 1 10 3
f 1 3 4
f 1 4 5
f 1 5 13
f 1 13 17
f 1 17 8
f 1 8 2
f 2 6 7
f 2 8 9
f 2 9 6
f 3 10 11
f 3 11 12
f 3 12 4
f 4 13 5
f 4 12 14
f 4 14 15
f 4 15 13
f 6 16 7
f 6 9 18
f 6 18 24
f 6 24 20
f 6 20 19
f 6 19 10
f 6 10 16
f 8 17 15
f 8 15 14
f 8 14 22
f 8 22 18
f 8 18 9
f 10 19 11
f 11 19 20
f 11 20 21
f 11 21 12
f 12 21 14
f 13 15 17
f 14 21 23
f 14 23 22
f 18 22 21
f 18 21 24
f 20 24 21
f 21 22 23

