# https://github.com/mikedh/trimesh
v 10.92633498 -0.55225129 10.46223150
v 10.90837282 -0.77283119 10.46223150
v 10.87311437 -0.99355190 10.29083987
v 10.88908022 -0.77283119 10.27885182
v 10.89839391 -0.55225129 10.27529479
v 10.84583852 -0.55225129 10.59067618
v 10.83719004 -0.77283119 10.58632892
v 10.82754342 -0.93692789 10.57987381
v 10.86812492 -1.00369349 10.48054304
v 10.84450808 -1.21441341 10.41375162
v 10.84450808 -1.21441341 10.31995411
v 10.19720962 -0.99355190 9.65243628
v 10.22149167 -0.77283119 9.63083122
v 10.35421059 -0.55225129 9.71264069
v 10.70779654 -0.55225129 10.59871240
v 10.70779654 -0.77283119 10.59818536
v 10.66854679 -1.21441341 10.59476026
v 10.63328769 -1.43499331 10.59159834
v 10.80658811 -1.08412202 10.56630466
v 10.61233172 -1.59514617 10.58264029
v 10.82355212 -1.34005660 10.36711638
v 10.57973414 -1.74234029 10.56064011
v 10.65291322 -1.66360195 10.47711794
v 10.61831933 -1.87657553 10.40202710
v 10.82355212 -1.34005660 10.34432564
v 10.61831933 -1.87657553 10.32614569
v 10.17192942 -1.15046503 9.67496351
v 10.03787940 -1.01327168 9.52807533
v 9.95937859 -0.95284464 9.45114018
v 10.09143295 -0.77283119 9.52043456
v 10.24411035 -0.55225129 9.61871126
v 10.57707327 -0.55225129 10.58066406
v 10.17558844 -1.99095034 10.59146674
v 10.25941099 -1.87995606 10.59357459
v 10.26905761 -1.99095034 10.59396970
v 10.36119636 -1.99095034 10.59436481
v 10.44002945 -1.87657553 10.59423321
v 10.41608034 -1.99095034 10.58896380
v 10.59902673 -1.99024597 10.35710425
v 10.55046263 -1.87657553 10.51242376
v 10.59836151 -1.99095034 10.35789481
v 10.45100651 -1.99095034 10.56314307
v 10.59902673 -1.99024597 10.34933188
v 9.96902521 -1.65585491 9.66007706
v 10.14531878 -1.29751827 9.69959856
v 10.00993834 -1.43499331 9.62635220
v 9.87489082 -1.43499331 9.51595554
v 9.93343383 -1.10003869 9.46997878
v 9.76445764 -1.43499331 9.43361904
v 9.80304217 -1.21441341 9.41056494
v 9.84561932 -1.01327168 9.39475633
v 9.82333292 -0.55225129 9.28686263
v 9.98099977 -0.77283119 9.43480470
v 9.99896193 -0.55225129 9.41293612
v 10.46664009 -0.55225129 10.53323859
v 9.93809034 -1.99095034 10.51071104
v 10.01991724 -1.99095034 10.54417255
v 10.09974849 -1.99095034 10.57302328
v 10.12702434 -1.99095034 10.58132302
v 10.51254266 -1.99095034 10.48423167
v 10.59802858 -1.99095034 10.34880484
v 9.94341273 -1.78037114 9.68220917
v 9.73485320 -1.58542700 9.45377506
v 9.60379699 -1.43499331 9.33771352
v 9.59548145 -1.23159784 9.29068302
v 9.76645329 -0.55225129 9.25300584
v 10.24643894 -0.55225129 10.41059003
v 7.52818387 -1.99095034 9.25300584
v 9.71489539 -1.99095034 10.40202710
v 9.81934162 -1.99095034 10.45485423
v 9.77044459 -1.99095034 9.65362196
v 9.82333292 -1.86305341 9.63280731
v 9.65036544 -1.87657553 9.51371593
v 9.69460530 -1.73262113 9.48249385
v 9.53993160 -1.87657553 9.43994253
v 9.61410817 -1.65782687 9.40648103
v 9.46409230 -1.43499331 9.26262269
v 9.49502652 -1.32104109 9.25300584
v 9.49901848 -1.30977271 9.25300584
v 8.76922724 -0.55225129 9.25300584
v 10.24510850 -0.55225129 10.40979979
v 10.15563063 -0.55225129 10.35196642
v 8.62020887 -0.55225129 9.25366464
v 8.59692497 -0.61408694 9.25300584
v 9.11050635 -1.99095034 9.25300584
v 9.62508523 -1.99095034 9.54783608
v 9.50434021 -1.99095034 9.46181096
v 9.38259768 -1.99095034 9.39251675
v 9.38293062 -1.87657553 9.35325876
v 9.38326290 -1.66923622 9.28580871
v 9.34002119 -1.63120505 9.25300584
v 9.44446677 -1.43499331 9.25300584
v 9.48371718 -1.34681774 9.25300584
v 9.18534815 -1.87657553 9.25300584
v 9.22459856 -1.87657553 9.27171266
v 9.18534815 -1.99095034 9.28962910
v 9.26285081 -1.75431288 9.25300584
f 1 2 3
f 1 3 4
f 1 4 5
f 1 5 14
f 1 14 31
f 1 31 54
f 1 54 52
f 1 52 66
f 1 66 80
f 1 80 83
f 1 83 82
f 1 82 81
f 1 81 67
f 1 67 55
f 1 55 32
f 1 32 15
f 1 15 6
f 1 6 7
f 1 7 8
f 1 8 2
f 2 8 9
f 2 9 10
f 2 10 11
f 2 11 3
f 3 11 12
f 3 12 13
f 3 13 14
f 3 14 4
f 4 14 5
f 6 15 16
f 6 16 17
f 6 17 7
f 7 17 18
f 7 18 8
f 8 19 9
f 8 18 20
f 8 20 19
f 9 19 10
f 10 21 25
f 10 25 11
f 10 19 22
f 10 22 23
f 10 23 24
f 10 24 21
f 11 25 26
f 11 26 27
f 11 27 12
f 12 27 28
f 12 28 29
f 12 29 30
f 12 30 13
f 13 30 31
f 13 31 14
f 15 32 33
f 15 33 34
f 15 34 35
f 15 35 36
f 15 36 16
f 16 36 37
f 16 37 17
f 17 37 18
f 18 37 20
f 19 20 22
f 20 37 38
f 20 38 22
f 21 24 39
f 21 39 43
f 21 43 25
f 22 40 41
f 22 41 24
f 22 24 23
f 22 38 42
f 22 42 40
f 24 41 39
f 25 43 26
f 26 43 44
f 26 44 45
f 26 45 27
f 27 45 44
f 27 44 46
f 27 46 47
f 27 47 28
f 28 47 48
f 28 48 29
f 29 48 49
f 29 49 50
f 29 50 51
f 29 51 52
f 29 52 53
f 29 53 30
f 30 53 54
f 30 54 31
f 32 55 56
f 32 56 57
f 32 57 58
f 32 58 59
f 32 59 33
f 33 35 34
f 33 59 58
f 33 58 57
f 33 57 56
f 33 56 70
f 33 70 69
f 33 69 68
f 33 68 85
f 33 85 96
f 33 96 88
f 33 88 87
f 33 87 86
f 33 86 71
f 33 71 61
f 33 61 41
f 33 41 60
f 33 60 42
f 33 42 38
f 33 38 36
f 33 36 35
f 36 38 37
f 39 41 43
f 40 42 60
f 40 60 41
f 41 61 43
f 43 61 62
f 43 62 44
f 44 62 63
f 44 63 47
f 44 47 46
f 47 63 49
f 47 49 48
f 49 63 64
f 49 64 50
f 50 64 65
f 50 65 66
f 50 66 52
f 50 52 51
f 52 54 53
f 55 67 68
f 55 68 69
f 55 69 70
f 55 70 56
f 61 71 62
f 62 71 72
f 62 72 73
f 62 73 74
f 62 74 63
f 63 74 75
f 63 75 76
f 63 76 64
f 64 76 77
f 64 77 78
f 64 78 65
f 65 78 79
f 65 79 66
f 66 79 78
f 66 78 93
f 66 93 92
f 66 92 91
f 66 91 97
f 66 97 94
f 66 94 85
f 66 85 68
f 66 68 84
f 66 84 80
f 67 81 68
f 68 81 82
f 68 82 83
f 68 83 84
f 71 86 72
f 72 86 73
f 73 86 87
f 73 87 74
f 74 87 75
f 75 87 88
f 75 88 89
f 75 89 76
f 76 89 90
f 76 90 77
f 77 90 91
f 77 91 92
f 77 92 93
f 77 93 78
f 80 84 83
f 85 94 95
f 85 95 96
f 88 96 89
f 89 96 95
f 89 95 90
f 90 95 91
f 91 95 97
f 94 97 95

