# https://github.com/mikedh/trimesh
v 8.94111959 -0.33100430 6.51287436
v 8.94111959 -0.51129742 6.56207169
v 8.76941674 -0.50391300 6.56396386
v 8.73479521 -0.33100430 6.53747299
v 8.73736857 -0.11049458 6.54054788
v 8.94111959 -0.11049458 6.51772310
v 9.97531549 -0.14968873 6.98426968
v 9.97718678 -0.33100430 6.98557059
v 9.06252852 -0.47198964 6.58454158
v 8.94158807 -0.57423527 6.60476447
v 8.94158807 -0.62172270 6.63693199
v 8.76567415 -0.71328929 6.75507643
v 7.61545027 -0.45812969 7.01442671
v 7.61545027 -0.33100430 6.92419223
v 7.61545027 -0.11288031 6.94973699
v 8.77269150 0.05150791 6.56810305
v 8.94111959 0.05559775 6.56692042
v 9.06065722 0.02242472 6.58678858
v 8.96123795 0.14193848 6.63929726
v 8.94111959 0.16602301 6.64994088
v 9.06206069 0.23736773 6.79445799
v 9.82419816 -0.03131103 7.15054716
v 9.99309408 -0.12628585 7.15054716
v 10.00525813 -0.33100430 7.15054716
v 9.95028532 -0.45244940 7.02329643
v 8.94158807 -0.71715196 6.74738943
v 8.70368334 -0.74578069 6.92750356
v 8.94158807 -0.79883484 6.92998710
v 7.61545027 -0.45892494 7.15054716
v 8.72099345 -0.78281635 7.15054716
v 7.61545027 -0.03062938 7.15054716
v 8.76941674 0.26020260 6.76560188
v 8.94111959 0.14193848 6.63172845
v 8.94111959 0.26292914 6.76028006
v 8.94111959 0.32802553 6.92986882
v 9.97133867 -0.16593443 7.29494598
v 8.94111959 0.34404402 7.15054716
v 8.94111959 0.29814708 7.37122547
v 9.05527693 0.22521186 7.48688644
v 9.96291720 -0.33100430 7.28678584
v 9.93531367 -0.44188399 7.26135936
v 9.94677632 -0.44995007 7.15054716
v 8.94158807 -0.81655742 7.15054716
v 7.61545027 -0.44245203 7.26088631
v 8.70882939 -0.72521795 7.35999049
v 8.94158807 -0.76816110 7.37134372
v 7.61545027 -0.03131103 7.15220284
v 8.78649326 0.24191198 7.50592674
v 8.74462015 0.27792518 7.37122547
v 8.70087575 0.29042188 7.13032420
v 8.70625604 0.28110613 6.95127439
v 9.05574476 -0.19479042 7.70673693
v 9.05574476 -0.25250240 7.70673693
v 9.00451453 -0.04767034 7.67492423
v 8.94111959 0.23998069 7.50379801
v 8.85690554 0.00674706 7.70626384
v 9.01925194 -0.39962246 7.68166522
v 8.94392718 -0.53719961 7.63069395
v 9.06018940 -0.67454960 7.49516483
v 7.61545027 -0.44211124 7.26218720
v 8.77432921 -0.69443063 7.51657041
v 8.94158807 -0.69556680 7.51798955
v 7.61545027 -0.13821451 7.31327669
v 8.81877567 0.00674706 7.70626384
v 8.93503789 -0.11697014 7.71832665
v 8.94392718 -0.32805053 7.71986410
v 8.78766315 -0.11049458 7.71915451
v 8.87211143 -0.45403990 7.70874738
v 8.94345936 -0.57423527 7.60443961
v 7.61545027 -0.33191316 7.31374977
v 8.81152409 -0.45403990 7.70874738
v 7.61545027 -0.13980500 7.31339497
v 8.78251710 -0.33100430 7.72104669
f 1 2 3
f 1 3 4
f 1 4 5
f 1 5 6
f 1 6 7
f 1 7 8
f 1 8 9
f 1 9 2
f 2 9 10
f 2 10 11
f 2 11 3
f 3 12 13
f 3 13 14
f 3 14 4
f 3 11 12
f 4 14 5
f 5 14 15
f 5 15 16
f 5 16 6
f 6 16 17
f 6 17 18
f 6 18 7
f 7 18 19
f 7 19 20
f 7 20 21
f 7 21 22
f 7 22 23
f 7 23 24
f 7 24 8
f 8 24 25
f 8 25 9
f 9 25 11
f 9 11 10
f 11 25 26
f 11 26 12
f 12 27 13
f 12 26 28
f 12 28 27
f 13 29 44
f 13 44 60
f 13 60 70
f 13 70 72
f 13 72 63
f 13 63 47
f 13 47 31
f 13 31 15
f 13 15 14
f 13 27 30
f 13 30 29
f 15 31 32
f 15 32 16
f 16 32 20
f 16 20 33
f 16 33 17
f 17 33 18
f 18 33 19
f 19 33 20
f 20 32 34
f 20 34 21
f 21 34 35
f 21 35 22
f 22 36 23
f 22 35 37
f 22 37 38
f 22 38 39
f 22 39 36
f 23 36 24
f 24 36 40
f 24 40 41
f 24 41 42
f 24 42 25
f 25 42 43
f 25 43 28
f 25 28 26
f 27 28 30
f 28 43 30
f 29 30 44
f 30 45 44
f 30 43 46
f 30 46 45
f 31 47 48
f 31 48 49
f 31 49 50
f 31 50 51
f 31 51 32
f 32 51 35
f 32 35 34
f 35 51 37
f 36 52 53
f 36 53 40
f 36 39 54
f 36 54 52
f 37 51 50
f 37 50 49
f 37 49 38
f 38 49 48
f 38 48 55
f 38 55 39
f 39 55 56
f 39 56 54
f 40 53 57
f 40 57 41
f 41 57 58
f 41 58 59
f 41 59 46
f 41 46 43
f 41 43 42
f 44 45 60
f 45 46 61
f 45 61 60
f 46 59 62
f 46 62 61
f 47 63 48
f 48 63 64
f 48 64 56
f 48 56 55
f 52 54 56
f 52 56 65
f 52 65 66
f 52 66 53
f 53 66 57
f 56 64 67
f 56 67 65
f 57 66 68
f 57 68 58
f 58 69 59
f 58 68 69
f 59 69 62
f 60 61 71
f 60 71 70
f 61 62 71
f 62 69 68
f 62 68 71
f 63 72 67
f 63 67 64
f 65 67 73
f 65 73 66
f 66 73 68
f 67 72 73
f 68 73 71
f 70 71 73
f 70 73 72

