# https://github.com/mikedh/trimesh
v -1.34629563 -3.49835076 1.97381380
v -1.34629563 -3.35520978 2.27419756
v -1.34629563 -3.21440034 1.97381380
v 0.77324843 -3.49848038 1.97381380
v 2.31785558 -3.14043333 2.92061170
v -1.34629563 -2.71230546 3.61793826
v -1.34629563 -2.28715708 3.76716488
v 5.95912360 -2.17510544 3.76716488
v 5.95912360 -3.20092823 1.97381380
v 2.31785558 -3.49848038 1.97381380
v 0.55228386 -2.63963384 3.76716488
v -0.71415108 -2.63963384 3.76716488
v -1.34629563 -2.63859753 3.76716488
v -1.34629563 -2.65453098 3.73819737
v -1.34629563 -2.68911796 3.66639314
v 2.53882015 -3.49835076 1.97381380
v 5.85042879 -3.47632919 1.97381380
v 5.85042879 -3.34458770 2.24909271
v 5.40849998 -2.69701979 3.60705365
v 5.40849998 -2.61113514 3.76716488
v 2.53882015 -2.63859753 3.76716488
v 5.95912360 -2.51061260 3.76716488
v 5.95912360 -3.46933389 1.97381380
v 5.95912360 -3.33811055 2.23504782
v 5.85042879 -3.12165001 2.68588731
v 5.62946439 -2.91140770 3.14743607
v 5.62946439 -2.68808164 3.58440634
v 5.62946439 -2.58548647 3.76716488
v 5.85543470 -2.53509549 3.76716488
v 5.85042879 -2.66528268 3.53665387
v 5.95912360 -2.65194019 3.51207540
v 5.95912360 -3.11219387 2.66552221
v 5.85042879 -2.89638111 3.11443053
v 5.95912360 -2.88316791 3.09002774
f 1 2 6
f 1 6 15
f 1 15 14
f 1 14 13
f 1 13 7
f 1 7 3
f 1 3 9
f 1 9 23
f 1 23 17
f 1 17 16
f 1 16 10
f 1 10 4
f 1 4 5
f 1 5 2
f 2 5 6
f 3 7 8
f 3 8 9
f 4 10 5
f 5 11 12
f 5 12 13
f 5 13 14
f 5 14 15
f 5 15 6
f 5 10 16
f 5 16 17
f 5 17 18
f 5 18 19
f 5 19 20
f 5 20 21
f 5 21 11
f 7 13 12
f 7 12 11
f 7 11 21
f 7 21 20
f 7 20 28
f 7 28 29
f 7 29 22
f 7 22 8
f 8 22 31
f 8 31 34
f 8 34 32
f 8 32 24
f 8 24 23
f 8 23 9
f 17 23 18
f 18 23 24
f 18 24 25
f 18 25 26
f 18 26 19
f 19 26 27
f 19 27 20
f 20 27 28
f 22 29 30
f 22 30 31
f 24 32 25
f 25 33 27
f 25 27 26
f 25 32 33
f 27 33 30
f 27 30 29
f 27 29 28
f 30 33 34
f 30 34 31
f 32 34 33

