# https://github.com/mikedh/trimesh
v -0.43868333 1.42101899 7.37146029
v -0.38834680 1.42101899 7.59152358
v -0.43533323 1.42101899 7.29401818
v -0.39229813 0.15165222 7.37146029
v -0.39178277 0.15165222 7.39380259
v -0.32778837 1.42101899 7.66283418
v -0.32830375 0.15165222 7.59320345
v -0.22943463 0.15165222 7.72927311
v -0.38104546 1.42101899 7.09831303
v -0.32529732 0.15165222 7.15475674
v -0.11037934 1.42101899 7.80562332
v -0.08984961 0.15165222 7.79159641
v -0.24420915 1.42101899 6.98744144
v -0.11037934 0.15165222 6.98172988
v 0.11037971 1.42101899 7.80562332
v 0.09053717 0.15165222 7.79176436
v -0.11037934 1.42101899 6.94762846
v 0.11037971 0.15165222 6.98172988
v 0.11037971 1.42101899 6.94754448
v 0.24944933 1.42101899 7.76119071
v 0.32675795 0.15165222 7.59353943
v 0.38413812 1.42101899 7.64821927
v 0.20718730 0.15165222 7.01095966
v 0.32675795 1.42101899 7.08596599
v 0.32839003 0.15165222 7.59152358
v 0.43499001 1.42101899 7.44831446
v 0.39229846 0.15165222 7.37146029
v 0.32409511 0.15165222 7.15316088
v 0.38413812 1.42101899 7.15282490
v 0.43868366 1.42101899 7.37146029
v 0.39169723 0.15165222 7.34903399
f 1 2 6
f 1 6 11
f 1 11 15
f 1 15 20
f 1 20 22
f 1 22 26
f 1 26 30
f 1 30 29
f 1 29 24
f 1 24 19
f 1 19 17
f 1 17 13
f 1 13 9
f 1 9 3
f 1 3 4
f 1 4 5
f 1 5 2
f 2 5 7
f 2 7 8
f 2 8 6
f 3 9 4
f 4 10 14
f 4 14 18
f 4 18 23
f 4 23 28
f 4 28 31
f 4 31 27
f 4 27 25
f 4 25 21
f 4 21 16
f 4 16 12
f 4 12 8
f 4 8 7
f 4 7 5
f 4 9 10
f 6 8 11
f 8 12 11
f 9 13 10
f 10 13 14
f 11 12 16
f 11 16 15
f 13 17 14
f 14 17 19
f 14 19 18
f 15 16 20
f 16 21 22
f 16 22 20
f 18 19 23
f 19 24 23
f 21 25 22
f 22 25 27
f 22 27 26
f 23 24 29
f 23 29 28
f 26 27 30
f 27 31 30
f 28 29 31
f 29 30 31

