# https://github.com/mikedh/trimesh
v -8.00994803 1.64630994 9.23492195
v -8.63204656 -0.57000269 9.23492195
v -9.33988894 1.64630994 9.23492195
v -9.90322536 1.64630994 10.37658601
v -10.27918259 -0.57000269 10.41277057
v -10.17035290 -0.57000269 10.34119400
v -9.76711324 -0.57000269 9.23492195
v -9.43882526 1.46949953 9.23492195
v -9.47300331 1.49922109 9.25829680
v -9.43043077 1.64630994 9.27903021
v -10.04473423 1.64630994 10.45014376
v -10.48874751 -0.57000269 10.52158875
v -9.85825449 -0.57000269 9.29474553
v -10.87339927 -0.24935763 9.65685576
v -10.44497548 -0.25716767 9.43631444
v -10.00575951 -0.27756049 9.23492195
v -10.08820623 0.11055454 9.23492195
v -10.44497548 0.25742648 9.43631444
v -10.91237399 0.11055454 9.63955569
v -10.87339927 0.24961646 9.65685576
v -9.60102098 1.64630994 9.37477419
v -10.05672655 1.64630994 10.45595437
v -10.24800295 1.64630994 10.53888865
v -10.25639744 1.64630994 10.54205813
v -10.50313817 -0.57000269 10.52700326
v -10.01865063 -0.57000269 9.40594049
v -10.11998528 -0.57000269 9.48412039
v -10.12897985 -0.57000269 9.49111963
v -10.25609741 -0.57000269 9.59954138
v -10.27228697 -0.57000269 9.61353988
v -10.36522713 -0.57000269 9.70122804
v -10.90158050 -0.57000269 10.26076892
v -11.01760585 -0.12526493 9.77980419
v -10.91237399 -0.11029571 9.63955569
v -10.70760573 -0.11029571 9.53509580
v -10.58768384 -0.11029571 9.47487610
v -10.47735461 -0.11029571 9.42046718
v -10.05132981 -0.20423303 9.23492195
v -10.08790619 -0.11029571 9.23492195
v -10.47735461 0.11055454 9.42046718
v -10.58768384 0.11055454 9.47487610
v -10.70760573 0.11055454 9.53509580
v -11.07247075 0.06195882 9.84002374
v -11.01760585 0.12552376 9.77980419
v -10.66203544 1.64630994 10.27978583
v -10.54481125 1.64630994 10.16885472
v -9.98237429 1.64630994 9.64761149
v -9.97667817 1.64630994 9.64285727
v -9.79409564 1.64630994 9.49943945
v -9.74462813 1.60422265 9.44635108
v -9.66457975 1.64630994 9.41175127
v -10.35803214 1.64630994 10.57850686
v -10.62665855 -0.57000269 10.56952678
v -10.91177391 -0.57000269 10.44631399
v -11.07247075 -0.06169999 9.84002374
v -11.07247075 0.06195882 9.96257607
v -10.82512995 1.34453916 10.34066563
v -10.64944370 1.64630994 10.47074541
v -10.82512995 1.34453916 10.36773817
v -10.36252876 1.64630994 10.57890297
v -10.73578762 -0.57000269 10.57903523
v -10.91237399 -0.57000269 10.46229334
v -11.07247075 -0.06169999 9.96257607
v -11.04458824 0.05349795 10.36588926
v -10.84761572 1.21415507 10.40682804
v -10.60177445 1.56018265 10.57533738
v -10.57359256 1.64630994 10.56160307
v -10.48005298 1.64630994 10.57929908
v -10.55350579 1.21415507 10.58326109
v -10.76516900 -0.11029571 10.58392137
v -10.73938545 -0.55177931 10.57943133
v -10.82872778 -0.57000269 10.57903523
v -11.04458824 -0.05323912 10.36588926
v -10.84161956 0.11055454 10.58392137
v -10.96753827 0.12031709 10.44855903
v -10.82273162 0.77267146 10.57560157
v -10.81853437 0.88569996 10.57296010
v -10.86530416 0.97291192 10.47457517
v -10.61376677 1.43500532 10.58048772
v -10.48155186 1.64630994 10.57929908
v -10.63415359 1.21415507 10.58326109
v -10.76516900 0.11055454 10.58392137
v -10.84161956 -0.11029571 10.58392137
v -10.75677451 -0.33114595 10.58180828
v -10.82932720 -0.55177931 10.57943133
v -10.96753827 -0.12027519 10.44855903
v -10.83502398 0.33118788 10.58180828
v -10.82932720 0.55182118 10.57943133
v -10.83502398 -0.33114595 10.58180828
f 1 2 7
f 1 7 16
f 1 16 38
f 1 38 39
f 1 39 17
f 1 17 8
f 1 8 3
f 1 3 10
f 1 10 21
f 1 21 51
f 1 51 49
f 1 49 48
f 1 48 47
f 1 47 46
f 1 46 45
f 1 45 58
f 1 58 67
f 1 67 80
f 1 80 68
f 1 68 60
f 1 60 52
f 1 52 24
f 1 24 23
f 1 23 22
f 1 22 11
f 1 11 4
f 1 4 5
f 1 5 6
f 1 6 2
f 2 6 5
f 2 5 12
f 2 12 25
f 2 25 53
f 2 53 61
f 2 61 72
f 2 72 62
f 2 62 54
f 2 54 32
f 2 32 31
f 2 31 30
f 2 30 29
f 2 29 28
f 2 28 27
f 2 27 26
f 2 26 13
f 2 13 7
f 3 8 9
f 3 9 10
f 4 11 5
f 5 11 12
f 7 13 14
f 7 14 15
f 7 15 16
f 8 17 18
f 8 18 9
f 9 18 19
f 9 19 20
f 9 20 10
f 10 20 21
f 11 22 12
f 12 22 23
f 12 23 24
f 12 24 25
f 13 26 14
f 14 26 27
f 14 27 28
f 14 28 29
f 14 29 30
f 14 30 31
f 14 31 32
f 14 32 33
f 14 33 34
f 14 34 15
f 15 34 35
f 15 35 36
f 15 36 37
f 15 37 38
f 15 38 16
f 17 39 37
f 17 37 40
f 17 40 18
f 18 40 41
f 18 41 42
f 18 42 19
f 19 34 55
f 19 55 43
f 19 43 44
f 19 44 20
f 19 42 35
f 19 35 34
f 20 44 45
f 20 45 46
f 20 46 47
f 20 47 48
f 20 48 49
f 20 49 50
f 20 50 51
f 20 51 21
f 24 52 25
f 25 52 53
f 32 54 55
f 32 55 33
f 33 55 34
f 35 42 41
f 35 41 36
f 36 41 40
f 36 40 37
f 37 39 38
f 43 55 63
f 43 63 56
f 43 56 59
f 43 59 57
f 43 57 44
f 44 57 45
f 45 57 59
f 45 59 58
f 49 51 50
f 52 60 53
f 53 60 61
f 54 62 55
f 55 62 63
f 56 63 73
f 56 73 64
f 56 64 65
f 56 65 59
f 58 66 67
f 58 59 65
f 58 65 66
f 60 68 69
f 60 69 70
f 60 70 71
f 60 71 61
f 61 71 85
f 61 85 72
f 62 72 73
f 62 73 63
f 64 73 83
f 64 83 74
f 64 74 75
f 64 75 76
f 64 76 77
f 64 77 78
f 64 78 65
f 65 78 77
f 65 77 66
f 66 77 79
f 66 79 80
f 66 80 67
f 68 80 81
f 68 81 69
f 69 81 74
f 69 74 82
f 69 82 70
f 70 82 74
f 70 74 83
f 70 83 89
f 70 89 84
f 70 84 71
f 71 84 89
f 71 89 85
f 72 85 73
f 73 86 83
f 73 85 86
f 74 81 87
f 74 87 88
f 74 88 75
f 75 88 76
f 76 88 81
f 76 81 79
f 76 79 77
f 79 81 80
f 81 88 87
f 83 85 89
f 83 86 85

