# https://github.com/mikedh/trimesh
v 0.11036396 -0.33626659 10.47092076
v -0.08680484 -0.32168323 10.47092076
v 0.11488280 -0.33238127 10.47092076
v 0.22130600 -0.22194146 11.73524078
v 0.10077297 -0.29906303 13.33227700
v -0.07466239 -0.29906303 13.33227700
v -0.07696792 -0.30252260 12.89067224
v -0.08597485 -0.31982041 10.68336040
v -0.07666052 -0.09404420 13.53831187
v -0.08680484 -0.12182712 10.47092076
v -0.07798235 -0.30417252 12.67004802
v 0.22723889 -0.23530069 10.47092076
v 0.22210524 -0.22364464 11.56656991
v 0.22130600 -0.21959959 11.73524078
v 0.08189837 0.20746975 13.98916814
v 0.10692104 -0.09404420 13.53831187
v 0.08890717 -0.28761988 13.55290123
v -0.06393399 -0.28761988 13.55290123
v -0.07583053 -0.30076621 13.11165276
v -0.08068750 -0.30906916 12.00781870
v -0.08247045 -0.31247548 11.56656991
v -0.06132107 -0.10426320 13.77317016
v -0.07149613 0.20746975 13.85501481
v 0.10270960 -0.10942593 10.47092076
v -0.05541892 0.20746975 13.78775951
v 0.22723889 -0.20884836 10.47092076
v 0.22521001 -0.23056374 10.90398528
v 0.22210524 -0.21789644 11.56656991
v 0.07704139 0.20746975 13.78775951
v 0.01580655 0.20746975 14.10624164
v 0.06526782 0.12699507 13.98525447
v 0.08783126 -0.10426320 13.77317016
v 0.22416486 -0.21374498 11.12496548
v 0.22521001 -0.21172246 10.90398528
v 0.22622445 -0.20975317 10.68336040
v 0.05186501 -0.25829343 13.69915413
v -0.03586803 -0.25829343 13.69915413
v -0.04376831 0.20746975 14.05428830
v -0.05913850 0.20746975 13.98916814
v 0.11036396 -0.10900014 10.47092076
v 0.22272006 -0.20411143 10.47092076
v -0.01075314 0.20746975 14.10624164
v 0.03486559 -0.02666261 13.90554429
v -0.02375632 -0.02666261 13.90554429
f 1 2 10
f 1 10 24
f 1 24 40
f 1 40 41
f 1 41 26
f 1 26 12
f 1 12 3
f 1 3 4
f 1 4 5
f 1 5 6
f 1 6 7
f 1 7 2
f 2 8 9
f 2 9 10
f 2 7 11
f 2 11 8
f 3 12 4
f 4 12 13
f 4 13 28
f 4 28 14
f 4 14 15
f 4 15 16
f 4 16 17
f 4 17 5
f 5 17 18
f 5 18 6
f 6 18 9
f 6 9 19
f 6 19 7
f 7 19 9
f 7 9 11
f 8 11 20
f 8 20 21
f 8 21 9
f 9 18 22
f 9 22 23
f 9 23 10
f 9 21 20
f 9 20 11
f 10 23 25
f 10 25 24
f 12 26 34
f 12 34 27
f 12 27 13
f 13 27 34
f 13 34 28
f 14 28 15
f 15 29 25
f 15 25 23
f 15 23 39
f 15 39 38
f 15 38 42
f 15 42 30
f 15 30 31
f 15 31 32
f 15 32 16
f 15 28 33
f 15 33 34
f 15 34 35
f 15 35 26
f 15 26 29
f 16 32 17
f 17 32 36
f 17 36 37
f 17 37 18
f 18 37 22
f 22 37 38
f 22 38 39
f 22 39 23
f 24 25 40
f 25 29 40
f 26 41 29
f 26 35 34
f 28 34 33
f 29 41 40
f 30 42 44
f 30 44 43
f 30 43 31
f 31 43 32
f 32 43 36
f 36 43 44
f 36 44 37
f 37 44 38
f 38 44 42

