# https://github.com/mikedh/trimesh
v 4.95921990 0.13953781 8.51172612
v 4.52595832 0.13953781 8.51172612
v 4.95921990 -0.05961050 8.51172612
v 4.95921990 0.08740987 6.92996065
v 4.08559846 0.08740987 7.14961750
v 4.08559846 0.08740987 7.37021910
v 4.08559846 0.07532122 7.59105692
v 4.08559846 0.03171822 7.73088150
v 4.52228087 0.11410273 8.51172612
v 4.30530810 0.08740987 6.92996065
v 4.08559846 0.08720024 6.92877971
v 4.77585767 -0.13954934 8.51172612
v 4.95921990 -0.13850118 8.51148990
v 4.95921990 0.04534415 6.72211334
v 4.66459181 0.02438118 6.12573307
v 4.61507365 0.03185798 6.09880742
v 4.52937948 0.04171057 6.09880742
v 4.08559846 -0.11041079 7.76418431
v 4.52176765 0.11032939 8.51172612
v 4.33404400 0.03856611 6.09880742
v 4.08559846 0.04310810 6.72447516
v 4.52595832 -0.13954934 8.51172612
v 4.95921990 -0.57432154 7.63664162
v 4.95921990 0.04345748 6.71290189
v 4.67998588 -0.11041079 6.10872744
v 4.67083504 -0.11041079 6.09880742
v 4.95921990 -0.01894232 6.60330969
v 4.08559846 -0.33115097 7.76796332
v 4.52176765 -0.11041079 8.51172612
v 4.23423816 -0.11041079 6.09880742
v 4.08559846 -0.07749891 6.61441061
v 4.08559846 -0.48592765 7.73536911
v 4.08559846 -0.55154178 7.59200167
v 4.75404929 -0.57432154 7.58302645
v 4.95921990 -0.57432154 6.66967910
v 4.68126894 -0.33115097 6.10754652
v 4.67305868 -0.31368184 6.09880742
v 4.95921990 -0.12885821 6.57354964
v 4.95921990 -0.33115097 6.55040309
v 4.22235046 -0.33115097 6.09880742
v 4.08559846 -0.18839308 6.59504301
v 4.08559846 -0.57271439 7.37116387
v 4.53553717 -0.57432154 7.37116387
v 4.95468709 -0.57432154 6.66802576
v 4.52698476 -0.51129285 6.09880742
v 4.55751662 -0.50751951 6.09880742
v 4.61875109 -0.49130814 6.09880742
v 4.66630223 -0.47907973 6.12407972
v 4.95921990 -0.46971628 6.57354964
v 4.67314422 -0.33115097 6.09880742
v 4.95921990 -0.46335749 6.57095160
v 4.08559846 -0.33177987 6.58205253
v 4.22799493 -0.34994778 6.09880742
v 4.08559846 -0.46272859 6.58606784
v 4.08559846 -0.57285413 7.15079845
v 4.08559846 -0.57292400 6.92996065
v 4.52681369 -0.57432154 7.15079845
v 4.73446422 -0.57432154 6.69731331
v 4.35123403 -0.51548545 6.09880742
v 4.64868452 -0.44973158 6.09880742
v 4.32335349 -0.50814841 6.09880742
v 4.08559846 -0.52813312 6.70912286
v 4.68888044 -0.57432154 6.71904288
v 4.59454800 -0.57432154 6.79226177
v 4.52775427 -0.57432154 6.92996065
v 4.52758320 -0.57432154 6.93208634
f 1 2 9
f 1 9 19
f 1 19 29
f 1 29 22
f 1 22 12
f 1 12 3
f 1 3 13
f 1 13 23
f 1 23 35
f 1 35 49
f 1 49 51
f 1 51 39
f 1 39 38
f 1 38 27
f 1 27 24
f 1 24 14
f 1 14 4
f 1 4 10
f 1 10 2
f 2 5 6
f 2 6 7
f 2 7 8
f 2 8 9
f 2 10 11
f 2 11 5
f 3 12 13
f 4 14 15
f 4 15 16
f 4 16 17
f 4 17 10
f 5 11 21
f 5 21 31
f 5 31 41
f 5 41 52
f 5 52 54
f 5 54 62
f 5 62 56
f 5 56 55
f 5 55 42
f 5 42 33
f 5 33 32
f 5 32 28
f 5 28 18
f 5 18 8
f 5 8 7
f 5 7 6
f 8 18 19
f 8 19 9
f 10 17 11
f 11 17 20
f 11 20 21
f 12 22 23
f 12 23 13
f 14 24 15
f 15 25 26
f 15 26 16
f 15 24 27
f 15 27 25
f 16 26 37
f 16 37 50
f 16 50 60
f 16 60 47
f 16 47 46
f 16 46 45
f 16 45 59
f 16 59 61
f 16 61 53
f 16 53 40
f 16 40 30
f 16 30 20
f 16 20 17
f 18 28 19
f 19 28 29
f 20 30 21
f 21 30 31
f 22 29 32
f 22 32 23
f 23 32 33
f 23 33 34
f 23 34 43
f 23 43 57
f 23 57 66
f 23 66 65
f 23 65 64
f 23 64 63
f 23 63 58
f 23 58 44
f 23 44 35
f 25 36 37
f 25 37 26
f 25 27 38
f 25 38 39
f 25 39 36
f 28 32 29
f 30 40 31
f 31 40 41
f 33 42 34
f 34 42 43
f 35 44 45
f 35 45 46
f 35 46 47
f 35 47 48
f 35 48 49
f 36 48 50
f 36 50 37
f 36 39 51
f 36 51 48
f 40 52 41
f 40 53 54
f 40 54 52
f 42 55 43
f 43 55 56
f 43 56 57
f 44 58 59
f 44 59 45
f 47 60 48
f 48 60 50
f 48 51 49
f 53 61 54
f 54 61 62
f 56 62 61
f 56 61 59
f 56 59 58
f 56 58 63
f 56 63 64
f 56 64 65
f 56 65 66
f 56 66 57

