# https://github.com/mikedh/trimesh
v 2.53922102 -3.64275571 0.25484689
v 2.31849480 -3.47153417 0.33864180
v 2.53922102 -3.47153417 0.33342534
v 2.75994724 -3.47153417 0.33443534
v 2.75994724 -3.64275571 0.25686622
v 2.53922102 -3.86362833 0.25720245
v 2.31849480 -3.64275571 0.26443825
v 1.65631599 -3.47277907 0.35967474
v 1.87704220 -3.47139600 0.35294363
v 7.72402072 -2.71071957 1.97364535
v 3.64360812 -3.47153417 0.34604538
v 3.86357865 -3.47153417 0.35025184
v 3.64360812 -3.64275571 0.27789918
v 2.75994724 -3.86362833 0.25939023
v 2.31849480 -3.86362833 0.26814004
v 2.75994724 -4.04605262 0.33695869
v 2.53922102 -4.04619079 0.33578091
v 1.65631599 -4.04771237 0.35967474
v 1.65631599 -3.86362833 0.30263326
v 1.87704220 -3.64275571 0.28984544
v 1.65631599 -3.41123338 0.52726325
v 1.65631599 -3.64275571 0.30263326
v 1.43558977 -3.48411999 0.37582746
v 1.43558977 -3.42257430 0.52726325
v 7.72402072 -3.03656546 1.97364535
v 7.72402072 -3.47250239 0.54577220
v 0.55268473 -3.41966998 0.74802369
v 0.00162488 -3.21456385 1.97364535
v 3.86357865 -3.64275571 0.28530275
v 7.72402072 -3.57374163 0.50135139
v 7.72402072 -3.64275571 0.47493420
v 3.86357865 -3.86362833 0.28883610
v 3.86357865 -4.04563776 0.35395363
v 4.08430487 -4.11921591 0.52726325
v 1.65631599 -4.12115201 0.52726325
v 1.43558977 -4.11230055 0.52726325
v 1.43558977 -4.03526473 0.37582746
v 1.43558977 -3.86362833 0.33477156
v 1.43558977 -3.64275571 0.33477156
v 1.21486355 -3.51136623 0.40140376
v 0.33120250 -3.50694034 0.61863019
v 0.55268473 -3.48121567 0.59187612
v 7.72402072 -4.01382745 1.76197161
v 7.67261810 -3.06187527 1.97364535
v 0.00162488 -3.47844953 0.73691832
v 0.00162488 -3.44608619 0.85756203
v 0.00162488 -3.41648898 0.96878346
v 0.00162488 -3.49836556 1.97364535
v 7.72402072 -3.77456038 0.47644821
v 7.72402072 -3.86362833 0.47762599
v 4.08430487 -4.04494622 0.36236653
v 7.72402072 -4.04619079 0.54829621
v 7.72402072 -4.11824769 0.74802369
v 7.39595448 -4.11976894 0.74802369
v 4.30503109 -4.12336479 0.74802369
v 1.21486355 -4.12281176 0.74802369
v 0.33120250 -4.12267326 0.96878346
v 0.00162488 -4.11921591 0.96878346
v 0.77341095 -4.11949259 0.74802369
v 0.55268473 -4.11492819 0.74802369
v 0.55268473 -4.03844572 0.59187612
v 1.21486355 -4.00165681 0.40140376
v 0.33120250 -4.00732728 0.61863019
v 1.09845312 -3.97731522 0.41536937
v 1.21486355 -3.86362833 0.38575506
v 1.21486355 -3.64275571 0.38575506
v 1.09845312 -3.53003737 0.41536937
v 0.20572134 -3.52644119 0.63394201
v 7.17522826 -4.01396595 1.76197161
v 7.72402072 -4.09224634 1.63106344
v 7.55167239 -3.11581440 1.97364535
v 7.39595448 -3.16629552 1.97364535
v 6.28778794 -3.43114941 1.97364535
v 6.07084116 -3.46434246 1.97364535
v 5.85011494 -3.47623675 1.97364535
v 2.53922102 -3.49836556 1.97364535
v 0.00162488 -3.57595442 0.69619865
v 0.00162488 -4.01396595 1.76197161
v 7.72402072 -4.11672645 1.41013522
v 7.17522826 -4.12239691 0.96878346
v 6.95450204 -4.12350330 0.96878346
v 5.62938872 -4.12350330 0.96878346
v 0.00162488 -4.11672645 1.41013522
v 0.00162488 -4.03830755 0.73860078
v 0.20572134 -3.98215564 0.63394201
v 0.00162488 -3.86362833 0.67062301
v 0.00162488 -3.75519738 0.66944523
v 0.00162488 -3.64275571 0.66843523
v 3.20139967 -4.09238452 1.63106344
v 0.00162488 -4.09238452 1.63106344
v 0.00162488 -4.10441731 1.52219822
v 0.00162488 -3.93734498 0.69922733
f 1 2 3
f 1 3 4
f 1 4 5
f 1 5 6
f 1 6 7
f 1 7 8
f 1 8 9
f 1 9 2
f 2 9 10
f 2 10 3
f 3 10 4
f 4 11 5
f 4 10 11
f 5 11 12
f 5 12 13
f 5 13 14
f 5 14 6
f 6 15 7
f 6 14 16
f 6 16 17
f 6 17 18
f 6 18 15
f 7 15 19
f 7 19 20
f 7 20 8
f 8 21 10
f 8 10 9
f 8 20 22
f 8 22 23
f 8 23 24
f 8 24 21
f 10 25 43
f 10 43 70
f 10 70 79
f 10 79 53
f 10 53 52
f 10 52 50
f 10 50 49
f 10 49 31
f 10 31 30
f 10 30 26
f 10 26 12
f 10 12 11
f 10 21 24
f 10 24 27
f 10 27 28
f 10 28 48
f 10 48 76
f 10 76 75
f 10 75 74
f 10 74 73
f 10 73 72
f 10 72 71
f 10 71 44
f 10 44 25
f 12 29 13
f 12 26 30
f 12 30 31
f 12 31 29
f 13 29 32
f 13 32 14
f 14 32 33
f 14 33 16
f 15 18 19
f 16 33 34
f 16 34 17
f 17 35 18
f 17 34 35
f 18 35 36
f 18 36 37
f 18 37 19
f 19 37 38
f 19 38 39
f 19 39 22
f 19 22 20
f 22 39 23
f 23 39 40
f 23 40 41
f 23 41 42
f 23 42 24
f 24 42 27
f 25 44 43
f 27 42 45
f 27 45 46
f 27 46 47
f 27 47 28
f 28 47 46
f 28 46 45
f 28 45 77
f 28 77 88
f 28 88 87
f 28 87 86
f 28 86 92
f 28 92 84
f 28 84 58
f 28 58 83
f 28 83 91
f 28 91 90
f 28 90 78
f 28 78 48
f 29 31 49
f 29 49 50
f 29 50 32
f 32 50 51
f 32 51 33
f 33 51 34
f 34 51 52
f 34 52 53
f 34 53 54
f 34 54 55
f 34 55 35
f 35 56 57
f 35 57 58
f 35 58 59
f 35 59 60
f 35 60 36
f 35 55 56
f 36 60 61
f 36 61 37
f 37 62 38
f 37 61 63
f 37 63 62
f 38 62 64
f 38 64 65
f 38 65 66
f 38 66 39
f 39 66 67
f 39 67 40
f 40 67 68
f 40 68 41
f 41 68 45
f 41 45 42
f 43 69 70
f 43 44 71
f 43 71 72
f 43 72 73
f 43 73 74
f 43 74 75
f 43 75 76
f 43 76 69
f 45 68 77
f 48 78 69
f 48 69 76
f 50 52 51
f 53 79 80
f 53 80 81
f 53 81 54
f 54 81 55
f 55 81 82
f 55 82 57
f 55 57 56
f 57 83 58
f 57 82 83
f 58 84 60
f 58 60 59
f 60 84 61
f 61 84 63
f 62 63 85
f 62 85 64
f 63 84 85
f 64 85 86
f 64 86 65
f 65 86 87
f 65 87 88
f 65 88 66
f 66 88 67
f 67 88 68
f 68 88 77
f 69 78 90
f 69 90 89
f 69 89 70
f 70 89 79
f 79 81 80
f 79 89 91
f 79 91 83
f 79 83 82
f 79 82 81
f 84 92 85
f 85 92 86
f 89 90 91

