# https://github.com/mikedh/trimesh
v -6.51312659 -0.54789465 3.68294657
v -6.51312659 -0.50974997 3.17662269
v -6.38189799 -0.45956610 2.95580304
v -6.43470276 -0.52707172 3.68294657
v -6.27964480 -0.27228249 3.69212602
v -6.83532498 -0.27228249 3.69212602
v -6.61560350 -0.52971297 3.68294657
v -6.67003018 -0.47363233 2.95580304
v -6.51312659 -0.49169117 2.95580304
v -6.39526680 -0.44795684 2.84007444
v -6.32691136 -0.33112724 2.95580304
v -6.29916637 -0.33112724 3.17662269
v -6.34481167 -0.49807932 3.68294657
v -6.30235494 -0.40956645 3.68294657
v -6.27751887 -0.33112724 3.68294657
v -6.28887427 -0.11036726 3.69212602
v -6.80523035 -0.34556206 3.68294657
v -6.70336865 -0.51153129 3.68294657
v -6.84897343 -0.23653338 3.69212602
v -6.78520476 -0.33112724 3.17662269
v -6.74028718 -0.33112724 2.95580304
v -6.64592118 -0.45649486 2.83261066
v -6.68289564 -0.48327599 3.17662269
v -6.51312659 -0.45753907 2.83183851
v -6.51312659 -0.33112724 2.81579600
v -6.37870942 -0.33112724 2.83038011
v -6.33485448 -0.27228249 2.96000654
v -6.32769436 -0.11036726 3.17662269
v -6.37820607 -0.16927345 2.83080912
v -6.34553874 -0.27228249 2.91042092
v -6.35622234 0.04626547 3.69212602
v -6.84897343 -0.21773745 3.69212602
v -6.84321217 -0.12725902 3.69212602
v -6.77603122 -0.27234391 3.17662269
v -6.70728428 -0.11036726 2.95588891
v -6.64362813 -0.11036726 2.83973097
v -6.65520724 -0.27234391 2.83321106
v -6.65934658 -0.33112724 2.83089497
v -6.54786327 -0.27228249 2.82214452
v -6.62494482 0.00087269 2.84453520
v -6.53018732 -0.10152212 2.83209579
v -6.35801270 -0.10152212 2.97210281
v -6.40141956 0.00093410 3.05651853
v -6.61504421 0.00087269 2.84453520
v -6.46798530 -0.02210011 2.90939151
v -6.44650492 0.06678129 3.69212602
v -6.68390301 0.05633910 3.69212602
v -6.63702728 0.00799794 2.95588891
v -6.75074773 -0.11036726 3.17662269
v -6.51312659 0.07961903 3.69212602
v -6.53018732 0.00701514 2.97210281
f 1 2 3
f 1 3 4
f 1 4 5
f 1 5 6
f 1 6 7
f 1 7 8
f 1 8 2
f 2 8 9
f 2 9 3
f 3 9 10
f 3 10 11
f 3 11 12
f 3 12 13
f 3 13 4
f 4 13 5
f 5 13 14
f 5 14 15
f 5 15 12
f 5 12 16
f 5 16 31
f 5 31 46
f 5 46 50
f 5 50 47
f 5 47 33
f 5 33 32
f 5 32 19
f 5 19 6
f 6 17 18
f 6 18 7
f 6 19 20
f 6 20 17
f 7 18 8
f 8 21 22
f 8 22 9
f 8 18 23
f 8 23 20
f 8 20 21
f 9 22 24
f 9 24 10
f 10 24 25
f 10 25 26
f 10 26 11
f 11 27 28
f 11 28 12
f 11 26 29
f 11 29 30
f 11 30 27
f 12 28 16
f 12 15 14
f 12 14 13
f 16 28 31
f 17 20 18
f 18 20 23
f 19 32 20
f 20 32 33
f 20 33 34
f 20 34 35
f 20 35 21
f 21 35 36
f 21 36 37
f 21 37 38
f 21 38 22
f 22 38 25
f 22 25 24
f 25 38 37
f 25 37 39
f 25 39 40
f 25 40 41
f 25 41 29
f 25 29 26
f 27 30 29
f 27 29 42
f 27 42 28
f 28 42 43
f 28 43 31
f 29 41 44
f 29 44 45
f 29 45 43
f 29 43 42
f 31 43 46
f 33 47 48
f 33 48 40
f 33 40 49
f 33 49 34
f 34 49 35
f 35 40 36
f 35 49 40
f 36 39 37
f 36 40 39
f 40 48 50
f 40 50 44
f 40 44 41
f 43 45 44
f 43 44 51
f 43 51 50
f 43 50 46
f 44 50 51
f 47 50 48

