# https://github.com/mikedh/trimesh
v -9.02201347 -3.86356681 -0.11840869
v -9.02201347 -3.64284059 -0.11840869
v -8.94144989 -3.86356681 -0.11697494
v -9.02201347 -3.97632101 -0.08911941
v -9.02201347 -3.47863672 -0.07150533
v -8.94144989 -3.47936149 -0.07068613
v -8.94144989 -3.64284059 -0.11697494
v -8.74652302 -3.86356681 -0.06863786
v -8.77458253 -4.01704595 -0.05389058
v -8.94144989 -4.04095920 -0.07089078
v -9.02201347 -4.04182872 -0.07150533
v -9.02201347 -2.64312442 1.58445289
v -8.83750307 -2.64312442 1.57667031
v -8.61664328 -2.64312442 1.59018783
v -8.40237315 -2.64312442 1.64036859
v -8.77458253 -3.49863698 -0.05389058
v -8.74652302 -3.64284059 -0.06863786
v -6.85040191 -3.86356681 0.59804663
v -6.85040191 -3.92675547 0.60337232
v -6.85040191 -4.01023423 0.61770967
v -6.85040191 -4.04675632 0.67546837
v -6.85040191 -4.08820570 0.74797369
v -8.94144989 -4.11849575 0.08579569
v -9.02201347 -4.09110442 0.02783170
v -9.02201347 -2.64312442 1.82572975
v -8.24188291 -2.64312442 1.69587436
v -6.85040191 -3.50472394 0.61791430
v -6.85040191 -3.64284059 0.59804663
v -6.85040191 -4.11066975 0.85222648
v -6.95477379 -4.10037962 0.74797369
v -8.94144989 -4.12284367 0.30658967
v -9.02201347 -4.11893067 0.08579569
v -7.17542105 -4.11559735 0.74797369
v -6.85040191 -4.12284367 0.96856369
v -6.95477379 -4.12356844 0.96856369
v -9.02201347 -3.86356681 1.78251306
v -8.51312150 -2.64312442 1.97381314
v -8.17853732 -2.64312442 1.73315148
v -6.85040191 -3.44225971 0.74797369
v -9.02201347 -4.11675671 1.41015233
v -9.02201347 -4.12226399 0.30658967
v -9.02201347 -4.12153956 0.22609584
v -6.85040191 -4.11675671 1.41015233
v -8.50164306 -2.65457358 1.97381314
v -9.02201347 -4.01385739 1.76182619
v -7.61671557 -3.10617073 1.97381314
v -7.94300987 -2.94501035 1.97381314
v -7.85096720 -2.64312442 1.97381314
v -8.16705823 -2.64312442 1.74093472
v -7.88795416 -2.64312442 1.94616289
v -7.87860099 -2.64312442 1.95312694
v -6.85040191 -2.99921365 1.97381314
v -9.02201347 -4.09226378 1.63094698
v -6.85040191 -4.09226378 1.63094698
v -9.02201347 -4.04240840 1.71430828
v -8.27908240 -4.01385739 1.76203084
v -6.85040191 -3.28211393 1.97381314
v -6.88972732 -3.27472252 1.97381314
v -7.30019948 -3.19617137 1.97381314
v -7.47429409 -3.14776519 1.97381314
v -6.85040191 -4.05530709 1.69280226
v -6.85040191 -4.01385739 1.76203084
f 1 2 7
f 1 7 3
f 1 3 4
f 1 4 11
f 1 11 24
f 1 24 32
f 1 32 42
f 1 42 41
f 1 41 40
f 1 40 53
f 1 53 55
f 1 55 45
f 1 45 36
f 1 36 25
f 1 25 12
f 1 12 5
f 1 5 2
f 2 5 6
f 2 6 7
f 3 7 17
f 3 17 8
f 3 8 9
f 3 9 10
f 3 10 4
f 4 10 11
f 5 12 13
f 5 13 6
f 6 13 14
f 6 14 15
f 6 15 16
f 6 16 7
f 7 16 17
f 8 17 28
f 8 28 18
f 8 18 19
f 8 19 9
f 9 19 20
f 9 20 21
f 9 21 10
f 10 21 22
f 10 22 23
f 10 23 24
f 10 24 11
f 12 25 37
f 12 37 48
f 12 48 51
f 12 51 50
f 12 50 49
f 12 49 38
f 12 38 26
f 12 26 15
f 12 15 14
f 12 14 13
f 15 26 16
f 16 26 27
f 16 27 17
f 17 27 28
f 18 28 27
f 18 27 39
f 18 39 52
f 18 52 57
f 18 57 62
f 18 62 61
f 18 61 54
f 18 54 43
f 18 43 34
f 18 34 29
f 18 29 22
f 18 22 21
f 18 21 20
f 18 20 19
f 22 29 30
f 22 30 23
f 23 31 32
f 23 32 24
f 23 30 33
f 23 33 34
f 23 34 35
f 23 35 31
f 25 36 37
f 26 38 39
f 26 39 27
f 29 34 33
f 29 33 30
f 31 40 41
f 31 41 42
f 31 42 32
f 31 35 40
f 34 43 35
f 35 43 40
f 36 44 37
f 36 45 46
f 36 46 47
f 36 47 44
f 37 44 47
f 37 47 46
f 37 46 60
f 37 60 59
f 37 59 58
f 37 58 57
f 37 57 52
f 37 52 48
f 38 49 39
f 39 50 51
f 39 51 48
f 39 48 52
f 39 49 50
f 40 43 54
f 40 54 53
f 45 55 56
f 45 56 57
f 45 57 58
f 45 58 59
f 45 59 60
f 45 60 46
f 53 54 61
f 53 61 55
f 55 61 56
f 56 61 62
f 56 62 57

