# https://github.com/mikedh/trimesh
v 6.99513618 -1.21422844 6.70915602
v 6.96605023 -0.57432154 7.15056880
v 6.95204976 -0.57432154 7.36785177
v 6.96677269 -1.47514679 6.75079612
v 6.97598637 -1.43502588 6.70915602
v 6.98899395 -0.77280997 6.26760349
v 6.96054031 -0.58234576 6.09880742
v 6.95728858 -0.57432154 6.09880742
v 6.95015280 -0.57432154 7.37120534
v 6.93172545 -1.47514679 6.90729572
v 6.96514682 -1.47514679 6.70580246
v 6.94834599 -0.77915872 6.09880742
v 6.11958093 -0.57432154 6.09880742
v 6.84094543 -0.57432154 7.47851936
v 6.65920446 -1.47514679 7.29309528
v 6.89342648 -1.47514679 6.59709113
v 6.93181559 -0.82051417 6.09880742
v 6.11651015 -0.77810061 6.09880742
v 6.09221165 -0.77280997 6.26760349
v 6.07233937 -0.57432154 7.15056880
v 6.64791289 -0.57432154 7.52505011
v 6.63264778 -1.47514679 7.29952290
v 6.87364435 -1.47514679 6.58172057
v 6.90038131 -0.85031831 6.09880742
v 6.14758319 -0.84970112 6.09880742
v 6.16402279 -1.47514679 6.58172057
v 6.10377365 -1.47514679 6.70636134
v 6.09672801 -1.43502588 6.70915602
v 6.09067593 -1.21422844 6.70915602
v 6.08561738 -0.57432154 7.37120534
v 6.51305224 -0.57432154 7.52630767
v 6.51305224 -1.47514679 7.32830767
v 6.77220508 -1.47514679 6.56425412
v 6.83922877 -0.88603035 6.09880742
v 6.29228918 -0.89855160 6.09880742
v 6.16447483 -0.89846344 6.13066626
v 6.29228918 -1.47514679 6.56313629
v 6.12247143 -1.47514679 6.90254486
v 6.34332530 -1.47514679 7.26962032
v 6.36193294 -1.47514679 7.29602961
v 6.29355381 -0.57432154 7.49123497
v 6.73381530 -1.47514679 6.56313629
v 6.73381530 -0.89881611 6.09880742
v 6.51305224 -0.90137335 6.09880742
v 6.51305224 -1.47514679 6.56173891
v 6.58377969 -1.47514679 6.56215812
f 1 2 3
f 1 3 4
f 1 4 5
f 1 5 6
f 1 6 2
f 2 6 7
f 2 7 8
f 2 8 13
f 2 13 20
f 2 20 30
f 2 30 41
f 2 41 31
f 2 31 21
f 2 21 14
f 2 14 9
f 2 9 3
f 3 9 10
f 3 10 4
f 4 11 5
f 4 10 15
f 4 15 22
f 4 22 32
f 4 32 40
f 4 40 39
f 4 39 38
f 4 38 27
f 4 27 26
f 4 26 37
f 4 37 45
f 4 45 46
f 4 46 42
f 4 42 33
f 4 33 23
f 4 23 16
f 4 16 11
f 5 11 12
f 5 12 6
f 6 12 7
f 7 12 17
f 7 17 24
f 7 24 34
f 7 34 43
f 7 43 44
f 7 44 35
f 7 35 25
f 7 25 18
f 7 18 13
f 7 13 8
f 9 14 15
f 9 15 10
f 11 16 17
f 11 17 12
f 13 18 19
f 13 19 20
f 14 21 22
f 14 22 15
f 16 23 17
f 17 23 24
f 18 25 26
f 18 26 27
f 18 27 28
f 18 28 19
f 19 28 29
f 19 29 20
f 20 29 28
f 20 28 30
f 21 31 32
f 21 32 22
f 23 33 34
f 23 34 24
f 25 35 36
f 25 36 26
f 26 36 35
f 26 35 37
f 27 38 28
f 28 38 30
f 30 39 40
f 30 40 41
f 30 38 39
f 31 41 32
f 32 41 40
f 33 42 43
f 33 43 34
f 35 44 37
f 37 44 45
f 42 46 44
f 42 44 43
f 44 46 45

