# https://github.com/mikedh/trimesh
v -6.41153730 -1.99135927 9.16713319
v -6.41153730 -3.90278728 10.40039301
v -6.41153730 -1.99135927 8.50741636
v -10.04630680 -1.99135927 10.52884066
v -6.41153730 -4.08437955 10.49815121
v -10.17138856 -1.99135927 10.57050486
v -6.41153730 -2.71249496 8.50741636
v -6.99347807 -1.99135927 8.50741636
v -6.41153730 -4.25131864 10.55993641
v -10.27965699 -1.99135927 10.58127662
v -6.41153730 -4.36173932 10.58351211
v -6.41153730 -4.31097724 10.57274035
v -6.41153730 -4.42558431 9.46366020
v -6.47223321 -2.71720477 8.50741636
v -6.99388799 -2.05572769 8.50741636
v -8.82665168 -1.99135927 9.12221709
v -10.39366629 -1.99135927 10.57944744
v -10.18492253 -2.31843460 10.58107332
v -9.75349111 -2.90978677 10.58147961
v -8.27956996 -4.00640479 10.58290250
v -8.27956996 -3.91037542 10.58290250
v -7.61724919 -4.15005636 10.58330880
v -6.51324371 -4.36200119 10.58371543
v -6.41153730 -4.43840569 10.58351211
v -6.41153730 -4.61973641 9.61385455
v -6.51324371 -4.42924761 9.46183103
v -6.51324371 -2.71746648 8.50741636
v -6.99306815 -2.09968659 8.50741636
v -8.94558200 -1.99135927 9.16367815
v -6.98486579 -2.28912855 8.50741636
v -6.97748393 -2.31843460 8.50741636
v -10.49332178 -1.99135927 10.47843718
v -10.39038561 -2.01490866 10.57883784
v -10.16072601 -2.43722839 10.57538246
v -9.95485301 -2.68554398 10.58005706
v -9.90071912 -2.83285852 10.55831053
v -9.68008239 -3.05683976 10.55831053
v -9.53285372 -3.13062813 10.58147961
v -8.72084409 -3.78190013 10.58107332
v -8.41736585 -3.98756521 10.57883784
v -7.83788592 -4.21076148 10.58026039
v -7.61724919 -4.23117100 10.58330880
v -9.31221699 -3.35094575 10.58147961
v -6.51324371 -4.43840569 10.58371543
v -6.41153730 -4.62339971 10.38311743
v -6.41153730 -4.66448029 9.65490897
v -6.51324371 -4.53966829 9.55044365
v -6.63176411 -4.42584619 9.46345689
v -6.69369044 -2.69758023 8.50741636
v -9.08583873 -2.03427166 9.23156016
v -9.10429306 -1.99135927 9.22708888
v -6.91514767 -2.51520315 8.50741636
v -6.90407521 -2.54921901 8.50741636
v -10.59912938 -1.99135927 10.36218384
v -10.60076972 -1.99345263 10.35974505
v -10.47363703 -2.07770714 10.45648734
v -10.33707156 -2.16222353 10.55322929
v -10.41007036 -2.26139277 10.40608353
v -10.20378744 -2.52226787 10.45709696
v -10.17056872 -2.67298416 10.38006902
v -10.03851501 -2.75279057 10.46908829
v -9.97494834 -2.91580497 10.41116477
v -9.83018051 -2.98645314 10.48473765
v -9.45944500 -3.27768112 10.55831053
v -8.83936515 -3.75782765 10.57517947
v -9.08788899 -3.55190102 10.58005706
v -8.56418395 -3.93418668 10.55282299
v -8.47970210 -4.07077321 10.45567407
v -8.27956996 -4.21808808 10.39592170
v -7.96173792 -4.19872508 10.57517947
v -7.28506334 -4.41328636 10.57253703
v -7.13783533 -4.42061295 10.57599240
v -6.95492776 -4.42610774 10.57904082
v -6.73388110 -4.43186439 10.58147961
v -9.23511701 -3.49826061 10.55831053
v -6.51898523 -4.56426453 10.44734144
v -6.41153730 -4.64119244 10.36380972
v -6.41153730 -4.66029390 9.79148628
v -6.49724956 -4.65715369 9.77786909
v -6.51324371 -4.65950860 9.66080298
v -6.82410447 -2.63766007 8.50741636
v -6.73511152 -2.69051551 8.50741636
v -6.62356241 -4.63648263 9.68925646
v -8.39522026 -4.19741669 10.34714409
v -8.66301960 -4.00692821 10.31259330
v -9.07476561 -3.76750882 10.33230766
v -9.15391585 -3.64452864 10.27153872
v -8.86233058 -3.11623682 9.66852600
v -8.73478797 -2.98619159 9.51629932
v -8.67081138 -2.91632839 9.43906824
v -8.94968318 -2.10361144 9.19822894
v -9.02883408 -2.18132465 9.25757500
v -9.16047787 -2.10361144 9.29151602
v -9.14284338 -1.99135927 9.24558383
v -10.60076972 -1.99135927 10.36035466
v -10.60076972 -1.99345263 10.34633116
v -10.17056872 -2.67298416 10.33190102
v -9.97494834 -2.91580497 10.30852863
v -9.75964255 -3.13664601 10.41116477
v -9.60954378 -3.20729450 10.48473765
v -9.38890704 -3.42761244 10.48473765
v -8.92425691 -3.80073971 10.45669065
v -8.66301960 -4.00692821 10.40567723
v -9.15473635 -3.63563211 10.46888498
v -9.07476561 -3.76750882 10.37945940
v -8.39522026 -4.19741669 10.35832216
v -8.04457943 -4.24634728 10.47132377
v -7.74602221 -4.42192135 10.36645182
v -7.61724919 -4.44416234 10.40547391
v -7.39620188 -4.47320651 10.44957724
v -7.19689024 -4.47739323 10.48433103
v -6.44885720 -4.64119244 10.36380972
v -9.31795851 -3.57231053 10.41116477
v -7.74602221 -4.42192135 10.34145356
v -8.73478797 -2.77503173 9.39252629
v -8.58345878 -2.62667035 9.25757500
v -8.72904645 -2.54738719 9.28358968
v -8.94968318 -2.32680771 9.28358968
v -9.31795851 -3.57231053 10.30852863
v -9.08501823 -2.90350702 9.66649368
v -8.93820014 -2.97860345 9.62300030
v -8.81803940 -2.85850127 9.47585452
v -9.17729186 -2.33282591 9.39252629
v -9.31877835 -2.26871904 9.43886494
v -9.38849646 -2.09340684 9.41061461
v -9.37824384 -1.99135927 9.36915372
v -9.25480242 -1.99135927 9.30289741
v -9.20558955 -1.99135927 9.27667942
v -10.60076972 -1.99135927 10.34572154
v -10.48471016 -2.07927708 10.28535922
v -10.41007036 -2.26139277 10.31238999
v -9.84084371 -1.99135927 9.69006954
v -10.21198980 -2.53901408 10.29409850
v -9.71207003 -2.20461249 9.69128895
v -9.51891049 -2.46025435 9.66832285
v -10.04712664 -2.75174389 10.27113242
v -9.81705778 -2.97310867 10.23495575
v -9.75964255 -3.13664601 10.30852863
v -9.30565562 -2.68266566 9.66649368
v -9.53900582 -3.35722582 10.41116477
v -8.89308845 -2.71144828 9.43581636
v -8.95665513 -2.55419037 9.39049378
v -9.53900582 -3.35722582 10.30852863
v -9.37537308 -3.41452919 10.23495575
v -9.16006795 -2.75776209 9.62178089
v -8.95665513 -2.77503173 9.50756006
v -9.04031647 -2.63792178 9.47585452
v -9.11372584 -2.49060692 9.43581636
v -9.26095386 -2.41577219 9.47585452
v -9.38849646 -2.33282591 9.51609617
v -9.46600636 -2.16431672 9.48825216
v -9.51234847 -2.01726357 9.45593702
v -9.46764736 -1.99135927 9.41915073
v -9.78260864 -1.99135927 9.64190155
v -9.75759229 -2.05755934 9.65450251
v -9.56607243 -2.31843460 9.63295913
v -9.38070468 -2.53613592 9.62300030
v -9.17729186 -2.55419037 9.50756006
v -9.63989173 -1.99135927 9.53621683
v -9.54064616 -1.99135927 9.46447314
v -9.52055083 -1.99135927 9.45105925
v -9.71986247 -1.99135927 9.59515644
f 1 2 5
f 1 5 9
f 1 9 12
f 1 12 11
f 1 11 24
f 1 24 45
f 1 45 77
f 1 77 78
f 1 78 46
f 1 46 25
f 1 25 13
f 1 13 7
f 1 7 3
f 1 3 8
f 1 8 16
f 1 16 29
f 1 29 51
f 1 51 94
f 1 94 128
f 1 128 127
f 1 127 126
f 1 126 153
f 1 153 161
f 1 161 160
f 1 160 159
f 1 159 162
f 1 162 154
f 1 154 132
f 1 132 129
f 1 129 95
f 1 95 54
f 1 54 32
f 1 32 17
f 1 17 10
f 1 10 6
f 1 6 4
f 1 4 2
f 2 4 6
f 2 6 5
f 3 7 14
f 3 14 27
f 3 27 49
f 3 49 82
f 3 82 81
f 3 81 53
f 3 53 52
f 3 52 31
f 3 31 30
f 3 30 28
f 3 28 15
f 3 15 8
f 5 6 9
f 6 10 11
f 6 11 12
f 6 12 9
f 7 13 14
f 8 15 16
f 10 17 18
f 10 18 19
f 10 19 20
f 10 20 21
f 10 21 22
f 10 22 23
f 10 23 11
f 11 23 44
f 11 44 24
f 13 25 26
f 13 26 14
f 14 26 27
f 15 28 16
f 16 28 30
f 16 30 31
f 16 31 29
f 17 32 33
f 17 33 18
f 18 33 34
f 18 34 35
f 18 35 19
f 19 35 36
f 19 36 37
f 19 37 64
f 19 64 38
f 19 38 20
f 20 39 40
f 20 40 41
f 20 41 42
f 20 42 22
f 20 22 21
f 20 38 43
f 20 43 39
f 22 42 44
f 22 44 23
f 24 44 45
f 25 46 47
f 25 47 26
f 26 47 48
f 26 48 27
f 27 48 49
f 29 50 51
f 29 31 52
f 29 52 53
f 29 53 50
f 32 54 55
f 32 55 56
f 32 56 33
f 33 56 57
f 33 57 34
f 34 57 56
f 34 56 58
f 34 58 59
f 34 59 60
f 34 60 61
f 34 61 36
f 34 36 35
f 36 61 62
f 36 62 63
f 36 63 37
f 37 63 100
f 37 100 64
f 38 64 43
f 39 65 40
f 39 43 66
f 39 66 65
f 40 65 67
f 40 67 68
f 40 68 69
f 40 69 70
f 40 70 41
f 41 70 71
f 41 71 72
f 41 72 42
f 42 72 73
f 42 73 74
f 42 74 44
f 43 64 75
f 43 75 66
f 44 74 73
f 44 73 76
f 44 76 45
f 45 76 77
f 46 78 79
f 46 79 80
f 46 80 47
f 47 80 48
f 48 81 82
f 48 82 49
f 48 80 83
f 48 83 84
f 48 84 85
f 48 85 86
f 48 86 87
f 48 87 88
f 48 88 89
f 48 89 90
f 48 90 81
f 50 53 91
f 50 91 92
f 50 92 93
f 50 93 94
f 50 94 51
f 53 81 92
f 53 92 91
f 54 95 55
f 55 58 56
f 55 95 129
f 55 129 96
f 55 96 97
f 55 97 60
f 55 60 58
f 58 60 59
f 60 62 61
f 60 97 98
f 60 98 62
f 62 98 138
f 62 138 99
f 62 99 63
f 63 99 100
f 64 101 75
f 64 100 140
f 64 140 101
f 65 102 103
f 65 103 68
f 65 68 67
f 65 66 75
f 65 75 104
f 65 104 105
f 65 105 102
f 68 103 106
f 68 106 69
f 69 107 70
f 69 106 108
f 69 108 109
f 69 109 107
f 70 107 109
f 70 109 71
f 71 109 110
f 71 110 111
f 71 111 112
f 71 112 72
f 72 112 76
f 72 76 73
f 75 101 113
f 75 113 104
f 76 112 77
f 77 112 78
f 78 112 79
f 79 112 80
f 80 112 109
f 80 109 108
f 80 108 114
f 80 114 83
f 81 90 115
f 81 115 116
f 81 116 117
f 81 117 118
f 81 118 92
f 83 114 84
f 84 106 105
f 84 105 86
f 84 86 85
f 84 114 108
f 84 108 106
f 86 105 113
f 86 113 119
f 86 119 87
f 87 119 88
f 88 119 120
f 88 120 121
f 88 121 122
f 88 122 89
f 89 122 90
f 90 122 115
f 92 118 123
f 92 123 93
f 93 123 124
f 93 124 125
f 93 125 126
f 93 126 127
f 93 127 128
f 93 128 94
f 96 130 131
f 96 131 97
f 96 129 132
f 96 132 130
f 97 131 133
f 97 133 134
f 97 134 135
f 97 135 136
f 97 136 98
f 98 137 138
f 98 136 135
f 98 135 139
f 98 139 137
f 99 138 143
f 99 143 140
f 99 140 100
f 101 140 113
f 102 105 103
f 103 105 106
f 104 113 105
f 109 112 110
f 110 112 111
f 113 140 143
f 113 143 119
f 115 122 141
f 115 141 142
f 115 142 117
f 115 117 116
f 117 142 118
f 118 142 123
f 119 143 144
f 119 144 120
f 120 144 143
f 120 143 138
f 120 138 139
f 120 139 145
f 120 145 121
f 121 145 146
f 121 146 122
f 122 146 147
f 122 147 141
f 123 142 148
f 123 148 149
f 123 149 124
f 124 149 150
f 124 150 151
f 124 151 152
f 124 152 125
f 125 152 153
f 125 153 126
f 130 132 131
f 131 132 134
f 131 134 133
f 132 154 155
f 132 155 134
f 134 155 156
f 134 156 135
f 135 156 151
f 135 151 150
f 135 150 149
f 135 149 157
f 135 157 139
f 137 139 138
f 139 157 145
f 141 147 148
f 141 148 142
f 145 158 146
f 145 157 158
f 146 158 147
f 147 158 149
f 147 149 148
f 149 158 157
f 151 156 159
f 151 159 160
f 151 160 152
f 152 160 161
f 152 161 153
f 154 162 156
f 154 156 155
f 156 162 159

