# https://github.com/mikedh/trimesh
v -8.94785005 -2.27172764 1.97381348
v -8.89204358 -2.37920058 1.97381348
v -8.66733067 -2.27172764 2.27664853
v -8.63831118 -2.27172764 1.97381348
v -8.84442237 -2.44164293 1.97381348
v -8.48800645 -2.27172764 2.45769337
v -8.53786019 -2.27172764 1.97422340
v -1.34629563 -3.21436712 1.97381348
v -8.78712755 -2.49003579 1.97381348
v -8.27966340 -2.27172764 2.63033186
v -1.34629563 -2.27172764 3.78241683
v -1.34629563 -3.49847972 1.97381348
v -8.50140027 -2.65454726 1.97381348
v -6.91501476 -2.27172764 3.69240699
v -1.34629563 -2.27172764 4.06843890
v -1.34629563 -3.35522261 2.27418802
v -2.31881261 -3.14039681 2.92086469
v -1.87682688 -3.49847972 1.97381348
v -7.94259337 -2.94490408 1.97381348
v -6.85027952 -2.43179628 3.51300248
v -6.76843025 -2.27172764 3.79635908
v -4.47963003 -2.27172764 4.06843890
v -1.34629563 -2.31831929 4.06741375
v -1.34629563 -2.77534920 3.48634776
v -2.53906113 -3.49835964 1.97381348
v -1.34629563 -2.71230645 3.61797972
v -1.34629563 -2.68901071 3.66636747
v -1.34629563 -2.65442718 3.73812926
v -1.34629563 -2.59438645 3.84843777
v -2.53906113 -2.59438645 3.84843777
v -5.18799748 -2.48102971 4.00590361
v -5.18799748 -2.57793534 3.83880100
v -5.40899018 -2.57505339 3.83880100
v -5.40899018 -2.69705614 3.60711286
v -5.85023140 -3.34465547 2.24896867
v -5.85023140 -3.47626471 1.97381348
v -7.61594113 -3.10605361 1.97381348
v -6.72825012 -2.27172764 3.82342371
v -7.47382100 -3.14760168 1.97381348
v -7.29970600 -3.19599438 1.97381348
v -6.73345868 -2.44644618 3.53986185
v -6.51246532 -2.33068764 3.83880100
v -6.51246532 -2.27172764 3.93701223
v -5.18799748 -2.27172764 4.06823394
v -5.18799748 -2.31831929 4.06741375
v -1.34629563 -2.48391165 4.00590361
v -1.34629563 -2.54995627 3.91179289
v -2.53906113 -2.48391165 4.00590361
v -5.40899018 -2.31831929 4.06433837
v -5.40899018 -2.47802768 4.00282820
v -5.62923870 -2.46121616 3.98683537
v -5.62923870 -2.54683416 3.83880100
v -5.62923870 -2.68805006 3.58435403
v -5.62923870 -2.91140145 3.14742686
v -6.07122410 -3.46437668 1.97381348
v -5.99979195 -3.47002049 1.97381348
v -6.73866724 -3.33288752 1.97381348
v -5.79070472 -2.44128269 3.96571688
v -6.07122410 -2.46698005 3.79840933
v -6.24757162 -2.44512528 3.75842791
v -5.93803340 -2.42002816 3.93885754
v -6.29221680 -2.27172764 3.99995745
v -5.40899018 -2.27172764 4.06597838
v -5.62923870 -2.27172764 4.05429169
v -5.62923870 -2.31831929 4.04916570
v -6.25352436 -2.27172764 4.00733866
v -6.40903830 -3.40997960 1.97381348
v -6.20218293 -3.44708500 1.97381348
f 1 2 3
f 1 3 6
f 1 6 10
f 1 10 14
f 1 14 21
f 1 21 38
f 1 38 43
f 1 43 62
f 1 62 66
f 1 66 64
f 1 64 63
f 1 63 44
f 1 44 22
f 1 22 15
f 1 15 11
f 1 11 7
f 1 7 4
f 1 4 8
f 1 8 12
f 1 12 18
f 1 18 25
f 1 25 36
f 1 36 56
f 1 56 55
f 1 55 68
f 1 68 67
f 1 67 57
f 1 57 40
f 1 40 39
f 1 39 37
f 1 37 19
f 1 19 13
f 1 13 9
f 1 9 5
f 1 5 2
f 2 5 6
f 2 6 3
f 4 7 8
f 5 9 6
f 6 9 10
f 7 11 8
f 8 11 15
f 8 15 23
f 8 23 46
f 8 46 47
f 8 47 29
f 8 29 28
f 8 28 27
f 8 27 26
f 8 26 24
f 8 24 16
f 8 16 12
f 9 13 14
f 9 14 10
f 12 16 17
f 12 17 18
f 13 19 20
f 13 20 14
f 14 20 21
f 15 22 45
f 15 45 23
f 16 24 17
f 17 25 18
f 17 24 26
f 17 26 27
f 17 27 28
f 17 28 29
f 17 29 30
f 17 30 31
f 17 31 32
f 17 32 33
f 17 33 34
f 17 34 35
f 17 35 36
f 17 36 25
f 19 37 20
f 20 38 21
f 20 37 39
f 20 39 40
f 20 40 41
f 20 41 42
f 20 42 43
f 20 43 38
f 22 44 45
f 23 45 48
f 23 48 46
f 29 47 30
f 30 47 48
f 30 48 31
f 31 45 49
f 31 49 50
f 31 50 33
f 31 33 32
f 31 48 45
f 33 50 51
f 33 51 52
f 33 52 53
f 33 53 34
f 34 53 54
f 34 54 35
f 35 54 55
f 35 55 56
f 35 56 36
f 40 57 58
f 40 58 59
f 40 59 60
f 40 60 41
f 41 60 42
f 42 60 61
f 42 61 43
f 43 61 58
f 43 58 62
f 44 63 45
f 45 63 49
f 46 48 47
f 49 63 64
f 49 64 65
f 49 65 50
f 50 65 66
f 50 66 51
f 51 66 62
f 51 62 58
f 51 58 52
f 52 58 53
f 53 58 67
f 53 67 68
f 53 68 55
f 53 55 54
f 57 67 58
f 58 61 59
f 59 61 60
f 64 66 65

