# https://github.com/mikedh/trimesh
v -5.63938802 0.39162559 8.50741636
v -5.63938802 0.34103815 8.49109241
v -5.63938802 -0.39022229 8.50741636
v -4.52605701 0.37172741 8.50741636
v -5.63938802 0.33116557 8.48834805
v -4.52605701 0.33116557 8.49465930
v -4.52605701 -0.37170159 8.50741636
v -5.63938802 -0.33113978 8.48834805
v -4.43616988 0.33116557 8.50741636
v -5.63938802 0.12154523 8.48178291
v -4.52605701 0.11037160 8.48818808
v -4.52605701 -0.33113978 8.49465930
v -4.48221260 -0.35853814 8.50741636
v -5.63938802 -0.11034583 8.48148082
v -4.39183691 0.11037160 8.50741636
v -5.63938802 0.11037160 8.48148336
v -4.39171486 -0.02386500 8.50741636
v -4.52605701 -0.11034583 8.48818808
v -5.63938802 -0.09871301 8.48148082
v -4.41369793 -0.22269438 8.50741636
v -4.43616988 -0.33113978 8.50741636
v -4.39171486 -0.11034583 8.50741636
f 1 2 5
f 1 5 10
f 1 10 16
f 1 16 19
f 1 19 14
f 1 14 8
f 1 8 3
f 1 3 7
f 1 7 13
f 1 13 21
f 1 21 20
f 1 20 22
f 1 22 17
f 1 17 15
f 1 15 9
f 1 9 4
f 1 4 2
f 2 4 6
f 2 6 5
f 3 8 7
f 4 9 6
f 5 6 10
f 6 9 11
f 6 11 10
f 7 12 13
f 7 8 12
f 8 14 12
f 9 15 11
f 10 11 16
f 11 15 17
f 11 17 22
f 11 22 18
f 11 18 14
f 11 14 19
f 11 19 16
f 12 18 20
f 12 20 21
f 12 21 13
f 12 14 18
f 18 22 20

