# https://github.com/mikedh/trimesh
v 5.08703787 1.87243421 9.25313594
v 4.12944814 -0.22990190 9.25313594
v 3.62206590 1.87243421 9.25313594
v 2.99674130 1.87243421 10.41523832
v 2.52399046 -0.22990190 10.41616048
v 2.63441887 -0.22990190 10.34068045
v 2.81770363 -0.22990190 9.25313594
v 3.54332887 1.74854964 9.25313594
v 3.58155382 1.87243421 9.27236818
v 2.99282073 1.87243421 10.41721422
v 2.31456897 -0.22990190 10.53050007
v 2.41552265 -0.22990190 10.47596483
v 2.79875450 -0.19409469 9.25313594
v 2.39395970 -0.22990190 9.45217651
v 3.46720500 1.62795743 9.25313594
v 3.42277235 1.66746889 9.28738505
v 3.42211898 1.87243421 9.35469793
v 2.75007459 1.87243421 10.53181736
v 2.21328844 -0.22990190 10.57449714
v 2.79646736 -0.18401108 9.25313594
v 2.53901935 -0.11033876 9.36879282
v 2.38023788 -0.11033876 9.44545854
v 1.96008751 -0.22990190 9.67229360
v 1.94081153 -0.11033876 9.66425819
v 3.36559795 1.43472189 9.25313594
v 3.34370831 1.43472189 9.26406925
v 3.19244129 1.65594472 9.40817943
v 3.27117865 1.87243421 9.43834512
v 2.74550065 1.87243421 10.53379327
v 2.64552703 1.87243421 10.57120396
v 2.54522672 1.87243421 10.59386113
v 2.10580053 -0.22990190 10.59425624
v 2.78078542 -0.11033876 9.25313594
v 2.53901935 0.11067820 9.36826594
v 2.77817160 0.11067820 9.25313594
v 2.38023788 0.11067820 9.44545854
v 1.95289992 -0.22990190 9.68111939
v 1.74935895 -0.03522596 9.87410061
v 1.94081153 0.11067820 9.66425819
v 2.83011870 0.25946332 9.25313594
v 2.39526645 0.24258867 9.45283514
v 3.20158917 1.43472189 9.34073497
v 1.96106757 0.23847289 9.67295223
v 3.07221146 1.58206653 9.45494281
v 3.26660438 1.87243421 9.44097967
v 2.36716944 1.87243421 10.59425624
v 2.31848937 1.43472189 10.59807647
v 2.09763271 0.55209469 10.59886671
v 1.94505878 -0.11033876 10.59491488
v 1.94963272 -0.22990190 10.59359762
v 1.91728830 -0.22990190 9.80020137
v 1.74935895 -0.03522596 9.94681434
v 1.74935895 0.03535953 9.87410061
v 1.84737229 -0.22990190 10.45462492
v 2.18878514 1.87243421 10.32829794
v 2.86377004 1.77756568 9.68362218
v 3.11272354 1.72961696 9.48365946
v 3.15650282 1.87243421 9.51474732
v 2.36390225 1.87243421 10.59320250
v 2.19466583 1.59029818 10.58174215
v 2.17440995 1.43472189 10.59083146
v 2.14043193 1.21411658 10.59478328
v 2.09763271 0.77311165 10.59754944
v 1.94505878 0.11067820 10.59491488
v 1.82580934 -0.10272455 10.44500857
v 1.84312504 -0.20623621 10.45278061
v 1.76373415 -0.02411336 10.35991250
v 1.74935895 0.03535953 9.94681434
v 1.98361075 1.33491441 10.34660817
v 2.18878514 1.87243421 10.39785025
v 2.97060440 1.87243421 9.65095369
v 2.98759342 1.87243421 9.63685896
v 3.10912999 1.87243421 9.54873307
v 2.25674103 1.87243421 10.50823803
v 2.22799048 1.73743704 10.55776771
v 2.00190651 1.07603241 10.56369543
v 1.97936349 0.92909942 10.57871248
v 1.97021562 0.77311165 10.58503534
v 1.96106757 0.55209469 10.58990932
v 1.95355329 0.33128355 10.59280737
v 1.82580934 0.10306399 10.44500857
v 1.76373415 0.02445279 10.35991250
v 1.96335454 1.21411658 10.40838842
v 1.98361075 1.33491441 10.36241546
v 2.15513381 1.66067789 10.47530618
v 1.94015816 0.99886170 10.47899449
v 1.90160619 0.77311165 10.46226504
f 1 2 7
f 1 7 13
f 1 13 20
f 1 20 33
f 1 33 35
f 1 35 40
f 1 40 25
f 1 25 15
f 1 15 8
f 1 8 3
f 1 3 9
f 1 9 17
f 1 17 28
f 1 28 45
f 1 45 58
f 1 58 73
f 1 73 72
f 1 72 71
f 1 71 55
f 1 55 70
f 1 70 74
f 1 74 59
f 1 59 46
f 1 46 31
f 1 31 30
f 1 30 29
f 1 29 18
f 1 18 10
f 1 10 4
f 1 4 5
f 1 5 6
f 1 6 2
f 2 6 5
f 2 5 12
f 2 12 11
f 2 11 19
f 2 19 32
f 2 32 50
f 2 50 54
f 2 54 51
f 2 51 37
f 2 37 23
f 2 23 14
f 2 14 7
f 3 8 9
f 4 10 11
f 4 11 12
f 4 12 5
f 7 14 13
f 8 15 9
f 9 15 16
f 9 16 17
f 10 18 11
f 11 18 19
f 13 14 21
f 13 21 20
f 14 22 21
f 14 23 24
f 14 24 22
f 15 25 26
f 15 26 16
f 16 26 27
f 16 27 17
f 17 27 28
f 18 29 19
f 19 29 30
f 19 30 31
f 19 31 32
f 20 21 33
f 21 34 35
f 21 35 33
f 21 22 34
f 22 36 34
f 22 24 39
f 22 39 36
f 23 37 38
f 23 38 24
f 24 38 53
f 24 53 39
f 25 40 41
f 25 41 26
f 26 42 27
f 26 41 43
f 26 43 42
f 27 44 45
f 27 45 28
f 27 42 43
f 27 43 44
f 31 46 47
f 31 47 32
f 32 47 48
f 32 48 49
f 32 49 50
f 34 36 41
f 34 41 35
f 35 41 40
f 36 39 41
f 37 51 38
f 38 52 68
f 38 68 53
f 38 51 54
f 38 54 52
f 39 53 43
f 39 43 41
f 43 53 55
f 43 55 56
f 43 56 57
f 43 57 44
f 44 57 45
f 45 57 58
f 46 59 60
f 46 60 61
f 46 61 62
f 46 62 47
f 47 62 63
f 47 63 48
f 48 63 64
f 48 64 49
f 49 64 81
f 49 81 65
f 49 65 50
f 50 65 66
f 50 66 54
f 52 54 67
f 52 67 82
f 52 82 68
f 53 68 84
f 53 84 69
f 53 69 55
f 54 66 67
f 55 71 56
f 55 69 84
f 55 84 70
f 56 71 72
f 56 72 73
f 56 73 57
f 57 73 58
f 59 74 75
f 59 75 60
f 60 75 76
f 60 76 77
f 60 77 61
f 61 77 78
f 61 78 62
f 62 78 79
f 62 79 80
f 62 80 63
f 63 80 64
f 64 80 79
f 64 79 81
f 65 81 82
f 65 82 67
f 65 67 66
f 68 82 83
f 68 83 84
f 70 75 74
f 70 84 83
f 70 83 85
f 70 85 75
f 75 85 76
f 76 85 83
f 76 83 86
f 76 86 77
f 77 86 87
f 77 87 82
f 77 82 78
f 78 82 81
f 78 81 79
f 82 87 86
f 82 86 83

