# https://github.com/mikedh/trimesh
v 0.09261470 -0.61680472 7.79391858
v 0.21369364 -0.61680472 7.70811222
v -0.09265793 -0.61680472 7.79391858
v 0.11032071 -1.51223327 7.63524231
v 0.25965391 -1.51223327 7.53486194
v 0.32701208 -0.61680472 7.58930968
v -0.09928826 -0.61680472 7.79375482
v -0.11036393 -1.51223327 7.63524231
v 0.29551799 -1.51223327 7.37143683
v 0.38480145 -0.61680472 7.37569440
v -0.32697996 -0.61680472 7.58930968
v -0.25962179 -1.51223327 7.53486194
v 0.25664012 -1.51223327 7.21366118
v 0.38487679 -0.61680472 7.37143683
v -0.38484471 -0.61680472 7.37143683
v -0.27220436 -1.51223327 7.47763040
v 0.16155510 -1.51223327 7.15209020
v 0.09171056 -0.61680472 6.95763397
v 0.32512845 -0.61680472 7.15618399
v 0.32746415 -0.61680472 7.16445352
v -0.38476937 -0.61680472 7.36717926
v -0.29548587 -1.51223327 7.37143683
v 0.11032071 -1.51223327 7.11901214
v -0.08022605 -0.61680472 6.96017213
v -0.11036393 -1.51223327 7.11901214
v -0.32509633 -0.61680472 7.15626587
v -0.25660800 -1.51223327 7.21366118
v -0.28192382 -1.51223327 7.31625219
v -0.19889397 -0.61680472 7.04213029
v -0.20544896 -1.51223327 7.18050127
f 1 2 6
f 1 6 10
f 1 10 14
f 1 14 20
f 1 20 19
f 1 19 18
f 1 18 24
f 1 24 29
f 1 29 26
f 1 26 21
f 1 21 15
f 1 15 11
f 1 11 7
f 1 7 3
f 1 3 8
f 1 8 4
f 1 4 5
f 1 5 2
f 2 5 6
f 3 7 8
f 4 8 12
f 4 12 16
f 4 16 22
f 4 22 28
f 4 28 27
f 4 27 30
f 4 30 25
f 4 25 23
f 4 23 17
f 4 17 13
f 4 13 9
f 4 9 5
f 5 9 10
f 5 10 6
f 7 11 12
f 7 12 8
f 9 13 14
f 9 14 10
f 11 15 12
f 12 15 16
f 13 17 18
f 13 18 19
f 13 19 20
f 13 20 14
f 15 21 22
f 15 22 16
f 17 23 18
f 18 23 25
f 18 25 24
f 21 26 27
f 21 27 28
f 21 28 22
f 24 25 30
f 24 30 27
f 24 27 29
f 26 29 27

