# https://github.com/mikedh/trimesh
v -0.86368942 -2.31819904 4.57599451
v -0.76251992 -2.48875997 4.72207484
v -0.76251992 -2.48875997 5.16359521
v -0.76251992 -2.48870832 6.09880742
v -0.86318196 -2.31819904 6.09880742
v -0.77740768 -2.10607063 4.57599451
v -0.76167393 -2.48648517 4.57599451
v -0.55189096 -2.54888804 4.72207484
v -0.71278100 -2.50292609 6.09880742
v -0.55189096 -2.54888804 6.09880742
v -0.76302739 -2.14432914 6.09880742
v -0.55476703 -2.02407315 4.57599451
v -0.69028010 -2.50685537 4.57599451
v -0.55189096 -2.54439010 4.57599451
v 0.55183845 -2.54888804 4.72207484
v 0.55183845 -2.54888804 6.09880742
v -0.55189096 -2.02309079 4.57599451
v -0.55189096 -2.08084060 6.09880742
v 0.55183845 -2.54439010 4.57599451
v 0.76212908 -2.48648517 4.57599451
v 0.76297491 -2.48875997 4.72207484
v 0.76297491 -2.48875997 5.16359521
v 0.60174651 -2.53467044 6.09880742
v -0.33111127 -2.02076434 4.57599451
v 0.55183845 -2.08084060 6.09880742
v 0.83030851 -2.37594885 4.57599451
v 0.76297491 -2.48870832 6.09880742
v 0.33105871 -2.02076434 4.57599451
v 0.76348238 -2.14432914 6.09880742
v 0.55183845 -2.02309079 4.57599451
v 0.86465204 -2.31819904 4.57599451
v 0.84029005 -2.35842227 6.09880742
v 0.86414441 -2.31819904 6.09880742
v 0.77803194 -2.10607063 4.57599451
v 0.81017601 -2.16294155 4.57599451
f 1 2 3
f 1 3 4
f 1 4 5
f 1 5 6
f 1 6 12
f 1 12 17
f 1 17 24
f 1 24 28
f 1 28 30
f 1 30 34
f 1 34 35
f 1 35 31
f 1 31 26
f 1 26 20
f 1 20 19
f 1 19 14
f 1 14 13
f 1 13 7
f 1 7 2
f 2 7 8
f 2 8 10
f 2 10 3
f 3 9 4
f 3 10 9
f 4 9 10
f 4 10 16
f 4 16 23
f 4 23 27
f 4 27 32
f 4 32 33
f 4 33 29
f 4 29 25
f 4 25 18
f 4 18 11
f 4 11 5
f 5 11 6
f 6 11 12
f 7 13 8
f 8 13 14
f 8 14 19
f 8 19 15
f 8 15 16
f 8 16 10
f 11 17 12
f 11 18 17
f 15 19 20
f 15 20 21
f 15 21 22
f 15 22 16
f 16 22 23
f 17 18 24
f 18 25 28
f 18 28 24
f 20 26 21
f 21 26 22
f 22 26 27
f 22 27 23
f 25 29 30
f 25 30 28
f 26 31 27
f 27 31 32
f 29 33 34
f 29 34 30
f 31 33 32
f 31 35 33
f 33 35 34

