# https://github.com/mikedh/trimesh
v -5.82980248 0.56889856 8.50741636
v -5.74539169 0.52137851 8.50741636
v -5.84859172 0.56889856 8.46783697
v -7.00678240 0.56889856 8.50741636
v -5.63938802 0.39159105 8.50741636
v -6.13603567 0.56889856 7.88506640
v -7.01407347 0.56889856 8.03378244
v -8.27910938 0.37167658 8.50741636
v -5.63938802 -0.39015518 8.50741636
v -5.63938802 0.38760814 8.50609704
v -5.88168279 -0.11039112 7.75863208
v -5.90860399 -0.03361738 7.75863208
v -6.29251815 0.56889856 7.84680625
v -5.96637387 0.05043545 7.75863208
v -6.92685838 0.56889856 7.89562088
v -8.32818473 0.36316143 8.50741636
v -5.87074586 -0.33109846 7.75863208
v -5.63938802 -0.37751980 8.50331190
v -5.89065630 -0.83417932 8.50741636
v -5.95263264 -0.49467190 7.75863208
v -5.63938802 0.34104946 8.49107152
v -5.63938802 0.33116090 8.48828628
v -6.29251815 0.14561292 7.75863208
v -6.51321871 0.14575026 7.75863208
v -6.73391992 0.56889856 7.84680625
v -6.02694739 0.08147457 7.75863208
v -6.91956732 0.56889856 7.88506640
v -8.43867581 0.33116090 8.50741636
v -5.63938802 0.12157821 8.48176309
v -5.63938802 0.11031623 8.48146980
v -5.63938802 -0.11039112 8.48146980
v -5.63938802 -0.33109846 8.48828628
v -6.06676893 -0.83417932 8.03378244
v -6.96443686 -0.83417932 8.50741636
v -6.11107722 -0.83417932 7.91680323
v -6.12846430 -0.83417932 7.87407207
v -6.24792890 -0.83417932 7.83669152
v -6.29251815 -0.83417932 7.82474438
v -6.07097538 -0.53628626 7.75863208
v -6.73391992 0.14575026 7.75863208
v -6.97284978 0.08216127 7.75863208
v -6.74710055 0.56889856 7.84885853
v -7.02360824 0.04439243 7.75863208
v -8.45494105 0.28625031 8.50741636
v -8.43867581 -0.33109846 8.50741636
v -7.02220608 -0.83417932 8.03378244
v -6.45180429 -0.83417932 7.82459779
v -6.51321871 -0.59081074 7.75863208
v -6.29251815 -0.59026133 7.75870535
v -7.07352514 -0.11039112 7.75863208
v -8.49981059 0.15316668 8.50741636
v -8.49981059 -0.15324158 8.50741636
v -7.06735593 -0.42435313 7.75863208
v -7.03734947 -0.48080039 7.75863208
v -7.00874516 -0.52062932 7.75863208
v -6.92854083 -0.83417932 7.87407207
v -6.51321871 -0.83417932 7.82459779
v -6.73391992 -0.83417932 7.82467111
v -6.73420088 -0.59039868 7.75863208
v -7.07913375 -0.31873775 7.75863208
v -8.50429735 0.11031623 8.50741636
v -8.50429735 -0.11039112 8.50741636
v -7.07913375 -0.33109846 7.75863208
v -6.97256948 -0.53257805 7.75863208
f 1 2 3
f 1 3 6
f 1 6 13
f 1 13 25
f 1 25 42
f 1 42 27
f 1 27 15
f 1 15 7
f 1 7 4
f 1 4 8
f 1 8 16
f 1 16 28
f 1 28 44
f 1 44 51
f 1 51 61
f 1 61 62
f 1 62 52
f 1 52 45
f 1 45 34
f 1 34 19
f 1 19 9
f 1 9 5
f 1 5 2
f 2 5 6
f 2 6 3
f 4 7 8
f 5 9 18
f 5 18 32
f 5 32 31
f 5 31 30
f 5 30 29
f 5 29 22
f 5 22 21
f 5 21 10
f 5 10 11
f 5 11 12
f 5 12 6
f 6 12 14
f 6 14 13
f 7 15 16
f 7 16 8
f 9 17 18
f 9 19 20
f 9 20 17
f 10 21 11
f 11 21 22
f 11 22 17
f 11 17 20
f 11 20 39
f 11 39 48
f 11 48 59
f 11 59 64
f 11 64 55
f 11 55 54
f 11 54 53
f 11 53 63
f 11 63 60
f 11 60 50
f 11 50 43
f 11 43 41
f 11 41 40
f 11 40 24
f 11 24 23
f 11 23 26
f 11 26 14
f 11 14 12
f 13 23 24
f 13 24 40
f 13 40 25
f 13 14 26
f 13 26 23
f 15 27 16
f 16 27 28
f 17 22 29
f 17 29 30
f 17 30 31
f 17 31 32
f 17 32 18
f 19 33 20
f 19 34 46
f 19 46 56
f 19 56 58
f 19 58 57
f 19 57 47
f 19 47 38
f 19 38 37
f 19 37 36
f 19 36 35
f 19 35 33
f 20 33 35
f 20 35 36
f 20 36 37
f 20 37 38
f 20 38 39
f 25 40 41
f 25 41 42
f 27 42 41
f 27 41 43
f 27 43 28
f 28 43 44
f 34 45 46
f 38 47 48
f 38 48 49
f 38 49 39
f 39 49 48
f 43 50 51
f 43 51 44
f 45 52 53
f 45 53 54
f 45 54 55
f 45 55 56
f 45 56 46
f 47 57 48
f 48 57 58
f 48 58 59
f 50 60 61
f 50 61 51
f 52 62 63
f 52 63 53
f 55 64 58
f 55 58 56
f 58 64 59
f 60 63 62
f 60 62 61

