# https://github.com/mikedh/trimesh
v -2.15141902 -0.33114828 4.18211065
v -2.15141902 -0.11043491 4.18211065
v -2.14424574 -0.55186164 4.18211065
v -2.45628428 -0.33114828 4.35997184
v -2.14294146 0.11027846 4.18211065
v -2.45595825 -0.11043491 4.36015938
v -2.44715466 -0.55186164 4.36991555
v -2.12598633 -0.62632905 4.18211065
v -3.14068238 -0.55186164 4.79993396
v -3.14720360 -0.33114828 4.79618151
v -3.14720360 -0.11043491 4.79618151
v -2.09044594 0.29720679 4.18211065
v -3.53651813 0.00728668 5.05040279
v -2.09142402 -0.74872671 4.18211065
v -3.11981458 -0.67893552 4.81344226
v -3.53651813 -0.46126163 5.05040279
v -3.64933484 -0.33114828 5.12038393
v -3.64933484 -0.11043491 5.12038393
v -2.68289545 0.23209165 4.59505583
v -2.91504961 0.22367462 4.81982137
v -1.95610954 0.33496655 4.18211065
v -3.79051833 0.04270837 5.24496185
v -3.80910360 -0.11043491 5.23051527
v -1.87687721 -0.80752912 4.18211065
v -3.75823855 -0.66490713 5.26972719
v -3.78497552 -0.55186164 5.24908936
v -3.80910360 -0.33114828 5.23051527
v -3.86388165 0.07485676 5.38248518
v -4.08527572 0.06643974 5.60462390
v -4.61446962 0.03183636 6.09880742
v -4.52415151 0.04551406 6.04983933
v -1.87687721 0.34677377 4.18211065
v -3.91963779 -0.11043491 5.32451149
v -4.01256446 0.04025339 5.45490544
v -1.65613521 -0.83055904 4.18211065
v -3.75823855 -0.66490713 5.29092792
v -4.52415151 -0.51527091 6.04890121
v -4.61805626 -0.49118884 6.09880742
v -4.44948408 -0.48662963 5.90105880
v -4.01256446 -0.50977646 5.45490544
v -3.91963779 -0.33114828 5.32451149
v -4.44948408 0.02961521 5.90105880
v -4.64577165 -0.00428673 6.09880742
v -4.55447512 0.03966888 6.09880742
v -4.52904226 0.04165625 6.09880742
v -1.73895417 0.35542463 4.18211065
v -4.03180211 -0.11043491 5.43501803
v -1.34148811 -0.82962380 4.18211065
v -3.64281361 -0.66771279 5.29468037
v -4.52675974 -0.51117931 6.09880742
v -4.67250828 -0.33114828 6.09880742
v -4.57697306 -0.33114828 5.99730663
v -4.46676523 -0.33114828 5.88342301
v -4.14233629 -0.33114828 5.54871397
v -4.03180211 -0.33114828 5.43501803
v -4.46643887 -0.11043491 5.88342301
v -4.57697306 -0.11043491 5.99843209
v -4.14233629 -0.11043491 5.54871397
v -4.67022609 -0.11043491 6.09880742
v -4.36275195 0.04376050 6.09880742
v -1.34148811 0.36372474 4.18211065
v -1.34148811 -0.75842976 4.27441816
v -4.32297285 -0.50825673 6.09880742
v -4.30047491 -0.52053157 6.05190308
v -3.50228218 -0.66677755 5.28454899
v -4.33373278 0.03885056 6.09880742
v -1.34148811 0.33414823 4.22451211
v -1.34148811 -0.55186164 4.36935265
v -4.22156845 -0.33114828 6.09880742
v -4.23787152 -0.09816007 6.09880742
v -1.34148811 0.11027846 4.36316108
v -1.34148811 0.15762428 4.34177281
v -1.34148811 0.28528265 4.27272978
v -1.34148811 -0.33114828 4.37254187
v -4.22254654 -0.29981821 6.09880742
v -1.34148811 -0.11043491 4.37254187
v -4.23330647 -0.11043491 6.09880742
v -1.34148811 -0.07033709 4.37104103
f 1 2 5
f 1 5 12
f 1 12 21
f 1 21 32
f 1 32 46
f 1 46 61
f 1 61 48
f 1 48 35
f 1 35 24
f 1 24 14
f 1 14 8
f 1 8 3
f 1 3 4
f 1 4 2
f 2 4 6
f 2 6 5
f 3 7 4
f 3 8 7
f 4 7 9
f 4 9 10
f 4 10 11
f 4 11 6
f 5 6 13
f 5 13 12
f 6 11 13
f 7 8 9
f 8 14 9
f 9 15 16
f 9 16 10
f 9 14 15
f 10 16 17
f 10 17 18
f 10 18 11
f 11 18 13
f 12 19 20
f 12 20 21
f 12 13 22
f 12 22 19
f 13 18 23
f 13 23 22
f 14 24 25
f 14 25 15
f 15 25 26
f 15 26 16
f 16 26 27
f 16 27 17
f 17 27 23
f 17 23 18
f 19 22 28
f 19 28 20
f 20 28 29
f 20 29 30
f 20 30 31
f 20 31 21
f 21 31 32
f 22 23 33
f 22 33 34
f 22 34 28
f 23 27 41
f 23 41 33
f 24 35 25
f 25 36 37
f 25 37 38
f 25 38 39
f 25 39 40
f 25 40 26
f 25 35 36
f 26 40 41
f 26 41 27
f 28 34 42
f 28 42 29
f 29 42 30
f 30 42 43
f 30 43 59
f 30 59 51
f 30 51 38
f 30 38 50
f 30 50 63
f 30 63 69
f 30 69 75
f 30 75 77
f 30 77 70
f 30 70 66
f 30 66 60
f 30 60 45
f 30 45 44
f 30 44 31
f 31 44 45
f 31 45 46
f 31 46 32
f 33 41 55
f 33 55 47
f 33 47 34
f 34 47 42
f 35 48 49
f 35 49 36
f 36 49 50
f 36 50 37
f 37 50 38
f 38 51 39
f 39 51 52
f 39 52 53
f 39 53 40
f 40 54 55
f 40 55 41
f 40 53 54
f 42 56 57
f 42 57 43
f 42 47 58
f 42 58 56
f 43 57 59
f 45 60 61
f 45 61 46
f 47 55 54
f 47 54 58
f 48 61 67
f 48 67 73
f 48 73 72
f 48 72 71
f 48 71 78
f 48 78 76
f 48 76 74
f 48 74 68
f 48 68 62
f 48 62 63
f 48 63 64
f 48 64 65
f 48 65 49
f 49 65 64
f 49 64 50
f 50 64 63
f 51 59 57
f 51 57 52
f 52 57 56
f 52 56 53
f 53 56 58
f 53 58 54
f 60 66 61
f 61 66 67
f 62 68 63
f 63 68 69
f 66 70 71
f 66 71 72
f 66 72 73
f 66 73 67
f 68 74 69
f 69 74 76
f 69 76 75
f 70 77 71
f 71 77 78
f 75 76 77
f 76 78 77

