# https://github.com/mikedh/trimesh
v -8.72071973 -0.33115878 6.50954722
v -8.72071973 -0.11045498 6.51440935
v -7.41716508 -0.33115878 6.90764860
v -8.59740398 -0.47605365 6.58259767
v -8.72071973 -0.51430586 6.56054024
v -8.89071578 -0.50398937 6.56397934
v -8.92341733 -0.33115878 6.53753410
v -8.92067158 -0.11045498 6.54061739
v -8.72071973 0.05820260 6.56540237
v -8.59915091 0.02597799 6.58485091
v -7.41716508 -0.11045498 6.93255215
v -8.88722126 0.05159541 6.56812987
v -7.41716508 -0.45820260 6.98769578
v -7.41716508 -0.47060558 6.99587840
v -8.72071973 -0.62465774 6.63406510
v -8.89371156 -0.71333338 6.75502528
v -9.94414375 -0.44997256 7.02730434
v -9.95862191 -0.33115878 7.00062194
v -9.95712435 -0.15589401 7.00038473
v -8.72071973 0.16855453 6.64734696
v -7.41716508 0.00940202 7.02066339
v -8.89046641 0.26035988 6.76557967
v -7.41716508 -0.48011066 7.16818739
v -8.72071973 -0.83365409 7.15051771
v -8.72071973 -0.81093458 6.92982465
v -8.72071973 -0.71924515 6.74447096
v -8.93015700 -0.75436765 6.92982465
v -9.94414375 -0.44997256 7.08564983
v -9.96636106 -0.34460503 7.15573561
v -9.96735921 -0.13897029 7.15051771
v -9.81408766 -0.03371868 7.13249228
v -9.73345829 0.00094017 7.03857021
v -8.72071973 0.26476468 6.75775277
v -7.41716508 0.01427049 7.12466542
v -8.72071973 0.33408237 6.92982465
v -8.72071973 0.35054239 7.15051771
v -8.92516426 0.29594604 6.92982465
v -7.41716508 -0.47953111 7.17067774
v -8.92291792 -0.73605289 7.37132938
v -8.93440097 -0.76572740 7.15051771
v -8.72071973 -0.77685531 7.37132938
v -9.82457255 -0.42887587 7.23566421
v -9.95562679 -0.27992399 7.28428547
v -8.88547367 -0.69443910 7.51660021
v -9.95562679 -0.17664296 7.28428547
v -9.73345829 0.00094017 7.04710860
v -8.87374125 0.24192927 7.50592727
v -8.91168491 0.27797911 7.37132938
v -8.92915885 0.30765354 7.15051771
v -7.41716508 -0.00728987 7.22807456
v -8.72071973 0.30174185 7.37132938
v -7.41716508 -0.35318281 7.33895472
v -8.60039910 -0.67670403 7.49750748
v -8.72071973 -0.69722112 7.51968351
v -8.84927760 -0.45402962 7.70871349
v -8.87773518 -0.33115878 7.72104669
v -8.87249306 -0.11045498 7.71914928
v -8.84253792 0.00673595 7.70622313
v -8.80184851 0.00673595 7.70622313
v -8.72071973 0.24134968 7.50545291
v -7.41716508 -0.10280454 7.33029779
v -8.60564122 0.22709202 7.48908770
v -7.41716508 -0.35155999 7.34002204
v -8.71522758 -0.53737316 7.63886489
v -8.78512335 -0.45402962 7.70871349
v -8.71522758 -0.33452036 7.72080949
v -8.72521307 -0.11161414 7.71926784
v -8.65481789 -0.03881898 7.68653743
v -8.72521307 0.09239778 7.62356697
v -8.60489244 -0.18603213 7.70823913
v -8.60489244 -0.26323210 7.70823913
v -8.63809273 -0.41044527 7.69294121
f 1 2 3
f 1 3 4
f 1 4 5
f 1 5 6
f 1 6 7
f 1 7 8
f 1 8 2
f 2 9 10
f 2 10 11
f 2 11 3
f 2 8 12
f 2 12 9
f 3 11 21
f 3 21 34
f 3 34 50
f 3 50 61
f 3 61 63
f 3 63 52
f 3 52 38
f 3 38 23
f 3 23 14
f 3 14 13
f 3 13 5
f 3 5 4
f 5 13 14
f 5 14 15
f 5 15 6
f 6 15 16
f 6 16 17
f 6 17 18
f 6 18 7
f 7 18 19
f 7 19 8
f 8 19 12
f 9 20 10
f 9 12 20
f 10 21 11
f 10 20 21
f 12 22 20
f 12 19 22
f 14 23 24
f 14 24 25
f 14 25 26
f 14 26 15
f 15 26 16
f 16 26 25
f 16 25 27
f 16 27 17
f 17 28 29
f 17 29 18
f 17 27 24
f 17 24 28
f 18 29 30
f 18 30 19
f 19 30 31
f 19 31 32
f 19 32 22
f 20 33 21
f 20 22 33
f 21 33 35
f 21 35 36
f 21 36 34
f 22 37 35
f 22 35 33
f 22 32 37
f 23 38 24
f 24 39 40
f 24 40 28
f 24 27 25
f 24 38 41
f 24 41 39
f 28 42 43
f 28 43 29
f 28 40 39
f 28 39 44
f 28 44 42
f 29 43 30
f 30 43 45
f 30 45 31
f 31 46 32
f 31 45 47
f 31 47 48
f 31 48 49
f 31 49 46
f 32 46 49
f 32 49 37
f 34 36 50
f 35 37 36
f 36 37 49
f 36 49 48
f 36 48 51
f 36 51 50
f 38 52 53
f 38 53 41
f 39 41 44
f 41 53 54
f 41 54 44
f 42 44 43
f 43 44 55
f 43 55 56
f 43 56 45
f 44 54 55
f 45 56 57
f 45 57 58
f 45 58 47
f 47 58 59
f 47 59 60
f 47 60 51
f 47 51 48
f 50 51 62
f 50 62 61
f 51 60 62
f 52 63 64
f 52 64 53
f 53 64 54
f 54 64 65
f 54 65 55
f 55 65 66
f 55 66 56
f 56 67 57
f 56 66 67
f 57 67 59
f 57 59 58
f 59 67 68
f 59 68 61
f 59 61 69
f 59 69 60
f 60 69 62
f 61 62 69
f 61 68 70
f 61 70 63
f 63 71 72
f 63 72 64
f 63 70 71
f 64 72 65
f 65 72 66
f 66 72 71
f 66 71 70
f 66 70 67
f 67 70 68

