# https://github.com/mikedh/trimesh
v 5.85934967 1.67800346 3.79658806
v 5.85934967 1.67800346 3.76502909
v 5.85804556 1.67800346 4.06575335
v 5.85934967 1.66234850 4.07074148
v 0.01875741 1.67800346 3.81788354
v 5.85934967 -0.27237426 3.84037786
v 5.62849124 -0.27237426 3.83332762
v -6.27963888 -0.27218328 3.69212602
v -6.28876899 -0.11028826 3.69212602
v -6.35528801 0.04645219 3.69212602
v -7.36741333 1.14077136 3.69212602
v -5.90791772 1.67380325 3.75677935
v 5.84891544 1.67800346 4.06628105
v 5.85934967 1.65585737 4.07318753
v 0.01875741 1.67800346 4.18211031
v 5.85934967 -0.27237426 4.14469961
v 5.40676226 -0.27237426 3.83332762
v -6.83396033 -0.27218328 3.69212602
v -7.46523504 1.14077136 3.69212602
v -5.90791772 1.67380325 4.06580139
v 0.93827905 1.67800346 4.18211031
v 5.84891544 1.65585737 4.07342736
v 5.85934967 0.33148683 4.13664200
v 0.01875741 -0.27237426 4.18211031
v -5.83226924 1.67380325 4.06829546
v -0.93206699 1.67380325 4.18206229
v -6.73092217 0.18467396 4.18206229
v -6.91873892 0.07585294 4.18206229
v -7.01395240 -0.11028826 4.18206229
v -7.01786474 -0.27218328 4.18206229
v 5.85934967 -0.11028826 4.14469961
v 2.14996045 -0.27237426 4.18211031
v 0.01875741 -0.27237426 3.83999425
v -7.46523504 -0.27218328 3.83951459
v -7.46523504 1.08330629 3.69212602
v -7.46523504 1.14077136 4.00181953
v -5.90791772 1.65547558 4.07160475
v -7.38958656 1.14077136 4.02733562
v -7.24741906 1.14077136 4.05918245
v 2.08996331 0.29884051 4.18211031
v 5.85934967 0.11021749 4.14436404
v -7.39480367 -0.27218328 4.14407619
v -7.46523504 -0.27218328 4.13290075
v -5.84922469 1.65547558 4.07342736
v -6.95395526 0.55199254 4.14052671
v -7.17437947 0.33129589 4.14407619
v -7.39480367 0.11040839 4.13966344
v -7.39480367 -0.11028826 4.14407619
v 2.14213478 0.11059928 4.18211031
v 2.14996045 -0.11028826 4.18211031
v -7.46523504 0.98727651 4.04771946
v -7.39480367 0.99338576 4.07007003
v -7.02699485 1.14077136 4.07390702
v 2.12257044 0.19250140 4.18211031
v -7.46523504 -0.11028826 4.13290075
v -7.46523504 0.11040839 4.12848833
v -7.46523504 0.04129750 4.12987931
v -7.46523504 0.92408398 4.05918245
v -7.46523504 0.33129589 4.11050248
v -7.46523504 0.26218505 4.11616209
f 1 2 5
f 1 5 15
f 1 15 21
f 1 21 13
f 1 13 3
f 1 3 4
f 1 4 14
f 1 14 23
f 1 23 41
f 1 41 31
f 1 31 16
f 1 16 6
f 1 6 2
f 2 6 7
f 2 7 8
f 2 8 9
f 2 9 10
f 2 10 11
f 2 11 12
f 2 12 5
f 3 13 14
f 3 14 4
f 5 12 20
f 5 20 15
f 6 16 32
f 6 32 24
f 6 24 33
f 6 33 17
f 6 17 7
f 7 17 18
f 7 18 8
f 8 18 35
f 8 35 19
f 8 19 11
f 8 11 10
f 8 10 9
f 11 19 12
f 12 19 36
f 12 36 20
f 13 21 14
f 14 21 22
f 14 22 23
f 15 24 32
f 15 32 50
f 15 50 49
f 15 49 54
f 15 54 40
f 15 40 21
f 15 20 25
f 15 25 26
f 15 26 27
f 15 27 28
f 15 28 29
f 15 29 30
f 15 30 24
f 16 31 50
f 16 50 32
f 17 33 18
f 18 33 34
f 18 34 35
f 19 35 34
f 19 34 43
f 19 43 55
f 19 55 57
f 19 57 56
f 19 56 60
f 19 60 59
f 19 59 58
f 19 58 51
f 19 51 36
f 20 37 25
f 20 36 38
f 20 38 39
f 20 39 37
f 21 40 41
f 21 41 23
f 21 23 22
f 24 30 42
f 24 42 43
f 24 43 34
f 24 34 33
f 25 37 44
f 25 44 26
f 26 44 27
f 27 45 28
f 27 44 37
f 27 37 45
f 28 45 46
f 28 46 47
f 28 47 29
f 29 47 48
f 29 48 30
f 30 48 42
f 31 41 49
f 31 49 50
f 36 51 52
f 36 52 38
f 37 39 53
f 37 53 45
f 38 52 39
f 39 52 53
f 40 54 41
f 41 54 49
f 42 48 55
f 42 55 43
f 45 53 52
f 45 52 46
f 46 52 47
f 47 52 56
f 47 56 57
f 47 57 48
f 48 57 55
f 51 58 52
f 52 58 59
f 52 59 60
f 52 60 56

