# https://github.com/mikedh/trimesh
v 6.51312725 -0.90130072 6.09880742
v 6.73376925 -0.89876117 6.09880742
v 6.29236419 -0.89850719 6.09880742
v 6.51312725 -0.88911093 5.68135920
v 6.64875773 -0.88949190 5.67910777
v 6.83912481 -0.88593651 6.09880742
v 6.14753056 -0.84962118 6.09880742
v 6.29502834 -0.71020082 4.18211065
v 6.39832575 -0.88466677 5.70612470
v 6.51312725 -0.71947010 4.18211065
v 6.67358327 -0.69826500 4.18211065
v 6.90040105 -0.85025613 6.09880742
v 6.80497505 -0.63871295 4.18211065
v 6.11652923 -0.77800636 6.09880742
v 5.94832288 -0.46843721 5.73520538
v 5.94832288 -0.46843721 5.64421103
v 6.12997108 -0.55617811 4.18211065
v 6.93176559 -0.82041654 6.09880742
v 6.93951592 -0.53954416 4.18211065
v 6.09460998 0.17050944 6.09880742
v 5.93427569 -0.33104843 5.75096530
v 5.93366969 -0.35136470 5.58436112
v 6.04144793 -0.33104843 4.18211065
v 6.08177347 -0.44393071 4.18211065
v 6.94835586 -0.77902219 6.09880742
v 7.04729350 -0.63883990 5.60499911
v 7.11014363 -0.52849719 5.60499911
v 7.10142476 -0.51211718 5.77310398
v 7.02404250 -0.33104843 4.18211065
v 6.12367356 0.30459684 6.09880742
v 5.95377226 0.01267744 5.72882645
v 5.93839266 -0.11048993 5.74627472
v 5.93693984 -0.10541087 5.60331058
v 6.07523448 -0.11048993 4.18211065
v 6.96058703 -0.58220832 6.09880742
v 7.12721884 -0.33104843 5.79786948
v 7.17069281 -0.33104843 5.60499911
v 7.02040980 -0.16877223 4.18211065
v 5.95377226 0.01267744 5.67554316
v 6.29236419 0.39144889 6.09880742
v 6.29720823 0.14866948 4.18211065
v 6.18010577 0.02258163 4.18211065
v 6.97645090 0.10994159 6.09880742
v 7.12225373 -0.11048993 5.79786948
v 7.15967298 -0.11048993 5.60499911
v 7.01483935 -0.11048993 4.18211065
v 6.42036540 0.39411539 6.09880742
v 6.51312725 0.36706937 5.60499911
v 6.51312725 0.20149177 4.18211065
v 6.93636749 0.30688241 6.09880742
v 7.09476404 0.04924673 5.77310398
v 7.09912380 0.05648439 5.60499911
v 6.95695367 0.04607231 4.18211065
v 6.51312725 0.39589308 6.09880742
v 6.73376925 0.39411539 6.09880742
v 6.73376925 0.34167403 5.60499911
v 6.69659147 0.19133365 4.18211065
v 6.84760155 0.35119728 6.09880742
v 7.01568683 0.16682715 5.60499911
v 6.90899886 0.11298902 4.18211065
v 6.73158936 0.18447689 4.18211065
f 1 2 6
f 1 6 12
f 1 12 18
f 1 18 25
f 1 25 35
f 1 35 43
f 1 43 50
f 1 50 58
f 1 58 55
f 1 55 54
f 1 54 47
f 1 47 40
f 1 40 30
f 1 30 20
f 1 20 14
f 1 14 7
f 1 7 3
f 1 3 4
f 1 4 5
f 1 5 2
f 2 5 6
f 3 7 8
f 3 8 9
f 3 9 4
f 4 9 8
f 4 8 10
f 4 10 5
f 5 10 11
f 5 11 6
f 6 11 13
f 6 13 12
f 7 14 15
f 7 15 16
f 7 16 17
f 7 17 8
f 8 17 24
f 8 24 23
f 8 23 34
f 8 34 42
f 8 42 41
f 8 41 49
f 8 49 57
f 8 57 61
f 8 61 60
f 8 60 53
f 8 53 46
f 8 46 38
f 8 38 29
f 8 29 19
f 8 19 13
f 8 13 11
f 8 11 10
f 12 13 19
f 12 19 18
f 14 20 21
f 14 21 15
f 15 21 22
f 15 22 16
f 16 22 23
f 16 23 24
f 16 24 17
f 18 19 26
f 18 26 27
f 18 27 28
f 18 28 25
f 19 29 27
f 19 27 26
f 20 30 31
f 20 31 32
f 20 32 21
f 21 32 33
f 21 33 22
f 22 33 23
f 23 33 34
f 25 28 36
f 25 36 35
f 27 37 28
f 27 29 37
f 28 37 36
f 29 38 37
f 30 39 31
f 30 40 41
f 30 41 42
f 30 42 39
f 31 39 33
f 31 33 32
f 33 39 34
f 34 39 42
f 35 36 43
f 36 37 44
f 36 44 43
f 37 45 44
f 37 38 45
f 38 46 45
f 40 47 48
f 40 48 49
f 40 49 41
f 43 44 50
f 44 45 51
f 44 51 50
f 45 52 51
f 45 46 52
f 46 53 52
f 47 54 48
f 48 54 55
f 48 55 56
f 48 56 57
f 48 57 49
f 50 51 52
f 50 52 59
f 50 59 60
f 50 60 58
f 52 53 60
f 52 60 59
f 55 58 56
f 56 58 61
f 56 61 57
f 58 60 61

