# https://github.com/mikedh/trimesh
v 7.39651442 -0.27193570 4.14382418
v 7.61707285 -0.27236110 4.10835089
v 7.61728209 -0.11028643 4.10813869
v 7.39651442 -0.11028643 4.14361164
v 7.39651442 -0.27214841 3.84219750
v 7.55115654 -1.33329085 4.04611400
v 7.55115654 -1.28011670 4.05546026
v 7.55115654 -0.77262302 4.10134144
v 7.55115654 -0.61778010 4.11302419
v 7.55115654 -0.55184417 4.11769715
v 7.55115654 -0.39700120 4.11854694
v 7.61707285 -0.33106531 4.10835089
v 7.83804976 -0.33106531 4.05333597
v 7.83784052 -0.11028643 4.05121201
v 7.61728209 0.11027975 4.10367794
v 7.39651442 0.11027975 4.13936340
v 7.39651442 -0.27214841 3.84028574
v 7.62293215 -1.33329085 4.02487281
v 7.55115654 -1.33329085 3.89317670
v 7.61707285 -1.21418081 4.04717597
v 7.61707285 -0.99340196 4.07032893
v 7.61707285 -0.77262302 4.09072068
v 7.61707285 -0.55184417 4.10707673
v 7.83804976 -0.55184417 4.04207828
v 7.98871571 -0.33106531 3.99131161
v 7.98808800 -0.27214841 3.99088656
v 7.98641344 -0.11028643 3.98939951
v 7.83784052 0.11027975 4.03825477
v 7.61728209 0.33105865 4.08583519
v 7.39651442 0.33105865 4.12152068
v 7.39651442 0.83961579 3.81437124
v 9.02600938 -1.33329085 1.97402369
v 9.00696681 -1.33329085 1.99696413
v 7.60054113 -1.33329085 3.70434141
v 7.55115654 -1.33244008 3.76424182
v 7.68905770 -1.33329085 3.99725907
v 7.80979944 -0.99340196 4.00703007
v 7.55199349 -1.33329085 3.76402928
v 7.97699711 -0.55184417 3.98069085
v 8.09899493 -0.33106531 3.85664144
v 8.09836722 -0.27236110 3.85621671
v 8.09669266 -0.11028643 3.85388024
v 7.97281171 0.11027975 3.97644261
v 7.85123302 0.33148403 4.00660500
v 7.79556999 0.55183750 4.00278182
v 7.61728209 0.55183750 4.06438147
v 7.39651442 0.83961579 4.07117872
v 9.02140550 0.83961579 1.97423589
v 9.22020129 -0.27321189 1.97402369
v 9.35391705 -1.33329085 1.97402369
v 7.74158152 -1.33329085 3.96391008
v 7.76585567 -1.21418081 3.98536380
v 7.94372510 -0.87046348 3.94500536
v 7.96276766 -0.72349018 3.96582184
v 8.17495529 -0.48931143 3.73620337
v 8.09941340 -0.55843777 3.82116849
v 9.53429798 -0.33106531 1.97402369
v 9.52822944 -0.11028643 1.97423589
v 9.50667603 0.11985108 1.97423589
v 8.17223520 0.02498849 3.73237985
v 9.53283332 -0.27214841 1.97423589
v 8.42836726 0.33105865 3.33729123
v 7.96004692 0.25831646 3.96263558
v 7.75267241 0.77261636 3.97368106
v 7.61853751 0.83961579 4.02253599
v 7.61728209 0.77261636 4.03506852
v 9.35893940 0.83961579 1.97423589
v 9.22208442 -0.27236110 1.97402369
v 9.39890766 -1.21418081 1.97402369
v 9.06660535 -1.14314024 2.42348966
v 8.86195092 -1.17589550 2.66372922
v 7.75915942 -1.33329085 3.94309360
v 7.92007866 -0.99340196 3.91463010
v 8.12012986 -0.99340196 3.66823087
v 8.23898847 -0.77262302 3.59919672
v 8.43380808 -0.77262302 3.34472574
v 8.44887448 -0.55184417 3.36469276
v 9.53346103 -0.29575772 1.97402369
v 9.43699279 -0.99531618 1.97402369
v 9.53283332 -0.27236110 1.97402369
v 9.42966883 0.55056135 1.97423589
v 8.61293359 0.44931783 3.06943827
v 8.40974317 0.48887938 3.31243904
v 7.93388963 0.40550237 3.93417240
v 7.73927991 0.83961579 3.96051162
v 7.99666738 0.55183750 3.78803202
v 9.06095529 0.68328390 2.41541823
v 9.38132976 0.77261636 1.97423589
v 9.08188165 -0.99340196 2.44388141
v 9.40330230 0.69391873 1.97423589
v 7.90605844 0.55183750 3.89848693
f 1 2 3
f 1 3 4
f 1 4 16
f 1 16 30
f 1 30 47
f 1 47 31
f 1 31 17
f 1 17 5
f 1 5 6
f 1 6 7
f 1 7 8
f 1 8 9
f 1 9 10
f 1 10 11
f 1 11 12
f 1 12 2
f 2 12 13
f 2 13 3
f 3 14 15
f 3 15 16
f 3 16 4
f 3 13 14
f 5 17 19
f 5 19 6
f 6 18 7
f 6 19 38
f 6 38 34
f 6 34 33
f 6 33 32
f 6 32 50
f 6 50 72
f 6 72 51
f 6 51 36
f 6 36 18
f 7 18 20
f 7 20 21
f 7 21 22
f 7 22 8
f 8 22 9
f 9 22 23
f 9 23 10
f 10 23 12
f 10 12 11
f 12 23 13
f 13 23 24
f 13 24 25
f 13 25 14
f 14 26 27
f 14 27 28
f 14 28 15
f 14 25 26
f 15 28 29
f 15 29 30
f 15 30 16
f 17 31 32
f 17 32 33
f 17 33 34
f 17 34 35
f 17 35 19
f 18 36 37
f 18 37 20
f 19 35 38
f 20 37 21
f 21 37 24
f 21 24 22
f 22 24 23
f 24 39 25
f 24 37 39
f 25 39 40
f 25 40 26
f 26 41 27
f 26 40 41
f 27 42 43
f 27 43 28
f 27 41 42
f 28 43 44
f 28 44 45
f 28 45 46
f 28 46 29
f 29 46 30
f 30 46 47
f 31 47 65
f 31 65 85
f 31 85 67
f 31 67 48
f 31 48 32
f 32 49 68
f 32 68 80
f 32 80 78
f 32 78 57
f 32 57 79
f 32 79 69
f 32 69 50
f 32 48 49
f 34 38 35
f 36 51 52
f 36 52 37
f 37 53 54
f 37 54 39
f 37 52 53
f 39 55 40
f 39 54 56
f 39 56 55
f 40 55 57
f 40 57 41
f 41 57 42
f 42 58 59
f 42 59 60
f 42 60 43
f 42 57 61
f 42 61 58
f 43 60 59
f 43 59 62
f 43 62 63
f 43 63 44
f 44 63 45
f 45 64 65
f 45 65 66
f 45 66 46
f 45 63 64
f 46 66 47
f 47 66 65
f 48 67 80
f 48 80 68
f 48 68 49
f 50 69 70
f 50 70 71
f 50 71 72
f 51 72 73
f 51 73 53
f 51 53 52
f 53 73 74
f 53 74 71
f 53 71 70
f 53 70 75
f 53 75 54
f 54 75 56
f 55 56 75
f 55 75 76
f 55 76 77
f 55 77 57
f 57 78 61
f 57 77 76
f 57 76 79
f 58 61 80
f 58 80 59
f 59 81 82
f 59 82 62
f 59 80 81
f 61 78 80
f 62 82 63
f 63 82 83
f 63 83 84
f 63 84 64
f 64 85 65
f 64 84 85
f 67 85 86
f 67 86 83
f 67 83 87
f 67 87 88
f 67 88 80
f 69 79 89
f 69 89 75
f 69 75 70
f 71 74 73
f 71 73 72
f 75 89 76
f 76 89 79
f 80 88 90
f 80 90 81
f 81 90 82
f 82 90 87
f 82 87 83
f 83 86 84
f 84 86 91
f 84 91 85
f 85 91 86
f 87 90 88

