# https://github.com/mikedh/trimesh
v 5.95912360 -0.27237410 4.15372280
v 5.95912360 -0.33122882 4.15426004
v 5.95912360 -0.27237410 3.83569008
v 2.15140997 -0.27237410 4.18206163
v 5.95912360 -0.37803455 4.15426004
v 5.95912360 -2.17472644 3.76738301
v -6.28194049 -0.27237410 3.68295216
v 2.15140997 -0.33122882 4.18206163
v -1.34524336 -0.27237410 4.18211065
v 5.95912360 -0.66443009 4.14761513
v 2.14446665 -0.55204995 4.18206163
v 2.09169741 -0.74993172 4.18206163
v 0.94466177 -2.28478951 4.18206163
v 0.82384815 -2.41709687 4.18206163
v 0.75719227 -2.47340274 4.18206163
v 5.95912360 -2.51047656 3.76738301
v -5.94588309 -2.27158190 3.68295216
v -8.22606839 -0.27237410 3.68295216
v -1.34524336 -0.81596951 4.18211065
v -7.01793120 -0.27237410 4.18211065
v 5.95912360 -0.77287116 4.14224043
v 0.55167029 -2.50584241 4.18206163
v 5.40782424 -2.31815594 4.06440581
v 5.95912360 -2.09733481 4.07300527
v 5.95912360 -2.47711013 3.82836085
v 5.85775144 -2.48637858 3.85484319
v 5.85497411 -2.53480631 3.76738301
v 5.62862152 -2.58508773 3.76738301
v 5.40782424 -2.61103940 3.76738301
v 2.53745829 -2.63838138 3.76738301
v 0.55167029 -2.63953992 3.76738301
v -6.92489102 -2.27158190 3.68295216
v -8.22745673 -0.33146051 3.68295216
v -8.18163114 -0.27237410 3.74583551
v -1.43411770 -0.82894535 4.18211065
v -7.39425887 -0.27237410 4.14409724
v -7.02348585 -0.33146051 4.18211065
v -1.65491515 -0.83079904 4.18211065
v 0.33087285 -2.50700095 4.18206163
v 5.40782424 -2.57466074 3.83896352
v 5.40782424 -2.47780528 4.00293941
v 5.62862152 -2.31815594 4.04925914
v 5.95912360 -2.22315417 4.03909600
v 5.95912360 -2.41709687 3.93429051
v 5.78970657 -2.44119485 3.96570767
v 5.62862152 -2.54662361 3.83896352
v -0.71479031 -2.63953992 3.76738301
v -1.34524336 -2.63838138 3.76738301
v -6.91378171 -2.27158190 3.69243099
v -7.73031560 -1.76923106 3.73259436
v -7.61783347 -1.86747684 3.68295216
v -8.20801543 -0.52702512 3.68295216
v -8.17329915 -0.48948785 3.73650340
v -8.18163114 -0.33146051 3.74661720
v -8.15941251 -0.27237410 3.77524948
v -7.61644514 -0.27237410 4.10842920
v -7.39425887 -0.33146051 4.14409724
v -6.96238463 -0.50454906 4.18211065
v -7.39425887 -0.55204995 4.14312014
v -0.55231680 -2.50584241 4.18206163
v -0.43011447 -2.50653757 4.18206163
v -0.33151940 -2.50700095 4.18206163
v -6.74019901 -0.72583366 4.18211065
v 5.62862152 -2.46089029 3.98696204
v 5.95912360 -2.31468017 4.01012190
v 5.95912360 -2.39971833 3.95031656
v 5.93690497 -2.41987732 3.93902993
v -6.25277821 -2.27158190 4.00728798
v -6.29166015 -2.27158190 4.00010549
v -6.51245809 -2.27158190 3.93712443
v -6.72770071 -2.27158190 3.82362144
v -6.76658331 -2.27158190 3.79660154
v -6.64993551 -2.22083710 3.96634295
v -6.79713392 -2.18167782 3.91328025
v -6.88878575 -2.23450809 3.76606375
v -7.70670798 -1.49766513 3.92481134
v -7.75808889 -1.65569239 3.76845781
v -7.82474477 -1.66287554 3.68295216
v -7.75114524 -1.78684121 3.68295216
v -7.07070044 -1.99074735 3.95378576
v -7.48868803 -1.75486492 3.93580517
v -7.55950958 -1.60772804 3.99214131
v -8.18579680 -0.68180846 3.68295216
v -8.09831129 -0.55876964 3.82156920
v -7.97610884 -0.55204995 3.98090336
v -8.09692229 -0.33146051 3.85704182
v -8.09692229 -0.27237410 3.85626014
v -7.61644514 -0.33146051 4.10842920
v -7.77753019 -0.27237410 4.06807043
v -7.83724242 -0.33146051 4.05341231
v -6.93877767 -0.53976927 4.18211065
v -7.39425887 -0.77287116 4.12670291
v -7.17485058 -0.99369237 4.13105150
v -6.91655904 -0.56803809 4.18211065
v -7.61644514 -0.55204995 4.10720766
v -0.65646653 -2.49332996 4.18206163
v -5.40847103 -2.27158190 4.06606720
v -5.62926831 -2.27158190 4.05429169
v -6.95405264 -0.99369237 4.14409724
v -6.73325536 -1.87651368 4.07222359
v -6.29027181 -2.09733481 4.06787501
v -0.75645023 -2.47340274 4.18206163
v -6.29027181 -2.26717937 4.00645729
v -6.51245809 -2.24099609 3.98779274
v -6.72770071 -2.10359104 4.00870495
v -6.95405264 -2.02550409 3.98251575
v -7.73725860 -1.35075994 3.96096825
v -8.10664327 -0.99369237 3.68295216
v -8.01082511 -1.22424534 3.68295216
v -7.85390639 -1.59730105 3.68295216
v -7.34148963 -1.80004882 3.98129421
v -7.40675717 -1.67098546 4.01881907
v -7.39425887 -1.43510303 4.07422681
v -7.62616546 -1.42861503 4.00709257
v -8.17191016 -0.77287116 3.68295216
v -7.98721815 -0.33146051 3.99160375
v -7.96083320 -0.72351658 3.96580539
v -7.80808080 -0.99369237 4.00738569
v -7.83724242 -0.55204995 4.04227206
v -7.98721815 -0.27237410 3.99101748
v -7.83724242 -0.27237410 4.05287473
v -7.61644514 -0.77287116 4.09079043
v -7.17485058 -1.65569239 4.06543192
v -6.95405264 -1.87651368 4.04398215
v -6.51245809 -2.09733481 4.05013853
v -7.76503188 -1.21451351 3.98544737
v -7.94278090 -0.87088516 3.94508859
v -7.91917328 -0.99369237 3.91499034
v -8.11219793 -0.97793592 3.68295216
v -7.61644514 -0.99369237 4.07041579
v -7.61644514 -1.21451351 4.04745135
f 1 2 5
f 1 5 10
f 1 10 21
f 1 21 24
f 1 24 43
f 1 43 65
f 1 65 66
f 1 66 44
f 1 44 25
f 1 25 16
f 1 16 6
f 1 6 3
f 1 3 7
f 1 7 18
f 1 18 34
f 1 34 55
f 1 55 87
f 1 87 120
f 1 120 121
f 1 121 89
f 1 89 56
f 1 56 36
f 1 36 20
f 1 20 9
f 1 9 4
f 1 4 2
f 2 4 8
f 2 8 5
f 3 6 7
f 4 9 19
f 4 19 8
f 5 8 11
f 5 11 12
f 5 12 13
f 5 13 14
f 5 14 15
f 5 15 10
f 6 16 17
f 6 17 7
f 7 17 32
f 7 32 51
f 7 51 79
f 7 79 78
f 7 78 110
f 7 110 109
f 7 109 108
f 7 108 129
f 7 129 115
f 7 115 83
f 7 83 52
f 7 52 33
f 7 33 18
f 8 19 11
f 9 20 37
f 9 37 58
f 9 58 91
f 9 91 94
f 9 94 63
f 9 63 38
f 9 38 35
f 9 35 19
f 10 15 21
f 11 19 12
f 12 19 13
f 13 19 14
f 14 19 15
f 15 19 22
f 15 22 23
f 15 23 24
f 15 24 21
f 16 25 26
f 16 26 27
f 16 27 17
f 17 27 28
f 17 28 29
f 17 29 30
f 17 30 31
f 17 31 47
f 17 47 32
f 18 33 34
f 19 35 22
f 20 36 37
f 22 35 38
f 22 38 39
f 22 39 30
f 22 30 29
f 22 29 40
f 22 40 41
f 22 41 23
f 23 41 42
f 23 42 24
f 24 42 43
f 25 44 45
f 25 45 26
f 26 45 27
f 27 45 46
f 27 46 28
f 28 46 40
f 28 40 29
f 30 39 31
f 31 39 62
f 31 62 47
f 32 48 49
f 32 49 50
f 32 50 51
f 32 47 48
f 33 52 53
f 33 53 54
f 33 54 34
f 34 54 55
f 36 56 88
f 36 88 57
f 36 57 37
f 37 57 59
f 37 59 58
f 38 60 61
f 38 61 62
f 38 62 39
f 38 63 60
f 40 46 64
f 40 64 41
f 41 64 42
f 42 64 65
f 42 65 43
f 44 66 67
f 44 67 45
f 45 67 66
f 45 66 65
f 45 65 64
f 45 64 46
f 47 62 48
f 48 62 61
f 48 61 60
f 48 60 68
f 48 68 69
f 48 69 70
f 48 70 71
f 48 71 72
f 48 72 49
f 49 72 73
f 49 73 74
f 49 74 75
f 49 75 50
f 50 76 77
f 50 77 78
f 50 78 79
f 50 79 51
f 50 75 74
f 50 74 80
f 50 80 81
f 50 81 82
f 50 82 76
f 52 83 53
f 53 83 84
f 53 84 85
f 53 85 86
f 53 86 54
f 54 86 55
f 55 86 87
f 56 89 90
f 56 90 88
f 57 88 59
f 58 59 91
f 59 92 93
f 59 93 94
f 59 94 91
f 59 88 95
f 59 95 122
f 59 122 92
f 60 96 97
f 60 97 98
f 60 98 68
f 60 63 96
f 63 94 93
f 63 93 99
f 63 99 100
f 63 100 101
f 63 101 102
f 63 102 96
f 68 98 103
f 68 103 69
f 69 103 104
f 69 104 70
f 70 73 71
f 70 104 73
f 71 73 72
f 73 104 105
f 73 105 106
f 73 106 80
f 73 80 74
f 76 107 108
f 76 108 109
f 76 109 110
f 76 110 78
f 76 78 77
f 76 82 107
f 80 106 111
f 80 111 81
f 81 111 82
f 82 111 112
f 82 112 113
f 82 113 114
f 82 114 107
f 83 115 84
f 84 115 85
f 85 116 86
f 85 115 117
f 85 117 118
f 85 118 119
f 85 119 116
f 86 116 120
f 86 120 87
f 88 90 95
f 89 121 90
f 90 119 95
f 90 121 116
f 90 116 119
f 92 113 93
f 92 122 113
f 93 113 100
f 93 100 99
f 95 119 122
f 96 102 101
f 96 101 97
f 97 101 98
f 98 101 103
f 100 113 123
f 100 123 124
f 100 124 125
f 100 125 101
f 101 125 103
f 103 125 104
f 104 125 105
f 105 124 112
f 105 112 111
f 105 111 106
f 105 125 124
f 107 114 126
f 107 126 127
f 107 127 128
f 107 128 108
f 108 128 127
f 108 127 129
f 112 124 123
f 112 123 113
f 113 122 130
f 113 130 131
f 113 131 114
f 114 118 126
f 114 131 118
f 115 129 127
f 115 127 117
f 116 121 120
f 117 127 118
f 118 131 130
f 118 130 119
f 118 127 126
f 119 130 122

