# https://github.com/mikedh/trimesh
v -6.51284892 2.49218310 7.81751000
v -6.51308777 2.49293649 7.81286804
v -6.51655006 2.49199459 7.81751000
v -6.33507622 2.45300540 7.81751000
v -6.33400174 2.45357044 7.81286804
v -7.07291125 2.43228631 6.92984350
v -7.06968781 2.43059119 7.15056219
v -6.75306316 2.46185801 7.81751000
v -6.63200098 2.47749142 7.81751000
v -6.00173759 2.41872487 6.92984350
v -6.11217341 2.43209813 6.92984350
v -6.15157252 2.43096788 6.79971833
v -6.38295207 2.43096788 6.59457272
v -6.51308777 2.43209813 6.59247631
v -6.67092240 2.43096788 6.59457272
v -7.06968781 2.43096788 6.81259603
v -6.33328520 2.45225202 7.81751000
v -6.18798704 2.42418725 7.67001484
v -6.17688365 2.43096788 7.52281911
v -7.14621666 2.31814377 6.92984350
v -7.06538923 2.42889607 7.26271845
v -6.76010748 2.45959769 7.81751000
v -6.01642236 2.37596859 7.15056219
v -5.94025079 2.26559298 7.15056219
v -5.92664050 2.30834943 6.92984350
v -5.94192272 2.26954842 6.78968563
v -6.08208733 2.33566081 6.72110408
v -6.23574314 2.40177304 6.65252254
v -6.15981041 2.25466839 6.58603741
v -6.30260168 2.32417118 6.56402548
v -6.51308777 2.31814377 6.53018390
v -6.81813134 2.42437543 6.62482048
v -6.74016875 2.33773262 6.55653841
v -6.96151939 2.33773262 6.66525065
v -7.10084837 2.31814377 6.77261510
v -6.22499769 2.40554013 7.81751000
v -6.22356527 2.40591682 7.81286804
v -6.12876895 2.29478783 7.81751000
v -7.13260637 2.31814377 7.15056219
v -7.10801178 2.14109089 6.76407988
v -7.13821761 2.10398500 6.92984350
v -7.12783076 2.11057746 7.15056219
v -6.84941165 2.43115623 7.75461865
v -7.08496936 2.30552407 7.35031712
v -7.02288643 2.09739271 7.81751000
v -6.92140439 2.33848601 7.81751000
v -6.91543455 2.34564350 7.81751000
v -6.12757538 2.29139743 7.81751000
v -6.06835729 2.09739271 7.81751000
v -5.96006977 2.21247698 7.26391639
v -5.94025079 2.17781993 7.15056219
v -5.92664050 2.15653596 6.92984350
v -5.94192272 2.17706654 6.78968563
v -6.11420327 0.56889856 6.45845780
v -6.19944837 0.56889856 6.33626892
v -6.29233458 0.56889856 6.29134657
v -6.51308777 0.56889856 6.28775277
v -6.73372187 0.56889856 6.28999886
v -6.89263098 2.27708260 6.57465709
v -6.94969946 0.56889856 6.45740963
v -6.95268471 0.56889856 6.46354907
v -7.00366424 0.77288613 6.70912484
v -6.94265579 0.56889856 6.70987355
v -6.77825453 0.56889856 7.14906479
v -6.67677249 0.56889856 7.29506257
v -6.93214919 1.91920959 7.81751000
v -5.96006977 2.20550800 7.26391639
v -6.06919292 2.09249554 7.81751000
v -6.09104176 0.77288613 6.70912484
v -6.11253201 0.56889856 6.46819102
v -6.95256495 0.56889856 6.46774180
v -6.66411693 0.56889856 7.29551179
v -6.73372187 1.84254947 7.81751000
v -6.92546347 1.91657274 7.81751000
v -6.12124759 1.91525416 7.81751000
v -6.12900780 0.56889856 6.70987355
v -6.51308777 0.56889856 7.30075273
v -6.51308777 1.83332017 7.81751000
v -6.29233458 1.83878238 7.81751000
v -6.50413334 0.56889856 7.29820714
v -6.39680121 0.56889856 7.26676147
v -6.13175354 0.56889856 6.71571343
v -6.50628230 1.83332017 7.81751000
f 1 2 3
f 1 3 9
f 1 9 8
f 1 8 22
f 1 22 47
f 1 47 46
f 1 46 45
f 1 45 66
f 1 66 74
f 1 74 73
f 1 73 78
f 1 78 83
f 1 83 79
f 1 79 75
f 1 75 68
f 1 68 49
f 1 49 48
f 1 48 38
f 1 38 36
f 1 36 17
f 1 17 4
f 1 4 5
f 1 5 2
f 2 6 7
f 2 7 8
f 2 8 9
f 2 9 3
f 2 5 10
f 2 10 11
f 2 11 12
f 2 12 13
f 2 13 14
f 2 14 15
f 2 15 16
f 2 16 6
f 4 17 18
f 4 18 5
f 5 18 19
f 5 19 10
f 6 16 20
f 6 20 7
f 7 20 21
f 7 21 8
f 8 21 22
f 10 18 23
f 10 23 24
f 10 24 25
f 10 25 26
f 10 26 27
f 10 27 28
f 10 28 12
f 10 12 11
f 10 19 18
f 12 28 13
f 13 28 29
f 13 29 30
f 13 30 31
f 13 31 14
f 14 31 15
f 15 32 16
f 15 31 33
f 15 33 32
f 16 32 34
f 16 34 35
f 16 35 20
f 17 36 18
f 18 36 37
f 18 37 38
f 18 38 23
f 20 39 21
f 20 35 40
f 20 40 41
f 20 41 42
f 20 42 39
f 21 43 22
f 21 39 44
f 21 44 45
f 21 45 46
f 21 46 47
f 21 47 43
f 22 43 47
f 23 38 24
f 24 38 48
f 24 48 49
f 24 49 50
f 24 50 67
f 24 67 51
f 24 51 52
f 24 52 25
f 25 52 53
f 25 53 26
f 26 53 54
f 26 54 55
f 26 55 29
f 26 29 27
f 27 29 28
f 29 55 56
f 29 56 30
f 30 56 31
f 31 56 57
f 31 57 58
f 31 58 33
f 32 33 59
f 32 59 34
f 33 58 59
f 34 59 35
f 35 59 60
f 35 60 40
f 36 38 37
f 39 42 45
f 39 45 44
f 40 60 61
f 40 61 41
f 41 61 62
f 41 62 42
f 42 62 45
f 45 62 63
f 45 63 64
f 45 64 65
f 45 65 66
f 49 51 67
f 49 67 50
f 49 68 69
f 49 69 51
f 51 69 52
f 52 69 70
f 52 70 53
f 53 70 54
f 54 70 76
f 54 76 82
f 54 82 81
f 54 81 80
f 54 80 77
f 54 77 72
f 54 72 65
f 54 65 64
f 54 64 63
f 54 63 71
f 54 71 61
f 54 61 60
f 54 60 58
f 54 58 57
f 54 57 56
f 54 56 55
f 58 60 59
f 61 71 62
f 62 71 63
f 65 72 73
f 65 73 74
f 65 74 66
f 68 75 76
f 68 76 69
f 69 76 70
f 72 77 73
f 73 77 78
f 75 79 77
f 75 77 80
f 75 80 81
f 75 81 82
f 75 82 76
f 77 79 83
f 77 83 78

