# https://github.com/mikedh/trimesh
v 6.51304632 -2.28303320 7.89280374
v 6.29237142 -2.28796492 7.89280374
v 6.73372121 -2.28617159 7.89280374
v 6.51304632 -1.47529615 7.32831743
v 6.12485529 -2.35551285 7.89280374
v 6.36199216 -1.47529615 7.29608032
v 6.82445385 -2.31217459 7.89280374
v 6.65919920 -1.47529615 7.29311290
v 6.34339307 -1.47529615 7.26964323
v 6.12246749 -1.47529615 6.90262596
v 6.08665173 -2.45698436 7.89280374
v 6.93579636 -2.35401842 7.89280374
v 6.93164978 -1.47529615 6.90748176
v 6.10374273 -1.47529615 6.70637088
v 5.94024750 -2.62271622 7.15067620
v 6.06930938 -2.53887903 7.89280374
v 7.02326214 -2.53887903 7.89280374
v 6.96671084 -1.47529615 6.75088231
v 6.16406359 -1.47529615 6.58173876
v 5.94627919 -2.62660175 6.79849613
v 5.90443174 -2.75975511 6.92987237
v 5.93082196 -2.78052750 7.17266217
v 6.10411975 -2.70251852 7.89280374
v 5.96136007 -2.86810085 7.26074092
v 6.96821893 -2.76528443 7.89280374
v 7.06712037 -2.87258432 7.48801917
v 7.17519602 -2.75975511 7.15067620
v 6.96520341 -1.47529615 6.70583132
v 7.18826545 -2.75975511 6.92987237
v 6.29237142 -1.47529615 6.56312487
v 6.51304632 -2.75975511 6.51483671
v 6.29237142 -2.75975511 6.55368304
v 6.17537424 -2.75975511 6.59509219
v 6.06503647 -2.75975511 6.68020347
v 5.94087587 -2.75975511 6.79067285
v 5.94904402 -2.88274647 6.80200308
v 5.93509487 -2.89500067 6.92987237
v 5.93848807 -2.89066689 7.11371821
v 6.12158777 -2.76483602 7.89280374
v 6.16217848 -2.88857452 7.76372050
v 6.18643289 -2.86720436 7.89280374
v 6.88012544 -2.89694335 7.89280374
v 7.08509109 -2.88812611 7.37134518
v 7.11537720 -2.90411664 7.15067620
v 6.89344622 -1.47529615 6.59711547
v 7.11776500 -2.75975511 6.75600788
v 7.12153522 -2.90590996 6.92987237
v 7.09790917 -2.89395448 6.77907292
v 6.51304632 -1.47529615 6.56177601
v 6.58367244 -1.47529615 6.56204577
v 6.73372121 -1.47529615 6.56312487
v 6.77217547 -1.47529615 6.56420395
v 6.73372121 -2.75975511 6.53641799
v 6.73372121 -2.89679399 6.56959930
v 6.51304632 -2.90441569 6.55948304
v 6.29237142 -2.88872421 6.57782716
v 6.17851543 -2.87228527 6.59684569
v 6.09155301 -2.89335671 6.72066850
v 6.07157151 -2.93086676 6.92987237
v 6.51304632 -3.00185215 7.81281797
v 6.27502908 -2.92862536 7.82752024
v 6.29111534 -2.92339476 7.89280374
v 6.79994875 -2.93370627 7.89280374
v 6.73372121 -2.97614788 7.81281797
v 6.95452112 -2.93998273 7.15067620
v 6.87359039 -1.47529615 6.58173876
v 6.99611788 -2.75975511 6.64567340
v 6.95452112 -2.94162669 6.92987237
v 6.94823808 -2.90620868 6.70691041
v 6.87044854 -2.88259678 6.58632479
v 6.88565443 -2.75975511 6.57890623
v 6.73372121 -2.93266008 6.70906850
v 6.51304632 -2.94013209 6.70906850
v 6.29237142 -2.92444094 6.70906850
v 6.51304632 -2.98810335 7.89280374
v 6.73761645 -2.95776658 7.89280374
f 1 2 5
f 1 5 11
f 1 11 16
f 1 16 23
f 1 23 39
f 1 39 41
f 1 41 62
f 1 62 75
f 1 75 76
f 1 76 63
f 1 63 42
f 1 42 25
f 1 25 17
f 1 17 12
f 1 12 7
f 1 7 3
f 1 3 4
f 1 4 2
f 2 4 6
f 2 6 5
f 3 7 4
f 4 8 13
f 4 13 18
f 4 18 28
f 4 28 45
f 4 45 66
f 4 66 52
f 4 52 51
f 4 51 50
f 4 50 49
f 4 49 30
f 4 30 19
f 4 19 14
f 4 14 10
f 4 10 9
f 4 9 6
f 4 7 8
f 5 6 9
f 5 9 10
f 5 10 11
f 7 12 8
f 8 12 13
f 10 14 15
f 10 15 16
f 10 16 11
f 12 17 13
f 13 17 18
f 14 19 20
f 14 20 21
f 14 21 15
f 15 21 22
f 15 22 16
f 16 22 24
f 16 24 23
f 17 25 26
f 17 26 27
f 17 27 18
f 18 27 29
f 18 29 28
f 19 30 31
f 19 31 32
f 19 32 33
f 19 33 34
f 19 34 35
f 19 35 20
f 20 35 21
f 21 35 36
f 21 36 37
f 21 37 38
f 21 38 22
f 22 38 24
f 23 24 39
f 24 38 40
f 24 40 41
f 24 41 39
f 25 42 26
f 26 42 43
f 26 43 27
f 27 43 44
f 27 44 29
f 28 29 46
f 28 46 45
f 29 44 47
f 29 47 48
f 29 48 46
f 30 49 31
f 31 49 50
f 31 50 51
f 31 51 52
f 31 52 53
f 31 53 54
f 31 54 55
f 31 55 56
f 31 56 32
f 32 56 57
f 32 57 33
f 33 57 34
f 34 57 36
f 34 36 35
f 36 57 58
f 36 58 59
f 36 59 37
f 37 59 38
f 38 59 60
f 38 60 61
f 38 61 40
f 40 61 62
f 40 62 41
f 42 63 43
f 43 63 64
f 43 64 44
f 44 64 65
f 44 65 47
f 45 46 67
f 45 67 66
f 46 48 67
f 47 65 68
f 47 68 48
f 48 68 69
f 48 69 70
f 48 70 67
f 52 66 53
f 53 71 70
f 53 70 54
f 53 66 71
f 54 69 72
f 54 72 55
f 54 70 69
f 55 72 73
f 55 73 74
f 55 74 56
f 56 74 58
f 56 58 57
f 58 74 59
f 59 74 73
f 59 73 60
f 60 73 68
f 60 68 64
f 60 64 75
f 60 75 62
f 60 62 61
f 63 76 64
f 64 76 75
f 64 68 65
f 66 67 71
f 67 70 71
f 68 73 72
f 68 72 69

