# https://github.com/mikedh/trimesh
v -1.89280458 -0.55262683 10.46233809
v -1.90269071 -0.55262683 10.26003823
v -1.97749549 -0.55262683 10.57872959
v -1.98243856 -0.72516671 10.57569433
v -1.92674691 -0.78845958 10.48384806
v -1.93103084 -0.99356209 10.44795401
v -1.93103084 -0.99356209 10.28234010
v -1.91488355 -0.77281252 10.26940752
v -2.50343635 -0.55262683 9.64865242
v -2.07207254 -0.55262683 10.57872959
v -2.17258143 -1.21431167 10.58334827
v -2.00352892 -0.87233312 10.57173561
v -2.19301266 -1.43506125 10.57978532
v -2.20454637 -1.55643119 10.57477086
v -1.96003010 -1.21431167 10.40255873
v -1.96003010 -1.21431167 10.31519889
v -2.04274379 -0.99356209 10.17201877
v -2.02461927 -0.77281252 10.15908636
v -2.52353810 -0.55262683 9.62938582
v -2.18246740 -0.55262683 10.57015186
v -2.22860273 -0.99356209 10.57925763
v -2.25397702 -1.21431167 10.58334827
v -2.39699595 -1.87656040 10.58295251
v -2.41314324 -1.99243276 10.57925763
v -2.18642185 -1.87656040 10.39279335
v -2.15808172 -1.64030489 10.47051972
v -2.39666630 -1.99243276 10.56738078
v -1.98177959 -1.33976963 10.36415745
v -1.98177959 -1.33976963 10.34317517
v -2.18642185 -1.87656040 10.32219289
v -2.14819558 -1.65581082 10.28234010
v -2.26452212 -1.65581082 10.17201877
v -2.62767179 -1.16652489 9.66923877
v -2.59900201 -0.99356209 9.64337394
v -2.57461633 -0.77281252 9.62146802
v -2.46422147 -0.77281252 9.72717050
v -2.53243561 -0.55262683 9.62094015
v -2.49486831 -1.87656040 10.58295251
v -2.20026243 -0.67441969 10.57226331
v -2.31823655 -0.55262683 10.52238128
v -2.69291993 -1.99243276 10.55431627
v -2.63788740 -1.99243276 10.57133950
v -2.63558069 -1.99243276 10.57173561
v -2.48761854 -1.99243276 10.58123682
v -2.27177206 -1.99243276 10.42829162
v -2.20619411 -1.99003640 10.35584357
v -2.20619411 -1.99003640 10.34911342
v -2.85571111 -1.79043147 9.67676061
v -2.82704133 -1.65581082 9.65115981
v -2.65370505 -1.31355033 9.69378383
v -2.78584923 -1.43506125 9.61684934
v -2.91832339 -1.43506125 9.50652802
v -2.73048722 -0.99356209 9.53305262
v -2.70214709 -0.77281252 9.51101477
v -2.68105673 -0.55262683 9.49531113
v -2.52914013 -1.99243276 10.58123682
v -2.52617429 -0.55262683 10.41443526
v -3.07056915 -1.99243276 10.39450902
v -2.98291256 -1.99243276 10.43700097
v -2.87581302 -1.99243276 10.48648723
v -2.75948649 -1.99243276 10.53069485
v -2.20981908 -1.99243276 10.35861496
v -2.20948943 -1.99243276 10.35399628
v -2.20948943 -1.99243276 10.34739807
v -2.90184628 -1.93759780 9.71925271
v -3.02509327 -1.99243276 9.64442967
v -2.97763984 -1.86908938 9.62173188
v -3.10121615 -1.74842413 9.47604451
v -2.98554875 -1.66722889 9.53067732
v -3.06233092 -1.60125780 9.44754039
v -2.88932396 -1.27027441 9.48383022
v -3.02871808 -1.43506125 9.42418296
v -2.86362002 -1.12310800 9.46363998
v -2.84088192 -0.99356209 9.44701252
v -2.81254178 -0.77281252 9.42576654
v -2.79145159 -0.55262683 9.40913910
v -2.63656931 -0.55262683 10.34225136
v -5.25935297 -1.99229179 9.23534354
v -5.22574046 -1.99243276 9.24563663
v -2.91832339 -1.99243276 9.73640804
v -3.08111457 -1.99243276 9.60286121
v -3.16811220 -1.99243276 9.53833109
v -3.14108999 -1.87656040 9.50402063
v -3.28773405 -1.99243276 9.45281902
v -3.25148502 -1.87656040 9.43012122
v -3.18557758 -1.66722889 9.39462310
v -3.21787217 -1.42702634 9.30726342
v -3.16778255 -1.21431167 9.29024020
v -2.98060568 -0.99356209 9.35754139
v -3.05475134 -0.57518103 9.23534354
v -3.04849034 -0.55262683 9.23534354
v -2.95127694 -0.55262683 9.29881776
v -4.17287013 -0.55262683 9.23534354
v -5.22475151 -1.99243276 9.23534354
v -3.42778714 -1.99243276 9.37205739
v -3.44162772 -1.85908086 9.31768859
v -3.38033404 -1.65581082 9.28166261
v -3.33452819 -1.49539379 9.25909691
v -3.30223360 -1.34808649 9.24286540
v -3.12922664 -0.99356209 9.26899405
v -3.26796179 -1.21431167 9.23534354
v -3.19117962 -0.99356209 9.23534354
v -3.68976895 -1.99243276 9.23534354
v -3.60211203 -1.99243276 9.27809950
v -3.57410155 -1.92096410 9.26833427
v -3.50687619 -1.70683971 9.23534354
v -3.47491092 -1.65581082 9.23534354
v -3.36912965 -1.46550954 9.23534354
v -3.32431274 -1.36359250 9.23534354
v -3.31310835 -1.33596356 9.23534354
v -3.28872267 -1.27196591 9.23534354
v -3.61825949 -1.88262186 9.23534354
v -3.56751090 -1.80255423 9.23534354
f 1 2 9
f 1 9 19
f 1 19 37
f 1 37 55
f 1 55 76
f 1 76 92
f 1 92 91
f 1 91 93
f 1 93 77
f 1 77 57
f 1 57 40
f 1 40 20
f 1 20 10
f 1 10 3
f 1 3 4
f 1 4 5
f 1 5 6
f 1 6 7
f 1 7 8
f 1 8 2
f 2 8 9
f 3 10 22
f 3 22 11
f 3 11 4
f 4 12 6
f 4 6 5
f 4 11 13
f 4 13 12
f 6 12 14
f 6 14 15
f 6 15 16
f 6 16 7
f 7 16 17
f 7 17 9
f 7 9 18
f 7 18 8
f 8 18 9
f 9 17 19
f 10 20 21
f 10 21 22
f 11 22 38
f 11 38 23
f 11 23 13
f 12 13 14
f 13 23 24
f 13 24 14
f 14 25 26
f 14 26 15
f 14 24 27
f 14 27 25
f 15 28 29
f 15 29 16
f 15 26 25
f 15 25 28
f 16 29 30
f 16 30 31
f 16 31 32
f 16 32 33
f 16 33 34
f 16 34 17
f 17 35 36
f 17 36 19
f 17 34 35
f 19 35 37
f 19 36 35
f 20 38 39
f 20 39 21
f 20 40 41
f 20 41 42
f 20 42 43
f 20 43 38
f 21 39 38
f 21 38 22
f 23 38 56
f 23 56 44
f 23 44 24
f 24 44 56
f 24 56 43
f 24 43 42
f 24 42 41
f 24 41 61
f 24 61 60
f 24 60 59
f 24 59 58
f 24 58 79
f 24 79 94
f 24 94 103
f 24 103 104
f 24 104 95
f 24 95 84
f 24 84 82
f 24 82 81
f 24 81 66
f 24 66 80
f 24 80 64
f 24 64 63
f 24 63 62
f 24 62 45
f 24 45 27
f 25 27 45
f 25 45 46
f 25 46 28
f 28 46 47
f 28 47 29
f 29 47 30
f 30 32 31
f 30 47 48
f 30 48 49
f 30 49 32
f 32 49 50
f 32 50 33
f 33 50 49
f 33 49 51
f 33 51 52
f 33 52 53
f 33 53 34
f 34 53 54
f 34 54 35
f 35 54 37
f 37 54 55
f 38 43 56
f 40 57 58
f 40 58 59
f 40 59 60
f 40 60 61
f 40 61 41
f 45 62 46
f 46 62 63
f 46 63 64
f 46 64 47
f 47 64 48
f 48 65 66
f 48 66 67
f 48 67 68
f 48 68 69
f 48 69 49
f 48 64 65
f 49 69 70
f 49 70 52
f 49 52 51
f 52 71 53
f 52 70 72
f 52 72 71
f 53 71 73
f 53 73 74
f 53 74 54
f 54 74 75
f 54 75 76
f 54 76 55
f 57 77 78
f 57 78 58
f 58 78 79
f 64 80 65
f 65 80 66
f 66 81 67
f 67 81 82
f 67 82 83
f 67 83 68
f 68 83 84
f 68 84 85
f 68 85 86
f 68 86 70
f 68 70 69
f 70 86 87
f 70 87 72
f 71 72 73
f 72 87 88
f 72 88 89
f 72 89 74
f 72 74 73
f 74 89 90
f 74 90 75
f 75 90 91
f 75 91 92
f 75 92 76
f 77 93 78
f 78 93 91
f 78 91 90
f 78 90 102
f 78 102 101
f 78 101 111
f 78 111 110
f 78 110 109
f 78 109 108
f 78 108 107
f 78 107 106
f 78 106 113
f 78 113 112
f 78 112 103
f 78 103 94
f 78 94 79
f 82 84 83
f 84 95 85
f 85 95 96
f 85 96 97
f 85 97 86
f 86 97 98
f 86 98 87
f 87 98 99
f 87 99 88
f 88 100 89
f 88 99 101
f 88 101 100
f 89 100 90
f 90 100 102
f 95 104 96
f 96 104 105
f 96 105 97
f 97 106 107
f 97 107 98
f 97 105 106
f 98 107 108
f 98 108 99
f 99 108 109
f 99 109 110
f 99 110 111
f 99 111 101
f 100 101 102
f 103 112 105
f 103 105 104
f 105 112 113
f 105 113 106

