# https://github.com/mikedh/trimesh
v -1.34148811 -0.82934457 4.18216428
v 0.98699218 -2.11157364 4.18211097
v -0.93969831 -2.32359233 4.18216428
v -0.86337902 -2.31787400 4.57594022
v -1.34148811 -0.75808514 4.27431880
v -1.34148811 0.36271072 4.18216428
v 0.94512055 -2.28488360 4.18216428
v 0.82366301 -2.41640550 4.18216428
v 0.75684650 -2.47314909 4.18216428
v 0.55164566 -2.50569980 4.18216428
v 0.33070581 -2.50701937 4.18216428
v -0.33092586 -2.50701937 4.18216428
v -0.55156872 -2.50569980 4.18216428
v -0.65580251 -2.49338326 4.18216428
v -0.75587870 -2.47314909 4.18216428
v 0.98699218 1.47646867 4.18211097
v 1.69227732 -0.83550276 4.18211097
v -0.76092704 -2.48502577 4.50110435
v -0.76122403 -2.48634535 4.57594022
v -1.34148811 -0.55134492 4.36928061
v -0.84912482 1.65549680 4.72312301
v -1.34148811 0.33411899 4.22448118
v -0.94504364 1.65549680 4.18216428
v 0.76189484 -2.48634535 4.57594022
v 0.86434683 -2.31787400 4.57594022
v 0.83019616 -2.37549731 4.57594022
v 0.76159793 -2.48502577 4.50110435
v 0.55164566 -2.54132935 4.50110435
v -0.55156872 -2.54132935 4.50110435
v 1.69227732 0.35567277 4.18211097
v -0.87110007 1.77206317 4.18216428
v -0.78230839 1.85168008 4.18216428
v -0.55186571 1.90622438 4.18216428
v -0.33092586 1.90930340 4.18216428
v 0.33100276 1.90930340 4.18216428
v 0.44325447 1.90842368 4.18216428
v 0.55164566 1.90622438 4.18216428
v 0.66419433 1.89390784 4.18216428
v 0.87206779 1.83232564 4.18216428
v 1.69227732 -0.77480027 4.30959174
v -0.55156872 -2.54396866 4.57594022
v -0.69025008 -2.50657951 4.57594022
v -0.74726682 1.49846227 4.72312301
v -0.74904863 1.49934199 4.72312301
v -1.34148811 -0.51087664 4.36991621
v -0.76270884 1.85739841 4.72312301
v -1.34148811 0.28485324 4.27273012
v -1.34148811 0.15773001 4.34168727
v -1.34148811 0.11022374 4.36308408
v -1.34148811 -0.07056397 4.37092259
v -1.34148811 -0.11059239 4.37245832
v -1.34148811 -0.33096867 4.37251128
v 0.55164566 -2.54440852 4.57594022
v 0.84920172 1.65461708 4.72312301
v 0.74912545 1.49890213 4.72312301
v 1.69227732 -0.70266113 4.42753937
v 1.69227732 -0.67494920 4.43897931
v 1.69227732 -0.55178478 4.46477207
v 0.76337974 1.85651869 4.72312301
v 1.69227732 0.23866658 4.41260390
v -0.55186571 1.94933186 4.72195788
v -0.55186571 1.93569575 4.50110435
v -0.33092586 1.93833506 4.50110435
v 0.33100276 1.93833506 4.50110435
v 0.55164566 1.93569575 4.50110435
v 0.55164566 1.94889200 4.72195788
v 0.55164566 1.94889200 4.72312301
v 0.76278575 1.85739841 4.72312301
v -0.33092586 1.44743700 4.72312301
v -0.55186571 1.45007632 4.72312301
v -0.55186571 1.94889200 4.72312301
v 0.55164566 1.45007632 4.72312301
v 0.33219062 1.44743700 4.72312301
v 1.69227732 -0.51527535 4.46535439
v 1.69227732 -0.33096867 4.46540735
v 1.69227732 -0.11059239 4.46540735
v 1.69227732 0.10978388 4.44988959
v 0.84979571 1.65549680 4.72195788
v -0.11057995 1.94933186 4.72195788
f 1 2 3
f 1 3 4
f 1 4 5
f 1 5 20
f 1 20 45
f 1 45 52
f 1 52 51
f 1 51 50
f 1 50 49
f 1 49 48
f 1 48 47
f 1 47 22
f 1 22 6
f 1 6 16
f 1 16 2
f 2 7 8
f 2 8 9
f 2 9 10
f 2 10 11
f 2 11 12
f 2 12 13
f 2 13 14
f 2 14 15
f 2 15 3
f 2 16 30
f 2 30 17
f 2 17 7
f 3 15 18
f 3 18 19
f 3 19 4
f 4 20 5
f 4 19 21
f 4 21 20
f 6 22 21
f 6 21 23
f 6 23 16
f 7 24 8
f 7 17 25
f 7 25 26
f 7 26 24
f 8 27 9
f 8 24 27
f 9 27 28
f 9 28 10
f 10 28 11
f 11 28 29
f 11 29 12
f 12 29 13
f 13 29 14
f 14 29 15
f 15 29 18
f 16 23 31
f 16 31 32
f 16 32 33
f 16 33 34
f 16 34 35
f 16 35 36
f 16 36 37
f 16 37 38
f 16 38 39
f 16 39 30
f 17 40 25
f 17 30 60
f 17 60 77
f 17 77 76
f 17 76 75
f 17 75 74
f 17 74 58
f 17 58 57
f 17 57 56
f 17 56 40
f 18 29 41
f 18 41 42
f 18 42 19
f 19 42 43
f 19 43 44
f 19 44 21
f 20 21 45
f 21 46 23
f 21 22 47
f 21 47 48
f 21 48 49
f 21 49 50
f 21 50 51
f 21 51 52
f 21 52 45
f 21 44 43
f 21 43 70
f 21 70 69
f 21 69 73
f 21 73 72
f 21 72 55
f 21 55 54
f 21 54 59
f 21 59 68
f 21 68 67
f 21 67 71
f 21 71 46
f 23 46 31
f 24 53 27
f 24 26 54
f 24 54 55
f 24 55 53
f 25 40 56
f 25 56 57
f 25 57 58
f 25 58 54
f 25 54 26
f 27 53 28
f 28 53 29
f 29 53 41
f 30 39 59
f 30 59 60
f 31 46 32
f 32 46 61
f 32 61 62
f 32 62 33
f 33 62 34
f 34 62 63
f 34 63 64
f 34 64 35
f 35 64 36
f 36 64 65
f 36 65 37
f 37 65 38
f 38 65 66
f 38 66 39
f 39 66 67
f 39 67 68
f 39 68 59
f 41 53 69
f 41 69 70
f 41 70 43
f 41 43 42
f 46 71 61
f 53 55 72
f 53 72 73
f 53 73 69
f 54 58 74
f 54 74 75
f 54 75 76
f 54 76 77
f 54 77 60
f 54 60 78
f 54 78 59
f 59 78 60
f 61 71 67
f 61 67 79
f 61 79 64
f 61 64 63
f 61 63 62
f 64 79 66
f 64 66 65
f 66 79 67

