# https://github.com/mikedh/trimesh
v -7.84868467 2.83680311 1.79662801
v -7.84868467 2.46964766 1.97375787
v -7.84868467 2.83680311 1.53967217
v -9.82457387 2.83680311 1.78265584
v -8.24894303 2.26286138 1.97375787
v -7.84868467 2.13824612 1.97375787
v -7.84868467 2.53885518 1.58966078
v -9.78945162 0.70098747 1.40512670
v -9.77244287 2.83680311 1.40512670
v -9.92905629 2.83680311 1.76924030
v -8.89814831 1.84761624 1.97375787
v -8.79786248 1.95738651 1.97375787
v -8.68101005 2.03537558 1.97375787
v -7.84868467 2.20724441 1.87806737
v -9.08060583 0.70077832 1.97375787
v -7.84868467 2.36698636 1.67405051
v -9.55906035 0.70077832 1.53054271
v -9.78945162 0.70077832 1.40546095
v -9.79077679 0.70077832 1.40512670
v -10.10510773 2.83680311 1.40512670
v -9.98494238 2.83680311 1.76205912
v -8.99688724 1.65483866 1.97375787
v -7.84868467 2.24508904 1.82618639
v -9.13892183 0.70077832 1.89254091
v -9.39537826 0.70077832 1.97375787
v -9.17072984 0.70077832 1.85157055
v -9.23456825 0.70077832 1.78003905
v -9.30878826 0.70077832 1.70505711
v -9.37174301 0.70077832 1.64159702
v -10.10289889 0.70077832 1.40512670
v -10.10289889 0.70077832 1.41030368
v -10.10488730 2.83680311 1.41030368
v -10.04568764 2.83680311 1.67683376
v -10.01542522 0.70077832 1.71936289
v -9.98494238 2.31806021 1.76205912
v -9.38146201 0.77291311 1.97375787
v -9.31121817 0.94938186 1.97375787
v -9.10600841 1.41418045 1.97375787
v -9.98494238 0.70077832 1.76200320
v -10.08633230 0.70077832 1.55915558
v -10.07815889 0.70077832 1.63113187
v -10.07815889 2.83680311 1.63113187
f 1 2 6
f 1 6 14
f 1 14 23
f 1 23 16
f 1 16 7
f 1 7 3
f 1 3 9
f 1 9 20
f 1 20 32
f 1 32 42
f 1 42 33
f 1 33 21
f 1 21 10
f 1 10 4
f 1 4 2
f 2 5 13
f 2 13 12
f 2 12 11
f 2 11 22
f 2 22 38
f 2 38 37
f 2 37 36
f 2 36 25
f 2 25 15
f 2 15 6
f 2 4 5
f 3 7 8
f 3 8 9
f 4 10 11
f 4 11 12
f 4 12 13
f 4 13 5
f 6 15 14
f 7 16 17
f 7 17 8
f 8 17 18
f 8 18 19
f 8 19 30
f 8 30 20
f 8 20 9
f 10 21 11
f 11 21 22
f 14 15 23
f 15 24 16
f 15 16 23
f 15 25 39
f 15 39 34
f 15 34 41
f 15 41 40
f 15 40 31
f 15 31 30
f 15 30 19
f 15 19 18
f 15 18 17
f 15 17 29
f 15 29 28
f 15 28 27
f 15 27 26
f 15 26 24
f 16 24 26
f 16 26 27
f 16 27 28
f 16 28 29
f 16 29 17
f 20 30 31
f 20 31 32
f 21 33 34
f 21 34 35
f 21 35 25
f 21 25 36
f 21 36 37
f 21 37 38
f 21 38 22
f 25 35 39
f 31 40 32
f 32 40 41
f 32 41 42
f 33 42 41
f 33 41 34
f 34 39 35

