# https://github.com/mikedh/trimesh
v 9.16239324 -3.86356812 -0.12142946
v 9.16239324 -4.04337497 -0.07298051
v 8.94158675 -4.04092367 -0.07080458
v 8.94158675 -3.86356812 -0.11693283
v 9.16239324 -3.64283302 -0.12142946
v 9.50021007 -3.86356812 -0.12142946
v 9.50021007 -3.95896057 -0.09575448
v 9.16239324 -4.11947581 0.08571147
v 8.94158675 -4.11851681 0.08571147
v 9.50021007 -4.04337497 -0.07298051
v 9.50021007 -4.08377026 0.01115195
v 8.77467728 -4.01704891 -0.05397809
v 8.94158675 -3.64283302 -0.11693283
v 8.74651184 -3.86356812 -0.06862864
v 9.50021007 -3.42209792 -0.08037883
v 9.50021007 -3.64283302 -0.12142946
v 8.94158675 -4.12278018 0.30648704
v 9.50021007 -4.11947581 0.08571147
v 8.72077961 -4.12150107 0.30648704
v 8.27934033 -4.12150107 0.52726325
v 7.72402006 -4.11830362 0.74789406
v 8.50014682 -4.11148203 0.30648704
v 7.72402006 -4.04625297 0.54829621
v 8.70895704 -4.06074824 0.07193076
v 8.35045073 -4.00841557 0.17376022
v 7.72402006 -3.86356812 0.47750888
v 8.94158675 -3.47954671 -0.07080458
v 8.74651184 -3.64283302 -0.06862864
v 8.77467728 -3.49873173 -0.05397809
v 7.72402006 -3.77467717 0.47634821
v 7.72402006 -3.64283302 0.47489802
v 9.50021007 -3.29068015 -0.02931835
v 9.38302603 -4.12128788 0.30648704
v 9.50021007 -4.11499925 1.36046770
v 8.05853384 -4.12096811 0.74789406
v 9.50021007 -4.12054174 0.30648704
v 7.83772669 -4.11926295 0.74789406
v 7.72402006 -4.11499925 1.36046770
v 7.92135513 -3.99615841 0.40425544
v 8.35045073 -3.50619255 0.17376022
v 7.72402006 -3.47261852 0.54583010
v 9.50021007 -3.14700490 0.08571147
v 7.72402006 -3.57387323 0.50144285
v 7.92135513 -3.51589181 0.40425544
v 9.50021007 -3.83415088 1.36046770
v 7.72402006 -3.83457725 1.36046770
v 7.72402006 -3.44043020 0.64011714
v 9.50021007 -3.03413258 0.30648704
v 9.50021007 -3.30709409 1.07963842
v 7.72402006 -3.47954671 1.12388024
v 7.72402006 -3.41069351 0.74789406
v 9.50021007 -3.03402632 0.52726325
v 9.50021007 -3.24687390 1.03293047
v 7.72402006 -3.41858070 0.96867030
v 9.50021007 -3.19283608 0.99028357
v 9.50021007 -3.03413258 0.74789406
v 7.72402006 -3.41474370 0.86161846
v 9.50021007 -3.03402632 0.65331751
f 1 2 3
f 1 3 4
f 1 4 13
f 1 13 5
f 1 5 16
f 1 16 6
f 1 6 7
f 1 7 2
f 2 8 9
f 2 9 3
f 2 7 10
f 2 10 11
f 2 11 8
f 3 9 12
f 3 12 4
f 4 12 14
f 4 14 28
f 4 28 13
f 5 13 15
f 5 15 16
f 6 16 15
f 6 15 32
f 6 32 42
f 6 42 48
f 6 48 52
f 6 52 58
f 6 58 56
f 6 56 55
f 6 55 53
f 6 53 49
f 6 49 45
f 6 45 34
f 6 34 36
f 6 36 18
f 6 18 11
f 6 11 10
f 6 10 7
f 8 17 9
f 8 11 18
f 8 18 17
f 9 17 19
f 9 19 20
f 9 20 21
f 9 21 22
f 9 22 23
f 9 23 24
f 9 24 12
f 12 24 23
f 12 23 25
f 12 25 26
f 12 26 14
f 13 27 15
f 13 28 29
f 13 29 27
f 14 26 30
f 14 30 31
f 14 31 28
f 15 27 32
f 17 18 33
f 17 33 34
f 17 34 35
f 17 35 20
f 17 20 19
f 18 36 33
f 20 35 37
f 20 37 21
f 21 37 38
f 21 38 46
f 21 46 50
f 21 50 54
f 21 54 57
f 21 57 51
f 21 51 47
f 21 47 41
f 21 41 43
f 21 43 31
f 21 31 30
f 21 30 26
f 21 26 23
f 21 23 22
f 23 26 39
f 23 39 25
f 25 39 26
f 27 29 32
f 28 31 29
f 29 31 40
f 29 40 41
f 29 41 42
f 29 42 32
f 31 43 44
f 31 44 40
f 33 36 34
f 34 38 35
f 34 45 46
f 34 46 38
f 35 38 37
f 40 44 41
f 41 44 43
f 41 47 48
f 41 48 42
f 45 49 46
f 46 49 50
f 47 51 48
f 48 51 52
f 49 53 50
f 50 53 55
f 50 55 56
f 50 56 54
f 51 57 56
f 51 56 58
f 51 58 52
f 54 56 57

