# https://github.com/mikedh/trimesh
v -0.26157936 0.55101149 12.85806511
v -0.25200939 0.74125438 12.85806511
v -0.23180609 0.43122893 12.85806511
v -1.38552038 0.99357854 13.81397669
v -0.11023190 0.84047017 12.85806511
v -1.37701370 1.15582772 13.83691909
v -1.58400889 1.37920600 14.06060226
v -1.78639625 1.59477655 14.29788059
v -0.13929629 0.41504207 12.85806511
v -0.05529313 0.20746975 13.78806087
v -1.35362042 0.85151525 13.83819359
v -1.58223662 1.21429078 14.04998116
v -0.33105032 1.75988234 14.11774443
v -0.11023190 1.75988234 14.11285893
v -0.05883757 0.84066058 12.85806511
v -1.65560652 1.62810235 14.26176874
v -0.71810282 1.34987931 13.63915107
v -0.77268717 1.63191106 14.00197305
v -1.78639625 1.49251381 14.29788059
v -1.81049834 1.63000670 14.43616931
v -1.67049296 1.73798250 14.42469811
v -0.11023190 0.41237602 12.85806511
v -0.07124310 0.20746975 13.85518721
v 0.06379995 0.41218562 12.85806511
v 0.07691436 0.20746975 13.78806087
v -1.35362042 0.85151525 13.93803331
v -1.55600761 1.08841434 14.07610951
v -0.55186876 2.06933633 14.66750017
v -0.33105032 2.08038150 14.66388853
v -0.11023190 2.08837972 14.66049005
v -0.11023190 1.83167572 14.22331975
v -0.99350559 1.97431022 14.58677867
v -0.77268717 2.05467295 14.67068610
v 0.11023207 1.75988234 14.11285893
v 0.11023207 0.84104146 12.85806511
v -1.43478786 1.83415120 14.45847412
v -1.81049834 1.47099495 14.43616931
v -1.80447290 1.60886864 14.58444154
v -1.60704769 1.79911153 14.59272614
v -1.60704769 1.79911153 14.49054994
v -0.05883757 0.20746975 13.98901483
v 0.11023207 0.41218562 12.85806511
v 0.23180625 0.43103852 12.85806511
v 1.35362058 0.85151525 13.83819359
v 0.08187658 0.20746975 13.98901483
v -1.48724554 1.12307321 14.28279840
v -1.55600761 1.08841434 14.13580067
v -0.04359649 0.20746975 14.05422974
v -0.01063323 0.20746975 14.10606135
v -0.11023190 2.15293665 14.87780070
v 0.11023207 2.08837972 14.66049005
v 0.11023207 1.83167572 14.22331975
v -0.99350559 2.02001425 14.69723950
v -0.77268717 2.05467295 14.85910687
v 0.33105048 1.75988234 14.11774443
v 0.77268734 1.63191106 14.00197305
v 0.71810298 1.34987931 13.63915107
v 1.65560652 1.62810235 14.26176874
v 1.78639625 1.59477655 14.29788059
v 0.13256203 0.82599719 12.85806511
v -1.80447290 1.49917897 14.58444154
v -1.36000034 1.79168459 14.78497109
v -1.11259868 1.99202054 14.77392495
v -1.11259868 1.99202054 14.73717551
v 0.23605959 0.44760618 12.85806511
v 1.38552038 0.99357854 13.81397669
v 1.58223662 1.21429078 14.04998116
v 1.55600794 1.08841434 14.07610951
v 1.35362058 0.85151525 13.93803331
v 0.01559560 0.20746975 14.10606135
v -0.00886101 0.21184975 14.11243388
v -0.33105032 2.11846827 14.87780070
v -0.11023190 2.05143569 15.02798502
v 0.11023207 2.15293665 14.87780070
v 0.33105048 2.08038150 14.66388853
v -0.99350559 2.02001425 14.81088690
v -0.50401886 2.00306570 14.99952020
v -0.33105032 2.02515586 15.01396481
v 0.55186892 2.06933633 14.66750017
v 0.77268734 2.05467295 14.67068610
v 0.99350576 1.97431022 14.58677867
v 1.43478818 1.83415120 14.45847412
v 1.67049329 1.73798250 14.42469811
v 1.81049834 1.63000670 14.43616931
v 1.78639625 1.49251381 14.29788059
v 1.58400889 1.37920600 14.06060226
v 0.25236400 0.74163518 12.85806511
v -1.65560652 1.47270882 14.61035735
v -1.36000034 1.73226944 14.78497109
v 0.26228841 0.55101149 12.85806511
v 1.37701387 1.15582772 13.83691909
v 0.26299730 0.58719383 12.85806511
v 1.81049834 1.47099495 14.43616931
v 1.55600794 1.08841434 14.13580067
v 1.48724587 1.12307321 14.28279840
v 1.80447290 1.49917897 14.58444154
v 0.01311450 0.21184975 14.11243388
v -0.02232987 1.07508402 14.79070603
v -0.11023190 1.92746361 15.02798502
v 0.11023207 2.05143569 15.02798502
v 0.33105048 2.11846827 14.87780070
v 0.77268734 2.05467295 14.85910687
v -0.50401886 1.96231280 14.99952020
v -0.33105032 1.94022264 15.01396481
v 0.99350576 2.02001425 14.69723950
v 1.60704769 1.79911153 14.49054994
v 1.80447290 1.60886864 14.58444154
v 1.60704769 1.79911153 14.59272614
v -1.21396960 1.70598960 14.80876228
v 1.36000051 1.73226944 14.78497109
v 1.65560652 1.47270882 14.61035735
v 0.03225446 1.07508402 14.79070603
v 0.11023207 1.92746361 15.02798502
v 0.33105048 2.02515586 15.01396481
v 0.99350576 2.02001425 14.81088690
v 0.50401902 2.00306570 14.99952020
v 1.11259884 1.99202054 14.73717551
v 1.36000051 1.79168459 14.78497109
v 1.11259884 1.99202054 14.77392495
v 0.50401902 1.96231280 14.99952020
v 1.21396977 1.70598960 14.80876228
v 0.33105048 1.94022264 15.01396481
f 1 2 5
f 1 5 15
f 1 15 35
f 1 35 60
f 1 60 87
f 1 87 92
f 1 92 90
f 1 90 65
f 1 65 43
f 1 43 42
f 1 42 24
f 1 24 22
f 1 22 9
f 1 9 3
f 1 3 4
f 1 4 2
f 2 4 6
f 2 6 7
f 2 7 8
f 2 8 5
f 3 9 10
f 3 10 11
f 3 11 4
f 4 11 12
f 4 12 8
f 4 8 7
f 4 7 6
f 5 13 14
f 5 14 15
f 5 8 16
f 5 16 17
f 5 17 18
f 5 18 13
f 8 12 19
f 8 19 37
f 8 37 20
f 8 20 21
f 8 21 16
f 9 22 10
f 10 23 11
f 10 22 24
f 10 24 42
f 10 42 25
f 10 25 45
f 10 45 70
f 10 70 49
f 10 49 48
f 10 48 41
f 10 41 23
f 11 26 47
f 11 47 27
f 11 27 12
f 11 23 26
f 12 27 19
f 13 28 29
f 13 29 30
f 13 30 31
f 13 31 14
f 13 18 32
f 13 32 33
f 13 33 28
f 14 31 52
f 14 52 34
f 14 34 35
f 14 35 15
f 16 21 36
f 16 36 18
f 16 18 17
f 18 36 32
f 19 27 37
f 20 37 61
f 20 61 38
f 20 38 39
f 20 39 40
f 20 40 21
f 21 40 36
f 23 41 26
f 25 42 43
f 25 43 44
f 25 44 45
f 26 46 47
f 26 41 48
f 26 48 49
f 26 49 46
f 27 47 37
f 28 50 29
f 28 33 50
f 29 50 30
f 30 50 74
f 30 74 51
f 30 51 52
f 30 52 31
f 32 36 33
f 33 36 53
f 33 53 76
f 33 76 54
f 33 54 50
f 34 52 55
f 34 55 35
f 35 55 56
f 35 56 57
f 35 57 58
f 35 58 59
f 35 59 60
f 36 40 53
f 37 47 61
f 38 61 89
f 38 89 62
f 38 62 39
f 39 62 63
f 39 63 64
f 39 64 40
f 40 64 53
f 43 65 66
f 43 66 44
f 44 66 67
f 44 67 68
f 44 68 94
f 44 94 69
f 44 69 45
f 45 69 70
f 46 61 47
f 46 49 61
f 49 71 61
f 49 70 97
f 49 97 71
f 50 54 72
f 50 72 73
f 50 73 100
f 50 100 74
f 51 74 75
f 51 75 55
f 51 55 52
f 53 64 63
f 53 63 76
f 54 76 77
f 54 77 78
f 54 78 72
f 55 75 79
f 55 79 80
f 55 80 81
f 55 81 56
f 56 81 82
f 56 82 58
f 56 58 57
f 58 82 83
f 58 83 59
f 59 83 84
f 59 84 93
f 59 93 85
f 59 85 67
f 59 67 66
f 59 66 86
f 59 86 87
f 59 87 60
f 61 88 89
f 61 71 88
f 62 76 63
f 62 89 103
f 62 103 77
f 62 77 76
f 65 90 66
f 66 91 86
f 66 90 92
f 66 92 87
f 66 87 91
f 67 85 68
f 68 85 93
f 68 93 94
f 69 94 95
f 69 95 70
f 70 95 96
f 70 96 97
f 71 98 88
f 71 97 112
f 71 112 98
f 72 78 73
f 73 78 104
f 73 104 99
f 73 99 113
f 73 113 100
f 74 100 101
f 74 101 102
f 74 102 80
f 74 80 79
f 74 79 75
f 77 103 104
f 77 104 78
f 80 102 115
f 80 115 105
f 80 105 82
f 80 82 81
f 82 106 83
f 82 105 106
f 83 106 84
f 84 107 96
f 84 96 93
f 84 106 108
f 84 108 107
f 86 91 87
f 88 109 89
f 88 98 109
f 89 109 103
f 93 96 94
f 94 96 95
f 96 107 118
f 96 118 110
f 96 110 111
f 96 111 97
f 97 111 112
f 98 99 104
f 98 104 103
f 98 103 109
f 98 112 113
f 98 113 99
f 100 113 122
f 100 122 114
f 100 114 101
f 101 114 102
f 102 114 116
f 102 116 115
f 105 115 119
f 105 119 117
f 105 117 106
f 106 117 119
f 106 119 108
f 107 108 118
f 108 119 118
f 110 120 121
f 110 121 111
f 110 118 116
f 110 116 120
f 111 121 112
f 112 121 120
f 112 120 122
f 112 122 113
f 114 122 120
f 114 120 116
f 115 118 119
f 115 116 118

