# https://github.com/mikedh/trimesh
v 7.72402006 -4.11678139 1.41029906
v 7.72402006 -4.11492687 1.36052758
v 9.50021007 -4.11492687 1.36052758
v 9.50021007 -4.11659584 1.41029906
v 7.72402006 -4.09230030 1.63111806
v 7.72402006 -3.83450816 1.36052758
v 9.50021007 -3.83413739 1.36052758
v 9.50021007 -4.09211475 1.63111806
v 9.50021007 -4.01385015 1.76199991
v 7.72402006 -4.05428064 1.69457748
v 7.72402006 -3.20115556 1.56693749
v 9.16239324 -2.22210190 1.57696377
v 9.49742814 -2.22210190 1.52130863
v 9.50021007 -2.22210190 1.52118889
v 7.72402006 -4.01385015 1.76199991
v 9.50021007 -3.86362570 1.78253280
v 7.72402006 -3.03665100 1.97381314
v 7.72402006 -2.98119786 1.64546660
v 8.94019579 -2.22210190 1.63940266
v 9.50021007 -2.22210190 1.78313352
v 9.50021007 -3.74659924 1.78259332
v 8.96453640 -2.22210190 1.97381314
v 8.92315677 -2.31835663 1.97381314
v 8.84491849 -2.44168883 1.97381314
v 8.72077961 -2.52162305 1.97381314
v 8.27047341 -2.76161061 1.97381314
v 7.83129363 -2.99139818 1.97381314
v 7.72402006 -2.71079425 1.97381314
v 7.72402006 -2.87288798 1.74500958
v 8.81796965 -2.22210190 1.73474313
v 9.50021007 -2.31835663 1.78313352
v 8.61976539 -2.22210190 1.97381314
v 7.77652677 -2.68204765 1.97381314
v 8.66827290 -2.22210190 1.89444313
v 8.75989908 -2.22210190 1.78073190
v 7.72402006 -2.78572092 1.86634546
f 1 2 3
f 1 3 4
f 1 4 8
f 1 8 5
f 1 5 10
f 1 10 15
f 1 15 17
f 1 17 28
f 1 28 36
f 1 36 29
f 1 29 18
f 1 18 11
f 1 11 6
f 1 6 2
f 2 6 7
f 2 7 3
f 3 7 14
f 3 14 20
f 3 20 31
f 3 31 21
f 3 21 16
f 3 16 9
f 3 9 8
f 3 8 4
f 5 8 9
f 5 9 10
f 6 11 12
f 6 12 13
f 6 13 14
f 6 14 7
f 9 15 10
f 9 16 17
f 9 17 15
f 11 18 12
f 12 18 19
f 12 19 30
f 12 30 35
f 12 35 34
f 12 34 32
f 12 32 22
f 12 22 20
f 12 20 14
f 12 14 13
f 16 21 22
f 16 22 23
f 16 23 24
f 16 24 25
f 16 25 26
f 16 26 27
f 16 27 17
f 17 27 26
f 17 26 25
f 17 25 24
f 17 24 23
f 17 23 22
f 17 22 32
f 17 32 33
f 17 33 28
f 18 29 19
f 19 29 30
f 20 22 31
f 21 31 22
f 28 33 34
f 28 34 35
f 28 35 36
f 29 36 35
f 29 35 30
f 32 34 33

