# https://github.com/mikedh/trimesh
v 0.13611208 0.25061183 1.17066654
v 0.22715381 0.21590743 1.22515462
v 0.22363169 0.23883144 1.22758633
v 0.22363169 0.24281131 1.22758633
v 0.25375124 0.26774117 1.24690219
v 0.25678239 0.27869375 1.24559858
v 0.14687059 0.26544875 1.17066654
v 0.19647926 0.05973759 1.17066654
v 0.23579903 0.21590743 1.23031888
v 0.20384371 0.06483181 1.17674588
v 0.31127937 0.26296533 1.27851449
v 0.25428490 0.25382757 1.24640082
v 0.31804614 0.26834610 1.28262586
v 0.31074570 0.27449102 1.27885293
v 0.31074570 0.27652869 1.27885293
v 0.27315496 0.31397126 1.22964201
v 0.14945348 0.26786851 1.17066654
v 0.19718368 0.05862323 1.17066654
v 0.19831504 0.05964208 1.17180721
v 0.35418531 0.25045265 1.29795570
v 0.22363169 0.08492217 1.19304089
v 0.23853136 0.20269428 1.22875206
v 0.24914045 0.19763189 1.23316424
v 0.21594704 0.05324246 1.17441441
v 0.21594704 0.06187079 1.17911487
v 0.23321615 0.07307810 1.19053398
v 0.33683082 0.26774117 1.29108676
v 0.35418531 0.26774117 1.29869529
v 0.31956171 0.27923502 1.28123454
v 0.29213177 0.32887186 1.22779940
v 0.28060480 0.32549693 1.22232178
v 0.19146289 0.30263660 1.17066654
v 0.18087516 0.29454953 1.17066654
v 0.19835773 0.05773174 1.17066654
v 0.35418531 0.23424665 1.29010904
v 0.35418531 0.26290165 1.29851979
v 0.30901666 0.08450826 1.21070216
v 0.31956171 0.08253425 1.21155453
v 0.21005547 0.05072719 1.17066654
v 0.21528531 0.04843478 1.17066654
v 0.31956171 0.07390590 1.20623984
v 0.35418531 0.27305826 1.29621338
v 0.33683082 0.28181396 1.28464397
v 0.30229260 0.33008174 1.22961694
v 0.30244202 0.35676276 1.17066654
v 0.28043404 0.35220978 1.17066654
v 0.27368864 0.34702004 1.17727233
v 0.25819125 0.32909472 1.19379298
v 0.27048668 0.34797522 1.17066654
v 0.35418531 0.23386456 1.28992103
v 0.33281773 0.08317103 1.21114088
v 0.31956171 0.03445750 1.17066654
v 0.31956171 0.03681358 1.17294787
v 0.33683082 0.03525347 1.17066654
v 0.33683082 0.06492734 1.19671355
v 0.35418531 0.28149557 1.28889321
v 0.31956171 0.33081403 1.23033139
v 0.31956171 0.33683159 1.21829818
v 0.31956171 0.35972377 1.17066654
v 0.35418531 0.07775841 1.19997255
v 0.33787679 0.07753554 1.20597661
v 0.35418531 0.03964725 1.17066654
v 0.35418531 0.06747445 1.19383056
v 0.35418531 0.34708372 1.19540994
v 0.33051233 0.32985886 1.22875206
v 0.33683082 0.34335856 1.20625234
v 0.33683082 0.34775235 1.19761600
v 0.33683082 0.35424748 1.18375270
v 0.33759928 0.35924618 1.17066654
v 0.35418531 0.35809998 1.17066654
v 0.35418531 0.35345150 1.18369005
f 1 2 3
f 1 3 4
f 1 4 5
f 1 5 6
f 1 6 7
f 1 7 17
f 1 17 33
f 1 33 32
f 1 32 49
f 1 49 46
f 1 46 45
f 1 45 59
f 1 59 69
f 1 69 70
f 1 70 62
f 1 62 54
f 1 54 52
f 1 52 40
f 1 40 39
f 1 39 34
f 1 34 18
f 1 18 8
f 1 8 2
f 2 9 3
f 2 8 10
f 2 10 9
f 3 9 11
f 3 11 12
f 3 12 5
f 3 5 4
f 5 12 13
f 5 13 14
f 5 14 15
f 5 15 6
f 6 15 16
f 6 16 7
f 7 16 17
f 8 18 19
f 8 19 10
f 9 20 11
f 9 10 21
f 9 21 22
f 9 22 23
f 9 23 20
f 10 19 24
f 10 24 25
f 10 25 26
f 10 26 21
f 11 20 13
f 11 13 12
f 13 27 15
f 13 15 14
f 13 20 27
f 15 27 28
f 15 28 29
f 15 29 30
f 15 30 16
f 16 30 31
f 16 31 32
f 16 32 33
f 16 33 17
f 18 34 19
f 19 34 24
f 20 35 50
f 20 50 60
f 20 60 63
f 20 63 62
f 20 62 70
f 20 70 71
f 20 71 64
f 20 64 56
f 20 56 42
f 20 42 28
f 20 28 36
f 20 36 27
f 20 23 21
f 20 21 26
f 20 26 37
f 20 37 38
f 20 38 35
f 21 23 22
f 24 34 39
f 24 39 40
f 24 40 41
f 24 41 26
f 24 26 25
f 26 41 38
f 26 38 37
f 27 36 28
f 28 42 29
f 29 42 43
f 29 43 30
f 30 44 45
f 30 45 46
f 30 46 47
f 30 47 48
f 30 48 31
f 30 43 44
f 31 48 32
f 32 48 47
f 32 47 49
f 35 38 50
f 38 41 51
f 38 51 50
f 40 52 53
f 40 53 41
f 41 53 54
f 41 54 55
f 41 55 51
f 42 56 43
f 43 56 44
f 44 57 58
f 44 58 59
f 44 59 45
f 44 56 57
f 46 49 47
f 50 51 60
f 51 55 61
f 51 61 60
f 52 54 53
f 54 62 55
f 55 62 63
f 55 63 61
f 56 64 65
f 56 65 57
f 57 65 66
f 57 66 67
f 57 67 58
f 58 67 59
f 59 67 68
f 59 68 69
f 60 61 63
f 64 71 66
f 64 66 65
f 66 71 67
f 67 71 68
f 68 71 69
f 69 71 70

