# https://github.com/mikedh/trimesh
v 0.39892761 -0.30946930 0.80366587
v 0.39896027 -0.30955281 0.80371524
v 0.39892761 -0.30863431 0.82098435
v 0.39892761 -0.30295645 0.74527925
v 0.48263291 -0.39597340 0.74527925
v 0.40836978 -0.31740162 0.82098435
v 0.39892761 -0.29903203 0.87135978
v 0.39892761 0.44360071 0.74527925
v 0.48416848 -0.39739288 0.74527925
v 0.48740298 -0.39931333 0.74527925
v 0.49223843 -0.40198527 0.74527925
v 0.50961985 -0.40783013 0.74527925
v 0.48204479 -0.34604149 0.83025462
v 0.49102956 -0.31915509 0.87135978
v 0.39892761 0.43124301 0.87135978
v 0.39892761 0.43333046 0.86089214
v 0.46685239 0.44502019 0.74527925
v 0.49233645 -0.34729397 0.83147666
v 0.52687061 -0.40457370 0.74527925
v 0.50961985 -0.32191053 0.87135978
v 0.50762687 -0.32166002 0.87135978
v 0.50958716 0.42481365 0.87135978
v 0.50942381 0.43049151 0.85436223
v 0.51902934 0.43199448 0.84781998
v 0.47505306 0.44502019 0.74527925
v 0.53716222 -0.39956383 0.74527925
v 0.54634303 -0.30896832 0.87135978
v 0.54258574 -0.31063828 0.87135978
v 0.52765471 -0.31698414 0.87135978
v 0.52415885 -0.31806961 0.87135978
v 0.52677259 0.42381168 0.87135978
v 0.52076095 0.43266244 0.83825346
v 0.49285919 0.44335025 0.74527925
v 0.54366391 0.41796679 0.87135978
v 0.53863247 -0.39864533 0.74527925
v 0.55839894 -0.30120298 0.87135978
v 0.52164308 0.43349746 0.82098435
v 0.51109009 0.43600242 0.74527925
v 0.55271405 0.40744603 0.87135978
v 0.51847391 0.43207798 0.74527925
v 0.59456669 -0.35247084 0.74527925
v 0.55970579 -0.30011750 0.87135978
v 0.56437789 0.38957743 0.87135978
v 0.60861559 0.31476304 0.80371524
v 0.60685129 0.31259209 0.79148244
v 0.72035334 0.11152850 0.74527925
v 0.72705106 -0.22705659 0.74527925
v 0.72675700 -0.22638862 0.74678521
v 0.56829853 -0.29118319 0.87135978
v 0.72303241 -0.22129522 0.75830206
v 0.58345823 0.35642865 0.87135978
v 0.62207637 0.29413899 0.83040274
v 0.62207637 0.29413899 0.82768708
v 0.61792706 0.30081885 0.82155217
v 0.61648950 0.30223834 0.80371524
v 0.72496006 0.10409716 0.74527925
v 0.72790055 -0.22513614 0.74527925
v 0.72607092 -0.20977247 0.76147443
v 0.65981239 -0.18171709 0.87135978
v 0.66833975 -0.16409898 0.87135978
v 0.66151131 -0.17854416 0.87135978
v 0.66017178 -0.18121610 0.87135978
v 0.59335782 0.33881052 0.87135978
v 0.64066667 0.26124072 0.83239010
v 0.64063398 0.26124072 0.82098435
v 0.72283637 0.11511891 0.76917703
v 0.72567884 0.10251070 0.74527925
v 0.73090632 -0.21578434 0.74527925
v 0.73155977 -0.20985597 0.74527925
v 0.73267062 -0.19908471 0.74527925
v 0.72659366 -0.19858372 0.76300508
v 0.71682473 -0.14681486 0.80371524
v 0.71107451 -0.14681486 0.81530615
v 0.70927757 -0.15741913 0.81347926
v 0.67134551 -0.14547889 0.87135978
v 0.65010884 0.21848966 0.87135978
v 0.65638185 0.22450151 0.86413861
v 0.65723129 0.22558698 0.85262174
v 0.72646295 0.10635161 0.78087904
v 0.72649564 0.10643511 0.76917703
v 0.72809654 0.09649883 0.75095744
v 0.72786786 0.09499586 0.74527925
v 0.73071028 0.07771173 0.74527925
v 0.73061226 0.07771173 0.75189558
v 0.72956678 0.09499586 0.76917703
v 0.72963211 0.07771173 0.76917703
v 0.72780253 0.09507935 0.78656958
v 0.72643026 0.08288862 0.79761736
v 0.72352251 0.07729424 0.80351773
v 0.71434170 0.07879721 0.82247797
v 0.70960427 0.06468602 0.83124213
v 0.69385644 0.04314349 0.84972094
v 0.67141090 -0.14222246 0.87135978
v 0.65533632 0.20629892 0.87135978
v 0.65775402 0.21297878 0.86637285
v 0.72643026 0.08931798 0.79761736
v 0.72450265 0.10084073 0.79239590
v 0.70960427 0.07378732 0.83124213
v 0.66474581 0.16404885 0.87135978
v 0.66987532 0.13098357 0.87135978
v 0.67177028 0.04314349 0.87135978
v 0.66771899 0.14826769 0.87135978
v 0.66798036 0.14676473 0.87135978
f 1 2 3
f 1 3 7
f 1 7 15
f 1 15 16
f 1 16 8
f 1 8 4
f 1 4 2
f 2 4 5
f 2 5 3
f 3 6 7
f 3 5 6
f 4 8 17
f 4 17 25
f 4 25 33
f 4 33 38
f 4 38 40
f 4 40 46
f 4 46 56
f 4 56 67
f 4 67 82
f 4 82 83
f 4 83 70
f 4 70 69
f 4 69 68
f 4 68 57
f 4 57 47
f 4 47 41
f 4 41 35
f 4 35 26
f 4 26 19
f 4 19 12
f 4 12 11
f 4 11 10
f 4 10 9
f 4 9 5
f 5 9 6
f 6 9 7
f 7 9 10
f 7 10 11
f 7 11 12
f 7 12 13
f 7 13 14
f 7 14 21
f 7 21 20
f 7 20 30
f 7 30 29
f 7 29 28
f 7 28 27
f 7 27 36
f 7 36 42
f 7 42 49
f 7 49 59
f 7 59 62
f 7 62 61
f 7 61 60
f 7 60 75
f 7 75 93
f 7 93 101
f 7 101 100
f 7 100 103
f 7 103 102
f 7 102 99
f 7 99 94
f 7 94 76
f 7 76 63
f 7 63 51
f 7 51 43
f 7 43 39
f 7 39 34
f 7 34 31
f 7 31 22
f 7 22 15
f 8 16 17
f 12 18 13
f 12 19 20
f 12 20 18
f 13 18 14
f 14 18 21
f 15 22 23
f 15 23 24
f 15 24 16
f 16 24 25
f 16 25 17
f 18 20 21
f 19 26 27
f 19 27 28
f 19 28 29
f 19 29 30
f 19 30 20
f 22 31 23
f 23 31 24
f 24 32 33
f 24 33 25
f 24 31 34
f 24 34 32
f 26 35 27
f 27 35 36
f 32 37 33
f 32 34 37
f 33 37 38
f 34 39 40
f 34 40 37
f 35 41 36
f 36 41 42
f 37 40 38
f 39 43 44
f 39 44 40
f 40 44 45
f 40 45 46
f 41 47 48
f 41 48 42
f 42 48 50
f 42 50 49
f 43 51 52
f 43 52 53
f 43 53 54
f 43 54 55
f 43 55 44
f 44 55 45
f 45 55 46
f 46 55 56
f 47 57 48
f 48 57 58
f 48 58 50
f 49 50 59
f 50 58 60
f 50 60 61
f 50 61 62
f 50 62 59
f 51 63 64
f 51 64 52
f 52 64 53
f 53 64 65
f 53 65 66
f 53 66 55
f 53 55 54
f 55 66 56
f 56 66 67
f 57 68 58
f 58 68 69
f 58 69 70
f 58 70 71
f 58 71 72
f 58 72 73
f 58 73 74
f 58 74 60
f 60 74 73
f 60 73 75
f 63 76 77
f 63 77 64
f 64 77 78
f 64 78 79
f 64 79 66
f 64 66 65
f 66 79 80
f 66 80 67
f 67 80 81
f 67 81 82
f 70 72 71
f 70 83 84
f 70 84 85
f 70 85 86
f 70 86 87
f 70 87 88
f 70 88 72
f 72 88 89
f 72 89 90
f 72 90 91
f 72 91 73
f 73 91 75
f 75 91 92
f 75 92 93
f 76 94 77
f 77 94 95
f 77 95 96
f 77 96 97
f 77 97 79
f 77 79 78
f 79 97 96
f 79 96 87
f 79 87 85
f 79 85 80
f 80 85 81
f 81 85 83
f 81 83 82
f 83 85 84
f 85 87 86
f 87 96 88
f 88 96 90
f 88 90 89
f 90 98 91
f 90 96 95
f 90 95 99
f 90 99 98
f 91 98 92
f 92 98 100
f 92 100 101
f 92 101 93
f 94 99 95
f 98 99 102
f 98 102 103
f 98 103 100

