# https://github.com/mikedh/trimesh
v 0.08087050 0.07775800 1.14782022
v 0.07773155 0.07775800 1.14764862
v -0.03876091 0.04320694 1.14192858
v -0.03876091 0.02875954 1.14198577
v -0.03876091 0.02637436 1.14192858
v -0.03876091 0.01717437 1.14072737
v 0.08087050 0.06283358 1.14558939
v 0.08087050 0.29992072 1.13712376
v -0.03876091 0.04647804 1.14181419
v 0.08087050 0.05928987 1.14496019
v -0.03876091 -0.02146558 1.13037414
v 0.08087050 0.35409841 1.12917294
v 0.07773155 0.35409841 1.12911569
v -0.03876091 0.31954737 1.12562651
v -0.03876091 0.30223777 1.12722809
v -0.03876091 0.28942591 1.12808612
v -0.03876091 0.18134308 1.13483573
v 0.08087050 0.05458767 1.14278656
v -0.03876091 -0.02548632 1.12928733
v -0.03876091 -0.03952482 1.12505451
v -0.03876091 -0.09499736 1.10160235
v -0.03876091 -0.11046696 1.09490993
v 0.08087050 0.36759173 1.12614126
v 0.07773155 0.36759173 1.12614126
v 0.06045563 0.35409841 1.12785729
v -0.03876091 0.33099623 1.12396768
v 0.08087050 -0.14794842 1.03513563
v -0.03876091 -0.12048474 1.08764550
v 0.07773155 -0.15053804 1.03422040
v 0.08087050 0.36915917 1.12459689
v 0.08087050 0.37651915 1.11493006
v 0.07763785 0.37658731 1.11430085
v 0.06045563 0.36547916 1.12516890
v -0.03876091 0.33317696 1.12328130
v 0.07173476 -0.19210836 1.00407588
v 0.08087050 -0.15006099 1.03341962
v -0.03876091 -0.22536464 0.98554299
v 0.08087050 0.37890431 1.11086882
v -0.03876091 0.43839763 0.95917363
v -0.03876091 0.43287763 0.96884050
v -0.03876091 0.35028213 1.11229880
v 0.04919992 0.36370734 1.12402489
v -0.03876091 0.33965105 1.12093608
v 0.08087050 -0.19033651 0.99583902
v 0.08087050 -0.18781502 0.99921382
v 0.08087050 -0.16007878 1.02495398
v -0.03305693 -0.22488756 0.98525696
v 0.06045563 -0.20907723 0.98708736
v 0.06952110 -0.20764611 0.98560018
v 0.07638462 -0.19721946 0.99177779
v -0.03876091 -0.23054388 0.97982294
v 0.08087050 0.42517690 0.97644813
v 0.05544268 0.43260504 0.96946970
v 0.04317970 0.43349092 0.97147169
v 0.02590377 0.43989686 0.95917363
v 0.02590377 0.43458129 0.97375970
v 0.00863955 0.44153241 0.95917363
v -0.00863638 0.44112354 0.95917363
v -0.03876091 0.44419021 0.94189914
v 0.08087050 -0.19299429 0.99206379
v -0.03876091 -0.23401941 0.97570451
v 0.03807305 -0.22529648 0.96895489
v 0.04958643 -0.22406979 0.96649527
v 0.06203681 -0.22243424 0.96008884
v 0.06885349 -0.22447870 0.95019319
v 0.08087050 -0.21970832 0.94533115
v 0.08087050 -0.21350686 0.95860162
v 0.08087050 -0.19456168 0.98960419
v 0.08087050 0.42981096 0.95945963
v 0.06695606 0.43137835 0.96552286
v 0.08087050 0.43873833 0.92462464
v 0.02590377 0.44446281 0.94189914
v 0.00863955 0.44603020 0.94189914
v -0.00863638 0.44609836 0.94189914
v -0.02590059 0.44514426 0.94189914
v -0.01764328 0.44916497 0.91638780
v -0.03876091 0.44473540 0.93749472
v -0.03876091 -0.24097053 0.95957402
v 0.04356621 -0.22761348 0.96008884
v 0.05732839 -0.22618241 0.95494082
v 0.06203681 -0.22809056 0.94344355
v 0.07179332 -0.22584166 0.93869592
v 0.08087050 -0.22066242 0.94315754
v 0.08087050 0.43928351 0.92147862
v 0.02590377 0.44671165 0.92462464
v 0.00738632 0.44834720 0.92308024
v -0.00863638 0.44827909 0.92519666
v -0.00863638 0.44916497 0.91655941
v -0.00863638 0.44943757 0.90735016
v -0.02440139 0.44936946 0.90643496
v -0.03565710 0.44930130 0.90008573
v -0.03876091 0.44834720 0.90317453
v -0.03876091 -0.24110680 0.95917363
v 0.04317970 -0.23224759 0.94189914
v 0.06201339 -0.22802239 0.92308024
v 0.07179332 -0.22584166 0.92782787
v 0.08087050 -0.22113944 0.92336624
v 0.08087050 0.44098722 0.90735016
v 0.01002163 0.44841536 0.90735016
v 0.00138952 0.44923314 0.90735016
v 0.00078047 0.44909687 0.91633061
v 0.08087050 0.44112354 0.90420413
v 0.00106157 0.44923314 0.89808372
v -0.00863638 0.44936946 0.89739732
v -0.02590059 0.44936946 0.89688250
v -0.03565710 0.44930130 0.89734010
v -0.03876091 0.44834720 0.89425129
v -0.03876091 -0.24676311 0.90735016
v 0.04317970 -0.23170241 0.92462464
v 0.08087050 -0.20376169 0.56346198
v 0.08087050 0.44112354 0.85558390
v 0.08087050 0.44098722 0.83830941
v 0.06045563 0.44139614 0.83830941
v 0.06045563 0.43914724 0.82103492
v 0.07773155 0.40548208 0.56346198
v 0.07613866 0.40548208 0.56346198
v -0.03876091 0.40309692 0.56346198
v -0.03876091 -0.24567275 0.89007567
v 0.08087050 0.40520949 0.56346198
v 0.04328511 -0.20996317 0.56346198
v 0.08058940 0.40527765 0.56346198
v -0.03876091 -0.20314835 0.56346198
v 0.01023245 -0.21302981 0.56346198
v 0.02590377 -0.21275722 0.56346198
v 0.02761379 -0.21248463 0.56346198
v -0.03876091 -0.24260608 0.86158993
v 0.00863955 -0.21296168 0.56346198
v -0.00997160 -0.20982687 0.56346198
v -0.00966707 -0.20989501 0.56346198
f 1 2 3
f 1 3 4
f 1 4 5
f 1 5 6
f 1 6 7
f 1 7 10
f 1 10 18
f 1 18 27
f 1 27 36
f 1 36 46
f 1 46 45
f 1 45 44
f 1 44 60
f 1 60 68
f 1 68 67
f 1 67 66
f 1 66 83
f 1 83 97
f 1 97 110
f 1 110 119
f 1 119 112
f 1 112 111
f 1 111 102
f 1 102 98
f 1 98 84
f 1 84 71
f 1 71 69
f 1 69 52
f 1 52 38
f 1 38 31
f 1 31 30
f 1 30 23
f 1 23 12
f 1 12 8
f 1 8 2
f 2 9 3
f 2 8 9
f 3 9 17
f 3 17 16
f 3 16 15
f 3 15 14
f 3 14 26
f 3 26 34
f 3 34 43
f 3 43 41
f 3 41 40
f 3 40 39
f 3 39 59
f 3 59 77
f 3 77 92
f 3 92 107
f 3 107 117
f 3 117 122
f 3 122 126
f 3 126 118
f 3 118 108
f 3 108 93
f 3 93 78
f 3 78 61
f 3 61 51
f 3 51 37
f 3 37 28
f 3 28 22
f 3 22 21
f 3 21 20
f 3 20 19
f 3 19 11
f 3 11 6
f 3 6 5
f 3 5 4
f 6 10 7
f 6 11 10
f 8 12 13
f 8 13 14
f 8 14 15
f 8 15 16
f 8 16 17
f 8 17 9
f 10 11 19
f 10 19 20
f 10 20 21
f 10 21 22
f 10 22 18
f 12 23 24
f 12 24 13
f 13 24 25
f 13 25 14
f 14 25 26
f 18 22 27
f 22 28 29
f 22 29 27
f 23 30 24
f 24 30 31
f 24 31 32
f 24 32 33
f 24 33 25
f 25 33 26
f 26 33 34
f 27 29 35
f 27 35 36
f 28 35 29
f 28 37 35
f 31 38 32
f 32 38 39
f 32 39 40
f 32 40 41
f 32 41 42
f 32 42 33
f 33 42 43
f 33 43 34
f 35 44 45
f 35 45 46
f 35 46 36
f 35 37 47
f 35 47 48
f 35 48 49
f 35 49 50
f 35 50 44
f 37 51 47
f 38 52 53
f 38 53 54
f 38 54 55
f 38 55 56
f 38 56 57
f 38 57 58
f 38 58 39
f 39 58 59
f 41 43 42
f 44 50 60
f 47 51 48
f 48 51 61
f 48 61 62
f 48 62 63
f 48 63 49
f 49 63 64
f 49 64 65
f 49 65 66
f 49 66 67
f 49 67 68
f 49 68 60
f 49 60 50
f 52 69 70
f 52 70 53
f 53 70 71
f 53 71 72
f 53 72 55
f 53 55 54
f 55 72 57
f 55 57 56
f 57 72 73
f 57 73 74
f 57 74 58
f 58 74 75
f 58 75 59
f 59 75 76
f 59 76 77
f 61 78 62
f 62 78 79
f 62 79 63
f 63 79 80
f 63 80 65
f 63 65 64
f 65 80 81
f 65 81 82
f 65 82 83
f 65 83 66
f 69 71 70
f 71 84 72
f 72 85 73
f 72 84 85
f 73 85 86
f 73 86 87
f 73 87 74
f 74 87 76
f 74 76 75
f 76 87 88
f 76 88 89
f 76 89 90
f 76 90 91
f 76 91 77
f 77 91 92
f 78 93 79
f 79 93 94
f 79 94 80
f 80 94 81
f 81 95 96
f 81 96 82
f 81 94 95
f 82 96 97
f 82 97 83
f 84 98 85
f 85 99 100
f 85 100 101
f 85 101 86
f 85 98 102
f 85 102 99
f 86 101 88
f 86 88 87
f 88 101 89
f 89 101 100
f 89 100 103
f 89 103 104
f 89 104 105
f 89 105 90
f 90 105 91
f 91 105 106
f 91 106 107
f 91 107 92
f 93 108 94
f 94 108 109
f 94 109 95
f 95 109 108
f 95 108 110
f 95 110 96
f 96 110 97
f 99 103 100
f 99 102 111
f 99 111 103
f 103 111 112
f 103 112 104
f 104 112 113
f 104 113 114
f 104 114 105
f 105 114 115
f 105 115 116
f 105 116 106
f 106 116 117
f 106 117 107
f 108 118 110
f 110 118 120
f 110 120 125
f 110 125 124
f 110 124 123
f 110 123 127
f 110 127 129
f 110 129 128
f 110 128 122
f 110 122 117
f 110 117 116
f 110 116 115
f 110 115 121
f 110 121 119
f 112 119 121
f 112 121 115
f 112 115 113
f 113 115 114
f 118 123 124
f 118 124 125
f 118 125 120
f 118 126 127
f 118 127 123
f 122 128 126
f 126 128 129
f 126 129 127

