# https://github.com/mikedh/trimesh
v 0.65081913 -0.46338361 0.57915942
v 0.65081913 -0.46012378 0.56188201
v 0.66506715 -0.45960223 0.56188201
v 0.66506715 -0.46188407 0.57915942
v 0.65081913 -0.45601637 0.59744949
v 0.65081913 -0.45653798 0.54460462
v 0.66506715 -0.45399523 0.53369257
v 0.66506715 -0.45621195 0.54460462
v 0.67750181 -0.45125696 0.53369257
v 0.67959416 -0.45230017 0.54460462
v 0.68365935 -0.45314770 0.56225400
v 0.68353976 -0.45366925 0.57849808
v 0.67857787 -0.45269132 0.59113580
v 0.66506715 -0.45542959 0.59428747
v 0.65081913 -0.44949667 0.60559218
v 0.65081913 -0.45432121 0.53551125
v 0.65081913 -0.45386488 0.53369257
v 0.69029514 -0.44838833 0.55674632
v 0.74391958 -0.38090947 0.53369257
v 0.69123174 -0.44936627 0.56826803
v 0.69123174 -0.44936627 0.57229805
v 0.69009586 -0.44806236 0.58381976
v 0.65803279 -0.41592024 0.63924797
v 0.65596038 -0.41755018 0.63924797
v 0.65081913 -0.42139678 0.63924797
v 0.77418915 -0.32523128 0.63682996
v 0.77297358 -0.32386215 0.63924797
v 0.65081913 0.20266838 0.53369257
v 0.76099726 -0.36376268 0.58347875
v 0.78208036 -0.31538655 0.53369257
v 0.79481392 -0.31127914 0.55249932
v 0.79545162 -0.31238750 0.56188201
v 0.76099726 -0.36376268 0.59039178
v 0.77857317 -0.33070783 0.62530825
v 0.65081913 0.14770737 0.63924797
v 0.77602249 -0.32047192 0.63924797
v 0.65081913 0.16863559 0.63922731
v 0.71392893 0.16648408 0.53369257
v 0.79553131 -0.31251788 0.57367239
v 0.81478112 -0.25592693 0.53369257
v 0.82147669 -0.24099683 0.53369257
v 0.80728843 -0.28500477 0.57915942
v 0.77935032 -0.33188139 0.61369355
v 0.78620532 -0.31955916 0.61369355
v 0.78889551 -0.30228197 0.63097095
v 0.78584666 -0.30247757 0.63924797
v 0.77941009 -0.31545175 0.63924797
v 0.65681722 0.16381100 0.63924797
v 0.69453965 0.14073129 0.63924797
v 0.72739980 0.15735650 0.53369257
v 0.82817230 -0.21628720 0.53369257
v 0.82976646 -0.21035427 0.53369257
v 0.81155291 -0.26772758 0.57915942
v 0.80308377 -0.28500477 0.59641615
v 0.79154586 -0.28493957 0.63924797
v 0.69868454 0.13734106 0.63924797
v 0.83277547 0.03954563 0.53369257
v 0.70318809 0.13297285 0.63924797
v 0.83040416 0.03556861 0.57151272
v 0.83221752 0.03713334 0.56188201
v 0.83319396 0.03876327 0.54460462
v 0.82944764 -0.20826796 0.53680291
v 0.84827892 -0.08517613 0.53369257
v 0.80683009 -0.26772758 0.59641615
v 0.85393832 -0.04325449 0.53369257
v 0.79250237 -0.14678725 0.63924797
v 0.84913582 -0.02591210 0.55756266
v 0.83542582 0.03485145 0.53369257
v 0.71044166 0.12436685 0.63924797
v 0.75290676 0.04293588 0.63924797
v 0.75539767 0.03426468 0.63924797
v 0.77171817 -0.02604250 0.63924797
v 0.79039006 -0.12957525 0.63924797
v 0.83432984 -0.00870012 0.57505706
v 0.84297828 -0.00870012 0.56565368
v 0.84855794 -0.00870012 0.55701499
v 0.84734237 0.00264415 0.55486564
v 0.84036778 0.02585427 0.54460462
v 0.85437668 -0.02591210 0.53369257
v 0.85242385 -0.02591210 0.54460462
v 0.84000912 0.02585427 0.53369257
v 0.85114846 -0.00870012 0.54460462
v 0.85300173 -0.00870012 0.53369257
v 0.84825904 0.00466526 0.54460462
v 0.84813945 0.00864228 0.53369257
v 0.84933510 0.00544763 0.53369257
f 1 2 3
f 1 3 4
f 1 4 5
f 1 5 15
f 1 15 25
f 1 25 35
f 1 35 37
f 1 37 28
f 1 28 17
f 1 17 16
f 1 16 6
f 1 6 2
f 2 6 7
f 2 7 8
f 2 8 3
f 3 8 9
f 3 9 10
f 3 10 4
f 4 10 11
f 4 11 12
f 4 12 13
f 4 13 14
f 4 14 5
f 5 14 15
f 6 16 7
f 7 16 17
f 7 17 28
f 7 28 38
f 7 38 50
f 7 50 57
f 7 57 68
f 7 68 81
f 7 81 85
f 7 85 86
f 7 86 83
f 7 83 79
f 7 79 65
f 7 65 63
f 7 63 52
f 7 52 51
f 7 51 41
f 7 41 40
f 7 40 30
f 7 30 19
f 7 19 9
f 7 9 8
f 9 18 10
f 9 19 18
f 10 18 11
f 11 18 20
f 11 20 12
f 12 20 21
f 12 21 22
f 12 22 13
f 13 23 24
f 13 24 25
f 13 25 14
f 13 22 26
f 13 26 27
f 13 27 23
f 14 25 15
f 18 19 20
f 19 29 20
f 19 30 31
f 19 31 32
f 19 32 29
f 20 29 33
f 20 33 21
f 21 33 22
f 22 33 34
f 22 34 26
f 23 27 36
f 23 36 47
f 23 47 46
f 23 46 55
f 23 55 66
f 23 66 73
f 23 73 72
f 23 72 71
f 23 71 70
f 23 70 69
f 23 69 58
f 23 58 56
f 23 56 49
f 23 49 48
f 23 48 35
f 23 35 25
f 23 25 24
f 26 34 36
f 26 36 27
f 28 37 38
f 29 32 39
f 29 39 33
f 30 40 31
f 31 40 41
f 31 41 32
f 32 41 42
f 32 42 39
f 33 39 43
f 33 43 34
f 34 43 39
f 34 39 44
f 34 44 45
f 34 45 46
f 34 46 47
f 34 47 36
f 35 48 37
f 37 48 49
f 37 49 38
f 38 49 50
f 39 42 44
f 41 51 42
f 42 51 52
f 42 52 53
f 42 53 54
f 42 54 45
f 42 45 44
f 45 54 55
f 45 55 46
f 49 56 50
f 50 56 58
f 50 58 59
f 50 59 60
f 50 60 61
f 50 61 57
f 52 62 53
f 52 63 62
f 53 64 55
f 53 55 54
f 53 62 63
f 53 63 65
f 53 65 64
f 55 64 67
f 55 67 66
f 57 61 68
f 58 69 59
f 59 70 71
f 59 71 72
f 59 72 73
f 59 73 74
f 59 74 75
f 59 75 76
f 59 76 77
f 59 77 60
f 59 69 70
f 60 77 78
f 60 78 61
f 61 78 68
f 64 65 67
f 65 79 80
f 65 80 67
f 66 67 75
f 66 75 73
f 67 80 76
f 67 76 75
f 68 78 81
f 73 75 74
f 76 80 82
f 76 82 77
f 77 82 83
f 77 83 84
f 77 84 78
f 78 85 81
f 78 84 86
f 78 86 85
f 79 83 82
f 79 82 80
f 83 86 84

