# https://github.com/mikedh/trimesh
v 0.39838904 -0.32994511 0.53369257
v 0.45428249 -0.44069481 0.53369257
v 0.39838904 -0.31057802 0.63924797
v 0.39838904 0.44060178 0.53369257
v 0.46218966 -0.45611326 0.53369257
v 0.46483357 -0.45141248 0.55845133
v 0.46671154 -0.44859204 0.56996272
v 0.48321763 -0.44953219 0.60595385
v 0.47956057 -0.44031869 0.61250521
v 0.48156210 -0.43448981 0.62585592
v 0.48230338 -0.42527631 0.63924797
v 0.39838904 0.45282373 0.63924797
v 0.39838904 0.45122550 0.61369355
v 0.40595023 0.45564422 0.63097095
v 0.40595023 0.45329380 0.61369355
v 0.42322235 0.45912273 0.63924797
v 0.42322235 0.45780652 0.63097095
v 0.44148288 0.44295220 0.53369257
v 0.47098632 -0.46372848 0.53369257
v 0.47540936 -0.46730105 0.53369257
v 0.50130516 -0.46607884 0.60329818
v 0.51099141 -0.45601920 0.63924797
v 0.49767282 -0.44332724 0.63924797
v 0.51632870 -0.46786513 0.62519459
v 0.49394168 -0.43919054 0.63924797
v 0.48561448 -0.42950699 0.63924797
v 0.40595023 0.45592623 0.63924797
v 0.39838904 0.45291778 0.63600330
v 0.39838904 0.45301179 0.63097095
v 0.44051916 0.45940480 0.63924797
v 0.45680290 0.44361028 0.53369257
v 0.49129772 -0.47698457 0.53369257
v 0.52515011 -0.48958258 0.58081275
v 0.51828075 -0.48356564 0.58767411
v 0.51274577 -0.47021549 0.61369355
v 0.52265442 -0.46429255 0.63924797
v 0.52707746 -0.46683093 0.63924797
v 0.52977079 -0.48723222 0.59338847
v 0.45727240 0.45592623 0.63924797
v 0.47246887 0.43712327 0.53369257
v 0.49611613 -0.47989901 0.53369257
v 0.51101612 -0.48798430 0.53369257
v 0.52685506 -0.49277909 0.56188201
v 0.54578271 -0.49860802 0.57746474
v 0.53105570 -0.46833520 0.63924797
v 0.55156479 -0.48422372 0.62373758
v 0.46755166 0.44990929 0.63924797
v 0.48109260 0.42856790 0.53369257
v 0.47681782 0.44182399 0.63924797
v 0.51516734 -0.49005265 0.53369257
v 0.54578271 -0.49964217 0.56354568
v 0.55267673 -0.50086438 0.57057238
v 0.54454727 -0.47341200 0.63924797
v 0.55630907 -0.48422372 0.62373758
v 0.56157228 -0.47472821 0.63924797
v 0.49255792 0.42377312 0.63924797
v 0.64081648 0.22709373 0.53369257
v 0.52744807 -0.49456537 0.53369257
v 0.55267673 -0.50086438 0.57040705
v 0.53453978 -0.49682173 0.53369257
v 0.54412718 -0.49851401 0.53369257
v 0.55277557 -0.50086438 0.57057238
v 0.56782382 -0.48318957 0.61924256
v 0.56179463 -0.48008707 0.63008228
v 0.57076431 -0.47181377 0.63924797
v 0.50676605 0.40487610 0.63924797
v 0.64054466 0.22662366 0.53948960
v 0.65079920 0.20264984 0.53369257
v 0.55277557 -0.50086438 0.57040705
v 0.56117691 -0.49776188 0.53369257
v 0.65079920 -0.46335241 0.57915942
v 0.57538504 -0.46983942 0.63924797
v 0.65079920 -0.45601920 0.59744949
v 0.58652912 0.27447730 0.63924797
v 0.65079920 0.16861642 0.63922731
v 0.65079920 -0.45385690 0.53369257
v 0.65079920 -0.45432697 0.53551125
v 0.65079920 -0.45648933 0.54460462
v 0.65079920 -0.46006185 0.56188201
v 0.62858511 -0.43778032 0.63924797
v 0.65079920 -0.44953219 0.60559218
v 0.65077449 0.16861642 0.63924797
v 0.65079920 0.14765106 0.63924797
v 0.64780934 -0.42367806 0.63924797
v 0.65079920 -0.42142170 0.63924797
f 1 2 3
f 1 3 12
f 1 12 28
f 1 28 29
f 1 29 13
f 1 13 4
f 1 4 18
f 1 18 31
f 1 31 40
f 1 40 48
f 1 48 57
f 1 57 68
f 1 68 76
f 1 76 70
f 1 70 61
f 1 61 60
f 1 60 58
f 1 58 50
f 1 50 42
f 1 42 41
f 1 41 32
f 1 32 20
f 1 20 19
f 1 19 5
f 1 5 2
f 2 5 3
f 3 5 6
f 3 6 7
f 3 7 8
f 3 8 9
f 3 9 10
f 3 10 11
f 3 11 26
f 3 26 25
f 3 25 23
f 3 23 22
f 3 22 36
f 3 36 37
f 3 37 45
f 3 45 53
f 3 53 55
f 3 55 65
f 3 65 72
f 3 72 80
f 3 80 84
f 3 84 85
f 3 85 83
f 3 83 82
f 3 82 74
f 3 74 66
f 3 66 56
f 3 56 49
f 3 49 47
f 3 47 39
f 3 39 30
f 3 30 16
f 3 16 27
f 3 27 12
f 4 13 14
f 4 14 15
f 4 15 16
f 4 16 17
f 4 17 18
f 5 19 6
f 6 19 20
f 6 20 21
f 6 21 8
f 6 8 7
f 8 22 23
f 8 23 10
f 8 10 9
f 8 21 24
f 8 24 22
f 10 23 25
f 10 25 26
f 10 26 11
f 12 27 28
f 13 29 14
f 14 29 27
f 14 27 16
f 14 16 15
f 16 30 31
f 16 31 17
f 17 31 18
f 20 32 33
f 20 33 34
f 20 34 21
f 21 34 35
f 21 35 24
f 22 24 36
f 24 37 36
f 24 35 34
f 24 34 38
f 24 38 37
f 27 29 28
f 30 39 31
f 31 39 40
f 32 41 33
f 33 38 34
f 33 41 42
f 33 42 43
f 33 43 44
f 33 44 38
f 37 38 46
f 37 46 45
f 38 44 46
f 39 47 40
f 40 47 49
f 40 49 48
f 42 50 43
f 43 50 51
f 43 51 44
f 44 51 52
f 44 52 46
f 45 46 53
f 46 52 62
f 46 62 54
f 46 54 55
f 46 55 53
f 48 49 56
f 48 56 57
f 50 58 51
f 51 59 52
f 51 58 60
f 51 60 61
f 51 61 59
f 52 59 69
f 52 69 62
f 54 63 64
f 54 64 55
f 54 62 63
f 55 64 65
f 56 66 57
f 57 67 68
f 57 66 67
f 59 61 69
f 61 70 69
f 62 69 70
f 62 70 71
f 62 71 63
f 63 72 65
f 63 65 64
f 63 71 73
f 63 73 72
f 66 74 67
f 67 74 75
f 67 75 68
f 68 75 83
f 68 83 85
f 68 85 81
f 68 81 73
f 68 73 71
f 68 71 79
f 68 79 78
f 68 78 77
f 68 77 76
f 70 76 77
f 70 77 78
f 70 78 79
f 70 79 71
f 72 73 80
f 73 81 80
f 74 82 75
f 75 82 83
f 80 81 84
f 81 85 84

