# https://github.com/mikedh/trimesh
v 0.38092613 -0.49819875 0.40117811
v 0.38393431 -0.49916304 0.40117811
v 0.39295885 -0.50176663 0.40641901
v 0.38431630 -0.49877734 0.40641901
v 0.38092613 -0.49810232 0.40191754
v 0.38092613 0.43427127 0.40117811
v 0.39257686 -0.50186306 0.40117811
v 0.54417975 -0.51015597 0.49277718
v 0.39711303 -0.50099519 0.41522738
v 0.38092613 -0.49723446 0.40641901
v 0.38092613 -0.49752373 0.40504392
v 0.38092613 0.44931427 0.44915055
v 0.41091245 0.46194646 0.40117811
v 0.40069420 -0.50205591 0.40117811
v 0.54417975 -0.51025240 0.47549777
v 0.56141712 -0.50890236 0.47549777
v 0.56141712 -0.50793807 0.49277718
v 0.56108290 -0.50359879 0.51084792
v 0.56122612 -0.49781305 0.53369255
v 0.54417975 -0.50572022 0.51004362
v 0.52789740 -0.50350237 0.50978418
v 0.52689465 -0.50755237 0.49277718
v 0.53458220 -0.49684876 0.53369255
v 0.52746763 -0.49453443 0.53369255
v 0.51519617 -0.49000225 0.53369255
v 0.51104201 -0.48797725 0.53369255
v 0.49614435 -0.47987718 0.53369255
v 0.38092613 -0.48874869 0.42054611
v 0.38092613 -0.49222016 0.41481224
v 0.38092613 0.44931427 0.45038294
v 0.41783608 0.46782863 0.40117811
v 0.40532584 -0.50205591 0.40117811
v 0.54417975 -0.50668451 0.45823133
v 0.41525760 -0.50167021 0.40117811
v 0.56184688 -0.50504520 0.45775133
v 0.57225613 -0.50263450 0.46318682
v 0.57349759 -0.50350237 0.47549777
v 0.57335437 -0.50321304 0.49277718
v 0.57206513 -0.50224875 0.50561999
v 0.54417975 -0.49848802 0.53369255
v 0.67749481 -0.45123775 0.53369255
v 0.49127394 -0.47698431 0.53369255
v 0.47542130 -0.46724499 0.53369255
v 0.47098065 -0.46367710 0.53369255
v 0.46219481 -0.45615563 0.53369255
v 0.39606253 -0.45036989 0.46819423
v 0.38092613 -0.32105837 0.53369255
v 0.42361368 0.47062507 0.40117811
v 0.38092613 0.44140705 0.53369255
v 0.41597386 -0.50157379 0.40117811
v 0.55635577 -0.50253808 0.44772356
v 0.56786326 -0.49945231 0.45166722
v 0.63929568 -0.44930912 0.44935811
v 0.69162850 -0.43262692 0.50030125
v 0.67434335 -0.44959844 0.51776229
v 0.67625335 -0.45065916 0.52732305
v 0.74386583 -0.38084445 0.53319960
v 0.74386583 -0.38084445 0.53369255
v 0.42757684 0.47207154 0.40117811
v 0.45679919 0.44362490 0.53369255
v 0.44911164 0.44912137 0.51869630
v 0.44037357 0.47486798 0.40117811
v 0.55525752 -0.48508438 0.43122251
v 0.49967774 -0.46608785 0.40117811
v 0.56156039 -0.49231658 0.44095191
v 0.70485494 -0.34892640 0.40117811
v 0.72911138 -0.33118344 0.40117811
v 0.73756296 -0.32298695 0.40117811
v 0.73909097 -0.32433696 0.40641901
v 0.74501180 -0.31421189 0.40117811
v 0.74591905 -0.31575477 0.40641901
v 0.74434332 -0.36483722 0.49884832
v 0.77810181 -0.27727951 0.41304799
v 0.77962976 -0.27969027 0.42368547
v 0.84370885 -0.18248965 0.42289412
v 0.84786305 -0.17747534 0.42812208
v 0.86213996 -0.15221090 0.42368547
v 0.82623276 -0.23571854 0.51004362
v 0.78206502 -0.31536905 0.53369255
v 0.46071463 0.44854283 0.51458402
v 0.44920709 0.44912137 0.51869630
v 0.47246083 0.43716419 0.53369255
v 0.44629445 0.47361442 0.40117811
v 0.67754254 -0.36531936 0.40117811
v 0.68661487 -0.35991932 0.40117811
v 0.77466391 -0.27390450 0.40117811
v 0.77480713 -0.27409737 0.40152837
v 0.78034602 -0.26580446 0.40117811
v 0.85602809 -0.14623229 0.40117811
v 0.85884528 -0.14613586 0.40682116
v 0.86438422 -0.13996439 0.41285338
v 0.86548241 -0.14353226 0.42368547
v 0.86572108 -0.14420727 0.44096488
v 0.86237873 -0.15278947 0.44096488
v 0.82986170 -0.22742563 0.52078489
v 0.81744696 -0.25153293 0.52779006
v 0.81477304 -0.25596868 0.53369255
v 0.46682645 0.44921779 0.50306441
v 0.48110341 0.42848553 0.53369255
v 0.48606931 0.43465702 0.50695617
v 0.47523030 0.44159990 0.51077009
v 0.45565322 0.47110725 0.40117811
v 0.86237873 -0.13379293 0.40117811
v 0.86242645 -0.13388935 0.40133379
v 0.86452744 -0.12511430 0.40117811
v 0.86510043 -0.12868218 0.40682116
v 0.86801312 -0.12955005 0.42368547
v 0.86853832 -0.12955005 0.44096488
v 0.86471844 -0.14083225 0.45120021
v 0.82976615 -0.21026125 0.53369255
v 0.82656702 -0.23311497 0.52685603
v 0.86409768 -0.10409274 0.48498070
v 0.86519587 -0.09493197 0.48773087
v 0.82145784 -0.24102216 0.53369255
v 0.46744721 0.46387504 0.40117811
v 0.46157410 0.46792505 0.40117811
v 0.72734471 0.15732673 0.53369255
v 0.74458208 0.15848388 0.52091462
v 0.73952068 0.16995895 0.51004362
v 0.55520975 0.39859252 0.40117811
v 0.55482776 0.39897821 0.40117811
v 0.86462289 -0.11585710 0.40117811
v 0.86782212 -0.11219279 0.42368547
v 0.86872932 -0.07767115 0.45823133
v 0.86810856 -0.09493197 0.47549777
v 0.85898850 -0.07767115 0.51004362
v 0.85459563 -0.06041033 0.52732305
v 0.84824504 -0.08509620 0.53369255
v 0.86529142 -0.07767115 0.49036429
v 0.86089850 -0.06041033 0.51004362
v 0.83277439 0.03958672 0.53369255
v 0.74687402 0.16128033 0.51004362
v 0.74806776 0.16214818 0.49277718
v 0.56323157 0.38991388 0.40117811
v 0.56127390 0.39203533 0.40117811
v 0.86323815 -0.06041033 0.40117811
v 0.86500488 -0.06041033 0.40858543
v 0.86691482 -0.06041033 0.42368547
v 0.86672383 -0.06041033 0.44096488
v 0.86462289 -0.04777811 0.47549777
v 0.86447967 -0.04835668 0.48757519
v 0.86825188 -0.07767115 0.47549777
v 0.85631458 -0.04314951 0.52732305
v 0.85392715 -0.04314951 0.53369255
v 0.86056423 -0.04314951 0.51004362
v 0.83540054 0.03476526 0.53369255
v 0.80823141 0.09686564 0.40641901
v 0.77814958 0.12213008 0.50297360
v 0.79958883 0.10901572 0.40641901
v 0.79958883 0.10949786 0.40117811
v 0.86290394 -0.05616745 0.40117811
v 0.86280844 -0.04286022 0.40496609
v 0.86438422 -0.04854954 0.40975295
v 0.86486166 -0.04584952 0.42368547
v 0.86309493 -0.03726733 0.42368547
v 0.85407042 -0.00872429 0.52732305
v 0.85435686 -0.02588869 0.53369255
v 0.85301990 -0.00872429 0.53369255
v 0.83998446 0.02589378 0.53369255
v 0.83129416 0.05424395 0.40641901
v 0.81028462 0.09300848 0.40117811
v 0.80560521 0.10101210 0.40117811
v 0.86113721 -0.03881020 0.40117811
v 0.85812908 -0.02588869 0.40641901
v 0.83530504 0.04315460 0.40641901
v 0.84996399 0.00593294 0.52732305
v 0.84934323 0.00545079 0.53369255
v 0.84810177 0.00863295 0.53369255
v 0.83105539 0.05366538 0.40117811
v 0.85741282 -0.02588869 0.40117811
v 0.85569382 -0.02019937 0.40117811
v 0.83310861 0.04787962 0.40117811
f 1 2 3
f 1 3 4
f 1 4 5
f 1 5 11
f 1 11 10
f 1 10 29
f 1 29 28
f 1 28 47
f 1 47 49
f 1 49 30
f 1 30 12
f 1 12 6
f 1 6 13
f 1 13 31
f 1 31 48
f 1 48 59
f 1 59 62
f 1 62 83
f 1 83 102
f 1 102 116
f 1 116 115
f 1 115 121
f 1 121 120
f 1 120 135
f 1 135 134
f 1 134 150
f 1 150 162
f 1 162 161
f 1 161 169
f 1 169 172
f 1 172 171
f 1 171 170
f 1 170 163
f 1 163 151
f 1 151 136
f 1 136 122
f 1 122 105
f 1 105 103
f 1 103 89
f 1 89 88
f 1 88 86
f 1 86 70
f 1 70 68
f 1 68 67
f 1 67 66
f 1 66 85
f 1 85 84
f 1 84 64
f 1 64 50
f 1 50 34
f 1 34 32
f 1 32 14
f 1 14 7
f 1 7 2
f 2 7 3
f 3 7 8
f 3 8 9
f 3 9 4
f 4 9 10
f 4 10 11
f 4 11 5
f 6 12 13
f 7 14 15
f 7 15 8
f 8 16 17
f 8 17 18
f 8 18 19
f 8 19 20
f 8 20 21
f 8 21 22
f 8 22 9
f 8 15 16
f 9 22 21
f 9 21 23
f 9 23 24
f 9 24 25
f 9 25 26
f 9 26 27
f 9 27 28
f 9 28 29
f 9 29 10
f 12 30 31
f 12 31 13
f 14 32 15
f 15 33 16
f 15 32 34
f 15 34 33
f 16 33 35
f 16 35 36
f 16 36 37
f 16 37 38
f 16 38 17
f 17 38 39
f 17 39 18
f 18 39 19
f 19 40 20
f 19 39 41
f 19 41 58
f 19 58 79
f 19 79 97
f 19 97 114
f 19 114 110
f 19 110 128
f 19 128 144
f 19 144 157
f 19 157 158
f 19 158 167
f 19 167 168
f 19 168 159
f 19 159 146
f 19 146 131
f 19 131 117
f 19 117 99
f 19 99 82
f 19 82 60
f 19 60 49
f 19 49 47
f 19 47 45
f 19 45 44
f 19 44 43
f 19 43 42
f 19 42 27
f 19 27 26
f 19 26 25
f 19 25 24
f 19 24 23
f 19 23 40
f 20 40 21
f 21 40 23
f 27 42 28
f 28 42 43
f 28 43 44
f 28 44 45
f 28 45 46
f 28 46 47
f 30 48 31
f 30 49 48
f 33 34 35
f 34 50 51
f 34 51 35
f 35 51 52
f 35 52 36
f 36 52 53
f 36 53 54
f 36 54 55
f 36 55 56
f 36 56 41
f 36 41 37
f 37 41 38
f 38 41 39
f 41 56 54
f 41 54 57
f 41 57 58
f 45 47 46
f 48 49 59
f 49 60 61
f 49 61 62
f 49 62 59
f 50 63 51
f 50 64 63
f 51 63 65
f 51 65 52
f 52 65 53
f 53 65 66
f 53 66 67
f 53 67 54
f 54 56 55
f 54 67 68
f 54 68 69
f 54 69 70
f 54 70 71
f 54 71 72
f 54 72 57
f 57 72 73
f 57 73 74
f 57 74 75
f 57 75 76
f 57 76 77
f 57 77 78
f 57 78 79
f 57 79 58
f 60 80 81
f 60 81 61
f 60 82 80
f 61 81 62
f 62 81 80
f 62 80 83
f 63 64 84
f 63 84 85
f 63 85 66
f 63 66 65
f 68 70 69
f 70 86 87
f 70 87 73
f 70 73 71
f 71 73 72
f 73 87 88
f 73 88 75
f 73 75 74
f 75 88 89
f 75 89 90
f 75 90 77
f 75 77 76
f 77 90 91
f 77 91 92
f 77 92 93
f 77 93 94
f 77 94 78
f 78 94 95
f 78 95 96
f 78 96 79
f 79 96 97
f 80 98 83
f 80 82 98
f 82 99 100
f 82 100 101
f 82 101 98
f 83 98 102
f 86 88 87
f 89 103 104
f 89 104 90
f 90 104 91
f 91 104 105
f 91 105 106
f 91 106 107
f 91 107 92
f 92 107 108
f 92 108 93
f 93 108 109
f 93 109 95
f 93 95 94
f 95 110 111
f 95 111 96
f 95 109 112
f 95 112 113
f 95 113 110
f 96 111 97
f 97 111 114
f 98 115 116
f 98 116 102
f 98 101 100
f 98 100 115
f 99 117 118
f 99 118 119
f 99 119 100
f 100 120 121
f 100 121 115
f 100 119 120
f 103 105 104
f 105 122 107
f 105 107 106
f 107 122 123
f 107 123 124
f 107 124 108
f 108 124 125
f 108 125 109
f 109 125 112
f 110 114 111
f 110 113 126
f 110 126 127
f 110 127 128
f 112 125 113
f 113 125 129
f 113 129 130
f 113 130 126
f 117 131 118
f 118 131 132
f 118 132 119
f 119 132 133
f 119 133 134
f 119 134 135
f 119 135 120
f 122 136 137
f 122 137 123
f 123 137 138
f 123 138 124
f 124 138 139
f 124 139 140
f 124 140 141
f 124 141 142
f 124 142 125
f 125 142 129
f 126 130 127
f 127 130 143
f 127 143 144
f 127 144 128
f 129 142 145
f 129 145 130
f 130 145 143
f 131 146 147
f 131 147 148
f 131 148 132
f 132 148 149
f 132 149 133
f 133 149 134
f 134 149 150
f 136 151 152
f 136 152 153
f 136 153 137
f 137 153 138
f 138 153 154
f 138 154 140
f 138 140 139
f 140 154 155
f 140 155 156
f 140 156 141
f 141 156 145
f 141 145 142
f 143 145 157
f 143 157 144
f 145 156 158
f 145 158 157
f 146 159 160
f 146 160 147
f 147 160 161
f 147 161 162
f 147 162 150
f 147 150 149
f 147 149 148
f 151 163 152
f 152 163 164
f 152 164 155
f 152 155 153
f 153 155 154
f 155 164 165
f 155 165 166
f 155 166 156
f 156 166 167
f 156 167 158
f 159 168 166
f 159 166 160
f 160 166 165
f 160 165 169
f 160 169 161
f 163 170 164
f 164 170 171
f 164 171 165
f 165 172 169
f 165 171 172
f 166 168 167

