# https://github.com/mikedh/trimesh
v 0.08088221 -0.37189737 0.15682890
v 0.08088221 -0.31547842 0.10015731
v 0.38119725 -0.26018624 0.15682890
v 0.08088221 0.19398224 0.15682890
v 0.08088221 -0.30791296 0.09376198
v 0.38700459 -0.25785222 0.15682890
v 0.16331426 0.32001943 0.15682890
v 0.17202528 0.32927501 0.13683065
v 0.08088221 0.16363995 0.04406174
v 0.08088221 -0.29833541 0.08572724
v 0.40302858 -0.24666502 0.15682890
v 0.08088221 -0.28545806 0.07506348
v 0.37614272 -0.24054825 0.13948918
v 0.38861774 -0.23660456 0.14195574
v 0.43152759 -0.20690616 0.13882456
v 0.17025081 0.33024082 0.15682890
v 0.17396106 0.33410403 0.15682890
v 0.18847942 0.34673996 0.14728762
v 0.18928600 0.34593510 0.13734757
v 0.18208058 0.33627709 0.13132152
v 0.20713821 0.34561317 0.10389405
v 0.18638232 0.33185050 0.11652218
v 0.08179634 0.15889142 0.03220160
v 0.08088221 0.15921335 0.03425461
v 0.41206223 -0.23918005 0.15682890
v 0.08088221 -0.28248017 0.07271507
v 0.24273509 -0.22517591 0.08634759
v 0.37135702 -0.21970302 0.12412865
v 0.44034613 -0.21487403 0.15682890
v 0.38151988 -0.20827437 0.12090882
v 0.34398722 -0.17205679 0.08720423
v 0.35103133 -0.16054765 0.08429458
v 0.38103593 -0.13938048 0.08615557
v 0.56450505 -0.08167380 0.14068555
v 0.57531312 -0.09060747 0.15220596
v 0.58682030 -0.08577847 0.15645968
v 0.18810302 0.34714236 0.15682890
v 0.28790333 0.43704244 0.14728762
v 0.28892500 0.43551325 0.13002178
v 0.28032150 0.42762588 0.13002178
v 0.26004958 0.39663971 0.10541532
v 0.08088221 0.15704030 0.03125636
v 0.08088221 -0.27089055 0.06518248
v 0.24730567 -0.19338492 0.06761948
v 0.37135702 -0.21109128 0.11906261
v 0.58698159 -0.08593942 0.15682890
v 0.33769593 -0.16537666 0.08215297
v 0.33597523 -0.14606061 0.07330586
v 0.37135702 -0.14324369 0.08435363
v 0.32963018 -0.13978291 0.06902265
v 0.37135702 -0.12948101 0.08092706
v 0.49228961 -0.06042616 0.10847267
v 0.57074254 -0.07016466 0.13824854
v 0.57875452 -0.07797156 0.14684452
v 0.59117580 -0.07426932 0.15300350
v 0.60671579 -0.05946035 0.15682890
v 0.58741177 -0.08545653 0.15682890
v 0.28994664 0.43551325 0.15682890
v 0.30796017 0.44863204 0.15682890
v 0.30333581 0.44629805 0.14656390
v 0.30231414 0.44307869 0.13002178
v 0.29236637 0.43277683 0.12017033
v 0.31021858 0.43237441 0.10365776
v 0.15465702 0.22520983 0.03457951
v 0.08088221 0.14673841 0.02565858
v 0.08088221 -0.23354620 0.04543530
v 0.23321749 -0.18131240 0.05850658
v 0.25203760 -0.18292205 0.06419291
v 0.26779270 -0.16408892 0.06032324
v 0.21595677 -0.14678496 0.04177243
v 0.31957486 -0.12948101 0.06369076
v 0.25031690 -0.16320361 0.05536058
v 0.24445579 -0.15684541 0.05178630
v 0.49228961 -0.04312220 0.10631629
v 0.50955035 -0.04312220 0.11189924
v 0.57219440 -0.06042616 0.13784977
v 0.58085165 -0.06042616 0.14176376
v 0.61714753 -0.04312220 0.15682890
v 0.30973464 0.44951741 0.15682890
v 0.30973464 0.44951741 0.15185146
v 0.31957486 0.44130805 0.11274116
v 0.30360467 0.43551325 0.11374550
v 0.31597217 0.44887349 0.14033105
v 0.32086539 0.44782724 0.13160214
v 0.31957486 0.43406458 0.10225459
v 0.16412083 0.22585371 0.03437276
v 0.08088221 0.12661754 0.01605825
v 0.08088221 0.13450492 0.01932235
v 0.33688936 0.42319929 0.09281674
v 0.33688936 0.40919515 0.08794273
v 0.08088221 -0.21946157 0.03977847
v 0.21176258 -0.17511516 0.05110691
v 0.21692464 -0.16529618 0.04833018
v 0.09502419 -0.12948101 0.01081497
v 0.30231414 -0.12948101 0.05930412
v 0.23321749 -0.16022572 0.05025027
v 0.31957486 -0.11225754 0.06187405
v 0.50126948 0.03406149 0.10393838
v 0.56982844 0.30223257 0.12145529
v 0.62064273 -0.02589872 0.15682890
v 0.61741642 -0.04215640 0.15682890
v 0.31952109 0.44983932 0.15682890
v 0.33635164 0.45032227 0.15682890
v 0.32086539 0.44967834 0.14656390
v 0.33688936 0.44372261 0.11274116
v 0.33688936 0.43607666 0.10033456
v 0.32747930 0.44911499 0.13841102
v 0.33559883 0.44814915 0.13160214
v 0.17412237 0.22553177 0.03459429
v 0.35549437 0.40629775 0.08770638
v 0.08088221 0.11221098 0.01428587
v 0.35415008 0.43631810 0.10009821
v 0.35415008 0.42319929 0.09252134
v 0.08088221 -0.21664466 0.03867075
v 0.08088221 -0.12948101 0.00799397
v 0.08088221 -0.11539640 0.00617725
v 0.30231414 -0.11225754 0.05776808
v 0.35415008 0.23317770 0.05748746
v 0.50169966 0.04315613 0.10374636
v 0.56117119 0.30223257 0.11822074
v 0.57031236 0.32315827 0.12120422
v 0.61322221 0.31953651 0.14609125
v 0.62505197 0.31953651 0.15338755
v 0.63021407 0.30907367 0.15682890
v 0.34549283 0.45008077 0.15682890
v 0.33559883 0.44975886 0.14649008
v 0.35415008 0.44348117 0.11274116
v 0.32898492 0.44911499 0.13841102
v 0.54412554 0.44468840 0.15682890
v 0.35415008 0.44710285 0.13002178
v 0.33688936 0.25040117 0.05651262
v 0.25047821 0.19865027 0.04010342
v 0.25047821 0.18134632 0.03803569
v 0.38055199 0.29442566 0.06939187
v 0.37135702 0.42319929 0.09485497
v 0.38861774 0.40589532 0.09323029
v 0.08088221 -0.11225754 0.00594096
v 0.37135702 0.43583521 0.10085148
v 0.26779270 0.18134632 0.04042837
v 0.33688936 0.23317770 0.05465163
v 0.35415008 0.25040117 0.05899395
v 0.57031236 0.32991888 0.12120422
v 0.50336661 0.09498751 0.10296354
v 0.60203771 0.33684047 0.14028678
v 0.62983764 0.31953651 0.15682890
v 0.61935221 0.37136791 0.15682890
v 0.37135702 0.44219342 0.11274116
v 0.56138628 0.43977886 0.15682890
v 0.38861774 0.43390360 0.10249094
v 0.26779270 0.19865027 0.04211210
v 0.56724739 0.34142802 0.12183934
v 0.38861774 0.42319929 0.09814862
v 0.54337273 0.37152887 0.12364123
v 0.57714141 0.33611611 0.12591576
v 0.59343421 0.33684047 0.13533889
v 0.61257695 0.38770607 0.15682890
v 0.54546986 0.38995959 0.13143967
v 0.55772979 0.43575470 0.15399312
v 0.39759762 0.43205249 0.10395315
v 0.53584472 0.41482900 0.13848484
f 1 2 3
f 1 3 6
f 1 6 11
f 1 11 25
f 1 25 29
f 1 29 46
f 1 46 57
f 1 57 56
f 1 56 78
f 1 78 101
f 1 101 100
f 1 100 124
f 1 124 145
f 1 145 146
f 1 146 156
f 1 156 148
f 1 148 129
f 1 129 125
f 1 125 103
f 1 103 102
f 1 102 79
f 1 79 59
f 1 59 58
f 1 58 37
f 1 37 17
f 1 17 16
f 1 16 7
f 1 7 4
f 1 4 9
f 1 9 24
f 1 24 42
f 1 42 65
f 1 65 88
f 1 88 87
f 1 87 111
f 1 111 137
f 1 137 116
f 1 116 115
f 1 115 114
f 1 114 91
f 1 91 66
f 1 66 43
f 1 43 26
f 1 26 12
f 1 12 10
f 1 10 5
f 1 5 2
f 2 5 6
f 2 6 3
f 4 7 8
f 4 8 9
f 5 10 6
f 6 10 12
f 6 12 13
f 6 13 14
f 6 14 15
f 6 15 11
f 7 16 8
f 8 16 17
f 8 17 18
f 8 18 19
f 8 19 20
f 8 20 21
f 8 21 22
f 8 22 23
f 8 23 24
f 8 24 9
f 11 15 25
f 12 26 13
f 13 26 27
f 13 27 28
f 13 28 15
f 13 15 14
f 15 29 25
f 15 28 30
f 15 30 31
f 15 31 32
f 15 32 33
f 15 33 34
f 15 34 35
f 15 35 36
f 15 36 29
f 17 37 18
f 18 37 38
f 18 38 39
f 18 39 19
f 19 39 40
f 19 40 20
f 20 40 41
f 20 41 21
f 21 41 23
f 21 23 22
f 23 42 24
f 23 41 42
f 26 43 27
f 27 44 28
f 27 43 44
f 28 44 45
f 28 45 30
f 29 36 46
f 30 45 31
f 31 47 32
f 31 45 44
f 31 44 47
f 32 47 48
f 32 48 49
f 32 49 33
f 33 49 48
f 33 48 50
f 33 50 51
f 33 51 52
f 33 52 53
f 33 53 34
f 34 53 54
f 34 54 35
f 35 54 36
f 36 54 55
f 36 55 56
f 36 56 57
f 36 57 46
f 37 58 38
f 38 58 59
f 38 59 60
f 38 60 39
f 39 60 61
f 39 61 62
f 39 62 41
f 39 41 40
f 41 62 63
f 41 63 64
f 41 64 42
f 42 64 65
f 43 66 44
f 44 67 68
f 44 68 47
f 44 66 67
f 47 68 69
f 47 69 48
f 48 69 50
f 50 70 71
f 50 71 51
f 50 69 72
f 50 72 73
f 50 73 70
f 51 71 52
f 52 74 75
f 52 75 53
f 52 71 74
f 53 75 76
f 53 76 77
f 53 77 78
f 53 78 56
f 53 56 55
f 53 55 54
f 59 79 80
f 59 80 60
f 60 80 61
f 61 81 82
f 61 82 62
f 61 80 83
f 61 83 84
f 61 84 81
f 62 82 63
f 63 82 81
f 63 81 85
f 63 85 64
f 64 86 87
f 64 87 88
f 64 88 65
f 64 85 89
f 64 89 90
f 64 90 86
f 66 91 92
f 66 92 67
f 67 92 93
f 67 93 72
f 67 72 69
f 67 69 68
f 70 94 95
f 70 95 71
f 70 73 96
f 70 96 93
f 70 93 94
f 71 95 97
f 71 97 74
f 72 93 96
f 72 96 73
f 74 97 98
f 74 98 75
f 75 98 76
f 76 98 99
f 76 99 100
f 76 100 77
f 77 101 78
f 77 100 101
f 79 102 80
f 80 102 103
f 80 103 104
f 80 104 83
f 81 84 105
f 81 105 106
f 81 106 85
f 83 104 107
f 83 107 84
f 84 107 108
f 84 108 105
f 85 106 89
f 86 109 87
f 86 90 110
f 86 110 109
f 87 109 111
f 89 106 112
f 89 112 113
f 89 113 90
f 90 113 110
f 91 114 93
f 91 93 92
f 93 114 94
f 94 115 116
f 94 116 95
f 94 114 115
f 95 116 117
f 95 117 97
f 97 117 118
f 97 118 98
f 98 118 119
f 98 119 99
f 99 120 121
f 99 121 100
f 99 119 120
f 100 121 122
f 100 122 123
f 100 123 124
f 103 125 126
f 103 126 104
f 104 126 107
f 105 127 112
f 105 112 106
f 105 108 127
f 107 126 128
f 107 128 108
f 108 129 130
f 108 130 127
f 108 128 129
f 109 131 132
f 109 132 133
f 109 133 111
f 109 110 134
f 109 134 131
f 110 113 135
f 110 135 136
f 110 136 134
f 111 133 137
f 112 138 113
f 112 127 138
f 113 138 135
f 116 137 117
f 117 137 118
f 118 139 140
f 118 140 141
f 118 141 134
f 118 134 142
f 118 142 120
f 118 120 143
f 118 143 119
f 118 137 139
f 119 143 120
f 120 142 121
f 121 142 122
f 122 142 144
f 122 144 123
f 123 145 124
f 123 144 146
f 123 146 145
f 125 129 126
f 126 129 128
f 127 147 138
f 127 130 129
f 127 129 147
f 129 148 149
f 129 149 138
f 129 138 147
f 131 141 140
f 131 140 150
f 131 150 132
f 131 134 141
f 132 150 133
f 133 150 140
f 133 140 139
f 133 139 137
f 134 136 151
f 134 151 142
f 135 138 149
f 135 149 152
f 135 152 136
f 136 152 153
f 136 153 151
f 142 151 154
f 142 154 155
f 142 155 144
f 144 155 146
f 146 155 154
f 146 154 156
f 148 156 157
f 148 157 158
f 148 158 159
f 148 159 149
f 149 159 152
f 151 153 156
f 151 156 154
f 152 159 153
f 153 159 157
f 153 157 156
f 157 159 160
f 157 160 158
f 158 160 159

