# https://github.com/mikedh/trimesh
v 0.20938142 0.36400237 0.15682890
v 0.20832493 0.36400237 0.16457802
v 0.28990422 0.43559212 0.15682890
v 0.61966655 0.36400237 0.15682890
v 0.20827898 0.36400237 0.17392959
v 0.30331704 0.44413498 0.16577387
v 0.30974784 0.44958969 0.16082305
v 0.30795641 0.44866612 0.15682890
v 0.20873832 0.36400237 0.17703878
v 0.25187064 0.36400237 0.40116514
v 0.61939092 0.37140521 0.15682890
v 0.63785653 0.36400237 0.16402795
v 0.31181488 0.44899807 0.17232714
v 0.30974784 0.44958969 0.15682890
v 0.43041725 0.48426619 0.36615061
v 0.44052281 0.49119285 0.35457479
v 0.46417894 0.50190028 0.31606839
v 0.46367370 0.50218888 0.30274661
v 0.47501944 0.50728287 0.26823436
v 0.41787718 0.46785874 0.40116514
v 0.41411058 0.46679087 0.39858209
v 0.40859846 0.47028303 0.37184287
v 0.58080614 0.36400237 0.40116514
v 0.65682742 0.38098708 0.17285333
v 0.64777835 0.37140521 0.16845258
v 0.65246363 0.36400237 0.16986367
v 0.61259265 0.38778383 0.15682890
v 0.42407832 0.47951857 0.37189073
v 0.31953185 0.44987830 0.15682890
v 0.49229074 0.50950515 0.25094237
v 0.50933238 0.50540690 0.23245449
v 0.52683334 0.50247753 0.22240937
v 0.54865215 0.48516088 0.18868635
v 0.43400012 0.48306849 0.37765472
v 0.44006345 0.48664724 0.37189073
v 0.45774814 0.49523339 0.35457479
v 0.47423858 0.50295373 0.32111489
v 0.47501944 0.50572439 0.30274661
v 0.47501944 0.50654690 0.28547853
v 0.49229074 0.51076062 0.26823436
v 0.42357304 0.47068711 0.40116514
v 0.63680003 0.36400237 0.32515687
v 0.63569762 0.37140521 0.32353051
v 0.62448965 0.38447924 0.33075344
v 0.62090678 0.39600923 0.32754857
v 0.57368632 0.37508499 0.40116514
v 0.57359448 0.45390442 0.16933749
v 0.64125566 0.41696232 0.18832763
v 0.65696523 0.39813050 0.18935607
v 0.65976719 0.38752408 0.18289845
v 0.67350154 0.36400237 0.19165207
v 0.67212349 0.36400237 0.18914077
v 0.66665735 0.36400237 0.18208526
v 0.66256919 0.36400237 0.17715837
v 0.65788386 0.36400237 0.17223144
v 0.63046113 0.38867852 0.16438666
v 0.56266208 0.44113343 0.15780951
v 0.61415443 0.38938563 0.15800086
v 0.56142185 0.43977696 0.15682890
v 0.33634381 0.45031125 0.15682890
v 0.50956204 0.51141000 0.25094237
v 0.52683334 0.50752818 0.23367428
v 0.53790349 0.50211676 0.22255285
v 0.56137593 0.48520418 0.18854287
v 0.42761525 0.47207241 0.40116514
v 0.44543775 0.48468468 0.38200761
v 0.45154700 0.48468468 0.38200761
v 0.48645707 0.50148179 0.33029902
v 0.47947507 0.50148179 0.33029902
v 0.49229074 0.50791784 0.30274661
v 0.49229074 0.50992364 0.28547853
v 0.50956204 0.51104922 0.26823436
v 0.63918865 0.36400237 0.32111489
v 0.64088819 0.37140521 0.31489648
v 0.63955612 0.38074175 0.31236127
v 0.62421407 0.40142067 0.31602057
v 0.62063120 0.41293622 0.30748218
v 0.61498127 0.40777008 0.32214333
v 0.56321329 0.38999169 0.40116514
v 0.56459133 0.38823117 0.40116514
v 0.57019529 0.38022225 0.40116514
v 0.56169748 0.45891182 0.16735238
v 0.56766892 0.46543440 0.17412089
v 0.57065466 0.48423736 0.18971479
v 0.63546796 0.42885306 0.19913812
v 0.64424140 0.42022361 0.19913812
v 0.65287703 0.40997797 0.19913812
v 0.65921598 0.40134852 0.19913812
v 0.66688701 0.38867852 0.19913812
v 0.67285844 0.37300699 0.19751173
v 0.67570636 0.36831707 0.20217555
v 0.67625762 0.36400237 0.20057310
v 0.54410463 0.44472659 0.15682890
v 0.34548472 0.45008036 0.15682890
v 0.54934112 0.46780098 0.17215973
v 0.55613944 0.46780098 0.17215973
v 0.52683334 0.51065961 0.25094237
v 0.54010837 0.50425244 0.23367428
v 0.44038500 0.47485753 0.40116514
v 0.44626459 0.47361648 0.40116514
v 0.45563515 0.47114889 0.40116514
v 0.47194185 0.48628646 0.36693989
v 0.49798659 0.50003878 0.32726157
v 0.49224482 0.50337222 0.32089962
v 0.50331498 0.50257854 0.31573355
v 0.50956204 0.50843733 0.28547853
v 0.52683334 0.50840845 0.26823436
v 0.64134755 0.36400237 0.31709683
v 0.67184792 0.37140521 0.23687915
v 0.67391493 0.38040985 0.22590125
v 0.65774610 0.41615422 0.22704925
v 0.60643748 0.43321107 0.29698262
v 0.60910168 0.41856412 0.31676199
v 0.60395703 0.41411951 0.32826609
v 0.55517479 0.39860672 0.40116514
v 0.54065958 0.50534919 0.25094237
v 0.57065466 0.48423736 0.19500044
v 0.65774610 0.41615422 0.22157224
v 0.65531156 0.41339798 0.21006820
v 0.67359338 0.37983262 0.20915936
v 0.67566044 0.37300699 0.21552127
v 0.67690072 0.36400237 0.20650453
v 0.54410463 0.44628513 0.15780951
v 0.46156072 0.46795975 0.40116514
v 0.48347138 0.48351581 0.36308925
v 0.49229074 0.48739763 0.35077200
v 0.50161543 0.48448267 0.34673002
v 0.53638769 0.50178486 0.27806427
v 0.52591466 0.50374742 0.28447403
v 0.53854659 0.50354535 0.26823436
v 0.67235320 0.36400237 0.23831419
v 0.67520113 0.36400237 0.22968013
v 0.67464987 0.37140521 0.22824510
v 0.67754377 0.36400237 0.21595175
v 0.67391493 0.38040985 0.22068733
v 0.60193589 0.43007967 0.30851063
v 0.55476140 0.39901077 0.40116514
v 0.46739433 0.46396251 0.40116514
f 1 2 3
f 1 3 8
f 1 8 14
f 1 14 29
f 1 29 60
f 1 60 94
f 1 94 93
f 1 93 59
f 1 59 27
f 1 27 11
f 1 11 4
f 1 4 12
f 1 12 26
f 1 26 55
f 1 55 54
f 1 54 53
f 1 53 52
f 1 52 51
f 1 51 92
f 1 92 122
f 1 122 134
f 1 134 132
f 1 132 131
f 1 131 108
f 1 108 73
f 1 73 42
f 1 42 23
f 1 23 10
f 1 10 9
f 1 9 5
f 1 5 2
f 2 5 3
f 3 6 7
f 3 7 8
f 3 5 9
f 3 9 10
f 3 10 6
f 4 11 12
f 6 13 7
f 6 10 13
f 7 14 8
f 7 13 15
f 7 15 16
f 7 16 17
f 7 17 18
f 7 18 19
f 7 19 14
f 10 20 21
f 10 21 22
f 10 22 13
f 10 23 46
f 10 46 81
f 10 81 80
f 10 80 79
f 10 79 115
f 10 115 137
f 10 137 138
f 10 138 124
f 10 124 101
f 10 101 100
f 10 100 99
f 10 99 65
f 10 65 41
f 10 41 20
f 11 24 25
f 11 25 26
f 11 26 12
f 11 27 24
f 13 22 28
f 13 28 15
f 14 19 30
f 14 30 31
f 14 31 32
f 14 32 33
f 14 33 29
f 15 28 34
f 15 34 16
f 16 34 35
f 16 35 36
f 16 36 17
f 17 36 37
f 17 37 38
f 17 38 39
f 17 39 19
f 17 19 18
f 19 39 40
f 19 40 30
f 20 41 21
f 21 41 34
f 21 34 28
f 21 28 22
f 23 42 43
f 23 43 44
f 23 44 45
f 23 45 46
f 24 47 48
f 24 48 49
f 24 49 50
f 24 50 51
f 24 51 52
f 24 52 53
f 24 53 54
f 24 54 55
f 24 55 26
f 24 26 25
f 24 27 56
f 24 56 57
f 24 57 47
f 27 58 56
f 27 59 58
f 29 33 60
f 30 40 61
f 30 61 31
f 31 61 62
f 31 62 32
f 32 62 63
f 32 63 64
f 32 64 33
f 33 64 60
f 34 41 65
f 34 65 66
f 34 66 35
f 35 66 36
f 36 66 67
f 36 67 68
f 36 68 69
f 36 69 70
f 36 70 37
f 37 70 38
f 38 70 71
f 38 71 40
f 38 40 39
f 40 71 72
f 40 72 61
f 42 73 74
f 42 74 43
f 43 74 75
f 43 75 44
f 44 75 45
f 45 75 76
f 45 76 77
f 45 77 78
f 45 78 79
f 45 79 80
f 45 80 81
f 45 81 46
f 47 57 82
f 47 82 83
f 47 83 84
f 47 84 48
f 48 85 86
f 48 86 87
f 48 87 49
f 48 84 85
f 49 87 88
f 49 88 89
f 49 89 50
f 50 89 90
f 50 90 51
f 51 90 91
f 51 91 92
f 56 58 57
f 57 59 82
f 57 58 59
f 59 93 82
f 60 64 95
f 60 95 96
f 60 96 94
f 61 72 97
f 61 97 62
f 62 97 98
f 62 98 63
f 63 98 84
f 63 84 64
f 64 84 96
f 64 96 95
f 65 99 66
f 66 99 67
f 67 99 100
f 67 100 101
f 67 101 102
f 67 102 103
f 67 103 68
f 68 103 104
f 68 104 70
f 68 70 69
f 70 104 105
f 70 105 106
f 70 106 72
f 70 72 71
f 72 106 107
f 72 107 97
f 73 108 74
f 74 108 109
f 74 109 75
f 75 109 110
f 75 110 111
f 75 111 76
f 76 111 77
f 77 111 112
f 77 112 113
f 77 113 78
f 78 113 114
f 78 114 79
f 79 114 115
f 82 96 83
f 82 93 96
f 83 96 84
f 84 98 116
f 84 116 117
f 84 117 111
f 84 111 118
f 84 118 85
f 85 118 86
f 86 118 119
f 86 119 87
f 87 119 88
f 88 119 118
f 88 118 89
f 89 120 90
f 89 118 120
f 90 120 91
f 91 121 122
f 91 122 92
f 91 120 121
f 93 123 96
f 93 94 123
f 94 96 123
f 97 107 116
f 97 116 98
f 101 124 125
f 101 125 102
f 102 125 103
f 103 105 104
f 103 125 126
f 103 126 127
f 103 127 128
f 103 128 105
f 105 128 129
f 105 129 107
f 105 107 106
f 107 129 128
f 107 128 130
f 107 130 116
f 108 131 109
f 109 131 132
f 109 132 133
f 109 133 110
f 110 133 134
f 110 134 121
f 110 121 135
f 110 135 118
f 110 118 111
f 111 117 116
f 111 116 130
f 111 130 128
f 111 128 112
f 112 136 113
f 112 128 136
f 113 136 127
f 113 127 114
f 114 127 137
f 114 137 115
f 118 135 120
f 120 135 121
f 121 134 122
f 124 138 127
f 124 127 125
f 125 127 126
f 127 136 128
f 127 138 137
f 132 134 133

