# https://github.com/mikedh/trimesh
v -0.12630390 0.38163842 0.32006079
v -0.05828022 0.34552457 0.32006079
v -0.05828022 0.35155495 0.28547315
v -0.05828022 0.35299404 0.26820347
v -0.05828022 0.35258287 0.26554538
v -0.05828022 0.34922502 0.24921008
v -0.05875968 0.34929354 0.24921008
v -0.06338117 0.34662101 0.24094577
v -0.07773839 0.34675805 0.24086522
v -0.12630390 0.35628337 0.26480431
v -0.12630390 -0.19899293 0.32006079
v -0.05828022 -0.21016289 0.32006079
v -0.05828022 0.34607279 0.24154184
v -0.05828022 0.33784953 0.23500126
v -0.10707880 0.34573013 0.24205734
v -0.12630390 0.34970472 0.25148155
v -0.05828022 0.33723279 0.23458241
v -0.12630390 -0.20701063 0.28345942
v -0.10376919 -0.27649724 0.25974584
v -0.09500568 -0.27923834 0.26253284
v -0.07773839 -0.28314441 0.26593200
v -0.05828022 -0.28520020 0.27050717
v -0.05828022 -0.28191092 0.27289141
v -0.05828022 -0.27197448 0.28007637
v -0.11859255 0.34497635 0.24260507
v -0.12630390 0.34847124 0.24919397
v -0.05828022 0.31955273 0.22556094
v -0.12630390 -0.20659948 0.26820347
v -0.10623309 -0.26916485 0.25120767
v -0.10376919 -0.27649724 0.25716829
v -0.08754072 -0.29465699 0.16790410
v -0.08703463 -0.29438286 0.21099774
v -0.06982061 -0.31151469 0.20887122
v -0.05828022 -0.31514663 0.21546011
v -0.06806924 -0.29314937 0.25818322
v -0.05828022 -0.29177885 0.26417604
v -0.05828022 -0.28622812 0.26965336
v -0.12630390 0.34381138 0.24312058
v -0.12630390 0.33538256 0.24031749
v -0.05828022 0.09581128 0.15548349
v -0.06726348 0.09197375 0.15548349
v -0.12630390 -0.20317311 0.25244813
v -0.10138519 -0.26772575 0.18185519
v -0.10341625 -0.27588049 0.24564981
v -0.09492577 -0.28499463 0.18185519
v -0.09195577 -0.28663930 0.16311951
v -0.08625550 -0.29349203 0.15638565
v -0.07938987 -0.30000211 0.16311951
v -0.06723684 -0.30945885 0.16458548
v -0.06840886 -0.31034973 0.18185519
v -0.06982061 -0.31151469 0.20389332
v -0.05828022 -0.31843595 0.19867376
v -0.05828022 -0.29938537 0.25178763
v -0.05828022 -0.29616456 0.25824764
v -0.12419294 0.05921772 0.15548349
v -0.12630390 0.05743602 0.15548349
v -0.05828022 -0.31446136 0.15548349
v -0.12630390 -0.17699569 0.15548349
v -0.09852174 -0.26772575 0.16458548
v -0.09077710 -0.28430937 0.15548349
v -0.08657514 -0.29232707 0.15548349
v -0.08602909 -0.29321789 0.15548349
v -0.08517671 -0.29397173 0.15548349
v -0.06144334 -0.31213144 0.15548349
v -0.05828022 -0.31569485 0.16226570
v -0.05859986 -0.31583189 0.16458548
v -0.05828022 -0.31610602 0.16506879
v -0.05828022 -0.31754507 0.18185519
v -0.05828022 -0.31603750 0.16458548
f 1 2 3
f 1 3 4
f 1 4 5
f 1 5 6
f 1 6 7
f 1 7 8
f 1 8 9
f 1 9 10
f 1 10 16
f 1 16 26
f 1 26 38
f 1 38 39
f 1 39 56
f 1 56 58
f 1 58 42
f 1 42 28
f 1 28 18
f 1 18 11
f 1 11 12
f 1 12 2
f 2 12 24
f 2 24 23
f 2 23 22
f 2 22 37
f 2 37 36
f 2 36 54
f 2 54 53
f 2 53 34
f 2 34 52
f 2 52 68
f 2 68 67
f 2 67 69
f 2 69 65
f 2 65 57
f 2 57 40
f 2 40 27
f 2 27 17
f 2 17 14
f 2 14 13
f 2 13 6
f 2 6 5
f 2 5 4
f 2 4 3
f 6 13 8
f 6 8 7
f 8 13 14
f 8 14 9
f 9 15 16
f 9 16 10
f 9 14 17
f 9 17 15
f 11 18 19
f 11 19 20
f 11 20 21
f 11 21 22
f 11 22 23
f 11 23 24
f 11 24 12
f 15 25 26
f 15 26 16
f 15 17 27
f 15 27 25
f 18 28 29
f 18 29 19
f 19 29 30
f 19 30 31
f 19 31 32
f 19 32 33
f 19 33 34
f 19 34 35
f 19 35 20
f 20 35 21
f 21 35 36
f 21 36 37
f 21 37 22
f 25 38 26
f 25 27 38
f 27 39 38
f 27 40 41
f 27 41 39
f 28 42 29
f 29 43 44
f 29 44 30
f 29 42 43
f 30 44 45
f 30 45 31
f 31 45 46
f 31 46 47
f 31 47 48
f 31 48 49
f 31 49 50
f 31 50 51
f 31 51 33
f 31 33 32
f 33 51 52
f 33 52 34
f 34 53 35
f 35 53 54
f 35 54 36
f 39 41 55
f 39 55 56
f 40 57 64
f 40 64 63
f 40 63 62
f 40 62 61
f 40 61 60
f 40 60 58
f 40 58 56
f 40 56 55
f 40 55 41
f 42 58 43
f 43 59 46
f 43 46 45
f 43 45 44
f 43 58 59
f 46 60 47
f 46 59 58
f 46 58 60
f 47 61 62
f 47 62 63
f 47 63 64
f 47 64 48
f 47 60 61
f 48 64 49
f 49 64 65
f 49 65 66
f 49 66 50
f 50 66 51
f 51 66 67
f 51 67 68
f 51 68 52
f 57 65 64
f 65 69 66
f 66 69 67

