# https://github.com/mikedh/trimesh
v -0.12954245 -0.04317401 1.15563534
v -0.14681860 -0.04317401 1.15493972
v -0.12954245 -0.06041753 1.15325877
v -0.11229742 -0.06041753 1.15169370
v -0.11229742 -0.04317401 1.15378043
v -0.11229742 0.00869963 1.15441806
v -0.14681860 -0.02585896 1.15546143
v -0.19777547 -0.04317401 1.14972285
v -0.19777547 -0.07773260 1.14386838
v -0.16409475 -0.02585896 1.15441806
v -0.19777547 -0.08803578 1.14172364
v -0.18137091 -0.09054002 1.14253518
v -0.14681860 -0.07773260 1.14809986
v -0.12954245 -0.07773260 1.14914322
v -0.11229742 -0.07773260 1.14746221
v -0.09502127 -0.06041753 1.14636088
v -0.09502127 -0.04317401 1.14931713
v -0.03878818 0.02637244 1.14189753
v -0.03878818 0.02880513 1.14201346
v -0.09502127 -0.00861544 1.15180963
v -0.09502127 0.00869963 1.15204149
v -0.03878818 0.18134941 1.13482580
v -0.03878818 0.28938969 1.12804385
v -0.03878818 0.30226866 1.12723236
v -0.07774512 0.33682724 1.12885535
v -0.18137091 0.28495360 1.13442003
v -0.19777547 -0.04224387 1.14978082
v -0.18137091 -0.02585896 1.15250519
v -0.19777547 0.28495360 1.13337667
v -0.19777547 -0.08867972 1.14154978
v -0.19777547 -0.09683640 1.13766611
v -0.19777547 -0.09726570 1.13743424
v -0.18137091 -0.09919755 1.13766611
v -0.16409475 -0.10048545 1.13830370
v -0.16409475 -0.09182792 1.14311481
v -0.14681860 -0.09268652 1.14352058
v -0.12954245 -0.09225722 1.14375245
v -0.11229742 -0.09025382 1.14270908
v -0.10190061 -0.08796422 1.14131790
v -0.09569053 -0.07615850 1.14259314
v -0.08621199 -0.06936126 1.14062229
v -0.03878818 0.01714251 1.14068027
v -0.03878818 0.04318665 1.14195551
v -0.03878818 0.04647795 1.14183957
v -0.03878818 0.31951219 1.12560932
v -0.03878818 0.33096016 1.12392831
v -0.07900581 0.35356991 1.12584119
v -0.09502127 0.35407074 1.12740620
v -0.19777547 0.30234022 1.13140582
v -0.19777547 -0.02585896 1.15047643
v -0.19777547 -0.10985847 1.12920315
v -0.14681860 -0.10127250 1.13882541
v -0.12954245 -0.10091475 1.13836167
v -0.11229742 -0.09883981 1.13726034
v -0.09038317 -0.08088079 1.13859354
v -0.08375286 -0.10463534 1.12433408
v -0.07223543 -0.10027080 1.12189954
v -0.06772184 -0.08875127 1.12410221
v -0.03878818 -0.03952498 1.12508761
v -0.03878818 -0.02550120 1.12926112
v -0.03878818 -0.02149441 1.13036245
v -0.03878818 0.33317820 1.12323275
v -0.03878818 0.33961769 1.12091410
v -0.08560499 0.36308604 1.12363846
v -0.09502127 0.36430238 1.12450799
v -0.11229742 0.36451703 1.12433408
v -0.19777547 0.31901133 1.12653675
v -0.19777547 -0.11035933 1.12879737
v -0.19777547 -0.26347600 0.98892716
v -0.18137091 -0.26361912 0.98886920
v -0.11229742 -0.10799818 1.12862348
v -0.16409475 -0.27084563 0.97959477
v -0.09502127 -0.10635254 1.12647878
v -0.06046897 -0.12652959 1.09552533
v -0.06046897 -0.11751431 1.10416214
v -0.06046897 -0.10885678 1.10984276
v -0.05094374 -0.10499308 1.10671260
v -0.06135612 -0.09468991 1.11766807
v -0.03965977 -0.09497611 1.10230728
v -0.03878818 -0.09497611 1.10155369
v -0.03878818 0.35027860 1.11227728
v -0.06478023 0.36573337 1.10943698
v -0.11735576 0.38154591 1.10914715
v -0.12954245 0.38125970 1.10845159
v -0.12809499 0.36995481 1.11726230
v -0.12137130 0.36330069 1.12340660
v -0.19777547 0.32029923 1.12555135
v -0.13839843 0.38011489 1.10613299
v -0.19777547 -0.27213353 0.97826157
v -0.18137091 -0.27227665 0.98005845
v -0.13654630 -0.27692739 0.96863931
v -0.16409475 -0.27850147 0.97095791
v -0.14681860 -0.27764287 0.96962470
v -0.04741068 -0.12395379 1.09222127
v -0.03878818 -0.22533993 0.98556517
v -0.04341072 -0.11214808 1.09738018
v -0.03878818 -0.11050242 1.09494566
v -0.03878818 0.43442124 0.96620477
v -0.03878818 0.43842800 0.95913302
v -0.06046897 0.43764096 0.95913302
v -0.07774512 0.43678236 0.95913302
v -0.08745712 0.43220318 0.96852338
v -0.19777547 0.33289199 1.11523353
v -0.19777547 0.37224443 1.06283291
v -0.19777547 0.36566184 1.07616493
v -0.19777547 0.36058180 1.08433800
v -0.19777547 0.35263975 1.09558330
v -0.19777547 0.35106567 1.09726431
v -0.19777547 0.33604020 1.11216135
v -0.11229742 0.42461890 0.97640666
v -0.19777547 0.39771615 1.00347646
v -0.19777547 -0.27721357 0.96962470
v -0.18137091 -0.27842993 0.97142165
v -0.16409475 -0.28179277 0.95913302
v -0.14681860 -0.27978937 0.95913302
v -0.13279534 -0.27749978 0.95913302
v -0.12415727 -0.27499554 0.95913302
v -0.11229742 -0.27077410 0.95913302
v -0.03878818 -0.24115246 0.95913302
v -0.03878818 -0.23406901 0.97571110
v -0.03878818 -0.23049152 0.97976865
v -0.03878818 -0.12051941 1.08764205
v -0.03878818 0.44415202 0.94185935
v -0.06046897 0.44286412 0.94185935
v -0.07774512 0.44107536 0.94185935
v -0.09502127 0.43792719 0.94185935
v -0.09393178 0.43384887 0.95849540
v -0.12423509 0.43356264 0.92093391
v -0.12980704 0.43427812 0.90603681
v -0.19777547 0.39778771 1.00295478
v -0.19777547 -0.27907388 0.95913302
v -0.18137091 -0.28150657 0.95913302
v -0.16409475 -0.28257982 0.94185935
v -0.14681860 -0.28029022 0.94185935
v -0.11229742 -0.27435159 0.94185935
v -0.09502127 -0.26898534 0.94185935
v -0.08323925 -0.26082867 0.95345243
v -0.06188530 -0.25596328 0.92360028
v -0.04319282 -0.24902295 0.90731204
v -0.03878818 -0.24673333 0.90731204
v -0.03878818 0.44472443 0.93745399
v -0.03878818 0.44651319 0.92052813
v -0.03878818 0.44830190 0.90313856
v -0.09502127 0.43942972 0.92458571
v -0.11229742 0.43706859 0.90731204
v -0.03878818 0.44837345 0.89426985
v -0.12851521 0.43327640 0.89096583
v -0.13847624 0.43198856 0.89739999
v -0.13847624 0.43198856 0.89937079
v -0.19777547 0.39871787 0.99368033
v -0.19777547 -0.27957472 0.94185935
v -0.18137091 -0.28207896 0.94185935
v -0.18137091 -0.28150657 0.92458571
v -0.18137091 -0.28014713 0.90731204
v -0.16409475 -0.28107727 0.92458571
v -0.14600927 -0.27814373 0.92429587
v -0.13972137 -0.27614032 0.91826750
v -0.11229742 -0.27191888 0.92458571
v -0.03878818 -0.20315948 0.56346198
v -0.09502127 -0.26762591 0.92458571
v -0.06857786 -0.25918303 0.91525329
v -0.06857786 -0.25918303 0.91722411
v -0.06188530 -0.25624946 0.90864524
v -0.03878818 -0.24566008 0.89003840
v -0.03878818 0.44837345 0.89571899
v -0.03878818 0.40308240 0.56346198
v -0.04319282 0.40301084 0.56346198
v -0.07774512 0.40687454 0.61371788
v -0.09502127 0.40494269 0.61371788
v -0.18137091 0.39056118 0.57917058
v -0.19777547 0.38798538 0.57917058
v -0.19777547 0.41123907 0.83827538
v -0.19777547 0.39878940 0.99281083
v -0.19777547 -0.27749978 0.88957467
v -0.19777547 -0.27699892 0.87827144
v -0.18639811 -0.27699892 0.87908297
v -0.16323873 -0.27828682 0.90667442
v -0.16842158 -0.27721357 0.89473358
v -0.03878818 -0.24258345 0.86163541
v -0.19777547 -0.26855604 0.82100174
v -0.19777547 -0.26469237 0.80459757
v -0.19777547 -0.26447772 0.80372807
v -0.19777547 -0.25918303 0.78471547
v -0.18137091 -0.19557520 0.56346198
v -0.03878818 -0.24379979 0.87276473
v -0.04478035 0.40286775 0.56346198
v -0.16409475 0.39242147 0.57917058
v -0.18137091 0.38820003 0.56346198
v -0.18295845 0.38798538 0.56346198
v -0.19777547 0.38540958 0.56346198
v -0.19777547 -0.27134649 0.83914488
v -0.19777547 -0.26869916 0.82187121
v -0.19777547 -0.19450195 0.56346198
v -0.19705953 -0.19457351 0.56346198
f 1 2 3
f 1 3 4
f 1 4 5
f 1 5 6
f 1 6 7
f 1 7 2
f 2 8 9
f 2 9 3
f 2 7 10
f 2 10 8
f 3 9 11
f 3 11 12
f 3 12 13
f 3 13 14
f 3 14 4
f 4 14 15
f 4 15 16
f 4 16 17
f 4 17 5
f 5 17 18
f 5 18 19
f 5 19 20
f 5 20 21
f 5 21 6
f 6 21 22
f 6 22 23
f 6 23 24
f 6 24 25
f 6 25 26
f 6 26 7
f 7 26 10
f 8 10 27
f 8 27 50
f 8 50 29
f 8 29 49
f 8 49 67
f 8 67 87
f 8 87 103
f 8 103 109
f 8 109 108
f 8 108 107
f 8 107 106
f 8 106 105
f 8 105 104
f 8 104 111
f 8 111 130
f 8 130 150
f 8 150 173
f 8 173 172
f 8 172 171
f 8 171 190
f 8 190 193
f 8 193 183
f 8 183 182
f 8 182 181
f 8 181 180
f 8 180 192
f 8 192 191
f 8 191 175
f 8 175 174
f 8 174 151
f 8 151 131
f 8 131 112
f 8 112 89
f 8 89 69
f 8 69 68
f 8 68 51
f 8 51 32
f 8 32 31
f 8 31 30
f 8 30 11
f 8 11 9
f 10 28 27
f 10 26 29
f 10 29 28
f 11 30 12
f 12 14 13
f 12 30 31
f 12 31 32
f 12 32 33
f 12 33 34
f 12 34 35
f 12 35 14
f 14 35 36
f 14 36 37
f 14 37 15
f 15 37 38
f 15 38 39
f 15 39 40
f 15 40 16
f 16 40 41
f 16 41 42
f 16 42 17
f 17 42 18
f 18 42 61
f 18 61 60
f 18 60 59
f 18 59 80
f 18 80 97
f 18 97 122
f 18 122 95
f 18 95 121
f 18 121 120
f 18 120 119
f 18 119 140
f 18 140 164
f 18 164 185
f 18 185 179
f 18 179 159
f 18 159 166
f 18 166 146
f 18 146 165
f 18 165 143
f 18 143 142
f 18 142 141
f 18 141 123
f 18 123 99
f 18 99 98
f 18 98 81
f 18 81 63
f 18 63 62
f 18 62 46
f 18 46 45
f 18 45 24
f 18 24 23
f 18 23 22
f 18 22 44
f 18 44 43
f 18 43 19
f 19 43 21
f 19 21 20
f 21 43 44
f 21 44 22
f 24 45 25
f 25 45 46
f 25 46 47
f 25 47 48
f 25 48 26
f 26 48 49
f 26 49 29
f 27 28 50
f 28 29 50
f 32 51 33
f 33 51 34
f 34 52 35
f 34 51 52
f 35 52 36
f 36 52 37
f 37 52 53
f 37 53 38
f 38 53 54
f 38 54 39
f 39 55 40
f 39 54 56
f 39 56 57
f 39 57 55
f 40 55 41
f 41 55 58
f 41 58 59
f 41 59 60
f 41 60 61
f 41 61 42
f 46 62 47
f 47 62 63
f 47 63 64
f 47 64 65
f 47 65 48
f 48 65 66
f 48 66 49
f 49 66 67
f 51 68 52
f 52 68 69
f 52 69 70
f 52 70 53
f 53 71 54
f 53 70 72
f 53 72 71
f 54 71 73
f 54 73 56
f 55 57 58
f 56 73 74
f 56 74 75
f 56 75 57
f 57 75 76
f 57 76 77
f 57 77 78
f 57 78 58
f 58 78 59
f 59 78 77
f 59 77 79
f 59 79 80
f 63 81 64
f 64 81 82
f 64 82 83
f 64 83 65
f 65 83 66
f 66 83 84
f 66 84 85
f 66 85 86
f 66 86 67
f 67 86 85
f 67 85 88
f 67 88 87
f 69 89 90
f 69 90 70
f 70 90 72
f 71 72 91
f 71 91 73
f 72 90 92
f 72 92 93
f 72 93 91
f 73 91 74
f 74 94 75
f 74 91 95
f 74 95 94
f 75 94 76
f 76 94 77
f 77 96 97
f 77 97 79
f 77 94 96
f 79 97 80
f 81 98 82
f 82 98 99
f 82 99 83
f 83 99 100
f 83 100 84
f 84 88 85
f 84 100 101
f 84 101 102
f 84 102 88
f 87 88 103
f 88 104 105
f 88 105 106
f 88 106 107
f 88 107 108
f 88 108 109
f 88 109 103
f 88 102 110
f 88 110 111
f 88 111 104
f 89 112 113
f 89 113 90
f 90 113 92
f 91 93 114
f 91 114 115
f 91 115 116
f 91 116 117
f 91 117 118
f 91 118 119
f 91 119 120
f 91 120 121
f 91 121 95
f 92 113 114
f 92 114 93
f 94 122 97
f 94 97 96
f 94 95 122
f 99 123 100
f 100 123 101
f 101 123 124
f 101 124 125
f 101 125 126
f 101 126 127
f 101 127 102
f 102 127 110
f 110 127 111
f 111 127 126
f 111 126 128
f 111 128 129
f 111 129 130
f 112 131 132
f 112 132 113
f 113 132 114
f 114 132 133
f 114 133 115
f 115 133 134
f 115 134 116
f 116 134 135
f 116 135 117
f 117 135 136
f 117 136 118
f 118 136 137
f 118 137 119
f 119 137 136
f 119 136 138
f 119 138 139
f 119 139 140
f 123 141 124
f 124 141 142
f 124 142 143
f 124 143 125
f 125 143 144
f 125 144 126
f 126 144 129
f 126 129 128
f 129 144 145
f 129 145 146
f 129 146 147
f 129 147 148
f 129 148 149
f 129 149 130
f 130 149 150
f 131 151 152
f 131 152 132
f 132 152 133
f 133 152 153
f 133 153 154
f 133 154 155
f 133 155 134
f 134 155 156
f 134 156 135
f 135 156 157
f 135 157 158
f 135 158 159
f 135 159 160
f 135 160 161
f 135 161 136
f 136 161 162
f 136 162 139
f 136 139 138
f 139 162 161
f 139 161 163
f 139 163 164
f 139 164 140
f 143 165 145
f 143 145 144
f 145 165 146
f 146 166 167
f 146 167 168
f 146 168 169
f 146 169 170
f 146 170 171
f 146 171 147
f 147 171 148
f 148 172 149
f 148 171 172
f 149 172 173
f 149 173 150
f 151 153 152
f 151 174 153
f 153 174 175
f 153 175 154
f 154 175 176
f 154 176 155
f 155 177 156
f 155 176 178
f 155 178 177
f 156 177 157
f 157 177 159
f 157 159 158
f 159 179 163
f 159 163 161
f 159 161 160
f 159 177 178
f 159 178 176
f 159 176 180
f 159 180 181
f 159 181 182
f 159 182 183
f 159 183 184
f 159 184 194
f 159 194 193
f 159 193 190
f 159 190 189
f 159 189 188
f 159 188 186
f 159 186 167
f 159 167 166
f 163 179 185
f 163 185 164
f 167 186 168
f 168 186 187
f 168 187 170
f 168 170 169
f 170 187 188
f 170 188 189
f 170 189 171
f 171 189 190
f 175 191 176
f 176 191 192
f 176 192 180
f 183 193 194
f 183 194 184
f 186 188 187

