# https://github.com/mikedh/trimesh
v 0.20661107 0.45802135 0.87134942
v 0.20661107 0.41426816 0.67318019
v 0.20008833 0.45775087 0.87134942
v 0.20661107 -0.23120974 0.87134942
v 0.08088221 0.43847783 0.82097781
v 0.19877147 0.45768322 0.87134942
v 0.20661107 0.41095456 0.66309222
v 0.08088221 0.39411601 0.63928102
v 0.08088221 -0.21349207 0.87134942
v 0.20661107 -0.23249462 0.86348807
v 0.08088221 0.44097991 0.83824546
v 0.18136931 0.45572211 0.87134942
v 0.20661107 0.40013460 0.63928102
v 0.08088221 -0.20179299 0.63928102
v 0.08088221 -0.21606179 0.85553585
v 0.08088221 0.44070943 0.87134942
v 0.20661107 -0.23283272 0.84619769
v 0.08088221 -0.21680567 0.84140363
v 0.08088221 -0.21687332 0.83824546
v 0.08088221 0.44111520 0.85553585
v 0.20661107 -0.20618859 0.63928102
v 0.11228982 -0.20429510 0.63928102
v 0.20661107 -0.23276510 0.83824546
v 0.20661107 -0.21673805 0.69260630
v 0.20598342 -0.20618859 0.63928102
v 0.11871410 -0.20463323 0.63928102
v 0.20661107 -0.21802291 0.70008139
v 0.12955661 -0.20483611 0.63928102
f 1 2 3
f 1 3 6
f 1 6 12
f 1 12 16
f 1 16 9
f 1 9 4
f 1 4 10
f 1 10 17
f 1 17 23
f 1 23 27
f 1 27 24
f 1 24 21
f 1 21 13
f 1 13 7
f 1 7 2
f 2 5 6
f 2 6 3
f 2 7 8
f 2 8 5
f 4 9 10
f 5 11 6
f 5 8 14
f 5 14 19
f 5 19 18
f 5 18 15
f 5 15 9
f 5 9 16
f 5 16 20
f 5 20 11
f 6 11 12
f 7 13 8
f 8 13 21
f 8 21 25
f 8 25 28
f 8 28 26
f 8 26 22
f 8 22 14
f 9 15 10
f 10 15 18
f 10 18 19
f 10 19 17
f 11 20 12
f 12 20 16
f 14 22 23
f 14 23 19
f 17 19 23
f 21 24 25
f 22 26 27
f 22 27 23
f 24 27 26
f 24 26 28
f 24 28 25

