# https://github.com/mikedh/trimesh
v 0.21594148 0.45874044 0.87283688
v 0.21738751 0.45843618 0.87140140
v 0.19870479 0.45808848 0.87283688
v 0.19870479 0.45678457 0.89009186
v 0.21594148 0.45687147 0.89009186
v 0.28506174 0.45843618 0.87140140
v 0.20009299 0.45774078 0.87140140
v 0.19882048 0.45765388 0.87140140
v 0.18141028 0.45574146 0.87140140
v 0.18141028 0.45604572 0.87283688
v 0.19870479 0.45256859 0.90737616
v 0.08088224 0.44100725 0.90737616
v 0.08088224 0.43931219 0.92149654
v 0.08088224 0.43874718 0.92466046
v 0.28506174 0.45821888 0.87283688
v 0.21062009 0.44952617 0.91721942
v 0.41699755 0.38081009 1.14343857
v 0.28650776 0.45839273 0.87140140
v 0.08088224 0.44070300 0.87140140
v 0.08088224 0.44113765 0.90421227
v 0.08088224 0.42983711 0.95949269
v 0.08088224 0.42518648 0.97648402
v 0.16480984 0.38241825 1.15079175
v 0.17973287 0.38280940 1.14961994
v 0.30229842 0.45643687 0.87140140
v 0.17284978 0.38002773 1.15785190
v 0.40589205 0.36790139 1.16253918
v 0.42318657 0.36733636 1.16174824
v 0.47188888 0.36425044 1.15914092
v 0.47657401 0.36742329 1.15082104
v 0.44915725 0.38002773 1.12331265
v 0.52672234 0.42383912 0.87140140
v 0.46864975 0.41497252 0.95128999
v 0.08088224 0.01475916 0.87140140
v 0.08088224 0.37894115 1.11089137
v 0.08336942 0.38072316 1.10831341
v 0.15954630 0.37989736 1.15764685
v 0.17105669 0.38002773 1.15785190
v 0.31959293 0.35968675 1.17065404
v 0.40589205 0.35916517 1.17065404
v 0.40687534 0.35907827 1.17065404
v 0.44881022 0.34773423 1.17065404
v 0.46055200 0.34325750 1.17065404
v 0.48339930 0.36255535 1.15767615
v 0.42272383 0.35690508 1.17065404
v 0.42318657 0.35681815 1.17065404
v 0.48652271 0.36490239 1.14616304
v 0.54899121 0.41362514 0.89384167
v 0.53748084 0.41497252 0.90022807
v 0.54355415 0.41623296 0.88889076
v 0.55292446 0.41471175 0.88232858
v 0.54442176 0.41771072 0.87427235
v 0.54361196 0.41797152 0.87140140
v 0.08088224 0.01475916 1.10781539
v 0.66565697 0.01475916 0.87140140
v 0.08088224 0.37655066 1.11493416
v 0.13583138 0.36638015 1.16060571
v 0.14687907 0.36972685 1.16236344
v 0.16480984 0.37303008 1.16136737
v 0.08088224 0.36916185 1.12463091
v 0.30247196 0.35677470 1.17065404
v 0.14687907 0.35407993 1.16725578
v 0.47460744 0.33569482 1.17065404
v 0.63511681 0.24276950 1.17065404
v 0.63829808 0.24090056 1.17065404
v 0.64055387 0.24316068 1.16157243
v 0.57305316 0.38311366 0.94191544
v 0.56200549 0.40245500 0.90708321
v 0.55292446 0.41471175 0.88098099
v 0.57097091 0.39836942 0.90113623
v 0.55269305 0.40749679 0.87140140
v 0.11229001 0.01475916 1.11686763
v 0.08325371 0.05113822 1.14132929
v 0.08088224 0.04874773 1.13796038
v 0.66901178 0.02579892 0.87140140
v 0.60995590 0.01475916 1.16605467
v 0.08088224 0.36759714 1.12615430
v 0.10060609 0.30227126 1.16075218
v 0.11229001 0.30227126 1.16614255
v 0.28049229 0.35221102 1.17065404
v 0.11229001 0.28501618 1.16798814
v 0.12958453 0.26771765 1.16980444
v 0.14687907 0.26545753 1.17065404
v 0.14948192 0.26784805 1.17065404
v 0.18088970 0.29453473 1.17065404
v 0.19147464 0.30261896 1.17065404
v 0.27054359 0.34795156 1.17065404
v 0.64003330 0.23781464 1.17065404
v 0.64356165 0.23403331 1.16696280
v 0.64928788 0.23320751 1.14918049
v 0.64234695 0.24455152 1.14918049
v 0.62210253 0.31122478 1.02051504
v 0.57097091 0.39836942 0.89486703
v 0.56935131 0.39615276 0.88335392
v 0.60469228 0.34564799 0.91713152
v 0.62239175 0.31161596 1.01102333
v 0.62285446 0.31239829 0.99373904
v 0.56431915 0.38958976 0.87140140
v 0.23323600 0.01475916 1.14841883
v 0.08088224 0.05452840 1.14282337
v 0.21906491 0.03179690 1.15966824
v 0.21530523 0.04844348 1.17065404
v 0.67178815 0.04322784 0.87140140
v 0.65119669 0.21595242 1.14918049
v 0.64286753 0.19500294 1.17065404
v 0.60781573 0.01475916 1.17065404
v 0.08088224 0.35407993 1.12920098
v 0.09944926 0.28501618 1.16201186
v 0.08088224 0.07773799 1.14780359
v 0.19650683 0.05974404 1.17065404
v 0.13612060 0.25059296 1.17065404
v 0.64280972 0.23242515 1.17065404
v 0.64708995 0.21595242 1.16646477
v 0.65206424 0.23320751 1.13189622
v 0.64431358 0.24602928 1.13189622
v 0.65316326 0.23320751 1.11464120
v 0.60469228 0.34564799 0.91496368
v 0.60399821 0.34360520 0.90342126
v 0.58439004 0.35481884 0.87140140
v 0.58346462 0.35642698 0.87140140
v 0.57513546 0.37085691 0.87140140
v 0.59335545 0.33882419 0.87140140
v 0.65721214 0.22651410 1.09387074
v 0.65727000 0.22647063 1.08007260
v 0.62273878 0.31226791 0.98304621
v 0.36349444 0.01475916 1.17065404
v 0.23323600 0.02197411 1.15465874
v 0.08088224 0.05926593 1.14496193
v 0.21004167 0.05070359 1.17065404
v 0.66987934 0.13102443 0.87140140
v 0.65993069 0.19865389 1.06281762
v 0.65750136 0.21595242 1.09568708
v 0.65703864 0.20413031 1.09284544
v 0.64541254 0.21121489 1.17065404
v 0.08088224 0.29992422 1.13716937
v 0.08088224 0.06282995 1.14557714
v 0.19720092 0.05865744 1.17065404
v 0.64564390 0.21595242 1.17065404
v 0.62216039 0.31152901 0.94191544
v 0.62204466 0.31126823 0.93236515
v 0.60156893 0.33743335 0.89009186
v 0.65530338 0.20634696 0.87140140
v 0.65009767 0.21860372 0.87140140
v 0.65854251 0.21595242 1.08007260
v 0.66797063 0.14684521 0.87140140
v 0.66773927 0.14827950 0.87140140
v 0.66473150 0.16414375 0.87140140
v 0.19835775 0.05774471 1.17065404
f 1 2 3
f 1 3 4
f 1 4 5
f 1 5 6
f 1 6 2
f 2 7 3
f 2 6 18
f 2 18 25
f 2 25 32
f 2 32 53
f 2 53 71
f 2 71 98
f 2 98 121
f 2 121 120
f 2 120 119
f 2 119 122
f 2 122 143
f 2 143 142
f 2 142 147
f 2 147 146
f 2 146 145
f 2 145 130
f 2 130 103
f 2 103 75
f 2 75 55
f 2 55 34
f 2 34 19
f 2 19 9
f 2 9 8
f 2 8 7
f 3 7 8
f 3 8 9
f 3 9 10
f 3 10 4
f 4 11 5
f 4 10 12
f 4 12 13
f 4 13 14
f 4 14 11
f 5 15 6
f 5 11 16
f 5 16 17
f 5 17 15
f 6 15 18
f 9 19 10
f 10 19 20
f 10 20 12
f 11 17 16
f 11 14 21
f 11 21 22
f 11 22 23
f 11 23 24
f 11 24 17
f 12 20 19
f 12 19 34
f 12 34 54
f 12 54 74
f 12 74 100
f 12 100 128
f 12 128 136
f 12 136 109
f 12 109 135
f 12 135 107
f 12 107 77
f 12 77 60
f 12 60 56
f 12 56 35
f 12 35 22
f 12 22 21
f 12 21 14
f 12 14 13
f 15 17 18
f 17 25 18
f 17 24 26
f 17 26 27
f 17 27 28
f 17 28 29
f 17 29 30
f 17 30 31
f 17 31 32
f 17 32 33
f 17 33 25
f 22 35 36
f 22 36 37
f 22 37 23
f 23 37 38
f 23 38 26
f 23 26 24
f 25 33 32
f 26 38 39
f 26 39 40
f 26 40 27
f 27 40 28
f 28 40 41
f 28 41 29
f 29 42 43
f 29 43 44
f 29 44 30
f 29 41 45
f 29 45 46
f 29 46 42
f 30 44 47
f 30 47 48
f 30 48 49
f 30 49 31
f 31 49 32
f 32 49 50
f 32 50 51
f 32 51 52
f 32 52 53
f 34 55 76
f 34 76 106
f 34 106 126
f 34 126 99
f 34 99 72
f 34 72 54
f 35 56 37
f 35 37 36
f 37 57 58
f 37 58 59
f 37 59 38
f 37 56 60
f 37 60 57
f 38 59 39
f 39 61 80
f 39 80 87
f 39 87 86
f 39 86 85
f 39 85 84
f 39 84 83
f 39 83 111
f 39 111 110
f 39 110 137
f 39 137 148
f 39 148 129
f 39 129 102
f 39 102 126
f 39 126 106
f 39 106 105
f 39 105 134
f 39 134 138
f 39 138 112
f 39 112 88
f 39 88 65
f 39 65 64
f 39 64 63
f 39 63 43
f 39 43 42
f 39 42 46
f 39 46 45
f 39 45 41
f 39 41 40
f 39 59 58
f 39 58 62
f 39 62 61
f 43 63 44
f 44 63 64
f 44 64 65
f 44 65 66
f 44 66 47
f 47 66 67
f 47 67 68
f 47 68 48
f 48 68 51
f 48 51 50
f 48 50 49
f 51 69 52
f 51 68 70
f 51 70 93
f 51 93 69
f 52 69 53
f 53 69 71
f 54 72 73
f 54 73 74
f 55 75 76
f 57 62 58
f 57 60 77
f 57 77 78
f 57 78 79
f 57 79 62
f 61 62 80
f 62 79 81
f 62 81 82
f 62 82 83
f 62 83 84
f 62 84 85
f 62 85 86
f 62 86 87
f 62 87 80
f 65 88 66
f 66 88 89
f 66 89 90
f 66 90 91
f 66 91 92
f 66 92 67
f 67 70 68
f 67 92 70
f 69 93 94
f 69 94 71
f 70 95 117
f 70 117 93
f 70 92 96
f 70 96 97
f 70 97 95
f 71 94 98
f 72 99 73
f 73 100 74
f 73 99 101
f 73 101 102
f 73 102 100
f 75 103 104
f 75 104 76
f 76 104 105
f 76 105 106
f 77 107 78
f 78 107 108
f 78 108 81
f 78 81 79
f 81 108 109
f 81 109 110
f 81 110 111
f 81 111 82
f 82 111 83
f 88 112 89
f 89 112 90
f 90 113 104
f 90 104 114
f 90 114 115
f 90 115 91
f 90 112 113
f 91 115 92
f 92 115 114
f 92 114 116
f 92 116 96
f 93 117 118
f 93 118 94
f 94 119 120
f 94 120 121
f 94 121 98
f 94 118 122
f 94 122 119
f 95 97 117
f 96 116 123
f 96 123 97
f 97 123 124
f 97 124 125
f 97 125 117
f 99 126 127
f 99 127 101
f 100 102 129
f 100 129 128
f 101 127 126
f 101 126 102
f 103 130 131
f 103 131 132
f 103 132 133
f 103 133 104
f 104 133 132
f 104 132 123
f 104 123 114
f 104 113 134
f 104 134 105
f 107 135 108
f 108 135 109
f 109 136 137
f 109 137 110
f 112 138 113
f 113 138 134
f 114 123 116
f 117 125 139
f 117 139 140
f 117 140 118
f 118 141 122
f 118 140 142
f 118 142 143
f 118 143 141
f 122 141 143
f 123 132 144
f 123 144 130
f 123 130 145
f 123 145 124
f 124 145 146
f 124 146 147
f 124 147 142
f 124 142 140
f 124 140 139
f 124 139 125
f 128 129 148
f 128 148 137
f 128 137 136
f 130 144 131
f 131 144 132

