# https://github.com/mikedh/trimesh
v -0.44779677 0.13593895 1.00352483
v -0.44779677 0.15686048 0.99433309
v -0.47176934 0.13593895 0.99704888
v -0.44779677 0.13593895 0.31087354
v -0.44779677 0.16216922 0.99140847
v -0.48744911 0.13593895 0.99175663
v -0.54413316 0.13593895 0.30070699
v -0.44779677 0.21588353 0.29395243
v -0.46790868 0.15685069 0.98604668
v -0.44779677 0.23441515 0.93242832
v -0.44785252 0.23599211 0.93235872
v -0.57068421 0.20792041 0.88194356
v -0.53820970 0.13593895 0.95902858
v -0.56140178 0.13593895 0.29903575
v -0.59018283 0.13593895 0.29659855
v -0.44779677 0.22004629 0.29325609
v -0.44779677 0.23599211 0.93110526
v -0.56877473 0.22407192 0.86328158
v -0.56237739 0.22008547 0.87275181
v -0.57843348 0.23599211 0.83765619
v -0.59018283 0.20896845 0.86613657
v -0.59018283 0.19965366 0.87428375
v -0.54195891 0.13593895 0.95659138
v -0.59018283 0.14338294 0.29652889
v -0.44779677 0.23289697 0.29214194
v -0.59018283 0.13593895 0.91501977
v -0.44779677 0.23599211 0.29221160
v -0.59018283 0.21610880 0.85638780
v -0.59018283 0.23599211 0.82693254
v -0.59018283 0.19293447 0.87881001
v -0.57192464 0.13593895 0.93521370
v -0.59018283 0.15902511 0.29687706
v -0.58188997 0.13593895 0.92462931
v -0.59018283 0.18939858 0.88117756
v -0.59018283 0.16507826 0.29701637
v -0.45929525 0.23599211 0.29290793
v -0.59018283 0.23599211 0.30767040
v -0.59018283 0.23320061 0.30718292
v -0.49122616 0.23599211 0.29541474
v -0.49094744 0.23217217 0.29499697
v -0.48248732 0.23599211 0.29464880
f 1 2 3
f 1 3 6
f 1 6 13
f 1 13 23
f 1 23 31
f 1 31 33
f 1 33 26
f 1 26 15
f 1 15 14
f 1 14 7
f 1 7 4
f 1 4 8
f 1 8 16
f 1 16 25
f 1 25 27
f 1 27 17
f 1 17 10
f 1 10 5
f 1 5 2
f 2 5 6
f 2 6 3
f 4 7 8
f 5 9 6
f 5 10 11
f 5 11 9
f 6 9 11
f 6 11 12
f 6 12 13
f 7 14 8
f 8 14 15
f 8 15 16
f 10 17 11
f 11 18 19
f 11 19 12
f 11 17 27
f 11 27 36
f 11 36 41
f 11 41 39
f 11 39 37
f 11 37 29
f 11 29 20
f 11 20 18
f 12 19 18
f 12 18 21
f 12 21 22
f 12 22 23
f 12 23 13
f 15 24 25
f 15 25 16
f 15 26 34
f 15 34 30
f 15 30 22
f 15 22 21
f 15 21 28
f 15 28 29
f 15 29 37
f 15 37 38
f 15 38 35
f 15 35 32
f 15 32 24
f 18 28 21
f 18 20 28
f 20 29 28
f 22 30 31
f 22 31 23
f 24 32 25
f 25 32 27
f 26 33 34
f 27 32 35
f 27 35 36
f 30 34 31
f 31 34 33
f 35 38 39
f 35 39 40
f 35 40 41
f 35 41 36
f 37 39 38
f 39 41 40

