# https://github.com/mikedh/trimesh
v 0.08089086 -0.22120194 0.92341168
v 0.08089086 -0.22071699 0.94319021
v 0.08089086 -0.21351198 0.87137211
v 0.16919769 -0.21686047 0.87137211
v 0.16919769 -0.21676809 0.87199252
v 0.16919769 -0.21658335 0.87300996
v 0.16919769 -0.20328180 0.92487585
v 0.16919769 -0.20150365 0.92973983
v 0.16919769 -0.19409081 0.94678854
v 0.08089086 -0.21972400 0.94537402
v 0.08089086 0.01471571 0.87137211
v 0.16919769 0.01471571 0.87137211
v 0.16919769 -0.18700128 0.96118196
v 0.08089086 -0.21351198 0.95862588
v 0.08089086 0.01471571 1.10782088
v 0.16919769 0.01471571 1.12407550
v 0.16919769 -0.17700202 0.98024078
v 0.08089086 -0.19462195 0.98964611
v 0.16919769 -0.14887480 1.02910389
v 0.08089086 -0.02687471 1.09446977
v 0.14773915 -0.02518892 1.12037787
v 0.15411101 -0.01893073 1.12357916
v 0.11228328 0.01471571 1.11687881
v 0.12954867 0.01471571 1.12082458
v 0.16919769 -0.00472856 1.12489445
v 0.08089086 -0.19300544 0.99212776
v 0.16919769 -0.14675025 1.03237963
v 0.08089086 -0.03479559 1.09129329
v 0.16409675 -0.02964586 1.12189167
v 0.08089086 -0.08019635 1.06970319
v 0.12066093 -0.06922719 1.08878688
v 0.16919769 -0.09185829 1.09337786
v 0.16409675 -0.02100909 1.12429887
v 0.15411101 -0.01595174 1.12357916
v 0.16919769 -0.02082435 1.12432368
v 0.08089086 -0.19037284 0.99587501
v 0.16919769 -0.14097701 1.04061861
v 0.16919769 -0.02578934 1.12293396
v 0.08089086 -0.14799726 1.03515906
v 0.16919769 -0.09802411 1.08881169
v 0.08089086 -0.18785571 0.99924999
v 0.16919769 -0.13312540 1.04970135
v 0.08089086 -0.15007564 1.03347154
v 0.16919769 -0.10495199 1.08136683
v 0.08089086 -0.16007488 1.02498441
v 0.16919769 -0.10860068 1.07734657
f 1 2 10
f 1 10 14
f 1 14 18
f 1 18 26
f 1 26 36
f 1 36 41
f 1 41 45
f 1 45 43
f 1 43 39
f 1 39 30
f 1 30 28
f 1 28 20
f 1 20 15
f 1 15 11
f 1 11 3
f 1 3 4
f 1 4 2
f 2 4 5
f 2 5 6
f 2 6 7
f 2 7 8
f 2 8 9
f 2 9 10
f 3 11 12
f 3 12 4
f 4 12 16
f 4 16 25
f 4 25 35
f 4 35 38
f 4 38 32
f 4 32 40
f 4 40 44
f 4 44 46
f 4 46 42
f 4 42 37
f 4 37 27
f 4 27 19
f 4 19 17
f 4 17 13
f 4 13 9
f 4 9 8
f 4 8 7
f 4 7 6
f 4 6 5
f 9 13 14
f 9 14 10
f 11 15 23
f 11 23 24
f 11 24 16
f 11 16 12
f 13 17 14
f 14 17 19
f 14 19 18
f 15 20 21
f 15 21 22
f 15 22 23
f 16 24 25
f 18 19 27
f 18 27 26
f 20 28 21
f 21 29 22
f 21 28 30
f 21 30 31
f 21 31 32
f 21 32 29
f 22 29 33
f 22 33 25
f 22 25 34
f 22 34 24
f 22 24 23
f 24 34 25
f 25 33 35
f 26 27 37
f 26 37 36
f 29 38 35
f 29 35 33
f 29 32 38
f 30 39 31
f 31 39 32
f 32 39 40
f 36 37 41
f 37 42 41
f 39 43 40
f 40 43 45
f 40 45 41
f 40 41 44
f 41 42 46
f 41 46 44

