# https://github.com/mikedh/trimesh
v 0.07772190 0.40548075 0.56346198
v 0.07614176 0.40548075 0.56346198
v 0.08058253 0.40527559 0.56346198
v 0.07772190 0.40589110 0.56187033
v -0.04317341 0.40301882 0.56346198
v 0.08088221 0.40520723 0.56346198
v 0.08088221 0.40554916 0.56187033
v 0.08088221 0.40595947 0.55872493
v 0.08088221 0.40698528 0.54458961
v 0.07772190 0.40705364 0.54458961
v -0.00862800 0.40725880 0.52730889
v -0.02590071 0.40698528 0.52730889
v -0.04476719 0.40288204 0.56346198
v -0.04317341 0.40568590 0.52730889
v 0.08088221 -0.20378015 0.56346198
v 0.08088221 0.40691686 0.54144421
v -0.02590071 0.40739558 0.51004713
v -0.04317341 0.40630140 0.51004713
v -0.05828022 0.40110399 0.56346198
v -0.05828022 0.40431815 0.51004713
v -0.05828022 0.40370270 0.52512986
v -0.05828022 0.40356591 0.52730889
v 0.04328547 -0.20993501 0.56346198
v 0.08088221 -0.29001634 0.37346882
v 0.08088221 0.40630140 0.52730889
v -0.05828022 0.40507044 0.47550463
v 0.06044920 0.40582268 0.51004713
v 0.06044920 0.40472851 0.49276640
v -0.05828022 0.40452335 0.45824287
v -0.05828022 0.40479687 0.49276640
v -0.05828022 -0.19885628 0.56346198
v 0.02760654 -0.21246532 0.56346198
v 0.02590379 -0.21273887 0.56346198
v 0.01022486 -0.21308080 0.56346198
v 0.00864470 -0.21301241 0.56346198
v 0.08088221 -0.29124731 0.36988763
v 0.08088221 0.40493366 0.51004713
v 0.07772190 0.40520723 0.51004713
v 0.07772190 0.40308719 0.49276640
v -0.05828022 0.39905237 0.42538676
v -0.05828022 0.40240332 0.44092426
v -0.04317341 0.40404463 0.45824287
v -0.05828022 -0.20179692 0.54676864
v -0.01015367 -0.20979822 0.56346198
v 0.08088221 0.32539942 0.36988763
v 0.07580120 -0.28905890 0.36988763
v 0.08088221 0.40240332 0.49284220
v 0.08088221 0.40158271 0.48986733
v 0.08088221 0.39898400 0.48134067
v 0.07772190 0.39932589 0.48065854
v -0.05828022 0.39618009 0.41706851
v -0.05828022 -0.20466920 0.52931740
v -0.05828022 0.37067168 0.36988763
v -0.05828022 0.37115040 0.37060764
v 0.05935944 -0.28105763 0.36988763
v -0.05828022 0.39392332 0.41248309
v -0.05828022 0.37839944 0.38358713
v -0.05828022 0.38209238 0.39033267
v -0.05828022 -0.20487435 0.52730889
v -0.05828022 -0.21547436 0.36988763
v 0.05735701 -0.28003182 0.36988763
v -0.05828022 -0.21588469 0.37187718
v 0.03964839 -0.27093631 0.36988763
f 1 2 5
f 1 5 13
f 1 13 19
f 1 19 31
f 1 31 44
f 1 44 35
f 1 35 34
f 1 34 33
f 1 33 32
f 1 32 23
f 1 23 15
f 1 15 6
f 1 6 3
f 1 3 4
f 1 4 2
f 2 4 5
f 3 6 7
f 3 7 4
f 4 7 8
f 4 8 9
f 4 9 10
f 4 10 11
f 4 11 12
f 4 12 5
f 5 12 14
f 5 14 13
f 6 15 24
f 6 24 36
f 6 36 45
f 6 45 49
f 6 49 48
f 6 48 47
f 6 47 37
f 6 37 25
f 6 25 16
f 6 16 9
f 6 9 8
f 6 8 7
f 9 16 10
f 10 16 17
f 10 17 11
f 11 17 12
f 12 17 18
f 12 18 14
f 13 14 19
f 14 18 20
f 14 20 21
f 14 21 22
f 14 22 19
f 15 23 24
f 16 25 17
f 17 26 18
f 17 25 27
f 17 27 28
f 17 28 29
f 17 29 26
f 18 26 30
f 18 30 20
f 19 22 21
f 19 21 20
f 19 20 30
f 19 30 26
f 19 26 29
f 19 29 41
f 19 41 40
f 19 40 51
f 19 51 56
f 19 56 58
f 19 58 57
f 19 57 54
f 19 54 53
f 19 53 60
f 19 60 62
f 19 62 59
f 19 59 52
f 19 52 43
f 19 43 31
f 23 32 24
f 24 32 33
f 24 33 34
f 24 34 35
f 24 35 36
f 25 37 38
f 25 38 28
f 25 28 27
f 28 39 40
f 28 40 41
f 28 41 42
f 28 42 29
f 28 38 37
f 28 37 39
f 29 42 41
f 31 43 36
f 31 36 44
f 35 44 36
f 36 43 46
f 36 46 55
f 36 55 61
f 36 61 63
f 36 63 60
f 36 60 53
f 36 53 45
f 37 47 39
f 39 47 48
f 39 48 49
f 39 49 50
f 39 50 40
f 40 50 51
f 43 52 46
f 45 53 54
f 45 54 49
f 46 52 55
f 49 56 50
f 49 54 57
f 49 57 58
f 49 58 56
f 50 56 51
f 52 59 55
f 55 59 61
f 59 62 63
f 59 63 61
f 60 63 62

