# https://github.com/mikedh/trimesh
v -0.11793669 0.06173571 0.15548349
v -0.11793669 0.03795428 0.09847419
v -0.12419717 0.05923617 0.15548349
v -0.11793669 -0.18145854 0.15548349
v -0.11793669 0.02995573 0.09047487
v -0.12330616 0.03654978 0.10119939
v -0.13073121 0.05540352 0.15548349
v -0.19776766 -0.16924646 0.15548349
v -0.11793669 -0.17967315 0.09495516
v -0.11793669 0.00265112 0.06669746
v -0.12120371 0.00050865 0.06904345
v -0.17589113 0.02110018 0.15548349
v -0.16757507 0.02990811 0.15548349
v -0.16315131 0.03424067 0.15548349
v -0.15371759 0.04073950 0.15548349
v -0.14339287 0.04740496 0.15548349
v -0.19776766 -0.16615178 0.13002157
v -0.19776766 -0.02270145 0.15548349
v -0.11793669 -0.17719741 0.08247555
v -0.11793669 -0.00394293 0.06538335
v -0.19776766 -0.02717683 0.15336680
v -0.18505911 0.00400803 0.15548349
v -0.18282378 0.00862623 0.15548349
v -0.17911125 0.01593444 0.15548349
v -0.19776766 -0.14748847 0.10869599
v -0.19776766 -0.14689334 0.10885471
v -0.19776766 -0.13103907 0.11308809
v -0.19776766 -0.09499794 0.12309826
v -0.19776766 -0.07869135 0.12993339
v -0.19776766 -0.16246197 0.12011725
v -0.11793669 -0.16391408 0.07653120
v -0.19776766 -0.15960534 0.11299110
v -0.19035042 -0.15567747 0.10393344
v -0.11793669 -0.00475230 0.06538335
v -0.19035042 -0.15377306 0.10393344
f 1 2 3
f 1 3 7
f 1 7 16
f 1 16 15
f 1 15 14
f 1 14 13
f 1 13 12
f 1 12 24
f 1 24 23
f 1 23 22
f 1 22 18
f 1 18 8
f 1 8 4
f 1 4 9
f 1 9 19
f 1 19 31
f 1 31 34
f 1 34 20
f 1 20 10
f 1 10 5
f 1 5 2
f 2 5 6
f 2 6 3
f 3 6 7
f 4 8 9
f 5 10 6
f 6 10 11
f 6 11 12
f 6 12 13
f 6 13 14
f 6 14 15
f 6 15 16
f 6 16 7
f 8 17 9
f 8 18 21
f 8 21 29
f 8 29 28
f 8 28 27
f 8 27 26
f 8 26 25
f 8 25 32
f 8 32 30
f 8 30 17
f 9 17 19
f 10 20 11
f 11 21 18
f 11 18 22
f 11 22 23
f 11 23 24
f 11 24 12
f 11 20 25
f 11 25 26
f 11 26 27
f 11 27 28
f 11 28 29
f 11 29 21
f 17 30 19
f 19 30 32
f 19 32 33
f 19 33 31
f 20 34 33
f 20 33 35
f 20 35 25
f 25 35 33
f 25 33 32
f 31 33 34

