# https://github.com/mikedh/trimesh
v -0.44779677 0.29779690 0.95288330
v -0.45012432 0.29620644 0.95120168
v -0.44779677 0.29509584 0.95288330
v -0.44779677 0.30751792 0.94880863
v -0.44801978 0.30770986 0.94854994
v -0.46725359 0.29560316 0.93464447
v -0.45012432 0.29250450 0.95120168
v -0.59018283 0.23600189 0.82695785
v -0.57843348 0.23600189 0.83769417
v -0.44779677 0.29094146 0.95243053
v -0.44779677 0.30781957 0.94867932
v -0.45164353 0.31250869 0.93703751
v -0.59018283 0.27849197 0.79940560
v -0.59018283 0.27207525 0.80781356
v -0.59018283 0.26325916 0.81311705
v -0.59018283 0.23600189 0.30766907
v -0.44785252 0.23600189 0.93238080
v -0.44779677 0.23600189 0.93115195
v -0.44779677 0.31400318 0.93910715
v -0.53475317 0.31012298 0.82799266
v -0.59018283 0.28349643 0.78718171
v -0.59018283 0.24714886 0.30928598
v -0.44892569 0.27609254 0.29415166
v -0.46590164 0.25782964 0.29421632
v -0.49122616 0.23600189 0.29544517
v -0.44779677 0.23600189 0.29221134
v -0.44779677 0.32967474 0.90250016
v -0.45118360 0.32914000 0.90075388
v -0.48625048 0.32941422 0.84933596
v -0.52814677 0.31544282 0.82171905
v -0.53688561 0.31193282 0.81648023
v -0.59018283 0.32527352 0.64217667
v -0.59018283 0.28911790 0.76913694
v -0.59018283 0.25578672 0.31368400
v -0.44892569 0.32796086 0.31154965
v -0.44779677 0.32683656 0.31070886
v -0.44779677 0.31944639 0.30728100
v -0.49231334 0.28503206 0.30301236
v -0.44779677 0.28556679 0.29602726
v -0.44779677 0.27769672 0.29428103
v -0.44779677 0.27498197 0.29395762
v -0.44779677 0.26711192 0.29331087
v -0.44779677 0.25085081 0.29214668
v -0.45919769 0.25144037 0.29318149
v -0.48248732 0.23600189 0.29460438
v -0.45929525 0.23600189 0.29292281
v -0.44779677 0.33136117 0.89739073
v -0.44779677 0.33332183 0.89008224
v -0.45777604 0.33733912 0.85548024
v -0.57867040 0.33657131 0.61371894
v -0.59018283 0.33179992 0.61371894
v -0.59018283 0.32963360 0.62419657
v -0.59018283 0.32898919 0.62717170
v -0.59018283 0.31854149 0.34841538
v -0.44779677 0.32942794 0.31213175
v -0.59018283 0.33402109 0.35759943
v -0.44779677 0.36015404 0.33043524
v -0.44779677 0.30230779 0.30068397
v -0.45777604 0.30230779 0.30268895
v -0.44779677 0.29184636 0.29764418
v -0.44779677 0.33659872 0.87313697
v -0.44779677 0.33947802 0.85548024
v -0.45777604 0.33929977 0.83821159
v -0.56140178 0.34110961 0.61371894
v -0.57867040 0.33825775 0.59645028
v -0.59018283 0.33399365 0.59606223
v -0.59018283 0.34280977 0.37079349
v -0.56997336 0.34545597 0.36329100
v -0.44779677 0.36759907 0.33877855
v -0.44779677 0.36152514 0.33172880
v -0.44779677 0.35990724 0.64819161
v -0.56140178 0.34232989 0.59645028
v -0.59018283 0.34113702 0.51010697
v -0.59018283 0.33994418 0.52737564
v -0.59018283 0.34570277 0.37868403
v -0.44779677 0.37426256 0.35397754
v -0.44779677 0.37607240 0.37971884
v -0.47504466 0.37036867 0.40643030
v -0.49231334 0.36772247 0.40643030
v -0.51082239 0.36430845 0.40688304
v -0.51740094 0.36260830 0.41289796
v -0.51896195 0.36300591 0.40138554
v -0.59018283 0.34659398 0.40643030
v -0.59018283 0.34608666 0.38094770
v -0.58970895 0.34599070 0.37920146
v -0.44779677 0.37553766 0.36193279
v -0.51896195 0.36300591 0.39582333
v -0.59018283 0.34700529 0.38916163
v -0.59018283 0.34663511 0.40494277
v -0.57867040 0.34951439 0.38916163
f 1 2 7
f 1 7 3
f 1 3 10
f 1 10 18
f 1 18 26
f 1 26 43
f 1 43 42
f 1 42 41
f 1 41 40
f 1 40 39
f 1 39 60
f 1 60 58
f 1 58 37
f 1 37 36
f 1 36 55
f 1 55 57
f 1 57 70
f 1 70 69
f 1 69 76
f 1 76 86
f 1 86 77
f 1 77 71
f 1 71 62
f 1 62 61
f 1 61 48
f 1 48 47
f 1 47 27
f 1 27 19
f 1 19 11
f 1 11 4
f 1 4 5
f 1 5 6
f 1 6 2
f 2 6 8
f 2 8 9
f 2 9 7
f 3 7 10
f 4 11 5
f 5 11 12
f 5 12 13
f 5 13 14
f 5 14 6
f 6 14 15
f 6 15 8
f 7 9 10
f 8 15 14
f 8 14 13
f 8 13 21
f 8 21 33
f 8 33 32
f 8 32 53
f 8 53 52
f 8 52 51
f 8 51 66
f 8 66 74
f 8 74 73
f 8 73 83
f 8 83 89
f 8 89 88
f 8 88 84
f 8 84 75
f 8 75 67
f 8 67 56
f 8 56 54
f 8 54 34
f 8 34 22
f 8 22 16
f 8 16 25
f 8 25 45
f 8 45 46
f 8 46 26
f 8 26 18
f 8 18 17
f 8 17 9
f 9 17 10
f 10 17 18
f 11 19 12
f 12 19 20
f 12 20 13
f 13 20 21
f 16 22 23
f 16 23 24
f 16 24 25
f 19 27 28
f 19 28 20
f 20 28 29
f 20 29 30
f 20 30 31
f 20 31 32
f 20 32 33
f 20 33 21
f 22 34 35
f 22 35 36
f 22 36 37
f 22 37 38
f 22 38 39
f 22 39 40
f 22 40 23
f 23 40 41
f 23 41 42
f 23 42 24
f 24 42 43
f 24 43 44
f 24 44 25
f 25 44 45
f 26 46 43
f 27 47 28
f 28 47 29
f 29 47 48
f 29 48 49
f 29 49 50
f 29 50 51
f 29 51 52
f 29 52 53
f 29 53 30
f 30 53 31
f 31 53 32
f 34 54 35
f 35 55 36
f 35 54 56
f 35 56 57
f 35 57 55
f 37 58 59
f 37 59 38
f 38 59 58
f 38 58 60
f 38 60 39
f 43 46 45
f 43 45 44
f 48 61 49
f 49 61 62
f 49 62 63
f 49 63 64
f 49 64 50
f 50 64 65
f 50 65 66
f 50 66 51
f 56 67 68
f 56 68 69
f 56 69 70
f 56 70 57
f 62 71 63
f 63 71 64
f 64 71 72
f 64 72 65
f 65 72 73
f 65 73 74
f 65 74 66
f 67 75 68
f 68 76 69
f 68 75 76
f 71 77 78
f 71 78 79
f 71 79 80
f 71 80 72
f 72 80 81
f 72 81 82
f 72 82 73
f 73 82 83
f 75 84 85
f 75 85 76
f 76 85 86
f 77 86 87
f 77 87 82
f 77 82 79
f 77 79 78
f 79 82 80
f 80 82 81
f 82 87 88
f 82 88 89
f 82 89 83
f 84 88 86
f 84 86 85
f 86 88 90
f 86 90 87
f 87 90 88

