# https://github.com/mikedh/trimesh
v 0.38910424 -0.29796632 0.87143654
v 0.38910424 -0.29784387 0.87282134
v 0.38865218 -0.29778266 0.87282134
v 0.38865218 -0.29790511 0.87137213
v 0.38910424 -0.29781329 0.87137213
v 0.38910424 -0.29775208 0.87333660
v 0.37631724 -0.29432407 0.88373870
v 0.37345413 -0.29539533 0.87282134
v 0.35410140 -0.29000847 0.89011523
v 0.37319582 -0.29536470 0.87137213
v 0.38910424 0.01471571 0.87137213
v 0.38910424 -0.29515046 0.88673376
v 0.35410140 -0.28679472 0.90737690
v 0.35410140 -0.29101852 0.87282134
v 0.30379291 -0.27513343 0.87137213
v 0.30962671 -0.27703107 0.87137213
v 0.28075906 -0.24060864 1.02830537
v 0.35423057 -0.29104910 0.87137213
v 0.16920635 0.01471571 0.87137213
v 0.38910424 0.01471571 1.19676786
v 0.38910424 -0.29505865 0.88708800
v 0.37138755 -0.28003058 0.94193250
v 0.37138755 -0.28434618 0.92463863
v 0.37138755 -0.28860057 0.90737690
v 0.36148516 -0.27675562 0.95156167
v 0.35410140 -0.28238733 0.92463863
v 0.29298636 -0.24198594 1.03738708
v 0.28939137 -0.24330205 1.02830537
v 0.20100168 -0.22781487 0.89011523
v 0.16920635 -0.21676572 0.87201622
v 0.16920635 -0.21685754 0.87137213
v 0.28633453 -0.23797642 1.04411785
v 0.26950046 -0.22992675 1.04553483
v 0.16920635 -0.21658206 0.87301457
v 0.16920635 0.01471571 1.12408198
v 0.23320601 0.01471571 1.14842872
v 0.38910424 -0.00863750 1.20005275
v 0.38910424 -0.28505013 0.92463863
v 0.37138755 -0.27703107 0.95220579
v 0.30228601 -0.23898645 1.04640438
v 0.30148952 -0.22992675 1.06411692
v 0.28502140 -0.22937583 1.06018797
v 0.27285866 -0.22732516 1.05712854
v 0.16920635 -0.19408586 0.94679541
v 0.16920635 -0.20149277 0.92975916
v 0.16920635 -0.20326798 0.92489624
v 0.16920635 -0.00471980 1.12488709
v 0.17465268 0.01471571 1.12717361
v 0.21815867 0.01471571 1.14340480
v 0.38910424 -0.02467561 1.20034260
v 0.38910424 -0.27923479 0.94376819
v 0.38406693 -0.27684741 0.95175491
v 0.37138755 -0.27348066 0.96083662
v 0.31955064 -0.23243653 1.06279654
v 0.31955064 -0.23920071 1.04608234
v 0.30669904 -0.22579481 1.07332746
v 0.30148952 -0.21933671 1.07947856
v 0.28502140 -0.22221377 1.06881881
v 0.20845000 -0.17171207 1.05220121
v 0.16920635 -0.17700710 0.98022381
v 0.16920635 -0.18701561 0.96119089
v 0.28607622 -0.21263375 1.08054131
v 0.27087819 -0.21046065 1.07509871
v 0.25936125 -0.20648173 1.07107313
v 0.16920635 -0.02081912 1.12430742
v 0.21594138 0.01471571 1.14263186
v 0.21462823 0.01471571 1.14214877
v 0.29580641 -0.11894546 1.13989446
v 0.32376992 -0.14110499 1.14221322
v 0.38910424 -0.04303987 1.19390166
v 0.16920635 -0.02577747 1.12292263
v 0.38910424 -0.27654136 0.95104641
v 0.36656551 -0.20776723 1.10678808
v 0.33683679 -0.23139589 1.06279654
v 0.31955064 -0.22640695 1.07422920
v 0.34374693 -0.20767540 1.10643384
v 0.31955064 -0.21186857 1.09435707
v 0.30228601 -0.20981790 1.09120104
v 0.29253430 -0.20779784 1.08917217
v 0.19060415 -0.15466393 1.05332839
v 0.16920635 -0.14887918 1.02914268
v 0.20360644 -0.10514166 1.10778645
v 0.19208951 -0.10045877 1.10395411
v 0.16920635 -0.09804081 1.08878570
v 0.31225298 -0.13620785 1.13986224
v 0.36378852 -0.17067144 1.14024871
v 0.37530546 -0.17468097 1.14179452
v 0.38910424 -0.16409091 1.14981350
v 0.16920635 -0.09185818 1.09339092
v 0.38910424 -0.20608383 1.10324557
v 0.38865218 -0.20614504 1.10340660
v 0.37808245 -0.20700205 1.10517785
v 0.38910424 -0.19938088 1.11500028
v 0.38910424 -0.19203519 1.12665835
v 0.38865218 -0.19215761 1.12656177
v 0.35410140 -0.20795087 1.10691689
v 0.38910424 -0.18511797 1.13554685
v 0.37138755 -0.19224943 1.12585324
v 0.38910424 -0.17673163 1.14382344
v 0.35961231 -0.19123940 1.12437182
v 0.33223002 -0.20537988 1.10485579
v 0.34809537 -0.18863779 1.12240735
v 0.16920635 -0.13314714 1.04972145
v 0.16920635 -0.14101316 1.04060755
v 0.16920635 -0.14676730 1.03239535
v 0.16920635 -0.10495801 1.08137861
v 0.16920635 -0.10863087 1.07735303
v 0.38910424 -0.17618071 1.14411328
v 0.38910424 -0.20583899 1.10369644
f 1 2 3
f 1 3 4
f 1 4 5
f 1 5 11
f 1 11 20
f 1 20 37
f 1 37 50
f 1 50 70
f 1 70 88
f 1 88 108
f 1 108 99
f 1 99 97
f 1 97 94
f 1 94 93
f 1 93 109
f 1 109 90
f 1 90 72
f 1 72 51
f 1 51 38
f 1 38 21
f 1 21 12
f 1 12 6
f 1 6 2
f 2 6 7
f 2 7 3
f 3 8 4
f 3 7 9
f 3 9 8
f 4 8 10
f 4 10 18
f 4 18 16
f 4 16 15
f 4 15 31
f 4 31 19
f 4 19 11
f 4 11 5
f 6 12 7
f 7 12 13
f 7 13 9
f 8 9 14
f 8 14 10
f 9 15 16
f 9 16 14
f 9 13 17
f 9 17 15
f 10 14 18
f 11 19 35
f 11 35 48
f 11 48 67
f 11 67 66
f 11 66 49
f 11 49 36
f 11 36 20
f 12 21 22
f 12 22 23
f 12 23 24
f 12 24 13
f 13 24 25
f 13 25 26
f 13 26 27
f 13 27 28
f 13 28 17
f 14 16 18
f 15 29 30
f 15 30 31
f 15 17 29
f 17 28 27
f 17 27 32
f 17 32 33
f 17 33 34
f 17 34 30
f 17 30 29
f 19 31 30
f 19 30 34
f 19 34 46
f 19 46 45
f 19 45 44
f 19 44 61
f 19 61 60
f 19 60 81
f 19 81 105
f 19 105 104
f 19 104 103
f 19 103 107
f 19 107 106
f 19 106 84
f 19 84 89
f 19 89 71
f 19 71 65
f 19 65 47
f 19 47 35
f 20 36 37
f 21 38 22
f 22 38 39
f 22 39 25
f 22 25 23
f 23 25 24
f 25 39 27
f 25 27 26
f 27 40 32
f 27 39 40
f 32 40 41
f 32 41 42
f 32 42 43
f 32 43 33
f 33 43 44
f 33 44 45
f 33 45 46
f 33 46 34
f 35 47 48
f 36 49 50
f 36 50 37
f 38 51 39
f 39 51 52
f 39 52 53
f 39 53 54
f 39 54 55
f 39 55 40
f 40 55 54
f 40 54 56
f 40 56 41
f 41 56 42
f 42 56 57
f 42 57 58
f 42 58 43
f 43 59 60
f 43 60 61
f 43 61 44
f 43 58 62
f 43 62 63
f 43 63 64
f 43 64 59
f 47 65 66
f 47 66 67
f 47 67 48
f 49 66 65
f 49 65 50
f 50 68 69
f 50 69 70
f 50 65 71
f 50 71 68
f 51 72 52
f 52 72 73
f 52 73 74
f 52 74 54
f 52 54 53
f 54 74 73
f 54 73 75
f 54 75 56
f 56 75 76
f 56 76 77
f 56 77 57
f 57 77 78
f 57 78 58
f 58 78 79
f 58 79 62
f 59 64 80
f 59 80 60
f 60 80 81
f 62 79 63
f 63 79 82
f 63 82 64
f 64 82 83
f 64 83 84
f 64 84 80
f 68 85 69
f 68 71 82
f 68 82 85
f 69 86 87
f 69 87 88
f 69 88 70
f 69 85 79
f 69 79 86
f 71 89 83
f 71 83 82
f 72 90 91
f 72 91 92
f 72 92 73
f 73 92 93
f 73 93 94
f 73 94 95
f 73 95 96
f 73 96 75
f 75 96 76
f 76 96 97
f 76 97 98
f 76 98 99
f 76 99 100
f 76 100 101
f 76 101 78
f 76 78 77
f 78 101 102
f 78 102 79
f 79 102 87
f 79 87 86
f 79 85 82
f 80 103 104
f 80 104 105
f 80 105 81
f 80 84 106
f 80 106 107
f 80 107 103
f 83 89 84
f 87 99 108
f 87 108 88
f 87 102 101
f 87 101 100
f 87 100 99
f 90 109 91
f 91 109 93
f 91 93 92
f 94 97 95
f 95 97 96
f 97 99 98

