# https://github.com/mikedh/trimesh
v 0.50959138 -0.32195740 0.87137213
v 0.50760921 -0.32172669 0.87137213
v 0.52416451 -0.31810158 0.87137213
v 0.57207157 -0.29473617 0.95303099
v 0.56140698 -0.29608734 0.95575418
v 0.54716883 -0.29582371 0.95501819
v 0.49102600 -0.31918912 0.87137213
v 0.38915366 -0.27924709 0.94379424
v 0.52765425 -0.31704702 0.87137213
v 0.56140698 -0.29144062 0.96440217
v 0.54256237 -0.31062070 0.87137213
v 0.54630339 -0.30897292 0.87137213
v 0.57207157 -0.29480207 0.94191745
v 0.58069823 -0.28623365 0.94191745
v 0.58798480 -0.27783003 0.95189020
v 0.62249126 -0.15602658 1.12507036
v 0.62014620 -0.15269808 1.13658872
v 0.60861611 -0.15843234 1.14453748
v 0.59591344 -0.16143128 1.14983662
v 0.57933023 -0.16940651 1.14921103
v 0.56620881 -0.17177931 1.15498863
v 0.56082071 -0.16736327 1.16540298
v 0.54412579 -0.17013153 1.17044455
v 0.42324137 -0.17375663 1.17636935
v 0.38915366 -0.27654475 0.95104381
v 0.38915366 -0.20608594 1.10324805
v 0.38915366 -0.28504725 0.92465832
v 0.38915366 -0.29516460 0.88671767
v 0.38915366 -0.29783399 0.87284412
v 0.38915366 -0.29796580 0.87144573
v 0.38915366 -0.29780104 0.87137213
v 0.53206530 -0.17191112 1.17353573
v 0.52056311 -0.17316342 1.17567014
v 0.50959138 -0.17336116 1.17592775
v 0.43625113 -0.17372368 1.17636935
v 0.55836394 -0.30122838 0.87137213
v 0.55970399 -0.30010790 0.87137213
v 0.56830270 -0.29117698 0.87137213
v 0.65981748 -0.18169889 0.87137213
v 0.58790104 -0.27759931 0.94191745
v 0.66015252 -0.18123752 0.87137213
v 0.62983368 -0.14683201 1.11461915
v 0.62553435 -0.14689792 1.13125271
v 0.62316128 -0.14119662 1.14214547
v 0.61258045 -0.14600813 1.14910065
v 0.60163663 -0.15078667 1.15605583
v 0.57059195 -0.15586180 1.17541252
v 0.57729225 -0.15955282 1.16573415
v 0.56140698 -0.15810278 1.17714213
v 0.47505697 -0.15289582 1.20463162
v 0.47505697 -0.14426148 1.21519316
v 0.45777578 -0.14284440 1.21471480
v 0.41419599 -0.17309751 1.17552294
v 0.38915366 -0.20585526 1.10368960
v 0.38915366 0.01471572 0.87137213
v 0.54412579 -0.16149719 1.18034373
v 0.49233815 -0.15180828 1.20477881
v 0.66152047 -0.17856813 0.87137213
v 0.63488679 -0.12956334 1.11461915
v 0.63120168 -0.12956334 1.13191511
v 0.66830453 -0.16410067 0.87284412
v 0.67433481 -0.14001022 0.90140082
v 0.62500389 -0.12956334 1.14450067
v 0.61565139 -0.12956334 1.15314859
v 0.60504261 -0.13928520 1.15811662
v 0.56604135 0.01471572 1.24040107
v 0.56140698 0.01471572 1.24253546
v 0.50367277 -0.14030683 1.21081397
v 0.49233815 -0.14317396 1.21324279
v 0.47477779 -0.12893719 1.22380438
v 0.45777578 -0.12386204 1.22844116
v 0.45777578 -0.13249638 1.22336277
v 0.44722286 -0.12300521 1.22814675
v 0.44524068 -0.14086707 1.21261719
v 0.43234259 -0.10273759 1.22630677
v 0.41271635 -0.16410067 1.17791496
v 0.38915366 -0.16410067 1.14983662
v 0.38915366 -0.17616238 1.14413264
v 0.38915366 -0.17672262 1.14380145
v 0.38915366 -0.18512626 1.13555826
v 0.38915366 -0.19204691 1.12665274
v 0.38915366 -0.19936303 1.11498720
v 0.66565234 0.01471572 0.87137213
v 0.38915366 0.01471572 1.19675648
v 0.66833244 -0.16410067 0.87137213
v 0.63455181 -0.09502601 1.13191511
v 0.63304424 -0.11229467 1.13191511
v 0.62670688 -0.11229467 1.14692944
v 0.67422309 -0.13994431 0.89010323
v 0.67433481 -0.13341914 0.90140082
v 0.63558477 -0.04318705 1.13191511
v 0.63550101 -0.06048867 1.13191511
v 0.63508222 -0.07775734 1.13191511
v 0.62224003 -0.08840196 1.15822698
v 0.62081622 -0.09990342 1.15690223
v 0.61883405 -0.11229467 1.15554061
v 0.57260203 0.01471572 1.23410829
v 0.55610258 0.01471572 1.24411789
v 0.46885917 -0.12277452 1.22770514
v 0.49233815 -0.12956334 1.21835800
v 0.45777578 -0.11229467 1.23230512
v 0.44376102 -0.11229467 1.23020752
v 0.43022085 -0.09120317 1.22899314
v 0.42781991 -0.07775734 1.23149553
v 0.39694273 -0.03573912 1.21007801
v 0.38915366 -0.04305523 1.19388606
v 0.67422309 -0.13424301 0.89010323
v 0.67377645 -0.13770334 0.88119769
v 0.67140338 -0.12722350 0.87137213
v 0.60995616 0.01471572 1.16606538
v 0.62226793 0.00064373 1.15899982
v 0.38915366 -0.00864972 1.20003165
v 0.41313512 0.00285175 1.22851473
v 0.40822157 0.01471572 1.21898360
v 0.67134757 -0.14554674 0.87137213
v 0.67377645 -0.13872496 0.88119769
v 0.63100621 -0.06048867 1.14917427
v 0.62458514 -0.06048867 1.16117098
v 0.62896823 -0.02591838 1.14917427
v 0.63153667 -0.04318705 1.14917427
v 0.61872239 -0.02591838 1.17147495
v 0.61928075 -0.00864972 1.17000296
v 0.60814150 0.00861896 1.17905572
v 0.60643851 0.01471572 1.17743655
v 0.62531097 -0.04318705 1.16227499
v 0.54412579 0.01471572 1.24584750
v 0.45777578 -0.09502601 1.23580109
v 0.44049465 -0.07775734 1.23753069
v 0.43907079 -0.09617945 1.23259949
v 0.42508398 -0.06048867 1.23333551
v 0.41506146 -0.04786673 1.22634352
v 0.41433558 -0.03636527 1.22711636
v 0.41330261 -0.00864972 1.22825712
v 0.39694273 -0.02908210 1.21007801
v 0.39102417 -0.02436947 1.20271803
v 0.38915366 -0.02466608 1.20036283
v 0.67143133 -0.14225120 0.87137213
v 0.62338466 -0.00864972 1.16135498
v 0.42324137 -0.00864972 1.23539630
v 0.42296219 0.01471572 1.23403473
v 0.62480847 -0.02591838 1.16282697
v 0.54035687 0.01471572 1.24610506
v 0.52374576 0.01471572 1.24654666
v 0.50758131 0.01471572 1.24691465
v 0.44049465 -0.06048867 1.23962828
v 0.44172304 0.01471572 1.24437544
v 0.42860162 0.01471572 1.23730990
v 0.46095844 0.01471572 1.24728269
v 0.44920503 0.01471572 1.24551626
f 1 2 7
f 1 7 31
f 1 31 55
f 1 55 83
f 1 83 109
f 1 109 137
f 1 137 115
f 1 115 85
f 1 85 58
f 1 58 41
f 1 41 39
f 1 39 38
f 1 38 37
f 1 37 36
f 1 36 12
f 1 12 11
f 1 11 9
f 1 9 3
f 1 3 4
f 1 4 5
f 1 5 6
f 1 6 2
f 2 6 8
f 2 8 7
f 3 9 4
f 4 10 5
f 4 9 11
f 4 11 12
f 4 12 13
f 4 13 14
f 4 14 15
f 4 15 16
f 4 16 17
f 4 17 18
f 4 18 19
f 4 19 20
f 4 20 21
f 4 21 22
f 4 22 23
f 4 23 10
f 5 10 24
f 5 24 6
f 6 25 8
f 6 24 26
f 6 26 25
f 7 27 28
f 7 28 29
f 7 29 30
f 7 30 31
f 7 8 27
f 8 25 26
f 8 26 54
f 8 54 82
f 8 82 81
f 8 81 80
f 8 80 79
f 8 79 78
f 8 78 77
f 8 77 106
f 8 106 136
f 8 136 112
f 8 112 84
f 8 84 55
f 8 55 31
f 8 31 30
f 8 30 29
f 8 29 28
f 8 28 27
f 10 23 32
f 10 32 33
f 10 33 34
f 10 34 35
f 10 35 24
f 12 36 13
f 13 36 37
f 13 37 14
f 14 37 38
f 14 38 39
f 14 39 40
f 14 40 15
f 15 40 39
f 15 39 41
f 15 41 16
f 16 42 43
f 16 43 17
f 16 41 42
f 17 43 44
f 17 44 18
f 18 44 45
f 18 45 46
f 18 46 47
f 18 47 19
f 19 47 48
f 19 48 21
f 19 21 20
f 21 48 22
f 22 48 47
f 22 47 23
f 23 47 49
f 23 49 32
f 24 35 50
f 24 50 51
f 24 51 52
f 24 52 53
f 24 53 26
f 26 53 54
f 32 49 56
f 32 56 33
f 33 56 57
f 33 57 50
f 33 50 34
f 34 50 35
f 41 58 42
f 42 59 60
f 42 60 43
f 42 58 61
f 42 61 62
f 42 62 59
f 43 60 44
f 44 60 63
f 44 63 64
f 44 64 45
f 45 64 65
f 45 65 46
f 46 65 47
f 47 66 67
f 47 67 68
f 47 68 69
f 47 69 49
f 47 65 66
f 49 69 56
f 50 57 51
f 51 69 70
f 51 70 71
f 51 71 72
f 51 72 52
f 51 57 69
f 52 72 73
f 52 73 74
f 52 74 53
f 53 74 73
f 53 73 75
f 53 75 76
f 53 76 77
f 53 77 78
f 53 78 79
f 53 79 80
f 53 80 81
f 53 81 82
f 53 82 54
f 55 84 114
f 55 114 140
f 55 140 147
f 55 147 146
f 55 146 149
f 55 149 148
f 55 148 144
f 55 144 143
f 55 143 142
f 55 142 126
f 55 126 98
f 55 98 67
f 55 67 66
f 55 66 97
f 55 97 124
f 55 124 110
f 55 110 83
f 56 69 57
f 58 85 61
f 59 86 87
f 59 87 60
f 59 62 86
f 60 87 88
f 60 88 63
f 61 85 62
f 62 85 89
f 62 89 107
f 62 107 90
f 62 90 91
f 62 91 92
f 62 92 93
f 62 93 86
f 63 88 94
f 63 94 95
f 63 95 96
f 63 96 64
f 64 96 66
f 64 66 65
f 66 96 97
f 67 98 99
f 67 99 100
f 67 100 68
f 68 100 69
f 69 100 70
f 70 100 99
f 70 99 71
f 71 73 72
f 71 99 101
f 71 101 73
f 73 101 102
f 73 102 75
f 75 102 103
f 75 103 76
f 76 103 77
f 77 103 104
f 77 104 105
f 77 105 106
f 83 90 107
f 83 107 108
f 83 108 109
f 83 110 111
f 83 111 91
f 83 91 90
f 84 112 113
f 84 113 114
f 85 115 116
f 85 116 89
f 86 93 117
f 86 117 87
f 87 117 88
f 88 117 118
f 88 118 94
f 89 116 108
f 89 108 107
f 91 111 119
f 91 119 120
f 91 120 92
f 92 120 93
f 93 120 117
f 94 118 97
f 94 97 95
f 95 97 96
f 97 121 122
f 97 122 123
f 97 123 124
f 97 118 125
f 97 125 121
f 98 126 101
f 98 101 99
f 101 126 127
f 101 127 128
f 101 128 102
f 102 128 129
f 102 129 103
f 103 129 104
f 104 129 128
f 104 128 130
f 104 130 131
f 104 131 105
f 105 131 132
f 105 132 133
f 105 133 113
f 105 113 134
f 105 134 135
f 105 135 136
f 105 136 106
f 108 116 137
f 108 137 109
f 110 124 111
f 111 124 123
f 111 123 122
f 111 122 138
f 111 138 119
f 112 136 135
f 112 135 134
f 112 134 113
f 113 133 139
f 113 139 140
f 113 140 114
f 115 137 116
f 117 120 125
f 117 125 118
f 119 138 120
f 120 138 141
f 120 141 125
f 121 125 141
f 121 141 122
f 122 141 138
f 126 142 127
f 127 142 143
f 127 143 144
f 127 144 145
f 127 145 128
f 128 145 130
f 130 139 133
f 130 133 132
f 130 132 131
f 130 145 146
f 130 146 139
f 139 146 147
f 139 147 140
f 144 148 145
f 145 148 149
f 145 149 146

