# https://github.com/mikedh/trimesh
v -0.05828022 0.40105884 0.56346197
v -0.05828022 0.40361173 0.52731870
v -0.06046444 0.40075495 0.56346197
v -0.05828022 -0.19886935 0.56346197
v -0.05828022 0.40434111 0.51004522
v -0.06046444 0.40330784 0.52731870
v -0.06196276 0.40051180 0.56346197
v -0.12630390 -0.19352045 0.56346197
v -0.12630390 -0.20373199 0.53105931
v -0.12630390 -0.20701428 0.52059992
v -0.12630390 -0.20743977 0.51924185
v -0.11958477 -0.20737898 0.51912274
v -0.05828022 -0.20178693 0.54676031
v -0.05828022 0.40482740 0.49277174
v -0.06046444 0.40464506 0.49277174
v -0.12630390 0.39966082 0.38915472
v -0.06046444 0.40403722 0.51004522
v -0.12630390 0.38878068 0.56346197
v -0.12630390 -0.20829073 0.51299958
v -0.05828022 -0.20470454 0.52932005
v -0.05828022 0.40507055 0.47549825
v -0.06046444 0.40500975 0.47549825
v -0.06046444 0.40464506 0.45822479
v -0.12630390 0.39905304 0.37209565
v -0.12630390 -0.21029656 0.49620262
v -0.05828022 -0.20488689 0.52731870
v -0.05828022 0.40452351 0.45822479
v -0.12630390 0.39868830 0.36873626
v -0.12630390 -0.21060047 0.49277174
v -0.05828022 -0.21588860 0.37188123
v -0.05828022 0.40239606 0.44092748
v -0.06046444 0.40270000 0.44097514
v -0.11978456 0.39741188 0.36242253
v -0.12630390 0.39765502 0.36118359
v -0.12630390 -0.21041813 0.47549825
v -0.12630390 -0.20895934 0.44097514
v -0.12630390 -0.20750055 0.41991341
v -0.12630390 -0.20513000 0.38915472
v -0.07773839 -0.21242396 0.37188123
v -0.12630390 -0.19899092 0.32006079
v -0.05828022 -0.21017498 0.32006079
v -0.05828022 0.39905304 0.42539327
v -0.08409126 0.39789811 0.39561141
v -0.10827080 0.39662170 0.36797385
v -0.11333179 0.39443350 0.35584667
v -0.12630390 0.39577071 0.35270171
v -0.12630390 0.38160830 0.32006079
v -0.05828022 0.34550320 0.32006079
v -0.05828022 0.39619620 0.41707817
v -0.06704372 0.39801971 0.41255134
v -0.07257086 0.39601386 0.40104362
v -0.09340082 0.38622779 0.35298761
v -0.11171360 0.38543761 0.33640507
v -0.12630390 0.39023950 0.33716751
v -0.12630390 0.38306706 0.32180005
v -0.11046833 0.37322025 0.32006079
v -0.10557383 0.37893386 0.33004367
v -0.08658180 0.37984559 0.34617354
v -0.05828022 0.39394726 0.41247987
v -0.09808889 0.38270237 0.34155137
v -0.11709424 0.38160830 0.32594568
f 1 2 6
f 1 6 3
f 1 3 7
f 1 7 18
f 1 18 8
f 1 8 4
f 1 4 13
f 1 13 20
f 1 20 26
f 1 26 30
f 1 30 41
f 1 41 48
f 1 48 59
f 1 59 49
f 1 49 42
f 1 42 31
f 1 31 27
f 1 27 21
f 1 21 14
f 1 14 5
f 1 5 2
f 2 5 17
f 2 17 6
f 3 6 7
f 4 8 9
f 4 9 10
f 4 10 11
f 4 11 12
f 4 12 13
f 5 14 15
f 5 15 16
f 5 16 17
f 6 17 16
f 6 16 18
f 6 18 7
f 8 18 16
f 8 16 24
f 8 24 28
f 8 28 34
f 8 34 46
f 8 46 54
f 8 54 55
f 8 55 47
f 8 47 40
f 8 40 38
f 8 38 37
f 8 37 36
f 8 36 35
f 8 35 29
f 8 29 25
f 8 25 19
f 8 19 11
f 8 11 10
f 8 10 9
f 11 19 12
f 12 19 20
f 12 20 13
f 14 21 22
f 14 22 15
f 15 22 16
f 16 22 23
f 16 23 24
f 19 25 20
f 20 25 26
f 21 27 23
f 21 23 22
f 23 27 24
f 24 27 28
f 25 29 26
f 26 29 30
f 27 31 32
f 27 32 28
f 28 32 33
f 28 33 34
f 29 35 30
f 30 35 36
f 30 36 37
f 30 37 38
f 30 38 39
f 30 39 40
f 30 40 41
f 31 42 43
f 31 43 44
f 31 44 33
f 31 33 32
f 33 44 45
f 33 45 46
f 33 46 34
f 38 40 39
f 40 47 56
f 40 56 48
f 40 48 41
f 42 49 50
f 42 50 43
f 43 50 45
f 43 45 44
f 45 50 51
f 45 51 52
f 45 52 53
f 45 53 54
f 45 54 46
f 47 55 56
f 48 56 57
f 48 57 58
f 48 58 59
f 49 51 50
f 49 59 58
f 49 58 52
f 49 52 51
f 52 58 60
f 52 60 53
f 53 60 61
f 53 61 55
f 53 55 54
f 55 61 57
f 55 57 56
f 57 61 60
f 57 60 58

