# https://github.com/mikedh/trimesh
v -0.50959591 -0.28558535 0.61370263
v -0.52685058 -0.28434752 0.59648067
v -0.59018283 -0.28022139 0.51010043
v -0.52685058 -0.28426499 0.57916856
v -0.50959591 -0.28500768 0.59648067
v -0.49231334 -0.28455383 0.61370263
v -0.44779677 -0.27918987 0.82135784
v -0.45933705 -0.27857094 0.82189884
v -0.59018283 -0.28009761 0.51587114
v -0.59018283 -0.27964373 0.49278833
v -0.57867040 -0.27980877 0.47556637
v -0.49231334 -0.28339852 0.59648067
v -0.57867040 -0.27836463 0.45825426
v -0.47670328 -0.27918987 0.59648067
v -0.47359517 -0.27923113 0.61298129
v -0.44779677 -0.27815835 0.83821911
v -0.45465403 -0.27782825 0.83821911
v -0.46549747 -0.27683799 0.61830116
v -0.44779677 -0.26846196 0.59648067
v -0.46328137 -0.27584770 0.83821911
v -0.46613861 -0.27626032 0.82830072
v -0.59018283 -0.27832337 0.53471610
v -0.59018283 -0.27786951 0.46014778
v -0.58927687 -0.27687925 0.44716369
v -0.48594385 -0.27617780 0.55482340
v -0.48198559 -0.27692049 0.56636481
v -0.47940716 -0.27786951 0.57916856
v -0.56997336 -0.27638411 0.44950803
v -0.57867040 -0.27679673 0.44770467
v -0.44779677 -0.25868304 0.50009187
v -0.44779677 -0.26202521 0.52777322
v -0.44779677 -0.26400574 0.54463450
v -0.44779677 -0.26734791 0.57916856
v -0.44779677 -0.27745689 0.84588334
v -0.44779677 -0.27560013 0.85904775
v -0.45716280 -0.27506375 0.85490006
v -0.47504466 -0.27069005 0.85553122
v -0.56140178 -0.26346936 0.71730482
v -0.57004306 -0.25909566 0.72596086
v -0.57115809 -0.25987962 0.71730482
v -0.59018283 -0.27700301 0.54355248
v -0.59018283 -0.27716806 0.45158189
v -0.59018283 -0.27671420 0.44815552
v -0.59018283 -0.27626032 0.44635216
v -0.57867040 -0.26722412 0.42372020
v -0.57867040 -0.27448608 0.43913880
v -0.44779677 -0.24968811 0.43372877
v -0.44779677 -0.25080216 0.44103230
v -0.44779677 -0.23524669 0.35465209
v -0.44779677 -0.23933155 0.37187402
v -0.44779677 -0.24143589 0.38359577
v -0.44779677 -0.27217546 0.87212200
v -0.45777604 -0.27044248 0.87275316
v -0.47504466 -0.26672898 0.87275316
v -0.50403478 -0.26041602 0.85553122
v -0.51931037 -0.25975586 0.83217790
v -0.53728979 -0.25983838 0.79746351
v -0.56747854 -0.25827045 0.73750227
v -0.57695608 -0.25406180 0.73290376
v -0.57867040 -0.24981189 0.75183887
v -0.59018283 -0.24329263 0.75183887
v -0.59018283 -0.27320698 0.44058145
v -0.59018283 -0.26441836 0.42435135
v -0.58793888 -0.25967333 0.41461331
v -0.50463412 -0.17517041 0.23995929
v -0.49231334 -0.17616068 0.23905760
v -0.44779677 -0.22864490 0.33887281
v -0.47504466 -0.25868304 0.89727868
v -0.44779677 -0.25030704 0.92459935
v -0.48535846 -0.25979712 0.88600776
v -0.50121939 -0.25917819 0.86445779
v -0.51266217 -0.25666126 0.85553122
v -0.59018283 -0.23169824 0.80305388
v -0.54842590 -0.25707388 0.78637295
v -0.55993833 -0.25546469 0.76815915
v -0.57949270 -0.24576830 0.76851982
v -0.59018283 -0.24094075 0.76428196
v -0.59018283 -0.26091117 0.41803968
v -0.53570093 -0.17294231 0.25943541
v -0.51614656 -0.17013655 0.24419715
v -0.51006974 -0.16427746 0.23671326
v -0.49231334 -0.16407116 0.23130323
v -0.47504466 -0.17558303 0.23995929
v -0.45777604 -0.18148337 0.25095969
v -0.47504466 -0.18259743 0.25095969
v -0.44779677 -0.17380879 0.24158233
v -0.47504466 -0.25443316 0.90728723
v -0.49321925 -0.24787263 0.90809877
v -0.49160249 -0.25562973 0.89105713
v -0.44779677 -0.24692361 0.93262426
v -0.50802095 -0.25364918 0.87122034
v -0.52259964 -0.24506687 0.87275316
v -0.59018283 -0.22736581 0.81739048
v -0.59018283 -0.23578310 0.78637295
v -0.59018283 -0.15936737 0.28982180
v -0.59018283 -0.14715407 0.28224776
v -0.52049505 -0.15862468 0.24050030
v -0.50959591 -0.14682398 0.23103274
v -0.47504466 -0.16407116 0.23319675
v -0.45777604 -0.17479906 0.24095112
v -0.49231334 -0.14682398 0.22652435
v -0.47504466 -0.14682398 0.22706536
v -0.44779677 -0.17339618 0.24140199
v -0.44779677 -0.24481930 0.93749327
v -0.45777604 -0.24391156 0.93623096
v -0.46937208 -0.24275625 0.93469811
v -0.47510042 -0.24589208 0.92523051
v -0.48804845 -0.24428289 0.91991067
v -0.59018283 -0.17459275 0.96021543
v -0.59018283 -0.17583060 0.95733007
v -0.53859993 -0.15635531 1.05597307
v -0.59018283 -0.18181346 0.94182133
v -0.59018283 -0.13403301 0.27828038
v -0.52252994 -0.14682398 0.23869697
v -0.50959591 -0.12953554 0.23202458
v -0.59018283 -0.12664725 0.27746889
v -0.52244633 -0.12953554 0.23851664
v -0.58761831 -0.03389211 0.27674754
v -0.45777604 -0.16407116 0.23617230
v -0.49231334 -0.12953554 0.22859821
v -0.47504466 -0.12953554 0.22859821
v -0.45777604 -0.12953554 0.23148356
v -0.45777604 -0.14682398 0.23094255
v -0.44779677 -0.15635531 0.23653292
v -0.44779677 -0.17649077 1.06057161
v -0.59018283 -0.17170448 0.96598614
v -0.55850278 -0.14315173 1.05957977
v -0.54034215 -0.14088236 1.07301466
v -0.54523423 -0.14777298 1.06354711
v -0.59018283 0.13593892 0.29658434
v -0.59018283 -0.03137518 0.27855092
v -0.44779677 -0.02551609 0.25231220
v -0.44779677 -0.12953554 0.23391810
v -0.44779677 -0.04321714 0.24906617
v -0.44779677 -0.08418949 0.24176267
v -0.44779677 -0.14682398 0.23418858
v -0.44779677 -0.16988898 1.06724394
v -0.59018283 -0.16955889 0.96923216
v -0.55186848 -0.13576597 1.07103100
v -0.59018283 -0.08790300 1.06994897
v -0.57198040 -0.12660599 1.05651408
v -0.59018283 -0.16044017 0.98095392
v -0.44779677 -0.04577533 1.13721375
v -0.44779677 -0.03735805 1.14136147
v -0.46411762 -0.03323193 1.14000896
v -0.44779677 -0.16815601 1.06859645
v -0.56140178 0.13593892 0.29901887
v -0.44779677 -0.01123972 0.25718127
v -0.59018283 0.13593892 0.91504165
v -0.47002717 -0.02172006 1.14172213
v -0.59018283 -0.08447833 1.07184249
v -0.59018283 -0.09363831 1.06336677
v -0.44779677 -0.02630005 1.14442716
v -0.45812452 -0.02683645 1.14289430
v -0.45260524 -0.03583139 1.14109093
v -0.54413316 0.13593892 0.30073206
v -0.44779677 0.12991480 0.30848643
v -0.59018283 0.12442706 0.93514893
v -0.58188997 0.13593892 0.92459935
v -0.45777604 -0.00864026 1.14586980
v -0.47101674 -0.00864026 1.14217296
v -0.47965803 -0.00864026 1.13838591
v -0.59018283 -0.05481153 1.07761320
v -0.59018283 -0.06046432 1.07680170
v -0.59018283 -0.07205870 1.07508852
v -0.44779677 -0.01619106 1.14632062
v -0.46187367 0.13593892 0.30938812
v -0.44779677 0.13593892 0.31092096
v -0.59018283 0.12360184 0.93650144
v -0.57192464 0.13593892 0.93514893
v -0.44779677 -0.00864026 1.14749285
v -0.45777604 0.00505845 1.14334513
v -0.46894005 0.00204638 1.14154179
v -0.57025213 -0.03426346 1.08879393
v -0.57025213 -0.03533625 1.08879393
v -0.59018283 -0.04379479 1.07725252
v -0.44779677 0.13593892 1.00349573
v -0.57245428 0.12269408 0.95255120
v -0.57708154 0.12875949 0.94055897
v -0.59018283 0.03592182 1.02107834
v -0.58926297 0.03633443 1.02161936
v -0.53676021 0.07025113 1.03784944
v -0.54195891 0.13593892 0.95660871
v -0.44779677 0.00774043 1.14406648
v -0.44779677 0.01446600 1.14018930
v -0.44779677 0.01582762 1.13928761
v -0.45777604 0.01372330 1.13757441
v -0.49610434 0.04999188 1.08717094
v -0.50441111 0.03848001 1.09131862
v -0.50275255 0.01921104 1.10745857
v -0.53958950 0.00344926 1.09194983
v -0.55111588 -0.00236856 1.08753162
v -0.54485790 -0.00835144 1.09483518
v -0.53182627 -0.00864026 1.10385186
v -0.55497659 -0.01388043 1.09032679
v -0.59018283 -0.03158148 1.07355568
v -0.59018283 -0.03900850 1.07590001
v -0.47176934 0.13593892 0.99700367
v -0.44779677 0.10317755 1.05344839
v -0.51393045 0.11856798 0.99925788
v -0.52685058 0.08234065 1.03225908
v -0.53519920 0.10342512 1.00214322
v -0.59018283 0.03423012 1.02261119
v -0.55372221 0.03546795 1.05507138
v -0.51766571 0.05122972 1.07103100
v -0.51741484 0.06868320 1.05371886
v -0.52685058 0.07371706 1.04154630
v -0.50240412 0.12153877 1.00313505
v -0.53820970 0.13593892 0.95904326
v -0.44779677 0.09170694 1.06544063
v -0.50613938 0.05510827 1.07562953
v -0.44779677 0.09471901 1.06237494
v -0.51663434 0.08560028 1.03604607
v -0.59018283 -0.00253361 1.05299752
v -0.59018283 -0.01722259 1.06390778
v -0.48744911 0.13593892 0.99177398
v -0.59018283 0.02634922 1.02946387
v -0.59018283 0.01219663 1.04109548
f 1 2 3
f 1 3 4
f 1 4 5
f 1 5 6
f 1 6 7
f 1 7 8
f 1 8 2
f 2 9 3
f 2 8 9
f 3 10 11
f 3 11 4
f 3 9 22
f 3 22 41
f 3 41 61
f 3 61 77
f 3 77 94
f 3 94 73
f 3 73 93
f 3 93 112
f 3 112 110
f 3 110 109
f 3 109 126
f 3 126 138
f 3 138 142
f 3 142 152
f 3 152 140
f 3 140 151
f 3 151 165
f 3 165 164
f 3 164 163
f 3 163 176
f 3 176 197
f 3 197 196
f 3 196 215
f 3 215 214
f 3 214 218
f 3 218 217
f 3 217 203
f 3 203 180
f 3 180 169
f 3 169 158
f 3 158 149
f 3 149 130
f 3 130 131
f 3 131 116
f 3 116 113
f 3 113 96
f 3 96 95
f 3 95 78
f 3 78 63
f 3 63 62
f 3 62 44
f 3 44 43
f 3 43 42
f 3 42 23
f 3 23 10
f 4 11 5
f 5 12 6
f 5 11 13
f 5 13 12
f 6 12 14
f 6 14 15
f 6 15 7
f 7 16 17
f 7 17 8
f 7 15 18
f 7 18 19
f 7 19 33
f 7 33 32
f 7 32 31
f 7 31 30
f 7 30 48
f 7 48 47
f 7 47 51
f 7 51 50
f 7 50 49
f 7 49 67
f 7 67 86
f 7 86 103
f 7 103 124
f 7 124 136
f 7 136 133
f 7 133 135
f 7 135 134
f 7 134 132
f 7 132 148
f 7 148 157
f 7 157 168
f 7 168 177
f 7 177 199
f 7 199 212
f 7 212 210
f 7 210 186
f 7 186 185
f 7 185 184
f 7 184 171
f 7 171 166
f 7 166 153
f 7 153 144
f 7 144 143
f 7 143 146
f 7 146 137
f 7 137 125
f 7 125 104
f 7 104 90
f 7 90 69
f 7 69 52
f 7 52 35
f 7 35 34
f 7 34 16
f 8 17 20
f 8 20 21
f 8 21 22
f 8 22 9
f 10 23 11
f 11 23 24
f 11 24 13
f 12 25 26
f 12 26 27
f 12 27 14
f 12 13 28
f 12 28 25
f 13 24 29
f 13 29 28
f 14 27 30
f 14 30 31
f 14 31 32
f 14 32 33
f 14 33 18
f 14 18 15
f 16 34 17
f 17 34 35
f 17 35 36
f 17 36 20
f 18 33 19
f 20 36 37
f 20 37 22
f 20 22 21
f 22 38 39
f 22 39 40
f 22 40 41
f 22 37 38
f 23 42 24
f 24 42 43
f 24 43 44
f 24 44 45
f 24 45 46
f 24 46 29
f 25 28 47
f 25 47 48
f 25 48 26
f 26 48 30
f 26 30 27
f 28 29 46
f 28 46 49
f 28 49 50
f 28 50 51
f 28 51 47
f 35 52 53
f 35 53 36
f 36 53 54
f 36 54 37
f 37 54 55
f 37 55 56
f 37 56 57
f 37 57 38
f 38 57 58
f 38 58 39
f 39 59 40
f 39 58 60
f 39 60 59
f 40 59 41
f 41 59 61
f 44 62 45
f 45 62 63
f 45 63 64
f 45 64 65
f 45 65 66
f 45 66 67
f 45 67 46
f 46 67 49
f 52 68 53
f 52 69 68
f 53 68 54
f 54 68 70
f 54 70 55
f 55 70 71
f 55 71 72
f 55 72 56
f 56 73 57
f 56 72 73
f 57 73 74
f 57 74 58
f 58 74 75
f 58 75 60
f 59 60 61
f 60 75 76
f 60 76 77
f 60 77 61
f 63 78 64
f 64 78 79
f 64 79 65
f 65 79 80
f 65 80 81
f 65 81 82
f 65 82 66
f 66 82 83
f 66 83 84
f 66 84 85
f 66 85 67
f 67 85 84
f 67 84 86
f 68 87 88
f 68 88 89
f 68 89 70
f 68 69 90
f 68 90 87
f 70 89 71
f 71 89 72
f 72 89 91
f 72 91 92
f 72 92 93
f 72 93 73
f 73 94 76
f 73 76 74
f 74 76 75
f 76 94 77
f 78 95 79
f 79 95 96
f 79 96 80
f 80 97 81
f 80 96 97
f 81 98 82
f 81 97 98
f 82 99 100
f 82 100 83
f 82 98 101
f 82 101 102
f 82 102 99
f 83 100 84
f 84 100 86
f 86 100 99
f 86 99 103
f 87 90 104
f 87 104 105
f 87 105 106
f 87 106 107
f 87 107 108
f 87 108 88
f 88 109 110
f 88 110 89
f 88 108 111
f 88 111 109
f 89 92 91
f 89 110 112
f 89 112 92
f 92 112 93
f 96 113 97
f 97 114 98
f 97 113 114
f 98 115 101
f 98 114 116
f 98 116 117
f 98 117 118
f 98 118 115
f 99 102 119
f 99 119 103
f 101 115 120
f 101 120 121
f 101 121 102
f 102 121 122
f 102 122 123
f 102 123 119
f 103 119 123
f 103 123 124
f 104 125 105
f 105 125 106
f 106 125 111
f 106 111 107
f 107 111 108
f 109 111 127
f 109 127 126
f 111 125 128
f 111 128 129
f 111 129 127
f 113 116 114
f 115 118 130
f 115 130 120
f 116 131 118
f 116 118 117
f 118 131 130
f 120 132 121
f 120 130 132
f 121 132 122
f 122 133 123
f 122 132 134
f 122 134 135
f 122 135 133
f 123 133 136
f 123 136 124
f 125 137 128
f 126 127 138
f 127 129 139
f 127 139 140
f 127 140 141
f 127 141 142
f 127 142 138
f 128 143 144
f 128 144 145
f 128 145 139
f 128 139 129
f 128 137 146
f 128 146 143
f 130 147 148
f 130 148 132
f 130 149 159
f 130 159 170
f 130 170 183
f 130 183 209
f 130 209 216
f 130 216 198
f 130 198 177
f 130 177 168
f 130 168 167
f 130 167 156
f 130 156 147
f 139 145 150
f 139 150 151
f 139 151 140
f 140 152 141
f 141 152 142
f 144 153 154
f 144 154 155
f 144 155 145
f 145 155 154
f 145 154 150
f 147 156 148
f 148 156 157
f 149 158 159
f 150 154 160
f 150 160 161
f 150 161 162
f 150 162 163
f 150 163 164
f 150 164 165
f 150 165 151
f 153 166 154
f 154 166 160
f 156 167 157
f 157 167 168
f 158 169 170
f 158 170 159
f 160 166 171
f 160 171 172
f 160 172 173
f 160 173 161
f 161 173 162
f 162 173 174
f 162 174 175
f 162 175 163
f 163 175 174
f 163 174 176
f 169 178 179
f 169 179 170
f 169 180 181
f 169 181 182
f 169 182 178
f 170 179 178
f 170 178 183
f 171 184 172
f 172 184 185
f 172 185 186
f 172 186 187
f 172 187 173
f 173 187 188
f 173 188 189
f 173 189 190
f 173 190 191
f 173 191 192
f 173 192 193
f 173 193 194
f 173 194 174
f 174 195 196
f 174 196 197
f 174 197 176
f 174 194 193
f 174 193 195
f 177 198 199
f 178 200 183
f 178 182 201
f 178 201 202
f 178 202 200
f 180 203 181
f 181 203 204
f 181 204 182
f 182 204 205
f 182 205 206
f 182 206 207
f 182 207 201
f 183 200 208
f 183 208 209
f 186 210 187
f 187 210 188
f 188 211 205
f 188 205 189
f 188 210 212
f 188 212 199
f 188 199 213
f 188 213 211
f 189 191 190
f 189 205 191
f 191 205 192
f 192 196 195
f 192 195 193
f 192 205 204
f 192 204 214
f 192 214 215
f 192 215 196
f 198 216 199
f 199 208 213
f 199 216 208
f 200 202 213
f 200 213 208
f 201 213 202
f 201 207 206
f 201 206 213
f 203 217 204
f 204 217 218
f 204 218 214
f 205 211 206
f 206 211 213
f 208 216 209

