# https://github.com/mikedh/trimesh
v 0.08088220 -0.20939700 0.53369257
v 0.39836433 -0.32996063 0.53369257
v 0.08088220 -0.20180910 0.63924797
v 0.08088220 0.40652741 0.53369257
v 0.39836433 -0.31056925 0.63924797
v 0.39836433 0.44063473 0.53369257
v 0.08088220 0.39411081 0.63924797
v 0.08088220 0.40691063 0.54145292
v 0.33683198 0.44408380 0.53369257
v 0.39836433 0.45282141 0.63924797
v 0.35411077 0.44362392 0.53369257
v 0.39836433 0.45128846 0.61369355
v 0.28499561 0.43979163 0.63924797
v 0.08088220 0.40560770 0.56188201
v 0.08088220 0.40698729 0.54460462
v 0.39836433 0.45305132 0.63097095
v 0.08088220 0.40599092 0.55873032
f 1 2 3
f 1 3 7
f 1 7 14
f 1 14 17
f 1 17 15
f 1 15 8
f 1 8 4
f 1 4 9
f 1 9 11
f 1 11 6
f 1 6 2
f 2 5 3
f 2 6 12
f 2 12 16
f 2 16 10
f 2 10 5
f 3 5 10
f 3 10 13
f 3 13 7
f 4 8 9
f 6 11 12
f 7 13 14
f 8 15 13
f 8 13 9
f 9 13 16
f 9 16 12
f 9 12 11
f 10 16 13
f 13 15 17
f 13 17 14

