# https://github.com/mikedh/trimesh
v -0.59018288 -0.28025828 0.51009819
v -0.59018288 -0.28007408 0.51583225
v -0.59596116 -0.28019692 0.51009819
v -0.59018288 -0.27964427 0.49281743
v -0.59018288 -0.27829346 0.53468399
v -0.60801301 -0.27749525 0.51009819
v -0.60669226 -0.27718826 0.49281743
v -0.59596116 -0.27946007 0.49281743
v -0.59645646 -0.27841624 0.52753603
v -0.60680233 -0.27694265 0.52195907
v -0.59018288 -0.27786364 0.46014109
v -0.59018288 -0.27700401 0.54356002
v -0.61665296 -0.27454801 0.51009819
v -0.63052085 -0.26957449 0.52737893
v -0.65638556 -0.25907489 0.51889567
v -0.60504132 -0.27657425 0.48292027
v -0.59158615 -0.27761803 0.45825591
v -0.59018288 -0.24329484 0.75187168
v -0.61282823 -0.27454801 0.52753603
v -0.59018288 -0.27718826 0.45157927
v -0.65743119 -0.25950471 0.53044234
v -0.64829594 -0.26134675 0.54442404
v -0.65743119 -0.25950471 0.53853289
v -0.66395238 -0.25637327 0.52572942
v -0.69499005 -0.24317201 0.53193478
v -0.70030057 -0.24016336 0.52667200
v -0.60022610 -0.27491641 0.45825591
v -0.59018288 -0.24311064 0.75289282
v -0.65437692 -0.25852229 0.55007958
v -0.59018288 -0.27669703 0.44812311
v -0.71312289 -0.17477120 0.89003920
v -0.66395238 -0.25594346 0.54442404
v -0.69499005 -0.24317201 0.54159628
v -0.71405845 -0.23150580 0.52737893
v -0.74330757 -0.19024428 0.41442562
v -0.59541083 -0.27264455 0.44128935
v -0.59018288 -0.27626722 0.44631649
v -0.59018288 -0.24090020 0.76428240
v -0.59018288 -0.23930378 0.77135180
v -0.70995861 -0.17335897 0.90001487
v -0.72908199 -0.15690348 0.93779691
v -0.73230135 -0.15899111 0.92460069
v -0.72176284 -0.17090293 0.89003920
v -0.71554430 -0.17673604 0.87275842
v -0.70030057 -0.23936514 0.54630923
v -0.74094125 -0.15444743 0.92460069
v -0.73103559 -0.21320829 0.54465969
v -0.76204577 -0.17538521 0.44097516
v -0.75357092 -0.18398136 0.44097516
v -0.74471089 -0.19104249 0.42369440
v -0.71383832 -0.23015499 0.54465969
v -0.81237197 -0.12129084 0.86513919
v -0.75423132 -0.18072711 0.42345878
v -0.76122032 -0.17458699 0.42903570
v -0.74765509 -0.18146392 0.40782750
v -0.74537129 -0.17575361 0.39502404
v -0.59018288 -0.26091693 0.41796034
v -0.59461287 -0.26331157 0.42463697
v -0.59018288 -0.26441681 0.42440133
v -0.59018288 -0.27319715 0.44058243
v -0.59018288 -0.23574248 0.78643319
v -0.67476606 -0.17329757 0.93434079
v -0.59018288 -0.23169000 0.80308555
v -0.71689253 -0.15457023 0.94863664
v -0.73453012 -0.15260540 0.94282403
v -0.75153480 -0.14253562 0.94023191
v -0.81245449 -0.12135224 0.85547766
v -0.83441200 -0.09138850 0.61370418
v -0.84219891 -0.08107311 0.59650197
v -0.84803227 -0.07241556 0.59650197
v -0.79379887 -0.12024701 0.91431078
v -0.81660937 -0.11238768 0.87165873
v -0.82604722 -0.09863383 0.87275842
v -0.82791829 -0.10170389 0.85547766
v -0.81985622 -0.11226487 0.85547766
v -0.75929421 -0.16875389 0.41756760
v -0.84717928 -0.07045072 0.58558368
v -0.74476592 -0.12951858 0.37805749
v -0.74341764 -0.13934276 0.37978557
v -0.72509221 -0.13725513 0.36352596
v -0.71067399 -0.15899111 0.36109092
v -0.72597274 -0.17299056 0.38025686
v -0.73268653 -0.17722724 0.38921142
v -0.75588226 -0.16341199 0.40774900
v -0.60718756 -0.15690348 0.29275337
v -0.59596116 -0.15886832 0.29071113
v -0.59018288 -0.15935952 0.28976857
v -0.66508054 -0.17452560 0.93630448
v -0.59018288 -0.22733054 0.81738145
v -0.61324100 -0.17022752 0.96363948
v -0.73378719 -0.14345664 0.95971205
v -0.74583904 -0.14075498 0.95437074
v -0.84305195 -0.08027489 0.61370418
v -0.86374370 -0.03465387 0.60577074
v -0.86374370 -0.03465387 0.60490670
v -0.83421941 -0.09323053 0.83819692
v -0.84726181 -0.07063492 0.82091616
v -0.82940414 -0.08684482 0.88179153
v -0.76232093 -0.12374688 0.95444925
v -0.75844123 -0.11908040 0.96591741
v -0.79809130 -0.10876500 0.91996632
v -0.83080746 -0.09003767 0.87275842
v -0.83333888 -0.09304633 0.85547766
v -0.77767467 -0.12184345 0.43170639
v -0.86390885 -0.00063766 0.57018809
v -0.74655442 -0.11226487 0.37499408
v -0.74171171 -0.10023026 0.36423291
v -0.61879915 -0.14677230 0.29620956
v -0.77877528 -0.11226487 0.43005689
v -0.76075251 -0.10581776 0.39667359
v -0.61015925 -0.14677230 0.29078969
v -0.59596116 -0.14677230 0.28419158
v -0.59018288 -0.14714069 0.28230640
v -0.61324100 -0.17470980 0.95499912
v -0.59018288 -0.18177093 0.94188146
v -0.59596116 -0.18140252 0.94188146
v -0.72784377 -0.13903575 0.96850952
v -0.59596116 -0.17145554 0.96568178
v -0.59018288 -0.16046474 0.98099881
v -0.59018288 -0.09366033 1.06331807
v -0.59510817 -0.09218672 1.06394644
v -0.73931785 -0.13633411 0.96591741
v -0.75214011 -0.13007119 0.96018336
v -0.86886162 -0.00861981 0.63098493
v -0.87125549 0.00869530 0.61370418
v -0.87012734 0.00869530 0.59650197
v -0.86503700 -0.00407612 0.57922121
v -0.84327203 -0.07646803 0.83796127
v -0.84676656 -0.06983671 0.83199155
v -0.85315015 -0.04312723 0.80363540
v -0.82940414 -0.08518699 0.88179153
v -0.83958496 -0.07769604 0.85547766
v -0.79957715 -0.09494976 0.92138019
v -0.76287127 -0.09494976 0.97133727
v -0.74693966 -0.12485210 0.97031615
v -0.75147976 -0.11208067 0.97612876
v -0.76190821 -0.10759839 0.97039471
v -0.79341364 -0.09494976 0.45377864
v -0.86652274 0.00869530 0.57922121
v -0.86671538 0.02594901 0.57922121
v -0.86407389 0.03540479 0.56995244
v -0.84679405 0.06045643 0.53531238
v -0.76100019 -0.00861981 0.37860731
v -0.78716761 -0.09494976 0.44097516
v -0.74746245 -0.09464276 0.37075246
v -0.74325259 -0.08868685 0.36274047
v -0.70932575 -0.03618890 0.32794330
v -0.75690035 -0.09494976 0.38669785
v -0.59486055 -0.13037819 0.27994991
v -0.59018288 -0.13400086 0.27830041
v -0.71086663 -0.02587352 0.32700074
v -0.69111035 -0.00014645 0.31136947
v -0.59596116 -0.17581502 0.95704137
v -0.59018288 -0.17581502 0.95735561
v -0.61324100 -0.09126569 1.05923352
v -0.59018288 -0.17170115 0.96599597
v -0.59018288 -0.16955210 0.96921647
v -0.59018288 -0.08788863 1.06991612
v -0.62521033 -0.08856405 1.05609153
v -0.74451830 -0.10514234 0.98602593
v -0.86756842 -0.00861981 0.64826569
v -0.87023740 0.00869530 0.63098493
v -0.86016669 0.11227897 0.59650197
v -0.86987971 0.02594901 0.59650197
v -0.84470284 -0.06044234 0.84110323
v -0.84709671 -0.06044234 0.83246284
v -0.85083886 -0.04312723 0.82091616
v -0.85372802 -0.02587352 0.80363540
v -0.81798514 -0.06044234 0.88941079
v -0.82662509 -0.06044234 0.87747134
v -0.83226576 -0.06044234 0.86883098
v -0.83917224 -0.06044234 0.85547766
v -0.76193570 -0.08426597 0.96984484
v -0.75274547 -0.09494976 0.97989912
v -0.86038683 0.11227897 0.57922121
v -0.85650712 0.09496386 0.56194045
v -0.85004090 0.07721894 0.54340292
v -0.84671153 0.07114023 0.53554802
v -0.76083509 0.00513404 0.37915719
v -0.75599233 -0.00861981 0.36996695
v -0.76053238 -0.01887379 0.37939282
v -0.74658197 -0.02587352 0.35904866
v -0.73829976 -0.02587352 0.35040830
v -0.73059537 -0.00861981 0.34074676
v -0.72146013 -0.00861981 0.33210640
v -0.71950653 -0.02587352 0.33352029
v -0.65690840 -0.00088327 0.29393163
v -0.64254521 0.09496386 0.27523698
v -0.59018288 -0.12663274 0.27743635
v -0.69232102 0.00869530 0.31074109
v -0.71282023 -0.00861981 0.32558686
v -0.70096097 0.00869530 0.31576821
v -0.59018288 -0.17458699 0.96026192
v -0.60028108 -0.08223973 1.07046598
v -0.59018288 -0.08445017 1.07187987
v -0.61197529 -0.07695924 1.06732406
v -0.62853971 -0.07769604 1.05829090
v -0.69171571 -0.06989811 1.01995904
v -0.69171571 -0.06799467 1.01995904
v -0.74410553 -0.09494976 0.98579030
v -0.85813052 0.12953268 0.59650197
v -0.84720677 -0.03133822 0.83104897
v -0.84742691 -0.04312723 0.83183445
v -0.84962818 -0.02568931 0.82185874
v -0.83388921 0.11307718 0.75226442
v -0.85237973 0.14678639 0.61370418
v -0.85592924 0.12953268 0.61370418
v -0.81509598 -0.04312723 0.88587609
v -0.81132634 -0.06044234 0.89805117
v -0.83133025 -0.01322489 0.84942940
v -0.84233652 -0.02568931 0.83741142
v -0.71028881 -0.06609124 1.00464200
v -0.69061510 -0.03502228 1.00197134
v -0.83160541 0.10779669 0.76318272
v -0.81495842 -0.01310209 0.86726000
v -0.80780432 -0.04312723 0.89451649
v -0.84665649 0.17337307 0.57010954
v -0.84811479 0.16410150 0.56791017
v -0.85400319 0.11227897 0.56194045
v -0.85342536 0.14678639 0.57922121
v -0.74297742 0.29396483 0.39753764
v -0.74363777 0.28500030 0.39635940
v -0.74735238 -0.00861981 0.35826317
v -0.73873997 0.26774655 0.38669785
v -0.73920778 -0.00861981 0.34962281
v -0.72234066 0.00869530 0.33171367
v -0.71372825 0.00869530 0.32440862
v -0.65795398 0.00869530 0.29330325
v -0.65118510 0.09496386 0.28081397
v -0.64155461 0.11227897 0.27539410
v -0.63610653 0.09496386 0.27523698
v -0.70170389 0.02594901 0.31553257
v -0.63599647 0.11227897 0.27539410
v -0.59018288 -0.03133822 0.27853604
v -0.59018288 -0.07198575 1.07510035
v -0.60537152 -0.07069633 1.07172280
v -0.60531649 -0.06044234 1.07172280
v -0.60479370 -0.05129357 1.07156567
v -0.60209712 -0.03975017 1.06975905
v -0.67649953 -0.04754811 1.02153004
v -0.68800110 -0.05651267 1.01720986
v -0.85441591 0.14678639 0.59650197
v -0.84580350 -0.01979481 0.82822121
v -0.84822486 -0.01439151 0.81667452
v -0.82769816 0.11934010 0.75839124
v -0.83091752 0.12247155 0.74684455
v -0.81319741 0.26252746 0.57521522
v -0.84836242 0.15894381 0.61370418
v -0.84971070 0.16256648 0.59650197
v -0.82761564 -0.00168148 0.84534485
v -0.67259228 -0.03606610 1.01870229
v -0.76003714 0.22421319 0.74323130
v -0.84902282 0.16557513 0.57969251
v -0.84665649 0.17337307 0.57427263
v -0.82940414 0.22537980 0.56893130
v -0.82610225 0.23194972 0.56264740
v -0.82844108 0.22009932 0.55738463
v -0.74432566 0.29586829 0.40641363
v -0.72578010 0.31103433 0.39753764
v -0.73210871 0.30035053 0.39172503
v -0.72699078 0.29519286 0.37923575
v -0.72880682 0.28500030 0.37735056
v -0.73739174 0.28500030 0.38771898
v -0.81278469 0.26142227 0.55180766
v -0.80937274 0.27210606 0.56194045
v -0.73012757 0.26774655 0.37546539
v -0.72721091 0.07279806 0.34381020
v -0.72954974 0.02594901 0.34113952
v -0.73012757 0.00869530 0.34035403
v -0.72181787 0.02594901 0.33249916
v -0.71317792 0.02594901 0.32417293
v -0.64028890 0.14236551 0.27610104
v -0.63712462 0.14236551 0.27610104
v -0.59018288 0.16502252 0.29707360
v -0.59018288 -0.05473204 1.07769248
v -0.59018288 -0.04374124 1.07729973
v -0.59018288 -0.03895195 1.07588586
v -0.59059561 -0.03164522 1.07337229
v -0.78034370 0.22716045 0.71291143
v -0.79542227 0.22611662 0.69319566
v -0.80816206 0.26805358 0.58024235
v -0.81355510 0.26344851 0.56194045
v -0.82940414 0.22537980 0.57105213
v -0.64122441 -0.03225923 1.03826094
v -0.66106322 -0.02968039 1.02255116
v -0.65517488 -0.01819838 1.01885936
v -0.72971484 0.24515096 0.74676600
v -0.74121641 0.24017746 0.74103193
v -0.76471480 0.22820425 0.73168462
v -0.60636206 0.00157278 1.03818238
v -0.59018288 0.02637882 1.02946346
v -0.81892066 0.25043144 0.56194045
v -0.73549312 0.30446443 0.40641363
v -0.79809130 0.27898299 0.54465969
v -0.80073279 0.28064078 0.56194045
v -0.72688071 0.31164834 0.40641363
v -0.71689253 0.31533242 0.40641363
v -0.65800901 0.32920906 0.37852880
v -0.64001373 0.32853369 0.36289754
v -0.65154279 0.32570923 0.36698209
v -0.66084309 0.31416581 0.36046254
v -0.66450272 0.30176276 0.35433574
v -0.66818978 0.28880716 0.34820894
v -0.68120474 0.28383363 0.35158650
v -0.70984854 0.27836898 0.36226917
v -0.71210480 0.26774655 0.36046254
v -0.72074475 0.26774655 0.36682503
v -0.79891680 0.27990399 0.57922121
v -0.68954198 0.11227897 0.31278339
v -0.70918815 0.08925355 0.32770767
v -0.68090203 0.11227897 0.30587103
v -0.64400351 0.18135522 0.29016126
v -0.64160964 0.19253022 0.29251775
v -0.63052085 0.18135522 0.28725496
v -0.63052085 0.16410150 0.28222784
v -0.59018288 0.23317775 0.30712785
v -0.59018288 0.24711581 0.30924865
v -0.59018288 -0.03152242 1.07352942
v -0.59018288 -0.03084700 1.07313667
v -0.77783977 0.24201950 0.69186033
v -0.78485627 0.23244093 0.69830134
v -0.79608267 0.27818473 0.59053225
v -0.59018288 -0.01715456 1.06394644
v -0.59018288 -0.00247970 1.05302815
v -0.64780069 0.28211443 0.76491080
v -0.65806404 0.27830756 0.76176884
v -0.64934157 0.29126321 0.75344266
v -0.72090985 0.25663294 0.73788998
v -0.73348449 0.25030866 0.73372689
v -0.59018288 0.03423817 1.02262972
v -0.60215216 0.20579285 0.86238998
v -0.74553639 0.24392294 0.72956379
v -0.59018288 0.01225657 1.04108869
v -0.77767467 0.29378063 0.58833289
v -0.77786726 0.29384205 0.57922121
v -0.77767467 0.29378063 0.56987390
v -0.72754111 0.31195537 0.42369440
v -0.71689253 0.31649903 0.42369440
v -0.69961269 0.32036731 0.40641363
v -0.69961269 0.32208657 0.42369440
v -0.64780069 0.33289315 0.38921142
v -0.60102405 0.34468213 0.38921142
v -0.59018288 0.34609436 0.38096381
v -0.59018288 0.34566454 0.37868588
v -0.64659002 0.33043709 0.37240196
v -0.63052085 0.33418254 0.37193070
v -0.61324100 0.33823502 0.37193070
v -0.59018288 0.34277873 0.37083102
v -0.61324100 0.33160370 0.35904866
v -0.61318597 0.31864810 0.34985844
v -0.63052085 0.31956910 0.35449281
v -0.64659002 0.31981471 0.35873448
v -0.64780069 0.30434164 0.34923006
v -0.65666072 0.29378063 0.34593101
v -0.67468349 0.27726374 0.34561682
v -0.68621255 0.27075520 0.34773763
v -0.60845327 0.24404574 0.30940578
v -0.59596116 0.24693159 0.30885591
v -0.59018288 0.25577337 0.31364740
v -0.72580764 0.25927320 0.72634328
v -0.78507640 0.28463185 0.59516663
v -0.59018288 0.27204465 0.80779849
v -0.59018288 0.27843035 0.79939376
v -0.63052085 0.29298242 0.75894108
v -0.64460887 0.29519286 0.74880827
v -0.65613793 0.29353502 0.74118903
v -0.69380687 0.27800053 0.72909250
v -0.59018288 0.20892431 0.86608177
v -0.59065064 0.20886290 0.86592467
v -0.59018288 0.33178790 0.61370418
v -0.59018288 0.33399834 0.59610922
v -0.59596116 0.33872625 0.52737893
v -0.59596116 0.34019989 0.51009819
v -0.59018288 0.34658559 0.40641363
v -0.59131099 0.34633997 0.40641363
v -0.59018288 0.34701540 0.38921142
v -0.59018288 0.33399834 0.35763480
v -0.59596116 0.33332296 0.35755624
v -0.59455784 0.31864810 0.34836601
v -0.60740769 0.31226235 0.34553826
v -0.63052085 0.30753449 0.34742344
v -0.59018288 0.31852527 0.34836601
v -0.59018288 0.28346524 0.78714013
v -0.63052085 0.29580687 0.75030070
v -0.59018288 0.32527942 0.64229596
v -0.59018288 0.32896345 0.62729314
v -0.59018288 0.32963888 0.62430827
v -0.59018288 0.33989286 0.52737893
v -0.59018288 0.34112089 0.51009819
v -0.59018288 0.28911414 0.76915243
f 1 2 3
f 1 3 4
f 1 4 11
f 1 11 20
f 1 20 30
f 1 30 37
f 1 37 60
f 1 60 59
f 1 59 57
f 1 57 87
f 1 87 113
f 1 113 150
f 1 150 189
f 1 189 234
f 1 234 274
f 1 274 316
f 1 316 317
f 1 317 359
f 1 359 382
f 1 382 377
f 1 377 348
f 1 348 344
f 1 344 343
f 1 343 376
f 1 376 374
f 1 374 389
f 1 389 388
f 1 388 371
f 1 371 370
f 1 370 387
f 1 387 386
f 1 386 385
f 1 385 390
f 1 390 383
f 1 383 363
f 1 363 362
f 1 362 368
f 1 368 330
f 1 330 291
f 1 291 333
f 1 333 324
f 1 324 323
f 1 323 319
f 1 319 318
f 1 318 277
f 1 277 276
f 1 276 275
f 1 275 235
f 1 235 195
f 1 195 158
f 1 158 120
f 1 120 119
f 1 119 157
f 1 157 156
f 1 156 193
f 1 193 154
f 1 154 115
f 1 115 89
f 1 89 63
f 1 63 61
f 1 61 39
f 1 39 38
f 1 38 28
f 1 28 18
f 1 18 12
f 1 12 5
f 1 5 2
f 2 5 3
f 3 6 7
f 3 7 8
f 3 8 4
f 3 5 9
f 3 9 10
f 3 10 6
f 4 8 11
f 5 12 9
f 6 13 7
f 6 10 14
f 6 14 13
f 7 13 15
f 7 15 16
f 7 16 17
f 7 17 8
f 8 17 11
f 9 12 18
f 9 18 10
f 10 18 19
f 10 19 14
f 11 17 20
f 13 14 21
f 13 21 15
f 14 19 18
f 14 18 22
f 14 22 23
f 14 23 21
f 15 21 24
f 15 24 25
f 15 25 26
f 15 26 27
f 15 27 16
f 16 27 17
f 17 27 20
f 18 28 29
f 18 29 22
f 20 27 30
f 21 25 24
f 21 23 33
f 21 33 25
f 22 29 23
f 23 29 31
f 23 31 32
f 23 32 33
f 25 33 26
f 26 33 34
f 26 34 35
f 26 35 27
f 27 36 37
f 27 37 30
f 27 35 36
f 28 38 31
f 28 31 29
f 31 38 39
f 31 39 40
f 31 40 41
f 31 41 42
f 31 42 43
f 31 43 44
f 31 44 33
f 31 33 32
f 33 45 34
f 33 44 43
f 33 43 46
f 33 46 45
f 34 47 48
f 34 48 49
f 34 49 50
f 34 50 35
f 34 45 51
f 34 51 52
f 34 52 47
f 35 50 53
f 35 53 54
f 35 54 55
f 35 55 56
f 35 56 57
f 35 57 58
f 35 58 36
f 36 58 57
f 36 57 59
f 36 59 60
f 36 60 37
f 39 61 40
f 40 62 41
f 40 61 63
f 40 63 62
f 41 62 64
f 41 64 65
f 41 65 42
f 42 65 46
f 42 46 43
f 45 46 52
f 45 52 51
f 46 65 66
f 46 66 52
f 47 52 67
f 47 67 48
f 48 54 50
f 48 50 49
f 48 67 68
f 48 68 69
f 48 69 70
f 48 70 54
f 50 54 53
f 52 66 71
f 52 71 72
f 52 72 73
f 52 73 74
f 52 74 75
f 52 75 67
f 54 76 56
f 54 56 55
f 54 70 77
f 54 77 76
f 56 78 79
f 56 79 80
f 56 80 81
f 56 81 82
f 56 82 83
f 56 83 57
f 56 76 84
f 56 84 78
f 57 83 85
f 57 85 86
f 57 86 87
f 62 88 64
f 62 63 89
f 62 89 88
f 64 90 91
f 64 91 65
f 64 88 90
f 65 91 92
f 65 92 66
f 66 92 71
f 67 75 68
f 68 93 69
f 68 75 93
f 69 93 70
f 70 94 95
f 70 95 77
f 70 93 96
f 70 96 97
f 70 97 94
f 71 98 73
f 71 73 72
f 71 92 99
f 71 99 100
f 71 100 101
f 71 101 98
f 73 98 102
f 73 102 103
f 73 103 74
f 74 103 96
f 74 96 93
f 74 93 75
f 76 104 84
f 76 77 105
f 76 105 104
f 77 95 105
f 78 84 106
f 78 106 107
f 78 107 79
f 79 107 80
f 80 107 108
f 80 108 81
f 81 108 85
f 81 85 82
f 82 85 83
f 84 104 109
f 84 109 110
f 84 110 106
f 85 108 111
f 85 111 112
f 85 112 113
f 85 113 86
f 86 113 87
f 88 114 90
f 88 89 114
f 89 115 116
f 89 116 114
f 90 117 91
f 90 114 118
f 90 118 119
f 90 119 120
f 90 120 121
f 90 121 117
f 91 117 122
f 91 122 92
f 92 122 123
f 92 123 99
f 94 97 124
f 94 124 95
f 95 124 125
f 95 125 126
f 95 126 127
f 95 127 105
f 96 103 128
f 96 128 97
f 97 128 129
f 97 129 130
f 97 130 124
f 98 131 132
f 98 132 102
f 98 101 133
f 98 133 134
f 98 134 131
f 99 123 100
f 100 123 122
f 100 122 135
f 100 135 136
f 100 136 137
f 100 137 101
f 101 137 133
f 102 132 103
f 103 132 128
f 104 105 138
f 104 138 109
f 105 127 126
f 105 126 139
f 105 139 140
f 105 140 141
f 105 141 142
f 105 142 143
f 105 143 144
f 105 144 138
f 106 110 145
f 106 145 146
f 106 146 107
f 107 146 147
f 107 147 108
f 108 147 111
f 109 138 144
f 109 144 148
f 109 148 110
f 110 148 145
f 111 149 150
f 111 150 112
f 111 147 151
f 111 151 152
f 111 152 149
f 112 150 113
f 114 116 153
f 114 153 118
f 115 154 153
f 115 153 116
f 117 121 155
f 117 155 122
f 118 153 156
f 118 156 157
f 118 157 119
f 120 158 121
f 121 158 155
f 122 155 159
f 122 159 160
f 122 160 135
f 124 130 161
f 124 161 162
f 124 162 125
f 125 163 164
f 125 164 126
f 125 162 163
f 126 164 140
f 126 140 139
f 128 132 129
f 129 132 165
f 129 165 166
f 129 166 167
f 129 167 130
f 130 168 162
f 130 162 161
f 130 167 168
f 131 169 170
f 131 170 171
f 131 171 172
f 131 172 132
f 131 134 173
f 131 173 169
f 132 172 165
f 133 137 134
f 134 137 160
f 134 160 174
f 134 174 173
f 135 160 136
f 136 160 137
f 140 164 175
f 140 175 141
f 141 175 176
f 141 176 177
f 141 177 178
f 141 178 142
f 142 178 143
f 143 179 180
f 143 180 181
f 143 181 144
f 143 178 179
f 144 181 148
f 145 180 146
f 145 148 181
f 145 181 180
f 146 180 182
f 146 182 183
f 146 183 184
f 146 184 185
f 146 185 186
f 146 186 151
f 146 151 147
f 149 187 188
f 149 188 189
f 149 189 150
f 149 152 190
f 149 190 187
f 151 191 192
f 151 192 152
f 151 186 185
f 151 185 191
f 152 192 190
f 153 154 193
f 153 193 156
f 155 158 194
f 155 194 159
f 158 195 194
f 159 194 196
f 159 196 197
f 159 197 160
f 160 197 198
f 160 198 199
f 160 199 200
f 160 200 174
f 162 168 201
f 162 201 163
f 163 201 175
f 163 175 164
f 165 172 202
f 165 202 203
f 165 203 167
f 165 167 166
f 167 203 202
f 167 202 204
f 167 204 168
f 168 204 205
f 168 205 206
f 168 206 207
f 168 207 201
f 169 208 170
f 169 173 209
f 169 209 208
f 170 208 210
f 170 210 171
f 171 210 211
f 171 211 202
f 171 202 172
f 173 174 199
f 173 199 212
f 173 212 213
f 173 213 214
f 173 214 215
f 173 215 216
f 173 216 208
f 173 208 209
f 174 200 199
f 175 217 218
f 175 218 219
f 175 219 176
f 175 201 220
f 175 220 217
f 176 219 177
f 177 219 221
f 177 221 222
f 177 222 178
f 178 222 179
f 179 222 180
f 180 223 182
f 180 222 224
f 180 224 223
f 182 223 225
f 182 225 183
f 183 225 184
f 184 225 226
f 184 226 185
f 185 226 227
f 185 227 191
f 187 228 188
f 187 190 228
f 188 229 230
f 188 230 233
f 188 233 231
f 188 231 189
f 188 228 190
f 188 190 192
f 188 192 232
f 188 232 229
f 189 231 233
f 189 233 234
f 191 227 192
f 192 227 232
f 194 195 235
f 194 235 236
f 194 236 196
f 196 236 197
f 197 236 237
f 197 237 199
f 197 199 198
f 199 237 238
f 199 238 239
f 199 239 240
f 199 240 241
f 199 241 212
f 201 207 206
f 201 206 242
f 201 242 220
f 202 243 204
f 202 211 243
f 204 243 244
f 204 244 205
f 205 244 243
f 205 243 214
f 205 214 245
f 205 245 246
f 205 246 247
f 205 247 248
f 205 248 206
f 206 248 249
f 206 249 242
f 208 216 210
f 210 243 211
f 210 216 215
f 210 215 250
f 210 250 214
f 210 214 243
f 212 241 251
f 212 251 213
f 213 251 252
f 213 252 245
f 213 245 214
f 214 250 215
f 217 220 242
f 217 242 253
f 217 253 254
f 217 254 283
f 217 283 255
f 217 255 256
f 217 256 257
f 217 257 221
f 217 221 218
f 218 221 219
f 221 258 259
f 221 259 260
f 221 260 261
f 221 261 262
f 221 262 263
f 221 263 222
f 221 257 264
f 221 264 265
f 221 265 258
f 222 263 224
f 223 224 266
f 223 266 267
f 223 267 268
f 223 268 269
f 223 269 226
f 223 226 225
f 224 263 266
f 226 269 270
f 226 270 271
f 226 271 227
f 227 271 232
f 229 272 230
f 229 232 271
f 229 271 272
f 230 272 273
f 230 273 233
f 233 273 234
f 234 273 274
f 235 275 236
f 236 275 237
f 237 275 276
f 237 276 238
f 238 276 239
f 239 276 277
f 239 277 278
f 239 278 251
f 239 251 240
f 240 251 241
f 242 249 253
f 245 252 279
f 245 279 280
f 245 280 246
f 246 280 247
f 247 281 265
f 247 265 282
f 247 282 283
f 247 283 248
f 247 280 281
f 248 283 249
f 249 283 254
f 249 254 253
f 251 278 284
f 251 284 285
f 251 285 286
f 251 286 252
f 252 287 288
f 252 288 289
f 252 289 279
f 252 286 290
f 252 290 291
f 252 291 287
f 255 283 282
f 255 282 292
f 255 292 256
f 256 292 264
f 256 264 257
f 258 293 259
f 258 265 294
f 258 294 293
f 259 293 295
f 259 295 296
f 259 296 297
f 259 297 298
f 259 298 299
f 259 299 300
f 259 300 261
f 259 261 260
f 261 300 299
f 261 299 301
f 261 301 302
f 261 302 303
f 261 303 304
f 261 304 305
f 261 305 306
f 261 306 262
f 262 266 263
f 262 306 307
f 262 307 266
f 264 292 282
f 264 282 265
f 265 281 308
f 265 308 295
f 265 295 294
f 266 307 309
f 266 309 310
f 266 310 267
f 267 310 270
f 267 270 268
f 268 270 269
f 270 310 271
f 271 310 309
f 271 309 311
f 271 311 272
f 272 312 313
f 272 313 314
f 272 314 315
f 272 315 273
f 272 311 309
f 272 309 307
f 272 307 306
f 272 306 312
f 273 316 274
f 273 315 317
f 273 317 316
f 277 318 278
f 278 318 319
f 278 319 284
f 279 320 321
f 279 321 280
f 279 289 320
f 280 321 320
f 280 320 322
f 280 322 281
f 281 322 308
f 284 319 323
f 284 323 285
f 285 323 286
f 286 323 324
f 286 324 290
f 287 325 326
f 287 326 327
f 287 327 328
f 287 328 329
f 287 329 288
f 287 291 330
f 287 330 331
f 287 331 325
f 288 329 332
f 288 332 289
f 289 332 320
f 290 333 291
f 290 324 333
f 293 294 295
f 295 308 334
f 295 334 335
f 295 335 336
f 295 336 296
f 296 337 338
f 296 338 297
f 296 336 337
f 297 339 298
f 297 338 340
f 297 340 339
f 298 341 342
f 298 342 343
f 298 343 344
f 298 344 345
f 298 345 299
f 298 339 340
f 298 340 341
f 299 345 346
f 299 346 347
f 299 347 348
f 299 348 349
f 299 349 350
f 299 350 351
f 299 351 352
f 299 352 301
f 301 352 353
f 301 353 354
f 301 354 302
f 302 354 303
f 303 354 313
f 303 313 355
f 303 355 304
f 304 355 356
f 304 356 305
f 305 356 313
f 305 313 312
f 305 312 306
f 308 322 334
f 313 356 355
f 313 354 357
f 313 357 358
f 313 358 314
f 314 358 317
f 314 317 315
f 317 358 359
f 320 332 329
f 320 329 328
f 320 328 360
f 320 360 334
f 320 334 361
f 320 361 322
f 322 361 334
f 325 327 326
f 325 331 362
f 325 362 327
f 327 362 363
f 327 363 364
f 327 364 365
f 327 365 366
f 327 366 367
f 327 367 328
f 328 367 360
f 330 368 369
f 330 369 331
f 331 369 362
f 334 370 371
f 334 371 372
f 334 372 373
f 334 373 340
f 334 340 338
f 334 338 335
f 334 360 367
f 334 367 366
f 334 366 365
f 334 365 370
f 335 338 336
f 336 338 337
f 340 374 375
f 340 375 342
f 340 342 341
f 340 373 374
f 342 376 343
f 342 375 374
f 342 374 376
f 344 348 347
f 344 347 346
f 344 346 345
f 348 377 378
f 348 378 349
f 349 378 350
f 350 379 380
f 350 380 358
f 350 358 357
f 350 357 381
f 350 381 353
f 350 353 351
f 350 378 379
f 351 353 352
f 353 381 357
f 353 357 354
f 358 380 379
f 358 379 359
f 359 379 382
f 362 369 368
f 363 383 364
f 364 384 365
f 364 383 384
f 365 384 385
f 365 385 386
f 365 386 387
f 365 387 370
f 371 388 372
f 372 388 373
f 373 388 389
f 373 389 374
f 377 379 378
f 377 382 379
f 383 390 384
f 384 390 385

