# https://github.com/mikedh/trimesh
v 0.39892761 -0.31399708 0.66552180
v 0.39892761 -0.31242398 0.67837856
v 0.39892761 -0.31334935 0.65053781
v 0.48229911 -0.42522447 0.63925831
v 0.39892761 -0.30298540 0.74487260
v 0.39892761 -0.31297920 0.64746630
v 0.48561237 -0.42948110 0.63925831
v 0.39892761 -0.31094344 0.63925831
v 0.39892761 -0.30289287 0.74526691
v 0.48526564 -0.41263966 0.71733278
v 0.49397262 -0.43919728 0.63925831
v 0.39892761 0.45302769 0.63925831
v 0.48152859 -0.40088769 0.73461002
v 0.48314669 -0.39801909 0.74398019
v 0.48264583 -0.39598333 0.74526691
v 0.39892761 0.44358907 0.74526691
v 0.49767117 -0.44326886 0.63925831
v 0.49836467 -0.43410787 0.68279904
v 0.49979018 -0.43271979 0.69544826
v 0.49389561 -0.42078277 0.71733278
v 0.39892761 0.45321272 0.64825493
v 0.40597795 0.45709922 0.66552180
v 0.40597795 0.45598878 0.63925831
v 0.49693921 -0.41754405 0.72977446
v 0.48738460 -0.39931459 0.74526691
v 0.48418691 -0.39737136 0.74526691
v 0.46684992 0.44506961 0.74526691
v 0.47505609 0.45885740 0.71733278
v 0.45779617 0.46459459 0.70465241
v 0.45779617 0.46820346 0.69600861
v 0.39892761 0.44525469 0.74015120
v 0.51100139 -0.45603871 0.63925831
v 0.52267496 -0.46427433 0.63925831
v 0.50267965 -0.43142432 0.70695605
v 0.39892761 0.45349035 0.66552180
v 0.39892761 0.45358287 0.67575325
v 0.39892761 0.45358287 0.68279904
v 0.40597795 0.45700671 0.68279904
v 0.42323787 0.46246627 0.66552180
v 0.44381106 0.46857361 0.66552180
v 0.44627674 0.46737065 0.65489602
v 0.42323787 0.45913499 0.63925831
v 0.50888244 -0.42883334 0.71691770
v 0.50961444 -0.41976489 0.73229601
v 0.50961444 -0.41245459 0.74092945
v 0.49223895 -0.40199811 0.74526691
v 0.47505609 0.44506961 0.74526691
v 0.48888712 0.45108444 0.72922449
v 0.47652011 0.46505725 0.70079228
v 0.47174283 0.46801839 0.69552090
v 0.49285538 0.44331149 0.74526691
v 0.45779617 0.47060937 0.68279904
v 0.44743254 0.46709302 0.69344556
v 0.39892761 0.44904863 0.72536436
v 0.52710552 -0.46677280 0.63925831
v 0.52710552 -0.46325645 0.64871150
v 0.54459654 -0.47334281 0.63925831
v 0.39892761 0.45293513 0.69370498
v 0.39892761 0.45099188 0.71015208
v 0.40597795 0.45487838 0.70006590
v 0.44465864 0.46838854 0.68279904
v 0.45814295 0.46885119 0.66506522
v 0.45263366 0.46737065 0.65489602
v 0.44049774 0.45941262 0.63925831
v 0.54417274 -0.46556985 0.65486489
v 0.51419908 -0.43262728 0.71086808
v 0.52687431 -0.41874701 0.73076026
v 0.52687431 -0.43271979 0.71085770
v 0.52687431 -0.42744531 0.71949114
v 0.52687431 -0.41088151 0.73940406
v 0.52113388 -0.40569954 0.74526691
v 0.50961444 -0.40782784 0.74526691
v 0.49370296 0.45395301 0.71855723
v 0.49231601 0.45848725 0.70006590
v 0.48098917 0.46487218 0.68279904
v 0.47235921 0.46857361 0.68279904
v 0.51107846 0.43600119 0.74526691
v 0.50040656 0.44877104 0.72513607
v 0.53107372 -0.46834591 0.63925831
v 0.56158675 -0.47473084 0.63925831
v 0.46904595 0.46755573 0.67051300
v 0.46411453 0.46542740 0.65899484
v 0.45729536 0.45598878 0.63925831
v 0.53743059 -0.41624856 0.72773025
v 0.53662157 -0.43225718 0.70940496
v 0.55804234 -0.43512575 0.69504358
v 0.56143267 -0.47093689 0.64564000
v 0.53827817 -0.39922205 0.74502825
v 0.53716093 -0.39959220 0.74526691
v 0.52687431 -0.40458910 0.74526691
v 0.50248701 0.45062173 0.71361790
v 0.50267965 0.45080681 0.70006590
v 0.50171649 0.44997400 0.68974106
v 0.49293245 0.45534104 0.68351503
v 0.48726903 0.45265755 0.66552180
v 0.47490196 0.46181853 0.66506522
v 0.51847555 0.43202217 0.74526691
v 0.57079463 -0.47186221 0.63925831
v 0.57391526 -0.46899364 0.64246472
v 0.48457214 0.44997400 0.65597521
v 0.47378472 0.45284262 0.64942750
v 0.46754342 0.44988149 0.63925831
v 0.46661877 0.45043666 0.63925831
v 0.62380716 -0.43308994 0.65872503
v 0.62288257 -0.41578587 0.67531742
v 0.53862495 -0.39866685 0.74526691
v 0.51847555 0.43202217 0.74182184
v 0.71041489 0.12434244 0.63925831
v 0.49909668 0.44590247 0.67823327
v 0.72035478 0.11157257 0.74526691
v 0.69238445 0.15774767 0.71299530
v 0.57541783 -0.46982645 0.63925831
v 0.50680199 0.40490933 0.63925831
v 0.49254716 0.42378653 0.63925831
v 0.47682833 0.44183089 0.63925831
v 0.62858449 -0.43780925 0.63925831
v 0.64780924 -0.42365137 0.63925831
v 0.65593834 -0.41754405 0.63925831
v 0.77298203 -0.32389836 0.63925831
v 0.77479282 -0.30881511 0.65420078
v 0.59460402 -0.35239921 0.74526691
v 0.69211479 0.15737752 0.70006590
v 0.74362480 0.07057944 0.67170631
v 0.75290970 0.04291140 0.63925831
v 0.72497793 0.10416975 0.74526691
v 0.77602563 -0.32047455 0.63925831
v 0.77949303 -0.29734075 0.65954480
v 0.75514423 -0.25662522 0.70724659
v 0.72705837 -0.22710647 0.74526691
v 0.74362480 0.07057944 0.67654188
v 0.75537543 0.03430562 0.63925831
v 0.72567143 0.10250411 0.74526691
v 0.77941601 -0.31538511 0.63925831
v 0.77860694 -0.31371947 0.64268263
v 0.78249813 -0.30270779 0.64836907
v 0.78943287 -0.28494102 0.64825493
v 0.78157348 -0.28494102 0.66267856
v 0.77748965 -0.24265241 0.69189943
v 0.77579448 -0.25412677 0.68834021
v 0.76905233 -0.24968507 0.69956783
v 0.76231017 -0.24515086 0.71023510
v 0.72786745 -0.22507071 0.74526691
v 0.72786745 0.09500875 0.74526691
v 0.75183097 0.04309647 0.66552180
v 0.77171065 -0.02593483 0.63925831
v 0.78584990 -0.30252272 0.63925831
v 0.79155183 -0.28494102 0.63925831
v 0.78808448 -0.14678587 0.66552180
v 0.77748965 -0.24098677 0.69189943
v 0.76311925 -0.23312128 0.71132465
v 0.73091106 -0.21572465 0.74526691
v 0.73071841 0.07770466 0.74526691
v 0.78731392 -0.12948178 0.66552180
v 0.79039608 -0.12948178 0.63925831
v 0.78981816 -0.12948178 0.64825493
v 0.79251504 -0.14678587 0.63925831
v 0.79135924 -0.14678587 0.64825493
v 0.78192020 -0.14678587 0.68065105
v 0.73268324 -0.19906830 0.74526691
v 0.78138084 -0.12948178 0.67949923
f 1 2 5
f 1 5 9
f 1 9 16
f 1 16 31
f 1 31 54
f 1 54 59
f 1 59 58
f 1 58 37
f 1 37 36
f 1 36 35
f 1 35 21
f 1 21 12
f 1 12 8
f 1 8 6
f 1 6 3
f 1 3 4
f 1 4 2
f 2 4 5
f 3 6 4
f 4 7 5
f 4 6 8
f 4 8 12
f 4 12 23
f 4 23 42
f 4 42 64
f 4 64 83
f 4 83 103
f 4 103 102
f 4 102 115
f 4 115 114
f 4 114 113
f 4 113 108
f 4 108 124
f 4 124 131
f 4 131 145
f 4 145 154
f 4 154 156
f 4 156 147
f 4 147 146
f 4 146 133
f 4 133 126
f 4 126 119
f 4 119 118
f 4 118 117
f 4 117 116
f 4 116 112
f 4 112 98
f 4 98 80
f 4 80 57
f 4 57 79
f 4 79 55
f 4 55 33
f 4 33 32
f 4 32 17
f 4 17 11
f 4 11 7
f 5 7 10
f 5 10 9
f 7 11 10
f 9 10 13
f 9 13 14
f 9 14 15
f 9 15 26
f 9 26 25
f 9 25 46
f 9 46 72
f 9 72 71
f 9 71 90
f 9 90 89
f 9 89 106
f 9 106 121
f 9 121 129
f 9 129 142
f 9 142 151
f 9 151 159
f 9 159 152
f 9 152 143
f 9 143 132
f 9 132 125
f 9 125 110
f 9 110 97
f 9 97 77
f 9 77 51
f 9 51 47
f 9 47 27
f 9 27 16
f 10 11 17
f 10 17 18
f 10 18 19
f 10 19 20
f 10 20 14
f 10 14 13
f 12 21 22
f 12 22 23
f 14 20 24
f 14 24 25
f 14 25 26
f 14 26 15
f 16 27 28
f 16 28 29
f 16 29 30
f 16 30 31
f 17 19 18
f 17 32 19
f 19 32 33
f 19 33 34
f 19 34 20
f 20 34 24
f 21 35 22
f 22 35 36
f 22 36 37
f 22 37 38
f 22 38 39
f 22 39 23
f 23 39 40
f 23 40 41
f 23 41 42
f 24 34 43
f 24 43 44
f 24 44 45
f 24 45 46
f 24 46 25
f 27 47 28
f 28 48 49
f 28 49 50
f 28 50 30
f 28 30 29
f 28 47 51
f 28 51 48
f 30 52 53
f 30 53 31
f 30 50 52
f 31 53 54
f 33 55 34
f 34 55 56
f 34 56 57
f 34 57 43
f 37 58 38
f 38 58 59
f 38 59 60
f 38 60 61
f 38 61 40
f 38 40 39
f 40 61 52
f 40 52 62
f 40 62 41
f 41 62 63
f 41 63 64
f 41 64 42
f 43 57 65
f 43 65 66
f 43 66 44
f 44 67 45
f 44 66 68
f 44 68 69
f 44 69 67
f 45 67 70
f 45 70 71
f 45 71 72
f 45 72 46
f 48 73 49
f 48 51 73
f 49 73 74
f 49 74 50
f 50 74 75
f 50 75 76
f 50 76 52
f 51 77 78
f 51 78 73
f 52 61 53
f 52 76 62
f 53 61 54
f 54 61 60
f 54 60 59
f 55 79 56
f 56 79 57
f 57 80 65
f 62 76 81
f 62 81 63
f 63 81 82
f 63 82 83
f 63 83 64
f 65 80 68
f 65 68 66
f 67 84 70
f 67 69 85
f 67 85 86
f 67 86 84
f 68 80 87
f 68 87 69
f 69 87 85
f 70 84 88
f 70 88 89
f 70 89 90
f 70 90 71
f 73 78 91
f 73 91 74
f 74 92 75
f 74 91 92
f 75 92 93
f 75 93 94
f 75 94 95
f 75 95 96
f 75 96 81
f 75 81 76
f 77 97 78
f 78 97 91
f 80 98 99
f 80 99 87
f 81 96 82
f 82 96 100
f 82 100 101
f 82 101 102
f 82 102 103
f 82 103 83
f 84 86 104
f 84 104 88
f 85 87 99
f 85 99 86
f 86 99 104
f 88 105 106
f 88 106 89
f 88 104 105
f 91 97 92
f 92 97 107
f 92 107 108
f 92 108 93
f 93 109 100
f 93 100 95
f 93 95 94
f 93 108 109
f 95 100 96
f 97 110 111
f 97 111 107
f 98 112 99
f 99 112 104
f 100 113 114
f 100 114 115
f 100 115 102
f 100 102 101
f 100 109 108
f 100 108 113
f 104 112 116
f 104 116 117
f 104 117 118
f 104 118 119
f 104 119 120
f 104 120 105
f 105 121 106
f 105 120 121
f 107 111 122
f 107 122 108
f 108 122 111
f 108 111 123
f 108 123 124
f 110 125 111
f 111 125 123
f 119 126 120
f 120 126 127
f 120 127 128
f 120 128 121
f 121 128 129
f 123 125 130
f 123 130 124
f 124 130 131
f 125 132 130
f 126 133 134
f 126 134 127
f 127 134 135
f 127 135 136
f 127 136 137
f 127 137 138
f 127 138 139
f 127 139 140
f 127 140 141
f 127 141 128
f 128 141 129
f 129 141 142
f 130 132 143
f 130 143 144
f 130 144 131
f 131 144 145
f 133 146 135
f 133 135 134
f 135 146 136
f 136 146 147
f 136 147 148
f 136 148 138
f 136 138 137
f 138 148 149
f 138 149 150
f 138 150 141
f 138 141 140
f 138 140 139
f 141 150 151
f 141 151 142
f 143 152 153
f 143 153 145
f 143 145 144
f 145 153 155
f 145 155 154
f 147 156 157
f 147 157 148
f 148 157 153
f 148 153 158
f 148 158 149
f 149 158 152
f 149 152 150
f 150 159 151
f 150 152 159
f 152 158 160
f 152 160 153
f 153 160 158
f 153 157 155
f 154 155 156
f 155 157 156

