# https://github.com/mikedh/trimesh
v 0.13604848 0.24984858 0.15682890
v 0.08094371 0.24984858 0.19028880
v 0.08094371 0.26402842 0.18777751
v 0.08094371 0.28188449 0.18610335
v 0.08094371 0.28502439 0.18581634
v 0.08094371 0.30285814 0.18737091
v 0.14551958 0.27940388 0.15682890
v 0.61415603 0.24984858 0.15682890
v 0.08094371 0.24984858 0.40116514
v 0.08094371 0.31692622 0.19002573
v 0.15345321 0.30155078 0.15682890
v 0.62780919 0.29162824 0.15682890
v 0.64773547 0.26774936 0.16574993
v 0.66175770 0.26774936 0.17031810
v 0.65942067 0.25533503 0.17165743
v 0.64835051 0.24984858 0.16969626
v 0.08094371 0.33039091 0.40116514
v 0.65013402 0.24984858 0.40116514
v 0.08094371 0.32016669 0.19067146
v 0.16329334 0.32006612 0.15682890
v 0.62983873 0.30229942 0.15682890
v 0.66255720 0.28502439 0.17036592
v 0.67116729 0.28502439 0.17469491
v 0.67036779 0.26774936 0.17526892
v 0.69207762 0.25048550 0.18959520
v 0.68285244 0.24984858 0.18442913
v 0.63020774 0.30912675 0.15682890
v 0.68236049 0.24984858 0.18418995
v 0.66520172 0.24984858 0.17624953
v 0.08094371 0.34890625 0.26840178
v 0.25185456 0.36399120 0.40116514
v 0.68192995 0.24984858 0.33656528
v 0.64133942 0.36399120 0.31709683
v 0.63918690 0.36399120 0.32111489
v 0.64699749 0.25639657 0.40116514
v 0.08094371 0.32205509 0.19117376
v 0.17030443 0.33025683 0.15682890
v 0.65868264 0.35411334 0.17175313
v 0.62983873 0.31956328 0.15682890
v 0.69097058 0.29382951 0.19040839
v 0.69195458 0.26319036 0.18964302
v 0.69933469 0.24984858 0.19966426
v 0.69232360 0.24984858 0.18995397
v 0.69201605 0.24984858 0.18964302
v 0.08094371 0.34934204 0.26507732
v 0.20874246 0.36399120 0.17703878
v 0.08094371 0.35059354 0.25094237
v 0.58082256 0.36399120 0.40116514
v 0.69004804 0.24984858 0.32001472
v 0.67233580 0.36399120 0.23831419
v 0.63678830 0.36399120 0.32515687
v 0.62528765 0.29984115 0.40116514
v 0.63291379 0.28497970 0.40116514
v 0.08094371 0.33622376 0.19923377
v 0.20720494 0.36286261 0.15682890
v 0.18813968 0.34716310 0.15682890
v 0.17399448 0.33412303 0.15682890
v 0.65240958 0.36399120 0.16986367
v 0.65788314 0.36399120 0.17223144
v 0.62639470 0.33481583 0.15682890
v 0.63789534 0.36399120 0.16402795
v 0.67498038 0.35093993 0.18839935
v 0.67356584 0.36246034 0.19064757
v 0.67350432 0.36399120 0.19165207
v 0.67627183 0.36399120 0.20057310
v 0.69189311 0.29809801 0.19913812
v 0.70653029 0.24984858 0.21674101
v 0.70628431 0.24984858 0.21599958
v 0.66255720 0.36399120 0.17715837
v 0.66661627 0.36399120 0.18208526
v 0.20831195 0.36399120 0.17392959
v 0.08094371 0.35048180 0.24780923
v 0.20837346 0.36399120 0.16457802
v 0.20935747 0.36399120 0.15682890
v 0.59712025 0.34083862 0.40116514
v 0.70880585 0.24984858 0.25094237
v 0.67522636 0.36399120 0.22968013
v 0.61821509 0.31056822 0.40116514
v 0.62135162 0.30589748 0.40116514
v 0.08094371 0.34288347 0.20509344
v 0.61962959 0.36399120 0.15682890
v 0.67208983 0.36399120 0.18914077
v 0.67688687 0.36399120 0.20650453
v 0.70911329 0.24984858 0.23367428
v 0.08094371 0.34954317 0.23367428
v 0.08303474 0.34562109 0.20748514
v 0.08094371 0.34611276 0.21035516
v 0.08094371 0.34645915 0.21245990
v 0.08094371 0.34911856 0.23027806
v 0.67750192 0.36399120 0.21595175
f 1 2 3
f 1 3 4
f 1 4 5
f 1 5 6
f 1 6 7
f 1 7 11
f 1 11 20
f 1 20 37
f 1 37 57
f 1 57 56
f 1 56 55
f 1 55 74
f 1 74 81
f 1 81 60
f 1 60 39
f 1 39 27
f 1 27 21
f 1 21 12
f 1 12 8
f 1 8 16
f 1 16 29
f 1 29 28
f 1 28 26
f 1 26 44
f 1 44 43
f 1 43 42
f 1 42 68
f 1 68 67
f 1 67 84
f 1 84 76
f 1 76 49
f 1 49 32
f 1 32 18
f 1 18 9
f 1 9 2
f 2 9 17
f 2 17 30
f 2 30 45
f 2 45 47
f 2 47 72
f 2 72 85
f 2 85 89
f 2 89 88
f 2 88 87
f 2 87 80
f 2 80 54
f 2 54 36
f 2 36 19
f 2 19 10
f 2 10 6
f 2 6 5
f 2 5 4
f 2 4 3
f 6 10 11
f 6 11 7
f 8 12 13
f 8 13 14
f 8 14 15
f 8 15 16
f 9 18 35
f 9 35 53
f 9 53 52
f 9 52 79
f 9 79 78
f 9 78 75
f 9 75 48
f 9 48 31
f 9 31 17
f 10 19 11
f 11 19 20
f 12 21 14
f 12 14 13
f 14 22 23
f 14 23 24
f 14 24 25
f 14 25 26
f 14 26 15
f 14 21 27
f 14 27 22
f 15 26 28
f 15 28 29
f 15 29 16
f 17 31 30
f 18 32 33
f 18 33 34
f 18 34 35
f 19 36 20
f 20 36 37
f 22 38 23
f 22 27 39
f 22 39 38
f 23 38 40
f 23 40 41
f 23 41 25
f 23 25 24
f 25 41 42
f 25 42 43
f 25 43 44
f 25 44 26
f 30 31 45
f 31 46 47
f 31 47 45
f 31 48 51
f 31 51 34
f 31 34 33
f 31 33 50
f 31 50 77
f 31 77 90
f 31 90 83
f 31 83 65
f 31 65 64
f 31 64 82
f 31 82 70
f 31 70 69
f 31 69 59
f 31 59 58
f 31 58 61
f 31 61 81
f 31 81 74
f 31 74 73
f 31 73 71
f 31 71 46
f 32 49 33
f 33 49 50
f 34 51 52
f 34 52 53
f 34 53 35
f 36 54 55
f 36 55 56
f 36 56 57
f 36 57 37
f 38 58 59
f 38 59 40
f 38 39 58
f 39 60 61
f 39 61 58
f 40 62 63
f 40 63 64
f 40 64 65
f 40 65 66
f 40 66 67
f 40 67 68
f 40 68 42
f 40 42 41
f 40 59 69
f 40 69 70
f 40 70 62
f 46 71 47
f 47 71 73
f 47 73 74
f 47 74 72
f 48 75 51
f 49 76 77
f 49 77 50
f 51 78 79
f 51 79 52
f 51 75 78
f 54 80 55
f 55 80 74
f 60 81 61
f 62 70 82
f 62 82 63
f 63 82 64
f 65 83 84
f 65 84 67
f 65 67 66
f 72 74 85
f 74 80 86
f 74 86 87
f 74 87 88
f 74 88 89
f 74 89 85
f 76 84 90
f 76 90 77
f 80 87 86
f 83 90 84

