# https://github.com/mikedh/trimesh
v 0.19181206 0.41580721 0.53369255
v 0.19864743 0.41572726 0.53369255
v 0.19864743 0.41676682 0.52732305
v 0.18544331 0.41540741 0.53369255
v 0.20972024 0.41484766 0.53369255
v 0.20972024 0.41620706 0.51625747
v 0.20972024 0.41596716 0.50996580
v 0.19926539 0.41604711 0.50982309
v 0.18136982 0.41548736 0.51607585
v 0.18158422 0.41572726 0.52596094
v 0.20972024 0.41572726 0.52663549
v 0.08088221 0.40653111 0.53369255
v 0.20972024 -0.24487454 0.53369255
v 0.20972024 0.41540741 0.50366115
v 0.20972024 0.41500756 0.50028828
v 0.20543236 0.41492761 0.50049585
v 0.08088221 0.40245284 0.49284205
v 0.08088221 0.40493180 0.51004362
v 0.08088221 0.40629126 0.52732305
v 0.08088221 -0.20936949 0.53369255
v 0.20273353 -0.24327523 0.53369255
v 0.20972024 -0.38585517 0.41591491
v 0.20972024 0.41340825 0.49675975
v 0.08088221 0.39893432 0.48134838
v 0.08088221 0.40157324 0.48987134
v 0.08088221 -0.26694525 0.40117811
v 0.18004563 -0.38777433 0.40117811
v 0.18278230 -0.39081305 0.40117811
v 0.18833131 -0.39689053 0.40117811
v 0.13286639 -0.22624239 0.53369255
v 0.20972024 -0.39529117 0.40750871
v 0.20972024 0.40485185 0.48459151
v 0.20972024 0.40149324 0.48003814
v 0.20972024 0.34047897 0.40117811
v 0.08088221 0.39165739 0.47277353
v 0.08088221 0.33032322 0.40117811
v 0.19971939 -0.39888969 0.40117811
v 0.20972024 -0.39553107 0.40726225
v 0.20972024 -0.40016915 0.40117811
v 0.20466307 -0.39952939 0.40117811
v 0.20972024 -0.39976929 0.40172297
v 0.20972024 -0.39681053 0.40560174
f 1 2 3
f 1 3 4
f 1 4 12
f 1 12 20
f 1 20 30
f 1 30 21
f 1 21 13
f 1 13 5
f 1 5 2
f 2 5 3
f 3 6 7
f 3 7 8
f 3 8 9
f 3 9 10
f 3 10 4
f 3 5 11
f 3 11 6
f 4 10 12
f 5 13 22
f 5 22 31
f 5 31 38
f 5 38 42
f 5 42 41
f 5 41 39
f 5 39 34
f 5 34 33
f 5 33 32
f 5 32 23
f 5 23 15
f 5 15 14
f 5 14 7
f 5 7 6
f 5 6 11
f 7 14 8
f 8 14 15
f 8 15 16
f 8 16 17
f 8 17 9
f 9 17 18
f 9 18 19
f 9 19 12
f 9 12 10
f 12 19 18
f 12 18 17
f 12 17 25
f 12 25 24
f 12 24 35
f 12 35 36
f 12 36 26
f 12 26 20
f 13 21 22
f 15 23 16
f 16 23 24
f 16 24 25
f 16 25 17
f 20 26 27
f 20 27 28
f 20 28 29
f 20 29 30
f 21 30 22
f 22 29 31
f 22 30 29
f 23 32 24
f 24 32 33
f 24 33 34
f 24 34 35
f 26 36 34
f 26 34 39
f 26 39 40
f 26 40 37
f 26 37 29
f 26 29 28
f 26 28 27
f 29 37 38
f 29 38 31
f 34 36 35
f 37 40 41
f 37 41 42
f 37 42 38
f 39 41 40

