# https://github.com/mikedh/trimesh
v -0.19777547 0.13761016 0.22910154
v -0.19816705 0.13761016 0.22919467
v -0.44779677 0.25086383 0.29215243
v -0.44779677 0.26712443 0.29331660
v -0.44779677 0.27495649 0.29396854
v -0.31958009 0.28501886 0.26877612
v -0.19777547 0.31956292 0.24963732
v -0.19777547 0.13761016 0.70482400
v -0.19912152 0.13761016 0.22942749
v -0.44779677 0.23291751 0.29215243
v -0.44779677 0.27767955 0.29429452
v -0.22880787 0.33097386 0.25843838
v -0.19777547 0.33595317 0.25308323
v -0.41510017 0.31149745 0.29392196
v -0.19777547 0.38361982 0.70482400
v -0.44779677 0.13761016 0.70482400
v -0.44779677 0.13761016 0.31157064
v -0.44779677 0.21590483 0.29392196
v -0.44779677 0.22005427 0.29322347
v -0.44779677 0.28553755 0.29601747
v -0.19777547 0.33683494 0.25326949
v -0.44779677 0.29183949 0.29764729
v -0.44779677 0.30229090 0.30067412
v -0.44779677 0.31943324 0.30723997
v -0.43739550 0.33123319 0.30882322
v -0.38316225 0.33024769 0.29345630
v -0.21507824 0.33678307 0.25713452
v -0.20342885 0.38374950 0.70482400
v -0.19777547 0.38527961 0.68275152
v -0.44779677 0.34547095 0.70482400
v -0.20876407 0.34609338 0.25918344
v -0.19777547 0.34661205 0.25764676
v -0.44779677 0.32682441 0.31068589
v -0.44779677 0.32941782 0.31212943
v -0.44625496 0.36090168 0.33015065
v -0.43472791 0.36453242 0.32768262
v -0.41123336 0.37866642 0.33005752
v -0.39970633 0.38053369 0.32824143
v -0.21593482 0.38385323 0.70482400
v -0.21593482 0.40252569 0.33732187
v -0.19777547 0.40117712 0.33732187
v -0.19865652 0.40128085 0.33732187
v -0.44779677 0.35644100 0.66496316
v -0.42772850 0.35146171 0.70482400
v -0.43335738 0.36315793 0.65816446
v -0.21593482 0.37423172 0.28134906
v -0.19865652 0.34715667 0.25811240
v -0.19777547 0.34723446 0.25801927
v -0.44779677 0.36014959 0.33043003
v -0.44779677 0.36152408 0.33173390
v -0.44779677 0.36759263 0.33881202
v -0.42486508 0.37679918 0.33639056
v -0.42021511 0.38193412 0.34155939
v -0.40565339 0.38349014 0.33639056
v -0.38864431 0.38766553 0.33732187
v -0.33683391 0.39560132 0.33354999
v -0.38864431 0.38193412 0.32698413
v -0.30230179 0.38512399 0.63096967
v -0.31958009 0.38426817 0.63096967
v -0.33355447 0.38074115 0.66025995
v -0.22068268 0.38349014 0.70482400
v -0.31958009 0.39964703 0.35459801
v -0.21593482 0.40021756 0.32004574
v -0.23321312 0.40218854 0.33732187
v -0.19777547 0.40112525 0.33671651
v -0.19777547 0.39892086 0.32041827
v -0.19995362 0.39899867 0.31971978
v -0.44779677 0.35898254 0.65294902
v -0.41067047 0.35592233 0.70482400
v -0.34508147 0.37996312 0.65620867
v -0.42320091 0.36642558 0.64824581
v -0.43536421 0.36370252 0.64824581
v -0.44400339 0.36126475 0.64824581
v -0.44779677 0.35991618 0.64824581
v -0.39779739 0.36284670 0.69183198
v -0.37180653 0.36546603 0.70482400
v -0.35411221 0.36907086 0.70482400
v -0.37139049 0.37010822 0.68275152
v -0.35411221 0.37664358 0.66547537
v -0.21593482 0.38336048 0.29001040
v -0.19865652 0.37490599 0.28153532
v -0.19777547 0.37433545 0.28120934
v -0.44779677 0.37425767 0.35394608
v -0.43171766 0.37998907 0.34682143
v -0.40592261 0.38766553 0.35459801
v -0.38864431 0.39137409 0.35459801
v -0.34718619 0.39762418 0.34472594
v -0.37139049 0.39085541 0.33732187
v -0.37139049 0.38390510 0.32530773
v -0.33683391 0.39814285 0.34216477
v -0.31958009 0.39666460 0.33168736
v -0.22633606 0.39770197 0.31063931
v -0.33683391 0.39907646 0.35459801
v -0.33683391 0.38263432 0.63096967
v -0.33832678 0.38136356 0.64954967
v -0.34735752 0.39757229 0.36488918
v -0.33683391 0.37117151 0.70482400
v -0.23255231 0.39933582 0.31981291
v -0.20658594 0.39741669 0.31119811
v -0.21593482 0.39767603 0.31068589
v -0.19777547 0.39658679 0.31315390
v -0.34858120 0.38042995 0.64470676
v -0.35423458 0.37908138 0.64954967
v -0.35411221 0.37334998 0.68275152
v -0.40592261 0.37083436 0.63096967
v -0.42320091 0.36751482 0.63096967
v -0.44779677 0.37604709 0.37974386
v -0.44779677 0.37506162 0.39646123
v -0.19865652 0.38284181 0.29015009
v -0.21593482 0.39199649 0.30202454
v -0.19777547 0.38229719 0.28996383
v -0.44779677 0.37552842 0.36190895
v -0.42486508 0.38232311 0.35338731
v -0.43264767 0.38022248 0.35832332
v -0.34816513 0.39775384 0.35459801
v -0.35920270 0.37944445 0.63096967
v -0.29601210 0.39749450 0.32824143
v -0.19777547 0.39396749 0.30854383
v -0.19995362 0.39204836 0.30439941
v -0.19777547 0.38266026 0.29042948
f 1 2 3
f 1 3 4
f 1 4 5
f 1 5 6
f 1 6 7
f 1 7 13
f 1 13 21
f 1 21 32
f 1 32 48
f 1 48 82
f 1 82 111
f 1 111 120
f 1 120 118
f 1 118 101
f 1 101 66
f 1 66 65
f 1 65 41
f 1 41 29
f 1 29 15
f 1 15 8
f 1 8 16
f 1 16 17
f 1 17 9
f 1 9 2
f 2 9 3
f 3 9 10
f 3 10 19
f 3 19 18
f 3 18 17
f 3 17 16
f 3 16 30
f 3 30 43
f 3 43 68
f 3 68 74
f 3 74 108
f 3 108 107
f 3 107 112
f 3 112 83
f 3 83 51
f 3 51 50
f 3 50 49
f 3 49 34
f 3 34 33
f 3 33 24
f 3 24 23
f 3 23 22
f 3 22 20
f 3 20 11
f 3 11 5
f 3 5 4
f 5 11 6
f 6 11 7
f 7 12 13
f 7 11 14
f 7 14 12
f 8 15 28
f 8 28 39
f 8 39 61
f 8 61 97
f 8 97 77
f 8 77 76
f 8 76 69
f 8 69 44
f 8 44 30
f 8 30 16
f 9 17 18
f 9 18 19
f 9 19 10
f 11 20 14
f 12 21 13
f 12 14 21
f 14 20 22
f 14 22 23
f 14 23 24
f 14 24 25
f 14 25 26
f 14 26 27
f 14 27 21
f 15 29 28
f 21 27 31
f 21 31 32
f 24 33 25
f 25 33 34
f 25 34 35
f 25 35 36
f 25 36 26
f 26 36 37
f 26 37 38
f 26 38 31
f 26 31 27
f 28 29 39
f 29 40 39
f 29 41 42
f 29 42 40
f 30 44 45
f 30 45 43
f 31 46 47
f 31 47 32
f 31 38 46
f 32 47 48
f 34 49 35
f 35 49 50
f 35 50 37
f 35 37 36
f 37 50 51
f 37 51 52
f 37 52 53
f 37 53 54
f 37 54 38
f 38 54 55
f 38 55 56
f 38 56 57
f 38 57 46
f 39 58 59
f 39 59 60
f 39 60 61
f 39 40 62
f 39 62 58
f 40 42 63
f 40 63 64
f 40 64 62
f 41 65 42
f 42 65 66
f 42 66 67
f 42 67 63
f 43 45 68
f 44 69 45
f 45 70 71
f 45 71 72
f 45 72 73
f 45 73 74
f 45 74 68
f 45 69 75
f 45 75 76
f 45 76 77
f 45 77 78
f 45 78 79
f 45 79 70
f 46 80 81
f 46 81 48
f 46 48 47
f 46 57 80
f 48 81 82
f 51 83 84
f 51 84 52
f 52 84 53
f 53 84 85
f 53 85 86
f 53 86 55
f 53 55 54
f 55 86 87
f 55 87 88
f 55 88 56
f 56 89 57
f 56 88 87
f 56 87 90
f 56 90 91
f 56 91 92
f 56 92 89
f 57 89 80
f 58 62 93
f 58 93 59
f 59 94 95
f 59 95 60
f 59 93 96
f 59 96 94
f 60 95 70
f 60 70 77
f 60 77 97
f 60 97 61
f 62 64 93
f 63 92 98
f 63 98 90
f 63 90 64
f 63 67 99
f 63 99 100
f 63 100 92
f 64 90 93
f 66 101 99
f 66 99 67
f 69 76 75
f 70 95 102
f 70 102 103
f 70 103 71
f 70 79 104
f 70 104 77
f 71 103 105
f 71 105 106
f 71 106 72
f 72 106 85
f 72 85 107
f 72 107 108
f 72 108 73
f 73 108 74
f 77 104 78
f 78 104 79
f 80 109 81
f 80 89 92
f 80 92 110
f 80 110 109
f 81 109 82
f 82 109 111
f 83 112 84
f 84 113 85
f 84 112 114
f 84 114 113
f 85 113 114
f 85 114 107
f 85 106 86
f 86 96 115
f 86 115 87
f 86 106 105
f 86 105 116
f 86 116 102
f 86 102 96
f 87 115 93
f 87 93 90
f 90 98 117
f 90 117 91
f 91 117 92
f 92 100 110
f 92 117 98
f 93 115 96
f 94 96 95
f 95 96 102
f 99 118 119
f 99 119 109
f 99 109 110
f 99 110 100
f 99 101 118
f 102 116 103
f 103 116 105
f 107 114 112
f 109 119 118
f 109 118 120
f 109 120 111

