# https://github.com/mikedh/trimesh
v 0.70912431 0.24984858 0.23367428
v 0.70651587 0.24984858 0.21674101
v 0.70881738 0.24984858 0.25094237
v 0.71173270 0.24624099 0.25094237
v 0.79788677 0.12505639 0.33730671
v 0.81223302 0.10414726 0.31020873
v 0.70628575 0.24984858 0.21599958
v 0.81039180 0.10090780 0.29868072
v 0.71073535 0.24440042 0.26443156
v 0.79957457 0.10952177 0.40116514
v 0.70390749 0.24984858 0.26902362
v 0.80555857 0.10105506 0.40116514
v 0.80555857 0.11224586 0.33730671
v 0.81223302 0.10414726 0.31425070
v 0.84430108 0.02897745 0.35457479
v 0.84752317 0.02028985 0.35457479
v 0.84690942 0.01881738 0.34429047
v 0.81453458 0.09509153 0.30377505
v 0.69930442 0.24984858 0.19966426
v 0.81330707 0.08934889 0.29119469
v 0.69002157 0.24984858 0.32001472
v 0.79136578 0.11813575 0.40116514
v 0.69278343 0.24336970 0.33149487
v 0.81023834 0.09303008 0.40116514
v 0.83102888 0.05364139 0.40116514
v 0.84744647 0.01977448 0.36622239
v 0.86110226 -0.03890361 0.40116514
v 0.86286677 -0.05620518 0.40116514
v 0.86325035 -0.06047536 0.40116514
v 0.86409428 -0.11871171 0.39676440
v 0.84453120 0.00858368 0.33536943
v 0.83839375 0.02588525 0.32001472
v 0.83118229 0.03943202 0.30676466
v 0.69232308 0.24984858 0.18995397
v 0.77663594 0.11887200 0.24359984
v 0.76190610 0.12387840 0.22307904
v 0.82420096 0.02588525 0.28547853
v 0.81545516 0.02470727 0.26761252
v 0.81008487 0.07771634 0.28019287
v 0.79727301 0.07440327 0.25496043
v 0.68188949 0.24984858 0.33656528
v 0.65012830 0.24984858 0.40116514
v 0.83310027 0.04789874 0.40116514
v 0.85565531 -0.02035043 0.40116514
v 0.85741977 -0.02594584 0.40116514
v 0.86455452 -0.11591401 0.40116514
v 0.86409428 -0.12246652 0.39676440
v 0.83893079 0.00858368 0.32001472
v 0.83263992 0.02588525 0.30410987
v 0.69201626 0.24984858 0.18964302
v 0.76359396 0.11224586 0.22114176
v 0.77840045 0.10731306 0.24061021
v 0.77287680 0.11276124 0.23439177
v 0.78077872 0.09494429 0.23833810
v 0.81207956 0.01660866 0.25931333
v 0.81207956 0.01822838 0.25931333
v 0.78361727 0.07771634 0.23637691
v 0.08088221 0.24984858 0.40116514
v 0.86455452 -0.12519060 0.40116514
v 0.86232972 -0.13380456 0.40116514
v 0.85910758 -0.12872454 0.39025898
v 0.83041512 -0.14205042 0.34402740
v 0.82366396 0.00858368 0.28547853
v 0.68281007 0.24984858 0.18442913
v 0.75469465 0.11224586 0.21250773
v 0.74602556 0.11224586 0.20535651
v 0.73413428 0.11224586 0.19827710
v 0.81407424 -0.14676233 0.32663973
v 0.79481809 0.01668229 0.24209307
v 0.82351049 -0.14742495 0.33788072
v 0.79481809 0.01859651 0.24209307
v 0.75553852 0.09494429 0.21150318
v 0.08088221 0.24984858 0.19028880
v 0.08088221 -0.26691622 0.40116514
v 0.85603885 -0.14624697 0.40116514
v 0.82842044 -0.15353572 0.34754319
v 0.68234978 0.24984858 0.18418995
v 0.74694614 0.09494429 0.20490209
v 0.72615566 0.03980013 0.19004962
v 0.72086207 0.11224586 0.19203473
v 0.81200285 -0.15559719 0.32855309
v 0.74633239 -0.00466859 0.20521303
v 0.75653591 0.00858368 0.21088134
v 0.77648253 0.02588525 0.22578166
v 0.75630574 0.04311320 0.21035516
v 0.08088221 0.19396817 0.15682890
v 0.13604232 0.24984858 0.15682890
v 0.08088221 -0.27258525 0.39645350
v 0.15215306 -0.40135311 0.36780089
v 0.16811036 -0.40120587 0.38509291
v 0.17501496 -0.39178205 0.39662092
v 0.18007835 -0.38780635 0.40116514
v 0.85013161 -0.15559719 0.40116514
v 0.77939779 -0.26257243 0.39284201
v 0.77671265 -0.25815500 0.38133795
v 0.77701957 -0.22406724 0.34641910
v 0.66508826 0.24984858 0.17620170
v 0.74786678 0.02588525 0.20416066
v 0.72607895 0.02588525 0.19007356
v 0.71687281 0.02588525 0.18502708
v 0.73474804 0.02588525 0.19552663
v 0.76090881 -0.22539246 0.32783558
v 0.76344049 -0.19358702 0.30827145
v 0.70881738 -0.03529605 0.19007356
v 0.72377739 -0.00864426 0.19167601
v 0.72538849 0.00210480 0.19055187
v 0.74794348 0.00858368 0.20406500
v 0.71134911 -0.02594584 0.18868635
v 0.76781344 0.02588525 0.21908489
v 0.75645921 0.02588525 0.21045086
v 0.08088221 -0.37183000 0.15682890
v 0.61414763 0.24984858 0.15682890
v 0.08088221 -0.27950589 0.39033072
v 0.17102565 -0.46731994 0.29557153
v 0.20432117 -0.46960230 0.33226021
v 0.10052197 -0.40172125 0.28160397
v 0.10589224 -0.41320652 0.27447671
v 0.24053196 -0.48440066 0.34766278
v 0.24643925 -0.47946786 0.35919078
v 0.25794689 -0.48410614 0.36383069
v 0.28172943 -0.46135644 0.40116514
v 0.18652263 -0.39862904 0.39939528
v 0.18836387 -0.39686206 0.40116514
v 0.78031837 -0.26581187 0.40116514
v 0.77464126 -0.27391047 0.40116514
v 0.74403088 -0.31256292 0.39537725
v 0.74050186 -0.30763015 0.38387315
v 0.72899421 -0.31528701 0.37555002
v 0.72477473 -0.30976522 0.36402201
v 0.76443783 -0.23194496 0.33843080
v 0.69953454 0.02588525 0.17785198
v 0.64836379 0.24984858 0.16969626
v 0.73252323 0.00814193 0.19447431
v 0.71848386 0.00814193 0.18667736
v 0.69953454 0.00858368 0.17806722
v 0.64053858 -0.20897437 0.22415530
v 0.71326709 -0.31631774 0.35885595
v 0.56704291 -0.34355851 0.26108316
v 0.57233644 -0.33199959 0.25711295
v 0.67552191 -0.03617953 0.17225538
v 0.71510825 -0.00864426 0.18689260
v 0.69953454 -0.00864426 0.17947831
v 0.69953454 -0.02594584 0.18227661
v 0.24559535 -0.41703496 0.18859070
v 0.23324377 -0.41813932 0.18780145
v 0.19872076 -0.41946455 0.18660559
v 0.16412105 -0.42086339 0.18603158
v 0.14685953 -0.41983266 0.18545757
v 0.08088221 -0.38397792 0.16558252
v 0.38123241 -0.26021648 0.15682890
v 0.66501155 -0.00864426 0.16591735
v 0.64775004 -0.02594584 0.16216238
v 0.62059197 -0.02594584 0.15682890
v 0.08088221 -0.36976855 0.28466536
v 0.08172612 -0.37116739 0.28452186
v 0.16956799 -0.46842431 0.28547853
v 0.18138254 -0.47446149 0.28547853
v 0.21306699 -0.48130846 0.32001472
v 0.10220978 -0.41585699 0.26297262
v 0.09875746 -0.41806571 0.25094237
v 0.09645593 -0.42020078 0.23367428
v 0.08088221 -0.37124101 0.28291941
v 0.08901430 -0.39266551 0.27170232
v 0.08609904 -0.39767193 0.26019826
v 0.09561205 -0.40547604 0.26732552
v 0.09016508 -0.40959897 0.25094237
v 0.22426778 -0.48373805 0.32895965
v 0.23416438 -0.48513689 0.33575208
v 0.25050529 -0.48896532 0.33730671
v 0.25150261 -0.48557865 0.35388122
v 0.39258664 -0.50192308 0.40116514
v 0.32323377 -0.48550498 0.40116514
v 0.31272342 -0.48042494 0.40116514
v 0.29760999 -0.47188466 0.40116514
v 0.74502822 -0.31425626 0.40116514
v 0.73750989 -0.32294388 0.40116514
v 0.72408427 -0.32684593 0.38262945
v 0.71871398 -0.32154501 0.36957076
v 0.67805359 -0.02594584 0.17127477
v 0.67912764 -0.00864426 0.17103559
v 0.56489481 -0.32250212 0.24558495
v 0.55338717 -0.32861289 0.24199739
v 0.48157930 -0.34333763 0.20903977
v 0.48694954 -0.33177871 0.20588269
v 0.47544189 -0.33730048 0.20291698
v 0.52860732 -0.38994145 0.28380434
v 0.53505160 -0.37970775 0.27717933
v 0.48556861 -0.36446763 0.22358129
v 0.57348719 -0.34863855 0.27258726
v 0.58691281 -0.08602278 0.15682890
v 0.58737315 -0.08550742 0.15682890
v 0.66501155 -0.02594584 0.16644354
v 0.68664597 -0.02594584 0.17543633
v 0.47352392 -0.31815831 0.19497655
v 0.25050529 -0.43683971 0.20399324
v 0.23324377 -0.44729431 0.20939848
v 0.38706297 -0.25786051 0.15682890
v 0.45779679 -0.33678511 0.19662683
v 0.45135250 -0.36461490 0.20676765
v 0.44053527 -0.37580570 0.21073787
v 0.31379746 -0.46754080 0.24125596
v 0.30236653 -0.46886602 0.23939045
v 0.18138254 -0.45060737 0.20631323
v 0.18138254 -0.44044729 0.19930554
v 0.16412105 -0.45038652 0.20650453
v 0.08088221 -0.38545040 0.16761545
v 0.15522176 -0.44928215 0.20758079
v 0.61713966 -0.04324741 0.15682890
v 0.61736978 -0.04221667 0.15682890
v 0.16634585 -0.47063305 0.25094237
v 0.16834051 -0.46974954 0.26823436
v 0.18138254 -0.47556581 0.26823436
v 0.20984485 -0.48300177 0.30274661
v 0.22173610 -0.48440066 0.32001472
v 0.08778682 -0.41136595 0.23367428
v 0.09829717 -0.41961178 0.21640618
v 0.15890422 -0.46385965 0.23367428
v 0.08088221 -0.38279993 0.26766035
v 0.08510170 -0.40098499 0.25094237
v 0.23324377 -0.48749287 0.32001472
v 0.25050529 -0.49154215 0.32001472
v 0.39181947 -0.50207032 0.38911098
v 0.40071873 -0.50207032 0.40116514
v 0.26776678 -0.49404536 0.32001472
v 0.26776678 -0.49433983 0.30274661
v 0.72907092 -0.33118974 0.40116514
v 0.72730641 -0.32993814 0.39413354
v 0.71771669 -0.33413466 0.38868045
v 0.71257662 -0.33082160 0.37511951
v 0.47014836 -0.34863855 0.20590663
v 0.45741320 -0.35430756 0.20389759
v 0.52208628 -0.39988065 0.29042935
v 0.46554529 -0.37948687 0.22561424
v 0.47498155 -0.36800157 0.22095040
v 0.46286015 -0.36019747 0.20954201
v 0.58645252 -0.08646452 0.15682890
v 0.46684946 -0.31145858 0.19033663
v 0.60670601 -0.05959187 0.15682890
v 0.25050529 -0.44545371 0.21085746
v 0.18138254 -0.45929499 0.21482767
v 0.40309697 -0.24666970 0.15682890
v 0.45779679 -0.30225561 0.18517056
v 0.45848725 -0.37205088 0.21592787
v 0.45403760 -0.38206370 0.22228978
v 0.41506496 -0.46673100 0.29370599
v 0.31962802 -0.47239998 0.24998567
v 0.30942457 -0.48351720 0.25993516
v 0.30313370 -0.47865801 0.25237737
v 0.18138254 -0.46754080 0.22346170
v 0.17087221 -0.46731994 0.22374870
v 0.10113573 -0.41710860 0.20480643
v 0.08088221 -0.39281277 0.18507491
v 0.16749663 -0.46923416 0.23367428
v 0.18138254 -0.47512405 0.25094237
v 0.21851396 -0.48528413 0.30274661
v 0.08088221 -0.39156117 0.25094237
v 0.08088221 -0.39531598 0.23367428
v 0.08088221 -0.39597859 0.21662142
v 0.08088221 -0.39502149 0.19959254
v 0.25050529 -0.49220476 0.30274661
v 0.23324377 -0.48867085 0.30274661
v 0.40547524 -0.50229122 0.38927840
v 0.40532180 -0.50214394 0.40116514
v 0.28502830 -0.49087954 0.28547853
v 0.30236653 -0.49102683 0.28547853
v 0.28502830 -0.49426622 0.30274661
v 0.39941454 -0.50140776 0.37954416
v 0.39557864 -0.50140776 0.37954416
v 0.18138254 -0.47151652 0.23367428
v 0.70482812 -0.34893305 0.40116514
v 0.50459464 -0.43426288 0.32436761
v 0.49914769 -0.43102347 0.31283961
v 0.44038186 -0.21486427 0.15682890
v 0.41207296 -0.23916010 0.15682890
v 0.42181612 -0.47026491 0.30367939
v 0.40938784 -0.48300177 0.31322227
v 0.40601226 -0.46871879 0.29152955
v 0.37141255 -0.49110045 0.32001472
v 0.30313370 -0.48602041 0.26670368
v 0.29791687 -0.48395890 0.25909806
v 0.40455463 -0.48594679 0.31939288
v 0.38867404 -0.48881809 0.32001472
v 0.29239320 -0.48395890 0.25909806
v 0.41529513 -0.50162861 0.40116514
v 0.41598557 -0.50155500 0.39513807
v 0.41629245 -0.48498966 0.32475027
v 0.68656926 -0.35997659 0.40116514
v 0.46968802 -0.46820346 0.35988436
v 0.67751654 -0.36527751 0.40116514
v 0.43332382 -0.46739356 0.31004131
v 0.41598557 -0.50155500 0.40116514
v 0.49960799 -0.46606834 0.40116514
f 1 2 7
f 1 7 19
f 1 19 34
f 1 34 50
f 1 50 64
f 1 64 77
f 1 77 97
f 1 97 132
f 1 132 112
f 1 112 87
f 1 87 73
f 1 73 58
f 1 58 42
f 1 42 41
f 1 41 21
f 1 21 11
f 1 11 3
f 1 3 4
f 1 4 5
f 1 5 6
f 1 6 2
f 2 6 8
f 2 8 7
f 3 9 10
f 3 10 5
f 3 5 4
f 3 11 9
f 5 10 12
f 5 12 13
f 5 13 14
f 5 14 6
f 6 14 15
f 6 15 16
f 6 16 17
f 6 17 18
f 6 18 8
f 7 8 20
f 7 20 19
f 8 18 20
f 9 11 21
f 9 21 10
f 10 22 42
f 10 42 58
f 10 58 74
f 10 74 92
f 10 92 123
f 10 123 121
f 10 121 174
f 10 174 173
f 10 173 172
f 10 172 171
f 10 171 223
f 10 223 263
f 10 263 284
f 10 284 291
f 10 291 292
f 10 292 289
f 10 289 287
f 10 287 270
f 10 270 226
f 10 226 176
f 10 176 175
f 10 175 125
f 10 125 124
f 10 124 93
f 10 93 75
f 10 75 60
f 10 60 59
f 10 59 46
f 10 46 29
f 10 29 28
f 10 28 27
f 10 27 45
f 10 45 44
f 10 44 43
f 10 43 25
f 10 25 24
f 10 24 12
f 10 21 23
f 10 23 22
f 12 24 13
f 13 24 14
f 14 24 25
f 14 25 15
f 15 25 26
f 15 26 16
f 16 26 27
f 16 27 17
f 17 27 28
f 17 28 29
f 17 29 30
f 17 30 31
f 17 31 32
f 17 32 33
f 17 33 20
f 17 20 18
f 19 20 35
f 19 35 36
f 19 36 34
f 20 33 37
f 20 37 38
f 20 38 39
f 20 39 40
f 20 40 35
f 21 41 23
f 22 23 42
f 23 41 42
f 25 43 26
f 26 44 45
f 26 45 27
f 26 43 44
f 29 46 30
f 30 46 59
f 30 59 47
f 30 47 31
f 31 48 49
f 31 49 32
f 31 47 48
f 32 49 33
f 33 49 37
f 34 36 51
f 34 51 50
f 35 40 52
f 35 52 53
f 35 53 36
f 36 53 54
f 36 54 51
f 37 49 55
f 37 55 56
f 37 56 38
f 38 56 40
f 38 40 39
f 40 57 54
f 40 54 52
f 40 56 57
f 47 59 60
f 47 60 61
f 47 61 62
f 47 62 55
f 47 55 63
f 47 63 48
f 48 63 49
f 49 63 55
f 50 51 65
f 50 65 66
f 50 66 67
f 50 67 64
f 51 54 57
f 51 57 65
f 52 54 53
f 55 68 69
f 55 69 71
f 55 71 56
f 55 62 70
f 55 70 68
f 56 71 57
f 57 71 72
f 57 72 65
f 58 73 86
f 58 86 111
f 58 111 149
f 58 149 206
f 58 206 252
f 58 252 259
f 58 259 258
f 58 258 257
f 58 257 256
f 58 256 218
f 58 218 162
f 58 162 154
f 58 154 113
f 58 113 88
f 58 88 74
f 60 75 76
f 60 76 61
f 61 76 62
f 62 76 70
f 64 67 77
f 65 72 66
f 66 72 78
f 66 78 67
f 67 78 79
f 67 79 80
f 67 80 77
f 68 81 82
f 68 82 69
f 68 70 81
f 69 82 83
f 69 83 84
f 69 84 71
f 70 76 81
f 71 84 72
f 72 84 85
f 72 85 78
f 73 87 86
f 74 88 89
f 74 89 90
f 74 90 91
f 74 91 92
f 75 93 94
f 75 94 76
f 76 94 95
f 76 95 96
f 76 96 81
f 77 80 97
f 78 98 79
f 78 85 98
f 79 99 100
f 79 100 80
f 79 98 101
f 79 101 99
f 80 100 97
f 81 96 102
f 81 102 103
f 81 103 104
f 81 104 82
f 82 105 106
f 82 106 107
f 82 107 83
f 82 104 108
f 82 108 105
f 83 107 84
f 84 107 109
f 84 109 85
f 85 110 107
f 85 107 98
f 85 109 110
f 86 87 112
f 86 112 153
f 86 153 209
f 86 209 208
f 86 208 238
f 86 238 191
f 86 191 190
f 86 190 236
f 86 236 273
f 86 273 274
f 86 274 241
f 86 241 197
f 86 197 150
f 86 150 111
f 88 113 89
f 89 114 115
f 89 115 90
f 89 113 116
f 89 116 117
f 89 117 114
f 90 115 118
f 90 118 119
f 90 119 120
f 90 120 121
f 90 121 122
f 90 122 91
f 91 122 92
f 92 122 123
f 93 124 94
f 94 124 125
f 94 125 126
f 94 126 95
f 95 126 127
f 95 127 128
f 95 128 129
f 95 129 96
f 96 129 130
f 96 130 102
f 97 131 132
f 97 100 131
f 98 107 101
f 99 106 100
f 99 101 107
f 99 107 133
f 99 133 106
f 100 106 134
f 100 134 135
f 100 135 131
f 102 136 103
f 102 130 129
f 102 129 137
f 102 137 138
f 102 138 139
f 102 139 136
f 103 136 104
f 104 136 140
f 104 140 108
f 105 141 106
f 105 108 141
f 106 141 142
f 106 142 134
f 106 133 107
f 107 110 109
f 108 140 143
f 108 143 141
f 111 144 145
f 111 145 146
f 111 146 147
f 111 147 148
f 111 148 149
f 111 150 144
f 112 132 131
f 112 131 151
f 112 151 152
f 112 152 153
f 113 154 155
f 113 155 116
f 114 156 157
f 114 157 158
f 114 158 115
f 114 117 159
f 114 159 160
f 114 160 161
f 114 161 156
f 115 158 118
f 116 155 162
f 116 162 163
f 116 163 164
f 116 164 165
f 116 165 117
f 117 165 166
f 117 166 159
f 118 167 168
f 118 168 169
f 118 169 170
f 118 170 120
f 118 120 119
f 118 158 167
f 120 170 171
f 120 171 172
f 120 172 173
f 120 173 174
f 120 174 121
f 121 123 122
f 125 175 126
f 126 175 176
f 126 176 177
f 126 177 128
f 126 128 127
f 128 177 178
f 128 178 129
f 129 178 137
f 131 135 151
f 134 142 135
f 135 142 179
f 135 179 180
f 135 180 151
f 136 139 181
f 136 181 182
f 136 182 183
f 136 183 184
f 136 184 185
f 136 185 140
f 137 178 138
f 138 186 187
f 138 187 188
f 138 188 182
f 138 182 181
f 138 181 139
f 138 178 189
f 138 189 186
f 140 190 191
f 140 191 192
f 140 192 179
f 140 179 193
f 140 193 143
f 140 185 194
f 140 194 190
f 141 143 193
f 141 193 179
f 141 179 142
f 144 195 196
f 144 196 145
f 144 150 197
f 144 197 198
f 144 198 199
f 144 199 200
f 144 200 201
f 144 201 202
f 144 202 195
f 145 196 203
f 145 203 204
f 145 204 146
f 146 204 147
f 147 204 148
f 148 204 203
f 148 203 205
f 148 205 149
f 149 205 207
f 149 207 206
f 151 180 192
f 151 192 152
f 152 208 209
f 152 209 153
f 152 192 208
f 154 162 155
f 156 210 211
f 156 211 157
f 156 161 210
f 157 211 210
f 157 210 212
f 157 212 213
f 157 213 158
f 158 213 214
f 158 214 167
f 159 166 160
f 160 166 161
f 161 166 215
f 161 215 216
f 161 216 217
f 161 217 210
f 162 218 164
f 162 164 163
f 164 219 166
f 164 166 165
f 164 218 219
f 166 219 215
f 167 214 220
f 167 220 168
f 168 220 169
f 169 220 221
f 169 221 171
f 169 171 170
f 171 222 223
f 171 221 224
f 171 224 225
f 171 225 222
f 176 226 227
f 176 227 177
f 177 227 228
f 177 228 229
f 177 229 178
f 178 229 189
f 179 192 180
f 182 188 183
f 183 188 230
f 183 230 184
f 184 230 185
f 185 230 231
f 185 231 198
f 185 198 194
f 186 232 233
f 186 233 188
f 186 188 187
f 186 189 229
f 186 229 232
f 188 233 234
f 188 234 199
f 188 199 235
f 188 235 230
f 190 194 237
f 190 237 236
f 191 238 192
f 192 238 208
f 194 198 237
f 195 239 196
f 195 202 239
f 196 240 203
f 196 239 202
f 196 202 240
f 197 241 242
f 197 242 198
f 198 242 237
f 198 231 199
f 199 231 230
f 199 230 235
f 199 234 243
f 199 243 200
f 200 243 244
f 200 244 201
f 201 245 246
f 201 246 247
f 201 247 202
f 201 244 245
f 202 247 248
f 202 248 249
f 202 249 240
f 203 240 205
f 205 240 250
f 205 250 207
f 206 251 252
f 206 207 250
f 206 250 251
f 210 217 253
f 210 253 254
f 210 254 212
f 212 254 255
f 212 255 213
f 213 255 220
f 213 220 214
f 215 219 256
f 215 256 257
f 215 257 258
f 215 258 259
f 215 259 252
f 215 252 216
f 216 252 251
f 216 251 253
f 216 253 217
f 218 256 219
f 220 255 221
f 221 260 224
f 221 255 261
f 221 261 260
f 222 262 223
f 222 225 262
f 223 262 263
f 224 260 225
f 225 264 265
f 225 265 266
f 225 266 267
f 225 267 268
f 225 268 262
f 225 260 254
f 225 254 269
f 225 269 264
f 226 270 227
f 227 270 228
f 228 270 229
f 229 270 271
f 229 271 272
f 229 272 232
f 232 272 245
f 232 245 233
f 233 244 243
f 233 243 234
f 233 245 244
f 236 237 242
f 236 242 273
f 240 249 250
f 241 274 242
f 242 274 273
f 245 275 276
f 245 276 277
f 245 277 246
f 245 272 275
f 246 277 247
f 247 278 265
f 247 265 279
f 247 279 280
f 247 280 248
f 247 277 276
f 247 276 281
f 247 281 282
f 247 282 278
f 248 280 249
f 249 269 250
f 249 280 283
f 249 283 269
f 250 269 253
f 250 253 251
f 253 269 254
f 254 260 261
f 254 261 255
f 262 284 263
f 262 268 267
f 262 267 285
f 262 285 284
f 264 269 283
f 264 283 265
f 265 283 279
f 265 278 267
f 265 267 266
f 267 278 282
f 267 282 281
f 267 281 286
f 267 286 285
f 270 287 271
f 271 288 286
f 271 286 276
f 271 276 272
f 271 287 289
f 271 289 288
f 272 276 290
f 272 290 275
f 275 290 276
f 276 286 281
f 279 283 280
f 284 285 291
f 285 286 292
f 285 292 291
f 286 288 292
f 288 289 292

