# https://github.com/mikedh/trimesh
v -0.05828022 0.37072823 0.36988763
v 0.08088221 0.32539728 0.36988763
v 0.08088221 0.33050077 0.35202762
v 0.08088221 0.33110117 0.34980297
v 0.08088221 0.33402817 0.33729467
v 0.08088221 0.34663679 0.27888760
v 0.08088221 0.34888831 0.26837308
v 0.08088221 0.34933864 0.26505711
v 0.08088221 0.35053946 0.25095377
v 0.08088221 0.35046440 0.24780571
v 0.08088221 0.34948873 0.23368139
v 0.07772190 0.34963882 0.23368139
v 0.02590379 0.35369159 0.25095377
v -0.05828022 0.35256583 0.26553979
v -0.05828022 -0.21542193 0.36988763
v 0.08088221 -0.29122368 0.36988763
v 0.08088221 0.34911346 0.23028148
v -0.05828022 0.34926358 0.24923284
v 0.08088221 0.34611142 0.21036473
v 0.07149666 0.34528585 0.20826606
v 0.00864470 0.34888831 0.23368139
v -0.05828022 -0.29617705 0.25827828
v -0.05655022 -0.29535147 0.26165720
v -0.00120401 -0.29512632 0.33104053
v 0.00864470 -0.29812838 0.33423057
v 0.00864470 -0.28859689 0.34287723
v 0.01884759 -0.29257459 0.34522778
v 0.03037181 -0.29565168 0.34810302
v 0.03355936 -0.27733918 0.36375938
v 0.03964839 -0.27088478 0.36988763
v 0.07580120 -0.28904719 0.36988763
v 0.08088221 -0.36972726 0.28468003
v -0.00990847 0.34753740 0.23204440
v -0.01651514 0.34536091 0.22518162
v -0.05828022 0.34611142 0.24157255
v 0.08088221 0.34288421 0.20509699
v 0.07744946 0.33845620 0.20125636
v 0.06044920 0.33582941 0.20142424
v -0.01729160 0.32817417 0.20776237
v -0.05828022 -0.29932920 0.25181425
v 0.08088221 -0.39156716 0.25095377
v 0.08088221 -0.38278618 0.26763852
v 0.08088221 -0.37122829 0.28291712
v 0.05935944 -0.28109176 0.36988763
v 0.04857081 -0.27553797 0.36988763
v -0.02418433 0.33402817 0.21609420
v -0.04317341 0.33147644 0.22232736
v -0.05828022 0.33785578 0.23500357
v 0.08088221 0.33620466 0.19922059
v 0.08088221 0.32201998 0.19116156
v -0.02900652 0.31954328 0.20986104
v -0.04317341 0.31954328 0.21651398
v -0.05215032 0.32854944 0.22482486
v 0.07693184 0.32066907 0.19126648
v 0.08088221 0.19285680 0.15548349
v 0.07971071 0.19210628 0.15548349
v 0.07717703 0.19045516 0.15548349
v -0.02287662 0.12380966 0.15548349
v -0.03099534 0.11780556 0.15548349
v -0.05828022 0.09581556 0.15548349
v -0.05828022 -0.31508997 0.21546459
v -0.03760201 -0.32972495 0.21145608
v 0.08088221 -0.39531974 0.23368139
v -0.05828022 0.33725539 0.23458385
v -0.05435708 0.31954328 0.22306195
v -0.05828022 0.31954328 0.22555939
v 0.08088221 -0.36860148 0.15548349
v -0.05828022 -0.31448955 0.15548349
v -0.05828022 -0.31839222 0.19867495
v -0.04754608 -0.32544704 0.19913663
v -0.03890973 -0.33070062 0.19913663
v 0.05019183 -0.38098494 0.18186425
v 0.08088221 -0.39599520 0.21661890
v 0.08088221 -0.37137839 0.15646987
v 0.07902962 -0.37137839 0.15548349
v -0.04175672 -0.32754847 0.15548349
v -0.05828022 -0.31569037 0.16226235
v -0.05828022 -0.31749161 0.18186425
v -0.03811965 -0.33070062 0.16457092
v -0.03861004 -0.33085072 0.18186425
v 0.05019183 -0.38106000 0.16845351
v 0.08088221 -0.39501953 0.19959836
v 0.08088221 -0.38398700 0.16557829
v 0.07148303 -0.38121009 0.15548349
v -0.03765650 -0.33047547 0.15548349
v -0.05828022 -0.31606564 0.16457092
v -0.02590071 -0.33738018 0.15548349
v 0.05291623 -0.37963403 0.15693160
v 0.05938668 -0.38308637 0.16343761
v 0.08088221 -0.39284304 0.18507532
v 0.08088221 -0.38548801 0.16761401
v 0.06521690 -0.38121009 0.15548349
v 0.04971506 -0.37558124 0.15548349
v 0.05467347 -0.37783279 0.15548349
v 0.06118479 -0.38060970 0.15548349
v 0.06409990 -0.38113504 0.15548349
f 1 2 3
f 1 3 4
f 1 4 5
f 1 5 6
f 1 6 7
f 1 7 8
f 1 8 9
f 1 9 10
f 1 10 11
f 1 11 12
f 1 12 13
f 1 13 14
f 1 14 18
f 1 18 35
f 1 35 48
f 1 48 64
f 1 64 66
f 1 66 60
f 1 60 68
f 1 68 77
f 1 77 86
f 1 86 78
f 1 78 69
f 1 69 61
f 1 61 40
f 1 40 22
f 1 22 15
f 1 15 30
f 1 30 45
f 1 45 44
f 1 44 31
f 1 31 16
f 1 16 2
f 2 16 32
f 2 32 43
f 2 43 42
f 2 42 41
f 2 41 63
f 2 63 73
f 2 73 82
f 2 82 90
f 2 90 91
f 2 91 83
f 2 83 74
f 2 74 67
f 2 67 55
f 2 55 50
f 2 50 49
f 2 49 36
f 2 36 19
f 2 19 17
f 2 17 11
f 2 11 10
f 2 10 9
f 2 9 8
f 2 8 7
f 2 7 6
f 2 6 5
f 2 5 4
f 2 4 3
f 11 17 12
f 12 17 13
f 13 18 14
f 13 17 19
f 13 19 20
f 13 20 21
f 13 21 18
f 15 22 23
f 15 23 24
f 15 24 25
f 15 25 26
f 15 26 27
f 15 27 28
f 15 28 29
f 15 29 30
f 16 31 28
f 16 28 32
f 18 21 33
f 18 33 34
f 18 34 35
f 19 36 20
f 20 34 33
f 20 33 21
f 20 36 37
f 20 37 38
f 20 38 39
f 20 39 34
f 22 40 41
f 22 41 42
f 22 42 24
f 22 24 23
f 24 42 25
f 25 28 27
f 25 27 26
f 25 42 43
f 25 43 28
f 28 31 29
f 28 43 32
f 29 31 44
f 29 44 45
f 29 45 30
f 34 39 46
f 34 46 35
f 35 46 39
f 35 39 47
f 35 47 48
f 36 49 37
f 37 49 38
f 38 49 50
f 38 50 39
f 39 51 52
f 39 52 53
f 39 53 47
f 39 50 54
f 39 54 55
f 39 55 56
f 39 56 57
f 39 57 58
f 39 58 59
f 39 59 60
f 39 60 51
f 40 61 41
f 41 61 62
f 41 62 63
f 47 53 48
f 48 53 64
f 50 55 54
f 51 60 52
f 52 65 53
f 52 60 65
f 53 65 66
f 53 66 64
f 55 67 75
f 55 75 84
f 55 84 92
f 55 92 96
f 55 96 95
f 55 95 94
f 55 94 93
f 55 93 87
f 55 87 85
f 55 85 76
f 55 76 68
f 55 68 60
f 55 60 59
f 55 59 58
f 55 58 57
f 55 57 56
f 60 66 65
f 61 69 62
f 62 69 70
f 62 70 71
f 62 71 63
f 63 72 73
f 63 71 72
f 67 74 75
f 68 76 77
f 69 78 79
f 69 79 80
f 69 80 70
f 70 80 71
f 71 80 81
f 71 81 72
f 72 81 73
f 73 81 82
f 74 83 84
f 74 84 75
f 76 85 78
f 76 78 86
f 76 86 77
f 78 85 79
f 79 85 87
f 79 87 81
f 79 81 80
f 81 88 89
f 81 89 90
f 81 90 82
f 81 87 88
f 83 91 84
f 84 91 90
f 84 90 92
f 87 93 88
f 88 93 94
f 88 94 95
f 88 95 96
f 88 96 89
f 89 96 90
f 90 96 92

