# https://github.com/mikedh/trimesh
v 0.20972024 -0.40010624 0.40117811
v 0.27228009 -0.45362879 0.40117811
v 0.20972024 -0.39982796 0.40172297
v 0.20972024 0.34049006 0.40117811
v 0.28169844 -0.46132787 0.40117811
v 0.27715686 -0.44871251 0.41441010
v 0.20972024 -0.39556101 0.40726225
v 0.20972024 0.40143344 0.48003814
v 0.26730279 0.37323438 0.40117811
v 0.29753532 -0.47190257 0.40117811
v 0.30834463 -0.46921249 0.41706946
v 0.27611782 -0.43210851 0.43254571
v 0.20972024 -0.38591396 0.41591491
v 0.20972024 0.40486555 0.48459151
v 0.38092613 0.43427050 0.40117811
v 0.31268509 -0.48043647 0.40117811
v 0.31851708 -0.48145682 0.40793680
v 0.33108603 -0.48340476 0.41470848
v 0.28503340 -0.43424198 0.43419322
v 0.20972024 -0.24491865 0.53369255
v 0.20972024 0.41339947 0.49675975
v 0.38092613 -0.49824642 0.40117811
v 0.20972024 0.41497639 0.50028828
v 0.29552429 0.43120942 0.46876503
v 0.30169146 0.43491978 0.47491401
v 0.38092613 0.44939036 0.44915055
v 0.32319274 -0.48544547 0.40117811
v 0.32357818 -0.48535270 0.40318887
v 0.38092613 -0.49722606 0.40641901
v 0.38092613 -0.49221697 0.41481224
v 0.38092613 -0.48869206 0.42054611
v 0.38092613 -0.32107468 0.53369255
v 0.35153155 -0.30827379 0.53369255
v 0.20972024 0.41479090 0.53369255
v 0.38092613 -0.49815365 0.40191754
v 0.20972024 0.41544018 0.50366115
v 0.31955612 0.44475233 0.51004362
v 0.30229476 0.43788817 0.49277718
v 0.38092613 0.44939036 0.44931920
v 0.38092613 0.44141297 0.53369255
v 0.31937177 0.44057815 0.53369255
v 0.31955612 0.44308270 0.52732305
v 0.20972024 0.41571848 0.52663549
v 0.20972024 0.41599674 0.50996580
v 0.33683425 0.44577279 0.52732305
v 0.20972024 0.41618228 0.51625747
v 0.38092613 0.44929759 0.45038294
v 0.35411237 0.44363921 0.53369255
v 0.33683425 0.44410306 0.53369255
f 1 2 3
f 1 3 7
f 1 7 13
f 1 13 20
f 1 20 34
f 1 34 43
f 1 43 46
f 1 46 44
f 1 44 36
f 1 36 23
f 1 23 21
f 1 21 14
f 1 14 8
f 1 8 4
f 1 4 9
f 1 9 15
f 1 15 22
f 1 22 27
f 1 27 16
f 1 16 10
f 1 10 5
f 1 5 2
f 2 5 6
f 2 6 3
f 3 6 7
f 4 8 9
f 5 10 11
f 5 11 6
f 6 11 12
f 6 12 7
f 7 12 13
f 8 14 9
f 9 14 15
f 10 16 17
f 10 17 11
f 11 17 18
f 11 18 19
f 11 19 12
f 12 19 20
f 12 20 13
f 14 21 15
f 15 21 23
f 15 23 24
f 15 24 25
f 15 25 26
f 15 26 39
f 15 39 47
f 15 47 40
f 15 40 32
f 15 32 31
f 15 31 30
f 15 30 29
f 15 29 35
f 15 35 22
f 16 27 28
f 16 28 17
f 17 28 18
f 18 28 29
f 18 29 30
f 18 30 31
f 18 31 32
f 18 32 19
f 19 32 33
f 19 33 20
f 20 33 32
f 20 32 40
f 20 40 48
f 20 48 49
f 20 49 41
f 20 41 34
f 22 35 28
f 22 28 27
f 23 36 37
f 23 37 38
f 23 38 25
f 23 25 24
f 25 38 37
f 25 37 26
f 26 37 39
f 28 35 29
f 34 41 42
f 34 42 43
f 36 44 37
f 37 42 45
f 37 45 39
f 37 44 46
f 37 46 43
f 37 43 42
f 39 45 47
f 40 47 45
f 40 45 48
f 41 49 42
f 42 49 45
f 45 49 48

