# https://github.com/mikedh/trimesh
v 0.35421383 0.03963304 1.17065404
v 0.36348674 0.01471571 1.17065404
v 0.35421383 0.06748380 1.19383576
v 0.35421383 0.35809607 1.17065404
v 0.60786294 0.01471571 1.17065404
v 0.40822484 0.01471571 1.21900738
v 0.35421383 0.07773396 1.19996524
v 0.35421383 0.35344304 1.18368284
v 0.40597082 0.35917503 1.17065404
v 0.60643635 0.01471571 1.17743717
v 0.64287165 0.19497017 1.17065404
v 0.64001847 0.18775460 1.17896229
v 0.42294731 0.01471571 1.23405516
v 0.35421383 0.23388031 1.28991789
v 0.35421383 0.34707039 1.19540444
v 0.40694090 0.35907390 1.17065404
v 0.40597082 0.27875849 1.30020152
v 0.60558038 0.10008875 1.23088878
v 0.59704931 0.09503110 1.25283589
v 0.58717727 0.03582294 1.24369971
v 0.57579303 0.02553907 1.25209508
v 0.57122790 0.01670505 1.24584940
v 0.57262597 0.01471571 1.23414232
v 0.63856336 0.19864538 1.19037881
v 0.64543952 0.21118835 1.17065404
v 0.64104562 0.19864538 1.18173649
v 0.42859665 0.01471571 1.23735232
v 0.46471810 0.05038896 1.27957618
v 0.44480279 0.04735437 1.26497864
v 0.35421383 0.25046938 1.29795014
v 0.35421383 0.23425121 1.29010672
v 0.35421383 0.28148960 1.28890119
v 0.35952080 0.27747720 1.29725300
v 0.38868045 0.27289161 1.30885835
v 0.42274762 0.35691597 1.17065404
v 0.40597082 0.27279045 1.30884383
v 0.41746920 0.27754464 1.29779040
v 0.42323265 0.35684853 1.17065404
v 0.60018785 0.11229454 1.25283589
v 0.58757671 0.10278616 1.27908233
v 0.59005902 0.09624494 1.26993164
v 0.57413817 0.04442093 1.27036742
v 0.57279714 0.03103505 1.26478986
v 0.56072815 0.02891082 1.27036742
v 0.56138438 0.01957104 1.25653969
v 0.56138438 0.01609812 1.24789742
v 0.56138438 0.01471571 1.24255225
v 0.56603512 0.01471571 1.24043159
v 0.64563926 0.21590882 1.17065404
v 0.64181598 0.21590882 1.18166391
v 0.63799269 0.21590882 1.19030623
v 0.59094351 0.18138196 1.28569115
v 0.59876126 0.18138196 1.27010595
v 0.59747732 0.16411853 1.27010595
v 0.59276954 0.11229454 1.27010595
v 0.44172134 0.01471571 1.24438234
v 0.51496291 0.06680944 1.31462473
v 0.37709646 0.25633626 1.31471189
v 0.35421383 0.26291120 1.29851665
v 0.35421383 0.27306021 1.29622172
v 0.35638226 0.26773281 1.29996913
v 0.37709646 0.26169736 1.31471189
v 0.38868045 0.26425990 1.31641133
v 0.40597082 0.26415874 1.31687610
v 0.41815397 0.26156248 1.31533645
v 0.57510828 0.19443069 1.30014344
v 0.57522241 0.20946874 1.28264095
v 0.42896757 0.27477980 1.29413011
v 0.46060950 0.34326031 1.17065404
v 0.44885434 0.34774474 1.17065404
v 0.57565037 0.16320816 1.30620029
v 0.57077142 0.16836695 1.31388398
v 0.56948748 0.15686923 1.31298341
v 0.56823207 0.07773396 1.29411558
v 0.57493705 0.07773396 1.28547327
v 0.57211239 0.06047054 1.28194374
v 0.59062963 0.16411853 1.28420963
v 0.58617864 0.18138196 1.29433346
v 0.57037198 0.05099588 1.27918400
v 0.56603512 0.03949817 1.27630807
v 0.55450817 0.03359757 1.27964882
v 0.54412255 0.02520189 1.27010595
v 0.54412255 0.01862695 1.25768720
v 0.54412255 0.01569352 1.24904488
v 0.54412255 0.01471571 1.24586392
v 0.55610598 0.01471571 1.24413545
v 0.64278603 0.23239673 1.17065404
v 0.64101710 0.22882267 1.17887513
v 0.58954545 0.19523990 1.28351242
v 0.46095190 0.01471571 1.24731641
v 0.52686072 0.03184426 1.28130465
v 0.51353632 0.03272092 1.28044764
v 0.50957038 0.05028781 1.29822613
v 0.50009772 0.05136677 1.29662842
v 0.52686072 0.06559561 1.31569961
v 0.52686072 0.07773396 1.31904030
v 0.38939374 0.25053682 1.31622250
v 0.40597082 0.25046938 1.31895315
v 0.35421383 0.26773281 1.29870547
v 0.44049450 0.23317224 1.31895315
v 0.44049450 0.24618725 1.31639676
v 0.45185022 0.24359099 1.31485711
v 0.57077142 0.17463843 1.31388398
v 0.57650635 0.18080876 1.30540145
v 0.58674931 0.20673761 1.27834157
v 0.47464723 0.33570756 1.17065404
v 0.54238208 0.07773396 1.31675991
v 0.55390903 0.09894235 1.31426164
v 0.55239683 0.08741092 1.31301246
v 0.55958687 0.07773396 1.30325176
v 0.55102728 0.07773396 1.31189407
v 0.55661956 0.06562933 1.30018699
v 0.53930064 0.06674201 1.31516215
v 0.54412255 0.03251861 1.28070912
v 0.52686072 0.02446010 1.27010595
v 0.52686072 0.01852580 1.25761455
v 0.50754460 0.01471571 1.24690970
v 0.52372219 0.01471571 1.24654656
v 0.54035636 0.01471571 1.24612534
v 0.64004699 0.23779155 1.17065404
v 0.63767881 0.24032037 1.17309423
v 0.52686072 0.05696390 1.30699916
v 0.56278245 0.16320816 1.31475550
v 0.62618044 0.24389444 1.17868630
v 0.63516804 0.24278176 1.17065404
v 0.63830657 0.24092728 1.17065404
f 1 2 3
f 1 3 7
f 1 7 14
f 1 14 31
f 1 31 30
f 1 30 59
f 1 59 99
f 1 99 60
f 1 60 32
f 1 32 15
f 1 15 8
f 1 8 4
f 1 4 9
f 1 9 16
f 1 16 35
f 1 35 38
f 1 38 70
f 1 70 69
f 1 69 106
f 1 106 125
f 1 125 126
f 1 126 120
f 1 120 87
f 1 87 49
f 1 49 25
f 1 25 11
f 1 11 5
f 1 5 2
f 2 5 10
f 2 10 23
f 2 23 48
f 2 48 47
f 2 47 86
f 2 86 85
f 2 85 119
f 2 119 118
f 2 118 117
f 2 117 90
f 2 90 56
f 2 56 27
f 2 27 13
f 2 13 6
f 2 6 3
f 3 6 7
f 4 8 9
f 5 11 12
f 5 12 10
f 6 13 14
f 6 14 7
f 8 15 9
f 9 15 17
f 9 17 16
f 10 18 19
f 10 19 20
f 10 20 21
f 10 21 22
f 10 22 23
f 10 12 24
f 10 24 18
f 11 25 12
f 12 25 26
f 12 26 24
f 13 27 28
f 13 28 29
f 13 29 30
f 13 30 31
f 13 31 14
f 15 32 33
f 15 33 34
f 15 34 17
f 16 17 35
f 17 34 36
f 17 36 37
f 17 37 38
f 17 38 35
f 18 24 19
f 19 24 39
f 19 39 40
f 19 40 41
f 19 41 20
f 20 42 43
f 20 43 21
f 20 41 40
f 20 40 42
f 21 43 22
f 22 43 44
f 22 44 45
f 22 45 46
f 22 46 47
f 22 47 48
f 22 48 23
f 24 26 25
f 24 25 49
f 24 49 50
f 24 50 51
f 24 51 52
f 24 52 53
f 24 53 54
f 24 54 55
f 24 55 39
f 27 56 28
f 28 56 57
f 28 57 58
f 28 58 30
f 28 30 29
f 30 58 59
f 32 60 33
f 33 60 61
f 33 61 62
f 33 62 63
f 33 63 34
f 34 63 64
f 34 64 36
f 36 64 65
f 36 65 37
f 37 65 66
f 37 66 67
f 37 67 68
f 37 68 69
f 37 69 70
f 37 70 38
f 39 55 40
f 40 71 72
f 40 72 73
f 40 73 74
f 40 74 75
f 40 75 76
f 40 76 42
f 40 55 54
f 40 54 77
f 40 77 78
f 40 78 71
f 42 76 79
f 42 79 43
f 43 79 80
f 43 80 81
f 43 81 44
f 44 81 45
f 45 81 82
f 45 82 83
f 45 83 46
f 46 83 84
f 46 84 85
f 46 85 86
f 46 86 47
f 49 87 88
f 49 88 50
f 50 88 51
f 51 89 78
f 51 78 52
f 51 88 89
f 52 78 77
f 52 77 53
f 53 77 54
f 56 90 91
f 56 91 92
f 56 92 93
f 56 93 94
f 56 94 57
f 57 94 93
f 57 93 95
f 57 95 96
f 57 96 58
f 58 97 98
f 58 98 62
f 58 62 99
f 58 99 59
f 58 96 97
f 60 99 61
f 61 99 62
f 62 98 63
f 63 98 64
f 64 98 100
f 64 100 101
f 64 101 65
f 65 101 102
f 65 102 66
f 66 103 104
f 66 104 78
f 66 78 89
f 66 89 105
f 66 105 67
f 66 102 103
f 67 105 68
f 68 105 69
f 69 105 106
f 71 78 72
f 72 96 107
f 72 107 108
f 72 108 73
f 72 78 103
f 72 103 96
f 73 108 109
f 73 109 110
f 73 110 74
f 74 110 76
f 74 76 75
f 76 110 79
f 78 104 103
f 79 110 111
f 79 111 112
f 79 112 80
f 80 112 113
f 80 113 81
f 81 114 82
f 81 113 114
f 82 115 83
f 82 114 91
f 82 91 115
f 83 116 117
f 83 117 84
f 83 115 116
f 84 117 118
f 84 118 119
f 84 119 85
f 87 120 88
f 88 120 121
f 88 121 105
f 88 105 89
f 90 117 116
f 90 116 115
f 90 115 91
f 91 114 122
f 91 122 93
f 91 93 92
f 93 122 95
f 95 122 114
f 95 114 113
f 95 113 96
f 96 113 107
f 96 103 123
f 96 123 100
f 96 100 98
f 96 98 97
f 100 103 101
f 100 123 103
f 101 103 102
f 105 121 124
f 105 124 106
f 106 124 121
f 106 121 125
f 107 113 111
f 107 111 109
f 107 109 108
f 109 111 110
f 111 113 112
f 120 126 121
f 121 126 125

