# https://github.com/mikedh/trimesh
v -0.44779677 -0.26844427 0.59640449
v -0.19777547 -0.20870264 0.40728307
v -0.19777547 -0.21649328 0.70482398
v -0.44779677 -0.26764930 0.61391032
v -0.44779677 -0.26737108 0.57913206
v -0.19777547 -0.20484705 0.28561748
v -0.19777547 -0.20488680 0.28625937
v -0.19777547 0.13754449 0.70482398
v -0.41845302 -0.25496962 0.70482398
v -0.44779677 -0.26590039 0.64116109
v -0.44779677 -0.26403223 0.54458720
v -0.19777547 -0.20230317 0.26910364
v -0.40592261 -0.23779835 0.35459047
v -0.38864431 -0.23362479 0.33731806
v -0.44779677 0.13754449 0.70482398
v -0.19777547 0.13754449 0.22913196
v -0.44779677 -0.25969966 0.70482398
v -0.44779677 -0.26442968 0.65709138
v -0.44779677 -0.26200506 0.52772324
v -0.22293422 -0.17308818 0.13775149
v -0.19777547 -0.16617199 0.13004891
v -0.40592261 -0.23521472 0.33731806
v -0.44779677 -0.25866621 0.50006400
v -0.44779677 -0.25079603 0.44095262
v -0.44779677 -0.24972283 0.43360017
v -0.44779677 0.13754449 0.31158448
v -0.19777547 0.07684889 0.19884689
v -0.19912152 0.13754449 0.22942373
v -0.23321312 -0.17324718 0.13769316
v -0.19777547 -0.15957377 0.11300989
v -0.19777547 -0.16247541 0.12012894
v -0.19865652 -0.16633097 0.13004891
v -0.40592261 -0.23088216 0.32004563
v -0.37139049 -0.21510211 0.26822834
v -0.42320091 -0.23759961 0.35459047
v -0.42320091 -0.23394278 0.33731806
v -0.44779677 -0.24141545 0.38353348
v -0.19777547 0.04262564 0.18192458
v -0.19777547 0.04226791 0.18174950
v -0.19777547 -0.07868606 0.12999058
v -0.19777547 -0.09498285 0.12310490
v -0.44779677 0.13543783 0.31070916
v -0.24295355 -0.17308818 0.13827665
v -0.21593482 -0.15941479 0.11867012
v -0.22584658 -0.15714914 0.12053744
v -0.19777547 -0.14749030 0.10869177
v -0.41654411 -0.22587389 0.30948376
v -0.38893801 -0.21231972 0.26752812
v -0.38335804 -0.20890138 0.25801660
v -0.44779677 -0.23934854 0.37186290
v -0.44047921 -0.23628792 0.35459047
v -0.44779677 -0.23521472 0.35459047
v -0.19777547 -0.13103453 0.11312660
v -0.29853287 -0.11227334 0.15379847
v -0.29456816 -0.10305175 0.15560741
v -0.44779677 0.12991282 0.30849178
v -0.25448058 -0.16800041 0.14090254
v -0.44779677 -0.17380367 0.24156112
v -0.44779677 -0.17340617 0.24132770
v -0.31253173 -0.13981889 0.15479051
v -0.31253173 -0.13274371 0.15479051
v -0.30394153 -0.12801366 0.15169779
v -0.44779677 -0.22861651 0.33883523
v -0.31079412 -0.12125645 0.15601591
v -0.41287308 -0.00217065 0.24307829
v -0.44779677 -0.01123326 0.25714132
v -0.44779677 -0.15635417 0.23654275
v -0.44779677 -0.14681459 0.23415030
v -0.44779677 -0.12952409 0.23391689
v -0.44779677 -0.08417132 0.24173615
v -0.44779677 -0.04319086 0.24903029
v -0.44779677 -0.02554263 0.25229804
f 1 2 3
f 1 3 4
f 1 4 10
f 1 10 18
f 1 18 17
f 1 17 15
f 1 15 26
f 1 26 42
f 1 42 56
f 1 56 66
f 1 66 72
f 1 72 71
f 1 71 70
f 1 70 69
f 1 69 68
f 1 68 67
f 1 67 59
f 1 59 58
f 1 58 63
f 1 63 52
f 1 52 50
f 1 50 37
f 1 37 25
f 1 25 24
f 1 24 23
f 1 23 19
f 1 19 11
f 1 11 5
f 1 5 6
f 1 6 7
f 1 7 2
f 2 7 6
f 2 6 12
f 2 12 21
f 2 21 31
f 2 31 30
f 2 30 46
f 2 46 53
f 2 53 41
f 2 41 40
f 2 40 39
f 2 39 38
f 2 38 27
f 2 27 16
f 2 16 8
f 2 8 3
f 3 8 15
f 3 15 17
f 3 17 9
f 3 9 10
f 3 10 4
f 5 11 6
f 6 11 13
f 6 13 14
f 6 14 12
f 8 16 28
f 8 28 26
f 8 26 15
f 9 17 18
f 9 18 10
f 11 19 13
f 12 20 21
f 12 14 22
f 12 22 20
f 13 19 23
f 13 23 24
f 13 24 25
f 13 25 22
f 13 22 14
f 16 27 28
f 20 29 30
f 20 30 31
f 20 31 32
f 20 32 21
f 20 22 33
f 20 33 34
f 20 34 29
f 21 32 31
f 22 25 35
f 22 35 36
f 22 36 33
f 25 37 35
f 26 28 27
f 26 27 38
f 26 38 39
f 26 39 40
f 26 40 41
f 26 41 42
f 29 43 30
f 29 34 43
f 30 44 45
f 30 45 46
f 30 43 44
f 33 36 47
f 33 47 34
f 34 48 49
f 34 49 43
f 34 47 48
f 35 50 51
f 35 51 36
f 35 37 50
f 36 51 52
f 36 52 47
f 41 53 54
f 41 54 55
f 41 55 42
f 42 55 56
f 43 57 45
f 43 45 44
f 43 49 58
f 43 58 57
f 45 57 59
f 45 59 60
f 45 60 46
f 46 60 61
f 46 61 62
f 46 62 54
f 46 54 53
f 47 52 63
f 47 63 58
f 47 58 48
f 48 58 49
f 50 52 51
f 54 62 64
f 54 64 65
f 54 65 55
f 55 65 56
f 56 65 66
f 57 58 59
f 59 67 60
f 60 67 68
f 60 68 69
f 60 69 61
f 61 64 62
f 61 69 70
f 61 70 71
f 61 71 72
f 61 72 64
f 64 72 65
f 65 72 66

