# https://github.com/mikedh/trimesh
v -0.14683504 0.38933065 0.56346196
v -0.16409966 0.38933065 0.56346196
v -0.12631057 0.38879144 0.56346196
v -0.12955642 0.39987552 0.38910467
v -0.18137828 0.38825220 0.56346196
v -0.19776848 0.40119364 0.33734858
v -0.12631057 0.39969578 0.38910467
v -0.12631057 -0.19351292 0.56346196
v -0.12955642 0.39927639 0.37185266
v -0.19776848 0.38537632 0.56346196
v -0.19776848 0.40113372 0.33674956
v -0.12631057 0.39903672 0.37205233
v -0.16251171 -0.19513061 0.56346196
v -0.12631057 -0.20375823 0.53107448
v -0.19776848 -0.19453148 0.56346196
v -0.12631057 0.39867725 0.36869774
v -0.18137828 0.39837769 0.32560764
v -0.19776848 0.39891690 0.32041604
v -0.16409966 -0.19519053 0.56346196
v -0.12631057 -0.20741299 0.51921370
v -0.19776848 -0.20645436 0.52372640
v -0.18137828 -0.19560992 0.56346196
v -0.12631057 0.39765870 0.36114999
v -0.17017166 0.39759878 0.32800373
v -0.19776848 0.39658025 0.31314783
v -0.12955642 -0.20747289 0.51929357
v -0.12631057 -0.20831170 0.51298381
v -0.19776848 -0.20783238 0.51518025
v -0.19500531 -0.20765264 0.52017215
v -0.18763216 -0.20765264 0.52017215
v -0.12631057 0.39580137 0.35272367
v -0.15866425 0.39687982 0.33267617
v -0.14683504 0.38873152 0.32005662
v -0.19505426 0.39634061 0.31374685
v -0.12631057 0.34972750 0.25152776
v -0.12631057 0.34846930 0.24921150
v -0.19776848 0.39394404 0.30855529
v -0.12955642 -0.20873108 0.51002860
v -0.12955642 -0.21088801 0.49277658
v -0.12631057 -0.21028885 0.49617106
v -0.19776848 -0.20962981 0.49365515
v -0.12631057 0.39022935 0.33714891
v -0.12955642 0.39124791 0.33734858
v -0.13609711 0.38100260 0.30999294
v -0.12631057 0.35631804 0.26482619
v -0.12631057 0.34385591 0.24314133
v -0.19776848 0.38226080 0.28994546
v -0.19776848 0.38262029 0.29042469
v -0.12955642 -0.21064834 0.47548461
v -0.12631057 -0.21040870 0.47548461
v -0.12631057 -0.21058842 0.49277658
v -0.19776848 -0.21016903 0.47636318
v -0.12631057 0.38303968 0.32181377
v -0.13003210 0.38363881 0.32013650
v -0.12631057 0.33540804 0.24034588
v -0.14683504 0.33253216 0.24094489
v -0.16023121 0.33049508 0.24154392
v -0.14683504 0.34115978 0.24453909
v -0.18137828 0.34876887 0.25600050
v -0.16409966 0.34996714 0.25424335
v -0.19776848 0.37435216 0.28119964
v -0.17252211 -0.20729314 0.29405878
v -0.12631057 -0.20705350 0.28347594
v -0.17314471 -0.20729314 0.29405878
v -0.19776848 -0.20867119 0.40727522
v -0.12631057 0.05752681 0.15552339
v -0.19776848 0.33678606 0.25328490
v -0.18137828 0.33678606 0.24909170
v -0.16523292 0.33648649 0.24505822
v -0.13073165 0.05542982 0.15552339
v -0.14339330 0.04746126 0.15552339
v -0.15371851 0.04081080 0.15552339
v -0.16314829 0.03428017 0.15552339
v -0.19776848 0.34721111 0.25799724
v -0.12631057 -0.20663411 0.26822069
v -0.19776848 -0.20483668 0.28559251
v -0.12631057 -0.17697667 0.15552339
v -0.19776848 0.34661195 0.25767778
v -0.16757637 0.02996636 0.15552339
v -0.17589390 0.02115900 0.15552339
v -0.17911178 0.01600640 0.15552339
v -0.18282632 0.00869689 0.15552339
v -0.18505786 0.00408351 0.15552339
v -0.19776848 -0.02263815 0.15552339
v -0.12631057 -0.20315909 0.25248620
v -0.19776848 -0.20232029 0.26913919
v -0.19776848 -0.16924776 0.15552339
v -0.19776848 -0.20208064 0.26822069
f 1 2 5
f 1 5 10
f 1 10 15
f 1 15 22
f 1 22 19
f 1 19 13
f 1 13 8
f 1 8 3
f 1 3 4
f 1 4 2
f 2 4 6
f 2 6 5
f 3 7 4
f 3 8 14
f 3 14 20
f 3 20 27
f 3 27 40
f 3 40 51
f 3 51 50
f 3 50 63
f 3 63 75
f 3 75 85
f 3 85 77
f 3 77 66
f 3 66 55
f 3 55 46
f 3 46 36
f 3 36 35
f 3 35 45
f 3 45 53
f 3 53 42
f 3 42 31
f 3 31 23
f 3 23 16
f 3 16 12
f 3 12 7
f 4 7 9
f 4 9 6
f 5 6 10
f 6 9 11
f 6 11 18
f 6 18 25
f 6 25 37
f 6 37 48
f 6 48 47
f 6 47 61
f 6 61 74
f 6 74 78
f 6 78 67
f 6 67 84
f 6 84 87
f 6 87 88
f 6 88 86
f 6 86 76
f 6 76 65
f 6 65 52
f 6 52 41
f 6 41 28
f 6 28 21
f 6 21 15
f 6 15 10
f 7 12 9
f 8 13 14
f 9 12 11
f 11 12 16
f 11 16 17
f 11 17 18
f 13 19 14
f 14 19 20
f 15 21 22
f 16 23 24
f 16 24 17
f 17 24 25
f 17 25 18
f 19 22 26
f 19 26 20
f 20 26 27
f 21 28 29
f 21 29 22
f 22 29 30
f 22 30 26
f 23 31 32
f 23 32 24
f 24 32 33
f 24 33 34
f 24 34 25
f 25 34 35
f 25 35 36
f 25 36 37
f 26 30 38
f 26 38 27
f 27 38 39
f 27 39 40
f 28 41 29
f 29 41 39
f 29 39 30
f 30 39 38
f 31 42 43
f 31 43 32
f 32 43 33
f 33 43 42
f 33 42 44
f 33 44 45
f 33 45 35
f 33 35 34
f 36 46 47
f 36 47 48
f 36 48 37
f 39 49 50
f 39 50 51
f 39 51 40
f 39 41 52
f 39 52 49
f 42 53 54
f 42 54 44
f 44 54 45
f 45 54 53
f 46 55 56
f 46 56 57
f 46 57 58
f 46 58 59
f 46 59 60
f 46 60 61
f 46 61 47
f 49 62 63
f 49 63 50
f 49 52 64
f 49 64 62
f 52 65 64
f 55 66 56
f 56 66 57
f 57 67 68
f 57 68 69
f 57 69 58
f 57 66 70
f 57 70 71
f 57 71 72
f 57 72 73
f 57 73 67
f 58 69 74
f 58 74 59
f 59 74 61
f 59 61 60
f 62 64 63
f 63 64 75
f 64 65 76
f 64 76 75
f 66 77 87
f 66 87 84
f 66 84 83
f 66 83 82
f 66 82 81
f 66 81 80
f 66 80 79
f 66 79 73
f 66 73 72
f 66 72 71
f 66 71 70
f 67 78 68
f 67 73 79
f 67 79 80
f 67 80 81
f 67 81 82
f 67 82 83
f 67 83 84
f 68 78 69
f 69 78 74
f 75 76 86
f 75 86 85
f 77 85 88
f 77 88 87
f 85 86 88

