# https://github.com/mikedh/trimesh
v -0.11790941 -0.18144097 0.15546748
v -0.11790941 -0.17964266 0.09493698
v -0.09572415 -0.26770346 0.15546748
v -0.11790941 0.06172370 0.15546748
v -0.11790941 -0.17717001 0.08245877
v -0.09377808 -0.27517768 0.15546748
v 0.07718467 0.19047116 0.15546748
v 0.04750702 0.14107396 0.03028450
v -0.11790941 0.03795234 0.09846554
v -0.10633026 -0.17643944 0.06779931
v -0.05545984 -0.30226465 0.08356545
v -0.07001649 -0.29501525 0.10127233
v -0.08949671 -0.28186511 0.14728767
v -0.09076166 -0.28433779 0.15546748
v -0.11790941 -0.16390749 0.07652440
v -0.10378091 -0.08680513 0.01737328
v -0.09500410 -0.09444793 0.00940197
v -0.08873774 -0.09062653 -0.00097510
v 0.08086276 0.19288762 0.15546748
v 0.08086276 0.16360895 0.04406189
v 0.08086276 0.15922561 0.03426213
v 0.05556377 0.13685916 0.01876867
v 0.03392341 0.12157357 0.01729308
v -0.05394191 0.05374371 0.03230544
v -0.08753118 0.03536727 0.05102274
v -0.08729764 0.01873295 0.03376493
v -0.11790941 0.02997236 0.09046215
v -0.08539049 -0.10209073 0.00141465
v -0.04282981 -0.30243325 0.07451958
v -0.03276860 -0.30833394 0.07067024
v -0.05205421 -0.31108761 0.08656474
v -0.08601323 -0.29321692 0.15546748
v -0.08655813 -0.29231778 0.15546748
v -0.11790941 -0.00475742 0.06539350
v -0.10378091 -0.08556879 0.01737328
v -0.09930493 -0.07899374 0.01062094
v -0.09017784 -0.07775740 -0.00203370
v -0.07887114 -0.09579666 -0.00349319
v -0.07285776 -0.11226240 -0.00153650
v -0.07772295 -0.07775740 -0.00625190
v 0.08086276 -0.36857718 0.15546748
v 0.08086276 0.15709010 0.03124684
v 0.06706508 0.13860128 0.01740536
v 0.06097386 0.13045271 0.01499955
v 0.04316727 0.12477681 0.01600996
v 0.00862443 0.07768366 0.01055679
v -0.02597680 0.06054356 0.01469483
v -0.02025534 0.07094002 0.01641095
v -0.04853182 0.04868598 0.02078956
v -0.05991636 0.04244811 0.02685222
v -0.08247137 0.03025335 0.03950686
v -0.06972458 0.01817098 0.01732515
v -0.08105074 0.00861748 0.02234532
v -0.08893235 0.00861748 0.03097420
v -0.11790941 0.00266059 0.06669262
v -0.05437004 0.03716558 0.01607416
v -0.06589081 0.02969138 0.02138298
v -0.06933537 -0.12108534 0.00034008
v -0.02124784 -0.31367267 0.06727003
v -0.01657725 -0.29158721 0.05277093
v -0.00505648 -0.29793746 0.04954714
v -0.04318011 -0.31389744 0.08313240
v -0.01815358 -0.32850867 0.08601940
v -0.02946027 -0.32603603 0.09546626
v -0.04318011 -0.31856182 0.09546626
v -0.05329970 -0.31204294 0.09546626
v -0.08515696 -0.29400370 0.15546748
v -0.11790941 -0.00397066 0.06539350
v -0.08906857 -0.06460729 -0.00142422
v -0.06044180 -0.09495370 -0.00783973
v -0.06044180 -0.11226240 -0.00498480
v -0.07873491 -0.05949336 -0.00371775
v -0.06044180 -0.06050490 -0.00804823
v -0.06044180 -0.07775740 -0.00824071
v 0.08062923 -0.36897055 0.15546748
v 0.08086276 -0.31547096 0.10014959
v 0.08086276 0.14669365 0.02564931
v 0.06996474 0.13860128 0.01740536
v 0.07652301 0.12893539 0.01557696
v 0.06044842 0.11224486 0.01195218
v 0.02590558 0.07768366 0.00843969
v 0.04316727 0.11224486 0.01329944
v -0.06044180 -0.04319621 -0.00538578
v -0.04292712 0.04301007 0.01414949
v -0.03701105 0.05481145 0.01636281
v -0.06954944 -0.03369891 0.00008345
v -0.00863726 -0.31665111 0.06430287
v -0.00863726 -0.32524925 0.07476015
v -0.02545136 -0.31996674 0.07833679
v 0.00862443 -0.28501214 0.04184852
v 0.00862443 -0.29939860 0.04823195
v -0.00863726 -0.32946405 0.08338903
v 0.06118793 -0.38060334 0.15546748
v 0.05466858 -0.37784967 0.15546748
v -0.02589896 -0.33502755 0.13001385
v -0.03265184 -0.32732852 0.10890681
v 0.04970609 -0.37560181 0.15546748
v -0.03479252 -0.32834007 0.12042264
v -0.03584340 -0.32918307 0.13001385
v -0.03724458 -0.33025078 0.14728767
v -0.04175947 -0.32749712 0.15546748
v -0.07285776 -0.04319621 -0.00139215
v -0.04318011 -0.09495370 -0.00808030
v -0.04318011 -0.11226240 -0.00703776
v -0.02589896 -0.12951490 -0.00440744
v -0.04158433 -0.12940250 -0.00216199
v -0.04318011 -0.04319621 -0.00657268
v -0.04318011 -0.06050490 -0.00835299
v -0.04318011 -0.07775740 -0.00822465
v 0.07903344 -0.37138701 0.15546748
v 0.07148267 -0.38122152 0.15546748
v 0.07111292 -0.38099676 0.15490608
v 0.03629762 -0.29524002 0.05099061
v 0.08086276 -0.30794055 0.09376615
v 0.08086276 0.13449889 0.01933002
v 0.08086276 0.12663131 0.01605810
v 0.07772958 0.11224486 0.01345980
v 0.00862443 -0.31704447 0.06346883
v 0.00862443 -0.32564262 0.07360538
v 0.00862443 -0.30805296 0.05483995
v 0.06443788 -0.38099676 0.15490608
v 0.02590558 -0.28501214 0.04269857
v -0.00863726 -0.14086670 -0.00136002
v 0.00862443 -0.14052952 -0.00099116
v 0.02590558 -0.29737550 0.04930657
v 0.06410704 -0.38110914 0.15546748
v -0.02589896 -0.33721925 0.14728767
v -0.02589896 -0.33738779 0.15546748
v -0.03765325 -0.33047560 0.15546748
v -0.02589896 -0.11226240 -0.00726232
v -0.00863726 -0.12951490 -0.00468008
v -0.02589896 -0.06050490 -0.00638019
v -0.02589896 -0.07775740 -0.00703776
v 0.06521631 -0.38122152 0.15546748
v 0.02590558 -0.31412226 0.06609920
v 0.02590558 -0.30597364 0.05747032
v 0.04316727 -0.26770346 0.04189666
v 0.05873587 -0.24870884 0.04074183
v 0.04250560 -0.28377582 0.04880937
v 0.05918348 -0.26635474 0.04937071
v 0.06959498 -0.25966728 0.05190486
v 0.08086276 -0.27090671 0.06518500
v 0.08086276 -0.28253948 0.07270719
v 0.08086276 -0.28546172 0.07504886
v 0.08086276 -0.29833086 0.08573069
v 0.08086276 0.11224486 0.01429385
v 0.08086276 -0.11226240 0.00595367
v 0.07772958 -0.11226240 0.00515170
v 0.06044842 -0.11226240 0.00234491
v 0.04316727 -0.25387897 0.03663592
v 0.02004789 -0.13934938 -0.00022126
v -0.00863726 -0.11226240 -0.00569050
v 0.00862443 -0.12951490 -0.00304412
v 0.05182731 -0.24185281 0.03501597
v 0.06426273 -0.23319847 0.03689250
v 0.08086276 -0.23359186 0.04544122
v 0.08086276 -0.11540943 0.00617818
v 0.07772958 -0.12951490 0.00736507
v 0.08086276 -0.12951490 0.00799057
v 0.06838841 -0.22330777 0.03517638
v 0.08086276 -0.21667653 0.03867281
v 0.08086276 -0.21948639 0.03977950
f 1 2 3
f 1 3 6
f 1 6 14
f 1 14 33
f 1 33 32
f 1 32 67
f 1 67 101
f 1 101 129
f 1 129 128
f 1 128 97
f 1 97 94
f 1 94 93
f 1 93 126
f 1 126 134
f 1 134 111
f 1 111 110
f 1 110 75
f 1 75 41
f 1 41 19
f 1 19 7
f 1 7 4
f 1 4 9
f 1 9 27
f 1 27 55
f 1 55 68
f 1 68 34
f 1 34 15
f 1 15 5
f 1 5 2
f 2 5 6
f 2 6 3
f 4 7 8
f 4 8 9
f 5 10 11
f 5 11 12
f 5 12 13
f 5 13 14
f 5 14 6
f 5 15 16
f 5 16 17
f 5 17 18
f 5 18 10
f 7 19 8
f 8 19 20
f 8 20 21
f 8 21 22
f 8 22 23
f 8 23 9
f 9 24 25
f 9 25 26
f 9 26 27
f 9 23 24
f 10 18 28
f 10 28 11
f 11 29 30
f 11 30 31
f 11 31 12
f 11 28 29
f 12 31 32
f 12 32 33
f 12 33 14
f 12 14 13
f 15 34 16
f 16 34 68
f 16 68 35
f 16 35 36
f 16 36 37
f 16 37 18
f 16 18 17
f 18 38 39
f 18 39 28
f 18 37 40
f 18 40 38
f 19 41 76
f 19 76 114
f 19 114 145
f 19 145 144
f 19 144 143
f 19 143 142
f 19 142 156
f 19 156 162
f 19 162 161
f 19 161 159
f 19 159 157
f 19 157 147
f 19 147 146
f 19 146 116
f 19 116 115
f 19 115 77
f 19 77 42
f 19 42 21
f 19 21 20
f 21 42 22
f 22 43 44
f 22 44 45
f 22 45 23
f 22 42 43
f 23 45 46
f 23 46 47
f 23 47 48
f 23 48 24
f 24 49 50
f 24 50 51
f 24 51 25
f 24 48 49
f 25 51 26
f 26 52 53
f 26 53 54
f 26 54 55
f 26 55 27
f 26 51 50
f 26 50 56
f 26 56 57
f 26 57 52
f 28 39 58
f 28 58 30
f 28 30 29
f 30 59 31
f 30 58 60
f 30 60 61
f 30 61 59
f 31 59 62
f 31 62 63
f 31 63 64
f 31 64 65
f 31 65 66
f 31 66 32
f 32 66 67
f 35 68 55
f 35 55 36
f 36 69 37
f 36 55 69
f 37 69 40
f 38 40 70
f 38 70 71
f 38 71 39
f 39 71 58
f 40 69 72
f 40 72 73
f 40 73 74
f 40 74 70
f 41 75 76
f 42 77 78
f 42 78 43
f 43 78 44
f 44 78 79
f 44 79 80
f 44 80 81
f 44 81 82
f 44 82 45
f 45 82 46
f 46 82 83
f 46 83 84
f 46 84 47
f 47 84 48
f 48 84 85
f 48 85 49
f 49 85 56
f 49 56 50
f 52 57 56
f 52 56 69
f 52 69 53
f 53 69 54
f 54 69 55
f 56 85 84
f 56 84 86
f 56 86 69
f 58 71 61
f 58 61 60
f 59 61 87
f 59 87 88
f 59 88 89
f 59 89 62
f 61 90 91
f 61 91 87
f 61 71 90
f 62 89 63
f 63 89 88
f 63 88 92
f 63 92 93
f 63 93 94
f 63 94 64
f 64 95 96
f 64 96 65
f 64 94 97
f 64 97 95
f 65 96 98
f 65 98 66
f 66 98 99
f 66 99 100
f 66 100 67
f 67 100 101
f 69 86 102
f 69 102 72
f 70 74 103
f 70 103 104
f 70 104 71
f 71 104 105
f 71 105 106
f 71 106 90
f 72 102 83
f 72 83 73
f 73 83 107
f 73 107 108
f 73 108 74
f 74 109 103
f 74 108 109
f 75 110 76
f 76 110 111
f 76 111 112
f 76 112 113
f 76 113 114
f 77 115 78
f 78 115 116
f 78 116 79
f 79 116 117
f 79 117 80
f 80 117 108
f 80 108 107
f 80 107 81
f 81 107 83
f 81 83 82
f 83 102 86
f 83 86 84
f 87 118 119
f 87 119 88
f 87 91 120
f 87 120 118
f 88 119 121
f 88 121 93
f 88 93 92
f 90 122 91
f 90 106 105
f 90 105 123
f 90 123 124
f 90 124 122
f 91 125 120
f 91 122 125
f 93 121 126
f 95 127 99
f 95 99 98
f 95 98 96
f 95 97 127
f 97 128 127
f 99 127 100
f 100 127 129
f 100 129 101
f 103 109 130
f 103 130 104
f 104 130 131
f 104 131 105
f 105 131 123
f 108 117 132
f 108 132 133
f 108 133 130
f 108 130 109
f 111 134 121
f 111 121 112
f 112 121 119
f 112 119 118
f 112 118 135
f 112 135 136
f 112 136 113
f 113 136 125
f 113 125 122
f 113 122 137
f 113 137 138
f 113 138 139
f 113 139 140
f 113 140 141
f 113 141 142
f 113 142 143
f 113 143 144
f 113 144 145
f 113 145 114
f 116 146 117
f 117 146 147
f 117 147 148
f 117 148 149
f 117 149 132
f 118 120 136
f 118 136 135
f 120 125 136
f 121 134 126
f 122 150 137
f 122 124 151
f 122 151 150
f 123 131 124
f 124 131 151
f 127 128 129
f 130 152 131
f 130 133 152
f 131 153 151
f 131 152 153
f 132 149 133
f 133 149 152
f 137 150 154
f 137 154 138
f 138 140 139
f 138 154 155
f 138 155 156
f 138 156 140
f 140 156 141
f 141 156 142
f 147 157 148
f 148 157 158
f 148 158 149
f 149 158 151
f 149 151 153
f 149 153 152
f 150 151 158
f 150 158 159
f 150 159 154
f 154 159 155
f 155 160 161
f 155 161 162
f 155 162 156
f 155 159 160
f 157 159 158
f 159 161 160

