# https://github.com/mikedh/trimesh
v 0.28503615 0.45843871 0.87134942
v 0.21737899 0.45843871 0.87134942
v 0.28646686 0.45836293 0.87134942
v 0.30229873 0.46003106 0.85553585
v 0.28503615 0.46056188 0.85553585
v 0.20661107 0.45798377 0.87134942
v 0.30229873 0.45639141 0.87134942
v 0.31956127 0.46010689 0.83824546
v 0.30372941 0.45616392 0.87134942
v 0.31956127 0.45722550 0.85553585
v 0.31956127 0.45950029 0.82097781
v 0.39892761 0.45297925 0.63928102
v 0.28503615 0.43978545 0.63928102
v 0.27703552 0.43728317 0.63928102
v 0.26909136 0.43478093 0.63928102
v 0.23321085 0.42666748 0.66552334
v 0.21540236 0.41862991 0.66690930
v 0.20702522 0.41468693 0.67356644
v 0.20661107 0.41430783 0.67318019
v 0.20661107 -0.23120170 0.87134942
v 0.33684266 0.45714967 0.83824546
v 0.39892761 0.45358585 0.68281371
v 0.39892761 0.45358585 0.67577034
v 0.39892761 0.45351002 0.66552334
v 0.39892761 0.45320669 0.64825566
v 0.37138660 0.44024039 0.87134942
v 0.39892761 -0.31097100 0.63928102
v 0.25764573 0.42924560 0.63928102
v 0.22080515 0.41764416 0.65282251
v 0.20930305 0.41271547 0.66204708
v 0.20661107 0.41097145 0.66309222
v 0.20661107 -0.23249079 0.86348807
v 0.28503615 -0.27116221 0.85553585
v 0.29996440 -0.27343700 0.87134942
v 0.39892761 0.45290342 0.69371963
v 0.39000454 0.43462927 0.87134942
v 0.39892761 0.43334024 0.86089793
v 0.39892761 -0.31301835 0.64748317
v 0.36976763 -0.29921795 0.64673338
v 0.38881857 -0.30619398 0.63928102
v 0.24045847 0.42082887 0.63928102
v 0.21502587 0.40604271 0.63928102
v 0.20661107 0.40012827 0.63928102
v 0.20661107 -0.23264240 0.85553585
v 0.28503615 -0.27222375 0.83824546
v 0.29567230 -0.27556013 0.85553585
v 0.30724970 -0.27760742 0.86794133
v 0.30380472 -0.27510519 0.87134942
v 0.39892761 0.43129289 0.87134942
v 0.39892761 -0.31332163 0.65055045
v 0.37138660 -0.30437413 0.66552334
v 0.35436874 -0.29679150 0.66693201
v 0.34503153 -0.29391011 0.67361187
v 0.36293414 -0.29353095 0.63996264
v 0.37202664 -0.29800470 0.63928102
v 0.20661107 -0.20617903 0.63928102
v 0.20661107 -0.23279406 0.84619769
v 0.34457974 -0.29421338 0.68281371
v 0.35410521 -0.29876296 0.68281371
v 0.31956127 -0.28723740 0.82097781
v 0.20661107 -0.23271823 0.83824546
v 0.30427534 -0.27859318 0.85553585
v 0.35423698 -0.29102872 0.87134942
v 0.30962166 -0.27700082 0.87134942
v 0.39892761 -0.29899046 0.87134942
v 0.39892761 -0.31407989 0.66552334
v 0.38518533 -0.30930281 0.66552334
v 0.20661107 -0.21800796 0.70008139
v 0.20661107 -0.21671887 0.69260630
v 0.36381892 -0.29375844 0.63928102
v 0.39892761 -0.30953031 0.80364197
v 0.39892761 -0.30862038 0.82097781
v 0.37319379 -0.29535080 0.87134942
v 0.38866796 -0.29785309 0.87134942
f 1 2 6
f 1 6 20
f 1 20 34
f 1 34 48
f 1 48 64
f 1 64 63
f 1 63 73
f 1 73 74
f 1 74 65
f 1 65 49
f 1 49 36
f 1 36 26
f 1 26 9
f 1 9 7
f 1 7 3
f 1 3 4
f 1 4 5
f 1 5 2
f 2 5 6
f 3 7 4
f 4 8 5
f 4 7 9
f 4 9 10
f 4 10 8
f 5 8 11
f 5 11 12
f 5 12 6
f 6 12 13
f 6 13 14
f 6 14 15
f 6 15 16
f 6 16 17
f 6 17 18
f 6 18 19
f 6 19 31
f 6 31 43
f 6 43 56
f 6 56 69
f 6 69 68
f 6 68 61
f 6 61 57
f 6 57 44
f 6 44 32
f 6 32 20
f 8 10 21
f 8 21 22
f 8 22 23
f 8 23 24
f 8 24 25
f 8 25 12
f 8 12 11
f 9 26 10
f 10 26 21
f 12 25 24
f 12 24 23
f 12 23 22
f 12 22 35
f 12 35 37
f 12 37 49
f 12 49 65
f 12 65 72
f 12 72 71
f 12 71 66
f 12 66 50
f 12 50 38
f 12 38 27
f 12 27 40
f 12 40 55
f 12 55 70
f 12 70 56
f 12 56 43
f 12 43 42
f 12 42 41
f 12 41 28
f 12 28 15
f 12 15 14
f 12 14 13
f 15 28 29
f 15 29 16
f 16 29 17
f 17 29 30
f 17 30 19
f 17 19 18
f 19 30 31
f 20 32 33
f 20 33 34
f 21 35 22
f 21 26 36
f 21 36 37
f 21 37 35
f 27 38 39
f 27 39 40
f 28 41 29
f 29 42 43
f 29 43 30
f 29 41 42
f 30 43 31
f 32 44 45
f 32 45 33
f 33 45 46
f 33 46 47
f 33 47 34
f 34 47 48
f 36 49 37
f 38 50 51
f 38 51 52
f 38 52 39
f 39 52 53
f 39 53 54
f 39 54 55
f 39 55 40
f 44 57 45
f 45 58 59
f 45 59 60
f 45 60 46
f 45 57 61
f 45 61 58
f 46 60 62
f 46 62 47
f 47 62 63
f 47 63 64
f 47 64 48
f 50 66 67
f 50 67 51
f 51 67 59
f 51 59 53
f 51 53 52
f 53 59 58
f 53 58 61
f 53 61 68
f 53 68 69
f 53 69 56
f 53 56 54
f 54 70 55
f 54 56 70
f 59 67 66
f 59 66 60
f 60 63 62
f 60 66 71
f 60 71 72
f 60 72 63
f 63 72 73
f 65 74 72
f 72 74 73

