# https://github.com/mikedh/trimesh
v -0.31958009 0.14680594 1.16536370
v -0.30230179 0.16405176 1.16432687
v -0.31948220 0.16493095 1.16207283
v -0.33233079 0.15979102 1.16031470
v -0.33502286 0.14680594 1.16135158
v -0.44779677 -0.00860934 1.14755699
v -0.44047921 -0.00860934 1.14877416
v -0.42320091 -0.00860934 1.14940532
v -0.19777547 -0.04316861 1.14972084
v -0.19777547 -0.04228942 1.14976593
v -0.19777547 -0.02585516 1.15048724
v -0.28502351 0.16405176 1.16229821
v -0.26776969 0.21592447 1.15386820
v -0.26776969 0.23317029 1.15129868
v -0.25049139 0.30228884 1.13772954
v -0.25049139 0.31953466 1.13213958
v -0.26918915 0.30350621 1.13060683
v -0.36674052 0.16405176 1.14268834
v -0.37936885 0.15356899 1.13993842
v -0.44779677 0.00775728 1.14404074
v -0.44779677 -0.01611634 1.14633983
v -0.44047921 -0.02585516 1.14552838
v -0.40144394 -0.06967983 1.14065973
v -0.36272688 -0.08624935 1.14052449
v -0.35122433 -0.08807537 1.14097530
v -0.33683391 -0.08915746 1.14106545
v -0.28502351 -0.11221952 1.13786472
v -0.30230179 -0.18133807 1.12654962
v -0.19777547 -0.07772789 1.14390550
v -0.19777547 0.28497538 1.13335673
v -0.25837187 0.15661238 1.15810581
v -0.19865652 0.30228884 1.13159862
v -0.23321312 0.31953466 1.13317639
v -0.23321312 0.33191104 1.12713568
v -0.25049139 0.33015266 1.12564798
v -0.25979133 0.32866481 1.12379971
v -0.26356025 0.31953466 1.12659471
v -0.36294714 0.17284374 1.14065973
v -0.27589488 0.31013397 1.12280798
v -0.27219940 0.31953466 1.11978759
v -0.27773041 0.33028795 1.10752574
v -0.38264829 0.19320058 1.10797656
v -0.44779677 0.30776693 0.94866300
v -0.44779677 0.30749640 0.94884331
v -0.44779677 0.01452035 1.14020891
v -0.44779677 -0.02626094 1.14440136
v -0.31341277 -0.19222661 1.12411529
v -0.30230179 -0.19188846 1.12407019
v -0.19777547 -0.08868405 1.14156132
v -0.19777547 0.30235649 1.13141828
v -0.21593482 0.31953466 1.13078717
v -0.21593482 0.33218158 1.12632423
v -0.25724608 0.38046990 1.07209269
v -0.26182264 0.38046990 1.07209269
v -0.26130868 0.36369750 1.08953871
v -0.27334964 0.37925253 1.07051487
v -0.28135248 0.36775534 1.07583435
v -0.29287951 0.36105988 1.07051487
v -0.41453728 0.31087793 0.98504275
v -0.43649000 0.31392133 0.95556025
v -0.33059316 0.38229593 1.00550918
v -0.34615830 0.38060514 0.98598943
v -0.44779677 0.31398892 0.93910599
v -0.44779677 -0.03728474 1.14138098
v -0.31933535 -0.19824574 1.11983264
v -0.31958009 -0.21454472 1.11126739
v -0.30230179 -0.20054516 1.11861548
v -0.29329555 -0.19026531 1.12343908
v -0.19777547 -0.09686736 1.13768444
v -0.19777547 0.31899359 1.12654962
v -0.19870546 0.31939942 1.12668486
v -0.20450568 0.33069372 1.12483654
v -0.20646357 0.34591062 1.10702988
v -0.21593482 0.34077066 1.11586556
v -0.19777547 0.39771572 1.00348055
v -0.25851869 0.39737754 1.01988977
v -0.26776969 0.38980294 1.04554042
v -0.19777547 0.35260603 1.09562459
v -0.19777547 0.36058646 1.08435453
v -0.19777547 0.36565877 1.07614990
v -0.19777547 0.37221894 1.06285124
v -0.26764732 0.38324277 1.06397826
v -0.29378501 0.39730994 1.01970946
v -0.28152379 0.38263406 1.05897433
v -0.29305081 0.37945542 1.05365488
v -0.30993752 0.37850858 1.03566784
v -0.31458749 0.38324277 1.02412729
v -0.32004509 0.38669189 1.01114421
v -0.33654024 0.38412196 0.99252607
v -0.31045148 0.39717465 0.99964874
v -0.34892380 0.38195775 0.97643242
v -0.44779677 0.32967924 0.90259100
v -0.44779677 -0.04567094 1.13723361
v -0.34564436 -0.20744351 1.10608315
v -0.33683391 -0.21068977 1.10833720
v -0.30230179 -0.21244818 1.11000518
v -0.31958009 -0.22313381 1.10270219
v -0.30230179 -0.22110490 1.10247676
v -0.29219425 -0.20893138 1.10725527
v -0.19777547 -0.10985245 1.12925443
v -0.19777547 0.32027861 1.12555784
v -0.19777547 0.33285788 1.11523446
v -0.19777547 0.33603652 1.11216903
v -0.19777547 0.35111818 1.09724748
v -0.19777547 0.39778331 1.00298469
v -0.26776969 0.40170590 0.99369816
v -0.26776969 0.39913597 1.01096388
v -0.26776969 0.39764807 1.02079139
v -0.28502351 0.39758043 1.02070122
v -0.28502351 0.39460467 1.02931154
v -0.28502351 0.39933886 1.01096388
v -0.29770078 0.39812149 1.01096388
v -0.30633993 0.39528103 1.01096388
v -0.30186127 0.38912663 1.02768864
v -0.29841052 0.38358090 1.04211434
v -0.30374573 0.39886544 0.99378833
v -0.31133253 0.39737754 0.98810821
v -0.32006957 0.39480761 0.97643242
v -0.33683391 0.38817979 0.97643242
v -0.35149353 0.38297224 0.95916668
v -0.36013268 0.37823810 0.95916668
v -0.44779677 0.33326371 0.89010378
v -0.44779677 0.33130238 0.89740677
v -0.44779677 -0.16815009 1.06862151
v -0.44779677 -0.16990847 1.06731416
v -0.44779677 -0.17646864 1.06059722
v -0.33590391 -0.21921122 1.09693189
v -0.32951633 -0.22502749 1.09089112
v -0.31958009 -0.22644769 1.09409185
v -0.30230179 -0.22705641 1.09386640
v -0.19777547 -0.27216604 0.97828072
v -0.19777547 -0.26350931 0.98891965
v -0.19777547 0.39873015 0.99369816
v -0.26776969 0.40366723 0.97643242
v -0.28502351 0.40157066 0.99369816
v -0.28502351 0.40251750 0.97643242
v -0.30230179 0.39954175 0.97643242
v -0.31143042 0.39744518 0.97643242
v -0.31121016 0.39730994 0.96628935
v -0.31801378 0.39507809 0.95997813
v -0.33683391 0.38899134 0.95916668
v -0.44779677 0.34543720 0.70482400
v -0.44779677 0.34442272 0.78763639
v -0.44779677 0.34388171 0.80373004
v -0.44779677 0.34374641 0.80706597
v -0.44779677 0.34110884 0.83830658
v -0.44779677 0.33941805 0.85557231
v -0.44779677 0.33657759 0.87319868
v -0.44779677 -0.24477564 0.93752818
v -0.44779677 -0.24693980 0.93265952
v -0.44779677 -0.27216604 0.87220691
v -0.30230179 -0.23233161 1.08007187
v -0.43340634 -0.27656205 0.86512932
v -0.19865652 -0.27717071 0.96958023
v -0.19777547 -0.27723836 0.96967040
v -0.19777547 0.41124183 0.83830658
v -0.19865652 0.41130947 0.83830658
v -0.25049139 0.40461401 0.95916668
v -0.26776969 0.40414065 0.95916668
v -0.28502351 0.40244986 0.95916668
v -0.21593482 0.41022739 0.83830658
v -0.30362336 0.39900068 0.95997813
v -0.31025568 0.39703941 0.95474882
v -0.42772850 0.35145631 0.70482400
v -0.44779677 -0.25972201 0.70482400
v -0.44779677 -0.27561521 0.85908856
v -0.44779677 -0.27744124 0.84592514
v -0.44779677 -0.27811755 0.83830658
v -0.44047921 -0.27845573 0.83830658
v -0.19777547 -0.27906439 0.95916668
v -0.19777547 0.41110659 0.83740498
v -0.20342885 0.38371614 0.70482400
v -0.21593482 0.38385143 0.70482400
v -0.29924261 0.39893304 0.94190097
v -0.22068268 0.38344566 0.70482400
v -0.28502351 0.38960005 0.76919859
v -0.28502351 0.39210239 0.78646430
v -0.31958009 0.39088502 0.89010378
v -0.41067047 0.35591997 0.70482400
v -0.41845302 -0.25498787 0.70482400
v -0.19777547 -0.24619590 0.75373606
v -0.20007599 -0.25505551 0.77073130
v -0.20675725 -0.25918094 0.77749334
v -0.21593482 -0.26621453 0.80373004
v -0.21593482 -0.27034001 0.82099575
v -0.44588780 -0.27683258 0.79390255
v -0.44779677 -0.27683258 0.79390255
v -0.44779677 -0.27919963 0.82140150
v -0.44047921 -0.27960540 0.82099575
v -0.19777547 -0.27953780 0.94275748
v -0.19777547 0.38358090 0.70482400
v -0.33683391 0.37113686 0.70482400
v -0.35411221 0.36904030 0.70482400
v -0.37180653 0.36545589 0.70482400
v -0.19777547 -0.21650600 0.70482400
v -0.19777547 -0.25444680 0.77050591
v -0.19777547 -0.25640813 0.77605078
v -0.19777547 -0.25918094 0.78470619
v -0.19865652 -0.26465903 0.80373004
v -0.19865652 -0.26878451 0.82099575
v -0.19865652 -0.27135449 0.83830658
v -0.19777547 -0.27703547 0.87878864
v -0.44025892 -0.27798231 0.80332431
v -0.44779677 -0.27791466 0.80400052
v -0.44779677 -0.27879385 0.81382802
v -0.19777547 -0.27953780 0.94190097
v -0.19777547 -0.26445615 0.80373004
v -0.19777547 -0.26858162 0.82099575
v -0.19777547 -0.27135449 0.83916309
f 1 2 3
f 1 3 4
f 1 4 5
f 1 5 6
f 1 6 7
f 1 7 8
f 1 8 9
f 1 9 10
f 1 10 11
f 1 11 2
f 2 11 12
f 2 12 13
f 2 13 14
f 2 14 15
f 2 15 3
f 3 15 4
f 4 15 16
f 4 16 17
f 4 17 18
f 4 18 19
f 4 19 20
f 4 20 6
f 4 6 5
f 6 21 7
f 6 20 45
f 6 45 44
f 6 44 43
f 6 43 63
f 6 63 92
f 6 92 123
f 6 123 122
f 6 122 148
f 6 148 147
f 6 147 146
f 6 146 145
f 6 145 144
f 6 144 143
f 6 143 142
f 6 142 165
f 6 165 187
f 6 187 204
f 6 204 205
f 6 205 188
f 6 188 168
f 6 168 167
f 6 167 166
f 6 166 151
f 6 151 150
f 6 150 149
f 6 149 126
f 6 126 125
f 6 125 124
f 6 124 93
f 6 93 64
f 6 64 46
f 6 46 21
f 7 21 22
f 7 22 23
f 7 23 24
f 7 24 25
f 7 25 8
f 8 25 9
f 9 25 26
f 9 26 27
f 9 27 28
f 9 28 29
f 9 29 49
f 9 49 69
f 9 69 100
f 9 100 132
f 9 132 131
f 9 131 155
f 9 155 170
f 9 170 190
f 9 190 206
f 9 206 202
f 9 202 209
f 9 209 208
f 9 208 207
f 9 207 198
f 9 198 197
f 9 197 196
f 9 196 181
f 9 181 195
f 9 195 191
f 9 191 171
f 9 171 156
f 9 156 133
f 9 133 105
f 9 105 75
f 9 75 81
f 9 81 80
f 9 80 79
f 9 79 78
f 9 78 104
f 9 104 103
f 9 103 102
f 9 102 101
f 9 101 70
f 9 70 50
f 9 50 30
f 9 30 11
f 9 11 10
f 11 30 31
f 11 31 12
f 12 31 13
f 13 30 32
f 13 32 14
f 13 31 30
f 14 32 33
f 14 33 15
f 15 33 16
f 16 33 34
f 16 34 35
f 16 35 36
f 16 36 37
f 16 37 17
f 17 37 18
f 18 37 38
f 18 38 19
f 19 38 37
f 19 37 39
f 19 39 40
f 19 40 41
f 19 41 42
f 19 42 43
f 19 43 44
f 19 44 45
f 19 45 20
f 21 46 22
f 22 46 47
f 22 47 23
f 23 47 24
f 24 47 25
f 25 47 28
f 25 28 26
f 26 28 27
f 28 47 48
f 28 48 49
f 28 49 29
f 30 50 32
f 32 50 51
f 32 51 33
f 33 51 52
f 33 52 34
f 34 52 53
f 34 53 54
f 34 54 55
f 34 55 35
f 35 55 56
f 35 56 36
f 36 56 57
f 36 57 41
f 36 41 40
f 36 40 37
f 37 40 39
f 41 57 58
f 41 58 42
f 42 58 59
f 42 59 43
f 43 59 60
f 43 60 61
f 43 61 62
f 43 62 63
f 46 64 47
f 47 65 66
f 47 66 48
f 47 64 65
f 48 66 67
f 48 67 68
f 48 68 49
f 49 68 69
f 50 70 71
f 50 71 72
f 50 72 51
f 51 72 52
f 52 73 74
f 52 74 53
f 52 72 73
f 53 75 76
f 53 76 77
f 53 77 54
f 53 74 73
f 53 73 78
f 53 78 79
f 53 79 80
f 53 80 81
f 53 81 75
f 54 56 55
f 54 77 82
f 54 82 56
f 56 82 83
f 56 83 84
f 56 84 85
f 56 85 57
f 57 85 58
f 58 85 59
f 59 85 86
f 59 86 60
f 60 86 61
f 61 86 87
f 61 87 88
f 61 88 89
f 61 89 62
f 62 89 90
f 62 90 91
f 62 91 92
f 62 92 63
f 64 93 94
f 64 94 95
f 64 95 65
f 65 95 66
f 66 96 67
f 66 95 97
f 66 97 98
f 66 98 96
f 67 96 68
f 68 96 99
f 68 99 100
f 68 100 69
f 70 101 72
f 70 72 71
f 72 101 102
f 72 102 103
f 72 103 104
f 72 104 78
f 72 78 73
f 75 105 106
f 75 106 107
f 75 107 108
f 75 108 76
f 76 108 77
f 77 108 109
f 77 109 110
f 77 110 82
f 82 110 83
f 83 109 111
f 83 111 112
f 83 112 90
f 83 90 113
f 83 113 114
f 83 114 115
f 83 115 84
f 83 110 109
f 84 115 85
f 85 115 86
f 86 115 87
f 87 115 113
f 87 113 88
f 88 113 89
f 89 113 90
f 90 112 116
f 90 116 117
f 90 117 118
f 90 118 119
f 90 119 91
f 91 119 120
f 91 120 121
f 91 121 122
f 91 122 123
f 91 123 92
f 93 124 94
f 94 124 125
f 94 125 126
f 94 126 127
f 94 127 95
f 95 127 97
f 96 98 99
f 97 127 128
f 97 128 129
f 97 129 130
f 97 130 98
f 98 130 131
f 98 131 132
f 98 132 99
f 99 132 100
f 105 133 134
f 105 134 106
f 106 134 135
f 106 135 111
f 106 111 107
f 107 111 108
f 108 111 109
f 111 135 112
f 112 135 116
f 113 115 114
f 116 135 136
f 116 136 137
f 116 137 117
f 117 137 138
f 117 138 118
f 118 138 139
f 118 139 140
f 118 140 141
f 118 141 119
f 119 141 120
f 120 141 142
f 120 142 143
f 120 143 144
f 120 144 145
f 120 145 146
f 120 146 121
f 121 146 147
f 121 147 148
f 121 148 122
f 126 149 127
f 127 149 128
f 128 149 150
f 128 150 151
f 128 151 129
f 129 152 130
f 129 151 153
f 129 153 154
f 129 154 155
f 129 155 152
f 130 152 155
f 130 155 131
f 133 156 157
f 133 157 158
f 133 158 134
f 134 158 157
f 134 157 159
f 134 159 136
f 134 136 135
f 136 160 137
f 136 159 161
f 136 161 160
f 137 160 162
f 137 162 138
f 138 162 139
f 139 163 140
f 139 162 163
f 140 163 164
f 140 164 142
f 140 142 141
f 142 164 179
f 142 179 194
f 142 194 193
f 142 193 192
f 142 192 175
f 142 175 173
f 142 173 172
f 142 172 191
f 142 191 195
f 142 195 180
f 142 180 165
f 151 166 153
f 153 166 167
f 153 167 168
f 153 168 169
f 153 169 170
f 153 170 155
f 153 155 154
f 156 171 157
f 157 161 159
f 157 171 172
f 157 172 173
f 157 173 161
f 160 161 162
f 161 174 162
f 161 173 175
f 161 175 176
f 161 176 177
f 161 177 174
f 162 174 178
f 162 178 163
f 163 178 164
f 164 178 179
f 165 180 181
f 165 181 182
f 165 182 183
f 165 183 184
f 165 184 185
f 165 185 186
f 165 186 187
f 168 188 189
f 168 189 169
f 169 189 170
f 170 189 190
f 171 191 172
f 174 177 178
f 175 192 176
f 176 192 193
f 176 193 177
f 177 193 194
f 177 194 178
f 178 194 179
f 180 195 181
f 181 196 182
f 182 196 183
f 183 197 198
f 183 198 199
f 183 199 200
f 183 200 185
f 183 185 184
f 183 196 197
f 185 200 201
f 185 201 202
f 185 202 203
f 185 203 186
f 186 203 187
f 187 203 204
f 188 205 189
f 189 206 190
f 189 205 204
f 189 204 203
f 189 203 202
f 189 202 206
f 198 207 199
f 199 207 208
f 199 208 200
f 200 208 209
f 200 209 201
f 201 209 202

